<?xml version="1.0" encoding="us-ascii" standalone="no"?><svg xmlns="http://www.w3.org/2000/svg" xmlns:xlink="http://www.w3.org/1999/xlink" contentStyleType="text/css" height="519px" preserveAspectRatio="none" style="width:426px;height:519px;background:#FFFFFF;" version="1.1" viewBox="0 0 426 519" width="426px" zoomAndPan="magnify"><defs/><g><!--class RegisterVehicleCheckupUI--><g id="elem_RegisterVehicleCheckupUI"><rect codeLine="14" fill="#F1F1F1" height="48" id="RegisterVehicleCheckupUI" rx="2.5" ry="2.5" style="stroke:#181818;stroke-width:0.5;" width="199" x="19.5" y="7"/><ellipse cx="34.5" cy="23" fill="#ADD1B2" rx="11" ry="11" style="stroke:#181818;stroke-width:1.0;"/><path d="M37.2656,18.875 Q37.4219,18.6563 37.6094,18.5469 Q37.7969,18.4375 38.0156,18.4375 Q38.3906,18.4375 38.625,18.7031 Q38.8594,18.9531 38.8594,19.5625 L38.8594,21.0156 Q38.8594,21.625 38.625,21.8906 Q38.3906,22.1563 38.0156,22.1563 Q37.6719,22.1563 37.4688,21.9531 Q37.2656,21.7656 37.1563,21.25 Q37.1094,20.8906 36.9219,20.7031 Q36.5938,20.3281 35.9844,20.1094 Q35.375,19.8906 34.75,19.8906 Q33.9844,19.8906 33.3438,20.2188 Q32.7188,20.5469 32.2188,21.2969 Q31.7344,22.0469 31.7344,23.0781 L31.7344,24.1719 Q31.7344,25.4063 32.625,26.2344 Q33.5156,27.0469 35.1094,27.0469 Q36.0469,27.0469 36.7031,26.7969 Q37.0938,26.6406 37.5156,26.2031 Q37.7813,25.9375 37.9219,25.8594 Q38.0781,25.7813 38.2813,25.7813 Q38.6094,25.7813 38.8594,26.0469 Q39.125,26.2969 39.125,26.6406 Q39.125,26.9844 38.7813,27.3906 Q38.2813,27.9688 37.4844,28.2969 Q36.4063,28.75 35.1094,28.75 Q33.5938,28.75 32.3906,28.125 Q31.4063,27.625 30.7188,26.5625 Q30.0313,25.4844 30.0313,24.2031 L30.0313,23.0469 Q30.0313,21.7188 30.6406,20.5781 Q31.2656,19.4219 32.3594,18.8125 Q33.4531,18.1875 34.6875,18.1875 Q35.4219,18.1875 36.0625,18.3594 Q36.7188,18.5156 37.2656,18.875 Z " fill="#000000"/><text fill="#000000" font-family="sans-serif" font-size="14" lengthAdjust="spacing" textLength="167" x="48.5" y="28.7969">RegisterVehicleCheckupUI</text><line style="stroke:#181818;stroke-width:0.5;" x1="20.5" x2="217.5" y1="39" y2="39"/><line style="stroke:#181818;stroke-width:0.5;" x1="20.5" x2="217.5" y1="47" y2="47"/></g><!--class VehicleController--><g id="elem_VehicleController"><rect codeLine="17" fill="#F1F1F1" height="103.8633" id="VehicleController" rx="2.5" ry="2.5" style="stroke:#181818;stroke-width:0.5;" width="210" x="14" y="116"/><ellipse cx="60.75" cy="132" fill="#ADD1B2" rx="11" ry="11" style="stroke:#181818;stroke-width:1.0;"/><path d="M63.5156,127.875 Q63.6719,127.6563 63.8594,127.5469 Q64.0469,127.4375 64.2656,127.4375 Q64.6406,127.4375 64.875,127.7031 Q65.1094,127.9531 65.1094,128.5625 L65.1094,130.0156 Q65.1094,130.625 64.875,130.8906 Q64.6406,131.1563 64.2656,131.1563 Q63.9219,131.1563 63.7188,130.9531 Q63.5156,130.7656 63.4063,130.25 Q63.3594,129.8906 63.1719,129.7031 Q62.8438,129.3281 62.2344,129.1094 Q61.625,128.8906 61,128.8906 Q60.2344,128.8906 59.5938,129.2188 Q58.9688,129.5469 58.4688,130.2969 Q57.9844,131.0469 57.9844,132.0781 L57.9844,133.1719 Q57.9844,134.4063 58.875,135.2344 Q59.7656,136.0469 61.3594,136.0469 Q62.2969,136.0469 62.9531,135.7969 Q63.3438,135.6406 63.7656,135.2031 Q64.0313,134.9375 64.1719,134.8594 Q64.3281,134.7813 64.5313,134.7813 Q64.8594,134.7813 65.1094,135.0469 Q65.375,135.2969 65.375,135.6406 Q65.375,135.9844 65.0313,136.3906 Q64.5313,136.9688 63.7344,137.2969 Q62.6563,137.75 61.3594,137.75 Q59.8438,137.75 58.6406,137.125 Q57.6563,136.625 56.9688,135.5625 Q56.2813,134.4844 56.2813,133.2031 L56.2813,132.0469 Q56.2813,130.7188 56.8906,129.5781 Q57.5156,128.4219 58.6094,127.8125 Q59.7031,127.1875 60.9375,127.1875 Q61.6719,127.1875 62.3125,127.3594 Q62.9688,127.5156 63.5156,127.875 Z " fill="#000000"/><text fill="#000000" font-family="sans-serif" font-size="14" lengthAdjust="spacing" textLength="108" x="81.25" y="137.7969">VehicleController</text><line style="stroke:#181818;stroke-width:0.5;" x1="15" x2="223" y1="148" y2="148"/><line style="stroke:#181818;stroke-width:0.5;" x1="15" x2="223" y1="156" y2="156"/><text fill="#000000" font-family="sans-serif" font-size="14" lengthAdjust="spacing" textLength="152" x="20" y="175.1074">+getVehicleRepository()</text><text fill="#000000" font-family="sans-serif" font-size="14" lengthAdjust="spacing" textLength="198" x="20" y="193.7285">+RegisterVehicleMaintenance()</text><text fill="#000000" font-family="sans-serif" font-size="14" lengthAdjust="spacing" textLength="109" x="20" y="212.3496">+UpdateVehicle()</text></g><!--class Repositories--><g id="elem_Repositories"><rect codeLine="24" fill="#F1F1F1" height="103.8633" id="Repositories" rx="2.5" ry="2.5" style="stroke:#181818;stroke-width:0.5;" width="190" x="24" y="281"/><ellipse cx="75.25" cy="297" fill="#ADD1B2" rx="11" ry="11" style="stroke:#181818;stroke-width:1.0;"/><path d="M78.0156,292.875 Q78.1719,292.6563 78.3594,292.5469 Q78.5469,292.4375 78.7656,292.4375 Q79.1406,292.4375 79.375,292.7031 Q79.6094,292.9531 79.6094,293.5625 L79.6094,295.0156 Q79.6094,295.625 79.375,295.8906 Q79.1406,296.1563 78.7656,296.1563 Q78.4219,296.1563 78.2188,295.9531 Q78.0156,295.7656 77.9063,295.25 Q77.8594,294.8906 77.6719,294.7031 Q77.3438,294.3281 76.7344,294.1094 Q76.125,293.8906 75.5,293.8906 Q74.7344,293.8906 74.0938,294.2188 Q73.4688,294.5469 72.9688,295.2969 Q72.4844,296.0469 72.4844,297.0781 L72.4844,298.1719 Q72.4844,299.4063 73.375,300.2344 Q74.2656,301.0469 75.8594,301.0469 Q76.7969,301.0469 77.4531,300.7969 Q77.8438,300.6406 78.2656,300.2031 Q78.5313,299.9375 78.6719,299.8594 Q78.8281,299.7813 79.0313,299.7813 Q79.3594,299.7813 79.6094,300.0469 Q79.875,300.2969 79.875,300.6406 Q79.875,300.9844 79.5313,301.3906 Q79.0313,301.9688 78.2344,302.2969 Q77.1563,302.75 75.8594,302.75 Q74.3438,302.75 73.1406,302.125 Q72.1563,301.625 71.4688,300.5625 Q70.7813,299.4844 70.7813,298.2031 L70.7813,297.0469 Q70.7813,295.7188 71.3906,294.5781 Q72.0156,293.4219 73.1094,292.8125 Q74.2031,292.1875 75.4375,292.1875 Q76.1719,292.1875 76.8125,292.3594 Q77.4688,292.5156 78.0156,292.875 Z " fill="#000000"/><text fill="#000000" font-family="sans-serif" font-size="14" lengthAdjust="spacing" textLength="79" x="95.75" y="302.7969">Repositories</text><line style="stroke:#181818;stroke-width:0.5;" x1="25" x2="213" y1="313" y2="313"/><line style="stroke:#181818;stroke-width:0.5;" x1="25" x2="213" y1="321" y2="321"/><text fill="#000000" font-family="sans-serif" font-size="14" lengthAdjust="spacing" textLength="94" x="30" y="340.1074">-Repositories()</text><text fill="#000000" font-family="sans-serif" font-size="14" lengthAdjust="spacing" textLength="178" x="30" y="358.7285">+getInstance(): Repositories</text><text fill="#000000" font-family="sans-serif" font-size="14" lengthAdjust="spacing" textLength="152" x="30" y="377.3496">+getVehicleRepository()</text></g><!--class VehicleRepository--><g id="elem_VehicleRepository"><rect codeLine="33" fill="#F1F1F1" height="66.6211" id="VehicleRepository" rx="2.5" ry="2.5" style="stroke:#181818;stroke-width:0.5;" width="146" x="46" y="446"/><ellipse cx="61" cy="462" fill="#ADD1B2" rx="11" ry="11" style="stroke:#181818;stroke-width:1.0;"/><path d="M63.7656,457.875 Q63.9219,457.6563 64.1094,457.5469 Q64.2969,457.4375 64.5156,457.4375 Q64.8906,457.4375 65.125,457.7031 Q65.3594,457.9531 65.3594,458.5625 L65.3594,460.0156 Q65.3594,460.625 65.125,460.8906 Q64.8906,461.1563 64.5156,461.1563 Q64.1719,461.1563 63.9688,460.9531 Q63.7656,460.7656 63.6563,460.25 Q63.6094,459.8906 63.4219,459.7031 Q63.0938,459.3281 62.4844,459.1094 Q61.875,458.8906 61.25,458.8906 Q60.4844,458.8906 59.8438,459.2188 Q59.2188,459.5469 58.7188,460.2969 Q58.2344,461.0469 58.2344,462.0781 L58.2344,463.1719 Q58.2344,464.4063 59.125,465.2344 Q60.0156,466.0469 61.6094,466.0469 Q62.5469,466.0469 63.2031,465.7969 Q63.5938,465.6406 64.0156,465.2031 Q64.2813,464.9375 64.4219,464.8594 Q64.5781,464.7813 64.7813,464.7813 Q65.1094,464.7813 65.3594,465.0469 Q65.625,465.2969 65.625,465.6406 Q65.625,465.9844 65.2813,466.3906 Q64.7813,466.9688 63.9844,467.2969 Q62.9063,467.75 61.6094,467.75 Q60.0938,467.75 58.8906,467.125 Q57.9063,466.625 57.2188,465.5625 Q56.5313,464.4844 56.5313,463.2031 L56.5313,462.0469 Q56.5313,460.7188 57.1406,459.5781 Q57.7656,458.4219 58.8594,457.8125 Q59.9531,457.1875 61.1875,457.1875 Q61.9219,457.1875 62.5625,457.3594 Q63.2188,457.5156 63.7656,457.875 Z " fill="#000000"/><text fill="#000000" font-family="sans-serif" font-size="14" lengthAdjust="spacing" textLength="114" x="75" y="467.7969">VehicleRepository</text><line style="stroke:#181818;stroke-width:0.5;" x1="47" x2="191" y1="478" y2="478"/><text fill="#000000" font-family="sans-serif" font-size="14" lengthAdjust="spacing" textLength="84" x="52" y="497.1074">-List Vehicles</text><line style="stroke:#181818;stroke-width:0.5;" x1="47" x2="191" y1="504.6211" y2="504.6211"/></g><!--class Vehicle--><g id="elem_Vehicle"><rect fill="#F1F1F1" height="48" id="Vehicle" rx="2.5" ry="2.5" style="stroke:#181818;stroke-width:0.5;" width="78" x="295" y="455.5"/><ellipse cx="310" cy="471.5" fill="#ADD1B2" rx="11" ry="11" style="stroke:#181818;stroke-width:1.0;"/><path d="M312.7656,467.375 Q312.9219,467.1563 313.1094,467.0469 Q313.2969,466.9375 313.5156,466.9375 Q313.8906,466.9375 314.125,467.2031 Q314.3594,467.4531 314.3594,468.0625 L314.3594,469.5156 Q314.3594,470.125 314.125,470.3906 Q313.8906,470.6563 313.5156,470.6563 Q313.1719,470.6563 312.9688,470.4531 Q312.7656,470.2656 312.6563,469.75 Q312.6094,469.3906 312.4219,469.2031 Q312.0938,468.8281 311.4844,468.6094 Q310.875,468.3906 310.25,468.3906 Q309.4844,468.3906 308.8438,468.7188 Q308.2188,469.0469 307.7188,469.7969 Q307.2344,470.5469 307.2344,471.5781 L307.2344,472.6719 Q307.2344,473.9063 308.125,474.7344 Q309.0156,475.5469 310.6094,475.5469 Q311.5469,475.5469 312.2031,475.2969 Q312.5938,475.1406 313.0156,474.7031 Q313.2813,474.4375 313.4219,474.3594 Q313.5781,474.2813 313.7813,474.2813 Q314.1094,474.2813 314.3594,474.5469 Q314.625,474.7969 314.625,475.1406 Q314.625,475.4844 314.2813,475.8906 Q313.7813,476.4688 312.9844,476.7969 Q311.9063,477.25 310.6094,477.25 Q309.0938,477.25 307.8906,476.625 Q306.9063,476.125 306.2188,475.0625 Q305.5313,473.9844 305.5313,472.7031 L305.5313,471.5469 Q305.5313,470.2188 306.1406,469.0781 Q306.7656,467.9219 307.8594,467.3125 Q308.9531,466.6875 310.1875,466.6875 Q310.9219,466.6875 311.5625,466.8594 Q312.2188,467.0156 312.7656,467.375 Z " fill="#000000"/><text fill="#000000" font-family="sans-serif" font-size="14" lengthAdjust="spacing" textLength="46" x="324" y="477.2969">Vehicle</text><line style="stroke:#181818;stroke-width:0.5;" x1="296" x2="372" y1="487.5" y2="487.5"/><line style="stroke:#181818;stroke-width:0.5;" x1="296" x2="372" y1="495.5" y2="495.5"/></g><!--link RegisterVehicleCheckupUI to VehicleController--><g id="link_RegisterVehicleCheckupUI_VehicleController"><path codeLine="37" d="M119,55.21 C119,71.87 119,88.97 119,109.86 " fill="none" id="RegisterVehicleCheckupUI-to-VehicleController" style="stroke:#181818;stroke-width:1.0;stroke-dasharray:7.0,7.0;"/><polygon fill="#181818" points="119,115.86,123,106.86,119,110.86,115,106.86,119,115.86" style="stroke:#181818;stroke-width:1.0;"/></g><!--link VehicleController to Repositories--><g id="link_VehicleController_Repositories"><path codeLine="39" d="M119,220.13 C119,239.45 119,255.44 119,274.77 " fill="none" id="VehicleController-to-Repositories" style="stroke:#181818;stroke-width:1.0;stroke-dasharray:7.0,7.0;"/><polygon fill="#181818" points="119,280.77,123,271.77,119,275.77,115,271.77,119,280.77" style="stroke:#181818;stroke-width:1.0;"/></g><!--link VehicleController to VehicleRepository--><g id="link_VehicleController_VehicleRepository"><path codeLine="41" d="M67.46,220.08 C37.66,249.62 6,281 6,281 C6,281 6,385 6,385 C6,385 42.2669,415.0155 74.8569,441.9755 " fill="none" id="VehicleController-to-VehicleRepository" style="stroke:#181818;stroke-width:1.0;stroke-dasharray:7.0,7.0;"/><polygon fill="#181818" points="79.48,445.8,75.0949,436.9812,75.6274,442.6129,69.9956,443.1454,79.48,445.8" style="stroke:#181818;stroke-width:1.0;"/></g><!--link VehicleController to Vehicle--><g id="link_VehicleController_Vehicle"><path codeLine="43" d="M206.57,220.08 C257.21,249.62 311,281 311,281 C311,281 324.5557,397.4003 330.6257,449.5003 " fill="none" id="VehicleController-to-Vehicle" style="stroke:#181818;stroke-width:1.0;stroke-dasharray:7.0,7.0;"/><polygon fill="#181818" points="331.32,455.46,334.2516,446.0576,330.7414,450.4936,326.3054,446.9834,331.32,455.46" style="stroke:#181818;stroke-width:1.0;"/><text fill="#000000" font-family="sans-serif" font-size="13" lengthAdjust="spacing" textLength="95" x="323" y="321.5283">Updates Vehicle</text><text fill="#000000" font-family="sans-serif" font-size="13" lengthAdjust="spacing" textLength="54" x="343.5" y="338.8193">With new</text><text fill="#000000" font-family="sans-serif" font-size="13" lengthAdjust="spacing" textLength="74" x="333.5" y="356.1104">Maintenance</text></g><!--link Repositories to Repositories--><g id="link_Repositories_Repositories"><path codeLine="45" d="M214.23,318.12 C234.42,319.63 249,324.59 249,333 C249,341.41 240.4033,345.9225 220.2133,347.4325 " fill="none" id="Repositories-to-Repositories" style="stroke:#181818;stroke-width:1.0;"/><polygon fill="#181818" points="214.23,347.88,223.5033,351.1976,219.2161,347.5071,222.9066,343.2199,214.23,347.88" style="stroke:#181818;stroke-width:1.0;"/><text fill="#000000" font-family="sans-serif" font-size="13" lengthAdjust="spacing" textLength="49" x="255" y="338.5283">instance</text></g><!--link Repositories to VehicleRepository--><g id="link_Repositories_VehicleRepository"><path codeLine="47" d="M119,385.35 C119,405.47 119,421.95 119,439.79 " fill="none" id="Repositories-to-VehicleRepository" style="stroke:#181818;stroke-width:1.0;"/><polygon fill="#181818" points="119,445.79,123,436.79,119,440.79,115,436.79,119,445.79" style="stroke:#181818;stroke-width:1.0;"/><text fill="#000000" font-family="sans-serif" font-size="13" lengthAdjust="spacing" textLength="7" x="111.3328" y="434.8359">1</text></g><!--link VehicleRepository to Vehicle--><g id="link_VehicleRepository_Vehicle"><path codeLine="49" d="M192.09,479.5 C226.54,479.5 260.26,479.5 288.9,479.5 " fill="none" id="VehicleRepository-to-Vehicle" style="stroke:#181818;stroke-width:1.0;"/><polygon fill="#181818" points="294.9,479.5,285.9,475.5,289.9,479.5,285.9,483.5,294.9,479.5" style="stroke:#181818;stroke-width:1.0;"/><text fill="#000000" font-family="sans-serif" font-size="13" lengthAdjust="spacing" textLength="36" x="225.5" y="472.5283">stores</text><text fill="#000000" font-family="sans-serif" font-size="13" lengthAdjust="spacing" textLength="7" x="199.9883" y="475.6863">1</text><text fill="#000000" font-family="sans-serif" font-size="13" lengthAdjust="spacing" textLength="5" x="281.97" y="474.9357">*</text></g><!--SRC=[XL3FQy8m5BxdhtZqqcrIsQuU1cCm4EP5SRi8agNFDXXVIl94Ejd_laIhhUlSZlb-vNjVwjUQAkda1ZQMh2gTtI2msw9ecKggjInmnhL1SAXOKc6w0b_AtEuq5R2IndSPemcvhX0gQ-hu4Ealf7LiHSUbZFJ-YTdfZotZM5cQwK-4Uo5IWoi6jk1qKJBaEjRHbaHwyC2BGUI9f53NxKNw9SGHdsAXFQDxmr8hWyybglMsce_tuYmvKPROMMEYVxaKWmAvOQPOMQ_PklhcLWn-94wa9aQIf32oyogNZ0qNW4wH9aIZFtoGTP5e3H-EoVCnQNHXkDecnFyuewNt8eFNKFN4-AY-jWSCy-5ZVmeXUj1HUT7kcgXNwJ_b28xxdQzPqBlc4WXt2-ei7Uze_uSikom48z3Dadrbyf3yKQo580f3S7ANjFLyOCB1tm00]--></g></svg>