<?xml version="1.0" encoding="us-ascii" standalone="no"?><svg xmlns="http://www.w3.org/2000/svg" xmlns:xlink="http://www.w3.org/1999/xlink" contentStyleType="text/css" height="567px" preserveAspectRatio="none" style="width:665px;height:567px;background:#FFFFFF;" version="1.1" viewBox="0 0 665 567" width="665.4px" zoomAndPan="magnify"><defs/><g><rect fill="#FFFFFF" height="450.416" style="stroke:#181818;stroke-width:0.6;" width="6" x="87" y="56.1727"/><rect fill="#FFFFFF" height="93.873" style="stroke:#181818;stroke-width:0.6;" width="6" x="268.8" y="70.1473"/><rect fill="#FFFFFF" height="56.3238" style="stroke:#181818;stroke-width:0.6;" width="6" x="268.8" y="182.7949"/><rect fill="#FFFFFF" height="136.0477" style="stroke:#181818;stroke-width:0.6;" width="6" x="268.8" y="257.8934"/><rect fill="#FFFFFF" height="56.3238" style="stroke:#181818;stroke-width:0.6;" width="6" x="268.8" y="450.2648"/><rect fill="#FFFFFF" height="56.3238" style="stroke:#181818;stroke-width:0.6;" width="6" x="406.2" y="88.9219"/><rect fill="#FFFFFF" height="18.7746" style="stroke:#181818;stroke-width:0.6;" width="6" x="406.2" y="201.5695"/><rect fill="#FFFFFF" height="254.0953" style="stroke:#181818;stroke-width:0.6;" width="6" x="406.2" y="257.8934"/><rect fill="#FFFFFF" height="18.7746" style="stroke:#181818;stroke-width:0.6;" width="6" x="409.2" y="469.0395"/><rect fill="#FFFFFF" height="18.7746" style="stroke:#181818;stroke-width:0.6;" width="6" x="507" y="107.6965"/><rect fill="#FFFFFF" height="98.4984" style="stroke:#181818;stroke-width:0.6;" width="6" x="510" y="276.668"/><rect fill="#FFFFFF" height="75.5238" style="stroke:#181818;stroke-width:0.6;" width="6" x="510" y="276.668"/><line style="stroke:#181818;stroke-width:0.3;stroke-dasharray:5.0,5.0;" x1="90" x2="90" y1="50.1727" y2="517.3887"/><line style="stroke:#181818;stroke-width:0.3;stroke-dasharray:5.0,5.0;" x1="271.8" x2="271.8" y1="50.1727" y2="517.3887"/><line style="stroke:#181818;stroke-width:0.3;stroke-dasharray:5.0,5.0;" x1="409.2" x2="409.2" y1="50.1727" y2="517.3887"/><line style="stroke:#181818;stroke-width:0.3;stroke-dasharray:5.0,5.0;" x1="510" x2="510" y1="50.1727" y2="517.3887"/><text fill="#000000" font-family="sans-serif" font-size="8.4" lengthAdjust="spacing" textLength="170.4" x="3" y="48.0645">Vehicle and Equipment Fleet Manager (VFM)</text><ellipse cx="90" cy="8.1" fill="#E3E3E3" rx="4.8" ry="4.8" style="stroke:#181818;stroke-width:0.3;"/><path d="M90,12.9 L90,29.1 M82.2,17.7 L97.8,17.7 M90,29.1 L82.2,38.1 M90,29.1 L97.8,38.1 " fill="none" style="stroke:#181818;stroke-width:0.3;"/><text fill="#000000" font-family="sans-serif" font-size="8.4" lengthAdjust="spacing" textLength="170.4" x="3" y="525.8531">Vehicle and Equipment Fleet Manager (VFM)</text><ellipse cx="90" cy="533.0613" fill="#E3E3E3" rx="4.8" ry="4.8" style="stroke:#181818;stroke-width:0.3;"/><path d="M90,537.8613 L90,554.0613 M82.2,542.6613 L97.8,542.6613 M90,554.0613 L82.2,563.0613 M90,554.0613 L97.8,563.0613 " fill="none" style="stroke:#181818;stroke-width:0.3;"/><rect fill="#E3E3E3" height="19.5727" rx="1.5" ry="1.5" style="stroke:#181818;stroke-width:0.3;" width="98.4" x="222.6" y="30"/><text fill="#000000" font-family="sans-serif" font-size="8.4" lengthAdjust="spacing" textLength="90" x="226.8" y="43.2645">:RegisterMaintenanceUI</text><rect fill="#E3E3E3" height="19.5727" rx="1.5" ry="1.5" style="stroke:#181818;stroke-width:0.3;" width="98.4" x="222.6" y="516.7887"/><text fill="#000000" font-family="sans-serif" font-size="8.4" lengthAdjust="spacing" textLength="90" x="226.8" y="530.0531">:RegisterMaintenanceUI</text><rect fill="#E3E3E3" height="19.5727" rx="1.5" ry="1.5" style="stroke:#181818;stroke-width:0.3;" width="75.6" x="371.4" y="30"/><text fill="#000000" font-family="sans-serif" font-size="8.4" lengthAdjust="spacing" textLength="67.2" x="375.6" y="43.2645">:VehicleController</text><rect fill="#E3E3E3" height="19.5727" rx="1.5" ry="1.5" style="stroke:#181818;stroke-width:0.3;" width="75.6" x="371.4" y="516.7887"/><text fill="#000000" font-family="sans-serif" font-size="8.4" lengthAdjust="spacing" textLength="67.2" x="375.6" y="530.0531">:VehicleController</text><rect fill="#E3E3E3" height="30.7453" rx="1.5" ry="1.5" style="stroke:#181818;stroke-width:0.3;" width="78" x="471" y="18.8273"/><text fill="#000000" font-family="sans-serif" font-size="8.4" lengthAdjust="spacing" textLength="69.6" x="475.2" y="32.0918">vehicleRepository:</text><text fill="#000000" font-family="sans-serif" font-size="8.4" lengthAdjust="spacing" textLength="68.4" x="475.8" y="43.2645">VehicleRepository</text><rect fill="#E3E3E3" height="30.7453" rx="1.5" ry="1.5" style="stroke:#181818;stroke-width:0.3;" width="78" x="471" y="516.7887"/><text fill="#000000" font-family="sans-serif" font-size="8.4" lengthAdjust="spacing" textLength="69.6" x="475.2" y="530.0531">vehicleRepository:</text><text fill="#000000" font-family="sans-serif" font-size="8.4" lengthAdjust="spacing" textLength="68.4" x="475.8" y="541.2258">VehicleRepository</text><rect fill="#FFFFFF" height="450.416" style="stroke:#181818;stroke-width:0.6;" width="6" x="87" y="56.1727"/><rect fill="#FFFFFF" height="93.873" style="stroke:#181818;stroke-width:0.6;" width="6" x="268.8" y="70.1473"/><rect fill="#FFFFFF" height="56.3238" style="stroke:#181818;stroke-width:0.6;" width="6" x="268.8" y="182.7949"/><rect fill="#FFFFFF" height="136.0477" style="stroke:#181818;stroke-width:0.6;" width="6" x="268.8" y="257.8934"/><rect fill="#FFFFFF" height="56.3238" style="stroke:#181818;stroke-width:0.6;" width="6" x="268.8" y="450.2648"/><rect fill="#FFFFFF" height="56.3238" style="stroke:#181818;stroke-width:0.6;" width="6" x="406.2" y="88.9219"/><rect fill="#FFFFFF" height="18.7746" style="stroke:#181818;stroke-width:0.6;" width="6" x="406.2" y="201.5695"/><rect fill="#FFFFFF" height="254.0953" style="stroke:#181818;stroke-width:0.6;" width="6" x="406.2" y="257.8934"/><rect fill="#FFFFFF" height="18.7746" style="stroke:#181818;stroke-width:0.6;" width="6" x="409.2" y="469.0395"/><rect fill="#FFFFFF" height="18.7746" style="stroke:#181818;stroke-width:0.6;" width="6" x="507" y="107.6965"/><rect fill="#FFFFFF" height="98.4984" style="stroke:#181818;stroke-width:0.6;" width="6" x="510" y="276.668"/><rect fill="#FFFFFF" height="75.5238" style="stroke:#181818;stroke-width:0.6;" width="6" x="510" y="276.668"/><polygon fill="#181818" points="261.6,67.7473,267.6,70.1473,261.6,72.5473,264,70.1473" style="stroke:#181818;stroke-width:0.6;"/><line style="stroke:#181818;stroke-width:0.6;" x1="93" x2="265.2" y1="70.1473" y2="70.1473"/><text fill="#000000" font-family="sans-serif" font-size="7.8" font-weight="bold" lengthAdjust="spacing" textLength="4.2" x="97.2" y="66.9896">1</text><text fill="#000000" font-family="sans-serif" font-size="7.8" lengthAdjust="spacing" textLength="157.8" x="103.8" y="66.9896">requests to list vehicles needing maintenance</text><polygon fill="#181818" points="399,86.5219,405,88.9219,399,91.3219,401.4,88.9219" style="stroke:#181818;stroke-width:0.6;"/><line style="stroke:#181818;stroke-width:0.6;" x1="274.8" x2="402.6" y1="88.9219" y2="88.9219"/><text fill="#000000" font-family="sans-serif" font-size="7.8" font-weight="bold" lengthAdjust="spacing" textLength="4.2" x="279" y="85.7643">2</text><text fill="#000000" font-family="sans-serif" font-size="7.8" lengthAdjust="spacing" textLength="58.2" x="285.6" y="85.7643">getVehiclesList()</text><polygon fill="#181818" points="499.8,105.2965,505.8,107.6965,499.8,110.0965,502.2,107.6965" style="stroke:#181818;stroke-width:0.6;"/><line style="stroke:#181818;stroke-width:0.6;" x1="412.2" x2="503.4" y1="107.6965" y2="107.6965"/><text fill="#000000" font-family="sans-serif" font-size="7.8" font-weight="bold" lengthAdjust="spacing" textLength="4.2" x="416.4" y="104.5389">3</text><text fill="#000000" font-family="sans-serif" font-size="7.8" lengthAdjust="spacing" textLength="58.2" x="423" y="104.5389">getVehiclesList()</text><polygon fill="#181818" points="418.8,124.0711,412.8,126.4711,418.8,128.8711,416.4,126.4711" style="stroke:#181818;stroke-width:0.6;"/><line style="stroke:#181818;stroke-width:0.6;stroke-dasharray:2.0,2.0;" x1="415.2" x2="509.4" y1="126.4711" y2="126.4711"/><text fill="#000000" font-family="sans-serif" font-size="7.8" font-weight="bold" lengthAdjust="spacing" textLength="4.2" x="422.4" y="123.3135">4</text><text fill="#000000" font-family="sans-serif" font-size="7.8" lengthAdjust="spacing" textLength="36" x="429" y="123.3135">vehicleList</text><polygon fill="#181818" points="281.4,142.8457,275.4,145.2457,281.4,147.6457,279,145.2457" style="stroke:#181818;stroke-width:0.6;"/><line style="stroke:#181818;stroke-width:0.6;stroke-dasharray:2.0,2.0;" x1="277.8" x2="408.6" y1="145.2457" y2="145.2457"/><text fill="#000000" font-family="sans-serif" font-size="7.8" font-weight="bold" lengthAdjust="spacing" textLength="4.2" x="285" y="142.0881">5</text><text fill="#000000" font-family="sans-serif" font-size="7.8" lengthAdjust="spacing" textLength="36" x="291.6" y="142.0881">vehicleList</text><polygon fill="#181818" points="99.6,161.6203,93.6,164.0203,99.6,166.4203,97.2,164.0203" style="stroke:#181818;stroke-width:0.6;"/><line style="stroke:#181818;stroke-width:0.6;stroke-dasharray:2.0,2.0;" x1="96" x2="271.2" y1="164.0203" y2="164.0203"/><text fill="#000000" font-family="sans-serif" font-size="7.8" font-weight="bold" lengthAdjust="spacing" textLength="4.2" x="103.2" y="160.8627">6</text><text fill="#000000" font-family="sans-serif" font-size="7.8" lengthAdjust="spacing" textLength="69.6" x="109.8" y="160.8627">displays vehicle List</text><polygon fill="#181818" points="261.6,180.3949,267.6,182.7949,261.6,185.1949,264,182.7949" style="stroke:#181818;stroke-width:0.6;"/><line style="stroke:#181818;stroke-width:0.6;" x1="93" x2="265.2" y1="182.7949" y2="182.7949"/><text fill="#000000" font-family="sans-serif" font-size="7.8" font-weight="bold" lengthAdjust="spacing" textLength="4.2" x="97.2" y="179.6373">7</text><text fill="#000000" font-family="sans-serif" font-size="7.8" lengthAdjust="spacing" textLength="56.4" x="103.8" y="179.6373">Chooses vehicle</text><polygon fill="#181818" points="399,199.1695,405,201.5695,399,203.9695,401.4,201.5695" style="stroke:#181818;stroke-width:0.6;"/><line style="stroke:#181818;stroke-width:0.6;" x1="274.8" x2="402.6" y1="201.5695" y2="201.5695"/><text fill="#000000" font-family="sans-serif" font-size="7.8" font-weight="bold" lengthAdjust="spacing" textLength="4.2" x="279" y="198.4119">8</text><text fill="#000000" font-family="sans-serif" font-size="7.8" lengthAdjust="spacing" textLength="23.4" x="285.6" y="198.4119">vehicle</text><polygon fill="#181818" points="281.4,217.9441,275.4,220.3441,281.4,222.7441,279,220.3441" style="stroke:#181818;stroke-width:0.6;"/><line style="stroke:#181818;stroke-width:0.6;stroke-dasharray:2.0,2.0;" x1="277.8" x2="408.6" y1="220.3441" y2="220.3441"/><text fill="#000000" font-family="sans-serif" font-size="7.8" font-weight="bold" lengthAdjust="spacing" textLength="4.2" x="285" y="217.1865">9</text><text fill="#000000" font-family="sans-serif" font-size="7.8" lengthAdjust="spacing" textLength="110.4" x="291.6" y="217.1865">requests data(date, current Km)</text><polygon fill="#181818" points="99.6,236.7188,93.6,239.1187,99.6,241.5187,97.2,239.1187" style="stroke:#181818;stroke-width:0.6;"/><line style="stroke:#181818;stroke-width:0.6;stroke-dasharray:2.0,2.0;" x1="96" x2="271.2" y1="239.1187" y2="239.1187"/><text fill="#000000" font-family="sans-serif" font-size="7.8" font-weight="bold" lengthAdjust="spacing" textLength="8.4" x="103.2" y="235.9611">10</text><text fill="#000000" font-family="sans-serif" font-size="7.8" lengthAdjust="spacing" textLength="112.8" x="114" y="235.9611">requests data (date, current Km)</text><polygon fill="#181818" points="261.6,255.4934,267.6,257.8934,261.6,260.2934,264,257.8934" style="stroke:#181818;stroke-width:0.6;"/><line style="stroke:#181818;stroke-width:0.6;" x1="93" x2="265.2" y1="257.8934" y2="257.8934"/><text fill="#000000" font-family="sans-serif" font-size="7.8" font-weight="bold" lengthAdjust="spacing" textLength="8.4" x="97.2" y="254.7357">11</text><text fill="#000000" font-family="sans-serif" font-size="7.8" lengthAdjust="spacing" textLength="103.8" x="108" y="254.7357">Types data (date, current Km)</text><polygon fill="#181818" points="502.8,274.268,508.8,276.668,502.8,279.068,505.2,276.668" style="stroke:#181818;stroke-width:0.6;"/><line style="stroke:#181818;stroke-width:0.6;" x1="412.2" x2="506.4" y1="276.668" y2="276.668"/><text fill="#000000" font-family="sans-serif" font-size="7.8" font-weight="bold" lengthAdjust="spacing" textLength="8.4" x="416.4" y="273.5104">12</text><text fill="#000000" font-family="sans-serif" font-size="7.8" lengthAdjust="spacing" textLength="72.6" x="427.2" y="273.5104">register maintenance</text><line style="stroke:#181818;stroke-width:0.6;" x1="516" x2="541.2" y1="295.4426" y2="295.4426"/><line style="stroke:#181818;stroke-width:0.6;" x1="541.2" x2="541.2" y1="295.4426" y2="303.2426"/><line style="stroke:#181818;stroke-width:0.6;" x1="516.6" x2="541.2" y1="303.2426" y2="303.2426"/><polygon fill="#181818" points="522.6,300.8426,516.6,303.2426,522.6,305.6426,520.2,303.2426" style="stroke:#181818;stroke-width:0.6;"/><text fill="#000000" font-family="sans-serif" font-size="7.8" font-weight="bold" lengthAdjust="spacing" textLength="8.4" x="520.2" y="292.285">13</text><text fill="#000000" font-family="sans-serif" font-size="7.8" lengthAdjust="spacing" textLength="85.2" x="531" y="292.285">verifyFilled(maintenance)</text><line style="stroke:#181818;stroke-width:0.6;" x1="516" x2="541.2" y1="322.0172" y2="322.0172"/><line style="stroke:#181818;stroke-width:0.6;" x1="541.2" x2="541.2" y1="322.0172" y2="329.8172"/><line style="stroke:#181818;stroke-width:0.6;" x1="516.6" x2="541.2" y1="329.8172" y2="329.8172"/><polygon fill="#181818" points="522.6,327.4172,516.6,329.8172,522.6,332.2172,520.2,329.8172" style="stroke:#181818;stroke-width:0.6;"/><text fill="#000000" font-family="sans-serif" font-size="7.8" font-weight="bold" lengthAdjust="spacing" textLength="8.4" x="520.2" y="318.8596">14</text><text fill="#000000" font-family="sans-serif" font-size="7.8" lengthAdjust="spacing" textLength="130.2" x="531" y="318.8596">verifySpecialCharacters(maintenance)</text><line style="stroke:#181818;stroke-width:0.6;stroke-dasharray:2.0,2.0;" x1="516" x2="541.2" y1="351.5918" y2="351.5918"/><line style="stroke:#181818;stroke-width:0.6;stroke-dasharray:2.0,2.0;" x1="541.2" x2="541.2" y1="351.5918" y2="359.3918"/><line style="stroke:#181818;stroke-width:0.6;stroke-dasharray:2.0,2.0;" x1="513" x2="541.2" y1="359.3918" y2="359.3918"/><polygon fill="#181818" points="519,356.9918,513,359.3918,519,361.7918,516.6,359.3918" style="stroke:#181818;stroke-width:0.6;"/><text fill="#000000" font-family="sans-serif" font-size="7.8" font-weight="bold" lengthAdjust="spacing" textLength="8.4" x="520.2" y="348.4342">15</text><text fill="#000000" font-family="sans-serif" font-size="7.8" lengthAdjust="spacing" textLength="44.4" x="531" y="348.4342">maintenance</text><polygon fill="#181818" points="418.8,372.7664,412.8,375.1664,418.8,377.5664,416.4,375.1664" style="stroke:#181818;stroke-width:0.6;"/><line style="stroke:#181818;stroke-width:0.6;stroke-dasharray:2.0,2.0;" x1="415.2" x2="509.4" y1="375.1664" y2="375.1664"/><text fill="#000000" font-family="sans-serif" font-size="7.8" font-weight="bold" lengthAdjust="spacing" textLength="8.4" x="422.4" y="372.0088">16</text><text fill="#000000" font-family="sans-serif" font-size="7.8" lengthAdjust="spacing" textLength="44.4" x="433.2" y="372.0088">maintenance</text><polygon fill="#181818" points="278.4,391.541,272.4,393.941,278.4,396.341,276,393.941" style="stroke:#181818;stroke-width:0.6;"/><line style="stroke:#181818;stroke-width:0.6;stroke-dasharray:2.0,2.0;" x1="274.8" x2="405.6" y1="393.941" y2="393.941"/><text fill="#000000" font-family="sans-serif" font-size="7.8" font-weight="bold" lengthAdjust="spacing" textLength="8.4" x="282" y="390.7834">17</text><text fill="#000000" font-family="sans-serif" font-size="7.8" lengthAdjust="spacing" textLength="44.4" x="292.8" y="390.7834">maintenance</text><polygon fill="#181818" points="99.6,410.3156,93.6,412.7156,99.6,415.1156,97.2,412.7156" style="stroke:#181818;stroke-width:0.6;"/><line style="stroke:#181818;stroke-width:0.6;stroke-dasharray:2.0,2.0;" x1="96" x2="271.2" y1="412.7156" y2="412.7156"/><text fill="#000000" font-family="sans-serif" font-size="7.8" font-weight="bold" lengthAdjust="spacing" textLength="8.4" x="103.2" y="409.558">18</text><text fill="#000000" font-family="sans-serif" font-size="7.8" lengthAdjust="spacing" textLength="94.2" x="114" y="409.558">Displays maintenance data</text><polygon fill="#181818" points="99.6,429.0902,93.6,431.4902,99.6,433.8902,97.2,431.4902" style="stroke:#181818;stroke-width:0.6;"/><line style="stroke:#181818;stroke-width:0.6;stroke-dasharray:2.0,2.0;" x1="96" x2="271.2" y1="431.4902" y2="431.4902"/><text fill="#000000" font-family="sans-serif" font-size="7.8" font-weight="bold" lengthAdjust="spacing" textLength="8.4" x="103.2" y="428.3326">19</text><text fill="#000000" font-family="sans-serif" font-size="7.8" lengthAdjust="spacing" textLength="74.4" x="114" y="428.3326">requests confirmation</text><polygon fill="#181818" points="261.6,447.8648,267.6,450.2648,261.6,452.6648,264,450.2648" style="stroke:#181818;stroke-width:0.6;"/><line style="stroke:#181818;stroke-width:0.6;" x1="93" x2="265.2" y1="450.2648" y2="450.2648"/><text fill="#000000" font-family="sans-serif" font-size="7.8" font-weight="bold" lengthAdjust="spacing" textLength="8.4" x="97.2" y="447.1072">20</text><text fill="#000000" font-family="sans-serif" font-size="7.8" lengthAdjust="spacing" textLength="46.8" x="108" y="447.1072">confirms data</text><polygon fill="#181818" points="402,466.6395,408,469.0395,402,471.4395,404.4,469.0395" style="stroke:#181818;stroke-width:0.6;"/><line style="stroke:#181818;stroke-width:0.6;" x1="274.8" x2="405.6" y1="469.0395" y2="469.0395"/><text fill="#000000" font-family="sans-serif" font-size="7.8" font-weight="bold" lengthAdjust="spacing" textLength="8.4" x="279" y="465.8818">21</text><text fill="#000000" font-family="sans-serif" font-size="7.8" lengthAdjust="spacing" textLength="42" x="289.8" y="465.8818">confirmation</text><polygon fill="#181818" points="281.4,485.4141,275.4,487.8141,281.4,490.2141,279,487.8141" style="stroke:#181818;stroke-width:0.6;"/><line style="stroke:#181818;stroke-width:0.6;stroke-dasharray:2.0,2.0;" x1="277.8" x2="405.6" y1="487.8141" y2="487.8141"/><text fill="#000000" font-family="sans-serif" font-size="7.8" font-weight="bold" lengthAdjust="spacing" textLength="8.4" x="285" y="484.6564">22</text><text fill="#000000" font-family="sans-serif" font-size="7.8" lengthAdjust="spacing" textLength="63.6" x="295.8" y="484.6564">operation success</text><polygon fill="#181818" points="96.6,504.1887,90.6,506.5887,96.6,508.9887,94.2,506.5887" style="stroke:#181818;stroke-width:0.6;"/><line style="stroke:#181818;stroke-width:0.6;" x1="93" x2="271.2" y1="506.5887" y2="506.5887"/><text fill="#000000" font-family="sans-serif" font-size="7.8" font-weight="bold" lengthAdjust="spacing" textLength="8.4" x="100.2" y="503.4311">23</text><text fill="#000000" font-family="sans-serif" font-size="7.8" lengthAdjust="spacing" textLength="94.8" x="111" y="503.4311">displays operation success</text><!--SRC=[fPMzRkCm3CTtFmMHvHAWVO4Cj-GQe6Ypf6scMrYPiONQaYl9kVhjIokEws_4EGs68LC_ad-HjFsGAaE3AQHQQH4RdH8uarDWwoyPYW-CwCKL2O4XuL15ITF0nXZgVr95SCJ4KX1WxhJAqtSoGV0hbY71KMlthhy254uRM1mebe9fg49u-Cnbbf9oi4s87EnGiJS3oyDsjre0Mk2NW3qvAMI6RBTOxocIrf7PeLIE52f1Ru_UzksnOrgvscZbZ4uICjviyxf_RXkUpdPxohIL76In_giEtRrpEDtTe4nBdj2H3pK0Nlm2zxyv75YpPfyvMMV1QKWuRgXyML14OQbR-fE7FrtpE1s_KIvcCR6Cd9aHkIeE-yp8vQesgy_w7EljSlcppEXbC0biGGUIXyxgq-z_ugvIBrsq3ePqhOjp4XTjh-3rTIYLB6NWErf3A6sMO64lA9XYDU-ZUysRM6jBDMTOlowWTQcJ9yUkirTb8JfSyeFkGEJ6b9trbAvkLAT5XQknuogz5XbTHnlLxCOADzNGw7NRt2AVqGm3lJ0St8cCF1PRoHCgN3O2NFqdyIKZ8J7Pn3of1ITlvy97w6CQjgjWpcIuYTXkWPiGhNB_Sna63PGlribJTPC8hOxIfEYaLZDaQRH7HR23JaSxeZj8fkAOw9wUe3eZuo5WSo78sdcozaRi7Dxu9_-N_GO0]--></g></svg>