<?xml version="1.0" encoding="us-ascii" standalone="no"?><svg xmlns="http://www.w3.org/2000/svg" xmlns:xlink="http://www.w3.org/1999/xlink" contentStyleType="text/css" height="698.4px" preserveAspectRatio="none" style="width:777px;height:698px;background:#FFFFFF;" version="1.1" viewBox="0 0 777 698" width="777.6px" zoomAndPan="magnify"><defs/><g><rect fill="#FFFFFF" height="581.8383" style="stroke:#181818;stroke-width:0.6;" width="6" x="87" y="56.1727"/><rect fill="#FFFFFF" height="168.9715" style="stroke:#181818;stroke-width:0.6;" width="6" x="268.8" y="70.1473"/><rect fill="#FFFFFF" height="56.3238" style="stroke:#181818;stroke-width:0.6;" width="6" x="268.8" y="257.8934"/><rect fill="#FFFFFF" height="229.9207" style="stroke:#181818;stroke-width:0.6;" width="6" x="268.8" y="332.9918"/><rect fill="#FFFFFF" height="56.3238" style="stroke:#181818;stroke-width:0.6;" width="6" x="268.8" y="581.6871"/><rect fill="#FFFFFF" height="131.4223" style="stroke:#181818;stroke-width:0.6;" width="6" x="410.4" y="88.9219"/><rect fill="#FFFFFF" height="18.7746" style="stroke:#181818;stroke-width:0.6;" width="6" x="410.4" y="276.668"/><rect fill="#FFFFFF" height="173.5969" style="stroke:#181818;stroke-width:0.6;" width="6" x="410.4" y="351.7664"/><rect fill="#FFFFFF" height="18.7746" style="stroke:#181818;stroke-width:0.6;" width="6" x="410.4" y="600.4617"/><rect fill="#FFFFFF" height="18.7746" style="stroke:#181818;stroke-width:0.6;" width="6" x="483.3" y="107.6965"/><rect fill="#FFFFFF" height="18.7746" style="stroke:#181818;stroke-width:0.6;" width="6" x="546.3" y="145.2457"/><rect fill="#FFFFFF" height="18.7746" style="stroke:#181818;stroke-width:0.6;" width="6" x="546.3" y="370.541"/><rect fill="#FFFFFF" height="18.7746" style="stroke:#181818;stroke-width:0.6;" width="6" x="619.2" y="182.7949"/><rect fill="#FFFFFF" height="98.4984" style="stroke:#181818;stroke-width:0.6;" width="6" x="622.2" y="408.0902"/><rect fill="#FFFFFF" height="75.5238" style="stroke:#181818;stroke-width:0.6;" width="6" x="622.2" y="408.0902"/><line style="stroke:#181818;stroke-width:0.3;stroke-dasharray:5.0,5.0;" x1="90" x2="90" y1="50.1727" y2="648.8109"/><line style="stroke:#181818;stroke-width:0.3;stroke-dasharray:5.0,5.0;" x1="271.8" x2="271.8" y1="50.1727" y2="648.8109"/><line style="stroke:#181818;stroke-width:0.3;stroke-dasharray:5.0,5.0;" x1="413.4" x2="413.4" y1="50.1727" y2="648.8109"/><line style="stroke:#181818;stroke-width:0.3;stroke-dasharray:5.0,5.0;" x1="486" x2="486" y1="50.1727" y2="648.8109"/><line style="stroke:#181818;stroke-width:0.3;stroke-dasharray:5.0,5.0;" x1="549" x2="549" y1="50.1727" y2="648.8109"/><line style="stroke:#181818;stroke-width:0.3;stroke-dasharray:5.0,5.0;" x1="622.2" x2="622.2" y1="50.1727" y2="648.8109"/><text fill="#000000" font-family="sans-serif" font-size="8.4" lengthAdjust="spacing" textLength="170.4" x="3" y="48.0645">Vehicle and Equipment Fleet Manager (VFM)</text><ellipse cx="90" cy="8.1" fill="#E3E3E3" rx="4.8" ry="4.8" style="stroke:#181818;stroke-width:0.3;"/><path d="M90,12.9 L90,29.1 M82.2,17.7 L97.8,17.7 M90,29.1 L82.2,38.1 M90,29.1 L97.8,38.1 " fill="none" style="stroke:#181818;stroke-width:0.3;"/><text fill="#000000" font-family="sans-serif" font-size="8.4" lengthAdjust="spacing" textLength="170.4" x="3" y="657.2754">Vehicle and Equipment Fleet Manager (VFM)</text><ellipse cx="90" cy="664.4836" fill="#E3E3E3" rx="4.8" ry="4.8" style="stroke:#181818;stroke-width:0.3;"/><path d="M90,669.2836 L90,685.4836 M82.2,674.0836 L97.8,674.0836 M90,685.4836 L82.2,694.4836 M90,685.4836 L97.8,694.4836 " fill="none" style="stroke:#181818;stroke-width:0.3;"/><rect fill="#E3E3E3" height="19.5727" rx="1.5" ry="1.5" style="stroke:#181818;stroke-width:0.3;" width="98.4" x="222.6" y="30"/><text fill="#000000" font-family="sans-serif" font-size="8.4" lengthAdjust="spacing" textLength="90" x="226.8" y="43.2645">:RegisterMaintenanceUI</text><rect fill="#E3E3E3" height="19.5727" rx="1.5" ry="1.5" style="stroke:#181818;stroke-width:0.3;" width="98.4" x="222.6" y="648.2109"/><text fill="#000000" font-family="sans-serif" font-size="8.4" lengthAdjust="spacing" textLength="90" x="226.8" y="661.4754">:RegisterMaintenanceUI</text><rect fill="#E3E3E3" height="19.5727" rx="1.5" ry="1.5" style="stroke:#181818;stroke-width:0.3;" width="75.6" x="375.6" y="30"/><text fill="#000000" font-family="sans-serif" font-size="8.4" lengthAdjust="spacing" textLength="67.2" x="379.8" y="43.2645">:VehicleController</text><rect fill="#E3E3E3" height="19.5727" rx="1.5" ry="1.5" style="stroke:#181818;stroke-width:0.3;" width="75.6" x="375.6" y="648.2109"/><text fill="#000000" font-family="sans-serif" font-size="8.4" lengthAdjust="spacing" textLength="67.2" x="379.8" y="661.4754">:VehicleController</text><rect fill="#E3E3E3" height="19.5727" rx="1.5" ry="1.5" style="stroke:#181818;stroke-width:0.3;" width="58.2" x="457.2" y="30"/><text fill="#000000" font-family="sans-serif" font-size="8.4" lengthAdjust="spacing" textLength="49.8" x="461.4" y="43.2645">:Repositories</text><rect fill="#E3E3E3" height="19.5727" rx="1.5" ry="1.5" style="stroke:#181818;stroke-width:0.3;" width="58.2" x="457.2" y="648.2109"/><text fill="#000000" font-family="sans-serif" font-size="8.4" lengthAdjust="spacing" textLength="49.8" x="461.4" y="661.4754">:Repositories</text><rect fill="#E3E3E3" height="30.7453" rx="1.5" ry="1.5" style="stroke:#181818;stroke-width:0.3;" width="55.8" x="521.4" y="18.8273"/><text fill="#000000" font-family="sans-serif" font-size="8.4" lengthAdjust="spacing" textLength="46.8" x="525.9" y="32.0918">repositories:</text><text fill="#000000" font-family="sans-serif" font-size="8.4" lengthAdjust="spacing" textLength="47.4" x="525.6" y="43.2645">Repositories</text><rect fill="#E3E3E3" height="30.7453" rx="1.5" ry="1.5" style="stroke:#181818;stroke-width:0.3;" width="55.8" x="521.4" y="648.2109"/><text fill="#000000" font-family="sans-serif" font-size="8.4" lengthAdjust="spacing" textLength="46.8" x="525.9" y="661.4754">repositories:</text><text fill="#000000" font-family="sans-serif" font-size="8.4" lengthAdjust="spacing" textLength="47.4" x="525.6" y="672.648">Repositories</text><rect fill="#E3E3E3" height="30.7453" rx="1.5" ry="1.5" style="stroke:#181818;stroke-width:0.3;" width="78" x="583.2" y="18.8273"/><text fill="#000000" font-family="sans-serif" font-size="8.4" lengthAdjust="spacing" textLength="69.6" x="587.4" y="32.0918">vehicleRepository:</text><text fill="#000000" font-family="sans-serif" font-size="8.4" lengthAdjust="spacing" textLength="68.4" x="588" y="43.2645">VehicleRepository</text><rect fill="#E3E3E3" height="30.7453" rx="1.5" ry="1.5" style="stroke:#181818;stroke-width:0.3;" width="78" x="583.2" y="648.2109"/><text fill="#000000" font-family="sans-serif" font-size="8.4" lengthAdjust="spacing" textLength="69.6" x="587.4" y="661.4754">vehicleRepository:</text><text fill="#000000" font-family="sans-serif" font-size="8.4" lengthAdjust="spacing" textLength="68.4" x="588" y="672.648">VehicleRepository</text><rect fill="#FFFFFF" height="581.8383" style="stroke:#181818;stroke-width:0.6;" width="6" x="87" y="56.1727"/><rect fill="#FFFFFF" height="168.9715" style="stroke:#181818;stroke-width:0.6;" width="6" x="268.8" y="70.1473"/><rect fill="#FFFFFF" height="56.3238" style="stroke:#181818;stroke-width:0.6;" width="6" x="268.8" y="257.8934"/><rect fill="#FFFFFF" height="229.9207" style="stroke:#181818;stroke-width:0.6;" width="6" x="268.8" y="332.9918"/><rect fill="#FFFFFF" height="56.3238" style="stroke:#181818;stroke-width:0.6;" width="6" x="268.8" y="581.6871"/><rect fill="#FFFFFF" height="131.4223" style="stroke:#181818;stroke-width:0.6;" width="6" x="410.4" y="88.9219"/><rect fill="#FFFFFF" height="18.7746" style="stroke:#181818;stroke-width:0.6;" width="6" x="410.4" y="276.668"/><rect fill="#FFFFFF" height="173.5969" style="stroke:#181818;stroke-width:0.6;" width="6" x="410.4" y="351.7664"/><rect fill="#FFFFFF" height="18.7746" style="stroke:#181818;stroke-width:0.6;" width="6" x="410.4" y="600.4617"/><rect fill="#FFFFFF" height="18.7746" style="stroke:#181818;stroke-width:0.6;" width="6" x="483.3" y="107.6965"/><rect fill="#FFFFFF" height="18.7746" style="stroke:#181818;stroke-width:0.6;" width="6" x="546.3" y="145.2457"/><rect fill="#FFFFFF" height="18.7746" style="stroke:#181818;stroke-width:0.6;" width="6" x="546.3" y="370.541"/><rect fill="#FFFFFF" height="18.7746" style="stroke:#181818;stroke-width:0.6;" width="6" x="619.2" y="182.7949"/><rect fill="#FFFFFF" height="98.4984" style="stroke:#181818;stroke-width:0.6;" width="6" x="622.2" y="408.0902"/><rect fill="#FFFFFF" height="75.5238" style="stroke:#181818;stroke-width:0.6;" width="6" x="622.2" y="408.0902"/><polygon fill="#181818" points="261.6,67.7473,267.6,70.1473,261.6,72.5473,264,70.1473" style="stroke:#181818;stroke-width:0.6;"/><line style="stroke:#181818;stroke-width:0.6;" x1="93" x2="265.2" y1="70.1473" y2="70.1473"/><text fill="#000000" font-family="sans-serif" font-size="7.8" font-weight="bold" lengthAdjust="spacing" textLength="4.2" x="97.2" y="66.9896">1</text><text fill="#000000" font-family="sans-serif" font-size="7.8" lengthAdjust="spacing" textLength="157.8" x="103.8" y="66.9896">requests to list vehicles needing maintenance</text><polygon fill="#181818" points="403.2,86.5219,409.2,88.9219,403.2,91.3219,405.6,88.9219" style="stroke:#181818;stroke-width:0.6;"/><line style="stroke:#181818;stroke-width:0.6;" x1="274.8" x2="406.8" y1="88.9219" y2="88.9219"/><text fill="#000000" font-family="sans-serif" font-size="7.8" font-weight="bold" lengthAdjust="spacing" textLength="4.2" x="279" y="85.7643">2</text><text fill="#000000" font-family="sans-serif" font-size="7.8" lengthAdjust="spacing" textLength="58.2" x="285.6" y="85.7643">getVehiclesList()</text><polygon fill="#181818" points="476.1,105.2965,482.1,107.6965,476.1,110.0965,478.5,107.6965" style="stroke:#181818;stroke-width:0.6;"/><line style="stroke:#181818;stroke-width:0.6;" x1="416.4" x2="479.7" y1="107.6965" y2="107.6965"/><text fill="#000000" font-family="sans-serif" font-size="7.8" font-weight="bold" lengthAdjust="spacing" textLength="4.2" x="420.6" y="104.5389">3</text><text fill="#000000" font-family="sans-serif" font-size="7.8" lengthAdjust="spacing" textLength="45" x="427.2" y="104.5389">getInstance()</text><polygon fill="#181818" points="423,124.0711,417,126.4711,423,128.8711,420.6,126.4711" style="stroke:#181818;stroke-width:0.6;"/><line style="stroke:#181818;stroke-width:0.6;stroke-dasharray:2.0,2.0;" x1="419.4" x2="485.7" y1="126.4711" y2="126.4711"/><text fill="#000000" font-family="sans-serif" font-size="7.8" font-weight="bold" lengthAdjust="spacing" textLength="4.2" x="426.6" y="123.3135">4</text><text fill="#000000" font-family="sans-serif" font-size="7.8" lengthAdjust="spacing" textLength="40.2" x="433.2" y="123.3135">repositories</text><polygon fill="#181818" points="539.1,142.8457,545.1,145.2457,539.1,147.6457,541.5,145.2457" style="stroke:#181818;stroke-width:0.6;"/><line style="stroke:#181818;stroke-width:0.6;" x1="416.4" x2="542.7" y1="145.2457" y2="145.2457"/><text fill="#000000" font-family="sans-serif" font-size="7.8" font-weight="bold" lengthAdjust="spacing" textLength="4.2" x="420.6" y="142.0881">5</text><text fill="#000000" font-family="sans-serif" font-size="7.8" lengthAdjust="spacing" textLength="78.6" x="427.2" y="142.0881">getVehicleRepository()</text><polygon fill="#181818" points="423,161.6203,417,164.0203,423,166.4203,420.6,164.0203" style="stroke:#181818;stroke-width:0.6;"/><line style="stroke:#181818;stroke-width:0.6;stroke-dasharray:2.0,2.0;" x1="419.4" x2="548.7" y1="164.0203" y2="164.0203"/><text fill="#000000" font-family="sans-serif" font-size="7.8" font-weight="bold" lengthAdjust="spacing" textLength="4.2" x="426.6" y="160.8627">6</text><text fill="#000000" font-family="sans-serif" font-size="7.8" lengthAdjust="spacing" textLength="63" x="433.2" y="160.8627">VehicleRepository</text><polygon fill="#181818" points="612,180.3949,618,182.7949,612,185.1949,614.4,182.7949" style="stroke:#181818;stroke-width:0.6;"/><line style="stroke:#181818;stroke-width:0.6;" x1="416.4" x2="615.6" y1="182.7949" y2="182.7949"/><text fill="#000000" font-family="sans-serif" font-size="7.8" font-weight="bold" lengthAdjust="spacing" textLength="4.2" x="420.6" y="179.6373">7</text><text fill="#000000" font-family="sans-serif" font-size="7.8" lengthAdjust="spacing" textLength="58.2" x="427.2" y="179.6373">getVehiclesList()</text><polygon fill="#181818" points="423,199.1695,417,201.5695,423,203.9695,420.6,201.5695" style="stroke:#181818;stroke-width:0.6;"/><line style="stroke:#181818;stroke-width:0.6;stroke-dasharray:2.0,2.0;" x1="419.4" x2="621.6" y1="201.5695" y2="201.5695"/><text fill="#000000" font-family="sans-serif" font-size="7.8" font-weight="bold" lengthAdjust="spacing" textLength="4.2" x="426.6" y="198.4119">8</text><text fill="#000000" font-family="sans-serif" font-size="7.8" lengthAdjust="spacing" textLength="36" x="433.2" y="198.4119">vehicleList</text><polygon fill="#181818" points="281.4,217.9441,275.4,220.3441,281.4,222.7441,279,220.3441" style="stroke:#181818;stroke-width:0.6;"/><line style="stroke:#181818;stroke-width:0.6;stroke-dasharray:2.0,2.0;" x1="277.8" x2="412.8" y1="220.3441" y2="220.3441"/><text fill="#000000" font-family="sans-serif" font-size="7.8" font-weight="bold" lengthAdjust="spacing" textLength="4.2" x="285" y="217.1865">9</text><text fill="#000000" font-family="sans-serif" font-size="7.8" lengthAdjust="spacing" textLength="36" x="291.6" y="217.1865">vehicleList</text><polygon fill="#181818" points="99.6,236.7188,93.6,239.1187,99.6,241.5187,97.2,239.1187" style="stroke:#181818;stroke-width:0.6;"/><line style="stroke:#181818;stroke-width:0.6;stroke-dasharray:2.0,2.0;" x1="96" x2="271.2" y1="239.1187" y2="239.1187"/><text fill="#000000" font-family="sans-serif" font-size="7.8" font-weight="bold" lengthAdjust="spacing" textLength="8.4" x="103.2" y="235.9611">10</text><text fill="#000000" font-family="sans-serif" font-size="7.8" lengthAdjust="spacing" textLength="69.6" x="114" y="235.9611">displays vehicle List</text><polygon fill="#181818" points="261.6,255.4934,267.6,257.8934,261.6,260.2934,264,257.8934" style="stroke:#181818;stroke-width:0.6;"/><line style="stroke:#181818;stroke-width:0.6;" x1="93" x2="265.2" y1="257.8934" y2="257.8934"/><text fill="#000000" font-family="sans-serif" font-size="7.8" font-weight="bold" lengthAdjust="spacing" textLength="8.4" x="97.2" y="254.7357">11</text><text fill="#000000" font-family="sans-serif" font-size="7.8" lengthAdjust="spacing" textLength="56.4" x="108" y="254.7357">Chooses vehicle</text><polygon fill="#181818" points="403.2,274.268,409.2,276.668,403.2,279.068,405.6,276.668" style="stroke:#181818;stroke-width:0.6;"/><line style="stroke:#181818;stroke-width:0.6;" x1="274.8" x2="406.8" y1="276.668" y2="276.668"/><text fill="#000000" font-family="sans-serif" font-size="7.8" font-weight="bold" lengthAdjust="spacing" textLength="8.4" x="279" y="273.5104">12</text><text fill="#000000" font-family="sans-serif" font-size="7.8" lengthAdjust="spacing" textLength="23.4" x="289.8" y="273.5104">vehicle</text><polygon fill="#181818" points="281.4,293.0426,275.4,295.4426,281.4,297.8426,279,295.4426" style="stroke:#181818;stroke-width:0.6;"/><line style="stroke:#181818;stroke-width:0.6;stroke-dasharray:2.0,2.0;" x1="277.8" x2="412.8" y1="295.4426" y2="295.4426"/><text fill="#000000" font-family="sans-serif" font-size="7.8" font-weight="bold" lengthAdjust="spacing" textLength="8.4" x="285" y="292.285">13</text><text fill="#000000" font-family="sans-serif" font-size="7.8" lengthAdjust="spacing" textLength="110.4" x="295.8" y="292.285">requests data(date, current Km)</text><polygon fill="#181818" points="99.6,311.8172,93.6,314.2172,99.6,316.6172,97.2,314.2172" style="stroke:#181818;stroke-width:0.6;"/><line style="stroke:#181818;stroke-width:0.6;stroke-dasharray:2.0,2.0;" x1="96" x2="271.2" y1="314.2172" y2="314.2172"/><text fill="#000000" font-family="sans-serif" font-size="7.8" font-weight="bold" lengthAdjust="spacing" textLength="8.4" x="103.2" y="311.0596">14</text><text fill="#000000" font-family="sans-serif" font-size="7.8" lengthAdjust="spacing" textLength="112.8" x="114" y="311.0596">requests data (date, current Km)</text><polygon fill="#181818" points="261.6,330.5918,267.6,332.9918,261.6,335.3918,264,332.9918" style="stroke:#181818;stroke-width:0.6;"/><line style="stroke:#181818;stroke-width:0.6;" x1="93" x2="265.2" y1="332.9918" y2="332.9918"/><text fill="#000000" font-family="sans-serif" font-size="7.8" font-weight="bold" lengthAdjust="spacing" textLength="8.4" x="97.2" y="329.8342">15</text><text fill="#000000" font-family="sans-serif" font-size="7.8" lengthAdjust="spacing" textLength="103.8" x="108" y="329.8342">Types data (date, current Km)</text><polygon fill="#181818" points="403.2,349.3664,409.2,351.7664,403.2,354.1664,405.6,351.7664" style="stroke:#181818;stroke-width:0.6;"/><line style="stroke:#181818;stroke-width:0.6;" x1="274.8" x2="406.8" y1="351.7664" y2="351.7664"/><text fill="#000000" font-family="sans-serif" font-size="7.8" font-weight="bold" lengthAdjust="spacing" textLength="8.4" x="279" y="348.6088">16</text><text fill="#000000" font-family="sans-serif" font-size="7.8" lengthAdjust="spacing" textLength="72.6" x="289.8" y="348.6088">register maintenance</text><polygon fill="#181818" points="539.1,368.141,545.1,370.541,539.1,372.941,541.5,370.541" style="stroke:#181818;stroke-width:0.6;"/><line style="stroke:#181818;stroke-width:0.6;" x1="416.4" x2="542.7" y1="370.541" y2="370.541"/><text fill="#000000" font-family="sans-serif" font-size="7.8" font-weight="bold" lengthAdjust="spacing" textLength="8.4" x="420.6" y="367.3834">17</text><text fill="#000000" font-family="sans-serif" font-size="7.8" lengthAdjust="spacing" textLength="97.2" x="431.4" y="367.3834">getMaintenanceRepository()</text><polygon fill="#181818" points="423,386.9156,417,389.3156,423,391.7156,420.6,389.3156" style="stroke:#181818;stroke-width:0.6;"/><line style="stroke:#181818;stroke-width:0.6;stroke-dasharray:2.0,2.0;" x1="419.4" x2="548.7" y1="389.3156" y2="389.3156"/><text fill="#000000" font-family="sans-serif" font-size="7.8" font-weight="bold" lengthAdjust="spacing" textLength="8.4" x="426.6" y="386.158">18</text><text fill="#000000" font-family="sans-serif" font-size="7.8" lengthAdjust="spacing" textLength="81.6" x="437.4" y="386.158">MaintenanceRepository</text><polygon fill="#181818" points="615,405.6902,621,408.0902,615,410.4902,617.4,408.0902" style="stroke:#181818;stroke-width:0.6;"/><line style="stroke:#181818;stroke-width:0.6;" x1="416.4" x2="618.6" y1="408.0902" y2="408.0902"/><text fill="#000000" font-family="sans-serif" font-size="7.8" font-weight="bold" lengthAdjust="spacing" textLength="8.4" x="420.6" y="404.9326">19</text><text fill="#000000" font-family="sans-serif" font-size="7.8" lengthAdjust="spacing" textLength="72.6" x="431.4" y="404.9326">register maintenance</text><line style="stroke:#181818;stroke-width:0.6;" x1="628.2" x2="653.4" y1="426.8648" y2="426.8648"/><line style="stroke:#181818;stroke-width:0.6;" x1="653.4" x2="653.4" y1="426.8648" y2="434.6648"/><line style="stroke:#181818;stroke-width:0.6;" x1="628.8" x2="653.4" y1="434.6648" y2="434.6648"/><polygon fill="#181818" points="634.8,432.2648,628.8,434.6648,634.8,437.0648,632.4,434.6648" style="stroke:#181818;stroke-width:0.6;"/><text fill="#000000" font-family="sans-serif" font-size="7.8" font-weight="bold" lengthAdjust="spacing" textLength="8.4" x="632.4" y="423.7072">20</text><text fill="#000000" font-family="sans-serif" font-size="7.8" lengthAdjust="spacing" textLength="85.2" x="643.2" y="423.7072">verifyFilled(maintenance)</text><line style="stroke:#181818;stroke-width:0.6;" x1="628.2" x2="653.4" y1="453.4395" y2="453.4395"/><line style="stroke:#181818;stroke-width:0.6;" x1="653.4" x2="653.4" y1="453.4395" y2="461.2395"/><line style="stroke:#181818;stroke-width:0.6;" x1="628.8" x2="653.4" y1="461.2395" y2="461.2395"/><polygon fill="#181818" points="634.8,458.8395,628.8,461.2395,634.8,463.6395,632.4,461.2395" style="stroke:#181818;stroke-width:0.6;"/><text fill="#000000" font-family="sans-serif" font-size="7.8" font-weight="bold" lengthAdjust="spacing" textLength="8.4" x="632.4" y="450.2818">21</text><text fill="#000000" font-family="sans-serif" font-size="7.8" lengthAdjust="spacing" textLength="130.2" x="643.2" y="450.2818">verifySpecialCharacters(maintenance)</text><line style="stroke:#181818;stroke-width:0.6;" x1="628.2" x2="653.4" y1="483.0141" y2="483.0141"/><line style="stroke:#181818;stroke-width:0.6;" x1="653.4" x2="653.4" y1="483.0141" y2="490.8141"/><line style="stroke:#181818;stroke-width:0.6;" x1="625.2" x2="653.4" y1="490.8141" y2="490.8141"/><polygon fill="#181818" points="631.2,488.4141,625.2,490.8141,631.2,493.2141,628.8,490.8141" style="stroke:#181818;stroke-width:0.6;"/><text fill="#000000" font-family="sans-serif" font-size="7.8" font-weight="bold" lengthAdjust="spacing" textLength="8.4" x="632.4" y="479.8564">22</text><text fill="#000000" font-family="sans-serif" font-size="7.8" lengthAdjust="spacing" textLength="44.4" x="643.2" y="479.8564">maintenance</text><polygon fill="#181818" points="423,504.1887,417,506.5887,423,508.9887,420.6,506.5887" style="stroke:#181818;stroke-width:0.6;"/><line style="stroke:#181818;stroke-width:0.6;stroke-dasharray:2.0,2.0;" x1="419.4" x2="621.6" y1="506.5887" y2="506.5887"/><text fill="#000000" font-family="sans-serif" font-size="7.8" font-weight="bold" lengthAdjust="spacing" textLength="8.4" x="426.6" y="503.4311">23</text><text fill="#000000" font-family="sans-serif" font-size="7.8" lengthAdjust="spacing" textLength="44.4" x="437.4" y="503.4311">maintenance</text><polygon fill="#181818" points="281.4,522.9633,275.4,525.3633,281.4,527.7633,279,525.3633" style="stroke:#181818;stroke-width:0.6;"/><line style="stroke:#181818;stroke-width:0.6;stroke-dasharray:2.0,2.0;" x1="277.8" x2="412.8" y1="525.3633" y2="525.3633"/><text fill="#000000" font-family="sans-serif" font-size="7.8" font-weight="bold" lengthAdjust="spacing" textLength="8.4" x="285" y="522.2057">24</text><text fill="#000000" font-family="sans-serif" font-size="7.8" lengthAdjust="spacing" textLength="44.4" x="295.8" y="522.2057">maintenance</text><polygon fill="#181818" points="99.6,541.7379,93.6,544.1379,99.6,546.5379,97.2,544.1379" style="stroke:#181818;stroke-width:0.6;"/><line style="stroke:#181818;stroke-width:0.6;stroke-dasharray:2.0,2.0;" x1="96" x2="268.2" y1="544.1379" y2="544.1379"/><text fill="#000000" font-family="sans-serif" font-size="7.8" font-weight="bold" lengthAdjust="spacing" textLength="8.4" x="103.2" y="540.9803">25</text><text fill="#000000" font-family="sans-serif" font-size="7.8" lengthAdjust="spacing" textLength="94.2" x="114" y="540.9803">Displays maintenance data</text><polygon fill="#181818" points="99.6,560.5125,93.6,562.9125,99.6,565.3125,97.2,562.9125" style="stroke:#181818;stroke-width:0.6;"/><line style="stroke:#181818;stroke-width:0.6;stroke-dasharray:2.0,2.0;" x1="96" x2="271.2" y1="562.9125" y2="562.9125"/><text fill="#000000" font-family="sans-serif" font-size="7.8" font-weight="bold" lengthAdjust="spacing" textLength="8.4" x="103.2" y="559.7549">26</text><text fill="#000000" font-family="sans-serif" font-size="7.8" lengthAdjust="spacing" textLength="74.4" x="114" y="559.7549">requests confirmation</text><polygon fill="#181818" points="261.6,579.2871,267.6,581.6871,261.6,584.0871,264,581.6871" style="stroke:#181818;stroke-width:0.6;"/><line style="stroke:#181818;stroke-width:0.6;" x1="93" x2="265.2" y1="581.6871" y2="581.6871"/><text fill="#000000" font-family="sans-serif" font-size="7.8" font-weight="bold" lengthAdjust="spacing" textLength="8.4" x="97.2" y="578.5295">27</text><text fill="#000000" font-family="sans-serif" font-size="7.8" lengthAdjust="spacing" textLength="46.8" x="108" y="578.5295">confirms data</text><polygon fill="#181818" points="403.2,598.0617,409.2,600.4617,403.2,602.8617,405.6,600.4617" style="stroke:#181818;stroke-width:0.6;"/><line style="stroke:#181818;stroke-width:0.6;" x1="274.8" x2="406.8" y1="600.4617" y2="600.4617"/><text fill="#000000" font-family="sans-serif" font-size="7.8" font-weight="bold" lengthAdjust="spacing" textLength="8.4" x="279" y="597.3041">28</text><text fill="#000000" font-family="sans-serif" font-size="7.8" lengthAdjust="spacing" textLength="42" x="289.8" y="597.3041">confirmation</text><polygon fill="#181818" points="281.4,616.8363,275.4,619.2363,281.4,621.6363,279,619.2363" style="stroke:#181818;stroke-width:0.6;"/><line style="stroke:#181818;stroke-width:0.6;stroke-dasharray:2.0,2.0;" x1="277.8" x2="412.8" y1="619.2363" y2="619.2363"/><text fill="#000000" font-family="sans-serif" font-size="7.8" font-weight="bold" lengthAdjust="spacing" textLength="8.4" x="285" y="616.0787">29</text><text fill="#000000" font-family="sans-serif" font-size="7.8" lengthAdjust="spacing" textLength="63.6" x="295.8" y="616.0787">operation success</text><polygon fill="#181818" points="96.6,635.6109,90.6,638.0109,96.6,640.4109,94.2,638.0109" style="stroke:#181818;stroke-width:0.6;"/><line style="stroke:#181818;stroke-width:0.6;" x1="93" x2="271.2" y1="638.0109" y2="638.0109"/><text fill="#000000" font-family="sans-serif" font-size="7.8" font-weight="bold" lengthAdjust="spacing" textLength="8.4" x="100.2" y="634.8533">30</text><text fill="#000000" font-family="sans-serif" font-size="7.8" lengthAdjust="spacing" textLength="94.8" x="111" y="634.8533">displays operation success</text><!--SRC=[hPRFZjem4CRlUOeHbu9KNe13fOfs9LIGgeNbr8lN6S3QnCxQ3Yrltud9FoSE6sXzGCZn_ERpPyyavat8Z6cMGggauYUjKWIhSunC_IHZ_8qTSMil2O96Rfay9kq5viHYzLl88nnOOZ2AM6wLpDDNr57qwIHYX8DIzbNzYHYtIiDaZoV1YSPa3D_VSv6bA2qy9OWMDanIDWtJ_TDcDW5cWFv4bCaABZ96woQBPpmAOr5lc90M9PCSNrPkxSkgixHCjLJIQfKagDsovUvvtMDcoWYI9z2uDVN4PIkA7TEU_13TYbZyaZt0p_NNdHznleffo1IsxyvTzzoTZGhln9bPT7v4G8F-mFmBxHaMT33lEHfhm2f8o1meSncGY75nE6bZbekkUUIPcoW6iOXOs4FC8zfIXraJSZghbzMnpiXwsiLHVC2wAsubZIq4X50Xl-jLnGXHvwNQme36_Zeind7uIdXnPDx6cwYGP7V2daO7Q4JrZp6Wx4hnEPMW7k3ciNZY0bS8EgDFdpUdNrwW8eKNs5B-GOhh9geREeBdtwRgFXOsq4rVG2nCbh2BgL1mYzM-rTrYMPwKCbXpmlvr0Lvft8piRyDtegxLc5asfH_y33pNkcY2FzBPW-vuL1YD7NPfTybm76sSPxhishrEDCB0O8sssd-mJhlZHjqErZ1b2gOPZ6uxExganrlpGSdTKVs1uW-BEwCMXykJeBTdF6q9dFqZSPiX5onPdkWhWjFcpV-13rdedyqzdV0Xeb_o3o6yylvMDRyMoXNdpQYwAN0b3qAdp0fwxustfTKEIe899Xti0DqcS4l7cFglrAWCjOE0oJb7O-wpjVTAkOSt_CXzc_q5]--></g></svg>