<?xml version="1.0" encoding="us-ascii" standalone="no"?><svg xmlns="http://www.w3.org/2000/svg" xmlns:xlink="http://www.w3.org/1999/xlink" contentStyleType="text/css" height="274.4px" preserveAspectRatio="none" style="width:432px;height:274px;background:#FFFFFF;" version="1.1" viewBox="0 0 432 274" width="432.6px" zoomAndPan="magnify"><defs/><g><rect fill="#FFFFFF" height="165.9533" style="stroke:#181818;stroke-width:0.6999999999999998;" width="7" x="77.7" y="63.3732"/><rect fill="#FFFFFF" height="85.5422" style="stroke:#181818;stroke-width:0.6999999999999998;" width="7" x="243.95" y="110.6807"/><rect fill="none" height="127.9496" style="stroke:#000000;stroke-width:1.0499999999999998;" width="413" x="15.75" y="73.8732"/><line style="stroke:#181818;stroke-width:0.3499999999999999;stroke-dasharray:5.0,5.0;" x1="80.85" x2="80.85" y1="40.0695" y2="235.6266"/><line style="stroke:#181818;stroke-width:0.3499999999999999;stroke-dasharray:5.0,5.0;" x1="247.1" x2="247.1" y1="109.6443" y2="235.6266"/><rect fill="#E3E3E3" height="35.8695" rx="1.75" ry="1.75" style="stroke:#181818;stroke-width:0.3499999999999999;" width="116.9" x="22.75" y="3.5"/><text fill="#000000" font-family="sans-serif" font-size="9.8" lengthAdjust="spacing" textLength="107.1" x="27.65" y="18.9752">maintenanceRepository:</text><text fill="#000000" font-family="sans-serif" font-size="9.8" lengthAdjust="spacing" textLength="104.3" x="29.05" y="32.01">MaintenanceRepository</text><rect fill="#E3E3E3" height="35.8695" rx="1.75" ry="1.75" style="stroke:#181818;stroke-width:0.3499999999999999;" width="116.9" x="22.75" y="234.9266"/><text fill="#000000" font-family="sans-serif" font-size="9.8" lengthAdjust="spacing" textLength="107.1" x="27.65" y="250.4018">maintenanceRepository:</text><text fill="#000000" font-family="sans-serif" font-size="9.8" lengthAdjust="spacing" textLength="104.3" x="29.05" y="263.4365">MaintenanceRepository</text><rect fill="#E3E3E3" height="22.8348" rx="1.75" ry="1.75" style="stroke:#181818;stroke-width:0.3499999999999999;" width="69.3" x="212.8" y="234.9266"/><text fill="#000000" font-family="sans-serif" font-size="9.8" lengthAdjust="spacing" textLength="59.5" x="217.7" y="250.4018">:Maintenance</text><rect fill="#FFFFFF" height="165.9533" style="stroke:#181818;stroke-width:0.6999999999999998;" width="7" x="77.7" y="63.3732"/><rect fill="#FFFFFF" height="85.5422" style="stroke:#181818;stroke-width:0.6999999999999998;" width="7" x="243.95" y="110.6807"/><polygon fill="#181818" points="69.3,60.5732,76.3,63.3732,69.3,66.1732,72.1,63.3732" style="stroke:#181818;stroke-width:0.6999999999999998;"/><line style="stroke:#181818;stroke-width:0.6999999999999998;" x1="0" x2="73.5" y1="63.3732" y2="63.3732"/><text fill="#000000" font-family="sans-serif" font-size="9.1" font-weight="bold" lengthAdjust="spacing" textLength="9.8" x="4.9" y="59.6894">20</text><text fill="#000000" font-family="sans-serif" font-size="9.1" lengthAdjust="spacing" textLength="51.8" x="17.5" y="59.6894">maintenance</text><path d="M15.75,73.8732 L137.55,73.8732 L137.55,80.377 L130.55,87.377 L15.75,87.377 L15.75,73.8732 " fill="#EEEEEE" style="stroke:#000000;stroke-width:1.0499999999999998;"/><rect fill="none" height="127.9496" style="stroke:#000000;stroke-width:1.0499999999999998;" width="413" x="15.75" y="73.8732"/><text fill="#000000" font-family="sans-serif" font-size="9.1" font-weight="bold" lengthAdjust="spacing" textLength="90.3" x="26.25" y="84.3931">Create maintenance</text><polygon fill="#181818" points="204.4,100.8807,211.4,103.6807,204.4,106.4807,207.2,103.6807" style="stroke:#181818;stroke-width:0.6999999999999998;"/><line style="stroke:#181818;stroke-width:0.6999999999999998;" x1="84.7" x2="208.6" y1="103.6807" y2="103.6807"/><text fill="#000000" font-family="sans-serif" font-size="9.1" font-weight="bold" lengthAdjust="spacing" textLength="9.8" x="89.6" y="99.9968">21</text><text fill="#000000" font-family="sans-serif" font-size="9.1" lengthAdjust="spacing" textLength="98.7" x="102.2" y="99.9968">create(date, current Km)</text><rect fill="#E3E3E3" height="22.8348" rx="1.75" ry="1.75" style="stroke:#181818;stroke-width:0.3499999999999999;" width="69.3" x="212.8" y="87.377"/><text fill="#000000" font-family="sans-serif" font-size="9.8" lengthAdjust="spacing" textLength="59.5" x="217.7" y="102.8521">:Maintenance</text><line style="stroke:#181818;stroke-width:0.6999999999999998;" x1="250.95" x2="280.35" y1="134.2154" y2="134.2154"/><line style="stroke:#181818;stroke-width:0.6999999999999998;" x1="280.35" x2="280.35" y1="134.2154" y2="143.3154"/><line style="stroke:#181818;stroke-width:0.6999999999999998;" x1="251.65" x2="280.35" y1="143.3154" y2="143.3154"/><polygon fill="#181818" points="258.65,140.5154,251.65,143.3154,258.65,146.1154,255.85,143.3154" style="stroke:#181818;stroke-width:0.6999999999999998;"/><text fill="#000000" font-family="sans-serif" font-size="9.1" font-weight="bold" lengthAdjust="spacing" textLength="9.8" x="255.85" y="130.5315">22</text><text fill="#000000" font-family="sans-serif" font-size="9.1" lengthAdjust="spacing" textLength="99.4" x="268.45" y="130.5315">verifyFilled(maintenance)</text><line style="stroke:#181818;stroke-width:0.6999999999999998;" x1="250.95" x2="280.35" y1="165.2191" y2="165.2191"/><line style="stroke:#181818;stroke-width:0.6999999999999998;" x1="280.35" x2="280.35" y1="165.2191" y2="174.3191"/><line style="stroke:#181818;stroke-width:0.6999999999999998;" x1="251.65" x2="280.35" y1="174.3191" y2="174.3191"/><polygon fill="#181818" points="258.65,171.5191,251.65,174.3191,258.65,177.1191,255.85,174.3191" style="stroke:#181818;stroke-width:0.6999999999999998;"/><text fill="#000000" font-family="sans-serif" font-size="9.1" font-weight="bold" lengthAdjust="spacing" textLength="9.8" x="255.85" y="161.5353">23</text><text fill="#000000" font-family="sans-serif" font-size="9.1" lengthAdjust="spacing" textLength="151.9" x="268.45" y="161.5353">verifySpecialCharacters(maintenance)</text><polygon fill="#181818" points="92.4,193.4229,85.4,196.2229,92.4,199.0229,89.6,196.2229" style="stroke:#181818;stroke-width:0.6999999999999998;"/><line style="stroke:#181818;stroke-width:0.6999999999999998;stroke-dasharray:2.0,2.0;" x1="88.2" x2="246.75" y1="196.2229" y2="196.2229"/><text fill="#000000" font-family="sans-serif" font-size="9.1" font-weight="bold" lengthAdjust="spacing" textLength="9.8" x="96.6" y="192.539">24</text><text fill="#000000" font-family="sans-serif" font-size="9.1" lengthAdjust="spacing" textLength="51.8" x="109.2" y="192.539">maintenance</text><polygon fill="#181818" points="7.7,220.2266,0.7,223.0266,7.7,225.8266,4.9,223.0266" style="stroke:#181818;stroke-width:0.6999999999999998;"/><line style="stroke:#181818;stroke-width:0.6999999999999998;stroke-dasharray:2.0,2.0;" x1="3.5" x2="77" y1="223.0266" y2="223.0266"/><text fill="#000000" font-family="sans-serif" font-size="9.1" font-weight="bold" lengthAdjust="spacing" textLength="9.8" x="11.9" y="219.3427">25</text><text fill="#000000" font-family="sans-serif" font-size="9.1" lengthAdjust="spacing" textLength="51.8" x="24.5" y="219.3427">maintenance</text><!--SRC=[dL8zJyCm4DtzAqwTsef8Y352B9LOAXQwiXpEDR5gdwtpfIZ_7eC4Ia8e7nuy-3s_3v_poN52mG0XShITn42WqfF9dqX2UyAM3Zfu0Y6hoAqV4tA7JNnntC8HVIPZiDV8VNWcWPjhOmfBdNK9MM4LqB4I8rjwf1IpqoX3_SGFI-Shm0oBo5Iq7d7cTuofxfOre0OOnJ4mNQt4Fi5E29M-vQ5LTtuZBAUSS9T3JDDjjoMLVVTSDsMx0jkBK2cv3viVdSsymnYSEHMVCuax3lVEUshMeuQR_yWS4bc7VjULFs6L9Fz1ySA4BWoeeOytc2F4pHV3swhwbSah]--></g></svg>