<?xml version="1.0" encoding="us-ascii" standalone="no"?><svg xmlns="http://www.w3.org/2000/svg" xmlns:xlink="http://www.w3.org/1999/xlink" contentStyleType="text/css" height="896px" preserveAspectRatio="none" style="width:1036px;height:896px;background:#FFFFFF;" version="1.1" viewBox="0 0 1036 896" width="1036.8px" zoomAndPan="magnify"><defs/><g><rect fill="#FFFFFF" height="740.3516" style="stroke:#181818;stroke-width:0.8000000000000002;" width="8" x="116" y="74.8969"/><rect fill="#FFFFFF" height="225.2953" style="stroke:#181818;stroke-width:0.8000000000000002;" width="8" x="358.4" y="93.5297"/><rect fill="#FFFFFF" height="75.0984" style="stroke:#181818;stroke-width:0.8000000000000002;" width="8" x="358.4" y="343.8578"/><rect fill="#FFFFFF" height="271.1281" style="stroke:#181818;stroke-width:0.8000000000000002;" width="8" x="358.4" y="443.9891"/><rect fill="#FFFFFF" height="75.0984" style="stroke:#181818;stroke-width:0.8000000000000002;" width="8" x="358.4" y="740.15"/><rect fill="#FFFFFF" height="175.2297" style="stroke:#181818;stroke-width:0.8000000000000002;" width="8" x="547.2" y="118.5625"/><rect fill="#FFFFFF" height="25.0328" style="stroke:#181818;stroke-width:0.8000000000000002;" width="8" x="547.2" y="368.8906"/><rect fill="#FFFFFF" height="196.0297" style="stroke:#181818;stroke-width:0.8000000000000002;" width="8" x="547.2" y="469.0219"/><rect fill="#FFFFFF" height="25.0328" style="stroke:#181818;stroke-width:0.8000000000000002;" width="8" x="547.2" y="765.1828"/><rect fill="#FFFFFF" height="25.0328" style="stroke:#181818;stroke-width:0.8000000000000002;" width="8" x="644.4" y="143.5953"/><rect fill="#FFFFFF" height="25.0328" style="stroke:#181818;stroke-width:0.8000000000000002;" width="8" x="728.4" y="193.6609"/><rect fill="#FFFFFF" height="25.0328" style="stroke:#181818;stroke-width:0.8000000000000002;" width="8" x="728.4" y="494.0547"/><rect fill="#FFFFFF" height="25.0328" style="stroke:#181818;stroke-width:0.8000000000000002;" width="8" x="825.6" y="243.7266"/><rect fill="#FFFFFF" height="95.8984" style="stroke:#181818;stroke-width:0.8000000000000002;" width="8" x="829.6" y="544.1203"/><rect fill="#FFFFFF" height="65.2656" style="stroke:#181818;stroke-width:0.8000000000000002;" width="8" x="829.6" y="544.1203"/><line style="stroke:#181818;stroke-width:0.4000000000000001;stroke-dasharray:5.0,5.0;" x1="120" x2="120" y1="66.8969" y2="829.6484"/><line style="stroke:#181818;stroke-width:0.4000000000000001;stroke-dasharray:5.0,5.0;" x1="362.4" x2="362.4" y1="66.8969" y2="829.6484"/><line style="stroke:#181818;stroke-width:0.4000000000000001;stroke-dasharray:5.0,5.0;" x1="551.2" x2="551.2" y1="66.8969" y2="829.6484"/><line style="stroke:#181818;stroke-width:0.4000000000000001;stroke-dasharray:5.0,5.0;" x1="648" x2="648" y1="66.8969" y2="829.6484"/><line style="stroke:#181818;stroke-width:0.4000000000000001;stroke-dasharray:5.0,5.0;" x1="732" x2="732" y1="66.8969" y2="829.6484"/><line style="stroke:#181818;stroke-width:0.4000000000000001;stroke-dasharray:5.0,5.0;" x1="829.6" x2="829.6" y1="66.8969" y2="829.6484"/><text fill="#000000" font-family="sans-serif" font-size="11.2" lengthAdjust="spacing" textLength="227.2" x="4" y="64.0859">Vehicle and Equipment Fleet Manager (VFM)</text><ellipse cx="120" cy="10.8" fill="#E3E3E3" rx="6.4" ry="6.4" style="stroke:#181818;stroke-width:0.4000000000000001;"/><path d="M120,17.2 L120,38.8 M109.6,23.6 L130.4,23.6 M120,38.8 L109.6,50.8 M120,38.8 L130.4,50.8 " fill="none" style="stroke:#181818;stroke-width:0.4000000000000001;"/><text fill="#000000" font-family="sans-serif" font-size="11.2" lengthAdjust="spacing" textLength="227.2" x="4" y="840.9344">Vehicle and Equipment Fleet Manager (VFM)</text><ellipse cx="120" cy="850.5453" fill="#E3E3E3" rx="6.4" ry="6.4" style="stroke:#181818;stroke-width:0.4000000000000001;"/><path d="M120,856.9453 L120,878.5453 M109.6,863.3453 L130.4,863.3453 M120,878.5453 L109.6,890.5453 M120,878.5453 L130.4,890.5453 " fill="none" style="stroke:#181818;stroke-width:0.4000000000000001;"/><rect fill="#E3E3E3" height="26.0969" rx="2" ry="2" style="stroke:#181818;stroke-width:0.4000000000000001;" width="131.2" x="296.8" y="40"/><text fill="#000000" font-family="sans-serif" font-size="11.2" lengthAdjust="spacing" textLength="120" x="302.4" y="57.6859">:RegisterMaintenanceUI</text><rect fill="#E3E3E3" height="26.0969" rx="2" ry="2" style="stroke:#181818;stroke-width:0.4000000000000001;" width="131.2" x="296.8" y="828.8484"/><text fill="#000000" font-family="sans-serif" font-size="11.2" lengthAdjust="spacing" textLength="120" x="302.4" y="846.5344">:RegisterMaintenanceUI</text><rect fill="#E3E3E3" height="26.0969" rx="2" ry="2" style="stroke:#181818;stroke-width:0.4000000000000001;" width="100.8" x="500.8" y="40"/><text fill="#000000" font-family="sans-serif" font-size="11.2" lengthAdjust="spacing" textLength="89.6" x="506.4" y="57.6859">:VehicleController</text><rect fill="#E3E3E3" height="26.0969" rx="2" ry="2" style="stroke:#181818;stroke-width:0.4000000000000001;" width="100.8" x="500.8" y="828.8484"/><text fill="#000000" font-family="sans-serif" font-size="11.2" lengthAdjust="spacing" textLength="89.6" x="506.4" y="846.5344">:VehicleController</text><rect fill="#E3E3E3" height="26.0969" rx="2" ry="2" style="stroke:#181818;stroke-width:0.4000000000000001;" width="77.6" x="609.6" y="40"/><text fill="#000000" font-family="sans-serif" font-size="11.2" lengthAdjust="spacing" textLength="66.4" x="615.2" y="57.6859">:Repositories</text><rect fill="#E3E3E3" height="26.0969" rx="2" ry="2" style="stroke:#181818;stroke-width:0.4000000000000001;" width="77.6" x="609.6" y="828.8484"/><text fill="#000000" font-family="sans-serif" font-size="11.2" lengthAdjust="spacing" textLength="66.4" x="615.2" y="846.5344">:Repositories</text><rect fill="#E3E3E3" height="40.9938" rx="2" ry="2" style="stroke:#181818;stroke-width:0.4000000000000001;" width="74.4" x="695.2" y="25.1031"/><text fill="#000000" font-family="sans-serif" font-size="11.2" lengthAdjust="spacing" textLength="62.4" x="701.2" y="42.7891">repositories:</text><text fill="#000000" font-family="sans-serif" font-size="11.2" lengthAdjust="spacing" textLength="63.2" x="700.8" y="57.6859">Repositories</text><rect fill="#E3E3E3" height="40.9938" rx="2" ry="2" style="stroke:#181818;stroke-width:0.4000000000000001;" width="74.4" x="695.2" y="828.8484"/><text fill="#000000" font-family="sans-serif" font-size="11.2" lengthAdjust="spacing" textLength="62.4" x="701.2" y="846.5344">repositories:</text><text fill="#000000" font-family="sans-serif" font-size="11.2" lengthAdjust="spacing" textLength="63.2" x="700.8" y="861.4313">Repositories</text><rect fill="#E3E3E3" height="40.9938" rx="2" ry="2" style="stroke:#181818;stroke-width:0.4000000000000001;" width="104" x="777.6" y="25.1031"/><text fill="#000000" font-family="sans-serif" font-size="11.2" lengthAdjust="spacing" textLength="92.8" x="783.2" y="42.7891">vehicleRepository:</text><text fill="#000000" font-family="sans-serif" font-size="11.2" lengthAdjust="spacing" textLength="91.2" x="784" y="57.6859">VehicleRepository</text><rect fill="#E3E3E3" height="40.9938" rx="2" ry="2" style="stroke:#181818;stroke-width:0.4000000000000001;" width="104" x="777.6" y="828.8484"/><text fill="#000000" font-family="sans-serif" font-size="11.2" lengthAdjust="spacing" textLength="92.8" x="783.2" y="846.5344">vehicleRepository:</text><text fill="#000000" font-family="sans-serif" font-size="11.2" lengthAdjust="spacing" textLength="91.2" x="784" y="861.4313">VehicleRepository</text><rect fill="#FFFFFF" height="740.3516" style="stroke:#181818;stroke-width:0.8000000000000002;" width="8" x="116" y="74.8969"/><rect fill="#FFFFFF" height="225.2953" style="stroke:#181818;stroke-width:0.8000000000000002;" width="8" x="358.4" y="93.5297"/><rect fill="#FFFFFF" height="75.0984" style="stroke:#181818;stroke-width:0.8000000000000002;" width="8" x="358.4" y="343.8578"/><rect fill="#FFFFFF" height="271.1281" style="stroke:#181818;stroke-width:0.8000000000000002;" width="8" x="358.4" y="443.9891"/><rect fill="#FFFFFF" height="75.0984" style="stroke:#181818;stroke-width:0.8000000000000002;" width="8" x="358.4" y="740.15"/><rect fill="#FFFFFF" height="175.2297" style="stroke:#181818;stroke-width:0.8000000000000002;" width="8" x="547.2" y="118.5625"/><rect fill="#FFFFFF" height="25.0328" style="stroke:#181818;stroke-width:0.8000000000000002;" width="8" x="547.2" y="368.8906"/><rect fill="#FFFFFF" height="196.0297" style="stroke:#181818;stroke-width:0.8000000000000002;" width="8" x="547.2" y="469.0219"/><rect fill="#FFFFFF" height="25.0328" style="stroke:#181818;stroke-width:0.8000000000000002;" width="8" x="547.2" y="765.1828"/><rect fill="#FFFFFF" height="25.0328" style="stroke:#181818;stroke-width:0.8000000000000002;" width="8" x="644.4" y="143.5953"/><rect fill="#FFFFFF" height="25.0328" style="stroke:#181818;stroke-width:0.8000000000000002;" width="8" x="728.4" y="193.6609"/><rect fill="#FFFFFF" height="25.0328" style="stroke:#181818;stroke-width:0.8000000000000002;" width="8" x="728.4" y="494.0547"/><rect fill="#FFFFFF" height="25.0328" style="stroke:#181818;stroke-width:0.8000000000000002;" width="8" x="825.6" y="243.7266"/><rect fill="#FFFFFF" height="95.8984" style="stroke:#181818;stroke-width:0.8000000000000002;" width="8" x="829.6" y="544.1203"/><rect fill="#FFFFFF" height="65.2656" style="stroke:#181818;stroke-width:0.8000000000000002;" width="8" x="829.6" y="544.1203"/><polygon fill="#181818" points="348.8,90.3297,356.8,93.5297,348.8,96.7297,352,93.5297" style="stroke:#181818;stroke-width:0.8000000000000002;"/><line style="stroke:#181818;stroke-width:0.8000000000000002;" x1="124" x2="353.6" y1="93.5297" y2="93.5297"/><text fill="#000000" font-family="sans-serif" font-size="10.4" font-weight="bold" lengthAdjust="spacing" textLength="5.6" x="129.6" y="89.3195">1</text><text fill="#000000" font-family="sans-serif" font-size="10.4" lengthAdjust="spacing" textLength="210.4" x="138.4" y="89.3195">requests to list vehicles needing maintenance</text><polygon fill="#181818" points="537.6,115.3625,545.6,118.5625,537.6,121.7625,540.8,118.5625" style="stroke:#181818;stroke-width:0.8000000000000002;"/><line style="stroke:#181818;stroke-width:0.8000000000000002;" x1="366.4" x2="542.4" y1="118.5625" y2="118.5625"/><text fill="#000000" font-family="sans-serif" font-size="10.4" font-weight="bold" lengthAdjust="spacing" textLength="5.6" x="372" y="114.3523">2</text><text fill="#000000" font-family="sans-serif" font-size="10.4" lengthAdjust="spacing" textLength="77.6" x="380.8" y="114.3523">getVehiclesList()</text><polygon fill="#181818" points="634.8,140.3953,642.8,143.5953,634.8,146.7953,638,143.5953" style="stroke:#181818;stroke-width:0.8000000000000002;"/><line style="stroke:#181818;stroke-width:0.8000000000000002;" x1="555.2" x2="639.6" y1="143.5953" y2="143.5953"/><text fill="#000000" font-family="sans-serif" font-size="10.4" font-weight="bold" lengthAdjust="spacing" textLength="5.6" x="560.8" y="139.3852">3</text><text fill="#000000" font-family="sans-serif" font-size="10.4" lengthAdjust="spacing" textLength="60" x="569.6" y="139.3852">getInstance()</text><polygon fill="#181818" points="564,165.4281,556,168.6281,564,171.8281,560.8,168.6281" style="stroke:#181818;stroke-width:0.8000000000000002;"/><line style="stroke:#181818;stroke-width:0.8000000000000002;stroke-dasharray:2.0,2.0;" x1="559.2" x2="647.6" y1="168.6281" y2="168.6281"/><text fill="#000000" font-family="sans-serif" font-size="10.4" font-weight="bold" lengthAdjust="spacing" textLength="5.6" x="568.8" y="164.418">4</text><text fill="#000000" font-family="sans-serif" font-size="10.4" lengthAdjust="spacing" textLength="53.6" x="577.6" y="164.418">repositories</text><polygon fill="#181818" points="718.8,190.4609,726.8,193.6609,718.8,196.8609,722,193.6609" style="stroke:#181818;stroke-width:0.8000000000000002;"/><line style="stroke:#181818;stroke-width:0.8000000000000002;" x1="555.2" x2="723.6" y1="193.6609" y2="193.6609"/><text fill="#000000" font-family="sans-serif" font-size="10.4" font-weight="bold" lengthAdjust="spacing" textLength="5.6" x="560.8" y="189.4508">5</text><text fill="#000000" font-family="sans-serif" font-size="10.4" lengthAdjust="spacing" textLength="104.8" x="569.6" y="189.4508">getVehicleRepository()</text><polygon fill="#181818" points="564,215.4938,556,218.6938,564,221.8938,560.8,218.6938" style="stroke:#181818;stroke-width:0.8000000000000002;"/><line style="stroke:#181818;stroke-width:0.8000000000000002;stroke-dasharray:2.0,2.0;" x1="559.2" x2="731.6" y1="218.6938" y2="218.6938"/><text fill="#000000" font-family="sans-serif" font-size="10.4" font-weight="bold" lengthAdjust="spacing" textLength="5.6" x="568.8" y="214.4836">6</text><text fill="#000000" font-family="sans-serif" font-size="10.4" lengthAdjust="spacing" textLength="84" x="577.6" y="214.4836">VehicleRepository</text><polygon fill="#181818" points="816,240.5266,824,243.7266,816,246.9266,819.2,243.7266" style="stroke:#181818;stroke-width:0.8000000000000002;"/><line style="stroke:#181818;stroke-width:0.8000000000000002;" x1="555.2" x2="820.8" y1="243.7266" y2="243.7266"/><text fill="#000000" font-family="sans-serif" font-size="10.4" font-weight="bold" lengthAdjust="spacing" textLength="5.6" x="560.8" y="239.5164">7</text><text fill="#000000" font-family="sans-serif" font-size="10.4" lengthAdjust="spacing" textLength="77.6" x="569.6" y="239.5164">getVehiclesList()</text><polygon fill="#181818" points="564,265.5594,556,268.7594,564,271.9594,560.8,268.7594" style="stroke:#181818;stroke-width:0.8000000000000002;"/><line style="stroke:#181818;stroke-width:0.8000000000000002;stroke-dasharray:2.0,2.0;" x1="559.2" x2="828.8" y1="268.7594" y2="268.7594"/><text fill="#000000" font-family="sans-serif" font-size="10.4" font-weight="bold" lengthAdjust="spacing" textLength="5.6" x="568.8" y="264.5492">8</text><text fill="#000000" font-family="sans-serif" font-size="10.4" lengthAdjust="spacing" textLength="48" x="577.6" y="264.5492">vehicleList</text><polygon fill="#181818" points="375.2,290.5922,367.2,293.7922,375.2,296.9922,372,293.7922" style="stroke:#181818;stroke-width:0.8000000000000002;"/><line style="stroke:#181818;stroke-width:0.8000000000000002;stroke-dasharray:2.0,2.0;" x1="370.4" x2="550.4" y1="293.7922" y2="293.7922"/><text fill="#000000" font-family="sans-serif" font-size="10.4" font-weight="bold" lengthAdjust="spacing" textLength="5.6" x="380" y="289.582">9</text><text fill="#000000" font-family="sans-serif" font-size="10.4" lengthAdjust="spacing" textLength="48" x="388.8" y="289.582">vehicleList</text><polygon fill="#181818" points="132.8,315.625,124.8,318.825,132.8,322.025,129.6,318.825" style="stroke:#181818;stroke-width:0.8000000000000002;"/><line style="stroke:#181818;stroke-width:0.8000000000000002;stroke-dasharray:2.0,2.0;" x1="128" x2="361.6" y1="318.825" y2="318.825"/><text fill="#000000" font-family="sans-serif" font-size="10.4" font-weight="bold" lengthAdjust="spacing" textLength="11.2" x="137.6" y="314.6148">10</text><text fill="#000000" font-family="sans-serif" font-size="10.4" lengthAdjust="spacing" textLength="92.8" x="152" y="314.6148">displays vehicle List</text><polygon fill="#181818" points="348.8,340.6578,356.8,343.8578,348.8,347.0578,352,343.8578" style="stroke:#181818;stroke-width:0.8000000000000002;"/><line style="stroke:#181818;stroke-width:0.8000000000000002;" x1="124" x2="353.6" y1="343.8578" y2="343.8578"/><text fill="#000000" font-family="sans-serif" font-size="10.4" font-weight="bold" lengthAdjust="spacing" textLength="11.2" x="129.6" y="339.6477">11</text><text fill="#000000" font-family="sans-serif" font-size="10.4" lengthAdjust="spacing" textLength="75.2" x="144" y="339.6477">Chooses vehicle</text><polygon fill="#181818" points="537.6,365.6906,545.6,368.8906,537.6,372.0906,540.8,368.8906" style="stroke:#181818;stroke-width:0.8000000000000002;"/><line style="stroke:#181818;stroke-width:0.8000000000000002;" x1="366.4" x2="542.4" y1="368.8906" y2="368.8906"/><text fill="#000000" font-family="sans-serif" font-size="10.4" font-weight="bold" lengthAdjust="spacing" textLength="11.2" x="372" y="364.6805">12</text><text fill="#000000" font-family="sans-serif" font-size="10.4" lengthAdjust="spacing" textLength="31.2" x="386.4" y="364.6805">vehicle</text><polygon fill="#181818" points="375.2,390.7234,367.2,393.9234,375.2,397.1234,372,393.9234" style="stroke:#181818;stroke-width:0.8000000000000002;"/><line style="stroke:#181818;stroke-width:0.8000000000000002;stroke-dasharray:2.0,2.0;" x1="370.4" x2="550.4" y1="393.9234" y2="393.9234"/><text fill="#000000" font-family="sans-serif" font-size="10.4" font-weight="bold" lengthAdjust="spacing" textLength="11.2" x="380" y="389.7133">13</text><text fill="#000000" font-family="sans-serif" font-size="10.4" lengthAdjust="spacing" textLength="147.2" x="394.4" y="389.7133">requests data(date, current Km)</text><polygon fill="#181818" points="132.8,415.7563,124.8,418.9563,132.8,422.1563,129.6,418.9563" style="stroke:#181818;stroke-width:0.8000000000000002;"/><line style="stroke:#181818;stroke-width:0.8000000000000002;stroke-dasharray:2.0,2.0;" x1="128" x2="361.6" y1="418.9563" y2="418.9563"/><text fill="#000000" font-family="sans-serif" font-size="10.4" font-weight="bold" lengthAdjust="spacing" textLength="11.2" x="137.6" y="414.7461">14</text><text fill="#000000" font-family="sans-serif" font-size="10.4" lengthAdjust="spacing" textLength="150.4" x="152" y="414.7461">requests data (date, current Km)</text><polygon fill="#181818" points="348.8,440.7891,356.8,443.9891,348.8,447.1891,352,443.9891" style="stroke:#181818;stroke-width:0.8000000000000002;"/><line style="stroke:#181818;stroke-width:0.8000000000000002;" x1="124" x2="353.6" y1="443.9891" y2="443.9891"/><text fill="#000000" font-family="sans-serif" font-size="10.4" font-weight="bold" lengthAdjust="spacing" textLength="11.2" x="129.6" y="439.7789">15</text><text fill="#000000" font-family="sans-serif" font-size="10.4" lengthAdjust="spacing" textLength="138.4" x="144" y="439.7789">Types data (date, current Km)</text><polygon fill="#181818" points="537.6,465.8219,545.6,469.0219,537.6,472.2219,540.8,469.0219" style="stroke:#181818;stroke-width:0.8000000000000002;"/><line style="stroke:#181818;stroke-width:0.8000000000000002;" x1="366.4" x2="542.4" y1="469.0219" y2="469.0219"/><text fill="#000000" font-family="sans-serif" font-size="10.4" font-weight="bold" lengthAdjust="spacing" textLength="11.2" x="372" y="464.8117">16</text><text fill="#000000" font-family="sans-serif" font-size="10.4" lengthAdjust="spacing" textLength="96.8" x="386.4" y="464.8117">register maintenance</text><polygon fill="#181818" points="718.8,490.8547,726.8,494.0547,718.8,497.2547,722,494.0547" style="stroke:#181818;stroke-width:0.8000000000000002;"/><line style="stroke:#181818;stroke-width:0.8000000000000002;" x1="555.2" x2="723.6" y1="494.0547" y2="494.0547"/><text fill="#000000" font-family="sans-serif" font-size="10.4" font-weight="bold" lengthAdjust="spacing" textLength="11.2" x="560.8" y="489.8445">17</text><text fill="#000000" font-family="sans-serif" font-size="10.4" lengthAdjust="spacing" textLength="129.6" x="575.2" y="489.8445">getMaintenanceRepository()</text><polygon fill="#181818" points="564,515.8875,556,519.0875,564,522.2875,560.8,519.0875" style="stroke:#181818;stroke-width:0.8000000000000002;"/><line style="stroke:#181818;stroke-width:0.8000000000000002;stroke-dasharray:2.0,2.0;" x1="559.2" x2="731.6" y1="519.0875" y2="519.0875"/><text fill="#000000" font-family="sans-serif" font-size="10.4" font-weight="bold" lengthAdjust="spacing" textLength="11.2" x="568.8" y="514.8773">18</text><text fill="#000000" font-family="sans-serif" font-size="10.4" lengthAdjust="spacing" textLength="108.8" x="583.2" y="514.8773">MaintenanceRepository</text><polygon fill="#181818" points="820,540.9203,828,544.1203,820,547.3203,823.2,544.1203" style="stroke:#181818;stroke-width:0.8000000000000002;"/><line style="stroke:#181818;stroke-width:0.8000000000000002;" x1="555.2" x2="824.8" y1="544.1203" y2="544.1203"/><text fill="#000000" font-family="sans-serif" font-size="10.4" font-weight="bold" lengthAdjust="spacing" textLength="11.2" x="560.8" y="539.9102">19</text><text fill="#000000" font-family="sans-serif" font-size="10.4" lengthAdjust="spacing" textLength="96.8" x="575.2" y="539.9102">register maintenance</text><line style="stroke:#181818;stroke-width:0.8000000000000002;" x1="837.6" x2="871.2" y1="569.1531" y2="569.1531"/><line style="stroke:#181818;stroke-width:0.8000000000000002;" x1="871.2" x2="871.2" y1="569.1531" y2="579.5531"/><line style="stroke:#181818;stroke-width:0.8000000000000002;" x1="838.4" x2="871.2" y1="579.5531" y2="579.5531"/><polygon fill="#181818" points="846.4,576.3531,838.4,579.5531,846.4,582.7531,843.2,579.5531" style="stroke:#181818;stroke-width:0.8000000000000002;"/><text fill="#000000" font-family="sans-serif" font-size="10.4" font-weight="bold" lengthAdjust="spacing" textLength="11.2" x="843.2" y="564.943">20</text><text fill="#000000" font-family="sans-serif" font-size="10.4" lengthAdjust="spacing" textLength="113.6" x="857.6" y="564.943">verifyFilled(maintenance)</text><line style="stroke:#181818;stroke-width:0.8000000000000002;" x1="837.6" x2="871.2" y1="608.5859" y2="608.5859"/><line style="stroke:#181818;stroke-width:0.8000000000000002;" x1="871.2" x2="871.2" y1="608.5859" y2="618.9859"/><line style="stroke:#181818;stroke-width:0.8000000000000002;" x1="833.6" x2="871.2" y1="618.9859" y2="618.9859"/><polygon fill="#181818" points="841.6,615.7859,833.6,618.9859,841.6,622.1859,838.4,618.9859" style="stroke:#181818;stroke-width:0.8000000000000002;"/><text fill="#000000" font-family="sans-serif" font-size="10.4" font-weight="bold" lengthAdjust="spacing" textLength="11.2" x="843.2" y="604.3758">21</text><text fill="#000000" font-family="sans-serif" font-size="10.4" lengthAdjust="spacing" textLength="173.6" x="857.6" y="604.3758">verifySpecialCharacters(maintenance)</text><polygon fill="#181818" points="564,636.8188,556,640.0188,564,643.2188,560.8,640.0188" style="stroke:#181818;stroke-width:0.8000000000000002;"/><line style="stroke:#181818;stroke-width:0.8000000000000002;stroke-dasharray:2.0,2.0;" x1="559.2" x2="828.8" y1="640.0188" y2="640.0188"/><text fill="#000000" font-family="sans-serif" font-size="10.4" font-weight="bold" lengthAdjust="spacing" textLength="11.2" x="568.8" y="635.8086">22</text><text fill="#000000" font-family="sans-serif" font-size="10.4" lengthAdjust="spacing" textLength="59.2" x="583.2" y="635.8086">maintenance</text><polygon fill="#181818" points="375.2,661.8516,367.2,665.0516,375.2,668.2516,372,665.0516" style="stroke:#181818;stroke-width:0.8000000000000002;"/><line style="stroke:#181818;stroke-width:0.8000000000000002;stroke-dasharray:2.0,2.0;" x1="370.4" x2="550.4" y1="665.0516" y2="665.0516"/><text fill="#000000" font-family="sans-serif" font-size="10.4" font-weight="bold" lengthAdjust="spacing" textLength="11.2" x="380" y="660.8414">23</text><text fill="#000000" font-family="sans-serif" font-size="10.4" lengthAdjust="spacing" textLength="59.2" x="394.4" y="660.8414">maintenance</text><polygon fill="#181818" points="132.8,686.8844,124.8,690.0844,132.8,693.2844,129.6,690.0844" style="stroke:#181818;stroke-width:0.8000000000000002;"/><line style="stroke:#181818;stroke-width:0.8000000000000002;stroke-dasharray:2.0,2.0;" x1="128" x2="357.6" y1="690.0844" y2="690.0844"/><text fill="#000000" font-family="sans-serif" font-size="10.4" font-weight="bold" lengthAdjust="spacing" textLength="11.2" x="137.6" y="685.8742">24</text><text fill="#000000" font-family="sans-serif" font-size="10.4" lengthAdjust="spacing" textLength="125.6" x="152" y="685.8742">Displays maintenance data</text><polygon fill="#181818" points="132.8,711.9172,124.8,715.1172,132.8,718.3172,129.6,715.1172" style="stroke:#181818;stroke-width:0.8000000000000002;"/><line style="stroke:#181818;stroke-width:0.8000000000000002;stroke-dasharray:2.0,2.0;" x1="128" x2="361.6" y1="715.1172" y2="715.1172"/><text fill="#000000" font-family="sans-serif" font-size="10.4" font-weight="bold" lengthAdjust="spacing" textLength="11.2" x="137.6" y="710.907">25</text><text fill="#000000" font-family="sans-serif" font-size="10.4" lengthAdjust="spacing" textLength="99.2" x="152" y="710.907">requests confirmation</text><polygon fill="#181818" points="348.8,736.95,356.8,740.15,348.8,743.35,352,740.15" style="stroke:#181818;stroke-width:0.8000000000000002;"/><line style="stroke:#181818;stroke-width:0.8000000000000002;" x1="124" x2="353.6" y1="740.15" y2="740.15"/><text fill="#000000" font-family="sans-serif" font-size="10.4" font-weight="bold" lengthAdjust="spacing" textLength="11.2" x="129.6" y="735.9398">26</text><text fill="#000000" font-family="sans-serif" font-size="10.4" lengthAdjust="spacing" textLength="62.4" x="144" y="735.9398">confirms data</text><polygon fill="#181818" points="537.6,761.9828,545.6,765.1828,537.6,768.3828,540.8,765.1828" style="stroke:#181818;stroke-width:0.8000000000000002;"/><line style="stroke:#181818;stroke-width:0.8000000000000002;" x1="366.4" x2="542.4" y1="765.1828" y2="765.1828"/><text fill="#000000" font-family="sans-serif" font-size="10.4" font-weight="bold" lengthAdjust="spacing" textLength="11.2" x="372" y="760.9727">27</text><text fill="#000000" font-family="sans-serif" font-size="10.4" lengthAdjust="spacing" textLength="56" x="386.4" y="760.9727">confirmation</text><polygon fill="#181818" points="375.2,787.0156,367.2,790.2156,375.2,793.4156,372,790.2156" style="stroke:#181818;stroke-width:0.8000000000000002;"/><line style="stroke:#181818;stroke-width:0.8000000000000002;stroke-dasharray:2.0,2.0;" x1="370.4" x2="550.4" y1="790.2156" y2="790.2156"/><text fill="#000000" font-family="sans-serif" font-size="10.4" font-weight="bold" lengthAdjust="spacing" textLength="11.2" x="380" y="786.0055">28</text><text fill="#000000" font-family="sans-serif" font-size="10.4" lengthAdjust="spacing" textLength="84.8" x="394.4" y="786.0055">operation success</text><polygon fill="#181818" points="128.8,812.0484,120.8,815.2484,128.8,818.4484,125.6,815.2484" style="stroke:#181818;stroke-width:0.8000000000000002;"/><line style="stroke:#181818;stroke-width:0.8000000000000002;" x1="124" x2="361.6" y1="815.2484" y2="815.2484"/><text fill="#000000" font-family="sans-serif" font-size="10.4" font-weight="bold" lengthAdjust="spacing" textLength="11.2" x="133.6" y="811.0383">29</text><text fill="#000000" font-family="sans-serif" font-size="10.4" lengthAdjust="spacing" textLength="126.4" x="148" y="811.0383">displays operation success</text><!--SRC=[fPR1Zjem48RlUOeHbu9KNe13fOeM2HMaQc4vzU9r1h0siREsGylRTsAI42TEDkpwW93Z-MRcjtydvbN8Z6cMGggaucUjKWIhSunC_IHZ_9MTS6Ul2O96Rfay9Sq5vinYzLV84nnPOZ2AM6wLpDCNr57qvInYXADIzaNzYnYtIiFaW6V1YSPa33_VSf6bA2si4aGBMoOfcuRfORMTJO0Pe3yHPRA2YupHkidY2K_2MDHR9gH5oIJ7vxLR-xnkBIrJBPMqMYK9QhTikN_QT9YPCeBA4sZScdhYkXD5nzIJ7w8R4Oi_iWFulVc-zoCkjsBkP0exjETkFRTdeq8xSM4MdHuHqA0_CFz6FSE2DkOjHsCDM0K9YGDbBWCICIus9xsBvQ9h7cdc9ef1B28MyX3pXBQimsm8EPtLo-fO9sGzxU8eFY3T3RUMnXO5X50XlUjLnGXHvsMrXG1t-Ukm6CVXgyABBVCQlqU5IdOxxDNe0FUYkjiOgEn6yJbLGHt0uBPunGME4BH6bpw_xtvvW8eKNc2ZydTIt9geJkW8dd-QglDOo40dVG6nC5d2hgP2mH2hUQhRPbcUbJ9OSyBwjG6UDGOZkstuIjHUZPbbK_h1hy1phOjBy5Sw-w0w7XL6O_jLsbyp74SRfvakR-tEJJH2mA176zT_qAVjCU3RNWzJfc2QtkYcigCjFLwQToptWFi3vWyNTq4jZjULeBTdF6qKEFiaSPSX5onPdkahWbFpneT7_S8-SetrAJf8zFtw8OJdpH_LpTL0EMSDHjMEvaeUXKwP5VJI6YzBmyibmGIJzjgtxU2XEiQOjwf6PQWT14pEEHhpcAoTzy4ZlFv7xiFgFm00]--></g></svg>