<?xml version="1.0" encoding="us-ascii" standalone="no"?><svg xmlns="http://www.w3.org/2000/svg" xmlns:xlink="http://www.w3.org/1999/xlink" contentStyleType="text/css" height="465.5px" preserveAspectRatio="none" style="width:325px;height:465px;background:#FFFFFF;" version="1.1" viewBox="0 0 325 465" width="325.5px" zoomAndPan="magnify"><defs/><g><!--class RegisterVehicleCheckupUI--><g id="elem_RegisterVehicleCheckupUI"><rect codeLine="14" fill="#F1F1F1" height="33.6" id="RegisterVehicleCheckupUI" rx="1.75" ry="1.75" style="stroke:#181818;stroke-width:0.3499999999999999;" width="139.3" x="71.75" y="4.9"/><ellipse cx="82.25" cy="16.1" fill="#ADD1B2" rx="7.7" ry="7.7" style="stroke:#181818;stroke-width:0.6999999999999998;"/><path d="M84.1859,13.2125 Q84.2953,13.0594 84.4266,12.9828 Q84.5578,12.9062 84.7109,12.9062 Q84.9734,12.9062 85.1375,13.0922 Q85.3016,13.2672 85.3016,13.6937 L85.3016,14.7109 Q85.3016,15.1375 85.1375,15.3234 Q84.9734,15.5094 84.7109,15.5094 Q84.4703,15.5094 84.3281,15.3672 Q84.1859,15.2359 84.1094,14.875 Q84.0766,14.6234 83.9453,14.4922 Q83.7156,14.2297 83.2891,14.0766 Q82.8625,13.9234 82.425,13.9234 Q81.8891,13.9234 81.4406,14.1531 Q81.0031,14.3828 80.6531,14.9078 Q80.3141,15.4328 80.3141,16.1547 L80.3141,16.9203 Q80.3141,17.7844 80.9375,18.3641 Q81.5609,18.9328 82.6766,18.9328 Q83.3328,18.9328 83.7922,18.7578 Q84.0656,18.6484 84.3609,18.3422 Q84.5469,18.1562 84.6453,18.1016 Q84.7547,18.0469 84.8969,18.0469 Q85.1266,18.0469 85.3016,18.2328 Q85.4875,18.4078 85.4875,18.6484 Q85.4875,18.8891 85.2469,19.1734 Q84.8969,19.5781 84.3391,19.8078 Q83.5844,20.125 82.6766,20.125 Q81.6156,20.125 80.7734,19.6875 Q80.0844,19.3375 79.6031,18.5937 Q79.1219,17.8391 79.1219,16.9422 L79.1219,16.1328 Q79.1219,15.2031 79.5484,14.4047 Q79.9859,13.5953 80.7516,13.1687 Q81.5172,12.7312 82.3812,12.7312 Q82.8953,12.7312 83.3437,12.8516 Q83.8031,12.9609 84.1859,13.2125 Z " fill="#000000"/><text fill="#000000" font-family="sans-serif" font-size="9.8" lengthAdjust="spacing" textLength="116.9" x="92.05" y="20.1578">RegisterVehicleCheckupUI</text><line style="stroke:#181818;stroke-width:0.3499999999999999;" x1="72.45" x2="210.35" y1="27.3" y2="27.3"/><line style="stroke:#181818;stroke-width:0.3499999999999999;" x1="72.45" x2="210.35" y1="32.9" y2="32.9"/></g><!--class RegisterVehicleCheckupController--><g id="elem_RegisterVehicleCheckupController"><rect codeLine="17" fill="#F1F1F1" height="59.6695" id="RegisterVehicleCheckupController" rx="1.75" ry="1.75" style="stroke:#181818;stroke-width:0.3499999999999999;" width="174.3" x="54.25" y="81.2"/><ellipse cx="64.75" cy="92.4" fill="#ADD1B2" rx="7.7" ry="7.7" style="stroke:#181818;stroke-width:0.6999999999999998;"/><path d="M66.6859,89.5125 Q66.7953,89.3594 66.9266,89.2828 Q67.0578,89.2062 67.2109,89.2062 Q67.4734,89.2062 67.6375,89.3922 Q67.8016,89.5672 67.8016,89.9937 L67.8016,91.0109 Q67.8016,91.4375 67.6375,91.6234 Q67.4734,91.8094 67.2109,91.8094 Q66.9703,91.8094 66.8281,91.6672 Q66.6859,91.5359 66.6094,91.175 Q66.5766,90.9234 66.4453,90.7922 Q66.2156,90.5297 65.7891,90.3766 Q65.3625,90.2234 64.925,90.2234 Q64.3891,90.2234 63.9406,90.4531 Q63.5031,90.6828 63.1531,91.2078 Q62.8141,91.7328 62.8141,92.4547 L62.8141,93.2203 Q62.8141,94.0844 63.4375,94.6641 Q64.0609,95.2328 65.1766,95.2328 Q65.8328,95.2328 66.2922,95.0578 Q66.5656,94.9484 66.8609,94.6422 Q67.0469,94.4562 67.1453,94.4016 Q67.2547,94.3469 67.3969,94.3469 Q67.6266,94.3469 67.8016,94.5328 Q67.9875,94.7078 67.9875,94.9484 Q67.9875,95.1891 67.7469,95.4734 Q67.3969,95.8781 66.8391,96.1078 Q66.0844,96.425 65.1766,96.425 Q64.1156,96.425 63.2734,95.9875 Q62.5844,95.6375 62.1031,94.8937 Q61.6219,94.1391 61.6219,93.2422 L61.6219,92.4328 Q61.6219,91.5031 62.0484,90.7047 Q62.4859,89.8953 63.2516,89.4687 Q64.0172,89.0312 64.8812,89.0312 Q65.3953,89.0312 65.8437,89.1516 Q66.3031,89.2609 66.6859,89.5125 Z " fill="#000000"/><text fill="#000000" font-family="sans-serif" font-size="9.8" lengthAdjust="spacing" textLength="151.9" x="74.55" y="96.4578">RegisterVehicleCheckupController</text><line style="stroke:#181818;stroke-width:0.3499999999999999;" x1="54.95" x2="227.85" y1="103.6" y2="103.6"/><line style="stroke:#181818;stroke-width:0.3499999999999999;" x1="54.95" x2="227.85" y1="109.2" y2="109.2"/><text fill="#000000" font-family="sans-serif" font-size="9.8" lengthAdjust="spacing" textLength="125.3" x="58.45" y="122.5752">+RegisterVehicleController()</text><text fill="#000000" font-family="sans-serif" font-size="9.8" lengthAdjust="spacing" textLength="106.4" x="58.45" y="135.61">+getVehicleRepository()</text></g><!--class Repositories--><g id="elem_Repositories"><rect codeLine="23" fill="#F1F1F1" height="72.7043" id="Repositories" rx="1.75" ry="1.75" style="stroke:#181818;stroke-width:0.3499999999999999;" width="133" x="74.9" y="183.4"/><ellipse cx="110.775" cy="194.6" fill="#ADD1B2" rx="7.7" ry="7.7" style="stroke:#181818;stroke-width:0.6999999999999998;"/><path d="M112.7109,191.7125 Q112.8203,191.5594 112.9516,191.4828 Q113.0828,191.4062 113.2359,191.4062 Q113.4984,191.4062 113.6625,191.5922 Q113.8266,191.7672 113.8266,192.1937 L113.8266,193.2109 Q113.8266,193.6375 113.6625,193.8234 Q113.4984,194.0094 113.2359,194.0094 Q112.9953,194.0094 112.8531,193.8672 Q112.7109,193.7359 112.6344,193.375 Q112.6016,193.1234 112.4703,192.9922 Q112.2406,192.7297 111.8141,192.5766 Q111.3875,192.4234 110.95,192.4234 Q110.4141,192.4234 109.9656,192.6531 Q109.5281,192.8828 109.1781,193.4078 Q108.8391,193.9328 108.8391,194.6547 L108.8391,195.4203 Q108.8391,196.2844 109.4625,196.8641 Q110.0859,197.4328 111.2016,197.4328 Q111.8578,197.4328 112.3172,197.2578 Q112.5906,197.1484 112.8859,196.8422 Q113.0719,196.6562 113.1703,196.6016 Q113.2797,196.5469 113.4219,196.5469 Q113.6516,196.5469 113.8266,196.7328 Q114.0125,196.9078 114.0125,197.1484 Q114.0125,197.3891 113.7719,197.6734 Q113.4219,198.0781 112.8641,198.3078 Q112.1094,198.625 111.2016,198.625 Q110.1406,198.625 109.2984,198.1875 Q108.6094,197.8375 108.1281,197.0937 Q107.6469,196.3391 107.6469,195.4422 L107.6469,194.6328 Q107.6469,193.7031 108.0734,192.9047 Q108.5109,192.0953 109.2766,191.6687 Q110.0422,191.2312 110.9062,191.2312 Q111.4203,191.2312 111.8687,191.3516 Q112.3281,191.4609 112.7109,191.7125 Z " fill="#000000"/><text fill="#000000" font-family="sans-serif" font-size="9.8" lengthAdjust="spacing" textLength="55.3" x="125.125" y="198.6578">Repositories</text><line style="stroke:#181818;stroke-width:0.3499999999999999;" x1="75.6" x2="207.2" y1="205.8" y2="205.8"/><line style="stroke:#181818;stroke-width:0.3499999999999999;" x1="75.6" x2="207.2" y1="211.4" y2="211.4"/><text fill="#000000" font-family="sans-serif" font-size="9.8" lengthAdjust="spacing" textLength="65.8" x="79.1" y="224.7752">-Repositories()</text><text fill="#000000" font-family="sans-serif" font-size="9.8" lengthAdjust="spacing" textLength="124.6" x="79.1" y="237.81">+getInstance(): Repositories</text><text fill="#000000" font-family="sans-serif" font-size="9.8" lengthAdjust="spacing" textLength="106.4" x="79.1" y="250.8447">+getVehicleRepository()</text></g><!--class VehicleCheckupRepository--><g id="elem_VehicleCheckupRepository"><rect codeLine="30" fill="#F1F1F1" height="46.6348" id="VehicleCheckupRepository" rx="1.75" ry="1.75" style="stroke:#181818;stroke-width:0.3499999999999999;" width="245.7" x="75.25" y="298.9"/><ellipse cx="135.625" cy="310.1" fill="#ADD1B2" rx="7.7" ry="7.7" style="stroke:#181818;stroke-width:0.6999999999999998;"/><path d="M137.5609,307.2125 Q137.6703,307.0594 137.8016,306.9828 Q137.9328,306.9062 138.0859,306.9062 Q138.3484,306.9062 138.5125,307.0922 Q138.6766,307.2672 138.6766,307.6937 L138.6766,308.7109 Q138.6766,309.1375 138.5125,309.3234 Q138.3484,309.5094 138.0859,309.5094 Q137.8453,309.5094 137.7031,309.3672 Q137.5609,309.2359 137.4844,308.875 Q137.4516,308.6234 137.3203,308.4922 Q137.0906,308.2297 136.6641,308.0766 Q136.2375,307.9234 135.8,307.9234 Q135.2641,307.9234 134.8156,308.1531 Q134.3781,308.3828 134.0281,308.9078 Q133.6891,309.4328 133.6891,310.1547 L133.6891,310.9203 Q133.6891,311.7844 134.3125,312.3641 Q134.9359,312.9328 136.0516,312.9328 Q136.7078,312.9328 137.1672,312.7578 Q137.4406,312.6484 137.7359,312.3422 Q137.9219,312.1562 138.0203,312.1016 Q138.1297,312.0469 138.2719,312.0469 Q138.5016,312.0469 138.6766,312.2328 Q138.8625,312.4078 138.8625,312.6484 Q138.8625,312.8891 138.6219,313.1734 Q138.2719,313.5781 137.7141,313.8078 Q136.9594,314.125 136.0516,314.125 Q134.9906,314.125 134.1484,313.6875 Q133.4594,313.3375 132.9781,312.5937 Q132.4969,311.8391 132.4969,310.9422 L132.4969,310.1328 Q132.4969,309.2031 132.9234,308.4047 Q133.3609,307.5953 134.1266,307.1687 Q134.8922,306.7312 135.7562,306.7312 Q136.2703,306.7312 136.7187,306.8516 Q137.1781,306.9609 137.5609,307.2125 Z " fill="#000000"/><text fill="#000000" font-family="sans-serif" font-size="9.8" lengthAdjust="spacing" textLength="119" x="149.975" y="314.1578">VehicleCheckupRepository</text><line style="stroke:#181818;stroke-width:0.3499999999999999;" x1="75.95" x2="320.25" y1="321.3" y2="321.3"/><line style="stroke:#181818;stroke-width:0.3499999999999999;" x1="75.95" x2="320.25" y1="326.9" y2="326.9"/><text fill="#000000" font-family="sans-serif" font-size="9.8" lengthAdjust="spacing" textLength="237.3" x="79.45" y="340.2752">+RegisterVehicleCheckup(idVehicle, date, currentKm)</text></g><!--class VehicleCheckup--><g id="elem_VehicleCheckup"><rect codeLine="34" fill="#F1F1F1" height="72.7043" id="VehicleCheckup" rx="1.75" ry="1.75" style="stroke:#181818;stroke-width:0.3499999999999999;" width="93.8" x="4.9" y="388.5"/><ellipse cx="15.4" cy="399.7" fill="#ADD1B2" rx="7.7" ry="7.7" style="stroke:#181818;stroke-width:0.6999999999999998;"/><path d="M17.3359,396.8125 Q17.4453,396.6594 17.5766,396.5828 Q17.7078,396.5062 17.8609,396.5062 Q18.1234,396.5062 18.2875,396.6922 Q18.4516,396.8672 18.4516,397.2937 L18.4516,398.3109 Q18.4516,398.7375 18.2875,398.9234 Q18.1234,399.1094 17.8609,399.1094 Q17.6203,399.1094 17.4781,398.9672 Q17.3359,398.8359 17.2594,398.475 Q17.2266,398.2234 17.0953,398.0922 Q16.8656,397.8297 16.4391,397.6766 Q16.0125,397.5234 15.575,397.5234 Q15.0391,397.5234 14.5906,397.7531 Q14.1531,397.9828 13.8031,398.5078 Q13.4641,399.0328 13.4641,399.7547 L13.4641,400.5203 Q13.4641,401.3844 14.0875,401.9641 Q14.7109,402.5328 15.8266,402.5328 Q16.4828,402.5328 16.9422,402.3578 Q17.2156,402.2484 17.5109,401.9422 Q17.6969,401.7562 17.7953,401.7016 Q17.9047,401.6469 18.0469,401.6469 Q18.2766,401.6469 18.4516,401.8328 Q18.6375,402.0078 18.6375,402.2484 Q18.6375,402.4891 18.3969,402.7734 Q18.0469,403.1781 17.4891,403.4078 Q16.7344,403.725 15.8266,403.725 Q14.7656,403.725 13.9234,403.2875 Q13.2344,402.9375 12.7531,402.1937 Q12.2719,401.4391 12.2719,400.5422 L12.2719,399.7328 Q12.2719,398.8031 12.6984,398.0047 Q13.1359,397.1953 13.9016,396.7687 Q14.6672,396.3312 15.5312,396.3312 Q16.0453,396.3312 16.4937,396.4516 Q16.9531,396.5609 17.3359,396.8125 Z " fill="#000000"/><text fill="#000000" font-family="sans-serif" font-size="9.8" lengthAdjust="spacing" textLength="71.4" x="25.2" y="403.7578">VehicleCheckup</text><line style="stroke:#181818;stroke-width:0.3499999999999999;" x1="5.6" x2="98" y1="410.9" y2="410.9"/><text fill="#000000" font-family="sans-serif" font-size="9.8" lengthAdjust="spacing" textLength="72.1" x="9.1" y="424.2752">-String idVehicle</text><text fill="#000000" font-family="sans-serif" font-size="9.8" lengthAdjust="spacing" textLength="51.8" x="9.1" y="437.31">-String date</text><text fill="#000000" font-family="sans-serif" font-size="9.8" lengthAdjust="spacing" textLength="62.3" x="9.1" y="450.3447">-int currentKm</text><line style="stroke:#181818;stroke-width:0.3499999999999999;" x1="5.6" x2="98" y1="455.6043" y2="455.6043"/></g><!--class FleetManager--><g id="elem_FleetManager"><rect fill="#F1F1F1" height="33.6" id="FleetManager" rx="1.75" ry="1.75" style="stroke:#181818;stroke-width:0.3499999999999999;" width="84" x="177.1" y="408.1"/><ellipse cx="187.6" cy="419.3" fill="#ADD1B2" rx="7.7" ry="7.7" style="stroke:#181818;stroke-width:0.6999999999999998;"/><path d="M189.5359,416.4125 Q189.6453,416.2594 189.7766,416.1828 Q189.9078,416.1062 190.0609,416.1062 Q190.3234,416.1062 190.4875,416.2922 Q190.6516,416.4672 190.6516,416.8937 L190.6516,417.9109 Q190.6516,418.3375 190.4875,418.5234 Q190.3234,418.7094 190.0609,418.7094 Q189.8203,418.7094 189.6781,418.5672 Q189.5359,418.4359 189.4594,418.075 Q189.4266,417.8234 189.2953,417.6922 Q189.0656,417.4297 188.6391,417.2766 Q188.2125,417.1234 187.775,417.1234 Q187.2391,417.1234 186.7906,417.3531 Q186.3531,417.5828 186.0031,418.1078 Q185.6641,418.6328 185.6641,419.3547 L185.6641,420.1203 Q185.6641,420.9844 186.2875,421.5641 Q186.9109,422.1328 188.0266,422.1328 Q188.6828,422.1328 189.1422,421.9578 Q189.4156,421.8484 189.7109,421.5422 Q189.8969,421.3562 189.9953,421.3016 Q190.1047,421.2469 190.2469,421.2469 Q190.4766,421.2469 190.6516,421.4328 Q190.8375,421.6078 190.8375,421.8484 Q190.8375,422.0891 190.5969,422.3734 Q190.2469,422.7781 189.6891,423.0078 Q188.9344,423.325 188.0266,423.325 Q186.9656,423.325 186.1234,422.8875 Q185.4344,422.5375 184.9531,421.7937 Q184.4719,421.0391 184.4719,420.1422 L184.4719,419.3328 Q184.4719,418.4031 184.8984,417.6047 Q185.3359,416.7953 186.1016,416.3687 Q186.8672,415.9312 187.7312,415.9312 Q188.2453,415.9312 188.6937,416.0516 Q189.1531,416.1609 189.5359,416.4125 Z " fill="#000000"/><text fill="#000000" font-family="sans-serif" font-size="9.8" lengthAdjust="spacing" textLength="61.6" x="197.4" y="423.3578">FleetManager</text><line style="stroke:#181818;stroke-width:0.3499999999999999;" x1="177.8" x2="260.4" y1="430.5" y2="430.5"/><line style="stroke:#181818;stroke-width:0.3499999999999999;" x1="177.8" x2="260.4" y1="436.1" y2="436.1"/></g><!--link RegisterVehicleCheckupUI to RegisterVehicleCheckupController--><g id="link_RegisterVehicleCheckupUI_RegisterVehicleCheckupController"><path codeLine="40" d="M141.4,38.514 C141.4,50.4 141.4,62.706 141.4,76.888 " fill="none" id="RegisterVehicleCheckupUI-to-RegisterVehicleCheckupController" style="stroke:#181818;stroke-width:0.6999999999999998;stroke-dasharray:7.0,7.0;"/><polygon fill="#181818" points="141.4,81.088,144.2,74.788,141.4,77.588,138.6,74.788,141.4,81.088" style="stroke:#181818;stroke-width:0.6999999999999998;"/></g><!--link RegisterVehicleCheckupController to Repositories--><g id="link_RegisterVehicleCheckupController_Repositories"><path codeLine="42" d="M141.4,140.728 C141.4,153.839 141.4,165.256 141.4,179.088 " fill="none" id="RegisterVehicleCheckupController-to-Repositories" style="stroke:#181818;stroke-width:0.6999999999999998;stroke-dasharray:7.0,7.0;"/><polygon fill="#181818" points="141.4,183.288,144.2,176.988,141.4,179.788,138.6,176.988,141.4,183.288" style="stroke:#181818;stroke-width:0.6999999999999998;"/></g><!--link RegisterVehicleCheckupController to VehicleCheckupRepository--><g id="link_RegisterVehicleCheckupController_VehicleCheckupRepository"><path codeLine="44" d="M195.874,140.728 C233.128,160.622 275.8,183.4 275.8,183.4 C275.8,183.4 275.8,256.2 275.8,256.2 C275.8,256.2 250.8934,277.1824 228.4864,296.0544 " fill="none" id="RegisterVehicleCheckupController-to-VehicleCheckupRepository" style="stroke:#181818;stroke-width:0.6999999999999998;stroke-dasharray:7.0,7.0;"/><polygon fill="#181818" points="225.274,298.76,231.8964,296.8432,227.951,296.5053,228.2889,292.56,225.274,298.76" style="stroke:#181818;stroke-width:0.6999999999999998;"/></g><!--link RegisterVehicleCheckupController to VehicleCheckup--><g id="link_RegisterVehicleCheckupController_VehicleCheckup"><path codeLine="46" d="M109.228,140.833 C87.325,160.699 62.3,183.4 62.3,183.4 C62.3,183.4 56.47,317.132 53.544,384.213 " fill="none" id="RegisterVehicleCheckupController-to-VehicleCheckup" style="stroke:#181818;stroke-width:0.6999999999999998;stroke-dasharray:7.0,7.0;"/><polygon fill="#181818" points="53.361,388.409,56.4329,382.237,53.5135,384.9123,50.8382,381.993,53.361,388.409" style="stroke:#181818;stroke-width:0.6999999999999998;"/></g><!--link Repositories to Repositories--><g id="link_Repositories_Repositories"><path codeLine="48" d="M208.061,209.384 C222.194,210.441 232.4,213.913 232.4,219.8 C232.4,225.687 226.3823,228.8458 212.2493,229.9028 " fill="none" id="Repositories-to-Repositories" style="stroke:#181818;stroke-width:0.6999999999999998;"/><polygon fill="#181818" points="208.061,230.216,214.5523,232.5383,211.5513,229.955,214.1346,226.9539,208.061,230.216" style="stroke:#181818;stroke-width:0.6999999999999998;"/><text fill="#000000" font-family="sans-serif" font-size="9.1" lengthAdjust="spacing" textLength="34.3" x="236.6" y="223.6698">instance</text></g><!--link Repositories to VehicleCheckupRepository--><g id="link_Repositories_VehicleCheckupRepository"><path codeLine="50" d="M161.553,256.445 C169.442,270.529 176.2169,282.6004 183.2099,295.0884 " fill="none" id="Repositories-to-VehicleCheckupRepository" style="stroke:#181818;stroke-width:0.6999999999999998;"/><polygon fill="#181818" points="185.262,298.753,184.6269,291.8881,183.5519,295.6992,179.7409,294.6242,185.262,298.753" style="stroke:#181818;stroke-width:0.6999999999999998;"/><text fill="#000000" font-family="sans-serif" font-size="9.1" lengthAdjust="spacing" textLength="4.9" x="177.4477" y="291.0851">1</text></g><!--link VehicleCheckupRepository to VehicleCheckup--><g id="link_VehicleCheckupRepository_VehicleCheckup"><path codeLine="52" d="M165.088,345.877 C145.53,359.394 123.8965,374.3512 102.2945,389.2892 " fill="none" id="VehicleCheckupRepository-to-VehicleCheckup" style="stroke:#181818;stroke-width:0.6999999999999998;"/><polygon fill="#181818" points="98.84,391.678,105.6143,390.3978,101.7187,389.6873,102.4292,385.7918,98.84,391.678" style="stroke:#181818;stroke-width:0.6999999999999998;"/><text fill="#000000" font-family="sans-serif" font-size="9.1" lengthAdjust="spacing" textLength="4.9" x="153.8713" y="360.9892">1</text><text fill="#000000" font-family="sans-serif" font-size="9.1" lengthAdjust="spacing" textLength="3.5" x="104.1764" y="385.3298">*</text></g><!--link VehicleCheckup to FleetManager--><g id="link_VehicleCheckup_FleetManager"><path codeLine="54" d="M98.847,424.9 C123.396,424.9 148.981,424.9 172.767,424.9 " fill="none" id="VehicleCheckup-to-FleetManager" style="stroke:#181818;stroke-width:0.6999999999999998;"/><polygon fill="#181818" points="176.967,424.9,170.667,422.1,173.467,424.9,170.667,427.7,176.967,424.9" style="stroke:#181818;stroke-width:0.6999999999999998;"/><text fill="#000000" font-family="sans-serif" font-size="9.1" lengthAdjust="spacing" textLength="52.5" x="111.65" y="420.0198">registered by</text><text fill="#000000" font-family="sans-serif" font-size="9.1" lengthAdjust="spacing" textLength="3.5" x="104.1842" y="422.1854">*</text><text fill="#000000" font-family="sans-serif" font-size="9.1" lengthAdjust="spacing" textLength="4.9" x="166.6334" y="422.1071">1</text></g><!--SRC=[ZLD1QiCm4Bph5KikJfewjDSS2YLG2AMNXFOQ57bZYyYIMQqfhkdVAoTkxJHraujXPsT6en6E_5xRGfBC8NVMgOnSZi1KekWsXLHxcUAQAuD0g5ZQrFG9FfE9UzSsXPqqlhynsY9N1KBXJDKC8lfZwOYTwAcKaTu_CfFUbenBvUnQVo3S2H4Pt36m0z9fnf3e9evsLaG73JmPH7wHDiIbMaIVGXpn5QRQCz8RPbePN6IezcNnkgp51Sh2MIPdJ6EtsOZfRzRFUZmHqnIvnLTOEA_PKHNmtX4jgj4VxE8-qZeihGy5AnnFvYU2o_QdoJjEVHxxI1dhf0Lk8P4SlgeaGilF-Q1jBM9OXvS9Z_sZxg369KpQScVLE0tr3xDazd2n-Y5zn_ZswTLrfMQej6lqTAPlL5q6YEFJK30FrHoVzvmvkX_zasPe0q4M9q5zCphBSZf3eCHqFAV_duHGr5uL4zXMNm00]--></g></svg>