<?xml version="1.0" encoding="us-ascii" standalone="no"?><svg xmlns="http://www.w3.org/2000/svg" xmlns:xlink="http://www.w3.org/1999/xlink" contentStyleType="text/css" height="699.3px" preserveAspectRatio="none" style="width:930px;height:699px;background:#FFFFFF;" version="1.1" viewBox="0 0 930 699" width="930.3px" zoomAndPan="magnify"><defs/><g><rect fill="#FFFFFF" height="563.6381" style="stroke:#181818;stroke-width:0.6999999999999998;" width="7" x="101.5" y="65.5348"/><rect fill="#FFFFFF" height="141.1949" style="stroke:#181818;stroke-width:0.6999999999999998;" width="7" x="313.6" y="81.8385"/><rect fill="#FFFFFF" height="65.7111" style="stroke:#181818;stroke-width:0.6999999999999998;" width="7" x="313.6" y="244.9371"/><rect fill="#FFFFFF" height="209.0061" style="stroke:#181818;stroke-width:0.6999999999999998;" width="7" x="313.6" y="332.552"/><rect fill="#FFFFFF" height="65.7111" style="stroke:#181818;stroke-width:0.6999999999999998;" width="7" x="313.6" y="563.4617"/><rect fill="#FFFFFF" height="66.8527" style="stroke:#181818;stroke-width:0.6999999999999998;" width="7" x="473.9" y="134.277"/><rect fill="#FFFFFF" height="21.9037" style="stroke:#181818;stroke-width:0.6999999999999998;" width="7" x="473.9" y="266.8408"/><rect fill="#FFFFFF" height="143.2949" style="stroke:#181818;stroke-width:0.6999999999999998;" width="7" x="473.9" y="354.4557"/><rect fill="#FFFFFF" height="21.9037" style="stroke:#181818;stroke-width:0.6999999999999998;" width="7" x="473.9" y="585.3654"/><rect fill="#FFFFFF" height="21.9037" style="stroke:#181818;stroke-width:0.6999999999999998;" width="7" x="664.65" y="376.3594"/><rect fill="#FFFFFF" height="55.6801" style="stroke:#181818;stroke-width:0.6999999999999998;" width="7" x="862.05" y="420.1668"/><line style="stroke:#181818;stroke-width:0.3499999999999999;stroke-dasharray:5.0,5.0;" x1="105" x2="105" y1="58.5348" y2="641.7729"/><line style="stroke:#181818;stroke-width:0.3499999999999999;stroke-dasharray:5.0,5.0;" x1="317.1" x2="317.1" y1="58.5348" y2="641.7729"/><line style="stroke:#181818;stroke-width:0.3499999999999999;stroke-dasharray:5.0,5.0;" x1="477.4" x2="477.4" y1="109.7059" y2="641.7729"/><line style="stroke:#181818;stroke-width:0.3499999999999999;stroke-dasharray:5.0,5.0;" x1="592.9" x2="592.9" y1="58.5348" y2="641.7729"/><line style="stroke:#181818;stroke-width:0.3499999999999999;stroke-dasharray:5.0,5.0;" x1="667.8" x2="667.8" y1="58.5348" y2="641.7729"/><line style="stroke:#181818;stroke-width:0.3499999999999999;stroke-dasharray:5.0,5.0;" x1="754.6" x2="754.6" y1="58.5348" y2="641.7729"/><line style="stroke:#181818;stroke-width:0.3499999999999999;stroke-dasharray:5.0,5.0;" x1="865.2" x2="865.2" y1="58.5348" y2="641.7729"/><text fill="#000000" font-family="sans-serif" font-size="9.8" lengthAdjust="spacing" textLength="198.8" x="3.5" y="56.0752">Vehicle and Equipment Fleet Manager (VFM)</text><ellipse cx="105" cy="9.45" fill="#E3E3E3" rx="5.6" ry="5.6" style="stroke:#181818;stroke-width:0.3499999999999999;"/><path d="M105,15.05 L105,33.95 M95.9,20.65 L114.1,20.65 M105,33.95 L95.9,44.45 M105,33.95 L114.1,44.45 " fill="none" style="stroke:#181818;stroke-width:0.3499999999999999;"/><text fill="#000000" font-family="sans-serif" font-size="9.8" lengthAdjust="spacing" textLength="198.8" x="3.5" y="651.648">Vehicle and Equipment Fleet Manager (VFM)</text><ellipse cx="105" cy="660.0576" fill="#E3E3E3" rx="5.6" ry="5.6" style="stroke:#181818;stroke-width:0.3499999999999999;"/><path d="M105,665.6576 L105,684.5576 M95.9,671.2576 L114.1,671.2576 M105,684.5576 L95.9,695.0576 M105,684.5576 L114.1,695.0576 " fill="none" style="stroke:#181818;stroke-width:0.3499999999999999;"/><rect fill="#E3E3E3" height="22.8348" rx="1.75" ry="1.75" style="stroke:#181818;stroke-width:0.3499999999999999;" width="114.8" x="259.7" y="35"/><text fill="#000000" font-family="sans-serif" font-size="9.8" lengthAdjust="spacing" textLength="105" x="264.6" y="50.4752">:RegisterMaintenanceUI</text><rect fill="#E3E3E3" height="22.8348" rx="1.75" ry="1.75" style="stroke:#181818;stroke-width:0.3499999999999999;" width="114.8" x="259.7" y="641.0729"/><text fill="#000000" font-family="sans-serif" font-size="9.8" lengthAdjust="spacing" textLength="105" x="264.6" y="656.548">:RegisterMaintenanceUI</text><rect fill="#E3E3E3" height="22.8348" rx="1.75" ry="1.75" style="stroke:#181818;stroke-width:0.3499999999999999;" width="149.8" x="402.5" y="641.0729"/><text fill="#000000" font-family="sans-serif" font-size="9.8" lengthAdjust="spacing" textLength="140" x="407.4" y="656.548">:RegisterMaintenanceController</text><rect fill="#E3E3E3" height="22.8348" rx="1.75" ry="1.75" style="stroke:#181818;stroke-width:0.3499999999999999;" width="67.9" x="559.3" y="35"/><text fill="#000000" font-family="sans-serif" font-size="9.8" lengthAdjust="spacing" textLength="58.1" x="564.2" y="50.4752">:Repositories</text><rect fill="#E3E3E3" height="22.8348" rx="1.75" ry="1.75" style="stroke:#181818;stroke-width:0.3499999999999999;" width="67.9" x="559.3" y="641.0729"/><text fill="#000000" font-family="sans-serif" font-size="9.8" lengthAdjust="spacing" textLength="58.1" x="564.2" y="656.548">:Repositories</text><rect fill="#E3E3E3" height="35.8695" rx="1.75" ry="1.75" style="stroke:#181818;stroke-width:0.3499999999999999;" width="67.9" x="634.2" y="21.9652"/><text fill="#000000" font-family="sans-serif" font-size="9.8" lengthAdjust="spacing" textLength="51.8" x="642.25" y="37.4404">repositories</text><text fill="#000000" font-family="sans-serif" font-size="9.8" lengthAdjust="spacing" textLength="58.1" x="639.1" y="50.4752">:Repositories</text><rect fill="#E3E3E3" height="35.8695" rx="1.75" ry="1.75" style="stroke:#181818;stroke-width:0.3499999999999999;" width="67.9" x="634.2" y="641.0729"/><text fill="#000000" font-family="sans-serif" font-size="9.8" lengthAdjust="spacing" textLength="51.8" x="642.25" y="656.548">repositories</text><text fill="#000000" font-family="sans-serif" font-size="9.8" lengthAdjust="spacing" textLength="58.1" x="639.1" y="669.5828">:Repositories</text><rect fill="#E3E3E3" height="35.8695" rx="1.75" ry="1.75" style="stroke:#181818;stroke-width:0.3499999999999999;" width="91" x="709.1" y="21.9652"/><text fill="#000000" font-family="sans-serif" font-size="9.8" lengthAdjust="spacing" textLength="81.2" x="714" y="37.4404">vehicleRepository:</text><text fill="#000000" font-family="sans-serif" font-size="9.8" lengthAdjust="spacing" textLength="79.8" x="714.7" y="50.4752">VehicleRepository</text><rect fill="#E3E3E3" height="35.8695" rx="1.75" ry="1.75" style="stroke:#181818;stroke-width:0.3499999999999999;" width="91" x="709.1" y="641.0729"/><text fill="#000000" font-family="sans-serif" font-size="9.8" lengthAdjust="spacing" textLength="81.2" x="714" y="656.548">vehicleRepository:</text><text fill="#000000" font-family="sans-serif" font-size="9.8" lengthAdjust="spacing" textLength="79.8" x="714.7" y="669.5828">VehicleRepository</text><rect fill="#E3E3E3" height="35.8695" rx="1.75" ry="1.75" style="stroke:#181818;stroke-width:0.3499999999999999;" width="116.9" x="807.1" y="21.9652"/><text fill="#000000" font-family="sans-serif" font-size="9.8" lengthAdjust="spacing" textLength="107.1" x="812" y="37.4404">maintenanceRepository:</text><text fill="#000000" font-family="sans-serif" font-size="9.8" lengthAdjust="spacing" textLength="104.3" x="813.4" y="50.4752">MaintenanceRepository</text><rect fill="#E3E3E3" height="35.8695" rx="1.75" ry="1.75" style="stroke:#181818;stroke-width:0.3499999999999999;" width="116.9" x="807.1" y="641.0729"/><text fill="#000000" font-family="sans-serif" font-size="9.8" lengthAdjust="spacing" textLength="107.1" x="812" y="656.548">maintenanceRepository:</text><text fill="#000000" font-family="sans-serif" font-size="9.8" lengthAdjust="spacing" textLength="104.3" x="813.4" y="669.5828">MaintenanceRepository</text><rect fill="#FFFFFF" height="563.6381" style="stroke:#181818;stroke-width:0.6999999999999998;" width="7" x="101.5" y="65.5348"/><rect fill="#FFFFFF" height="141.1949" style="stroke:#181818;stroke-width:0.6999999999999998;" width="7" x="313.6" y="81.8385"/><rect fill="#FFFFFF" height="65.7111" style="stroke:#181818;stroke-width:0.6999999999999998;" width="7" x="313.6" y="244.9371"/><rect fill="#FFFFFF" height="209.0061" style="stroke:#181818;stroke-width:0.6999999999999998;" width="7" x="313.6" y="332.552"/><rect fill="#FFFFFF" height="65.7111" style="stroke:#181818;stroke-width:0.6999999999999998;" width="7" x="313.6" y="563.4617"/><rect fill="#FFFFFF" height="66.8527" style="stroke:#181818;stroke-width:0.6999999999999998;" width="7" x="473.9" y="134.277"/><rect fill="#FFFFFF" height="21.9037" style="stroke:#181818;stroke-width:0.6999999999999998;" width="7" x="473.9" y="266.8408"/><rect fill="#FFFFFF" height="143.2949" style="stroke:#181818;stroke-width:0.6999999999999998;" width="7" x="473.9" y="354.4557"/><rect fill="#FFFFFF" height="21.9037" style="stroke:#181818;stroke-width:0.6999999999999998;" width="7" x="473.9" y="585.3654"/><rect fill="#FFFFFF" height="21.9037" style="stroke:#181818;stroke-width:0.6999999999999998;" width="7" x="664.65" y="376.3594"/><rect fill="#FFFFFF" height="55.6801" style="stroke:#181818;stroke-width:0.6999999999999998;" width="7" x="862.05" y="420.1668"/><polygon fill="#181818" points="305.2,79.0385,312.2,81.8385,305.2,84.6385,308,81.8385" style="stroke:#181818;stroke-width:0.6999999999999998;"/><line style="stroke:#181818;stroke-width:0.6999999999999998;" x1="108.5" x2="309.4" y1="81.8385" y2="81.8385"/><text fill="#000000" font-family="sans-serif" font-size="9.1" font-weight="bold" lengthAdjust="spacing" textLength="4.9" x="113.4" y="78.1546">1</text><text fill="#000000" font-family="sans-serif" font-size="9.1" lengthAdjust="spacing" textLength="184.1" x="121.1" y="78.1546">requests to list vehicles needing maintenance</text><polygon fill="#181818" points="394.1,100.9422,401.1,103.7422,394.1,106.5422,396.9,103.7422" style="stroke:#181818;stroke-width:0.6999999999999998;"/><line style="stroke:#181818;stroke-width:0.6999999999999998;" x1="320.6" x2="398.3" y1="103.7422" y2="103.7422"/><text fill="#000000" font-family="sans-serif" font-size="9.1" font-weight="bold" lengthAdjust="spacing" textLength="4.9" x="325.5" y="100.0583">2</text><text fill="#000000" font-family="sans-serif" font-size="9.1" lengthAdjust="spacing" textLength="25.2" x="333.2" y="100.0583">create</text><rect fill="#E3E3E3" height="22.8348" rx="1.75" ry="1.75" style="stroke:#181818;stroke-width:0.3499999999999999;" width="149.8" x="402.5" y="87.4385"/><text fill="#000000" font-family="sans-serif" font-size="9.8" lengthAdjust="spacing" textLength="140" x="407.4" y="102.9137">:RegisterMaintenanceController</text><polygon fill="#181818" points="465.5,131.477,472.5,134.277,465.5,137.077,468.3,134.277" style="stroke:#181818;stroke-width:0.6999999999999998;"/><line style="stroke:#181818;stroke-width:0.6999999999999998;" x1="320.6" x2="469.7" y1="134.277" y2="134.277"/><text fill="#000000" font-family="sans-serif" font-size="9.1" font-weight="bold" lengthAdjust="spacing" textLength="4.9" x="325.5" y="130.5931">3</text><text fill="#000000" font-family="sans-serif" font-size="9.1" lengthAdjust="spacing" textLength="67.9" x="333.2" y="130.5931">getVehiclesList()</text><rect fill="none" height="41.449" style="stroke:#000000;stroke-width:1.0499999999999998;" width="154" x="400.4" y="139.877"/><path d="M400.4,139.877 L443.8,139.877 L443.8,146.177 L436.8,153.177 L400.4,153.177 L400.4,139.877 " fill="#EEEEEE" style="stroke:#000000;stroke-width:1.3999999999999997;"/><text fill="#000000" font-family="sans-serif" font-size="9.1" font-weight="bold" lengthAdjust="spacing" textLength="11.9" x="409.5" y="151.0968">ref</text><text fill="#000000" font-family="sans-serif" font-size="8.4" lengthAdjust="spacing" textLength="59.5" x="447.65" y="165.0414">Get Vehicle List</text><text fill="#000000" font-family="sans-serif" font-size="8.4" lengthAdjust="spacing" textLength="2.1" x="476.35" y="176.2141">&#160;</text><polygon fill="#181818" points="328.3,198.3297,321.3,201.1297,328.3,203.9297,325.5,201.1297" style="stroke:#181818;stroke-width:0.6999999999999998;"/><line style="stroke:#181818;stroke-width:0.6999999999999998;stroke-dasharray:2.0,2.0;" x1="324.1" x2="476.7" y1="201.1297" y2="201.1297"/><text fill="#000000" font-family="sans-serif" font-size="9.1" font-weight="bold" lengthAdjust="spacing" textLength="4.9" x="332.5" y="197.4458">4</text><text fill="#000000" font-family="sans-serif" font-size="9.1" lengthAdjust="spacing" textLength="42" x="340.2" y="197.4458">vehicleList</text><polygon fill="#181818" points="116.2,220.2334,109.2,223.0334,116.2,225.8334,113.4,223.0334" style="stroke:#181818;stroke-width:0.6999999999999998;"/><line style="stroke:#181818;stroke-width:0.6999999999999998;stroke-dasharray:2.0,2.0;" x1="112" x2="316.4" y1="223.0334" y2="223.0334"/><text fill="#000000" font-family="sans-serif" font-size="9.1" font-weight="bold" lengthAdjust="spacing" textLength="4.9" x="120.4" y="219.3495">5</text><text fill="#000000" font-family="sans-serif" font-size="9.1" lengthAdjust="spacing" textLength="81.2" x="128.1" y="219.3495">displays vehicle List</text><polygon fill="#181818" points="305.2,242.1371,312.2,244.9371,305.2,247.7371,308,244.9371" style="stroke:#181818;stroke-width:0.6999999999999998;"/><line style="stroke:#181818;stroke-width:0.6999999999999998;" x1="108.5" x2="309.4" y1="244.9371" y2="244.9371"/><text fill="#000000" font-family="sans-serif" font-size="9.1" font-weight="bold" lengthAdjust="spacing" textLength="4.9" x="113.4" y="241.2532">6</text><text fill="#000000" font-family="sans-serif" font-size="9.1" lengthAdjust="spacing" textLength="65.8" x="121.1" y="241.2532">Chooses vehicle</text><polygon fill="#181818" points="465.5,264.0408,472.5,266.8408,465.5,269.6408,468.3,266.8408" style="stroke:#181818;stroke-width:0.6999999999999998;"/><line style="stroke:#181818;stroke-width:0.6999999999999998;" x1="320.6" x2="469.7" y1="266.8408" y2="266.8408"/><text fill="#000000" font-family="sans-serif" font-size="9.1" font-weight="bold" lengthAdjust="spacing" textLength="4.9" x="325.5" y="263.1569">7</text><text fill="#000000" font-family="sans-serif" font-size="9.1" lengthAdjust="spacing" textLength="27.3" x="333.2" y="263.1569">vehicle</text><polygon fill="#181818" points="328.3,285.9445,321.3,288.7445,328.3,291.5445,325.5,288.7445" style="stroke:#181818;stroke-width:0.6999999999999998;"/><line style="stroke:#181818;stroke-width:0.6999999999999998;stroke-dasharray:2.0,2.0;" x1="324.1" x2="476.7" y1="288.7445" y2="288.7445"/><text fill="#000000" font-family="sans-serif" font-size="9.1" font-weight="bold" lengthAdjust="spacing" textLength="4.9" x="332.5" y="285.0606">8</text><text fill="#000000" font-family="sans-serif" font-size="9.1" lengthAdjust="spacing" textLength="128.8" x="340.2" y="285.0606">requests data(date, current Km)</text><polygon fill="#181818" points="116.2,307.8482,109.2,310.6482,116.2,313.4482,113.4,310.6482" style="stroke:#181818;stroke-width:0.6999999999999998;"/><line style="stroke:#181818;stroke-width:0.6999999999999998;stroke-dasharray:2.0,2.0;" x1="112" x2="316.4" y1="310.6482" y2="310.6482"/><text fill="#000000" font-family="sans-serif" font-size="9.1" font-weight="bold" lengthAdjust="spacing" textLength="4.9" x="120.4" y="306.9644">9</text><text fill="#000000" font-family="sans-serif" font-size="9.1" lengthAdjust="spacing" textLength="131.6" x="128.1" y="306.9644">requests data (date, current Km)</text><polygon fill="#181818" points="305.2,329.752,312.2,332.552,305.2,335.352,308,332.552" style="stroke:#181818;stroke-width:0.6999999999999998;"/><line style="stroke:#181818;stroke-width:0.6999999999999998;" x1="108.5" x2="309.4" y1="332.552" y2="332.552"/><text fill="#000000" font-family="sans-serif" font-size="9.1" font-weight="bold" lengthAdjust="spacing" textLength="9.8" x="113.4" y="328.8681">10</text><text fill="#000000" font-family="sans-serif" font-size="9.1" lengthAdjust="spacing" textLength="121.1" x="126" y="328.8681">Types data (date, current Km)</text><polygon fill="#181818" points="465.5,351.6557,472.5,354.4557,465.5,357.2557,468.3,354.4557" style="stroke:#181818;stroke-width:0.6999999999999998;"/><line style="stroke:#181818;stroke-width:0.6999999999999998;" x1="320.6" x2="469.7" y1="354.4557" y2="354.4557"/><text fill="#000000" font-family="sans-serif" font-size="9.1" font-weight="bold" lengthAdjust="spacing" textLength="9.8" x="325.5" y="350.7718">11</text><text fill="#000000" font-family="sans-serif" font-size="9.1" lengthAdjust="spacing" textLength="93.8" x="338.1" y="350.7718">data (date, current Km)</text><polygon fill="#181818" points="656.25,373.5594,663.25,376.3594,656.25,379.1594,659.05,376.3594" style="stroke:#181818;stroke-width:0.6999999999999998;"/><line style="stroke:#181818;stroke-width:0.6999999999999998;" x1="480.9" x2="660.45" y1="376.3594" y2="376.3594"/><text fill="#000000" font-family="sans-serif" font-size="9.1" font-weight="bold" lengthAdjust="spacing" textLength="9.8" x="485.8" y="372.6755">12</text><text fill="#000000" font-family="sans-serif" font-size="9.1" lengthAdjust="spacing" textLength="113.4" x="498.4" y="372.6755">getMaintenanceRepository()</text><polygon fill="#181818" points="488.6,395.4631,481.6,398.2631,488.6,401.0631,485.8,398.2631" style="stroke:#181818;stroke-width:0.6999999999999998;"/><line style="stroke:#181818;stroke-width:0.6999999999999998;stroke-dasharray:2.0,2.0;" x1="484.4" x2="667.45" y1="398.2631" y2="398.2631"/><text fill="#000000" font-family="sans-serif" font-size="9.1" font-weight="bold" lengthAdjust="spacing" textLength="9.8" x="492.8" y="394.5792">13</text><text fill="#000000" font-family="sans-serif" font-size="9.1" lengthAdjust="spacing" textLength="95.2" x="505.4" y="394.5792">MaintenanceRepository</text><polygon fill="#181818" points="853.65,417.3668,860.65,420.1668,853.65,422.9668,856.45,420.1668" style="stroke:#181818;stroke-width:0.6999999999999998;"/><line style="stroke:#181818;stroke-width:0.6999999999999998;" x1="480.9" x2="857.85" y1="420.1668" y2="420.1668"/><text fill="#000000" font-family="sans-serif" font-size="9.1" font-weight="bold" lengthAdjust="spacing" textLength="9.8" x="485.8" y="416.4829">14</text><text fill="#000000" font-family="sans-serif" font-size="9.1" lengthAdjust="spacing" textLength="84.7" x="498.4" y="416.4829">register maintenance</text><rect fill="none" height="30.2764" style="stroke:#000000;stroke-width:1.0499999999999998;" width="121.1" x="805" y="425.7668"/><path d="M805,425.7668 L848.4,425.7668 L848.4,432.0668 L841.4,439.0668 L805,439.0668 L805,425.7668 " fill="#EEEEEE" style="stroke:#000000;stroke-width:1.3999999999999997;"/><text fill="#000000" font-family="sans-serif" font-size="9.1" font-weight="bold" lengthAdjust="spacing" textLength="11.9" x="814.1" y="436.9866">ref</text><text fill="#000000" font-family="sans-serif" font-size="8.4" lengthAdjust="spacing" textLength="77" x="827.05" y="450.9312">Create Maintenance</text><polygon fill="#181818" points="488.6,473.0469,481.6,475.8469,488.6,478.6469,485.8,475.8469" style="stroke:#181818;stroke-width:0.6999999999999998;"/><line style="stroke:#181818;stroke-width:0.6999999999999998;stroke-dasharray:2.0,2.0;" x1="484.4" x2="864.85" y1="475.8469" y2="475.8469"/><text fill="#000000" font-family="sans-serif" font-size="9.1" font-weight="bold" lengthAdjust="spacing" textLength="9.8" x="492.8" y="472.163">15</text><text fill="#000000" font-family="sans-serif" font-size="9.1" lengthAdjust="spacing" textLength="51.8" x="505.4" y="472.163">maintenance</text><polygon fill="#181818" points="328.3,494.9506,321.3,497.7506,328.3,500.5506,325.5,497.7506" style="stroke:#181818;stroke-width:0.6999999999999998;"/><line style="stroke:#181818;stroke-width:0.6999999999999998;stroke-dasharray:2.0,2.0;" x1="324.1" x2="476.7" y1="497.7506" y2="497.7506"/><text fill="#000000" font-family="sans-serif" font-size="9.1" font-weight="bold" lengthAdjust="spacing" textLength="9.8" x="332.5" y="494.0667">16</text><text fill="#000000" font-family="sans-serif" font-size="9.1" lengthAdjust="spacing" textLength="51.8" x="345.1" y="494.0667">maintenance</text><polygon fill="#181818" points="116.2,516.8543,109.2,519.6543,116.2,522.4543,113.4,519.6543" style="stroke:#181818;stroke-width:0.6999999999999998;"/><line style="stroke:#181818;stroke-width:0.6999999999999998;stroke-dasharray:2.0,2.0;" x1="112" x2="312.9" y1="519.6543" y2="519.6543"/><text fill="#000000" font-family="sans-serif" font-size="9.1" font-weight="bold" lengthAdjust="spacing" textLength="9.8" x="120.4" y="515.9704">17</text><text fill="#000000" font-family="sans-serif" font-size="9.1" lengthAdjust="spacing" textLength="109.9" x="133" y="515.9704">Displays maintenance data</text><polygon fill="#181818" points="116.2,538.758,109.2,541.558,116.2,544.358,113.4,541.558" style="stroke:#181818;stroke-width:0.6999999999999998;"/><line style="stroke:#181818;stroke-width:0.6999999999999998;stroke-dasharray:2.0,2.0;" x1="112" x2="316.4" y1="541.558" y2="541.558"/><text fill="#000000" font-family="sans-serif" font-size="9.1" font-weight="bold" lengthAdjust="spacing" textLength="9.8" x="120.4" y="537.8741">18</text><text fill="#000000" font-family="sans-serif" font-size="9.1" lengthAdjust="spacing" textLength="86.8" x="133" y="537.8741">requests confirmation</text><polygon fill="#181818" points="305.2,560.6617,312.2,563.4617,305.2,566.2617,308,563.4617" style="stroke:#181818;stroke-width:0.6999999999999998;"/><line style="stroke:#181818;stroke-width:0.6999999999999998;" x1="108.5" x2="309.4" y1="563.4617" y2="563.4617"/><text fill="#000000" font-family="sans-serif" font-size="9.1" font-weight="bold" lengthAdjust="spacing" textLength="9.8" x="113.4" y="559.7778">19</text><text fill="#000000" font-family="sans-serif" font-size="9.1" lengthAdjust="spacing" textLength="54.6" x="126" y="559.7778">confirms data</text><polygon fill="#181818" points="465.5,582.5654,472.5,585.3654,465.5,588.1654,468.3,585.3654" style="stroke:#181818;stroke-width:0.6999999999999998;"/><line style="stroke:#181818;stroke-width:0.6999999999999998;" x1="320.6" x2="469.7" y1="585.3654" y2="585.3654"/><text fill="#000000" font-family="sans-serif" font-size="9.1" font-weight="bold" lengthAdjust="spacing" textLength="9.8" x="325.5" y="581.6815">20</text><text fill="#000000" font-family="sans-serif" font-size="9.1" lengthAdjust="spacing" textLength="49" x="338.1" y="581.6815">confirmation</text><polygon fill="#181818" points="328.3,604.4691,321.3,607.2691,328.3,610.0691,325.5,607.2691" style="stroke:#181818;stroke-width:0.6999999999999998;"/><line style="stroke:#181818;stroke-width:0.6999999999999998;stroke-dasharray:2.0,2.0;" x1="324.1" x2="476.7" y1="607.2691" y2="607.2691"/><text fill="#000000" font-family="sans-serif" font-size="9.1" font-weight="bold" lengthAdjust="spacing" textLength="9.8" x="332.5" y="603.5853">21</text><text fill="#000000" font-family="sans-serif" font-size="9.1" lengthAdjust="spacing" textLength="74.2" x="345.1" y="603.5853">operation success</text><polygon fill="#181818" points="112.7,626.3729,105.7,629.1729,112.7,631.9729,109.9,629.1729" style="stroke:#181818;stroke-width:0.6999999999999998;"/><line style="stroke:#181818;stroke-width:0.6999999999999998;" x1="108.5" x2="316.4" y1="629.1729" y2="629.1729"/><text fill="#000000" font-family="sans-serif" font-size="9.1" font-weight="bold" lengthAdjust="spacing" textLength="9.8" x="116.9" y="625.489">22</text><text fill="#000000" font-family="sans-serif" font-size="9.1" lengthAdjust="spacing" textLength="110.6" x="129.5" y="625.489">displays operation success</text><!--SRC=[dPNDRk8m4CVlUOeHbqArl027IYjsMrKBKjLIJhsupf1OJUpKTjZbxNTYY8dpLQWF28rdVfxvspCn7q8MJBCSSYKLJxNA4QmkCJ9-fs3yWoNuOWyPWaPkcKoofeD9MQp-2fd0ZcK6euYLLiaoVqSTHJUfY15sIjbtzIzYt2eDaoscWXEDoHX-VvQYo55QkCyGBQoPfDCqJBVtwza4c07w4z59Ld1HCFARB9un4SQYNZCXBKecERu-Ej_NnwzTbqfQhR8CjGjPRfvNdQ126K6f2ZJEnniEBwAgdkeBGtGZuars0K-hdvimOd_Ku4nUlCbjstQilsqDGVcviW2sxhCxOEzE55Mt8_RCebCy0bhq1-Ptf2eiwEe_IpJMW5MGaQPmgi20H8ohwszaug8zZsx56Qf5B29Mej_U4fLh98- -RTfCq9wADoiwSJhpRXxjRi-RtTAu0xMd9-JseBKUw8tLxw-2jeAHdYG1GgjBPruBSQhR1JUzOXp9gggB09MW2uY5AJ9sC3KAnbXDyTftiaoLCkWvWTyW891uDB9RHgY4Vn8nisnAF_W3UAbrrSr_yjatrGceS35sMANDeS3BQ9TfTXLfICCxDnEEZxot8QS3G3TAWYq7cf_pw-_lIrIhK-ibkAivJjDEgtUo79WnxMxqlVfrpZv7Dp6Q0HqtQkAshR-YXcZvCA-XLZkNe1s-XGYU_gzwC3HGxhcDHlc6uKhkXCwP5VHzkZY3PgkS2ARtqC7kQ3V8M1vZaxijg2fGEmYOadCqvZfPE-Fs6jxmbliy_WS0]--></g></svg>