<?xml version="1.0" encoding="us-ascii" standalone="no"?><svg xmlns="http://www.w3.org/2000/svg" xmlns:xlink="http://www.w3.org/1999/xlink" contentStyleType="text/css" height="613.9px" preserveAspectRatio="none" style="width:600px;height:613px;background:#FFFFFF;" version="1.1" viewBox="0 0 600 613" width="600.6px" zoomAndPan="magnify"><defs/><g><rect fill="#FFFFFF" height="478.1232" style="stroke:#181818;stroke-width:0.6999999999999998;" width="7" x="101.5" y="65.5348"/><rect fill="#FFFFFF" height="99.4875" style="stroke:#181818;stroke-width:0.6999999999999998;" width="7" x="267.4" y="81.8385"/><rect fill="#FFFFFF" height="65.7111" style="stroke:#181818;stroke-width:0.6999999999999998;" width="7" x="267.4" y="203.2297"/><rect fill="#FFFFFF" height="165.1986" style="stroke:#181818;stroke-width:0.6999999999999998;" width="7" x="267.4" y="290.8445"/><rect fill="#FFFFFF" height="65.7111" style="stroke:#181818;stroke-width:0.6999999999999998;" width="7" x="267.4" y="477.9469"/><rect fill="#FFFFFF" height="55.6801" style="stroke:#181818;stroke-width:0.6999999999999998;" width="7" x="427.7" y="103.7422"/><rect fill="#FFFFFF" height="21.9037" style="stroke:#181818;stroke-width:0.6999999999999998;" width="7" x="427.7" y="225.1334"/><rect fill="#FFFFFF" height="99.4875" style="stroke:#181818;stroke-width:0.6999999999999998;" width="7" x="427.7" y="312.7482"/><rect fill="#FFFFFF" height="21.9037" style="stroke:#181818;stroke-width:0.6999999999999998;" width="7" x="427.7" y="499.8506"/><rect fill="#FFFFFF" height="55.6801" style="stroke:#181818;stroke-width:0.6999999999999998;" width="7" x="545.3" y="334.652"/><line style="stroke:#181818;stroke-width:0.3499999999999999;stroke-dasharray:5.0,5.0;" x1="105" x2="105" y1="58.5348" y2="556.258"/><line style="stroke:#181818;stroke-width:0.3499999999999999;stroke-dasharray:5.0,5.0;" x1="270.9" x2="270.9" y1="58.5348" y2="556.258"/><line style="stroke:#181818;stroke-width:0.3499999999999999;stroke-dasharray:5.0,5.0;" x1="431.2" x2="431.2" y1="58.5348" y2="556.258"/><line style="stroke:#181818;stroke-width:0.3499999999999999;stroke-dasharray:5.0,5.0;" x1="548.8" x2="548.8" y1="58.5348" y2="556.258"/><text fill="#000000" font-family="sans-serif" font-size="9.8" lengthAdjust="spacing" textLength="198.8" x="3.5" y="56.0752">Vehicle and Equipment Fleet Manager (VFM)</text><ellipse cx="105" cy="9.45" fill="#E3E3E3" rx="5.6" ry="5.6" style="stroke:#181818;stroke-width:0.3499999999999999;"/><path d="M105,15.05 L105,33.95 M95.9,20.65 L114.1,20.65 M105,33.95 L95.9,44.45 M105,33.95 L114.1,44.45 " fill="none" style="stroke:#181818;stroke-width:0.3499999999999999;"/><text fill="#000000" font-family="sans-serif" font-size="9.8" lengthAdjust="spacing" textLength="198.8" x="3.5" y="566.1332">Vehicle and Equipment Fleet Manager (VFM)</text><ellipse cx="105" cy="574.5428" fill="#E3E3E3" rx="5.6" ry="5.6" style="stroke:#181818;stroke-width:0.3499999999999999;"/><path d="M105,580.1428 L105,599.0428 M95.9,585.7428 L114.1,585.7428 M105,599.0428 L95.9,609.5428 M105,599.0428 L114.1,609.5428 " fill="none" style="stroke:#181818;stroke-width:0.3499999999999999;"/><rect fill="#E3E3E3" height="22.8348" rx="1.75" ry="1.75" style="stroke:#181818;stroke-width:0.3499999999999999;" width="114.8" x="213.5" y="35"/><text fill="#000000" font-family="sans-serif" font-size="9.8" lengthAdjust="spacing" textLength="105" x="218.4" y="50.4752">:RegisterMaintenanceUI</text><rect fill="#E3E3E3" height="22.8348" rx="1.75" ry="1.75" style="stroke:#181818;stroke-width:0.3499999999999999;" width="114.8" x="213.5" y="555.558"/><text fill="#000000" font-family="sans-serif" font-size="9.8" lengthAdjust="spacing" textLength="105" x="218.4" y="571.0332">:RegisterMaintenanceUI</text><rect fill="#E3E3E3" height="22.8348" rx="1.75" ry="1.75" style="stroke:#181818;stroke-width:0.3499999999999999;" width="88.2" x="387.1" y="35"/><text fill="#000000" font-family="sans-serif" font-size="9.8" lengthAdjust="spacing" textLength="78.4" x="392" y="50.4752">:VehicleController</text><rect fill="#E3E3E3" height="22.8348" rx="1.75" ry="1.75" style="stroke:#181818;stroke-width:0.3499999999999999;" width="88.2" x="387.1" y="555.558"/><text fill="#000000" font-family="sans-serif" font-size="9.8" lengthAdjust="spacing" textLength="78.4" x="392" y="571.0332">:VehicleController</text><rect fill="#E3E3E3" height="35.8695" rx="1.75" ry="1.75" style="stroke:#181818;stroke-width:0.3499999999999999;" width="91" x="503.3" y="21.9652"/><text fill="#000000" font-family="sans-serif" font-size="9.8" lengthAdjust="spacing" textLength="81.2" x="508.2" y="37.4404">vehicleRepository:</text><text fill="#000000" font-family="sans-serif" font-size="9.8" lengthAdjust="spacing" textLength="79.8" x="508.9" y="50.4752">VehicleRepository</text><rect fill="#E3E3E3" height="35.8695" rx="1.75" ry="1.75" style="stroke:#181818;stroke-width:0.3499999999999999;" width="91" x="503.3" y="555.558"/><text fill="#000000" font-family="sans-serif" font-size="9.8" lengthAdjust="spacing" textLength="81.2" x="508.2" y="571.0332">vehicleRepository:</text><text fill="#000000" font-family="sans-serif" font-size="9.8" lengthAdjust="spacing" textLength="79.8" x="508.9" y="584.068">VehicleRepository</text><rect fill="#FFFFFF" height="478.1232" style="stroke:#181818;stroke-width:0.6999999999999998;" width="7" x="101.5" y="65.5348"/><rect fill="#FFFFFF" height="99.4875" style="stroke:#181818;stroke-width:0.6999999999999998;" width="7" x="267.4" y="81.8385"/><rect fill="#FFFFFF" height="65.7111" style="stroke:#181818;stroke-width:0.6999999999999998;" width="7" x="267.4" y="203.2297"/><rect fill="#FFFFFF" height="165.1986" style="stroke:#181818;stroke-width:0.6999999999999998;" width="7" x="267.4" y="290.8445"/><rect fill="#FFFFFF" height="65.7111" style="stroke:#181818;stroke-width:0.6999999999999998;" width="7" x="267.4" y="477.9469"/><rect fill="#FFFFFF" height="55.6801" style="stroke:#181818;stroke-width:0.6999999999999998;" width="7" x="427.7" y="103.7422"/><rect fill="#FFFFFF" height="21.9037" style="stroke:#181818;stroke-width:0.6999999999999998;" width="7" x="427.7" y="225.1334"/><rect fill="#FFFFFF" height="99.4875" style="stroke:#181818;stroke-width:0.6999999999999998;" width="7" x="427.7" y="312.7482"/><rect fill="#FFFFFF" height="21.9037" style="stroke:#181818;stroke-width:0.6999999999999998;" width="7" x="427.7" y="499.8506"/><rect fill="#FFFFFF" height="55.6801" style="stroke:#181818;stroke-width:0.6999999999999998;" width="7" x="545.3" y="334.652"/><polygon fill="#181818" points="259,79.0385,266,81.8385,259,84.6385,261.8,81.8385" style="stroke:#181818;stroke-width:0.6999999999999998;"/><line style="stroke:#181818;stroke-width:0.6999999999999998;" x1="108.5" x2="263.2" y1="81.8385" y2="81.8385"/><text fill="#000000" font-family="sans-serif" font-size="9.1" font-weight="bold" lengthAdjust="spacing" textLength="4.9" x="113.4" y="78.1546">1</text><text fill="#000000" font-family="sans-serif" font-size="9.1" lengthAdjust="spacing" textLength="95.2" x="121.1" y="78.1546">requests to list vehicles</text><polygon fill="#181818" points="419.3,100.9422,426.3,103.7422,419.3,106.5422,422.1,103.7422" style="stroke:#181818;stroke-width:0.6999999999999998;"/><line style="stroke:#181818;stroke-width:0.6999999999999998;" x1="274.4" x2="423.5" y1="103.7422" y2="103.7422"/><text fill="#000000" font-family="sans-serif" font-size="9.1" font-weight="bold" lengthAdjust="spacing" textLength="4.9" x="279.3" y="100.0583">2</text><text fill="#000000" font-family="sans-serif" font-size="9.1" lengthAdjust="spacing" textLength="67.9" x="287" y="100.0583">getVehiclesList()</text><rect fill="none" height="30.2764" style="stroke:#000000;stroke-width:1.0499999999999998;" width="92.4" x="385" y="109.3422"/><path d="M385,109.3422 L428.4,109.3422 L428.4,115.6422 L421.4,122.6422 L385,122.6422 L385,109.3422 " fill="#EEEEEE" style="stroke:#000000;stroke-width:1.3999999999999997;"/><text fill="#000000" font-family="sans-serif" font-size="9.1" font-weight="bold" lengthAdjust="spacing" textLength="11.9" x="394.1" y="120.562">ref</text><text fill="#000000" font-family="sans-serif" font-size="8.4" lengthAdjust="spacing" textLength="59.5" x="401.45" y="134.5066">Get Vehicle List</text><polygon fill="#181818" points="282.1,156.6223,275.1,159.4223,282.1,162.2223,279.3,159.4223" style="stroke:#181818;stroke-width:0.6999999999999998;"/><line style="stroke:#181818;stroke-width:0.6999999999999998;stroke-dasharray:2.0,2.0;" x1="277.9" x2="430.5" y1="159.4223" y2="159.4223"/><text fill="#000000" font-family="sans-serif" font-size="9.1" font-weight="bold" lengthAdjust="spacing" textLength="4.9" x="286.3" y="155.7384">3</text><text fill="#000000" font-family="sans-serif" font-size="9.1" lengthAdjust="spacing" textLength="42" x="294" y="155.7384">vehicleList</text><polygon fill="#181818" points="116.2,178.526,109.2,181.326,116.2,184.126,113.4,181.326" style="stroke:#181818;stroke-width:0.6999999999999998;"/><line style="stroke:#181818;stroke-width:0.6999999999999998;stroke-dasharray:2.0,2.0;" x1="112" x2="270.2" y1="181.326" y2="181.326"/><text fill="#000000" font-family="sans-serif" font-size="9.1" font-weight="bold" lengthAdjust="spacing" textLength="4.9" x="120.4" y="177.6421">4</text><text fill="#000000" font-family="sans-serif" font-size="9.1" lengthAdjust="spacing" textLength="81.2" x="128.1" y="177.6421">displays vehicle List</text><polygon fill="#181818" points="259,200.4297,266,203.2297,259,206.0297,261.8,203.2297" style="stroke:#181818;stroke-width:0.6999999999999998;"/><line style="stroke:#181818;stroke-width:0.6999999999999998;" x1="108.5" x2="263.2" y1="203.2297" y2="203.2297"/><text fill="#000000" font-family="sans-serif" font-size="9.1" font-weight="bold" lengthAdjust="spacing" textLength="4.9" x="113.4" y="199.5458">5</text><text fill="#000000" font-family="sans-serif" font-size="9.1" lengthAdjust="spacing" textLength="65.8" x="121.1" y="199.5458">Chooses vehicle</text><polygon fill="#181818" points="419.3,222.3334,426.3,225.1334,419.3,227.9334,422.1,225.1334" style="stroke:#181818;stroke-width:0.6999999999999998;"/><line style="stroke:#181818;stroke-width:0.6999999999999998;" x1="274.4" x2="423.5" y1="225.1334" y2="225.1334"/><text fill="#000000" font-family="sans-serif" font-size="9.1" font-weight="bold" lengthAdjust="spacing" textLength="4.9" x="279.3" y="221.4495">6</text><text fill="#000000" font-family="sans-serif" font-size="9.1" lengthAdjust="spacing" textLength="27.3" x="287" y="221.4495">vehicle</text><polygon fill="#181818" points="282.1,244.2371,275.1,247.0371,282.1,249.8371,279.3,247.0371" style="stroke:#181818;stroke-width:0.6999999999999998;"/><line style="stroke:#181818;stroke-width:0.6999999999999998;stroke-dasharray:2.0,2.0;" x1="277.9" x2="430.5" y1="247.0371" y2="247.0371"/><text fill="#000000" font-family="sans-serif" font-size="9.1" font-weight="bold" lengthAdjust="spacing" textLength="4.9" x="286.3" y="243.3532">7</text><text fill="#000000" font-family="sans-serif" font-size="9.1" lengthAdjust="spacing" textLength="128.8" x="294" y="243.3532">requests data(date, current Km)</text><polygon fill="#181818" points="116.2,266.1408,109.2,268.9408,116.2,271.7408,113.4,268.9408" style="stroke:#181818;stroke-width:0.6999999999999998;"/><line style="stroke:#181818;stroke-width:0.6999999999999998;stroke-dasharray:2.0,2.0;" x1="112" x2="270.2" y1="268.9408" y2="268.9408"/><text fill="#000000" font-family="sans-serif" font-size="9.1" font-weight="bold" lengthAdjust="spacing" textLength="4.9" x="120.4" y="265.2569">8</text><text fill="#000000" font-family="sans-serif" font-size="9.1" lengthAdjust="spacing" textLength="131.6" x="128.1" y="265.2569">requests data (date, current Km)</text><polygon fill="#181818" points="259,288.0445,266,290.8445,259,293.6445,261.8,290.8445" style="stroke:#181818;stroke-width:0.6999999999999998;"/><line style="stroke:#181818;stroke-width:0.6999999999999998;" x1="108.5" x2="263.2" y1="290.8445" y2="290.8445"/><text fill="#000000" font-family="sans-serif" font-size="9.1" font-weight="bold" lengthAdjust="spacing" textLength="4.9" x="113.4" y="287.1606">9</text><text fill="#000000" font-family="sans-serif" font-size="9.1" lengthAdjust="spacing" textLength="121.1" x="121.1" y="287.1606">Types data (date, current Km)</text><polygon fill="#181818" points="419.3,309.9482,426.3,312.7482,419.3,315.5482,422.1,312.7482" style="stroke:#181818;stroke-width:0.6999999999999998;"/><line style="stroke:#181818;stroke-width:0.6999999999999998;" x1="274.4" x2="423.5" y1="312.7482" y2="312.7482"/><text fill="#000000" font-family="sans-serif" font-size="9.1" font-weight="bold" lengthAdjust="spacing" textLength="9.8" x="279.3" y="309.0644">10</text><text fill="#000000" font-family="sans-serif" font-size="9.1" lengthAdjust="spacing" textLength="84.7" x="291.9" y="309.0644">register maintenance</text><polygon fill="#181818" points="536.9,331.852,543.9,334.652,536.9,337.452,539.7,334.652" style="stroke:#181818;stroke-width:0.6999999999999998;"/><line style="stroke:#181818;stroke-width:0.6999999999999998;" x1="434.7" x2="541.1" y1="334.652" y2="334.652"/><text fill="#000000" font-family="sans-serif" font-size="9.1" font-weight="bold" lengthAdjust="spacing" textLength="9.8" x="439.6" y="330.9681">11</text><text fill="#000000" font-family="sans-serif" font-size="9.1" lengthAdjust="spacing" textLength="84.7" x="452.2" y="330.9681">register maintenance</text><rect fill="none" height="30.2764" style="stroke:#000000;stroke-width:1.0499999999999998;" width="95.2" x="501.2" y="340.252"/><path d="M501.2,340.252 L544.6,340.252 L544.6,346.552 L537.6,353.552 L501.2,353.552 L501.2,340.252 " fill="#EEEEEE" style="stroke:#000000;stroke-width:1.3999999999999997;"/><text fill="#000000" font-family="sans-serif" font-size="9.1" font-weight="bold" lengthAdjust="spacing" textLength="11.9" x="510.3" y="351.4718">ref</text><text fill="#000000" font-family="sans-serif" font-size="8.4" lengthAdjust="spacing" textLength="84" x="506.8" y="365.4164">Register Maintenance</text><polygon fill="#181818" points="442.4,387.532,435.4,390.332,442.4,393.132,439.6,390.332" style="stroke:#181818;stroke-width:0.6999999999999998;"/><line style="stroke:#181818;stroke-width:0.6999999999999998;stroke-dasharray:2.0,2.0;" x1="438.2" x2="548.1" y1="390.332" y2="390.332"/><text fill="#000000" font-family="sans-serif" font-size="9.1" font-weight="bold" lengthAdjust="spacing" textLength="9.8" x="446.6" y="386.6481">12</text><text fill="#000000" font-family="sans-serif" font-size="9.1" lengthAdjust="spacing" textLength="51.8" x="459.2" y="386.6481">maintenance</text><polygon fill="#181818" points="282.1,409.4357,275.1,412.2357,282.1,415.0357,279.3,412.2357" style="stroke:#181818;stroke-width:0.6999999999999998;"/><line style="stroke:#181818;stroke-width:0.6999999999999998;stroke-dasharray:2.0,2.0;" x1="277.9" x2="430.5" y1="412.2357" y2="412.2357"/><text fill="#000000" font-family="sans-serif" font-size="9.1" font-weight="bold" lengthAdjust="spacing" textLength="9.8" x="286.3" y="408.5519">13</text><text fill="#000000" font-family="sans-serif" font-size="9.1" lengthAdjust="spacing" textLength="51.8" x="298.9" y="408.5519">maintenance</text><polygon fill="#181818" points="116.2,431.3395,109.2,434.1395,116.2,436.9395,113.4,434.1395" style="stroke:#181818;stroke-width:0.6999999999999998;"/><line style="stroke:#181818;stroke-width:0.6999999999999998;stroke-dasharray:2.0,2.0;" x1="112" x2="266.7" y1="434.1395" y2="434.1395"/><text fill="#000000" font-family="sans-serif" font-size="9.1" font-weight="bold" lengthAdjust="spacing" textLength="9.8" x="120.4" y="430.4556">14</text><text fill="#000000" font-family="sans-serif" font-size="9.1" lengthAdjust="spacing" textLength="109.9" x="133" y="430.4556">Displays maintenance data</text><polygon fill="#181818" points="116.2,453.2432,109.2,456.0432,116.2,458.8432,113.4,456.0432" style="stroke:#181818;stroke-width:0.6999999999999998;"/><line style="stroke:#181818;stroke-width:0.6999999999999998;stroke-dasharray:2.0,2.0;" x1="112" x2="270.2" y1="456.0432" y2="456.0432"/><text fill="#000000" font-family="sans-serif" font-size="9.1" font-weight="bold" lengthAdjust="spacing" textLength="9.8" x="120.4" y="452.3593">15</text><text fill="#000000" font-family="sans-serif" font-size="9.1" lengthAdjust="spacing" textLength="86.8" x="133" y="452.3593">requests confirmation</text><polygon fill="#181818" points="259,475.1469,266,477.9469,259,480.7469,261.8,477.9469" style="stroke:#181818;stroke-width:0.6999999999999998;"/><line style="stroke:#181818;stroke-width:0.6999999999999998;" x1="108.5" x2="263.2" y1="477.9469" y2="477.9469"/><text fill="#000000" font-family="sans-serif" font-size="9.1" font-weight="bold" lengthAdjust="spacing" textLength="9.8" x="113.4" y="474.263">16</text><text fill="#000000" font-family="sans-serif" font-size="9.1" lengthAdjust="spacing" textLength="54.6" x="126" y="474.263">confirms data</text><polygon fill="#181818" points="419.3,497.0506,426.3,499.8506,419.3,502.6506,422.1,499.8506" style="stroke:#181818;stroke-width:0.6999999999999998;"/><line style="stroke:#181818;stroke-width:0.6999999999999998;" x1="274.4" x2="423.5" y1="499.8506" y2="499.8506"/><text fill="#000000" font-family="sans-serif" font-size="9.1" font-weight="bold" lengthAdjust="spacing" textLength="9.8" x="279.3" y="496.1667">17</text><text fill="#000000" font-family="sans-serif" font-size="9.1" lengthAdjust="spacing" textLength="49" x="291.9" y="496.1667">confirmation</text><polygon fill="#181818" points="282.1,518.9543,275.1,521.7543,282.1,524.5543,279.3,521.7543" style="stroke:#181818;stroke-width:0.6999999999999998;"/><line style="stroke:#181818;stroke-width:0.6999999999999998;stroke-dasharray:2.0,2.0;" x1="277.9" x2="430.5" y1="521.7543" y2="521.7543"/><text fill="#000000" font-family="sans-serif" font-size="9.1" font-weight="bold" lengthAdjust="spacing" textLength="9.8" x="286.3" y="518.0704">18</text><text fill="#000000" font-family="sans-serif" font-size="9.1" lengthAdjust="spacing" textLength="74.2" x="298.9" y="518.0704">operation success</text><polygon fill="#181818" points="112.7,540.858,105.7,543.658,112.7,546.458,109.9,543.658" style="stroke:#181818;stroke-width:0.6999999999999998;"/><line style="stroke:#181818;stroke-width:0.6999999999999998;" x1="108.5" x2="270.2" y1="543.658" y2="543.658"/><text fill="#000000" font-family="sans-serif" font-size="9.1" font-weight="bold" lengthAdjust="spacing" textLength="9.8" x="116.9" y="539.9741">19</text><text fill="#000000" font-family="sans-serif" font-size="9.1" lengthAdjust="spacing" textLength="110.6" x="129.5" y="539.9741">displays operation success</text><!--SRC=[dLLDRzim3BtxLn2vB06MFn0KlMJhKAovf6rEkx0oOmkr9LUIi-NVZrPjBv8_a4o7m90U7n-VICM-IrMXmH9AhRJ8ZIu9dAafiVr9XU8TCtfsvuB0a72eik8IO7DCzM-fCZXYOIb9i7PQrUKRcIJvaikKuAYrUzD_4XHE6rWSA9U2sL2byFsZbbL9oi53GUHWXugp6LWU7dQh1Q05_aWuavD2LiYunMPFcRIEp0wbSgHG2NfzzDZNnmZQfjfgvOmk2Z8UjdtPFuN0qoTkJvMsaaMUDx_K8Txxb1Fl9arPyeIElDG4UF47hEzP3cpOiu-QhBFWD1Ii6zfSrYFxM9RkDvh5SHpTgEJuZ5oRqpvn-7BLm_fONq-_xPUX8-WJ6-dF85e_sEdk5XhI441yBnmVCderwwwejeP1R4epefgocA0nPmEfj5M1PzjHmHpNfJcnlzjSQqizJu2R90WSdeqSbX4wqLzlYWwN_4DVGTJ6D2tzirpzfpi1ArnDE-tIoxcYwzW2pwPDC-qGGlbl2czpy7uuIpVnZanYtEVz50onCBAwXmLs4xdRwHYfvcwz7YrdgegfEmlxQpe-f8XEWbRwrWtQ1PLlXDcelW65LaTfIdHIg-iLNBPUos17aqvEQDnlSphc7i9uNdL5nfE0hOKWQs-pTV1ytS8tVUJ_Elu2]--></g></svg>