<?xml version="1.0" encoding="us-ascii" standalone="no"?><svg xmlns="http://www.w3.org/2000/svg" xmlns:xlink="http://www.w3.org/1999/xlink" contentStyleType="text/css" height="745px" preserveAspectRatio="none" style="width:1241px;height:745px;background:#FFFFFF;" version="1.1" viewBox="0 0 1241 745" width="1241px" zoomAndPan="magnify"><defs/><g><text fill="#000000" font-family="sans-serif" font-size="14" font-weight="bold" lengthAdjust="spacing" textLength="284" x="477.75" y="30.1074">System Sequence Diagram (SSD) - US027</text><rect fill="#FFFFFF" height="483.3652" style="stroke:#181818;stroke-width:1.0;" width="10" x="55.5" y="151.8633"/><rect fill="#FFFFFF" height="451.0742" style="stroke:#181818;stroke-width:1.0;" width="10" x="283.5" y="175.1543"/><rect fill="#FFFFFF" height="388.4922" style="stroke:#181818;stroke-width:1.0;" width="10" x="433.5" y="206.4453"/><rect fill="#FFFFFF" height="75.582" style="stroke:#181818;stroke-width:1.0;" width="10" x="792.5" y="488.0645"/><rect fill="#FFFFFF" height="31.291" style="stroke:#181818;stroke-width:1.0;" width="10" x="952" y="237.7363"/><rect fill="#FFFFFF" height="31.291" style="stroke:#181818;stroke-width:1.0;" width="10" x="952" y="300.3184"/><rect fill="#FFFFFF" height="31.291" style="stroke:#181818;stroke-width:1.0;" width="10" x="1101" y="362.9004"/><rect fill="#FFFFFF" height="31.291" style="stroke:#181818;stroke-width:1.0;" width="10" x="1206" y="425.4824"/><line style="stroke:#181818;stroke-width:0.5;stroke-dasharray:5.0,5.0;" x1="60" x2="60" y1="141.8633" y2="644.2285"/><line style="stroke:#181818;stroke-width:0.5;stroke-dasharray:5.0,5.0;" x1="288.5" x2="288.5" y1="141.8633" y2="644.2285"/><line style="stroke:#181818;stroke-width:0.5;stroke-dasharray:5.0,5.0;" x1="438.5" x2="438.5" y1="141.8633" y2="644.2285"/><line style="stroke:#181818;stroke-width:0.5;stroke-dasharray:5.0,5.0;" x1="797.5" x2="797.5" y1="141.8633" y2="644.2285"/><line style="stroke:#181818;stroke-width:0.5;stroke-dasharray:5.0,5.0;" x1="956.5" x2="956.5" y1="141.8633" y2="644.2285"/><line style="stroke:#181818;stroke-width:0.5;stroke-dasharray:5.0,5.0;" x1="1105.5" x2="1105.5" y1="141.8633" y2="644.2285"/><line style="stroke:#181818;stroke-width:0.5;stroke-dasharray:5.0,5.0;" x1="1210.5" x2="1210.5" y1="141.8633" y2="644.2285"/><text fill="#000000" font-family="sans-serif" font-size="14" lengthAdjust="spacing" textLength="84" x="15.5" y="119.7285">Green Space</text><text fill="#000000" font-family="sans-serif" font-size="14" lengthAdjust="spacing" textLength="101" x="9" y="138.3496">Manager (GSM)</text><ellipse cx="60.5" cy="53.1211" fill="#E3E3E3" rx="8" ry="8" style="stroke:#181818;stroke-width:0.5;"/><path d="M60.5,61.1211 L60.5,88.1211 M47.5,69.1211 L73.5,69.1211 M60.5,88.1211 L47.5,103.1211 M60.5,88.1211 L73.5,103.1211 " fill="none" style="stroke:#181818;stroke-width:0.5;"/><text fill="#000000" font-family="sans-serif" font-size="14" lengthAdjust="spacing" textLength="84" x="15.5" y="658.3359">Green Space</text><text fill="#000000" font-family="sans-serif" font-size="14" lengthAdjust="spacing" textLength="101" x="9" y="676.957">Manager (GSM)</text><ellipse cx="60.5" cy="688.9707" fill="#E3E3E3" rx="8" ry="8" style="stroke:#181818;stroke-width:0.5;"/><path d="M60.5,696.9707 L60.5,723.9707 M47.5,704.9707 L73.5,704.9707 M60.5,723.9707 L47.5,738.9707 M60.5,723.9707 L73.5,738.9707 " fill="none" style="stroke:#181818;stroke-width:0.5;"/><rect fill="#E3E3E3" height="32.6211" rx="2.5" ry="2.5" style="stroke:#181818;stroke-width:0.5;" width="124" x="226.5" y="108.2422"/><text fill="#000000" font-family="sans-serif" font-size="14" lengthAdjust="spacing" textLength="110" x="233.5" y="130.3496">GreenSpacesGUI</text><rect fill="#E3E3E3" height="32.6211" rx="2.5" ry="2.5" style="stroke:#181818;stroke-width:0.5;" width="124" x="226.5" y="643.2285"/><text fill="#000000" font-family="sans-serif" font-size="14" lengthAdjust="spacing" textLength="110" x="233.5" y="665.3359">GreenSpacesGUI</text><rect fill="#E3E3E3" height="32.6211" rx="2.5" ry="2.5" style="stroke:#181818;stroke-width:0.5;" width="156" x="360.5" y="108.2422"/><text fill="#000000" font-family="sans-serif" font-size="14" lengthAdjust="spacing" textLength="142" x="367.5" y="130.3496">GreenSpaceController</text><rect fill="#E3E3E3" height="32.6211" rx="2.5" ry="2.5" style="stroke:#181818;stroke-width:0.5;" width="156" x="360.5" y="643.2285"/><text fill="#000000" font-family="sans-serif" font-size="14" lengthAdjust="spacing" textLength="142" x="367.5" y="665.3359">GreenSpaceController</text><rect fill="#E3E3E3" height="32.6211" rx="2.5" ry="2.5" style="stroke:#181818;stroke-width:0.5;" width="162" x="716.5" y="108.2422"/><text fill="#000000" font-family="sans-serif" font-size="14" lengthAdjust="spacing" textLength="148" x="723.5" y="130.3496">GreenSpaceRepository</text><rect fill="#E3E3E3" height="32.6211" rx="2.5" ry="2.5" style="stroke:#181818;stroke-width:0.5;" width="162" x="716.5" y="643.2285"/><text fill="#000000" font-family="sans-serif" font-size="14" lengthAdjust="spacing" textLength="148" x="723.5" y="665.3359">GreenSpaceRepository</text><rect fill="#E3E3E3" height="32.6211" rx="2.5" ry="2.5" style="stroke:#181818;stroke-width:0.5;" width="137" x="888.5" y="108.2422"/><text fill="#000000" font-family="sans-serif" font-size="14" lengthAdjust="spacing" textLength="123" x="895.5" y="130.3496">:ApplicationSession</text><rect fill="#E3E3E3" height="32.6211" rx="2.5" ry="2.5" style="stroke:#181818;stroke-width:0.5;" width="137" x="888.5" y="643.2285"/><text fill="#000000" font-family="sans-serif" font-size="14" lengthAdjust="spacing" textLength="123" x="895.5" y="665.3359">:ApplicationSession</text><rect fill="#E3E3E3" height="32.6211" rx="2.5" ry="2.5" style="stroke:#181818;stroke-width:0.5;" width="141" x="1035.5" y="108.2422"/><text fill="#000000" font-family="sans-serif" font-size="14" lengthAdjust="spacing" textLength="127" x="1042.5" y="130.3496">RepositorySingleton</text><rect fill="#E3E3E3" height="32.6211" rx="2.5" ry="2.5" style="stroke:#181818;stroke-width:0.5;" width="141" x="1035.5" y="643.2285"/><text fill="#000000" font-family="sans-serif" font-size="14" lengthAdjust="spacing" textLength="127" x="1042.5" y="665.3359">RepositorySingleton</text><rect fill="#E3E3E3" height="32.6211" rx="2.5" ry="2.5" style="stroke:#181818;stroke-width:0.5;" width="49" x="1186.5" y="108.2422"/><text fill="#000000" font-family="sans-serif" font-size="14" lengthAdjust="spacing" textLength="35" x="1193.5" y="130.3496">PLAT</text><rect fill="#E3E3E3" height="32.6211" rx="2.5" ry="2.5" style="stroke:#181818;stroke-width:0.5;" width="49" x="1186.5" y="643.2285"/><text fill="#000000" font-family="sans-serif" font-size="14" lengthAdjust="spacing" textLength="35" x="1193.5" y="665.3359">PLAT</text><rect fill="#FFFFFF" height="483.3652" style="stroke:#181818;stroke-width:1.0;" width="10" x="55.5" y="151.8633"/><rect fill="#FFFFFF" height="451.0742" style="stroke:#181818;stroke-width:1.0;" width="10" x="283.5" y="175.1543"/><rect fill="#FFFFFF" height="388.4922" style="stroke:#181818;stroke-width:1.0;" width="10" x="433.5" y="206.4453"/><rect fill="#FFFFFF" height="75.582" style="stroke:#181818;stroke-width:1.0;" width="10" x="792.5" y="488.0645"/><rect fill="#FFFFFF" height="31.291" style="stroke:#181818;stroke-width:1.0;" width="10" x="952" y="237.7363"/><rect fill="#FFFFFF" height="31.291" style="stroke:#181818;stroke-width:1.0;" width="10" x="952" y="300.3184"/><rect fill="#FFFFFF" height="31.291" style="stroke:#181818;stroke-width:1.0;" width="10" x="1101" y="362.9004"/><rect fill="#FFFFFF" height="31.291" style="stroke:#181818;stroke-width:1.0;" width="10" x="1206" y="425.4824"/><polygon fill="#181818" points="271.5,171.1543,281.5,175.1543,271.5,179.1543,275.5,175.1543" style="stroke:#181818;stroke-width:1.0;"/><line style="stroke:#181818;stroke-width:1.0;" x1="65.5" x2="277.5" y1="175.1543" y2="175.1543"/><text fill="#000000" font-family="sans-serif" font-size="13" font-weight="bold" lengthAdjust="spacing" textLength="7" x="72.5" y="169.8916">1</text><text fill="#000000" font-family="sans-serif" font-size="13" lengthAdjust="spacing" textLength="175" x="83.5" y="169.8916">requests to view green spaces</text><polygon fill="#181818" points="421.5,202.4453,431.5,206.4453,421.5,210.4453,425.5,206.4453" style="stroke:#181818;stroke-width:1.0;"/><line style="stroke:#181818;stroke-width:1.0;" x1="293.5" x2="427.5" y1="206.4453" y2="206.4453"/><text fill="#000000" font-family="sans-serif" font-size="13" font-weight="bold" lengthAdjust="spacing" textLength="7" x="300.5" y="201.1826">2</text><text fill="#000000" font-family="sans-serif" font-size="13" lengthAdjust="spacing" textLength="105" x="311.5" y="201.1826">getGreenSpaces()</text><polygon fill="#181818" points="940,233.7363,950,237.7363,940,241.7363,944,237.7363" style="stroke:#181818;stroke-width:1.0;"/><line style="stroke:#181818;stroke-width:1.0;" x1="443.5" x2="946" y1="237.7363" y2="237.7363"/><text fill="#000000" font-family="sans-serif" font-size="13" font-weight="bold" lengthAdjust="spacing" textLength="7" x="450.5" y="232.4736">3</text><text fill="#000000" font-family="sans-serif" font-size="13" lengthAdjust="spacing" textLength="75" x="461.5" y="232.4736">getInstance()</text><polygon fill="#181818" points="454.5,265.0273,444.5,269.0273,454.5,273.0273,450.5,269.0273" style="stroke:#181818;stroke-width:1.0;"/><line style="stroke:#181818;stroke-width:1.0;stroke-dasharray:2.0,2.0;" x1="448.5" x2="956" y1="269.0273" y2="269.0273"/><text fill="#000000" font-family="sans-serif" font-size="13" font-weight="bold" lengthAdjust="spacing" textLength="7" x="460.5" y="263.7646">4</text><text fill="#000000" font-family="sans-serif" font-size="13" lengthAdjust="spacing" textLength="45" x="471.5" y="263.7646">session</text><polygon fill="#181818" points="940,296.3184,950,300.3184,940,304.3184,944,300.3184" style="stroke:#181818;stroke-width:1.0;"/><line style="stroke:#181818;stroke-width:1.0;" x1="443.5" x2="946" y1="300.3184" y2="300.3184"/><text fill="#000000" font-family="sans-serif" font-size="13" font-weight="bold" lengthAdjust="spacing" textLength="7" x="450.5" y="295.0557">5</text><text fill="#000000" font-family="sans-serif" font-size="13" lengthAdjust="spacing" textLength="115" x="461.5" y="295.0557">getCurrentSession()</text><polygon fill="#181818" points="454.5,327.6094,444.5,331.6094,454.5,335.6094,450.5,331.6094" style="stroke:#181818;stroke-width:1.0;"/><line style="stroke:#181818;stroke-width:1.0;stroke-dasharray:2.0,2.0;" x1="448.5" x2="956" y1="331.6094" y2="331.6094"/><text fill="#000000" font-family="sans-serif" font-size="13" font-weight="bold" lengthAdjust="spacing" textLength="7" x="460.5" y="326.3467">6</text><text fill="#000000" font-family="sans-serif" font-size="13" lengthAdjust="spacing" textLength="74" x="471.5" y="326.3467">UserSession</text><polygon fill="#181818" points="1089,358.9004,1099,362.9004,1089,366.9004,1093,362.9004" style="stroke:#181818;stroke-width:1.0;"/><line style="stroke:#181818;stroke-width:1.0;" x1="443.5" x2="1095" y1="362.9004" y2="362.9004"/><text fill="#000000" font-family="sans-serif" font-size="13" font-weight="bold" lengthAdjust="spacing" textLength="7" x="450.5" y="357.6377">7</text><text fill="#000000" font-family="sans-serif" font-size="13" lengthAdjust="spacing" textLength="75" x="461.5" y="357.6377">getInstance()</text><polygon fill="#181818" points="454.5,390.1914,444.5,394.1914,454.5,398.1914,450.5,394.1914" style="stroke:#181818;stroke-width:1.0;"/><line style="stroke:#181818;stroke-width:1.0;stroke-dasharray:2.0,2.0;" x1="448.5" x2="1105" y1="394.1914" y2="394.1914"/><text fill="#000000" font-family="sans-serif" font-size="13" font-weight="bold" lengthAdjust="spacing" textLength="7" x="460.5" y="388.9287">8</text><text fill="#000000" font-family="sans-serif" font-size="13" lengthAdjust="spacing" textLength="67" x="471.5" y="388.9287">repositories</text><polygon fill="#181818" points="1194,421.4824,1204,425.4824,1194,429.4824,1198,425.4824" style="stroke:#181818;stroke-width:1.0;"/><line style="stroke:#181818;stroke-width:1.0;" x1="443.5" x2="1200" y1="425.4824" y2="425.4824"/><text fill="#000000" font-family="sans-serif" font-size="13" font-weight="bold" lengthAdjust="spacing" textLength="7" x="450.5" y="420.2197">9</text><text fill="#000000" font-family="sans-serif" font-size="13" lengthAdjust="spacing" textLength="160" x="461.5" y="420.2197">getGreenSpaceRepository()</text><polygon fill="#181818" points="454.5,452.7734,444.5,456.7734,454.5,460.7734,450.5,456.7734" style="stroke:#181818;stroke-width:1.0;"/><line style="stroke:#181818;stroke-width:1.0;stroke-dasharray:2.0,2.0;" x1="448.5" x2="1210" y1="456.7734" y2="456.7734"/><text fill="#000000" font-family="sans-serif" font-size="13" font-weight="bold" lengthAdjust="spacing" textLength="14" x="460.5" y="451.5107">10</text><text fill="#000000" font-family="sans-serif" font-size="13" lengthAdjust="spacing" textLength="134" x="478.5" y="451.5107">GreenSpaceRepository</text><polygon fill="#181818" points="780.5,484.0645,790.5,488.0645,780.5,492.0645,784.5,488.0645" style="stroke:#181818;stroke-width:1.0;"/><line style="stroke:#181818;stroke-width:1.0;" x1="443.5" x2="786.5" y1="488.0645" y2="488.0645"/><text fill="#000000" font-family="sans-serif" font-size="13" font-weight="bold" lengthAdjust="spacing" textLength="14" x="450.5" y="482.8018">11</text><text fill="#000000" font-family="sans-serif" font-size="13" lengthAdjust="spacing" textLength="312" x="468.5" y="482.8018">getGreenSpacesByUser(UserSession.getUserEmail())</text><line style="stroke:#181818;stroke-width:1.0;" x1="802.5" x2="844.5" y1="519.3555" y2="519.3555"/><line style="stroke:#181818;stroke-width:1.0;" x1="844.5" x2="844.5" y1="519.3555" y2="532.3555"/><line style="stroke:#181818;stroke-width:1.0;" x1="803.5" x2="844.5" y1="532.3555" y2="532.3555"/><polygon fill="#181818" points="813.5,528.3555,803.5,532.3555,813.5,536.3555,809.5,532.3555" style="stroke:#181818;stroke-width:1.0;"/><text fill="#000000" font-family="sans-serif" font-size="13" font-weight="bold" lengthAdjust="spacing" textLength="14" x="809.5" y="514.0928">12</text><text fill="#000000" font-family="sans-serif" font-size="13" lengthAdjust="spacing" textLength="30" x="827.5" y="514.0928">sort()</text><polygon fill="#181818" points="454.5,559.6465,444.5,563.6465,454.5,567.6465,450.5,563.6465" style="stroke:#181818;stroke-width:1.0;"/><line style="stroke:#181818;stroke-width:1.0;stroke-dasharray:2.0,2.0;" x1="448.5" x2="796.5" y1="563.6465" y2="563.6465"/><text fill="#000000" font-family="sans-serif" font-size="13" font-weight="bold" lengthAdjust="spacing" textLength="14" x="460.5" y="558.3838">13</text><text fill="#000000" font-family="sans-serif" font-size="13" lengthAdjust="spacing" textLength="76" x="478.5" y="558.3838">greenSpaces</text><polygon fill="#181818" points="304.5,590.9375,294.5,594.9375,304.5,598.9375,300.5,594.9375" style="stroke:#181818;stroke-width:1.0;"/><line style="stroke:#181818;stroke-width:1.0;stroke-dasharray:2.0,2.0;" x1="298.5" x2="437.5" y1="594.9375" y2="594.9375"/><text fill="#000000" font-family="sans-serif" font-size="13" font-weight="bold" lengthAdjust="spacing" textLength="14" x="310.5" y="589.6748">14</text><text fill="#000000" font-family="sans-serif" font-size="13" lengthAdjust="spacing" textLength="76" x="328.5" y="589.6748">greenSpaces</text><polygon fill="#181818" points="76.5,622.2285,66.5,626.2285,76.5,630.2285,72.5,626.2285" style="stroke:#181818;stroke-width:1.0;"/><line style="stroke:#181818;stroke-width:1.0;" x1="70.5" x2="287.5" y1="626.2285" y2="626.2285"/><text fill="#000000" font-family="sans-serif" font-size="13" font-weight="bold" lengthAdjust="spacing" textLength="14" x="82.5" y="620.9658">15</text><text fill="#000000" font-family="sans-serif" font-size="13" lengthAdjust="spacing" textLength="176" x="100.5" y="620.9658">displays green spaces in a list</text><!--SRC=[bLF1Rjim3BthAuYUd4E6OPS2EGpeqY48q0B3jDnsqHpM5MfBhaYtyD-FKbrRyPmYqy6svFSU7ocIdgnhJJ0DDDxvyZ7u1e53Xuh6Fwqfdqo5cliQ8M39nbLr3g17S_IlrbNmO6f2fTYoG7LFZ0reVExGbGYtrbGHNcXzku8r7FJdBzTAcOwzwve_6EIxP1_WQXSG7MW9ZByTt1iduGCKEts_kW9381zAGhCjRMiS3uI4fzrXdp27_Jd8rZiElgun9E2T9TvogC_1VsBhoOglFi7ZzXIwkMdRsfQ6hNSQYUILa78yR5NApBuOnkHToGFMNyKZRAIYKXzY0lRmOl4LgfGzfMmcdkIZ12-iTyF2hP2pr8lL11-pKYDSg9EbD_BUaTncYJapivt1rwU1QK0SSOdtOSnj5m8w7ix-E_A1CEYFeuEitC5qWzh6rkM5zE72DGPS45KNgyIrv2hFDNR6WB3I29VAPZLPiZYlpO-xcr_pHffuGs56nOXE9uaskvab0JMpD0gSMQUj4tN-wV9lVMo18kk3JmA8s- -DiNMnoZeg3MjIcTJ81vQyr70-6wWfZffLChVsFhjduDFmlKri7FSD72srjUdfPC31EZ1G2o4NYCF-5m00]--></g></svg>