<?xml version="1.0" encoding="us-ascii" standalone="no"?><svg xmlns="http://www.w3.org/2000/svg" xmlns:xlink="http://www.w3.org/1999/xlink" contentStyleType="text/css" height="620px" preserveAspectRatio="none" style="width:1024px;height:620px;background:#FFFFFF;" version="1.1" viewBox="0 0 1024 620" width="1024px" zoomAndPan="magnify"><defs/><g><text fill="#000000" font-family="sans-serif" font-size="14" font-weight="bold" lengthAdjust="spacing" textLength="284" x="369.25" y="30.1074">System Sequence Diagram (SSD) - US027</text><rect fill="#FFFFFF" height="358.2012" style="stroke:#181818;stroke-width:1.0;" width="10" x="55.5" y="151.8633"/><rect fill="#FFFFFF" height="325.9102" style="stroke:#181818;stroke-width:1.0;" width="10" x="283.5" y="175.1543"/><rect fill="#FFFFFF" height="263.3281" style="stroke:#181818;stroke-width:1.0;" width="10" x="433.5" y="206.4453"/><rect fill="#FFFFFF" height="75.582" style="stroke:#181818;stroke-width:1.0;" width="10" x="785.5" y="362.9004"/><rect fill="#FFFFFF" height="31.291" style="stroke:#181818;stroke-width:1.0;" width="10" x="945" y="237.7363"/><rect fill="#FFFFFF" height="31.291" style="stroke:#181818;stroke-width:1.0;" width="10" x="945" y="300.3184"/><line style="stroke:#181818;stroke-width:0.5;stroke-dasharray:5.0,5.0;" x1="60" x2="60" y1="141.8633" y2="519.0645"/><line style="stroke:#181818;stroke-width:0.5;stroke-dasharray:5.0,5.0;" x1="288.5" x2="288.5" y1="141.8633" y2="519.0645"/><line style="stroke:#181818;stroke-width:0.5;stroke-dasharray:5.0,5.0;" x1="438.5" x2="438.5" y1="141.8633" y2="519.0645"/><line style="stroke:#181818;stroke-width:0.5;stroke-dasharray:5.0,5.0;" x1="790.5" x2="790.5" y1="141.8633" y2="519.0645"/><line style="stroke:#181818;stroke-width:0.5;stroke-dasharray:5.0,5.0;" x1="949.5" x2="949.5" y1="141.8633" y2="519.0645"/><text fill="#000000" font-family="sans-serif" font-size="14" lengthAdjust="spacing" textLength="84" x="15.5" y="119.7285">Green Space</text><text fill="#000000" font-family="sans-serif" font-size="14" lengthAdjust="spacing" textLength="101" x="9" y="138.3496">Manager (GSM)</text><ellipse cx="60.5" cy="53.1211" fill="#E3E3E3" rx="8" ry="8" style="stroke:#181818;stroke-width:0.5;"/><path d="M60.5,61.1211 L60.5,88.1211 M47.5,69.1211 L73.5,69.1211 M60.5,88.1211 L47.5,103.1211 M60.5,88.1211 L73.5,103.1211 " fill="none" style="stroke:#181818;stroke-width:0.5;"/><text fill="#000000" font-family="sans-serif" font-size="14" lengthAdjust="spacing" textLength="84" x="15.5" y="533.1719">Green Space</text><text fill="#000000" font-family="sans-serif" font-size="14" lengthAdjust="spacing" textLength="101" x="9" y="551.793">Manager (GSM)</text><ellipse cx="60.5" cy="563.8066" fill="#E3E3E3" rx="8" ry="8" style="stroke:#181818;stroke-width:0.5;"/><path d="M60.5,571.8066 L60.5,598.8066 M47.5,579.8066 L73.5,579.8066 M60.5,598.8066 L47.5,613.8066 M60.5,598.8066 L73.5,613.8066 " fill="none" style="stroke:#181818;stroke-width:0.5;"/><rect fill="#E3E3E3" height="32.6211" rx="2.5" ry="2.5" style="stroke:#181818;stroke-width:0.5;" width="124" x="226.5" y="108.2422"/><text fill="#000000" font-family="sans-serif" font-size="14" lengthAdjust="spacing" textLength="110" x="233.5" y="130.3496">GreenSpacesGUI</text><rect fill="#E3E3E3" height="32.6211" rx="2.5" ry="2.5" style="stroke:#181818;stroke-width:0.5;" width="124" x="226.5" y="518.0645"/><text fill="#000000" font-family="sans-serif" font-size="14" lengthAdjust="spacing" textLength="110" x="233.5" y="540.1719">GreenSpacesGUI</text><rect fill="#E3E3E3" height="32.6211" rx="2.5" ry="2.5" style="stroke:#181818;stroke-width:0.5;" width="156" x="360.5" y="108.2422"/><text fill="#000000" font-family="sans-serif" font-size="14" lengthAdjust="spacing" textLength="142" x="367.5" y="130.3496">GreenSpaceController</text><rect fill="#E3E3E3" height="32.6211" rx="2.5" ry="2.5" style="stroke:#181818;stroke-width:0.5;" width="156" x="360.5" y="518.0645"/><text fill="#000000" font-family="sans-serif" font-size="14" lengthAdjust="spacing" textLength="142" x="367.5" y="540.1719">GreenSpaceController</text><rect fill="#E3E3E3" height="32.6211" rx="2.5" ry="2.5" style="stroke:#181818;stroke-width:0.5;" width="162" x="709.5" y="108.2422"/><text fill="#000000" font-family="sans-serif" font-size="14" lengthAdjust="spacing" textLength="148" x="716.5" y="130.3496">GreenSpaceRepository</text><rect fill="#E3E3E3" height="32.6211" rx="2.5" ry="2.5" style="stroke:#181818;stroke-width:0.5;" width="162" x="709.5" y="518.0645"/><text fill="#000000" font-family="sans-serif" font-size="14" lengthAdjust="spacing" textLength="148" x="716.5" y="540.1719">GreenSpaceRepository</text><rect fill="#E3E3E3" height="32.6211" rx="2.5" ry="2.5" style="stroke:#181818;stroke-width:0.5;" width="137" x="881.5" y="108.2422"/><text fill="#000000" font-family="sans-serif" font-size="14" lengthAdjust="spacing" textLength="123" x="888.5" y="130.3496">:ApplicationSession</text><rect fill="#E3E3E3" height="32.6211" rx="2.5" ry="2.5" style="stroke:#181818;stroke-width:0.5;" width="137" x="881.5" y="518.0645"/><text fill="#000000" font-family="sans-serif" font-size="14" lengthAdjust="spacing" textLength="123" x="888.5" y="540.1719">:ApplicationSession</text><rect fill="#FFFFFF" height="358.2012" style="stroke:#181818;stroke-width:1.0;" width="10" x="55.5" y="151.8633"/><rect fill="#FFFFFF" height="325.9102" style="stroke:#181818;stroke-width:1.0;" width="10" x="283.5" y="175.1543"/><rect fill="#FFFFFF" height="263.3281" style="stroke:#181818;stroke-width:1.0;" width="10" x="433.5" y="206.4453"/><rect fill="#FFFFFF" height="75.582" style="stroke:#181818;stroke-width:1.0;" width="10" x="785.5" y="362.9004"/><rect fill="#FFFFFF" height="31.291" style="stroke:#181818;stroke-width:1.0;" width="10" x="945" y="237.7363"/><rect fill="#FFFFFF" height="31.291" style="stroke:#181818;stroke-width:1.0;" width="10" x="945" y="300.3184"/><polygon fill="#181818" points="271.5,171.1543,281.5,175.1543,271.5,179.1543,275.5,175.1543" style="stroke:#181818;stroke-width:1.0;"/><line style="stroke:#181818;stroke-width:1.0;" x1="65.5" x2="277.5" y1="175.1543" y2="175.1543"/><text fill="#000000" font-family="sans-serif" font-size="13" font-weight="bold" lengthAdjust="spacing" textLength="7" x="72.5" y="169.8916">1</text><text fill="#000000" font-family="sans-serif" font-size="13" lengthAdjust="spacing" textLength="175" x="83.5" y="169.8916">requests to view green spaces</text><polygon fill="#181818" points="421.5,202.4453,431.5,206.4453,421.5,210.4453,425.5,206.4453" style="stroke:#181818;stroke-width:1.0;"/><line style="stroke:#181818;stroke-width:1.0;" x1="293.5" x2="427.5" y1="206.4453" y2="206.4453"/><text fill="#000000" font-family="sans-serif" font-size="13" font-weight="bold" lengthAdjust="spacing" textLength="7" x="300.5" y="201.1826">2</text><text fill="#000000" font-family="sans-serif" font-size="13" lengthAdjust="spacing" textLength="105" x="311.5" y="201.1826">getGreenSpaces()</text><polygon fill="#181818" points="933,233.7363,943,237.7363,933,241.7363,937,237.7363" style="stroke:#181818;stroke-width:1.0;"/><line style="stroke:#181818;stroke-width:1.0;" x1="443.5" x2="939" y1="237.7363" y2="237.7363"/><text fill="#000000" font-family="sans-serif" font-size="13" font-weight="bold" lengthAdjust="spacing" textLength="7" x="450.5" y="232.4736">3</text><text fill="#000000" font-family="sans-serif" font-size="13" lengthAdjust="spacing" textLength="75" x="461.5" y="232.4736">getInstance()</text><polygon fill="#181818" points="454.5,265.0273,444.5,269.0273,454.5,273.0273,450.5,269.0273" style="stroke:#181818;stroke-width:1.0;"/><line style="stroke:#181818;stroke-width:1.0;stroke-dasharray:2.0,2.0;" x1="448.5" x2="949" y1="269.0273" y2="269.0273"/><text fill="#000000" font-family="sans-serif" font-size="13" font-weight="bold" lengthAdjust="spacing" textLength="7" x="460.5" y="263.7646">4</text><text fill="#000000" font-family="sans-serif" font-size="13" lengthAdjust="spacing" textLength="45" x="471.5" y="263.7646">session</text><polygon fill="#181818" points="933,296.3184,943,300.3184,933,304.3184,937,300.3184" style="stroke:#181818;stroke-width:1.0;"/><line style="stroke:#181818;stroke-width:1.0;" x1="443.5" x2="939" y1="300.3184" y2="300.3184"/><text fill="#000000" font-family="sans-serif" font-size="13" font-weight="bold" lengthAdjust="spacing" textLength="7" x="450.5" y="295.0557">5</text><text fill="#000000" font-family="sans-serif" font-size="13" lengthAdjust="spacing" textLength="115" x="461.5" y="295.0557">getCurrentSession()</text><polygon fill="#181818" points="454.5,327.6094,444.5,331.6094,454.5,335.6094,450.5,331.6094" style="stroke:#181818;stroke-width:1.0;"/><line style="stroke:#181818;stroke-width:1.0;stroke-dasharray:2.0,2.0;" x1="448.5" x2="949" y1="331.6094" y2="331.6094"/><text fill="#000000" font-family="sans-serif" font-size="13" font-weight="bold" lengthAdjust="spacing" textLength="7" x="460.5" y="326.3467">6</text><text fill="#000000" font-family="sans-serif" font-size="13" lengthAdjust="spacing" textLength="74" x="471.5" y="326.3467">UserSession</text><polygon fill="#181818" points="773.5,358.9004,783.5,362.9004,773.5,366.9004,777.5,362.9004" style="stroke:#181818;stroke-width:1.0;"/><line style="stroke:#181818;stroke-width:1.0;" x1="443.5" x2="779.5" y1="362.9004" y2="362.9004"/><text fill="#000000" font-family="sans-serif" font-size="13" font-weight="bold" lengthAdjust="spacing" textLength="7" x="450.5" y="357.6377">7</text><text fill="#000000" font-family="sans-serif" font-size="13" lengthAdjust="spacing" textLength="312" x="461.5" y="357.6377">getGreenSpacesByUser(UserSession.getUserEmail())</text><line style="stroke:#181818;stroke-width:1.0;" x1="795.5" x2="837.5" y1="394.1914" y2="394.1914"/><line style="stroke:#181818;stroke-width:1.0;" x1="837.5" x2="837.5" y1="394.1914" y2="407.1914"/><line style="stroke:#181818;stroke-width:1.0;" x1="796.5" x2="837.5" y1="407.1914" y2="407.1914"/><polygon fill="#181818" points="806.5,403.1914,796.5,407.1914,806.5,411.1914,802.5,407.1914" style="stroke:#181818;stroke-width:1.0;"/><text fill="#000000" font-family="sans-serif" font-size="13" font-weight="bold" lengthAdjust="spacing" textLength="7" x="802.5" y="388.9287">8</text><text fill="#000000" font-family="sans-serif" font-size="13" lengthAdjust="spacing" textLength="30" x="813.5" y="388.9287">sort()</text><polygon fill="#181818" points="454.5,434.4824,444.5,438.4824,454.5,442.4824,450.5,438.4824" style="stroke:#181818;stroke-width:1.0;"/><line style="stroke:#181818;stroke-width:1.0;stroke-dasharray:2.0,2.0;" x1="448.5" x2="789.5" y1="438.4824" y2="438.4824"/><text fill="#000000" font-family="sans-serif" font-size="13" font-weight="bold" lengthAdjust="spacing" textLength="7" x="460.5" y="433.2197">9</text><text fill="#000000" font-family="sans-serif" font-size="13" lengthAdjust="spacing" textLength="76" x="471.5" y="433.2197">greenSpaces</text><polygon fill="#181818" points="304.5,465.7734,294.5,469.7734,304.5,473.7734,300.5,469.7734" style="stroke:#181818;stroke-width:1.0;"/><line style="stroke:#181818;stroke-width:1.0;stroke-dasharray:2.0,2.0;" x1="298.5" x2="437.5" y1="469.7734" y2="469.7734"/><text fill="#000000" font-family="sans-serif" font-size="13" font-weight="bold" lengthAdjust="spacing" textLength="14" x="310.5" y="464.5107">10</text><text fill="#000000" font-family="sans-serif" font-size="13" lengthAdjust="spacing" textLength="76" x="328.5" y="464.5107">greenSpaces</text><polygon fill="#181818" points="76.5,497.0645,66.5,501.0645,76.5,505.0645,72.5,501.0645" style="stroke:#181818;stroke-width:1.0;"/><line style="stroke:#181818;stroke-width:1.0;" x1="70.5" x2="287.5" y1="501.0645" y2="501.0645"/><text fill="#000000" font-family="sans-serif" font-size="13" font-weight="bold" lengthAdjust="spacing" textLength="14" x="82.5" y="495.8018">11</text><text fill="#000000" font-family="sans-serif" font-size="13" lengthAdjust="spacing" textLength="176" x="100.5" y="495.8018">displays green spaces in a list</text><!--SRC=[bP91J-Cm48Nl_XKZJkcXQBKNf1vMWeAgIii5gpSki-aGB1mxwvc0yk-PcD2u2rt19OcTxyrxup4_kT1XmXRQ66Bzc69B8AadmuS_7TPFs92LmHCagWL3uqk07t4VNrneu04zap7YH54xi50Bblxs56g2QuVDY5VMNYzW2Jlxu-U5CTXB37txXv9-rn8Jd6qIKG2hndGVu1Q3sYUeDlPsSGR8e1z6hSNLhiCWao3plDbjCxFRdaBMCKYAtbFAu6_7ifRaJ-5tr4Lsccl8-BWyHbUNNUTTZU9YiCIihqpgzhGqkJFtZ48vkz47B7zfHbZfYUhvi318X6T7Bz3axZbtC-kq7wEygju3gxOXALgl5ZD-wCeSS9NEaTx4sy0wpPfAPH6xm9V7nZmHU_fCzr_FTPyI1PdslksyOqhsw-xZk3uSrDKmLgcAKkSAZCkR5fsl5aMeFEzSPQx6COa6DzF-FpEPVSg0kKuHxNty9_1vVcz37s_C2lQEEuy37zqHS04Gl0hA0kDzUGK0]--></g></svg>