<?xml version="1.0" encoding="us-ascii" standalone="no"?><svg xmlns="http://www.w3.org/2000/svg" xmlns:xlink="http://www.w3.org/1999/xlink" contentStyleType="text/css" height="555px" preserveAspectRatio="none" style="width:397px;height:555px;background:#FFFFFF;" version="1.1" viewBox="0 0 397 555" width="397px" zoomAndPan="magnify"><defs/><g><!--class RegisterSkillUI--><g id="elem_RegisterSkillUI"><rect codeLine="13" fill="#F1F1F1" height="48" id="RegisterSkillUI" rx="2.5" ry="2.5" style="stroke:#181818;stroke-width:0.5;" width="122" x="166" y="7"/><ellipse cx="181" cy="23" fill="#ADD1B2" rx="11" ry="11" style="stroke:#181818;stroke-width:1.0;"/><path d="M183.7656,18.875 Q183.9219,18.6563 184.1094,18.5469 Q184.2969,18.4375 184.5156,18.4375 Q184.8906,18.4375 185.125,18.7031 Q185.3594,18.9531 185.3594,19.5625 L185.3594,21.0156 Q185.3594,21.625 185.125,21.8906 Q184.8906,22.1563 184.5156,22.1563 Q184.1719,22.1563 183.9688,21.9531 Q183.7656,21.7656 183.6563,21.25 Q183.6094,20.8906 183.4219,20.7031 Q183.0938,20.3281 182.4844,20.1094 Q181.875,19.8906 181.25,19.8906 Q180.4844,19.8906 179.8438,20.2188 Q179.2188,20.5469 178.7188,21.2969 Q178.2344,22.0469 178.2344,23.0781 L178.2344,24.1719 Q178.2344,25.4063 179.125,26.2344 Q180.0156,27.0469 181.6094,27.0469 Q182.5469,27.0469 183.2031,26.7969 Q183.5938,26.6406 184.0156,26.2031 Q184.2813,25.9375 184.4219,25.8594 Q184.5781,25.7813 184.7813,25.7813 Q185.1094,25.7813 185.3594,26.0469 Q185.625,26.2969 185.625,26.6406 Q185.625,26.9844 185.2813,27.3906 Q184.7813,27.9688 183.9844,28.2969 Q182.9063,28.75 181.6094,28.75 Q180.0938,28.75 178.8906,28.125 Q177.9063,27.625 177.2188,26.5625 Q176.5313,25.4844 176.5313,24.2031 L176.5313,23.0469 Q176.5313,21.7188 177.1406,20.5781 Q177.7656,19.4219 178.8594,18.8125 Q179.9531,18.1875 181.1875,18.1875 Q181.9219,18.1875 182.5625,18.3594 Q183.2188,18.5156 183.7656,18.875 Z " fill="#000000"/><text fill="#000000" font-family="sans-serif" font-size="14" lengthAdjust="spacing" textLength="90" x="195" y="28.7969">RegisterSkillUI</text><line style="stroke:#181818;stroke-width:0.5;" x1="167" x2="287" y1="39" y2="39"/><line style="stroke:#181818;stroke-width:0.5;" x1="167" x2="287" y1="47" y2="47"/></g><!--class SkillsController--><g id="elem_SkillsController"><rect codeLine="17" fill="#F1F1F1" height="122.4844" id="SkillsController" rx="2.5" ry="2.5" style="stroke:#181818;stroke-width:0.5;" width="210" x="122" y="116"/><ellipse cx="175.75" cy="132" fill="#ADD1B2" rx="11" ry="11" style="stroke:#181818;stroke-width:1.0;"/><path d="M178.5156,127.875 Q178.6719,127.6563 178.8594,127.5469 Q179.0469,127.4375 179.2656,127.4375 Q179.6406,127.4375 179.875,127.7031 Q180.1094,127.9531 180.1094,128.5625 L180.1094,130.0156 Q180.1094,130.625 179.875,130.8906 Q179.6406,131.1563 179.2656,131.1563 Q178.9219,131.1563 178.7188,130.9531 Q178.5156,130.7656 178.4063,130.25 Q178.3594,129.8906 178.1719,129.7031 Q177.8438,129.3281 177.2344,129.1094 Q176.625,128.8906 176,128.8906 Q175.2344,128.8906 174.5938,129.2188 Q173.9688,129.5469 173.4688,130.2969 Q172.9844,131.0469 172.9844,132.0781 L172.9844,133.1719 Q172.9844,134.4063 173.875,135.2344 Q174.7656,136.0469 176.3594,136.0469 Q177.2969,136.0469 177.9531,135.7969 Q178.3438,135.6406 178.7656,135.2031 Q179.0313,134.9375 179.1719,134.8594 Q179.3281,134.7813 179.5313,134.7813 Q179.8594,134.7813 180.1094,135.0469 Q180.375,135.2969 180.375,135.6406 Q180.375,135.9844 180.0313,136.3906 Q179.5313,136.9688 178.7344,137.2969 Q177.6563,137.75 176.3594,137.75 Q174.8438,137.75 173.6406,137.125 Q172.6563,136.625 171.9688,135.5625 Q171.2813,134.4844 171.2813,133.2031 L171.2813,132.0469 Q171.2813,130.7188 171.8906,129.5781 Q172.5156,128.4219 173.6094,127.8125 Q174.7031,127.1875 175.9375,127.1875 Q176.6719,127.1875 177.3125,127.3594 Q177.9688,127.5156 178.5156,127.875 Z " fill="#000000"/><text fill="#000000" font-family="sans-serif" font-size="14" lengthAdjust="spacing" textLength="94" x="196.25" y="137.7969">SkillsController</text><line style="stroke:#181818;stroke-width:0.5;" x1="123" x2="331" y1="148" y2="148"/><text fill="#000000" font-family="sans-serif" font-size="14" lengthAdjust="spacing" textLength="129" x="128" y="167.1074">-List&lt;String&gt; skillList</text><text fill="#000000" font-family="sans-serif" font-size="14" lengthAdjust="spacing" textLength="162" x="128" y="185.7285">-Collaborator collaborator</text><line style="stroke:#181818;stroke-width:0.5;" x1="123" x2="331" y1="193.2422" y2="193.2422"/><text fill="#000000" font-family="sans-serif" font-size="14" lengthAdjust="spacing" textLength="123" x="128" y="212.3496">+getCollaborators()</text><text fill="#000000" font-family="sans-serif" font-size="14" lengthAdjust="spacing" textLength="198" x="128" y="230.9707">+addSkills(collaborator,skillList)</text></g><!--class Repositories--><g id="elem_Repositories"><rect codeLine="26" fill="#F1F1F1" height="85.2422" id="Repositories" rx="2.5" ry="2.5" style="stroke:#181818;stroke-width:0.5;" width="196" x="7" y="317"/><ellipse cx="61.25" cy="333" fill="#ADD1B2" rx="11" ry="11" style="stroke:#181818;stroke-width:1.0;"/><path d="M64.0156,328.875 Q64.1719,328.6563 64.3594,328.5469 Q64.5469,328.4375 64.7656,328.4375 Q65.1406,328.4375 65.375,328.7031 Q65.6094,328.9531 65.6094,329.5625 L65.6094,331.0156 Q65.6094,331.625 65.375,331.8906 Q65.1406,332.1563 64.7656,332.1563 Q64.4219,332.1563 64.2188,331.9531 Q64.0156,331.7656 63.9063,331.25 Q63.8594,330.8906 63.6719,330.7031 Q63.3438,330.3281 62.7344,330.1094 Q62.125,329.8906 61.5,329.8906 Q60.7344,329.8906 60.0938,330.2188 Q59.4688,330.5469 58.9688,331.2969 Q58.4844,332.0469 58.4844,333.0781 L58.4844,334.1719 Q58.4844,335.4063 59.375,336.2344 Q60.2656,337.0469 61.8594,337.0469 Q62.7969,337.0469 63.4531,336.7969 Q63.8438,336.6406 64.2656,336.2031 Q64.5313,335.9375 64.6719,335.8594 Q64.8281,335.7813 65.0313,335.7813 Q65.3594,335.7813 65.6094,336.0469 Q65.875,336.2969 65.875,336.6406 Q65.875,336.9844 65.5313,337.3906 Q65.0313,337.9688 64.2344,338.2969 Q63.1563,338.75 61.8594,338.75 Q60.3438,338.75 59.1406,338.125 Q58.1563,337.625 57.4688,336.5625 Q56.7813,335.4844 56.7813,334.2031 L56.7813,333.0469 Q56.7813,331.7188 57.3906,330.5781 Q58.0156,329.4219 59.1094,328.8125 Q60.2031,328.1875 61.4375,328.1875 Q62.1719,328.1875 62.8125,328.3594 Q63.4688,328.5156 64.0156,328.875 Z " fill="#000000"/><text fill="#000000" font-family="sans-serif" font-size="14" lengthAdjust="spacing" textLength="79" x="81.75" y="338.7969">Repositories</text><line style="stroke:#181818;stroke-width:0.5;" x1="8" x2="202" y1="349" y2="349"/><line style="stroke:#181818;stroke-width:0.5;" x1="8" x2="202" y1="357" y2="357"/><text fill="#000000" font-family="sans-serif" font-size="14" lengthAdjust="spacing" textLength="91" x="13" y="376.1074">+getInstance()</text><text fill="#000000" font-family="sans-serif" font-size="14" lengthAdjust="spacing" textLength="184" x="13" y="394.7285">+getCollaboratorRepository()</text></g><!--class CollaboratorRepository--><g id="elem_CollaboratorRepository"><rect codeLine="31" fill="#F1F1F1" height="85.2422" id="CollaboratorRepository" rx="2.5" ry="2.5" style="stroke:#181818;stroke-width:0.5;" width="210" x="84" y="463"/><ellipse cx="113.4" cy="479" fill="#ADD1B2" rx="11" ry="11" style="stroke:#181818;stroke-width:1.0;"/><path d="M116.1656,474.875 Q116.3219,474.6563 116.5094,474.5469 Q116.6969,474.4375 116.9156,474.4375 Q117.2906,474.4375 117.525,474.7031 Q117.7594,474.9531 117.7594,475.5625 L117.7594,477.0156 Q117.7594,477.625 117.525,477.8906 Q117.2906,478.1563 116.9156,478.1563 Q116.5719,478.1563 116.3688,477.9531 Q116.1656,477.7656 116.0563,477.25 Q116.0094,476.8906 115.8219,476.7031 Q115.4938,476.3281 114.8844,476.1094 Q114.275,475.8906 113.65,475.8906 Q112.8844,475.8906 112.2438,476.2188 Q111.6188,476.5469 111.1188,477.2969 Q110.6344,478.0469 110.6344,479.0781 L110.6344,480.1719 Q110.6344,481.4063 111.525,482.2344 Q112.4156,483.0469 114.0094,483.0469 Q114.9469,483.0469 115.6031,482.7969 Q115.9938,482.6406 116.4156,482.2031 Q116.6813,481.9375 116.8219,481.8594 Q116.9781,481.7813 117.1813,481.7813 Q117.5094,481.7813 117.7594,482.0469 Q118.025,482.2969 118.025,482.6406 Q118.025,482.9844 117.6813,483.3906 Q117.1813,483.9688 116.3844,484.2969 Q115.3063,484.75 114.0094,484.75 Q112.4938,484.75 111.2906,484.125 Q110.3063,483.625 109.6188,482.5625 Q108.9313,481.4844 108.9313,480.2031 L108.9313,479.0469 Q108.9313,477.7188 109.5406,476.5781 Q110.1656,475.4219 111.2594,474.8125 Q112.3531,474.1875 113.5875,474.1875 Q114.3219,474.1875 114.9625,474.3594 Q115.6188,474.5156 116.1656,474.875 Z " fill="#000000"/><text fill="#000000" font-family="sans-serif" font-size="14" lengthAdjust="spacing" textLength="146" x="130.6" y="484.7969">CollaboratorRepository</text><line style="stroke:#181818;stroke-width:0.5;" x1="85" x2="293" y1="495" y2="495"/><line style="stroke:#181818;stroke-width:0.5;" x1="85" x2="293" y1="503" y2="503"/><text fill="#000000" font-family="sans-serif" font-size="14" lengthAdjust="spacing" textLength="131" x="90" y="522.1074">+getAllCollaborator()</text><text fill="#000000" font-family="sans-serif" font-size="14" lengthAdjust="spacing" textLength="198" x="90" y="540.7285">+addSkills(collaborator,skillList)</text></g><!--link RegisterSkillUI to SkillsController--><g id="link_RegisterSkillUI_SkillsController"><path codeLine="36" d="M227,55.14 C227,71.59 227,88.5 227,109.95 " fill="none" id="RegisterSkillUI-to-SkillsController" style="stroke:#181818;stroke-width:1.0;stroke-dasharray:7.0,7.0;"/><polygon fill="#181818" points="227,115.95,231,106.95,227,110.95,223,106.95,227,115.95" style="stroke:#181818;stroke-width:1.0;"/></g><!--link SkillsController to Repositories--><g id="link_SkillsController_Repositories"><path codeLine="37" d="M186.38,238.1 C168.91,263.95 152.2801,288.5491 136.4901,311.9091 " fill="none" id="SkillsController-to-Repositories" style="stroke:#181818;stroke-width:1.0;stroke-dasharray:7.0,7.0;"/><polygon fill="#181818" points="133.13,316.88,141.484,311.6637,135.93,312.7376,134.8561,307.1836,133.13,316.88" style="stroke:#181818;stroke-width:1.0;"/><text fill="#000000" font-family="sans-serif" font-size="13" lengthAdjust="spacing" textLength="67" x="167" y="283.0283">repositories</text></g><!--link SkillsController to CollaboratorRepository--><g id="link_SkillsController_CollaboratorRepository"><path codeLine="38" d="M237.67,238.03 C240.61,254.54 243,268 243,268 C243,268 243,287 243,287 C243,287 221,402 221,402 C221,402 212.668,428.7026 203.808,457.0826 " fill="none" id="SkillsController-to-CollaboratorRepository" style="stroke:#181818;stroke-width:1.0;stroke-dasharray:7.0,7.0;"/><polygon fill="#181818" points="202.02,462.81,208.5203,455.411,203.51,458.0372,200.8838,453.0269,202.02,462.81" style="stroke:#181818;stroke-width:1.0;"/><text fill="#000000" font-family="sans-serif" font-size="13" lengthAdjust="spacing" textLength="129" x="238" y="365.0283">collaboratorRepository</text></g><!--link Repositories to CollaboratorRepository--><g id="link_Repositories_CollaboratorRepository"><path codeLine="39" d="M129.3,402.15 C140.44,421.26 150.5959,438.6678 161.7359,457.7578 " fill="none" id="Repositories-to-CollaboratorRepository" style="stroke:#181818;stroke-width:1.0;"/><polygon fill="#181818" points="164.76,462.94,163.6787,453.1507,162.2399,458.6215,156.7691,457.1828,164.76,462.94" style="stroke:#181818;stroke-width:1.0;"/><text fill="#000000" font-family="sans-serif" font-size="13" lengthAdjust="spacing" textLength="19" x="140.3827" y="451.8345">1...</text></g><!--link CollaboratorRepository to CollaboratorRepository--><g id="link_CollaboratorRepository_CollaboratorRepository"><path codeLine="40" d="M294.01,492.6 C314.47,494.1 329,498.4 329,505.5 C329,512.6 320.4539,516.4613 299.9939,517.9613 " fill="none" id="CollaboratorRepository-to-CollaboratorRepository" style="stroke:#181818;stroke-width:1.0;"/><polygon fill="#181818" points="294.01,518.4,303.2784,521.7312,298.9966,518.0344,302.6934,513.7526,294.01,518.4" style="stroke:#181818;stroke-width:1.0;"/><text fill="#000000" font-family="sans-serif" font-size="13" lengthAdjust="spacing" textLength="49" x="335" y="511.0283">instance</text></g><!--SRC=[ZLBDRi8m3BxdAImkBHfKsnLDI8WJqavKUu2GcX0HuYencZgqTrzQVXfOaPQR_VtO-P8ix8shfPS7E90ZjVDqG61_HD4ZjLHxgR7anY9uL2oTjYaXx6H5NyPfs4eRKiGQXzpK23NPfYr4DW2IPnA9IbaPmeBPcysHSQN8bUORuLM8pEAMWGcyqJk6ohJh678Ydau5QzGcCFfoRwpzN8cJ-Bb2NIiioR4dQz573EAPmaTKl9TndDDp22shxLp0PUJA3Nd9v44bXUW8Bw2HKqx8nsT0LjLvOfwg9ZV_SR_P6ciA9g860vnwtvKBCMo5Lyl7MJTTaoTkmupKTs5jIhhP_slbXuIXAEP_etriTApqchFua_fgc3zyaTdTA_HzSPSYJATp6BqLHJ5wuYEUvDGAdqqsbmVv1G00]--></g></svg>