<?xml version="1.0" encoding="us-ascii" standalone="no"?><svg xmlns="http://www.w3.org/2000/svg" xmlns:xlink="http://www.w3.org/1999/xlink" contentStyleType="text/css" height="933px" preserveAspectRatio="none" style="width:1311px;height:933px;background:#FFFFFF;" version="1.1" viewBox="0 0 1311 933" width="1311px" zoomAndPan="magnify"><defs/><g><rect fill="#FFFFFF" height="739.0234" style="stroke:#181818;stroke-width:1.0;" width="10" x="106" y="93.6211"/><rect fill="#FFFFFF" height="325.2402" style="stroke:#181818;stroke-width:1.0;" width="10" x="468" y="116.9121"/><rect fill="#FFFFFF" height="31.291" style="stroke:#181818;stroke-width:1.0;" width="10" x="468" y="473.4434"/><rect fill="#FFFFFF" height="31.291" style="stroke:#181818;stroke-width:1.0;" width="10" x="468" y="562.3164"/><rect fill="#FFFFFF" height="216.7461" style="stroke:#181818;stroke-width:1.0;" width="10" x="468" y="624.8984"/><rect fill="#FFFFFF" height="219.0371" style="stroke:#181818;stroke-width:1.0;" width="10" x="695" y="191.8242"/><rect fill="#FFFFFF" height="138.1641" style="stroke:#181818;stroke-width:1.0;" width="10" x="695" y="663.1895"/><rect fill="#FFFFFF" height="31.291" style="stroke:#181818;stroke-width:1.0;" width="10" x="836" y="223.1152"/><rect fill="#FFFFFF" height="31.291" style="stroke:#181818;stroke-width:1.0;" width="10" x="943" y="285.6973"/><rect fill="#FFFFFF" height="31.291" style="stroke:#181818;stroke-width:1.0;" width="10" x="1089" y="348.2793"/><rect fill="#FFFFFF" height="75.582" style="stroke:#181818;stroke-width:1.0;" width="10" x="1089" y="694.4805"/><rect fill="none" height="113.1641" style="stroke:#000000;stroke-width:1.5;" width="530.5" x="10" y="519.7344"/><line style="stroke:#181818;stroke-width:0.5;stroke-dasharray:5.0,5.0;" x1="111" x2="111" y1="83.6211" y2="850.6445"/><line style="stroke:#181818;stroke-width:0.5;stroke-dasharray:5.0,5.0;" x1="472.5" x2="472.5" y1="83.6211" y2="850.6445"/><line style="stroke:#181818;stroke-width:0.5;stroke-dasharray:5.0,5.0;" x1="699.5" x2="699.5" y1="156.7227" y2="850.6445"/><line style="stroke:#181818;stroke-width:0.5;stroke-dasharray:5.0,5.0;" x1="840.5" x2="840.5" y1="83.6211" y2="850.6445"/><line style="stroke:#181818;stroke-width:0.5;stroke-dasharray:5.0,5.0;" x1="947.5" x2="947.5" y1="83.6211" y2="850.6445"/><line style="stroke:#181818;stroke-width:0.5;stroke-dasharray:5.0,5.0;" x1="1093.5" x2="1093.5" y1="83.6211" y2="850.6445"/><text fill="#000000" font-family="sans-serif" font-size="14" lengthAdjust="spacing" textLength="176" x="20" y="80.1074">Human Resources Manager</text><ellipse cx="111" cy="13.5" fill="#E3E3E3" rx="8" ry="8" style="stroke:#181818;stroke-width:0.5;"/><path d="M111,21.5 L111,48.5 M98,29.5 L124,29.5 M111,48.5 L98,63.5 M111,48.5 L124,63.5 " fill="none" style="stroke:#181818;stroke-width:0.5;"/><text fill="#000000" font-family="sans-serif" font-size="14" lengthAdjust="spacing" textLength="176" x="20" y="864.752">Human Resources Manager</text><ellipse cx="111" cy="876.7656" fill="#E3E3E3" rx="8" ry="8" style="stroke:#181818;stroke-width:0.5;"/><path d="M111,884.7656 L111,911.7656 M98,892.7656 L124,892.7656 M111,911.7656 L98,926.7656 M111,911.7656 L124,926.7656 " fill="none" style="stroke:#181818;stroke-width:0.5;"/><rect fill="#E3E3E3" height="32.6211" rx="2.5" ry="2.5" style="stroke:#181818;stroke-width:0.5;" width="115" x="415.5" y="50"/><text fill="#000000" font-family="sans-serif" font-size="14" lengthAdjust="spacing" textLength="101" x="422.5" y="72.1074">:RegisterSkillsUI</text><rect fill="#E3E3E3" height="32.6211" rx="2.5" ry="2.5" style="stroke:#181818;stroke-width:0.5;" width="115" x="415.5" y="849.6445"/><text fill="#000000" font-family="sans-serif" font-size="14" lengthAdjust="spacing" textLength="101" x="422.5" y="871.752">:RegisterSkillsUI</text><rect fill="#E3E3E3" height="32.6211" rx="2.5" ry="2.5" style="stroke:#181818;stroke-width:0.5;" width="165" x="617.5" y="849.6445"/><text fill="#000000" font-family="sans-serif" font-size="14" lengthAdjust="spacing" textLength="151" x="624.5" y="871.752">:RegisterSkillsController</text><rect fill="#E3E3E3" height="32.6211" rx="2.5" ry="2.5" style="stroke:#181818;stroke-width:0.5;" width="97" x="792.5" y="50"/><text fill="#000000" font-family="sans-serif" font-size="14" lengthAdjust="spacing" textLength="83" x="799.5" y="72.1074">:Repositories</text><rect fill="#E3E3E3" height="32.6211" rx="2.5" ry="2.5" style="stroke:#181818;stroke-width:0.5;" width="97" x="792.5" y="849.6445"/><text fill="#000000" font-family="sans-serif" font-size="14" lengthAdjust="spacing" textLength="83" x="799.5" y="871.752">:Repositories</text><rect fill="#E3E3E3" height="51.2422" rx="2.5" ry="2.5" style="stroke:#181818;stroke-width:0.5;" width="97" x="899.5" y="31.3789"/><text fill="#000000" font-family="sans-serif" font-size="14" lengthAdjust="spacing" textLength="74" x="911" y="53.4863">repositories</text><text fill="#000000" font-family="sans-serif" font-size="14" lengthAdjust="spacing" textLength="83" x="906.5" y="72.1074">:Repositories</text><rect fill="#E3E3E3" height="51.2422" rx="2.5" ry="2.5" style="stroke:#181818;stroke-width:0.5;" width="97" x="899.5" y="849.6445"/><text fill="#000000" font-family="sans-serif" font-size="14" lengthAdjust="spacing" textLength="74" x="911" y="871.752">repositories</text><text fill="#000000" font-family="sans-serif" font-size="14" lengthAdjust="spacing" textLength="83" x="906.5" y="890.373">:Repositories</text><rect fill="#E3E3E3" height="51.2422" rx="2.5" ry="2.5" style="stroke:#181818;stroke-width:0.5;" width="175" x="1006.5" y="31.3789"/><text fill="#000000" font-family="sans-serif" font-size="14" lengthAdjust="spacing" textLength="152" x="1018" y="53.4863">taskCategoryRepository</text><text fill="#000000" font-family="sans-serif" font-size="14" lengthAdjust="spacing" textLength="161" x="1013.5" y="72.1074">:TaskCategoryRepository</text><rect fill="#E3E3E3" height="51.2422" rx="2.5" ry="2.5" style="stroke:#181818;stroke-width:0.5;" width="175" x="1006.5" y="849.6445"/><text fill="#000000" font-family="sans-serif" font-size="14" lengthAdjust="spacing" textLength="152" x="1018" y="871.752">taskCategoryRepository</text><text fill="#000000" font-family="sans-serif" font-size="14" lengthAdjust="spacing" textLength="161" x="1013.5" y="890.373">:TaskCategoryRepository</text><rect fill="#FFFFFF" height="739.0234" style="stroke:#181818;stroke-width:1.0;" width="10" x="106" y="93.6211"/><rect fill="#FFFFFF" height="325.2402" style="stroke:#181818;stroke-width:1.0;" width="10" x="468" y="116.9121"/><rect fill="#FFFFFF" height="31.291" style="stroke:#181818;stroke-width:1.0;" width="10" x="468" y="473.4434"/><rect fill="#FFFFFF" height="31.291" style="stroke:#181818;stroke-width:1.0;" width="10" x="468" y="562.3164"/><rect fill="#FFFFFF" height="216.7461" style="stroke:#181818;stroke-width:1.0;" width="10" x="468" y="624.8984"/><rect fill="#FFFFFF" height="219.0371" style="stroke:#181818;stroke-width:1.0;" width="10" x="695" y="191.8242"/><rect fill="#FFFFFF" height="138.1641" style="stroke:#181818;stroke-width:1.0;" width="10" x="695" y="663.1895"/><rect fill="#FFFFFF" height="31.291" style="stroke:#181818;stroke-width:1.0;" width="10" x="836" y="223.1152"/><rect fill="#FFFFFF" height="31.291" style="stroke:#181818;stroke-width:1.0;" width="10" x="943" y="285.6973"/><rect fill="#FFFFFF" height="31.291" style="stroke:#181818;stroke-width:1.0;" width="10" x="1089" y="348.2793"/><rect fill="#FFFFFF" height="75.582" style="stroke:#181818;stroke-width:1.0;" width="10" x="1089" y="694.4805"/><polygon fill="#181818" points="456,112.9121,466,116.9121,456,120.9121,460,116.9121" style="stroke:#181818;stroke-width:1.0;"/><line style="stroke:#181818;stroke-width:1.0;" x1="116" x2="462" y1="116.9121" y2="116.9121"/><text fill="#000000" font-family="sans-serif" font-size="13" font-weight="bold" lengthAdjust="spacing" textLength="7" x="123" y="111.6494">1</text><text fill="#000000" font-family="sans-serif" font-size="13" lengthAdjust="spacing" textLength="322" x="134" y="111.6494">asks to register a new skill that a collaborator may have</text><polygon fill="#181818" points="605.5,144.2031,615.5,148.2031,605.5,152.2031,609.5,148.2031" style="stroke:#181818;stroke-width:1.0;"/><line style="stroke:#181818;stroke-width:1.0;" x1="478" x2="611.5" y1="148.2031" y2="148.2031"/><text fill="#000000" font-family="sans-serif" font-size="13" font-weight="bold" lengthAdjust="spacing" textLength="7" x="485" y="142.9404">2</text><text fill="#000000" font-family="sans-serif" font-size="13" lengthAdjust="spacing" textLength="36" x="496" y="142.9404">create</text><rect fill="#E3E3E3" height="32.6211" rx="2.5" ry="2.5" style="stroke:#181818;stroke-width:0.5;" width="165" x="617.5" y="124.9121"/><text fill="#000000" font-family="sans-serif" font-size="14" lengthAdjust="spacing" textLength="151" x="624.5" y="147.0195">:RegisterSkillsController</text><polygon fill="#181818" points="683,187.8242,693,191.8242,683,195.8242,687,191.8242" style="stroke:#181818;stroke-width:1.0;"/><line style="stroke:#181818;stroke-width:1.0;" x1="478" x2="689" y1="191.8242" y2="191.8242"/><text fill="#000000" font-family="sans-serif" font-size="13" font-weight="bold" lengthAdjust="spacing" textLength="7" x="485" y="186.5615">3</text><text fill="#000000" font-family="sans-serif" font-size="13" lengthAdjust="spacing" textLength="126" x="496" y="186.5615">get all skill categories</text><polygon fill="#181818" points="824,219.1152,834,223.1152,824,227.1152,828,223.1152" style="stroke:#181818;stroke-width:1.0;"/><line style="stroke:#181818;stroke-width:1.0;" x1="705" x2="830" y1="223.1152" y2="223.1152"/><text fill="#000000" font-family="sans-serif" font-size="13" font-weight="bold" lengthAdjust="spacing" textLength="7" x="712" y="217.8525">4</text><text fill="#000000" font-family="sans-serif" font-size="13" lengthAdjust="spacing" textLength="79" x="723" y="217.8525">get Instance()</text><polygon fill="#181818" points="716,250.4063,706,254.4063,716,258.4063,712,254.4063" style="stroke:#181818;stroke-width:1.0;"/><line style="stroke:#181818;stroke-width:1.0;stroke-dasharray:2.0,2.0;" x1="710" x2="840" y1="254.4063" y2="254.4063"/><text fill="#000000" font-family="sans-serif" font-size="13" font-weight="bold" lengthAdjust="spacing" textLength="7" x="722" y="249.1436">5</text><text fill="#000000" font-family="sans-serif" font-size="13" lengthAdjust="spacing" textLength="67" x="733" y="249.1436">repositories</text><polygon fill="#181818" points="931,281.6973,941,285.6973,931,289.6973,935,285.6973" style="stroke:#181818;stroke-width:1.0;"/><line style="stroke:#181818;stroke-width:1.0;" x1="705" x2="937" y1="285.6973" y2="285.6973"/><text fill="#000000" font-family="sans-serif" font-size="13" font-weight="bold" lengthAdjust="spacing" textLength="7" x="712" y="280.4346">6</text><text fill="#000000" font-family="sans-serif" font-size="13" lengthAdjust="spacing" textLength="157" x="723" y="280.4346">getCollaboratorRepository()</text><polygon fill="#181818" points="716,312.9883,706,316.9883,716,320.9883,712,316.9883" style="stroke:#181818;stroke-width:1.0;"/><line style="stroke:#181818;stroke-width:1.0;stroke-dasharray:2.0,2.0;" x1="710" x2="947" y1="316.9883" y2="316.9883"/><text fill="#000000" font-family="sans-serif" font-size="13" font-weight="bold" lengthAdjust="spacing" textLength="7" x="722" y="311.7256">7</text><text fill="#000000" font-family="sans-serif" font-size="13" lengthAdjust="spacing" textLength="131" x="733" y="311.7256">CollaboratorRepository</text><polygon fill="#181818" points="1077,344.2793,1087,348.2793,1077,352.2793,1081,348.2793" style="stroke:#181818;stroke-width:1.0;"/><line style="stroke:#181818;stroke-width:1.0;" x1="705" x2="1083" y1="348.2793" y2="348.2793"/><text fill="#000000" font-family="sans-serif" font-size="13" font-weight="bold" lengthAdjust="spacing" textLength="7" x="712" y="343.0166">8</text><text fill="#000000" font-family="sans-serif" font-size="13" lengthAdjust="spacing" textLength="117" x="723" y="343.0166">getAllCollaborators()</text><polygon fill="#181818" points="716,375.5703,706,379.5703,716,383.5703,712,379.5703" style="stroke:#181818;stroke-width:1.0;"/><line style="stroke:#181818;stroke-width:1.0;stroke-dasharray:2.0,2.0;" x1="710" x2="1093" y1="379.5703" y2="379.5703"/><text fill="#000000" font-family="sans-serif" font-size="13" font-weight="bold" lengthAdjust="spacing" textLength="7" x="722" y="374.3076">9</text><text fill="#000000" font-family="sans-serif" font-size="13" lengthAdjust="spacing" textLength="95" x="733" y="374.3076">collaboratorsList</text><polygon fill="#181818" points="489,406.8613,479,410.8613,489,414.8613,485,410.8613" style="stroke:#181818;stroke-width:1.0;"/><line style="stroke:#181818;stroke-width:1.0;stroke-dasharray:2.0,2.0;" x1="483" x2="699" y1="410.8613" y2="410.8613"/><text fill="#000000" font-family="sans-serif" font-size="13" font-weight="bold" lengthAdjust="spacing" textLength="14" x="495" y="405.5986">10</text><text fill="#000000" font-family="sans-serif" font-size="13" lengthAdjust="spacing" textLength="88" x="513" y="405.5986">collaboratorList</text><polygon fill="#181818" points="127,438.1523,117,442.1523,127,446.1523,123,442.1523" style="stroke:#181818;stroke-width:1.0;"/><line style="stroke:#181818;stroke-width:1.0;stroke-dasharray:2.0,2.0;" x1="121" x2="472" y1="442.1523" y2="442.1523"/><text fill="#000000" font-family="sans-serif" font-size="13" font-weight="bold" lengthAdjust="spacing" textLength="14" x="133" y="436.8896">11</text><text fill="#000000" font-family="sans-serif" font-size="13" lengthAdjust="spacing" textLength="226" x="151" y="436.8896">shows the list of collaborators to select</text><polygon fill="#181818" points="456,469.4434,466,473.4434,456,477.4434,460,473.4434" style="stroke:#181818;stroke-width:1.0;"/><line style="stroke:#181818;stroke-width:1.0;" x1="116" x2="462" y1="473.4434" y2="473.4434"/><text fill="#000000" font-family="sans-serif" font-size="13" font-weight="bold" lengthAdjust="spacing" textLength="14" x="123" y="468.1807">12</text><text fill="#000000" font-family="sans-serif" font-size="13" lengthAdjust="spacing" textLength="124" x="141" y="468.1807">selects a collaborator</text><polygon fill="#181818" points="461,500.7344,471,504.7344,461,508.7344,465,504.7344" style="stroke:#181818;stroke-width:1.0;"/><line style="stroke:#181818;stroke-width:1.0;stroke-dasharray:2.0,2.0;" x1="116" x2="467" y1="504.7344" y2="504.7344"/><text fill="#000000" font-family="sans-serif" font-size="13" font-weight="bold" lengthAdjust="spacing" textLength="14" x="123" y="499.4717">13</text><text fill="#000000" font-family="sans-serif" font-size="13" lengthAdjust="spacing" textLength="186" x="141" y="499.4717">requests skill(s) to be registered</text><path d="M10,519.7344 L83,519.7344 L83,529.0254 L73,539.0254 L10,539.0254 L10,519.7344 " fill="#EEEEEE" style="stroke:#000000;stroke-width:1.5;"/><rect fill="none" height="113.1641" style="stroke:#000000;stroke-width:1.5;" width="530.5" x="10" y="519.7344"/><text fill="#000000" font-family="sans-serif" font-size="13" font-weight="bold" lengthAdjust="spacing" textLength="28" x="25" y="534.7627">loop</text><text fill="#000000" font-family="sans-serif" font-size="11" font-weight="bold" lengthAdjust="spacing" textLength="114" x="98" y="533.6045">[while HRM enters y]</text><polygon fill="#181818" points="456,558.3164,466,562.3164,456,566.3164,460,562.3164" style="stroke:#181818;stroke-width:1.0;"/><line style="stroke:#181818;stroke-width:1.0;" x1="116" x2="462" y1="562.3164" y2="562.3164"/><text fill="#000000" font-family="sans-serif" font-size="13" font-weight="bold" lengthAdjust="spacing" textLength="14" x="123" y="557.0537">14</text><text fill="#000000" font-family="sans-serif" font-size="13" lengthAdjust="spacing" textLength="134" x="141" y="557.0537">selects a skill category</text><polygon fill="#181818" points="127,589.6074,117,593.6074,127,597.6074,123,593.6074" style="stroke:#181818;stroke-width:1.0;"/><line style="stroke:#181818;stroke-width:1.0;stroke-dasharray:2.0,2.0;" x1="121" x2="472" y1="593.6074" y2="593.6074"/><text fill="#000000" font-family="sans-serif" font-size="13" font-weight="bold" lengthAdjust="spacing" textLength="14" x="133" y="588.3447">15</text><text fill="#000000" font-family="sans-serif" font-size="13" lengthAdjust="spacing" textLength="262" x="151" y="588.3447">asks if there are more skill(s) to be registered</text><polygon fill="#181818" points="456,620.8984,466,624.8984,456,628.8984,460,624.8984" style="stroke:#181818;stroke-width:1.0;"/><line style="stroke:#181818;stroke-width:1.0;" x1="116" x2="462" y1="624.8984" y2="624.8984"/><text fill="#000000" font-family="sans-serif" font-size="13" font-weight="bold" lengthAdjust="spacing" textLength="14" x="123" y="619.6357">16</text><text fill="#000000" font-family="sans-serif" font-size="13" lengthAdjust="spacing" textLength="262" x="141" y="619.6357">enter x to stop or y to continue entering skills</text><polygon fill="#181818" points="683,659.1895,693,663.1895,683,667.1895,687,663.1895" style="stroke:#181818;stroke-width:1.0;"/><line style="stroke:#181818;stroke-width:1.0;" x1="478" x2="689" y1="663.1895" y2="663.1895"/><text fill="#000000" font-family="sans-serif" font-size="13" font-weight="bold" lengthAdjust="spacing" textLength="14" x="485" y="657.9268">17</text><text fill="#000000" font-family="sans-serif" font-size="13" lengthAdjust="spacing" textLength="180" x="503" y="657.9268">addSkills(collaborator, skillList)</text><polygon fill="#181818" points="1077,690.4805,1087,694.4805,1077,698.4805,1081,694.4805" style="stroke:#181818;stroke-width:1.0;"/><line style="stroke:#181818;stroke-width:1.0;" x1="705" x2="1083" y1="694.4805" y2="694.4805"/><text fill="#000000" font-family="sans-serif" font-size="13" font-weight="bold" lengthAdjust="spacing" textLength="14" x="712" y="689.2178">18</text><text fill="#000000" font-family="sans-serif" font-size="13" lengthAdjust="spacing" textLength="180" x="730" y="689.2178">addSkills(collaborator, skillList)</text><line style="stroke:#181818;stroke-width:1.0;" x1="1099" x2="1141" y1="725.7715" y2="725.7715"/><line style="stroke:#181818;stroke-width:1.0;" x1="1141" x2="1141" y1="725.7715" y2="738.7715"/><line style="stroke:#181818;stroke-width:1.0;" x1="1100" x2="1141" y1="738.7715" y2="738.7715"/><polygon fill="#181818" points="1110,734.7715,1100,738.7715,1110,742.7715,1106,738.7715" style="stroke:#181818;stroke-width:1.0;"/><text fill="#000000" font-family="sans-serif" font-size="13" font-weight="bold" lengthAdjust="spacing" textLength="14" x="1106" y="720.5088">19</text><text fill="#000000" font-family="sans-serif" font-size="13" lengthAdjust="spacing" textLength="180" x="1124" y="720.5088">addSkills(collaborator, skillList)</text><polygon fill="#181818" points="716,766.0625,706,770.0625,716,774.0625,712,770.0625" style="stroke:#181818;stroke-width:1.0;"/><line style="stroke:#181818;stroke-width:1.0;stroke-dasharray:2.0,2.0;" x1="710" x2="1093" y1="770.0625" y2="770.0625"/><text fill="#000000" font-family="sans-serif" font-size="13" font-weight="bold" lengthAdjust="spacing" textLength="14" x="722" y="764.7998">20</text><text fill="#000000" font-family="sans-serif" font-size="13" lengthAdjust="spacing" textLength="106" x="740" y="764.7998">operation success</text><polygon fill="#181818" points="489,797.3535,479,801.3535,489,805.3535,485,801.3535" style="stroke:#181818;stroke-width:1.0;"/><line style="stroke:#181818;stroke-width:1.0;stroke-dasharray:2.0,2.0;" x1="483" x2="699" y1="801.3535" y2="801.3535"/><text fill="#000000" font-family="sans-serif" font-size="13" font-weight="bold" lengthAdjust="spacing" textLength="14" x="495" y="796.0908">21</text><text fill="#000000" font-family="sans-serif" font-size="13" lengthAdjust="spacing" textLength="106" x="513" y="796.0908">operation success</text><polygon fill="#181818" points="122,828.6445,112,832.6445,122,836.6445,118,832.6445" style="stroke:#181818;stroke-width:1.0;"/><line style="stroke:#181818;stroke-width:1.0;stroke-dasharray:2.0,2.0;" x1="116" x2="467" y1="832.6445" y2="832.6445"/><text fill="#000000" font-family="sans-serif" font-size="13" font-weight="bold" lengthAdjust="spacing" textLength="14" x="128" y="827.3818">22</text><text fill="#000000" font-family="sans-serif" font-size="13" lengthAdjust="spacing" textLength="158" x="146" y="827.3818">displays operation success</text><!--SRC=[dLLDR-8m4BtdLuou5AfbkKUhbLQv56bxWVQs5-CCYOLZPprEQVxzZksMXX1ejP4IXVYzDr_FvgxslgLyjMgrCBvhz7TfcnNXtmwDn6MfHEL4az51cLRm6pJMM5axso1ur-5WfHNo82hS-buZE9HUc4eF0LIBqXwLgM0lD66MYSvRqpKxT5bsLwiIOM-jtzdNJ4Xl7SmUkaOOs23PpaaaU1I68xWP28A7pMF6kbv9rNBgCCitM2dowBO7fJKzhoDiitrUtyGLrdXdjNwJtMoB2tXhIN4-2Yb1pW5kiFx7JC17U2_eK0YFbNNz2Tmpysbo8Mey5PiiD4Mzy7eidMzO_epbvOmu47ZBNK-LWG23Hw1G8FXQUFuWkKQniqw4pZQYXrgyu8Tcx1Fm5LwISd5_duDqoClZbHmgP55MJp5aIfjBZiY1QX4_97eHsOcxDiG6aJXVd00Vh3FEZ-Koa8PjFgsNU8KK0gL8nQ3kZwvEXfs8onhJ0fCfNEJ0Suj9_D9wA4DJuSECn_4ZVpWv-iq3dehzpev3Ygc7AGsf9-OmOvvFS58YC3FdNMgFRAOQGJC1xFuyVh0PeURjdPtfi7lEB9amD3BUo6-dP9aQ9iod3Z4dUcfEYn1hXoTNOvbbsjeMZhNISHS06lvEq7yrbpEtzjabvxqHRtjAxKCd78BWkx7yk9xRpHHYel0Qk-Uv1Dw3VVWX-VHHfiC426TZ342ZrD2KbrjGb6KwmkR35dzB2c7QYqyt8xi6uCjAL-qQhY3rNueZlpFPjiXmPGrG9_dSfrk6lpJzDFs6wtCe5V4VO4yJt04lSABMwF4F]--></g></svg>