<?xml version="1.0" encoding="us-ascii" standalone="no"?><svg xmlns="http://www.w3.org/2000/svg" xmlns:xlink="http://www.w3.org/1999/xlink" contentStyleType="text/css" height="543px" preserveAspectRatio="none" style="width:930px;height:543px;background:#FFFFFF;" version="1.1" viewBox="0 0 930 543" width="930px" zoomAndPan="magnify"><defs/><g><!--class Collaborator--><g id="elem_Collaborator"><rect codeLine="3" fill="#FFFFFF" height="180.1172" id="Collaborator" rx="2.5" ry="2.5" style="stroke:#000000;stroke-width:1.0;" width="166" x="117.5" y="356"/><ellipse cx="153.9" cy="370" fill="#FFFFFF" rx="9" ry="9" style="stroke:#000000;stroke-width:1.0;"/><path d="M156.6656,365.875 Q156.8219,365.6563 157.0094,365.5469 Q157.1969,365.4375 157.4156,365.4375 Q157.7906,365.4375 158.025,365.7031 Q158.2594,365.9531 158.2594,366.5625 L158.2594,368.0156 Q158.2594,368.625 158.025,368.8906 Q157.7906,369.1563 157.4156,369.1563 Q157.0719,369.1563 156.8688,368.9531 Q156.6656,368.7656 156.5563,368.25 Q156.5094,367.8906 156.3219,367.7031 Q155.9938,367.3281 155.3844,367.1094 Q154.775,366.8906 154.15,366.8906 Q153.3844,366.8906 152.7438,367.2188 Q152.1188,367.5469 151.6188,368.2969 Q151.1344,369.0469 151.1344,370.0781 L151.1344,371.1719 Q151.1344,372.4063 152.025,373.2344 Q152.9156,374.0469 154.5094,374.0469 Q155.4469,374.0469 156.1031,373.7969 Q156.4938,373.6406 156.9156,373.2031 Q157.1813,372.9375 157.3219,372.8594 Q157.4781,372.7813 157.6813,372.7813 Q158.0094,372.7813 158.2594,373.0469 Q158.525,373.2969 158.525,373.6406 Q158.525,373.9844 158.1813,374.3906 Q157.6813,374.9688 156.8844,375.2969 Q155.8063,375.75 154.5094,375.75 Q152.9938,375.75 151.7906,375.125 Q150.8063,374.625 150.1188,373.5625 Q149.4313,372.4844 149.4313,371.2031 L149.4313,370.0469 Q149.4313,368.7188 150.0406,367.5781 Q150.6656,366.4219 151.7594,365.8125 Q152.8531,365.1875 154.0875,365.1875 Q154.8219,365.1875 155.4625,365.3594 Q156.1188,365.5156 156.6656,365.875 Z " fill="#000000"/><text fill="#000000" font-family="Verdana" font-size="14" lengthAdjust="spacing" textLength="86" x="171.1" y="375.5679">Collaborator</text><line style="stroke:#000000;stroke-width:1.0;" x1="118.5" x2="282.5" y1="384" y2="384"/><ellipse cx="128.5" cy="398.0073" fill="none" rx="3" ry="3" style="stroke:#000000;stroke-width:1.0;"/><text fill="#000000" font-family="Verdana" font-size="14" lengthAdjust="spacing" textLength="86" x="135.5" y="402.0752">String name</text><ellipse cx="128.5" cy="415.022" fill="none" rx="3" ry="3" style="stroke:#000000;stroke-width:1.0;"/><text fill="#000000" font-family="Verdana" font-size="14" lengthAdjust="spacing" textLength="102" x="135.5" y="419.0898">Date birthdate</text><ellipse cx="128.5" cy="432.0366" fill="none" rx="3" ry="3" style="stroke:#000000;stroke-width:1.0;"/><text fill="#000000" font-family="Verdana" font-size="14" lengthAdjust="spacing" textLength="141" x="135.5" y="436.1045">Date admissionDate</text><ellipse cx="128.5" cy="449.0513" fill="none" rx="3" ry="3" style="stroke:#000000;stroke-width:1.0;"/><text fill="#000000" font-family="Verdana" font-size="14" lengthAdjust="spacing" textLength="104" x="135.5" y="453.1191">String address</text><ellipse cx="128.5" cy="466.0659" fill="none" rx="3" ry="3" style="stroke:#000000;stroke-width:1.0;"/><text fill="#000000" font-family="Verdana" font-size="14" lengthAdjust="spacing" textLength="128" x="135.5" y="470.1338">String contactInfo</text><ellipse cx="128.5" cy="483.0806" fill="none" rx="3" ry="3" style="stroke:#000000;stroke-width:1.0;"/><text fill="#000000" font-family="Verdana" font-size="14" lengthAdjust="spacing" textLength="121" x="135.5" y="487.1484">String idDocType</text><ellipse cx="128.5" cy="500.0952" fill="none" rx="3" ry="3" style="stroke:#000000;stroke-width:1.0;"/><text fill="#000000" font-family="Verdana" font-size="14" lengthAdjust="spacing" textLength="142" x="135.5" y="504.1631">String idDocNumber</text><rect fill="none" height="6" style="stroke:#000000;stroke-width:1.0;" width="6" x="125.5" y="514.1099"/><text fill="#000000" font-family="Verdana" font-size="14" lengthAdjust="spacing" textLength="112" x="135.5" y="521.1777">List&lt;Skill&gt; skills</text><line style="stroke:#000000;stroke-width:1.0;" x1="118.5" x2="282.5" y1="528.1172" y2="528.1172"/></g><!--class Skill--><g id="elem_Skill"><rect codeLine="14" fill="#FFFFFF" height="78.0293" id="Skill" rx="2.5" ry="2.5" style="stroke:#000000;stroke-width:1.0;" width="149" x="126" y="201"/><ellipse cx="183.25" cy="215" fill="#FFFFFF" rx="9" ry="9" style="stroke:#000000;stroke-width:1.0;"/><path d="M186.0156,210.875 Q186.1719,210.6563 186.3594,210.5469 Q186.5469,210.4375 186.7656,210.4375 Q187.1406,210.4375 187.375,210.7031 Q187.6094,210.9531 187.6094,211.5625 L187.6094,213.0156 Q187.6094,213.625 187.375,213.8906 Q187.1406,214.1563 186.7656,214.1563 Q186.4219,214.1563 186.2188,213.9531 Q186.0156,213.7656 185.9063,213.25 Q185.8594,212.8906 185.6719,212.7031 Q185.3438,212.3281 184.7344,212.1094 Q184.125,211.8906 183.5,211.8906 Q182.7344,211.8906 182.0938,212.2188 Q181.4688,212.5469 180.9688,213.2969 Q180.4844,214.0469 180.4844,215.0781 L180.4844,216.1719 Q180.4844,217.4063 181.375,218.2344 Q182.2656,219.0469 183.8594,219.0469 Q184.7969,219.0469 185.4531,218.7969 Q185.8438,218.6406 186.2656,218.2031 Q186.5313,217.9375 186.6719,217.8594 Q186.8281,217.7813 187.0313,217.7813 Q187.3594,217.7813 187.6094,218.0469 Q187.875,218.2969 187.875,218.6406 Q187.875,218.9844 187.5313,219.3906 Q187.0313,219.9688 186.2344,220.2969 Q185.1563,220.75 183.8594,220.75 Q182.3438,220.75 181.1406,220.125 Q180.1563,219.625 179.4688,218.5625 Q178.7813,217.4844 178.7813,216.2031 L178.7813,215.0469 Q178.7813,213.7188 179.3906,212.5781 Q180.0156,211.4219 181.1094,210.8125 Q182.2031,210.1875 183.4375,210.1875 Q184.1719,210.1875 184.8125,210.3594 Q185.4688,210.5156 186.0156,210.875 Z " fill="#000000"/><text fill="#000000" font-family="Verdana" font-size="14" lengthAdjust="spacing" textLength="27" x="200.75" y="220.5679">Skill</text><line style="stroke:#000000;stroke-width:1.0;" x1="127" x2="274" y1="229" y2="229"/><ellipse cx="137" cy="243.0073" fill="none" rx="3" ry="3" style="stroke:#000000;stroke-width:1.0;"/><text fill="#000000" font-family="Verdana" font-size="14" lengthAdjust="spacing" textLength="86" x="144" y="247.0752">String name</text><ellipse cx="137" cy="260.022" fill="none" rx="3" ry="3" style="stroke:#000000;stroke-width:1.0;"/><text fill="#000000" font-family="Verdana" font-size="14" lengthAdjust="spacing" textLength="125" x="144" y="264.0898">String description</text><line style="stroke:#000000;stroke-width:1.0;" x1="127" x2="274" y1="271.0293" y2="271.0293"/></g><!--class HRM--><g id="elem_HRM"><rect codeLine="19" fill="#FFFFFF" height="112.0586" id="HRM" rx="2.5" ry="2.5" style="stroke:#000000;stroke-width:1.0;" width="377" x="12" y="12"/><ellipse cx="181.25" cy="26" fill="#FFFFFF" rx="9" ry="9" style="stroke:#000000;stroke-width:1.0;"/><path d="M184.0156,21.875 Q184.1719,21.6563 184.3594,21.5469 Q184.5469,21.4375 184.7656,21.4375 Q185.1406,21.4375 185.375,21.7031 Q185.6094,21.9531 185.6094,22.5625 L185.6094,24.0156 Q185.6094,24.625 185.375,24.8906 Q185.1406,25.1563 184.7656,25.1563 Q184.4219,25.1563 184.2188,24.9531 Q184.0156,24.7656 183.9063,24.25 Q183.8594,23.8906 183.6719,23.7031 Q183.3438,23.3281 182.7344,23.1094 Q182.125,22.8906 181.5,22.8906 Q180.7344,22.8906 180.0938,23.2188 Q179.4688,23.5469 178.9688,24.2969 Q178.4844,25.0469 178.4844,26.0781 L178.4844,27.1719 Q178.4844,28.4063 179.375,29.2344 Q180.2656,30.0469 181.8594,30.0469 Q182.7969,30.0469 183.4531,29.7969 Q183.8438,29.6406 184.2656,29.2031 Q184.5313,28.9375 184.6719,28.8594 Q184.8281,28.7813 185.0313,28.7813 Q185.3594,28.7813 185.6094,29.0469 Q185.875,29.2969 185.875,29.6406 Q185.875,29.9844 185.5313,30.3906 Q185.0313,30.9688 184.2344,31.2969 Q183.1563,31.75 181.8594,31.75 Q180.3438,31.75 179.1406,31.125 Q178.1563,30.625 177.4688,29.5625 Q176.7813,28.4844 176.7813,27.2031 L176.7813,26.0469 Q176.7813,24.7188 177.3906,23.5781 Q178.0156,22.4219 179.1094,21.8125 Q180.2031,21.1875 181.4375,21.1875 Q182.1719,21.1875 182.8125,21.3594 Q183.4688,21.5156 184.0156,21.875 Z " fill="#000000"/><text fill="#000000" font-family="Verdana" font-size="14" lengthAdjust="spacing" textLength="31" x="198.75" y="31.5679">HRM</text><line style="stroke:#000000;stroke-width:1.0;" x1="13" x2="388" y1="40" y2="40"/><line style="stroke:#000000;stroke-width:1.0;" x1="13" x2="388" y1="48" y2="48"/><ellipse cx="23" cy="62.0073" fill="#FFFFFF" rx="3" ry="3" style="stroke:#000000;stroke-width:1.0;"/><text fill="#000000" font-family="Verdana" font-size="14" lengthAdjust="spacing" textLength="135" x="30" y="66.0752">void registerSkills()</text><ellipse cx="23" cy="79.022" fill="#FFFFFF" rx="3" ry="3" style="stroke:#000000;stroke-width:1.0;"/><text fill="#000000" font-family="Verdana" font-size="14" lengthAdjust="spacing" textLength="124" x="30" y="83.0898">void registerJob()</text><ellipse cx="23" cy="96.0366" fill="#FFFFFF" rx="3" ry="3" style="stroke:#000000;stroke-width:1.0;"/><text fill="#000000" font-family="Verdana" font-size="14" lengthAdjust="spacing" textLength="186" x="30" y="100.1045">void registerCollaborator()</text><ellipse cx="23" cy="113.0513" fill="#FFFFFF" rx="3" ry="3" style="stroke:#000000;stroke-width:1.0;"/><text fill="#000000" font-family="Verdana" font-size="14" lengthAdjust="spacing" textLength="353" x="30" y="117.1191">void assignSkillsToCollaborator(Collaborator, Skill)</text></g><g id="elem_GMN7"><path d="M424,55 L424,64 L389.42,68 L424,72 L424,80.7993 A0,0 0 0 0 424,80.7993 L923,80.7993 A0,0 0 0 0 923,80.7993 L923,65 L913,55 L424,55 A0,0 0 0 0 424,55 " fill="#FFFFFF" style="stroke:#000000;stroke-width:1.0;"/><path d="M913,55 L913,65 L923,65 L913,55 " fill="#FFFFFF" style="stroke:#000000;stroke-width:1.0;"/><text fill="#000000" font-family="Verdana" font-size="13" lengthAdjust="spacing" textLength="478" x="430" y="73.0698">US04 - As an HRM, I want to assign one or more skills to a collaborator.</text></g><!--link HRM to Skill--><g id="link_HRM_Skill"><path codeLine="26" d="M200.5,124.19 C200.5,149.3 200.5,172.39 200.5,195 " fill="none" id="HRM-to-Skill" style="stroke:#000000;stroke-width:1.0;"/><polygon fill="#000000" points="200.5,201,204.5,192,200.5,196,196.5,192,200.5,201" style="stroke:#000000;stroke-width:1.0;"/><text fill="#000000" font-family="Verdana" font-size="13" lengthAdjust="spacing" textLength="295" x="201.5" y="168.0698">assignSkillsToCollaborator(Collaborator, Skill)</text></g><!--link Skill to Collaborator--><g id="link_Skill_Collaborator"><path codeLine="27" d="M200.5,279.37 C200.5,300.95 200.5,322.87 200.5,349.6 " fill="none" id="Skill-to-Collaborator" style="stroke:#000000;stroke-width:1.0;"/><polygon fill="#000000" points="200.5,355.6,204.5,346.6,200.5,350.6,196.5,346.6,200.5,355.6" style="stroke:#000000;stroke-width:1.0;"/><text fill="#000000" font-family="Verdana" font-size="13" lengthAdjust="spacing" textLength="267" x="201.5" y="323.0698">add the desired skills to the collaborator</text></g><!--SRC=[bPB1JiCm38RlVGfpOs9573XDQ1AY1uQ00nqFa2PUQv76bHD02F7k96q7hTWEzDBsY_txjvsJq62Bq5b5BikqLTx33LkhAXOLME0pW_YSbK78rU1KYmCeL42eI49ZujU4ATEIzyIk-E5ZiZ96qFiPq-o2qc7ZTZpZP0hMsuyE_zB7rxP2wNb-JpvSbIzaxHfyUldiQzz6Zu_w7u51huMw4Ft-Pju-FUpptfWC2DQn3aglw4yN1uxkk3h8fxES1SGwLBj1SSkpiEdFScXZaSmbMtc-7XjR_LjYo4iAimslqc8WteCq318quoGXS4_r93Xp75SiL3S1UDSFQWNFvSKbv73jGRc4bh21T-L24XWy0Zk4MAfbmOcwcccVVmC0]--></g></svg>