<?xml version="1.0" encoding="us-ascii" standalone="no"?><svg xmlns="http://www.w3.org/2000/svg" xmlns:xlink="http://www.w3.org/1999/xlink" contentStyleType="text/css" height="862px" preserveAspectRatio="none" style="width:935px;height:862px;background:#FFFFFF;" version="1.1" viewBox="0 0 935 862" width="935px" zoomAndPan="magnify"><defs/><g><text fill="#000000" font-family="Verdana" font-size="22" font-weight="bold" lengthAdjust="spacing" textLength="902" x="15" y="37.1182">US04 - As an HRM, I want to assign one or more skills to a collaborator.</text><!--class company--><g id="elem_company"><rect codeLine="9" fill="#FFFFFF" height="154.1172" id="company" rx="2.5" ry="2.5" style="stroke:#000000;stroke-width:1.0;" width="253" x="388.5" y="59.7373"/><text fill="#000000" font-family="Verdana" font-size="14" lengthAdjust="spacing" textLength="63" x="483.5" y="78.8125">company</text><line style="stroke:#000000;stroke-width:1.0;" x1="389.5" x2="640.5" y1="86.752" y2="86.752"/><ellipse cx="399.5" cy="100.7593" fill="none" rx="3" ry="3" style="stroke:#000000;stroke-width:1.0;"/><text fill="#000000" font-family="Verdana" font-size="14" lengthAdjust="spacing" textLength="86" x="406.5" y="104.8271">String name</text><ellipse cx="399.5" cy="117.7739" fill="none" rx="3" ry="3" style="stroke:#000000;stroke-width:1.0;"/><text fill="#000000" font-family="Verdana" font-size="14" lengthAdjust="spacing" textLength="104" x="406.5" y="121.8418">String address</text><ellipse cx="399.5" cy="134.7886" fill="none" rx="3" ry="3" style="stroke:#000000;stroke-width:1.0;"/><text fill="#000000" font-family="Verdana" font-size="14" lengthAdjust="spacing" textLength="128" x="406.5" y="138.8564">String contactInfo</text><rect fill="none" height="6" style="stroke:#000000;stroke-width:1.0;" width="6" x="396.5" y="148.8032"/><text fill="#000000" font-family="Verdana" font-size="14" lengthAdjust="spacing" textLength="107" x="406.5" y="155.8711">List&lt;Job&gt; jobs</text><rect fill="none" height="6" style="stroke:#000000;stroke-width:1.0;" width="6" x="396.5" y="165.8179"/><text fill="#000000" font-family="Verdana" font-size="14" lengthAdjust="spacing" textLength="112" x="406.5" y="172.8857">List&lt;Skill&gt; skills</text><rect fill="none" height="6" style="stroke:#000000;stroke-width:1.0;" width="6" x="396.5" y="182.8325"/><text fill="#000000" font-family="Verdana" font-size="14" lengthAdjust="spacing" textLength="119" x="406.5" y="189.9004">List&lt;HRM&gt; hrms</text><rect fill="none" height="6" style="stroke:#000000;stroke-width:1.0;" width="6" x="396.5" y="199.8472"/><text fill="#000000" font-family="Verdana" font-size="14" lengthAdjust="spacing" textLength="229" x="406.5" y="206.915">List&lt;Collaborator&gt; collaborators</text></g><!--class Collaborator--><g id="elem_Collaborator"><rect codeLine="20" fill="#FFFFFF" height="171.1318" id="Collaborator" rx="2.5" ry="2.5" style="stroke:#000000;stroke-width:1.0;" width="166" x="214" y="684.7373"/><text fill="#000000" font-family="Verdana" font-size="14" lengthAdjust="spacing" textLength="86" x="254" y="703.8125">Collaborator</text><line style="stroke:#000000;stroke-width:1.0;" x1="215" x2="379" y1="711.752" y2="711.752"/><ellipse cx="225" cy="725.7593" fill="none" rx="3" ry="3" style="stroke:#000000;stroke-width:1.0;"/><text fill="#000000" font-family="Verdana" font-size="14" lengthAdjust="spacing" textLength="86" x="232" y="729.8271">String name</text><ellipse cx="225" cy="742.7739" fill="none" rx="3" ry="3" style="stroke:#000000;stroke-width:1.0;"/><text fill="#000000" font-family="Verdana" font-size="14" lengthAdjust="spacing" textLength="102" x="232" y="746.8418">Date birthdate</text><ellipse cx="225" cy="759.7886" fill="none" rx="3" ry="3" style="stroke:#000000;stroke-width:1.0;"/><text fill="#000000" font-family="Verdana" font-size="14" lengthAdjust="spacing" textLength="141" x="232" y="763.8564">Date admissionDate</text><rect fill="none" height="6" style="stroke:#000000;stroke-width:1.0;" width="6" x="222" y="773.8032"/><text fill="#000000" font-family="Verdana" font-size="14" lengthAdjust="spacing" textLength="104" x="232" y="780.8711">String address</text><rect fill="none" height="6" style="stroke:#000000;stroke-width:1.0;" width="6" x="222" y="790.8179"/><text fill="#000000" font-family="Verdana" font-size="14" lengthAdjust="spacing" textLength="128" x="232" y="797.8857">String contactInfo</text><rect fill="none" height="6" style="stroke:#000000;stroke-width:1.0;" width="6" x="222" y="807.8325"/><text fill="#000000" font-family="Verdana" font-size="14" lengthAdjust="spacing" textLength="121" x="232" y="814.9004">String idDocType</text><rect fill="none" height="6" style="stroke:#000000;stroke-width:1.0;" width="6" x="222" y="824.8472"/><text fill="#000000" font-family="Verdana" font-size="14" lengthAdjust="spacing" textLength="142" x="232" y="831.915">String idDocNumber</text><rect fill="none" height="6" style="stroke:#000000;stroke-width:1.0;" width="6" x="222" y="841.8618"/><text fill="#000000" font-family="Verdana" font-size="14" lengthAdjust="spacing" textLength="112" x="232" y="848.9297">List&lt;Skill&gt; skills</text></g><!--class Skill--><g id="elem_Skill"><rect codeLine="31" fill="#FFFFFF" height="69.0439" id="Skill" rx="2.5" ry="2.5" style="stroke:#000000;stroke-width:1.0;" width="149" x="561.5" y="538.7373"/><text fill="#000000" font-family="Verdana" font-size="14" lengthAdjust="spacing" textLength="27" x="622.5" y="557.8125">Skill</text><line style="stroke:#000000;stroke-width:1.0;" x1="562.5" x2="709.5" y1="565.752" y2="565.752"/><ellipse cx="572.5" cy="579.7593" fill="none" rx="3" ry="3" style="stroke:#000000;stroke-width:1.0;"/><text fill="#000000" font-family="Verdana" font-size="14" lengthAdjust="spacing" textLength="86" x="579.5" y="583.8271">String name</text><ellipse cx="572.5" cy="596.7739" fill="none" rx="3" ry="3" style="stroke:#000000;stroke-width:1.0;"/><text fill="#000000" font-family="Verdana" font-size="14" lengthAdjust="spacing" textLength="125" x="579.5" y="600.8418">String description</text></g><!--class HRM--><g id="elem_HRM"><rect codeLine="36" fill="#FFFFFF" height="171.1318" id="HRM" rx="2.5" ry="2.5" style="stroke:#000000;stroke-width:1.0;" width="173" x="363.5" y="290.7373"/><text fill="#000000" font-family="Verdana" font-size="14" lengthAdjust="spacing" textLength="31" x="434.5" y="309.8125">HRM</text><line style="stroke:#000000;stroke-width:1.0;" x1="364.5" x2="535.5" y1="317.752" y2="317.752"/><ellipse cx="374.5" cy="331.7593" fill="none" rx="3" ry="3" style="stroke:#000000;stroke-width:1.0;"/><text fill="#000000" font-family="Verdana" font-size="14" lengthAdjust="spacing" textLength="86" x="381.5" y="335.8271">String name</text><ellipse cx="374.5" cy="348.7739" fill="none" rx="3" ry="3" style="stroke:#000000;stroke-width:1.0;"/><text fill="#000000" font-family="Verdana" font-size="14" lengthAdjust="spacing" textLength="102" x="381.5" y="352.8418">Date birthdate</text><ellipse cx="374.5" cy="365.7886" fill="none" rx="3" ry="3" style="stroke:#000000;stroke-width:1.0;"/><text fill="#000000" font-family="Verdana" font-size="14" lengthAdjust="spacing" textLength="141" x="381.5" y="369.8564">Date admissionDate</text><ellipse cx="374.5" cy="382.8032" fill="none" rx="3" ry="3" style="stroke:#000000;stroke-width:1.0;"/><text fill="#000000" font-family="Verdana" font-size="14" lengthAdjust="spacing" textLength="104" x="381.5" y="386.8711">String address</text><rect fill="none" height="6" style="stroke:#000000;stroke-width:1.0;" width="6" x="371.5" y="396.8179"/><text fill="#000000" font-family="Verdana" font-size="14" lengthAdjust="spacing" textLength="149" x="381.5" y="403.8857">Int Taxpayer number</text><rect fill="none" height="6" style="stroke:#000000;stroke-width:1.0;" width="6" x="371.5" y="413.8325"/><text fill="#000000" font-family="Verdana" font-size="14" lengthAdjust="spacing" textLength="128" x="381.5" y="420.9004">String contactInfo</text><rect fill="none" height="6" style="stroke:#000000;stroke-width:1.0;" width="6" x="371.5" y="430.8472"/><text fill="#000000" font-family="Verdana" font-size="14" lengthAdjust="spacing" textLength="121" x="381.5" y="437.915">String idDocType</text><rect fill="none" height="6" style="stroke:#000000;stroke-width:1.0;" width="6" x="371.5" y="447.8618"/><text fill="#000000" font-family="Verdana" font-size="14" lengthAdjust="spacing" textLength="142" x="381.5" y="454.9297">String idDocNumber</text></g><!--class addSkillToCollaborator--><g id="elem_addSkillToCollaborator"><rect codeLine="47" fill="#FFFFFF" height="69.0439" id="addSkillToCollaborator" rx="2.5" ry="2.5" style="stroke:#000000;stroke-width:1.0;" width="163" x="363.5" y="538.7373"/><text fill="#000000" font-family="Verdana" font-size="14" lengthAdjust="spacing" textLength="157" x="366.5" y="557.8125">addSkillToCollaborator</text><line style="stroke:#000000;stroke-width:1.0;" x1="364.5" x2="525.5" y1="565.752" y2="565.752"/><ellipse cx="374.5" cy="579.7593" fill="none" rx="3" ry="3" style="stroke:#000000;stroke-width:1.0;"/><text fill="#000000" font-family="Verdana" font-size="14" lengthAdjust="spacing" textLength="131" x="381.5" y="583.8271">String collaborator</text><ellipse cx="374.5" cy="596.7739" fill="none" rx="3" ry="3" style="stroke:#000000;stroke-width:1.0;"/><text fill="#000000" font-family="Verdana" font-size="14" lengthAdjust="spacing" textLength="57" x="381.5" y="600.8418">Skill skill</text></g><!--link company to HRM--><g id="link_company_HRM"><path codeLine="52" d="M459.12,214.0073 C454.19,223.6473 449.95,233.6673 447,243.7373 C442.66,258.5273 440.9573,268.6689 440.5973,284.3989 " fill="none" id="company-to-HRM" style="stroke:#000000;stroke-width:1.0;"/><polygon fill="#000000" points="440.46,290.3973,444.6649,281.4912,440.5744,285.3986,436.667,281.3081,440.46,290.3973" style="stroke:#000000;stroke-width:1.0;"/><text fill="#000000" font-family="Verdana" font-size="13" lengthAdjust="spacing" textLength="23" x="448" y="257.8071">has</text></g><!--link HRM to company--><g id="link_HRM_company"><path codeLine="64" d="M474.7834,284.69 C481.6234,259.69 485.8947,244.0741 492.5847,219.6541 " fill="none" id="HRM-company" style="stroke:#000000;stroke-width:1.0;"/><polygon fill="#000000" points="473.2,290.4773,479.4333,282.852,474.5195,285.6546,471.7169,280.7408,473.2,290.4773" style="stroke:#000000;stroke-width:1.0;"/><polygon fill="#000000" points="494.17,213.8673,487.9342,221.4906,492.8489,218.6896,495.6499,223.6043,494.17,213.8673" style="stroke:#000000;stroke-width:1.0;"/><text fill="#000000" font-family="Verdana" font-size="13" lengthAdjust="spacing" textLength="88" x="486" y="257.8071">choose a skill</text></g><!--link HRM to Collaborator--><g id="link_HRM_Collaborator"><path codeLine="54" d="M363.48,438.7373 C333,465.5873 302.28,499.8473 286,538.7373 C266.89,584.3773 267.8479,633.7001 274.9179,678.6601 " fill="none" id="HRM-to-Collaborator" style="stroke:#000000;stroke-width:1.0;"/><polygon fill="#000000" points="275.85,684.5873,278.4034,675.0752,275.0733,679.648,270.5005,676.3179,275.85,684.5873" style="stroke:#000000;stroke-width:1.0;"/><text fill="#000000" font-family="Verdana" font-size="13" lengthAdjust="spacing" textLength="58" x="287" y="578.8071">manages</text></g><!--link HRM to Skill--><g id="link_HRM_Skill"><path codeLine="56" d="M512.74,461.8173 C526.04,477.9873 540.47,494.3373 555,508.7373 C565.41,519.0473 572.7499,525.5605 584.3199,534.6905 " fill="none" id="HRM-to-Skill" style="stroke:#000000;stroke-width:1.0;"/><polygon fill="#000000" points="589.03,538.4073,584.4427,529.692,585.1049,535.31,579.4869,535.9722,589.03,538.4073" style="stroke:#000000;stroke-width:1.0;"/><text fill="#000000" font-family="Verdana" font-size="13" lengthAdjust="spacing" textLength="51" x="556" y="505.8071">Creates</text></g><!--link Skill to company--><g id="link_Skill_company"><path codeLine="58" d="M635.06,538.4373 C632.41,477.5573 622.2,346.2573 583,243.7373 C579.17,233.7273 577.209,228.926 571.869,219.206 " fill="none" id="Skill-to-company" style="stroke:#000000;stroke-width:1.0;"/><polygon fill="#000000" points="568.98,213.9473,569.8078,223.7613,571.3875,218.3295,576.8193,219.9093,568.98,213.9473" style="stroke:#000000;stroke-width:1.0;"/><text fill="#000000" font-family="Verdana" font-size="13" lengthAdjust="spacing" textLength="101" x="630" y="381.8071">gets addded to</text></g><!--link HRM to addSkillToCollaborator--><g id="link_HRM_addSkillToCollaborator"><path codeLine="61" d="M447.83,461.9173 C447.14,488.8473 446.563,511.1093 446.023,532.2793 " fill="none" id="HRM-to-addSkillToCollaborator" style="stroke:#000000;stroke-width:1.0;"/><polygon fill="#000000" points="445.87,538.2773,450.0982,529.3822,445.9975,533.2789,442.1008,529.1782,445.87,538.2773" style="stroke:#000000;stroke-width:1.0;"/><text fill="#000000" font-family="Verdana" font-size="13" lengthAdjust="spacing" textLength="24" x="449" y="505.8071">can</text></g><!--link addSkillToCollaborator to Collaborator--><g id="link_addSkillToCollaborator_Collaborator"><path codeLine="67" d="M415.9327,612.5367 C399.8127,633.7767 385.4473,652.6979 364.8573,679.8279 " fill="none" id="addSkillToCollaborator-Collaborator" style="stroke:#000000;stroke-width:1.0;"/><polygon fill="#000000" points="419.56,607.7573,410.9328,612.5082,416.5372,611.7401,417.3053,617.3446,419.56,607.7573" style="stroke:#000000;stroke-width:1.0;"/><polygon fill="#000000" points="361.23,684.6073,369.8572,679.8564,364.2527,680.6245,363.4846,675.02,361.23,684.6073" style="stroke:#000000;stroke-width:1.0;"/><text fill="#000000" font-family="Verdana" font-size="13" lengthAdjust="spacing" textLength="79" x="394" y="651.8071">add the skill</text></g><!--SRC=[hLGzRzim4DtvAwvJXqP5Xaw68Q28XpfeEzJE3pYH5ua9oHD85gqHzB_tJCiErTZ8q6YYtdtmlNSdlSi3UOBHeGqgs-m8xZRNdw21pmamm9SVtwvW3RymPCWCc9Bj0t0Wu0YU8q5wjCwb4WJDpc774JF7ZqgzTtHVogBjXmp6HjBPSb1gi8R0KnxOfCEBjb4xKaexkKCQ-H73xac1F1ysEThGGq1FCm2DYPJI3DCSCkgy3lTSyEQhJNbvorqB3zob2jliYRSJ_meNoIqCqTVOJIMidSbCIlqvigwpu1Bt5MQ2piOy63bL61flnLuEgoFUdD7PND8vuTQiM6zt8xr4l__q7SMB3fna51XUyTvGqj6EPPodIh7kBNIVcs-pbWtSukyHTnGXL5B-sv0JVRclQDzoFScdV_RhEJ85Ybt5nDBgiBhGD6tnOm43ofBiZtjejYCBy1Ymfof-wBQ0cqXYXmGEm3vqxBo0dd9XQyZ8vwMUgyyha0gDOKfRpblfWJd942O1IbreiJn3Nb91_X-dqhy0]--></g></svg>