<?xml version="1.0" encoding="us-ascii" standalone="no"?><svg xmlns="http://www.w3.org/2000/svg" xmlns:xlink="http://www.w3.org/1999/xlink" contentStyleType="text/css" height="926px" preserveAspectRatio="none" style="width:691px;height:926px;background:#FFFFFF;" version="1.1" viewBox="0 0 691 926" width="691px" zoomAndPan="magnify"><defs/><g><!--class RegisterVehicleUI--><g id="elem_RegisterVehicleUI"><rect codeLine="10" fill="#F1F1F1" height="48" id="RegisterVehicleUI" rx="2.5" ry="2.5" style="stroke:#181818;stroke-width:0.5;" width="143" x="7" y="72"/><ellipse cx="22" cy="88" fill="#ADD1B2" rx="11" ry="11" style="stroke:#181818;stroke-width:1.0;"/><path d="M24.7656,83.875 Q24.9219,83.6563 25.1094,83.5469 Q25.2969,83.4375 25.5156,83.4375 Q25.8906,83.4375 26.125,83.7031 Q26.3594,83.9531 26.3594,84.5625 L26.3594,86.0156 Q26.3594,86.625 26.125,86.8906 Q25.8906,87.1563 25.5156,87.1563 Q25.1719,87.1563 24.9688,86.9531 Q24.7656,86.7656 24.6563,86.25 Q24.6094,85.8906 24.4219,85.7031 Q24.0938,85.3281 23.4844,85.1094 Q22.875,84.8906 22.25,84.8906 Q21.4844,84.8906 20.8438,85.2188 Q20.2188,85.5469 19.7188,86.2969 Q19.2344,87.0469 19.2344,88.0781 L19.2344,89.1719 Q19.2344,90.4063 20.125,91.2344 Q21.0156,92.0469 22.6094,92.0469 Q23.5469,92.0469 24.2031,91.7969 Q24.5938,91.6406 25.0156,91.2031 Q25.2813,90.9375 25.4219,90.8594 Q25.5781,90.7813 25.7813,90.7813 Q26.1094,90.7813 26.3594,91.0469 Q26.625,91.2969 26.625,91.6406 Q26.625,91.9844 26.2813,92.3906 Q25.7813,92.9688 24.9844,93.2969 Q23.9063,93.75 22.6094,93.75 Q21.0938,93.75 19.8906,93.125 Q18.9063,92.625 18.2188,91.5625 Q17.5313,90.4844 17.5313,89.2031 L17.5313,88.0469 Q17.5313,86.7188 18.1406,85.5781 Q18.7656,84.4219 19.8594,83.8125 Q20.9531,83.1875 22.1875,83.1875 Q22.9219,83.1875 23.5625,83.3594 Q24.2188,83.5156 24.7656,83.875 Z " fill="#000000"/><text fill="#000000" font-family="sans-serif" font-size="14" lengthAdjust="spacing" textLength="111" x="36" y="93.7969">RegisterVehicleUI</text><line style="stroke:#181818;stroke-width:0.5;" x1="8" x2="149" y1="104" y2="104"/><line style="stroke:#181818;stroke-width:0.5;" x1="8" x2="149" y1="112" y2="112"/></g><!--class VehicleController--><g id="elem_VehicleController"><rect codeLine="13" fill="#F1F1F1" height="178.3477" id="VehicleController" rx="2.5" ry="2.5" style="stroke:#181818;stroke-width:0.5;" width="364" x="185.5" y="7"/><ellipse cx="309.25" cy="23" fill="#ADD1B2" rx="11" ry="11" style="stroke:#181818;stroke-width:1.0;"/><path d="M312.0156,18.875 Q312.1719,18.6563 312.3594,18.5469 Q312.5469,18.4375 312.7656,18.4375 Q313.1406,18.4375 313.375,18.7031 Q313.6094,18.9531 313.6094,19.5625 L313.6094,21.0156 Q313.6094,21.625 313.375,21.8906 Q313.1406,22.1563 312.7656,22.1563 Q312.4219,22.1563 312.2188,21.9531 Q312.0156,21.7656 311.9063,21.25 Q311.8594,20.8906 311.6719,20.7031 Q311.3438,20.3281 310.7344,20.1094 Q310.125,19.8906 309.5,19.8906 Q308.7344,19.8906 308.0938,20.2188 Q307.4688,20.5469 306.9688,21.2969 Q306.4844,22.0469 306.4844,23.0781 L306.4844,24.1719 Q306.4844,25.4063 307.375,26.2344 Q308.2656,27.0469 309.8594,27.0469 Q310.7969,27.0469 311.4531,26.7969 Q311.8438,26.6406 312.2656,26.2031 Q312.5313,25.9375 312.6719,25.8594 Q312.8281,25.7813 313.0313,25.7813 Q313.3594,25.7813 313.6094,26.0469 Q313.875,26.2969 313.875,26.6406 Q313.875,26.9844 313.5313,27.3906 Q313.0313,27.9688 312.2344,28.2969 Q311.1563,28.75 309.8594,28.75 Q308.3438,28.75 307.1406,28.125 Q306.1563,27.625 305.4688,26.5625 Q304.7813,25.4844 304.7813,24.2031 L304.7813,23.0469 Q304.7813,21.7188 305.3906,20.5781 Q306.0156,19.4219 307.1094,18.8125 Q308.2031,18.1875 309.4375,18.1875 Q310.1719,18.1875 310.8125,18.3594 Q311.4688,18.5156 312.0156,18.875 Z " fill="#000000"/><text fill="#000000" font-family="sans-serif" font-size="14" lengthAdjust="spacing" textLength="108" x="329.75" y="28.7969">VehicleController</text><line style="stroke:#181818;stroke-width:0.5;" x1="186.5" x2="548.5" y1="39" y2="39"/><line style="stroke:#181818;stroke-width:0.5;" x1="186.5" x2="548.5" y1="47" y2="47"/><text fill="#000000" font-family="sans-serif" font-size="14" lengthAdjust="spacing" textLength="163" x="191.5" y="66.1074">+getVehicleByPlate(plate)</text><text fill="#000000" font-family="sans-serif" font-size="14" lengthAdjust="spacing" textLength="151" x="191.5" y="84.7285">+getVehicleBrandsList()</text><text fill="#000000" font-family="sans-serif" font-size="14" lengthAdjust="spacing" textLength="188" x="191.5" y="103.3496">+getVehicleModelsList(brand)</text><text fill="#000000" font-family="sans-serif" font-size="14" lengthAdjust="spacing" textLength="183" x="191.5" y="121.9707">+getVehicleTypesList(model)</text><text fill="#000000" font-family="sans-serif" font-size="14" lengthAdjust="spacing" textLength="348" x="191.5" y="140.5918">+saveNewVehicle(tareWeight, grossWeight, currentKm,</text><text fill="#000000" font-family="sans-serif" font-size="14" lengthAdjust="spacing" textLength="344" x="191.5" y="159.2129">registerDate, acquisitionDate, maintenanceFrequency,</text><text fill="#000000" font-family="sans-serif" font-size="14" lengthAdjust="spacing" textLength="162" x="191.5" y="177.834">plate, brand, model, type)</text></g><!--class repositories--><g id="elem_repositories"><rect codeLine="20" fill="#F1F1F1" height="103.8633" id="repositories" rx="2.5" ry="2.5" style="stroke:#181818;stroke-width:0.5;" width="164" x="285.5" y="273"/><ellipse cx="326.6" cy="289" fill="#ADD1B2" rx="11" ry="11" style="stroke:#181818;stroke-width:1.0;"/><path d="M329.3656,284.875 Q329.5219,284.6563 329.7094,284.5469 Q329.8969,284.4375 330.1156,284.4375 Q330.4906,284.4375 330.725,284.7031 Q330.9594,284.9531 330.9594,285.5625 L330.9594,287.0156 Q330.9594,287.625 330.725,287.8906 Q330.4906,288.1563 330.1156,288.1563 Q329.7719,288.1563 329.5688,287.9531 Q329.3656,287.7656 329.2563,287.25 Q329.2094,286.8906 329.0219,286.7031 Q328.6938,286.3281 328.0844,286.1094 Q327.475,285.8906 326.85,285.8906 Q326.0844,285.8906 325.4438,286.2188 Q324.8188,286.5469 324.3188,287.2969 Q323.8344,288.0469 323.8344,289.0781 L323.8344,290.1719 Q323.8344,291.4063 324.725,292.2344 Q325.6156,293.0469 327.2094,293.0469 Q328.1469,293.0469 328.8031,292.7969 Q329.1938,292.6406 329.6156,292.2031 Q329.8813,291.9375 330.0219,291.8594 Q330.1781,291.7813 330.3813,291.7813 Q330.7094,291.7813 330.9594,292.0469 Q331.225,292.2969 331.225,292.6406 Q331.225,292.9844 330.8813,293.3906 Q330.3813,293.9688 329.5844,294.2969 Q328.5063,294.75 327.2094,294.75 Q325.6938,294.75 324.4906,294.125 Q323.5063,293.625 322.8188,292.5625 Q322.1313,291.4844 322.1313,290.2031 L322.1313,289.0469 Q322.1313,287.7188 322.7406,286.5781 Q323.3656,285.4219 324.4594,284.8125 Q325.5531,284.1875 326.7875,284.1875 Q327.5219,284.1875 328.1625,284.3594 Q328.8188,284.5156 329.3656,284.875 Z " fill="#000000"/><text fill="#000000" font-family="sans-serif" font-size="14" lengthAdjust="spacing" textLength="74" x="346.4" y="294.7969">repositories</text><line style="stroke:#181818;stroke-width:0.5;" x1="286.5" x2="448.5" y1="305" y2="305"/><line style="stroke:#181818;stroke-width:0.5;" x1="286.5" x2="448.5" y1="313" y2="313"/><text fill="#000000" font-family="sans-serif" font-size="14" lengthAdjust="spacing" textLength="91" x="291.5" y="332.1074">+getInstance()</text><text fill="#000000" font-family="sans-serif" font-size="14" lengthAdjust="spacing" textLength="152" x="291.5" y="350.7285">+getVehicleRepository()</text><text fill="#000000" font-family="sans-serif" font-size="14" lengthAdjust="spacing" textLength="144" x="291.5" y="369.3496">+getVehicleAttributes()</text></g><!--class Vehicle--><g id="elem_Vehicle"><rect codeLine="26" fill="#F1F1F1" height="290.0742" id="Vehicle" rx="2.5" ry="2.5" style="stroke:#181818;stroke-width:0.5;" width="374" x="112.5" y="629"/><ellipse cx="272.25" cy="645" fill="#ADD1B2" rx="11" ry="11" style="stroke:#181818;stroke-width:1.0;"/><path d="M275.0156,640.875 Q275.1719,640.6563 275.3594,640.5469 Q275.5469,640.4375 275.7656,640.4375 Q276.1406,640.4375 276.375,640.7031 Q276.6094,640.9531 276.6094,641.5625 L276.6094,643.0156 Q276.6094,643.625 276.375,643.8906 Q276.1406,644.1563 275.7656,644.1563 Q275.4219,644.1563 275.2188,643.9531 Q275.0156,643.7656 274.9063,643.25 Q274.8594,642.8906 274.6719,642.7031 Q274.3438,642.3281 273.7344,642.1094 Q273.125,641.8906 272.5,641.8906 Q271.7344,641.8906 271.0938,642.2188 Q270.4688,642.5469 269.9688,643.2969 Q269.4844,644.0469 269.4844,645.0781 L269.4844,646.1719 Q269.4844,647.4063 270.375,648.2344 Q271.2656,649.0469 272.8594,649.0469 Q273.7969,649.0469 274.4531,648.7969 Q274.8438,648.6406 275.2656,648.2031 Q275.5313,647.9375 275.6719,647.8594 Q275.8281,647.7813 276.0313,647.7813 Q276.3594,647.7813 276.6094,648.0469 Q276.875,648.2969 276.875,648.6406 Q276.875,648.9844 276.5313,649.3906 Q276.0313,649.9688 275.2344,650.2969 Q274.1563,650.75 272.8594,650.75 Q271.3438,650.75 270.1406,650.125 Q269.1563,649.625 268.4688,648.5625 Q267.7813,647.4844 267.7813,646.2031 L267.7813,645.0469 Q267.7813,643.7188 268.3906,642.5781 Q269.0156,641.4219 270.1094,640.8125 Q271.2031,640.1875 272.4375,640.1875 Q273.1719,640.1875 273.8125,640.3594 Q274.4688,640.5156 275.0156,640.875 Z " fill="#000000"/><text fill="#000000" font-family="sans-serif" font-size="14" lengthAdjust="spacing" textLength="46" x="292.75" y="650.7969">Vehicle</text><line style="stroke:#181818;stroke-width:0.5;" x1="113.5" x2="485.5" y1="661" y2="661"/><text fill="#000000" font-family="sans-serif" font-size="14" lengthAdjust="spacing" textLength="83" x="118.5" y="680.1074">-String brand</text><text fill="#000000" font-family="sans-serif" font-size="14" lengthAdjust="spacing" textLength="84" x="118.5" y="698.7285">-String model</text><text fill="#000000" font-family="sans-serif" font-size="14" lengthAdjust="spacing" textLength="73" x="118.5" y="717.3496">-String type</text><text fill="#000000" font-family="sans-serif" font-size="14" lengthAdjust="spacing" textLength="77" x="118.5" y="735.9707">-String plate</text><text fill="#000000" font-family="sans-serif" font-size="14" lengthAdjust="spacing" textLength="121" x="118.5" y="754.5918">-double tareWeight</text><text fill="#000000" font-family="sans-serif" font-size="14" lengthAdjust="spacing" textLength="131" x="118.5" y="773.2129">-double grossWeight</text><text fill="#000000" font-family="sans-serif" font-size="14" lengthAdjust="spacing" textLength="117" x="118.5" y="791.834">-double currentKm</text><text fill="#000000" font-family="sans-serif" font-size="14" lengthAdjust="spacing" textLength="124" x="118.5" y="810.4551">-String registerDate</text><text fill="#000000" font-family="sans-serif" font-size="14" lengthAdjust="spacing" textLength="143" x="118.5" y="829.0762">-String acquisitionDate</text><text fill="#000000" font-family="sans-serif" font-size="14" lengthAdjust="spacing" textLength="201" x="118.5" y="847.6973">-double maintenanceFrequency</text><line style="stroke:#181818;stroke-width:0.5;" x1="113.5" x2="485.5" y1="855.2109" y2="855.2109"/><text fill="#000000" font-family="sans-serif" font-size="14" lengthAdjust="spacing" textLength="358" x="118.5" y="874.3184">+createNewVehicle(tareWeight, grossWeight, currentKm,</text><text fill="#000000" font-family="sans-serif" font-size="14" lengthAdjust="spacing" textLength="344" x="118.5" y="892.9395">registerDate, acquisitionDate, maintenanceFrequency,</text><text fill="#000000" font-family="sans-serif" font-size="14" lengthAdjust="spacing" textLength="162" x="118.5" y="911.5605">plate, brand, model, type)</text></g><!--class VehicleRepository--><g id="elem_VehicleRepository"><rect codeLine="40" fill="#F1F1F1" height="103.8633" id="VehicleRepository" rx="2.5" ry="2.5" style="stroke:#181818;stroke-width:0.5;" width="175" x="212" y="465"/><ellipse cx="240.05" cy="481" fill="#ADD1B2" rx="11" ry="11" style="stroke:#181818;stroke-width:1.0;"/><path d="M242.8156,476.875 Q242.9719,476.6563 243.1594,476.5469 Q243.3469,476.4375 243.5656,476.4375 Q243.9406,476.4375 244.175,476.7031 Q244.4094,476.9531 244.4094,477.5625 L244.4094,479.0156 Q244.4094,479.625 244.175,479.8906 Q243.9406,480.1563 243.5656,480.1563 Q243.2219,480.1563 243.0188,479.9531 Q242.8156,479.7656 242.7063,479.25 Q242.6594,478.8906 242.4719,478.7031 Q242.1438,478.3281 241.5344,478.1094 Q240.925,477.8906 240.3,477.8906 Q239.5344,477.8906 238.8938,478.2188 Q238.2688,478.5469 237.7688,479.2969 Q237.2844,480.0469 237.2844,481.0781 L237.2844,482.1719 Q237.2844,483.4063 238.175,484.2344 Q239.0656,485.0469 240.6594,485.0469 Q241.5969,485.0469 242.2531,484.7969 Q242.6438,484.6406 243.0656,484.2031 Q243.3313,483.9375 243.4719,483.8594 Q243.6281,483.7813 243.8313,483.7813 Q244.1594,483.7813 244.4094,484.0469 Q244.675,484.2969 244.675,484.6406 Q244.675,484.9844 244.3313,485.3906 Q243.8313,485.9688 243.0344,486.2969 Q241.9563,486.75 240.6594,486.75 Q239.1438,486.75 237.9406,486.125 Q236.9563,485.625 236.2688,484.5625 Q235.5813,483.4844 235.5813,482.2031 L235.5813,481.0469 Q235.5813,479.7188 236.1906,478.5781 Q236.8156,477.4219 237.9094,476.8125 Q239.0031,476.1875 240.2375,476.1875 Q240.9719,476.1875 241.6125,476.3594 Q242.2688,476.5156 242.8156,476.875 Z " fill="#000000"/><text fill="#000000" font-family="sans-serif" font-size="14" lengthAdjust="spacing" textLength="114" x="256.95" y="486.7969">VehicleRepository</text><line style="stroke:#181818;stroke-width:0.5;" x1="213" x2="386" y1="497" y2="497"/><text fill="#000000" font-family="sans-serif" font-size="14" lengthAdjust="spacing" textLength="144" x="218" y="516.1074">-List&lt;Vehicle&gt; vehicles</text><line style="stroke:#181818;stroke-width:0.5;" x1="213" x2="386" y1="523.6211" y2="523.6211"/><text fill="#000000" font-family="sans-serif" font-size="14" lengthAdjust="spacing" textLength="140" x="218" y="542.7285">+storeVehicle(vehicle)</text><text fill="#000000" font-family="sans-serif" font-size="14" lengthAdjust="spacing" textLength="163" x="218" y="561.3496">+getVehicleByPlate(plate)</text></g><!--class VehicleAttributes--><g id="elem_VehicleAttributes"><rect codeLine="47" fill="#F1F1F1" height="159.7266" id="VehicleAttributes" rx="2.5" ry="2.5" style="stroke:#181818;stroke-width:0.5;" width="200" x="484.5" y="245"/><ellipse cx="527.4" cy="261" fill="#ADD1B2" rx="11" ry="11" style="stroke:#181818;stroke-width:1.0;"/><path d="M530.1656,256.875 Q530.3219,256.6563 530.5094,256.5469 Q530.6969,256.4375 530.9156,256.4375 Q531.2906,256.4375 531.525,256.7031 Q531.7594,256.9531 531.7594,257.5625 L531.7594,259.0156 Q531.7594,259.625 531.525,259.8906 Q531.2906,260.1563 530.9156,260.1563 Q530.5719,260.1563 530.3688,259.9531 Q530.1656,259.7656 530.0563,259.25 Q530.0094,258.8906 529.8219,258.7031 Q529.4938,258.3281 528.8844,258.1094 Q528.275,257.8906 527.65,257.8906 Q526.8844,257.8906 526.2438,258.2188 Q525.6188,258.5469 525.1188,259.2969 Q524.6344,260.0469 524.6344,261.0781 L524.6344,262.1719 Q524.6344,263.4063 525.525,264.2344 Q526.4156,265.0469 528.0094,265.0469 Q528.9469,265.0469 529.6031,264.7969 Q529.9938,264.6406 530.4156,264.2031 Q530.6813,263.9375 530.8219,263.8594 Q530.9781,263.7813 531.1813,263.7813 Q531.5094,263.7813 531.7594,264.0469 Q532.025,264.2969 532.025,264.6406 Q532.025,264.9844 531.6813,265.3906 Q531.1813,265.9688 530.3844,266.2969 Q529.3063,266.75 528.0094,266.75 Q526.4938,266.75 525.2906,266.125 Q524.3063,265.625 523.6188,264.5625 Q522.9313,263.4844 522.9313,262.2031 L522.9313,261.0469 Q522.9313,259.7188 523.5406,258.5781 Q524.1656,257.4219 525.2594,256.8125 Q526.3531,256.1875 527.5875,256.1875 Q528.3219,256.1875 528.9625,256.3594 Q529.6188,256.5156 530.1656,256.875 Z " fill="#000000"/><text fill="#000000" font-family="sans-serif" font-size="14" lengthAdjust="spacing" textLength="106" x="547.6" y="266.7969">VehicleAttributes</text><line style="stroke:#181818;stroke-width:0.5;" x1="485.5" x2="683.5" y1="277" y2="277"/><text fill="#000000" font-family="sans-serif" font-size="14" lengthAdjust="spacing" textLength="83" x="490.5" y="296.1074">-String brand</text><text fill="#000000" font-family="sans-serif" font-size="14" lengthAdjust="spacing" textLength="84" x="490.5" y="314.7285">-String model</text><text fill="#000000" font-family="sans-serif" font-size="14" lengthAdjust="spacing" textLength="73" x="490.5" y="333.3496">-String type</text><line style="stroke:#181818;stroke-width:0.5;" x1="485.5" x2="683.5" y1="340.8633" y2="340.8633"/><text fill="#000000" font-family="sans-serif" font-size="14" lengthAdjust="spacing" textLength="151" x="490.5" y="359.9707">+getVehicleBrandsList()</text><text fill="#000000" font-family="sans-serif" font-size="14" lengthAdjust="spacing" textLength="188" x="490.5" y="378.5918">+getVehicleModelsList(brand)</text><text fill="#000000" font-family="sans-serif" font-size="14" lengthAdjust="spacing" textLength="183" x="490.5" y="397.2129">+getVehicleTypesList(model)</text></g><!--link RegisterVehicleUI to VehicleController--><g id="link_RegisterVehicleUI_VehicleController"><path codeLine="58" d="M150.03,96 C164.21,96 174.83,96 174.83,96 C174.83,96 172.81,96 179.14,96 " fill="none" id="RegisterVehicleUI-to-VehicleController" style="stroke:#181818;stroke-width:1.0;stroke-dasharray:7.0,7.0;"/><polygon fill="#181818" points="185.14,96,176.14,92,180.14,96,176.14,100,185.14,96" style="stroke:#181818;stroke-width:1.0;"/></g><!--link VehicleController to repositories--><g id="link_VehicleController_repositories"><path codeLine="59" d="M367.5,185.09 C367.5,214.75 367.5,240.85 367.5,266.72 " fill="none" id="VehicleController-to-repositories" style="stroke:#181818;stroke-width:1.0;stroke-dasharray:7.0,7.0;"/><polygon fill="#181818" points="367.5,272.72,371.5,263.72,367.5,267.72,363.5,263.72,367.5,272.72" style="stroke:#181818;stroke-width:1.0;"/></g><!--link VehicleController to VehicleAttributes--><g id="link_VehicleController_VehicleAttributes"><path codeLine="60" d="M451.71,185.09 C470.53,204.78 486.2328,221.2141 504.6928,240.5141 " fill="none" id="VehicleController-to-VehicleAttributes" style="stroke:#181818;stroke-width:1.0;stroke-dasharray:7.0,7.0;"/><polygon fill="#181818" points="508.84,244.85,505.5098,235.5813,505.384,241.2367,499.7285,241.1109,508.84,244.85" style="stroke:#181818;stroke-width:1.0;"/></g><!--link VehicleController to VehicleRepository--><g id="link_VehicleController_VehicleRepository"><path codeLine="61" d="M307.89,185.23 C286.47,216.92 267.5,245 267.5,245 C267.5,245 267.5,405 267.5,405 C267.5,405 274.6668,429.8751 283.0568,458.9551 " fill="none" id="VehicleController-to-VehicleRepository" style="stroke:#181818;stroke-width:1.0;stroke-dasharray:7.0,7.0;"/><polygon fill="#181818" points="284.72,464.72,286.0684,454.9639,283.334,459.9159,278.3819,457.1815,284.72,464.72" style="stroke:#181818;stroke-width:1.0;"/></g><!--link VehicleRepository to Vehicle--><g id="link_VehicleRepository_Vehicle"><path codeLine="62" d="M299.5,569.3 C299.5,586.89 299.5,601.55 299.5,622.84 " fill="none" id="VehicleRepository-to-Vehicle" style="stroke:#181818;stroke-width:1.0;"/><polygon fill="#181818" points="299.5,628.84,303.5,619.84,299.5,623.84,295.5,619.84,299.5,628.84" style="stroke:#181818;stroke-width:1.0;"/><text fill="#000000" font-family="sans-serif" font-size="13" lengthAdjust="spacing" textLength="5" x="294.3711" y="617.9508">*</text></g><!--link repositories to VehicleRepository--><g id="link_repositories_VehicleRepository"><path codeLine="63" d="M349.19,377.17 C339.47,404.31 329.5936,431.9315 319.8636,459.0915 " fill="none" id="repositories-to-VehicleRepository" style="stroke:#181818;stroke-width:1.0;stroke-dasharray:7.0,7.0;"/><polygon fill="#181818" points="317.84,464.74,324.641,457.6163,319.5263,460.0329,317.1097,454.9183,317.84,464.74" style="stroke:#181818;stroke-width:1.0;"/></g><!--link repositories to VehicleAttributes--><g id="link_repositories_VehicleAttributes"><path codeLine="64" d="M449.59,325 C458.46,325 465.99,325 478.2,325 " fill="none" id="repositories-to-VehicleAttributes" style="stroke:#181818;stroke-width:1.0;stroke-dasharray:7.0,7.0;"/><polygon fill="#181818" points="484.2,325,475.2,321,479.2,325,475.2,329,484.2,325" style="stroke:#181818;stroke-width:1.0;"/></g><!--SRC=[pLJBRjim4BppAnQvs6bbenyG6EW31OmsGH7tSUc5fZOo4OfKbbG2fSY_bvGeIxI4-D1BTJ2adU5wTdQN2tilTSM9br0QRSI1J8dWg4Os81KNzxp0dMiK0g5mN1TgJB07dfidgGkuuygE4IKrkgP2g8ngmWTRp826d66ZKq9nQzyxHt9VEzmAetVo6U4TOmk5TmwS0PB5mK4kWnnfD6kFm2qMqZgadtYGGk6FBVnXx2M2CVZHQ4T6AIGFGdZUGe4keX-QRuexN5RXzt869wvp-zN_ot86lJOvgWxT1-8CvRilk6EKWNnaMFw8D_WKMKl72NzXA3A3Weor_OUeYL2xBsK6lpN5UZzviHbmyL1BAuCVNQ3aKZlKN0lyJFXGenPDEDOMbq4hqRE2ZWn29xoQtYt2olXSXYHQRrHRmbPR5vBvqiSbtVRKvWGujj1wu8MbVOZkhs3dINvqMZLfg5MMXeBADD8M4qEvgVS-ys1U6XyPcG97KzFKOtjJvCJgDDkSxOnrRHQ4dlyVDFfaAuOU7liIXlGgmXjux5viNuZrNEoBYE0bExDEfpCm3CW_J0CxkwFdL_JL3VMgsVHcMM-cDmgRtZ5hpnllqXnbC_NZLThGB3PjtsgrWOit5n5WoHwlPtEab1anVm40]--></g></svg>