<?xml version="1.0" encoding="us-ascii" standalone="no"?><svg xmlns="http://www.w3.org/2000/svg" xmlns:xlink="http://www.w3.org/1999/xlink" contentStyleType="text/css" height="668px" preserveAspectRatio="none" style="width:613px;height:668px;background:#FFFFFF;" version="1.1" viewBox="0 0 613 668" width="613px" zoomAndPan="magnify"><defs/><g><!--class RegisterVehicleUI--><g id="elem_RegisterVehicleUI"><rect codeLine="11" fill="#F1F1F1" height="48" id="RegisterVehicleUI" rx="2.5" ry="2.5" style="stroke:#181818;stroke-width:0.5;" width="143" x="275.5" y="7"/><ellipse cx="290.5" cy="23" fill="#ADD1B2" rx="11" ry="11" style="stroke:#181818;stroke-width:1.0;"/><path d="M293.2656,18.875 Q293.4219,18.6563 293.6094,18.5469 Q293.7969,18.4375 294.0156,18.4375 Q294.3906,18.4375 294.625,18.7031 Q294.8594,18.9531 294.8594,19.5625 L294.8594,21.0156 Q294.8594,21.625 294.625,21.8906 Q294.3906,22.1563 294.0156,22.1563 Q293.6719,22.1563 293.4688,21.9531 Q293.2656,21.7656 293.1563,21.25 Q293.1094,20.8906 292.9219,20.7031 Q292.5938,20.3281 291.9844,20.1094 Q291.375,19.8906 290.75,19.8906 Q289.9844,19.8906 289.3438,20.2188 Q288.7188,20.5469 288.2188,21.2969 Q287.7344,22.0469 287.7344,23.0781 L287.7344,24.1719 Q287.7344,25.4063 288.625,26.2344 Q289.5156,27.0469 291.1094,27.0469 Q292.0469,27.0469 292.7031,26.7969 Q293.0938,26.6406 293.5156,26.2031 Q293.7813,25.9375 293.9219,25.8594 Q294.0781,25.7813 294.2813,25.7813 Q294.6094,25.7813 294.8594,26.0469 Q295.125,26.2969 295.125,26.6406 Q295.125,26.9844 294.7813,27.3906 Q294.2813,27.9688 293.4844,28.2969 Q292.4063,28.75 291.1094,28.75 Q289.5938,28.75 288.3906,28.125 Q287.4063,27.625 286.7188,26.5625 Q286.0313,25.4844 286.0313,24.2031 L286.0313,23.0469 Q286.0313,21.7188 286.6406,20.5781 Q287.2656,19.4219 288.3594,18.8125 Q289.4531,18.1875 290.6875,18.1875 Q291.4219,18.1875 292.0625,18.3594 Q292.7188,18.5156 293.2656,18.875 Z " fill="#000000"/><text fill="#000000" font-family="sans-serif" font-size="14" lengthAdjust="spacing" textLength="111" x="304.5" y="28.7969">RegisterVehicleUI</text><line style="stroke:#181818;stroke-width:0.5;" x1="276.5" x2="417.5" y1="39" y2="39"/><line style="stroke:#181818;stroke-width:0.5;" x1="276.5" x2="417.5" y1="47" y2="47"/></g><!--class Vehicle--><g id="elem_Vehicle"><rect codeLine="14" fill="#F1F1F1" height="308.6953" id="Vehicle" rx="2.5" ry="2.5" style="stroke:#181818;stroke-width:0.5;" width="364" x="7" y="353"/><ellipse cx="161.75" cy="369" fill="#ADD1B2" rx="11" ry="11" style="stroke:#181818;stroke-width:1.0;"/><path d="M164.5156,364.875 Q164.6719,364.6563 164.8594,364.5469 Q165.0469,364.4375 165.2656,364.4375 Q165.6406,364.4375 165.875,364.7031 Q166.1094,364.9531 166.1094,365.5625 L166.1094,367.0156 Q166.1094,367.625 165.875,367.8906 Q165.6406,368.1563 165.2656,368.1563 Q164.9219,368.1563 164.7188,367.9531 Q164.5156,367.7656 164.4063,367.25 Q164.3594,366.8906 164.1719,366.7031 Q163.8438,366.3281 163.2344,366.1094 Q162.625,365.8906 162,365.8906 Q161.2344,365.8906 160.5938,366.2188 Q159.9688,366.5469 159.4688,367.2969 Q158.9844,368.0469 158.9844,369.0781 L158.9844,370.1719 Q158.9844,371.4063 159.875,372.2344 Q160.7656,373.0469 162.3594,373.0469 Q163.2969,373.0469 163.9531,372.7969 Q164.3438,372.6406 164.7656,372.2031 Q165.0313,371.9375 165.1719,371.8594 Q165.3281,371.7813 165.5313,371.7813 Q165.8594,371.7813 166.1094,372.0469 Q166.375,372.2969 166.375,372.6406 Q166.375,372.9844 166.0313,373.3906 Q165.5313,373.9688 164.7344,374.2969 Q163.6563,374.75 162.3594,374.75 Q160.8438,374.75 159.6406,374.125 Q158.6563,373.625 157.9688,372.5625 Q157.2813,371.4844 157.2813,370.2031 L157.2813,369.0469 Q157.2813,367.7188 157.8906,366.5781 Q158.5156,365.4219 159.6094,364.8125 Q160.7031,364.1875 161.9375,364.1875 Q162.6719,364.1875 163.3125,364.3594 Q163.9688,364.5156 164.5156,364.875 Z " fill="#000000"/><text fill="#000000" font-family="sans-serif" font-size="14" lengthAdjust="spacing" textLength="46" x="182.25" y="374.7969">Vehicle</text><line style="stroke:#181818;stroke-width:0.5;" x1="8" x2="370" y1="385" y2="385"/><text fill="#000000" font-family="sans-serif" font-size="14" lengthAdjust="spacing" textLength="83" x="13" y="404.1074">-String brand</text><text fill="#000000" font-family="sans-serif" font-size="14" lengthAdjust="spacing" textLength="84" x="13" y="422.7285">-String model</text><text fill="#000000" font-family="sans-serif" font-size="14" lengthAdjust="spacing" textLength="73" x="13" y="441.3496">-String type</text><text fill="#000000" font-family="sans-serif" font-size="14" lengthAdjust="spacing" textLength="77" x="13" y="459.9707">-String plate</text><text fill="#000000" font-family="sans-serif" font-size="14" lengthAdjust="spacing" textLength="93" x="13" y="478.5918">-int tareWeight</text><text fill="#000000" font-family="sans-serif" font-size="14" lengthAdjust="spacing" textLength="103" x="13" y="497.2129">-int grossWeight</text><text fill="#000000" font-family="sans-serif" font-size="14" lengthAdjust="spacing" textLength="89" x="13" y="515.834">-int currentKm</text><text fill="#000000" font-family="sans-serif" font-size="14" lengthAdjust="spacing" textLength="124" x="13" y="534.4551">-String registerDate</text><text fill="#000000" font-family="sans-serif" font-size="14" lengthAdjust="spacing" textLength="143" x="13" y="553.0762">-String acquisitionDate</text><text fill="#000000" font-family="sans-serif" font-size="14" lengthAdjust="spacing" textLength="173" x="13" y="571.6973">-int maintenanceFrequency</text><line style="stroke:#181818;stroke-width:0.5;" x1="8" x2="370" y1="579.2109" y2="579.2109"/><text fill="#000000" font-family="sans-serif" font-size="14" lengthAdjust="spacing" textLength="163" x="13" y="598.3184">+getVehicleByPlate(plate)</text><text fill="#000000" font-family="sans-serif" font-size="14" lengthAdjust="spacing" textLength="348" x="13" y="616.9395">+saveNewVehicle(tareWeight, grossWeight, currentKm,</text><text fill="#000000" font-family="sans-serif" font-size="14" lengthAdjust="spacing" textLength="344" x="13" y="635.5605">registerDate, acquisitionDate, maintenanceFrequency,</text><text fill="#000000" font-family="sans-serif" font-size="14" lengthAdjust="spacing" textLength="162" x="13" y="654.1816">plate, brand, model, type)</text></g><!--class VehicleAttributes--><g id="elem_VehicleAttributes"><rect codeLine="30" fill="#F1F1F1" height="159.7266" id="VehicleAttributes" rx="2.5" ry="2.5" style="stroke:#181818;stroke-width:0.5;" width="200" x="406" y="427.5"/><ellipse cx="448.9" cy="443.5" fill="#ADD1B2" rx="11" ry="11" style="stroke:#181818;stroke-width:1.0;"/><path d="M451.6656,439.375 Q451.8219,439.1563 452.0094,439.0469 Q452.1969,438.9375 452.4156,438.9375 Q452.7906,438.9375 453.025,439.2031 Q453.2594,439.4531 453.2594,440.0625 L453.2594,441.5156 Q453.2594,442.125 453.025,442.3906 Q452.7906,442.6563 452.4156,442.6563 Q452.0719,442.6563 451.8688,442.4531 Q451.6656,442.2656 451.5563,441.75 Q451.5094,441.3906 451.3219,441.2031 Q450.9938,440.8281 450.3844,440.6094 Q449.775,440.3906 449.15,440.3906 Q448.3844,440.3906 447.7438,440.7188 Q447.1188,441.0469 446.6188,441.7969 Q446.1344,442.5469 446.1344,443.5781 L446.1344,444.6719 Q446.1344,445.9063 447.025,446.7344 Q447.9156,447.5469 449.5094,447.5469 Q450.4469,447.5469 451.1031,447.2969 Q451.4938,447.1406 451.9156,446.7031 Q452.1813,446.4375 452.3219,446.3594 Q452.4781,446.2813 452.6813,446.2813 Q453.0094,446.2813 453.2594,446.5469 Q453.525,446.7969 453.525,447.1406 Q453.525,447.4844 453.1813,447.8906 Q452.6813,448.4688 451.8844,448.7969 Q450.8063,449.25 449.5094,449.25 Q447.9938,449.25 446.7906,448.625 Q445.8063,448.125 445.1188,447.0625 Q444.4313,445.9844 444.4313,444.7031 L444.4313,443.5469 Q444.4313,442.2188 445.0406,441.0781 Q445.6656,439.9219 446.7594,439.3125 Q447.8531,438.6875 449.0875,438.6875 Q449.8219,438.6875 450.4625,438.8594 Q451.1188,439.0156 451.6656,439.375 Z " fill="#000000"/><text fill="#000000" font-family="sans-serif" font-size="14" lengthAdjust="spacing" textLength="106" x="469.1" y="449.2969">VehicleAttributes</text><line style="stroke:#181818;stroke-width:0.5;" x1="407" x2="605" y1="459.5" y2="459.5"/><text fill="#000000" font-family="sans-serif" font-size="14" lengthAdjust="spacing" textLength="83" x="412" y="478.6074">-String brand</text><text fill="#000000" font-family="sans-serif" font-size="14" lengthAdjust="spacing" textLength="84" x="412" y="497.2285">-String model</text><text fill="#000000" font-family="sans-serif" font-size="14" lengthAdjust="spacing" textLength="73" x="412" y="515.8496">-String type</text><line style="stroke:#181818;stroke-width:0.5;" x1="407" x2="605" y1="523.3633" y2="523.3633"/><text fill="#000000" font-family="sans-serif" font-size="14" lengthAdjust="spacing" textLength="151" x="412" y="542.4707">+getVehicleBrandsList()</text><text fill="#000000" font-family="sans-serif" font-size="14" lengthAdjust="spacing" textLength="188" x="412" y="561.0918">+getVehicleModelsList(brand)</text><text fill="#000000" font-family="sans-serif" font-size="14" lengthAdjust="spacing" textLength="183" x="412" y="579.7129">+getVehicleTypesList(model)</text></g><!--class VehicleController--><g id="elem_VehicleController"><rect codeLine="40" fill="#F1F1F1" height="178.3477" id="VehicleController" rx="2.5" ry="2.5" style="stroke:#181818;stroke-width:0.5;" width="364" x="165" y="115"/><ellipse cx="288.75" cy="131" fill="#ADD1B2" rx="11" ry="11" style="stroke:#181818;stroke-width:1.0;"/><path d="M291.5156,126.875 Q291.6719,126.6563 291.8594,126.5469 Q292.0469,126.4375 292.2656,126.4375 Q292.6406,126.4375 292.875,126.7031 Q293.1094,126.9531 293.1094,127.5625 L293.1094,129.0156 Q293.1094,129.625 292.875,129.8906 Q292.6406,130.1563 292.2656,130.1563 Q291.9219,130.1563 291.7188,129.9531 Q291.5156,129.7656 291.4063,129.25 Q291.3594,128.8906 291.1719,128.7031 Q290.8438,128.3281 290.2344,128.1094 Q289.625,127.8906 289,127.8906 Q288.2344,127.8906 287.5938,128.2188 Q286.9688,128.5469 286.4688,129.2969 Q285.9844,130.0469 285.9844,131.0781 L285.9844,132.1719 Q285.9844,133.4063 286.875,134.2344 Q287.7656,135.0469 289.3594,135.0469 Q290.2969,135.0469 290.9531,134.7969 Q291.3438,134.6406 291.7656,134.2031 Q292.0313,133.9375 292.1719,133.8594 Q292.3281,133.7813 292.5313,133.7813 Q292.8594,133.7813 293.1094,134.0469 Q293.375,134.2969 293.375,134.6406 Q293.375,134.9844 293.0313,135.3906 Q292.5313,135.9688 291.7344,136.2969 Q290.6563,136.75 289.3594,136.75 Q287.8438,136.75 286.6406,136.125 Q285.6563,135.625 284.9688,134.5625 Q284.2813,133.4844 284.2813,132.2031 L284.2813,131.0469 Q284.2813,129.7188 284.8906,128.5781 Q285.5156,127.4219 286.6094,126.8125 Q287.7031,126.1875 288.9375,126.1875 Q289.6719,126.1875 290.3125,126.3594 Q290.9688,126.5156 291.5156,126.875 Z " fill="#000000"/><text fill="#000000" font-family="sans-serif" font-size="14" lengthAdjust="spacing" textLength="108" x="309.25" y="136.7969">VehicleController</text><line style="stroke:#181818;stroke-width:0.5;" x1="166" x2="528" y1="147" y2="147"/><line style="stroke:#181818;stroke-width:0.5;" x1="166" x2="528" y1="155" y2="155"/><text fill="#000000" font-family="sans-serif" font-size="14" lengthAdjust="spacing" textLength="163" x="171" y="174.1074">+getVehicleByPlate(plate)</text><text fill="#000000" font-family="sans-serif" font-size="14" lengthAdjust="spacing" textLength="151" x="171" y="192.7285">+getVehicleBrandsList()</text><text fill="#000000" font-family="sans-serif" font-size="14" lengthAdjust="spacing" textLength="188" x="171" y="211.3496">+getVehicleModelsList(brand)</text><text fill="#000000" font-family="sans-serif" font-size="14" lengthAdjust="spacing" textLength="183" x="171" y="229.9707">+getVehicleTypesList(model)</text><text fill="#000000" font-family="sans-serif" font-size="14" lengthAdjust="spacing" textLength="348" x="171" y="248.5918">+saveNewVehicle(tareWeight, grossWeight, currentKm,</text><text fill="#000000" font-family="sans-serif" font-size="14" lengthAdjust="spacing" textLength="344" x="171" y="267.2129">registerDate, acquisitionDate, maintenanceFrequency,</text><text fill="#000000" font-family="sans-serif" font-size="14" lengthAdjust="spacing" textLength="162" x="171" y="285.834">plate, brand, model, type)</text></g><!--link RegisterVehicleUI to VehicleController--><g id="link_RegisterVehicleUI_VehicleController"><path codeLine="47" d="M347,55.06 C347,70.74 347,86.58 347,108.67 " fill="none" id="RegisterVehicleUI-to-VehicleController" style="stroke:#181818;stroke-width:1.0;stroke-dasharray:7.0,7.0;"/><polygon fill="#181818" points="347,114.67,351,105.67,347,109.67,343,105.67,347,114.67" style="stroke:#181818;stroke-width:1.0;"/></g><!--link VehicleController to Vehicle--><g id="link_VehicleController_Vehicle"><path codeLine="48" d="M300.88,293.02 C290.99,311.88 283.0543,327.0152 272.3043,347.5352 " fill="none" id="VehicleController-to-Vehicle" style="stroke:#181818;stroke-width:1.0;stroke-dasharray:7.0,7.0;"/><polygon fill="#181818" points="269.52,352.85,277.2397,346.734,271.8403,348.421,270.1533,343.0215,269.52,352.85" style="stroke:#181818;stroke-width:1.0;"/></g><!--link VehicleController to VehicleAttributes--><g id="link_VehicleController_VehicleAttributes"><path codeLine="49" d="M393.42,293.02 C415.83,335.51 439.7111,380.8028 461.4711,422.0628 " fill="none" id="VehicleController-to-VehicleAttributes" style="stroke:#181818;stroke-width:1.0;stroke-dasharray:7.0,7.0;"/><polygon fill="#181818" points="464.27,427.37,463.6097,417.5433,461.9376,422.9474,456.5335,421.2752,464.27,427.37" style="stroke:#181818;stroke-width:1.0;"/></g><!--SRC=[pPF9JiCm48RlVWhVsWfJyGH8B4AgM8GeouMBwquJguwTZYTK0V7kn4bA4bp10I6HWwNy_ooVPvAHNskRIvGPpvnrAaMN0ISiW7LEBjLQ9Z2dqW17K2HjOle1FfLBjzKsuIjfVDynsWALEV3ScJAyiD4Uqo4vrijIHdf_GeHwKH3CbBDp_GhyYB6HWHLnSXnraX9Vwe2ZdMMipk5ta6XFW8-GQcNWOSRVsFlERCLAujLpoETLWufvWT8kXrBcbc26KW0TAhcHj9EqhQWamXC4hfwOeFC-KbM129Okis55REdFkyAj8zMcq5w7gvuFksQoEi5Ag-02OLE0LIMh_GEU0BLtFYrl0-suPfwqjfSlS0FRDcJSyOi-jkXe1N-sVKRnbKlinGbfTMFHp5eqynNrJ2VHVZuNxt-ngNW28TTVLUpZIMHUXogDMVU88-whear0tJ6cFdEMq1a3s5B_EFw_O_jdwur_okdqE9uRYoVPY_lUxRuPnZu0]--></g></svg>