<?xml version="1.0" encoding="us-ascii" standalone="no"?><svg xmlns="http://www.w3.org/2000/svg" xmlns:xlink="http://www.w3.org/1999/xlink" contentStyleType="text/css" height="1506px" preserveAspectRatio="none" style="width:1396px;height:1506px;background:#FFFFFF;" version="1.1" viewBox="0 0 1396 1506" width="1396px" zoomAndPan="magnify"><defs/><g><rect fill="#FFFFFF" height="1321.1445" style="stroke:#181818;stroke-width:1.0;" width="10" x="81" y="93.6211"/><rect fill="#FFFFFF" height="31.291" style="stroke:#181818;stroke-width:1.0;" width="10" x="478" y="116.9121"/><rect fill="#FFFFFF" height="292.25" style="stroke:#181818;stroke-width:1.0;" width="10" x="478" y="179.4941"/><rect fill="#FFFFFF" height="200.7461" style="stroke:#181818;stroke-width:1.0;" width="10" x="478" y="503.0352"/><rect fill="#FFFFFF" height="156.4551" style="stroke:#181818;stroke-width:1.0;" width="10" x="478" y="735.0723"/><rect fill="#FFFFFF" height="156.4551" style="stroke:#181818;stroke-width:1.0;" width="10" x="478" y="922.8184"/><rect fill="#FFFFFF" height="31.291" style="stroke:#181818;stroke-width:1.0;" width="10" x="478" y="1110.5645"/><rect fill="#FFFFFF" height="225.6191" style="stroke:#181818;stroke-width:1.0;" width="10" x="478" y="1173.1465"/><rect fill="#FFFFFF" height="93.873" style="stroke:#181818;stroke-width:1.0;" width="10" x="843" y="255.0762"/><rect fill="#FFFFFF" height="93.873" style="stroke:#181818;stroke-width:1.0;" width="10" x="843" y="578.6172"/><rect fill="#FFFFFF" height="93.873" style="stroke:#181818;stroke-width:1.0;" width="10" x="843" y="766.3633"/><rect fill="#FFFFFF" height="93.873" style="stroke:#181818;stroke-width:1.0;" width="10" x="843" y="954.1094"/><rect fill="#FFFFFF" height="128.4551" style="stroke:#181818;stroke-width:1.0;" width="10" x="843" y="1239.0195"/><rect fill="#FFFFFF" height="31.291" style="stroke:#181818;stroke-width:1.0;" width="10" x="1208" y="286.3672"/><rect fill="#FFFFFF" height="31.291" style="stroke:#181818;stroke-width:1.0;" width="10" x="1208" y="1304.8926"/><rect fill="#FFFFFF" height="31.291" style="stroke:#181818;stroke-width:1.0;" width="10" x="1312" y="609.9082"/><rect fill="#FFFFFF" height="31.291" style="stroke:#181818;stroke-width:1.0;" width="10" x="1312" y="797.6543"/><rect fill="#FFFFFF" height="31.291" style="stroke:#181818;stroke-width:1.0;" width="10" x="1312" y="985.4004"/><rect fill="none" height="1042.8164" style="stroke:#000000;stroke-width:1.5;" width="1379" x="10" y="363.9492"/><line style="stroke:#181818;stroke-width:0.5;stroke-dasharray:5.0,5.0;" x1="86" x2="86" y1="83.6211" y2="1423.7656"/><line style="stroke:#181818;stroke-width:0.5;stroke-dasharray:5.0,5.0;" x1="482.5" x2="482.5" y1="83.6211" y2="1423.7656"/><line style="stroke:#181818;stroke-width:0.5;stroke-dasharray:5.0,5.0;" x1="848" x2="848" y1="83.6211" y2="1423.7656"/><line style="stroke:#181818;stroke-width:0.5;stroke-dasharray:5.0,5.0;" x1="1213" x2="1213" y1="83.6211" y2="1423.7656"/><line style="stroke:#181818;stroke-width:0.5;stroke-dasharray:5.0,5.0;" x1="1317" x2="1317" y1="83.6211" y2="1423.7656"/><text fill="#000000" font-family="sans-serif" font-size="14" lengthAdjust="spacing" textLength="126" x="20" y="80.1074">Fleet Manager (FM)</text><ellipse cx="86" cy="13.5" fill="#E3E3E3" rx="8" ry="8" style="stroke:#181818;stroke-width:0.5;"/><path d="M86,21.5 L86,48.5 M73,29.5 L99,29.5 M86,48.5 L73,63.5 M86,48.5 L99,63.5 " fill="none" style="stroke:#181818;stroke-width:0.5;"/><text fill="#000000" font-family="sans-serif" font-size="14" lengthAdjust="spacing" textLength="126" x="20" y="1437.873">Fleet Manager (FM)</text><ellipse cx="86" cy="1449.8867" fill="#E3E3E3" rx="8" ry="8" style="stroke:#181818;stroke-width:0.5;"/><path d="M86,1457.8867 L86,1484.8867 M73,1465.8867 L99,1465.8867 M86,1484.8867 L73,1499.8867 M86,1484.8867 L99,1499.8867 " fill="none" style="stroke:#181818;stroke-width:0.5;"/><rect fill="#E3E3E3" height="32.6211" rx="2.5" ry="2.5" style="stroke:#181818;stroke-width:0.5;" width="129" x="418.5" y="50"/><text fill="#000000" font-family="sans-serif" font-size="14" lengthAdjust="spacing" textLength="115" x="425.5" y="72.1074">:RegisterVehicleUI</text><rect fill="#E3E3E3" height="32.6211" rx="2.5" ry="2.5" style="stroke:#181818;stroke-width:0.5;" width="129" x="418.5" y="1422.7656"/><text fill="#000000" font-family="sans-serif" font-size="14" lengthAdjust="spacing" textLength="115" x="425.5" y="1444.873">:RegisterVehicleUI</text><rect fill="#E3E3E3" height="32.6211" rx="2.5" ry="2.5" style="stroke:#181818;stroke-width:0.5;" width="126" x="785" y="50"/><text fill="#000000" font-family="sans-serif" font-size="14" lengthAdjust="spacing" textLength="112" x="792" y="72.1074">:VehicleController</text><rect fill="#E3E3E3" height="32.6211" rx="2.5" ry="2.5" style="stroke:#181818;stroke-width:0.5;" width="126" x="785" y="1422.7656"/><text fill="#000000" font-family="sans-serif" font-size="14" lengthAdjust="spacing" textLength="112" x="792" y="1444.873">:VehicleController</text><rect fill="#E3E3E3" height="51.2422" rx="2.5" ry="2.5" style="stroke:#181818;stroke-width:0.5;" width="64" x="1181" y="31.3789"/><text fill="#000000" font-family="sans-serif" font-size="14" lengthAdjust="spacing" textLength="44" x="1191" y="53.4863">vehicle</text><text fill="#000000" font-family="sans-serif" font-size="14" lengthAdjust="spacing" textLength="50" x="1188" y="72.1074">:Vehicle</text><rect fill="#E3E3E3" height="51.2422" rx="2.5" ry="2.5" style="stroke:#181818;stroke-width:0.5;" width="64" x="1181" y="1422.7656"/><text fill="#000000" font-family="sans-serif" font-size="14" lengthAdjust="spacing" textLength="44" x="1191" y="1444.873">vehicle</text><text fill="#000000" font-family="sans-serif" font-size="14" lengthAdjust="spacing" textLength="50" x="1188" y="1463.4941">:Vehicle</text><rect fill="#E3E3E3" height="51.2422" rx="2.5" ry="2.5" style="stroke:#181818;stroke-width:0.5;" width="124" x="1255" y="31.3789"/><text fill="#000000" font-family="sans-serif" font-size="14" lengthAdjust="spacing" textLength="104" x="1265" y="53.4863">vehicleAttributes</text><text fill="#000000" font-family="sans-serif" font-size="14" lengthAdjust="spacing" textLength="110" x="1262" y="72.1074">:VehicleAttributes</text><rect fill="#E3E3E3" height="51.2422" rx="2.5" ry="2.5" style="stroke:#181818;stroke-width:0.5;" width="124" x="1255" y="1422.7656"/><text fill="#000000" font-family="sans-serif" font-size="14" lengthAdjust="spacing" textLength="104" x="1265" y="1444.873">vehicleAttributes</text><text fill="#000000" font-family="sans-serif" font-size="14" lengthAdjust="spacing" textLength="110" x="1262" y="1463.4941">:VehicleAttributes</text><rect fill="#FFFFFF" height="1321.1445" style="stroke:#181818;stroke-width:1.0;" width="10" x="81" y="93.6211"/><rect fill="#FFFFFF" height="31.291" style="stroke:#181818;stroke-width:1.0;" width="10" x="478" y="116.9121"/><rect fill="#FFFFFF" height="292.25" style="stroke:#181818;stroke-width:1.0;" width="10" x="478" y="179.4941"/><rect fill="#FFFFFF" height="200.7461" style="stroke:#181818;stroke-width:1.0;" width="10" x="478" y="503.0352"/><rect fill="#FFFFFF" height="156.4551" style="stroke:#181818;stroke-width:1.0;" width="10" x="478" y="735.0723"/><rect fill="#FFFFFF" height="156.4551" style="stroke:#181818;stroke-width:1.0;" width="10" x="478" y="922.8184"/><rect fill="#FFFFFF" height="31.291" style="stroke:#181818;stroke-width:1.0;" width="10" x="478" y="1110.5645"/><rect fill="#FFFFFF" height="225.6191" style="stroke:#181818;stroke-width:1.0;" width="10" x="478" y="1173.1465"/><rect fill="#FFFFFF" height="93.873" style="stroke:#181818;stroke-width:1.0;" width="10" x="843" y="255.0762"/><rect fill="#FFFFFF" height="93.873" style="stroke:#181818;stroke-width:1.0;" width="10" x="843" y="578.6172"/><rect fill="#FFFFFF" height="93.873" style="stroke:#181818;stroke-width:1.0;" width="10" x="843" y="766.3633"/><rect fill="#FFFFFF" height="93.873" style="stroke:#181818;stroke-width:1.0;" width="10" x="843" y="954.1094"/><rect fill="#FFFFFF" height="128.4551" style="stroke:#181818;stroke-width:1.0;" width="10" x="843" y="1239.0195"/><rect fill="#FFFFFF" height="31.291" style="stroke:#181818;stroke-width:1.0;" width="10" x="1208" y="286.3672"/><rect fill="#FFFFFF" height="31.291" style="stroke:#181818;stroke-width:1.0;" width="10" x="1208" y="1304.8926"/><rect fill="#FFFFFF" height="31.291" style="stroke:#181818;stroke-width:1.0;" width="10" x="1312" y="609.9082"/><rect fill="#FFFFFF" height="31.291" style="stroke:#181818;stroke-width:1.0;" width="10" x="1312" y="797.6543"/><rect fill="#FFFFFF" height="31.291" style="stroke:#181818;stroke-width:1.0;" width="10" x="1312" y="985.4004"/><polygon fill="#181818" points="466,112.9121,476,116.9121,466,120.9121,470,116.9121" style="stroke:#181818;stroke-width:1.0;"/><line style="stroke:#181818;stroke-width:1.0;" x1="91" x2="472" y1="116.9121" y2="116.9121"/><text fill="#000000" font-family="sans-serif" font-size="13" font-weight="bold" lengthAdjust="spacing" textLength="7" x="98" y="111.6494">1</text><text fill="#000000" font-family="sans-serif" font-size="13" lengthAdjust="spacing" textLength="193" x="109" y="111.6494">requests to register a new vehicle</text><polygon fill="#181818" points="102,144.2031,92,148.2031,102,152.2031,98,148.2031" style="stroke:#181818;stroke-width:1.0;"/><line style="stroke:#181818;stroke-width:1.0;stroke-dasharray:2.0,2.0;" x1="96" x2="482" y1="148.2031" y2="148.2031"/><text fill="#000000" font-family="sans-serif" font-size="13" font-weight="bold" lengthAdjust="spacing" textLength="7" x="108" y="142.9404">2</text><text fill="#000000" font-family="sans-serif" font-size="13" lengthAdjust="spacing" textLength="121" x="119" y="142.9404">asks for vehicle plate</text><polygon fill="#181818" points="466,175.4941,476,179.4941,466,183.4941,470,179.4941" style="stroke:#181818;stroke-width:1.0;"/><line style="stroke:#181818;stroke-width:1.0;" x1="91" x2="472" y1="179.4941" y2="179.4941"/><text fill="#000000" font-family="sans-serif" font-size="13" font-weight="bold" lengthAdjust="spacing" textLength="7" x="98" y="174.2314">3</text><text fill="#000000" font-family="sans-serif" font-size="13" lengthAdjust="spacing" textLength="107" x="109" y="174.2314">types vehicle plate</text><line style="stroke:#181818;stroke-width:1.0;" x1="488" x2="530" y1="210.7852" y2="210.7852"/><line style="stroke:#181818;stroke-width:1.0;" x1="530" x2="530" y1="210.7852" y2="223.7852"/><line style="stroke:#181818;stroke-width:1.0;" x1="489" x2="530" y1="223.7852" y2="223.7852"/><polygon fill="#181818" points="499,219.7852,489,223.7852,499,227.7852,495,223.7852" style="stroke:#181818;stroke-width:1.0;"/><text fill="#000000" font-family="sans-serif" font-size="13" font-weight="bold" lengthAdjust="spacing" textLength="7" x="495" y="205.5225">4</text><text fill="#000000" font-family="sans-serif" font-size="13" lengthAdjust="spacing" textLength="125" x="506" y="205.5225">validates vehicle plate</text><polygon fill="#181818" points="831,251.0762,841,255.0762,831,259.0762,835,255.0762" style="stroke:#181818;stroke-width:1.0;"/><line style="stroke:#181818;stroke-width:1.0;" x1="488" x2="837" y1="255.0762" y2="255.0762"/><text fill="#000000" font-family="sans-serif" font-size="13" font-weight="bold" lengthAdjust="spacing" textLength="7" x="495" y="249.8135">5</text><text fill="#000000" font-family="sans-serif" font-size="13" lengthAdjust="spacing" textLength="143" x="506" y="249.8135">getVehicleByPlate(plate)</text><polygon fill="#181818" points="1196,282.3672,1206,286.3672,1196,290.3672,1200,286.3672" style="stroke:#181818;stroke-width:1.0;"/><line style="stroke:#181818;stroke-width:1.0;" x1="853" x2="1202" y1="286.3672" y2="286.3672"/><text fill="#000000" font-family="sans-serif" font-size="13" font-weight="bold" lengthAdjust="spacing" textLength="7" x="860" y="281.1045">6</text><text fill="#000000" font-family="sans-serif" font-size="13" lengthAdjust="spacing" textLength="143" x="871" y="281.1045">getVehicleByPlate(plate)</text><polygon fill="#181818" points="864,313.6582,854,317.6582,864,321.6582,860,317.6582" style="stroke:#181818;stroke-width:1.0;"/><line style="stroke:#181818;stroke-width:1.0;stroke-dasharray:2.0,2.0;" x1="858" x2="1212" y1="317.6582" y2="317.6582"/><text fill="#000000" font-family="sans-serif" font-size="13" font-weight="bold" lengthAdjust="spacing" textLength="7" x="870" y="312.3955">7</text><text fill="#000000" font-family="sans-serif" font-size="13" lengthAdjust="spacing" textLength="39" x="881" y="312.3955">vehicle</text><polygon fill="#181818" points="499,344.9492,489,348.9492,499,352.9492,495,348.9492" style="stroke:#181818;stroke-width:1.0;"/><line style="stroke:#181818;stroke-width:1.0;stroke-dasharray:2.0,2.0;" x1="493" x2="847" y1="348.9492" y2="348.9492"/><text fill="#000000" font-family="sans-serif" font-size="13" font-weight="bold" lengthAdjust="spacing" textLength="7" x="505" y="343.6865">8</text><text fill="#000000" font-family="sans-serif" font-size="13" lengthAdjust="spacing" textLength="39" x="516" y="343.6865">vehicle</text><path d="M10,363.9492 L71,363.9492 L71,373.2402 L61,383.2402 L10,383.2402 L10,363.9492 " fill="#EEEEEE" style="stroke:#000000;stroke-width:1.5;"/><rect fill="none" height="1042.8164" style="stroke:#000000;stroke-width:1.5;" width="1379" x="10" y="363.9492"/><text fill="#000000" font-family="sans-serif" font-size="13" font-weight="bold" lengthAdjust="spacing" textLength="16" x="25" y="378.9775">alt</text><text fill="#000000" font-family="sans-serif" font-size="11" font-weight="bold" lengthAdjust="spacing" textLength="82" x="86" y="377.8193">[vehicle != null]</text><polygon fill="#181818" points="102,402.5313,92,406.5313,102,410.5313,98,406.5313" style="stroke:#181818;stroke-width:1.0;"/><line style="stroke:#181818;stroke-width:1.0;stroke-dasharray:2.0,2.0;" x1="96" x2="477" y1="406.5313" y2="406.5313"/><text fill="#000000" font-family="sans-serif" font-size="13" font-weight="bold" lengthAdjust="spacing" textLength="7" x="108" y="401.2686">9</text><text fill="#000000" font-family="sans-serif" font-size="13" lengthAdjust="spacing" textLength="196" x="119" y="401.2686">informs that vehicle already exists</text><line style="stroke:#000000;stroke-width:1.0;stroke-dasharray:2.0,2.0;" x1="10" x2="1389" y1="415.5313" y2="415.5313"/><text fill="#000000" font-family="sans-serif" font-size="11" font-weight="bold" lengthAdjust="spacing" textLength="85" x="15" y="427.4014">[vehicle == null]</text><polygon fill="#181818" points="102,467.7441,92,471.7441,102,475.7441,98,471.7441" style="stroke:#181818;stroke-width:1.0;"/><line style="stroke:#181818;stroke-width:1.0;stroke-dasharray:2.0,2.0;" x1="96" x2="482" y1="471.7441" y2="471.7441"/><text fill="#000000" font-family="sans-serif" font-size="13" font-weight="bold" lengthAdjust="spacing" textLength="14" x="108" y="457.8359">10</text><text fill="#000000" font-family="sans-serif" font-size="13" lengthAdjust="spacing" textLength="341" x="126" y="449.1904">asks for vehicle info (tare weight, gross weight, current Km,</text><text fill="#000000" font-family="sans-serif" font-size="13" lengthAdjust="spacing" textLength="317" x="126" y="466.4814">register date, acquisition date, maintenance frequency)</text><polygon fill="#181818" points="466,499.0352,476,503.0352,466,507.0352,470,503.0352" style="stroke:#181818;stroke-width:1.0;"/><line style="stroke:#181818;stroke-width:1.0;" x1="91" x2="472" y1="503.0352" y2="503.0352"/><text fill="#000000" font-family="sans-serif" font-size="13" font-weight="bold" lengthAdjust="spacing" textLength="14" x="98" y="497.7725">11</text><text fill="#000000" font-family="sans-serif" font-size="13" lengthAdjust="spacing" textLength="99" x="116" y="497.7725">types vehicle info</text><line style="stroke:#181818;stroke-width:1.0;" x1="488" x2="530" y1="534.3262" y2="534.3262"/><line style="stroke:#181818;stroke-width:1.0;" x1="530" x2="530" y1="534.3262" y2="547.3262"/><line style="stroke:#181818;stroke-width:1.0;" x1="489" x2="530" y1="547.3262" y2="547.3262"/><polygon fill="#181818" points="499,543.3262,489,547.3262,499,551.3262,495,547.3262" style="stroke:#181818;stroke-width:1.0;"/><text fill="#000000" font-family="sans-serif" font-size="13" font-weight="bold" lengthAdjust="spacing" textLength="14" x="495" y="529.0635">12</text><text fill="#000000" font-family="sans-serif" font-size="13" lengthAdjust="spacing" textLength="117" x="513" y="529.0635">validates vehicle info</text><polygon fill="#181818" points="831,574.6172,841,578.6172,831,582.6172,835,578.6172" style="stroke:#181818;stroke-width:1.0;"/><line style="stroke:#181818;stroke-width:1.0;" x1="488" x2="837" y1="578.6172" y2="578.6172"/><text fill="#000000" font-family="sans-serif" font-size="13" font-weight="bold" lengthAdjust="spacing" textLength="14" x="495" y="573.3545">13</text><text fill="#000000" font-family="sans-serif" font-size="13" lengthAdjust="spacing" textLength="131" x="513" y="573.3545">getVehicleBrandsList()</text><polygon fill="#181818" points="1300,605.9082,1310,609.9082,1300,613.9082,1304,609.9082" style="stroke:#181818;stroke-width:1.0;"/><line style="stroke:#181818;stroke-width:1.0;" x1="853" x2="1306" y1="609.9082" y2="609.9082"/><text fill="#000000" font-family="sans-serif" font-size="13" font-weight="bold" lengthAdjust="spacing" textLength="14" x="860" y="604.6455">14</text><text fill="#000000" font-family="sans-serif" font-size="13" lengthAdjust="spacing" textLength="131" x="878" y="604.6455">getVehicleBrandsList()</text><polygon fill="#181818" points="864,637.1992,854,641.1992,864,645.1992,860,641.1992" style="stroke:#181818;stroke-width:1.0;"/><line style="stroke:#181818;stroke-width:1.0;stroke-dasharray:2.0,2.0;" x1="858" x2="1316" y1="641.1992" y2="641.1992"/><text fill="#000000" font-family="sans-serif" font-size="13" font-weight="bold" lengthAdjust="spacing" textLength="14" x="870" y="635.9365">15</text><text fill="#000000" font-family="sans-serif" font-size="13" lengthAdjust="spacing" textLength="60" x="888" y="635.9365">brandsList</text><polygon fill="#181818" points="499,668.4902,489,672.4902,499,676.4902,495,672.4902" style="stroke:#181818;stroke-width:1.0;"/><line style="stroke:#181818;stroke-width:1.0;stroke-dasharray:2.0,2.0;" x1="493" x2="847" y1="672.4902" y2="672.4902"/><text fill="#000000" font-family="sans-serif" font-size="13" font-weight="bold" lengthAdjust="spacing" textLength="14" x="505" y="667.2275">16</text><text fill="#000000" font-family="sans-serif" font-size="13" lengthAdjust="spacing" textLength="60" x="523" y="667.2275">brandsList</text><polygon fill="#181818" points="102,699.7813,92,703.7813,102,707.7813,98,703.7813" style="stroke:#181818;stroke-width:1.0;"/><line style="stroke:#181818;stroke-width:1.0;stroke-dasharray:2.0,2.0;" x1="96" x2="482" y1="703.7813" y2="703.7813"/><text fill="#000000" font-family="sans-serif" font-size="13" font-weight="bold" lengthAdjust="spacing" textLength="14" x="108" y="698.5186">17</text><text fill="#000000" font-family="sans-serif" font-size="13" lengthAdjust="spacing" textLength="118" x="126" y="698.5186">asks to select brand</text><polygon fill="#181818" points="466,731.0723,476,735.0723,466,739.0723,470,735.0723" style="stroke:#181818;stroke-width:1.0;"/><line style="stroke:#181818;stroke-width:1.0;" x1="91" x2="472" y1="735.0723" y2="735.0723"/><text fill="#000000" font-family="sans-serif" font-size="13" font-weight="bold" lengthAdjust="spacing" textLength="14" x="98" y="729.8096">18</text><text fill="#000000" font-family="sans-serif" font-size="13" lengthAdjust="spacing" textLength="78" x="116" y="729.8096">selects brand</text><polygon fill="#181818" points="831,762.3633,841,766.3633,831,770.3633,835,766.3633" style="stroke:#181818;stroke-width:1.0;"/><line style="stroke:#181818;stroke-width:1.0;" x1="488" x2="837" y1="766.3633" y2="766.3633"/><text fill="#000000" font-family="sans-serif" font-size="13" font-weight="bold" lengthAdjust="spacing" textLength="14" x="495" y="761.1006">19</text><text fill="#000000" font-family="sans-serif" font-size="13" lengthAdjust="spacing" textLength="164" x="513" y="761.1006">getVehicleModelsList(brand)</text><polygon fill="#181818" points="1300,793.6543,1310,797.6543,1300,801.6543,1304,797.6543" style="stroke:#181818;stroke-width:1.0;"/><line style="stroke:#181818;stroke-width:1.0;" x1="853" x2="1306" y1="797.6543" y2="797.6543"/><text fill="#000000" font-family="sans-serif" font-size="13" font-weight="bold" lengthAdjust="spacing" textLength="14" x="860" y="792.3916">20</text><text fill="#000000" font-family="sans-serif" font-size="13" lengthAdjust="spacing" textLength="164" x="878" y="792.3916">getVehicleModelsList(brand)</text><polygon fill="#181818" points="864,824.9453,854,828.9453,864,832.9453,860,828.9453" style="stroke:#181818;stroke-width:1.0;"/><line style="stroke:#181818;stroke-width:1.0;stroke-dasharray:2.0,2.0;" x1="858" x2="1316" y1="828.9453" y2="828.9453"/><text fill="#000000" font-family="sans-serif" font-size="13" font-weight="bold" lengthAdjust="spacing" textLength="14" x="870" y="823.6826">21</text><text fill="#000000" font-family="sans-serif" font-size="13" lengthAdjust="spacing" textLength="63" x="888" y="823.6826">modelsList</text><polygon fill="#181818" points="499,856.2363,489,860.2363,499,864.2363,495,860.2363" style="stroke:#181818;stroke-width:1.0;"/><line style="stroke:#181818;stroke-width:1.0;stroke-dasharray:2.0,2.0;" x1="493" x2="847" y1="860.2363" y2="860.2363"/><text fill="#000000" font-family="sans-serif" font-size="13" font-weight="bold" lengthAdjust="spacing" textLength="14" x="505" y="854.9736">22</text><text fill="#000000" font-family="sans-serif" font-size="13" lengthAdjust="spacing" textLength="63" x="523" y="854.9736">modelsList</text><polygon fill="#181818" points="102,887.5273,92,891.5273,102,895.5273,98,891.5273" style="stroke:#181818;stroke-width:1.0;"/><line style="stroke:#181818;stroke-width:1.0;stroke-dasharray:2.0,2.0;" x1="96" x2="482" y1="891.5273" y2="891.5273"/><text fill="#000000" font-family="sans-serif" font-size="13" font-weight="bold" lengthAdjust="spacing" textLength="14" x="108" y="886.2646">23</text><text fill="#000000" font-family="sans-serif" font-size="13" lengthAdjust="spacing" textLength="121" x="126" y="886.2646">asks to select model</text><polygon fill="#181818" points="466,918.8184,476,922.8184,466,926.8184,470,922.8184" style="stroke:#181818;stroke-width:1.0;"/><line style="stroke:#181818;stroke-width:1.0;" x1="91" x2="472" y1="922.8184" y2="922.8184"/><text fill="#000000" font-family="sans-serif" font-size="13" font-weight="bold" lengthAdjust="spacing" textLength="14" x="98" y="917.5557">24</text><text fill="#000000" font-family="sans-serif" font-size="13" lengthAdjust="spacing" textLength="81" x="116" y="917.5557">selects model</text><polygon fill="#181818" points="831,950.1094,841,954.1094,831,958.1094,835,954.1094" style="stroke:#181818;stroke-width:1.0;"/><line style="stroke:#181818;stroke-width:1.0;" x1="488" x2="837" y1="954.1094" y2="954.1094"/><text fill="#000000" font-family="sans-serif" font-size="13" font-weight="bold" lengthAdjust="spacing" textLength="14" x="495" y="948.8467">25</text><text fill="#000000" font-family="sans-serif" font-size="13" lengthAdjust="spacing" textLength="160" x="513" y="948.8467">getVehicleTypesList(model)</text><polygon fill="#181818" points="1300,981.4004,1310,985.4004,1300,989.4004,1304,985.4004" style="stroke:#181818;stroke-width:1.0;"/><line style="stroke:#181818;stroke-width:1.0;" x1="853" x2="1306" y1="985.4004" y2="985.4004"/><text fill="#000000" font-family="sans-serif" font-size="13" font-weight="bold" lengthAdjust="spacing" textLength="14" x="860" y="980.1377">26</text><text fill="#000000" font-family="sans-serif" font-size="13" lengthAdjust="spacing" textLength="160" x="878" y="980.1377">getVehicleTypesList(model)</text><polygon fill="#181818" points="864,1012.6914,854,1016.6914,864,1020.6914,860,1016.6914" style="stroke:#181818;stroke-width:1.0;"/><line style="stroke:#181818;stroke-width:1.0;stroke-dasharray:2.0,2.0;" x1="858" x2="1316" y1="1016.6914" y2="1016.6914"/><text fill="#000000" font-family="sans-serif" font-size="13" font-weight="bold" lengthAdjust="spacing" textLength="14" x="870" y="1011.4287">27</text><text fill="#000000" font-family="sans-serif" font-size="13" lengthAdjust="spacing" textLength="53" x="888" y="1011.4287">typesList</text><polygon fill="#181818" points="499,1043.9824,489,1047.9824,499,1051.9824,495,1047.9824" style="stroke:#181818;stroke-width:1.0;"/><line style="stroke:#181818;stroke-width:1.0;stroke-dasharray:2.0,2.0;" x1="493" x2="847" y1="1047.9824" y2="1047.9824"/><text fill="#000000" font-family="sans-serif" font-size="13" font-weight="bold" lengthAdjust="spacing" textLength="14" x="505" y="1042.7197">28</text><text fill="#000000" font-family="sans-serif" font-size="13" lengthAdjust="spacing" textLength="53" x="523" y="1042.7197">typesList</text><polygon fill="#181818" points="102,1075.2734,92,1079.2734,102,1083.2734,98,1079.2734" style="stroke:#181818;stroke-width:1.0;"/><line style="stroke:#181818;stroke-width:1.0;stroke-dasharray:2.0,2.0;" x1="96" x2="482" y1="1079.2734" y2="1079.2734"/><text fill="#000000" font-family="sans-serif" font-size="13" font-weight="bold" lengthAdjust="spacing" textLength="14" x="108" y="1074.0107">29</text><text fill="#000000" font-family="sans-serif" font-size="13" lengthAdjust="spacing" textLength="111" x="126" y="1074.0107">asks to select type</text><polygon fill="#181818" points="466,1106.5645,476,1110.5645,466,1114.5645,470,1110.5645" style="stroke:#181818;stroke-width:1.0;"/><line style="stroke:#181818;stroke-width:1.0;" x1="91" x2="472" y1="1110.5645" y2="1110.5645"/><text fill="#000000" font-family="sans-serif" font-size="13" font-weight="bold" lengthAdjust="spacing" textLength="14" x="98" y="1105.3018">30</text><text fill="#000000" font-family="sans-serif" font-size="13" lengthAdjust="spacing" textLength="71" x="116" y="1105.3018">selects type</text><polygon fill="#181818" points="102,1137.8555,92,1141.8555,102,1145.8555,98,1141.8555" style="stroke:#181818;stroke-width:1.0;"/><line style="stroke:#181818;stroke-width:1.0;stroke-dasharray:2.0,2.0;" x1="96" x2="482" y1="1141.8555" y2="1141.8555"/><text fill="#000000" font-family="sans-serif" font-size="13" font-weight="bold" lengthAdjust="spacing" textLength="14" x="108" y="1136.5928">31</text><text fill="#000000" font-family="sans-serif" font-size="13" lengthAdjust="spacing" textLength="236" x="126" y="1136.5928">shows all data and requests confirmation</text><polygon fill="#181818" points="466,1169.1465,476,1173.1465,466,1177.1465,470,1173.1465" style="stroke:#181818;stroke-width:1.0;"/><line style="stroke:#181818;stroke-width:1.0;" x1="91" x2="472" y1="1173.1465" y2="1173.1465"/><text fill="#000000" font-family="sans-serif" font-size="13" font-weight="bold" lengthAdjust="spacing" textLength="14" x="98" y="1167.8838">32</text><text fill="#000000" font-family="sans-serif" font-size="13" lengthAdjust="spacing" textLength="78" x="116" y="1167.8838">confirms data</text><polygon fill="#181818" points="831,1235.0195,841,1239.0195,831,1243.0195,835,1239.0195" style="stroke:#181818;stroke-width:1.0;"/><line style="stroke:#181818;stroke-width:1.0;stroke-dasharray:2.0,2.0;" x1="488" x2="837" y1="1239.0195" y2="1239.0195"/><text fill="#000000" font-family="sans-serif" font-size="13" font-weight="bold" lengthAdjust="spacing" textLength="14" x="495" y="1216.4658">33</text><text fill="#000000" font-family="sans-serif" font-size="13" lengthAdjust="spacing" textLength="314" x="513" y="1199.1748">saveNewVehicle(tareWeight, grossWeight, currentKm,</text><text fill="#000000" font-family="sans-serif" font-size="13" lengthAdjust="spacing" textLength="314" x="513" y="1216.4658">registerDate, acquisitionDate, maintenanceFrequency,</text><text fill="#000000" font-family="sans-serif" font-size="13" lengthAdjust="spacing" textLength="148" x="513" y="1233.7568">plate, brand, model, type)</text><polygon fill="#181818" points="1196,1300.8926,1206,1304.8926,1196,1308.8926,1200,1304.8926" style="stroke:#181818;stroke-width:1.0;"/><line style="stroke:#181818;stroke-width:1.0;stroke-dasharray:2.0,2.0;" x1="853" x2="1202" y1="1304.8926" y2="1304.8926"/><text fill="#000000" font-family="sans-serif" font-size="13" font-weight="bold" lengthAdjust="spacing" textLength="14" x="860" y="1282.3389">34</text><text fill="#000000" font-family="sans-serif" font-size="13" lengthAdjust="spacing" textLength="314" x="878" y="1265.0479">saveNewVehicle(tareWeight, grossWeight, currentKm,</text><text fill="#000000" font-family="sans-serif" font-size="13" lengthAdjust="spacing" textLength="314" x="878" y="1282.3389">registerDate, acquisitionDate, maintenanceFrequency,</text><text fill="#000000" font-family="sans-serif" font-size="13" lengthAdjust="spacing" textLength="148" x="878" y="1299.6299">plate, brand, model, type)</text><polygon fill="#181818" points="864,1332.1836,854,1336.1836,864,1340.1836,860,1336.1836" style="stroke:#181818;stroke-width:1.0;"/><line style="stroke:#181818;stroke-width:1.0;stroke-dasharray:2.0,2.0;" x1="858" x2="1212" y1="1336.1836" y2="1336.1836"/><text fill="#000000" font-family="sans-serif" font-size="13" font-weight="bold" lengthAdjust="spacing" textLength="14" x="870" y="1330.9209">35</text><text fill="#000000" font-family="sans-serif" font-size="13" lengthAdjust="spacing" textLength="49" x="888" y="1330.9209">success</text><polygon fill="#181818" points="499,1363.4746,489,1367.4746,499,1371.4746,495,1367.4746" style="stroke:#181818;stroke-width:1.0;"/><line style="stroke:#181818;stroke-width:1.0;stroke-dasharray:2.0,2.0;" x1="493" x2="847" y1="1367.4746" y2="1367.4746"/><text fill="#000000" font-family="sans-serif" font-size="13" font-weight="bold" lengthAdjust="spacing" textLength="14" x="505" y="1362.2119">36</text><text fill="#000000" font-family="sans-serif" font-size="13" lengthAdjust="spacing" textLength="49" x="523" y="1362.2119">success</text><polygon fill="#181818" points="102,1394.7656,92,1398.7656,102,1402.7656,98,1398.7656" style="stroke:#181818;stroke-width:1.0;"/><line style="stroke:#181818;stroke-width:1.0;stroke-dasharray:2.0,2.0;" x1="96" x2="482" y1="1398.7656" y2="1398.7656"/><text fill="#000000" font-family="sans-serif" font-size="13" font-weight="bold" lengthAdjust="spacing" textLength="14" x="108" y="1393.5029">37</text><text fill="#000000" font-family="sans-serif" font-size="13" lengthAdjust="spacing" textLength="199" x="126" y="1393.5029">informs that vehicle was registered</text><!--SRC=[pLPDJ-Cm4BtdLynoePN27q02YGLLGajNAnQM2nVNcIOMZXrifwN_VYVETvgMbBriJwazxsLctel7zaseZ1cMGggLvedHAO8pEGQssSaOVsCn_dOxYM2GEwPYsGsm2OlqLgWOranQ30AMEwtoT8Kc2CuJ4I6ijNOh_H4mxhI1iuL4TB1aYdWDp1RB-Ham2ujbG8nES94nvU3iyX5ZOHsQFvW8Bl7vteSztm_2gkrRhPpHKgBnORTFZm_zm4qPzwfgX8-hLXyn6us-SSw8LUxGjhXshSiG5EM93NDOL190zLiiuUAQaePBwjvxZjPPS9gUozg0WS9jmr6Z6YggjbaaaWlY8iPBUk-RfRwQ6WcPfF0sDi8knKWoRfUX7Q37tjvzUGNTC2aYsXx2pw7pgvAzkLjsAoSOWvd1DHfK74FAqt8ZCYUq2W64ef9I9k5LzNSSyaG9JZkzvIWth7pYshfvq4tWd1iiQl1666PsxPSfinXTfUhttQ-YYfclfK_LzCDpzROy3T6rDZgPjEF0Na27yg9DUEYKWTWTilqq6m6FS_GwngHhPFvs1IgNSjIGfNJaxOIr02P9WsW7-45cjmqEwPneOgwEaEwvl7WBp1mp25iKSU92Y8ssjld7SqFESl0Z3Sb4pLTMs3Mabh_dmeh2CTLAoeHog1Xv4TRUfOhlvb_zYehilluHzT27J6gOYkm35JMR1v_OSs3D4tYQ4srWnQuFLmr3SDY6mRZ_ZcDxzjjp0vsT5YNDeP9bkbGboWvWXrNQw_rIHsHStpFFSKY0AVsVm3LiuOW6QSDokWR7iLCry2odQz27dQ31K_6z-RPvYd-Hu7Eg2GguckHq0Ov2f_Q_83cz_JtKeUxNRxI9tbewoMKvlCcixJZdMgq53UpYH9sUHeKgRmDJygYQRTa6V-AsqizFWPVk47Zfpu3-2BWRJe2xuG1OrET_0VC3EomFYx3qQ-ZxDiromnl1_vhwo7LX_DfXSyxHsc3QbQFlz2FOWpuVlKviwRPTDmKF7Vseehy0]--></g></svg>