<?xml version="1.0" encoding="us-ascii" standalone="no"?><svg xmlns="http://www.w3.org/2000/svg" xmlns:xlink="http://www.w3.org/1999/xlink" contentStyleType="text/css" height="1869px" preserveAspectRatio="none" style="width:1746px;height:1869px;background:#FFFFFF;" version="1.1" viewBox="0 0 1746 1869" width="1746px" zoomAndPan="magnify"><defs/><g><rect fill="#FFFFFF" height="1674.6465" style="stroke:#181818;stroke-width:1.0;" width="10" x="81" y="93.6211"/><rect fill="#FFFFFF" height="342.5313" style="stroke:#181818;stroke-width:1.0;" width="10" x="521" y="116.9121"/><rect fill="#FFFFFF" height="353.832" style="stroke:#181818;stroke-width:1.0;" width="10" x="521" y="517.0254"/><rect fill="#FFFFFF" height="353.832" style="stroke:#181818;stroke-width:1.0;" width="10" x="521" y="928.4395"/><rect fill="#FFFFFF" height="103.5039" style="stroke:#181818;stroke-width:1.0;" width="10" x="521" y="1339.8535"/><rect fill="#FFFFFF" height="31.291" style="stroke:#181818;stroke-width:1.0;" width="10" x="521" y="1491.9395"/><rect fill="#FFFFFF" height="213.7461" style="stroke:#181818;stroke-width:1.0;" width="10" x="521" y="1554.5215"/><rect fill="#FFFFFF" height="219.0371" style="stroke:#181818;stroke-width:1.0;" width="10" x="686.5" y="191.8242"/><rect fill="#FFFFFF" height="219.0371" style="stroke:#181818;stroke-width:1.0;" width="10" x="686.5" y="603.2383"/><rect fill="#FFFFFF" height="219.0371" style="stroke:#181818;stroke-width:1.0;" width="10" x="686.5" y="1014.6523"/><rect fill="#FFFFFF" height="151.1641" style="stroke:#181818;stroke-width:1.0;" width="10" x="686.5" y="1585.8125"/><rect fill="#FFFFFF" height="31.291" style="stroke:#181818;stroke-width:1.0;" width="10" x="834.5" y="223.1152"/><rect fill="#FFFFFF" height="31.291" style="stroke:#181818;stroke-width:1.0;" width="10" x="834.5" y="634.5293"/><rect fill="#FFFFFF" height="31.291" style="stroke:#181818;stroke-width:1.0;" width="10" x="834.5" y="1045.9434"/><rect fill="#FFFFFF" height="31.291" style="stroke:#181818;stroke-width:1.0;" width="10" x="941.5" y="285.6973"/><rect fill="#FFFFFF" height="31.291" style="stroke:#181818;stroke-width:1.0;" width="10" x="941.5" y="697.1113"/><rect fill="#FFFFFF" height="31.291" style="stroke:#181818;stroke-width:1.0;" width="10" x="941.5" y="1108.5254"/><rect fill="#FFFFFF" height="31.291" style="stroke:#181818;stroke-width:1.0;" width="10" x="1081" y="348.2793"/><rect fill="#FFFFFF" height="31.291" style="stroke:#181818;stroke-width:1.0;" width="10" x="1256" y="759.6934"/><rect fill="#FFFFFF" height="31.291" style="stroke:#181818;stroke-width:1.0;" width="10" x="1434" y="1171.1074"/><rect fill="#FFFFFF" height="151.1641" style="stroke:#181818;stroke-width:1.0;" width="10" x="1567" y="1617.1035"/><rect fill="none" height="98.5039" style="stroke:#000000;stroke-width:1.5;" width="590.5" x="10" y="474.4434"/><rect fill="none" height="98.5039" style="stroke:#000000;stroke-width:1.5;" width="590.5" x="10" y="885.8574"/><rect fill="none" height="98.5039" style="stroke:#000000;stroke-width:1.5;" width="590.5" x="10" y="1297.2715"/><line style="stroke:#181818;stroke-width:0.5;stroke-dasharray:5.0,5.0;" x1="86" x2="86" y1="83.6211" y2="1786.2676"/><line style="stroke:#181818;stroke-width:0.5;stroke-dasharray:5.0,5.0;" x1="525.5" x2="525.5" y1="83.6211" y2="1786.2676"/><line style="stroke:#181818;stroke-width:0.5;stroke-dasharray:5.0,5.0;" x1="691" x2="691" y1="156.7227" y2="1786.2676"/><line style="stroke:#181818;stroke-width:0.5;stroke-dasharray:5.0,5.0;" x1="839" x2="839" y1="83.6211" y2="1786.2676"/><line style="stroke:#181818;stroke-width:0.5;stroke-dasharray:5.0,5.0;" x1="946" x2="946" y1="83.6211" y2="1786.2676"/><line style="stroke:#181818;stroke-width:0.5;stroke-dasharray:5.0,5.0;" x1="1086" x2="1086" y1="83.6211" y2="1786.2676"/><line style="stroke:#181818;stroke-width:0.5;stroke-dasharray:5.0,5.0;" x1="1261" x2="1261" y1="83.6211" y2="1786.2676"/><line style="stroke:#181818;stroke-width:0.5;stroke-dasharray:5.0,5.0;" x1="1439" x2="1439" y1="83.6211" y2="1786.2676"/><line style="stroke:#181818;stroke-width:0.5;stroke-dasharray:5.0,5.0;" x1="1572" x2="1572" y1="83.6211" y2="1786.2676"/><text fill="#000000" font-family="sans-serif" font-size="14" lengthAdjust="spacing" textLength="126" x="20" y="80.1074">Fleet Manager (FM)</text><ellipse cx="86" cy="13.5" fill="#E3E3E3" rx="8" ry="8" style="stroke:#181818;stroke-width:0.5;"/><path d="M86,21.5 L86,48.5 M73,29.5 L99,29.5 M86,48.5 L73,63.5 M86,48.5 L99,63.5 " fill="none" style="stroke:#181818;stroke-width:0.5;"/><text fill="#000000" font-family="sans-serif" font-size="14" lengthAdjust="spacing" textLength="126" x="20" y="1800.375">Fleet Manager (FM)</text><ellipse cx="86" cy="1812.3887" fill="#E3E3E3" rx="8" ry="8" style="stroke:#181818;stroke-width:0.5;"/><path d="M86,1820.3887 L86,1847.3887 M73,1828.3887 L99,1828.3887 M86,1847.3887 L73,1862.3887 M86,1847.3887 L99,1862.3887 " fill="none" style="stroke:#181818;stroke-width:0.5;"/><rect fill="#E3E3E3" height="32.6211" rx="2.5" ry="2.5" style="stroke:#181818;stroke-width:0.5;" width="129" x="461.5" y="50"/><text fill="#000000" font-family="sans-serif" font-size="14" lengthAdjust="spacing" textLength="115" x="468.5" y="72.1074">:RegisterVehicleUI</text><rect fill="#E3E3E3" height="32.6211" rx="2.5" ry="2.5" style="stroke:#181818;stroke-width:0.5;" width="129" x="461.5" y="1785.2676"/><text fill="#000000" font-family="sans-serif" font-size="14" lengthAdjust="spacing" textLength="115" x="468.5" y="1807.375">:RegisterVehicleUI</text><rect fill="#E3E3E3" height="32.6211" rx="2.5" ry="2.5" style="stroke:#181818;stroke-width:0.5;" width="179" x="602" y="1785.2676"/><text fill="#000000" font-family="sans-serif" font-size="14" lengthAdjust="spacing" textLength="165" x="609" y="1807.375">:RegisterVehicleController</text><rect fill="#E3E3E3" height="32.6211" rx="2.5" ry="2.5" style="stroke:#181818;stroke-width:0.5;" width="97" x="791" y="50"/><text fill="#000000" font-family="sans-serif" font-size="14" lengthAdjust="spacing" textLength="83" x="798" y="72.1074">:Repositories</text><rect fill="#E3E3E3" height="32.6211" rx="2.5" ry="2.5" style="stroke:#181818;stroke-width:0.5;" width="97" x="791" y="1785.2676"/><text fill="#000000" font-family="sans-serif" font-size="14" lengthAdjust="spacing" textLength="83" x="798" y="1807.375">:Repositories</text><rect fill="#E3E3E3" height="51.2422" rx="2.5" ry="2.5" style="stroke:#181818;stroke-width:0.5;" width="97" x="898" y="31.3789"/><text fill="#000000" font-family="sans-serif" font-size="14" lengthAdjust="spacing" textLength="74" x="909.5" y="53.4863">repositories</text><text fill="#000000" font-family="sans-serif" font-size="14" lengthAdjust="spacing" textLength="83" x="905" y="72.1074">:Repositories</text><rect fill="#E3E3E3" height="51.2422" rx="2.5" ry="2.5" style="stroke:#181818;stroke-width:0.5;" width="97" x="898" y="1785.2676"/><text fill="#000000" font-family="sans-serif" font-size="14" lengthAdjust="spacing" textLength="74" x="909.5" y="1807.375">repositories</text><text fill="#000000" font-family="sans-serif" font-size="14" lengthAdjust="spacing" textLength="83" x="905" y="1825.9961">:Repositories</text><rect fill="#E3E3E3" height="51.2422" rx="2.5" ry="2.5" style="stroke:#181818;stroke-width:0.5;" width="162" x="1005" y="31.3789"/><text fill="#000000" font-family="sans-serif" font-size="14" lengthAdjust="spacing" textLength="148" x="1012" y="53.4863">vehicleTypeRepository:</text><text fill="#000000" font-family="sans-serif" font-size="14" lengthAdjust="spacing" textLength="146" x="1013" y="72.1074">VehicleTypeRepository</text><rect fill="#E3E3E3" height="51.2422" rx="2.5" ry="2.5" style="stroke:#181818;stroke-width:0.5;" width="162" x="1005" y="1785.2676"/><text fill="#000000" font-family="sans-serif" font-size="14" lengthAdjust="spacing" textLength="148" x="1012" y="1807.375">vehicleTypeRepository:</text><text fill="#000000" font-family="sans-serif" font-size="14" lengthAdjust="spacing" textLength="146" x="1013" y="1825.9961">VehicleTypeRepository</text><rect fill="#E3E3E3" height="51.2422" rx="2.5" ry="2.5" style="stroke:#181818;stroke-width:0.5;" width="168" x="1177" y="31.3789"/><text fill="#000000" font-family="sans-serif" font-size="14" lengthAdjust="spacing" textLength="154" x="1184" y="53.4863">vehicleBrandRepository:</text><text fill="#000000" font-family="sans-serif" font-size="14" lengthAdjust="spacing" textLength="152" x="1185" y="72.1074">VehicleBrandRepository</text><rect fill="#E3E3E3" height="51.2422" rx="2.5" ry="2.5" style="stroke:#181818;stroke-width:0.5;" width="168" x="1177" y="1785.2676"/><text fill="#000000" font-family="sans-serif" font-size="14" lengthAdjust="spacing" textLength="154" x="1184" y="1807.375">vehicleBrandRepository:</text><text fill="#000000" font-family="sans-serif" font-size="14" lengthAdjust="spacing" textLength="152" x="1185" y="1825.9961">VehicleBrandRepository</text><rect fill="#E3E3E3" height="51.2422" rx="2.5" ry="2.5" style="stroke:#181818;stroke-width:0.5;" width="168" x="1355" y="31.3789"/><text fill="#000000" font-family="sans-serif" font-size="14" lengthAdjust="spacing" textLength="154" x="1362" y="53.4863">vehicleModelRepository:</text><text fill="#000000" font-family="sans-serif" font-size="14" lengthAdjust="spacing" textLength="152" x="1363" y="72.1074">VehicleModelRepository</text><rect fill="#E3E3E3" height="51.2422" rx="2.5" ry="2.5" style="stroke:#181818;stroke-width:0.5;" width="168" x="1355" y="1785.2676"/><text fill="#000000" font-family="sans-serif" font-size="14" lengthAdjust="spacing" textLength="154" x="1362" y="1807.375">vehicleModelRepository:</text><text fill="#000000" font-family="sans-serif" font-size="14" lengthAdjust="spacing" textLength="152" x="1363" y="1825.9961">VehicleModelRepository</text><rect fill="#E3E3E3" height="51.2422" rx="2.5" ry="2.5" style="stroke:#181818;stroke-width:0.5;" width="78" x="1533" y="31.3789"/><text fill="#000000" font-family="sans-serif" font-size="14" lengthAdjust="spacing" textLength="57" x="1543.5" y="53.4863">company</text><text fill="#000000" font-family="sans-serif" font-size="14" lengthAdjust="spacing" textLength="64" x="1540" y="72.1074">:Company</text><rect fill="#E3E3E3" height="51.2422" rx="2.5" ry="2.5" style="stroke:#181818;stroke-width:0.5;" width="78" x="1533" y="1785.2676"/><text fill="#000000" font-family="sans-serif" font-size="14" lengthAdjust="spacing" textLength="57" x="1543.5" y="1807.375">company</text><text fill="#000000" font-family="sans-serif" font-size="14" lengthAdjust="spacing" textLength="64" x="1540" y="1825.9961">:Company</text><rect fill="#FFFFFF" height="1674.6465" style="stroke:#181818;stroke-width:1.0;" width="10" x="81" y="93.6211"/><rect fill="#FFFFFF" height="342.5313" style="stroke:#181818;stroke-width:1.0;" width="10" x="521" y="116.9121"/><rect fill="#FFFFFF" height="353.832" style="stroke:#181818;stroke-width:1.0;" width="10" x="521" y="517.0254"/><rect fill="#FFFFFF" height="353.832" style="stroke:#181818;stroke-width:1.0;" width="10" x="521" y="928.4395"/><rect fill="#FFFFFF" height="103.5039" style="stroke:#181818;stroke-width:1.0;" width="10" x="521" y="1339.8535"/><rect fill="#FFFFFF" height="31.291" style="stroke:#181818;stroke-width:1.0;" width="10" x="521" y="1491.9395"/><rect fill="#FFFFFF" height="213.7461" style="stroke:#181818;stroke-width:1.0;" width="10" x="521" y="1554.5215"/><rect fill="#FFFFFF" height="219.0371" style="stroke:#181818;stroke-width:1.0;" width="10" x="686.5" y="191.8242"/><rect fill="#FFFFFF" height="219.0371" style="stroke:#181818;stroke-width:1.0;" width="10" x="686.5" y="603.2383"/><rect fill="#FFFFFF" height="219.0371" style="stroke:#181818;stroke-width:1.0;" width="10" x="686.5" y="1014.6523"/><rect fill="#FFFFFF" height="151.1641" style="stroke:#181818;stroke-width:1.0;" width="10" x="686.5" y="1585.8125"/><rect fill="#FFFFFF" height="31.291" style="stroke:#181818;stroke-width:1.0;" width="10" x="834.5" y="223.1152"/><rect fill="#FFFFFF" height="31.291" style="stroke:#181818;stroke-width:1.0;" width="10" x="834.5" y="634.5293"/><rect fill="#FFFFFF" height="31.291" style="stroke:#181818;stroke-width:1.0;" width="10" x="834.5" y="1045.9434"/><rect fill="#FFFFFF" height="31.291" style="stroke:#181818;stroke-width:1.0;" width="10" x="941.5" y="285.6973"/><rect fill="#FFFFFF" height="31.291" style="stroke:#181818;stroke-width:1.0;" width="10" x="941.5" y="697.1113"/><rect fill="#FFFFFF" height="31.291" style="stroke:#181818;stroke-width:1.0;" width="10" x="941.5" y="1108.5254"/><rect fill="#FFFFFF" height="31.291" style="stroke:#181818;stroke-width:1.0;" width="10" x="1081" y="348.2793"/><rect fill="#FFFFFF" height="31.291" style="stroke:#181818;stroke-width:1.0;" width="10" x="1256" y="759.6934"/><rect fill="#FFFFFF" height="31.291" style="stroke:#181818;stroke-width:1.0;" width="10" x="1434" y="1171.1074"/><rect fill="#FFFFFF" height="151.1641" style="stroke:#181818;stroke-width:1.0;" width="10" x="1567" y="1617.1035"/><polygon fill="#181818" points="509,112.9121,519,116.9121,509,120.9121,513,116.9121" style="stroke:#181818;stroke-width:1.0;"/><line style="stroke:#181818;stroke-width:1.0;" x1="91" x2="515" y1="116.9121" y2="116.9121"/><text fill="#000000" font-family="sans-serif" font-size="13" font-weight="bold" lengthAdjust="spacing" textLength="7" x="98" y="111.6494">1</text><text fill="#000000" font-family="sans-serif" font-size="13" lengthAdjust="spacing" textLength="166" x="109" y="111.6494">requests to register a vehicle</text><polygon fill="#181818" points="590,144.2031,600,148.2031,590,152.2031,594,148.2031" style="stroke:#181818;stroke-width:1.0;"/><line style="stroke:#181818;stroke-width:1.0;" x1="531" x2="596" y1="148.2031" y2="148.2031"/><text fill="#000000" font-family="sans-serif" font-size="13" font-weight="bold" lengthAdjust="spacing" textLength="7" x="538" y="142.9404">2</text><text fill="#000000" font-family="sans-serif" font-size="13" lengthAdjust="spacing" textLength="36" x="549" y="142.9404">create</text><rect fill="#E3E3E3" height="32.6211" rx="2.5" ry="2.5" style="stroke:#181818;stroke-width:0.5;" width="179" x="602" y="124.9121"/><text fill="#000000" font-family="sans-serif" font-size="14" lengthAdjust="spacing" textLength="165" x="609" y="147.0195">:RegisterVehicleController</text><polygon fill="#181818" points="674.5,187.8242,684.5,191.8242,674.5,195.8242,678.5,191.8242" style="stroke:#181818;stroke-width:1.0;"/><line style="stroke:#181818;stroke-width:1.0;" x1="531" x2="680.5" y1="191.8242" y2="191.8242"/><text fill="#000000" font-family="sans-serif" font-size="13" font-weight="bold" lengthAdjust="spacing" textLength="7" x="538" y="186.5615">3</text><text fill="#000000" font-family="sans-serif" font-size="13" lengthAdjust="spacing" textLength="104" x="549" y="186.5615">getVehicleTypes()</text><polygon fill="#181818" points="822.5,219.1152,832.5,223.1152,822.5,227.1152,826.5,223.1152" style="stroke:#181818;stroke-width:1.0;"/><line style="stroke:#181818;stroke-width:1.0;" x1="696.5" x2="828.5" y1="223.1152" y2="223.1152"/><text fill="#000000" font-family="sans-serif" font-size="13" font-weight="bold" lengthAdjust="spacing" textLength="7" x="703.5" y="217.8525">4</text><text fill="#000000" font-family="sans-serif" font-size="13" lengthAdjust="spacing" textLength="75" x="714.5" y="217.8525">getInstance()</text><polygon fill="#181818" points="707.5,250.4063,697.5,254.4063,707.5,258.4063,703.5,254.4063" style="stroke:#181818;stroke-width:1.0;"/><line style="stroke:#181818;stroke-width:1.0;stroke-dasharray:2.0,2.0;" x1="701.5" x2="838.5" y1="254.4063" y2="254.4063"/><text fill="#000000" font-family="sans-serif" font-size="13" font-weight="bold" lengthAdjust="spacing" textLength="7" x="713.5" y="249.1436">5</text><text fill="#000000" font-family="sans-serif" font-size="13" lengthAdjust="spacing" textLength="67" x="724.5" y="249.1436">repositories</text><polygon fill="#181818" points="929.5,281.6973,939.5,285.6973,929.5,289.6973,933.5,285.6973" style="stroke:#181818;stroke-width:1.0;"/><line style="stroke:#181818;stroke-width:1.0;" x1="696.5" x2="935.5" y1="285.6973" y2="285.6973"/><text fill="#000000" font-family="sans-serif" font-size="13" font-weight="bold" lengthAdjust="spacing" textLength="7" x="703.5" y="280.4346">6</text><text fill="#000000" font-family="sans-serif" font-size="13" lengthAdjust="spacing" textLength="159" x="714.5" y="280.4346">getVehicleTypeRepository()</text><polygon fill="#181818" points="707.5,312.9883,697.5,316.9883,707.5,320.9883,703.5,316.9883" style="stroke:#181818;stroke-width:1.0;"/><line style="stroke:#181818;stroke-width:1.0;stroke-dasharray:2.0,2.0;" x1="701.5" x2="945.5" y1="316.9883" y2="316.9883"/><text fill="#000000" font-family="sans-serif" font-size="13" font-weight="bold" lengthAdjust="spacing" textLength="7" x="713.5" y="311.7256">7</text><text fill="#000000" font-family="sans-serif" font-size="13" lengthAdjust="spacing" textLength="140" x="724.5" y="311.7256">VehicleTypesRepository</text><polygon fill="#181818" points="1069,344.2793,1079,348.2793,1069,352.2793,1073,348.2793" style="stroke:#181818;stroke-width:1.0;"/><line style="stroke:#181818;stroke-width:1.0;" x1="696.5" x2="1075" y1="348.2793" y2="348.2793"/><text fill="#000000" font-family="sans-serif" font-size="13" font-weight="bold" lengthAdjust="spacing" textLength="7" x="703.5" y="343.0166">8</text><text fill="#000000" font-family="sans-serif" font-size="13" lengthAdjust="spacing" textLength="104" x="714.5" y="343.0166">getVehicleTypes()</text><polygon fill="#181818" points="707.5,375.5703,697.5,379.5703,707.5,383.5703,703.5,379.5703" style="stroke:#181818;stroke-width:1.0;"/><line style="stroke:#181818;stroke-width:1.0;stroke-dasharray:2.0,2.0;" x1="701.5" x2="1085" y1="379.5703" y2="379.5703"/><text fill="#000000" font-family="sans-serif" font-size="13" font-weight="bold" lengthAdjust="spacing" textLength="7" x="713.5" y="374.3076">9</text><text fill="#000000" font-family="sans-serif" font-size="13" lengthAdjust="spacing" textLength="88" x="724.5" y="374.3076">vehicleTypeList</text><polygon fill="#181818" points="542,406.8613,532,410.8613,542,414.8613,538,410.8613" style="stroke:#181818;stroke-width:1.0;"/><line style="stroke:#181818;stroke-width:1.0;stroke-dasharray:2.0,2.0;" x1="536" x2="690.5" y1="410.8613" y2="410.8613"/><text fill="#000000" font-family="sans-serif" font-size="13" font-weight="bold" lengthAdjust="spacing" textLength="14" x="548" y="405.5986">10</text><text fill="#000000" font-family="sans-serif" font-size="13" lengthAdjust="spacing" textLength="88" x="566" y="405.5986">vehicleTypeList</text><polygon fill="#181818" points="102,455.4434,92,459.4434,102,463.4434,98,459.4434" style="stroke:#181818;stroke-width:1.0;"/><line style="stroke:#181818;stroke-width:1.0;stroke-dasharray:2.0,2.0;" x1="96" x2="525" y1="459.4434" y2="459.4434"/><text fill="#000000" font-family="sans-serif" font-size="13" font-weight="bold" lengthAdjust="spacing" textLength="14" x="108" y="445.5352">11</text><text fill="#000000" font-family="sans-serif" font-size="13" lengthAdjust="spacing" textLength="137" x="126" y="436.8896">shows vehicle types list</text><text fill="#000000" font-family="sans-serif" font-size="13" lengthAdjust="spacing" textLength="132" x="130" y="454.1807">and asks to select one</text><path d="M10,474.4434 L71,474.4434 L71,483.7344 L61,493.7344 L10,493.7344 L10,474.4434 " fill="#EEEEEE" style="stroke:#000000;stroke-width:1.5;"/><rect fill="none" height="98.5039" style="stroke:#000000;stroke-width:1.5;" width="590.5" x="10" y="474.4434"/><text fill="#000000" font-family="sans-serif" font-size="13" font-weight="bold" lengthAdjust="spacing" textLength="16" x="25" y="489.4717">alt</text><text fill="#000000" font-family="sans-serif" font-size="11" font-weight="bold" lengthAdjust="spacing" textLength="248" x="86" y="488.3135">[The FM chooses a vehicle type from the list]</text><polygon fill="#181818" points="509,513.0254,519,517.0254,509,521.0254,513,517.0254" style="stroke:#181818;stroke-width:1.0;"/><line style="stroke:#181818;stroke-width:1.0;" x1="91" x2="515" y1="517.0254" y2="517.0254"/><text fill="#000000" font-family="sans-serif" font-size="13" font-weight="bold" lengthAdjust="spacing" textLength="14" x="98" y="511.7627">12</text><text fill="#000000" font-family="sans-serif" font-size="13" lengthAdjust="spacing" textLength="125" x="116" y="511.7627">selects a vehicle type</text><line style="stroke:#000000;stroke-width:1.0;stroke-dasharray:2.0,2.0;" x1="10" x2="600.5" y1="526.0254" y2="526.0254"/><text fill="#000000" font-family="sans-serif" font-size="11" font-weight="bold" lengthAdjust="spacing" textLength="227" x="15" y="537.8955">[The FM wants to add a new vehicle type]</text><polygon fill="#181818" points="509,560.9473,519,564.9473,509,568.9473,513,564.9473" style="stroke:#181818;stroke-width:1.0;"/><line style="stroke:#181818;stroke-width:1.0;" x1="91" x2="515" y1="564.9473" y2="564.9473"/><text fill="#000000" font-family="sans-serif" font-size="13" font-weight="bold" lengthAdjust="spacing" textLength="14" x="98" y="559.6846">13</text><text fill="#000000" font-family="sans-serif" font-size="13" lengthAdjust="spacing" textLength="194" x="116" y="559.6846">types a vehicle type not in the list</text><polygon fill="#181818" points="674.5,599.2383,684.5,603.2383,674.5,607.2383,678.5,603.2383" style="stroke:#181818;stroke-width:1.0;"/><line style="stroke:#181818;stroke-width:1.0;" x1="531" x2="680.5" y1="603.2383" y2="603.2383"/><text fill="#000000" font-family="sans-serif" font-size="13" font-weight="bold" lengthAdjust="spacing" textLength="14" x="538" y="597.9756">14</text><text fill="#000000" font-family="sans-serif" font-size="13" lengthAdjust="spacing" textLength="110" x="556" y="597.9756">getVehicleBrands()</text><polygon fill="#181818" points="822.5,630.5293,832.5,634.5293,822.5,638.5293,826.5,634.5293" style="stroke:#181818;stroke-width:1.0;"/><line style="stroke:#181818;stroke-width:1.0;" x1="696.5" x2="828.5" y1="634.5293" y2="634.5293"/><text fill="#000000" font-family="sans-serif" font-size="13" font-weight="bold" lengthAdjust="spacing" textLength="14" x="703.5" y="629.2666">15</text><text fill="#000000" font-family="sans-serif" font-size="13" lengthAdjust="spacing" textLength="75" x="721.5" y="629.2666">getInstance()</text><polygon fill="#181818" points="707.5,661.8203,697.5,665.8203,707.5,669.8203,703.5,665.8203" style="stroke:#181818;stroke-width:1.0;"/><line style="stroke:#181818;stroke-width:1.0;stroke-dasharray:2.0,2.0;" x1="701.5" x2="838.5" y1="665.8203" y2="665.8203"/><text fill="#000000" font-family="sans-serif" font-size="13" font-weight="bold" lengthAdjust="spacing" textLength="14" x="713.5" y="660.5576">16</text><text fill="#000000" font-family="sans-serif" font-size="13" lengthAdjust="spacing" textLength="67" x="731.5" y="660.5576">repositories</text><polygon fill="#181818" points="929.5,693.1113,939.5,697.1113,929.5,701.1113,933.5,697.1113" style="stroke:#181818;stroke-width:1.0;"/><line style="stroke:#181818;stroke-width:1.0;" x1="696.5" x2="935.5" y1="697.1113" y2="697.1113"/><text fill="#000000" font-family="sans-serif" font-size="13" font-weight="bold" lengthAdjust="spacing" textLength="14" x="703.5" y="691.8486">17</text><text fill="#000000" font-family="sans-serif" font-size="13" lengthAdjust="spacing" textLength="165" x="721.5" y="691.8486">getVehicleBrandRepository()</text><polygon fill="#181818" points="707.5,724.4023,697.5,728.4023,707.5,732.4023,703.5,728.4023" style="stroke:#181818;stroke-width:1.0;"/><line style="stroke:#181818;stroke-width:1.0;stroke-dasharray:2.0,2.0;" x1="701.5" x2="945.5" y1="728.4023" y2="728.4023"/><text fill="#000000" font-family="sans-serif" font-size="13" font-weight="bold" lengthAdjust="spacing" textLength="14" x="713.5" y="723.1396">18</text><text fill="#000000" font-family="sans-serif" font-size="13" lengthAdjust="spacing" textLength="139" x="731.5" y="723.1396">VehicleBrandRepository</text><polygon fill="#181818" points="1244,755.6934,1254,759.6934,1244,763.6934,1248,759.6934" style="stroke:#181818;stroke-width:1.0;"/><line style="stroke:#181818;stroke-width:1.0;" x1="696.5" x2="1250" y1="759.6934" y2="759.6934"/><text fill="#000000" font-family="sans-serif" font-size="13" font-weight="bold" lengthAdjust="spacing" textLength="14" x="703.5" y="754.4307">19</text><text fill="#000000" font-family="sans-serif" font-size="13" lengthAdjust="spacing" textLength="110" x="721.5" y="754.4307">getVehicleBrands()</text><polygon fill="#181818" points="707.5,786.9844,697.5,790.9844,707.5,794.9844,703.5,790.9844" style="stroke:#181818;stroke-width:1.0;"/><line style="stroke:#181818;stroke-width:1.0;stroke-dasharray:2.0,2.0;" x1="701.5" x2="1260" y1="790.9844" y2="790.9844"/><text fill="#000000" font-family="sans-serif" font-size="13" font-weight="bold" lengthAdjust="spacing" textLength="14" x="713.5" y="785.7217">20</text><text fill="#000000" font-family="sans-serif" font-size="13" lengthAdjust="spacing" textLength="94" x="731.5" y="785.7217">vehicleBrandList</text><polygon fill="#181818" points="542,818.2754,532,822.2754,542,826.2754,538,822.2754" style="stroke:#181818;stroke-width:1.0;"/><line style="stroke:#181818;stroke-width:1.0;stroke-dasharray:2.0,2.0;" x1="536" x2="690.5" y1="822.2754" y2="822.2754"/><text fill="#000000" font-family="sans-serif" font-size="13" font-weight="bold" lengthAdjust="spacing" textLength="14" x="548" y="817.0127">21</text><text fill="#000000" font-family="sans-serif" font-size="13" lengthAdjust="spacing" textLength="94" x="566" y="817.0127">vehicleBrandList</text><polygon fill="#181818" points="102,866.8574,92,870.8574,102,874.8574,98,870.8574" style="stroke:#181818;stroke-width:1.0;"/><line style="stroke:#181818;stroke-width:1.0;stroke-dasharray:2.0,2.0;" x1="96" x2="525" y1="870.8574" y2="870.8574"/><text fill="#000000" font-family="sans-serif" font-size="13" font-weight="bold" lengthAdjust="spacing" textLength="14" x="108" y="856.9492">22</text><text fill="#000000" font-family="sans-serif" font-size="13" lengthAdjust="spacing" textLength="144" x="126" y="848.3037">shows vehicle brands list</text><text fill="#000000" font-family="sans-serif" font-size="13" lengthAdjust="spacing" textLength="132" x="130" y="865.5947">and asks to select one</text><path d="M10,885.8574 L71,885.8574 L71,895.1484 L61,905.1484 L10,905.1484 L10,885.8574 " fill="#EEEEEE" style="stroke:#000000;stroke-width:1.5;"/><rect fill="none" height="98.5039" style="stroke:#000000;stroke-width:1.5;" width="590.5" x="10" y="885.8574"/><text fill="#000000" font-family="sans-serif" font-size="13" font-weight="bold" lengthAdjust="spacing" textLength="16" x="25" y="900.8857">alt</text><text fill="#000000" font-family="sans-serif" font-size="11" font-weight="bold" lengthAdjust="spacing" textLength="256" x="86" y="899.7275">[The FM chooses a vehicle brand from the list]</text><polygon fill="#181818" points="509,924.4395,519,928.4395,509,932.4395,513,928.4395" style="stroke:#181818;stroke-width:1.0;"/><line style="stroke:#181818;stroke-width:1.0;" x1="91" x2="515" y1="928.4395" y2="928.4395"/><text fill="#000000" font-family="sans-serif" font-size="13" font-weight="bold" lengthAdjust="spacing" textLength="14" x="98" y="923.1768">23</text><text fill="#000000" font-family="sans-serif" font-size="13" lengthAdjust="spacing" textLength="132" x="116" y="923.1768">selects a vehicle brand</text><line style="stroke:#000000;stroke-width:1.0;stroke-dasharray:2.0,2.0;" x1="10" x2="600.5" y1="937.4395" y2="937.4395"/><text fill="#000000" font-family="sans-serif" font-size="11" font-weight="bold" lengthAdjust="spacing" textLength="235" x="15" y="949.3096">[The FM wants to add a new vehicle brand]</text><polygon fill="#181818" points="509,972.3613,519,976.3613,509,980.3613,513,976.3613" style="stroke:#181818;stroke-width:1.0;"/><line style="stroke:#181818;stroke-width:1.0;" x1="91" x2="515" y1="976.3613" y2="976.3613"/><text fill="#000000" font-family="sans-serif" font-size="13" font-weight="bold" lengthAdjust="spacing" textLength="14" x="98" y="971.0986">24</text><text fill="#000000" font-family="sans-serif" font-size="13" lengthAdjust="spacing" textLength="201" x="116" y="971.0986">types a vehicle brand not in the list</text><polygon fill="#181818" points="674.5,1010.6523,684.5,1014.6523,674.5,1018.6523,678.5,1014.6523" style="stroke:#181818;stroke-width:1.0;"/><line style="stroke:#181818;stroke-width:1.0;" x1="531" x2="680.5" y1="1014.6523" y2="1014.6523"/><text fill="#000000" font-family="sans-serif" font-size="13" font-weight="bold" lengthAdjust="spacing" textLength="14" x="538" y="1009.3896">25</text><text fill="#000000" font-family="sans-serif" font-size="13" lengthAdjust="spacing" textLength="111" x="556" y="1009.3896">getVehicleModels()</text><polygon fill="#181818" points="822.5,1041.9434,832.5,1045.9434,822.5,1049.9434,826.5,1045.9434" style="stroke:#181818;stroke-width:1.0;"/><line style="stroke:#181818;stroke-width:1.0;" x1="696.5" x2="828.5" y1="1045.9434" y2="1045.9434"/><text fill="#000000" font-family="sans-serif" font-size="13" font-weight="bold" lengthAdjust="spacing" textLength="14" x="703.5" y="1040.6807">26</text><text fill="#000000" font-family="sans-serif" font-size="13" lengthAdjust="spacing" textLength="75" x="721.5" y="1040.6807">getInstance()</text><polygon fill="#181818" points="707.5,1073.2344,697.5,1077.2344,707.5,1081.2344,703.5,1077.2344" style="stroke:#181818;stroke-width:1.0;"/><line style="stroke:#181818;stroke-width:1.0;stroke-dasharray:2.0,2.0;" x1="701.5" x2="838.5" y1="1077.2344" y2="1077.2344"/><text fill="#000000" font-family="sans-serif" font-size="13" font-weight="bold" lengthAdjust="spacing" textLength="14" x="713.5" y="1071.9717">27</text><text fill="#000000" font-family="sans-serif" font-size="13" lengthAdjust="spacing" textLength="67" x="731.5" y="1071.9717">repositories</text><polygon fill="#181818" points="929.5,1104.5254,939.5,1108.5254,929.5,1112.5254,933.5,1108.5254" style="stroke:#181818;stroke-width:1.0;"/><line style="stroke:#181818;stroke-width:1.0;" x1="696.5" x2="935.5" y1="1108.5254" y2="1108.5254"/><text fill="#000000" font-family="sans-serif" font-size="13" font-weight="bold" lengthAdjust="spacing" textLength="14" x="703.5" y="1103.2627">28</text><text fill="#000000" font-family="sans-serif" font-size="13" lengthAdjust="spacing" textLength="166" x="721.5" y="1103.2627">getVehicleModelRepository()</text><polygon fill="#181818" points="707.5,1135.8164,697.5,1139.8164,707.5,1143.8164,703.5,1139.8164" style="stroke:#181818;stroke-width:1.0;"/><line style="stroke:#181818;stroke-width:1.0;stroke-dasharray:2.0,2.0;" x1="701.5" x2="945.5" y1="1139.8164" y2="1139.8164"/><text fill="#000000" font-family="sans-serif" font-size="13" font-weight="bold" lengthAdjust="spacing" textLength="14" x="713.5" y="1134.5537">29</text><text fill="#000000" font-family="sans-serif" font-size="13" lengthAdjust="spacing" textLength="140" x="731.5" y="1134.5537">VehicleModelRepository</text><polygon fill="#181818" points="1422,1167.1074,1432,1171.1074,1422,1175.1074,1426,1171.1074" style="stroke:#181818;stroke-width:1.0;"/><line style="stroke:#181818;stroke-width:1.0;" x1="696.5" x2="1428" y1="1171.1074" y2="1171.1074"/><text fill="#000000" font-family="sans-serif" font-size="13" font-weight="bold" lengthAdjust="spacing" textLength="14" x="703.5" y="1165.8447">30</text><text fill="#000000" font-family="sans-serif" font-size="13" lengthAdjust="spacing" textLength="111" x="721.5" y="1165.8447">getVehicleModels()</text><polygon fill="#181818" points="707.5,1198.3984,697.5,1202.3984,707.5,1206.3984,703.5,1202.3984" style="stroke:#181818;stroke-width:1.0;"/><line style="stroke:#181818;stroke-width:1.0;stroke-dasharray:2.0,2.0;" x1="701.5" x2="1438" y1="1202.3984" y2="1202.3984"/><text fill="#000000" font-family="sans-serif" font-size="13" font-weight="bold" lengthAdjust="spacing" textLength="14" x="713.5" y="1197.1357">31</text><text fill="#000000" font-family="sans-serif" font-size="13" lengthAdjust="spacing" textLength="95" x="731.5" y="1197.1357">vehicleModelList</text><polygon fill="#181818" points="542,1229.6895,532,1233.6895,542,1237.6895,538,1233.6895" style="stroke:#181818;stroke-width:1.0;"/><line style="stroke:#181818;stroke-width:1.0;stroke-dasharray:2.0,2.0;" x1="536" x2="690.5" y1="1233.6895" y2="1233.6895"/><text fill="#000000" font-family="sans-serif" font-size="13" font-weight="bold" lengthAdjust="spacing" textLength="14" x="548" y="1228.4268">32</text><text fill="#000000" font-family="sans-serif" font-size="13" lengthAdjust="spacing" textLength="95" x="566" y="1228.4268">vehicleModelList</text><polygon fill="#181818" points="102,1278.2715,92,1282.2715,102,1286.2715,98,1282.2715" style="stroke:#181818;stroke-width:1.0;"/><line style="stroke:#181818;stroke-width:1.0;stroke-dasharray:2.0,2.0;" x1="96" x2="525" y1="1282.2715" y2="1282.2715"/><text fill="#000000" font-family="sans-serif" font-size="13" font-weight="bold" lengthAdjust="spacing" textLength="14" x="108" y="1268.3633">33</text><text fill="#000000" font-family="sans-serif" font-size="13" lengthAdjust="spacing" textLength="147" x="126" y="1259.7178">shows vehicle models list</text><text fill="#000000" font-family="sans-serif" font-size="13" lengthAdjust="spacing" textLength="132" x="130" y="1277.0088">and asks to select one</text><path d="M10,1297.2715 L71,1297.2715 L71,1306.5625 L61,1316.5625 L10,1316.5625 L10,1297.2715 " fill="#EEEEEE" style="stroke:#000000;stroke-width:1.5;"/><rect fill="none" height="98.5039" style="stroke:#000000;stroke-width:1.5;" width="590.5" x="10" y="1297.2715"/><text fill="#000000" font-family="sans-serif" font-size="13" font-weight="bold" lengthAdjust="spacing" textLength="16" x="25" y="1312.2998">alt</text><text fill="#000000" font-family="sans-serif" font-size="11" font-weight="bold" lengthAdjust="spacing" textLength="259" x="86" y="1311.1416">[The FM chooses a vehicle model from the list]</text><polygon fill="#181818" points="509,1335.8535,519,1339.8535,509,1343.8535,513,1339.8535" style="stroke:#181818;stroke-width:1.0;"/><line style="stroke:#181818;stroke-width:1.0;" x1="91" x2="515" y1="1339.8535" y2="1339.8535"/><text fill="#000000" font-family="sans-serif" font-size="13" font-weight="bold" lengthAdjust="spacing" textLength="14" x="98" y="1334.5908">34</text><text fill="#000000" font-family="sans-serif" font-size="13" lengthAdjust="spacing" textLength="135" x="116" y="1334.5908">selects a vehicle model</text><line style="stroke:#000000;stroke-width:1.0;stroke-dasharray:2.0,2.0;" x1="10" x2="600.5" y1="1348.8535" y2="1348.8535"/><text fill="#000000" font-family="sans-serif" font-size="11" font-weight="bold" lengthAdjust="spacing" textLength="238" x="15" y="1360.7236">[The FM wants to add a new vehicle model]</text><polygon fill="#181818" points="509,1383.7754,519,1387.7754,509,1391.7754,513,1387.7754" style="stroke:#181818;stroke-width:1.0;"/><line style="stroke:#181818;stroke-width:1.0;" x1="91" x2="515" y1="1387.7754" y2="1387.7754"/><text fill="#000000" font-family="sans-serif" font-size="13" font-weight="bold" lengthAdjust="spacing" textLength="14" x="98" y="1382.5127">35</text><text fill="#000000" font-family="sans-serif" font-size="13" lengthAdjust="spacing" textLength="204" x="116" y="1382.5127">types a vehicle model not in the list</text><polygon fill="#181818" points="102,1439.3574,92,1443.3574,102,1447.3574,98,1443.3574" style="stroke:#181818;stroke-width:1.0;"/><line style="stroke:#181818;stroke-width:1.0;stroke-dasharray:2.0,2.0;" x1="96" x2="525" y1="1443.3574" y2="1443.3574"/><text fill="#000000" font-family="sans-serif" font-size="13" font-weight="bold" lengthAdjust="spacing" textLength="14" x="108" y="1429.4492">36</text><text fill="#000000" font-family="sans-serif" font-size="13" lengthAdjust="spacing" textLength="346" x="126" y="1420.8037">requests data (tare, gross weight, current Km, register date,</text><text fill="#000000" font-family="sans-serif" font-size="13" lengthAdjust="spacing" textLength="373" x="126" y="1438.0947">acquisition date, maintenance/check up frequency, vehicle plate)</text><polygon fill="#181818" points="509,1487.9395,519,1491.9395,509,1495.9395,513,1491.9395" style="stroke:#181818;stroke-width:1.0;"/><line style="stroke:#181818;stroke-width:1.0;" x1="91" x2="515" y1="1491.9395" y2="1491.9395"/><text fill="#000000" font-family="sans-serif" font-size="13" font-weight="bold" lengthAdjust="spacing" textLength="14" x="98" y="1478.0313">37</text><text fill="#000000" font-family="sans-serif" font-size="13" lengthAdjust="spacing" textLength="389" x="116" y="1469.3857">types requested data (tare, gross weight, current Km, register date,</text><text fill="#000000" font-family="sans-serif" font-size="13" lengthAdjust="spacing" textLength="373" x="116" y="1486.6768">acquisition date, maintenance/check up frequency, vehicle plate)</text><polygon fill="#181818" points="102,1519.2305,92,1523.2305,102,1527.2305,98,1523.2305" style="stroke:#181818;stroke-width:1.0;"/><line style="stroke:#181818;stroke-width:1.0;stroke-dasharray:2.0,2.0;" x1="96" x2="525" y1="1523.2305" y2="1523.2305"/><text fill="#000000" font-family="sans-serif" font-size="13" font-weight="bold" lengthAdjust="spacing" textLength="14" x="108" y="1517.9678">38</text><text fill="#000000" font-family="sans-serif" font-size="13" lengthAdjust="spacing" textLength="205" x="126" y="1517.9678">shows selected and requested data</text><polygon fill="#181818" points="509,1550.5215,519,1554.5215,509,1558.5215,513,1554.5215" style="stroke:#181818;stroke-width:1.0;"/><line style="stroke:#181818;stroke-width:1.0;" x1="91" x2="515" y1="1554.5215" y2="1554.5215"/><text fill="#000000" font-family="sans-serif" font-size="13" font-weight="bold" lengthAdjust="spacing" textLength="14" x="98" y="1549.2588">39</text><text fill="#000000" font-family="sans-serif" font-size="13" lengthAdjust="spacing" textLength="75" x="116" y="1549.2588">submits data</text><polygon fill="#181818" points="674.5,1581.8125,684.5,1585.8125,674.5,1589.8125,678.5,1585.8125" style="stroke:#181818;stroke-width:1.0;"/><line style="stroke:#181818;stroke-width:1.0;" x1="531" x2="680.5" y1="1585.8125" y2="1585.8125"/><text fill="#000000" font-family="sans-serif" font-size="13" font-weight="bold" lengthAdjust="spacing" textLength="14" x="538" y="1580.5498">40</text><text fill="#000000" font-family="sans-serif" font-size="13" lengthAdjust="spacing" textLength="77" x="556" y="1580.5498">saveVehicle()</text><polygon fill="#181818" points="1555,1613.1035,1565,1617.1035,1555,1621.1035,1559,1617.1035" style="stroke:#181818;stroke-width:1.0;"/><line style="stroke:#181818;stroke-width:1.0;" x1="696.5" x2="1561" y1="1617.1035" y2="1617.1035"/><text fill="#000000" font-family="sans-serif" font-size="13" font-weight="bold" lengthAdjust="spacing" textLength="14" x="703.5" y="1611.8408">41</text><text fill="#000000" font-family="sans-serif" font-size="13" lengthAdjust="spacing" textLength="120" x="721.5" y="1611.8408">saveVehicle(Vehicle)</text><line style="stroke:#181818;stroke-width:1.0;" x1="1577" x2="1619" y1="1648.3945" y2="1648.3945"/><line style="stroke:#181818;stroke-width:1.0;" x1="1619" x2="1619" y1="1648.3945" y2="1661.3945"/><line style="stroke:#181818;stroke-width:1.0;" x1="1578" x2="1619" y1="1661.3945" y2="1661.3945"/><polygon fill="#181818" points="1588,1657.3945,1578,1661.3945,1588,1665.3945,1584,1661.3945" style="stroke:#181818;stroke-width:1.0;"/><text fill="#000000" font-family="sans-serif" font-size="13" font-weight="bold" lengthAdjust="spacing" textLength="14" x="1584" y="1643.1318">42</text><text fill="#000000" font-family="sans-serif" font-size="13" lengthAdjust="spacing" textLength="137" x="1602" y="1643.1318">validateVehicle(Vehicle)</text><line style="stroke:#181818;stroke-width:1.0;" x1="1577" x2="1619" y1="1692.6855" y2="1692.6855"/><line style="stroke:#181818;stroke-width:1.0;" x1="1619" x2="1619" y1="1692.6855" y2="1705.6855"/><line style="stroke:#181818;stroke-width:1.0;" x1="1578" x2="1619" y1="1705.6855" y2="1705.6855"/><polygon fill="#181818" points="1588,1701.6855,1578,1705.6855,1588,1709.6855,1584,1705.6855" style="stroke:#181818;stroke-width:1.0;"/><text fill="#000000" font-family="sans-serif" font-size="13" font-weight="bold" lengthAdjust="spacing" textLength="14" x="1584" y="1687.4229">43</text><text fill="#000000" font-family="sans-serif" font-size="13" lengthAdjust="spacing" textLength="120" x="1602" y="1687.4229">saveVehicle(Vehicle)</text><polygon fill="#181818" points="542,1732.9766,532,1736.9766,542,1740.9766,538,1736.9766" style="stroke:#181818;stroke-width:1.0;"/><line style="stroke:#181818;stroke-width:1.0;" x1="536" x2="690.5" y1="1736.9766" y2="1736.9766"/><text fill="#000000" font-family="sans-serif" font-size="13" font-weight="bold" lengthAdjust="spacing" textLength="14" x="548" y="1731.7139">44</text><text fill="#000000" font-family="sans-serif" font-size="13" lengthAdjust="spacing" textLength="32" x="566" y="1731.7139">result</text><polygon fill="#181818" points="97,1764.2676,87,1768.2676,97,1772.2676,93,1768.2676" style="stroke:#181818;stroke-width:1.0;"/><line style="stroke:#181818;stroke-width:1.0;stroke-dasharray:2.0,2.0;" x1="91" x2="525" y1="1768.2676" y2="1768.2676"/><text fill="#000000" font-family="sans-serif" font-size="13" font-weight="bold" lengthAdjust="spacing" textLength="14" x="103" y="1763.0049">45</text><text fill="#000000" font-family="sans-serif" font-size="13" lengthAdjust="spacing" textLength="158" x="121" y="1763.0049">displays operation success</text><!--SRC=[nPZ1Rjiu48RlV0eYbwH5WhtdKA2Rma2mCR1eqvvoOQYnHKGYNPAArs-_8qgo9Mf8Aya2gqiKSkQV6NBuoP9xKNedhAXvRRIHfJKrS6yROEuuinFoHMpXXpzKm2r8B_Is6XkuKXHch_IMRqJbW37HUAER-XaiOvUbAe1lZF7FvXycf3UMNwmg0C_NGgEkvLUhzQSBBXnVhHagUYNLJcZFBsw_mrOv3_ONb4fMyFC-cFsypvlT6UsjgIgmmVpkyVl3p65ddC9K5BXWSnmu_51jTPZ_rCMEF9xqNE3lXw-FKu_NBfd7mmvEwhTF-XSr7ZJ86LBqJojqGQb64sFPQ8hKNPi2AaetcXZhHbDJNMbgl3dWYjrrTy6p7sLjEwXNuQ7TUSRxQxNcDrzma_ajTjll1fntt1kyxpQP2zvdUt8vwc1hi4i-kb3c1jM-VbkFvGhX1R-oi04BMi8rBy19gtPU6NtDkT8ROsjHyISzdV4WIwqapao6YyQAxauQvp-nSGANqaARMUZ2EBClOVZpPyojCsC94pJOWXyrYBkQXZckG8WpcMgle85QH9ztqlVQuRcM4CbEfAb3ChDkBohAJLz9kmkdipDpB-1juOR2slCtMwIJGgwiS7J9EeBeAV7nyeyQFbC2BJtaJ6PwTgSdkTF888kXezsS6cm4h0SyQRcw5eRj2XqESqv_f3rluFuChzeZx4gpTuCKz-twy0hLyAGYtX0kBm4M3YfyK76ZWH4XMaemKNd-MBReuR8qng6Gc0Zp3JuDkKUJQaXtXAOkGkp3OXe1FX27C7j4OiXE59Wfrx2V-uuYTCL5EMdZ4K-dh40NZCsYiWmzmdCWsrGqGZwAaVUXv8CuUGzIibY9dgBdwaop9SsN-45zfgPqY8WpaUwofg1e4oUOh2yHUCwSO452XmRFeWn8-gGZPH6Knz1pMBs5729ODAnpZaWX1e6a-O-cEPc2BwDs5AFtGmj1DPFA0AjBEIRM4Ay55ycjDBh2Jyr4bowWrty0i7SpxECOUoV9SZ2BVhelg3dFioJIudU4y_Lb0qLWYzGNjmp5jZZJNAs9y7Ey1OiataZ2BSs3X5mstbdEPL5NX_Ly0-gIj3jBl10gJRopr0l-BBNV9_AzWNwaP8Q0NGa90YOfIEr2zEhgXSMtrgqrpl4zg6tfyTspiVWsw_bVzVNfPHdDqV192_cxKTXB-9RQZzL2QG-wXTqViWJvmfiThdORHyl3zR66NONctVaXDd9MV9ye5FzhfcJ3pRkwQnhCjMtaQUOB2dRDSwtwBSb7FGB1YLVeJ_Y8ITC36LEk_reIUVT_2P7XwyemCVXFf5v5fThLJSgHNcG2iuJxJpUkgJnBKOUapIqlbCDTF3XkTj1zKy5LbXASevJ6bKPRDVftjMR_0W00]--></g></svg>