<?xml version="1.0" encoding="us-ascii" standalone="no"?><svg xmlns="http://www.w3.org/2000/svg" xmlns:xlink="http://www.w3.org/1999/xlink" contentStyleType="text/css" height="907px" preserveAspectRatio="none" style="width:560px;height:907px;background:#FFFFFF;" version="1.1" viewBox="0 0 560 907" width="560px" zoomAndPan="magnify"><defs/><g><!--class RegisterVehicleUI--><g id="elem_RegisterVehicleUI"><rect codeLine="10" fill="#F1F1F1" height="48" id="RegisterVehicleUI" rx="2.5" ry="2.5" style="stroke:#181818;stroke-width:0.5;" width="143" x="7" y="72"/><ellipse cx="22" cy="88" fill="#ADD1B2" rx="11" ry="11" style="stroke:#181818;stroke-width:1.0;"/><path d="M24.7656,83.875 Q24.9219,83.6563 25.1094,83.5469 Q25.2969,83.4375 25.5156,83.4375 Q25.8906,83.4375 26.125,83.7031 Q26.3594,83.9531 26.3594,84.5625 L26.3594,86.0156 Q26.3594,86.625 26.125,86.8906 Q25.8906,87.1563 25.5156,87.1563 Q25.1719,87.1563 24.9688,86.9531 Q24.7656,86.7656 24.6563,86.25 Q24.6094,85.8906 24.4219,85.7031 Q24.0938,85.3281 23.4844,85.1094 Q22.875,84.8906 22.25,84.8906 Q21.4844,84.8906 20.8438,85.2188 Q20.2188,85.5469 19.7188,86.2969 Q19.2344,87.0469 19.2344,88.0781 L19.2344,89.1719 Q19.2344,90.4063 20.125,91.2344 Q21.0156,92.0469 22.6094,92.0469 Q23.5469,92.0469 24.2031,91.7969 Q24.5938,91.6406 25.0156,91.2031 Q25.2813,90.9375 25.4219,90.8594 Q25.5781,90.7813 25.7813,90.7813 Q26.1094,90.7813 26.3594,91.0469 Q26.625,91.2969 26.625,91.6406 Q26.625,91.9844 26.2813,92.3906 Q25.7813,92.9688 24.9844,93.2969 Q23.9063,93.75 22.6094,93.75 Q21.0938,93.75 19.8906,93.125 Q18.9063,92.625 18.2188,91.5625 Q17.5313,90.4844 17.5313,89.2031 L17.5313,88.0469 Q17.5313,86.7188 18.1406,85.5781 Q18.7656,84.4219 19.8594,83.8125 Q20.9531,83.1875 22.1875,83.1875 Q22.9219,83.1875 23.5625,83.3594 Q24.2188,83.5156 24.7656,83.875 Z " fill="#000000"/><text fill="#000000" font-family="sans-serif" font-size="14" lengthAdjust="spacing" textLength="111" x="36" y="93.7969">RegisterVehicleUI</text><line style="stroke:#181818;stroke-width:0.5;" x1="8" x2="149" y1="104" y2="104"/><line style="stroke:#181818;stroke-width:0.5;" x1="8" x2="149" y1="112" y2="112"/></g><!--class VehicleController--><g id="elem_VehicleController"><rect codeLine="13" fill="#F1F1F1" height="178.3477" id="VehicleController" rx="2.5" ry="2.5" style="stroke:#181818;stroke-width:0.5;" width="364" x="185.5" y="7"/><ellipse cx="309.25" cy="23" fill="#ADD1B2" rx="11" ry="11" style="stroke:#181818;stroke-width:1.0;"/><path d="M312.0156,18.875 Q312.1719,18.6563 312.3594,18.5469 Q312.5469,18.4375 312.7656,18.4375 Q313.1406,18.4375 313.375,18.7031 Q313.6094,18.9531 313.6094,19.5625 L313.6094,21.0156 Q313.6094,21.625 313.375,21.8906 Q313.1406,22.1563 312.7656,22.1563 Q312.4219,22.1563 312.2188,21.9531 Q312.0156,21.7656 311.9063,21.25 Q311.8594,20.8906 311.6719,20.7031 Q311.3438,20.3281 310.7344,20.1094 Q310.125,19.8906 309.5,19.8906 Q308.7344,19.8906 308.0938,20.2188 Q307.4688,20.5469 306.9688,21.2969 Q306.4844,22.0469 306.4844,23.0781 L306.4844,24.1719 Q306.4844,25.4063 307.375,26.2344 Q308.2656,27.0469 309.8594,27.0469 Q310.7969,27.0469 311.4531,26.7969 Q311.8438,26.6406 312.2656,26.2031 Q312.5313,25.9375 312.6719,25.8594 Q312.8281,25.7813 313.0313,25.7813 Q313.3594,25.7813 313.6094,26.0469 Q313.875,26.2969 313.875,26.6406 Q313.875,26.9844 313.5313,27.3906 Q313.0313,27.9688 312.2344,28.2969 Q311.1563,28.75 309.8594,28.75 Q308.3438,28.75 307.1406,28.125 Q306.1563,27.625 305.4688,26.5625 Q304.7813,25.4844 304.7813,24.2031 L304.7813,23.0469 Q304.7813,21.7188 305.3906,20.5781 Q306.0156,19.4219 307.1094,18.8125 Q308.2031,18.1875 309.4375,18.1875 Q310.1719,18.1875 310.8125,18.3594 Q311.4688,18.5156 312.0156,18.875 Z " fill="#000000"/><text fill="#000000" font-family="sans-serif" font-size="14" lengthAdjust="spacing" textLength="108" x="329.75" y="28.7969">VehicleController</text><line style="stroke:#181818;stroke-width:0.5;" x1="186.5" x2="548.5" y1="39" y2="39"/><line style="stroke:#181818;stroke-width:0.5;" x1="186.5" x2="548.5" y1="47" y2="47"/><text fill="#000000" font-family="sans-serif" font-size="14" lengthAdjust="spacing" textLength="163" x="191.5" y="66.1074">+getVehicleByPlate(plate)</text><text fill="#000000" font-family="sans-serif" font-size="14" lengthAdjust="spacing" textLength="151" x="191.5" y="84.7285">+getVehicleBrandsList()</text><text fill="#000000" font-family="sans-serif" font-size="14" lengthAdjust="spacing" textLength="188" x="191.5" y="103.3496">+getVehicleModelsList(brand)</text><text fill="#000000" font-family="sans-serif" font-size="14" lengthAdjust="spacing" textLength="183" x="191.5" y="121.9707">+getVehicleTypesList(model)</text><text fill="#000000" font-family="sans-serif" font-size="14" lengthAdjust="spacing" textLength="348" x="191.5" y="140.5918">+saveNewVehicle(tareWeight, grossWeight, currentKm,</text><text fill="#000000" font-family="sans-serif" font-size="14" lengthAdjust="spacing" textLength="344" x="191.5" y="159.2129">registerDate, acquisitionDate, maintenanceFrequency,</text><text fill="#000000" font-family="sans-serif" font-size="14" lengthAdjust="spacing" textLength="162" x="191.5" y="177.834">plate, brand, model, type)</text></g><!--class repositories--><g id="elem_repositories"><rect codeLine="20" fill="#F1F1F1" height="85.2422" id="repositories" rx="2.5" ry="2.5" style="stroke:#181818;stroke-width:0.5;" width="164" x="352.5" y="245"/><ellipse cx="393.6" cy="261" fill="#ADD1B2" rx="11" ry="11" style="stroke:#181818;stroke-width:1.0;"/><path d="M396.3656,256.875 Q396.5219,256.6563 396.7094,256.5469 Q396.8969,256.4375 397.1156,256.4375 Q397.4906,256.4375 397.725,256.7031 Q397.9594,256.9531 397.9594,257.5625 L397.9594,259.0156 Q397.9594,259.625 397.725,259.8906 Q397.4906,260.1563 397.1156,260.1563 Q396.7719,260.1563 396.5688,259.9531 Q396.3656,259.7656 396.2563,259.25 Q396.2094,258.8906 396.0219,258.7031 Q395.6938,258.3281 395.0844,258.1094 Q394.475,257.8906 393.85,257.8906 Q393.0844,257.8906 392.4438,258.2188 Q391.8188,258.5469 391.3188,259.2969 Q390.8344,260.0469 390.8344,261.0781 L390.8344,262.1719 Q390.8344,263.4063 391.725,264.2344 Q392.6156,265.0469 394.2094,265.0469 Q395.1469,265.0469 395.8031,264.7969 Q396.1938,264.6406 396.6156,264.2031 Q396.8813,263.9375 397.0219,263.8594 Q397.1781,263.7813 397.3813,263.7813 Q397.7094,263.7813 397.9594,264.0469 Q398.225,264.2969 398.225,264.6406 Q398.225,264.9844 397.8813,265.3906 Q397.3813,265.9688 396.5844,266.2969 Q395.5063,266.75 394.2094,266.75 Q392.6938,266.75 391.4906,266.125 Q390.5063,265.625 389.8188,264.5625 Q389.1313,263.4844 389.1313,262.2031 L389.1313,261.0469 Q389.1313,259.7188 389.7406,258.5781 Q390.3656,257.4219 391.4594,256.8125 Q392.5531,256.1875 393.7875,256.1875 Q394.5219,256.1875 395.1625,256.3594 Q395.8188,256.5156 396.3656,256.875 Z " fill="#000000"/><text fill="#000000" font-family="sans-serif" font-size="14" lengthAdjust="spacing" textLength="74" x="413.4" y="266.7969">repositories</text><line style="stroke:#181818;stroke-width:0.5;" x1="353.5" x2="515.5" y1="277" y2="277"/><line style="stroke:#181818;stroke-width:0.5;" x1="353.5" x2="515.5" y1="285" y2="285"/><text fill="#000000" font-family="sans-serif" font-size="14" lengthAdjust="spacing" textLength="91" x="358.5" y="304.1074">+getInstance()</text><text fill="#000000" font-family="sans-serif" font-size="14" lengthAdjust="spacing" textLength="152" x="358.5" y="322.7285">+getVehicleRepository()</text></g><!--class Vehicle--><g id="elem_Vehicle"><rect codeLine="26" fill="#F1F1F1" height="290.0742" id="Vehicle" rx="2.5" ry="2.5" style="stroke:#181818;stroke-width:0.5;" width="374" x="179.5" y="610"/><ellipse cx="339.25" cy="626" fill="#ADD1B2" rx="11" ry="11" style="stroke:#181818;stroke-width:1.0;"/><path d="M342.0156,621.875 Q342.1719,621.6563 342.3594,621.5469 Q342.5469,621.4375 342.7656,621.4375 Q343.1406,621.4375 343.375,621.7031 Q343.6094,621.9531 343.6094,622.5625 L343.6094,624.0156 Q343.6094,624.625 343.375,624.8906 Q343.1406,625.1563 342.7656,625.1563 Q342.4219,625.1563 342.2188,624.9531 Q342.0156,624.7656 341.9063,624.25 Q341.8594,623.8906 341.6719,623.7031 Q341.3438,623.3281 340.7344,623.1094 Q340.125,622.8906 339.5,622.8906 Q338.7344,622.8906 338.0938,623.2188 Q337.4688,623.5469 336.9688,624.2969 Q336.4844,625.0469 336.4844,626.0781 L336.4844,627.1719 Q336.4844,628.4063 337.375,629.2344 Q338.2656,630.0469 339.8594,630.0469 Q340.7969,630.0469 341.4531,629.7969 Q341.8438,629.6406 342.2656,629.2031 Q342.5313,628.9375 342.6719,628.8594 Q342.8281,628.7813 343.0313,628.7813 Q343.3594,628.7813 343.6094,629.0469 Q343.875,629.2969 343.875,629.6406 Q343.875,629.9844 343.5313,630.3906 Q343.0313,630.9688 342.2344,631.2969 Q341.1563,631.75 339.8594,631.75 Q338.3438,631.75 337.1406,631.125 Q336.1563,630.625 335.4688,629.5625 Q334.7813,628.4844 334.7813,627.2031 L334.7813,626.0469 Q334.7813,624.7188 335.3906,623.5781 Q336.0156,622.4219 337.1094,621.8125 Q338.2031,621.1875 339.4375,621.1875 Q340.1719,621.1875 340.8125,621.3594 Q341.4688,621.5156 342.0156,621.875 Z " fill="#000000"/><text fill="#000000" font-family="sans-serif" font-size="14" lengthAdjust="spacing" textLength="46" x="359.75" y="631.7969">Vehicle</text><line style="stroke:#181818;stroke-width:0.5;" x1="180.5" x2="552.5" y1="642" y2="642"/><text fill="#000000" font-family="sans-serif" font-size="14" lengthAdjust="spacing" textLength="83" x="185.5" y="661.1074">-String brand</text><text fill="#000000" font-family="sans-serif" font-size="14" lengthAdjust="spacing" textLength="84" x="185.5" y="679.7285">-String model</text><text fill="#000000" font-family="sans-serif" font-size="14" lengthAdjust="spacing" textLength="73" x="185.5" y="698.3496">-String type</text><text fill="#000000" font-family="sans-serif" font-size="14" lengthAdjust="spacing" textLength="77" x="185.5" y="716.9707">-String plate</text><text fill="#000000" font-family="sans-serif" font-size="14" lengthAdjust="spacing" textLength="121" x="185.5" y="735.5918">-double tareWeight</text><text fill="#000000" font-family="sans-serif" font-size="14" lengthAdjust="spacing" textLength="131" x="185.5" y="754.2129">-double grossWeight</text><text fill="#000000" font-family="sans-serif" font-size="14" lengthAdjust="spacing" textLength="117" x="185.5" y="772.834">-double currentKm</text><text fill="#000000" font-family="sans-serif" font-size="14" lengthAdjust="spacing" textLength="124" x="185.5" y="791.4551">-String registerDate</text><text fill="#000000" font-family="sans-serif" font-size="14" lengthAdjust="spacing" textLength="143" x="185.5" y="810.0762">-String acquisitionDate</text><text fill="#000000" font-family="sans-serif" font-size="14" lengthAdjust="spacing" textLength="201" x="185.5" y="828.6973">-double maintenanceFrequency</text><line style="stroke:#181818;stroke-width:0.5;" x1="180.5" x2="552.5" y1="836.2109" y2="836.2109"/><text fill="#000000" font-family="sans-serif" font-size="14" lengthAdjust="spacing" textLength="358" x="185.5" y="855.3184">+createNewVehicle(tareWeight, grossWeight, currentKm,</text><text fill="#000000" font-family="sans-serif" font-size="14" lengthAdjust="spacing" textLength="344" x="185.5" y="873.9395">registerDate, acquisitionDate, maintenanceFrequency,</text><text fill="#000000" font-family="sans-serif" font-size="14" lengthAdjust="spacing" textLength="162" x="185.5" y="892.5605">plate, brand, model, type)</text></g><!--class VehicleRepository--><g id="elem_VehicleRepository"><rect codeLine="40" fill="#F1F1F1" height="159.7266" id="VehicleRepository" rx="2.5" ry="2.5" style="stroke:#181818;stroke-width:0.5;" width="200" x="266.5" y="390"/><ellipse cx="305.8" cy="406" fill="#ADD1B2" rx="11" ry="11" style="stroke:#181818;stroke-width:1.0;"/><path d="M308.5656,401.875 Q308.7219,401.6563 308.9094,401.5469 Q309.0969,401.4375 309.3156,401.4375 Q309.6906,401.4375 309.925,401.7031 Q310.1594,401.9531 310.1594,402.5625 L310.1594,404.0156 Q310.1594,404.625 309.925,404.8906 Q309.6906,405.1563 309.3156,405.1563 Q308.9719,405.1563 308.7688,404.9531 Q308.5656,404.7656 308.4563,404.25 Q308.4094,403.8906 308.2219,403.7031 Q307.8938,403.3281 307.2844,403.1094 Q306.675,402.8906 306.05,402.8906 Q305.2844,402.8906 304.6438,403.2188 Q304.0188,403.5469 303.5188,404.2969 Q303.0344,405.0469 303.0344,406.0781 L303.0344,407.1719 Q303.0344,408.4063 303.925,409.2344 Q304.8156,410.0469 306.4094,410.0469 Q307.3469,410.0469 308.0031,409.7969 Q308.3938,409.6406 308.8156,409.2031 Q309.0813,408.9375 309.2219,408.8594 Q309.3781,408.7813 309.5813,408.7813 Q309.9094,408.7813 310.1594,409.0469 Q310.425,409.2969 310.425,409.6406 Q310.425,409.9844 310.0813,410.3906 Q309.5813,410.9688 308.7844,411.2969 Q307.7063,411.75 306.4094,411.75 Q304.8938,411.75 303.6906,411.125 Q302.7063,410.625 302.0188,409.5625 Q301.3313,408.4844 301.3313,407.2031 L301.3313,406.0469 Q301.3313,404.7188 301.9406,403.5781 Q302.5656,402.4219 303.6594,401.8125 Q304.7531,401.1875 305.9875,401.1875 Q306.7219,401.1875 307.3625,401.3594 Q308.0188,401.5156 308.5656,401.875 Z " fill="#000000"/><text fill="#000000" font-family="sans-serif" font-size="14" lengthAdjust="spacing" textLength="114" x="325.2" y="411.7969">VehicleRepository</text><line style="stroke:#181818;stroke-width:0.5;" x1="267.5" x2="465.5" y1="422" y2="422"/><text fill="#000000" font-family="sans-serif" font-size="14" lengthAdjust="spacing" textLength="144" x="272.5" y="441.1074">-List&lt;Vehicle&gt; vehicles</text><line style="stroke:#181818;stroke-width:0.5;" x1="267.5" x2="465.5" y1="448.6211" y2="448.6211"/><text fill="#000000" font-family="sans-serif" font-size="14" lengthAdjust="spacing" textLength="140" x="272.5" y="467.7285">+storeVehicle(vehicle)</text><text fill="#000000" font-family="sans-serif" font-size="14" lengthAdjust="spacing" textLength="163" x="272.5" y="486.3496">+getVehicleByPlate(plate)</text><text fill="#000000" font-family="sans-serif" font-size="14" lengthAdjust="spacing" textLength="151" x="272.5" y="504.9707">+getVehicleBrandsList()</text><text fill="#000000" font-family="sans-serif" font-size="14" lengthAdjust="spacing" textLength="188" x="272.5" y="523.5918">+getVehicleModelsList(brand)</text><text fill="#000000" font-family="sans-serif" font-size="14" lengthAdjust="spacing" textLength="183" x="272.5" y="542.2129">+getVehicleTypesList(model)</text></g><!--link RegisterVehicleUI to VehicleController--><g id="link_RegisterVehicleUI_VehicleController"><path codeLine="51" d="M150.03,96 C164.21,96 174.83,96 174.83,96 C174.83,96 172.81,96 179.14,96 " fill="none" id="RegisterVehicleUI-to-VehicleController" style="stroke:#181818;stroke-width:1.0;stroke-dasharray:7.0,7.0;"/><polygon fill="#181818" points="185.14,96,176.14,92,180.14,96,176.14,100,185.14,96" style="stroke:#181818;stroke-width:1.0;"/></g><!--link VehicleController to repositories--><g id="link_VehicleController_repositories"><path codeLine="52" d="M398.65,185.09 C406.03,205.97 411.5582,221.6238 417.8082,239.2838 " fill="none" id="VehicleController-to-repositories" style="stroke:#181818;stroke-width:1.0;stroke-dasharray:7.0,7.0;"/><polygon fill="#181818" points="419.81,244.94,420.5781,235.1211,418.1419,240.2265,413.0365,237.7902,419.81,244.94" style="stroke:#181818;stroke-width:1.0;"/></g><!--link VehicleController to VehicleRepository--><g id="link_VehicleController_VehicleRepository"><path codeLine="54" d="M347.83,185.23 C340.76,216.92 334.5,245 334.5,245 C334.5,245 334.5,330 334.5,330 C334.5,330 339.7234,352.6931 346.9134,383.9131 " fill="none" id="VehicleController-to-VehicleRepository" style="stroke:#181818;stroke-width:1.0;stroke-dasharray:7.0,7.0;"/><polygon fill="#181818" points="348.26,389.76,350.1381,380.0919,347.1379,384.8875,342.3422,381.8873,348.26,389.76" style="stroke:#181818;stroke-width:1.0;"/></g><!--link VehicleRepository to Vehicle--><g id="link_VehicleRepository_Vehicle"><path codeLine="55" d="M366.5,550.21 C366.5,568.85 366.5,583.29 366.5,603.81 " fill="none" id="VehicleRepository-to-Vehicle" style="stroke:#181818;stroke-width:1.0;"/><polygon fill="#181818" points="366.5,609.81,370.5,600.81,366.5,604.81,362.5,600.81,366.5,609.81" style="stroke:#181818;stroke-width:1.0;"/><text fill="#000000" font-family="sans-serif" font-size="13" lengthAdjust="spacing" textLength="5" x="361.3711" y="598.9193">*</text></g><!--link repositories to VehicleRepository--><g id="link_repositories_VehicleRepository"><path codeLine="56" d="M418.73,330.36 C412.06,348.07 406.1758,363.6854 398.4658,384.1454 " fill="none" id="repositories-to-VehicleRepository" style="stroke:#181818;stroke-width:1.0;stroke-dasharray:7.0,7.0;"/><polygon fill="#181818" points="396.35,389.76,403.2667,382.7486,398.1131,385.0812,395.7806,379.9276,396.35,389.76" style="stroke:#181818;stroke-width:1.0;"/></g><!--SRC=[pLFBRjim4BppAnQvs6bjenzG6EW31Om-KCHzN7gXgOrCX2ALvIg1MlJVIqgKBKP2acDr4CITuMfdTdVXRxIj9SaAAcUTEfAh49WQ56Uabkf6bhZdrY0GAfQsD6E2Fyh2tMjRmhKqVemORP7R6g5sfeq7iPW17R4JerlAIE_VC9C-D8mxvUnU_qPu9SJ2u3K3Eo1T7XaA7SlHpehk2bnXgJqZ_S2ZLWQ_x-2F47yJc8Bld6LonY054EBp4ahaXBvjlnh9kApZ-t869saB_odyPJc3VdO5cXuzHE8CvLiGt3EgI3unlBp3BtYVM4kMX3ynYbn1ISxxuQ0Q8hJyiLh1Bqj9x_jGx0gakcsqrz6FFb19RHcjj0e_4DusQ5KRhtNYLj2L65YnZXN4JeHg1hS8QnToETBeWr6TX9tr79C5wMD9LmEr3K2mE_SxkRo6VUXd697khtcego0FnMhoI5Tq2XMkEOJCPvFo-CYm73YPbwSUsvWZ3opDiytPAqJVJaKO-Fz1GnzC_xbNfxx4ONoTu2tSzHz-4E835mSH2RmKprYRnxVcUOlprEw4MHFJdTzifxikfjk_2Rpnb8ivpdPgd9XQkLvluUB5HG94jZkRsHp_0000]--></g></svg>