<?xml version="1.0" encoding="us-ascii" standalone="no"?><svg xmlns="http://www.w3.org/2000/svg" xmlns:xlink="http://www.w3.org/1999/xlink" contentStyleType="text/css" height="1204.8px" preserveAspectRatio="none" style="width:1102px;height:1204px;background:#FFFFFF;" version="1.1" viewBox="0 0 1102 1204" width="1102.4px" zoomAndPan="magnify"><defs/><g><rect fill="#FFFFFF" height="1056.9156" style="stroke:#181818;stroke-width:0.8000000000000002;" width="8" x="64.8" y="74.8969"/><rect fill="#FFFFFF" height="25.0328" style="stroke:#181818;stroke-width:0.8000000000000002;" width="8" x="382.4" y="93.5297"/><rect fill="#FFFFFF" height="233.8" style="stroke:#181818;stroke-width:0.8000000000000002;" width="8" x="382.4" y="143.5953"/><rect fill="#FFFFFF" height="160.5969" style="stroke:#181818;stroke-width:0.8000000000000002;" width="8" x="382.4" y="402.4281"/><rect fill="#FFFFFF" height="125.1641" style="stroke:#181818;stroke-width:0.8000000000000002;" width="8" x="382.4" y="588.0578"/><rect fill="#FFFFFF" height="125.1641" style="stroke:#181818;stroke-width:0.8000000000000002;" width="8" x="382.4" y="738.2547"/><rect fill="#FFFFFF" height="25.0328" style="stroke:#181818;stroke-width:0.8000000000000002;" width="8" x="382.4" y="888.4516"/><rect fill="#FFFFFF" height="180.4953" style="stroke:#181818;stroke-width:0.8000000000000002;" width="8" x="382.4" y="938.5172"/><rect fill="#FFFFFF" height="75.0984" style="stroke:#181818;stroke-width:0.8000000000000002;" width="8" x="677.6" y="204.0609"/><rect fill="#FFFFFF" height="75.0984" style="stroke:#181818;stroke-width:0.8000000000000002;" width="8" x="677.6" y="462.8938"/><rect fill="#FFFFFF" height="75.0984" style="stroke:#181818;stroke-width:0.8000000000000002;" width="8" x="677.6" y="613.0906"/><rect fill="#FFFFFF" height="75.0984" style="stroke:#181818;stroke-width:0.8000000000000002;" width="8" x="677.6" y="763.2875"/><rect fill="#FFFFFF" height="102.7641" style="stroke:#181818;stroke-width:0.8000000000000002;" width="8" x="677.6" y="991.2156"/><rect fill="#FFFFFF" height="25.0328" style="stroke:#181818;stroke-width:0.8000000000000002;" width="8" x="972.8" y="229.0938"/><rect fill="#FFFFFF" height="25.0328" style="stroke:#181818;stroke-width:0.8000000000000002;" width="8" x="972.8" y="1043.9141"/><rect fill="#FFFFFF" height="25.0328" style="stroke:#181818;stroke-width:0.8000000000000002;" width="8" x="1059.2" y="487.9266"/><rect fill="#FFFFFF" height="25.0328" style="stroke:#181818;stroke-width:0.8000000000000002;" width="8" x="1059.2" y="638.1234"/><rect fill="#FFFFFF" height="25.0328" style="stroke:#181818;stroke-width:0.8000000000000002;" width="8" x="1059.2" y="788.3203"/><rect fill="none" height="834.2531" style="stroke:#000000;stroke-width:1.2000000000000002;" width="1088.8" x="8" y="291.1594"/><line style="stroke:#181818;stroke-width:0.4000000000000001;stroke-dasharray:5.0,5.0;" x1="68.8" x2="68.8" y1="66.8969" y2="1139.0125"/><line style="stroke:#181818;stroke-width:0.4000000000000001;stroke-dasharray:5.0,5.0;" x1="386" x2="386" y1="66.8969" y2="1139.0125"/><line style="stroke:#181818;stroke-width:0.4000000000000001;stroke-dasharray:5.0,5.0;" x1="681.6" x2="681.6" y1="66.8969" y2="1139.0125"/><line style="stroke:#181818;stroke-width:0.4000000000000001;stroke-dasharray:5.0,5.0;" x1="976.8" x2="976.8" y1="66.8969" y2="1139.0125"/><line style="stroke:#181818;stroke-width:0.4000000000000001;stroke-dasharray:5.0,5.0;" x1="1063.2" x2="1063.2" y1="66.8969" y2="1139.0125"/><text fill="#000000" font-family="sans-serif" font-size="11.2" lengthAdjust="spacing" textLength="100.8" x="16" y="64.0859">Fleet Manager (FM)</text><ellipse cx="68.8" cy="10.8" fill="#E3E3E3" rx="6.4" ry="6.4" style="stroke:#181818;stroke-width:0.4000000000000001;"/><path d="M68.8,17.2 L68.8,38.8 M58.4,23.6 L79.2,23.6 M68.8,38.8 L58.4,50.8 M68.8,38.8 L79.2,50.8 " fill="none" style="stroke:#181818;stroke-width:0.4000000000000001;"/><text fill="#000000" font-family="sans-serif" font-size="11.2" lengthAdjust="spacing" textLength="100.8" x="16" y="1150.2984">Fleet Manager (FM)</text><ellipse cx="68.8" cy="1159.9094" fill="#E3E3E3" rx="6.4" ry="6.4" style="stroke:#181818;stroke-width:0.4000000000000001;"/><path d="M68.8,1166.3094 L68.8,1187.9094 M58.4,1172.7094 L79.2,1172.7094 M68.8,1187.9094 L58.4,1199.9094 M68.8,1187.9094 L79.2,1199.9094 " fill="none" style="stroke:#181818;stroke-width:0.4000000000000001;"/><rect fill="#E3E3E3" height="26.0969" rx="2" ry="2" style="stroke:#181818;stroke-width:0.4000000000000001;" width="103.2" x="334.8" y="40"/><text fill="#000000" font-family="sans-serif" font-size="11.2" lengthAdjust="spacing" textLength="92" x="340.4" y="57.6859">:RegisterVehicleUI</text><rect fill="#E3E3E3" height="26.0969" rx="2" ry="2" style="stroke:#181818;stroke-width:0.4000000000000001;" width="103.2" x="334.8" y="1138.2125"/><text fill="#000000" font-family="sans-serif" font-size="11.2" lengthAdjust="spacing" textLength="92" x="340.4" y="1155.8984">:RegisterVehicleUI</text><rect fill="#E3E3E3" height="26.0969" rx="2" ry="2" style="stroke:#181818;stroke-width:0.4000000000000001;" width="100.8" x="631.2" y="40"/><text fill="#000000" font-family="sans-serif" font-size="11.2" lengthAdjust="spacing" textLength="89.6" x="636.8" y="57.6859">:VehicleController</text><rect fill="#E3E3E3" height="26.0969" rx="2" ry="2" style="stroke:#181818;stroke-width:0.4000000000000001;" width="100.8" x="631.2" y="1138.2125"/><text fill="#000000" font-family="sans-serif" font-size="11.2" lengthAdjust="spacing" textLength="89.6" x="636.8" y="1155.8984">:VehicleController</text><rect fill="#E3E3E3" height="40.9938" rx="2" ry="2" style="stroke:#181818;stroke-width:0.4000000000000001;" width="105.6" x="924" y="25.1031"/><text fill="#000000" font-family="sans-serif" font-size="11.2" lengthAdjust="spacing" textLength="89.6" x="932" y="42.7891">vehicleRepository</text><text fill="#000000" font-family="sans-serif" font-size="11.2" lengthAdjust="spacing" textLength="94.4" x="929.6" y="57.6859">:VehicleRepository</text><rect fill="#E3E3E3" height="40.9938" rx="2" ry="2" style="stroke:#181818;stroke-width:0.4000000000000001;" width="105.6" x="924" y="1138.2125"/><text fill="#000000" font-family="sans-serif" font-size="11.2" lengthAdjust="spacing" textLength="89.6" x="932" y="1155.8984">vehicleRepository</text><text fill="#000000" font-family="sans-serif" font-size="11.2" lengthAdjust="spacing" textLength="94.4" x="929.6" y="1170.7953">:VehicleRepository</text><rect fill="#E3E3E3" height="40.9938" rx="2" ry="2" style="stroke:#181818;stroke-width:0.4000000000000001;" width="51.2" x="1037.6" y="25.1031"/><text fill="#000000" font-family="sans-serif" font-size="11.2" lengthAdjust="spacing" textLength="35.2" x="1045.6" y="42.7891">vehicle</text><text fill="#000000" font-family="sans-serif" font-size="11.2" lengthAdjust="spacing" textLength="40" x="1043.2" y="57.6859">:Vehicle</text><rect fill="#E3E3E3" height="40.9938" rx="2" ry="2" style="stroke:#181818;stroke-width:0.4000000000000001;" width="51.2" x="1037.6" y="1138.2125"/><text fill="#000000" font-family="sans-serif" font-size="11.2" lengthAdjust="spacing" textLength="35.2" x="1045.6" y="1155.8984">vehicle</text><text fill="#000000" font-family="sans-serif" font-size="11.2" lengthAdjust="spacing" textLength="40" x="1043.2" y="1170.7953">:Vehicle</text><rect fill="#FFFFFF" height="1056.9156" style="stroke:#181818;stroke-width:0.8000000000000002;" width="8" x="64.8" y="74.8969"/><rect fill="#FFFFFF" height="25.0328" style="stroke:#181818;stroke-width:0.8000000000000002;" width="8" x="382.4" y="93.5297"/><rect fill="#FFFFFF" height="233.8" style="stroke:#181818;stroke-width:0.8000000000000002;" width="8" x="382.4" y="143.5953"/><rect fill="#FFFFFF" height="160.5969" style="stroke:#181818;stroke-width:0.8000000000000002;" width="8" x="382.4" y="402.4281"/><rect fill="#FFFFFF" height="125.1641" style="stroke:#181818;stroke-width:0.8000000000000002;" width="8" x="382.4" y="588.0578"/><rect fill="#FFFFFF" height="125.1641" style="stroke:#181818;stroke-width:0.8000000000000002;" width="8" x="382.4" y="738.2547"/><rect fill="#FFFFFF" height="25.0328" style="stroke:#181818;stroke-width:0.8000000000000002;" width="8" x="382.4" y="888.4516"/><rect fill="#FFFFFF" height="180.4953" style="stroke:#181818;stroke-width:0.8000000000000002;" width="8" x="382.4" y="938.5172"/><rect fill="#FFFFFF" height="75.0984" style="stroke:#181818;stroke-width:0.8000000000000002;" width="8" x="677.6" y="204.0609"/><rect fill="#FFFFFF" height="75.0984" style="stroke:#181818;stroke-width:0.8000000000000002;" width="8" x="677.6" y="462.8938"/><rect fill="#FFFFFF" height="75.0984" style="stroke:#181818;stroke-width:0.8000000000000002;" width="8" x="677.6" y="613.0906"/><rect fill="#FFFFFF" height="75.0984" style="stroke:#181818;stroke-width:0.8000000000000002;" width="8" x="677.6" y="763.2875"/><rect fill="#FFFFFF" height="102.7641" style="stroke:#181818;stroke-width:0.8000000000000002;" width="8" x="677.6" y="991.2156"/><rect fill="#FFFFFF" height="25.0328" style="stroke:#181818;stroke-width:0.8000000000000002;" width="8" x="972.8" y="229.0938"/><rect fill="#FFFFFF" height="25.0328" style="stroke:#181818;stroke-width:0.8000000000000002;" width="8" x="972.8" y="1043.9141"/><rect fill="#FFFFFF" height="25.0328" style="stroke:#181818;stroke-width:0.8000000000000002;" width="8" x="1059.2" y="487.9266"/><rect fill="#FFFFFF" height="25.0328" style="stroke:#181818;stroke-width:0.8000000000000002;" width="8" x="1059.2" y="638.1234"/><rect fill="#FFFFFF" height="25.0328" style="stroke:#181818;stroke-width:0.8000000000000002;" width="8" x="1059.2" y="788.3203"/><polygon fill="#181818" points="372.8,90.3297,380.8,93.5297,372.8,96.7297,376,93.5297" style="stroke:#181818;stroke-width:0.8000000000000002;"/><line style="stroke:#181818;stroke-width:0.8000000000000002;" x1="72.8" x2="377.6" y1="93.5297" y2="93.5297"/><text fill="#000000" font-family="sans-serif" font-size="10.4" font-weight="bold" lengthAdjust="spacing" textLength="5.6" x="78.4" y="89.3195">1</text><text fill="#000000" font-family="sans-serif" font-size="10.4" lengthAdjust="spacing" textLength="132.8" x="87.2" y="89.3195">requests to register a vehicle</text><polygon fill="#181818" points="81.6,115.3625,73.6,118.5625,81.6,121.7625,78.4,118.5625" style="stroke:#181818;stroke-width:0.8000000000000002;"/><line style="stroke:#181818;stroke-width:0.8000000000000002;stroke-dasharray:2.0,2.0;" x1="76.8" x2="385.6" y1="118.5625" y2="118.5625"/><text fill="#000000" font-family="sans-serif" font-size="10.4" font-weight="bold" lengthAdjust="spacing" textLength="5.6" x="86.4" y="114.3523">2</text><text fill="#000000" font-family="sans-serif" font-size="10.4" lengthAdjust="spacing" textLength="96.8" x="95.2" y="114.3523">asks for vehicle plate</text><polygon fill="#181818" points="372.8,140.3953,380.8,143.5953,372.8,146.7953,376,143.5953" style="stroke:#181818;stroke-width:0.8000000000000002;"/><line style="stroke:#181818;stroke-width:0.8000000000000002;" x1="72.8" x2="377.6" y1="143.5953" y2="143.5953"/><text fill="#000000" font-family="sans-serif" font-size="10.4" font-weight="bold" lengthAdjust="spacing" textLength="5.6" x="78.4" y="139.3852">3</text><text fill="#000000" font-family="sans-serif" font-size="10.4" lengthAdjust="spacing" textLength="85.6" x="87.2" y="139.3852">types vehicle plate</text><line style="stroke:#181818;stroke-width:0.8000000000000002;" x1="390.4" x2="424" y1="168.6281" y2="168.6281"/><line style="stroke:#181818;stroke-width:0.8000000000000002;" x1="424" x2="424" y1="168.6281" y2="179.0281"/><line style="stroke:#181818;stroke-width:0.8000000000000002;" x1="391.2" x2="424" y1="179.0281" y2="179.0281"/><polygon fill="#181818" points="399.2,175.8281,391.2,179.0281,399.2,182.2281,396,179.0281" style="stroke:#181818;stroke-width:0.8000000000000002;"/><text fill="#000000" font-family="sans-serif" font-size="10.4" font-weight="bold" lengthAdjust="spacing" textLength="5.6" x="396" y="164.418">4</text><text fill="#000000" font-family="sans-serif" font-size="10.4" lengthAdjust="spacing" textLength="100" x="404.8" y="164.418">validates vehicle plate</text><polygon fill="#181818" points="668,200.8609,676,204.0609,668,207.2609,671.2,204.0609" style="stroke:#181818;stroke-width:0.8000000000000002;"/><line style="stroke:#181818;stroke-width:0.8000000000000002;" x1="390.4" x2="672.8" y1="204.0609" y2="204.0609"/><text fill="#000000" font-family="sans-serif" font-size="10.4" font-weight="bold" lengthAdjust="spacing" textLength="5.6" x="396" y="199.8508">5</text><text fill="#000000" font-family="sans-serif" font-size="10.4" lengthAdjust="spacing" textLength="114.4" x="404.8" y="199.8508">getVehicleByPlate(plate)</text><polygon fill="#181818" points="963.2,225.8938,971.2,229.0938,963.2,232.2938,966.4,229.0938" style="stroke:#181818;stroke-width:0.8000000000000002;"/><line style="stroke:#181818;stroke-width:0.8000000000000002;" x1="685.6" x2="968" y1="229.0938" y2="229.0938"/><text fill="#000000" font-family="sans-serif" font-size="10.4" font-weight="bold" lengthAdjust="spacing" textLength="5.6" x="691.2" y="224.8836">6</text><text fill="#000000" font-family="sans-serif" font-size="10.4" lengthAdjust="spacing" textLength="114.4" x="700" y="224.8836">getVehicleByPlate(plate)</text><polygon fill="#181818" points="694.4,250.9266,686.4,254.1266,694.4,257.3266,691.2,254.1266" style="stroke:#181818;stroke-width:0.8000000000000002;"/><line style="stroke:#181818;stroke-width:0.8000000000000002;stroke-dasharray:2.0,2.0;" x1="689.6" x2="976" y1="254.1266" y2="254.1266"/><text fill="#000000" font-family="sans-serif" font-size="10.4" font-weight="bold" lengthAdjust="spacing" textLength="5.6" x="699.2" y="249.9164">7</text><text fill="#000000" font-family="sans-serif" font-size="10.4" lengthAdjust="spacing" textLength="31.2" x="708" y="249.9164">vehicle</text><polygon fill="#181818" points="399.2,275.9594,391.2,279.1594,399.2,282.3594,396,279.1594" style="stroke:#181818;stroke-width:0.8000000000000002;"/><line style="stroke:#181818;stroke-width:0.8000000000000002;stroke-dasharray:2.0,2.0;" x1="394.4" x2="680.8" y1="279.1594" y2="279.1594"/><text fill="#000000" font-family="sans-serif" font-size="10.4" font-weight="bold" lengthAdjust="spacing" textLength="5.6" x="404" y="274.9492">8</text><text fill="#000000" font-family="sans-serif" font-size="10.4" lengthAdjust="spacing" textLength="31.2" x="412.8" y="274.9492">vehicle</text><path d="M8,291.1594 L56.8,291.1594 L56.8,298.5922 L48.8,306.5922 L8,306.5922 L8,291.1594 " fill="#EEEEEE" style="stroke:#000000;stroke-width:1.2000000000000002;"/><rect fill="none" height="834.2531" style="stroke:#000000;stroke-width:1.2000000000000002;" width="1088.8" x="8" y="291.1594"/><text fill="#000000" font-family="sans-serif" font-size="10.4" font-weight="bold" lengthAdjust="spacing" textLength="12.8" x="20" y="303.182">alt</text><text fill="#000000" font-family="sans-serif" font-size="8.8" font-weight="bold" lengthAdjust="spacing" textLength="65.6" x="68.8" y="302.2555">[vehicle != null]</text><polygon fill="#181818" points="81.6,322.025,73.6,325.225,81.6,328.425,78.4,325.225" style="stroke:#181818;stroke-width:0.8000000000000002;"/><line style="stroke:#181818;stroke-width:0.8000000000000002;stroke-dasharray:2.0,2.0;" x1="76.8" x2="381.6" y1="325.225" y2="325.225"/><text fill="#000000" font-family="sans-serif" font-size="10.4" font-weight="bold" lengthAdjust="spacing" textLength="5.6" x="86.4" y="321.0148">9</text><text fill="#000000" font-family="sans-serif" font-size="10.4" lengthAdjust="spacing" textLength="156.8" x="95.2" y="321.0148">informs that vehicle already exists</text><line style="stroke:#000000;stroke-width:0.8000000000000002;stroke-dasharray:2.0,2.0;" x1="8" x2="1096.8" y1="332.425" y2="332.425"/><text fill="#000000" font-family="sans-serif" font-size="8.8" font-weight="bold" lengthAdjust="spacing" textLength="68" x="12" y="341.9211">[vehicle == null]</text><polygon fill="#181818" points="81.6,374.1953,73.6,377.3953,81.6,380.5953,78.4,377.3953" style="stroke:#181818;stroke-width:0.8000000000000002;"/><line style="stroke:#181818;stroke-width:0.8000000000000002;stroke-dasharray:2.0,2.0;" x1="76.8" x2="385.6" y1="377.3953" y2="377.3953"/><text fill="#000000" font-family="sans-serif" font-size="10.4" font-weight="bold" lengthAdjust="spacing" textLength="11.2" x="86.4" y="366.2688">10</text><text fill="#000000" font-family="sans-serif" font-size="10.4" lengthAdjust="spacing" textLength="272.8" x="100.8" y="359.3523">asks for vehicle info (tare weight, gross weight, current Km,</text><text fill="#000000" font-family="sans-serif" font-size="10.4" lengthAdjust="spacing" textLength="253.6" x="100.8" y="373.1852">register date, acquisition date, maintenance frequency)</text><polygon fill="#181818" points="372.8,399.2281,380.8,402.4281,372.8,405.6281,376,402.4281" style="stroke:#181818;stroke-width:0.8000000000000002;"/><line style="stroke:#181818;stroke-width:0.8000000000000002;" x1="72.8" x2="377.6" y1="402.4281" y2="402.4281"/><text fill="#000000" font-family="sans-serif" font-size="10.4" font-weight="bold" lengthAdjust="spacing" textLength="11.2" x="78.4" y="398.218">11</text><text fill="#000000" font-family="sans-serif" font-size="10.4" lengthAdjust="spacing" textLength="79.2" x="92.8" y="398.218">types vehicle info</text><line style="stroke:#181818;stroke-width:0.8000000000000002;" x1="390.4" x2="424" y1="427.4609" y2="427.4609"/><line style="stroke:#181818;stroke-width:0.8000000000000002;" x1="424" x2="424" y1="427.4609" y2="437.8609"/><line style="stroke:#181818;stroke-width:0.8000000000000002;" x1="391.2" x2="424" y1="437.8609" y2="437.8609"/><polygon fill="#181818" points="399.2,434.6609,391.2,437.8609,399.2,441.0609,396,437.8609" style="stroke:#181818;stroke-width:0.8000000000000002;"/><text fill="#000000" font-family="sans-serif" font-size="10.4" font-weight="bold" lengthAdjust="spacing" textLength="11.2" x="396" y="423.2508">12</text><text fill="#000000" font-family="sans-serif" font-size="10.4" lengthAdjust="spacing" textLength="93.6" x="410.4" y="423.2508">validates vehicle info</text><polygon fill="#181818" points="668,459.6938,676,462.8938,668,466.0938,671.2,462.8938" style="stroke:#181818;stroke-width:0.8000000000000002;"/><line style="stroke:#181818;stroke-width:0.8000000000000002;" x1="390.4" x2="672.8" y1="462.8938" y2="462.8938"/><text fill="#000000" font-family="sans-serif" font-size="10.4" font-weight="bold" lengthAdjust="spacing" textLength="11.2" x="396" y="458.6836">13</text><text fill="#000000" font-family="sans-serif" font-size="10.4" lengthAdjust="spacing" textLength="104.8" x="410.4" y="458.6836">getVehicleBrandsList()</text><polygon fill="#181818" points="1049.6,484.7266,1057.6,487.9266,1049.6,491.1266,1052.8,487.9266" style="stroke:#181818;stroke-width:0.8000000000000002;"/><line style="stroke:#181818;stroke-width:0.8000000000000002;" x1="685.6" x2="1054.4" y1="487.9266" y2="487.9266"/><text fill="#000000" font-family="sans-serif" font-size="10.4" font-weight="bold" lengthAdjust="spacing" textLength="11.2" x="691.2" y="483.7164">14</text><text fill="#000000" font-family="sans-serif" font-size="10.4" lengthAdjust="spacing" textLength="104.8" x="705.6" y="483.7164">getVehicleBrandsList()</text><polygon fill="#181818" points="694.4,509.7594,686.4,512.9594,694.4,516.1594,691.2,512.9594" style="stroke:#181818;stroke-width:0.8000000000000002;"/><line style="stroke:#181818;stroke-width:0.8000000000000002;stroke-dasharray:2.0,2.0;" x1="689.6" x2="1062.4" y1="512.9594" y2="512.9594"/><text fill="#000000" font-family="sans-serif" font-size="10.4" font-weight="bold" lengthAdjust="spacing" textLength="11.2" x="699.2" y="508.7492">15</text><text fill="#000000" font-family="sans-serif" font-size="10.4" lengthAdjust="spacing" textLength="48" x="713.6" y="508.7492">brandsList</text><polygon fill="#181818" points="399.2,534.7922,391.2,537.9922,399.2,541.1922,396,537.9922" style="stroke:#181818;stroke-width:0.8000000000000002;"/><line style="stroke:#181818;stroke-width:0.8000000000000002;stroke-dasharray:2.0,2.0;" x1="394.4" x2="680.8" y1="537.9922" y2="537.9922"/><text fill="#000000" font-family="sans-serif" font-size="10.4" font-weight="bold" lengthAdjust="spacing" textLength="11.2" x="404" y="533.782">16</text><text fill="#000000" font-family="sans-serif" font-size="10.4" lengthAdjust="spacing" textLength="48" x="418.4" y="533.782">brandsList</text><polygon fill="#181818" points="81.6,559.825,73.6,563.025,81.6,566.225,78.4,563.025" style="stroke:#181818;stroke-width:0.8000000000000002;"/><line style="stroke:#181818;stroke-width:0.8000000000000002;stroke-dasharray:2.0,2.0;" x1="76.8" x2="385.6" y1="563.025" y2="563.025"/><text fill="#000000" font-family="sans-serif" font-size="10.4" font-weight="bold" lengthAdjust="spacing" textLength="11.2" x="86.4" y="558.8148">17</text><text fill="#000000" font-family="sans-serif" font-size="10.4" lengthAdjust="spacing" textLength="94.4" x="100.8" y="558.8148">asks to select brand</text><polygon fill="#181818" points="372.8,584.8578,380.8,588.0578,372.8,591.2578,376,588.0578" style="stroke:#181818;stroke-width:0.8000000000000002;"/><line style="stroke:#181818;stroke-width:0.8000000000000002;" x1="72.8" x2="377.6" y1="588.0578" y2="588.0578"/><text fill="#000000" font-family="sans-serif" font-size="10.4" font-weight="bold" lengthAdjust="spacing" textLength="11.2" x="78.4" y="583.8477">18</text><text fill="#000000" font-family="sans-serif" font-size="10.4" lengthAdjust="spacing" textLength="62.4" x="92.8" y="583.8477">selects brand</text><polygon fill="#181818" points="668,609.8906,676,613.0906,668,616.2906,671.2,613.0906" style="stroke:#181818;stroke-width:0.8000000000000002;"/><line style="stroke:#181818;stroke-width:0.8000000000000002;" x1="390.4" x2="672.8" y1="613.0906" y2="613.0906"/><text fill="#000000" font-family="sans-serif" font-size="10.4" font-weight="bold" lengthAdjust="spacing" textLength="11.2" x="396" y="608.8805">19</text><text fill="#000000" font-family="sans-serif" font-size="10.4" lengthAdjust="spacing" textLength="131.2" x="410.4" y="608.8805">getVehicleModelsList(brand)</text><polygon fill="#181818" points="1049.6,634.9234,1057.6,638.1234,1049.6,641.3234,1052.8,638.1234" style="stroke:#181818;stroke-width:0.8000000000000002;"/><line style="stroke:#181818;stroke-width:0.8000000000000002;" x1="685.6" x2="1054.4" y1="638.1234" y2="638.1234"/><text fill="#000000" font-family="sans-serif" font-size="10.4" font-weight="bold" lengthAdjust="spacing" textLength="11.2" x="691.2" y="633.9133">20</text><text fill="#000000" font-family="sans-serif" font-size="10.4" lengthAdjust="spacing" textLength="131.2" x="705.6" y="633.9133">getVehicleModelsList(brand)</text><polygon fill="#181818" points="694.4,659.9563,686.4,663.1563,694.4,666.3563,691.2,663.1563" style="stroke:#181818;stroke-width:0.8000000000000002;"/><line style="stroke:#181818;stroke-width:0.8000000000000002;stroke-dasharray:2.0,2.0;" x1="689.6" x2="1062.4" y1="663.1563" y2="663.1563"/><text fill="#000000" font-family="sans-serif" font-size="10.4" font-weight="bold" lengthAdjust="spacing" textLength="11.2" x="699.2" y="658.9461">21</text><text fill="#000000" font-family="sans-serif" font-size="10.4" lengthAdjust="spacing" textLength="50.4" x="713.6" y="658.9461">modelsList</text><polygon fill="#181818" points="399.2,684.9891,391.2,688.1891,399.2,691.3891,396,688.1891" style="stroke:#181818;stroke-width:0.8000000000000002;"/><line style="stroke:#181818;stroke-width:0.8000000000000002;stroke-dasharray:2.0,2.0;" x1="394.4" x2="680.8" y1="688.1891" y2="688.1891"/><text fill="#000000" font-family="sans-serif" font-size="10.4" font-weight="bold" lengthAdjust="spacing" textLength="11.2" x="404" y="683.9789">22</text><text fill="#000000" font-family="sans-serif" font-size="10.4" lengthAdjust="spacing" textLength="50.4" x="418.4" y="683.9789">modelsList</text><polygon fill="#181818" points="81.6,710.0219,73.6,713.2219,81.6,716.4219,78.4,713.2219" style="stroke:#181818;stroke-width:0.8000000000000002;"/><line style="stroke:#181818;stroke-width:0.8000000000000002;stroke-dasharray:2.0,2.0;" x1="76.8" x2="385.6" y1="713.2219" y2="713.2219"/><text fill="#000000" font-family="sans-serif" font-size="10.4" font-weight="bold" lengthAdjust="spacing" textLength="11.2" x="86.4" y="709.0117">23</text><text fill="#000000" font-family="sans-serif" font-size="10.4" lengthAdjust="spacing" textLength="96.8" x="100.8" y="709.0117">asks to select model</text><polygon fill="#181818" points="372.8,735.0547,380.8,738.2547,372.8,741.4547,376,738.2547" style="stroke:#181818;stroke-width:0.8000000000000002;"/><line style="stroke:#181818;stroke-width:0.8000000000000002;" x1="72.8" x2="377.6" y1="738.2547" y2="738.2547"/><text fill="#000000" font-family="sans-serif" font-size="10.4" font-weight="bold" lengthAdjust="spacing" textLength="11.2" x="78.4" y="734.0445">24</text><text fill="#000000" font-family="sans-serif" font-size="10.4" lengthAdjust="spacing" textLength="64.8" x="92.8" y="734.0445">selects model</text><polygon fill="#181818" points="668,760.0875,676,763.2875,668,766.4875,671.2,763.2875" style="stroke:#181818;stroke-width:0.8000000000000002;"/><line style="stroke:#181818;stroke-width:0.8000000000000002;" x1="390.4" x2="672.8" y1="763.2875" y2="763.2875"/><text fill="#000000" font-family="sans-serif" font-size="10.4" font-weight="bold" lengthAdjust="spacing" textLength="11.2" x="396" y="759.0773">25</text><text fill="#000000" font-family="sans-serif" font-size="10.4" lengthAdjust="spacing" textLength="128" x="410.4" y="759.0773">getVehicleTypesList(model)</text><polygon fill="#181818" points="1049.6,785.1203,1057.6,788.3203,1049.6,791.5203,1052.8,788.3203" style="stroke:#181818;stroke-width:0.8000000000000002;"/><line style="stroke:#181818;stroke-width:0.8000000000000002;" x1="685.6" x2="1054.4" y1="788.3203" y2="788.3203"/><text fill="#000000" font-family="sans-serif" font-size="10.4" font-weight="bold" lengthAdjust="spacing" textLength="11.2" x="691.2" y="784.1102">26</text><text fill="#000000" font-family="sans-serif" font-size="10.4" lengthAdjust="spacing" textLength="128" x="705.6" y="784.1102">getVehicleTypesList(model)</text><polygon fill="#181818" points="694.4,810.1531,686.4,813.3531,694.4,816.5531,691.2,813.3531" style="stroke:#181818;stroke-width:0.8000000000000002;"/><line style="stroke:#181818;stroke-width:0.8000000000000002;stroke-dasharray:2.0,2.0;" x1="689.6" x2="1062.4" y1="813.3531" y2="813.3531"/><text fill="#000000" font-family="sans-serif" font-size="10.4" font-weight="bold" lengthAdjust="spacing" textLength="11.2" x="699.2" y="809.143">27</text><text fill="#000000" font-family="sans-serif" font-size="10.4" lengthAdjust="spacing" textLength="42.4" x="713.6" y="809.143">typesList</text><polygon fill="#181818" points="399.2,835.1859,391.2,838.3859,399.2,841.5859,396,838.3859" style="stroke:#181818;stroke-width:0.8000000000000002;"/><line style="stroke:#181818;stroke-width:0.8000000000000002;stroke-dasharray:2.0,2.0;" x1="394.4" x2="680.8" y1="838.3859" y2="838.3859"/><text fill="#000000" font-family="sans-serif" font-size="10.4" font-weight="bold" lengthAdjust="spacing" textLength="11.2" x="404" y="834.1758">28</text><text fill="#000000" font-family="sans-serif" font-size="10.4" lengthAdjust="spacing" textLength="42.4" x="418.4" y="834.1758">typesList</text><polygon fill="#181818" points="81.6,860.2188,73.6,863.4188,81.6,866.6188,78.4,863.4188" style="stroke:#181818;stroke-width:0.8000000000000002;"/><line style="stroke:#181818;stroke-width:0.8000000000000002;stroke-dasharray:2.0,2.0;" x1="76.8" x2="385.6" y1="863.4188" y2="863.4188"/><text fill="#000000" font-family="sans-serif" font-size="10.4" font-weight="bold" lengthAdjust="spacing" textLength="11.2" x="86.4" y="859.2086">29</text><text fill="#000000" font-family="sans-serif" font-size="10.4" lengthAdjust="spacing" textLength="88.8" x="100.8" y="859.2086">asks to select type</text><polygon fill="#181818" points="372.8,885.2516,380.8,888.4516,372.8,891.6516,376,888.4516" style="stroke:#181818;stroke-width:0.8000000000000002;"/><line style="stroke:#181818;stroke-width:0.8000000000000002;" x1="72.8" x2="377.6" y1="888.4516" y2="888.4516"/><text fill="#000000" font-family="sans-serif" font-size="10.4" font-weight="bold" lengthAdjust="spacing" textLength="11.2" x="78.4" y="884.2414">30</text><text fill="#000000" font-family="sans-serif" font-size="10.4" lengthAdjust="spacing" textLength="56.8" x="92.8" y="884.2414">selects type</text><polygon fill="#181818" points="81.6,910.2844,73.6,913.4844,81.6,916.6844,78.4,913.4844" style="stroke:#181818;stroke-width:0.8000000000000002;"/><line style="stroke:#181818;stroke-width:0.8000000000000002;stroke-dasharray:2.0,2.0;" x1="76.8" x2="385.6" y1="913.4844" y2="913.4844"/><text fill="#000000" font-family="sans-serif" font-size="10.4" font-weight="bold" lengthAdjust="spacing" textLength="11.2" x="86.4" y="909.2742">31</text><text fill="#000000" font-family="sans-serif" font-size="10.4" lengthAdjust="spacing" textLength="188.8" x="100.8" y="909.2742">shows all data and requests confirmation</text><polygon fill="#181818" points="372.8,935.3172,380.8,938.5172,372.8,941.7172,376,938.5172" style="stroke:#181818;stroke-width:0.8000000000000002;"/><line style="stroke:#181818;stroke-width:0.8000000000000002;" x1="72.8" x2="377.6" y1="938.5172" y2="938.5172"/><text fill="#000000" font-family="sans-serif" font-size="10.4" font-weight="bold" lengthAdjust="spacing" textLength="11.2" x="78.4" y="934.307">32</text><text fill="#000000" font-family="sans-serif" font-size="10.4" lengthAdjust="spacing" textLength="62.4" x="92.8" y="934.307">confirms data</text><polygon fill="#181818" points="668,988.0156,676,991.2156,668,994.4156,671.2,991.2156" style="stroke:#181818;stroke-width:0.8000000000000002;"/><line style="stroke:#181818;stroke-width:0.8000000000000002;stroke-dasharray:2.0,2.0;" x1="390.4" x2="672.8" y1="991.2156" y2="991.2156"/><text fill="#000000" font-family="sans-serif" font-size="10.4" font-weight="bold" lengthAdjust="spacing" textLength="11.2" x="396" y="973.1727">33</text><text fill="#000000" font-family="sans-serif" font-size="10.4" lengthAdjust="spacing" textLength="254.4" x="410.4" y="959.3398">saveNewVehicle(tare weight, gross weight, current Km,</text><text fill="#000000" font-family="sans-serif" font-size="10.4" lengthAdjust="spacing" textLength="253.6" x="410.4" y="973.1727">register date, acquisition date, maintenance frequency,</text><text fill="#000000" font-family="sans-serif" font-size="10.4" lengthAdjust="spacing" textLength="118.4" x="410.4" y="987.0055">plate, brand, model, type)</text><polygon fill="#181818" points="963.2,1040.7141,971.2,1043.9141,963.2,1047.1141,966.4,1043.9141" style="stroke:#181818;stroke-width:0.8000000000000002;"/><line style="stroke:#181818;stroke-width:0.8000000000000002;stroke-dasharray:2.0,2.0;" x1="685.6" x2="968" y1="1043.9141" y2="1043.9141"/><text fill="#000000" font-family="sans-serif" font-size="10.4" font-weight="bold" lengthAdjust="spacing" textLength="11.2" x="691.2" y="1025.8711">34</text><text fill="#000000" font-family="sans-serif" font-size="10.4" lengthAdjust="spacing" textLength="254.4" x="705.6" y="1012.0383">saveNewVehicle(tare weight, gross weight, current Km,</text><text fill="#000000" font-family="sans-serif" font-size="10.4" lengthAdjust="spacing" textLength="253.6" x="705.6" y="1025.8711">register date, acquisition date, maintenance frequency,</text><text fill="#000000" font-family="sans-serif" font-size="10.4" lengthAdjust="spacing" textLength="118.4" x="705.6" y="1039.7039">plate, brand, model, type)</text><polygon fill="#181818" points="694.4,1065.7469,686.4,1068.9469,694.4,1072.1469,691.2,1068.9469" style="stroke:#181818;stroke-width:0.8000000000000002;"/><line style="stroke:#181818;stroke-width:0.8000000000000002;stroke-dasharray:2.0,2.0;" x1="689.6" x2="976" y1="1068.9469" y2="1068.9469"/><text fill="#000000" font-family="sans-serif" font-size="10.4" font-weight="bold" lengthAdjust="spacing" textLength="11.2" x="699.2" y="1064.7367">35</text><text fill="#000000" font-family="sans-serif" font-size="10.4" lengthAdjust="spacing" textLength="39.2" x="713.6" y="1064.7367">success</text><polygon fill="#181818" points="399.2,1090.7797,391.2,1093.9797,399.2,1097.1797,396,1093.9797" style="stroke:#181818;stroke-width:0.8000000000000002;"/><line style="stroke:#181818;stroke-width:0.8000000000000002;stroke-dasharray:2.0,2.0;" x1="394.4" x2="680.8" y1="1093.9797" y2="1093.9797"/><text fill="#000000" font-family="sans-serif" font-size="10.4" font-weight="bold" lengthAdjust="spacing" textLength="11.2" x="404" y="1089.7695">36</text><text fill="#000000" font-family="sans-serif" font-size="10.4" lengthAdjust="spacing" textLength="39.2" x="418.4" y="1089.7695">success</text><polygon fill="#181818" points="81.6,1115.8125,73.6,1119.0125,81.6,1122.2125,78.4,1119.0125" style="stroke:#181818;stroke-width:0.8000000000000002;"/><line style="stroke:#181818;stroke-width:0.8000000000000002;stroke-dasharray:2.0,2.0;" x1="76.8" x2="385.6" y1="1119.0125" y2="1119.0125"/><text fill="#000000" font-family="sans-serif" font-size="10.4" font-weight="bold" lengthAdjust="spacing" textLength="11.2" x="86.4" y="1114.8023">37</text><text fill="#000000" font-family="sans-serif" font-size="10.4" lengthAdjust="spacing" textLength="159.2" x="100.8" y="1114.8023">informs that vehicle was registered</text><!--SRC=[pLRBRjim4BphAxQvn0QK7mYG06q20q7ZeaYJdd9XgBL4X28LahBZl- -AalMov4Wf2jGdcTmPxkuC7_PLg8mPbaAgbUQ9qIc2Cpa6jfx967zbCVvoUubWa3kcOjaEi0cBz4we63PCMWm2bZkjylG5JH2S9o92s6ZjNlHxmBZJ1ivM4j71cYdYDR1OhPTdm2oirW4nEi55nfI3iyi7Z8LrQ7vZ8hZ4fpiVzdJN2wkcRxHoHak9neVTF3xSTmEtPTm3PjeAIcJ_h0xOPinZcyX1XWRNZWwAyiIMEImg2Q3whTPmSKr9moLrxor7womuJTzbRS1g_05Hqr2bzI0HN10FiLtIcg-MUceEICWaXJUn4ROf1X9n-mnj3psqUdln2hfbKaGqtOUVG-jN9VlrTjskcc0C5WOtQ51n32bFout8dD0g112AIagPX6VLdN784oKupNI6ezomyejhwvP1Eu5pRh2emPkWdzcr7wRCOdILZj_sFuig5hwMBbNT3y_LcV8qHDVOPJPfoscTW1RbHPDmtoaziLjansdM0fxcw7ICILVB_EKAL2xbe25BwSZN2Mi0J986qHxmdOnkQnpI6L77N9qWFN9viGei73C8EnHnuaA8ZRQs_iTpGyvoy3qDoKJr3Yli6bBBtt91UvmSKusaJ2Y7Yf4NOUDTglX- -TbTL6Jt-KtKGO-Pr30LsNigQh4CFh1dpvepUEhJh6V5jWzVQePWt8R1iFzEOplsEt83dPiM9Tr19SjqgKgKxS76LJhg_Lf7P5pVCyyn9i2K_a_WwhTmG8EqPfclmMdiL0qyotmDkh0P6ZmM-ystpLFyZGGVKqrGm1r8vWjm4Zgr_mN9_FPtK6FTFwne4xspT9BByl8cipRNETTg8-Z2BaxKwMbKgF8rC2MFgjcMRV47xYhz_lKjK23zjHsMHqPOkZRqtPjclFwxuFykOE3fCFm4iJddQ6qmxVdHTVq9xAZd1vyMEtfr7_g2OzS0gkWF]--></g></svg>