<?xml version="1.0" encoding="us-ascii" standalone="no"?><svg xmlns="http://www.w3.org/2000/svg" xmlns:xlink="http://www.w3.org/1999/xlink" contentStyleType="text/css" height="2195px" preserveAspectRatio="none" style="width:1488px;height:2195px;background:#FFFFFF;" version="1.1" viewBox="0 0 1488 2195" width="1488px" zoomAndPan="magnify"><defs/><g><rect fill="#FFFFFF" height="2009.5469" style="stroke:#181818;stroke-width:1.0;" width="10" x="81" y="93.6211"/><rect fill="#FFFFFF" height="31.291" style="stroke:#181818;stroke-width:1.0;" width="10" x="478" y="116.9121"/><rect fill="#FFFFFF" height="417.4141" style="stroke:#181818;stroke-width:1.0;" width="10" x="478" y="179.4941"/><rect fill="#FFFFFF" height="325.9102" style="stroke:#181818;stroke-width:1.0;" width="10" x="478" y="628.1992"/><rect fill="#FFFFFF" height="281.6191" style="stroke:#181818;stroke-width:1.0;" width="10" x="478" y="985.4004"/><rect fill="#FFFFFF" height="281.6191" style="stroke:#181818;stroke-width:1.0;" width="10" x="478" y="1298.3105"/><rect fill="#FFFFFF" height="31.291" style="stroke:#181818;stroke-width:1.0;" width="10" x="478" y="1611.2207"/><rect fill="#FFFFFF" height="413.3652" style="stroke:#181818;stroke-width:1.0;" width="10" x="478" y="1673.8027"/><rect fill="#FFFFFF" height="219.0371" style="stroke:#181818;stroke-width:1.0;" width="10" x="843" y="255.0762"/><rect fill="#FFFFFF" height="219.0371" style="stroke:#181818;stroke-width:1.0;" width="10" x="843" y="703.7813"/><rect fill="#FFFFFF" height="219.0371" style="stroke:#181818;stroke-width:1.0;" width="10" x="843" y="1016.6914"/><rect fill="#FFFFFF" height="219.0371" style="stroke:#181818;stroke-width:1.0;" width="10" x="843" y="1329.6016"/><rect fill="#FFFFFF" height="316.2012" style="stroke:#181818;stroke-width:1.0;" width="10" x="843" y="1739.6758"/><rect fill="#FFFFFF" height="31.291" style="stroke:#181818;stroke-width:1.0;" width="10" x="965" y="286.3672"/><rect fill="#FFFFFF" height="31.291" style="stroke:#181818;stroke-width:1.0;" width="10" x="965" y="735.0723"/><rect fill="#FFFFFF" height="31.291" style="stroke:#181818;stroke-width:1.0;" width="10" x="965" y="1047.9824"/><rect fill="#FFFFFF" height="31.291" style="stroke:#181818;stroke-width:1.0;" width="10" x="965" y="1360.8926"/><rect fill="#FFFFFF" height="31.291" style="stroke:#181818;stroke-width:1.0;" width="10" x="965" y="1868.1309"/><rect fill="#FFFFFF" height="31.291" style="stroke:#181818;stroke-width:1.0;" width="10" x="1070" y="348.9492"/><rect fill="#FFFFFF" height="31.291" style="stroke:#181818;stroke-width:1.0;" width="10" x="1070" y="797.6543"/><rect fill="#FFFFFF" height="31.291" style="stroke:#181818;stroke-width:1.0;" width="10" x="1070" y="1110.5645"/><rect fill="#FFFFFF" height="31.291" style="stroke:#181818;stroke-width:1.0;" width="10" x="1070" y="1423.4746"/><rect fill="#FFFFFF" height="31.291" style="stroke:#181818;stroke-width:1.0;" width="10" x="1070" y="1930.7129"/><rect fill="#FFFFFF" height="31.291" style="stroke:#181818;stroke-width:1.0;" width="10" x="1192.5" y="411.5313"/><rect fill="#FFFFFF" height="31.291" style="stroke:#181818;stroke-width:1.0;" width="10" x="1192.5" y="1993.2949"/><rect fill="#FFFFFF" height="31.291" style="stroke:#181818;stroke-width:1.0;" width="10" x="1300.5" y="1805.5488"/><rect fill="#FFFFFF" height="31.291" style="stroke:#181818;stroke-width:1.0;" width="10" x="1404.5" y="860.2363"/><rect fill="#FFFFFF" height="31.291" style="stroke:#181818;stroke-width:1.0;" width="10" x="1404.5" y="1173.1465"/><rect fill="#FFFFFF" height="31.291" style="stroke:#181818;stroke-width:1.0;" width="10" x="1404.5" y="1486.0566"/><rect fill="none" height="1606.0547" style="stroke:#000000;stroke-width:1.5;" width="1471.5" x="10" y="489.1133"/><line style="stroke:#181818;stroke-width:0.5;stroke-dasharray:5.0,5.0;" x1="86" x2="86" y1="83.6211" y2="2112.168"/><line style="stroke:#181818;stroke-width:0.5;stroke-dasharray:5.0,5.0;" x1="482.5" x2="482.5" y1="83.6211" y2="2112.168"/><line style="stroke:#181818;stroke-width:0.5;stroke-dasharray:5.0,5.0;" x1="848" x2="848" y1="83.6211" y2="2112.168"/><line style="stroke:#181818;stroke-width:0.5;stroke-dasharray:5.0,5.0;" x1="969.5" x2="969.5" y1="83.6211" y2="2112.168"/><line style="stroke:#181818;stroke-width:0.5;stroke-dasharray:5.0,5.0;" x1="1074.5" x2="1074.5" y1="83.6211" y2="2112.168"/><line style="stroke:#181818;stroke-width:0.5;stroke-dasharray:5.0,5.0;" x1="1197.5" x2="1197.5" y1="83.6211" y2="2112.168"/><line style="stroke:#181818;stroke-width:0.5;stroke-dasharray:5.0,5.0;" x1="1305.5" x2="1305.5" y1="83.6211" y2="2112.168"/><line style="stroke:#181818;stroke-width:0.5;stroke-dasharray:5.0,5.0;" x1="1409.5" x2="1409.5" y1="83.6211" y2="2112.168"/><text fill="#000000" font-family="sans-serif" font-size="14" lengthAdjust="spacing" textLength="126" x="20" y="80.1074">Fleet Manager (FM)</text><ellipse cx="86" cy="13.5" fill="#E3E3E3" rx="8" ry="8" style="stroke:#181818;stroke-width:0.5;"/><path d="M86,21.5 L86,48.5 M73,29.5 L99,29.5 M86,48.5 L73,63.5 M86,48.5 L99,63.5 " fill="none" style="stroke:#181818;stroke-width:0.5;"/><text fill="#000000" font-family="sans-serif" font-size="14" lengthAdjust="spacing" textLength="126" x="20" y="2126.2754">Fleet Manager (FM)</text><ellipse cx="86" cy="2138.2891" fill="#E3E3E3" rx="8" ry="8" style="stroke:#181818;stroke-width:0.5;"/><path d="M86,2146.2891 L86,2173.2891 M73,2154.2891 L99,2154.2891 M86,2173.2891 L73,2188.2891 M86,2173.2891 L99,2188.2891 " fill="none" style="stroke:#181818;stroke-width:0.5;"/><rect fill="#E3E3E3" height="32.6211" rx="2.5" ry="2.5" style="stroke:#181818;stroke-width:0.5;" width="129" x="418.5" y="50"/><text fill="#000000" font-family="sans-serif" font-size="14" lengthAdjust="spacing" textLength="115" x="425.5" y="72.1074">:RegisterVehicleUI</text><rect fill="#E3E3E3" height="32.6211" rx="2.5" ry="2.5" style="stroke:#181818;stroke-width:0.5;" width="129" x="418.5" y="2111.168"/><text fill="#000000" font-family="sans-serif" font-size="14" lengthAdjust="spacing" textLength="115" x="425.5" y="2133.2754">:RegisterVehicleUI</text><rect fill="#E3E3E3" height="32.6211" rx="2.5" ry="2.5" style="stroke:#181818;stroke-width:0.5;" width="126" x="785" y="50"/><text fill="#000000" font-family="sans-serif" font-size="14" lengthAdjust="spacing" textLength="112" x="792" y="72.1074">:VehicleController</text><rect fill="#E3E3E3" height="32.6211" rx="2.5" ry="2.5" style="stroke:#181818;stroke-width:0.5;" width="126" x="785" y="2111.168"/><text fill="#000000" font-family="sans-serif" font-size="14" lengthAdjust="spacing" textLength="112" x="792" y="2133.2754">:VehicleController</text><rect fill="#E3E3E3" height="32.6211" rx="2.5" ry="2.5" style="stroke:#181818;stroke-width:0.5;" width="97" x="921.5" y="50"/><text fill="#000000" font-family="sans-serif" font-size="14" lengthAdjust="spacing" textLength="83" x="928.5" y="72.1074">:Repositories</text><rect fill="#E3E3E3" height="32.6211" rx="2.5" ry="2.5" style="stroke:#181818;stroke-width:0.5;" width="97" x="921.5" y="2111.168"/><text fill="#000000" font-family="sans-serif" font-size="14" lengthAdjust="spacing" textLength="83" x="928.5" y="2133.2754">:Repositories</text><rect fill="#E3E3E3" height="51.2422" rx="2.5" ry="2.5" style="stroke:#181818;stroke-width:0.5;" width="93" x="1028.5" y="31.3789"/><text fill="#000000" font-family="sans-serif" font-size="14" lengthAdjust="spacing" textLength="78" x="1036" y="53.4863">repositories:</text><text fill="#000000" font-family="sans-serif" font-size="14" lengthAdjust="spacing" textLength="79" x="1035.5" y="72.1074">Repositories</text><rect fill="#E3E3E3" height="51.2422" rx="2.5" ry="2.5" style="stroke:#181818;stroke-width:0.5;" width="93" x="1028.5" y="2111.168"/><text fill="#000000" font-family="sans-serif" font-size="14" lengthAdjust="spacing" textLength="78" x="1036" y="2133.2754">repositories:</text><text fill="#000000" font-family="sans-serif" font-size="14" lengthAdjust="spacing" textLength="79" x="1035.5" y="2151.8965">Repositories</text><rect fill="#E3E3E3" height="51.2422" rx="2.5" ry="2.5" style="stroke:#181818;stroke-width:0.5;" width="132" x="1131.5" y="31.3789"/><text fill="#000000" font-family="sans-serif" font-size="14" lengthAdjust="spacing" textLength="112" x="1141.5" y="53.4863">vehicleRepository</text><text fill="#000000" font-family="sans-serif" font-size="14" lengthAdjust="spacing" textLength="118" x="1138.5" y="72.1074">:VehicleRepository</text><rect fill="#E3E3E3" height="51.2422" rx="2.5" ry="2.5" style="stroke:#181818;stroke-width:0.5;" width="132" x="1131.5" y="2111.168"/><text fill="#000000" font-family="sans-serif" font-size="14" lengthAdjust="spacing" textLength="112" x="1141.5" y="2133.2754">vehicleRepository</text><text fill="#000000" font-family="sans-serif" font-size="14" lengthAdjust="spacing" textLength="118" x="1138.5" y="2151.8965">:VehicleRepository</text><rect fill="#E3E3E3" height="51.2422" rx="2.5" ry="2.5" style="stroke:#181818;stroke-width:0.5;" width="64" x="1273.5" y="31.3789"/><text fill="#000000" font-family="sans-serif" font-size="14" lengthAdjust="spacing" textLength="44" x="1283.5" y="53.4863">vehicle</text><text fill="#000000" font-family="sans-serif" font-size="14" lengthAdjust="spacing" textLength="50" x="1280.5" y="72.1074">:Vehicle</text><rect fill="#E3E3E3" height="51.2422" rx="2.5" ry="2.5" style="stroke:#181818;stroke-width:0.5;" width="64" x="1273.5" y="2111.168"/><text fill="#000000" font-family="sans-serif" font-size="14" lengthAdjust="spacing" textLength="44" x="1283.5" y="2133.2754">vehicle</text><text fill="#000000" font-family="sans-serif" font-size="14" lengthAdjust="spacing" textLength="50" x="1280.5" y="2151.8965">:Vehicle</text><rect fill="#E3E3E3" height="51.2422" rx="2.5" ry="2.5" style="stroke:#181818;stroke-width:0.5;" width="124" x="1347.5" y="31.3789"/><text fill="#000000" font-family="sans-serif" font-size="14" lengthAdjust="spacing" textLength="104" x="1357.5" y="53.4863">vehicleAttributes</text><text fill="#000000" font-family="sans-serif" font-size="14" lengthAdjust="spacing" textLength="110" x="1354.5" y="72.1074">:VehicleAttributes</text><rect fill="#E3E3E3" height="51.2422" rx="2.5" ry="2.5" style="stroke:#181818;stroke-width:0.5;" width="124" x="1347.5" y="2111.168"/><text fill="#000000" font-family="sans-serif" font-size="14" lengthAdjust="spacing" textLength="104" x="1357.5" y="2133.2754">vehicleAttributes</text><text fill="#000000" font-family="sans-serif" font-size="14" lengthAdjust="spacing" textLength="110" x="1354.5" y="2151.8965">:VehicleAttributes</text><rect fill="#FFFFFF" height="2009.5469" style="stroke:#181818;stroke-width:1.0;" width="10" x="81" y="93.6211"/><rect fill="#FFFFFF" height="31.291" style="stroke:#181818;stroke-width:1.0;" width="10" x="478" y="116.9121"/><rect fill="#FFFFFF" height="417.4141" style="stroke:#181818;stroke-width:1.0;" width="10" x="478" y="179.4941"/><rect fill="#FFFFFF" height="325.9102" style="stroke:#181818;stroke-width:1.0;" width="10" x="478" y="628.1992"/><rect fill="#FFFFFF" height="281.6191" style="stroke:#181818;stroke-width:1.0;" width="10" x="478" y="985.4004"/><rect fill="#FFFFFF" height="281.6191" style="stroke:#181818;stroke-width:1.0;" width="10" x="478" y="1298.3105"/><rect fill="#FFFFFF" height="31.291" style="stroke:#181818;stroke-width:1.0;" width="10" x="478" y="1611.2207"/><rect fill="#FFFFFF" height="413.3652" style="stroke:#181818;stroke-width:1.0;" width="10" x="478" y="1673.8027"/><rect fill="#FFFFFF" height="219.0371" style="stroke:#181818;stroke-width:1.0;" width="10" x="843" y="255.0762"/><rect fill="#FFFFFF" height="219.0371" style="stroke:#181818;stroke-width:1.0;" width="10" x="843" y="703.7813"/><rect fill="#FFFFFF" height="219.0371" style="stroke:#181818;stroke-width:1.0;" width="10" x="843" y="1016.6914"/><rect fill="#FFFFFF" height="219.0371" style="stroke:#181818;stroke-width:1.0;" width="10" x="843" y="1329.6016"/><rect fill="#FFFFFF" height="316.2012" style="stroke:#181818;stroke-width:1.0;" width="10" x="843" y="1739.6758"/><rect fill="#FFFFFF" height="31.291" style="stroke:#181818;stroke-width:1.0;" width="10" x="965" y="286.3672"/><rect fill="#FFFFFF" height="31.291" style="stroke:#181818;stroke-width:1.0;" width="10" x="965" y="735.0723"/><rect fill="#FFFFFF" height="31.291" style="stroke:#181818;stroke-width:1.0;" width="10" x="965" y="1047.9824"/><rect fill="#FFFFFF" height="31.291" style="stroke:#181818;stroke-width:1.0;" width="10" x="965" y="1360.8926"/><rect fill="#FFFFFF" height="31.291" style="stroke:#181818;stroke-width:1.0;" width="10" x="965" y="1868.1309"/><rect fill="#FFFFFF" height="31.291" style="stroke:#181818;stroke-width:1.0;" width="10" x="1070" y="348.9492"/><rect fill="#FFFFFF" height="31.291" style="stroke:#181818;stroke-width:1.0;" width="10" x="1070" y="797.6543"/><rect fill="#FFFFFF" height="31.291" style="stroke:#181818;stroke-width:1.0;" width="10" x="1070" y="1110.5645"/><rect fill="#FFFFFF" height="31.291" style="stroke:#181818;stroke-width:1.0;" width="10" x="1070" y="1423.4746"/><rect fill="#FFFFFF" height="31.291" style="stroke:#181818;stroke-width:1.0;" width="10" x="1070" y="1930.7129"/><rect fill="#FFFFFF" height="31.291" style="stroke:#181818;stroke-width:1.0;" width="10" x="1192.5" y="411.5313"/><rect fill="#FFFFFF" height="31.291" style="stroke:#181818;stroke-width:1.0;" width="10" x="1192.5" y="1993.2949"/><rect fill="#FFFFFF" height="31.291" style="stroke:#181818;stroke-width:1.0;" width="10" x="1300.5" y="1805.5488"/><rect fill="#FFFFFF" height="31.291" style="stroke:#181818;stroke-width:1.0;" width="10" x="1404.5" y="860.2363"/><rect fill="#FFFFFF" height="31.291" style="stroke:#181818;stroke-width:1.0;" width="10" x="1404.5" y="1173.1465"/><rect fill="#FFFFFF" height="31.291" style="stroke:#181818;stroke-width:1.0;" width="10" x="1404.5" y="1486.0566"/><polygon fill="#181818" points="466,112.9121,476,116.9121,466,120.9121,470,116.9121" style="stroke:#181818;stroke-width:1.0;"/><line style="stroke:#181818;stroke-width:1.0;" x1="91" x2="472" y1="116.9121" y2="116.9121"/><text fill="#000000" font-family="sans-serif" font-size="13" font-weight="bold" lengthAdjust="spacing" textLength="7" x="98" y="111.6494">1</text><text fill="#000000" font-family="sans-serif" font-size="13" lengthAdjust="spacing" textLength="213" x="109" y="111.6494">requests to register a new vehicleAtri</text><polygon fill="#181818" points="102,144.2031,92,148.2031,102,152.2031,98,148.2031" style="stroke:#181818;stroke-width:1.0;"/><line style="stroke:#181818;stroke-width:1.0;stroke-dasharray:2.0,2.0;" x1="96" x2="482" y1="148.2031" y2="148.2031"/><text fill="#000000" font-family="sans-serif" font-size="13" font-weight="bold" lengthAdjust="spacing" textLength="7" x="108" y="142.9404">2</text><text fill="#000000" font-family="sans-serif" font-size="13" lengthAdjust="spacing" textLength="121" x="119" y="142.9404">asks for vehicle plate</text><polygon fill="#181818" points="466,175.4941,476,179.4941,466,183.4941,470,179.4941" style="stroke:#181818;stroke-width:1.0;"/><line style="stroke:#181818;stroke-width:1.0;" x1="91" x2="472" y1="179.4941" y2="179.4941"/><text fill="#000000" font-family="sans-serif" font-size="13" font-weight="bold" lengthAdjust="spacing" textLength="7" x="98" y="174.2314">3</text><text fill="#000000" font-family="sans-serif" font-size="13" lengthAdjust="spacing" textLength="107" x="109" y="174.2314">types vehicle plate</text><line style="stroke:#181818;stroke-width:1.0;" x1="488" x2="530" y1="210.7852" y2="210.7852"/><line style="stroke:#181818;stroke-width:1.0;" x1="530" x2="530" y1="210.7852" y2="223.7852"/><line style="stroke:#181818;stroke-width:1.0;" x1="489" x2="530" y1="223.7852" y2="223.7852"/><polygon fill="#181818" points="499,219.7852,489,223.7852,499,227.7852,495,223.7852" style="stroke:#181818;stroke-width:1.0;"/><text fill="#000000" font-family="sans-serif" font-size="13" font-weight="bold" lengthAdjust="spacing" textLength="7" x="495" y="205.5225">4</text><text fill="#000000" font-family="sans-serif" font-size="13" lengthAdjust="spacing" textLength="125" x="506" y="205.5225">validates vehicle plate</text><polygon fill="#181818" points="831,251.0762,841,255.0762,831,259.0762,835,255.0762" style="stroke:#181818;stroke-width:1.0;"/><line style="stroke:#181818;stroke-width:1.0;" x1="488" x2="837" y1="255.0762" y2="255.0762"/><text fill="#000000" font-family="sans-serif" font-size="13" font-weight="bold" lengthAdjust="spacing" textLength="7" x="495" y="249.8135">5</text><text fill="#000000" font-family="sans-serif" font-size="13" lengthAdjust="spacing" textLength="143" x="506" y="249.8135">getVehicleByPlate(plate)</text><polygon fill="#181818" points="953,282.3672,963,286.3672,953,290.3672,957,286.3672" style="stroke:#181818;stroke-width:1.0;"/><line style="stroke:#181818;stroke-width:1.0;" x1="853" x2="959" y1="286.3672" y2="286.3672"/><text fill="#000000" font-family="sans-serif" font-size="13" font-weight="bold" lengthAdjust="spacing" textLength="7" x="860" y="281.1045">6</text><text fill="#000000" font-family="sans-serif" font-size="13" lengthAdjust="spacing" textLength="75" x="871" y="281.1045">getInstance()</text><polygon fill="#181818" points="864,313.6582,854,317.6582,864,321.6582,860,317.6582" style="stroke:#181818;stroke-width:1.0;"/><line style="stroke:#181818;stroke-width:1.0;stroke-dasharray:2.0,2.0;" x1="858" x2="969" y1="317.6582" y2="317.6582"/><text fill="#000000" font-family="sans-serif" font-size="13" font-weight="bold" lengthAdjust="spacing" textLength="7" x="870" y="312.3955">7</text><text fill="#000000" font-family="sans-serif" font-size="13" lengthAdjust="spacing" textLength="67" x="881" y="312.3955">repositories</text><polygon fill="#181818" points="1058,344.9492,1068,348.9492,1058,352.9492,1062,348.9492" style="stroke:#181818;stroke-width:1.0;"/><line style="stroke:#181818;stroke-width:1.0;" x1="853" x2="1064" y1="348.9492" y2="348.9492"/><text fill="#000000" font-family="sans-serif" font-size="13" font-weight="bold" lengthAdjust="spacing" textLength="7" x="860" y="343.6865">8</text><text fill="#000000" font-family="sans-serif" font-size="13" lengthAdjust="spacing" textLength="131" x="871" y="343.6865">getVehicleRepository()</text><polygon fill="#181818" points="864,376.2402,854,380.2402,864,384.2402,860,380.2402" style="stroke:#181818;stroke-width:1.0;"/><line style="stroke:#181818;stroke-width:1.0;" x1="858" x2="1074" y1="380.2402" y2="380.2402"/><text fill="#000000" font-family="sans-serif" font-size="13" font-weight="bold" lengthAdjust="spacing" textLength="7" x="870" y="374.9775">9</text><text fill="#000000" font-family="sans-serif" font-size="13" lengthAdjust="spacing" textLength="101" x="881" y="374.9775">vehicleRepository</text><polygon fill="#181818" points="1180.5,407.5313,1190.5,411.5313,1180.5,415.5313,1184.5,411.5313" style="stroke:#181818;stroke-width:1.0;"/><line style="stroke:#181818;stroke-width:1.0;" x1="853" x2="1186.5" y1="411.5313" y2="411.5313"/><text fill="#000000" font-family="sans-serif" font-size="13" font-weight="bold" lengthAdjust="spacing" textLength="14" x="860" y="406.2686">10</text><text fill="#000000" font-family="sans-serif" font-size="13" lengthAdjust="spacing" textLength="143" x="878" y="406.2686">getVehicleByPlate(plate)</text><polygon fill="#181818" points="864,438.8223,854,442.8223,864,446.8223,860,442.8223" style="stroke:#181818;stroke-width:1.0;"/><line style="stroke:#181818;stroke-width:1.0;stroke-dasharray:2.0,2.0;" x1="858" x2="1196.5" y1="442.8223" y2="442.8223"/><text fill="#000000" font-family="sans-serif" font-size="13" font-weight="bold" lengthAdjust="spacing" textLength="14" x="870" y="437.5596">11</text><text fill="#000000" font-family="sans-serif" font-size="13" lengthAdjust="spacing" textLength="39" x="888" y="437.5596">vehicle</text><polygon fill="#181818" points="499,470.1133,489,474.1133,499,478.1133,495,474.1133" style="stroke:#181818;stroke-width:1.0;"/><line style="stroke:#181818;stroke-width:1.0;stroke-dasharray:2.0,2.0;" x1="493" x2="847" y1="474.1133" y2="474.1133"/><text fill="#000000" font-family="sans-serif" font-size="13" font-weight="bold" lengthAdjust="spacing" textLength="14" x="505" y="468.8506">12</text><text fill="#000000" font-family="sans-serif" font-size="13" lengthAdjust="spacing" textLength="39" x="523" y="468.8506">vehicle</text><path d="M10,489.1133 L71,489.1133 L71,498.4043 L61,508.4043 L10,508.4043 L10,489.1133 " fill="#EEEEEE" style="stroke:#000000;stroke-width:1.5;"/><rect fill="none" height="1606.0547" style="stroke:#000000;stroke-width:1.5;" width="1471.5" x="10" y="489.1133"/><text fill="#000000" font-family="sans-serif" font-size="13" font-weight="bold" lengthAdjust="spacing" textLength="16" x="25" y="504.1416">alt</text><text fill="#000000" font-family="sans-serif" font-size="11" font-weight="bold" lengthAdjust="spacing" textLength="82" x="86" y="502.9834">[vehicle != null]</text><polygon fill="#181818" points="102,527.6953,92,531.6953,102,535.6953,98,531.6953" style="stroke:#181818;stroke-width:1.0;"/><line style="stroke:#181818;stroke-width:1.0;stroke-dasharray:2.0,2.0;" x1="96" x2="477" y1="531.6953" y2="531.6953"/><text fill="#000000" font-family="sans-serif" font-size="13" font-weight="bold" lengthAdjust="spacing" textLength="14" x="108" y="526.4326">13</text><text fill="#000000" font-family="sans-serif" font-size="13" lengthAdjust="spacing" textLength="196" x="126" y="526.4326">informs that vehicle already exists</text><line style="stroke:#000000;stroke-width:1.0;stroke-dasharray:2.0,2.0;" x1="10" x2="1481.5" y1="540.6953" y2="540.6953"/><text fill="#000000" font-family="sans-serif" font-size="11" font-weight="bold" lengthAdjust="spacing" textLength="85" x="15" y="552.5654">[vehicle == null]</text><polygon fill="#181818" points="102,592.9082,92,596.9082,102,600.9082,98,596.9082" style="stroke:#181818;stroke-width:1.0;"/><line style="stroke:#181818;stroke-width:1.0;stroke-dasharray:2.0,2.0;" x1="96" x2="482" y1="596.9082" y2="596.9082"/><text fill="#000000" font-family="sans-serif" font-size="13" font-weight="bold" lengthAdjust="spacing" textLength="14" x="108" y="583">14</text><text fill="#000000" font-family="sans-serif" font-size="13" lengthAdjust="spacing" textLength="341" x="126" y="574.3545">asks for vehicle info (tare weight, gross weight, current Km,</text><text fill="#000000" font-family="sans-serif" font-size="13" lengthAdjust="spacing" textLength="317" x="126" y="591.6455">register date, acquisition date, maintenance frequency)</text><polygon fill="#181818" points="466,624.1992,476,628.1992,466,632.1992,470,628.1992" style="stroke:#181818;stroke-width:1.0;"/><line style="stroke:#181818;stroke-width:1.0;" x1="91" x2="472" y1="628.1992" y2="628.1992"/><text fill="#000000" font-family="sans-serif" font-size="13" font-weight="bold" lengthAdjust="spacing" textLength="14" x="98" y="622.9365">15</text><text fill="#000000" font-family="sans-serif" font-size="13" lengthAdjust="spacing" textLength="99" x="116" y="622.9365">types vehicle info</text><line style="stroke:#181818;stroke-width:1.0;" x1="488" x2="530" y1="659.4902" y2="659.4902"/><line style="stroke:#181818;stroke-width:1.0;" x1="530" x2="530" y1="659.4902" y2="672.4902"/><line style="stroke:#181818;stroke-width:1.0;" x1="489" x2="530" y1="672.4902" y2="672.4902"/><polygon fill="#181818" points="499,668.4902,489,672.4902,499,676.4902,495,672.4902" style="stroke:#181818;stroke-width:1.0;"/><text fill="#000000" font-family="sans-serif" font-size="13" font-weight="bold" lengthAdjust="spacing" textLength="14" x="495" y="654.2275">16</text><text fill="#000000" font-family="sans-serif" font-size="13" lengthAdjust="spacing" textLength="117" x="513" y="654.2275">validates vehicle info</text><polygon fill="#181818" points="831,699.7813,841,703.7813,831,707.7813,835,703.7813" style="stroke:#181818;stroke-width:1.0;"/><line style="stroke:#181818;stroke-width:1.0;" x1="488" x2="837" y1="703.7813" y2="703.7813"/><text fill="#000000" font-family="sans-serif" font-size="13" font-weight="bold" lengthAdjust="spacing" textLength="14" x="495" y="698.5186">17</text><text fill="#000000" font-family="sans-serif" font-size="13" lengthAdjust="spacing" textLength="131" x="513" y="698.5186">getVehicleBrandsList()</text><polygon fill="#181818" points="953,731.0723,963,735.0723,953,739.0723,957,735.0723" style="stroke:#181818;stroke-width:1.0;"/><line style="stroke:#181818;stroke-width:1.0;" x1="853" x2="959" y1="735.0723" y2="735.0723"/><text fill="#000000" font-family="sans-serif" font-size="13" font-weight="bold" lengthAdjust="spacing" textLength="14" x="860" y="729.8096">18</text><text fill="#000000" font-family="sans-serif" font-size="13" lengthAdjust="spacing" textLength="75" x="878" y="729.8096">getInstance()</text><polygon fill="#181818" points="864,762.3633,854,766.3633,864,770.3633,860,766.3633" style="stroke:#181818;stroke-width:1.0;"/><line style="stroke:#181818;stroke-width:1.0;stroke-dasharray:2.0,2.0;" x1="858" x2="969" y1="766.3633" y2="766.3633"/><text fill="#000000" font-family="sans-serif" font-size="13" font-weight="bold" lengthAdjust="spacing" textLength="14" x="870" y="761.1006">19</text><text fill="#000000" font-family="sans-serif" font-size="13" lengthAdjust="spacing" textLength="67" x="888" y="761.1006">repositories</text><polygon fill="#181818" points="1058,793.6543,1068,797.6543,1058,801.6543,1062,797.6543" style="stroke:#181818;stroke-width:1.0;"/><line style="stroke:#181818;stroke-width:1.0;" x1="853" x2="1064" y1="797.6543" y2="797.6543"/><text fill="#000000" font-family="sans-serif" font-size="13" font-weight="bold" lengthAdjust="spacing" textLength="14" x="860" y="792.3916">20</text><text fill="#000000" font-family="sans-serif" font-size="13" lengthAdjust="spacing" textLength="125" x="878" y="792.3916">getVehicleAttributes()</text><polygon fill="#181818" points="864,824.9453,854,828.9453,864,832.9453,860,828.9453" style="stroke:#181818;stroke-width:1.0;"/><line style="stroke:#181818;stroke-width:1.0;" x1="858" x2="1074" y1="828.9453" y2="828.9453"/><text fill="#000000" font-family="sans-serif" font-size="13" font-weight="bold" lengthAdjust="spacing" textLength="14" x="870" y="823.6826">21</text><text fill="#000000" font-family="sans-serif" font-size="13" lengthAdjust="spacing" textLength="95" x="888" y="823.6826">vehicleAttributes</text><polygon fill="#181818" points="1392.5,856.2363,1402.5,860.2363,1392.5,864.2363,1396.5,860.2363" style="stroke:#181818;stroke-width:1.0;"/><line style="stroke:#181818;stroke-width:1.0;" x1="853" x2="1398.5" y1="860.2363" y2="860.2363"/><text fill="#000000" font-family="sans-serif" font-size="13" font-weight="bold" lengthAdjust="spacing" textLength="14" x="860" y="854.9736">22</text><text fill="#000000" font-family="sans-serif" font-size="13" lengthAdjust="spacing" textLength="131" x="878" y="854.9736">getVehicleBrandsList()</text><polygon fill="#181818" points="864,887.5273,854,891.5273,864,895.5273,860,891.5273" style="stroke:#181818;stroke-width:1.0;"/><line style="stroke:#181818;stroke-width:1.0;stroke-dasharray:2.0,2.0;" x1="858" x2="1408.5" y1="891.5273" y2="891.5273"/><text fill="#000000" font-family="sans-serif" font-size="13" font-weight="bold" lengthAdjust="spacing" textLength="14" x="870" y="886.2646">23</text><text fill="#000000" font-family="sans-serif" font-size="13" lengthAdjust="spacing" textLength="60" x="888" y="886.2646">brandsList</text><polygon fill="#181818" points="499,918.8184,489,922.8184,499,926.8184,495,922.8184" style="stroke:#181818;stroke-width:1.0;"/><line style="stroke:#181818;stroke-width:1.0;stroke-dasharray:2.0,2.0;" x1="493" x2="847" y1="922.8184" y2="922.8184"/><text fill="#000000" font-family="sans-serif" font-size="13" font-weight="bold" lengthAdjust="spacing" textLength="14" x="505" y="917.5557">24</text><text fill="#000000" font-family="sans-serif" font-size="13" lengthAdjust="spacing" textLength="60" x="523" y="917.5557">brandsList</text><polygon fill="#181818" points="102,950.1094,92,954.1094,102,958.1094,98,954.1094" style="stroke:#181818;stroke-width:1.0;"/><line style="stroke:#181818;stroke-width:1.0;stroke-dasharray:2.0,2.0;" x1="96" x2="482" y1="954.1094" y2="954.1094"/><text fill="#000000" font-family="sans-serif" font-size="13" font-weight="bold" lengthAdjust="spacing" textLength="14" x="108" y="948.8467">25</text><text fill="#000000" font-family="sans-serif" font-size="13" lengthAdjust="spacing" textLength="118" x="126" y="948.8467">asks to select brand</text><polygon fill="#181818" points="466,981.4004,476,985.4004,466,989.4004,470,985.4004" style="stroke:#181818;stroke-width:1.0;"/><line style="stroke:#181818;stroke-width:1.0;" x1="91" x2="472" y1="985.4004" y2="985.4004"/><text fill="#000000" font-family="sans-serif" font-size="13" font-weight="bold" lengthAdjust="spacing" textLength="14" x="98" y="980.1377">26</text><text fill="#000000" font-family="sans-serif" font-size="13" lengthAdjust="spacing" textLength="78" x="116" y="980.1377">selects brand</text><polygon fill="#181818" points="831,1012.6914,841,1016.6914,831,1020.6914,835,1016.6914" style="stroke:#181818;stroke-width:1.0;"/><line style="stroke:#181818;stroke-width:1.0;" x1="488" x2="837" y1="1016.6914" y2="1016.6914"/><text fill="#000000" font-family="sans-serif" font-size="13" font-weight="bold" lengthAdjust="spacing" textLength="14" x="495" y="1011.4287">27</text><text fill="#000000" font-family="sans-serif" font-size="13" lengthAdjust="spacing" textLength="164" x="513" y="1011.4287">getVehicleModelsList(brand)</text><polygon fill="#181818" points="953,1043.9824,963,1047.9824,953,1051.9824,957,1047.9824" style="stroke:#181818;stroke-width:1.0;"/><line style="stroke:#181818;stroke-width:1.0;" x1="853" x2="959" y1="1047.9824" y2="1047.9824"/><text fill="#000000" font-family="sans-serif" font-size="13" font-weight="bold" lengthAdjust="spacing" textLength="14" x="860" y="1042.7197">28</text><text fill="#000000" font-family="sans-serif" font-size="13" lengthAdjust="spacing" textLength="75" x="878" y="1042.7197">getInstance()</text><polygon fill="#181818" points="864,1075.2734,854,1079.2734,864,1083.2734,860,1079.2734" style="stroke:#181818;stroke-width:1.0;"/><line style="stroke:#181818;stroke-width:1.0;stroke-dasharray:2.0,2.0;" x1="858" x2="969" y1="1079.2734" y2="1079.2734"/><text fill="#000000" font-family="sans-serif" font-size="13" font-weight="bold" lengthAdjust="spacing" textLength="14" x="870" y="1074.0107">29</text><text fill="#000000" font-family="sans-serif" font-size="13" lengthAdjust="spacing" textLength="67" x="888" y="1074.0107">repositories</text><polygon fill="#181818" points="1058,1106.5645,1068,1110.5645,1058,1114.5645,1062,1110.5645" style="stroke:#181818;stroke-width:1.0;"/><line style="stroke:#181818;stroke-width:1.0;" x1="853" x2="1064" y1="1110.5645" y2="1110.5645"/><text fill="#000000" font-family="sans-serif" font-size="13" font-weight="bold" lengthAdjust="spacing" textLength="14" x="860" y="1105.3018">30</text><text fill="#000000" font-family="sans-serif" font-size="13" lengthAdjust="spacing" textLength="125" x="878" y="1105.3018">getVehicleAttributes()</text><polygon fill="#181818" points="864,1137.8555,854,1141.8555,864,1145.8555,860,1141.8555" style="stroke:#181818;stroke-width:1.0;"/><line style="stroke:#181818;stroke-width:1.0;" x1="858" x2="1074" y1="1141.8555" y2="1141.8555"/><text fill="#000000" font-family="sans-serif" font-size="13" font-weight="bold" lengthAdjust="spacing" textLength="14" x="870" y="1136.5928">31</text><text fill="#000000" font-family="sans-serif" font-size="13" lengthAdjust="spacing" textLength="95" x="888" y="1136.5928">vehicleAttributes</text><polygon fill="#181818" points="1392.5,1169.1465,1402.5,1173.1465,1392.5,1177.1465,1396.5,1173.1465" style="stroke:#181818;stroke-width:1.0;"/><line style="stroke:#181818;stroke-width:1.0;" x1="853" x2="1398.5" y1="1173.1465" y2="1173.1465"/><text fill="#000000" font-family="sans-serif" font-size="13" font-weight="bold" lengthAdjust="spacing" textLength="14" x="860" y="1167.8838">32</text><text fill="#000000" font-family="sans-serif" font-size="13" lengthAdjust="spacing" textLength="164" x="878" y="1167.8838">getVehicleModelsList(brand)</text><polygon fill="#181818" points="864,1200.4375,854,1204.4375,864,1208.4375,860,1204.4375" style="stroke:#181818;stroke-width:1.0;"/><line style="stroke:#181818;stroke-width:1.0;stroke-dasharray:2.0,2.0;" x1="858" x2="1408.5" y1="1204.4375" y2="1204.4375"/><text fill="#000000" font-family="sans-serif" font-size="13" font-weight="bold" lengthAdjust="spacing" textLength="14" x="870" y="1199.1748">33</text><text fill="#000000" font-family="sans-serif" font-size="13" lengthAdjust="spacing" textLength="63" x="888" y="1199.1748">modelsList</text><polygon fill="#181818" points="499,1231.7285,489,1235.7285,499,1239.7285,495,1235.7285" style="stroke:#181818;stroke-width:1.0;"/><line style="stroke:#181818;stroke-width:1.0;stroke-dasharray:2.0,2.0;" x1="493" x2="847" y1="1235.7285" y2="1235.7285"/><text fill="#000000" font-family="sans-serif" font-size="13" font-weight="bold" lengthAdjust="spacing" textLength="14" x="505" y="1230.4658">34</text><text fill="#000000" font-family="sans-serif" font-size="13" lengthAdjust="spacing" textLength="63" x="523" y="1230.4658">modelsList</text><polygon fill="#181818" points="102,1263.0195,92,1267.0195,102,1271.0195,98,1267.0195" style="stroke:#181818;stroke-width:1.0;"/><line style="stroke:#181818;stroke-width:1.0;stroke-dasharray:2.0,2.0;" x1="96" x2="482" y1="1267.0195" y2="1267.0195"/><text fill="#000000" font-family="sans-serif" font-size="13" font-weight="bold" lengthAdjust="spacing" textLength="14" x="108" y="1261.7568">35</text><text fill="#000000" font-family="sans-serif" font-size="13" lengthAdjust="spacing" textLength="121" x="126" y="1261.7568">asks to select model</text><polygon fill="#181818" points="466,1294.3105,476,1298.3105,466,1302.3105,470,1298.3105" style="stroke:#181818;stroke-width:1.0;"/><line style="stroke:#181818;stroke-width:1.0;" x1="91" x2="472" y1="1298.3105" y2="1298.3105"/><text fill="#000000" font-family="sans-serif" font-size="13" font-weight="bold" lengthAdjust="spacing" textLength="14" x="98" y="1293.0479">36</text><text fill="#000000" font-family="sans-serif" font-size="13" lengthAdjust="spacing" textLength="81" x="116" y="1293.0479">selects model</text><polygon fill="#181818" points="831,1325.6016,841,1329.6016,831,1333.6016,835,1329.6016" style="stroke:#181818;stroke-width:1.0;"/><line style="stroke:#181818;stroke-width:1.0;" x1="488" x2="837" y1="1329.6016" y2="1329.6016"/><text fill="#000000" font-family="sans-serif" font-size="13" font-weight="bold" lengthAdjust="spacing" textLength="14" x="495" y="1324.3389">37</text><text fill="#000000" font-family="sans-serif" font-size="13" lengthAdjust="spacing" textLength="160" x="513" y="1324.3389">getVehicleTypesList(model)</text><polygon fill="#181818" points="953,1356.8926,963,1360.8926,953,1364.8926,957,1360.8926" style="stroke:#181818;stroke-width:1.0;"/><line style="stroke:#181818;stroke-width:1.0;" x1="853" x2="959" y1="1360.8926" y2="1360.8926"/><text fill="#000000" font-family="sans-serif" font-size="13" font-weight="bold" lengthAdjust="spacing" textLength="14" x="860" y="1355.6299">38</text><text fill="#000000" font-family="sans-serif" font-size="13" lengthAdjust="spacing" textLength="75" x="878" y="1355.6299">getInstance()</text><polygon fill="#181818" points="864,1388.1836,854,1392.1836,864,1396.1836,860,1392.1836" style="stroke:#181818;stroke-width:1.0;"/><line style="stroke:#181818;stroke-width:1.0;stroke-dasharray:2.0,2.0;" x1="858" x2="969" y1="1392.1836" y2="1392.1836"/><text fill="#000000" font-family="sans-serif" font-size="13" font-weight="bold" lengthAdjust="spacing" textLength="14" x="870" y="1386.9209">39</text><text fill="#000000" font-family="sans-serif" font-size="13" lengthAdjust="spacing" textLength="67" x="888" y="1386.9209">repositories</text><polygon fill="#181818" points="1058,1419.4746,1068,1423.4746,1058,1427.4746,1062,1423.4746" style="stroke:#181818;stroke-width:1.0;"/><line style="stroke:#181818;stroke-width:1.0;" x1="853" x2="1064" y1="1423.4746" y2="1423.4746"/><text fill="#000000" font-family="sans-serif" font-size="13" font-weight="bold" lengthAdjust="spacing" textLength="14" x="860" y="1418.2119">40</text><text fill="#000000" font-family="sans-serif" font-size="13" lengthAdjust="spacing" textLength="125" x="878" y="1418.2119">getVehicleAttributes()</text><polygon fill="#181818" points="864,1450.7656,854,1454.7656,864,1458.7656,860,1454.7656" style="stroke:#181818;stroke-width:1.0;"/><line style="stroke:#181818;stroke-width:1.0;" x1="858" x2="1074" y1="1454.7656" y2="1454.7656"/><text fill="#000000" font-family="sans-serif" font-size="13" font-weight="bold" lengthAdjust="spacing" textLength="14" x="870" y="1449.5029">41</text><text fill="#000000" font-family="sans-serif" font-size="13" lengthAdjust="spacing" textLength="95" x="888" y="1449.5029">vehicleAttributes</text><polygon fill="#181818" points="1392.5,1482.0566,1402.5,1486.0566,1392.5,1490.0566,1396.5,1486.0566" style="stroke:#181818;stroke-width:1.0;"/><line style="stroke:#181818;stroke-width:1.0;" x1="853" x2="1398.5" y1="1486.0566" y2="1486.0566"/><text fill="#000000" font-family="sans-serif" font-size="13" font-weight="bold" lengthAdjust="spacing" textLength="14" x="860" y="1480.7939">42</text><text fill="#000000" font-family="sans-serif" font-size="13" lengthAdjust="spacing" textLength="160" x="878" y="1480.7939">getVehicleTypesList(model)</text><polygon fill="#181818" points="864,1513.3477,854,1517.3477,864,1521.3477,860,1517.3477" style="stroke:#181818;stroke-width:1.0;"/><line style="stroke:#181818;stroke-width:1.0;stroke-dasharray:2.0,2.0;" x1="858" x2="1408.5" y1="1517.3477" y2="1517.3477"/><text fill="#000000" font-family="sans-serif" font-size="13" font-weight="bold" lengthAdjust="spacing" textLength="14" x="870" y="1512.085">43</text><text fill="#000000" font-family="sans-serif" font-size="13" lengthAdjust="spacing" textLength="53" x="888" y="1512.085">typesList</text><polygon fill="#181818" points="499,1544.6387,489,1548.6387,499,1552.6387,495,1548.6387" style="stroke:#181818;stroke-width:1.0;"/><line style="stroke:#181818;stroke-width:1.0;stroke-dasharray:2.0,2.0;" x1="493" x2="847" y1="1548.6387" y2="1548.6387"/><text fill="#000000" font-family="sans-serif" font-size="13" font-weight="bold" lengthAdjust="spacing" textLength="14" x="505" y="1543.376">44</text><text fill="#000000" font-family="sans-serif" font-size="13" lengthAdjust="spacing" textLength="53" x="523" y="1543.376">typesList</text><polygon fill="#181818" points="102,1575.9297,92,1579.9297,102,1583.9297,98,1579.9297" style="stroke:#181818;stroke-width:1.0;"/><line style="stroke:#181818;stroke-width:1.0;stroke-dasharray:2.0,2.0;" x1="96" x2="482" y1="1579.9297" y2="1579.9297"/><text fill="#000000" font-family="sans-serif" font-size="13" font-weight="bold" lengthAdjust="spacing" textLength="14" x="108" y="1574.667">45</text><text fill="#000000" font-family="sans-serif" font-size="13" lengthAdjust="spacing" textLength="111" x="126" y="1574.667">asks to select type</text><polygon fill="#181818" points="466,1607.2207,476,1611.2207,466,1615.2207,470,1611.2207" style="stroke:#181818;stroke-width:1.0;"/><line style="stroke:#181818;stroke-width:1.0;" x1="91" x2="472" y1="1611.2207" y2="1611.2207"/><text fill="#000000" font-family="sans-serif" font-size="13" font-weight="bold" lengthAdjust="spacing" textLength="14" x="98" y="1605.958">46</text><text fill="#000000" font-family="sans-serif" font-size="13" lengthAdjust="spacing" textLength="71" x="116" y="1605.958">selects type</text><polygon fill="#181818" points="102,1638.5117,92,1642.5117,102,1646.5117,98,1642.5117" style="stroke:#181818;stroke-width:1.0;"/><line style="stroke:#181818;stroke-width:1.0;stroke-dasharray:2.0,2.0;" x1="96" x2="482" y1="1642.5117" y2="1642.5117"/><text fill="#000000" font-family="sans-serif" font-size="13" font-weight="bold" lengthAdjust="spacing" textLength="14" x="108" y="1637.249">47</text><text fill="#000000" font-family="sans-serif" font-size="13" lengthAdjust="spacing" textLength="236" x="126" y="1637.249">shows all data and requests confirmation</text><polygon fill="#181818" points="466,1669.8027,476,1673.8027,466,1677.8027,470,1673.8027" style="stroke:#181818;stroke-width:1.0;"/><line style="stroke:#181818;stroke-width:1.0;" x1="91" x2="472" y1="1673.8027" y2="1673.8027"/><text fill="#000000" font-family="sans-serif" font-size="13" font-weight="bold" lengthAdjust="spacing" textLength="14" x="98" y="1668.54">48</text><text fill="#000000" font-family="sans-serif" font-size="13" lengthAdjust="spacing" textLength="78" x="116" y="1668.54">confirms data</text><polygon fill="#181818" points="831,1735.6758,841,1739.6758,831,1743.6758,835,1739.6758" style="stroke:#181818;stroke-width:1.0;"/><line style="stroke:#181818;stroke-width:1.0;stroke-dasharray:2.0,2.0;" x1="488" x2="837" y1="1739.6758" y2="1739.6758"/><text fill="#000000" font-family="sans-serif" font-size="13" font-weight="bold" lengthAdjust="spacing" textLength="14" x="495" y="1717.1221">49</text><text fill="#000000" font-family="sans-serif" font-size="13" lengthAdjust="spacing" textLength="314" x="513" y="1699.8311">saveNewVehicle(tareWeight, grossWeight, currentKm,</text><text fill="#000000" font-family="sans-serif" font-size="13" lengthAdjust="spacing" textLength="314" x="513" y="1717.1221">registerDate, acquisitionDate, maintenanceFrequency,</text><text fill="#000000" font-family="sans-serif" font-size="13" lengthAdjust="spacing" textLength="148" x="513" y="1734.4131">plate, brand, model, type)</text><polygon fill="#181818" points="1288.5,1801.5488,1298.5,1805.5488,1288.5,1809.5488,1292.5,1805.5488" style="stroke:#181818;stroke-width:1.0;"/><line style="stroke:#181818;stroke-width:1.0;stroke-dasharray:2.0,2.0;" x1="853" x2="1294.5" y1="1805.5488" y2="1805.5488"/><text fill="#000000" font-family="sans-serif" font-size="13" font-weight="bold" lengthAdjust="spacing" textLength="14" x="860" y="1782.9951">50</text><text fill="#000000" font-family="sans-serif" font-size="13" lengthAdjust="spacing" textLength="324" x="878" y="1765.7041">createNewVehicle(tareWeight, grossWeight, currentKm,</text><text fill="#000000" font-family="sans-serif" font-size="13" lengthAdjust="spacing" textLength="314" x="878" y="1782.9951">registerDate, acquisitionDate, maintenanceFrequency,</text><text fill="#000000" font-family="sans-serif" font-size="13" lengthAdjust="spacing" textLength="148" x="878" y="1800.2861">plate, brand, model, type)</text><polygon fill="#181818" points="864,1832.8398,854,1836.8398,864,1840.8398,860,1836.8398" style="stroke:#181818;stroke-width:1.0;"/><line style="stroke:#181818;stroke-width:1.0;stroke-dasharray:2.0,2.0;" x1="858" x2="1304.5" y1="1836.8398" y2="1836.8398"/><text fill="#000000" font-family="sans-serif" font-size="13" font-weight="bold" lengthAdjust="spacing" textLength="14" x="870" y="1831.5771">51</text><text fill="#000000" font-family="sans-serif" font-size="13" lengthAdjust="spacing" textLength="39" x="888" y="1831.5771">vehicle</text><polygon fill="#181818" points="953,1864.1309,963,1868.1309,953,1872.1309,957,1868.1309" style="stroke:#181818;stroke-width:1.0;"/><line style="stroke:#181818;stroke-width:1.0;" x1="853" x2="959" y1="1868.1309" y2="1868.1309"/><text fill="#000000" font-family="sans-serif" font-size="13" font-weight="bold" lengthAdjust="spacing" textLength="14" x="860" y="1862.8682">52</text><text fill="#000000" font-family="sans-serif" font-size="13" lengthAdjust="spacing" textLength="75" x="878" y="1862.8682">getInstance()</text><polygon fill="#181818" points="864,1895.4219,854,1899.4219,864,1903.4219,860,1899.4219" style="stroke:#181818;stroke-width:1.0;"/><line style="stroke:#181818;stroke-width:1.0;stroke-dasharray:2.0,2.0;" x1="858" x2="969" y1="1899.4219" y2="1899.4219"/><text fill="#000000" font-family="sans-serif" font-size="13" font-weight="bold" lengthAdjust="spacing" textLength="14" x="870" y="1894.1592">53</text><text fill="#000000" font-family="sans-serif" font-size="13" lengthAdjust="spacing" textLength="67" x="888" y="1894.1592">repositories</text><polygon fill="#181818" points="1058,1926.7129,1068,1930.7129,1058,1934.7129,1062,1930.7129" style="stroke:#181818;stroke-width:1.0;"/><line style="stroke:#181818;stroke-width:1.0;" x1="853" x2="1064" y1="1930.7129" y2="1930.7129"/><text fill="#000000" font-family="sans-serif" font-size="13" font-weight="bold" lengthAdjust="spacing" textLength="14" x="860" y="1925.4502">54</text><text fill="#000000" font-family="sans-serif" font-size="13" lengthAdjust="spacing" textLength="131" x="878" y="1925.4502">getVehicleRepository()</text><polygon fill="#181818" points="864,1958.0039,854,1962.0039,864,1966.0039,860,1962.0039" style="stroke:#181818;stroke-width:1.0;"/><line style="stroke:#181818;stroke-width:1.0;" x1="858" x2="1074" y1="1962.0039" y2="1962.0039"/><text fill="#000000" font-family="sans-serif" font-size="13" font-weight="bold" lengthAdjust="spacing" textLength="14" x="870" y="1956.7412">55</text><text fill="#000000" font-family="sans-serif" font-size="13" lengthAdjust="spacing" textLength="101" x="888" y="1956.7412">vehicleRepository</text><polygon fill="#181818" points="1180.5,1989.2949,1190.5,1993.2949,1180.5,1997.2949,1184.5,1993.2949" style="stroke:#181818;stroke-width:1.0;"/><line style="stroke:#181818;stroke-width:1.0;stroke-dasharray:2.0,2.0;" x1="853" x2="1186.5" y1="1993.2949" y2="1993.2949"/><text fill="#000000" font-family="sans-serif" font-size="13" font-weight="bold" lengthAdjust="spacing" textLength="14" x="860" y="1988.0322">56</text><text fill="#000000" font-family="sans-serif" font-size="13" lengthAdjust="spacing" textLength="119" x="878" y="1988.0322">storeVehicle(vehicle)</text><polygon fill="#181818" points="864,2020.5859,854,2024.5859,864,2028.5859,860,2024.5859" style="stroke:#181818;stroke-width:1.0;"/><line style="stroke:#181818;stroke-width:1.0;stroke-dasharray:2.0,2.0;" x1="858" x2="1196.5" y1="2024.5859" y2="2024.5859"/><text fill="#000000" font-family="sans-serif" font-size="13" font-weight="bold" lengthAdjust="spacing" textLength="14" x="870" y="2019.3232">57</text><text fill="#000000" font-family="sans-serif" font-size="13" lengthAdjust="spacing" textLength="49" x="888" y="2019.3232">success</text><polygon fill="#181818" points="499,2051.877,489,2055.877,499,2059.877,495,2055.877" style="stroke:#181818;stroke-width:1.0;"/><line style="stroke:#181818;stroke-width:1.0;stroke-dasharray:2.0,2.0;" x1="493" x2="847" y1="2055.877" y2="2055.877"/><text fill="#000000" font-family="sans-serif" font-size="13" font-weight="bold" lengthAdjust="spacing" textLength="14" x="505" y="2050.6143">58</text><text fill="#000000" font-family="sans-serif" font-size="13" lengthAdjust="spacing" textLength="49" x="523" y="2050.6143">success</text><polygon fill="#181818" points="102,2083.168,92,2087.168,102,2091.168,98,2087.168" style="stroke:#181818;stroke-width:1.0;"/><line style="stroke:#181818;stroke-width:1.0;stroke-dasharray:2.0,2.0;" x1="96" x2="482" y1="2087.168" y2="2087.168"/><text fill="#000000" font-family="sans-serif" font-size="13" font-weight="bold" lengthAdjust="spacing" textLength="14" x="108" y="2081.9053">59</text><text fill="#000000" font-family="sans-serif" font-size="13" lengthAdjust="spacing" textLength="199" x="126" y="2081.9053">informs that vehicle was registered</text><!--SRC=[xLZBRjim4BphAzXSuW3E3mHeWJI1WQ1n4QHfSyc5eTOs4ObqI2gk_xuhwa5Ihqgk3prO9vla39VapaXB_SR5bYgQabGAoJPAfa2CoY3ITS-MiZUwXXzcdm1Hm0mLwyGVe3SqbZikrcH54mrHH3CZHPQ-WegYymsFWQoaDA_oTqIPaOgSBH80GvPK8AyYiyNouenGJHRB21aDPtnBXI5dLu-mvjg0-WKRpXBuUMU7_Rnh32kxRwGmIYO9A3livkdnliMtbPfZ21oq7LCtx7_mV5KOTmXH7kBgHRG87kwldqB4Hn6COtuHLO2kpMBTo4u6X_D7TmwzDaRnryo0TY3NviEliJ7AZu5_K0FvZaUaV1PBSla5DvTSuIc_Pw2D9aRYx-8C22K2TW5FXQpfy6JgHYIwH3valSBvtpJcWAhGP9lWS3Ss1f-Y8o2ptu9keBjczoSleHyquJ5sD-7dn7lAOAzlb_xg4KR9JC4A50W6SunJCyMtXain9uGBN59A4_8YmXu3R2CumvwWESuKBNungSr5r0pWYqrP360DfZp4h_k7FDYP3Jb4rCksUUxtM1PawqZkWlnEQ1GnWrd8EFJKitKfPZHB_dH5TLckFTzx9x3Hj5xw_5DurSRbeWwEmR4UicNM8oRjaGt0vKFBKWxP6Hj5rseT- -JKynmi6E1HNhQM4VK4w96rmwpLFCmHQ84cfjRyfyz4P4dIwKw5Zj7iDjG1QAA0ndi2lz7zN2e2lk3gCPy7I5kMbyz2PeOg83lWwusPaxMIMjV_MARGPWpvbixHKMhRpRrhZbl-dd4yVBIFiYMbN1WGkOx9obgMOFkBGoqrZ-vmHmtGVLQcg8ZrFIxAqr3tmHtRm8xZ3aSshcEOLgzXkPV_r2sQPbRTHkLcZ_x5f1e6bNzoJCYeu8EdOKoModEcrvefwZUcu9CdTALXV93RBO_0JomD2NvM5opZ1LoWT0FMhzsM8fSoHZkp-sSvJh8yoV88iXoHLbsAwf5cMhCT9irX_5XfMfRfqWnX4wJvbB-SxHPQYfCoJyeyWZB_dbKJX6agiiDqEGWVAykSPBeg0rIVAAiPzKRkD5O3IN4RW7xcxWUO52kkKblKZm-ZH1NN2sFYA3TSqm_u3hloB6qbyUmN4izX7H6M4RVDAkAsMKGigXeYXzcYRrvyMimB6vlRVHldH2u7y_LY8MN-oyYRnMGLyq3DsixnamaVpOGdNxCSrOGdNgyCct3pNaKZBrG2A7lwCzA_0-c-Iz4POw1rDEuU9RJU0MolyNRUaUoehg-7eQzo0H7_0G00]--></g></svg>