<?xml version="1.0" encoding="us-ascii" standalone="no"?><svg xmlns="http://www.w3.org/2000/svg" xmlns:xlink="http://www.w3.org/1999/xlink" contentStyleType="text/css" height="1037px" preserveAspectRatio="none" style="width:1309px;height:1037px;background:#FFFFFF;" version="1.1" viewBox="0 0 1309 1037" width="1309px" zoomAndPan="magnify"><defs/><g><!--class Skill--><g id="elem_Skill"><rect codeLine="11" fill="#F1F1F1" height="122.4844" id="Skill" rx="2.5" ry="2.5" style="stroke:#181818;stroke-width:0.5;" width="280" x="70.5" y="805.5"/><ellipse cx="193.75" cy="821.5" fill="#ADD1B2" rx="11" ry="11" style="stroke:#181818;stroke-width:1.0;"/><path d="M196.5156,817.375 Q196.6719,817.1563 196.8594,817.0469 Q197.0469,816.9375 197.2656,816.9375 Q197.6406,816.9375 197.875,817.2031 Q198.1094,817.4531 198.1094,818.0625 L198.1094,819.5156 Q198.1094,820.125 197.875,820.3906 Q197.6406,820.6563 197.2656,820.6563 Q196.9219,820.6563 196.7188,820.4531 Q196.5156,820.2656 196.4063,819.75 Q196.3594,819.3906 196.1719,819.2031 Q195.8438,818.8281 195.2344,818.6094 Q194.625,818.3906 194,818.3906 Q193.2344,818.3906 192.5938,818.7188 Q191.9688,819.0469 191.4688,819.7969 Q190.9844,820.5469 190.9844,821.5781 L190.9844,822.6719 Q190.9844,823.9063 191.875,824.7344 Q192.7656,825.5469 194.3594,825.5469 Q195.2969,825.5469 195.9531,825.2969 Q196.3438,825.1406 196.7656,824.7031 Q197.0313,824.4375 197.1719,824.3594 Q197.3281,824.2813 197.5313,824.2813 Q197.8594,824.2813 198.1094,824.5469 Q198.375,824.7969 198.375,825.1406 Q198.375,825.4844 198.0313,825.8906 Q197.5313,826.4688 196.7344,826.7969 Q195.6563,827.25 194.3594,827.25 Q192.8438,827.25 191.6406,826.625 Q190.6563,826.125 189.9688,825.0625 Q189.2813,823.9844 189.2813,822.7031 L189.2813,821.5469 Q189.2813,820.2188 189.8906,819.0781 Q190.5156,817.9219 191.6094,817.3125 Q192.7031,816.6875 193.9375,816.6875 Q194.6719,816.6875 195.3125,816.8594 Q195.9688,817.0156 196.5156,817.375 Z " fill="#000000"/><text fill="#000000" font-family="sans-serif" font-size="14" lengthAdjust="spacing" textLength="25" x="214.25" y="827.2969">Skill</text><line style="stroke:#181818;stroke-width:0.5;" x1="71.5" x2="349.5" y1="837.5" y2="837.5"/><text fill="#000000" font-family="sans-serif" font-size="14" lengthAdjust="spacing" textLength="81" x="76.5" y="856.6074">-String name</text><text fill="#000000" font-family="sans-serif" font-size="14" lengthAdjust="spacing" textLength="149" x="76.5" y="875.2285">-String shortDescription</text><text fill="#000000" font-family="sans-serif" font-size="14" lengthAdjust="spacing" textLength="117" x="76.5" y="893.8496">-String Description</text><line style="stroke:#181818;stroke-width:0.5;" x1="71.5" x2="349.5" y1="901.3633" y2="901.3633"/><text fill="#000000" font-family="sans-serif" font-size="14" lengthAdjust="spacing" textLength="268" x="76.5" y="920.4707">+Skill(name, shortDescription, Description)</text></g><!--class SkillController--><g id="elem_SkillController"><rect codeLine="19" fill="#F1F1F1" height="122.4844" id="SkillController" rx="2.5" ry="2.5" style="stroke:#181818;stroke-width:0.5;" width="355" x="7" y="135"/><ellipse cx="136.75" cy="151" fill="#ADD1B2" rx="11" ry="11" style="stroke:#181818;stroke-width:1.0;"/><path d="M139.5156,146.875 Q139.6719,146.6563 139.8594,146.5469 Q140.0469,146.4375 140.2656,146.4375 Q140.6406,146.4375 140.875,146.7031 Q141.1094,146.9531 141.1094,147.5625 L141.1094,149.0156 Q141.1094,149.625 140.875,149.8906 Q140.6406,150.1563 140.2656,150.1563 Q139.9219,150.1563 139.7188,149.9531 Q139.5156,149.7656 139.4063,149.25 Q139.3594,148.8906 139.1719,148.7031 Q138.8438,148.3281 138.2344,148.1094 Q137.625,147.8906 137,147.8906 Q136.2344,147.8906 135.5938,148.2188 Q134.9688,148.5469 134.4688,149.2969 Q133.9844,150.0469 133.9844,151.0781 L133.9844,152.1719 Q133.9844,153.4063 134.875,154.2344 Q135.7656,155.0469 137.3594,155.0469 Q138.2969,155.0469 138.9531,154.7969 Q139.3438,154.6406 139.7656,154.2031 Q140.0313,153.9375 140.1719,153.8594 Q140.3281,153.7813 140.5313,153.7813 Q140.8594,153.7813 141.1094,154.0469 Q141.375,154.2969 141.375,154.6406 Q141.375,154.9844 141.0313,155.3906 Q140.5313,155.9688 139.7344,156.2969 Q138.6563,156.75 137.3594,156.75 Q135.8438,156.75 134.6406,156.125 Q133.6563,155.625 132.9688,154.5625 Q132.2813,153.4844 132.2813,152.2031 L132.2813,151.0469 Q132.2813,149.7188 132.8906,148.5781 Q133.5156,147.4219 134.6094,146.8125 Q135.7031,146.1875 136.9375,146.1875 Q137.6719,146.1875 138.3125,146.3594 Q138.9688,146.5156 139.5156,146.875 Z " fill="#000000"/><text fill="#000000" font-family="sans-serif" font-size="14" lengthAdjust="spacing" textLength="87" x="157.25" y="156.7969">SkillController</text><line style="stroke:#181818;stroke-width:0.5;" x1="8" x2="361" y1="167" y2="167"/><line style="stroke:#181818;stroke-width:0.5;" x1="8" x2="361" y1="175" y2="175"/><text fill="#000000" font-family="sans-serif" font-size="14" lengthAdjust="spacing" textLength="85" x="13" y="194.1074">+getSkillList()</text><text fill="#000000" font-family="sans-serif" font-size="14" lengthAdjust="spacing" textLength="114" x="13" y="212.7285">+registerSkill(skill)</text><text fill="#000000" font-family="sans-serif" font-size="14" lengthAdjust="spacing" textLength="343" x="13" y="231.3496">+updateSkill(skill, name, shortDescription, Description)</text><text fill="#000000" font-family="sans-serif" font-size="14" lengthAdjust="spacing" textLength="113" x="13" y="249.9707">+removeSkill(skill)</text></g><!--class Collaborator--><g id="elem_Collaborator"><rect codeLine="26" fill="#F1F1F1" height="327.3164" id="Collaborator" rx="2.5" ry="2.5" style="stroke:#181818;stroke-width:0.5;" width="778" x="435.5" y="703"/><ellipse cx="781.25" cy="719" fill="#ADD1B2" rx="11" ry="11" style="stroke:#181818;stroke-width:1.0;"/><path d="M784.0156,714.875 Q784.1719,714.6563 784.3594,714.5469 Q784.5469,714.4375 784.7656,714.4375 Q785.1406,714.4375 785.375,714.7031 Q785.6094,714.9531 785.6094,715.5625 L785.6094,717.0156 Q785.6094,717.625 785.375,717.8906 Q785.1406,718.1563 784.7656,718.1563 Q784.4219,718.1563 784.2188,717.9531 Q784.0156,717.7656 783.9063,717.25 Q783.8594,716.8906 783.6719,716.7031 Q783.3438,716.3281 782.7344,716.1094 Q782.125,715.8906 781.5,715.8906 Q780.7344,715.8906 780.0938,716.2188 Q779.4688,716.5469 778.9688,717.2969 Q778.4844,718.0469 778.4844,719.0781 L778.4844,720.1719 Q778.4844,721.4063 779.375,722.2344 Q780.2656,723.0469 781.8594,723.0469 Q782.7969,723.0469 783.4531,722.7969 Q783.8438,722.6406 784.2656,722.2031 Q784.5313,721.9375 784.6719,721.8594 Q784.8281,721.7813 785.0313,721.7813 Q785.3594,721.7813 785.6094,722.0469 Q785.875,722.2969 785.875,722.6406 Q785.875,722.9844 785.5313,723.3906 Q785.0313,723.9688 784.2344,724.2969 Q783.1563,724.75 781.8594,724.75 Q780.3438,724.75 779.1406,724.125 Q778.1563,723.625 777.4688,722.5625 Q776.7813,721.4844 776.7813,720.2031 L776.7813,719.0469 Q776.7813,717.7188 777.3906,716.5781 Q778.0156,715.4219 779.1094,714.8125 Q780.2031,714.1875 781.4375,714.1875 Q782.1719,714.1875 782.8125,714.3594 Q783.4688,714.5156 784.0156,714.875 Z " fill="#000000"/><text fill="#000000" font-family="sans-serif" font-size="14" lengthAdjust="spacing" textLength="78" x="801.75" y="724.7969">Collaborator</text><line style="stroke:#181818;stroke-width:0.5;" x1="436.5" x2="1212.5" y1="735" y2="735"/><text fill="#000000" font-family="sans-serif" font-size="14" lengthAdjust="spacing" textLength="79" x="441.5" y="754.1074">-String email</text><text fill="#000000" font-family="sans-serif" font-size="14" lengthAdjust="spacing" textLength="81" x="441.5" y="772.7285">-String name</text><text fill="#000000" font-family="sans-serif" font-size="14" lengthAdjust="spacing" textLength="97" x="441.5" y="791.3496">-String address</text><text fill="#000000" font-family="sans-serif" font-size="14" lengthAdjust="spacing" textLength="86" x="441.5" y="809.9707">-String phone</text><text fill="#000000" font-family="sans-serif" font-size="14" lengthAdjust="spacing" textLength="50" x="441.5" y="828.5918">-Job job</text><text fill="#000000" font-family="sans-serif" font-size="14" lengthAdjust="spacing" textLength="102" x="441.5" y="847.2129">-List&lt;Skill&gt; skills</text><text fill="#000000" font-family="sans-serif" font-size="14" lengthAdjust="spacing" textLength="97" x="441.5" y="865.834">-Date birthDate</text><text fill="#000000" font-family="sans-serif" font-size="14" lengthAdjust="spacing" textLength="132" x="441.5" y="884.4551">-Date admissionDate</text><text fill="#000000" font-family="sans-serif" font-size="14" lengthAdjust="spacing" textLength="86" x="441.5" y="903.0762">-String IDtype</text><text fill="#000000" font-family="sans-serif" font-size="14" lengthAdjust="spacing" textLength="127" x="441.5" y="921.6973">-int taxpayerNumber</text><text fill="#000000" font-family="sans-serif" font-size="14" lengthAdjust="spacing" textLength="112" x="441.5" y="940.3184">-int citizenNumber</text><text fill="#000000" font-family="sans-serif" font-size="14" lengthAdjust="spacing" textLength="100" x="441.5" y="958.9395">-boolean isFree</text><line style="stroke:#181818;stroke-width:0.5;" x1="436.5" x2="1212.5" y1="966.4531" y2="966.4531"/><text fill="#000000" font-family="sans-serif" font-size="14" lengthAdjust="spacing" textLength="766" x="441.5" y="985.5605">+Collaborator(email, name, address, phone, job, birthDate, admissionDate, IDtype, taxpayerNumber, citizenNumber, skills)</text><text fill="#000000" font-family="sans-serif" font-size="14" lengthAdjust="spacing" textLength="90" x="441.5" y="1004.1816">+addSkill(skill)</text><text fill="#000000" font-family="sans-serif" font-size="14" lengthAdjust="spacing" textLength="113" x="441.5" y="1022.8027">+removeSkill(skill)</text></g><!--class CollaboratorController--><g id="elem_CollaboratorController"><rect codeLine="45" fill="#F1F1F1" height="159.7266" id="CollaboratorController" rx="2.5" ry="2.5" style="stroke:#181818;stroke-width:0.5;" width="905" x="397" y="116"/><ellipse cx="775.25" cy="132" fill="#ADD1B2" rx="11" ry="11" style="stroke:#181818;stroke-width:1.0;"/><path d="M778.0156,127.875 Q778.1719,127.6563 778.3594,127.5469 Q778.5469,127.4375 778.7656,127.4375 Q779.1406,127.4375 779.375,127.7031 Q779.6094,127.9531 779.6094,128.5625 L779.6094,130.0156 Q779.6094,130.625 779.375,130.8906 Q779.1406,131.1563 778.7656,131.1563 Q778.4219,131.1563 778.2188,130.9531 Q778.0156,130.7656 777.9063,130.25 Q777.8594,129.8906 777.6719,129.7031 Q777.3438,129.3281 776.7344,129.1094 Q776.125,128.8906 775.5,128.8906 Q774.7344,128.8906 774.0938,129.2188 Q773.4688,129.5469 772.9688,130.2969 Q772.4844,131.0469 772.4844,132.0781 L772.4844,133.1719 Q772.4844,134.4063 773.375,135.2344 Q774.2656,136.0469 775.8594,136.0469 Q776.7969,136.0469 777.4531,135.7969 Q777.8438,135.6406 778.2656,135.2031 Q778.5313,134.9375 778.6719,134.8594 Q778.8281,134.7813 779.0313,134.7813 Q779.3594,134.7813 779.6094,135.0469 Q779.875,135.2969 779.875,135.6406 Q779.875,135.9844 779.5313,136.3906 Q779.0313,136.9688 778.2344,137.2969 Q777.1563,137.75 775.8594,137.75 Q774.3438,137.75 773.1406,137.125 Q772.1563,136.625 771.4688,135.5625 Q770.7813,134.4844 770.7813,133.2031 L770.7813,132.0469 Q770.7813,130.7188 771.3906,129.5781 Q772.0156,128.4219 773.1094,127.8125 Q774.2031,127.1875 775.4375,127.1875 Q776.1719,127.1875 776.8125,127.3594 Q777.4688,127.5156 778.0156,127.875 Z " fill="#000000"/><text fill="#000000" font-family="sans-serif" font-size="14" lengthAdjust="spacing" textLength="140" x="795.75" y="137.7969">CollaboratorController</text><line style="stroke:#181818;stroke-width:0.5;" x1="398" x2="1301" y1="148" y2="148"/><line style="stroke:#181818;stroke-width:0.5;" x1="398" x2="1301" y1="156" y2="156"/><text fill="#000000" font-family="sans-serif" font-size="14" lengthAdjust="spacing" textLength="289" x="403" y="175.1074">+checkForDuplicateCollaborator(collaborator)</text><text fill="#000000" font-family="sans-serif" font-size="14" lengthAdjust="spacing" textLength="814" x="403" y="193.7285">+registerCollaborator(name, email, address, phone, job, skills, birthDate, admissionDate, IDtype, taxpayerNumber, citizenNumber)</text><text fill="#000000" font-family="sans-serif" font-size="14" lengthAdjust="spacing" textLength="893" x="403" y="212.3496">+updateCollaborator(collaborator, name, email, address, phone, job, skills, birthDate, admissionDate, IDtype, taxpayerNumber, citizenNumber)</text><text fill="#000000" font-family="sans-serif" font-size="14" lengthAdjust="spacing" textLength="218" x="403" y="230.9707">+removeCollaborator(collaborator)</text><text fill="#000000" font-family="sans-serif" font-size="14" lengthAdjust="spacing" textLength="277" x="403" y="249.5918">+addSkillToACollaborator(skill, collaborator)</text><text fill="#000000" font-family="sans-serif" font-size="14" lengthAdjust="spacing" textLength="316" x="403" y="268.2129">+removeSkillFromACollaborator(skill, collaborator)</text></g><!--class AddSkillToCollaboratorUI--><g id="elem_AddSkillToCollaboratorUI"><rect codeLine="54" fill="#F1F1F1" height="48" id="AddSkillToCollaboratorUI" rx="2.5" ry="2.5" style="stroke:#181818;stroke-width:0.5;" width="189" x="422" y="7"/><ellipse cx="437" cy="23" fill="#ADD1B2" rx="11" ry="11" style="stroke:#181818;stroke-width:1.0;"/><path d="M439.7656,18.875 Q439.9219,18.6563 440.1094,18.5469 Q440.2969,18.4375 440.5156,18.4375 Q440.8906,18.4375 441.125,18.7031 Q441.3594,18.9531 441.3594,19.5625 L441.3594,21.0156 Q441.3594,21.625 441.125,21.8906 Q440.8906,22.1563 440.5156,22.1563 Q440.1719,22.1563 439.9688,21.9531 Q439.7656,21.7656 439.6563,21.25 Q439.6094,20.8906 439.4219,20.7031 Q439.0938,20.3281 438.4844,20.1094 Q437.875,19.8906 437.25,19.8906 Q436.4844,19.8906 435.8438,20.2188 Q435.2188,20.5469 434.7188,21.2969 Q434.2344,22.0469 434.2344,23.0781 L434.2344,24.1719 Q434.2344,25.4063 435.125,26.2344 Q436.0156,27.0469 437.6094,27.0469 Q438.5469,27.0469 439.2031,26.7969 Q439.5938,26.6406 440.0156,26.2031 Q440.2813,25.9375 440.4219,25.8594 Q440.5781,25.7813 440.7813,25.7813 Q441.1094,25.7813 441.3594,26.0469 Q441.625,26.2969 441.625,26.6406 Q441.625,26.9844 441.2813,27.3906 Q440.7813,27.9688 439.9844,28.2969 Q438.9063,28.75 437.6094,28.75 Q436.0938,28.75 434.8906,28.125 Q433.9063,27.625 433.2188,26.5625 Q432.5313,25.4844 432.5313,24.2031 L432.5313,23.0469 Q432.5313,21.7188 433.1406,20.5781 Q433.7656,19.4219 434.8594,18.8125 Q435.9531,18.1875 437.1875,18.1875 Q437.9219,18.1875 438.5625,18.3594 Q439.2188,18.5156 439.7656,18.875 Z " fill="#000000"/><text fill="#000000" font-family="sans-serif" font-size="14" lengthAdjust="spacing" textLength="157" x="451" y="28.7969">AddSkillToCollaboratorUI</text><line style="stroke:#181818;stroke-width:0.5;" x1="423" x2="610" y1="39" y2="39"/><line style="stroke:#181818;stroke-width:0.5;" x1="423" x2="610" y1="47" y2="47"/></g><!--class SkillRepository--><g id="elem_SkillRepository"><rect codeLine="57" fill="#F1F1F1" height="122.4844" id="SkillRepository" rx="2.5" ry="2.5" style="stroke:#181818;stroke-width:0.5;" width="330" x="45.5" y="502"/><ellipse cx="159.75" cy="518" fill="#ADD1B2" rx="11" ry="11" style="stroke:#181818;stroke-width:1.0;"/><path d="M162.5156,513.875 Q162.6719,513.6563 162.8594,513.5469 Q163.0469,513.4375 163.2656,513.4375 Q163.6406,513.4375 163.875,513.7031 Q164.1094,513.9531 164.1094,514.5625 L164.1094,516.0156 Q164.1094,516.625 163.875,516.8906 Q163.6406,517.1563 163.2656,517.1563 Q162.9219,517.1563 162.7188,516.9531 Q162.5156,516.7656 162.4063,516.25 Q162.3594,515.8906 162.1719,515.7031 Q161.8438,515.3281 161.2344,515.1094 Q160.625,514.8906 160,514.8906 Q159.2344,514.8906 158.5938,515.2188 Q157.9688,515.5469 157.4688,516.2969 Q156.9844,517.0469 156.9844,518.0781 L156.9844,519.1719 Q156.9844,520.4063 157.875,521.2344 Q158.7656,522.0469 160.3594,522.0469 Q161.2969,522.0469 161.9531,521.7969 Q162.3438,521.6406 162.7656,521.2031 Q163.0313,520.9375 163.1719,520.8594 Q163.3281,520.7813 163.5313,520.7813 Q163.8594,520.7813 164.1094,521.0469 Q164.375,521.2969 164.375,521.6406 Q164.375,521.9844 164.0313,522.3906 Q163.5313,522.9688 162.7344,523.2969 Q161.6563,523.75 160.3594,523.75 Q158.8438,523.75 157.6406,523.125 Q156.6563,522.625 155.9688,521.5625 Q155.2813,520.4844 155.2813,519.2031 L155.2813,518.0469 Q155.2813,516.7188 155.8906,515.5781 Q156.5156,514.4219 157.6094,513.8125 Q158.7031,513.1875 159.9375,513.1875 Q160.6719,513.1875 161.3125,513.3594 Q161.9688,513.5156 162.5156,513.875 Z " fill="#000000"/><text fill="#000000" font-family="sans-serif" font-size="14" lengthAdjust="spacing" textLength="93" x="180.25" y="523.7969">SkillRepository</text><line style="stroke:#181818;stroke-width:0.5;" x1="46.5" x2="374.5" y1="534" y2="534"/><line style="stroke:#181818;stroke-width:0.5;" x1="46.5" x2="374.5" y1="542" y2="542"/><text fill="#000000" font-family="sans-serif" font-size="14" lengthAdjust="spacing" textLength="65" x="51.5" y="561.1074">+add(skill)</text><text fill="#000000" font-family="sans-serif" font-size="14" lengthAdjust="spacing" textLength="88" x="51.5" y="579.7285">+remove(skill)</text><text fill="#000000" font-family="sans-serif" font-size="14" lengthAdjust="spacing" textLength="318" x="51.5" y="598.3496">+update(skill, name, shortDescription, Description)</text><text fill="#000000" font-family="sans-serif" font-size="14" lengthAdjust="spacing" textLength="70" x="51.5" y="616.9707">+getSkills()</text></g><!--class CollaboratorRepository--><g id="elem_CollaboratorRepository"><rect codeLine="64" fill="#F1F1F1" height="122.4844" id="CollaboratorRepository" rx="2.5" ry="2.5" style="stroke:#181818;stroke-width:0.5;" width="827" x="411" y="502"/><ellipse cx="747.25" cy="518" fill="#ADD1B2" rx="11" ry="11" style="stroke:#181818;stroke-width:1.0;"/><path d="M750.0156,513.875 Q750.1719,513.6563 750.3594,513.5469 Q750.5469,513.4375 750.7656,513.4375 Q751.1406,513.4375 751.375,513.7031 Q751.6094,513.9531 751.6094,514.5625 L751.6094,516.0156 Q751.6094,516.625 751.375,516.8906 Q751.1406,517.1563 750.7656,517.1563 Q750.4219,517.1563 750.2188,516.9531 Q750.0156,516.7656 749.9063,516.25 Q749.8594,515.8906 749.6719,515.7031 Q749.3438,515.3281 748.7344,515.1094 Q748.125,514.8906 747.5,514.8906 Q746.7344,514.8906 746.0938,515.2188 Q745.4688,515.5469 744.9688,516.2969 Q744.4844,517.0469 744.4844,518.0781 L744.4844,519.1719 Q744.4844,520.4063 745.375,521.2344 Q746.2656,522.0469 747.8594,522.0469 Q748.7969,522.0469 749.4531,521.7969 Q749.8438,521.6406 750.2656,521.2031 Q750.5313,520.9375 750.6719,520.8594 Q750.8281,520.7813 751.0313,520.7813 Q751.3594,520.7813 751.6094,521.0469 Q751.875,521.2969 751.875,521.6406 Q751.875,521.9844 751.5313,522.3906 Q751.0313,522.9688 750.2344,523.2969 Q749.1563,523.75 747.8594,523.75 Q746.3438,523.75 745.1406,523.125 Q744.1563,522.625 743.4688,521.5625 Q742.7813,520.4844 742.7813,519.2031 L742.7813,518.0469 Q742.7813,516.7188 743.3906,515.5781 Q744.0156,514.4219 745.1094,513.8125 Q746.2031,513.1875 747.4375,513.1875 Q748.1719,513.1875 748.8125,513.3594 Q749.4688,513.5156 750.0156,513.875 Z " fill="#000000"/><text fill="#000000" font-family="sans-serif" font-size="14" lengthAdjust="spacing" textLength="146" x="767.75" y="523.7969">CollaboratorRepository</text><line style="stroke:#181818;stroke-width:0.5;" x1="412" x2="1237" y1="534" y2="534"/><line style="stroke:#181818;stroke-width:0.5;" x1="412" x2="1237" y1="542" y2="542"/><text fill="#000000" font-family="sans-serif" font-size="14" lengthAdjust="spacing" textLength="117" x="417" y="561.1074">+add(collaborator)</text><text fill="#000000" font-family="sans-serif" font-size="14" lengthAdjust="spacing" textLength="140" x="417" y="579.7285">+remove(collaborator)</text><text fill="#000000" font-family="sans-serif" font-size="14" lengthAdjust="spacing" textLength="815" x="417" y="598.3496">+update(collaborator, name, email, address, phone, job, skills, birthDate, admissionDate, IDtype, taxpayerNumber, citizenNumber)</text><text fill="#000000" font-family="sans-serif" font-size="14" lengthAdjust="spacing" textLength="123" x="417" y="616.9707">+getCollaborators()</text></g><!--class Repositories--><g id="elem_Repositories"><rect codeLine="71" fill="#F1F1F1" height="103.8633" id="Repositories" rx="2.5" ry="2.5" style="stroke:#181818;stroke-width:0.5;" width="196" x="418.5" y="337"/><ellipse cx="472.75" cy="353" fill="#ADD1B2" rx="11" ry="11" style="stroke:#181818;stroke-width:1.0;"/><path d="M475.5156,348.875 Q475.6719,348.6563 475.8594,348.5469 Q476.0469,348.4375 476.2656,348.4375 Q476.6406,348.4375 476.875,348.7031 Q477.1094,348.9531 477.1094,349.5625 L477.1094,351.0156 Q477.1094,351.625 476.875,351.8906 Q476.6406,352.1563 476.2656,352.1563 Q475.9219,352.1563 475.7188,351.9531 Q475.5156,351.7656 475.4063,351.25 Q475.3594,350.8906 475.1719,350.7031 Q474.8438,350.3281 474.2344,350.1094 Q473.625,349.8906 473,349.8906 Q472.2344,349.8906 471.5938,350.2188 Q470.9688,350.5469 470.4688,351.2969 Q469.9844,352.0469 469.9844,353.0781 L469.9844,354.1719 Q469.9844,355.4063 470.875,356.2344 Q471.7656,357.0469 473.3594,357.0469 Q474.2969,357.0469 474.9531,356.7969 Q475.3438,356.6406 475.7656,356.2031 Q476.0313,355.9375 476.1719,355.8594 Q476.3281,355.7813 476.5313,355.7813 Q476.8594,355.7813 477.1094,356.0469 Q477.375,356.2969 477.375,356.6406 Q477.375,356.9844 477.0313,357.3906 Q476.5313,357.9688 475.7344,358.2969 Q474.6563,358.75 473.3594,358.75 Q471.8438,358.75 470.6406,358.125 Q469.6563,357.625 468.9688,356.5625 Q468.2813,355.4844 468.2813,354.2031 L468.2813,353.0469 Q468.2813,351.7188 468.8906,350.5781 Q469.5156,349.4219 470.6094,348.8125 Q471.7031,348.1875 472.9375,348.1875 Q473.6719,348.1875 474.3125,348.3594 Q474.9688,348.5156 475.5156,348.875 Z " fill="#000000"/><text fill="#000000" font-family="sans-serif" font-size="14" lengthAdjust="spacing" textLength="79" x="493.25" y="358.7969">Repositories</text><line style="stroke:#181818;stroke-width:0.5;" x1="419.5" x2="613.5" y1="369" y2="369"/><line style="stroke:#181818;stroke-width:0.5;" x1="419.5" x2="613.5" y1="377" y2="377"/><text fill="#000000" font-family="sans-serif" font-size="14" lengthAdjust="spacing" textLength="91" x="424.5" y="396.1074">+getInstance()</text><text fill="#000000" font-family="sans-serif" font-size="14" lengthAdjust="spacing" textLength="131" x="424.5" y="414.7285">+getSkillRepository()</text><text fill="#000000" font-family="sans-serif" font-size="14" lengthAdjust="spacing" textLength="184" x="424.5" y="433.3496">+getCollaboratorRepository()</text></g><!--link AddSkillToCollaboratorUI to SkillController--><g id="link_AddSkillToCollaboratorUI_SkillController"><path codeLine="77" d="M469.64,55.01 C427.45,75.72 368.966,104.436 312.356,132.226 " fill="none" id="AddSkillToCollaboratorUI-to-SkillController" style="stroke:#181818;stroke-width:1.0;"/><polygon fill="#181818" points="306.97,134.87,316.8117,134.4947,311.4583,132.6667,313.2864,127.3133,306.97,134.87" style="stroke:#181818;stroke-width:1.0;"/></g><!--link AddSkillToCollaboratorUI to CollaboratorController--><g id="link_AddSkillToCollaboratorUI_CollaboratorController"><path codeLine="78" d="M563.5,55.01 C596.4,71.11 637.0711,91.0118 682.6211,113.3118 " fill="none" id="AddSkillToCollaboratorUI-to-CollaboratorController" style="stroke:#181818;stroke-width:1.0;"/><polygon fill="#181818" points="688.01,115.95,681.6855,108.4001,683.5193,113.7515,678.1679,115.5852,688.01,115.95" style="stroke:#181818;stroke-width:1.0;"/></g><!--link SkillController to Repositories--><g id="link_SkillController_Repositories"><path codeLine="79" d="M289.09,257.17 C333.66,282.81 379.9093,309.4178 422.5793,333.9678 " fill="none" id="SkillController-to-Repositories" style="stroke:#181818;stroke-width:1.0;"/><polygon fill="#181818" points="427.78,336.96,421.9738,329.0046,423.4461,334.4665,417.9842,335.9388,427.78,336.96" style="stroke:#181818;stroke-width:1.0;"/></g><!--link CollaboratorController to Repositories--><g id="link_CollaboratorController_Repositories"><path codeLine="80" d="M711.65,276.07 C675.87,296.59 643.4642,315.174 610.9242,333.844 " fill="none" id="CollaboratorController-to-Repositories" style="stroke:#181818;stroke-width:1.0;"/><polygon fill="#181818" points="605.72,336.83,615.517,335.8206,610.0569,334.3417,611.5357,328.8816,605.72,336.83" style="stroke:#181818;stroke-width:1.0;"/></g><!--link Repositories to SkillRepository--><g id="link_Repositories_SkillRepository"><path codeLine="81" d="M425.52,441.14 C391.52,460.25 357.8305,479.1903 322.5305,499.0303 " fill="none" id="Repositories-to-SkillRepository" style="stroke:#181818;stroke-width:1.0;"/><polygon fill="#181818" points="317.3,501.97,327.1055,501.0474,321.6587,499.5202,323.1859,494.0734,317.3,501.97" style="stroke:#181818;stroke-width:1.0;"/></g><!--link Repositories to CollaboratorRepository--><g id="link_Repositories_CollaboratorRepository"><path codeLine="82" d="M608.08,441.14 C642.3,460.25 676.2314,479.2048 711.7614,499.0448 " fill="none" id="Repositories-to-CollaboratorRepository" style="stroke:#181818;stroke-width:1.0;"/><polygon fill="#181818" points="717,501.97,711.0923,494.0897,712.6345,499.5323,707.1919,501.0745,717,501.97" style="stroke:#181818;stroke-width:1.0;"/></g><!--link CollaboratorRepository to Collaborator--><g id="link_CollaboratorRepository_Collaborator"><path codeLine="83" d="M824.5,624.29 C824.5,647.32 824.5,668.81 824.5,696.86 " fill="none" id="CollaboratorRepository-to-Collaborator" style="stroke:#181818;stroke-width:1.0;"/><polygon fill="#181818" points="824.5,702.86,828.5,693.86,824.5,697.86,820.5,693.86,824.5,702.86" style="stroke:#181818;stroke-width:1.0;"/><text fill="#000000" font-family="sans-serif" font-size="13" lengthAdjust="spacing" textLength="51" x="825.5" y="669.0283">Contains</text><text fill="#000000" font-family="sans-serif" font-size="13" lengthAdjust="spacing" textLength="7" x="817.0953" y="646.3766">1</text><text fill="#000000" font-family="sans-serif" font-size="13" lengthAdjust="spacing" textLength="19" x="805.0398" y="691.5497">0...</text></g><!--link SkillRepository to Skill--><g id="link_SkillRepository_Skill"><path codeLine="84" d="M210.5,624.29 C210.5,676.87 210.5,746.76 210.5,799.32 " fill="none" id="SkillRepository-to-Skill" style="stroke:#181818;stroke-width:1.0;"/><polygon fill="#181818" points="210.5,805.32,214.5,796.32,210.5,800.32,206.5,796.32,210.5,805.32" style="stroke:#181818;stroke-width:1.0;"/><text fill="#000000" font-family="sans-serif" font-size="13" lengthAdjust="spacing" textLength="51" x="211.5" y="669.0283">Contains</text><text fill="#000000" font-family="sans-serif" font-size="13" lengthAdjust="spacing" textLength="7" x="203.0953" y="646.3766">1</text><text fill="#000000" font-family="sans-serif" font-size="13" lengthAdjust="spacing" textLength="19" x="190.4016" y="794.2804">0...</text></g><!--SRC=[nLR1ZjCm4BtxAwnUcjMcrN95QALggqf5Y0E53t2SsSJKyKIs2nJ4l-CaJcgd2Lk113rKZT-C_TwRoRXBSnIgPffLj4A5lDHO0RNw1EI2r8mVMG47UvP0DN3BL27305Eo7ByALT1d9as8IA70dckWDSfpyq2M4o1gYoJ8uf8Pix5MY-naOSzH7SHte0-4B2KyMsgHQb6KbkQYeIDG4TBcqCDHI4b_4Ee-AtfmEpXIYbKGhvZI7Ra5mxMes_G83O4MkU_sJPgDqglaD4ou8pyZBa-eh4OfGNjMzxG0sqBlXB79dL_KKBX7qDr1fldkeLETCmi1aDARYFGRL_W5ecq7Xa-E6CjGCujwR1fKJCYNV6Hvhi6OUB4kKVLnRp6Zdp7pJutYDosLHzfowJEtJY3DXBPbyojSP7abZ75w0i2VizyspUFNX79jmRxLx0pw_QdAG0S05zRrZuhMCqG9J55XTXgWhtFeID9Qq9ljfQQTlBHHbLuefp7Hr9DBHvpIc4hgNUXhvSwOgF-j5PneDLu2F-vGRq-r5DmHY_Jnu67SXr5Wvu2tOzA8JiTV6nAt_2pPlYR_a55NX1Vjwolu4JTHh7zlfnqVohjpq_U6lA7wc-6qCEdJtjK_da8Ve4OZ77OUMiCndMgpgT7p1rEddt4ccMdM6KRp1ar2djz_xWqdDfGMQHvq2Z3X3R1NnbsZ79AnOnTZafdzemXtq6mNh5QFuqlezy7JquICBx8cDDH5PgRGLLnani3kekSwO5etcUcanQj5cxLuMA_NY_XwUqqRPameGyQln2Yj-myHnFy2]--></g></svg>