<?xml version="1.0" encoding="us-ascii" standalone="no"?><svg xmlns="http://www.w3.org/2000/svg" xmlns:xlink="http://www.w3.org/1999/xlink" contentStyleType="text/css" height="1140px" preserveAspectRatio="none" style="width:1321px;height:1140px;background:#FFFFFF;" version="1.1" viewBox="0 0 1321 1140" width="1321px" zoomAndPan="magnify"><defs/><g><!--class ApplicationSession--><g id="elem_ApplicationSession"><rect codeLine="11" fill="#F1F1F1" height="85.2422" id="ApplicationSession" rx="2.5" ry="2.5" style="stroke:#181818;stroke-width:0.5;" width="151" x="163" y="294.7627"/><ellipse cx="178" cy="310.7627" fill="#ADD1B2" rx="11" ry="11" style="stroke:#181818;stroke-width:1.0;"/><path d="M180.7656,306.6377 Q180.9219,306.4189 181.1094,306.3096 Q181.2969,306.2002 181.5156,306.2002 Q181.8906,306.2002 182.125,306.4658 Q182.3594,306.7158 182.3594,307.3252 L182.3594,308.7783 Q182.3594,309.3877 182.125,309.6533 Q181.8906,309.9189 181.5156,309.9189 Q181.1719,309.9189 180.9688,309.7158 Q180.7656,309.5283 180.6563,309.0127 Q180.6094,308.6533 180.4219,308.4658 Q180.0938,308.0908 179.4844,307.8721 Q178.875,307.6533 178.25,307.6533 Q177.4844,307.6533 176.8438,307.9814 Q176.2188,308.3096 175.7188,309.0596 Q175.2344,309.8096 175.2344,310.8408 L175.2344,311.9346 Q175.2344,313.1689 176.125,313.9971 Q177.0156,314.8096 178.6094,314.8096 Q179.5469,314.8096 180.2031,314.5596 Q180.5938,314.4033 181.0156,313.9658 Q181.2813,313.7002 181.4219,313.6221 Q181.5781,313.5439 181.7813,313.5439 Q182.1094,313.5439 182.3594,313.8096 Q182.625,314.0596 182.625,314.4033 Q182.625,314.7471 182.2813,315.1533 Q181.7813,315.7314 180.9844,316.0596 Q179.9063,316.5127 178.6094,316.5127 Q177.0938,316.5127 175.8906,315.8877 Q174.9063,315.3877 174.2188,314.3252 Q173.5313,313.2471 173.5313,311.9658 L173.5313,310.8096 Q173.5313,309.4814 174.1406,308.3408 Q174.7656,307.1846 175.8594,306.5752 Q176.9531,305.9502 178.1875,305.9502 Q178.9219,305.9502 179.5625,306.1221 Q180.2188,306.2783 180.7656,306.6377 Z " fill="#000000"/><text fill="#000000" font-family="sans-serif" font-size="14" lengthAdjust="spacing" textLength="119" x="192" y="316.5596">ApplicationSession</text><line style="stroke:#181818;stroke-width:0.5;" x1="164" x2="313" y1="326.7627" y2="326.7627"/><line style="stroke:#181818;stroke-width:0.5;" x1="164" x2="313" y1="334.7627" y2="334.7627"/><text fill="#000000" font-family="sans-serif" font-size="14" lengthAdjust="spacing" textLength="128" x="169" y="353.8701">+static getInstance()</text><text fill="#000000" font-family="sans-serif" font-size="14" lengthAdjust="spacing" textLength="136" x="169" y="372.4912">+getCurrentSession()</text></g><!--class UserSession--><g id="elem_UserSession"><rect codeLine="17" fill="#F1F1F1" height="66.6211" id="UserSession" rx="2.5" ry="2.5" style="stroke:#181818;stroke-width:0.5;" width="113" x="100" y="551.7627"/><ellipse cx="115.9" cy="567.7627" fill="#ADD1B2" rx="11" ry="11" style="stroke:#181818;stroke-width:1.0;"/><path d="M118.6656,563.6377 Q118.8219,563.4189 119.0094,563.3096 Q119.1969,563.2002 119.4156,563.2002 Q119.7906,563.2002 120.025,563.4658 Q120.2594,563.7158 120.2594,564.3252 L120.2594,565.7783 Q120.2594,566.3877 120.025,566.6533 Q119.7906,566.9189 119.4156,566.9189 Q119.0719,566.9189 118.8688,566.7158 Q118.6656,566.5283 118.5563,566.0127 Q118.5094,565.6533 118.3219,565.4658 Q117.9938,565.0908 117.3844,564.8721 Q116.775,564.6533 116.15,564.6533 Q115.3844,564.6533 114.7438,564.9814 Q114.1188,565.3096 113.6188,566.0596 Q113.1344,566.8096 113.1344,567.8408 L113.1344,568.9346 Q113.1344,570.1689 114.025,570.9971 Q114.9156,571.8096 116.5094,571.8096 Q117.4469,571.8096 118.1031,571.5596 Q118.4938,571.4033 118.9156,570.9658 Q119.1813,570.7002 119.3219,570.6221 Q119.4781,570.5439 119.6813,570.5439 Q120.0094,570.5439 120.2594,570.8096 Q120.525,571.0596 120.525,571.4033 Q120.525,571.7471 120.1813,572.1533 Q119.6813,572.7314 118.8844,573.0596 Q117.8063,573.5127 116.5094,573.5127 Q114.9938,573.5127 113.7906,572.8877 Q112.8063,572.3877 112.1188,571.3252 Q111.4313,570.2471 111.4313,568.9658 L111.4313,567.8096 Q111.4313,566.4814 112.0406,565.3408 Q112.6656,564.1846 113.7594,563.5752 Q114.8531,562.9502 116.0875,562.9502 Q116.8219,562.9502 117.4625,563.1221 Q118.1188,563.2783 118.6656,563.6377 Z " fill="#000000"/><text fill="#000000" font-family="sans-serif" font-size="14" lengthAdjust="spacing" textLength="79" x="130.1" y="573.5596">UserSession</text><line style="stroke:#181818;stroke-width:0.5;" x1="101" x2="212" y1="583.7627" y2="583.7627"/><line style="stroke:#181818;stroke-width:0.5;" x1="101" x2="212" y1="591.7627" y2="591.7627"/><text fill="#000000" font-family="sans-serif" font-size="14" lengthAdjust="spacing" textLength="101" x="106" y="610.8701">+getUserEmail()</text></g><!--class Employee--><g id="elem_Employee"><rect codeLine="22" fill="#F1F1F1" height="122.4844" id="Employee" rx="2.5" ry="2.5" style="stroke:#181818;stroke-width:0.5;" width="94" x="936.5" y="1010.7627"/><ellipse cx="951.5" cy="1026.7627" fill="#ADD1B2" rx="11" ry="11" style="stroke:#181818;stroke-width:1.0;"/><path d="M954.2656,1022.6377 Q954.4219,1022.4189 954.6094,1022.3096 Q954.7969,1022.2002 955.0156,1022.2002 Q955.3906,1022.2002 955.625,1022.4658 Q955.8594,1022.7158 955.8594,1023.3252 L955.8594,1024.7783 Q955.8594,1025.3877 955.625,1025.6533 Q955.3906,1025.9189 955.0156,1025.9189 Q954.6719,1025.9189 954.4688,1025.7158 Q954.2656,1025.5283 954.1563,1025.0127 Q954.1094,1024.6533 953.9219,1024.4658 Q953.5938,1024.0908 952.9844,1023.8721 Q952.375,1023.6533 951.75,1023.6533 Q950.9844,1023.6533 950.3438,1023.9814 Q949.7188,1024.3096 949.2188,1025.0596 Q948.7344,1025.8096 948.7344,1026.8408 L948.7344,1027.9346 Q948.7344,1029.1689 949.625,1029.9971 Q950.5156,1030.8096 952.1094,1030.8096 Q953.0469,1030.8096 953.7031,1030.5596 Q954.0938,1030.4033 954.5156,1029.9658 Q954.7813,1029.7002 954.9219,1029.6221 Q955.0781,1029.5439 955.2813,1029.5439 Q955.6094,1029.5439 955.8594,1029.8096 Q956.125,1030.0596 956.125,1030.4033 Q956.125,1030.7471 955.7813,1031.1533 Q955.2813,1031.7314 954.4844,1032.0596 Q953.4063,1032.5127 952.1094,1032.5127 Q950.5938,1032.5127 949.3906,1031.8877 Q948.4063,1031.3877 947.7188,1030.3252 Q947.0313,1029.2471 947.0313,1027.9658 L947.0313,1026.8096 Q947.0313,1025.4814 947.6406,1024.3408 Q948.2656,1023.1846 949.3594,1022.5752 Q950.4531,1021.9502 951.6875,1021.9502 Q952.4219,1021.9502 953.0625,1022.1221 Q953.7188,1022.2783 954.2656,1022.6377 Z " fill="#000000"/><text fill="#000000" font-family="sans-serif" font-size="14" lengthAdjust="spacing" textLength="62" x="965.5" y="1032.5596">Employee</text><line style="stroke:#181818;stroke-width:0.5;" x1="937.5" x2="1029.5" y1="1042.7627" y2="1042.7627"/><text fill="#000000" font-family="sans-serif" font-size="14" lengthAdjust="spacing" textLength="40" x="942.5" y="1061.8701">-name</text><text fill="#000000" font-family="sans-serif" font-size="14" lengthAdjust="spacing" textLength="38" x="942.5" y="1080.4912">-email</text><text fill="#000000" font-family="sans-serif" font-size="14" lengthAdjust="spacing" textLength="54" x="942.5" y="1099.1123">-position</text><text fill="#000000" font-family="sans-serif" font-size="14" lengthAdjust="spacing" textLength="45" x="942.5" y="1117.7334">-phone</text><line style="stroke:#181818;stroke-width:0.5;" x1="937.5" x2="1029.5" y1="1125.2471" y2="1125.2471"/></g><!--class Skill--><g id="elem_Skill"><rect codeLine="29" fill="#F1F1F1" height="141.1055" id="Skill" rx="2.5" ry="2.5" style="stroke:#181818;stroke-width:0.5;" width="443" x="575" y="790.7627"/><ellipse cx="779.75" cy="806.7627" fill="#ADD1B2" rx="11" ry="11" style="stroke:#181818;stroke-width:1.0;"/><path d="M782.5156,802.6377 Q782.6719,802.4189 782.8594,802.3096 Q783.0469,802.2002 783.2656,802.2002 Q783.6406,802.2002 783.875,802.4658 Q784.1094,802.7158 784.1094,803.3252 L784.1094,804.7783 Q784.1094,805.3877 783.875,805.6533 Q783.6406,805.9189 783.2656,805.9189 Q782.9219,805.9189 782.7188,805.7158 Q782.5156,805.5283 782.4063,805.0127 Q782.3594,804.6533 782.1719,804.4658 Q781.8438,804.0908 781.2344,803.8721 Q780.625,803.6533 780,803.6533 Q779.2344,803.6533 778.5938,803.9814 Q777.9688,804.3096 777.4688,805.0596 Q776.9844,805.8096 776.9844,806.8408 L776.9844,807.9346 Q776.9844,809.1689 777.875,809.9971 Q778.7656,810.8096 780.3594,810.8096 Q781.2969,810.8096 781.9531,810.5596 Q782.3438,810.4033 782.7656,809.9658 Q783.0313,809.7002 783.1719,809.6221 Q783.3281,809.5439 783.5313,809.5439 Q783.8594,809.5439 784.1094,809.8096 Q784.375,810.0596 784.375,810.4033 Q784.375,810.7471 784.0313,811.1533 Q783.5313,811.7314 782.7344,812.0596 Q781.6563,812.5127 780.3594,812.5127 Q778.8438,812.5127 777.6406,811.8877 Q776.6563,811.3877 775.9688,810.3252 Q775.2813,809.2471 775.2813,807.9658 L775.2813,806.8096 Q775.2813,805.4814 775.8906,804.3408 Q776.5156,803.1846 777.6094,802.5752 Q778.7031,801.9502 779.9375,801.9502 Q780.6719,801.9502 781.3125,802.1221 Q781.9688,802.2783 782.5156,802.6377 Z " fill="#000000"/><text fill="#000000" font-family="sans-serif" font-size="14" lengthAdjust="spacing" textLength="25" x="800.25" y="812.5596">Skill</text><line style="stroke:#181818;stroke-width:0.5;" x1="576" x2="1017" y1="822.7627" y2="822.7627"/><text fill="#000000" font-family="sans-serif" font-size="14" lengthAdjust="spacing" textLength="81" x="581" y="841.8701">-String name</text><text fill="#000000" font-family="sans-serif" font-size="14" lengthAdjust="spacing" textLength="127" x="581" y="860.4912">-String skillCategory</text><text fill="#000000" font-family="sans-serif" font-size="14" lengthAdjust="spacing" textLength="167" x="581" y="879.1123">-String informalDescription</text><text fill="#000000" font-family="sans-serif" font-size="14" lengthAdjust="spacing" textLength="173" x="581" y="897.7334">-String technicalDescription</text><line style="stroke:#181818;stroke-width:0.5;" x1="576" x2="1017" y1="905.2471" y2="905.2471"/><text fill="#000000" font-family="sans-serif" font-size="14" lengthAdjust="spacing" textLength="431" x="581" y="924.3545">+Skill(name, skillCategory, informalDescription, technicalDescription)</text></g><!--class skillCategory--><g id="elem_skillCategory"><rect codeLine="39" fill="#F1F1F1" height="85.2422" id="skillCategory" rx="2.5" ry="2.5" style="stroke:#181818;stroke-width:0.5;" width="180" x="431.5" y="1029.2627"/><ellipse cx="476.75" cy="1045.2627" fill="#ADD1B2" rx="11" ry="11" style="stroke:#181818;stroke-width:1.0;"/><path d="M479.5156,1041.1377 Q479.6719,1040.9189 479.8594,1040.8096 Q480.0469,1040.7002 480.2656,1040.7002 Q480.6406,1040.7002 480.875,1040.9658 Q481.1094,1041.2158 481.1094,1041.8252 L481.1094,1043.2783 Q481.1094,1043.8877 480.875,1044.1533 Q480.6406,1044.4189 480.2656,1044.4189 Q479.9219,1044.4189 479.7188,1044.2158 Q479.5156,1044.0283 479.4063,1043.5127 Q479.3594,1043.1533 479.1719,1042.9658 Q478.8438,1042.5908 478.2344,1042.3721 Q477.625,1042.1533 477,1042.1533 Q476.2344,1042.1533 475.5938,1042.4814 Q474.9688,1042.8096 474.4688,1043.5596 Q473.9844,1044.3096 473.9844,1045.3408 L473.9844,1046.4346 Q473.9844,1047.6689 474.875,1048.4971 Q475.7656,1049.3096 477.3594,1049.3096 Q478.2969,1049.3096 478.9531,1049.0596 Q479.3438,1048.9033 479.7656,1048.4658 Q480.0313,1048.2002 480.1719,1048.1221 Q480.3281,1048.0439 480.5313,1048.0439 Q480.8594,1048.0439 481.1094,1048.3096 Q481.375,1048.5596 481.375,1048.9033 Q481.375,1049.2471 481.0313,1049.6533 Q480.5313,1050.2314 479.7344,1050.5596 Q478.6563,1051.0127 477.3594,1051.0127 Q475.8438,1051.0127 474.6406,1050.3877 Q473.6563,1049.8877 472.9688,1048.8252 Q472.2813,1047.7471 472.2813,1046.4658 L472.2813,1045.3096 Q472.2813,1043.9814 472.8906,1042.8408 Q473.5156,1041.6846 474.6094,1041.0752 Q475.7031,1040.4502 476.9375,1040.4502 Q477.6719,1040.4502 478.3125,1040.6221 Q478.9688,1040.7783 479.5156,1041.1377 Z " fill="#000000"/><text fill="#000000" font-family="sans-serif" font-size="14" lengthAdjust="spacing" textLength="81" x="497.25" y="1051.0596">skillCategory</text><line style="stroke:#181818;stroke-width:0.5;" x1="432.5" x2="610.5" y1="1061.2627" y2="1061.2627"/><text fill="#000000" font-family="sans-serif" font-size="14" lengthAdjust="spacing" textLength="115" x="437.5" y="1080.3701">-String description</text><line style="stroke:#181818;stroke-width:0.5;" x1="432.5" x2="610.5" y1="1087.8838" y2="1087.8838"/><text fill="#000000" font-family="sans-serif" font-size="14" lengthAdjust="spacing" textLength="168" x="437.5" y="1106.9912">+skillCategory(description)</text></g><!--class Organization--><g id="elem_Organization"><rect codeLine="45" fill="#F1F1F1" height="252.832" id="Organization" rx="2.5" ry="2.5" style="stroke:#181818;stroke-width:0.5;" width="529" x="785" y="458.7627"/><ellipse cx="1005.25" cy="474.7627" fill="#ADD1B2" rx="11" ry="11" style="stroke:#181818;stroke-width:1.0;"/><path d="M1008.0156,470.6377 Q1008.1719,470.4189 1008.3594,470.3096 Q1008.5469,470.2002 1008.7656,470.2002 Q1009.1406,470.2002 1009.375,470.4658 Q1009.6094,470.7158 1009.6094,471.3252 L1009.6094,472.7783 Q1009.6094,473.3877 1009.375,473.6533 Q1009.1406,473.9189 1008.7656,473.9189 Q1008.4219,473.9189 1008.2188,473.7158 Q1008.0156,473.5283 1007.9063,473.0127 Q1007.8594,472.6533 1007.6719,472.4658 Q1007.3438,472.0908 1006.7344,471.8721 Q1006.125,471.6533 1005.5,471.6533 Q1004.7344,471.6533 1004.0938,471.9814 Q1003.4688,472.3096 1002.9688,473.0596 Q1002.4844,473.8096 1002.4844,474.8408 L1002.4844,475.9346 Q1002.4844,477.1689 1003.375,477.9971 Q1004.2656,478.8096 1005.8594,478.8096 Q1006.7969,478.8096 1007.4531,478.5596 Q1007.8438,478.4033 1008.2656,477.9658 Q1008.5313,477.7002 1008.6719,477.6221 Q1008.8281,477.5439 1009.0313,477.5439 Q1009.3594,477.5439 1009.6094,477.8096 Q1009.875,478.0596 1009.875,478.4033 Q1009.875,478.7471 1009.5313,479.1533 Q1009.0313,479.7314 1008.2344,480.0596 Q1007.1563,480.5127 1005.8594,480.5127 Q1004.3438,480.5127 1003.1406,479.8877 Q1002.1563,479.3877 1001.4688,478.3252 Q1000.7813,477.2471 1000.7813,475.9658 L1000.7813,474.8096 Q1000.7813,473.4814 1001.3906,472.3408 Q1002.0156,471.1846 1003.1094,470.5752 Q1004.2031,469.9502 1005.4375,469.9502 Q1006.1719,469.9502 1006.8125,470.1221 Q1007.4688,470.2783 1008.0156,470.6377 Z " fill="#000000"/><text fill="#000000" font-family="sans-serif" font-size="14" lengthAdjust="spacing" textLength="80" x="1025.75" y="480.5596">Organization</text><line style="stroke:#181818;stroke-width:0.5;" x1="786" x2="1313" y1="490.7627" y2="490.7627"/><text fill="#000000" font-family="sans-serif" font-size="14" lengthAdjust="spacing" textLength="81" x="791" y="509.8701">-String name</text><text fill="#000000" font-family="sans-serif" font-size="14" lengthAdjust="spacing" textLength="114" x="791" y="528.4912">-String vatNumber</text><text fill="#000000" font-family="sans-serif" font-size="14" lengthAdjust="spacing" textLength="93" x="791" y="547.1123">-String website</text><text fill="#000000" font-family="sans-serif" font-size="14" lengthAdjust="spacing" textLength="86" x="791" y="565.7334">-String phone</text><text fill="#000000" font-family="sans-serif" font-size="14" lengthAdjust="spacing" textLength="79" x="791" y="584.3545">-String email</text><line style="stroke:#181818;stroke-width:0.5;" x1="786" x2="1313" y1="591.8682" y2="591.8682"/><text fill="#000000" font-family="sans-serif" font-size="14" lengthAdjust="spacing" textLength="89" x="791" y="610.9756">-addSkill(Skill)</text><text fill="#000000" font-family="sans-serif" font-size="14" lengthAdjust="spacing" textLength="112" x="791" y="629.5967">-validateSkill(skill)</text><text fill="#000000" font-family="sans-serif" font-size="14" lengthAdjust="spacing" textLength="194" x="791" y="648.2178">+anyEmployeeHasEmail(email)</text><text fill="#000000" font-family="sans-serif" font-size="14" lengthAdjust="spacing" textLength="517" x="791" y="666.8389">+Organization(name, vatNumber, webSite, phone, email, postalAddress, manager)</text><text fill="#000000" font-family="sans-serif" font-size="14" lengthAdjust="spacing" textLength="473" x="791" y="685.46">+createSkill(name, SkillCategory, informalDescription, technicalDescription)</text><text fill="#000000" font-family="sans-serif" font-size="14" lengthAdjust="spacing" textLength="180" x="791" y="704.0811">-getEmployeeByEmail(email)</text></g><!--class SkillCategoryRepository--><g id="elem_SkillCategoryRepository"><rect codeLine="61" fill="#F1F1F1" height="66.6211" id="SkillCategoryRepository" rx="2.5" ry="2.5" style="stroke:#181818;stroke-width:0.5;" width="295" x="500" y="303.7627"/><ellipse cx="567.75" cy="319.7627" fill="#ADD1B2" rx="11" ry="11" style="stroke:#181818;stroke-width:1.0;"/><path d="M570.5156,315.6377 Q570.6719,315.4189 570.8594,315.3096 Q571.0469,315.2002 571.2656,315.2002 Q571.6406,315.2002 571.875,315.4658 Q572.1094,315.7158 572.1094,316.3252 L572.1094,317.7783 Q572.1094,318.3877 571.875,318.6533 Q571.6406,318.9189 571.2656,318.9189 Q570.9219,318.9189 570.7188,318.7158 Q570.5156,318.5283 570.4063,318.0127 Q570.3594,317.6533 570.1719,317.4658 Q569.8438,317.0908 569.2344,316.8721 Q568.625,316.6533 568,316.6533 Q567.2344,316.6533 566.5938,316.9814 Q565.9688,317.3096 565.4688,318.0596 Q564.9844,318.8096 564.9844,319.8408 L564.9844,320.9346 Q564.9844,322.1689 565.875,322.9971 Q566.7656,323.8096 568.3594,323.8096 Q569.2969,323.8096 569.9531,323.5596 Q570.3438,323.4033 570.7656,322.9658 Q571.0313,322.7002 571.1719,322.6221 Q571.3281,322.5439 571.5313,322.5439 Q571.8594,322.5439 572.1094,322.8096 Q572.375,323.0596 572.375,323.4033 Q572.375,323.7471 572.0313,324.1533 Q571.5313,324.7314 570.7344,325.0596 Q569.6563,325.5127 568.3594,325.5127 Q566.8438,325.5127 565.6406,324.8877 Q564.6563,324.3877 563.9688,323.3252 Q563.2813,322.2471 563.2813,320.9658 L563.2813,319.8096 Q563.2813,318.4814 563.8906,317.3408 Q564.5156,316.1846 565.6094,315.5752 Q566.7031,314.9502 567.9375,314.9502 Q568.6719,314.9502 569.3125,315.1221 Q569.9688,315.2783 570.5156,315.6377 Z " fill="#000000"/><text fill="#000000" font-family="sans-serif" font-size="14" lengthAdjust="spacing" textLength="151" x="588.25" y="325.5596">SkillCategoryRepository</text><line style="stroke:#181818;stroke-width:0.5;" x1="501" x2="794" y1="335.7627" y2="335.7627"/><line style="stroke:#181818;stroke-width:0.5;" x1="501" x2="794" y1="343.7627" y2="343.7627"/><text fill="#000000" font-family="sans-serif" font-size="14" lengthAdjust="spacing" textLength="283" x="506" y="362.8701">+getTaskCategoryByDescription(description)</text></g><!--class OrganizationRepository--><g id="elem_OrganizationRepository"><rect codeLine="65" fill="#F1F1F1" height="66.6211" id="OrganizationRepository" rx="2.5" ry="2.5" style="stroke:#181818;stroke-width:0.5;" width="275" x="973" y="303.7627"/><ellipse cx="1032.25" cy="319.7627" fill="#ADD1B2" rx="11" ry="11" style="stroke:#181818;stroke-width:1.0;"/><path d="M1035.0156,315.6377 Q1035.1719,315.4189 1035.3594,315.3096 Q1035.5469,315.2002 1035.7656,315.2002 Q1036.1406,315.2002 1036.375,315.4658 Q1036.6094,315.7158 1036.6094,316.3252 L1036.6094,317.7783 Q1036.6094,318.3877 1036.375,318.6533 Q1036.1406,318.9189 1035.7656,318.9189 Q1035.4219,318.9189 1035.2188,318.7158 Q1035.0156,318.5283 1034.9063,318.0127 Q1034.8594,317.6533 1034.6719,317.4658 Q1034.3438,317.0908 1033.7344,316.8721 Q1033.125,316.6533 1032.5,316.6533 Q1031.7344,316.6533 1031.0938,316.9814 Q1030.4688,317.3096 1029.9688,318.0596 Q1029.4844,318.8096 1029.4844,319.8408 L1029.4844,320.9346 Q1029.4844,322.1689 1030.375,322.9971 Q1031.2656,323.8096 1032.8594,323.8096 Q1033.7969,323.8096 1034.4531,323.5596 Q1034.8438,323.4033 1035.2656,322.9658 Q1035.5313,322.7002 1035.6719,322.6221 Q1035.8281,322.5439 1036.0313,322.5439 Q1036.3594,322.5439 1036.6094,322.8096 Q1036.875,323.0596 1036.875,323.4033 Q1036.875,323.7471 1036.5313,324.1533 Q1036.0313,324.7314 1035.2344,325.0596 Q1034.1563,325.5127 1032.8594,325.5127 Q1031.3438,325.5127 1030.1406,324.8877 Q1029.1563,324.3877 1028.4688,323.3252 Q1027.7813,322.2471 1027.7813,320.9658 L1027.7813,319.8096 Q1027.7813,318.4814 1028.3906,317.3408 Q1029.0156,316.1846 1030.1094,315.5752 Q1031.2031,314.9502 1032.4375,314.9502 Q1033.1719,314.9502 1033.8125,315.1221 Q1034.4688,315.2783 1035.0156,315.6377 Z " fill="#000000"/><text fill="#000000" font-family="sans-serif" font-size="14" lengthAdjust="spacing" textLength="148" x="1052.75" y="325.5596">OrganizationRepository</text><line style="stroke:#181818;stroke-width:0.5;" x1="974" x2="1247" y1="335.7627" y2="335.7627"/><line style="stroke:#181818;stroke-width:0.5;" x1="974" x2="1247" y1="343.7627" y2="343.7627"/><text fill="#000000" font-family="sans-serif" font-size="14" lengthAdjust="spacing" textLength="263" x="979" y="362.8701">+getOrganizationByEmployeeEmail(email)</text></g><!--class Repositories--><g id="elem_Repositories"><rect codeLine="69" fill="#F1F1F1" height="122.4844" id="Repositories" rx="2.5" ry="2.5" style="stroke:#181818;stroke-width:0.5;" width="198" x="1002.5" y="74.7627"/><ellipse cx="1057.75" cy="90.7627" fill="#ADD1B2" rx="11" ry="11" style="stroke:#181818;stroke-width:1.0;"/><path d="M1060.5156,86.6377 Q1060.6719,86.4189 1060.8594,86.3096 Q1061.0469,86.2002 1061.2656,86.2002 Q1061.6406,86.2002 1061.875,86.4658 Q1062.1094,86.7158 1062.1094,87.3252 L1062.1094,88.7783 Q1062.1094,89.3877 1061.875,89.6533 Q1061.6406,89.9189 1061.2656,89.9189 Q1060.9219,89.9189 1060.7188,89.7158 Q1060.5156,89.5283 1060.4063,89.0127 Q1060.3594,88.6533 1060.1719,88.4658 Q1059.8438,88.0908 1059.2344,87.8721 Q1058.625,87.6533 1058,87.6533 Q1057.2344,87.6533 1056.5938,87.9814 Q1055.9688,88.3096 1055.4688,89.0596 Q1054.9844,89.8096 1054.9844,90.8408 L1054.9844,91.9346 Q1054.9844,93.1689 1055.875,93.9971 Q1056.7656,94.8096 1058.3594,94.8096 Q1059.2969,94.8096 1059.9531,94.5596 Q1060.3438,94.4033 1060.7656,93.9658 Q1061.0313,93.7002 1061.1719,93.6221 Q1061.3281,93.5439 1061.5313,93.5439 Q1061.8594,93.5439 1062.1094,93.8096 Q1062.375,94.0596 1062.375,94.4033 Q1062.375,94.7471 1062.0313,95.1533 Q1061.5313,95.7314 1060.7344,96.0596 Q1059.6563,96.5127 1058.3594,96.5127 Q1056.8438,96.5127 1055.6406,95.8877 Q1054.6563,95.3877 1053.9688,94.3252 Q1053.2813,93.2471 1053.2813,91.9658 L1053.2813,90.8096 Q1053.2813,89.4814 1053.8906,88.3408 Q1054.5156,87.1846 1055.6094,86.5752 Q1056.7031,85.9502 1057.9375,85.9502 Q1058.6719,85.9502 1059.3125,86.1221 Q1059.9688,86.2783 1060.5156,86.6377 Z " fill="#000000"/><text fill="#000000" font-family="sans-serif" font-size="14" lengthAdjust="spacing" textLength="79" x="1078.25" y="96.5596">Repositories</text><line style="stroke:#181818;stroke-width:0.5;" x1="1003.5" x2="1199.5" y1="106.7627" y2="106.7627"/><line style="stroke:#181818;stroke-width:0.5;" x1="1003.5" x2="1199.5" y1="114.7627" y2="114.7627"/><text fill="#000000" font-family="sans-serif" font-size="14" lengthAdjust="spacing" textLength="94" x="1008.5" y="133.8701">-Repositories()</text><text fill="#000000" font-family="sans-serif" font-size="14" lengthAdjust="spacing" textLength="182" x="1008.5" y="152.4912">+getInstance() : Repositories</text><text fill="#000000" font-family="sans-serif" font-size="14" lengthAdjust="spacing" textLength="121" x="1008.5" y="171.1123">+getSkillCategory()</text><text fill="#000000" font-family="sans-serif" font-size="14" lengthAdjust="spacing" textLength="186" x="1008.5" y="189.7334">+getOrganizationRepository()</text></g><!--class CreateTechnicalSkillController--><g id="elem_CreateTechnicalSkillController"><rect codeLine="76" fill="#F1F1F1" height="159.7266" id="CreateTechnicalSkillController" rx="2.5" ry="2.5" style="stroke:#181818;stroke-width:0.5;" width="523" x="215" y="55.7627"/><ellipse cx="376.75" cy="71.7627" fill="#ADD1B2" rx="11" ry="11" style="stroke:#181818;stroke-width:1.0;"/><path d="M379.5156,67.6377 Q379.6719,67.4189 379.8594,67.3096 Q380.0469,67.2002 380.2656,67.2002 Q380.6406,67.2002 380.875,67.4658 Q381.1094,67.7158 381.1094,68.3252 L381.1094,69.7783 Q381.1094,70.3877 380.875,70.6533 Q380.6406,70.9189 380.2656,70.9189 Q379.9219,70.9189 379.7188,70.7158 Q379.5156,70.5283 379.4063,70.0127 Q379.3594,69.6533 379.1719,69.4658 Q378.8438,69.0908 378.2344,68.8721 Q377.625,68.6533 377,68.6533 Q376.2344,68.6533 375.5938,68.9814 Q374.9688,69.3096 374.4688,70.0596 Q373.9844,70.8096 373.9844,71.8408 L373.9844,72.9346 Q373.9844,74.1689 374.875,74.9971 Q375.7656,75.8096 377.3594,75.8096 Q378.2969,75.8096 378.9531,75.5596 Q379.3438,75.4033 379.7656,74.9658 Q380.0313,74.7002 380.1719,74.6221 Q380.3281,74.5439 380.5313,74.5439 Q380.8594,74.5439 381.1094,74.8096 Q381.375,75.0596 381.375,75.4033 Q381.375,75.7471 381.0313,76.1533 Q380.5313,76.7314 379.7344,77.0596 Q378.6563,77.5127 377.3594,77.5127 Q375.8438,77.5127 374.6406,76.8877 Q373.6563,76.3877 372.9688,75.3252 Q372.2813,74.2471 372.2813,72.9658 L372.2813,71.8096 Q372.2813,70.4814 372.8906,69.3408 Q373.5156,68.1846 374.6094,67.5752 Q375.7031,66.9502 376.9375,66.9502 Q377.6719,66.9502 378.3125,67.1221 Q378.9688,67.2783 379.5156,67.6377 Z " fill="#000000"/><text fill="#000000" font-family="sans-serif" font-size="14" lengthAdjust="spacing" textLength="191" x="397.25" y="77.5596">CreateTechnicalSkillController</text><line style="stroke:#181818;stroke-width:0.5;" x1="216" x2="737" y1="87.7627" y2="87.7627"/><line style="stroke:#181818;stroke-width:0.5;" x1="216" x2="737" y1="95.7627" y2="95.7627"/><text fill="#000000" font-family="sans-serif" font-size="14" lengthAdjust="spacing" textLength="511" x="221" y="114.8701">+CreateTechnicalSkillController(organizationRepository, technicalSkillRepository)</text><text fill="#000000" font-family="sans-serif" font-size="14" lengthAdjust="spacing" textLength="132" x="221" y="133.4912">+getSkillCategories()</text><text fill="#000000" font-family="sans-serif" font-size="14" lengthAdjust="spacing" textLength="469" x="221" y="152.1123">+createSkill(name, SkillCategory,informalDescription, technicalDescription)</text><text fill="#000000" font-family="sans-serif" font-size="14" lengthAdjust="spacing" textLength="255" x="221" y="170.7334">+assignSkillToEmployee(skill, employee)</text><text fill="#000000" font-family="sans-serif" font-size="14" lengthAdjust="spacing" textLength="229" x="221" y="189.3545">-getSkillCategoryByName(skillName)</text><text fill="#000000" font-family="sans-serif" font-size="14" lengthAdjust="spacing" textLength="180" x="221" y="207.9756">-getEmployeeFromSession()</text></g><g id="elem_GMN12"><path d="M773.5,96.2627 L773.5,175.4268 L967.5,175.4268 L967.5,106.2627 L957.5,96.2627 L773.5,96.2627 " fill="#FEFFDD" style="stroke:#181818;stroke-width:0.5;"/><path d="M957.5,96.2627 L957.5,106.2627 L967.5,106.2627 L957.5,96.2627 " fill="#FEFFDD" style="stroke:#181818;stroke-width:1.0;"/><text fill="#000000" font-family="sans-serif" font-size="13" lengthAdjust="spacing" textLength="133" x="779.5" y="115.291">- userEmail is obtained</text><text fill="#000000" font-family="sans-serif" font-size="13" lengthAdjust="spacing" textLength="125" x="779.5" y="132.582">from the user session</text><text fill="#000000" font-family="sans-serif" font-size="13" lengthAdjust="spacing" textLength="123" x="779.5" y="149.873">- categoryDescription</text><text fill="#000000" font-family="sans-serif" font-size="13" lengthAdjust="spacing" textLength="173" x="779.5" y="167.1641">is retrieved from selected data</text></g><g id="elem_GMN15"><path d="M579,562.7627 L579,607.3447 A0,0 0 0 0 579,607.3447 L716,607.3447 A0,0 0 0 0 716,607.3447 L716,572.7627 L706,562.7627 L651.5,562.7627 L647.5,370.9327 L643.5,562.7627 L579,562.7627 A0,0 0 0 0 579,562.7627 " fill="#FEFFDD" style="stroke:#181818;stroke-width:0.5;"/><path d="M706,562.7627 L706,572.7627 L716,572.7627 L706,562.7627 " fill="#FEFFDD" style="stroke:#181818;stroke-width:0.5;"/><text fill="#000000" font-family="sans-serif" font-size="13" lengthAdjust="spacing" textLength="116" x="585" y="581.791">- used for displaying</text><text fill="#000000" font-family="sans-serif" font-size="13" lengthAdjust="spacing" textLength="93" x="585" y="599.082">the category list</text></g><!--class CreateTechnicalSkillUI--><g id="elem_CreateTechnicalSkillUI"><rect codeLine="97" fill="#F1F1F1" height="48" id="CreateTechnicalSkillUI" rx="2.5" ry="2.5" style="stroke:#181818;stroke-width:0.5;" width="173" x="7" y="111.7627"/><ellipse cx="22" cy="127.7627" fill="#ADD1B2" rx="11" ry="11" style="stroke:#181818;stroke-width:1.0;"/><path d="M24.7656,123.6377 Q24.9219,123.4189 25.1094,123.3096 Q25.2969,123.2002 25.5156,123.2002 Q25.8906,123.2002 26.125,123.4658 Q26.3594,123.7158 26.3594,124.3252 L26.3594,125.7783 Q26.3594,126.3877 26.125,126.6533 Q25.8906,126.9189 25.5156,126.9189 Q25.1719,126.9189 24.9688,126.7158 Q24.7656,126.5283 24.6563,126.0127 Q24.6094,125.6533 24.4219,125.4658 Q24.0938,125.0908 23.4844,124.8721 Q22.875,124.6533 22.25,124.6533 Q21.4844,124.6533 20.8438,124.9814 Q20.2188,125.3096 19.7188,126.0596 Q19.2344,126.8096 19.2344,127.8408 L19.2344,128.9346 Q19.2344,130.1689 20.125,130.9971 Q21.0156,131.8096 22.6094,131.8096 Q23.5469,131.8096 24.2031,131.5596 Q24.5938,131.4033 25.0156,130.9658 Q25.2813,130.7002 25.4219,130.6221 Q25.5781,130.5439 25.7813,130.5439 Q26.1094,130.5439 26.3594,130.8096 Q26.625,131.0596 26.625,131.4033 Q26.625,131.7471 26.2813,132.1533 Q25.7813,132.7314 24.9844,133.0596 Q23.9063,133.5127 22.6094,133.5127 Q21.0938,133.5127 19.8906,132.8877 Q18.9063,132.3877 18.2188,131.3252 Q17.5313,130.2471 17.5313,128.9658 L17.5313,127.8096 Q17.5313,126.4814 18.1406,125.3408 Q18.7656,124.1846 19.8594,123.5752 Q20.9531,122.9502 22.1875,122.9502 Q22.9219,122.9502 23.5625,123.1221 Q24.2188,123.2783 24.7656,123.6377 Z " fill="#000000"/><text fill="#000000" font-family="sans-serif" font-size="14" lengthAdjust="spacing" textLength="141" x="36" y="133.5596">CreateTechnicalSkillUI</text><line style="stroke:#181818;stroke-width:0.5;" x1="8" x2="179" y1="143.7627" y2="143.7627"/><line style="stroke:#181818;stroke-width:0.5;" x1="8" x2="179" y1="151.7627" y2="151.7627"/></g><!--link CreateTechnicalSkillController to GMN12--><g id="link_CreateTechnicalSkillController_GMN12"><path d="M738.33,135.7627 C738.88,135.7627 739.17,135.7627 739.17,135.7627 C739.17,135.7627 753.82,135.7627 773.33,135.7627 " fill="none" id="CreateTechnicalSkillController-GMN12" style="stroke:#181818;stroke-width:1.0;stroke-dasharray:7.0,7.0;"/></g><!--link Repositories to Repositories--><g id="link_Repositories_Repositories"><path codeLine="100" d="M1200.55,114.4527 C1220.9,116.7327 1235.5,123.8327 1235.5,135.7627 C1235.5,147.6927 1226.8627,154.1246 1206.5127,156.4046 " fill="none" id="Repositories-to-Repositories" style="stroke:#181818;stroke-width:1.0;"/><polygon fill="#181818" points="1200.55,157.0727,1209.9394,160.0457,1205.5189,156.516,1209.0487,152.0955,1200.55,157.0727" style="stroke:#181818;stroke-width:1.0;"/><text fill="#000000" font-family="sans-serif" font-size="13" lengthAdjust="spacing" textLength="49" x="1241.5" y="141.291">instance</text></g><!--link ApplicationSession to ApplicationSession--><g id="link_ApplicationSession_ApplicationSession"><path codeLine="101" d="M314.16,322.0327 C334,322.9327 349,328.0127 349,337.2627 C349,346.5127 339.9938,351.3208 320.1538,352.2208 " fill="none" id="ApplicationSession-to-ApplicationSession" style="stroke:#181818;stroke-width:1.0;"/><polygon fill="#181818" points="314.16,352.4927,323.332,356.0807,319.1549,352.2661,322.9695,348.089,314.16,352.4927" style="stroke:#181818;stroke-width:1.0;"/><text fill="#000000" font-family="sans-serif" font-size="13" lengthAdjust="spacing" textLength="49" x="355" y="342.791">instance</text></g><!--link CreateTechnicalSkillUI to CreateTechnicalSkillController--><g id="link_CreateTechnicalSkillUI_CreateTechnicalSkillController"><path codeLine="103" d="M180.07,135.7627 C194.83,135.7627 201.73,135.7627 208.97,135.7627 " fill="none" id="CreateTechnicalSkillUI-to-CreateTechnicalSkillController" style="stroke:#181818;stroke-width:1.0;stroke-dasharray:7.0,7.0;"/><polygon fill="#181818" points="214.97,135.7627,205.97,131.7627,209.97,135.7627,205.97,139.7627,214.97,135.7627" style="stroke:#181818;stroke-width:1.0;"/></g><!--link CreateTechnicalSkillController to Repositories--><g id="link_CreateTechnicalSkillController_Repositories"><path codeLine="105" d="M738.24,55.6727 C793.76,38.6827 836,25.7627 836,25.7627 C836,25.7627 905,25.7627 905,25.7627 C905,25.7627 985.5,55.7627 985.5,55.7627 C985.5,55.7627 992.1705,60.3667 1008.0505,71.3167 " fill="none" id="CreateTechnicalSkillController-to-Repositories" style="stroke:#181818;stroke-width:1.0;stroke-dasharray:7.0,7.0;"/><polygon fill="#181818" points="1012.99,74.7227,1007.8514,66.3206,1008.8737,71.8843,1003.31,72.9067,1012.99,74.7227" style="stroke:#181818;stroke-width:1.0;"/><text fill="#000000" font-family="sans-serif" font-size="13" lengthAdjust="spacing" textLength="67" x="837" y="21.791">repositories</text></g><!--link Repositories to SkillCategoryRepository--><g id="link_Repositories_SkillCategoryRepository"><path codeLine="107" d="M1081.26,197.0127 C1070.11,230.2127 1058.5,264.7627 1058.5,264.7627 C1058.5,264.7627 822.5,294.7627 822.5,294.7627 C822.5,294.7627 812.7084,297.0897 790.7984,302.2797 " fill="none" id="Repositories-to-SkillCategoryRepository" style="stroke:#181818;stroke-width:1.0;"/><polygon fill="#181818" points="784.96,303.6627,794.6397,305.4805,789.8254,302.5102,792.7957,297.6959,784.96,303.6627" style="stroke:#181818;stroke-width:1.0;"/><text fill="#000000" font-family="sans-serif" font-size="13" lengthAdjust="spacing" textLength="7" x="802.6589" y="292.9906">1</text></g><!--link CreateTechnicalSkillController to skillCategory--><g id="link_CreateTechnicalSkillController_skillCategory"><path codeLine="109" d="M464.6,215.8927 C456.22,271.5927 446.5,336.2627 446.5,336.2627 C446.5,336.2627 446.5,336.2627 446.5,862.2627 C446.5,862.2627 482.5898,962.5766 504.4698,1023.4266 " fill="none" id="CreateTechnicalSkillController-to-skillCategory" style="stroke:#181818;stroke-width:1.0;stroke-dasharray:7.0,7.0;"/><polygon fill="#181818" points="506.5,1029.0727,507.2188,1019.2501,504.8082,1024.3676,499.6907,1021.957,506.5,1029.0727" style="stroke:#181818;stroke-width:1.0;"/></g><!--link CreateTechnicalSkillController to OrganizationRepository--><g id="link_CreateTechnicalSkillController_OrganizationRepository"><path codeLine="110" d="M738.05,210.8227 C749.02,213.9327 755.5,215.7627 755.5,215.7627 C755.5,215.7627 884.5,245.7627 884.5,245.7627 C884.5,245.7627 958.8701,275.5418 1023.6601,301.4918 " fill="none" id="CreateTechnicalSkillController-to-OrganizationRepository" style="stroke:#181818;stroke-width:1.0;stroke-dasharray:7.0,7.0;"/><polygon fill="#181818" points="1029.23,303.7227,1022.3625,296.6632,1024.5885,301.8636,1019.388,304.0896,1029.23,303.7227" style="stroke:#181818;stroke-width:1.0;"/><text fill="#000000" font-family="sans-serif" font-size="13" lengthAdjust="spacing" textLength="132" x="929.5" y="260.791">organizationRepository</text></g><!--link CreateTechnicalSkillController to SkillCategoryRepository--><g id="link_CreateTechnicalSkillController_SkillCategoryRepository"><path codeLine="111" d="M544.33,215.8927 C570.53,246.4627 595.1453,275.1772 615.5453,298.9772 " fill="none" id="CreateTechnicalSkillController-to-SkillCategoryRepository" style="stroke:#181818;stroke-width:1.0;stroke-dasharray:7.0,7.0;"/><polygon fill="#181818" points="619.45,303.5327,616.6299,294.0962,616.196,299.7364,610.5559,299.3026,619.45,303.5327" style="stroke:#181818;stroke-width:1.0;"/><text fill="#000000" font-family="sans-serif" font-size="13" lengthAdjust="spacing" textLength="139" x="583.5" y="260.791">SkillCategoryRepository</text></g><!--link Repositories to OrganizationRepository--><g id="link_Repositories_OrganizationRepository"><path codeLine="113" d="M1104.21,196.8927 C1105.79,231.8827 1107.45,268.6488 1108.75,297.5088 " fill="none" id="Repositories-to-OrganizationRepository" style="stroke:#181818;stroke-width:1.0;"/><polygon fill="#181818" points="1109.02,303.5027,1112.611,294.3318,1108.795,298.5078,1104.6191,294.6918,1109.02,303.5027" style="stroke:#181818;stroke-width:1.0;"/><text fill="#000000" font-family="sans-serif" font-size="13" lengthAdjust="spacing" textLength="7" x="1101.0707" y="292.5391">1</text></g><!--link OrganizationRepository to Organization--><g id="link_OrganizationRepository_Organization"><path codeLine="115" d="M1102.4,370.9327 C1096.71,393.8627 1090.1551,420.3193 1082.0851,452.8393 " fill="none" id="OrganizationRepository-to-Organization" style="stroke:#181818;stroke-width:1.0;"/><polygon fill="#181818" points="1080.64,458.6627,1086.6899,450.891,1081.8442,453.8099,1078.9254,448.9642,1080.64,458.6627" style="stroke:#181818;stroke-width:1.0;"/><text fill="#000000" font-family="sans-serif" font-size="13" lengthAdjust="spacing" textLength="5" x="1077.3853" y="447.4723">*</text></g><!--link ApplicationSession to UserSession--><g id="link_ApplicationSession_UserSession"><path codeLine="116" d="M224.59,379.9927 C208.46,428.3827 184.1081,501.4509 169.3481,545.7109 " fill="none" id="ApplicationSession-to-UserSession" style="stroke:#181818;stroke-width:1.0;"/><polygon fill="#181818" points="167.45,551.4027,174.0918,544.1304,169.0318,546.6595,166.5026,541.5995,167.45,551.4027" style="stroke:#181818;stroke-width:1.0;"/><text fill="#000000" font-family="sans-serif" font-size="13" lengthAdjust="spacing" textLength="72" x="215.5" y="424.791">userSession</text><text fill="#000000" font-family="sans-serif" font-size="13" lengthAdjust="spacing" textLength="7" x="161.8702" y="540.42">1</text></g><!--link CreateTechnicalSkillController to Organization--><g id="link_CreateTechnicalSkillController_Organization"><path codeLine="118" d="M661.48,215.8327 C701.2,232.8127 731.5,245.7627 731.5,245.7627 C731.5,245.7627 812.5,294.7627 812.5,294.7627 C812.5,294.7627 878.819,375.7802 942.779,453.9002 " fill="none" id="CreateTechnicalSkillController-to-Organization" style="stroke:#181818;stroke-width:1.0;stroke-dasharray:7.0,7.0;"/><polygon fill="#181818" points="946.58,458.5427,943.9735,449.045,943.4125,454.674,937.7835,454.113,946.58,458.5427" style="stroke:#181818;stroke-width:1.0;"/><text fill="#000000" font-family="sans-serif" font-size="13" lengthAdjust="spacing" textLength="70" x="882.5" y="342.791">organization</text><text fill="#000000" font-family="sans-serif" font-size="13" lengthAdjust="spacing" textLength="7" x="933.095" y="447.345">1</text></g><!--link CreateTechnicalSkillController to ApplicationSession--><g id="link_CreateTechnicalSkillController_ApplicationSession"><path codeLine="119" d="M382.09,215.8927 C350.04,242.7627 320.0878,267.8678 292.9178,290.6478 " fill="none" id="CreateTechnicalSkillController-to-ApplicationSession" style="stroke:#181818;stroke-width:1.0;stroke-dasharray:7.0,7.0;"/><polygon fill="#181818" points="288.32,294.5027,297.7866,291.7855,292.1515,291.2903,292.6468,285.6551,288.32,294.5027" style="stroke:#181818;stroke-width:1.0;"/></g><!--link CreateTechnicalSkillController to UserSession--><g id="link_CreateTechnicalSkillController_UserSession"><path codeLine="120" d="M310.52,215.9927 C227.93,255.4127 145.5,294.7627 145.5,294.7627 C145.5,294.7627 145.5,379.7627 145.5,379.7627 C145.5,379.7627 151.2976,487.6114 154.4076,545.4114 " fill="none" id="CreateTechnicalSkillController-to-UserSession" style="stroke:#181818;stroke-width:1.0;stroke-dasharray:7.0,7.0;"/><polygon fill="#181818" points="154.73,551.4027,158.2407,542.2008,154.4614,546.4099,150.2522,542.6306,154.73,551.4027" style="stroke:#181818;stroke-width:1.0;"/></g><!--link Skill to skillCategory--><g id="link_Skill_skillCategory"><path codeLine="121" d="M704.55,931.9827 C662.08,964.1827 617.851,997.7075 581.241,1025.4675 " fill="none" id="Skill-to-skillCategory" style="stroke:#181818;stroke-width:1.0;"/><polygon fill="#181818" points="576.46,1029.0927,586.0483,1026.8422,580.4441,1026.0717,581.2146,1020.4675,576.46,1029.0927" style="stroke:#181818;stroke-width:1.0;"/><text fill="#000000" font-family="sans-serif" font-size="13" lengthAdjust="spacing" textLength="75" x="660.5" y="976.791">skillCategory</text><text fill="#000000" font-family="sans-serif" font-size="13" lengthAdjust="spacing" textLength="5" x="690.2526" y="953.8184">*</text><text fill="#000000" font-family="sans-serif" font-size="13" lengthAdjust="spacing" textLength="7" x="577.6614" y="1017.9697">1</text></g><!--link SkillCategoryRepository to skillCategory--><g id="link_SkillCategoryRepository_skillCategory"><path codeLine="122" d="M624.23,370.8727 C598.76,406.5627 561.5,458.7627 561.5,458.7627 C561.5,458.7627 533.6112,885.4455 524.6112,1023.1955 " fill="none" id="SkillCategoryRepository-to-skillCategory" style="stroke:#181818;stroke-width:1.0;"/><polygon fill="#181818" points="524.22,1029.1827,528.7983,1020.4626,524.546,1024.1933,520.8153,1019.9411,524.22,1029.1827" style="stroke:#181818;stroke-width:1.0;"/><text fill="#000000" font-family="sans-serif" font-size="13" lengthAdjust="spacing" textLength="75" x="544.5" y="756.791">skillCategory</text><text fill="#000000" font-family="sans-serif" font-size="13" lengthAdjust="spacing" textLength="7" x="612.4616" y="392.4615">1</text><text fill="#000000" font-family="sans-serif" font-size="13" lengthAdjust="spacing" textLength="5" x="519.2551" y="1018.074">*</text></g><!--link Organization to Skill--><g id="link_Organization_Skill"><path codeLine="123" d="M933.37,712.0327 C908.43,739.0427 887.0099,762.2341 864.8999,786.1841 " fill="none" id="Organization-to-Skill" style="stroke:#181818;stroke-width:1.0;"/><polygon fill="#181818" points="860.83,790.5927,869.8739,786.6931,864.2216,786.9189,863.9958,781.2665,860.83,790.5927" style="stroke:#181818;stroke-width:1.0;"/><text fill="#000000" font-family="sans-serif" font-size="13" lengthAdjust="spacing" textLength="30" x="901.5" y="756.791">skills</text><text fill="#000000" font-family="sans-serif" font-size="13" lengthAdjust="spacing" textLength="7" x="919.8277" y="733.4711">1</text><text fill="#000000" font-family="sans-serif" font-size="13" lengthAdjust="spacing" textLength="5" x="862.2062" y="779.4662">*</text></g><!--link Skill to Employee--><g id="link_Skill_Employee"><path codeLine="124" d="M859.03,931.9827 C884.3,960.1527 908.9642,987.6557 932.4142,1013.8057 " fill="none" id="Skill-to-Employee" style="stroke:#181818;stroke-width:1.0;"/><polygon fill="#181818" points="936.42,1018.2727,933.3893,1008.9017,933.0819,1014.5502,927.4334,1014.2427,936.42,1018.2727" style="stroke:#181818;stroke-width:1.0;"/><text fill="#000000" font-family="sans-serif" font-size="13" lengthAdjust="spacing" textLength="59" x="902.5" y="976.791">createdBy</text></g><!--link Organization to Employee--><g id="link_Organization_Employee"><path codeLine="126" d="M1044.41,711.9727 C1040.4,810.7627 1035.5,931.7627 1035.5,931.7627 C1035.5,931.7627 1022.1617,967.4128 1008.1117,1004.9828 " fill="none" id="Organization-to-Employee" style="stroke:#181818;stroke-width:1.0;"/><polygon fill="#181818" points="1006.01,1010.6027,1012.9091,1003.574,1007.7614,1005.9195,1005.4159,1000.7718,1006.01,1010.6027" style="stroke:#181818;stroke-width:1.0;"/><text fill="#000000" font-family="sans-serif" font-size="13" lengthAdjust="spacing" textLength="49" x="1041.5" y="866.791">employs</text><text fill="#000000" font-family="sans-serif" font-size="13" lengthAdjust="spacing" textLength="5" x="1003.3237" y="999.5654">*</text></g><!--SRC=[dLPBJzmm4BxxLrYz02MWzhe799PIbGkLkl03lCbirbh7ZcmlA5Jzxnq_ahL3mcxB0MtcySqt3uzzPdPSjaopXZPAgdAhLGFKwZsGWwPbvOxLiBAT0AgXj4pM8ZKmMrQfLovhkc72f1h19TYk1TegqRaFSZQXLDegadYLWXbpQwtcwxs5XrB95Ny3-eMGCm4RIwsYcjTRIolkw70b2V4-zBPj1I-P4wt06AVvJIZ-NL9ZKLpI6ko3nD-oXFEBg4BPtLvha3OweUPF3_biG8-nqC69xnl6HMfxtxH2TG0q65vHoHg8Fy4Pnz-jCjpJZfzRXPKPK5OxBiG0iS8oO6KJf2WnpkoEMQYLxd8Lbnkb6oQ-WIarRvDGqS12kPLOgCo2nEny_7CNiCY355F0nIHOKfGCOfnMbSQFZKhjpwj9p9-wPfA_-KOVhzGBiu_xPWqw5x_26jimiWszo4IXSr76gYhKn_-_YD8N9dY5b8FA75INbCck7uiVp8IHyOYzGPfBhFf0k70aLqYo2CIAGAPm4sIPkAqgZQDPq8P9FA6wXomr36G2ukg_-nWIn8dlirXsMHAZkUrZ_08_v8UM-rFpnCokjrXsIPmJ-ZoDc5eiXqfd30Uq0O636QOc5QORuR0bw28pEfXa2QU-qxJJJN7dE_JKLpmWAMcr4WBqaE37PkTgCaxIIUzmq5nCSqypFpOw_pWvEF-uEclfGPvKtvzmHDmqX-zapB9mo-uHEGHhzsjY7B_ZbPMjRQainFj1ROvKCCBj-sLEkQ5gRHdUJ9NNRH2TsYru4shYFH2yoaXol6KHGmEk3dY1AW0O47XFuHVk24P0LjIHZ5JNobgqGQup1-X04k6KnblFj89rk9gynh7hgU2TQcmIO7xOdXzmoB1QsPcukidFo08NHJW5vFtDwgmdf8aFcGbyVNEiBUJ8-RX-HrId9_HTLf- -Vfgjxj5O62o_Qqzmc5bS2pfzP4-1d5klY_dCyZB4EanJ8sI6idVxdBjDJaE4JzvBI6sVl9vEIN9CS5InKo0cte0dUANFlF00SqdtIULlcCLe7kOwuppxydsCaAMSkWKgqTn4PauvF3KNSMLNor4F1up4DEnRG_u2]--></g></svg>