<?xml version="1.0" encoding="us-ascii" standalone="no"?><svg xmlns="http://www.w3.org/2000/svg" xmlns:xlink="http://www.w3.org/1999/xlink" contentStyleType="text/css" height="500px" preserveAspectRatio="none" style="width:719px;height:500px;background:#FFFFFF;" version="1.1" viewBox="0 0 719 500" width="719px" zoomAndPan="magnify"><defs/><g><rect fill="#FFFFFF" height="335.541" style="stroke:#181818;stroke-width:1.0;" width="10" x="235" y="90.5332"/><rect fill="#FFFFFF" height="247.668" style="stroke:#181818;stroke-width:1.0;" width="10" x="452" y="148.1152"/><rect fill="#FFFFFF" height="328.541" style="stroke:#181818;stroke-width:1.0;" width="10" x="651" y="67.2422"/><rect fill="none" height="290.25" style="stroke:#000000;stroke-width:1.5;" width="542.5" x="171" y="105.5332"/><rect fill="none" height="50.582" style="stroke:#000000;stroke-width:1.5;" width="278" x="425.5" y="163.1152"/><rect fill="none" height="161.0859" style="stroke:#000000;stroke-width:1.5;" width="522.5" x="181" y="227.6973"/><line style="stroke:#181818;stroke-width:0.5;stroke-dasharray:5.0,5.0;" x1="240" x2="240" y1="57.2422" y2="444.0742"/><line style="stroke:#181818;stroke-width:0.5;stroke-dasharray:5.0,5.0;" x1="456.5" x2="456.5" y1="57.2422" y2="444.0742"/><line style="stroke:#181818;stroke-width:0.5;stroke-dasharray:5.0,5.0;" x1="655.5" x2="655.5" y1="57.2422" y2="444.0742"/><rect fill="#E3E3E3" height="51.2422" rx="2.5" ry="2.5" style="stroke:#181818;stroke-width:0.5;" width="98" x="191" y="5"/><text fill="#000000" font-family="sans-serif" font-size="14" lengthAdjust="spacing" textLength="77" x="201.5" y="27.1074">organization</text><text fill="#000000" font-family="sans-serif" font-size="14" lengthAdjust="spacing" textLength="84" x="198" y="45.7285">:Organization</text><rect fill="#E3E3E3" height="51.2422" rx="2.5" ry="2.5" style="stroke:#181818;stroke-width:0.5;" width="98" x="191" y="443.0742"/><text fill="#000000" font-family="sans-serif" font-size="14" lengthAdjust="spacing" textLength="77" x="201.5" y="465.1816">organization</text><text fill="#000000" font-family="sans-serif" font-size="14" lengthAdjust="spacing" textLength="84" x="198" y="483.8027">:Organization</text><rect fill="#E3E3E3" height="51.2422" rx="2.5" ry="2.5" style="stroke:#181818;stroke-width:0.5;" width="43" x="435.5" y="5"/><text fill="#000000" font-family="sans-serif" font-size="14" lengthAdjust="spacing" textLength="23" x="445.5" y="27.1074">skill</text><text fill="#000000" font-family="sans-serif" font-size="14" lengthAdjust="spacing" textLength="29" x="442.5" y="45.7285">:Skill</text><rect fill="#E3E3E3" height="51.2422" rx="2.5" ry="2.5" style="stroke:#181818;stroke-width:0.5;" width="43" x="435.5" y="443.0742"/><text fill="#000000" font-family="sans-serif" font-size="14" lengthAdjust="spacing" textLength="23" x="445.5" y="465.1816">skill</text><text fill="#000000" font-family="sans-serif" font-size="14" lengthAdjust="spacing" textLength="29" x="442.5" y="483.8027">:Skill</text><rect fill="#E3E3E3" height="32.6211" rx="2.5" ry="2.5" style="stroke:#181818;stroke-width:0.5;" width="75" x="618.5" y="23.6211"/><text fill="#000000" font-family="sans-serif" font-size="14" lengthAdjust="spacing" textLength="61" x="625.5" y="45.7285">employee</text><rect fill="#E3E3E3" height="32.6211" rx="2.5" ry="2.5" style="stroke:#181818;stroke-width:0.5;" width="75" x="618.5" y="443.0742"/><text fill="#000000" font-family="sans-serif" font-size="14" lengthAdjust="spacing" textLength="61" x="625.5" y="465.1816">employee</text><rect fill="#FFFFFF" height="335.541" style="stroke:#181818;stroke-width:1.0;" width="10" x="235" y="90.5332"/><rect fill="#FFFFFF" height="247.668" style="stroke:#181818;stroke-width:1.0;" width="10" x="452" y="148.1152"/><rect fill="#FFFFFF" height="328.541" style="stroke:#181818;stroke-width:1.0;" width="10" x="651" y="67.2422"/><polygon fill="#181818" points="223,86.5332,233,90.5332,223,94.5332,227,90.5332" style="stroke:#181818;stroke-width:1.0;"/><line style="stroke:#181818;stroke-width:1.0;" x1="0" x2="229" y1="90.5332" y2="90.5332"/><text fill="#000000" font-family="sans-serif" font-size="13" font-weight="bold" lengthAdjust="spacing" textLength="14" x="7" y="85.2705">16</text><text fill="#000000" font-family="sans-serif" font-size="13" lengthAdjust="spacing" textLength="157" x="25" y="85.2705">addSkills(Skills, employee)</text><path d="M171,105.5332 L377,105.5332 L377,114.8242 L367,124.8242 L171,124.8242 L171,105.5332 " fill="#EEEEEE" style="stroke:#000000;stroke-width:1.5;"/><rect fill="none" height="290.25" style="stroke:#000000;stroke-width:1.5;" width="542.5" x="171" y="105.5332"/><text fill="#000000" font-family="sans-serif" font-size="13" font-weight="bold" lengthAdjust="spacing" textLength="161" x="186" y="120.5615">add Skills to Collaborator</text><polygon fill="#181818" points="440,144.1152,450,148.1152,440,152.1152,444,148.1152" style="stroke:#181818;stroke-width:1.0;"/><line style="stroke:#181818;stroke-width:1.0;" x1="245" x2="446" y1="148.1152" y2="148.1152"/><text fill="#000000" font-family="sans-serif" font-size="13" font-weight="bold" lengthAdjust="spacing" textLength="25" x="252" y="142.8525">16.1</text><text fill="#000000" font-family="sans-serif" font-size="13" lengthAdjust="spacing" textLength="159" x="281" y="142.8525">addSkills (skills, employee)</text><path d="M425.5,163.1152 L498.5,163.1152 L498.5,172.4063 L488.5,182.4063 L425.5,182.4063 L425.5,163.1152 " fill="#EEEEEE" style="stroke:#000000;stroke-width:1.5;"/><rect fill="none" height="50.582" style="stroke:#000000;stroke-width:1.5;" width="278" x="425.5" y="163.1152"/><text fill="#000000" font-family="sans-serif" font-size="13" font-weight="bold" lengthAdjust="spacing" textLength="28" x="440.5" y="178.1436">loop</text><text fill="#000000" font-family="sans-serif" font-size="11" font-weight="bold" lengthAdjust="spacing" textLength="125" x="513.5" y="176.9854">[for each skill in Skills]</text><polygon fill="#181818" points="639,201.6973,649,205.6973,639,209.6973,643,205.6973" style="stroke:#181818;stroke-width:1.0;"/><line style="stroke:#181818;stroke-width:1.0;" x1="462" x2="645" y1="205.6973" y2="205.6973"/><text fill="#000000" font-family="sans-serif" font-size="13" font-weight="bold" lengthAdjust="spacing" textLength="25" x="469" y="200.4346">16.2</text><text fill="#000000" font-family="sans-serif" font-size="13" lengthAdjust="spacing" textLength="141" x="498" y="200.4346">addSkill(skill, employee)</text><path d="M181,227.6973 L242,227.6973 L242,236.9883 L232,246.9883 L181,246.9883 L181,227.6973 " fill="#EEEEEE" style="stroke:#000000;stroke-width:1.5;"/><rect fill="none" height="161.0859" style="stroke:#000000;stroke-width:1.5;" width="522.5" x="181" y="227.6973"/><text fill="#000000" font-family="sans-serif" font-size="13" font-weight="bold" lengthAdjust="spacing" textLength="16" x="196" y="242.7256">alt</text><text fill="#000000" font-family="sans-serif" font-size="11" font-weight="bold" lengthAdjust="spacing" textLength="47" x="257" y="241.5674">[if error]</text><polygon fill="#181818" points="473,266.2793,463,270.2793,473,274.2793,469,270.2793" style="stroke:#181818;stroke-width:1.0;"/><line style="stroke:#181818;stroke-width:1.0;" x1="467" x2="650" y1="270.2793" y2="270.2793"/><text fill="#000000" font-family="sans-serif" font-size="13" font-weight="bold" lengthAdjust="spacing" textLength="25" x="479" y="265.0166">16.3</text><text fill="#000000" font-family="sans-serif" font-size="13" lengthAdjust="spacing" textLength="63" x="508" y="265.0166">return error</text><polygon fill="#181818" points="256,297.5703,246,301.5703,256,305.5703,252,301.5703" style="stroke:#181818;stroke-width:1.0;"/><line style="stroke:#181818;stroke-width:1.0;" x1="250" x2="451" y1="301.5703" y2="301.5703"/><text fill="#000000" font-family="sans-serif" font-size="13" font-weight="bold" lengthAdjust="spacing" textLength="25" x="262" y="296.3076">16.4</text><text fill="#000000" font-family="sans-serif" font-size="13" lengthAdjust="spacing" textLength="63" x="291" y="296.3076">return error</text><line style="stroke:#000000;stroke-width:1.0;stroke-dasharray:2.0,2.0;" x1="181" x2="703.5" y1="310.5703" y2="310.5703"/><text fill="#000000" font-family="sans-serif" font-size="11" font-weight="bold" lengthAdjust="spacing" textLength="65" x="186" y="322.4404">[if success]</text><polygon fill="#181818" points="473,345.4922,463,349.4922,473,353.4922,469,349.4922" style="stroke:#181818;stroke-width:1.0;"/><line style="stroke:#181818;stroke-width:1.0;" x1="467" x2="650" y1="349.4922" y2="349.4922"/><text fill="#000000" font-family="sans-serif" font-size="13" font-weight="bold" lengthAdjust="spacing" textLength="25" x="479" y="344.2295">16.5</text><text fill="#000000" font-family="sans-serif" font-size="13" lengthAdjust="spacing" textLength="131" x="508" y="344.2295">return updated skill list</text><polygon fill="#181818" points="256,376.7832,246,380.7832,256,384.7832,252,380.7832" style="stroke:#181818;stroke-width:1.0;"/><line style="stroke:#181818;stroke-width:1.0;" x1="250" x2="451" y1="380.7832" y2="380.7832"/><text fill="#000000" font-family="sans-serif" font-size="13" font-weight="bold" lengthAdjust="spacing" textLength="25" x="262" y="375.5205">16.6</text><text fill="#000000" font-family="sans-serif" font-size="13" lengthAdjust="spacing" textLength="131" x="291" y="375.5205">return updated skill list</text><polygon fill="#181818" points="11,422.0742,1,426.0742,11,430.0742,7,426.0742" style="stroke:#181818;stroke-width:1.0;"/><line style="stroke:#181818;stroke-width:1.0;stroke-dasharray:2.0,2.0;" x1="5" x2="239" y1="426.0742" y2="426.0742"/><text fill="#000000" font-family="sans-serif" font-size="13" font-weight="bold" lengthAdjust="spacing" textLength="14" x="17" y="420.8115">17</text><text fill="#000000" font-family="sans-serif" font-size="13" lengthAdjust="spacing" textLength="198" x="35" y="420.8115">return the updated skill list or error</text><!--SRC=[ZP91ImCn48Nl-HM3fmfMw4MXY1SF8XOAzkfbcftkXcOpIpAhr5zladQtKLSqbsMJz-PxcKpO6zUXnnPQTgmRpos1-9vK64ywr7kiQIC7I-192xhQbeBGOCNlnjMmGnj8gRWjHfiEdS05-ngT-K0nx5xTSbtyNW06MByyVZN4mjP6vIPzisJp_BHQAOMziElRBNbOtAZvVR8k0QigAyFi-Ba2QZlB1wBBRvRhXK8jvWs5CXNYgZttNQe1HpS8mmDRYrlsAEnLLgKL7H2PEKj1XLduYHrD8-zuXM7RCdUmOm-4ke5S08mxHHXLQMLVuWxLp-WZkEGE9dBLH8H1Tpwn0cO7v7syPmaTbCLzFKdltOHs39WVOr96SIWIAFHQKmZ_HFLT5LDNf-vO4-HlxeHdkYaL_TwMukpyQgExdAZRl7Ctd-VX65D8GnD983rtxai1I6EeFW40]--></g></svg>