<?xml version="1.0" encoding="us-ascii" standalone="no"?><svg xmlns="http://www.w3.org/2000/svg" xmlns:xlink="http://www.w3.org/1999/xlink" contentStyleType="text/css" height="1061px" preserveAspectRatio="none" style="width:1059px;height:1061px;background:#FFFFFF;" version="1.1" viewBox="0 0 1059 1061" width="1059px" zoomAndPan="magnify"><defs/><g><rect fill="#FFFFFF" height="867.0801" style="stroke:#181818;stroke-width:1.0;" width="10" x="91" y="93.6211"/><rect fill="#FFFFFF" height="201.707" style="stroke:#181818;stroke-width:1.0;" width="10" x="478" y="116.9121"/><rect fill="#FFFFFF" height="161.7461" style="stroke:#181818;stroke-width:1.0;" width="10" x="478" y="349.9102"/><rect fill="#FFFFFF" height="417.7539" style="stroke:#181818;stroke-width:1.0;" width="10" x="478" y="542.9473"/><rect fill="#FFFFFF" height="95.5039" style="stroke:#181818;stroke-width:1.0;" width="10" x="731" y="191.8242"/><rect fill="#FFFFFF" height="355.1719" style="stroke:#181818;stroke-width:1.0;" width="10" x="731" y="574.2383"/><rect fill="#FFFFFF" height="106.5039" style="stroke:#181818;stroke-width:1.0;" width="10" x="736" y="613.5293"/><rect fill="#FFFFFF" height="95.5039" style="stroke:#181818;stroke-width:1.0;" width="10" x="957" y="802.6152"/><rect fill="none" height="99.1641" style="stroke:#000000;stroke-width:1.5;" width="523" x="10" y="364.9102"/><line style="stroke:#181818;stroke-width:0.5;stroke-dasharray:5.0,5.0;" x1="96" x2="96" y1="83.6211" y2="978.7012"/><line style="stroke:#181818;stroke-width:0.5;stroke-dasharray:5.0,5.0;" x1="483" x2="483" y1="83.6211" y2="978.7012"/><line style="stroke:#181818;stroke-width:0.5;stroke-dasharray:5.0,5.0;" x1="736" x2="736" y1="156.7227" y2="978.7012"/><line style="stroke:#181818;stroke-width:0.5;stroke-dasharray:5.0,5.0;" x1="962" x2="962" y1="83.6211" y2="978.7012"/><text fill="#000000" font-family="sans-serif" font-size="14" lengthAdjust="spacing" textLength="146" x="20" y="80.1074">Organization Employee</text><ellipse cx="96" cy="13.5" fill="#E3E3E3" rx="8" ry="8" style="stroke:#181818;stroke-width:0.5;"/><path d="M96,21.5 L96,48.5 M83,29.5 L109,29.5 M96,48.5 L83,63.5 M96,48.5 L109,63.5 " fill="none" style="stroke:#181818;stroke-width:0.5;"/><text fill="#000000" font-family="sans-serif" font-size="14" lengthAdjust="spacing" textLength="146" x="20" y="992.8086">Organization Employee</text><ellipse cx="96" cy="1004.8223" fill="#E3E3E3" rx="8" ry="8" style="stroke:#181818;stroke-width:0.5;"/><path d="M96,1012.8223 L96,1039.8223 M83,1020.8223 L109,1020.8223 M96,1039.8223 L83,1054.8223 M96,1039.8223 L109,1054.8223 " fill="none" style="stroke:#181818;stroke-width:0.5;"/><rect fill="#E3E3E3" height="32.6211" rx="2.5" ry="2.5" style="stroke:#181818;stroke-width:0.5;" width="80" x="443" y="50"/><text fill="#000000" font-family="sans-serif" font-size="14" lengthAdjust="spacing" textLength="66" x="450" y="72.1074">:AddSkillUI</text><rect fill="#E3E3E3" height="32.6211" rx="2.5" ry="2.5" style="stroke:#181818;stroke-width:0.5;" width="80" x="443" y="977.7012"/><text fill="#000000" font-family="sans-serif" font-size="14" lengthAdjust="spacing" textLength="66" x="450" y="999.8086">:AddSkillUI</text><rect fill="#E3E3E3" height="32.6211" rx="2.5" ry="2.5" style="stroke:#181818;stroke-width:0.5;" width="130" x="671" y="977.7012"/><text fill="#000000" font-family="sans-serif" font-size="14" lengthAdjust="spacing" textLength="116" x="678" y="999.8086">:AddSkillController</text><rect fill="#E3E3E3" height="51.2422" rx="2.5" ry="2.5" style="stroke:#181818;stroke-width:0.5;" width="98" x="913" y="31.3789"/><text fill="#000000" font-family="sans-serif" font-size="14" lengthAdjust="spacing" textLength="77" x="923.5" y="53.4863">organization</text><text fill="#000000" font-family="sans-serif" font-size="14" lengthAdjust="spacing" textLength="84" x="920" y="72.1074">:Organization</text><rect fill="#E3E3E3" height="51.2422" rx="2.5" ry="2.5" style="stroke:#181818;stroke-width:0.5;" width="98" x="913" y="977.7012"/><text fill="#000000" font-family="sans-serif" font-size="14" lengthAdjust="spacing" textLength="77" x="923.5" y="999.8086">organization</text><text fill="#000000" font-family="sans-serif" font-size="14" lengthAdjust="spacing" textLength="84" x="920" y="1018.4297">:Organization</text><rect fill="#FFFFFF" height="867.0801" style="stroke:#181818;stroke-width:1.0;" width="10" x="91" y="93.6211"/><rect fill="#FFFFFF" height="201.707" style="stroke:#181818;stroke-width:1.0;" width="10" x="478" y="116.9121"/><rect fill="#FFFFFF" height="161.7461" style="stroke:#181818;stroke-width:1.0;" width="10" x="478" y="349.9102"/><rect fill="#FFFFFF" height="417.7539" style="stroke:#181818;stroke-width:1.0;" width="10" x="478" y="542.9473"/><rect fill="#FFFFFF" height="95.5039" style="stroke:#181818;stroke-width:1.0;" width="10" x="731" y="191.8242"/><rect fill="#FFFFFF" height="355.1719" style="stroke:#181818;stroke-width:1.0;" width="10" x="731" y="574.2383"/><rect fill="#FFFFFF" height="106.5039" style="stroke:#181818;stroke-width:1.0;" width="10" x="736" y="613.5293"/><rect fill="#FFFFFF" height="95.5039" style="stroke:#181818;stroke-width:1.0;" width="10" x="957" y="802.6152"/><polygon fill="#181818" points="466,112.9121,476,116.9121,466,120.9121,470,116.9121" style="stroke:#181818;stroke-width:1.0;"/><line style="stroke:#181818;stroke-width:1.0;" x1="101" x2="472" y1="116.9121" y2="116.9121"/><text fill="#000000" font-family="sans-serif" font-size="13" font-weight="bold" lengthAdjust="spacing" textLength="7" x="108" y="111.6494">1</text><text fill="#000000" font-family="sans-serif" font-size="13" lengthAdjust="spacing" textLength="203" x="119" y="111.6494">asks to add a skill to a collaborator</text><polygon fill="#181818" points="659,144.2031,669,148.2031,659,152.2031,663,148.2031" style="stroke:#181818;stroke-width:1.0;"/><line style="stroke:#181818;stroke-width:1.0;" x1="488" x2="665" y1="148.2031" y2="148.2031"/><text fill="#000000" font-family="sans-serif" font-size="13" font-weight="bold" lengthAdjust="spacing" textLength="7" x="495" y="142.9404">2</text><text fill="#000000" font-family="sans-serif" font-size="13" lengthAdjust="spacing" textLength="21" x="506" y="142.9404">add</text><rect fill="#E3E3E3" height="32.6211" rx="2.5" ry="2.5" style="stroke:#181818;stroke-width:0.5;" width="130" x="671" y="124.9121"/><text fill="#000000" font-family="sans-serif" font-size="14" lengthAdjust="spacing" textLength="116" x="678" y="147.0195">:AddSkillController</text><polygon fill="#181818" points="719,187.8242,729,191.8242,719,195.8242,723,191.8242" style="stroke:#181818;stroke-width:1.0;"/><line style="stroke:#181818;stroke-width:1.0;" x1="488" x2="725" y1="191.8242" y2="191.8242"/><text fill="#000000" font-family="sans-serif" font-size="13" font-weight="bold" lengthAdjust="spacing" textLength="7" x="495" y="186.5615">3</text><text fill="#000000" font-family="sans-serif" font-size="13" lengthAdjust="spacing" textLength="58" x="506" y="186.5615">getSkills()</text><rect fill="none" height="59.2129" style="stroke:#000000;stroke-width:1.5;" width="136" x="668" y="199.8242"/><path d="M668,199.8242 L730,199.8242 L730,208.8242 L720,218.8242 L668,218.8242 L668,199.8242 " fill="#EEEEEE" style="stroke:#000000;stroke-width:2.0;"/><text fill="#000000" font-family="sans-serif" font-size="13" font-weight="bold" lengthAdjust="spacing" textLength="17" x="681" y="215.8525">ref</text><text fill="#000000" font-family="sans-serif" font-size="12" lengthAdjust="spacing" textLength="68" x="702" y="235.7734">Get Skill List</text><text fill="#000000" font-family="sans-serif" font-size="12" lengthAdjust="spacing" textLength="3" x="734.5" y="251.7344">&#160;</text><polygon fill="#181818" points="499,283.3281,489,287.3281,499,291.3281,495,287.3281" style="stroke:#181818;stroke-width:1.0;"/><line style="stroke:#181818;stroke-width:1.0;stroke-dasharray:2.0,2.0;" x1="493" x2="735" y1="287.3281" y2="287.3281"/><text fill="#000000" font-family="sans-serif" font-size="13" font-weight="bold" lengthAdjust="spacing" textLength="7" x="505" y="282.0654">4</text><text fill="#000000" font-family="sans-serif" font-size="13" lengthAdjust="spacing" textLength="46" x="516" y="282.0654">SkillList</text><polygon fill="#181818" points="112,314.6191,102,318.6191,112,322.6191,108,318.6191" style="stroke:#181818;stroke-width:1.0;"/><line style="stroke:#181818;stroke-width:1.0;stroke-dasharray:2.0,2.0;" x1="106" x2="482" y1="318.6191" y2="318.6191"/><text fill="#000000" font-family="sans-serif" font-size="13" font-weight="bold" lengthAdjust="spacing" textLength="7" x="118" y="313.3564">5</text><text fill="#000000" font-family="sans-serif" font-size="13" lengthAdjust="spacing" textLength="211" x="129" y="313.3564">requests desired collaborator's email</text><polygon fill="#181818" points="466,345.9102,476,349.9102,466,353.9102,470,349.9102" style="stroke:#181818;stroke-width:1.0;"/><line style="stroke:#181818;stroke-width:1.0;" x1="101" x2="472" y1="349.9102" y2="349.9102"/><text fill="#000000" font-family="sans-serif" font-size="13" font-weight="bold" lengthAdjust="spacing" textLength="7" x="108" y="344.6475">6</text><text fill="#000000" font-family="sans-serif" font-size="13" lengthAdjust="spacing" textLength="128" x="119" y="344.6475">types requested email</text><path d="M10,364.9102 L83,364.9102 L83,374.2012 L73,384.2012 L10,384.2012 L10,364.9102 " fill="#EEEEEE" style="stroke:#000000;stroke-width:1.5;"/><rect fill="none" height="99.1641" style="stroke:#000000;stroke-width:1.5;" width="523" x="10" y="364.9102"/><text fill="#000000" font-family="sans-serif" font-size="13" font-weight="bold" lengthAdjust="spacing" textLength="28" x="25" y="379.9385">loop</text><text fill="#000000" font-family="sans-serif" font-size="11" font-weight="bold" lengthAdjust="spacing" textLength="111" x="98" y="378.7803">[while adding skills]</text><polygon fill="#181818" points="112,420.7832,102,424.7832,112,428.7832,108,424.7832" style="stroke:#181818;stroke-width:1.0;"/><line style="stroke:#181818;stroke-width:1.0;stroke-dasharray:2.0,2.0;" x1="106" x2="477" y1="424.7832" y2="424.7832"/><text fill="#000000" font-family="sans-serif" font-size="13" font-weight="bold" lengthAdjust="spacing" textLength="7" x="118" y="410.875">7</text><text fill="#000000" font-family="sans-serif" font-size="13" lengthAdjust="spacing" textLength="342" x="129" y="402.2295">shows skill category list that the collaborator does not have</text><text fill="#000000" font-family="sans-serif" font-size="13" lengthAdjust="spacing" textLength="132" x="129" y="419.5205">and asks to select one</text><polygon fill="#181818" points="466,452.0742,476,456.0742,466,460.0742,470,456.0742" style="stroke:#181818;stroke-width:1.0;"/><line style="stroke:#181818;stroke-width:1.0;" x1="101" x2="472" y1="456.0742" y2="456.0742"/><text fill="#000000" font-family="sans-serif" font-size="13" font-weight="bold" lengthAdjust="spacing" textLength="7" x="108" y="450.8115">8</text><text fill="#000000" font-family="sans-serif" font-size="13" lengthAdjust="spacing" textLength="80" x="119" y="450.8115">selects a skill</text><polygon fill="#181818" points="112,507.6563,102,511.6563,112,515.6563,108,511.6563" style="stroke:#181818;stroke-width:1.0;"/><line style="stroke:#181818;stroke-width:1.0;stroke-dasharray:2.0,2.0;" x1="106" x2="482" y1="511.6563" y2="511.6563"/><text fill="#000000" font-family="sans-serif" font-size="13" font-weight="bold" lengthAdjust="spacing" textLength="7" x="118" y="497.748">9</text><text fill="#000000" font-family="sans-serif" font-size="13" lengthAdjust="spacing" textLength="245" x="129" y="489.1025">shows selected skills and requested email</text><text fill="#000000" font-family="sans-serif" font-size="13" lengthAdjust="spacing" textLength="145" x="129" y="506.3936">and asks for confirmation</text><polygon fill="#181818" points="466,538.9473,476,542.9473,466,546.9473,470,542.9473" style="stroke:#181818;stroke-width:1.0;"/><line style="stroke:#181818;stroke-width:1.0;" x1="101" x2="472" y1="542.9473" y2="542.9473"/><text fill="#000000" font-family="sans-serif" font-size="13" font-weight="bold" lengthAdjust="spacing" textLength="14" x="108" y="537.6846">10</text><text fill="#000000" font-family="sans-serif" font-size="13" lengthAdjust="spacing" textLength="78" x="126" y="537.6846">confirms data</text><polygon fill="#181818" points="719,570.2383,729,574.2383,719,578.2383,723,574.2383" style="stroke:#181818;stroke-width:1.0;"/><line style="stroke:#181818;stroke-width:1.0;" x1="488" x2="725" y1="574.2383" y2="574.2383"/><text fill="#000000" font-family="sans-serif" font-size="13" font-weight="bold" lengthAdjust="spacing" textLength="14" x="495" y="568.9756">11</text><text fill="#000000" font-family="sans-serif" font-size="13" lengthAdjust="spacing" textLength="206" x="513" y="568.9756">addSkillToCollaborator(email, skills)</text><line style="stroke:#181818;stroke-width:1.0;" x1="741" x2="788" y1="600.5293" y2="600.5293"/><line style="stroke:#181818;stroke-width:1.0;" x1="788" x2="788" y1="600.5293" y2="613.5293"/><line style="stroke:#181818;stroke-width:1.0;" x1="747" x2="788" y1="613.5293" y2="613.5293"/><polygon fill="#181818" points="757,609.5293,747,613.5293,757,617.5293,753,613.5293" style="stroke:#181818;stroke-width:1.0;"/><text fill="#000000" font-family="sans-serif" font-size="13" font-weight="bold" lengthAdjust="spacing" textLength="14" x="753" y="595.2666">12</text><text fill="#000000" font-family="sans-serif" font-size="13" lengthAdjust="spacing" textLength="161" x="771" y="595.2666">getEmployeeFromSession()</text><rect fill="none" height="59.2129" style="stroke:#000000;stroke-width:1.5;" width="136" x="668" y="626.5293"/><path d="M668,626.5293 L730,626.5293 L730,635.5293 L720,645.5293 L668,645.5293 L668,626.5293 " fill="#EEEEEE" style="stroke:#000000;stroke-width:2.0;"/><text fill="#000000" font-family="sans-serif" font-size="13" font-weight="bold" lengthAdjust="spacing" textLength="17" x="681" y="642.5576">ref</text><text fill="#000000" font-family="sans-serif" font-size="12" lengthAdjust="spacing" textLength="77" x="697.5" y="662.4785">Get Employee</text><text fill="#000000" font-family="sans-serif" font-size="12" lengthAdjust="spacing" textLength="3" x="734.5" y="678.4395">&#160;</text><line style="stroke:#181818;stroke-width:1.0;" x1="746" x2="788" y1="719.0332" y2="719.0332"/><line style="stroke:#181818;stroke-width:1.0;" x1="788" x2="788" y1="719.0332" y2="732.0332"/><line style="stroke:#181818;stroke-width:1.0;" x1="741" x2="788" y1="732.0332" y2="732.0332"/><polygon fill="#181818" points="751,728.0332,741,732.0332,751,736.0332,747,732.0332" style="stroke:#181818;stroke-width:1.0;"/><text fill="#000000" font-family="sans-serif" font-size="13" font-weight="bold" lengthAdjust="spacing" textLength="14" x="753" y="713.7705">13</text><text fill="#000000" font-family="sans-serif" font-size="13" lengthAdjust="spacing" textLength="56" x="771" y="713.7705">employee</text><line style="stroke:#181818;stroke-width:1.0;" x1="741" x2="783" y1="758.3242" y2="758.3242"/><line style="stroke:#181818;stroke-width:1.0;" x1="783" x2="783" y1="758.3242" y2="771.3242"/><line style="stroke:#181818;stroke-width:1.0;" x1="742" x2="783" y1="771.3242" y2="771.3242"/><polygon fill="#181818" points="752,767.3242,742,771.3242,752,775.3242,748,771.3242" style="stroke:#181818;stroke-width:1.0;"/><text fill="#000000" font-family="sans-serif" font-size="13" font-weight="bold" lengthAdjust="spacing" textLength="14" x="748" y="753.0615">14</text><text fill="#000000" font-family="sans-serif" font-size="13" lengthAdjust="spacing" textLength="164" x="766" y="753.0615">getEmployeeByEmail(email)</text><polygon fill="#181818" points="945,798.6152,955,802.6152,945,806.6152,949,802.6152" style="stroke:#181818;stroke-width:1.0;"/><line style="stroke:#181818;stroke-width:1.0;" x1="741" x2="951" y1="802.6152" y2="802.6152"/><text fill="#000000" font-family="sans-serif" font-size="13" font-weight="bold" lengthAdjust="spacing" textLength="14" x="748" y="797.3525">15</text><text fill="#000000" font-family="sans-serif" font-size="13" lengthAdjust="spacing" textLength="166" x="766" y="797.3525">addSkills(collaborator, skills)</text><rect fill="none" height="59.2129" style="stroke:#000000;stroke-width:1.5;" width="143" x="910" y="810.6152"/><path d="M910,810.6152 L972,810.6152 L972,819.6152 L962,829.6152 L910,829.6152 L910,810.6152 " fill="#EEEEEE" style="stroke:#000000;stroke-width:2.0;"/><text fill="#000000" font-family="sans-serif" font-size="13" font-weight="bold" lengthAdjust="spacing" textLength="17" x="923" y="826.6436">ref</text><text fill="#000000" font-family="sans-serif" font-size="12" lengthAdjust="spacing" textLength="135" x="914" y="846.5645">Add Skill To Collaborator</text><text fill="#000000" font-family="sans-serif" font-size="12" lengthAdjust="spacing" textLength="3" x="980" y="862.5254">&#160;</text><polygon fill="#181818" points="752,894.1191,742,898.1191,752,902.1191,748,898.1191" style="stroke:#181818;stroke-width:1.0;"/><line style="stroke:#181818;stroke-width:1.0;stroke-dasharray:2.0,2.0;" x1="746" x2="961" y1="898.1191" y2="898.1191"/><text fill="#000000" font-family="sans-serif" font-size="13" font-weight="bold" lengthAdjust="spacing" textLength="14" x="758" y="892.8564">16</text><text fill="#000000" font-family="sans-serif" font-size="13" lengthAdjust="spacing" textLength="174" x="776" y="892.8564">updated collaborator's skill list</text><polygon fill="#181818" points="499,925.4102,489,929.4102,499,933.4102,495,929.4102" style="stroke:#181818;stroke-width:1.0;"/><line style="stroke:#181818;stroke-width:1.0;stroke-dasharray:2.0,2.0;" x1="493" x2="735" y1="929.4102" y2="929.4102"/><text fill="#000000" font-family="sans-serif" font-size="13" font-weight="bold" lengthAdjust="spacing" textLength="14" x="505" y="924.1475">17</text><text fill="#000000" font-family="sans-serif" font-size="13" lengthAdjust="spacing" textLength="174" x="523" y="924.1475">updated collaborator's skill list</text><polygon fill="#181818" points="107,956.7012,97,960.7012,107,964.7012,103,960.7012" style="stroke:#181818;stroke-width:1.0;"/><line style="stroke:#181818;stroke-width:1.0;stroke-dasharray:2.0,2.0;" x1="101" x2="482" y1="960.7012" y2="960.7012"/><text fill="#000000" font-family="sans-serif" font-size="13" font-weight="bold" lengthAdjust="spacing" textLength="14" x="113" y="955.4385">18</text><text fill="#000000" font-family="sans-serif" font-size="13" lengthAdjust="spacing" textLength="158" x="131" y="955.4385">displays operation success</text><!--SRC=[fLLDRzim3BtxLn2zD2tMFv33W2xhYW8T2lJZrWjhCR4GMVH49LtswqVBSIB7ILTWFWI9HJu-FZqoihI-mO0rrEovh0BN136ig93TIOFb4XVq53UE850PqIzS7Y0L6dwtVW5pT495WQl8VbM_KIYAyyeQWZbpVEFV1PQH0vmzX0Lw-mUZPGytTUDuGtG6A73z_MUXgD6Mja4VuMnwRSpJqZhtSfS2NkvEdC_Ony3EKKXni-V7-s4aPqLV_JJda38U7c-Bbg1TOwH4f01zz0jSVTMwCDMefK1aG6C0GTgowIUKMXZVEA2srwNjW9HmUj4-2g9GBRNBonREc2D7Uh2Wc7gIoSKk8D0SU4sXwmoovvOYf72ujnBtrSYRDcl_OiSfGGmmKk6hli-4bi3wSqC7oGFYcjVADDLolrOaKJHUR20p4EPSW6gqhZW0x1NAbOwRXgI7KvnzOfxMSt3C3RnNLWsgchPEJ7SZWnO7HANYTzdUOAbe2muRSDenn0hR3nfG1yDAntE42jVqwb6bxSqWv7GeW3qDokNTT27IUoQ_eU8ZUYbDk- -w0KmNEf0aep9NcYNxkGrrClLdPDx6wtrXnC_ujdDjyiSpppA59edEbotLYrEUEsAwtFNzBlYXY-Y9HBIDR0J-uU6FfoIVbhxCEB-VcSFt1rIf1yXZHZFokLw_RMvQwJe1BuvdwMxQ2o-Jt9fZoGSofQrsKgNsz9X8kbItA-MPOJPQRiSKAyP7YfuylUrvrQZBnZkX6qANRvi3DKSzPDlgFs175jcFu1ICbSRXHe0R2jqVbQpAKZrvRAwod-qVnry0]--></g></svg>