<?xml version="1.0" encoding="us-ascii" standalone="no"?><svg xmlns="http://www.w3.org/2000/svg" xmlns:xlink="http://www.w3.org/1999/xlink" contentStyleType="text/css" height="500px" preserveAspectRatio="none" style="width:830px;height:500px;background:#FFFFFF;" version="1.1" viewBox="0 0 830 500" width="830px" zoomAndPan="magnify"><defs/><g><rect fill="#FFFFFF" height="335.541" style="stroke:#181818;stroke-width:1.0;" width="10" x="277" y="90.5332"/><rect fill="#FFFFFF" height="247.668" style="stroke:#181818;stroke-width:1.0;" width="10" x="559" y="148.1152"/><rect fill="#FFFFFF" height="328.541" style="stroke:#181818;stroke-width:1.0;" width="10" x="762" y="67.2422"/><rect fill="none" height="290.25" style="stroke:#000000;stroke-width:1.5;" width="611.5" x="213" y="105.5332"/><rect fill="none" height="50.582" style="stroke:#000000;stroke-width:1.5;" width="282" x="532.5" y="163.1152"/><rect fill="none" height="161.0859" style="stroke:#000000;stroke-width:1.5;" width="591.5" x="223" y="227.6973"/><line style="stroke:#181818;stroke-width:0.5;stroke-dasharray:5.0,5.0;" x1="282" x2="282" y1="57.2422" y2="444.0742"/><line style="stroke:#181818;stroke-width:0.5;stroke-dasharray:5.0,5.0;" x1="563.5" x2="563.5" y1="57.2422" y2="444.0742"/><line style="stroke:#181818;stroke-width:0.5;stroke-dasharray:5.0,5.0;" x1="766.5" x2="766.5" y1="57.2422" y2="444.0742"/><rect fill="#E3E3E3" height="51.2422" rx="2.5" ry="2.5" style="stroke:#181818;stroke-width:0.5;" width="98" x="233" y="5"/><text fill="#000000" font-family="sans-serif" font-size="14" lengthAdjust="spacing" textLength="77" x="243.5" y="27.1074">organization</text><text fill="#000000" font-family="sans-serif" font-size="14" lengthAdjust="spacing" textLength="84" x="240" y="45.7285">:Organization</text><rect fill="#E3E3E3" height="51.2422" rx="2.5" ry="2.5" style="stroke:#181818;stroke-width:0.5;" width="98" x="233" y="443.0742"/><text fill="#000000" font-family="sans-serif" font-size="14" lengthAdjust="spacing" textLength="77" x="243.5" y="465.1816">organization</text><text fill="#000000" font-family="sans-serif" font-size="14" lengthAdjust="spacing" textLength="84" x="240" y="483.8027">:Organization</text><rect fill="#E3E3E3" height="51.2422" rx="2.5" ry="2.5" style="stroke:#181818;stroke-width:0.5;" width="43" x="542.5" y="5"/><text fill="#000000" font-family="sans-serif" font-size="14" lengthAdjust="spacing" textLength="23" x="552.5" y="27.1074">skill</text><text fill="#000000" font-family="sans-serif" font-size="14" lengthAdjust="spacing" textLength="29" x="549.5" y="45.7285">:Skill</text><rect fill="#E3E3E3" height="51.2422" rx="2.5" ry="2.5" style="stroke:#181818;stroke-width:0.5;" width="43" x="542.5" y="443.0742"/><text fill="#000000" font-family="sans-serif" font-size="14" lengthAdjust="spacing" textLength="23" x="552.5" y="465.1816">skill</text><text fill="#000000" font-family="sans-serif" font-size="14" lengthAdjust="spacing" textLength="29" x="549.5" y="483.8027">:Skill</text><rect fill="#E3E3E3" height="32.6211" rx="2.5" ry="2.5" style="stroke:#181818;stroke-width:0.5;" width="75" x="729.5" y="23.6211"/><text fill="#000000" font-family="sans-serif" font-size="14" lengthAdjust="spacing" textLength="61" x="736.5" y="45.7285">employee</text><rect fill="#E3E3E3" height="32.6211" rx="2.5" ry="2.5" style="stroke:#181818;stroke-width:0.5;" width="75" x="729.5" y="443.0742"/><text fill="#000000" font-family="sans-serif" font-size="14" lengthAdjust="spacing" textLength="61" x="736.5" y="465.1816">employee</text><rect fill="#FFFFFF" height="335.541" style="stroke:#181818;stroke-width:1.0;" width="10" x="277" y="90.5332"/><rect fill="#FFFFFF" height="247.668" style="stroke:#181818;stroke-width:1.0;" width="10" x="559" y="148.1152"/><rect fill="#FFFFFF" height="328.541" style="stroke:#181818;stroke-width:1.0;" width="10" x="762" y="67.2422"/><polygon fill="#181818" points="265,86.5332,275,90.5332,265,94.5332,269,90.5332" style="stroke:#181818;stroke-width:1.0;"/><line style="stroke:#181818;stroke-width:1.0;" x1="0" x2="271" y1="90.5332" y2="90.5332"/><text fill="#000000" font-family="sans-serif" font-size="13" font-weight="bold" lengthAdjust="spacing" textLength="14" x="7" y="85.2705">16</text><text fill="#000000" font-family="sans-serif" font-size="13" lengthAdjust="spacing" textLength="240" x="25" y="85.2705">addSkillsToCollaborator(Skills, employee)</text><path d="M213,105.5332 L419,105.5332 L419,114.8242 L409,124.8242 L213,124.8242 L213,105.5332 " fill="#EEEEEE" style="stroke:#000000;stroke-width:1.5;"/><rect fill="none" height="290.25" style="stroke:#000000;stroke-width:1.5;" width="611.5" x="213" y="105.5332"/><text fill="#000000" font-family="sans-serif" font-size="13" font-weight="bold" lengthAdjust="spacing" textLength="161" x="228" y="120.5615">add Skills to Collaborator</text><polygon fill="#181818" points="547,144.1152,557,148.1152,547,152.1152,551,148.1152" style="stroke:#181818;stroke-width:1.0;"/><line style="stroke:#181818;stroke-width:1.0;" x1="287" x2="553" y1="148.1152" y2="148.1152"/><text fill="#000000" font-family="sans-serif" font-size="13" font-weight="bold" lengthAdjust="spacing" textLength="25" x="294" y="142.8525">16.1</text><text fill="#000000" font-family="sans-serif" font-size="13" lengthAdjust="spacing" textLength="224" x="323" y="142.8525">addSkillToEmployee (skills, employee)</text><path d="M532.5,163.1152 L605.5,163.1152 L605.5,172.4063 L595.5,182.4063 L532.5,182.4063 L532.5,163.1152 " fill="#EEEEEE" style="stroke:#000000;stroke-width:1.5;"/><rect fill="none" height="50.582" style="stroke:#000000;stroke-width:1.5;" width="282" x="532.5" y="163.1152"/><text fill="#000000" font-family="sans-serif" font-size="13" font-weight="bold" lengthAdjust="spacing" textLength="28" x="547.5" y="178.1436">loop</text><text fill="#000000" font-family="sans-serif" font-size="11" font-weight="bold" lengthAdjust="spacing" textLength="125" x="620.5" y="176.9854">[for each skill in Skills]</text><polygon fill="#181818" points="750,201.6973,760,205.6973,750,209.6973,754,205.6973" style="stroke:#181818;stroke-width:1.0;"/><line style="stroke:#181818;stroke-width:1.0;" x1="569" x2="756" y1="205.6973" y2="205.6973"/><text fill="#000000" font-family="sans-serif" font-size="13" font-weight="bold" lengthAdjust="spacing" textLength="25" x="576" y="200.4346">16.2</text><text fill="#000000" font-family="sans-serif" font-size="13" lengthAdjust="spacing" textLength="145" x="605" y="200.4346">addSkill (skill, employee)</text><path d="M223,227.6973 L284,227.6973 L284,236.9883 L274,246.9883 L223,246.9883 L223,227.6973 " fill="#EEEEEE" style="stroke:#000000;stroke-width:1.5;"/><rect fill="none" height="161.0859" style="stroke:#000000;stroke-width:1.5;" width="591.5" x="223" y="227.6973"/><text fill="#000000" font-family="sans-serif" font-size="13" font-weight="bold" lengthAdjust="spacing" textLength="16" x="238" y="242.7256">alt</text><text fill="#000000" font-family="sans-serif" font-size="11" font-weight="bold" lengthAdjust="spacing" textLength="47" x="299" y="241.5674">[if error]</text><polygon fill="#181818" points="580,266.2793,570,270.2793,580,274.2793,576,270.2793" style="stroke:#181818;stroke-width:1.0;"/><line style="stroke:#181818;stroke-width:1.0;" x1="574" x2="761" y1="270.2793" y2="270.2793"/><text fill="#000000" font-family="sans-serif" font-size="13" font-weight="bold" lengthAdjust="spacing" textLength="25" x="586" y="265.0166">16.3</text><text fill="#000000" font-family="sans-serif" font-size="13" lengthAdjust="spacing" textLength="63" x="615" y="265.0166">return error</text><polygon fill="#181818" points="298,297.5703,288,301.5703,298,305.5703,294,301.5703" style="stroke:#181818;stroke-width:1.0;"/><line style="stroke:#181818;stroke-width:1.0;" x1="292" x2="558" y1="301.5703" y2="301.5703"/><text fill="#000000" font-family="sans-serif" font-size="13" font-weight="bold" lengthAdjust="spacing" textLength="25" x="304" y="296.3076">16.4</text><text fill="#000000" font-family="sans-serif" font-size="13" lengthAdjust="spacing" textLength="63" x="333" y="296.3076">return error</text><line style="stroke:#000000;stroke-width:1.0;stroke-dasharray:2.0,2.0;" x1="223" x2="814.5" y1="310.5703" y2="310.5703"/><text fill="#000000" font-family="sans-serif" font-size="11" font-weight="bold" lengthAdjust="spacing" textLength="65" x="228" y="322.4404">[if success]</text><polygon fill="#181818" points="580,345.4922,570,349.4922,580,353.4922,576,349.4922" style="stroke:#181818;stroke-width:1.0;"/><line style="stroke:#181818;stroke-width:1.0;" x1="574" x2="761" y1="349.4922" y2="349.4922"/><text fill="#000000" font-family="sans-serif" font-size="13" font-weight="bold" lengthAdjust="spacing" textLength="25" x="586" y="344.2295">16.5</text><text fill="#000000" font-family="sans-serif" font-size="13" lengthAdjust="spacing" textLength="131" x="615" y="344.2295">return updated skill list</text><polygon fill="#181818" points="298,376.7832,288,380.7832,298,384.7832,294,380.7832" style="stroke:#181818;stroke-width:1.0;"/><line style="stroke:#181818;stroke-width:1.0;" x1="292" x2="558" y1="380.7832" y2="380.7832"/><text fill="#000000" font-family="sans-serif" font-size="13" font-weight="bold" lengthAdjust="spacing" textLength="25" x="304" y="375.5205">16.6</text><text fill="#000000" font-family="sans-serif" font-size="13" lengthAdjust="spacing" textLength="131" x="333" y="375.5205">return updated skill list</text><polygon fill="#181818" points="11,422.0742,1,426.0742,11,430.0742,7,426.0742" style="stroke:#181818;stroke-width:1.0;"/><line style="stroke:#181818;stroke-width:1.0;stroke-dasharray:2.0,2.0;" x1="5" x2="281" y1="426.0742" y2="426.0742"/><text fill="#000000" font-family="sans-serif" font-size="13" font-weight="bold" lengthAdjust="spacing" textLength="14" x="17" y="420.8115">17</text><text fill="#000000" font-family="sans-serif" font-size="13" lengthAdjust="spacing" textLength="198" x="35" y="420.8115">return the updated skill list or error</text><!--SRC=[ZL9DImCn4BtdLmmzLR12Bmf5l8Y8M2ZO7hrCizFTq6ncIR9A_VKcwNv4NT5SbfrvRzwR3tTKfa6BDTHiM5QMQm9lMn9ko3GeZrZIrfyqWINfqPGw1xWA2tvNfeG3QaT2XB1NKZLeFCpObcZK1th5vjMiDjdl3D31vkNnAo4KrZeWj_6R8Dldf_LQ26mzcxRUauNbjLZSHUeAi2WIqktudhN6FLlqREVdu2LGtMW-4LryAt2r52YzUaDFoGE4LrfkcrWHpcpm37bHaL3n1GO41ydPw6773vqQpDrF_O4z29yxwyEQkO43Mo2K5QG2e4pdPK35btZHG5zzzD0fvy8zYqmnuQ77ZHdjGHs0h0qTvwezCklSac-jcS0E3jEI9c4KZYKAkLPASkwVKcrJ1DT5DnwjdFzRTu8pFPI2VXzBbXlNDh3psxf9aTl58ft9uC9NDE44uhxJN3A1U93Y4m00]--></g></svg>