<?xml version="1.0" encoding="us-ascii" standalone="no"?><svg xmlns="http://www.w3.org/2000/svg" xmlns:xlink="http://www.w3.org/1999/xlink" contentStyleType="text/css" height="1044px" preserveAspectRatio="none" style="width:1025px;height:1044px;background:#FFFFFF;" version="1.1" viewBox="0 0 1025 1044" width="1025px" zoomAndPan="magnify"><defs/><g><rect fill="#FFFFFF" height="849.7891" style="stroke:#181818;stroke-width:1.0;" width="10" x="91" y="93.6211"/><rect fill="#FFFFFF" height="274.2891" style="stroke:#181818;stroke-width:1.0;" width="10" x="381" y="116.9121"/><rect fill="#FFFFFF" height="48.582" style="stroke:#181818;stroke-width:1.0;" width="10" x="381" y="445.7832"/><rect fill="#FFFFFF" height="417.7539" style="stroke:#181818;stroke-width:1.0;" width="10" x="381" y="525.6563"/><rect fill="#FFFFFF" height="95.5039" style="stroke:#181818;stroke-width:1.0;" width="10" x="634" y="191.8242"/><rect fill="#FFFFFF" height="355.1719" style="stroke:#181818;stroke-width:1.0;" width="10" x="634" y="556.9473"/><rect fill="#FFFFFF" height="106.5039" style="stroke:#181818;stroke-width:1.0;" width="10" x="639" y="596.2383"/><rect fill="#FFFFFF" height="95.5039" style="stroke:#181818;stroke-width:1.0;" width="10" x="923" y="785.3242"/><rect fill="none" height="81.873" style="stroke:#000000;stroke-width:1.5;" width="426" x="10" y="302.3281"/><line style="stroke:#181818;stroke-width:0.5;stroke-dasharray:5.0,5.0;" x1="96" x2="96" y1="83.6211" y2="961.4102"/><line style="stroke:#181818;stroke-width:0.5;stroke-dasharray:5.0,5.0;" x1="386" x2="386" y1="83.6211" y2="961.4102"/><line style="stroke:#181818;stroke-width:0.5;stroke-dasharray:5.0,5.0;" x1="639" x2="639" y1="156.7227" y2="961.4102"/><line style="stroke:#181818;stroke-width:0.5;stroke-dasharray:5.0,5.0;" x1="928" x2="928" y1="83.6211" y2="961.4102"/><text fill="#000000" font-family="sans-serif" font-size="14" lengthAdjust="spacing" textLength="146" x="20" y="80.1074">Organization Employee</text><ellipse cx="96" cy="13.5" fill="#E3E3E3" rx="8" ry="8" style="stroke:#181818;stroke-width:0.5;"/><path d="M96,21.5 L96,48.5 M83,29.5 L109,29.5 M96,48.5 L83,63.5 M96,48.5 L109,63.5 " fill="none" style="stroke:#181818;stroke-width:0.5;"/><text fill="#000000" font-family="sans-serif" font-size="14" lengthAdjust="spacing" textLength="146" x="20" y="975.5176">Organization Employee</text><ellipse cx="96" cy="987.5313" fill="#E3E3E3" rx="8" ry="8" style="stroke:#181818;stroke-width:0.5;"/><path d="M96,995.5313 L96,1022.5313 M83,1003.5313 L109,1003.5313 M96,1022.5313 L83,1037.5313 M96,1022.5313 L109,1037.5313 " fill="none" style="stroke:#181818;stroke-width:0.5;"/><rect fill="#E3E3E3" height="32.6211" rx="2.5" ry="2.5" style="stroke:#181818;stroke-width:0.5;" width="80" x="346" y="50"/><text fill="#000000" font-family="sans-serif" font-size="14" lengthAdjust="spacing" textLength="66" x="353" y="72.1074">:AddSkillUI</text><rect fill="#E3E3E3" height="32.6211" rx="2.5" ry="2.5" style="stroke:#181818;stroke-width:0.5;" width="80" x="346" y="960.4102"/><text fill="#000000" font-family="sans-serif" font-size="14" lengthAdjust="spacing" textLength="66" x="353" y="982.5176">:AddSkillUI</text><rect fill="#E3E3E3" height="32.6211" rx="2.5" ry="2.5" style="stroke:#181818;stroke-width:0.5;" width="130" x="574" y="960.4102"/><text fill="#000000" font-family="sans-serif" font-size="14" lengthAdjust="spacing" textLength="116" x="581" y="982.5176">:AddSkillController</text><rect fill="#E3E3E3" height="51.2422" rx="2.5" ry="2.5" style="stroke:#181818;stroke-width:0.5;" width="98" x="879" y="31.3789"/><text fill="#000000" font-family="sans-serif" font-size="14" lengthAdjust="spacing" textLength="77" x="889.5" y="53.4863">organization</text><text fill="#000000" font-family="sans-serif" font-size="14" lengthAdjust="spacing" textLength="84" x="886" y="72.1074">:Organization</text><rect fill="#E3E3E3" height="51.2422" rx="2.5" ry="2.5" style="stroke:#181818;stroke-width:0.5;" width="98" x="879" y="960.4102"/><text fill="#000000" font-family="sans-serif" font-size="14" lengthAdjust="spacing" textLength="77" x="889.5" y="982.5176">organization</text><text fill="#000000" font-family="sans-serif" font-size="14" lengthAdjust="spacing" textLength="84" x="886" y="1001.1387">:Organization</text><rect fill="#FFFFFF" height="849.7891" style="stroke:#181818;stroke-width:1.0;" width="10" x="91" y="93.6211"/><rect fill="#FFFFFF" height="274.2891" style="stroke:#181818;stroke-width:1.0;" width="10" x="381" y="116.9121"/><rect fill="#FFFFFF" height="48.582" style="stroke:#181818;stroke-width:1.0;" width="10" x="381" y="445.7832"/><rect fill="#FFFFFF" height="417.7539" style="stroke:#181818;stroke-width:1.0;" width="10" x="381" y="525.6563"/><rect fill="#FFFFFF" height="95.5039" style="stroke:#181818;stroke-width:1.0;" width="10" x="634" y="191.8242"/><rect fill="#FFFFFF" height="355.1719" style="stroke:#181818;stroke-width:1.0;" width="10" x="634" y="556.9473"/><rect fill="#FFFFFF" height="106.5039" style="stroke:#181818;stroke-width:1.0;" width="10" x="639" y="596.2383"/><rect fill="#FFFFFF" height="95.5039" style="stroke:#181818;stroke-width:1.0;" width="10" x="923" y="785.3242"/><polygon fill="#181818" points="369,112.9121,379,116.9121,369,120.9121,373,116.9121" style="stroke:#181818;stroke-width:1.0;"/><line style="stroke:#181818;stroke-width:1.0;" x1="101" x2="375" y1="116.9121" y2="116.9121"/><text fill="#000000" font-family="sans-serif" font-size="13" font-weight="bold" lengthAdjust="spacing" textLength="7" x="108" y="111.6494">1</text><text fill="#000000" font-family="sans-serif" font-size="13" lengthAdjust="spacing" textLength="203" x="119" y="111.6494">asks to add a skill to a collaborator</text><polygon fill="#181818" points="562,144.2031,572,148.2031,562,152.2031,566,148.2031" style="stroke:#181818;stroke-width:1.0;"/><line style="stroke:#181818;stroke-width:1.0;" x1="391" x2="568" y1="148.2031" y2="148.2031"/><text fill="#000000" font-family="sans-serif" font-size="13" font-weight="bold" lengthAdjust="spacing" textLength="7" x="398" y="142.9404">2</text><text fill="#000000" font-family="sans-serif" font-size="13" lengthAdjust="spacing" textLength="21" x="409" y="142.9404">add</text><rect fill="#E3E3E3" height="32.6211" rx="2.5" ry="2.5" style="stroke:#181818;stroke-width:0.5;" width="130" x="574" y="124.9121"/><text fill="#000000" font-family="sans-serif" font-size="14" lengthAdjust="spacing" textLength="116" x="581" y="147.0195">:AddSkillController</text><polygon fill="#181818" points="622,187.8242,632,191.8242,622,195.8242,626,191.8242" style="stroke:#181818;stroke-width:1.0;"/><line style="stroke:#181818;stroke-width:1.0;" x1="391" x2="628" y1="191.8242" y2="191.8242"/><text fill="#000000" font-family="sans-serif" font-size="13" font-weight="bold" lengthAdjust="spacing" textLength="7" x="398" y="186.5615">3</text><text fill="#000000" font-family="sans-serif" font-size="13" lengthAdjust="spacing" textLength="58" x="409" y="186.5615">getSkills()</text><rect fill="none" height="59.2129" style="stroke:#000000;stroke-width:1.5;" width="136" x="571" y="199.8242"/><path d="M571,199.8242 L633,199.8242 L633,208.8242 L623,218.8242 L571,218.8242 L571,199.8242 " fill="#EEEEEE" style="stroke:#000000;stroke-width:2.0;"/><text fill="#000000" font-family="sans-serif" font-size="13" font-weight="bold" lengthAdjust="spacing" textLength="17" x="584" y="215.8525">ref</text><text fill="#000000" font-family="sans-serif" font-size="12" lengthAdjust="spacing" textLength="68" x="605" y="235.7734">Get Skill List</text><text fill="#000000" font-family="sans-serif" font-size="12" lengthAdjust="spacing" textLength="3" x="637.5" y="251.7344">&#160;</text><polygon fill="#181818" points="402,283.3281,392,287.3281,402,291.3281,398,287.3281" style="stroke:#181818;stroke-width:1.0;"/><line style="stroke:#181818;stroke-width:1.0;stroke-dasharray:2.0,2.0;" x1="396" x2="638" y1="287.3281" y2="287.3281"/><text fill="#000000" font-family="sans-serif" font-size="13" font-weight="bold" lengthAdjust="spacing" textLength="7" x="408" y="282.0654">4</text><text fill="#000000" font-family="sans-serif" font-size="13" lengthAdjust="spacing" textLength="46" x="419" y="282.0654">SkillList</text><path d="M10,302.3281 L83,302.3281 L83,311.6191 L73,321.6191 L10,321.6191 L10,302.3281 " fill="#EEEEEE" style="stroke:#000000;stroke-width:1.5;"/><rect fill="none" height="81.873" style="stroke:#000000;stroke-width:1.5;" width="426" x="10" y="302.3281"/><text fill="#000000" font-family="sans-serif" font-size="13" font-weight="bold" lengthAdjust="spacing" textLength="28" x="25" y="317.3564">loop</text><text fill="#000000" font-family="sans-serif" font-size="11" font-weight="bold" lengthAdjust="spacing" textLength="111" x="98" y="316.1982">[while adding skills]</text><polygon fill="#181818" points="112,340.9102,102,344.9102,112,348.9102,108,344.9102" style="stroke:#181818;stroke-width:1.0;"/><line style="stroke:#181818;stroke-width:1.0;stroke-dasharray:2.0,2.0;" x1="106" x2="380" y1="344.9102" y2="344.9102"/><text fill="#000000" font-family="sans-serif" font-size="13" font-weight="bold" lengthAdjust="spacing" textLength="7" x="118" y="339.6475">5</text><text fill="#000000" font-family="sans-serif" font-size="13" lengthAdjust="spacing" textLength="221" x="129" y="339.6475">shows skill list and asks to select one</text><polygon fill="#181818" points="369,372.2012,379,376.2012,369,380.2012,373,376.2012" style="stroke:#181818;stroke-width:1.0;"/><line style="stroke:#181818;stroke-width:1.0;" x1="101" x2="375" y1="376.2012" y2="376.2012"/><text fill="#000000" font-family="sans-serif" font-size="13" font-weight="bold" lengthAdjust="spacing" textLength="7" x="108" y="370.9385">6</text><text fill="#000000" font-family="sans-serif" font-size="13" lengthAdjust="spacing" textLength="80" x="119" y="370.9385">selects a skill</text><polygon fill="#181818" points="112,410.4922,102,414.4922,112,418.4922,108,414.4922" style="stroke:#181818;stroke-width:1.0;"/><line style="stroke:#181818;stroke-width:1.0;stroke-dasharray:2.0,2.0;" x1="106" x2="385" y1="414.4922" y2="414.4922"/><text fill="#000000" font-family="sans-serif" font-size="13" font-weight="bold" lengthAdjust="spacing" textLength="7" x="118" y="409.2295">7</text><text fill="#000000" font-family="sans-serif" font-size="13" lengthAdjust="spacing" textLength="211" x="129" y="409.2295">requests desired collaborator's email</text><polygon fill="#181818" points="369,441.7832,379,445.7832,369,449.7832,373,445.7832" style="stroke:#181818;stroke-width:1.0;"/><line style="stroke:#181818;stroke-width:1.0;" x1="101" x2="375" y1="445.7832" y2="445.7832"/><text fill="#000000" font-family="sans-serif" font-size="13" font-weight="bold" lengthAdjust="spacing" textLength="7" x="108" y="440.5205">8</text><text fill="#000000" font-family="sans-serif" font-size="13" lengthAdjust="spacing" textLength="128" x="119" y="440.5205">types requested email</text><polygon fill="#181818" points="112,490.3652,102,494.3652,112,498.3652,108,494.3652" style="stroke:#181818;stroke-width:1.0;"/><line style="stroke:#181818;stroke-width:1.0;stroke-dasharray:2.0,2.0;" x1="106" x2="385" y1="494.3652" y2="494.3652"/><text fill="#000000" font-family="sans-serif" font-size="13" font-weight="bold" lengthAdjust="spacing" textLength="7" x="118" y="480.457">9</text><text fill="#000000" font-family="sans-serif" font-size="13" lengthAdjust="spacing" textLength="245" x="129" y="471.8115">shows selected skills and requested email</text><text fill="#000000" font-family="sans-serif" font-size="13" lengthAdjust="spacing" textLength="145" x="129" y="489.1025">and asks for confirmation</text><polygon fill="#181818" points="369,521.6563,379,525.6563,369,529.6563,373,525.6563" style="stroke:#181818;stroke-width:1.0;"/><line style="stroke:#181818;stroke-width:1.0;" x1="101" x2="375" y1="525.6563" y2="525.6563"/><text fill="#000000" font-family="sans-serif" font-size="13" font-weight="bold" lengthAdjust="spacing" textLength="14" x="108" y="520.3936">10</text><text fill="#000000" font-family="sans-serif" font-size="13" lengthAdjust="spacing" textLength="78" x="126" y="520.3936">confirms data</text><polygon fill="#181818" points="622,552.9473,632,556.9473,622,560.9473,626,556.9473" style="stroke:#181818;stroke-width:1.0;"/><line style="stroke:#181818;stroke-width:1.0;" x1="391" x2="628" y1="556.9473" y2="556.9473"/><text fill="#000000" font-family="sans-serif" font-size="13" font-weight="bold" lengthAdjust="spacing" textLength="14" x="398" y="551.6846">11</text><text fill="#000000" font-family="sans-serif" font-size="13" lengthAdjust="spacing" textLength="206" x="416" y="551.6846">addSkillToCollaborator(email, skills)</text><line style="stroke:#181818;stroke-width:1.0;" x1="644" x2="691" y1="583.2383" y2="583.2383"/><line style="stroke:#181818;stroke-width:1.0;" x1="691" x2="691" y1="583.2383" y2="596.2383"/><line style="stroke:#181818;stroke-width:1.0;" x1="650" x2="691" y1="596.2383" y2="596.2383"/><polygon fill="#181818" points="660,592.2383,650,596.2383,660,600.2383,656,596.2383" style="stroke:#181818;stroke-width:1.0;"/><text fill="#000000" font-family="sans-serif" font-size="13" font-weight="bold" lengthAdjust="spacing" textLength="14" x="656" y="577.9756">12</text><text fill="#000000" font-family="sans-serif" font-size="13" lengthAdjust="spacing" textLength="161" x="674" y="577.9756">getEmployeeFromSession()</text><rect fill="none" height="59.2129" style="stroke:#000000;stroke-width:1.5;" width="136" x="571" y="609.2383"/><path d="M571,609.2383 L633,609.2383 L633,618.2383 L623,628.2383 L571,628.2383 L571,609.2383 " fill="#EEEEEE" style="stroke:#000000;stroke-width:2.0;"/><text fill="#000000" font-family="sans-serif" font-size="13" font-weight="bold" lengthAdjust="spacing" textLength="17" x="584" y="625.2666">ref</text><text fill="#000000" font-family="sans-serif" font-size="12" lengthAdjust="spacing" textLength="77" x="600.5" y="645.1875">Get Employee</text><text fill="#000000" font-family="sans-serif" font-size="12" lengthAdjust="spacing" textLength="3" x="637.5" y="661.1484">&#160;</text><line style="stroke:#181818;stroke-width:1.0;" x1="649" x2="691" y1="701.7422" y2="701.7422"/><line style="stroke:#181818;stroke-width:1.0;" x1="691" x2="691" y1="701.7422" y2="714.7422"/><line style="stroke:#181818;stroke-width:1.0;" x1="644" x2="691" y1="714.7422" y2="714.7422"/><polygon fill="#181818" points="654,710.7422,644,714.7422,654,718.7422,650,714.7422" style="stroke:#181818;stroke-width:1.0;"/><text fill="#000000" font-family="sans-serif" font-size="13" font-weight="bold" lengthAdjust="spacing" textLength="14" x="656" y="696.4795">13</text><text fill="#000000" font-family="sans-serif" font-size="13" lengthAdjust="spacing" textLength="56" x="674" y="696.4795">employee</text><line style="stroke:#181818;stroke-width:1.0;" x1="644" x2="686" y1="741.0332" y2="741.0332"/><line style="stroke:#181818;stroke-width:1.0;" x1="686" x2="686" y1="741.0332" y2="754.0332"/><line style="stroke:#181818;stroke-width:1.0;" x1="645" x2="686" y1="754.0332" y2="754.0332"/><polygon fill="#181818" points="655,750.0332,645,754.0332,655,758.0332,651,754.0332" style="stroke:#181818;stroke-width:1.0;"/><text fill="#000000" font-family="sans-serif" font-size="13" font-weight="bold" lengthAdjust="spacing" textLength="14" x="651" y="735.7705">14</text><text fill="#000000" font-family="sans-serif" font-size="13" lengthAdjust="spacing" textLength="175" x="669" y="735.7705">getCollaboratorByEmail(email)</text><polygon fill="#181818" points="911,781.3242,921,785.3242,911,789.3242,915,785.3242" style="stroke:#181818;stroke-width:1.0;"/><line style="stroke:#181818;stroke-width:1.0;" x1="644" x2="917" y1="785.3242" y2="785.3242"/><text fill="#000000" font-family="sans-serif" font-size="13" font-weight="bold" lengthAdjust="spacing" textLength="14" x="651" y="780.0615">15</text><text fill="#000000" font-family="sans-serif" font-size="13" lengthAdjust="spacing" textLength="242" x="669" y="780.0615">addSkillToCollaborator(collaborator, skills)</text><rect fill="none" height="59.2129" style="stroke:#000000;stroke-width:1.5;" width="143" x="876" y="793.3242"/><path d="M876,793.3242 L938,793.3242 L938,802.3242 L928,812.3242 L876,812.3242 L876,793.3242 " fill="#EEEEEE" style="stroke:#000000;stroke-width:2.0;"/><text fill="#000000" font-family="sans-serif" font-size="13" font-weight="bold" lengthAdjust="spacing" textLength="17" x="889" y="809.3525">ref</text><text fill="#000000" font-family="sans-serif" font-size="12" lengthAdjust="spacing" textLength="135" x="880" y="829.2734">Add Skill To Collaborator</text><text fill="#000000" font-family="sans-serif" font-size="12" lengthAdjust="spacing" textLength="3" x="946" y="845.2344">&#160;</text><polygon fill="#181818" points="655,876.8281,645,880.8281,655,884.8281,651,880.8281" style="stroke:#181818;stroke-width:1.0;"/><line style="stroke:#181818;stroke-width:1.0;stroke-dasharray:2.0,2.0;" x1="649" x2="927" y1="880.8281" y2="880.8281"/><text fill="#000000" font-family="sans-serif" font-size="13" font-weight="bold" lengthAdjust="spacing" textLength="14" x="661" y="875.5654">16</text><text fill="#000000" font-family="sans-serif" font-size="13" lengthAdjust="spacing" textLength="174" x="679" y="875.5654">updated collaborator's skill list</text><polygon fill="#181818" points="402,908.1191,392,912.1191,402,916.1191,398,912.1191" style="stroke:#181818;stroke-width:1.0;"/><line style="stroke:#181818;stroke-width:1.0;stroke-dasharray:2.0,2.0;" x1="396" x2="638" y1="912.1191" y2="912.1191"/><text fill="#000000" font-family="sans-serif" font-size="13" font-weight="bold" lengthAdjust="spacing" textLength="14" x="408" y="906.8564">17</text><text fill="#000000" font-family="sans-serif" font-size="13" lengthAdjust="spacing" textLength="174" x="426" y="906.8564">updated collaborator's skill list</text><polygon fill="#181818" points="107,939.4102,97,943.4102,107,947.4102,103,943.4102" style="stroke:#181818;stroke-width:1.0;"/><line style="stroke:#181818;stroke-width:1.0;stroke-dasharray:2.0,2.0;" x1="101" x2="385" y1="943.4102" y2="943.4102"/><text fill="#000000" font-family="sans-serif" font-size="13" font-weight="bold" lengthAdjust="spacing" textLength="14" x="113" y="938.1475">18</text><text fill="#000000" font-family="sans-serif" font-size="13" lengthAdjust="spacing" textLength="158" x="131" y="938.1475">displays operation success</text><!--SRC=[fLNBRjim4BphAnQ-v87c1tmeaBff4211WDYvvKABQvimnLL8AgxxzLrI3rEMr0IeJXAvd9qTpgxSNfbIM550GORodQK2mTiACzVjb2BVYoqk_L4ZMCozC5kT1hYTa7HGPWiReHrccQWycQfOeysoYvsI21iYlwRVcSWzMPWzswqmwe_mYWpS5QMc8-8CX8FRdqyPetgLgr8O3xFvhPJBlTBwzI46l3vCx2_8U4jQeurnYzNBOp-IagHlPfvoY2UUN-wpG51z28-HI0Ryy0lSVEUyCEUelGDF8AG40IwaZP-GSsAn9YkulFfO1yI4uq9u68IX0hNhwm0dvSWMRspHnvhSvLKNO743z86shWoIvnuzn71uLCwVig6HuTHfeUCK8NeOCV5DMsT4Ys3jliI9mvgeXCDEiJUud622A8lheOVY63j8EMUxqC4rucdE0O9vjiewrEmm88CzWFGIwX3NNa1QRdP6jTL-yZ8wKXRVAtICAj4fYx9tenSEi11AJy6dxFonHDV2CSxfuESa6cLYVNoq5ZBASuRtPZhDDjnFEPcDiaMqybSuDl5ShF3YAswjlHfTiQ95einbfFEjeNervRGHgwLURoV0Bnu_ItIEoqYC_ubp_zqRQO-qQORdsquvNp-ZYYr06ZFP6UErfkhzEDu5-MeH-mMFel24cho8rA_3- -Xf60VTf8HXTqn1dhFDb5aHB0RpRapEmSPmXRF51cW4gagsvB3xJiDYIlf1JSb0-m_OWPzE_Je7gLofnT41bMZhVvchyfmDFDQ4oMVuj_m5]--></g></svg>