<?xml version="1.0" encoding="us-ascii" standalone="no"?><svg xmlns="http://www.w3.org/2000/svg" xmlns:xlink="http://www.w3.org/1999/xlink" contentStyleType="text/css" height="800px" preserveAspectRatio="none" style="width:1074px;height:800px;background:#FFFFFF;" version="1.1" viewBox="0 0 1074 800" width="1074px" zoomAndPan="magnify"><defs/><g><rect fill="#FFFFFF" height="605.8203" style="stroke:#181818;stroke-width:1.0;" width="10" x="91" y="93.6211"/><rect fill="#FFFFFF" height="31.291" style="stroke:#181818;stroke-width:1.0;" width="10" x="437" y="116.9121"/><rect fill="#FFFFFF" height="332.2012" style="stroke:#181818;stroke-width:1.0;" width="10" x="437" y="179.4941"/><rect fill="#FFFFFF" height="156.4551" style="stroke:#181818;stroke-width:1.0;" width="10" x="437" y="542.9863"/><rect fill="#FFFFFF" height="93.873" style="stroke:#181818;stroke-width:1.0;" width="10" x="650" y="369.2402"/><rect fill="#FFFFFF" height="93.873" style="stroke:#181818;stroke-width:1.0;" width="10" x="650" y="574.2773"/><rect fill="#FFFFFF" height="127.1641" style="stroke:#181818;stroke-width:1.0;" width="10" x="863" y="210.7852"/><rect fill="#FFFFFF" height="31.291" style="stroke:#181818;stroke-width:1.0;" width="10" x="863" y="605.5684"/><rect fill="#FFFFFF" height="31.291" style="stroke:#181818;stroke-width:1.0;" width="10" x="1007.5" y="400.5313"/><rect fill="none" height="81.873" style="stroke:#000000;stroke-width:1.5;" width="947" x="10" y="225.7852"/><line style="stroke:#181818;stroke-width:0.5;stroke-dasharray:5.0,5.0;" x1="96" x2="96" y1="83.6211" y2="717.4414"/><line style="stroke:#181818;stroke-width:0.5;stroke-dasharray:5.0,5.0;" x1="442" x2="442" y1="83.6211" y2="717.4414"/><line style="stroke:#181818;stroke-width:0.5;stroke-dasharray:5.0,5.0;" x1="654.5" x2="654.5" y1="83.6211" y2="717.4414"/><line style="stroke:#181818;stroke-width:0.5;stroke-dasharray:5.0,5.0;" x1="868" x2="868" y1="83.6211" y2="717.4414"/><line style="stroke:#181818;stroke-width:0.5;stroke-dasharray:5.0,5.0;" x1="1012" x2="1012" y1="83.6211" y2="717.4414"/><text fill="#000000" font-family="sans-serif" font-size="14" lengthAdjust="spacing" textLength="146" x="20" y="80.1074">Organization Employee</text><ellipse cx="96" cy="13.5" fill="#E3E3E3" rx="8" ry="8" style="stroke:#181818;stroke-width:0.5;"/><path d="M96,21.5 L96,48.5 M83,29.5 L109,29.5 M96,48.5 L83,63.5 M96,48.5 L109,63.5 " fill="none" style="stroke:#181818;stroke-width:0.5;"/><text fill="#000000" font-family="sans-serif" font-size="14" lengthAdjust="spacing" textLength="146" x="20" y="731.5488">Organization Employee</text><ellipse cx="96" cy="743.5625" fill="#E3E3E3" rx="8" ry="8" style="stroke:#181818;stroke-width:0.5;"/><path d="M96,751.5625 L96,778.5625 M83,759.5625 L109,759.5625 M96,778.5625 L83,793.5625 M96,778.5625 L109,793.5625 " fill="none" style="stroke:#181818;stroke-width:0.5;"/><rect fill="#E3E3E3" height="32.6211" rx="2.5" ry="2.5" style="stroke:#181818;stroke-width:0.5;" width="80" x="402" y="50"/><text fill="#000000" font-family="sans-serif" font-size="14" lengthAdjust="spacing" textLength="66" x="409" y="72.1074">:AddSkillUI</text><rect fill="#E3E3E3" height="32.6211" rx="2.5" ry="2.5" style="stroke:#181818;stroke-width:0.5;" width="80" x="402" y="716.4414"/><text fill="#000000" font-family="sans-serif" font-size="14" lengthAdjust="spacing" textLength="66" x="409" y="738.5488">:AddSkillUI</text><rect fill="#E3E3E3" height="32.6211" rx="2.5" ry="2.5" style="stroke:#181818;stroke-width:0.5;" width="105" x="602.5" y="50"/><text fill="#000000" font-family="sans-serif" font-size="14" lengthAdjust="spacing" textLength="91" x="609.5" y="72.1074">:SkillController</text><rect fill="#E3E3E3" height="32.6211" rx="2.5" ry="2.5" style="stroke:#181818;stroke-width:0.5;" width="105" x="602.5" y="716.4414"/><text fill="#000000" font-family="sans-serif" font-size="14" lengthAdjust="spacing" textLength="91" x="609.5" y="738.5488">:SkillController</text><rect fill="#E3E3E3" height="32.6211" rx="2.5" ry="2.5" style="stroke:#181818;stroke-width:0.5;" width="158" x="789" y="50"/><text fill="#000000" font-family="sans-serif" font-size="14" lengthAdjust="spacing" textLength="144" x="796" y="72.1074">:CollaboratorController</text><rect fill="#E3E3E3" height="32.6211" rx="2.5" ry="2.5" style="stroke:#181818;stroke-width:0.5;" width="158" x="789" y="716.4414"/><text fill="#000000" font-family="sans-serif" font-size="14" lengthAdjust="spacing" textLength="144" x="796" y="738.5488">:CollaboratorController</text><rect fill="#E3E3E3" height="51.2422" rx="2.5" ry="2.5" style="stroke:#181818;stroke-width:0.5;" width="111" x="957" y="31.3789"/><text fill="#000000" font-family="sans-serif" font-size="14" lengthAdjust="spacing" textLength="97" x="964" y="53.4863">SkillRepository:</text><text fill="#000000" font-family="sans-serif" font-size="14" lengthAdjust="spacing" textLength="93" x="966" y="72.1074">SkillRepository</text><rect fill="#E3E3E3" height="51.2422" rx="2.5" ry="2.5" style="stroke:#181818;stroke-width:0.5;" width="111" x="957" y="716.4414"/><text fill="#000000" font-family="sans-serif" font-size="14" lengthAdjust="spacing" textLength="97" x="964" y="738.5488">SkillRepository:</text><text fill="#000000" font-family="sans-serif" font-size="14" lengthAdjust="spacing" textLength="93" x="966" y="757.1699">SkillRepository</text><rect fill="#FFFFFF" height="605.8203" style="stroke:#181818;stroke-width:1.0;" width="10" x="91" y="93.6211"/><rect fill="#FFFFFF" height="31.291" style="stroke:#181818;stroke-width:1.0;" width="10" x="437" y="116.9121"/><rect fill="#FFFFFF" height="332.2012" style="stroke:#181818;stroke-width:1.0;" width="10" x="437" y="179.4941"/><rect fill="#FFFFFF" height="156.4551" style="stroke:#181818;stroke-width:1.0;" width="10" x="437" y="542.9863"/><rect fill="#FFFFFF" height="93.873" style="stroke:#181818;stroke-width:1.0;" width="10" x="650" y="369.2402"/><rect fill="#FFFFFF" height="93.873" style="stroke:#181818;stroke-width:1.0;" width="10" x="650" y="574.2773"/><rect fill="#FFFFFF" height="127.1641" style="stroke:#181818;stroke-width:1.0;" width="10" x="863" y="210.7852"/><rect fill="#FFFFFF" height="31.291" style="stroke:#181818;stroke-width:1.0;" width="10" x="863" y="605.5684"/><rect fill="#FFFFFF" height="31.291" style="stroke:#181818;stroke-width:1.0;" width="10" x="1007.5" y="400.5313"/><polygon fill="#181818" points="425,112.9121,435,116.9121,425,120.9121,429,116.9121" style="stroke:#181818;stroke-width:1.0;"/><line style="stroke:#181818;stroke-width:1.0;" x1="101" x2="431" y1="116.9121" y2="116.9121"/><text fill="#000000" font-family="sans-serif" font-size="13" font-weight="bold" lengthAdjust="spacing" textLength="7" x="108" y="111.6494">1</text><text fill="#000000" font-family="sans-serif" font-size="13" lengthAdjust="spacing" textLength="274" x="119" y="111.6494">asks to add one or more Skills to a collaborator</text><polygon fill="#181818" points="112,144.2031,102,148.2031,112,152.2031,108,148.2031" style="stroke:#181818;stroke-width:1.0;"/><line style="stroke:#181818;stroke-width:1.0;" x1="106" x2="441" y1="148.2031" y2="148.2031"/><text fill="#000000" font-family="sans-serif" font-size="13" font-weight="bold" lengthAdjust="spacing" textLength="7" x="118" y="142.9404">2</text><text fill="#000000" font-family="sans-serif" font-size="13" lengthAdjust="spacing" textLength="213" x="129" y="142.9404">Asks the desired collaborator's email</text><polygon fill="#181818" points="425,175.4941,435,179.4941,425,183.4941,429,179.4941" style="stroke:#181818;stroke-width:1.0;"/><line style="stroke:#181818;stroke-width:1.0;" x1="101" x2="431" y1="179.4941" y2="179.4941"/><text fill="#000000" font-family="sans-serif" font-size="13" font-weight="bold" lengthAdjust="spacing" textLength="7" x="108" y="174.2314">3</text><text fill="#000000" font-family="sans-serif" font-size="13" lengthAdjust="spacing" textLength="171" x="119" y="174.2314">writes the collaborator's email</text><polygon fill="#181818" points="851,206.7852,861,210.7852,851,214.7852,855,210.7852" style="stroke:#181818;stroke-width:1.0;"/><line style="stroke:#181818;stroke-width:1.0;" x1="447" x2="857" y1="210.7852" y2="210.7852"/><text fill="#000000" font-family="sans-serif" font-size="13" font-weight="bold" lengthAdjust="spacing" textLength="7" x="454" y="205.5225">4</text><text fill="#000000" font-family="sans-serif" font-size="13" lengthAdjust="spacing" textLength="175" x="465" y="205.5225">getCollaboratorByEmail(email)</text><path d="M10,225.7852 L71,225.7852 L71,235.0762 L61,245.0762 L10,245.0762 L10,225.7852 " fill="#EEEEEE" style="stroke:#000000;stroke-width:1.5;"/><rect fill="none" height="81.873" style="stroke:#000000;stroke-width:1.5;" width="947" x="10" y="225.7852"/><text fill="#000000" font-family="sans-serif" font-size="13" font-weight="bold" lengthAdjust="spacing" textLength="16" x="25" y="240.8135">alt</text><text fill="#000000" font-family="sans-serif" font-size="11" font-weight="bold" lengthAdjust="spacing" textLength="130" x="86" y="239.6553">[collaborator not found]</text><polygon fill="#181818" points="458,264.3672,448,268.3672,458,272.3672,454,268.3672" style="stroke:#181818;stroke-width:1.0;"/><line style="stroke:#181818;stroke-width:1.0;" x1="452" x2="862" y1="268.3672" y2="268.3672"/><text fill="#000000" font-family="sans-serif" font-size="13" font-weight="bold" lengthAdjust="spacing" textLength="7" x="464" y="263.1045">5</text><text fill="#000000" font-family="sans-serif" font-size="13" lengthAdjust="spacing" textLength="88" x="475" y="263.1045">returns an error</text><polygon fill="#181818" points="112,295.6582,102,299.6582,112,303.6582,108,299.6582" style="stroke:#181818;stroke-width:1.0;"/><line style="stroke:#181818;stroke-width:1.0;" x1="106" x2="436" y1="299.6582" y2="299.6582"/><text fill="#000000" font-family="sans-serif" font-size="13" font-weight="bold" lengthAdjust="spacing" textLength="7" x="118" y="294.3955">6</text><text fill="#000000" font-family="sans-serif" font-size="13" lengthAdjust="spacing" textLength="225" x="129" y="294.3955">shows the error and quits the operation</text><polygon fill="#181818" points="458,333.9492,448,337.9492,458,341.9492,454,337.9492" style="stroke:#181818;stroke-width:1.0;"/><line style="stroke:#181818;stroke-width:1.0;" x1="452" x2="867" y1="337.9492" y2="337.9492"/><text fill="#000000" font-family="sans-serif" font-size="13" font-weight="bold" lengthAdjust="spacing" textLength="7" x="464" y="332.6865">7</text><text fill="#000000" font-family="sans-serif" font-size="13" lengthAdjust="spacing" textLength="111" x="475" y="332.6865">returns collaborator</text><polygon fill="#181818" points="638,365.2402,648,369.2402,638,373.2402,642,369.2402" style="stroke:#181818;stroke-width:1.0;"/><line style="stroke:#181818;stroke-width:1.0;" x1="447" x2="644" y1="369.2402" y2="369.2402"/><text fill="#000000" font-family="sans-serif" font-size="13" font-weight="bold" lengthAdjust="spacing" textLength="7" x="454" y="363.9775">8</text><text fill="#000000" font-family="sans-serif" font-size="13" lengthAdjust="spacing" textLength="58" x="465" y="363.9775">getSkills()</text><polygon fill="#181818" points="995.5,396.5313,1005.5,400.5313,995.5,404.5313,999.5,400.5313" style="stroke:#181818;stroke-width:1.0;"/><line style="stroke:#181818;stroke-width:1.0;" x1="660" x2="1001.5" y1="400.5313" y2="400.5313"/><text fill="#000000" font-family="sans-serif" font-size="13" font-weight="bold" lengthAdjust="spacing" textLength="7" x="667" y="395.2686">9</text><text fill="#000000" font-family="sans-serif" font-size="13" lengthAdjust="spacing" textLength="58" x="678" y="395.2686">getSkills()</text><polygon fill="#181818" points="671,427.8223,661,431.8223,671,435.8223,667,431.8223" style="stroke:#181818;stroke-width:1.0;"/><line style="stroke:#181818;stroke-width:1.0;" x1="665" x2="1011.5" y1="431.8223" y2="431.8223"/><text fill="#000000" font-family="sans-serif" font-size="13" font-weight="bold" lengthAdjust="spacing" textLength="14" x="677" y="426.5596">10</text><text fill="#000000" font-family="sans-serif" font-size="13" lengthAdjust="spacing" textLength="74" x="695" y="426.5596">returns skills</text><polygon fill="#181818" points="458,459.1133,448,463.1133,458,467.1133,454,463.1133" style="stroke:#181818;stroke-width:1.0;"/><line style="stroke:#181818;stroke-width:1.0;" x1="452" x2="654" y1="463.1133" y2="463.1133"/><text fill="#000000" font-family="sans-serif" font-size="13" font-weight="bold" lengthAdjust="spacing" textLength="14" x="464" y="457.8506">11</text><text fill="#000000" font-family="sans-serif" font-size="13" lengthAdjust="spacing" textLength="74" x="482" y="457.8506">returns skills</text><polygon fill="#181818" points="112,507.6953,102,511.6953,112,515.6953,108,511.6953" style="stroke:#181818;stroke-width:1.0;"/><line style="stroke:#181818;stroke-width:1.0;" x1="106" x2="441" y1="511.6953" y2="511.6953"/><text fill="#000000" font-family="sans-serif" font-size="13" font-weight="bold" lengthAdjust="spacing" textLength="14" x="118" y="497.7871">12</text><text fill="#000000" font-family="sans-serif" font-size="13" lengthAdjust="spacing" textLength="257" x="136" y="489.1416">shows the skills that the collaborator doesn't</text><text fill="#000000" font-family="sans-serif" font-size="13" lengthAdjust="spacing" textLength="294" x="136" y="506.4326">have and asks to choose the ones he wants to add</text><polygon fill="#181818" points="425,538.9863,435,542.9863,425,546.9863,429,542.9863" style="stroke:#181818;stroke-width:1.0;"/><line style="stroke:#181818;stroke-width:1.0;" x1="101" x2="431" y1="542.9863" y2="542.9863"/><text fill="#000000" font-family="sans-serif" font-size="13" font-weight="bold" lengthAdjust="spacing" textLength="14" x="108" y="537.7236">13</text><text fill="#000000" font-family="sans-serif" font-size="13" lengthAdjust="spacing" textLength="227" x="126" y="537.7236">chooses the skills that he wants to add</text><polygon fill="#181818" points="638,570.2773,648,574.2773,638,578.2773,642,574.2773" style="stroke:#181818;stroke-width:1.0;"/><line style="stroke:#181818;stroke-width:1.0;" x1="447" x2="644" y1="574.2773" y2="574.2773"/><text fill="#000000" font-family="sans-serif" font-size="13" font-weight="bold" lengthAdjust="spacing" textLength="14" x="454" y="569.0146">14</text><text fill="#000000" font-family="sans-serif" font-size="13" lengthAdjust="spacing" textLength="166" x="472" y="569.0146">addSkills(collaborator, skills)</text><polygon fill="#181818" points="851,601.5684,861,605.5684,851,609.5684,855,605.5684" style="stroke:#181818;stroke-width:1.0;"/><line style="stroke:#181818;stroke-width:1.0;" x1="660" x2="857" y1="605.5684" y2="605.5684"/><text fill="#000000" font-family="sans-serif" font-size="13" font-weight="bold" lengthAdjust="spacing" textLength="14" x="667" y="600.3057">15</text><text fill="#000000" font-family="sans-serif" font-size="13" lengthAdjust="spacing" textLength="166" x="685" y="600.3057">addSkills(collaborator, skills)</text><polygon fill="#181818" points="671,632.8594,661,636.8594,671,640.8594,667,636.8594" style="stroke:#181818;stroke-width:1.0;"/><line style="stroke:#181818;stroke-width:1.0;" x1="665" x2="867" y1="636.8594" y2="636.8594"/><text fill="#000000" font-family="sans-serif" font-size="13" font-weight="bold" lengthAdjust="spacing" textLength="14" x="677" y="631.5967">16</text><text fill="#000000" font-family="sans-serif" font-size="13" lengthAdjust="spacing" textLength="135" x="695" y="631.5967">returns the added skills</text><polygon fill="#181818" points="458,664.1504,448,668.1504,458,672.1504,454,668.1504" style="stroke:#181818;stroke-width:1.0;"/><line style="stroke:#181818;stroke-width:1.0;" x1="452" x2="654" y1="668.1504" y2="668.1504"/><text fill="#000000" font-family="sans-serif" font-size="13" font-weight="bold" lengthAdjust="spacing" textLength="14" x="464" y="662.8877">17</text><text fill="#000000" font-family="sans-serif" font-size="13" lengthAdjust="spacing" textLength="135" x="482" y="662.8877">returns the added skills</text><polygon fill="#181818" points="107,695.4414,97,699.4414,107,703.4414,103,699.4414" style="stroke:#181818;stroke-width:1.0;"/><line style="stroke:#181818;stroke-width:1.0;" x1="101" x2="441" y1="699.4414" y2="699.4414"/><text fill="#000000" font-family="sans-serif" font-size="13" font-weight="bold" lengthAdjust="spacing" textLength="14" x="113" y="694.1787">18</text><text fill="#000000" font-family="sans-serif" font-size="13" lengthAdjust="spacing" textLength="157" x="131" y="694.1787">shows the updated skill list</text><!--SRC=[dLN1Rjim3BtxAuXSaW7R3_Wm8EjwAB1XGBlUUc4iDXPYYvuaDyk-VepiEBBifDbqCIAIJuzFZuhRQTEWnHfgDboKbci2RrlAt11fiDZXbfxyeIAmL7WqsofES2KgtckpXLUi76KPjfvDMs_8Pjcor8hWbTbl-7U6XMSBYnzsYqR_GQ_Pm7tTL7mWMW0wM7_zdWcgruLkq7XOv6kbddQwgfuVGiBpGn8FmJistd9LaGr9tTxFnsz9xfsau8Oj2ekaP1IQL0R0HshOQOaVyXUJx9oFFUzbsR5V_OQUGbyWIxxmwRDq0RbKx1nu1bGAs128CZLRwc2w21GHhG0m88eGq2z14qo1pc4TC4i2HKvRKYE0fGEgKLUXK54A5NFRM-sfGvf5c719oAHovh0b7sz-ETmVWLO1xiDGFK1ExWEYXPKVqGB3NZpM6ZLAEwuKf-im5oFxrXe7Q82ixSMDLoIgAtdVQH5IfKR1hrRxReyRii798mXAkFmpiSdD9vTsKQ2E-302GVdEKgiPdS-Z4fCRTWUeoFopW5FGQ13ItfDumlUaW0jdZ8gZ_YV3Tf5_hEeDc46CxAeDN3-X9Vh9Y81YScRfuSMK-4R1BAT9BqfcHvrhZ8oNVFVolfnUWVVcCky1fYHIe7UUYaXix9zNjugR-DYZ_vzXfiD_woctFm6NHcZ6HqUnX80yXjTl_-fv5nrrA_fKjrbhjOsIx1uCAktyZ2kYNyS_bhy0]--></g></svg>