<?xml version="1.0" encoding="us-ascii" standalone="no"?><svg xmlns="http://www.w3.org/2000/svg" xmlns:xlink="http://www.w3.org/1999/xlink" contentStyleType="text/css" height="1102px" preserveAspectRatio="none" style="width:1625px;height:1102px;background:#FFFFFF;" version="1.1" viewBox="0 0 1625 1102" width="1625px" zoomAndPan="magnify"><defs/><g><rect fill="#FFFFFF" height="907.7109" style="stroke:#181818;stroke-width:1.0;" width="10" x="76" y="93.6211"/><rect fill="#FFFFFF" height="201.707" style="stroke:#181818;stroke-width:1.0;" width="10" x="610" y="116.9121"/><rect fill="#FFFFFF" height="31.291" style="stroke:#181818;stroke-width:1.0;" width="10" x="610" y="349.9102"/><rect fill="#FFFFFF" height="31.291" style="stroke:#181818;stroke-width:1.0;" width="10" x="610" y="412.4922"/><rect fill="#FFFFFF" height="526.2578" style="stroke:#181818;stroke-width:1.0;" width="10" x="610" y="475.0742"/><rect fill="#FFFFFF" height="95.5039" style="stroke:#181818;stroke-width:1.0;" width="10" x="1086" y="191.8242"/><rect fill="#FFFFFF" height="463.6758" style="stroke:#181818;stroke-width:1.0;" width="10" x="1086" y="506.3652"/><rect fill="#FFFFFF" height="106.5039" style="stroke:#181818;stroke-width:1.0;" width="10" x="1091" y="545.6563"/><rect fill="#FFFFFF" height="106.5039" style="stroke:#181818;stroke-width:1.0;" width="10" x="1091" y="698.4512"/><rect fill="#FFFFFF" height="95.5039" style="stroke:#181818;stroke-width:1.0;" width="10" x="1562" y="843.2461"/><line style="stroke:#181818;stroke-width:0.5;stroke-dasharray:5.0,5.0;" x1="81" x2="81" y1="83.6211" y2="1019.332"/><line style="stroke:#181818;stroke-width:0.5;stroke-dasharray:5.0,5.0;" x1="615" x2="615" y1="83.6211" y2="1019.332"/><line style="stroke:#181818;stroke-width:0.5;stroke-dasharray:5.0,5.0;" x1="1091" x2="1091" y1="156.7227" y2="1019.332"/><line style="stroke:#181818;stroke-width:0.5;stroke-dasharray:5.0,5.0;" x1="1567" x2="1567" y1="83.6211" y2="1019.332"/><text fill="#000000" font-family="sans-serif" font-size="14" lengthAdjust="spacing" textLength="146" x="5" y="80.1074">Organization Employee</text><ellipse cx="81" cy="13.5" fill="#E3E3E3" rx="8" ry="8" style="stroke:#181818;stroke-width:0.5;"/><path d="M81,21.5 L81,48.5 M68,29.5 L94,29.5 M81,48.5 L68,63.5 M81,48.5 L94,63.5 " fill="none" style="stroke:#181818;stroke-width:0.5;"/><text fill="#000000" font-family="sans-serif" font-size="14" lengthAdjust="spacing" textLength="146" x="5" y="1033.4395">Organization Employee</text><ellipse cx="81" cy="1045.4531" fill="#E3E3E3" rx="8" ry="8" style="stroke:#181818;stroke-width:0.5;"/><path d="M81,1053.4531 L81,1080.4531 M68,1061.4531 L94,1061.4531 M81,1080.4531 L68,1095.4531 M81,1080.4531 L94,1095.4531 " fill="none" style="stroke:#181818;stroke-width:0.5;"/><rect fill="#E3E3E3" height="32.6211" rx="2.5" ry="2.5" style="stroke:#181818;stroke-width:0.5;" width="98" x="566" y="50"/><text fill="#000000" font-family="sans-serif" font-size="14" lengthAdjust="spacing" textLength="84" x="573" y="72.1074">:CreateSkillUI</text><rect fill="#E3E3E3" height="32.6211" rx="2.5" ry="2.5" style="stroke:#181818;stroke-width:0.5;" width="98" x="566" y="1018.332"/><text fill="#000000" font-family="sans-serif" font-size="14" lengthAdjust="spacing" textLength="84" x="573" y="1040.4395">:CreateSkillUI</text><rect fill="#E3E3E3" height="32.6211" rx="2.5" ry="2.5" style="stroke:#181818;stroke-width:0.5;" width="148" x="1017" y="1018.332"/><text fill="#000000" font-family="sans-serif" font-size="14" lengthAdjust="spacing" textLength="134" x="1024" y="1040.4395">:CreateSkillController</text><rect fill="#E3E3E3" height="51.2422" rx="2.5" ry="2.5" style="stroke:#181818;stroke-width:0.5;" width="98" x="1518" y="31.3789"/><text fill="#000000" font-family="sans-serif" font-size="14" lengthAdjust="spacing" textLength="77" x="1528.5" y="53.4863">organization</text><text fill="#000000" font-family="sans-serif" font-size="14" lengthAdjust="spacing" textLength="84" x="1525" y="72.1074">:Organization</text><rect fill="#E3E3E3" height="51.2422" rx="2.5" ry="2.5" style="stroke:#181818;stroke-width:0.5;" width="98" x="1518" y="1018.332"/><text fill="#000000" font-family="sans-serif" font-size="14" lengthAdjust="spacing" textLength="77" x="1528.5" y="1040.4395">organization</text><text fill="#000000" font-family="sans-serif" font-size="14" lengthAdjust="spacing" textLength="84" x="1525" y="1059.0605">:Organization</text><rect fill="#FFFFFF" height="907.7109" style="stroke:#181818;stroke-width:1.0;" width="10" x="76" y="93.6211"/><rect fill="#FFFFFF" height="201.707" style="stroke:#181818;stroke-width:1.0;" width="10" x="610" y="116.9121"/><rect fill="#FFFFFF" height="31.291" style="stroke:#181818;stroke-width:1.0;" width="10" x="610" y="349.9102"/><rect fill="#FFFFFF" height="31.291" style="stroke:#181818;stroke-width:1.0;" width="10" x="610" y="412.4922"/><rect fill="#FFFFFF" height="526.2578" style="stroke:#181818;stroke-width:1.0;" width="10" x="610" y="475.0742"/><rect fill="#FFFFFF" height="95.5039" style="stroke:#181818;stroke-width:1.0;" width="10" x="1086" y="191.8242"/><rect fill="#FFFFFF" height="463.6758" style="stroke:#181818;stroke-width:1.0;" width="10" x="1086" y="506.3652"/><rect fill="#FFFFFF" height="106.5039" style="stroke:#181818;stroke-width:1.0;" width="10" x="1091" y="545.6563"/><rect fill="#FFFFFF" height="106.5039" style="stroke:#181818;stroke-width:1.0;" width="10" x="1091" y="698.4512"/><rect fill="#FFFFFF" height="95.5039" style="stroke:#181818;stroke-width:1.0;" width="10" x="1562" y="843.2461"/><polygon fill="#181818" points="598,112.9121,608,116.9121,598,120.9121,602,116.9121" style="stroke:#181818;stroke-width:1.0;"/><line style="stroke:#181818;stroke-width:1.0;" x1="86" x2="604" y1="116.9121" y2="116.9121"/><text fill="#000000" font-family="sans-serif" font-size="13" font-weight="bold" lengthAdjust="spacing" textLength="7" x="93" y="111.6494">1</text><text fill="#000000" font-family="sans-serif" font-size="13" lengthAdjust="spacing" textLength="150" x="104" y="111.6494">asks to create a new Skill</text><polygon fill="#181818" points="1005,144.2031,1015,148.2031,1005,152.2031,1009,148.2031" style="stroke:#181818;stroke-width:1.0;"/><line style="stroke:#181818;stroke-width:1.0;" x1="620" x2="1011" y1="148.2031" y2="148.2031"/><text fill="#000000" font-family="sans-serif" font-size="13" font-weight="bold" lengthAdjust="spacing" textLength="7" x="627" y="142.9404">2</text><text fill="#000000" font-family="sans-serif" font-size="13" lengthAdjust="spacing" textLength="36" x="638" y="142.9404">create</text><rect fill="#E3E3E3" height="32.6211" rx="2.5" ry="2.5" style="stroke:#181818;stroke-width:0.5;" width="148" x="1017" y="124.9121"/><text fill="#000000" font-family="sans-serif" font-size="14" lengthAdjust="spacing" textLength="134" x="1024" y="147.0195">:CreateSkillController</text><polygon fill="#181818" points="1074,187.8242,1084,191.8242,1074,195.8242,1078,191.8242" style="stroke:#181818;stroke-width:1.0;"/><line style="stroke:#181818;stroke-width:1.0;" x1="620" x2="1080" y1="191.8242" y2="191.8242"/><text fill="#000000" font-family="sans-serif" font-size="13" font-weight="bold" lengthAdjust="spacing" textLength="7" x="627" y="186.5615">3</text><text fill="#000000" font-family="sans-serif" font-size="13" lengthAdjust="spacing" textLength="113" x="638" y="186.5615">getSkillCategories()</text><rect fill="none" height="59.2129" style="stroke:#000000;stroke-width:1.5;" width="154" x="1014" y="199.8242"/><path d="M1014,199.8242 L1076,199.8242 L1076,208.8242 L1066,218.8242 L1014,218.8242 L1014,199.8242 " fill="#EEEEEE" style="stroke:#000000;stroke-width:2.0;"/><text fill="#000000" font-family="sans-serif" font-size="13" font-weight="bold" lengthAdjust="spacing" textLength="17" x="1027" y="215.8525">ref</text><text fill="#000000" font-family="sans-serif" font-size="12" lengthAdjust="spacing" textLength="120" x="1031" y="235.7734">Get Skill Category List</text><text fill="#000000" font-family="sans-serif" font-size="12" lengthAdjust="spacing" textLength="3" x="1089.5" y="251.7344">&#160;</text><polygon fill="#181818" points="631,283.3281,621,287.3281,631,291.3281,627,287.3281" style="stroke:#181818;stroke-width:1.0;"/><line style="stroke:#181818;stroke-width:1.0;stroke-dasharray:2.0,2.0;" x1="625" x2="1090" y1="287.3281" y2="287.3281"/><text fill="#000000" font-family="sans-serif" font-size="13" font-weight="bold" lengthAdjust="spacing" textLength="7" x="637" y="282.0654">4</text><text fill="#000000" font-family="sans-serif" font-size="13" lengthAdjust="spacing" textLength="98" x="648" y="282.0654">SkillCategoryList</text><polygon fill="#181818" points="97,314.6191,87,318.6191,97,322.6191,93,318.6191" style="stroke:#181818;stroke-width:1.0;"/><line style="stroke:#181818;stroke-width:1.0;stroke-dasharray:2.0,2.0;" x1="91" x2="614" y1="318.6191" y2="318.6191"/><text fill="#000000" font-family="sans-serif" font-size="13" font-weight="bold" lengthAdjust="spacing" textLength="7" x="103" y="313.3564">5</text><text fill="#000000" font-family="sans-serif" font-size="13" lengthAdjust="spacing" textLength="275" x="114" y="313.3564">shows skill category list and asks to select one</text><polygon fill="#181818" points="598,345.9102,608,349.9102,598,353.9102,602,349.9102" style="stroke:#181818;stroke-width:1.0;"/><line style="stroke:#181818;stroke-width:1.0;" x1="86" x2="604" y1="349.9102" y2="349.9102"/><text fill="#000000" font-family="sans-serif" font-size="13" font-weight="bold" lengthAdjust="spacing" textLength="7" x="93" y="344.6475">6</text><text fill="#000000" font-family="sans-serif" font-size="13" lengthAdjust="spacing" textLength="134" x="104" y="344.6475">selects a skill category</text><polygon fill="#181818" points="97,377.2012,87,381.2012,97,385.2012,93,381.2012" style="stroke:#181818;stroke-width:1.0;"/><line style="stroke:#181818;stroke-width:1.0;stroke-dasharray:2.0,2.0;" x1="91" x2="614" y1="381.2012" y2="381.2012"/><text fill="#000000" font-family="sans-serif" font-size="13" font-weight="bold" lengthAdjust="spacing" textLength="7" x="103" y="375.9385">7</text><text fill="#000000" font-family="sans-serif" font-size="13" lengthAdjust="spacing" textLength="79" x="114" y="375.9385">requests data</text><polygon fill="#181818" points="598,408.4922,608,412.4922,598,416.4922,602,412.4922" style="stroke:#181818;stroke-width:1.0;"/><line style="stroke:#181818;stroke-width:1.0;" x1="86" x2="604" y1="412.4922" y2="412.4922"/><text fill="#000000" font-family="sans-serif" font-size="13" font-weight="bold" lengthAdjust="spacing" textLength="7" x="93" y="407.2295">8</text><text fill="#000000" font-family="sans-serif" font-size="13" lengthAdjust="spacing" textLength="494" x="104" y="407.2295">types requested data (name, SkillCategory, informalDescription, technicalDescription)</text><polygon fill="#181818" points="97,439.7832,87,443.7832,97,447.7832,93,443.7832" style="stroke:#181818;stroke-width:1.0;"/><line style="stroke:#181818;stroke-width:1.0;stroke-dasharray:2.0,2.0;" x1="91" x2="614" y1="443.7832" y2="443.7832"/><text fill="#000000" font-family="sans-serif" font-size="13" font-weight="bold" lengthAdjust="spacing" textLength="7" x="103" y="438.5205">9</text><text fill="#000000" font-family="sans-serif" font-size="13" lengthAdjust="spacing" textLength="259" x="114" y="438.5205">shows selected category and requested data</text><polygon fill="#181818" points="598,471.0742,608,475.0742,598,479.0742,602,475.0742" style="stroke:#181818;stroke-width:1.0;"/><line style="stroke:#181818;stroke-width:1.0;" x1="86" x2="604" y1="475.0742" y2="475.0742"/><text fill="#000000" font-family="sans-serif" font-size="13" font-weight="bold" lengthAdjust="spacing" textLength="14" x="93" y="469.8115">10</text><text fill="#000000" font-family="sans-serif" font-size="13" lengthAdjust="spacing" textLength="75" x="111" y="469.8115">submits data</text><polygon fill="#181818" points="1074,502.3652,1084,506.3652,1074,510.3652,1078,506.3652" style="stroke:#181818;stroke-width:1.0;"/><line style="stroke:#181818;stroke-width:1.0;" x1="620" x2="1080" y1="506.3652" y2="506.3652"/><text fill="#000000" font-family="sans-serif" font-size="13" font-weight="bold" lengthAdjust="spacing" textLength="14" x="627" y="501.1025">11</text><text fill="#000000" font-family="sans-serif" font-size="13" lengthAdjust="spacing" textLength="429" x="645" y="501.1025">createSkill(name, SkillCategory, informalDescription, technicalDescription)</text><line style="stroke:#181818;stroke-width:1.0;" x1="1096" x2="1143" y1="532.6563" y2="532.6563"/><line style="stroke:#181818;stroke-width:1.0;" x1="1143" x2="1143" y1="532.6563" y2="545.6563"/><line style="stroke:#181818;stroke-width:1.0;" x1="1102" x2="1143" y1="545.6563" y2="545.6563"/><polygon fill="#181818" points="1112,541.6563,1102,545.6563,1112,549.6563,1108,545.6563" style="stroke:#181818;stroke-width:1.0;"/><text fill="#000000" font-family="sans-serif" font-size="13" font-weight="bold" lengthAdjust="spacing" textLength="14" x="1108" y="527.3936">12</text><text fill="#000000" font-family="sans-serif" font-size="13" lengthAdjust="spacing" textLength="210" x="1126" y="527.3936">getSkillCategoryByName(skillName)</text><rect fill="none" height="59.2129" style="stroke:#000000;stroke-width:1.5;" width="154" x="1014" y="558.6563"/><path d="M1014,558.6563 L1076,558.6563 L1076,567.6563 L1066,577.6563 L1014,577.6563 L1014,558.6563 " fill="#EEEEEE" style="stroke:#000000;stroke-width:2.0;"/><text fill="#000000" font-family="sans-serif" font-size="13" font-weight="bold" lengthAdjust="spacing" textLength="17" x="1027" y="574.6846">ref</text><text fill="#000000" font-family="sans-serif" font-size="12" lengthAdjust="spacing" textLength="135" x="1023.5" y="594.6055">Get Skill Category Object</text><text fill="#000000" font-family="sans-serif" font-size="12" lengthAdjust="spacing" textLength="3" x="1089.5" y="610.5664">&#160;</text><line style="stroke:#181818;stroke-width:1.0;stroke-dasharray:2.0,2.0;" x1="1101" x2="1143" y1="651.1602" y2="651.1602"/><line style="stroke:#181818;stroke-width:1.0;stroke-dasharray:2.0,2.0;" x1="1143" x2="1143" y1="651.1602" y2="664.1602"/><line style="stroke:#181818;stroke-width:1.0;stroke-dasharray:2.0,2.0;" x1="1096" x2="1143" y1="664.1602" y2="664.1602"/><polygon fill="#181818" points="1106,660.1602,1096,664.1602,1106,668.1602,1102,664.1602" style="stroke:#181818;stroke-width:1.0;"/><text fill="#000000" font-family="sans-serif" font-size="13" font-weight="bold" lengthAdjust="spacing" textLength="14" x="1108" y="645.8975">13</text><text fill="#000000" font-family="sans-serif" font-size="13" lengthAdjust="spacing" textLength="77" x="1126" y="645.8975">SkillCategory</text><line style="stroke:#181818;stroke-width:1.0;" x1="1096" x2="1143" y1="685.4512" y2="685.4512"/><line style="stroke:#181818;stroke-width:1.0;" x1="1143" x2="1143" y1="685.4512" y2="698.4512"/><line style="stroke:#181818;stroke-width:1.0;" x1="1102" x2="1143" y1="698.4512" y2="698.4512"/><polygon fill="#181818" points="1112,694.4512,1102,698.4512,1112,702.4512,1108,698.4512" style="stroke:#181818;stroke-width:1.0;"/><text fill="#000000" font-family="sans-serif" font-size="13" font-weight="bold" lengthAdjust="spacing" textLength="14" x="1108" y="680.1885">14</text><text fill="#000000" font-family="sans-serif" font-size="13" lengthAdjust="spacing" textLength="161" x="1126" y="680.1885">getEmployeeFromSession()</text><rect fill="none" height="59.2129" style="stroke:#000000;stroke-width:1.5;" width="154" x="1014" y="711.4512"/><path d="M1014,711.4512 L1076,711.4512 L1076,720.4512 L1066,730.4512 L1014,730.4512 L1014,711.4512 " fill="#EEEEEE" style="stroke:#000000;stroke-width:2.0;"/><text fill="#000000" font-family="sans-serif" font-size="13" font-weight="bold" lengthAdjust="spacing" textLength="17" x="1027" y="727.4795">ref</text><text fill="#000000" font-family="sans-serif" font-size="12" lengthAdjust="spacing" textLength="77" x="1052.5" y="747.4004">Get Employee</text><text fill="#000000" font-family="sans-serif" font-size="12" lengthAdjust="spacing" textLength="3" x="1089.5" y="763.3613">&#160;</text><line style="stroke:#181818;stroke-width:1.0;" x1="1101" x2="1143" y1="803.9551" y2="803.9551"/><line style="stroke:#181818;stroke-width:1.0;" x1="1143" x2="1143" y1="803.9551" y2="816.9551"/><line style="stroke:#181818;stroke-width:1.0;" x1="1096" x2="1143" y1="816.9551" y2="816.9551"/><polygon fill="#181818" points="1106,812.9551,1096,816.9551,1106,820.9551,1102,816.9551" style="stroke:#181818;stroke-width:1.0;"/><text fill="#000000" font-family="sans-serif" font-size="13" font-weight="bold" lengthAdjust="spacing" textLength="14" x="1108" y="798.6924">15</text><text fill="#000000" font-family="sans-serif" font-size="13" lengthAdjust="spacing" textLength="56" x="1126" y="798.6924">employee</text><polygon fill="#181818" points="1550,839.2461,1560,843.2461,1550,847.2461,1554,843.2461" style="stroke:#181818;stroke-width:1.0;"/><line style="stroke:#181818;stroke-width:1.0;" x1="1096" x2="1556" y1="843.2461" y2="843.2461"/><text fill="#000000" font-family="sans-serif" font-size="13" font-weight="bold" lengthAdjust="spacing" textLength="14" x="1103" y="837.9834">16</text><text fill="#000000" font-family="sans-serif" font-size="13" lengthAdjust="spacing" textLength="429" x="1121" y="837.9834">createSkill(name, SkillCategory, informalDescription, technicalDescription)</text><rect fill="none" height="59.2129" style="stroke:#000000;stroke-width:1.5;" width="104" x="1515" y="851.2461"/><path d="M1515,851.2461 L1577,851.2461 L1577,860.2461 L1567,870.2461 L1515,870.2461 L1515,851.2461 " fill="#EEEEEE" style="stroke:#000000;stroke-width:2.0;"/><text fill="#000000" font-family="sans-serif" font-size="13" font-weight="bold" lengthAdjust="spacing" textLength="17" x="1528" y="867.2744">ref</text><text fill="#000000" font-family="sans-serif" font-size="12" lengthAdjust="spacing" textLength="63" x="1535.5" y="887.1953">Create Skill</text><text fill="#000000" font-family="sans-serif" font-size="12" lengthAdjust="spacing" textLength="3" x="1565.5" y="903.1563">&#160;</text><polygon fill="#181818" points="1107,934.75,1097,938.75,1107,942.75,1103,938.75" style="stroke:#181818;stroke-width:1.0;"/><line style="stroke:#181818;stroke-width:1.0;stroke-dasharray:2.0,2.0;" x1="1101" x2="1566" y1="938.75" y2="938.75"/><text fill="#000000" font-family="sans-serif" font-size="13" font-weight="bold" lengthAdjust="spacing" textLength="14" x="1113" y="933.4873">17</text><text fill="#000000" font-family="sans-serif" font-size="13" lengthAdjust="spacing" textLength="23" x="1131" y="933.4873">skill</text><polygon fill="#181818" points="631,966.041,621,970.041,631,974.041,627,970.041" style="stroke:#181818;stroke-width:1.0;"/><line style="stroke:#181818;stroke-width:1.0;stroke-dasharray:2.0,2.0;" x1="625" x2="1090" y1="970.041" y2="970.041"/><text fill="#000000" font-family="sans-serif" font-size="13" font-weight="bold" lengthAdjust="spacing" textLength="14" x="637" y="964.7783">18</text><text fill="#000000" font-family="sans-serif" font-size="13" lengthAdjust="spacing" textLength="23" x="655" y="964.7783">skill</text><polygon fill="#181818" points="92,997.332,82,1001.332,92,1005.332,88,1001.332" style="stroke:#181818;stroke-width:1.0;"/><line style="stroke:#181818;stroke-width:1.0;stroke-dasharray:2.0,2.0;" x1="86" x2="614" y1="1001.332" y2="1001.332"/><text fill="#000000" font-family="sans-serif" font-size="13" font-weight="bold" lengthAdjust="spacing" textLength="14" x="98" y="996.0693">19</text><text fill="#000000" font-family="sans-serif" font-size="13" lengthAdjust="spacing" textLength="158" x="116" y="996.0693">displays operation success</text><!--SRC=[jLN1Rjim3BtxAuXSbXJf3-GmO4ktea2t0CrwsuMH6KUBB7cItCpx-j5oxCXpd6R0wfCjyJq-Fb6qsqjTeCKSSgEDs5cJ4tXRKkAwdGB57ZDQ-qeHM18UTQRY0BV3r1oapc2Bob6IOEcDBlCDsIHvjvCfmTOOlp6_4XJUM9YiR8PQ_aOlZOPFUQ5CHJG1TF3Xxal2h5uAMQ3sC5aiBQ6dzLugzVmGOfuVnaEMHdjhb28RGfVVdXxxmIPA_LqlOYK1iNgwJsgPyeKfWvm4-E4Nk7tFgM71KNi7te08QG51qm52zYQsGxFGi50_Z6HyhUVcXZaQx9bTtil8DxLmH6Qi93UTTP6Mjc1Uo3QbGVJSaszKm15OmQDq_YI1T5h3JmkTqC3L8mjIRjkAOpbL86tZKXeXgIjYUEtRWZl471ou84wquXJp0BAcraz7YhiBZ6vyYQXR8-DJQA8Tsz_dlNm4dIHBFqjoZ4_HupNvV5MGQs6K1XnCDUOqx_ip1wctnkQexiW9Aukwj-RWIUoq5BtLsPLYZ_w5YZbrPo664uqLNULSkSbbNFah3TkrQoZplvHyLVUDNOZgO_MLDKp3kTTlinxu0k_b2tJX8gqsFzZw8TdWIWtkpx64dlvUzEWDEcz4Eoq_ywXUatDiwVGDwc_JZ9Tylk9EAhK4_rmhJ-2tQRYUEM7EZtfJxvwpfldJnCF-Bsk6YqmLDq9esZ5J1gAYCVmAT72Qfm6oW5IwGc7bm1Hacx-kAuNWzZatBwBF-l_t1m00]--></g></svg>