<?xml version="1.0" encoding="us-ascii" standalone="no"?><svg xmlns="http://www.w3.org/2000/svg" xmlns:xlink="http://www.w3.org/1999/xlink" contentStyleType="text/css" height="413px" preserveAspectRatio="none" style="width:1124px;height:413px;background:#FFFFFF;" version="1.1" viewBox="0 0 1124 413" width="1124px" zoomAndPan="magnify"><defs/><g><!--class Skill--><g id="elem_Skill"><rect codeLine="12" fill="#F1F1F1" height="122.4844" id="Skill" rx="2.5" ry="2.5" style="stroke:#181818;stroke-width:0.5;" width="443" x="674" y="274.5"/><ellipse cx="878.75" cy="290.5" fill="#ADD1B2" rx="11" ry="11" style="stroke:#181818;stroke-width:1.0;"/><path d="M881.5156,286.375 Q881.6719,286.1563 881.8594,286.0469 Q882.0469,285.9375 882.2656,285.9375 Q882.6406,285.9375 882.875,286.2031 Q883.1094,286.4531 883.1094,287.0625 L883.1094,288.5156 Q883.1094,289.125 882.875,289.3906 Q882.6406,289.6563 882.2656,289.6563 Q881.9219,289.6563 881.7188,289.4531 Q881.5156,289.2656 881.4063,288.75 Q881.3594,288.3906 881.1719,288.2031 Q880.8438,287.8281 880.2344,287.6094 Q879.625,287.3906 879,287.3906 Q878.2344,287.3906 877.5938,287.7188 Q876.9688,288.0469 876.4688,288.7969 Q875.9844,289.5469 875.9844,290.5781 L875.9844,291.6719 Q875.9844,292.9063 876.875,293.7344 Q877.7656,294.5469 879.3594,294.5469 Q880.2969,294.5469 880.9531,294.2969 Q881.3438,294.1406 881.7656,293.7031 Q882.0313,293.4375 882.1719,293.3594 Q882.3281,293.2813 882.5313,293.2813 Q882.8594,293.2813 883.1094,293.5469 Q883.375,293.7969 883.375,294.1406 Q883.375,294.4844 883.0313,294.8906 Q882.5313,295.4688 881.7344,295.7969 Q880.6563,296.25 879.3594,296.25 Q877.8438,296.25 876.6406,295.625 Q875.6563,295.125 874.9688,294.0625 Q874.2813,292.9844 874.2813,291.7031 L874.2813,290.5469 Q874.2813,289.2188 874.8906,288.0781 Q875.5156,286.9219 876.6094,286.3125 Q877.7031,285.6875 878.9375,285.6875 Q879.6719,285.6875 880.3125,285.8594 Q880.9688,286.0156 881.5156,286.375 Z " fill="#000000"/><text fill="#000000" font-family="sans-serif" font-size="14" lengthAdjust="spacing" textLength="25" x="899.25" y="296.2969">Skill</text><line style="stroke:#181818;stroke-width:0.5;" x1="675" x2="1116" y1="306.5" y2="306.5"/><text fill="#000000" font-family="sans-serif" font-size="14" lengthAdjust="spacing" textLength="81" x="680" y="325.6074">-String name</text><text fill="#000000" font-family="sans-serif" font-size="14" lengthAdjust="spacing" textLength="167" x="680" y="344.2285">-String informalDescription</text><text fill="#000000" font-family="sans-serif" font-size="14" lengthAdjust="spacing" textLength="173" x="680" y="362.8496">-String technicalDescription</text><line style="stroke:#181818;stroke-width:0.5;" x1="675" x2="1116" y1="370.3633" y2="370.3633"/><text fill="#000000" font-family="sans-serif" font-size="14" lengthAdjust="spacing" textLength="431" x="680" y="389.4707">+Skill(name, skillCategory, informalDescription, technicalDescription)</text></g><!--class SkillController--><g id="elem_SkillController"><rect codeLine="21" fill="#F1F1F1" height="141.1055" id="SkillController" rx="2.5" ry="2.5" style="stroke:#181818;stroke-width:0.5;" width="419" x="7" y="265"/><ellipse cx="168.75" cy="281" fill="#ADD1B2" rx="11" ry="11" style="stroke:#181818;stroke-width:1.0;"/><path d="M171.5156,276.875 Q171.6719,276.6563 171.8594,276.5469 Q172.0469,276.4375 172.2656,276.4375 Q172.6406,276.4375 172.875,276.7031 Q173.1094,276.9531 173.1094,277.5625 L173.1094,279.0156 Q173.1094,279.625 172.875,279.8906 Q172.6406,280.1563 172.2656,280.1563 Q171.9219,280.1563 171.7188,279.9531 Q171.5156,279.7656 171.4063,279.25 Q171.3594,278.8906 171.1719,278.7031 Q170.8438,278.3281 170.2344,278.1094 Q169.625,277.8906 169,277.8906 Q168.2344,277.8906 167.5938,278.2188 Q166.9688,278.5469 166.4688,279.2969 Q165.9844,280.0469 165.9844,281.0781 L165.9844,282.1719 Q165.9844,283.4063 166.875,284.2344 Q167.7656,285.0469 169.3594,285.0469 Q170.2969,285.0469 170.9531,284.7969 Q171.3438,284.6406 171.7656,284.2031 Q172.0313,283.9375 172.1719,283.8594 Q172.3281,283.7813 172.5313,283.7813 Q172.8594,283.7813 173.1094,284.0469 Q173.375,284.2969 173.375,284.6406 Q173.375,284.9844 173.0313,285.3906 Q172.5313,285.9688 171.7344,286.2969 Q170.6563,286.75 169.3594,286.75 Q167.8438,286.75 166.6406,286.125 Q165.6563,285.625 164.9688,284.5625 Q164.2813,283.4844 164.2813,282.2031 L164.2813,281.0469 Q164.2813,279.7188 164.8906,278.5781 Q165.5156,277.4219 166.6094,276.8125 Q167.7031,276.1875 168.9375,276.1875 Q169.6719,276.1875 170.3125,276.3594 Q170.9688,276.5156 171.5156,276.875 Z " fill="#000000"/><text fill="#000000" font-family="sans-serif" font-size="14" lengthAdjust="spacing" textLength="87" x="189.25" y="286.7969">SkillController</text><line style="stroke:#181818;stroke-width:0.5;" x1="8" x2="425" y1="297" y2="297"/><line style="stroke:#181818;stroke-width:0.5;" x1="8" x2="425" y1="305" y2="305"/><text fill="#000000" font-family="sans-serif" font-size="14" lengthAdjust="spacing" textLength="407" x="13" y="324.1074">+SkillController(technicalSkillRepository, organizationRepository)</text><text fill="#000000" font-family="sans-serif" font-size="14" lengthAdjust="spacing" textLength="70" x="13" y="342.7285">+getSkills()</text><text fill="#000000" font-family="sans-serif" font-size="14" lengthAdjust="spacing" textLength="382" x="13" y="361.3496">+createSkill\(name,informalDescription, technicalDescription)</text><text fill="#000000" font-family="sans-serif" font-size="14" lengthAdjust="spacing" textLength="255" x="13" y="379.9707">+assignSkillToEmployee(skill, employee)</text><text fill="#000000" font-family="sans-serif" font-size="14" lengthAdjust="spacing" textLength="180" x="13" y="398.5918">-getEmployeeFromSession()</text></g><!--class AddSkillToACollaboratorUI--><g id="elem_AddSkillToACollaboratorUI"><rect codeLine="31" fill="#F1F1F1" height="48" id="AddSkillToACollaboratorUI" rx="2.5" ry="2.5" style="stroke:#181818;stroke-width:0.5;" width="198" x="117.5" y="81.5"/><ellipse cx="132.5" cy="97.5" fill="#ADD1B2" rx="11" ry="11" style="stroke:#181818;stroke-width:1.0;"/><path d="M135.2656,93.375 Q135.4219,93.1563 135.6094,93.0469 Q135.7969,92.9375 136.0156,92.9375 Q136.3906,92.9375 136.625,93.2031 Q136.8594,93.4531 136.8594,94.0625 L136.8594,95.5156 Q136.8594,96.125 136.625,96.3906 Q136.3906,96.6563 136.0156,96.6563 Q135.6719,96.6563 135.4688,96.4531 Q135.2656,96.2656 135.1563,95.75 Q135.1094,95.3906 134.9219,95.2031 Q134.5938,94.8281 133.9844,94.6094 Q133.375,94.3906 132.75,94.3906 Q131.9844,94.3906 131.3438,94.7188 Q130.7188,95.0469 130.2188,95.7969 Q129.7344,96.5469 129.7344,97.5781 L129.7344,98.6719 Q129.7344,99.9063 130.625,100.7344 Q131.5156,101.5469 133.1094,101.5469 Q134.0469,101.5469 134.7031,101.2969 Q135.0938,101.1406 135.5156,100.7031 Q135.7813,100.4375 135.9219,100.3594 Q136.0781,100.2813 136.2813,100.2813 Q136.6094,100.2813 136.8594,100.5469 Q137.125,100.7969 137.125,101.1406 Q137.125,101.4844 136.7813,101.8906 Q136.2813,102.4688 135.4844,102.7969 Q134.4063,103.25 133.1094,103.25 Q131.5938,103.25 130.3906,102.625 Q129.4063,102.125 128.7188,101.0625 Q128.0313,99.9844 128.0313,98.7031 L128.0313,97.5469 Q128.0313,96.2188 128.6406,95.0781 Q129.2656,93.9219 130.3594,93.3125 Q131.4531,92.6875 132.6875,92.6875 Q133.4219,92.6875 134.0625,92.8594 Q134.7188,93.0156 135.2656,93.375 Z " fill="#000000"/><text fill="#000000" font-family="sans-serif" font-size="14" lengthAdjust="spacing" textLength="166" x="146.5" y="103.2969">AddSkillToACollaboratorUI</text><line style="stroke:#181818;stroke-width:0.5;" x1="118.5" x2="314.5" y1="113.5" y2="113.5"/><line style="stroke:#181818;stroke-width:0.5;" x1="118.5" x2="314.5" y1="121.5" y2="121.5"/></g><!--class CollaboratorRepository--><g id="elem_CollaboratorRepository"><rect codeLine="34" fill="#F1F1F1" height="66.6211" id="CollaboratorRepository" rx="2.5" ry="2.5" style="stroke:#181818;stroke-width:0.5;" width="178" x="645.5" y="72"/><ellipse cx="660.5" cy="88" fill="#ADD1B2" rx="11" ry="11" style="stroke:#181818;stroke-width:1.0;"/><path d="M663.2656,83.875 Q663.4219,83.6563 663.6094,83.5469 Q663.7969,83.4375 664.0156,83.4375 Q664.3906,83.4375 664.625,83.7031 Q664.8594,83.9531 664.8594,84.5625 L664.8594,86.0156 Q664.8594,86.625 664.625,86.8906 Q664.3906,87.1563 664.0156,87.1563 Q663.6719,87.1563 663.4688,86.9531 Q663.2656,86.7656 663.1563,86.25 Q663.1094,85.8906 662.9219,85.7031 Q662.5938,85.3281 661.9844,85.1094 Q661.375,84.8906 660.75,84.8906 Q659.9844,84.8906 659.3438,85.2188 Q658.7188,85.5469 658.2188,86.2969 Q657.7344,87.0469 657.7344,88.0781 L657.7344,89.1719 Q657.7344,90.4063 658.625,91.2344 Q659.5156,92.0469 661.1094,92.0469 Q662.0469,92.0469 662.7031,91.7969 Q663.0938,91.6406 663.5156,91.2031 Q663.7813,90.9375 663.9219,90.8594 Q664.0781,90.7813 664.2813,90.7813 Q664.6094,90.7813 664.8594,91.0469 Q665.125,91.2969 665.125,91.6406 Q665.125,91.9844 664.7813,92.3906 Q664.2813,92.9688 663.4844,93.2969 Q662.4063,93.75 661.1094,93.75 Q659.5938,93.75 658.3906,93.125 Q657.4063,92.625 656.7188,91.5625 Q656.0313,90.4844 656.0313,89.2031 L656.0313,88.0469 Q656.0313,86.7188 656.6406,85.5781 Q657.2656,84.4219 658.3594,83.8125 Q659.4531,83.1875 660.6875,83.1875 Q661.4219,83.1875 662.0625,83.3594 Q662.7188,83.5156 663.2656,83.875 Z " fill="#000000"/><text fill="#000000" font-family="sans-serif" font-size="14" lengthAdjust="spacing" textLength="146" x="674.5" y="93.7969">CollaboratorRepository</text><line style="stroke:#181818;stroke-width:0.5;" x1="646.5" x2="822.5" y1="104" y2="104"/><line style="stroke:#181818;stroke-width:0.5;" x1="646.5" x2="822.5" y1="112" y2="112"/><text fill="#000000" font-family="sans-serif" font-size="14" lengthAdjust="spacing" textLength="123" x="651.5" y="131.1074">+getCollaborators()</text></g><!--class SkillRepository--><g id="elem_SkillRepository"><rect codeLine="38" fill="#F1F1F1" height="66.6211" id="SkillRepository" rx="2.5" ry="2.5" style="stroke:#181818;stroke-width:0.5;" width="125" x="461" y="302"/><ellipse cx="476" cy="318" fill="#ADD1B2" rx="11" ry="11" style="stroke:#181818;stroke-width:1.0;"/><path d="M478.7656,313.875 Q478.9219,313.6563 479.1094,313.5469 Q479.2969,313.4375 479.5156,313.4375 Q479.8906,313.4375 480.125,313.7031 Q480.3594,313.9531 480.3594,314.5625 L480.3594,316.0156 Q480.3594,316.625 480.125,316.8906 Q479.8906,317.1563 479.5156,317.1563 Q479.1719,317.1563 478.9688,316.9531 Q478.7656,316.7656 478.6563,316.25 Q478.6094,315.8906 478.4219,315.7031 Q478.0938,315.3281 477.4844,315.1094 Q476.875,314.8906 476.25,314.8906 Q475.4844,314.8906 474.8438,315.2188 Q474.2188,315.5469 473.7188,316.2969 Q473.2344,317.0469 473.2344,318.0781 L473.2344,319.1719 Q473.2344,320.4063 474.125,321.2344 Q475.0156,322.0469 476.6094,322.0469 Q477.5469,322.0469 478.2031,321.7969 Q478.5938,321.6406 479.0156,321.2031 Q479.2813,320.9375 479.4219,320.8594 Q479.5781,320.7813 479.7813,320.7813 Q480.1094,320.7813 480.3594,321.0469 Q480.625,321.2969 480.625,321.6406 Q480.625,321.9844 480.2813,322.3906 Q479.7813,322.9688 478.9844,323.2969 Q477.9063,323.75 476.6094,323.75 Q475.0938,323.75 473.8906,323.125 Q472.9063,322.625 472.2188,321.5625 Q471.5313,320.4844 471.5313,319.2031 L471.5313,318.0469 Q471.5313,316.7188 472.1406,315.5781 Q472.7656,314.4219 473.8594,313.8125 Q474.9531,313.1875 476.1875,313.1875 Q476.9219,313.1875 477.5625,313.3594 Q478.2188,313.5156 478.7656,313.875 Z " fill="#000000"/><text fill="#000000" font-family="sans-serif" font-size="14" lengthAdjust="spacing" textLength="93" x="490" y="323.7969">SkillRepository</text><line style="stroke:#181818;stroke-width:0.5;" x1="462" x2="585" y1="334" y2="334"/><line style="stroke:#181818;stroke-width:0.5;" x1="462" x2="585" y1="342" y2="342"/><text fill="#000000" font-family="sans-serif" font-size="14" lengthAdjust="spacing" textLength="70" x="467" y="361.1074">+getSkills()</text></g><!--class Collaborators--><g id="elem_Collaborators"><rect codeLine="41" fill="#F1F1F1" height="196.9688" id="Collaborators" rx="2.5" ry="2.5" style="stroke:#181818;stroke-width:0.5;" width="203" x="911" y="7"/><ellipse cx="965.75" cy="23" fill="#ADD1B2" rx="11" ry="11" style="stroke:#181818;stroke-width:1.0;"/><path d="M968.5156,18.875 Q968.6719,18.6563 968.8594,18.5469 Q969.0469,18.4375 969.2656,18.4375 Q969.6406,18.4375 969.875,18.7031 Q970.1094,18.9531 970.1094,19.5625 L970.1094,21.0156 Q970.1094,21.625 969.875,21.8906 Q969.6406,22.1563 969.2656,22.1563 Q968.9219,22.1563 968.7188,21.9531 Q968.5156,21.7656 968.4063,21.25 Q968.3594,20.8906 968.1719,20.7031 Q967.8438,20.3281 967.2344,20.1094 Q966.625,19.8906 966,19.8906 Q965.2344,19.8906 964.5938,20.2188 Q963.9688,20.5469 963.4688,21.2969 Q962.9844,22.0469 962.9844,23.0781 L962.9844,24.1719 Q962.9844,25.4063 963.875,26.2344 Q964.7656,27.0469 966.3594,27.0469 Q967.2969,27.0469 967.9531,26.7969 Q968.3438,26.6406 968.7656,26.2031 Q969.0313,25.9375 969.1719,25.8594 Q969.3281,25.7813 969.5313,25.7813 Q969.8594,25.7813 970.1094,26.0469 Q970.375,26.2969 970.375,26.6406 Q970.375,26.9844 970.0313,27.3906 Q969.5313,27.9688 968.7344,28.2969 Q967.6563,28.75 966.3594,28.75 Q964.8438,28.75 963.6406,28.125 Q962.6563,27.625 961.9688,26.5625 Q961.2813,25.4844 961.2813,24.2031 L961.2813,23.0469 Q961.2813,21.7188 961.8906,20.5781 Q962.5156,19.4219 963.6094,18.8125 Q964.7031,18.1875 965.9375,18.1875 Q966.6719,18.1875 967.3125,18.3594 Q967.9688,18.5156 968.5156,18.875 Z " fill="#000000"/><text fill="#000000" font-family="sans-serif" font-size="14" lengthAdjust="spacing" textLength="85" x="986.25" y="28.7969">Collaborators</text><line style="stroke:#181818;stroke-width:0.5;" x1="912" x2="1113" y1="39" y2="39"/><text fill="#000000" font-family="sans-serif" font-size="14" lengthAdjust="spacing" textLength="81" x="917" y="58.1074">-String name</text><text fill="#000000" font-family="sans-serif" font-size="14" lengthAdjust="spacing" textLength="102" x="917" y="76.7285">-String birthdate</text><text fill="#000000" font-family="sans-serif" font-size="14" lengthAdjust="spacing" textLength="141" x="917" y="95.3496">-String admission date</text><text fill="#000000" font-family="sans-serif" font-size="14" lengthAdjust="spacing" textLength="97" x="917" y="113.9707">-String address</text><text fill="#000000" font-family="sans-serif" font-size="14" lengthAdjust="spacing" textLength="70" x="917" y="132.5918">-Int contact</text><text fill="#000000" font-family="sans-serif" font-size="14" lengthAdjust="spacing" textLength="191" x="917" y="151.2129">-String identification document</text><text fill="#000000" font-family="sans-serif" font-size="14" lengthAdjust="spacing" textLength="177" x="917" y="169.834">-String identification number</text><text fill="#000000" font-family="sans-serif" font-size="14" lengthAdjust="spacing" textLength="102" x="917" y="188.4551">-List&lt;Skill&gt; skills</text><line style="stroke:#181818;stroke-width:0.5;" x1="912" x2="1113" y1="195.9688" y2="195.9688"/></g><!--class CollaboratorController--><g id="elem_CollaboratorController"><rect codeLine="52" fill="#F1F1F1" height="66.6211" id="CollaboratorController" rx="2.5" ry="2.5" style="stroke:#181818;stroke-width:0.5;" width="260" x="350.5" y="72"/><ellipse cx="406.25" cy="88" fill="#ADD1B2" rx="11" ry="11" style="stroke:#181818;stroke-width:1.0;"/><path d="M409.0156,83.875 Q409.1719,83.6563 409.3594,83.5469 Q409.5469,83.4375 409.7656,83.4375 Q410.1406,83.4375 410.375,83.7031 Q410.6094,83.9531 410.6094,84.5625 L410.6094,86.0156 Q410.6094,86.625 410.375,86.8906 Q410.1406,87.1563 409.7656,87.1563 Q409.4219,87.1563 409.2188,86.9531 Q409.0156,86.7656 408.9063,86.25 Q408.8594,85.8906 408.6719,85.7031 Q408.3438,85.3281 407.7344,85.1094 Q407.125,84.8906 406.5,84.8906 Q405.7344,84.8906 405.0938,85.2188 Q404.4688,85.5469 403.9688,86.2969 Q403.4844,87.0469 403.4844,88.0781 L403.4844,89.1719 Q403.4844,90.4063 404.375,91.2344 Q405.2656,92.0469 406.8594,92.0469 Q407.7969,92.0469 408.4531,91.7969 Q408.8438,91.6406 409.2656,91.2031 Q409.5313,90.9375 409.6719,90.8594 Q409.8281,90.7813 410.0313,90.7813 Q410.3594,90.7813 410.6094,91.0469 Q410.875,91.2969 410.875,91.6406 Q410.875,91.9844 410.5313,92.3906 Q410.0313,92.9688 409.2344,93.2969 Q408.1563,93.75 406.8594,93.75 Q405.3438,93.75 404.1406,93.125 Q403.1563,92.625 402.4688,91.5625 Q401.7813,90.4844 401.7813,89.2031 L401.7813,88.0469 Q401.7813,86.7188 402.3906,85.5781 Q403.0156,84.4219 404.1094,83.8125 Q405.2031,83.1875 406.4375,83.1875 Q407.1719,83.1875 407.8125,83.3594 Q408.4688,83.5156 409.0156,83.875 Z " fill="#000000"/><text fill="#000000" font-family="sans-serif" font-size="14" lengthAdjust="spacing" textLength="140" x="426.75" y="93.7969">CollaboratorController</text><line style="stroke:#181818;stroke-width:0.5;" x1="351.5" x2="609.5" y1="104" y2="104"/><line style="stroke:#181818;stroke-width:0.5;" x1="351.5" x2="609.5" y1="112" y2="112"/><text fill="#000000" font-family="sans-serif" font-size="14" lengthAdjust="spacing" textLength="248" x="356.5" y="131.1074">+getCollaboratorByEmail(collaborators)</text></g><!--link AddSkillToACollaboratorUI to SkillController--><g id="link_AddSkillToACollaboratorUI_SkillController"><path codeLine="56" d="M216.5,129.62 C216.5,161.09 216.5,212.79 216.5,258.95 " fill="none" id="AddSkillToACollaboratorUI-to-SkillController" style="stroke:#181818;stroke-width:1.0;"/><polygon fill="#181818" points="216.5,264.95,220.5,255.95,216.5,259.95,212.5,255.95,216.5,264.95" style="stroke:#181818;stroke-width:1.0;"/></g><!--link SkillController to SkillRepository--><g id="link_SkillController_SkillRepository"><path codeLine="57" d="M426.1,335.5 C432.97,335.5 440.21,335.5 454.78,335.5 " fill="none" id="SkillController-to-SkillRepository" style="stroke:#181818;stroke-width:1.0;"/><polygon fill="#181818" points="460.78,335.5,451.78,331.5,455.78,335.5,451.78,339.5,460.78,335.5" style="stroke:#181818;stroke-width:1.0;"/></g><!--link AddSkillToACollaboratorUI to CollaboratorController--><g id="link_AddSkillToACollaboratorUI_CollaboratorController"><path codeLine="58" d="M315.65,105.5 C324.53,105.5 331.55,105.5 344.37,105.5 " fill="none" id="AddSkillToACollaboratorUI-to-CollaboratorController" style="stroke:#181818;stroke-width:1.0;"/><polygon fill="#181818" points="350.37,105.5,341.37,101.5,345.37,105.5,341.37,109.5,350.37,105.5" style="stroke:#181818;stroke-width:1.0;"/></g><!--link CollaboratorController to CollaboratorRepository--><g id="link_CollaboratorController_CollaboratorRepository"><path codeLine="59" d="M610.97,105.5 C625,105.5 632.51,105.5 639.3,105.5 " fill="none" id="CollaboratorController-to-CollaboratorRepository" style="stroke:#181818;stroke-width:1.0;"/><polygon fill="#181818" points="645.3,105.5,636.3,101.5,640.3,105.5,636.3,109.5,645.3,105.5" style="stroke:#181818;stroke-width:1.0;"/></g><!--link CollaboratorRepository to Collaborators--><g id="link_CollaboratorRepository_Collaborators"><path codeLine="60" d="M823.61,105.5 C851.4,105.5 876.26,105.5 904.85,105.5 " fill="none" id="CollaboratorRepository-to-Collaborators" style="stroke:#181818;stroke-width:1.0;"/><polygon fill="#181818" points="910.85,105.5,901.85,101.5,905.85,105.5,901.85,109.5,910.85,105.5" style="stroke:#181818;stroke-width:1.0;"/><text fill="#000000" font-family="sans-serif" font-size="13" lengthAdjust="spacing" textLength="51" x="841.75" y="98.5283">Contains</text><text fill="#000000" font-family="sans-serif" font-size="13" lengthAdjust="spacing" textLength="7" x="831.5687" y="101.8266">1</text><text fill="#000000" font-family="sans-serif" font-size="13" lengthAdjust="spacing" textLength="19" x="884.0348" y="120.1373">0...</text></g><!--link SkillRepository to Skill--><g id="link_SkillRepository_Skill"><path codeLine="61" d="M586.18,335.5 C611.24,335.5 635.73,335.5 667.68,335.5 " fill="none" id="SkillRepository-to-Skill" style="stroke:#181818;stroke-width:1.0;"/><polygon fill="#181818" points="673.68,335.5,664.68,331.5,668.68,335.5,664.68,339.5,673.68,335.5" style="stroke:#181818;stroke-width:1.0;"/><text fill="#000000" font-family="sans-serif" font-size="13" lengthAdjust="spacing" textLength="51" x="604.5" y="328.5283">Contains</text><text fill="#000000" font-family="sans-serif" font-size="13" lengthAdjust="spacing" textLength="7" x="593.8321" y="331.5842">1</text><text fill="#000000" font-family="sans-serif" font-size="13" lengthAdjust="spacing" textLength="19" x="647.0898" y="349.8041">0...</text></g><!--SRC=[bLHDYzim4BthLuXSuh19s5vB2QJf5W9xQjfRBueyiOV86YDDMBpB_lVAiXD_hBDGd-mtRvxUF0sU-pFQKZbLo88iwTnH0PBT1KHNAPK-gmmEN1cG3ZGhcva-mUSgfHUqcJmfu_iLWnQuAa6MPAhwGymdYkIOHAzB6-NzbjdXySAmrsGF-0hoKOYvWHDB9kamorccMDj1iaA8s2GFPpH6lWaPdfKy18dWoge2XWZQ4xb2cH_WjSCoIWm833gtg8SC4JaFpI59hRgKldxVAOQCNBMS4bvEYYt4-y3pZYmxCWPSw_vXZ2StcLZu1ILvv7WgkKnPV5MrS8SlMfqCE7Ruv8fe1y5n1FysS_o7xqOY6CVCHedVz5IKXYg09AQnbD1-BzfGWuChvMVOi0E4Ph99pE2QmZPDMxNjBiohZkHKcEBFFkHnYwfVwGPzwmRj4tmo3dcovPRD-yGXlbsb3vlK0aTqdASXp06gqWBZY7AYbBemVeFjBSkmtQmq3qYOWcKyXUWvYf2-507vZ6ClnH5SmtX6pz_YM9jcF_rqWjrktKdmU_LKA3I9xYSIGxr_MwlLPhovOhpXLqft7vy9RkwO5jFmkA5to3GiPrzcTTFiSRrUpuRNBx_AMbcXzM9aUTJM_7bwTF4F]--></g></svg>