<?xml version="1.0" encoding="us-ascii" standalone="no"?><svg xmlns="http://www.w3.org/2000/svg" xmlns:xlink="http://www.w3.org/1999/xlink" contentStyleType="text/css" height="1667px" preserveAspectRatio="none" style="width:2429px;height:1667px;background:#FFFFFF;" version="1.1" viewBox="0 0 2429 1667" width="2429px" zoomAndPan="magnify"><defs/><g><rect fill="#FFFFFF" height="1472.7168" style="stroke:#181818;stroke-width:1.0;" width="10" x="91" y="93.6211"/><rect fill="#FFFFFF" height="438.4043" style="stroke:#181818;stroke-width:1.0;" width="10" x="424" y="116.9121"/><rect fill="#FFFFFF" height="48.582" style="stroke:#181818;stroke-width:1.0;" width="10" x="424" y="586.6074"/><rect fill="#FFFFFF" height="899.8574" style="stroke:#181818;stroke-width:1.0;" width="10" x="424" y="666.4805"/><rect fill="#FFFFFF" height="219.0371" style="stroke:#181818;stroke-width:1.0;" width="10" x="677" y="191.8242"/><rect fill="#FFFFFF" height="805.9844" style="stroke:#181818;stroke-width:1.0;" width="10" x="677" y="697.7715"/><rect fill="#FFFFFF" height="31.291" style="stroke:#181818;stroke-width:1.0;" width="10" x="880" y="223.1152"/><rect fill="#FFFFFF" height="31.291" style="stroke:#181818;stroke-width:1.0;" width="10" x="987" y="285.6973"/><rect fill="#FFFFFF" height="31.291" style="stroke:#181818;stroke-width:1.0;" width="10" x="987" y="961.0996"/><rect fill="#FFFFFF" height="31.291" style="stroke:#181818;stroke-width:1.0;" width="10" x="1101" y="348.2793"/><rect fill="#FFFFFF" height="31.291" style="stroke:#181818;stroke-width:1.0;" width="10" x="1235" y="773.3535"/><rect fill="#FFFFFF" height="31.291" style="stroke:#181818;stroke-width:1.0;" width="10" x="1382" y="835.9355"/><rect fill="#FFFFFF" height="31.291" style="stroke:#181818;stroke-width:1.0;" width="10" x="1515" y="898.5176"/><rect fill="#FFFFFF" height="127.1641" style="stroke:#181818;stroke-width:1.0;" width="10" x="1661" y="1023.6816"/><rect fill="#FFFFFF" height="31.291" style="stroke:#181818;stroke-width:1.0;" width="10" x="1882" y="1081.2637"/><rect fill="#FFFFFF" height="31.291" style="stroke:#181818;stroke-width:1.0;" width="10" x="1882" y="1182.1367"/><rect fill="#FFFFFF" height="189.7461" style="stroke:#181818;stroke-width:1.0;" width="10" x="1882" y="1314.0098"/><rect fill="#FFFFFF" height="127.1641" style="stroke:#181818;stroke-width:1.0;" width="10" x="2178" y="1345.3008"/><rect fill="#FFFFFF" height="95.873" style="stroke:#181818;stroke-width:1.0;" width="10" x="2371" y="1345.3008"/><rect fill="none" height="99.1641" style="stroke:#000000;stroke-width:1.5;" width="469" x="10" y="425.8613"/><rect fill="none" height="81.873" style="stroke:#000000;stroke-width:1.5;" width="371.5" x="1574.5" y="1038.6816"/><rect fill="none" height="50.582" style="stroke:#000000;stroke-width:1.5;" width="276" x="2147.5" y="1360.3008"/><line style="stroke:#181818;stroke-width:0.5;stroke-dasharray:5.0,5.0;" x1="96" x2="96" y1="83.6211" y2="1584.3379"/><line style="stroke:#181818;stroke-width:0.5;stroke-dasharray:5.0,5.0;" x1="429" x2="429" y1="83.6211" y2="1584.3379"/><line style="stroke:#181818;stroke-width:0.5;stroke-dasharray:5.0,5.0;" x1="682" x2="682" y1="156.7227" y2="1584.3379"/><line style="stroke:#181818;stroke-width:0.5;stroke-dasharray:5.0,5.0;" x1="884.5" x2="884.5" y1="83.6211" y2="1584.3379"/><line style="stroke:#181818;stroke-width:0.5;stroke-dasharray:5.0,5.0;" x1="991.5" x2="991.5" y1="83.6211" y2="1584.3379"/><line style="stroke:#181818;stroke-width:0.5;stroke-dasharray:5.0,5.0;" x1="1105.5" x2="1105.5" y1="83.6211" y2="1584.3379"/><line style="stroke:#181818;stroke-width:0.5;stroke-dasharray:5.0,5.0;" x1="1239.5" x2="1239.5" y1="83.6211" y2="1584.3379"/><line style="stroke:#181818;stroke-width:0.5;stroke-dasharray:5.0,5.0;" x1="1386.5" x2="1386.5" y1="83.6211" y2="1584.3379"/><line style="stroke:#181818;stroke-width:0.5;stroke-dasharray:5.0,5.0;" x1="1519.5" x2="1519.5" y1="83.6211" y2="1584.3379"/><line style="stroke:#181818;stroke-width:0.5;stroke-dasharray:5.0,5.0;" x1="1665.5" x2="1665.5" y1="83.6211" y2="1584.3379"/><line style="stroke:#181818;stroke-width:0.5;stroke-dasharray:5.0,5.0;" x1="1887" x2="1887" y1="83.6211" y2="1584.3379"/><line style="stroke:#181818;stroke-width:0.5;stroke-dasharray:5.0,5.0;" x1="2182.5" x2="2182.5" y1="83.6211" y2="1584.3379"/><line style="stroke:#181818;stroke-width:0.5;stroke-dasharray:5.0,5.0;" x1="2375.5" x2="2375.5" y1="83.6211" y2="1584.3379"/><text fill="#000000" font-family="sans-serif" font-size="14" lengthAdjust="spacing" textLength="146" x="20" y="80.1074">Organization Employee</text><ellipse cx="96" cy="13.5" fill="#E3E3E3" rx="8" ry="8" style="stroke:#181818;stroke-width:0.5;"/><path d="M96,21.5 L96,48.5 M83,29.5 L109,29.5 M96,48.5 L83,63.5 M96,48.5 L109,63.5 " fill="none" style="stroke:#181818;stroke-width:0.5;"/><text fill="#000000" font-family="sans-serif" font-size="14" lengthAdjust="spacing" textLength="146" x="20" y="1598.4453">Organization Employee</text><ellipse cx="96" cy="1610.459" fill="#E3E3E3" rx="8" ry="8" style="stroke:#181818;stroke-width:0.5;"/><path d="M96,1618.459 L96,1645.459 M83,1626.459 L109,1626.459 M96,1645.459 L83,1660.459 M96,1645.459 L109,1660.459 " fill="none" style="stroke:#181818;stroke-width:0.5;"/><rect fill="#E3E3E3" height="32.6211" rx="2.5" ry="2.5" style="stroke:#181818;stroke-width:0.5;" width="80" x="389" y="50"/><text fill="#000000" font-family="sans-serif" font-size="14" lengthAdjust="spacing" textLength="66" x="396" y="72.1074">:AddSkillUI</text><rect fill="#E3E3E3" height="32.6211" rx="2.5" ry="2.5" style="stroke:#181818;stroke-width:0.5;" width="80" x="389" y="1583.3379"/><text fill="#000000" font-family="sans-serif" font-size="14" lengthAdjust="spacing" textLength="66" x="396" y="1605.4453">:AddSkillUI</text><rect fill="#E3E3E3" height="32.6211" rx="2.5" ry="2.5" style="stroke:#181818;stroke-width:0.5;" width="130" x="617" y="1583.3379"/><text fill="#000000" font-family="sans-serif" font-size="14" lengthAdjust="spacing" textLength="116" x="624" y="1605.4453">:AddSkillController</text><rect fill="#E3E3E3" height="32.6211" rx="2.5" ry="2.5" style="stroke:#181818;stroke-width:0.5;" width="97" x="836.5" y="50"/><text fill="#000000" font-family="sans-serif" font-size="14" lengthAdjust="spacing" textLength="83" x="843.5" y="72.1074">:Repositories</text><rect fill="#E3E3E3" height="32.6211" rx="2.5" ry="2.5" style="stroke:#181818;stroke-width:0.5;" width="97" x="836.5" y="1583.3379"/><text fill="#000000" font-family="sans-serif" font-size="14" lengthAdjust="spacing" textLength="83" x="843.5" y="1605.4453">:Repositories</text><rect fill="#E3E3E3" height="51.2422" rx="2.5" ry="2.5" style="stroke:#181818;stroke-width:0.5;" width="97" x="943.5" y="31.3789"/><text fill="#000000" font-family="sans-serif" font-size="14" lengthAdjust="spacing" textLength="74" x="955" y="53.4863">repositories</text><text fill="#000000" font-family="sans-serif" font-size="14" lengthAdjust="spacing" textLength="83" x="950.5" y="72.1074">:Repositories</text><rect fill="#E3E3E3" height="51.2422" rx="2.5" ry="2.5" style="stroke:#181818;stroke-width:0.5;" width="97" x="943.5" y="1583.3379"/><text fill="#000000" font-family="sans-serif" font-size="14" lengthAdjust="spacing" textLength="74" x="955" y="1605.4453">repositories</text><text fill="#000000" font-family="sans-serif" font-size="14" lengthAdjust="spacing" textLength="83" x="950.5" y="1624.0664">:Repositories</text><rect fill="#E3E3E3" height="51.2422" rx="2.5" ry="2.5" style="stroke:#181818;stroke-width:0.5;" width="111" x="1050.5" y="31.3789"/><text fill="#000000" font-family="sans-serif" font-size="14" lengthAdjust="spacing" textLength="97" x="1057.5" y="53.4863">SkillRepository:</text><text fill="#000000" font-family="sans-serif" font-size="14" lengthAdjust="spacing" textLength="93" x="1059.5" y="72.1074">SkillRepository</text><rect fill="#E3E3E3" height="51.2422" rx="2.5" ry="2.5" style="stroke:#181818;stroke-width:0.5;" width="111" x="1050.5" y="1583.3379"/><text fill="#000000" font-family="sans-serif" font-size="14" lengthAdjust="spacing" textLength="97" x="1057.5" y="1605.4453">SkillRepository:</text><text fill="#000000" font-family="sans-serif" font-size="14" lengthAdjust="spacing" textLength="93" x="1059.5" y="1624.0664">SkillRepository</text><rect fill="#E3E3E3" height="32.6211" rx="2.5" ry="2.5" style="stroke:#181818;stroke-width:0.5;" width="137" x="1171.5" y="50"/><text fill="#000000" font-family="sans-serif" font-size="14" lengthAdjust="spacing" textLength="123" x="1178.5" y="72.1074">:ApplicationSession</text><rect fill="#E3E3E3" height="32.6211" rx="2.5" ry="2.5" style="stroke:#181818;stroke-width:0.5;" width="137" x="1171.5" y="1583.3379"/><text fill="#000000" font-family="sans-serif" font-size="14" lengthAdjust="spacing" textLength="123" x="1178.5" y="1605.4453">:ApplicationSession</text><rect fill="#E3E3E3" height="51.2422" rx="2.5" ry="2.5" style="stroke:#181818;stroke-width:0.5;" width="137" x="1318.5" y="31.3789"/><text fill="#000000" font-family="sans-serif" font-size="14" lengthAdjust="spacing" textLength="74" x="1350" y="53.4863">appSession</text><text fill="#000000" font-family="sans-serif" font-size="14" lengthAdjust="spacing" textLength="123" x="1325.5" y="72.1074">:ApplicationSession</text><rect fill="#E3E3E3" height="51.2422" rx="2.5" ry="2.5" style="stroke:#181818;stroke-width:0.5;" width="137" x="1318.5" y="1583.3379"/><text fill="#000000" font-family="sans-serif" font-size="14" lengthAdjust="spacing" textLength="74" x="1350" y="1605.4453">appSession</text><text fill="#000000" font-family="sans-serif" font-size="14" lengthAdjust="spacing" textLength="123" x="1325.5" y="1624.0664">:ApplicationSession</text><rect fill="#E3E3E3" height="51.2422" rx="2.5" ry="2.5" style="stroke:#181818;stroke-width:0.5;" width="109" x="1465.5" y="31.3789"/><text fill="#000000" font-family="sans-serif" font-size="14" lengthAdjust="spacing" textLength="95" x="1472.5" y="53.4863">currentSession</text><text fill="#000000" font-family="sans-serif" font-size="14" lengthAdjust="spacing" textLength="83" x="1478.5" y="72.1074">:UserSession</text><rect fill="#E3E3E3" height="51.2422" rx="2.5" ry="2.5" style="stroke:#181818;stroke-width:0.5;" width="109" x="1465.5" y="1583.3379"/><text fill="#000000" font-family="sans-serif" font-size="14" lengthAdjust="spacing" textLength="95" x="1472.5" y="1605.4453">currentSession</text><text fill="#000000" font-family="sans-serif" font-size="14" lengthAdjust="spacing" textLength="83" x="1478.5" y="1624.0664">:UserSession</text><rect fill="#E3E3E3" height="51.2422" rx="2.5" ry="2.5" style="stroke:#181818;stroke-width:0.5;" width="163" x="1584.5" y="31.3789"/><text fill="#000000" font-family="sans-serif" font-size="14" lengthAdjust="spacing" textLength="149" x="1591.5" y="53.4863">organizationRepository:</text><text fill="#000000" font-family="sans-serif" font-size="14" lengthAdjust="spacing" textLength="148" x="1592" y="72.1074">OrganizationRepository</text><rect fill="#E3E3E3" height="51.2422" rx="2.5" ry="2.5" style="stroke:#181818;stroke-width:0.5;" width="163" x="1584.5" y="1583.3379"/><text fill="#000000" font-family="sans-serif" font-size="14" lengthAdjust="spacing" textLength="149" x="1591.5" y="1605.4453">organizationRepository:</text><text fill="#000000" font-family="sans-serif" font-size="14" lengthAdjust="spacing" textLength="148" x="1592" y="1624.0664">OrganizationRepository</text><rect fill="#E3E3E3" height="51.2422" rx="2.5" ry="2.5" style="stroke:#181818;stroke-width:0.5;" width="98" x="1838" y="31.3789"/><text fill="#000000" font-family="sans-serif" font-size="14" lengthAdjust="spacing" textLength="77" x="1848.5" y="53.4863">organization</text><text fill="#000000" font-family="sans-serif" font-size="14" lengthAdjust="spacing" textLength="84" x="1845" y="72.1074">:Organization</text><rect fill="#E3E3E3" height="51.2422" rx="2.5" ry="2.5" style="stroke:#181818;stroke-width:0.5;" width="98" x="1838" y="1583.3379"/><text fill="#000000" font-family="sans-serif" font-size="14" lengthAdjust="spacing" textLength="77" x="1848.5" y="1605.4453">organization</text><text fill="#000000" font-family="sans-serif" font-size="14" lengthAdjust="spacing" textLength="84" x="1845" y="1624.0664">:Organization</text><rect fill="#E3E3E3" height="32.6211" rx="2.5" ry="2.5" style="stroke:#181818;stroke-width:0.5;" width="51" x="2157.5" y="50"/><text fill="#000000" font-family="sans-serif" font-size="14" lengthAdjust="spacing" textLength="37" x="2164.5" y="72.1074">SKILL</text><rect fill="#E3E3E3" height="32.6211" rx="2.5" ry="2.5" style="stroke:#181818;stroke-width:0.5;" width="51" x="2157.5" y="1583.3379"/><text fill="#000000" font-family="sans-serif" font-size="14" lengthAdjust="spacing" textLength="37" x="2164.5" y="1605.4453">SKILL</text><rect fill="#E3E3E3" height="32.6211" rx="2.5" ry="2.5" style="stroke:#181818;stroke-width:0.5;" width="75" x="2338.5" y="50"/><text fill="#000000" font-family="sans-serif" font-size="14" lengthAdjust="spacing" textLength="61" x="2345.5" y="72.1074">employee</text><rect fill="#E3E3E3" height="32.6211" rx="2.5" ry="2.5" style="stroke:#181818;stroke-width:0.5;" width="75" x="2338.5" y="1583.3379"/><text fill="#000000" font-family="sans-serif" font-size="14" lengthAdjust="spacing" textLength="61" x="2345.5" y="1605.4453">employee</text><rect fill="#FFFFFF" height="1472.7168" style="stroke:#181818;stroke-width:1.0;" width="10" x="91" y="93.6211"/><rect fill="#FFFFFF" height="438.4043" style="stroke:#181818;stroke-width:1.0;" width="10" x="424" y="116.9121"/><rect fill="#FFFFFF" height="48.582" style="stroke:#181818;stroke-width:1.0;" width="10" x="424" y="586.6074"/><rect fill="#FFFFFF" height="899.8574" style="stroke:#181818;stroke-width:1.0;" width="10" x="424" y="666.4805"/><rect fill="#FFFFFF" height="219.0371" style="stroke:#181818;stroke-width:1.0;" width="10" x="677" y="191.8242"/><rect fill="#FFFFFF" height="805.9844" style="stroke:#181818;stroke-width:1.0;" width="10" x="677" y="697.7715"/><rect fill="#FFFFFF" height="31.291" style="stroke:#181818;stroke-width:1.0;" width="10" x="880" y="223.1152"/><rect fill="#FFFFFF" height="31.291" style="stroke:#181818;stroke-width:1.0;" width="10" x="987" y="285.6973"/><rect fill="#FFFFFF" height="31.291" style="stroke:#181818;stroke-width:1.0;" width="10" x="987" y="961.0996"/><rect fill="#FFFFFF" height="31.291" style="stroke:#181818;stroke-width:1.0;" width="10" x="1101" y="348.2793"/><rect fill="#FFFFFF" height="31.291" style="stroke:#181818;stroke-width:1.0;" width="10" x="1235" y="773.3535"/><rect fill="#FFFFFF" height="31.291" style="stroke:#181818;stroke-width:1.0;" width="10" x="1382" y="835.9355"/><rect fill="#FFFFFF" height="31.291" style="stroke:#181818;stroke-width:1.0;" width="10" x="1515" y="898.5176"/><rect fill="#FFFFFF" height="127.1641" style="stroke:#181818;stroke-width:1.0;" width="10" x="1661" y="1023.6816"/><rect fill="#FFFFFF" height="31.291" style="stroke:#181818;stroke-width:1.0;" width="10" x="1882" y="1081.2637"/><rect fill="#FFFFFF" height="31.291" style="stroke:#181818;stroke-width:1.0;" width="10" x="1882" y="1182.1367"/><rect fill="#FFFFFF" height="189.7461" style="stroke:#181818;stroke-width:1.0;" width="10" x="1882" y="1314.0098"/><rect fill="#FFFFFF" height="127.1641" style="stroke:#181818;stroke-width:1.0;" width="10" x="2178" y="1345.3008"/><rect fill="#FFFFFF" height="95.873" style="stroke:#181818;stroke-width:1.0;" width="10" x="2371" y="1345.3008"/><polygon fill="#181818" points="412,112.9121,422,116.9121,412,120.9121,416,116.9121" style="stroke:#181818;stroke-width:1.0;"/><line style="stroke:#181818;stroke-width:1.0;" x1="101" x2="418" y1="116.9121" y2="116.9121"/><text fill="#000000" font-family="sans-serif" font-size="13" font-weight="bold" lengthAdjust="spacing" textLength="7" x="108" y="111.6494">1</text><text fill="#000000" font-family="sans-serif" font-size="13" lengthAdjust="spacing" textLength="203" x="119" y="111.6494">asks to add a skill to a collaborator</text><polygon fill="#181818" points="605,144.2031,615,148.2031,605,152.2031,609,148.2031" style="stroke:#181818;stroke-width:1.0;"/><line style="stroke:#181818;stroke-width:1.0;" x1="434" x2="611" y1="148.2031" y2="148.2031"/><text fill="#000000" font-family="sans-serif" font-size="13" font-weight="bold" lengthAdjust="spacing" textLength="7" x="441" y="142.9404">2</text><text fill="#000000" font-family="sans-serif" font-size="13" lengthAdjust="spacing" textLength="36" x="452" y="142.9404">create</text><rect fill="#E3E3E3" height="32.6211" rx="2.5" ry="2.5" style="stroke:#181818;stroke-width:0.5;" width="130" x="617" y="124.9121"/><text fill="#000000" font-family="sans-serif" font-size="14" lengthAdjust="spacing" textLength="116" x="624" y="147.0195">:AddSkillController</text><polygon fill="#181818" points="665,187.8242,675,191.8242,665,195.8242,669,191.8242" style="stroke:#181818;stroke-width:1.0;"/><line style="stroke:#181818;stroke-width:1.0;" x1="434" x2="671" y1="191.8242" y2="191.8242"/><text fill="#000000" font-family="sans-serif" font-size="13" font-weight="bold" lengthAdjust="spacing" textLength="7" x="441" y="186.5615">3</text><text fill="#000000" font-family="sans-serif" font-size="13" lengthAdjust="spacing" textLength="72" x="452" y="186.5615">getSkillList()</text><polygon fill="#181818" points="868,219.1152,878,223.1152,868,227.1152,872,223.1152" style="stroke:#181818;stroke-width:1.0;"/><line style="stroke:#181818;stroke-width:1.0;" x1="687" x2="874" y1="223.1152" y2="223.1152"/><text fill="#000000" font-family="sans-serif" font-size="13" font-weight="bold" lengthAdjust="spacing" textLength="7" x="694" y="217.8525">4</text><text fill="#000000" font-family="sans-serif" font-size="13" lengthAdjust="spacing" textLength="75" x="705" y="217.8525">getInstance()</text><polygon fill="#181818" points="698,250.4063,688,254.4063,698,258.4063,694,254.4063" style="stroke:#181818;stroke-width:1.0;"/><line style="stroke:#181818;stroke-width:1.0;stroke-dasharray:2.0,2.0;" x1="692" x2="884" y1="254.4063" y2="254.4063"/><text fill="#000000" font-family="sans-serif" font-size="13" font-weight="bold" lengthAdjust="spacing" textLength="7" x="704" y="249.1436">5</text><text fill="#000000" font-family="sans-serif" font-size="13" lengthAdjust="spacing" textLength="67" x="715" y="249.1436">repositories</text><polygon fill="#181818" points="975,281.6973,985,285.6973,975,289.6973,979,285.6973" style="stroke:#181818;stroke-width:1.0;"/><line style="stroke:#181818;stroke-width:1.0;" x1="687" x2="981" y1="285.6973" y2="285.6973"/><text fill="#000000" font-family="sans-serif" font-size="13" font-weight="bold" lengthAdjust="spacing" textLength="7" x="694" y="280.4346">6</text><text fill="#000000" font-family="sans-serif" font-size="13" lengthAdjust="spacing" textLength="113" x="705" y="280.4346">getSkillRepository()</text><polygon fill="#181818" points="698,312.9883,688,316.9883,698,320.9883,694,316.9883" style="stroke:#181818;stroke-width:1.0;"/><line style="stroke:#181818;stroke-width:1.0;stroke-dasharray:2.0,2.0;" x1="692" x2="991" y1="316.9883" y2="316.9883"/><text fill="#000000" font-family="sans-serif" font-size="13" font-weight="bold" lengthAdjust="spacing" textLength="7" x="704" y="311.7256">7</text><text fill="#000000" font-family="sans-serif" font-size="13" lengthAdjust="spacing" textLength="87" x="715" y="311.7256">SkillRepository</text><polygon fill="#181818" points="1089,344.2793,1099,348.2793,1089,352.2793,1093,348.2793" style="stroke:#181818;stroke-width:1.0;"/><line style="stroke:#181818;stroke-width:1.0;" x1="687" x2="1095" y1="348.2793" y2="348.2793"/><text fill="#000000" font-family="sans-serif" font-size="13" font-weight="bold" lengthAdjust="spacing" textLength="7" x="694" y="343.0166">8</text><text fill="#000000" font-family="sans-serif" font-size="13" lengthAdjust="spacing" textLength="58" x="705" y="343.0166">getSkills()</text><polygon fill="#181818" points="698,375.5703,688,379.5703,698,383.5703,694,379.5703" style="stroke:#181818;stroke-width:1.0;"/><line style="stroke:#181818;stroke-width:1.0;stroke-dasharray:2.0,2.0;" x1="692" x2="1105" y1="379.5703" y2="379.5703"/><text fill="#000000" font-family="sans-serif" font-size="13" font-weight="bold" lengthAdjust="spacing" textLength="7" x="704" y="374.3076">9</text><text fill="#000000" font-family="sans-serif" font-size="13" lengthAdjust="spacing" textLength="46" x="715" y="374.3076">SkillList</text><polygon fill="#181818" points="445,406.8613,435,410.8613,445,414.8613,441,410.8613" style="stroke:#181818;stroke-width:1.0;"/><line style="stroke:#181818;stroke-width:1.0;stroke-dasharray:2.0,2.0;" x1="439" x2="681" y1="410.8613" y2="410.8613"/><text fill="#000000" font-family="sans-serif" font-size="13" font-weight="bold" lengthAdjust="spacing" textLength="14" x="451" y="405.5986">10</text><text fill="#000000" font-family="sans-serif" font-size="13" lengthAdjust="spacing" textLength="46" x="469" y="405.5986">SkillList</text><path d="M10,425.8613 L83,425.8613 L83,435.1523 L73,445.1523 L10,445.1523 L10,425.8613 " fill="#EEEEEE" style="stroke:#000000;stroke-width:1.5;"/><rect fill="none" height="99.1641" style="stroke:#000000;stroke-width:1.5;" width="469" x="10" y="425.8613"/><text fill="#000000" font-family="sans-serif" font-size="13" font-weight="bold" lengthAdjust="spacing" textLength="28" x="25" y="440.8896">loop</text><text fill="#000000" font-family="sans-serif" font-size="11" font-weight="bold" lengthAdjust="spacing" textLength="174" x="98" y="439.7314">[while user wants to add skills]</text><polygon fill="#181818" points="112,481.7344,102,485.7344,112,489.7344,108,485.7344" style="stroke:#181818;stroke-width:1.0;"/><line style="stroke:#181818;stroke-width:1.0;stroke-dasharray:2.0,2.0;" x1="106" x2="423" y1="485.7344" y2="485.7344"/><text fill="#000000" font-family="sans-serif" font-size="13" font-weight="bold" lengthAdjust="spacing" textLength="14" x="118" y="471.8262">11</text><text fill="#000000" font-family="sans-serif" font-size="13" lengthAdjust="spacing" textLength="141" x="136" y="463.1807">shows task category list</text><text fill="#000000" font-family="sans-serif" font-size="13" lengthAdjust="spacing" textLength="132" x="140" y="480.4717">and asks to select one</text><polygon fill="#181818" points="412,513.0254,422,517.0254,412,521.0254,416,517.0254" style="stroke:#181818;stroke-width:1.0;"/><line style="stroke:#181818;stroke-width:1.0;" x1="101" x2="418" y1="517.0254" y2="517.0254"/><text fill="#000000" font-family="sans-serif" font-size="13" font-weight="bold" lengthAdjust="spacing" textLength="14" x="108" y="511.7627">12</text><text fill="#000000" font-family="sans-serif" font-size="13" lengthAdjust="spacing" textLength="136" x="126" y="511.7627">selects a task category</text><polygon fill="#181818" points="112,551.3164,102,555.3164,112,559.3164,108,555.3164" style="stroke:#181818;stroke-width:1.0;"/><line style="stroke:#181818;stroke-width:1.0;stroke-dasharray:2.0,2.0;" x1="106" x2="428" y1="555.3164" y2="555.3164"/><text fill="#000000" font-family="sans-serif" font-size="13" font-weight="bold" lengthAdjust="spacing" textLength="14" x="118" y="550.0537">13</text><text fill="#000000" font-family="sans-serif" font-size="13" lengthAdjust="spacing" textLength="165" x="136" y="550.0537">requests collaborator's email</text><polygon fill="#181818" points="412,582.6074,422,586.6074,412,590.6074,416,586.6074" style="stroke:#181818;stroke-width:1.0;"/><line style="stroke:#181818;stroke-width:1.0;" x1="101" x2="418" y1="586.6074" y2="586.6074"/><text fill="#000000" font-family="sans-serif" font-size="13" font-weight="bold" lengthAdjust="spacing" textLength="14" x="108" y="581.3447">14</text><text fill="#000000" font-family="sans-serif" font-size="13" lengthAdjust="spacing" textLength="128" x="126" y="581.3447">types requested email</text><polygon fill="#181818" points="112,631.1895,102,635.1895,112,639.1895,108,635.1895" style="stroke:#181818;stroke-width:1.0;"/><line style="stroke:#181818;stroke-width:1.0;stroke-dasharray:2.0,2.0;" x1="106" x2="428" y1="635.1895" y2="635.1895"/><text fill="#000000" font-family="sans-serif" font-size="13" font-weight="bold" lengthAdjust="spacing" textLength="14" x="118" y="621.2813">15</text><text fill="#000000" font-family="sans-serif" font-size="13" lengthAdjust="spacing" textLength="220" x="136" y="612.6357">shows selected skills and collaborator</text><text fill="#000000" font-family="sans-serif" font-size="13" lengthAdjust="spacing" textLength="145" x="136" y="629.9268">and asks for confirmation</text><polygon fill="#181818" points="412,662.4805,422,666.4805,412,670.4805,416,666.4805" style="stroke:#181818;stroke-width:1.0;"/><line style="stroke:#181818;stroke-width:1.0;" x1="101" x2="418" y1="666.4805" y2="666.4805"/><text fill="#000000" font-family="sans-serif" font-size="13" font-weight="bold" lengthAdjust="spacing" textLength="14" x="108" y="661.2178">16</text><text fill="#000000" font-family="sans-serif" font-size="13" lengthAdjust="spacing" textLength="78" x="126" y="661.2178">confirms data</text><polygon fill="#181818" points="665,693.7715,675,697.7715,665,701.7715,669,697.7715" style="stroke:#181818;stroke-width:1.0;"/><line style="stroke:#181818;stroke-width:1.0;" x1="434" x2="671" y1="697.7715" y2="697.7715"/><text fill="#000000" font-family="sans-serif" font-size="13" font-weight="bold" lengthAdjust="spacing" textLength="14" x="441" y="692.5088">17</text><text fill="#000000" font-family="sans-serif" font-size="13" lengthAdjust="spacing" textLength="206" x="459" y="692.5088">addSkillToCollaborator(email, skills)</text><line style="stroke:#181818;stroke-width:1.0;" x1="687" x2="729" y1="729.0625" y2="729.0625"/><line style="stroke:#181818;stroke-width:1.0;" x1="729" x2="729" y1="729.0625" y2="742.0625"/><line style="stroke:#181818;stroke-width:1.0;" x1="688" x2="729" y1="742.0625" y2="742.0625"/><polygon fill="#181818" points="698,738.0625,688,742.0625,698,746.0625,694,742.0625" style="stroke:#181818;stroke-width:1.0;"/><text fill="#000000" font-family="sans-serif" font-size="13" font-weight="bold" lengthAdjust="spacing" textLength="14" x="694" y="723.7998">18</text><text fill="#000000" font-family="sans-serif" font-size="13" lengthAdjust="spacing" textLength="161" x="712" y="723.7998">getEmployeeFromSession()</text><polygon fill="#181818" points="1223,769.3535,1233,773.3535,1223,777.3535,1227,773.3535" style="stroke:#181818;stroke-width:1.0;"/><line style="stroke:#181818;stroke-width:1.0;" x1="687" x2="1229" y1="773.3535" y2="773.3535"/><text fill="#000000" font-family="sans-serif" font-size="13" font-weight="bold" lengthAdjust="spacing" textLength="14" x="694" y="768.0908">19</text><text fill="#000000" font-family="sans-serif" font-size="13" lengthAdjust="spacing" textLength="75" x="712" y="768.0908">getInstance()</text><polygon fill="#181818" points="698,800.6445,688,804.6445,698,808.6445,694,804.6445" style="stroke:#181818;stroke-width:1.0;"/><line style="stroke:#181818;stroke-width:1.0;" x1="692" x2="1239" y1="804.6445" y2="804.6445"/><text fill="#000000" font-family="sans-serif" font-size="13" font-weight="bold" lengthAdjust="spacing" textLength="14" x="704" y="799.3818">20</text><text fill="#000000" font-family="sans-serif" font-size="13" lengthAdjust="spacing" textLength="68" x="722" y="799.3818">appSession</text><polygon fill="#181818" points="1370,831.9355,1380,835.9355,1370,839.9355,1374,835.9355" style="stroke:#181818;stroke-width:1.0;"/><line style="stroke:#181818;stroke-width:1.0;" x1="687" x2="1376" y1="835.9355" y2="835.9355"/><text fill="#000000" font-family="sans-serif" font-size="13" font-weight="bold" lengthAdjust="spacing" textLength="14" x="694" y="830.6729">21</text><text fill="#000000" font-family="sans-serif" font-size="13" lengthAdjust="spacing" textLength="115" x="712" y="830.6729">getCurrentSession()</text><polygon fill="#181818" points="698,863.2266,688,867.2266,698,871.2266,694,867.2266" style="stroke:#181818;stroke-width:1.0;"/><line style="stroke:#181818;stroke-width:1.0;stroke-dasharray:2.0,2.0;" x1="692" x2="1386" y1="867.2266" y2="867.2266"/><text fill="#000000" font-family="sans-serif" font-size="13" font-weight="bold" lengthAdjust="spacing" textLength="14" x="704" y="861.9639">22</text><text fill="#000000" font-family="sans-serif" font-size="13" lengthAdjust="spacing" textLength="87" x="722" y="861.9639">currentSession</text><polygon fill="#181818" points="1503,894.5176,1513,898.5176,1503,902.5176,1507,898.5176" style="stroke:#181818;stroke-width:1.0;"/><line style="stroke:#181818;stroke-width:1.0;" x1="687" x2="1509" y1="898.5176" y2="898.5176"/><text fill="#000000" font-family="sans-serif" font-size="13" font-weight="bold" lengthAdjust="spacing" textLength="14" x="694" y="893.2549">23</text><text fill="#000000" font-family="sans-serif" font-size="13" lengthAdjust="spacing" textLength="133" x="712" y="893.2549">email = getUserEmail()</text><polygon fill="#181818" points="698,925.8086,688,929.8086,698,933.8086,694,929.8086" style="stroke:#181818;stroke-width:1.0;"/><line style="stroke:#181818;stroke-width:1.0;stroke-dasharray:2.0,2.0;" x1="692" x2="1519" y1="929.8086" y2="929.8086"/><text fill="#000000" font-family="sans-serif" font-size="13" font-weight="bold" lengthAdjust="spacing" textLength="14" x="704" y="924.5459">24</text><text fill="#000000" font-family="sans-serif" font-size="13" lengthAdjust="spacing" textLength="31" x="722" y="924.5459">email</text><polygon fill="#181818" points="975,957.0996,985,961.0996,975,965.0996,979,961.0996" style="stroke:#181818;stroke-width:1.0;"/><line style="stroke:#181818;stroke-width:1.0;" x1="687" x2="981" y1="961.0996" y2="961.0996"/><text fill="#000000" font-family="sans-serif" font-size="13" font-weight="bold" lengthAdjust="spacing" textLength="14" x="694" y="955.8369">25</text><text fill="#000000" font-family="sans-serif" font-size="13" lengthAdjust="spacing" textLength="192" x="712" y="955.8369">getOrganizationRepository(email)</text><polygon fill="#181818" points="698,988.3906,688,992.3906,698,996.3906,694,992.3906" style="stroke:#181818;stroke-width:1.0;"/><line style="stroke:#181818;stroke-width:1.0;stroke-dasharray:2.0,2.0;" x1="692" x2="991" y1="992.3906" y2="992.3906"/><text fill="#000000" font-family="sans-serif" font-size="13" font-weight="bold" lengthAdjust="spacing" textLength="14" x="704" y="987.1279">26</text><text fill="#000000" font-family="sans-serif" font-size="13" lengthAdjust="spacing" textLength="132" x="722" y="987.1279">organizationRepository</text><polygon fill="#181818" points="1649,1019.6816,1659,1023.6816,1649,1027.6816,1653,1023.6816" style="stroke:#181818;stroke-width:1.0;"/><line style="stroke:#181818;stroke-width:1.0;" x1="687" x2="1655" y1="1023.6816" y2="1023.6816"/><text fill="#000000" font-family="sans-serif" font-size="13" font-weight="bold" lengthAdjust="spacing" textLength="14" x="694" y="1018.4189">27</text><text fill="#000000" font-family="sans-serif" font-size="13" lengthAdjust="spacing" textLength="237" x="712" y="1018.4189">getOrganizationByEmployeeEmail(email)</text><path d="M1574.5,1038.6816 L1647.5,1038.6816 L1647.5,1047.9727 L1637.5,1057.9727 L1574.5,1057.9727 L1574.5,1038.6816 " fill="#EEEEEE" style="stroke:#000000;stroke-width:1.5;"/><rect fill="none" height="81.873" style="stroke:#000000;stroke-width:1.5;" width="371.5" x="1574.5" y="1038.6816"/><text fill="#000000" font-family="sans-serif" font-size="13" font-weight="bold" lengthAdjust="spacing" textLength="28" x="1589.5" y="1053.71">loop</text><text fill="#000000" font-family="sans-serif" font-size="11" font-weight="bold" lengthAdjust="spacing" textLength="128" x="1662.5" y="1052.5518">[[for each organization]</text><polygon fill="#181818" points="1870,1077.2637,1880,1081.2637,1870,1085.2637,1874,1081.2637" style="stroke:#181818;stroke-width:1.0;"/><line style="stroke:#181818;stroke-width:1.0;" x1="1671" x2="1876" y1="1081.2637" y2="1081.2637"/><text fill="#000000" font-family="sans-serif" font-size="13" font-weight="bold" lengthAdjust="spacing" textLength="14" x="1678" y="1076.001">28</text><text fill="#000000" font-family="sans-serif" font-size="13" lengthAdjust="spacing" textLength="174" x="1696" y="1076.001">anyEmployeeHasEmail(email)</text><polygon fill="#181818" points="1682,1108.5547,1672,1112.5547,1682,1116.5547,1678,1112.5547" style="stroke:#181818;stroke-width:1.0;"/><line style="stroke:#181818;stroke-width:1.0;stroke-dasharray:2.0,2.0;" x1="1676" x2="1886" y1="1112.5547" y2="1112.5547"/><text fill="#000000" font-family="sans-serif" font-size="13" font-weight="bold" lengthAdjust="spacing" textLength="14" x="1688" y="1107.292">29</text><text fill="#000000" font-family="sans-serif" font-size="13" lengthAdjust="spacing" textLength="53" x="1706" y="1107.292">true/false</text><polygon fill="#181818" points="698,1146.8457,688,1150.8457,698,1154.8457,694,1150.8457" style="stroke:#181818;stroke-width:1.0;"/><line style="stroke:#181818;stroke-width:1.0;stroke-dasharray:2.0,2.0;" x1="692" x2="1665" y1="1150.8457" y2="1150.8457"/><text fill="#000000" font-family="sans-serif" font-size="13" font-weight="bold" lengthAdjust="spacing" textLength="14" x="704" y="1145.583">30</text><text fill="#000000" font-family="sans-serif" font-size="13" lengthAdjust="spacing" textLength="70" x="722" y="1145.583">organization</text><polygon fill="#181818" points="1870,1178.1367,1880,1182.1367,1870,1186.1367,1874,1182.1367" style="stroke:#181818;stroke-width:1.0;"/><line style="stroke:#181818;stroke-width:1.0;" x1="687" x2="1876" y1="1182.1367" y2="1182.1367"/><text fill="#000000" font-family="sans-serif" font-size="13" font-weight="bold" lengthAdjust="spacing" textLength="14" x="694" y="1176.874">31</text><text fill="#000000" font-family="sans-serif" font-size="13" lengthAdjust="spacing" textLength="164" x="712" y="1176.874">getEmployeeByEmail(email)</text><polygon fill="#181818" points="698,1209.4277,688,1213.4277,698,1217.4277,694,1213.4277" style="stroke:#181818;stroke-width:1.0;"/><line style="stroke:#181818;stroke-width:1.0;stroke-dasharray:2.0,2.0;" x1="692" x2="1886" y1="1213.4277" y2="1213.4277"/><text fill="#000000" font-family="sans-serif" font-size="13" font-weight="bold" lengthAdjust="spacing" textLength="14" x="704" y="1208.165">32</text><text fill="#000000" font-family="sans-serif" font-size="13" lengthAdjust="spacing" textLength="56" x="722" y="1208.165">employee</text><line style="stroke:#181818;stroke-width:1.0;stroke-dasharray:2.0,2.0;" x1="687" x2="729" y1="1244.7188" y2="1244.7188"/><line style="stroke:#181818;stroke-width:1.0;stroke-dasharray:2.0,2.0;" x1="729" x2="729" y1="1244.7188" y2="1257.7188"/><line style="stroke:#181818;stroke-width:1.0;stroke-dasharray:2.0,2.0;" x1="688" x2="729" y1="1257.7188" y2="1257.7188"/><polygon fill="#181818" points="698,1253.7188,688,1257.7188,698,1261.7188,694,1257.7188" style="stroke:#181818;stroke-width:1.0;"/><text fill="#000000" font-family="sans-serif" font-size="13" font-weight="bold" lengthAdjust="spacing" textLength="14" x="694" y="1239.4561">33</text><text fill="#000000" font-family="sans-serif" font-size="13" lengthAdjust="spacing" textLength="56" x="712" y="1239.4561">employee</text><polygon fill="#181818" points="1870,1310.0098,1880,1314.0098,1870,1318.0098,1874,1314.0098" style="stroke:#181818;stroke-width:1.0;"/><line style="stroke:#181818;stroke-width:1.0;" x1="687" x2="1876" y1="1314.0098" y2="1314.0098"/><text fill="#000000" font-family="sans-serif" font-size="13" font-weight="bold" lengthAdjust="spacing" textLength="14" x="694" y="1308.7471">34</text><text fill="#000000" font-family="sans-serif" font-size="13" lengthAdjust="spacing" textLength="148" x="712" y="1308.7471">addSkill(employee, skills)</text><polygon fill="#181818" points="2166,1341.3008,2176,1345.3008,2166,1349.3008,2170,1345.3008" style="stroke:#181818;stroke-width:1.0;"/><line style="stroke:#181818;stroke-width:1.0;" x1="1892" x2="2172" y1="1345.3008" y2="1345.3008"/><text fill="#000000" font-family="sans-serif" font-size="13" font-weight="bold" lengthAdjust="spacing" textLength="14" x="1899" y="1340.0381">35</text><text fill="#000000" font-family="sans-serif" font-size="13" lengthAdjust="spacing" textLength="249" x="1917" y="1340.0381">addSkillsToCollaborator(skills, collaborator)</text><path d="M2147.5,1360.3008 L2220.5,1360.3008 L2220.5,1369.5918 L2210.5,1379.5918 L2147.5,1379.5918 L2147.5,1360.3008 " fill="#EEEEEE" style="stroke:#000000;stroke-width:1.5;"/><rect fill="none" height="50.582" style="stroke:#000000;stroke-width:1.5;" width="276" x="2147.5" y="1360.3008"/><text fill="#000000" font-family="sans-serif" font-size="13" font-weight="bold" lengthAdjust="spacing" textLength="28" x="2162.5" y="1375.3291">loop</text><text fill="#000000" font-family="sans-serif" font-size="11" font-weight="bold" lengthAdjust="spacing" textLength="125" x="2235.5" y="1374.1709">[for each skill in Skills]</text><polygon fill="#181818" points="2359,1398.8828,2369,1402.8828,2359,1406.8828,2363,1402.8828" style="stroke:#181818;stroke-width:1.0;"/><line style="stroke:#181818;stroke-width:1.0;" x1="2188" x2="2365" y1="1402.8828" y2="1402.8828"/><text fill="#000000" font-family="sans-serif" font-size="13" font-weight="bold" lengthAdjust="spacing" textLength="14" x="2195" y="1397.6201">36</text><text fill="#000000" font-family="sans-serif" font-size="13" lengthAdjust="spacing" textLength="141" x="2213" y="1397.6201">addSkill(skill, employee)</text><polygon fill="#181818" points="2199,1437.1738,2189,1441.1738,2199,1445.1738,2195,1441.1738" style="stroke:#181818;stroke-width:1.0;"/><line style="stroke:#181818;stroke-width:1.0;stroke-dasharray:2.0,2.0;" x1="2193" x2="2375" y1="1441.1738" y2="1441.1738"/><text fill="#000000" font-family="sans-serif" font-size="13" font-weight="bold" lengthAdjust="spacing" textLength="14" x="2205" y="1435.9111">37</text><text fill="#000000" font-family="sans-serif" font-size="13" lengthAdjust="spacing" textLength="94" x="2223" y="1435.9111">updated skill list</text><polygon fill="#181818" points="1903,1468.4648,1893,1472.4648,1903,1476.4648,1899,1472.4648" style="stroke:#181818;stroke-width:1.0;"/><line style="stroke:#181818;stroke-width:1.0;" x1="1897" x2="2182" y1="1472.4648" y2="1472.4648"/><text fill="#000000" font-family="sans-serif" font-size="13" font-weight="bold" lengthAdjust="spacing" textLength="14" x="1909" y="1467.2021">38</text><text fill="#000000" font-family="sans-serif" font-size="13" lengthAdjust="spacing" textLength="94" x="1927" y="1467.2021">updated skill list</text><polygon fill="#181818" points="693,1499.7559,683,1503.7559,693,1507.7559,689,1503.7559" style="stroke:#181818;stroke-width:1.0;"/><line style="stroke:#181818;stroke-width:1.0;" x1="687" x2="1886" y1="1503.7559" y2="1503.7559"/><text fill="#000000" font-family="sans-serif" font-size="13" font-weight="bold" lengthAdjust="spacing" textLength="14" x="699" y="1498.4932">39</text><text fill="#000000" font-family="sans-serif" font-size="13" lengthAdjust="spacing" textLength="94" x="717" y="1498.4932">updated skill list</text><polygon fill="#181818" points="445,1531.0469,435,1535.0469,445,1539.0469,441,1535.0469" style="stroke:#181818;stroke-width:1.0;"/><line style="stroke:#181818;stroke-width:1.0;stroke-dasharray:2.0,2.0;" x1="439" x2="681" y1="1535.0469" y2="1535.0469"/><text fill="#000000" font-family="sans-serif" font-size="13" font-weight="bold" lengthAdjust="spacing" textLength="14" x="451" y="1529.7842">40</text><text fill="#000000" font-family="sans-serif" font-size="13" lengthAdjust="spacing" textLength="94" x="469" y="1529.7842">updated skill list</text><polygon fill="#181818" points="107,1562.3379,97,1566.3379,107,1570.3379,103,1566.3379" style="stroke:#181818;stroke-width:1.0;"/><line style="stroke:#181818;stroke-width:1.0;stroke-dasharray:2.0,2.0;" x1="101" x2="428" y1="1566.3379" y2="1566.3379"/><text fill="#000000" font-family="sans-serif" font-size="13" font-weight="bold" lengthAdjust="spacing" textLength="14" x="113" y="1561.0752">41</text><text fill="#000000" font-family="sans-serif" font-size="13" lengthAdjust="spacing" textLength="281" x="131" y="1561.0752">displays operation success and updated skill list</text><!--SRC=[hLTDRoCt3BthLmYv95dOsBk1Bk2cQHgi5mdivDG0XJ93sqB6qgmaDtMH7rzAcWzfB8qTe7D9R95FZnpoaTPlNDHCiHtTII6BhP8xe4RjWUZkf6R56zl0oXmge0eAmyIc2WtqbfNodOiDNRDA0o5iRwJOxrv14NAvvINGjPJcLVv3M66aeXSFQiC4_vSPBWMztTMLF01SKARf_BSV154DBtZDXA4NitbPhjvuLJtVEuFd-ypvZHH6oQe2vUnkdfQBWUKIQgav4k2WdKttnM75RKp8EdPHWSUBE0PuNCoVOWz7fSUTlOZ1DyvlyDqmehgkUE6IimAjyOzp-cl- -1XRihfk391Snkl8gTWh1SBqZiyQLEYnkbsjvW-namnUM1JTG_B0uQIFyhX89NJn6CixGcpLyB-P0LSTX3OFVg3JRrWGT8QcRveQILbPKaQrJQ_xI0ki2FOg5SExUzSE4Ak9NDBWGRGfWbhi6HRxppreesd93ADN2jQ0gIjWGalGXUArvJcXb8krL3jMqHSHdnWejW9VIXL_NUuLy_yLKfjh4XAuB1HOPgv-Xyo-kQ-_V45ktenaJD1W0yQLsO9hSnNVqONlBecEd3E295h3OzuBZG9GG0uorLEHfNrIwDE6karxtsP7hYLyxges8DkgGLPwtq4WKJ2klu-ExUFWUih3XXvXdSPiQGw00iPwZEZm_YJd8VQqBvQkKiQOdmhInz2sP1eoW8kBhvAofkzRZZDcZu94tr4VkfPs3Qr9jb7rLhwZCQe0HGM4ZOskmgkn7vaeEtNGKE7ueb9011KAYJVHg1mHMcSF26Uf4liSIScuYeHQTAafx1Ylo20fBKh8oHngq2qCb87ZwSjzPdnKq2RI9ILayoAwDA6IuP5OSnGqgr7d46pilKwE4-igZZLZ-qdU14IkN6oJXkSr-OHYzRBNBXI_upRJ33RidMpBsRaw9ctH_Mu8fvhB7j1E3_h9FDPG3YnFhELr4qtiCNOEByNEaUlOnIl06CCaOATLRb6O-NgalrYgTfUujHz7nSel66cDScS1rxxOSwhKe8qglyjZUY7n9VT_387qadHw5cIPfmaVnVBheQrud_fJ0MKMisI8JfR_jAA0hBTHY4bx-wJnNK3BEzlweYFy1zEZd8-vsuMGZZtsZcasULPEyUVDL_zB9OSHl29xOSe41m7vJF2zGetcCBpvpDVKLSloBf8_MnPdbKCkfMqc6zxGu98JsShl1KEWoFBZuuDamsgdnLNhUpmYJiVaua7P-dw_MFIGUZ21FEuace-9wT7hZuKZeqMRpLpNOLs3-PykNFZrIMShrDrgescnWnmvZ4btSfsjt_H1u-RUM9EhVOsJlLqVt6P5JhHDDcIIZSIzw3Dk2hK_cVlSY_SgVUA6yMsrJzbOh4SCoRdj4gpG9vaEoQMtunajkQuhTj1Krk1_TrAzBmeS_cuFpDmoMFd2dG1_XFy7]--></g></svg>