<?xml version="1.0" encoding="us-ascii" standalone="no"?><svg xmlns="http://www.w3.org/2000/svg" xmlns:xlink="http://www.w3.org/1999/xlink" contentStyleType="text/css" height="1085px" preserveAspectRatio="none" style="width:1405px;height:1085px;background:#FFFFFF;" version="1.1" viewBox="0 0 1405 1085" width="1405px" zoomAndPan="magnify"><defs/><g><!--class ApplicationSession--><g id="elem_ApplicationSession"><rect codeLine="11" fill="#F1F1F1" height="85.2422" id="ApplicationSession" rx="2.5" ry="2.5" style="stroke:#181818;stroke-width:0.5;" width="151" x="230.5" y="241"/><ellipse cx="245.5" cy="257" fill="#ADD1B2" rx="11" ry="11" style="stroke:#181818;stroke-width:1.0;"/><path d="M248.2656,252.875 Q248.4219,252.6563 248.6094,252.5469 Q248.7969,252.4375 249.0156,252.4375 Q249.3906,252.4375 249.625,252.7031 Q249.8594,252.9531 249.8594,253.5625 L249.8594,255.0156 Q249.8594,255.625 249.625,255.8906 Q249.3906,256.1563 249.0156,256.1563 Q248.6719,256.1563 248.4688,255.9531 Q248.2656,255.7656 248.1563,255.25 Q248.1094,254.8906 247.9219,254.7031 Q247.5938,254.3281 246.9844,254.1094 Q246.375,253.8906 245.75,253.8906 Q244.9844,253.8906 244.3438,254.2188 Q243.7188,254.5469 243.2188,255.2969 Q242.7344,256.0469 242.7344,257.0781 L242.7344,258.1719 Q242.7344,259.4063 243.625,260.2344 Q244.5156,261.0469 246.1094,261.0469 Q247.0469,261.0469 247.7031,260.7969 Q248.0938,260.6406 248.5156,260.2031 Q248.7813,259.9375 248.9219,259.8594 Q249.0781,259.7813 249.2813,259.7813 Q249.6094,259.7813 249.8594,260.0469 Q250.125,260.2969 250.125,260.6406 Q250.125,260.9844 249.7813,261.3906 Q249.2813,261.9688 248.4844,262.2969 Q247.4063,262.75 246.1094,262.75 Q244.5938,262.75 243.3906,262.125 Q242.4063,261.625 241.7188,260.5625 Q241.0313,259.4844 241.0313,258.2031 L241.0313,257.0469 Q241.0313,255.7188 241.6406,254.5781 Q242.2656,253.4219 243.3594,252.8125 Q244.4531,252.1875 245.6875,252.1875 Q246.4219,252.1875 247.0625,252.3594 Q247.7188,252.5156 248.2656,252.875 Z " fill="#000000"/><text fill="#000000" font-family="sans-serif" font-size="14" lengthAdjust="spacing" textLength="119" x="259.5" y="262.7969">ApplicationSession</text><line style="stroke:#181818;stroke-width:0.5;" x1="231.5" x2="380.5" y1="273" y2="273"/><line style="stroke:#181818;stroke-width:0.5;" x1="231.5" x2="380.5" y1="281" y2="281"/><text fill="#000000" font-family="sans-serif" font-size="14" lengthAdjust="spacing" textLength="128" x="236.5" y="300.1074">+static getInstance()</text><text fill="#000000" font-family="sans-serif" font-size="14" lengthAdjust="spacing" textLength="136" x="236.5" y="318.7285">+getCurrentSession()</text></g><!--class UserSession--><g id="elem_UserSession"><rect codeLine="17" fill="#F1F1F1" height="66.6211" id="UserSession" rx="2.5" ry="2.5" style="stroke:#181818;stroke-width:0.5;" width="113" x="387.5" y="507"/><ellipse cx="403.4" cy="523" fill="#ADD1B2" rx="11" ry="11" style="stroke:#181818;stroke-width:1.0;"/><path d="M406.1656,518.875 Q406.3219,518.6563 406.5094,518.5469 Q406.6969,518.4375 406.9156,518.4375 Q407.2906,518.4375 407.525,518.7031 Q407.7594,518.9531 407.7594,519.5625 L407.7594,521.0156 Q407.7594,521.625 407.525,521.8906 Q407.2906,522.1563 406.9156,522.1563 Q406.5719,522.1563 406.3688,521.9531 Q406.1656,521.7656 406.0563,521.25 Q406.0094,520.8906 405.8219,520.7031 Q405.4938,520.3281 404.8844,520.1094 Q404.275,519.8906 403.65,519.8906 Q402.8844,519.8906 402.2438,520.2188 Q401.6188,520.5469 401.1188,521.2969 Q400.6344,522.0469 400.6344,523.0781 L400.6344,524.1719 Q400.6344,525.4063 401.525,526.2344 Q402.4156,527.0469 404.0094,527.0469 Q404.9469,527.0469 405.6031,526.7969 Q405.9938,526.6406 406.4156,526.2031 Q406.6813,525.9375 406.8219,525.8594 Q406.9781,525.7813 407.1813,525.7813 Q407.5094,525.7813 407.7594,526.0469 Q408.025,526.2969 408.025,526.6406 Q408.025,526.9844 407.6813,527.3906 Q407.1813,527.9688 406.3844,528.2969 Q405.3063,528.75 404.0094,528.75 Q402.4938,528.75 401.2906,528.125 Q400.3063,527.625 399.6188,526.5625 Q398.9313,525.4844 398.9313,524.2031 L398.9313,523.0469 Q398.9313,521.7188 399.5406,520.5781 Q400.1656,519.4219 401.2594,518.8125 Q402.3531,518.1875 403.5875,518.1875 Q404.3219,518.1875 404.9625,518.3594 Q405.6188,518.5156 406.1656,518.875 Z " fill="#000000"/><text fill="#000000" font-family="sans-serif" font-size="14" lengthAdjust="spacing" textLength="79" x="417.6" y="528.7969">UserSession</text><line style="stroke:#181818;stroke-width:0.5;" x1="388.5" x2="499.5" y1="539" y2="539"/><line style="stroke:#181818;stroke-width:0.5;" x1="388.5" x2="499.5" y1="547" y2="547"/><text fill="#000000" font-family="sans-serif" font-size="14" lengthAdjust="spacing" textLength="101" x="393.5" y="566.1074">+getUserEmail()</text></g><!--class Employee--><g id="elem_Employee"><rect codeLine="22" fill="#F1F1F1" height="122.4844" id="Employee" rx="2.5" ry="2.5" style="stroke:#181818;stroke-width:0.5;" width="94" x="713" y="956"/><ellipse cx="728" cy="972" fill="#ADD1B2" rx="11" ry="11" style="stroke:#181818;stroke-width:1.0;"/><path d="M730.7656,967.875 Q730.9219,967.6563 731.1094,967.5469 Q731.2969,967.4375 731.5156,967.4375 Q731.8906,967.4375 732.125,967.7031 Q732.3594,967.9531 732.3594,968.5625 L732.3594,970.0156 Q732.3594,970.625 732.125,970.8906 Q731.8906,971.1563 731.5156,971.1563 Q731.1719,971.1563 730.9688,970.9531 Q730.7656,970.7656 730.6563,970.25 Q730.6094,969.8906 730.4219,969.7031 Q730.0938,969.3281 729.4844,969.1094 Q728.875,968.8906 728.25,968.8906 Q727.4844,968.8906 726.8438,969.2188 Q726.2188,969.5469 725.7188,970.2969 Q725.2344,971.0469 725.2344,972.0781 L725.2344,973.1719 Q725.2344,974.4063 726.125,975.2344 Q727.0156,976.0469 728.6094,976.0469 Q729.5469,976.0469 730.2031,975.7969 Q730.5938,975.6406 731.0156,975.2031 Q731.2813,974.9375 731.4219,974.8594 Q731.5781,974.7813 731.7813,974.7813 Q732.1094,974.7813 732.3594,975.0469 Q732.625,975.2969 732.625,975.6406 Q732.625,975.9844 732.2813,976.3906 Q731.7813,976.9688 730.9844,977.2969 Q729.9063,977.75 728.6094,977.75 Q727.0938,977.75 725.8906,977.125 Q724.9063,976.625 724.2188,975.5625 Q723.5313,974.4844 723.5313,973.2031 L723.5313,972.0469 Q723.5313,970.7188 724.1406,969.5781 Q724.7656,968.4219 725.8594,967.8125 Q726.9531,967.1875 728.1875,967.1875 Q728.9219,967.1875 729.5625,967.3594 Q730.2188,967.5156 730.7656,967.875 Z " fill="#000000"/><text fill="#000000" font-family="sans-serif" font-size="14" lengthAdjust="spacing" textLength="62" x="742" y="977.7969">Employee</text><line style="stroke:#181818;stroke-width:0.5;" x1="714" x2="806" y1="988" y2="988"/><text fill="#000000" font-family="sans-serif" font-size="14" lengthAdjust="spacing" textLength="40" x="719" y="1007.1074">-name</text><text fill="#000000" font-family="sans-serif" font-size="14" lengthAdjust="spacing" textLength="38" x="719" y="1025.7285">-email</text><text fill="#000000" font-family="sans-serif" font-size="14" lengthAdjust="spacing" textLength="54" x="719" y="1044.3496">-position</text><text fill="#000000" font-family="sans-serif" font-size="14" lengthAdjust="spacing" textLength="45" x="719" y="1062.9707">-phone</text><line style="stroke:#181818;stroke-width:0.5;" x1="714" x2="806" y1="1070.4844" y2="1070.4844"/></g><!--class Skill--><g id="elem_Skill"><rect codeLine="29" fill="#F1F1F1" height="122.4844" id="Skill" rx="2.5" ry="2.5" style="stroke:#181818;stroke-width:0.5;" width="443" x="817.5" y="755"/><ellipse cx="1022.25" cy="771" fill="#ADD1B2" rx="11" ry="11" style="stroke:#181818;stroke-width:1.0;"/><path d="M1025.0156,766.875 Q1025.1719,766.6563 1025.3594,766.5469 Q1025.5469,766.4375 1025.7656,766.4375 Q1026.1406,766.4375 1026.375,766.7031 Q1026.6094,766.9531 1026.6094,767.5625 L1026.6094,769.0156 Q1026.6094,769.625 1026.375,769.8906 Q1026.1406,770.1563 1025.7656,770.1563 Q1025.4219,770.1563 1025.2188,769.9531 Q1025.0156,769.7656 1024.9063,769.25 Q1024.8594,768.8906 1024.6719,768.7031 Q1024.3438,768.3281 1023.7344,768.1094 Q1023.125,767.8906 1022.5,767.8906 Q1021.7344,767.8906 1021.0938,768.2188 Q1020.4688,768.5469 1019.9688,769.2969 Q1019.4844,770.0469 1019.4844,771.0781 L1019.4844,772.1719 Q1019.4844,773.4063 1020.375,774.2344 Q1021.2656,775.0469 1022.8594,775.0469 Q1023.7969,775.0469 1024.4531,774.7969 Q1024.8438,774.6406 1025.2656,774.2031 Q1025.5313,773.9375 1025.6719,773.8594 Q1025.8281,773.7813 1026.0313,773.7813 Q1026.3594,773.7813 1026.6094,774.0469 Q1026.875,774.2969 1026.875,774.6406 Q1026.875,774.9844 1026.5313,775.3906 Q1026.0313,775.9688 1025.2344,776.2969 Q1024.1563,776.75 1022.8594,776.75 Q1021.3438,776.75 1020.1406,776.125 Q1019.1563,775.625 1018.4688,774.5625 Q1017.7813,773.4844 1017.7813,772.2031 L1017.7813,771.0469 Q1017.7813,769.7188 1018.3906,768.5781 Q1019.0156,767.4219 1020.1094,766.8125 Q1021.2031,766.1875 1022.4375,766.1875 Q1023.1719,766.1875 1023.8125,766.3594 Q1024.4688,766.5156 1025.0156,766.875 Z " fill="#000000"/><text fill="#000000" font-family="sans-serif" font-size="14" lengthAdjust="spacing" textLength="25" x="1042.75" y="776.7969">Skill</text><line style="stroke:#181818;stroke-width:0.5;" x1="818.5" x2="1259.5" y1="787" y2="787"/><text fill="#000000" font-family="sans-serif" font-size="14" lengthAdjust="spacing" textLength="81" x="823.5" y="806.1074">-String name</text><text fill="#000000" font-family="sans-serif" font-size="14" lengthAdjust="spacing" textLength="167" x="823.5" y="824.7285">-String informalDescription</text><text fill="#000000" font-family="sans-serif" font-size="14" lengthAdjust="spacing" textLength="173" x="823.5" y="843.3496">-String technicalDescription</text><line style="stroke:#181818;stroke-width:0.5;" x1="818.5" x2="1259.5" y1="850.8633" y2="850.8633"/><text fill="#000000" font-family="sans-serif" font-size="14" lengthAdjust="spacing" textLength="431" x="823.5" y="869.9707">+Skill(name, skillCategory, informalDescription, technicalDescription)</text></g><!--class Organization--><g id="elem_Organization"><rect codeLine="38" fill="#F1F1F1" height="271.4531" id="Organization" rx="2.5" ry="2.5" style="stroke:#181818;stroke-width:0.5;" width="529" x="558.5" y="405"/><ellipse cx="778.75" cy="421" fill="#ADD1B2" rx="11" ry="11" style="stroke:#181818;stroke-width:1.0;"/><path d="M781.5156,416.875 Q781.6719,416.6563 781.8594,416.5469 Q782.0469,416.4375 782.2656,416.4375 Q782.6406,416.4375 782.875,416.7031 Q783.1094,416.9531 783.1094,417.5625 L783.1094,419.0156 Q783.1094,419.625 782.875,419.8906 Q782.6406,420.1563 782.2656,420.1563 Q781.9219,420.1563 781.7188,419.9531 Q781.5156,419.7656 781.4063,419.25 Q781.3594,418.8906 781.1719,418.7031 Q780.8438,418.3281 780.2344,418.1094 Q779.625,417.8906 779,417.8906 Q778.2344,417.8906 777.5938,418.2188 Q776.9688,418.5469 776.4688,419.2969 Q775.9844,420.0469 775.9844,421.0781 L775.9844,422.1719 Q775.9844,423.4063 776.875,424.2344 Q777.7656,425.0469 779.3594,425.0469 Q780.2969,425.0469 780.9531,424.7969 Q781.3438,424.6406 781.7656,424.2031 Q782.0313,423.9375 782.1719,423.8594 Q782.3281,423.7813 782.5313,423.7813 Q782.8594,423.7813 783.1094,424.0469 Q783.375,424.2969 783.375,424.6406 Q783.375,424.9844 783.0313,425.3906 Q782.5313,425.9688 781.7344,426.2969 Q780.6563,426.75 779.3594,426.75 Q777.8438,426.75 776.6406,426.125 Q775.6563,425.625 774.9688,424.5625 Q774.2813,423.4844 774.2813,422.2031 L774.2813,421.0469 Q774.2813,419.7188 774.8906,418.5781 Q775.5156,417.4219 776.6094,416.8125 Q777.7031,416.1875 778.9375,416.1875 Q779.6719,416.1875 780.3125,416.3594 Q780.9688,416.5156 781.5156,416.875 Z " fill="#000000"/><text fill="#000000" font-family="sans-serif" font-size="14" lengthAdjust="spacing" textLength="80" x="799.25" y="426.7969">Organization</text><line style="stroke:#181818;stroke-width:0.5;" x1="559.5" x2="1086.5" y1="437" y2="437"/><text fill="#000000" font-family="sans-serif" font-size="14" lengthAdjust="spacing" textLength="81" x="564.5" y="456.1074">-String name</text><text fill="#000000" font-family="sans-serif" font-size="14" lengthAdjust="spacing" textLength="114" x="564.5" y="474.7285">-String vatNumber</text><text fill="#000000" font-family="sans-serif" font-size="14" lengthAdjust="spacing" textLength="93" x="564.5" y="493.3496">-String website</text><text fill="#000000" font-family="sans-serif" font-size="14" lengthAdjust="spacing" textLength="86" x="564.5" y="511.9707">-String phone</text><text fill="#000000" font-family="sans-serif" font-size="14" lengthAdjust="spacing" textLength="79" x="564.5" y="530.5918">-String email</text><line style="stroke:#181818;stroke-width:0.5;" x1="559.5" x2="1086.5" y1="538.1055" y2="538.1055"/><text fill="#000000" font-family="sans-serif" font-size="14" lengthAdjust="spacing" textLength="89" x="564.5" y="557.2129">-addSkill(Skill)</text><text fill="#000000" font-family="sans-serif" font-size="14" lengthAdjust="spacing" textLength="112" x="564.5" y="575.834">-validateSkill(skill)</text><text fill="#000000" font-family="sans-serif" font-size="14" lengthAdjust="spacing" textLength="194" x="564.5" y="594.4551">+anyEmployeeHasEmail(email)</text><text fill="#000000" font-family="sans-serif" font-size="14" lengthAdjust="spacing" textLength="517" x="564.5" y="613.0762">+Organization(name, vatNumber, webSite, phone, email, postalAddress, manager)</text><text fill="#000000" font-family="sans-serif" font-size="14" lengthAdjust="spacing" textLength="473" x="564.5" y="631.6973">+createSkill(name, SkillCategory, informalDescription, technicalDescription)</text><text fill="#000000" font-family="sans-serif" font-size="14" lengthAdjust="spacing" textLength="238" x="564.5" y="650.3184">+addSkillToEmployee(skill, employee)</text><text fill="#000000" font-family="sans-serif" font-size="14" lengthAdjust="spacing" textLength="180" x="564.5" y="668.9395">-getEmployeeByEmail(email)</text></g><!--class OrganizationRepository--><g id="elem_OrganizationRepository"><rect codeLine="56" fill="#F1F1F1" height="66.6211" id="OrganizationRepository" rx="2.5" ry="2.5" style="stroke:#181818;stroke-width:0.5;" width="275" x="709.5" y="250"/><ellipse cx="768.75" cy="266" fill="#ADD1B2" rx="11" ry="11" style="stroke:#181818;stroke-width:1.0;"/><path d="M771.5156,261.875 Q771.6719,261.6563 771.8594,261.5469 Q772.0469,261.4375 772.2656,261.4375 Q772.6406,261.4375 772.875,261.7031 Q773.1094,261.9531 773.1094,262.5625 L773.1094,264.0156 Q773.1094,264.625 772.875,264.8906 Q772.6406,265.1563 772.2656,265.1563 Q771.9219,265.1563 771.7188,264.9531 Q771.5156,264.7656 771.4063,264.25 Q771.3594,263.8906 771.1719,263.7031 Q770.8438,263.3281 770.2344,263.1094 Q769.625,262.8906 769,262.8906 Q768.2344,262.8906 767.5938,263.2188 Q766.9688,263.5469 766.4688,264.2969 Q765.9844,265.0469 765.9844,266.0781 L765.9844,267.1719 Q765.9844,268.4063 766.875,269.2344 Q767.7656,270.0469 769.3594,270.0469 Q770.2969,270.0469 770.9531,269.7969 Q771.3438,269.6406 771.7656,269.2031 Q772.0313,268.9375 772.1719,268.8594 Q772.3281,268.7813 772.5313,268.7813 Q772.8594,268.7813 773.1094,269.0469 Q773.375,269.2969 773.375,269.6406 Q773.375,269.9844 773.0313,270.3906 Q772.5313,270.9688 771.7344,271.2969 Q770.6563,271.75 769.3594,271.75 Q767.8438,271.75 766.6406,271.125 Q765.6563,270.625 764.9688,269.5625 Q764.2813,268.4844 764.2813,267.2031 L764.2813,266.0469 Q764.2813,264.7188 764.8906,263.5781 Q765.5156,262.4219 766.6094,261.8125 Q767.7031,261.1875 768.9375,261.1875 Q769.6719,261.1875 770.3125,261.3594 Q770.9688,261.5156 771.5156,261.875 Z " fill="#000000"/><text fill="#000000" font-family="sans-serif" font-size="14" lengthAdjust="spacing" textLength="148" x="789.25" y="271.7969">OrganizationRepository</text><line style="stroke:#181818;stroke-width:0.5;" x1="710.5" x2="983.5" y1="282" y2="282"/><line style="stroke:#181818;stroke-width:0.5;" x1="710.5" x2="983.5" y1="290" y2="290"/><text fill="#000000" font-family="sans-serif" font-size="14" lengthAdjust="spacing" textLength="263" x="715.5" y="309.1074">+getOrganizationByEmployeeEmail(email)</text></g><!--class Repositories--><g id="elem_Repositories"><rect codeLine="60" fill="#F1F1F1" height="122.4844" id="Repositories" rx="2.5" ry="2.5" style="stroke:#181818;stroke-width:0.5;" width="198" x="892" y="30.5"/><ellipse cx="947.25" cy="46.5" fill="#ADD1B2" rx="11" ry="11" style="stroke:#181818;stroke-width:1.0;"/><path d="M950.0156,42.375 Q950.1719,42.1563 950.3594,42.0469 Q950.5469,41.9375 950.7656,41.9375 Q951.1406,41.9375 951.375,42.2031 Q951.6094,42.4531 951.6094,43.0625 L951.6094,44.5156 Q951.6094,45.125 951.375,45.3906 Q951.1406,45.6563 950.7656,45.6563 Q950.4219,45.6563 950.2188,45.4531 Q950.0156,45.2656 949.9063,44.75 Q949.8594,44.3906 949.6719,44.2031 Q949.3438,43.8281 948.7344,43.6094 Q948.125,43.3906 947.5,43.3906 Q946.7344,43.3906 946.0938,43.7188 Q945.4688,44.0469 944.9688,44.7969 Q944.4844,45.5469 944.4844,46.5781 L944.4844,47.6719 Q944.4844,48.9063 945.375,49.7344 Q946.2656,50.5469 947.8594,50.5469 Q948.7969,50.5469 949.4531,50.2969 Q949.8438,50.1406 950.2656,49.7031 Q950.5313,49.4375 950.6719,49.3594 Q950.8281,49.2813 951.0313,49.2813 Q951.3594,49.2813 951.6094,49.5469 Q951.875,49.7969 951.875,50.1406 Q951.875,50.4844 951.5313,50.8906 Q951.0313,51.4688 950.2344,51.7969 Q949.1563,52.25 947.8594,52.25 Q946.3438,52.25 945.1406,51.625 Q944.1563,51.125 943.4688,50.0625 Q942.7813,48.9844 942.7813,47.7031 L942.7813,46.5469 Q942.7813,45.2188 943.3906,44.0781 Q944.0156,42.9219 945.1094,42.3125 Q946.2031,41.6875 947.4375,41.6875 Q948.1719,41.6875 948.8125,41.8594 Q949.4688,42.0156 950.0156,42.375 Z " fill="#000000"/><text fill="#000000" font-family="sans-serif" font-size="14" lengthAdjust="spacing" textLength="79" x="967.75" y="52.2969">Repositories</text><line style="stroke:#181818;stroke-width:0.5;" x1="893" x2="1089" y1="62.5" y2="62.5"/><line style="stroke:#181818;stroke-width:0.5;" x1="893" x2="1089" y1="70.5" y2="70.5"/><text fill="#000000" font-family="sans-serif" font-size="14" lengthAdjust="spacing" textLength="94" x="898" y="89.6074">-Repositories()</text><text fill="#000000" font-family="sans-serif" font-size="14" lengthAdjust="spacing" textLength="182" x="898" y="108.2285">+getInstance() : Repositories</text><text fill="#000000" font-family="sans-serif" font-size="14" lengthAdjust="spacing" textLength="63" x="898" y="126.8496">+getSkill()</text><text fill="#000000" font-family="sans-serif" font-size="14" lengthAdjust="spacing" textLength="186" x="898" y="145.4707">+getOrganizationRepository()</text></g><!--class AddSkillToACollaboratorController--><g id="elem_AddSkillToACollaboratorController"><rect codeLine="67" fill="#F1F1F1" height="141.1055" id="AddSkillToACollaboratorController" rx="2.5" ry="2.5" style="stroke:#181818;stroke-width:0.5;" width="548" x="240" y="21"/><ellipse cx="401.75" cy="37" fill="#ADD1B2" rx="11" ry="11" style="stroke:#181818;stroke-width:1.0;"/><path d="M404.5156,32.875 Q404.6719,32.6563 404.8594,32.5469 Q405.0469,32.4375 405.2656,32.4375 Q405.6406,32.4375 405.875,32.7031 Q406.1094,32.9531 406.1094,33.5625 L406.1094,35.0156 Q406.1094,35.625 405.875,35.8906 Q405.6406,36.1563 405.2656,36.1563 Q404.9219,36.1563 404.7188,35.9531 Q404.5156,35.7656 404.4063,35.25 Q404.3594,34.8906 404.1719,34.7031 Q403.8438,34.3281 403.2344,34.1094 Q402.625,33.8906 402,33.8906 Q401.2344,33.8906 400.5938,34.2188 Q399.9688,34.5469 399.4688,35.2969 Q398.9844,36.0469 398.9844,37.0781 L398.9844,38.1719 Q398.9844,39.4063 399.875,40.2344 Q400.7656,41.0469 402.3594,41.0469 Q403.2969,41.0469 403.9531,40.7969 Q404.3438,40.6406 404.7656,40.2031 Q405.0313,39.9375 405.1719,39.8594 Q405.3281,39.7813 405.5313,39.7813 Q405.8594,39.7813 406.1094,40.0469 Q406.375,40.2969 406.375,40.6406 Q406.375,40.9844 406.0313,41.3906 Q405.5313,41.9688 404.7344,42.2969 Q403.6563,42.75 402.3594,42.75 Q400.8438,42.75 399.6406,42.125 Q398.6563,41.625 397.9688,40.5625 Q397.2813,39.4844 397.2813,38.2031 L397.2813,37.0469 Q397.2813,35.7188 397.8906,34.5781 Q398.5156,33.4219 399.6094,32.8125 Q400.7031,32.1875 401.9375,32.1875 Q402.6719,32.1875 403.3125,32.3594 Q403.9688,32.5156 404.5156,32.875 Z " fill="#000000"/><text fill="#000000" font-family="sans-serif" font-size="14" lengthAdjust="spacing" textLength="216" x="422.25" y="42.7969">AddSkillToACollaboratorController</text><line style="stroke:#181818;stroke-width:0.5;" x1="241" x2="787" y1="53" y2="53"/><line style="stroke:#181818;stroke-width:0.5;" x1="241" x2="787" y1="61" y2="61"/><text fill="#000000" font-family="sans-serif" font-size="14" lengthAdjust="spacing" textLength="536" x="246" y="80.1074">+AddSkillToACollaboratorController(technicalSkillRepository, organizationRepository)</text><text fill="#000000" font-family="sans-serif" font-size="14" lengthAdjust="spacing" textLength="70" x="246" y="98.7285">+getSkills()</text><text fill="#000000" font-family="sans-serif" font-size="14" lengthAdjust="spacing" textLength="382" x="246" y="117.3496">+createSkill\(name,informalDescription, technicalDescription)</text><text fill="#000000" font-family="sans-serif" font-size="14" lengthAdjust="spacing" textLength="255" x="246" y="135.9707">+assignSkillToEmployee(skill, employee)</text><text fill="#000000" font-family="sans-serif" font-size="14" lengthAdjust="spacing" textLength="180" x="246" y="154.5918">-getEmployeeFromSession()</text></g><g id="elem_GMN10"><path d="M1204,52 L1204,131.1641 L1398,131.1641 L1398,62 L1388,52 L1204,52 " fill="#FEFFDD" style="stroke:#181818;stroke-width:0.5;"/><path d="M1388,52 L1388,62 L1398,62 L1388,52 " fill="#FEFFDD" style="stroke:#181818;stroke-width:1.0;"/><text fill="#000000" font-family="sans-serif" font-size="13" lengthAdjust="spacing" textLength="133" x="1210" y="71.0283">- userEmail is obtained</text><text fill="#000000" font-family="sans-serif" font-size="13" lengthAdjust="spacing" textLength="125" x="1210" y="88.3193">from the user session</text><text fill="#000000" font-family="sans-serif" font-size="13" lengthAdjust="spacing" textLength="123" x="1210" y="105.6104">- categoryDescription</text><text fill="#000000" font-family="sans-serif" font-size="13" lengthAdjust="spacing" textLength="173" x="1210" y="122.9014">is retrieved from selected data</text></g><!--class AddSkillToACollaboratorUI--><g id="elem_AddSkillToACollaboratorUI"><rect codeLine="83" fill="#F1F1F1" height="48" id="AddSkillToACollaboratorUI" rx="2.5" ry="2.5" style="stroke:#181818;stroke-width:0.5;" width="198" x="7" y="67.5"/><ellipse cx="22" cy="83.5" fill="#ADD1B2" rx="11" ry="11" style="stroke:#181818;stroke-width:1.0;"/><path d="M24.7656,79.375 Q24.9219,79.1563 25.1094,79.0469 Q25.2969,78.9375 25.5156,78.9375 Q25.8906,78.9375 26.125,79.2031 Q26.3594,79.4531 26.3594,80.0625 L26.3594,81.5156 Q26.3594,82.125 26.125,82.3906 Q25.8906,82.6563 25.5156,82.6563 Q25.1719,82.6563 24.9688,82.4531 Q24.7656,82.2656 24.6563,81.75 Q24.6094,81.3906 24.4219,81.2031 Q24.0938,80.8281 23.4844,80.6094 Q22.875,80.3906 22.25,80.3906 Q21.4844,80.3906 20.8438,80.7188 Q20.2188,81.0469 19.7188,81.7969 Q19.2344,82.5469 19.2344,83.5781 L19.2344,84.6719 Q19.2344,85.9063 20.125,86.7344 Q21.0156,87.5469 22.6094,87.5469 Q23.5469,87.5469 24.2031,87.2969 Q24.5938,87.1406 25.0156,86.7031 Q25.2813,86.4375 25.4219,86.3594 Q25.5781,86.2813 25.7813,86.2813 Q26.1094,86.2813 26.3594,86.5469 Q26.625,86.7969 26.625,87.1406 Q26.625,87.4844 26.2813,87.8906 Q25.7813,88.4688 24.9844,88.7969 Q23.9063,89.25 22.6094,89.25 Q21.0938,89.25 19.8906,88.625 Q18.9063,88.125 18.2188,87.0625 Q17.5313,85.9844 17.5313,84.7031 L17.5313,83.5469 Q17.5313,82.2188 18.1406,81.0781 Q18.7656,79.9219 19.8594,79.3125 Q20.9531,78.6875 22.1875,78.6875 Q22.9219,78.6875 23.5625,78.8594 Q24.2188,79.0156 24.7656,79.375 Z " fill="#000000"/><text fill="#000000" font-family="sans-serif" font-size="14" lengthAdjust="spacing" textLength="166" x="36" y="89.2969">AddSkillToACollaboratorUI</text><line style="stroke:#181818;stroke-width:0.5;" x1="8" x2="204" y1="99.5" y2="99.5"/><line style="stroke:#181818;stroke-width:0.5;" x1="8" x2="204" y1="107.5" y2="107.5"/></g><!--link AddSkillToACollaboratorController to GMN10--><g id="link_AddSkillToACollaboratorController_GMN10"><path d="M788.35,29.36 C846.89,16.1 891.5,6 891.5,6 C891.5,6 1169.5,6 1169.5,6 C1169.5,6 1205.53,29.43 1239.87,51.75 " fill="none" id="AddSkillToACollaboratorController-GMN10" style="stroke:#181818;stroke-width:1.0;stroke-dasharray:7.0,7.0;"/></g><!--link Repositories to Repositories--><g id="link_Repositories_Repositories"><path codeLine="86" d="M1090.05,71.63 C1110.4,73.76 1125,80.38 1125,91.5 C1125,102.62 1116.3674,108.6154 1096.0174,110.7454 " fill="none" id="Repositories-to-Repositories" style="stroke:#181818;stroke-width:1.0;"/><polygon fill="#181818" points="1090.05,111.37,1099.4175,114.4114,1095.0228,110.8495,1098.5847,106.4548,1090.05,111.37" style="stroke:#181818;stroke-width:1.0;"/><text fill="#000000" font-family="sans-serif" font-size="13" lengthAdjust="spacing" textLength="49" x="1131" y="97.0283">instance</text></g><!--link ApplicationSession to ApplicationSession--><g id="link_ApplicationSession_ApplicationSession"><path codeLine="87" d="M381.66,268.27 C401.5,269.17 416.5,274.25 416.5,283.5 C416.5,292.75 407.4938,297.5581 387.6538,298.4581 " fill="none" id="ApplicationSession-to-ApplicationSession" style="stroke:#181818;stroke-width:1.0;"/><polygon fill="#181818" points="381.66,298.73,390.832,302.318,386.6549,298.5034,390.4695,294.3263,381.66,298.73" style="stroke:#181818;stroke-width:1.0;"/><text fill="#000000" font-family="sans-serif" font-size="13" lengthAdjust="spacing" textLength="49" x="422.5" y="289.0283">instance</text></g><!--link AddSkillToACollaboratorUI to AddSkillToACollaboratorController--><g id="link_AddSkillToACollaboratorUI_AddSkillToACollaboratorController"><path codeLine="89" d="M205.2,91.5 C221.54,91.5 228.81,91.5 233.83,91.5 " fill="none" id="AddSkillToACollaboratorUI-to-AddSkillToACollaboratorController" style="stroke:#181818;stroke-width:1.0;stroke-dasharray:7.0,7.0;"/><polygon fill="#181818" points="239.83,91.5,230.83,87.5,234.83,91.5,230.83,95.5,239.83,91.5" style="stroke:#181818;stroke-width:1.0;"/></g><!--link AddSkillToACollaboratorController to Repositories--><g id="link_AddSkillToACollaboratorController_Repositories"><path codeLine="91" d="M788.02,91.5 C824.98,91.5 854.77,91.5 885.74,91.5 " fill="none" id="AddSkillToACollaboratorController-to-Repositories" style="stroke:#181818;stroke-width:1.0;stroke-dasharray:7.0,7.0;"/><polygon fill="#181818" points="891.74,91.5,882.74,87.5,886.74,91.5,882.74,95.5,891.74,91.5" style="stroke:#181818;stroke-width:1.0;"/><text fill="#000000" font-family="sans-serif" font-size="13" lengthAdjust="spacing" textLength="67" x="806.5" y="84.5283">repositories</text></g><!--link AddSkillToACollaboratorController to OrganizationRepository--><g id="link_AddSkillToACollaboratorController_OrganizationRepository"><path codeLine="94" d="M636.11,162.17 C688.64,192.14 742.3191,222.7657 784.4891,246.8357 " fill="none" id="AddSkillToACollaboratorController-to-OrganizationRepository" style="stroke:#181818;stroke-width:1.0;stroke-dasharray:7.0,7.0;"/><polygon fill="#181818" points="789.7,249.81,783.8665,241.8746,785.3576,247.3314,779.9008,248.8225,789.7,249.81" style="stroke:#181818;stroke-width:1.0;"/><text fill="#000000" font-family="sans-serif" font-size="13" lengthAdjust="spacing" textLength="132" x="722" y="207.0283">organizationRepository</text></g><!--link Repositories to OrganizationRepository--><g id="link_Repositories_OrganizationRepository"><path codeLine="96" d="M945.44,152.62 C921.05,184.8 895.5846,218.3986 875.3746,245.0586 " fill="none" id="Repositories-to-OrganizationRepository" style="stroke:#181818;stroke-width:1.0;"/><polygon fill="#181818" points="871.75,249.84,880.3746,245.0843,874.7705,245.8555,873.9993,240.2514,871.75,249.84" style="stroke:#181818;stroke-width:1.0;"/><text fill="#000000" font-family="sans-serif" font-size="13" lengthAdjust="spacing" textLength="7" x="868.9336" y="238.634">1</text></g><!--link OrganizationRepository to Organization--><g id="link_OrganizationRepository_Organization"><path codeLine="98" d="M843.94,317.05 C841.79,339.88 839.3224,366.0964 836.2324,398.9164 " fill="none" id="OrganizationRepository-to-Organization" style="stroke:#181818;stroke-width:1.0;"/><polygon fill="#181818" points="835.67,404.89,840.496,396.3046,836.1387,399.912,832.5312,395.5547,835.67,404.89" style="stroke:#181818;stroke-width:1.0;"/><text fill="#000000" font-family="sans-serif" font-size="13" lengthAdjust="spacing" textLength="5" x="831.258" y="393.5823">*</text></g><!--link ApplicationSession to UserSession--><g id="link_ApplicationSession_UserSession"><path codeLine="99" d="M328.48,326.04 C355.82,376.56 398.555,455.5128 423.495,501.6128 " fill="none" id="ApplicationSession-to-UserSession" style="stroke:#181818;stroke-width:1.0;"/><polygon fill="#181818" points="426.35,506.89,425.5857,497.0708,423.9709,502.4923,418.5494,500.8775,426.35,506.89" style="stroke:#181818;stroke-width:1.0;"/><text fill="#000000" font-family="sans-serif" font-size="13" lengthAdjust="spacing" textLength="72" x="356" y="371.0283">userSession</text><text fill="#000000" font-family="sans-serif" font-size="13" lengthAdjust="spacing" textLength="7" x="415.1861" y="495.6939">1</text></g><!--link AddSkillToACollaboratorController to Organization--><g id="link_AddSkillToACollaboratorController_Organization"><path codeLine="101" d="M545.66,162.24 C576.89,231.05 620,326 620,326 C620,326 650.3458,357.9116 690.8758,400.5416 " fill="none" id="AddSkillToACollaboratorController-to-Organization" style="stroke:#181818;stroke-width:1.0;stroke-dasharray:7.0,7.0;"/><polygon fill="#181818" points="695.01,404.89,691.7076,395.6113,691.5648,401.2663,685.9098,401.1235,695.01,404.89" style="stroke:#181818;stroke-width:1.0;"/><text fill="#000000" font-family="sans-serif" font-size="13" lengthAdjust="spacing" textLength="70" x="621" y="289.0283">organization</text><text fill="#000000" font-family="sans-serif" font-size="13" lengthAdjust="spacing" textLength="7" x="680.4082" y="393.5823">1</text></g><!--link AddSkillToACollaboratorController to ApplicationSession--><g id="link_AddSkillToACollaboratorController_ApplicationSession"><path codeLine="102" d="M437.73,162.17 C408.86,188.54 381.3399,213.6733 356.1399,236.6933 " fill="none" id="AddSkillToACollaboratorController-to-ApplicationSession" style="stroke:#181818;stroke-width:1.0;stroke-dasharray:7.0,7.0;"/><polygon fill="#181818" points="351.71,240.74,361.0527,237.6232,355.4016,237.3678,355.6571,231.7167,351.71,240.74" style="stroke:#181818;stroke-width:1.0;"/></g><!--link AddSkillToACollaboratorController to UserSession--><g id="link_AddSkillToACollaboratorController_UserSession"><path codeLine="103" d="M503.25,162.24 C492.64,231.05 478,326 478,326 C478,326 459.7239,440.7947 450.1839,500.6847 " fill="none" id="AddSkillToACollaboratorController-to-UserSession" style="stroke:#181818;stroke-width:1.0;stroke-dasharray:7.0,7.0;"/><polygon fill="#181818" points="449.24,506.61,454.606,498.3513,450.0265,501.6723,446.7056,497.0928,449.24,506.61" style="stroke:#181818;stroke-width:1.0;"/></g><!--link Organization to Skill--><g id="link_Organization_Skill"><path codeLine="104" d="M929.42,676.25 C951.25,703.89 969.4404,726.932 987.8804,750.272 " fill="none" id="Organization-to-Skill" style="stroke:#181818;stroke-width:1.0;"/><polygon fill="#181818" points="991.6,754.98,989.1593,745.4384,988.5004,751.0567,982.882,750.3978,991.6,754.98" style="stroke:#181818;stroke-width:1.0;"/><text fill="#000000" font-family="sans-serif" font-size="13" lengthAdjust="spacing" textLength="30" x="963" y="721.0283">skills</text><text fill="#000000" font-family="sans-serif" font-size="13" lengthAdjust="spacing" textLength="7" x="928.3701" y="698.6131">1</text><text fill="#000000" font-family="sans-serif" font-size="13" lengthAdjust="spacing" textLength="5" x="980.5184" y="743.5238">*</text></g><!--link Skill to Employee--><g id="link_Skill_Employee"><path codeLine="105" d="M954.53,877.25 C906.26,911.68 852.3946,950.0957 812.1746,978.7857 " fill="none" id="Skill-to-Employee" style="stroke:#181818;stroke-width:1.0;"/><polygon fill="#181818" points="807.29,982.27,816.9398,980.2999,811.3605,979.3664,812.294,973.7871,807.29,982.27" style="stroke:#181818;stroke-width:1.0;"/><text fill="#000000" font-family="sans-serif" font-size="13" lengthAdjust="spacing" textLength="59" x="909" y="922.0283">createdBy</text></g><!--link Organization to Employee--><g id="link_Organization_Employee"><path codeLine="107" d="M776.34,676.11 C761.57,718.74 749,755 749,755 C749,755 749,877 749,877 C749,877 751.7972,912.2887 754.7672,949.8587 " fill="none" id="Organization-to-Employee" style="stroke:#181818;stroke-width:1.0;"/><polygon fill="#181818" points="755.24,955.84,758.5183,946.5528,754.846,950.8556,750.5432,947.1832,755.24,955.84" style="stroke:#181818;stroke-width:1.0;"/><text fill="#000000" font-family="sans-serif" font-size="13" lengthAdjust="spacing" textLength="49" x="750" y="821.5283">employs</text><text fill="#000000" font-family="sans-serif" font-size="13" lengthAdjust="spacing" textLength="5" x="749.4006" y="944.8027">*</text></g><!--SRC=[dLR1Rjim3BthAuHUsgnkiLrpA91a7TRB1iphRHV5PXoXicH8IWjtsB-FicHPTXqaRGw1HLBFZuyKvKlpn6N3DAjfhQGgzbhLGAq-01ay3IkUM0MvRGLG3OLbiX9fWDcpKhrmMT4T4oRr22x1jWtGHedMBSZbZ5DfgqYogn3Cc9MrccyF5XuA9NF-2lGp8PS2TfPQHJMlzfQMtD7XIXBIxQ6hfX6yOCwKWp7EyvTG_5rJOz5Sq0hiWyHdMS3L8hZGjZbe3TA6JUZvrqC-6j1JBDpWpFSruoADlQyReLe0wWDlg6GrX4TmmU6vKOPtjCDohr2PY98_SI4YH8uoeB89Kh1mkLEwPk8hc4Bp9i4B0HQAlKGrHX4afD2zvCgXPjIuvmspK2dTPdF0sInOalbFNJ79NplbJrD_PlR7eTw27fjVO8kwJ6AzE2EJbpBOM5dwNBh_HR0-Cy5BpCYxpE2wfaosVPs-C-Dhs27s0MakGQ58E7CaSoIPUMAP9vEvabecLcMfiLSoMZE9HqRta8M6ICOZvX_MF6GHqlwj-cHybewGN_TIOBFs8UjsbAuhtqpzVa7NdyYB9WsVHgoZWYEys0qHWOE9tP0QqwCt74Uw70KD8LwunJoPWMvw55THdzL62S6sIZECsIXfDQv1nznEHbx5EdHnm_iod5npF1OJvaEwIH_yyOtm_iBZAAha-sl_3KVxQBn9PI7CKRKxhK90FFHpZt93rTOo7E9bvzlX2wZTGnT2JHYPVbSH6dqwgn130nvgU8RI0nWGED9nXQUN4P0bTJp9YR8-Fc0vCQTHuztSZHjnYQVCjnfvUq-uw1bhieSSV_VjtHdwaTCjUVk6iKxFmraGY77aC2-FjEjKDbJYuil54HH2Zg1tspwDjytg7E2JUnMP7P9Rzimifnmd-Ps9ClF5SDx6zBjWHCFnwiNmL_dItx26-ALpnY-5PPW9vNeYRSH8GltnDkG_]--></g></svg>