<?xml version="1.0" encoding="us-ascii" standalone="no"?><svg xmlns="http://www.w3.org/2000/svg" xmlns:xlink="http://www.w3.org/1999/xlink" contentStyleType="text/css" height="1667px" preserveAspectRatio="none" style="width:2492px;height:1667px;background:#FFFFFF;" version="1.1" viewBox="0 0 2492 1667" width="2492px" zoomAndPan="magnify"><defs/><g><rect fill="#FFFFFF" height="1472.7168" style="stroke:#181818;stroke-width:1.0;" width="10" x="91" y="93.6211"/><rect fill="#FFFFFF" height="518.2773" style="stroke:#181818;stroke-width:1.0;" width="10" x="487" y="116.9121"/><rect fill="#FFFFFF" height="31.291" style="stroke:#181818;stroke-width:1.0;" width="10" x="492" y="410.8613"/><rect fill="#FFFFFF" height="899.8574" style="stroke:#181818;stroke-width:1.0;" width="10" x="487" y="666.4805"/><rect fill="#FFFFFF" height="219.0371" style="stroke:#181818;stroke-width:1.0;" width="10" x="740" y="191.8242"/><rect fill="#FFFFFF" height="805.9844" style="stroke:#181818;stroke-width:1.0;" width="10" x="740" y="697.7715"/><rect fill="#FFFFFF" height="31.291" style="stroke:#181818;stroke-width:1.0;" width="10" x="943" y="223.1152"/><rect fill="#FFFFFF" height="31.291" style="stroke:#181818;stroke-width:1.0;" width="10" x="1050" y="285.6973"/><rect fill="#FFFFFF" height="31.291" style="stroke:#181818;stroke-width:1.0;" width="10" x="1050" y="961.0996"/><rect fill="#FFFFFF" height="31.291" style="stroke:#181818;stroke-width:1.0;" width="10" x="1164" y="348.2793"/><rect fill="#FFFFFF" height="31.291" style="stroke:#181818;stroke-width:1.0;" width="10" x="1298" y="773.3535"/><rect fill="#FFFFFF" height="31.291" style="stroke:#181818;stroke-width:1.0;" width="10" x="1445" y="835.9355"/><rect fill="#FFFFFF" height="31.291" style="stroke:#181818;stroke-width:1.0;" width="10" x="1578" y="898.5176"/><rect fill="#FFFFFF" height="127.1641" style="stroke:#181818;stroke-width:1.0;" width="10" x="1724" y="1023.6816"/><rect fill="#FFFFFF" height="31.291" style="stroke:#181818;stroke-width:1.0;" width="10" x="1945" y="1081.2637"/><rect fill="#FFFFFF" height="31.291" style="stroke:#181818;stroke-width:1.0;" width="10" x="1945" y="1182.1367"/><rect fill="#FFFFFF" height="189.7461" style="stroke:#181818;stroke-width:1.0;" width="10" x="1945" y="1314.0098"/><rect fill="#FFFFFF" height="127.1641" style="stroke:#181818;stroke-width:1.0;" width="10" x="2241" y="1345.3008"/><rect fill="#FFFFFF" height="95.873" style="stroke:#181818;stroke-width:1.0;" width="10" x="2434" y="1345.3008"/><rect fill="none" height="99.1641" style="stroke:#000000;stroke-width:1.5;" width="532" x="10" y="488.4434"/><rect fill="none" height="81.873" style="stroke:#000000;stroke-width:1.5;" width="371.5" x="1637.5" y="1038.6816"/><rect fill="none" height="50.582" style="stroke:#000000;stroke-width:1.5;" width="276" x="2210.5" y="1360.3008"/><line style="stroke:#181818;stroke-width:0.5;stroke-dasharray:5.0,5.0;" x1="96" x2="96" y1="83.6211" y2="1584.3379"/><line style="stroke:#181818;stroke-width:0.5;stroke-dasharray:5.0,5.0;" x1="492" x2="492" y1="83.6211" y2="1584.3379"/><line style="stroke:#181818;stroke-width:0.5;stroke-dasharray:5.0,5.0;" x1="745" x2="745" y1="156.7227" y2="1584.3379"/><line style="stroke:#181818;stroke-width:0.5;stroke-dasharray:5.0,5.0;" x1="947.5" x2="947.5" y1="83.6211" y2="1584.3379"/><line style="stroke:#181818;stroke-width:0.5;stroke-dasharray:5.0,5.0;" x1="1054.5" x2="1054.5" y1="83.6211" y2="1584.3379"/><line style="stroke:#181818;stroke-width:0.5;stroke-dasharray:5.0,5.0;" x1="1168.5" x2="1168.5" y1="83.6211" y2="1584.3379"/><line style="stroke:#181818;stroke-width:0.5;stroke-dasharray:5.0,5.0;" x1="1302.5" x2="1302.5" y1="83.6211" y2="1584.3379"/><line style="stroke:#181818;stroke-width:0.5;stroke-dasharray:5.0,5.0;" x1="1449.5" x2="1449.5" y1="83.6211" y2="1584.3379"/><line style="stroke:#181818;stroke-width:0.5;stroke-dasharray:5.0,5.0;" x1="1582.5" x2="1582.5" y1="83.6211" y2="1584.3379"/><line style="stroke:#181818;stroke-width:0.5;stroke-dasharray:5.0,5.0;" x1="1728.5" x2="1728.5" y1="83.6211" y2="1584.3379"/><line style="stroke:#181818;stroke-width:0.5;stroke-dasharray:5.0,5.0;" x1="1950" x2="1950" y1="83.6211" y2="1584.3379"/><line style="stroke:#181818;stroke-width:0.5;stroke-dasharray:5.0,5.0;" x1="2245.5" x2="2245.5" y1="83.6211" y2="1584.3379"/><line style="stroke:#181818;stroke-width:0.5;stroke-dasharray:5.0,5.0;" x1="2438.5" x2="2438.5" y1="83.6211" y2="1584.3379"/><text fill="#000000" font-family="sans-serif" font-size="14" lengthAdjust="spacing" textLength="146" x="20" y="80.1074">Organization Employee</text><ellipse cx="96" cy="13.5" fill="#E3E3E3" rx="8" ry="8" style="stroke:#181818;stroke-width:0.5;"/><path d="M96,21.5 L96,48.5 M83,29.5 L109,29.5 M96,48.5 L83,63.5 M96,48.5 L109,63.5 " fill="none" style="stroke:#181818;stroke-width:0.5;"/><text fill="#000000" font-family="sans-serif" font-size="14" lengthAdjust="spacing" textLength="146" x="20" y="1598.4453">Organization Employee</text><ellipse cx="96" cy="1610.459" fill="#E3E3E3" rx="8" ry="8" style="stroke:#181818;stroke-width:0.5;"/><path d="M96,1618.459 L96,1645.459 M83,1626.459 L109,1626.459 M96,1645.459 L83,1660.459 M96,1645.459 L109,1660.459 " fill="none" style="stroke:#181818;stroke-width:0.5;"/><rect fill="#E3E3E3" height="32.6211" rx="2.5" ry="2.5" style="stroke:#181818;stroke-width:0.5;" width="80" x="452" y="50"/><text fill="#000000" font-family="sans-serif" font-size="14" lengthAdjust="spacing" textLength="66" x="459" y="72.1074">:AddSkillUI</text><rect fill="#E3E3E3" height="32.6211" rx="2.5" ry="2.5" style="stroke:#181818;stroke-width:0.5;" width="80" x="452" y="1583.3379"/><text fill="#000000" font-family="sans-serif" font-size="14" lengthAdjust="spacing" textLength="66" x="459" y="1605.4453">:AddSkillUI</text><rect fill="#E3E3E3" height="32.6211" rx="2.5" ry="2.5" style="stroke:#181818;stroke-width:0.5;" width="130" x="680" y="1583.3379"/><text fill="#000000" font-family="sans-serif" font-size="14" lengthAdjust="spacing" textLength="116" x="687" y="1605.4453">:AddSkillController</text><rect fill="#E3E3E3" height="32.6211" rx="2.5" ry="2.5" style="stroke:#181818;stroke-width:0.5;" width="97" x="899.5" y="50"/><text fill="#000000" font-family="sans-serif" font-size="14" lengthAdjust="spacing" textLength="83" x="906.5" y="72.1074">:Repositories</text><rect fill="#E3E3E3" height="32.6211" rx="2.5" ry="2.5" style="stroke:#181818;stroke-width:0.5;" width="97" x="899.5" y="1583.3379"/><text fill="#000000" font-family="sans-serif" font-size="14" lengthAdjust="spacing" textLength="83" x="906.5" y="1605.4453">:Repositories</text><rect fill="#E3E3E3" height="51.2422" rx="2.5" ry="2.5" style="stroke:#181818;stroke-width:0.5;" width="97" x="1006.5" y="31.3789"/><text fill="#000000" font-family="sans-serif" font-size="14" lengthAdjust="spacing" textLength="74" x="1018" y="53.4863">repositories</text><text fill="#000000" font-family="sans-serif" font-size="14" lengthAdjust="spacing" textLength="83" x="1013.5" y="72.1074">:Repositories</text><rect fill="#E3E3E3" height="51.2422" rx="2.5" ry="2.5" style="stroke:#181818;stroke-width:0.5;" width="97" x="1006.5" y="1583.3379"/><text fill="#000000" font-family="sans-serif" font-size="14" lengthAdjust="spacing" textLength="74" x="1018" y="1605.4453">repositories</text><text fill="#000000" font-family="sans-serif" font-size="14" lengthAdjust="spacing" textLength="83" x="1013.5" y="1624.0664">:Repositories</text><rect fill="#E3E3E3" height="51.2422" rx="2.5" ry="2.5" style="stroke:#181818;stroke-width:0.5;" width="111" x="1113.5" y="31.3789"/><text fill="#000000" font-family="sans-serif" font-size="14" lengthAdjust="spacing" textLength="97" x="1120.5" y="53.4863">SkillRepository:</text><text fill="#000000" font-family="sans-serif" font-size="14" lengthAdjust="spacing" textLength="93" x="1122.5" y="72.1074">SkillRepository</text><rect fill="#E3E3E3" height="51.2422" rx="2.5" ry="2.5" style="stroke:#181818;stroke-width:0.5;" width="111" x="1113.5" y="1583.3379"/><text fill="#000000" font-family="sans-serif" font-size="14" lengthAdjust="spacing" textLength="97" x="1120.5" y="1605.4453">SkillRepository:</text><text fill="#000000" font-family="sans-serif" font-size="14" lengthAdjust="spacing" textLength="93" x="1122.5" y="1624.0664">SkillRepository</text><rect fill="#E3E3E3" height="32.6211" rx="2.5" ry="2.5" style="stroke:#181818;stroke-width:0.5;" width="137" x="1234.5" y="50"/><text fill="#000000" font-family="sans-serif" font-size="14" lengthAdjust="spacing" textLength="123" x="1241.5" y="72.1074">:ApplicationSession</text><rect fill="#E3E3E3" height="32.6211" rx="2.5" ry="2.5" style="stroke:#181818;stroke-width:0.5;" width="137" x="1234.5" y="1583.3379"/><text fill="#000000" font-family="sans-serif" font-size="14" lengthAdjust="spacing" textLength="123" x="1241.5" y="1605.4453">:ApplicationSession</text><rect fill="#E3E3E3" height="51.2422" rx="2.5" ry="2.5" style="stroke:#181818;stroke-width:0.5;" width="137" x="1381.5" y="31.3789"/><text fill="#000000" font-family="sans-serif" font-size="14" lengthAdjust="spacing" textLength="74" x="1413" y="53.4863">appSession</text><text fill="#000000" font-family="sans-serif" font-size="14" lengthAdjust="spacing" textLength="123" x="1388.5" y="72.1074">:ApplicationSession</text><rect fill="#E3E3E3" height="51.2422" rx="2.5" ry="2.5" style="stroke:#181818;stroke-width:0.5;" width="137" x="1381.5" y="1583.3379"/><text fill="#000000" font-family="sans-serif" font-size="14" lengthAdjust="spacing" textLength="74" x="1413" y="1605.4453">appSession</text><text fill="#000000" font-family="sans-serif" font-size="14" lengthAdjust="spacing" textLength="123" x="1388.5" y="1624.0664">:ApplicationSession</text><rect fill="#E3E3E3" height="51.2422" rx="2.5" ry="2.5" style="stroke:#181818;stroke-width:0.5;" width="109" x="1528.5" y="31.3789"/><text fill="#000000" font-family="sans-serif" font-size="14" lengthAdjust="spacing" textLength="95" x="1535.5" y="53.4863">currentSession</text><text fill="#000000" font-family="sans-serif" font-size="14" lengthAdjust="spacing" textLength="83" x="1541.5" y="72.1074">:UserSession</text><rect fill="#E3E3E3" height="51.2422" rx="2.5" ry="2.5" style="stroke:#181818;stroke-width:0.5;" width="109" x="1528.5" y="1583.3379"/><text fill="#000000" font-family="sans-serif" font-size="14" lengthAdjust="spacing" textLength="95" x="1535.5" y="1605.4453">currentSession</text><text fill="#000000" font-family="sans-serif" font-size="14" lengthAdjust="spacing" textLength="83" x="1541.5" y="1624.0664">:UserSession</text><rect fill="#E3E3E3" height="51.2422" rx="2.5" ry="2.5" style="stroke:#181818;stroke-width:0.5;" width="163" x="1647.5" y="31.3789"/><text fill="#000000" font-family="sans-serif" font-size="14" lengthAdjust="spacing" textLength="149" x="1654.5" y="53.4863">organizationRepository:</text><text fill="#000000" font-family="sans-serif" font-size="14" lengthAdjust="spacing" textLength="148" x="1655" y="72.1074">OrganizationRepository</text><rect fill="#E3E3E3" height="51.2422" rx="2.5" ry="2.5" style="stroke:#181818;stroke-width:0.5;" width="163" x="1647.5" y="1583.3379"/><text fill="#000000" font-family="sans-serif" font-size="14" lengthAdjust="spacing" textLength="149" x="1654.5" y="1605.4453">organizationRepository:</text><text fill="#000000" font-family="sans-serif" font-size="14" lengthAdjust="spacing" textLength="148" x="1655" y="1624.0664">OrganizationRepository</text><rect fill="#E3E3E3" height="51.2422" rx="2.5" ry="2.5" style="stroke:#181818;stroke-width:0.5;" width="98" x="1901" y="31.3789"/><text fill="#000000" font-family="sans-serif" font-size="14" lengthAdjust="spacing" textLength="77" x="1911.5" y="53.4863">organization</text><text fill="#000000" font-family="sans-serif" font-size="14" lengthAdjust="spacing" textLength="84" x="1908" y="72.1074">:Organization</text><rect fill="#E3E3E3" height="51.2422" rx="2.5" ry="2.5" style="stroke:#181818;stroke-width:0.5;" width="98" x="1901" y="1583.3379"/><text fill="#000000" font-family="sans-serif" font-size="14" lengthAdjust="spacing" textLength="77" x="1911.5" y="1605.4453">organization</text><text fill="#000000" font-family="sans-serif" font-size="14" lengthAdjust="spacing" textLength="84" x="1908" y="1624.0664">:Organization</text><rect fill="#E3E3E3" height="32.6211" rx="2.5" ry="2.5" style="stroke:#181818;stroke-width:0.5;" width="51" x="2220.5" y="50"/><text fill="#000000" font-family="sans-serif" font-size="14" lengthAdjust="spacing" textLength="37" x="2227.5" y="72.1074">SKILL</text><rect fill="#E3E3E3" height="32.6211" rx="2.5" ry="2.5" style="stroke:#181818;stroke-width:0.5;" width="51" x="2220.5" y="1583.3379"/><text fill="#000000" font-family="sans-serif" font-size="14" lengthAdjust="spacing" textLength="37" x="2227.5" y="1605.4453">SKILL</text><rect fill="#E3E3E3" height="32.6211" rx="2.5" ry="2.5" style="stroke:#181818;stroke-width:0.5;" width="75" x="2401.5" y="50"/><text fill="#000000" font-family="sans-serif" font-size="14" lengthAdjust="spacing" textLength="61" x="2408.5" y="72.1074">employee</text><rect fill="#E3E3E3" height="32.6211" rx="2.5" ry="2.5" style="stroke:#181818;stroke-width:0.5;" width="75" x="2401.5" y="1583.3379"/><text fill="#000000" font-family="sans-serif" font-size="14" lengthAdjust="spacing" textLength="61" x="2408.5" y="1605.4453">employee</text><rect fill="#FFFFFF" height="1472.7168" style="stroke:#181818;stroke-width:1.0;" width="10" x="91" y="93.6211"/><rect fill="#FFFFFF" height="518.2773" style="stroke:#181818;stroke-width:1.0;" width="10" x="487" y="116.9121"/><rect fill="#FFFFFF" height="31.291" style="stroke:#181818;stroke-width:1.0;" width="10" x="492" y="410.8613"/><rect fill="#FFFFFF" height="899.8574" style="stroke:#181818;stroke-width:1.0;" width="10" x="487" y="666.4805"/><rect fill="#FFFFFF" height="219.0371" style="stroke:#181818;stroke-width:1.0;" width="10" x="740" y="191.8242"/><rect fill="#FFFFFF" height="805.9844" style="stroke:#181818;stroke-width:1.0;" width="10" x="740" y="697.7715"/><rect fill="#FFFFFF" height="31.291" style="stroke:#181818;stroke-width:1.0;" width="10" x="943" y="223.1152"/><rect fill="#FFFFFF" height="31.291" style="stroke:#181818;stroke-width:1.0;" width="10" x="1050" y="285.6973"/><rect fill="#FFFFFF" height="31.291" style="stroke:#181818;stroke-width:1.0;" width="10" x="1050" y="961.0996"/><rect fill="#FFFFFF" height="31.291" style="stroke:#181818;stroke-width:1.0;" width="10" x="1164" y="348.2793"/><rect fill="#FFFFFF" height="31.291" style="stroke:#181818;stroke-width:1.0;" width="10" x="1298" y="773.3535"/><rect fill="#FFFFFF" height="31.291" style="stroke:#181818;stroke-width:1.0;" width="10" x="1445" y="835.9355"/><rect fill="#FFFFFF" height="31.291" style="stroke:#181818;stroke-width:1.0;" width="10" x="1578" y="898.5176"/><rect fill="#FFFFFF" height="127.1641" style="stroke:#181818;stroke-width:1.0;" width="10" x="1724" y="1023.6816"/><rect fill="#FFFFFF" height="31.291" style="stroke:#181818;stroke-width:1.0;" width="10" x="1945" y="1081.2637"/><rect fill="#FFFFFF" height="31.291" style="stroke:#181818;stroke-width:1.0;" width="10" x="1945" y="1182.1367"/><rect fill="#FFFFFF" height="189.7461" style="stroke:#181818;stroke-width:1.0;" width="10" x="1945" y="1314.0098"/><rect fill="#FFFFFF" height="127.1641" style="stroke:#181818;stroke-width:1.0;" width="10" x="2241" y="1345.3008"/><rect fill="#FFFFFF" height="95.873" style="stroke:#181818;stroke-width:1.0;" width="10" x="2434" y="1345.3008"/><polygon fill="#181818" points="475,112.9121,485,116.9121,475,120.9121,479,116.9121" style="stroke:#181818;stroke-width:1.0;"/><line style="stroke:#181818;stroke-width:1.0;" x1="101" x2="481" y1="116.9121" y2="116.9121"/><text fill="#000000" font-family="sans-serif" font-size="13" font-weight="bold" lengthAdjust="spacing" textLength="7" x="108" y="111.6494">1</text><text fill="#000000" font-family="sans-serif" font-size="13" lengthAdjust="spacing" textLength="203" x="119" y="111.6494">asks to add a skill to a collaborator</text><polygon fill="#181818" points="668,144.2031,678,148.2031,668,152.2031,672,148.2031" style="stroke:#181818;stroke-width:1.0;"/><line style="stroke:#181818;stroke-width:1.0;" x1="497" x2="674" y1="148.2031" y2="148.2031"/><text fill="#000000" font-family="sans-serif" font-size="13" font-weight="bold" lengthAdjust="spacing" textLength="7" x="504" y="142.9404">2</text><text fill="#000000" font-family="sans-serif" font-size="13" lengthAdjust="spacing" textLength="36" x="515" y="142.9404">create</text><rect fill="#E3E3E3" height="32.6211" rx="2.5" ry="2.5" style="stroke:#181818;stroke-width:0.5;" width="130" x="680" y="124.9121"/><text fill="#000000" font-family="sans-serif" font-size="14" lengthAdjust="spacing" textLength="116" x="687" y="147.0195">:AddSkillController</text><polygon fill="#181818" points="728,187.8242,738,191.8242,728,195.8242,732,191.8242" style="stroke:#181818;stroke-width:1.0;"/><line style="stroke:#181818;stroke-width:1.0;" x1="497" x2="734" y1="191.8242" y2="191.8242"/><text fill="#000000" font-family="sans-serif" font-size="13" font-weight="bold" lengthAdjust="spacing" textLength="7" x="504" y="186.5615">3</text><text fill="#000000" font-family="sans-serif" font-size="13" lengthAdjust="spacing" textLength="72" x="515" y="186.5615">getSkillList()</text><polygon fill="#181818" points="931,219.1152,941,223.1152,931,227.1152,935,223.1152" style="stroke:#181818;stroke-width:1.0;"/><line style="stroke:#181818;stroke-width:1.0;" x1="750" x2="937" y1="223.1152" y2="223.1152"/><text fill="#000000" font-family="sans-serif" font-size="13" font-weight="bold" lengthAdjust="spacing" textLength="7" x="757" y="217.8525">4</text><text fill="#000000" font-family="sans-serif" font-size="13" lengthAdjust="spacing" textLength="75" x="768" y="217.8525">getInstance()</text><polygon fill="#181818" points="761,250.4063,751,254.4063,761,258.4063,757,254.4063" style="stroke:#181818;stroke-width:1.0;"/><line style="stroke:#181818;stroke-width:1.0;stroke-dasharray:2.0,2.0;" x1="755" x2="947" y1="254.4063" y2="254.4063"/><text fill="#000000" font-family="sans-serif" font-size="13" font-weight="bold" lengthAdjust="spacing" textLength="7" x="767" y="249.1436">5</text><text fill="#000000" font-family="sans-serif" font-size="13" lengthAdjust="spacing" textLength="67" x="778" y="249.1436">repositories</text><polygon fill="#181818" points="1038,281.6973,1048,285.6973,1038,289.6973,1042,285.6973" style="stroke:#181818;stroke-width:1.0;"/><line style="stroke:#181818;stroke-width:1.0;" x1="750" x2="1044" y1="285.6973" y2="285.6973"/><text fill="#000000" font-family="sans-serif" font-size="13" font-weight="bold" lengthAdjust="spacing" textLength="7" x="757" y="280.4346">6</text><text fill="#000000" font-family="sans-serif" font-size="13" lengthAdjust="spacing" textLength="113" x="768" y="280.4346">getSkillRepository()</text><polygon fill="#181818" points="761,312.9883,751,316.9883,761,320.9883,757,316.9883" style="stroke:#181818;stroke-width:1.0;"/><line style="stroke:#181818;stroke-width:1.0;stroke-dasharray:2.0,2.0;" x1="755" x2="1054" y1="316.9883" y2="316.9883"/><text fill="#000000" font-family="sans-serif" font-size="13" font-weight="bold" lengthAdjust="spacing" textLength="7" x="767" y="311.7256">7</text><text fill="#000000" font-family="sans-serif" font-size="13" lengthAdjust="spacing" textLength="87" x="778" y="311.7256">SkillRepository</text><polygon fill="#181818" points="1152,344.2793,1162,348.2793,1152,352.2793,1156,348.2793" style="stroke:#181818;stroke-width:1.0;"/><line style="stroke:#181818;stroke-width:1.0;" x1="750" x2="1158" y1="348.2793" y2="348.2793"/><text fill="#000000" font-family="sans-serif" font-size="13" font-weight="bold" lengthAdjust="spacing" textLength="7" x="757" y="343.0166">8</text><text fill="#000000" font-family="sans-serif" font-size="13" lengthAdjust="spacing" textLength="58" x="768" y="343.0166">getSkills()</text><polygon fill="#181818" points="761,375.5703,751,379.5703,761,383.5703,757,379.5703" style="stroke:#181818;stroke-width:1.0;"/><line style="stroke:#181818;stroke-width:1.0;stroke-dasharray:2.0,2.0;" x1="755" x2="1168" y1="379.5703" y2="379.5703"/><text fill="#000000" font-family="sans-serif" font-size="13" font-weight="bold" lengthAdjust="spacing" textLength="7" x="767" y="374.3076">9</text><text fill="#000000" font-family="sans-serif" font-size="13" lengthAdjust="spacing" textLength="46" x="778" y="374.3076">SkillList</text><polygon fill="#181818" points="513,406.8613,503,410.8613,513,414.8613,509,410.8613" style="stroke:#181818;stroke-width:1.0;"/><line style="stroke:#181818;stroke-width:1.0;stroke-dasharray:2.0,2.0;" x1="507" x2="744" y1="410.8613" y2="410.8613"/><text fill="#000000" font-family="sans-serif" font-size="13" font-weight="bold" lengthAdjust="spacing" textLength="14" x="519" y="405.5986">10</text><text fill="#000000" font-family="sans-serif" font-size="13" lengthAdjust="spacing" textLength="46" x="537" y="405.5986">SkillList</text><polygon fill="#181818" points="112,438.1523,102,442.1523,112,446.1523,108,442.1523" style="stroke:#181818;stroke-width:1.0;"/><line style="stroke:#181818;stroke-width:1.0;stroke-dasharray:2.0,2.0;" x1="106" x2="486" y1="442.1523" y2="442.1523"/><text fill="#000000" font-family="sans-serif" font-size="13" font-weight="bold" lengthAdjust="spacing" textLength="14" x="118" y="436.8896">11</text><text fill="#000000" font-family="sans-serif" font-size="13" lengthAdjust="spacing" textLength="344" x="136" y="436.8896">shows list of collaborators and requests collaborator's email</text><polygon fill="#181818" points="475,469.4434,485,473.4434,475,477.4434,479,473.4434" style="stroke:#181818;stroke-width:1.0;"/><line style="stroke:#181818;stroke-width:1.0;" x1="101" x2="481" y1="473.4434" y2="473.4434"/><text fill="#000000" font-family="sans-serif" font-size="13" font-weight="bold" lengthAdjust="spacing" textLength="14" x="108" y="468.1807">12</text><text fill="#000000" font-family="sans-serif" font-size="13" lengthAdjust="spacing" textLength="128" x="126" y="468.1807">types requested email</text><path d="M10,488.4434 L83,488.4434 L83,497.7344 L73,507.7344 L10,507.7344 L10,488.4434 " fill="#EEEEEE" style="stroke:#000000;stroke-width:1.5;"/><rect fill="none" height="99.1641" style="stroke:#000000;stroke-width:1.5;" width="532" x="10" y="488.4434"/><text fill="#000000" font-family="sans-serif" font-size="13" font-weight="bold" lengthAdjust="spacing" textLength="28" x="25" y="503.4717">loop</text><text fill="#000000" font-family="sans-serif" font-size="11" font-weight="bold" lengthAdjust="spacing" textLength="174" x="98" y="502.3135">[while user wants to add skills]</text><polygon fill="#181818" points="112,544.3164,102,548.3164,112,552.3164,108,548.3164" style="stroke:#181818;stroke-width:1.0;"/><line style="stroke:#181818;stroke-width:1.0;stroke-dasharray:2.0,2.0;" x1="106" x2="486" y1="548.3164" y2="548.3164"/><text fill="#000000" font-family="sans-serif" font-size="13" font-weight="bold" lengthAdjust="spacing" textLength="14" x="118" y="534.4082">13</text><text fill="#000000" font-family="sans-serif" font-size="13" lengthAdjust="spacing" textLength="342" x="136" y="525.7627">shows skill category list that the collaborator does not have</text><text fill="#000000" font-family="sans-serif" font-size="13" lengthAdjust="spacing" textLength="132" x="136" y="543.0537">and asks to select one</text><polygon fill="#181818" points="475,575.6074,485,579.6074,475,583.6074,479,579.6074" style="stroke:#181818;stroke-width:1.0;"/><line style="stroke:#181818;stroke-width:1.0;" x1="101" x2="481" y1="579.6074" y2="579.6074"/><text fill="#000000" font-family="sans-serif" font-size="13" font-weight="bold" lengthAdjust="spacing" textLength="14" x="108" y="574.3447">14</text><text fill="#000000" font-family="sans-serif" font-size="13" lengthAdjust="spacing" textLength="136" x="126" y="574.3447">selects a task category</text><polygon fill="#181818" points="112,631.1895,102,635.1895,112,639.1895,108,635.1895" style="stroke:#181818;stroke-width:1.0;"/><line style="stroke:#181818;stroke-width:1.0;stroke-dasharray:2.0,2.0;" x1="106" x2="491" y1="635.1895" y2="635.1895"/><text fill="#000000" font-family="sans-serif" font-size="13" font-weight="bold" lengthAdjust="spacing" textLength="14" x="118" y="621.2813">15</text><text fill="#000000" font-family="sans-serif" font-size="13" lengthAdjust="spacing" textLength="220" x="136" y="612.6357">shows selected skills and collaborator</text><text fill="#000000" font-family="sans-serif" font-size="13" lengthAdjust="spacing" textLength="145" x="136" y="629.9268">and asks for confirmation</text><polygon fill="#181818" points="475,662.4805,485,666.4805,475,670.4805,479,666.4805" style="stroke:#181818;stroke-width:1.0;"/><line style="stroke:#181818;stroke-width:1.0;" x1="101" x2="481" y1="666.4805" y2="666.4805"/><text fill="#000000" font-family="sans-serif" font-size="13" font-weight="bold" lengthAdjust="spacing" textLength="14" x="108" y="661.2178">16</text><text fill="#000000" font-family="sans-serif" font-size="13" lengthAdjust="spacing" textLength="78" x="126" y="661.2178">confirms data</text><polygon fill="#181818" points="728,693.7715,738,697.7715,728,701.7715,732,697.7715" style="stroke:#181818;stroke-width:1.0;"/><line style="stroke:#181818;stroke-width:1.0;" x1="497" x2="734" y1="697.7715" y2="697.7715"/><text fill="#000000" font-family="sans-serif" font-size="13" font-weight="bold" lengthAdjust="spacing" textLength="14" x="504" y="692.5088">17</text><text fill="#000000" font-family="sans-serif" font-size="13" lengthAdjust="spacing" textLength="206" x="522" y="692.5088">addSkillToCollaborator(email, skills)</text><line style="stroke:#181818;stroke-width:1.0;" x1="750" x2="792" y1="729.0625" y2="729.0625"/><line style="stroke:#181818;stroke-width:1.0;" x1="792" x2="792" y1="729.0625" y2="742.0625"/><line style="stroke:#181818;stroke-width:1.0;" x1="751" x2="792" y1="742.0625" y2="742.0625"/><polygon fill="#181818" points="761,738.0625,751,742.0625,761,746.0625,757,742.0625" style="stroke:#181818;stroke-width:1.0;"/><text fill="#000000" font-family="sans-serif" font-size="13" font-weight="bold" lengthAdjust="spacing" textLength="14" x="757" y="723.7998">18</text><text fill="#000000" font-family="sans-serif" font-size="13" lengthAdjust="spacing" textLength="161" x="775" y="723.7998">getEmployeeFromSession()</text><polygon fill="#181818" points="1286,769.3535,1296,773.3535,1286,777.3535,1290,773.3535" style="stroke:#181818;stroke-width:1.0;"/><line style="stroke:#181818;stroke-width:1.0;" x1="750" x2="1292" y1="773.3535" y2="773.3535"/><text fill="#000000" font-family="sans-serif" font-size="13" font-weight="bold" lengthAdjust="spacing" textLength="14" x="757" y="768.0908">19</text><text fill="#000000" font-family="sans-serif" font-size="13" lengthAdjust="spacing" textLength="75" x="775" y="768.0908">getInstance()</text><polygon fill="#181818" points="761,800.6445,751,804.6445,761,808.6445,757,804.6445" style="stroke:#181818;stroke-width:1.0;"/><line style="stroke:#181818;stroke-width:1.0;" x1="755" x2="1302" y1="804.6445" y2="804.6445"/><text fill="#000000" font-family="sans-serif" font-size="13" font-weight="bold" lengthAdjust="spacing" textLength="14" x="767" y="799.3818">20</text><text fill="#000000" font-family="sans-serif" font-size="13" lengthAdjust="spacing" textLength="68" x="785" y="799.3818">appSession</text><polygon fill="#181818" points="1433,831.9355,1443,835.9355,1433,839.9355,1437,835.9355" style="stroke:#181818;stroke-width:1.0;"/><line style="stroke:#181818;stroke-width:1.0;" x1="750" x2="1439" y1="835.9355" y2="835.9355"/><text fill="#000000" font-family="sans-serif" font-size="13" font-weight="bold" lengthAdjust="spacing" textLength="14" x="757" y="830.6729">21</text><text fill="#000000" font-family="sans-serif" font-size="13" lengthAdjust="spacing" textLength="115" x="775" y="830.6729">getCurrentSession()</text><polygon fill="#181818" points="761,863.2266,751,867.2266,761,871.2266,757,867.2266" style="stroke:#181818;stroke-width:1.0;"/><line style="stroke:#181818;stroke-width:1.0;stroke-dasharray:2.0,2.0;" x1="755" x2="1449" y1="867.2266" y2="867.2266"/><text fill="#000000" font-family="sans-serif" font-size="13" font-weight="bold" lengthAdjust="spacing" textLength="14" x="767" y="861.9639">22</text><text fill="#000000" font-family="sans-serif" font-size="13" lengthAdjust="spacing" textLength="87" x="785" y="861.9639">currentSession</text><polygon fill="#181818" points="1566,894.5176,1576,898.5176,1566,902.5176,1570,898.5176" style="stroke:#181818;stroke-width:1.0;"/><line style="stroke:#181818;stroke-width:1.0;" x1="750" x2="1572" y1="898.5176" y2="898.5176"/><text fill="#000000" font-family="sans-serif" font-size="13" font-weight="bold" lengthAdjust="spacing" textLength="14" x="757" y="893.2549">23</text><text fill="#000000" font-family="sans-serif" font-size="13" lengthAdjust="spacing" textLength="133" x="775" y="893.2549">email = getUserEmail()</text><polygon fill="#181818" points="761,925.8086,751,929.8086,761,933.8086,757,929.8086" style="stroke:#181818;stroke-width:1.0;"/><line style="stroke:#181818;stroke-width:1.0;stroke-dasharray:2.0,2.0;" x1="755" x2="1582" y1="929.8086" y2="929.8086"/><text fill="#000000" font-family="sans-serif" font-size="13" font-weight="bold" lengthAdjust="spacing" textLength="14" x="767" y="924.5459">24</text><text fill="#000000" font-family="sans-serif" font-size="13" lengthAdjust="spacing" textLength="31" x="785" y="924.5459">email</text><polygon fill="#181818" points="1038,957.0996,1048,961.0996,1038,965.0996,1042,961.0996" style="stroke:#181818;stroke-width:1.0;"/><line style="stroke:#181818;stroke-width:1.0;" x1="750" x2="1044" y1="961.0996" y2="961.0996"/><text fill="#000000" font-family="sans-serif" font-size="13" font-weight="bold" lengthAdjust="spacing" textLength="14" x="757" y="955.8369">25</text><text fill="#000000" font-family="sans-serif" font-size="13" lengthAdjust="spacing" textLength="192" x="775" y="955.8369">getOrganizationRepository(email)</text><polygon fill="#181818" points="761,988.3906,751,992.3906,761,996.3906,757,992.3906" style="stroke:#181818;stroke-width:1.0;"/><line style="stroke:#181818;stroke-width:1.0;stroke-dasharray:2.0,2.0;" x1="755" x2="1054" y1="992.3906" y2="992.3906"/><text fill="#000000" font-family="sans-serif" font-size="13" font-weight="bold" lengthAdjust="spacing" textLength="14" x="767" y="987.1279">26</text><text fill="#000000" font-family="sans-serif" font-size="13" lengthAdjust="spacing" textLength="132" x="785" y="987.1279">organizationRepository</text><polygon fill="#181818" points="1712,1019.6816,1722,1023.6816,1712,1027.6816,1716,1023.6816" style="stroke:#181818;stroke-width:1.0;"/><line style="stroke:#181818;stroke-width:1.0;" x1="750" x2="1718" y1="1023.6816" y2="1023.6816"/><text fill="#000000" font-family="sans-serif" font-size="13" font-weight="bold" lengthAdjust="spacing" textLength="14" x="757" y="1018.4189">27</text><text fill="#000000" font-family="sans-serif" font-size="13" lengthAdjust="spacing" textLength="237" x="775" y="1018.4189">getOrganizationByEmployeeEmail(email)</text><path d="M1637.5,1038.6816 L1710.5,1038.6816 L1710.5,1047.9727 L1700.5,1057.9727 L1637.5,1057.9727 L1637.5,1038.6816 " fill="#EEEEEE" style="stroke:#000000;stroke-width:1.5;"/><rect fill="none" height="81.873" style="stroke:#000000;stroke-width:1.5;" width="371.5" x="1637.5" y="1038.6816"/><text fill="#000000" font-family="sans-serif" font-size="13" font-weight="bold" lengthAdjust="spacing" textLength="28" x="1652.5" y="1053.71">loop</text><text fill="#000000" font-family="sans-serif" font-size="11" font-weight="bold" lengthAdjust="spacing" textLength="128" x="1725.5" y="1052.5518">[[for each organization]</text><polygon fill="#181818" points="1933,1077.2637,1943,1081.2637,1933,1085.2637,1937,1081.2637" style="stroke:#181818;stroke-width:1.0;"/><line style="stroke:#181818;stroke-width:1.0;" x1="1734" x2="1939" y1="1081.2637" y2="1081.2637"/><text fill="#000000" font-family="sans-serif" font-size="13" font-weight="bold" lengthAdjust="spacing" textLength="14" x="1741" y="1076.001">28</text><text fill="#000000" font-family="sans-serif" font-size="13" lengthAdjust="spacing" textLength="174" x="1759" y="1076.001">anyEmployeeHasEmail(email)</text><polygon fill="#181818" points="1745,1108.5547,1735,1112.5547,1745,1116.5547,1741,1112.5547" style="stroke:#181818;stroke-width:1.0;"/><line style="stroke:#181818;stroke-width:1.0;stroke-dasharray:2.0,2.0;" x1="1739" x2="1949" y1="1112.5547" y2="1112.5547"/><text fill="#000000" font-family="sans-serif" font-size="13" font-weight="bold" lengthAdjust="spacing" textLength="14" x="1751" y="1107.292">29</text><text fill="#000000" font-family="sans-serif" font-size="13" lengthAdjust="spacing" textLength="53" x="1769" y="1107.292">true/false</text><polygon fill="#181818" points="761,1146.8457,751,1150.8457,761,1154.8457,757,1150.8457" style="stroke:#181818;stroke-width:1.0;"/><line style="stroke:#181818;stroke-width:1.0;stroke-dasharray:2.0,2.0;" x1="755" x2="1728" y1="1150.8457" y2="1150.8457"/><text fill="#000000" font-family="sans-serif" font-size="13" font-weight="bold" lengthAdjust="spacing" textLength="14" x="767" y="1145.583">30</text><text fill="#000000" font-family="sans-serif" font-size="13" lengthAdjust="spacing" textLength="70" x="785" y="1145.583">organization</text><polygon fill="#181818" points="1933,1178.1367,1943,1182.1367,1933,1186.1367,1937,1182.1367" style="stroke:#181818;stroke-width:1.0;"/><line style="stroke:#181818;stroke-width:1.0;" x1="750" x2="1939" y1="1182.1367" y2="1182.1367"/><text fill="#000000" font-family="sans-serif" font-size="13" font-weight="bold" lengthAdjust="spacing" textLength="14" x="757" y="1176.874">31</text><text fill="#000000" font-family="sans-serif" font-size="13" lengthAdjust="spacing" textLength="164" x="775" y="1176.874">getEmployeeByEmail(email)</text><polygon fill="#181818" points="761,1209.4277,751,1213.4277,761,1217.4277,757,1213.4277" style="stroke:#181818;stroke-width:1.0;"/><line style="stroke:#181818;stroke-width:1.0;stroke-dasharray:2.0,2.0;" x1="755" x2="1949" y1="1213.4277" y2="1213.4277"/><text fill="#000000" font-family="sans-serif" font-size="13" font-weight="bold" lengthAdjust="spacing" textLength="14" x="767" y="1208.165">32</text><text fill="#000000" font-family="sans-serif" font-size="13" lengthAdjust="spacing" textLength="56" x="785" y="1208.165">employee</text><line style="stroke:#181818;stroke-width:1.0;stroke-dasharray:2.0,2.0;" x1="750" x2="792" y1="1244.7188" y2="1244.7188"/><line style="stroke:#181818;stroke-width:1.0;stroke-dasharray:2.0,2.0;" x1="792" x2="792" y1="1244.7188" y2="1257.7188"/><line style="stroke:#181818;stroke-width:1.0;stroke-dasharray:2.0,2.0;" x1="751" x2="792" y1="1257.7188" y2="1257.7188"/><polygon fill="#181818" points="761,1253.7188,751,1257.7188,761,1261.7188,757,1257.7188" style="stroke:#181818;stroke-width:1.0;"/><text fill="#000000" font-family="sans-serif" font-size="13" font-weight="bold" lengthAdjust="spacing" textLength="14" x="757" y="1239.4561">33</text><text fill="#000000" font-family="sans-serif" font-size="13" lengthAdjust="spacing" textLength="56" x="775" y="1239.4561">employee</text><polygon fill="#181818" points="1933,1310.0098,1943,1314.0098,1933,1318.0098,1937,1314.0098" style="stroke:#181818;stroke-width:1.0;"/><line style="stroke:#181818;stroke-width:1.0;" x1="750" x2="1939" y1="1314.0098" y2="1314.0098"/><text fill="#000000" font-family="sans-serif" font-size="13" font-weight="bold" lengthAdjust="spacing" textLength="14" x="757" y="1308.7471">34</text><text fill="#000000" font-family="sans-serif" font-size="13" lengthAdjust="spacing" textLength="148" x="775" y="1308.7471">addSkill(employee, skills)</text><polygon fill="#181818" points="2229,1341.3008,2239,1345.3008,2229,1349.3008,2233,1345.3008" style="stroke:#181818;stroke-width:1.0;"/><line style="stroke:#181818;stroke-width:1.0;" x1="1955" x2="2235" y1="1345.3008" y2="1345.3008"/><text fill="#000000" font-family="sans-serif" font-size="13" font-weight="bold" lengthAdjust="spacing" textLength="14" x="1962" y="1340.0381">35</text><text fill="#000000" font-family="sans-serif" font-size="13" lengthAdjust="spacing" textLength="249" x="1980" y="1340.0381">addSkillsToCollaborator(skills, collaborator)</text><path d="M2210.5,1360.3008 L2283.5,1360.3008 L2283.5,1369.5918 L2273.5,1379.5918 L2210.5,1379.5918 L2210.5,1360.3008 " fill="#EEEEEE" style="stroke:#000000;stroke-width:1.5;"/><rect fill="none" height="50.582" style="stroke:#000000;stroke-width:1.5;" width="276" x="2210.5" y="1360.3008"/><text fill="#000000" font-family="sans-serif" font-size="13" font-weight="bold" lengthAdjust="spacing" textLength="28" x="2225.5" y="1375.3291">loop</text><text fill="#000000" font-family="sans-serif" font-size="11" font-weight="bold" lengthAdjust="spacing" textLength="125" x="2298.5" y="1374.1709">[for each skill in Skills]</text><polygon fill="#181818" points="2422,1398.8828,2432,1402.8828,2422,1406.8828,2426,1402.8828" style="stroke:#181818;stroke-width:1.0;"/><line style="stroke:#181818;stroke-width:1.0;" x1="2251" x2="2428" y1="1402.8828" y2="1402.8828"/><text fill="#000000" font-family="sans-serif" font-size="13" font-weight="bold" lengthAdjust="spacing" textLength="14" x="2258" y="1397.6201">36</text><text fill="#000000" font-family="sans-serif" font-size="13" lengthAdjust="spacing" textLength="141" x="2276" y="1397.6201">addSkill(skill, employee)</text><polygon fill="#181818" points="2262,1437.1738,2252,1441.1738,2262,1445.1738,2258,1441.1738" style="stroke:#181818;stroke-width:1.0;"/><line style="stroke:#181818;stroke-width:1.0;stroke-dasharray:2.0,2.0;" x1="2256" x2="2438" y1="1441.1738" y2="1441.1738"/><text fill="#000000" font-family="sans-serif" font-size="13" font-weight="bold" lengthAdjust="spacing" textLength="14" x="2268" y="1435.9111">37</text><text fill="#000000" font-family="sans-serif" font-size="13" lengthAdjust="spacing" textLength="94" x="2286" y="1435.9111">updated skill list</text><polygon fill="#181818" points="1966,1468.4648,1956,1472.4648,1966,1476.4648,1962,1472.4648" style="stroke:#181818;stroke-width:1.0;"/><line style="stroke:#181818;stroke-width:1.0;" x1="1960" x2="2245" y1="1472.4648" y2="1472.4648"/><text fill="#000000" font-family="sans-serif" font-size="13" font-weight="bold" lengthAdjust="spacing" textLength="14" x="1972" y="1467.2021">38</text><text fill="#000000" font-family="sans-serif" font-size="13" lengthAdjust="spacing" textLength="94" x="1990" y="1467.2021">updated skill list</text><polygon fill="#181818" points="756,1499.7559,746,1503.7559,756,1507.7559,752,1503.7559" style="stroke:#181818;stroke-width:1.0;"/><line style="stroke:#181818;stroke-width:1.0;" x1="750" x2="1949" y1="1503.7559" y2="1503.7559"/><text fill="#000000" font-family="sans-serif" font-size="13" font-weight="bold" lengthAdjust="spacing" textLength="14" x="762" y="1498.4932">39</text><text fill="#000000" font-family="sans-serif" font-size="13" lengthAdjust="spacing" textLength="94" x="780" y="1498.4932">updated skill list</text><polygon fill="#181818" points="508,1531.0469,498,1535.0469,508,1539.0469,504,1535.0469" style="stroke:#181818;stroke-width:1.0;"/><line style="stroke:#181818;stroke-width:1.0;stroke-dasharray:2.0,2.0;" x1="502" x2="744" y1="1535.0469" y2="1535.0469"/><text fill="#000000" font-family="sans-serif" font-size="13" font-weight="bold" lengthAdjust="spacing" textLength="14" x="514" y="1529.7842">40</text><text fill="#000000" font-family="sans-serif" font-size="13" lengthAdjust="spacing" textLength="94" x="532" y="1529.7842">updated skill list</text><polygon fill="#181818" points="107,1562.3379,97,1566.3379,107,1570.3379,103,1566.3379" style="stroke:#181818;stroke-width:1.0;"/><line style="stroke:#181818;stroke-width:1.0;stroke-dasharray:2.0,2.0;" x1="101" x2="491" y1="1566.3379" y2="1566.3379"/><text fill="#000000" font-family="sans-serif" font-size="13" font-weight="bold" lengthAdjust="spacing" textLength="14" x="113" y="1561.0752">41</text><text fill="#000000" font-family="sans-serif" font-size="13" lengthAdjust="spacing" textLength="281" x="131" y="1561.0752">displays operation success and updated skill list</text><!--SRC=[hLTBR-Cs4BxpLmnoIRAmiNS3NS1DqsnG5mdivBG12aQYRI8ogOhqfYxoupiSlKYPb1sWEkp6cfcFtmpd9VCcLSahleETLZhRLdedm5PxmKmdANdsnZTYPG-5W4fabgjDuIkOBS_rkrGRMFF22CRutcgrtxsAYh7BhSm5hBMsh_eVnZEhAxXug3PSoN-vbLh1xQuiz4682-06vh_zoH3LoaoMN5cucCtpVFKcY-BvdXIUxnFo6wrifOj2LAHtyxHS33INejH68W4f3EbqBmuhwNn2rg59vLcyg6E0nyNyARGWAZtkx4KDtf3TuDtGex8iP4R1MGbZy3yo-cl- -1Xgyh9i591Smkh8ADjNbL2sDtmsel8jLhUhrVmXDDBUXGNUFKG5X1CNfN6HYczIOopl67DP8tzoAoWx63GF_e3fDqm8cA7gcm6hWUSvS30klFGJCim8_gehZcVtfXqWPXEx1Ez1j2c2EkmP9llVUs6iWPnR3bULM0iCNIOca0kJLR9qF2S0KgrrjUC5lAXGOaMsLNWfHVWwtrUy_YlJnbupdy1bLWd7ZF9toEmRlVxo1RdLQYoXWWeROIdD5jBOg_2Cpdqw912HCO94IgF6l5S66q0cKf2ncWeqtHD3dpRKNTZxCZiopSNdZceTSgNgHQMt7JWIE4FrVIHs3y7rb8S5FS8wZjdI701vZCqOqU7vKSv3x6cVB5scZ34_vMJjGrkISKWFha- -e1oZbMYs-jr0WMYWrq5H6-0gxolL5rqQ43ik2pOuk3t5Ro3sK0hJmeYyCIIrGkiIthSIfzyUMoMyO-VgcWsr6ZD6kcv6s9Z5nWMTVB1RxluH0Lt8DL9GsiAM_nGloldLzZKZ2Xoye9M8jhzQZA40YnRTOQGh4CQvyBbGruYYTP22x9Frw67lGv5QIso1hgkT4-v6l-wiuyIw7ENDe7_IDnwHAxgfISFpcdsYn_MDibr1ViVzfnc5M6t98dMJUAmP1kVJs8wLenD0rq7wMJvMWWIM9jRokWbc_1Wxmekn8t8Tkt1f66CO1Uow6wqMixgwu1T7rMqVj-xdQ7khLv9uLoEPnxMl-LGVQz16PmN5CRx2r2dtVuoD-5frUdeacSS97_doww7D-3hqfnnAh79H5wbT_d1D0Lbl0nUZ-kw9uvD3opjN-geZ_9sRKSx7tDqA2MEFEsEQ39uR3lX1zBN-jabXU5Va3eofO2Dcdt6-xr2ZCVHFFlEQkcnPtWNjpwN5MUcG2caRoOQtQ73PYMYbDuaXKA3vyV71acwrq-AgjJqU4QTz8d-mRVrnlrZqa6OmWMhSIJ0V8zEZxpyEZeqcRJ9oNOLr1LRl5rBL2vT9PYYTwhnfiRqO4SQaarmdypSkQCpenffOxKkSxEtwG4iFEr4syJiEcDF5de7iztgATUfYwouSGHpVMNjnZFzvBCPAm5kaJ_ex91V_c9r1BarPy8C1NOhwwnFCFijmeDDkbpXbiCRvSnu_nVy3]--></g></svg>