<?xml version="1.0" encoding="us-ascii" standalone="no"?><svg xmlns="http://www.w3.org/2000/svg" xmlns:xlink="http://www.w3.org/1999/xlink" contentStyleType="text/css" height="394px" preserveAspectRatio="none" style="width:1174px;height:394px;background:#FFFFFF;" version="1.1" viewBox="0 0 1174 394" width="1174px" zoomAndPan="magnify"><defs/><g><!--class Skill--><g id="elem_Skill"><rect codeLine="12" fill="#F1F1F1" height="122.4844" id="Skill" rx="2.5" ry="2.5" style="stroke:#181818;stroke-width:0.5;" width="443" x="541.5" y="265"/><ellipse cx="746.25" cy="281" fill="#ADD1B2" rx="11" ry="11" style="stroke:#181818;stroke-width:1.0;"/><path d="M749.0156,276.875 Q749.1719,276.6563 749.3594,276.5469 Q749.5469,276.4375 749.7656,276.4375 Q750.1406,276.4375 750.375,276.7031 Q750.6094,276.9531 750.6094,277.5625 L750.6094,279.0156 Q750.6094,279.625 750.375,279.8906 Q750.1406,280.1563 749.7656,280.1563 Q749.4219,280.1563 749.2188,279.9531 Q749.0156,279.7656 748.9063,279.25 Q748.8594,278.8906 748.6719,278.7031 Q748.3438,278.3281 747.7344,278.1094 Q747.125,277.8906 746.5,277.8906 Q745.7344,277.8906 745.0938,278.2188 Q744.4688,278.5469 743.9688,279.2969 Q743.4844,280.0469 743.4844,281.0781 L743.4844,282.1719 Q743.4844,283.4063 744.375,284.2344 Q745.2656,285.0469 746.8594,285.0469 Q747.7969,285.0469 748.4531,284.7969 Q748.8438,284.6406 749.2656,284.2031 Q749.5313,283.9375 749.6719,283.8594 Q749.8281,283.7813 750.0313,283.7813 Q750.3594,283.7813 750.6094,284.0469 Q750.875,284.2969 750.875,284.6406 Q750.875,284.9844 750.5313,285.3906 Q750.0313,285.9688 749.2344,286.2969 Q748.1563,286.75 746.8594,286.75 Q745.3438,286.75 744.1406,286.125 Q743.1563,285.625 742.4688,284.5625 Q741.7813,283.4844 741.7813,282.2031 L741.7813,281.0469 Q741.7813,279.7188 742.3906,278.5781 Q743.0156,277.4219 744.1094,276.8125 Q745.2031,276.1875 746.4375,276.1875 Q747.1719,276.1875 747.8125,276.3594 Q748.4688,276.5156 749.0156,276.875 Z " fill="#000000"/><text fill="#000000" font-family="sans-serif" font-size="14" lengthAdjust="spacing" textLength="25" x="766.75" y="286.7969">Skill</text><line style="stroke:#181818;stroke-width:0.5;" x1="542.5" x2="983.5" y1="297" y2="297"/><text fill="#000000" font-family="sans-serif" font-size="14" lengthAdjust="spacing" textLength="81" x="547.5" y="316.1074">-String name</text><text fill="#000000" font-family="sans-serif" font-size="14" lengthAdjust="spacing" textLength="167" x="547.5" y="334.7285">-String informalDescription</text><text fill="#000000" font-family="sans-serif" font-size="14" lengthAdjust="spacing" textLength="173" x="547.5" y="353.3496">-String technicalDescription</text><line style="stroke:#181818;stroke-width:0.5;" x1="542.5" x2="983.5" y1="360.8633" y2="360.8633"/><text fill="#000000" font-family="sans-serif" font-size="14" lengthAdjust="spacing" textLength="431" x="547.5" y="379.9707">+Skill(name, skillCategory, informalDescription, technicalDescription)</text></g><!--class SkillController--><g id="elem_SkillController"><rect codeLine="21" fill="#F1F1F1" height="85.2422" id="SkillController" rx="2.5" ry="2.5" style="stroke:#181818;stroke-width:0.5;" width="267" x="26.5" y="283.5"/><ellipse cx="112.25" cy="299.5" fill="#ADD1B2" rx="11" ry="11" style="stroke:#181818;stroke-width:1.0;"/><path d="M115.0156,295.375 Q115.1719,295.1563 115.3594,295.0469 Q115.5469,294.9375 115.7656,294.9375 Q116.1406,294.9375 116.375,295.2031 Q116.6094,295.4531 116.6094,296.0625 L116.6094,297.5156 Q116.6094,298.125 116.375,298.3906 Q116.1406,298.6563 115.7656,298.6563 Q115.4219,298.6563 115.2188,298.4531 Q115.0156,298.2656 114.9063,297.75 Q114.8594,297.3906 114.6719,297.2031 Q114.3438,296.8281 113.7344,296.6094 Q113.125,296.3906 112.5,296.3906 Q111.7344,296.3906 111.0938,296.7188 Q110.4688,297.0469 109.9688,297.7969 Q109.4844,298.5469 109.4844,299.5781 L109.4844,300.6719 Q109.4844,301.9063 110.375,302.7344 Q111.2656,303.5469 112.8594,303.5469 Q113.7969,303.5469 114.4531,303.2969 Q114.8438,303.1406 115.2656,302.7031 Q115.5313,302.4375 115.6719,302.3594 Q115.8281,302.2813 116.0313,302.2813 Q116.3594,302.2813 116.6094,302.5469 Q116.875,302.7969 116.875,303.1406 Q116.875,303.4844 116.5313,303.8906 Q116.0313,304.4688 115.2344,304.7969 Q114.1563,305.25 112.8594,305.25 Q111.3438,305.25 110.1406,304.625 Q109.1563,304.125 108.4688,303.0625 Q107.7813,301.9844 107.7813,300.7031 L107.7813,299.5469 Q107.7813,298.2188 108.3906,297.0781 Q109.0156,295.9219 110.1094,295.3125 Q111.2031,294.6875 112.4375,294.6875 Q113.1719,294.6875 113.8125,294.8594 Q114.4688,295.0156 115.0156,295.375 Z " fill="#000000"/><text fill="#000000" font-family="sans-serif" font-size="14" lengthAdjust="spacing" textLength="87" x="132.75" y="305.2969">SkillController</text><line style="stroke:#181818;stroke-width:0.5;" x1="27.5" x2="292.5" y1="315.5" y2="315.5"/><line style="stroke:#181818;stroke-width:0.5;" x1="27.5" x2="292.5" y1="323.5" y2="323.5"/><text fill="#000000" font-family="sans-serif" font-size="14" lengthAdjust="spacing" textLength="85" x="32.5" y="342.6074">+getSkillList()</text><text fill="#000000" font-family="sans-serif" font-size="14" lengthAdjust="spacing" textLength="255" x="32.5" y="361.2285">+assignSkillToEmployee(skill, employee)</text></g><!--class AddSkillToACollaboratorUI--><g id="elem_AddSkillToACollaboratorUI"><rect codeLine="28" fill="#F1F1F1" height="103.8633" id="AddSkillToACollaboratorUI" rx="2.5" ry="2.5" style="stroke:#181818;stroke-width:0.5;" width="306" x="7" y="53.5"/><ellipse cx="72.75" cy="69.5" fill="#ADD1B2" rx="11" ry="11" style="stroke:#181818;stroke-width:1.0;"/><path d="M75.5156,65.375 Q75.6719,65.1563 75.8594,65.0469 Q76.0469,64.9375 76.2656,64.9375 Q76.6406,64.9375 76.875,65.2031 Q77.1094,65.4531 77.1094,66.0625 L77.1094,67.5156 Q77.1094,68.125 76.875,68.3906 Q76.6406,68.6563 76.2656,68.6563 Q75.9219,68.6563 75.7188,68.4531 Q75.5156,68.2656 75.4063,67.75 Q75.3594,67.3906 75.1719,67.2031 Q74.8438,66.8281 74.2344,66.6094 Q73.625,66.3906 73,66.3906 Q72.2344,66.3906 71.5938,66.7188 Q70.9688,67.0469 70.4688,67.7969 Q69.9844,68.5469 69.9844,69.5781 L69.9844,70.6719 Q69.9844,71.9063 70.875,72.7344 Q71.7656,73.5469 73.3594,73.5469 Q74.2969,73.5469 74.9531,73.2969 Q75.3438,73.1406 75.7656,72.7031 Q76.0313,72.4375 76.1719,72.3594 Q76.3281,72.2813 76.5313,72.2813 Q76.8594,72.2813 77.1094,72.5469 Q77.375,72.7969 77.375,73.1406 Q77.375,73.4844 77.0313,73.8906 Q76.5313,74.4688 75.7344,74.7969 Q74.6563,75.25 73.3594,75.25 Q71.8438,75.25 70.6406,74.625 Q69.6563,74.125 68.9688,73.0625 Q68.2813,71.9844 68.2813,70.7031 L68.2813,69.5469 Q68.2813,68.2188 68.8906,67.0781 Q69.5156,65.9219 70.6094,65.3125 Q71.7031,64.6875 72.9375,64.6875 Q73.6719,64.6875 74.3125,64.8594 Q74.9688,65.0156 75.5156,65.375 Z " fill="#000000"/><text fill="#000000" font-family="sans-serif" font-size="14" lengthAdjust="spacing" textLength="166" x="93.25" y="75.2969">AddSkillToACollaboratorUI</text><line style="stroke:#181818;stroke-width:0.5;" x1="8" x2="312" y1="85.5" y2="85.5"/><line style="stroke:#181818;stroke-width:0.5;" x1="8" x2="312" y1="93.5" y2="93.5"/><text fill="#000000" font-family="sans-serif" font-size="14" lengthAdjust="spacing" textLength="294" x="13" y="112.6074">+AddASkillsToACollaborator(skill, collaborator)</text><text fill="#000000" font-family="sans-serif" font-size="14" lengthAdjust="spacing" textLength="123" x="13" y="131.2285">+getCollaborators()</text><text fill="#000000" font-family="sans-serif" font-size="14" lengthAdjust="spacing" textLength="85" x="13" y="149.8496">+getSkillList()</text></g><!--class CollaboratorRepository--><g id="elem_CollaboratorRepository"><rect codeLine="35" fill="#F1F1F1" height="66.6211" id="CollaboratorRepository" rx="2.5" ry="2.5" style="stroke:#181818;stroke-width:0.5;" width="178" x="699" y="72"/><ellipse cx="714" cy="88" fill="#ADD1B2" rx="11" ry="11" style="stroke:#181818;stroke-width:1.0;"/><path d="M716.7656,83.875 Q716.9219,83.6563 717.1094,83.5469 Q717.2969,83.4375 717.5156,83.4375 Q717.8906,83.4375 718.125,83.7031 Q718.3594,83.9531 718.3594,84.5625 L718.3594,86.0156 Q718.3594,86.625 718.125,86.8906 Q717.8906,87.1563 717.5156,87.1563 Q717.1719,87.1563 716.9688,86.9531 Q716.7656,86.7656 716.6563,86.25 Q716.6094,85.8906 716.4219,85.7031 Q716.0938,85.3281 715.4844,85.1094 Q714.875,84.8906 714.25,84.8906 Q713.4844,84.8906 712.8438,85.2188 Q712.2188,85.5469 711.7188,86.2969 Q711.2344,87.0469 711.2344,88.0781 L711.2344,89.1719 Q711.2344,90.4063 712.125,91.2344 Q713.0156,92.0469 714.6094,92.0469 Q715.5469,92.0469 716.2031,91.7969 Q716.5938,91.6406 717.0156,91.2031 Q717.2813,90.9375 717.4219,90.8594 Q717.5781,90.7813 717.7813,90.7813 Q718.1094,90.7813 718.3594,91.0469 Q718.625,91.2969 718.625,91.6406 Q718.625,91.9844 718.2813,92.3906 Q717.7813,92.9688 716.9844,93.2969 Q715.9063,93.75 714.6094,93.75 Q713.0938,93.75 711.8906,93.125 Q710.9063,92.625 710.2188,91.5625 Q709.5313,90.4844 709.5313,89.2031 L709.5313,88.0469 Q709.5313,86.7188 710.1406,85.5781 Q710.7656,84.4219 711.8594,83.8125 Q712.9531,83.1875 714.1875,83.1875 Q714.9219,83.1875 715.5625,83.3594 Q716.2188,83.5156 716.7656,83.875 Z " fill="#000000"/><text fill="#000000" font-family="sans-serif" font-size="14" lengthAdjust="spacing" textLength="146" x="728" y="93.7969">CollaboratorRepository</text><line style="stroke:#181818;stroke-width:0.5;" x1="700" x2="876" y1="104" y2="104"/><line style="stroke:#181818;stroke-width:0.5;" x1="700" x2="876" y1="112" y2="112"/><text fill="#000000" font-family="sans-serif" font-size="14" lengthAdjust="spacing" textLength="123" x="705" y="131.1074">+getCollaborators()</text></g><!--class SkillRepository--><g id="elem_SkillRepository"><rect codeLine="39" fill="#F1F1F1" height="66.6211" id="SkillRepository" rx="2.5" ry="2.5" style="stroke:#181818;stroke-width:0.5;" width="125" x="328.5" y="292.5"/><ellipse cx="343.5" cy="308.5" fill="#ADD1B2" rx="11" ry="11" style="stroke:#181818;stroke-width:1.0;"/><path d="M346.2656,304.375 Q346.4219,304.1563 346.6094,304.0469 Q346.7969,303.9375 347.0156,303.9375 Q347.3906,303.9375 347.625,304.2031 Q347.8594,304.4531 347.8594,305.0625 L347.8594,306.5156 Q347.8594,307.125 347.625,307.3906 Q347.3906,307.6563 347.0156,307.6563 Q346.6719,307.6563 346.4688,307.4531 Q346.2656,307.2656 346.1563,306.75 Q346.1094,306.3906 345.9219,306.2031 Q345.5938,305.8281 344.9844,305.6094 Q344.375,305.3906 343.75,305.3906 Q342.9844,305.3906 342.3438,305.7188 Q341.7188,306.0469 341.2188,306.7969 Q340.7344,307.5469 340.7344,308.5781 L340.7344,309.6719 Q340.7344,310.9063 341.625,311.7344 Q342.5156,312.5469 344.1094,312.5469 Q345.0469,312.5469 345.7031,312.2969 Q346.0938,312.1406 346.5156,311.7031 Q346.7813,311.4375 346.9219,311.3594 Q347.0781,311.2813 347.2813,311.2813 Q347.6094,311.2813 347.8594,311.5469 Q348.125,311.7969 348.125,312.1406 Q348.125,312.4844 347.7813,312.8906 Q347.2813,313.4688 346.4844,313.7969 Q345.4063,314.25 344.1094,314.25 Q342.5938,314.25 341.3906,313.625 Q340.4063,313.125 339.7188,312.0625 Q339.0313,310.9844 339.0313,309.7031 L339.0313,308.5469 Q339.0313,307.2188 339.6406,306.0781 Q340.2656,304.9219 341.3594,304.3125 Q342.4531,303.6875 343.6875,303.6875 Q344.4219,303.6875 345.0625,303.8594 Q345.7188,304.0156 346.2656,304.375 Z " fill="#000000"/><text fill="#000000" font-family="sans-serif" font-size="14" lengthAdjust="spacing" textLength="93" x="357.5" y="314.2969">SkillRepository</text><line style="stroke:#181818;stroke-width:0.5;" x1="329.5" x2="452.5" y1="324.5" y2="324.5"/><line style="stroke:#181818;stroke-width:0.5;" x1="329.5" x2="452.5" y1="332.5" y2="332.5"/><text fill="#000000" font-family="sans-serif" font-size="14" lengthAdjust="spacing" textLength="85" x="334.5" y="351.6074">+getSkillList()</text></g><!--class Collaborators--><g id="elem_Collaborators"><rect codeLine="42" fill="#F1F1F1" height="196.9688" id="Collaborators" rx="2.5" ry="2.5" style="stroke:#181818;stroke-width:0.5;" width="203" x="964.5" y="7"/><ellipse cx="1019.25" cy="23" fill="#ADD1B2" rx="11" ry="11" style="stroke:#181818;stroke-width:1.0;"/><path d="M1022.0156,18.875 Q1022.1719,18.6563 1022.3594,18.5469 Q1022.5469,18.4375 1022.7656,18.4375 Q1023.1406,18.4375 1023.375,18.7031 Q1023.6094,18.9531 1023.6094,19.5625 L1023.6094,21.0156 Q1023.6094,21.625 1023.375,21.8906 Q1023.1406,22.1563 1022.7656,22.1563 Q1022.4219,22.1563 1022.2188,21.9531 Q1022.0156,21.7656 1021.9063,21.25 Q1021.8594,20.8906 1021.6719,20.7031 Q1021.3438,20.3281 1020.7344,20.1094 Q1020.125,19.8906 1019.5,19.8906 Q1018.7344,19.8906 1018.0938,20.2188 Q1017.4688,20.5469 1016.9688,21.2969 Q1016.4844,22.0469 1016.4844,23.0781 L1016.4844,24.1719 Q1016.4844,25.4063 1017.375,26.2344 Q1018.2656,27.0469 1019.8594,27.0469 Q1020.7969,27.0469 1021.4531,26.7969 Q1021.8438,26.6406 1022.2656,26.2031 Q1022.5313,25.9375 1022.6719,25.8594 Q1022.8281,25.7813 1023.0313,25.7813 Q1023.3594,25.7813 1023.6094,26.0469 Q1023.875,26.2969 1023.875,26.6406 Q1023.875,26.9844 1023.5313,27.3906 Q1023.0313,27.9688 1022.2344,28.2969 Q1021.1563,28.75 1019.8594,28.75 Q1018.3438,28.75 1017.1406,28.125 Q1016.1563,27.625 1015.4688,26.5625 Q1014.7813,25.4844 1014.7813,24.2031 L1014.7813,23.0469 Q1014.7813,21.7188 1015.3906,20.5781 Q1016.0156,19.4219 1017.1094,18.8125 Q1018.2031,18.1875 1019.4375,18.1875 Q1020.1719,18.1875 1020.8125,18.3594 Q1021.4688,18.5156 1022.0156,18.875 Z " fill="#000000"/><text fill="#000000" font-family="sans-serif" font-size="14" lengthAdjust="spacing" textLength="85" x="1039.75" y="28.7969">Collaborators</text><line style="stroke:#181818;stroke-width:0.5;" x1="965.5" x2="1166.5" y1="39" y2="39"/><text fill="#000000" font-family="sans-serif" font-size="14" lengthAdjust="spacing" textLength="81" x="970.5" y="58.1074">-String name</text><text fill="#000000" font-family="sans-serif" font-size="14" lengthAdjust="spacing" textLength="102" x="970.5" y="76.7285">-String birthdate</text><text fill="#000000" font-family="sans-serif" font-size="14" lengthAdjust="spacing" textLength="141" x="970.5" y="95.3496">-String admission date</text><text fill="#000000" font-family="sans-serif" font-size="14" lengthAdjust="spacing" textLength="97" x="970.5" y="113.9707">-String address</text><text fill="#000000" font-family="sans-serif" font-size="14" lengthAdjust="spacing" textLength="70" x="970.5" y="132.5918">-Int contact</text><text fill="#000000" font-family="sans-serif" font-size="14" lengthAdjust="spacing" textLength="191" x="970.5" y="151.2129">-String identification document</text><text fill="#000000" font-family="sans-serif" font-size="14" lengthAdjust="spacing" textLength="177" x="970.5" y="169.834">-String identification number</text><text fill="#000000" font-family="sans-serif" font-size="14" lengthAdjust="spacing" textLength="102" x="970.5" y="188.4551">-List&lt;Skill&gt; skills</text><line style="stroke:#181818;stroke-width:0.5;" x1="965.5" x2="1166.5" y1="195.9688" y2="195.9688"/></g><!--class CollaboratorController--><g id="elem_CollaboratorController"><rect codeLine="53" fill="#F1F1F1" height="85.2422" id="CollaboratorController" rx="2.5" ry="2.5" style="stroke:#181818;stroke-width:0.5;" width="315" x="348.5" y="63"/><ellipse cx="431.75" cy="79" fill="#ADD1B2" rx="11" ry="11" style="stroke:#181818;stroke-width:1.0;"/><path d="M434.5156,74.875 Q434.6719,74.6563 434.8594,74.5469 Q435.0469,74.4375 435.2656,74.4375 Q435.6406,74.4375 435.875,74.7031 Q436.1094,74.9531 436.1094,75.5625 L436.1094,77.0156 Q436.1094,77.625 435.875,77.8906 Q435.6406,78.1563 435.2656,78.1563 Q434.9219,78.1563 434.7188,77.9531 Q434.5156,77.7656 434.4063,77.25 Q434.3594,76.8906 434.1719,76.7031 Q433.8438,76.3281 433.2344,76.1094 Q432.625,75.8906 432,75.8906 Q431.2344,75.8906 430.5938,76.2188 Q429.9688,76.5469 429.4688,77.2969 Q428.9844,78.0469 428.9844,79.0781 L428.9844,80.1719 Q428.9844,81.4063 429.875,82.2344 Q430.7656,83.0469 432.3594,83.0469 Q433.2969,83.0469 433.9531,82.7969 Q434.3438,82.6406 434.7656,82.2031 Q435.0313,81.9375 435.1719,81.8594 Q435.3281,81.7813 435.5313,81.7813 Q435.8594,81.7813 436.1094,82.0469 Q436.375,82.2969 436.375,82.6406 Q436.375,82.9844 436.0313,83.3906 Q435.5313,83.9688 434.7344,84.2969 Q433.6563,84.75 432.3594,84.75 Q430.8438,84.75 429.6406,84.125 Q428.6563,83.625 427.9688,82.5625 Q427.2813,81.4844 427.2813,80.2031 L427.2813,79.0469 Q427.2813,77.7188 427.8906,76.5781 Q428.5156,75.4219 429.6094,74.8125 Q430.7031,74.1875 431.9375,74.1875 Q432.6719,74.1875 433.3125,74.3594 Q433.9688,74.5156 434.5156,74.875 Z " fill="#000000"/><text fill="#000000" font-family="sans-serif" font-size="14" lengthAdjust="spacing" textLength="140" x="452.25" y="84.7969">CollaboratorController</text><line style="stroke:#181818;stroke-width:0.5;" x1="349.5" x2="662.5" y1="95" y2="95"/><line style="stroke:#181818;stroke-width:0.5;" x1="349.5" x2="662.5" y1="103" y2="103"/><text fill="#000000" font-family="sans-serif" font-size="14" lengthAdjust="spacing" textLength="248" x="354.5" y="122.1074">+getCollaboratorByEmail(collaborators)</text><text fill="#000000" font-family="sans-serif" font-size="14" lengthAdjust="spacing" textLength="303" x="354.5" y="140.7285">+AddASkillsToACollaborator(Skills, collaborator)</text></g><!--link AddSkillToACollaboratorUI to SkillController--><g id="link_AddSkillToACollaboratorUI_SkillController"><path codeLine="58" d="M160,157.73 C160,195.95 160,241.51 160,277.24 " fill="none" id="AddSkillToACollaboratorUI-to-SkillController" style="stroke:#181818;stroke-width:1.0;"/><polygon fill="#181818" points="160,283.24,164,274.24,160,278.24,156,274.24,160,283.24" style="stroke:#181818;stroke-width:1.0;"/></g><!--link SkillController to SkillRepository--><g id="link_SkillController_SkillRepository"><path codeLine="59" d="M293.77,326 C305.31,326 314,326 314,326 C314,326 313.92,326 322.48,326 " fill="none" id="SkillController-to-SkillRepository" style="stroke:#181818;stroke-width:1.0;"/><polygon fill="#181818" points="328.48,326,319.48,322,323.48,326,319.48,330,328.48,326" style="stroke:#181818;stroke-width:1.0;"/></g><!--link AddSkillToACollaboratorUI to CollaboratorController--><g id="link_AddSkillToACollaboratorUI_CollaboratorController"><path codeLine="60" d="M313.1,105.5 C324.4,105.5 330.86,105.5 342.43,105.5 " fill="none" id="AddSkillToACollaboratorUI-to-CollaboratorController" style="stroke:#181818;stroke-width:1.0;"/><polygon fill="#181818" points="348.43,105.5,339.43,101.5,343.43,105.5,339.43,109.5,348.43,105.5" style="stroke:#181818;stroke-width:1.0;"/></g><!--link CollaboratorController to CollaboratorRepository--><g id="link_CollaboratorController_CollaboratorRepository"><path codeLine="61" d="M663.74,105.5 C680.5,105.5 694,105.5 694,105.5 C694,105.5 689.76,105.5 692.79,105.5 " fill="none" id="CollaboratorController-to-CollaboratorRepository" style="stroke:#181818;stroke-width:1.0;"/><polygon fill="#181818" points="698.79,105.5,689.79,101.5,693.79,105.5,689.79,109.5,698.79,105.5" style="stroke:#181818;stroke-width:1.0;"/></g><!--link CollaboratorRepository to Collaborators--><g id="link_CollaboratorRepository_Collaborators"><path codeLine="62" d="M877.11,105.5 C904.9,105.5 929.76,105.5 958.35,105.5 " fill="none" id="CollaboratorRepository-to-Collaborators" style="stroke:#181818;stroke-width:1.0;"/><polygon fill="#181818" points="964.35,105.5,955.35,101.5,959.35,105.5,955.35,109.5,964.35,105.5" style="stroke:#181818;stroke-width:1.0;"/><text fill="#000000" font-family="sans-serif" font-size="13" lengthAdjust="spacing" textLength="51" x="895.25" y="98.5283">Contains</text><text fill="#000000" font-family="sans-serif" font-size="13" lengthAdjust="spacing" textLength="7" x="885.0687" y="101.8266">1</text><text fill="#000000" font-family="sans-serif" font-size="13" lengthAdjust="spacing" textLength="19" x="937.5348" y="120.1373">0...</text></g><!--link SkillRepository to Skill--><g id="link_SkillRepository_Skill"><path codeLine="63" d="M453.68,326 C478.74,326 503.23,326 535.18,326 " fill="none" id="SkillRepository-to-Skill" style="stroke:#181818;stroke-width:1.0;"/><polygon fill="#181818" points="541.18,326,532.18,322,536.18,326,532.18,330,541.18,326" style="stroke:#181818;stroke-width:1.0;"/><text fill="#000000" font-family="sans-serif" font-size="13" lengthAdjust="spacing" textLength="51" x="472" y="319.0283">Contains</text><text fill="#000000" font-family="sans-serif" font-size="13" lengthAdjust="spacing" textLength="7" x="461.3321" y="322.0842">1</text><text fill="#000000" font-family="sans-serif" font-size="13" lengthAdjust="spacing" textLength="19" x="514.5898" y="340.3041">0...</text></g><!--SRC=[XLH1Zjim3Bph5K8kiR59iBqMHO0qtKE0dfhs0OhCs4GaqP0O5EwYVwyiEutjTNPzaeR3uOWal0mNTBNooafBZdJboO9aVmLnZzHANrG9HsuCI0-QbIlDa10gLT1lTAKyAnE64OCEkAb1rcIQzYAMCq7oJ6AGfOqAOSViyNHbE6XoH_m3ybc8fO4pIoRfiQnO5jZQGN92Y9GaZnSqHhuA6R-rF4Q9wCef2sC4tPcyLUOR1EsnJX8Z0eEk7EenGoJEKrSaQrLNChJdlM8eoJUhEU7Lh5Wk_euyxycn9sF0z-wVP0cSGjynS9RtO4p0qYNy9xtOsb03a2KNAmdzFOdVv7T5qTDt-rX0dSWh9l_h40lref6oIvmm8Ts4zG3Bx_Q6r93byxx_ltF8_W4r1Oo7vlMntBX3iodZGc_hX7uLtcn23vpGSrN4yOrGLLYCVIOdPqA5Xn0wxE0ujiQnqZmYOG6EyHn7pac4zDL6v3sEkzeJ-8xHlkTBUjcsswymtyJxpZneujVcnIeqsN1y8Vzmw1qwdNgqy7YLrkljT8_5TAzlbFiWtnFSFdYgc8Ud2OCYyx1SV5gqIOldpMQp62-D_2nRPOKkY8dbILhtlndGnJy0]--></g></svg>