<?xml version="1.0" encoding="us-ascii" standalone="no"?><svg xmlns="http://www.w3.org/2000/svg" xmlns:xlink="http://www.w3.org/1999/xlink" contentStyleType="text/css" height="817px" preserveAspectRatio="none" style="width:1074px;height:817px;background:#FFFFFF;" version="1.1" viewBox="0 0 1074 817" width="1074px" zoomAndPan="magnify"><defs/><g><rect fill="#FFFFFF" height="622.4512" style="stroke:#181818;stroke-width:1.0;" width="10" x="91" y="93.6211"/><rect fill="#FFFFFF" height="31.291" style="stroke:#181818;stroke-width:1.0;" width="10" x="437" y="116.9121"/><rect fill="#FFFFFF" height="348.832" style="stroke:#181818;stroke-width:1.0;" width="10" x="437" y="179.4941"/><rect fill="#FFFFFF" height="156.4551" style="stroke:#181818;stroke-width:1.0;" width="10" x="437" y="559.6172"/><rect fill="#FFFFFF" height="93.873" style="stroke:#181818;stroke-width:1.0;" width="10" x="650" y="385.8711"/><rect fill="#FFFFFF" height="93.873" style="stroke:#181818;stroke-width:1.0;" width="10" x="650" y="590.9082"/><rect fill="#FFFFFF" height="151.7949" style="stroke:#181818;stroke-width:1.0;" width="10" x="863" y="210.7852"/><rect fill="#FFFFFF" height="31.291" style="stroke:#181818;stroke-width:1.0;" width="10" x="863" y="622.1992"/><rect fill="#FFFFFF" height="31.291" style="stroke:#181818;stroke-width:1.0;" width="10" x="1007.5" y="417.1621"/><rect fill="none" height="129.7949" style="stroke:#000000;stroke-width:1.5;" width="947" x="10" y="225.7852"/><line style="stroke:#181818;stroke-width:0.5;stroke-dasharray:5.0,5.0;" x1="96" x2="96" y1="83.6211" y2="734.0723"/><line style="stroke:#181818;stroke-width:0.5;stroke-dasharray:5.0,5.0;" x1="442" x2="442" y1="83.6211" y2="734.0723"/><line style="stroke:#181818;stroke-width:0.5;stroke-dasharray:5.0,5.0;" x1="654.5" x2="654.5" y1="83.6211" y2="734.0723"/><line style="stroke:#181818;stroke-width:0.5;stroke-dasharray:5.0,5.0;" x1="868" x2="868" y1="83.6211" y2="734.0723"/><line style="stroke:#181818;stroke-width:0.5;stroke-dasharray:5.0,5.0;" x1="1012" x2="1012" y1="83.6211" y2="734.0723"/><text fill="#000000" font-family="sans-serif" font-size="14" lengthAdjust="spacing" textLength="146" x="20" y="80.1074">Organization Employee</text><ellipse cx="96" cy="13.5" fill="#E3E3E3" rx="8" ry="8" style="stroke:#181818;stroke-width:0.5;"/><path d="M96,21.5 L96,48.5 M83,29.5 L109,29.5 M96,48.5 L83,63.5 M96,48.5 L109,63.5 " fill="none" style="stroke:#181818;stroke-width:0.5;"/><text fill="#000000" font-family="sans-serif" font-size="14" lengthAdjust="spacing" textLength="146" x="20" y="748.1797">Organization Employee</text><ellipse cx="96" cy="760.1934" fill="#E3E3E3" rx="8" ry="8" style="stroke:#181818;stroke-width:0.5;"/><path d="M96,768.1934 L96,795.1934 M83,776.1934 L109,776.1934 M96,795.1934 L83,810.1934 M96,795.1934 L109,810.1934 " fill="none" style="stroke:#181818;stroke-width:0.5;"/><rect fill="#E3E3E3" height="32.6211" rx="2.5" ry="2.5" style="stroke:#181818;stroke-width:0.5;" width="80" x="402" y="50"/><text fill="#000000" font-family="sans-serif" font-size="14" lengthAdjust="spacing" textLength="66" x="409" y="72.1074">:AddSkillUI</text><rect fill="#E3E3E3" height="32.6211" rx="2.5" ry="2.5" style="stroke:#181818;stroke-width:0.5;" width="80" x="402" y="733.0723"/><text fill="#000000" font-family="sans-serif" font-size="14" lengthAdjust="spacing" textLength="66" x="409" y="755.1797">:AddSkillUI</text><rect fill="#E3E3E3" height="32.6211" rx="2.5" ry="2.5" style="stroke:#181818;stroke-width:0.5;" width="105" x="602.5" y="50"/><text fill="#000000" font-family="sans-serif" font-size="14" lengthAdjust="spacing" textLength="91" x="609.5" y="72.1074">:SkillController</text><rect fill="#E3E3E3" height="32.6211" rx="2.5" ry="2.5" style="stroke:#181818;stroke-width:0.5;" width="105" x="602.5" y="733.0723"/><text fill="#000000" font-family="sans-serif" font-size="14" lengthAdjust="spacing" textLength="91" x="609.5" y="755.1797">:SkillController</text><rect fill="#E3E3E3" height="32.6211" rx="2.5" ry="2.5" style="stroke:#181818;stroke-width:0.5;" width="158" x="789" y="50"/><text fill="#000000" font-family="sans-serif" font-size="14" lengthAdjust="spacing" textLength="144" x="796" y="72.1074">:CollaboratorController</text><rect fill="#E3E3E3" height="32.6211" rx="2.5" ry="2.5" style="stroke:#181818;stroke-width:0.5;" width="158" x="789" y="733.0723"/><text fill="#000000" font-family="sans-serif" font-size="14" lengthAdjust="spacing" textLength="144" x="796" y="755.1797">:CollaboratorController</text><rect fill="#E3E3E3" height="51.2422" rx="2.5" ry="2.5" style="stroke:#181818;stroke-width:0.5;" width="111" x="957" y="31.3789"/><text fill="#000000" font-family="sans-serif" font-size="14" lengthAdjust="spacing" textLength="97" x="964" y="53.4863">SkillRepository:</text><text fill="#000000" font-family="sans-serif" font-size="14" lengthAdjust="spacing" textLength="93" x="966" y="72.1074">SkillRepository</text><rect fill="#E3E3E3" height="51.2422" rx="2.5" ry="2.5" style="stroke:#181818;stroke-width:0.5;" width="111" x="957" y="733.0723"/><text fill="#000000" font-family="sans-serif" font-size="14" lengthAdjust="spacing" textLength="97" x="964" y="755.1797">SkillRepository:</text><text fill="#000000" font-family="sans-serif" font-size="14" lengthAdjust="spacing" textLength="93" x="966" y="773.8008">SkillRepository</text><rect fill="#FFFFFF" height="622.4512" style="stroke:#181818;stroke-width:1.0;" width="10" x="91" y="93.6211"/><rect fill="#FFFFFF" height="31.291" style="stroke:#181818;stroke-width:1.0;" width="10" x="437" y="116.9121"/><rect fill="#FFFFFF" height="348.832" style="stroke:#181818;stroke-width:1.0;" width="10" x="437" y="179.4941"/><rect fill="#FFFFFF" height="156.4551" style="stroke:#181818;stroke-width:1.0;" width="10" x="437" y="559.6172"/><rect fill="#FFFFFF" height="93.873" style="stroke:#181818;stroke-width:1.0;" width="10" x="650" y="385.8711"/><rect fill="#FFFFFF" height="93.873" style="stroke:#181818;stroke-width:1.0;" width="10" x="650" y="590.9082"/><rect fill="#FFFFFF" height="151.7949" style="stroke:#181818;stroke-width:1.0;" width="10" x="863" y="210.7852"/><rect fill="#FFFFFF" height="31.291" style="stroke:#181818;stroke-width:1.0;" width="10" x="863" y="622.1992"/><rect fill="#FFFFFF" height="31.291" style="stroke:#181818;stroke-width:1.0;" width="10" x="1007.5" y="417.1621"/><polygon fill="#181818" points="425,112.9121,435,116.9121,425,120.9121,429,116.9121" style="stroke:#181818;stroke-width:1.0;"/><line style="stroke:#181818;stroke-width:1.0;" x1="101" x2="431" y1="116.9121" y2="116.9121"/><text fill="#000000" font-family="sans-serif" font-size="13" font-weight="bold" lengthAdjust="spacing" textLength="7" x="108" y="111.6494">1</text><text fill="#000000" font-family="sans-serif" font-size="13" lengthAdjust="spacing" textLength="159" x="119" y="111.6494">asks to add SkillRepository</text><polygon fill="#181818" points="112,144.2031,102,148.2031,112,152.2031,108,148.2031" style="stroke:#181818;stroke-width:1.0;"/><line style="stroke:#181818;stroke-width:1.0;" x1="106" x2="441" y1="148.2031" y2="148.2031"/><text fill="#000000" font-family="sans-serif" font-size="13" font-weight="bold" lengthAdjust="spacing" textLength="7" x="118" y="142.9404">2</text><text fill="#000000" font-family="sans-serif" font-size="13" lengthAdjust="spacing" textLength="206" x="129" y="142.9404">Aks the desired collaborator's email</text><polygon fill="#181818" points="425,175.4941,435,179.4941,425,183.4941,429,179.4941" style="stroke:#181818;stroke-width:1.0;"/><line style="stroke:#181818;stroke-width:1.0;" x1="101" x2="431" y1="179.4941" y2="179.4941"/><text fill="#000000" font-family="sans-serif" font-size="13" font-weight="bold" lengthAdjust="spacing" textLength="7" x="108" y="174.2314">3</text><text fill="#000000" font-family="sans-serif" font-size="13" lengthAdjust="spacing" textLength="171" x="119" y="174.2314">writes the collaborator's email</text><polygon fill="#181818" points="851,206.7852,861,210.7852,851,214.7852,855,210.7852" style="stroke:#181818;stroke-width:1.0;"/><line style="stroke:#181818;stroke-width:1.0;" x1="447" x2="857" y1="210.7852" y2="210.7852"/><text fill="#000000" font-family="sans-serif" font-size="13" font-weight="bold" lengthAdjust="spacing" textLength="7" x="454" y="205.5225">4</text><text fill="#000000" font-family="sans-serif" font-size="13" lengthAdjust="spacing" textLength="175" x="465" y="205.5225">getCollaboratorByEmail(email)</text><path d="M10,225.7852 L71,225.7852 L71,235.0762 L61,245.0762 L10,245.0762 L10,225.7852 " fill="#EEEEEE" style="stroke:#000000;stroke-width:1.5;"/><rect fill="none" height="129.7949" style="stroke:#000000;stroke-width:1.5;" width="947" x="10" y="225.7852"/><text fill="#000000" font-family="sans-serif" font-size="13" font-weight="bold" lengthAdjust="spacing" textLength="16" x="25" y="240.8135">alt</text><text fill="#000000" font-family="sans-serif" font-size="11" font-weight="bold" lengthAdjust="spacing" textLength="130" x="86" y="239.6553">[collaborator not found]</text><polygon fill="#181818" points="458,264.3672,448,268.3672,458,272.3672,454,268.3672" style="stroke:#181818;stroke-width:1.0;"/><line style="stroke:#181818;stroke-width:1.0;" x1="452" x2="862" y1="268.3672" y2="268.3672"/><text fill="#000000" font-family="sans-serif" font-size="13" font-weight="bold" lengthAdjust="spacing" textLength="7" x="464" y="263.1045">5</text><text fill="#000000" font-family="sans-serif" font-size="13" lengthAdjust="spacing" textLength="88" x="475" y="263.1045">returns an error</text><polygon fill="#181818" points="112,295.6582,102,299.6582,112,303.6582,108,299.6582" style="stroke:#181818;stroke-width:1.0;"/><line style="stroke:#181818;stroke-width:1.0;" x1="106" x2="436" y1="299.6582" y2="299.6582"/><text fill="#000000" font-family="sans-serif" font-size="13" font-weight="bold" lengthAdjust="spacing" textLength="7" x="118" y="294.3955">6</text><text fill="#000000" font-family="sans-serif" font-size="13" lengthAdjust="spacing" textLength="225" x="129" y="294.3955">shows the error and quits the operation</text><line style="stroke:#000000;stroke-width:1.0;stroke-dasharray:2.0,2.0;" x1="10" x2="957" y1="308.6582" y2="308.6582"/><text fill="#000000" font-family="sans-serif" font-size="11" font-weight="bold" lengthAdjust="spacing" textLength="109" x="15" y="320.5283">[collaborator found]</text><polygon fill="#181818" points="458,343.5801,448,347.5801,458,351.5801,454,347.5801" style="stroke:#181818;stroke-width:1.0;"/><line style="stroke:#181818;stroke-width:1.0;" x1="452" x2="862" y1="347.5801" y2="347.5801"/><text fill="#000000" font-family="sans-serif" font-size="13" font-weight="bold" lengthAdjust="spacing" textLength="7" x="464" y="342.3174">7</text><text fill="#000000" font-family="sans-serif" font-size="13" lengthAdjust="spacing" textLength="111" x="475" y="342.3174">returns collaborator</text><polygon fill="#181818" points="638,381.8711,648,385.8711,638,389.8711,642,385.8711" style="stroke:#181818;stroke-width:1.0;"/><line style="stroke:#181818;stroke-width:1.0;" x1="447" x2="644" y1="385.8711" y2="385.8711"/><text fill="#000000" font-family="sans-serif" font-size="13" font-weight="bold" lengthAdjust="spacing" textLength="7" x="454" y="380.6084">8</text><text fill="#000000" font-family="sans-serif" font-size="13" lengthAdjust="spacing" textLength="58" x="465" y="380.6084">getSkills()</text><polygon fill="#181818" points="995.5,413.1621,1005.5,417.1621,995.5,421.1621,999.5,417.1621" style="stroke:#181818;stroke-width:1.0;"/><line style="stroke:#181818;stroke-width:1.0;" x1="660" x2="1001.5" y1="417.1621" y2="417.1621"/><text fill="#000000" font-family="sans-serif" font-size="13" font-weight="bold" lengthAdjust="spacing" textLength="7" x="667" y="411.8994">9</text><text fill="#000000" font-family="sans-serif" font-size="13" lengthAdjust="spacing" textLength="58" x="678" y="411.8994">getSkills()</text><polygon fill="#181818" points="671,444.4531,661,448.4531,671,452.4531,667,448.4531" style="stroke:#181818;stroke-width:1.0;"/><line style="stroke:#181818;stroke-width:1.0;" x1="665" x2="1011.5" y1="448.4531" y2="448.4531"/><text fill="#000000" font-family="sans-serif" font-size="13" font-weight="bold" lengthAdjust="spacing" textLength="14" x="677" y="443.1904">10</text><text fill="#000000" font-family="sans-serif" font-size="13" lengthAdjust="spacing" textLength="74" x="695" y="443.1904">returns skills</text><polygon fill="#181818" points="458,475.7441,448,479.7441,458,483.7441,454,479.7441" style="stroke:#181818;stroke-width:1.0;"/><line style="stroke:#181818;stroke-width:1.0;" x1="452" x2="654" y1="479.7441" y2="479.7441"/><text fill="#000000" font-family="sans-serif" font-size="13" font-weight="bold" lengthAdjust="spacing" textLength="14" x="464" y="474.4814">11</text><text fill="#000000" font-family="sans-serif" font-size="13" lengthAdjust="spacing" textLength="74" x="482" y="474.4814">returns skills</text><polygon fill="#181818" points="112,524.3262,102,528.3262,112,532.3262,108,528.3262" style="stroke:#181818;stroke-width:1.0;"/><line style="stroke:#181818;stroke-width:1.0;" x1="106" x2="441" y1="528.3262" y2="528.3262"/><text fill="#000000" font-family="sans-serif" font-size="13" font-weight="bold" lengthAdjust="spacing" textLength="14" x="118" y="514.418">12</text><text fill="#000000" font-family="sans-serif" font-size="13" lengthAdjust="spacing" textLength="257" x="136" y="505.7725">shows the skills that the collaborator doesn't</text><text fill="#000000" font-family="sans-serif" font-size="13" lengthAdjust="spacing" textLength="294" x="136" y="523.0635">have and asks to choose the ones he wants to add</text><polygon fill="#181818" points="425,555.6172,435,559.6172,425,563.6172,429,559.6172" style="stroke:#181818;stroke-width:1.0;"/><line style="stroke:#181818;stroke-width:1.0;" x1="101" x2="431" y1="559.6172" y2="559.6172"/><text fill="#000000" font-family="sans-serif" font-size="13" font-weight="bold" lengthAdjust="spacing" textLength="14" x="108" y="554.3545">13</text><text fill="#000000" font-family="sans-serif" font-size="13" lengthAdjust="spacing" textLength="227" x="126" y="554.3545">chooses the skills that he wants to add</text><polygon fill="#181818" points="638,586.9082,648,590.9082,638,594.9082,642,590.9082" style="stroke:#181818;stroke-width:1.0;"/><line style="stroke:#181818;stroke-width:1.0;" x1="447" x2="644" y1="590.9082" y2="590.9082"/><text fill="#000000" font-family="sans-serif" font-size="13" font-weight="bold" lengthAdjust="spacing" textLength="14" x="454" y="585.6455">14</text><text fill="#000000" font-family="sans-serif" font-size="13" lengthAdjust="spacing" textLength="166" x="472" y="585.6455">addSkills(collaborator, skills)</text><polygon fill="#181818" points="851,618.1992,861,622.1992,851,626.1992,855,622.1992" style="stroke:#181818;stroke-width:1.0;"/><line style="stroke:#181818;stroke-width:1.0;" x1="660" x2="857" y1="622.1992" y2="622.1992"/><text fill="#000000" font-family="sans-serif" font-size="13" font-weight="bold" lengthAdjust="spacing" textLength="14" x="667" y="616.9365">15</text><text fill="#000000" font-family="sans-serif" font-size="13" lengthAdjust="spacing" textLength="166" x="685" y="616.9365">addSkills(collaborator, skills)</text><polygon fill="#181818" points="671,649.4902,661,653.4902,671,657.4902,667,653.4902" style="stroke:#181818;stroke-width:1.0;"/><line style="stroke:#181818;stroke-width:1.0;" x1="665" x2="867" y1="653.4902" y2="653.4902"/><text fill="#000000" font-family="sans-serif" font-size="13" font-weight="bold" lengthAdjust="spacing" textLength="14" x="677" y="648.2275">16</text><text fill="#000000" font-family="sans-serif" font-size="13" lengthAdjust="spacing" textLength="135" x="695" y="648.2275">returns the added skills</text><polygon fill="#181818" points="458,680.7813,448,684.7813,458,688.7813,454,684.7813" style="stroke:#181818;stroke-width:1.0;"/><line style="stroke:#181818;stroke-width:1.0;" x1="452" x2="654" y1="684.7813" y2="684.7813"/><text fill="#000000" font-family="sans-serif" font-size="13" font-weight="bold" lengthAdjust="spacing" textLength="14" x="464" y="679.5186">17</text><text fill="#000000" font-family="sans-serif" font-size="13" lengthAdjust="spacing" textLength="135" x="482" y="679.5186">returns the added skills</text><polygon fill="#181818" points="107,712.0723,97,716.0723,107,720.0723,103,716.0723" style="stroke:#181818;stroke-width:1.0;"/><line style="stroke:#181818;stroke-width:1.0;" x1="101" x2="441" y1="716.0723" y2="716.0723"/><text fill="#000000" font-family="sans-serif" font-size="13" font-weight="bold" lengthAdjust="spacing" textLength="14" x="113" y="710.8096">18</text><text fill="#000000" font-family="sans-serif" font-size="13" lengthAdjust="spacing" textLength="157" x="131" y="710.8096">shows the updated skill list</text><!--SRC=[dLLDRzim3BtxLn2v90EsF-33WApheS260UrwwuMns5Y8BNgIt2pxzQFbn94j9mtgYsEAx_53ZupRQTEWnHfgDboKbci2RrlAt73IOB73BJtvGqLWgV1ejbNiu4fKlDTc2wzOESeoR3sRjjwGpR9bgHN1AxFVyDyC2yyM5h_i5et-XrwpWVkwgVX0j01qiFx-CnDMhmlTeF6moDTAFUrqLJq_18VdXybvEBnZuorN5TdWrDj-F_wO-Dw92sxOecGnWOoE4cGWVAI6dPRpG_vY9fPpsBCjoxfwzHjw2dM1FFA6Br-b2iW5iNFW6L2f1Dhv3c2f6OwF00KkB3ciEtH9eCXfImgAg8Ab0wfHLm6dQCeKPx6tsbFFT95XDfr9JjC6vh0b7nk_7UuxmbMW_JIW1zefmJb0SAlyA3ymx4LMhL4Zj-v9Y4AfkMZNjzOuG0DaBTi463NNbRplcn9S1QFWJwjzR-E6R13lY894_ECSFvPVJ34E4955bvf8TrpFC0pXHiANMytq_pmqSSp1Eb15Op1Bc99ET9tGdyyd-PuwuaAC4JYg_rgCoxN47R-1FsbCTbKrFQFyH9-C5YWcPvOUNao9RnIqTTe5HSaiAWeYCpAMyjxB1ZhjYVVcEJyIf4dC4RspPQABmECITgkuaC_721yJKxemReroTMtSD6up6kiQ9Wd88hskXglnBYhiLlQqRxFoQXibtaSogBJpCyg8lhg_d_y0]--></g></svg>