<?xml version="1.0" encoding="us-ascii" standalone="no"?><svg xmlns="http://www.w3.org/2000/svg" xmlns:xlink="http://www.w3.org/1999/xlink" contentStyleType="text/css" height="397px" preserveAspectRatio="none" style="width:499px;height:397px;background:#FFFFFF;" version="1.1" viewBox="0 0 499 397" width="499px" zoomAndPan="magnify"><defs/><g><rect fill="#FFFFFF" height="301.25" style="stroke:#181818;stroke-width:1.0;" width="10" x="219" y="48.6211"/><rect fill="#FFFFFF" height="31.291" style="stroke:#181818;stroke-width:1.0;" width="10" x="398" y="129.4941"/><rect fill="none" height="143.4551" style="stroke:#000000;stroke-width:1.5;" width="358" x="135" y="86.9121"/><rect fill="none" height="98.5039" style="stroke:#000000;stroke-width:1.5;" width="310" x="3" y="244.3672"/><line style="stroke:#181818;stroke-width:0.5;stroke-dasharray:5.0,5.0;" x1="224" x2="224" y1="38.6211" y2="359.8711"/><line style="stroke:#181818;stroke-width:0.5;stroke-dasharray:5.0,5.0;" x1="403" x2="403" y1="38.6211" y2="359.8711"/><rect fill="#E3E3E3" height="32.6211" rx="2.5" ry="2.5" style="stroke:#181818;stroke-width:0.5;" width="158" x="145" y="5"/><text fill="#000000" font-family="sans-serif" font-size="14" lengthAdjust="spacing" textLength="144" x="152" y="27.1074">:CollaboratorController</text><rect fill="#E3E3E3" height="32.6211" rx="2.5" ry="2.5" style="stroke:#181818;stroke-width:0.5;" width="158" x="145" y="358.8711"/><text fill="#000000" font-family="sans-serif" font-size="14" lengthAdjust="spacing" textLength="144" x="152" y="380.9785">:CollaboratorController</text><rect fill="#E3E3E3" height="32.6211" rx="2.5" ry="2.5" style="stroke:#181818;stroke-width:0.5;" width="160" x="323" y="5"/><text fill="#000000" font-family="sans-serif" font-size="14" lengthAdjust="spacing" textLength="146" x="330" y="27.1074">CollaboratorRepository</text><rect fill="#E3E3E3" height="32.6211" rx="2.5" ry="2.5" style="stroke:#181818;stroke-width:0.5;" width="160" x="323" y="358.8711"/><text fill="#000000" font-family="sans-serif" font-size="14" lengthAdjust="spacing" textLength="146" x="330" y="380.9785">CollaboratorRepository</text><rect fill="#FFFFFF" height="301.25" style="stroke:#181818;stroke-width:1.0;" width="10" x="219" y="48.6211"/><rect fill="#FFFFFF" height="31.291" style="stroke:#181818;stroke-width:1.0;" width="10" x="398" y="129.4941"/><polygon fill="#181818" points="207,67.9121,217,71.9121,207,75.9121,211,71.9121" style="stroke:#181818;stroke-width:1.0;"/><line style="stroke:#181818;stroke-width:1.0;" x1="0" x2="213" y1="71.9121" y2="71.9121"/><text fill="#000000" font-family="sans-serif" font-size="13" font-weight="bold" lengthAdjust="spacing" textLength="14" x="7" y="66.6494">14</text><text fill="#000000" font-family="sans-serif" font-size="13" lengthAdjust="spacing" textLength="175" x="25" y="66.6494">getCollaboratorByEmail(email)</text><path d="M135,86.9121 L340,86.9121 L340,96.2031 L330,106.2031 L135,106.2031 L135,86.9121 " fill="#EEEEEE" style="stroke:#000000;stroke-width:1.5;"/><rect fill="none" height="143.4551" style="stroke:#000000;stroke-width:1.5;" width="358" x="135" y="86.9121"/><text fill="#000000" font-family="sans-serif" font-size="13" font-weight="bold" lengthAdjust="spacing" textLength="160" x="150" y="101.9404">get collaborator by email</text><polygon fill="#181818" points="386,125.4941,396,129.4941,386,133.4941,390,129.4941" style="stroke:#181818;stroke-width:1.0;"/><line style="stroke:#181818;stroke-width:1.0;" x1="229" x2="392" y1="129.4941" y2="129.4941"/><text fill="#000000" font-family="sans-serif" font-size="13" font-weight="bold" lengthAdjust="spacing" textLength="14" x="236" y="124.2314">15</text><text fill="#000000" font-family="sans-serif" font-size="13" lengthAdjust="spacing" textLength="116" x="254" y="124.2314">getCollaboratorList()</text><polygon fill="#181818" points="240,156.7852,230,160.7852,240,164.7852,236,160.7852" style="stroke:#181818;stroke-width:1.0;"/><line style="stroke:#181818;stroke-width:1.0;" x1="234" x2="402" y1="160.7852" y2="160.7852"/><text fill="#000000" font-family="sans-serif" font-size="13" font-weight="bold" lengthAdjust="spacing" textLength="14" x="246" y="155.5225">16</text><text fill="#000000" font-family="sans-serif" font-size="13" lengthAdjust="spacing" textLength="132" x="264" y="155.5225">returns collaborator list</text><line style="stroke:#181818;stroke-width:1.0;" x1="229" x2="271" y1="209.3672" y2="209.3672"/><line style="stroke:#181818;stroke-width:1.0;" x1="271" x2="271" y1="209.3672" y2="222.3672"/><line style="stroke:#181818;stroke-width:1.0;" x1="230" x2="271" y1="222.3672" y2="222.3672"/><polygon fill="#181818" points="240,218.3672,230,222.3672,240,226.3672,236,222.3672" style="stroke:#181818;stroke-width:1.0;"/><text fill="#000000" font-family="sans-serif" font-size="13" font-weight="bold" lengthAdjust="spacing" textLength="14" x="236" y="195.459">17</text><text fill="#000000" font-family="sans-serif" font-size="13" lengthAdjust="spacing" textLength="111" x="254" y="186.8135">get the collaborator</text><text fill="#000000" font-family="sans-serif" font-size="13" lengthAdjust="spacing" textLength="126" x="254" y="204.1045">with the desired email</text><path d="M3,244.3672 L64,244.3672 L64,253.6582 L54,263.6582 L3,263.6582 L3,244.3672 " fill="#EEEEEE" style="stroke:#000000;stroke-width:1.5;"/><rect fill="none" height="98.5039" style="stroke:#000000;stroke-width:1.5;" width="310" x="3" y="244.3672"/><text fill="#000000" font-family="sans-serif" font-size="13" font-weight="bold" lengthAdjust="spacing" textLength="16" x="18" y="259.3955">alt</text><text fill="#000000" font-family="sans-serif" font-size="11" font-weight="bold" lengthAdjust="spacing" textLength="121" x="79" y="258.2373">[if collaborator exists]</text><polygon fill="#181818" points="11,282.9492,1,286.9492,11,290.9492,7,286.9492" style="stroke:#181818;stroke-width:1.0;"/><line style="stroke:#181818;stroke-width:1.0;stroke-dasharray:2.0,2.0;" x1="5" x2="218" y1="286.9492" y2="286.9492"/><text fill="#000000" font-family="sans-serif" font-size="13" font-weight="bold" lengthAdjust="spacing" textLength="14" x="17" y="281.6865">15</text><text fill="#000000" font-family="sans-serif" font-size="13" lengthAdjust="spacing" textLength="104" x="35" y="281.6865">return collaborator</text><line style="stroke:#000000;stroke-width:1.0;stroke-dasharray:2.0,2.0;" x1="3" x2="313" y1="295.9492" y2="295.9492"/><text fill="#000000" font-family="sans-serif" font-size="11" font-weight="bold" lengthAdjust="spacing" textLength="156" x="8" y="307.8193">[collaborator does not exist]</text><polygon fill="#181818" points="11,330.8711,1,334.8711,11,338.8711,7,334.8711" style="stroke:#181818;stroke-width:1.0;"/><line style="stroke:#181818;stroke-width:1.0;stroke-dasharray:2.0,2.0;" x1="5" x2="218" y1="334.8711" y2="334.8711"/><text fill="#000000" font-family="sans-serif" font-size="13" font-weight="bold" lengthAdjust="spacing" textLength="14" x="17" y="329.6084">16</text><text fill="#000000" font-family="sans-serif" font-size="13" lengthAdjust="spacing" textLength="81" x="35" y="329.6084">return an error</text><!--SRC=[RPAnReCm48PtFyKfIvCXbIArIrHrQ9GjGvLsx7BW2rWnFcGVJNZx6fCWe_G61ERpT_yPmjcu5ZqsqB3ZilRS48ZlI8NfJOlb6IlwajuIU2e5NMLp8DIe-M9S1IUqWLIifzfeWXEp57nL4HDJcXQTm6AxOsknO8_2ViTEV7mclm0CiFi-7kPq3X-fvM3YJP_Wu_vJAUo4NTSKv67pejRlIG5Rg4ZohH_zla5ZbpHSLmfYLPwxTk2Wp40eUaXGOePAmYYExHwq1nDakPfGBCNyeb2A1dd51RY5syOpbCwxCEzheshQe-bVrKEcqJVC83NDV3_kOgHEovg2yQIpiSZf-S4zRzJKC7q3bRYSUHrNh80vpPFJDKOFKxQtzJeVSyQEtUC_CZTefW2EPLJbflldlBdG0Nb_zyGfieDAkVy0]--></g></svg>