<?xml version="1.0" encoding="us-ascii" standalone="no"?><svg xmlns="http://www.w3.org/2000/svg" xmlns:xlink="http://www.w3.org/1999/xlink" contentStyleType="text/css" height="500px" preserveAspectRatio="none" style="width:667px;height:500px;background:#FFFFFF;" version="1.1" viewBox="0 0 667 500" width="667px" zoomAndPan="magnify"><defs/><g><rect fill="#FFFFFF" height="343.541" style="stroke:#181818;stroke-width:1.0;" width="10" x="212" y="90.5332"/><rect fill="#FFFFFF" height="359.832" style="stroke:#181818;stroke-width:1.0;" width="10" x="590" y="67.2422"/><rect fill="none" height="321.541" style="stroke:#000000;stroke-width:1.5;" width="658" x="3" y="105.5332"/><rect fill="none" height="50.582" style="stroke:#000000;stroke-width:1.5;" width="521" x="130" y="131.8242"/><rect fill="none" height="223.668" style="stroke:#000000;stroke-width:1.5;" width="648" x="3" y="196.4063"/><line style="stroke:#181818;stroke-width:0.5;stroke-dasharray:5.0,5.0;" x1="217" x2="217" y1="57.2422" y2="444.0742"/><line style="stroke:#181818;stroke-width:0.5;stroke-dasharray:5.0,5.0;" x1="405.5" x2="405.5" y1="57.2422" y2="444.0742"/><line style="stroke:#181818;stroke-width:0.5;stroke-dasharray:5.0,5.0;" x1="595" x2="595" y1="57.2422" y2="444.0742"/><rect fill="#E3E3E3" height="32.6211" rx="2.5" ry="2.5" style="stroke:#181818;stroke-width:0.5;" width="154" x="140" y="23.6211"/><text fill="#000000" font-family="sans-serif" font-size="14" lengthAdjust="spacing" textLength="140" x="147" y="45.7285">CollaboratorController</text><rect fill="#E3E3E3" height="32.6211" rx="2.5" ry="2.5" style="stroke:#181818;stroke-width:0.5;" width="154" x="140" y="443.0742"/><text fill="#000000" font-family="sans-serif" font-size="14" lengthAdjust="spacing" textLength="140" x="147" y="465.1816">CollaboratorController</text><rect fill="#E3E3E3" height="51.2422" rx="2.5" ry="2.5" style="stroke:#181818;stroke-width:0.5;" width="43" x="384.5" y="5"/><text fill="#000000" font-family="sans-serif" font-size="14" lengthAdjust="spacing" textLength="23" x="394.5" y="27.1074">skill</text><text fill="#000000" font-family="sans-serif" font-size="14" lengthAdjust="spacing" textLength="29" x="391.5" y="45.7285">:Skill</text><rect fill="#E3E3E3" height="51.2422" rx="2.5" ry="2.5" style="stroke:#181818;stroke-width:0.5;" width="43" x="384.5" y="443.0742"/><text fill="#000000" font-family="sans-serif" font-size="14" lengthAdjust="spacing" textLength="23" x="394.5" y="465.1816">skill</text><text fill="#000000" font-family="sans-serif" font-size="14" lengthAdjust="spacing" textLength="29" x="391.5" y="483.8027">:Skill</text><rect fill="#E3E3E3" height="32.6211" rx="2.5" ry="2.5" style="stroke:#181818;stroke-width:0.5;" width="92" x="549" y="23.6211"/><text fill="#000000" font-family="sans-serif" font-size="14" lengthAdjust="spacing" textLength="78" x="556" y="45.7285">Collaborator</text><rect fill="#E3E3E3" height="32.6211" rx="2.5" ry="2.5" style="stroke:#181818;stroke-width:0.5;" width="92" x="549" y="443.0742"/><text fill="#000000" font-family="sans-serif" font-size="14" lengthAdjust="spacing" textLength="78" x="556" y="465.1816">Collaborator</text><rect fill="#FFFFFF" height="343.541" style="stroke:#181818;stroke-width:1.0;" width="10" x="212" y="90.5332"/><rect fill="#FFFFFF" height="359.832" style="stroke:#181818;stroke-width:1.0;" width="10" x="590" y="67.2422"/><polygon fill="#181818" points="200,86.5332,210,90.5332,200,94.5332,204,90.5332" style="stroke:#181818;stroke-width:1.0;"/><line style="stroke:#181818;stroke-width:1.0;" x1="0" x2="206" y1="90.5332" y2="90.5332"/><text fill="#000000" font-family="sans-serif" font-size="13" font-weight="bold" lengthAdjust="spacing" textLength="14" x="7" y="85.2705">16</text><text fill="#000000" font-family="sans-serif" font-size="13" lengthAdjust="spacing" textLength="168" x="25" y="85.2705">addSkills(Skills, collaborator)</text><path d="M3,105.5332 L209,105.5332 L209,114.8242 L199,124.8242 L3,124.8242 L3,105.5332 " fill="#EEEEEE" style="stroke:#000000;stroke-width:1.5;"/><rect fill="none" height="321.541" style="stroke:#000000;stroke-width:1.5;" width="658" x="3" y="105.5332"/><text fill="#000000" font-family="sans-serif" font-size="13" font-weight="bold" lengthAdjust="spacing" textLength="161" x="18" y="120.5615">add Skills to Collaborator</text><path d="M130,131.8242 L203,131.8242 L203,141.1152 L193,151.1152 L130,151.1152 L130,131.8242 " fill="#EEEEEE" style="stroke:#000000;stroke-width:1.5;"/><rect fill="none" height="50.582" style="stroke:#000000;stroke-width:1.5;" width="521" x="130" y="131.8242"/><text fill="#000000" font-family="sans-serif" font-size="13" font-weight="bold" lengthAdjust="spacing" textLength="28" x="145" y="146.8525">loop</text><text fill="#000000" font-family="sans-serif" font-size="11" font-weight="bold" lengthAdjust="spacing" textLength="125" x="218" y="145.6943">[for each skill in Skills]</text><polygon fill="#181818" points="578,170.4063,588,174.4063,578,178.4063,582,174.4063" style="stroke:#181818;stroke-width:1.0;"/><line style="stroke:#181818;stroke-width:1.0;" x1="222" x2="584" y1="174.4063" y2="174.4063"/><text fill="#000000" font-family="sans-serif" font-size="13" font-weight="bold" lengthAdjust="spacing" textLength="25" x="229" y="169.1436">16.1</text><text fill="#000000" font-family="sans-serif" font-size="13" lengthAdjust="spacing" textLength="77" x="258" y="169.1436">addSkill(skill)</text><path d="M3,196.4063 L64,196.4063 L64,205.6973 L54,215.6973 L3,215.6973 L3,196.4063 " fill="#EEEEEE" style="stroke:#000000;stroke-width:1.5;"/><rect fill="none" height="223.668" style="stroke:#000000;stroke-width:1.5;" width="648" x="3" y="196.4063"/><text fill="#000000" font-family="sans-serif" font-size="13" font-weight="bold" lengthAdjust="spacing" textLength="16" x="18" y="211.4346">alt</text><text fill="#000000" font-family="sans-serif" font-size="11" font-weight="bold" lengthAdjust="spacing" textLength="47" x="79" y="210.2764">[if error]</text><polygon fill="#181818" points="417,234.9883,407,238.9883,417,242.9883,413,238.9883" style="stroke:#181818;stroke-width:1.0;"/><line style="stroke:#181818;stroke-width:1.0;" x1="411" x2="589" y1="238.9883" y2="238.9883"/><text fill="#000000" font-family="sans-serif" font-size="13" font-weight="bold" lengthAdjust="spacing" textLength="25" x="423" y="233.7256">16.2</text><text fill="#000000" font-family="sans-serif" font-size="13" lengthAdjust="spacing" textLength="63" x="452" y="233.7256">return error</text><polygon fill="#181818" points="233,266.2793,223,270.2793,233,274.2793,229,270.2793" style="stroke:#181818;stroke-width:1.0;"/><line style="stroke:#181818;stroke-width:1.0;" x1="227" x2="405" y1="270.2793" y2="270.2793"/><text fill="#000000" font-family="sans-serif" font-size="13" font-weight="bold" lengthAdjust="spacing" textLength="25" x="239" y="265.0166">16.3</text><text fill="#000000" font-family="sans-serif" font-size="13" lengthAdjust="spacing" textLength="63" x="268" y="265.0166">return error</text><polygon fill="#181818" points="11,297.5703,1,301.5703,11,305.5703,7,301.5703" style="stroke:#181818;stroke-width:1.0;"/><line style="stroke:#181818;stroke-width:1.0;stroke-dasharray:2.0,2.0;" x1="5" x2="211" y1="301.5703" y2="301.5703"/><text fill="#000000" font-family="sans-serif" font-size="13" font-weight="bold" lengthAdjust="spacing" textLength="25" x="17" y="296.3076">16.4</text><text fill="#000000" font-family="sans-serif" font-size="13" lengthAdjust="spacing" textLength="63" x="46" y="296.3076">return error</text><line style="stroke:#000000;stroke-width:1.0;stroke-dasharray:2.0,2.0;" x1="3" x2="651" y1="310.5703" y2="310.5703"/><text fill="#000000" font-family="sans-serif" font-size="11" font-weight="bold" lengthAdjust="spacing" textLength="65" x="8" y="322.4404">[if success]</text><polygon fill="#181818" points="417,345.4922,407,349.4922,417,353.4922,413,349.4922" style="stroke:#181818;stroke-width:1.0;"/><line style="stroke:#181818;stroke-width:1.0;" x1="411" x2="589" y1="349.4922" y2="349.4922"/><text fill="#000000" font-family="sans-serif" font-size="13" font-weight="bold" lengthAdjust="spacing" textLength="25" x="423" y="344.2295">16.5</text><text fill="#000000" font-family="sans-serif" font-size="13" lengthAdjust="spacing" textLength="131" x="452" y="344.2295">return updated skill list</text><polygon fill="#181818" points="233,376.7832,223,380.7832,233,384.7832,229,380.7832" style="stroke:#181818;stroke-width:1.0;"/><line style="stroke:#181818;stroke-width:1.0;" x1="227" x2="405" y1="380.7832" y2="380.7832"/><text fill="#000000" font-family="sans-serif" font-size="13" font-weight="bold" lengthAdjust="spacing" textLength="25" x="239" y="375.5205">16.6</text><text fill="#000000" font-family="sans-serif" font-size="13" lengthAdjust="spacing" textLength="131" x="268" y="375.5205">return updated skill list</text><polygon fill="#181818" points="11,408.0742,1,412.0742,11,416.0742,7,412.0742" style="stroke:#181818;stroke-width:1.0;"/><line style="stroke:#181818;stroke-width:1.0;stroke-dasharray:2.0,2.0;" x1="5" x2="211" y1="412.0742" y2="412.0742"/><text fill="#000000" font-family="sans-serif" font-size="13" font-weight="bold" lengthAdjust="spacing" textLength="25" x="17" y="406.8115">16.7</text><text fill="#000000" font-family="sans-serif" font-size="13" lengthAdjust="spacing" textLength="153" x="46" y="406.8115">return the updated skill list</text><!--SRC=[bLAnJWCn3Dtp5LQdLg98NK2g44idn4sKaSLDtBkekUIKE23-dYHNNLDe1NY9Oh_t_E8u7BGTq6CFlRDETjxr1EmZYJ1L1fG7R6dBduR0asIqhQa1eKFbFhHjOOyca10fpLhg0It3REECmPtpoCvld6MVxkHdW04sho_DEJY96lDcrzjy5ips-QbfXC38piP-HnvMTsBvMBXhGAKADCp7umParMxnZNUx4YXPloFJs1jIjDx58Gl1A07ieFOi2Yg7SMw0lVD0A3ieLa7R8sr2vSZYa4rMEYUpyq9TJ0oowjJaPB3sC5KDWzu3ULybIySAdJkNiQtJTt7qzWA-r66QurNSmt8vlkOAXjA7PqSXIaaX_CDJ75HwfZhEqUZ0Vp3u2-cdM-xe0WakprxHzUbNjN4bpzZrcjsBMYUlcVW2]--></g></svg>