<?xml version="1.0" encoding="us-ascii" standalone="no"?><svg xmlns="http://www.w3.org/2000/svg" xmlns:xlink="http://www.w3.org/1999/xlink" contentStyleType="text/css" height="337px" preserveAspectRatio="none" style="width:230px;height:337px;background:#FFFFFF;" version="1.1" viewBox="0 0 230 337" width="230px" zoomAndPan="magnify"><defs/><g><!--class HRM--><g id="elem_HRM"><rect codeLine="1" fill="#F1F1F1" height="85.2422" id="HRM" rx="2.5" ry="2.5" style="stroke:#181818;stroke-width:0.5;" width="182" x="24" y="7"/><ellipse cx="95.75" cy="23" fill="#ADD1B2" rx="11" ry="11" style="stroke:#181818;stroke-width:1.0;"/><path d="M98.5156,18.875 Q98.6719,18.6563 98.8594,18.5469 Q99.0469,18.4375 99.2656,18.4375 Q99.6406,18.4375 99.875,18.7031 Q100.1094,18.9531 100.1094,19.5625 L100.1094,21.0156 Q100.1094,21.625 99.875,21.8906 Q99.6406,22.1563 99.2656,22.1563 Q98.9219,22.1563 98.7188,21.9531 Q98.5156,21.7656 98.4063,21.25 Q98.3594,20.8906 98.1719,20.7031 Q97.8438,20.3281 97.2344,20.1094 Q96.625,19.8906 96,19.8906 Q95.2344,19.8906 94.5938,20.2188 Q93.9688,20.5469 93.4688,21.2969 Q92.9844,22.0469 92.9844,23.0781 L92.9844,24.1719 Q92.9844,25.4063 93.875,26.2344 Q94.7656,27.0469 96.3594,27.0469 Q97.2969,27.0469 97.9531,26.7969 Q98.3438,26.6406 98.7656,26.2031 Q99.0313,25.9375 99.1719,25.8594 Q99.3281,25.7813 99.5313,25.7813 Q99.8594,25.7813 100.1094,26.0469 Q100.375,26.2969 100.375,26.6406 Q100.375,26.9844 100.0313,27.3906 Q99.5313,27.9688 98.7344,28.2969 Q97.6563,28.75 96.3594,28.75 Q94.8438,28.75 93.6406,28.125 Q92.6563,27.625 91.9688,26.5625 Q91.2813,25.4844 91.2813,24.2031 L91.2813,23.0469 Q91.2813,21.7188 91.8906,20.5781 Q92.5156,19.4219 93.6094,18.8125 Q94.7031,18.1875 95.9375,18.1875 Q96.6719,18.1875 97.3125,18.3594 Q97.9688,18.5156 98.5156,18.875 Z " fill="#000000"/><text fill="#000000" font-family="sans-serif" font-size="14" lengthAdjust="spacing" textLength="30" x="116.25" y="28.7969">HRM</text><line style="stroke:#181818;stroke-width:0.5;" x1="25" x2="205" y1="39" y2="39"/><line style="stroke:#181818;stroke-width:0.5;" x1="25" x2="205" y1="47" y2="47"/><ellipse cx="35" cy="61.8105" fill="#84BE84" rx="3" ry="3" style="stroke:#038048;stroke-width:1.0;"/><text fill="#000000" font-family="sans-serif" font-size="14" lengthAdjust="spacing" textLength="156" x="44" y="66.1074">Request to registerSkill()</text><ellipse cx="35" cy="80.4316" fill="#84BE84" rx="3" ry="3" style="stroke:#038048;stroke-width:1.0;"/><text fill="#000000" font-family="sans-serif" font-size="14" lengthAdjust="spacing" textLength="126" x="44" y="84.7285">ProvideSkillDetails()</text></g><!--class System--><g id="elem_System"><rect codeLine="6" fill="#F1F1F1" height="159.7266" id="System" rx="2.5" ry="2.5" style="stroke:#181818;stroke-width:0.5;" width="216" x="7" y="171"/><ellipse cx="87.75" cy="187" fill="#ADD1B2" rx="11" ry="11" style="stroke:#181818;stroke-width:1.0;"/><path d="M90.5156,182.875 Q90.6719,182.6563 90.8594,182.5469 Q91.0469,182.4375 91.2656,182.4375 Q91.6406,182.4375 91.875,182.7031 Q92.1094,182.9531 92.1094,183.5625 L92.1094,185.0156 Q92.1094,185.625 91.875,185.8906 Q91.6406,186.1563 91.2656,186.1563 Q90.9219,186.1563 90.7188,185.9531 Q90.5156,185.7656 90.4063,185.25 Q90.3594,184.8906 90.1719,184.7031 Q89.8438,184.3281 89.2344,184.1094 Q88.625,183.8906 88,183.8906 Q87.2344,183.8906 86.5938,184.2188 Q85.9688,184.5469 85.4688,185.2969 Q84.9844,186.0469 84.9844,187.0781 L84.9844,188.1719 Q84.9844,189.4063 85.875,190.2344 Q86.7656,191.0469 88.3594,191.0469 Q89.2969,191.0469 89.9531,190.7969 Q90.3438,190.6406 90.7656,190.2031 Q91.0313,189.9375 91.1719,189.8594 Q91.3281,189.7813 91.5313,189.7813 Q91.8594,189.7813 92.1094,190.0469 Q92.375,190.2969 92.375,190.6406 Q92.375,190.9844 92.0313,191.3906 Q91.5313,191.9688 90.7344,192.2969 Q89.6563,192.75 88.3594,192.75 Q86.8438,192.75 85.6406,192.125 Q84.6563,191.625 83.9688,190.5625 Q83.2813,189.4844 83.2813,188.2031 L83.2813,187.0469 Q83.2813,185.7188 83.8906,184.5781 Q84.5156,183.4219 85.6094,182.8125 Q86.7031,182.1875 87.9375,182.1875 Q88.6719,182.1875 89.3125,182.3594 Q89.9688,182.5156 90.5156,182.875 Z " fill="#000000"/><text fill="#000000" font-family="sans-serif" font-size="14" lengthAdjust="spacing" textLength="46" x="108.25" y="192.7969">System</text><line style="stroke:#181818;stroke-width:0.5;" x1="8" x2="222" y1="203" y2="203"/><line style="stroke:#181818;stroke-width:0.5;" x1="8" x2="222" y1="211" y2="211"/><ellipse cx="18" cy="225.8105" fill="#84BE84" rx="3" ry="3" style="stroke:#038048;stroke-width:1.0;"/><text fill="#000000" font-family="sans-serif" font-size="14" lengthAdjust="spacing" textLength="190" x="27" y="230.1074">DisplaySkillRegistrationForm()</text><ellipse cx="18" cy="244.4316" fill="#84BE84" rx="3" ry="3" style="stroke:#038048;stroke-width:1.0;"/><text fill="#000000" font-family="sans-serif" font-size="14" lengthAdjust="spacing" textLength="129" x="27" y="248.7285">ValidateSkillDetails()</text><ellipse cx="18" cy="263.0527" fill="#84BE84" rx="3" ry="3" style="stroke:#038048;stroke-width:1.0;"/><text fill="#000000" font-family="sans-serif" font-size="14" lengthAdjust="spacing" textLength="137" x="27" y="267.3496">SaveSkillInformation()</text><ellipse cx="18" cy="281.6738" fill="#84BE84" rx="3" ry="3" style="stroke:#038048;stroke-width:1.0;"/><text fill="#000000" font-family="sans-serif" font-size="14" lengthAdjust="spacing" textLength="138" x="27" y="285.9707">NotifyInvalidRequest()</text><ellipse cx="18" cy="300.2949" fill="#84BE84" rx="3" ry="3" style="stroke:#038048;stroke-width:1.0;"/><text fill="#000000" font-family="sans-serif" font-size="14" lengthAdjust="spacing" textLength="153" x="27" y="304.5918">NotifyInvalidSkillDetails()</text><ellipse cx="18" cy="318.916" fill="#84BE84" rx="3" ry="3" style="stroke:#038048;stroke-width:1.0;"/><text fill="#000000" font-family="sans-serif" font-size="14" lengthAdjust="spacing" textLength="189" x="27" y="323.2129">NotifySuccessfulRegistration()</text></g><!--link HRM to System--><g id="link_HRM_System"><path codeLine="15" d="M115,92.32 C115,115.06 115,143.94 115,170.76 " fill="none" id="HRM-System" style="stroke:#181818;stroke-width:1.0;"/><text fill="#000000" font-family="sans-serif" font-size="13" lengthAdjust="spacing" textLength="77" x="116" y="137.0283">interacts with</text></g><!--SRC=[RP112i8m44NtFSKi5Ua5N1Un2qKQS1_IL0VJH3FJIX7lRfhKWj8iy_v_p8moaWZsrG5U6OItWKe_EaqCxC3h2n9hBsvep6ez1KxUzLZh-5bebcWei7UMgUWIGwYqiwv0kXivn7GLVLuoEhjplfsLPscmblplJ538Fe7IDg4KspCyEiPcA6q_6gRHb-6YEoL4fvGcQhgV2TDIusdo_BlL5j26WqZ514_aQ_O1]--></g></svg>