<?xml version="1.0" encoding="UTF-8" standalone="no"?><svg xmlns="http://www.w3.org/2000/svg" xmlns:xlink="http://www.w3.org/1999/xlink" contentStyleType="text/css" height="346px" preserveAspectRatio="none" style="width:229px;height:346px;background:#FFFFFF;" version="1.1" viewBox="0 0 229 346" width="229px" zoomAndPan="magnify"><defs/><g><!--class HRM--><g id="elem_HRM"><rect codeLine="1" fill="#F1F1F1" height="83.2188" id="HRM" rx="2.5" ry="2.5" style="stroke:#181818;stroke-width:0.5;" width="181" x="24" y="7"/><ellipse cx="95.25" cy="23" fill="#ADD1B2" rx="11" ry="11" style="stroke:#181818;stroke-width:1.0;"/><path d="M98.0156,18.875 Q98.1719,18.6563 98.3594,18.5469 Q98.5469,18.4375 98.7656,18.4375 Q99.1406,18.4375 99.375,18.7031 Q99.6094,18.9531 99.6094,19.5625 L99.6094,21.0156 Q99.6094,21.625 99.375,21.8906 Q99.1406,22.1563 98.7656,22.1563 Q98.4219,22.1563 98.2188,21.9531 Q98.0156,21.7656 97.9063,21.25 Q97.8594,20.8906 97.6719,20.7031 Q97.3438,20.3281 96.7344,20.1094 Q96.125,19.8906 95.5,19.8906 Q94.7344,19.8906 94.0938,20.2188 Q93.4688,20.5469 92.9688,21.2969 Q92.4844,22.0469 92.4844,23.0781 L92.4844,24.1719 Q92.4844,25.4063 93.375,26.2344 Q94.2656,27.0469 95.8594,27.0469 Q96.7969,27.0469 97.4531,26.7969 Q97.8438,26.6406 98.2656,26.2031 Q98.5313,25.9375 98.6719,25.8594 Q98.8281,25.7813 99.0313,25.7813 Q99.3594,25.7813 99.6094,26.0469 Q99.875,26.2969 99.875,26.6406 Q99.875,26.9844 99.5313,27.3906 Q99.0313,27.9688 98.2344,28.2969 Q97.1563,28.75 95.8594,28.75 Q94.3438,28.75 93.1406,28.125 Q92.1563,27.625 91.4688,26.5625 Q90.7813,25.4844 90.7813,24.2031 L90.7813,23.0469 Q90.7813,21.7188 91.3906,20.5781 Q92.0156,19.4219 93.1094,18.8125 Q94.2031,18.1875 95.4375,18.1875 Q96.1719,18.1875 96.8125,18.3594 Q97.4688,18.5156 98.0156,18.875 Z " fill="#000000"/><text fill="#000000" font-family="sans-serif" font-size="14" lengthAdjust="spacing" textLength="30" x="115.75" y="28.7285">HRM</text><line style="stroke:#181818;stroke-width:0.5;" x1="25" x2="204" y1="39" y2="39"/><line style="stroke:#181818;stroke-width:0.5;" x1="25" x2="204" y1="47" y2="47"/><ellipse cx="35" cy="61.3047" fill="#84BE84" rx="3" ry="3" style="stroke:#038048;stroke-width:1.0;"/><text fill="#000000" font-family="sans-serif" font-size="14" lengthAdjust="spacing" textLength="155" x="44" y="65.5332">RequestToRegisterJob()</text><ellipse cx="35" cy="78.9141" fill="#84BE84" rx="3" ry="3" style="stroke:#038048;stroke-width:1.0;"/><text fill="#000000" font-family="sans-serif" font-size="14" lengthAdjust="spacing" textLength="123" x="44" y="83.1426">ProvideJobDetails()</text></g><!--class System--><g id="elem_System"><rect codeLine="6" fill="#F1F1F1" height="171.2656" id="System" rx="2.5" ry="2.5" style="stroke:#181818;stroke-width:0.5;" width="215" x="7" y="168"/><ellipse cx="87.25" cy="184" fill="#ADD1B2" rx="11" ry="11" style="stroke:#181818;stroke-width:1.0;"/><path d="M90.0156,179.875 Q90.1719,179.6563 90.3594,179.5469 Q90.5469,179.4375 90.7656,179.4375 Q91.1406,179.4375 91.375,179.7031 Q91.6094,179.9531 91.6094,180.5625 L91.6094,182.0156 Q91.6094,182.625 91.375,182.8906 Q91.1406,183.1563 90.7656,183.1563 Q90.4219,183.1563 90.2188,182.9531 Q90.0156,182.7656 89.9063,182.25 Q89.8594,181.8906 89.6719,181.7031 Q89.3438,181.3281 88.7344,181.1094 Q88.125,180.8906 87.5,180.8906 Q86.7344,180.8906 86.0938,181.2188 Q85.4688,181.5469 84.9688,182.2969 Q84.4844,183.0469 84.4844,184.0781 L84.4844,185.1719 Q84.4844,186.4063 85.375,187.2344 Q86.2656,188.0469 87.8594,188.0469 Q88.7969,188.0469 89.4531,187.7969 Q89.8438,187.6406 90.2656,187.2031 Q90.5313,186.9375 90.6719,186.8594 Q90.8281,186.7813 91.0313,186.7813 Q91.3594,186.7813 91.6094,187.0469 Q91.875,187.2969 91.875,187.6406 Q91.875,187.9844 91.5313,188.3906 Q91.0313,188.9688 90.2344,189.2969 Q89.1563,189.75 87.8594,189.75 Q86.3438,189.75 85.1406,189.125 Q84.1563,188.625 83.4688,187.5625 Q82.7813,186.4844 82.7813,185.2031 L82.7813,184.0469 Q82.7813,182.7188 83.3906,181.5781 Q84.0156,180.4219 85.1094,179.8125 Q86.2031,179.1875 87.4375,179.1875 Q88.1719,179.1875 88.8125,179.3594 Q89.4688,179.5156 90.0156,179.875 Z " fill="#000000"/><text fill="#000000" font-family="sans-serif" font-size="14" lengthAdjust="spacing" textLength="46" x="107.75" y="189.7285">System</text><line style="stroke:#181818;stroke-width:0.5;" x1="8" x2="221" y1="200" y2="200"/><line style="stroke:#181818;stroke-width:0.5;" x1="8" x2="221" y1="208" y2="208"/><ellipse cx="18" cy="222.3047" fill="#84BE84" rx="3" ry="3" style="stroke:#038048;stroke-width:1.0;"/><text fill="#000000" font-family="sans-serif" font-size="14" lengthAdjust="spacing" textLength="114" x="27" y="226.5332">ValidateRequest()</text><ellipse cx="18" cy="239.9141" fill="#84BE84" rx="3" ry="3" style="stroke:#038048;stroke-width:1.0;"/><text fill="#000000" font-family="sans-serif" font-size="14" lengthAdjust="spacing" textLength="187" x="27" y="244.1426">DisplayJobRegistrationForm()</text><ellipse cx="18" cy="257.5234" fill="#84BE84" rx="3" ry="3" style="stroke:#038048;stroke-width:1.0;"/><text fill="#000000" font-family="sans-serif" font-size="14" lengthAdjust="spacing" textLength="126" x="27" y="261.752">ValidateJobDetails()</text><ellipse cx="18" cy="275.1328" fill="#84BE84" rx="3" ry="3" style="stroke:#038048;stroke-width:1.0;"/><text fill="#000000" font-family="sans-serif" font-size="14" lengthAdjust="spacing" textLength="134" x="27" y="279.3613">SaveJobInformation()</text><ellipse cx="18" cy="292.7422" fill="#84BE84" rx="3" ry="3" style="stroke:#038048;stroke-width:1.0;"/><text fill="#000000" font-family="sans-serif" font-size="14" lengthAdjust="spacing" textLength="138" x="27" y="296.9707">NotifyInvalidRequest()</text><ellipse cx="18" cy="310.3516" fill="#84BE84" rx="3" ry="3" style="stroke:#038048;stroke-width:1.0;"/><text fill="#000000" font-family="sans-serif" font-size="14" lengthAdjust="spacing" textLength="150" x="27" y="314.5801">NotifyInvalidJobDetails()</text><ellipse cx="18" cy="327.9609" fill="#84BE84" rx="3" ry="3" style="stroke:#038048;stroke-width:1.0;"/><text fill="#000000" font-family="sans-serif" font-size="14" lengthAdjust="spacing" textLength="189" x="27" y="332.1895">NotifySuccessfulRegistration()</text></g><!--link HRM to System--><g id="link_HRM_System"><path codeLine="16" d="M114.5,90.09 C114.5,112.42 114.5,141 114.5,167.93 " fill="none" id="HRM-System" style="stroke:#181818;stroke-width:1.0;"/><text fill="#000000" font-family="sans-serif" font-size="13" lengthAdjust="spacing" textLength="77" x="115.5" y="134.4951">interacts with</text></g><!--SRC=[RP313e8m38RlUueTDOONy4oCc6WC6Ezp56qoDbq7XXZVtS5W4UEE_Vf_NIkL8EBRVCzVZFktuZay6Y1tCZbSaHpOdRaibYCyMjDY2RwKWXEeo9CtOtAm59rlhwFeB1IMmi4eZ8uKwQv4vnrXWXKEZTuOMyUMAJgR4r0XshwSwSe7XcH41-EmwZBTzkdVgJFunnjuqKW9H5MZllyMbkoFb2JJbckEsXz7I4VyYUx6FW00]--></g></svg>