<?xml version="1.0" encoding="us-ascii" standalone="no"?><svg xmlns="http://www.w3.org/2000/svg" xmlns:xlink="http://www.w3.org/1999/xlink" contentStyleType="text/css" height="480.6px" preserveAspectRatio="none" style="width:442px;height:480px;background:#FFFFFF;" version="1.1" viewBox="0 0 442 480" width="442.8px" zoomAndPan="magnify"><defs/><g><!--class AgendaController--><g id="elem_AgendaController"><rect codeLine="11" fill="#F1F1F1" height="76.718" id="AgendaController" rx="2.25" ry="2.25" style="stroke:#181818;stroke-width:0.45;" width="254.7" x="9.9" y="103.5"/><ellipse cx="83.475" cy="117.9" fill="#ADD1B2" rx="9.9" ry="9.9" style="stroke:#181818;stroke-width:0.9;"/><path d="M85.9641,114.1875 Q86.1047,113.9906 86.2734,113.8922 Q86.4422,113.7938 86.6391,113.7938 Q86.9766,113.7938 87.1875,114.0328 Q87.3984,114.2578 87.3984,114.8063 L87.3984,116.1141 Q87.3984,116.6625 87.1875,116.9016 Q86.9766,117.1406 86.6391,117.1406 Q86.3297,117.1406 86.1469,116.9578 Q85.9641,116.7891 85.8656,116.325 Q85.8234,116.0016 85.6547,115.8328 Q85.3594,115.4953 84.8109,115.2984 Q84.2625,115.1016 83.7,115.1016 Q83.0109,115.1016 82.4344,115.3969 Q81.8719,115.6922 81.4219,116.3672 Q80.9859,117.0422 80.9859,117.9703 L80.9859,118.9547 Q80.9859,120.0656 81.7875,120.8109 Q82.5891,121.5422 84.0234,121.5422 Q84.8672,121.5422 85.4578,121.3172 Q85.8094,121.1766 86.1891,120.7828 Q86.4281,120.5438 86.5547,120.4734 Q86.6953,120.4031 86.8781,120.4031 Q87.1734,120.4031 87.3984,120.6422 Q87.6375,120.8672 87.6375,121.1766 Q87.6375,121.4859 87.3281,121.8516 Q86.8781,122.3719 86.1609,122.6672 Q85.1906,123.075 84.0234,123.075 Q82.6594,123.075 81.5766,122.5125 Q80.6906,122.0625 80.0719,121.1063 Q79.4531,120.1359 79.4531,118.9828 L79.4531,117.9422 Q79.4531,116.7469 80.0016,115.7203 Q80.5641,114.6797 81.5484,114.1313 Q82.5328,113.5688 83.6438,113.5688 Q84.3047,113.5688 84.8813,113.7234 Q85.4719,113.8641 85.9641,114.1875 Z " fill="#000000"/><text fill="#000000" font-family="sans-serif" font-size="12.6" lengthAdjust="spacing" textLength="99.9" x="101.925" y="123.1172">AgendaController</text><line style="stroke:#181818;stroke-width:0.45;" x1="10.8" x2="263.7" y1="132.3" y2="132.3"/><line style="stroke:#181818;stroke-width:0.45;" x1="10.8" x2="263.7" y1="139.5" y2="139.5"/><text fill="#000000" font-family="sans-serif" font-size="12.6" lengthAdjust="spacing" textLength="117.9" x="15.3" y="156.6967">+getAgendaEntries()</text><text fill="#000000" font-family="sans-serif" font-size="12.6" lengthAdjust="spacing" textLength="243.9" x="15.3" y="173.4557">+addVehicleToAgendaEntry(vehicle, entry)</text></g><!--class VehicleController--><g id="elem_VehicleController"><rect codeLine="16" fill="#F1F1F1" height="59.959" id="VehicleController" rx="2.25" ry="2.25" style="stroke:#181818;stroke-width:0.45;" width="126" x="296.55" y="111.6"/><ellipse cx="310.05" cy="126" fill="#ADD1B2" rx="9.9" ry="9.9" style="stroke:#181818;stroke-width:0.9;"/><path d="M312.5391,122.2875 Q312.6797,122.0906 312.8484,121.9922 Q313.0172,121.8938 313.2141,121.8938 Q313.5516,121.8938 313.7625,122.1328 Q313.9734,122.3578 313.9734,122.9063 L313.9734,124.2141 Q313.9734,124.7625 313.7625,125.0016 Q313.5516,125.2406 313.2141,125.2406 Q312.9047,125.2406 312.7219,125.0578 Q312.5391,124.8891 312.4406,124.425 Q312.3984,124.1016 312.2297,123.9328 Q311.9344,123.5953 311.3859,123.3984 Q310.8375,123.2016 310.275,123.2016 Q309.5859,123.2016 309.0094,123.4969 Q308.4469,123.7922 307.9969,124.4672 Q307.5609,125.1422 307.5609,126.0703 L307.5609,127.0547 Q307.5609,128.1656 308.3625,128.9109 Q309.1641,129.6422 310.5984,129.6422 Q311.4422,129.6422 312.0328,129.4172 Q312.3844,129.2766 312.7641,128.8828 Q313.0031,128.6438 313.1297,128.5734 Q313.2703,128.5031 313.4531,128.5031 Q313.7484,128.5031 313.9734,128.7422 Q314.2125,128.9672 314.2125,129.2766 Q314.2125,129.5859 313.9031,129.9516 Q313.4531,130.4719 312.7359,130.7672 Q311.7656,131.175 310.5984,131.175 Q309.2344,131.175 308.1516,130.6125 Q307.2656,130.1625 306.6469,129.2063 Q306.0281,128.2359 306.0281,127.0828 L306.0281,126.0422 Q306.0281,124.8469 306.5766,123.8203 Q307.1391,122.7797 308.1234,122.2313 Q309.1078,121.6688 310.2188,121.6688 Q310.8797,121.6688 311.4563,121.8234 Q312.0469,121.9641 312.5391,122.2875 Z " fill="#000000"/><text fill="#000000" font-family="sans-serif" font-size="12.6" lengthAdjust="spacing" textLength="97.2" x="322.65" y="131.2172">VehicleController</text><line style="stroke:#181818;stroke-width:0.45;" x1="297.45" x2="421.65" y1="140.4" y2="140.4"/><line style="stroke:#181818;stroke-width:0.45;" x1="297.45" x2="421.65" y1="147.6" y2="147.6"/><text fill="#000000" font-family="sans-serif" font-size="12.6" lengthAdjust="spacing" textLength="81.9" x="301.95" y="164.7967">+getVehicles()</text></g><!--class AddVehicleToAgendaEntryUI--><g id="elem_AddVehicleToAgendaEntryUI"><rect codeLine="20" fill="#F1F1F1" height="43.2" id="AddVehicleToAgendaEntryUI" rx="2.25" ry="2.25" style="stroke:#181818;stroke-width:0.45;" width="192.6" x="151.65" y="6.3"/><ellipse cx="165.15" cy="20.7" fill="#ADD1B2" rx="9.9" ry="9.9" style="stroke:#181818;stroke-width:0.9;"/><path d="M167.6391,16.9875 Q167.7797,16.7906 167.9484,16.6922 Q168.1172,16.5938 168.3141,16.5938 Q168.6516,16.5938 168.8625,16.8328 Q169.0734,17.0578 169.0734,17.6063 L169.0734,18.9141 Q169.0734,19.4625 168.8625,19.7016 Q168.6516,19.9406 168.3141,19.9406 Q168.0047,19.9406 167.8219,19.7578 Q167.6391,19.5891 167.5406,19.125 Q167.4984,18.8016 167.3297,18.6328 Q167.0344,18.2953 166.4859,18.0984 Q165.9375,17.9016 165.375,17.9016 Q164.6859,17.9016 164.1094,18.1969 Q163.5469,18.4922 163.0969,19.1672 Q162.6609,19.8422 162.6609,20.7703 L162.6609,21.7547 Q162.6609,22.8656 163.4625,23.6109 Q164.2641,24.3422 165.6984,24.3422 Q166.5422,24.3422 167.1328,24.1172 Q167.4844,23.9766 167.8641,23.5828 Q168.1031,23.3438 168.2297,23.2734 Q168.3703,23.2031 168.5531,23.2031 Q168.8484,23.2031 169.0734,23.4422 Q169.3125,23.6672 169.3125,23.9766 Q169.3125,24.2859 169.0031,24.6516 Q168.5531,25.1719 167.8359,25.4672 Q166.8656,25.875 165.6984,25.875 Q164.3344,25.875 163.2516,25.3125 Q162.3656,24.8625 161.7469,23.9063 Q161.1281,22.9359 161.1281,21.7828 L161.1281,20.7422 Q161.1281,19.5469 161.6766,18.5203 Q162.2391,17.4797 163.2234,16.9313 Q164.2078,16.3688 165.3188,16.3688 Q165.9797,16.3688 166.5563,16.5234 Q167.1469,16.6641 167.6391,16.9875 Z " fill="#000000"/><text fill="#000000" font-family="sans-serif" font-size="12.6" lengthAdjust="spacing" textLength="163.8" x="177.75" y="25.9172">AddVehicleToAgendaEntryUI</text><line style="stroke:#181818;stroke-width:0.45;" x1="152.55" x2="343.35" y1="35.1" y2="35.1"/><line style="stroke:#181818;stroke-width:0.45;" x1="152.55" x2="343.35" y1="42.3" y2="42.3"/></g><!--class VehicleRepository--><g id="elem_VehicleRepository"><rect codeLine="23" fill="#F1F1F1" height="76.718" id="VehicleRepository" rx="2.25" ry="2.25" style="stroke:#181818;stroke-width:0.45;" width="140.4" x="296.55" y="390.15"/><ellipse cx="314.1" cy="404.55" fill="#ADD1B2" rx="9.9" ry="9.9" style="stroke:#181818;stroke-width:0.9;"/><path d="M316.5891,400.8375 Q316.7297,400.6406 316.8984,400.5422 Q317.0672,400.4438 317.2641,400.4438 Q317.6016,400.4438 317.8125,400.6828 Q318.0234,400.9078 318.0234,401.4563 L318.0234,402.7641 Q318.0234,403.3125 317.8125,403.5516 Q317.6016,403.7906 317.2641,403.7906 Q316.9547,403.7906 316.7719,403.6078 Q316.5891,403.4391 316.4906,402.975 Q316.4484,402.6516 316.2797,402.4828 Q315.9844,402.1453 315.4359,401.9484 Q314.8875,401.7516 314.325,401.7516 Q313.6359,401.7516 313.0594,402.0469 Q312.4969,402.3422 312.0469,403.0172 Q311.6109,403.6922 311.6109,404.6203 L311.6109,405.6047 Q311.6109,406.7156 312.4125,407.4609 Q313.2141,408.1922 314.6484,408.1922 Q315.4922,408.1922 316.0828,407.9672 Q316.4344,407.8266 316.8141,407.4328 Q317.0531,407.1938 317.1797,407.1234 Q317.3203,407.0531 317.5031,407.0531 Q317.7984,407.0531 318.0234,407.2922 Q318.2625,407.5172 318.2625,407.8266 Q318.2625,408.1359 317.9531,408.5016 Q317.5031,409.0219 316.7859,409.3172 Q315.8156,409.725 314.6484,409.725 Q313.2844,409.725 312.2016,409.1625 Q311.3156,408.7125 310.6969,407.7563 Q310.0781,406.7859 310.0781,405.6328 L310.0781,404.5922 Q310.0781,403.3969 310.6266,402.3703 Q311.1891,401.3297 312.1734,400.7813 Q313.1578,400.2188 314.2688,400.2188 Q314.9297,400.2188 315.5063,400.3734 Q316.0969,400.5141 316.5891,400.8375 Z " fill="#000000"/><text fill="#000000" font-family="sans-serif" font-size="12.6" lengthAdjust="spacing" textLength="102.6" x="327.6" y="409.7672">VehicleRepository</text><line style="stroke:#181818;stroke-width:0.45;" x1="297.45" x2="436.05" y1="418.95" y2="418.95"/><text fill="#000000" font-family="sans-serif" font-size="12.6" lengthAdjust="spacing" textLength="129.6" x="301.95" y="436.1467">-List&lt;Vehicle&gt; vehicles</text><line style="stroke:#181818;stroke-width:0.45;" x1="297.45" x2="436.05" y1="442.909" y2="442.909"/><text fill="#000000" font-family="sans-serif" font-size="12.6" lengthAdjust="spacing" textLength="81.9" x="301.95" y="460.1057">+getVehicles()</text></g><!--class Agenda--><g id="elem_Agenda"><rect codeLine="28" fill="#F1F1F1" height="93.477" id="Agenda" rx="2.25" ry="2.25" style="stroke:#181818;stroke-width:0.45;" width="254.7" x="6.3" y="381.6"/><ellipse cx="107.775" cy="396" fill="#ADD1B2" rx="9.9" ry="9.9" style="stroke:#181818;stroke-width:0.9;"/><path d="M110.2641,392.2875 Q110.4047,392.0906 110.5734,391.9922 Q110.7422,391.8938 110.9391,391.8938 Q111.2766,391.8938 111.4875,392.1328 Q111.6984,392.3578 111.6984,392.9063 L111.6984,394.2141 Q111.6984,394.7625 111.4875,395.0016 Q111.2766,395.2406 110.9391,395.2406 Q110.6297,395.2406 110.4469,395.0578 Q110.2641,394.8891 110.1656,394.425 Q110.1234,394.1016 109.9547,393.9328 Q109.6594,393.5953 109.1109,393.3984 Q108.5625,393.2016 108,393.2016 Q107.3109,393.2016 106.7344,393.4969 Q106.1719,393.7922 105.7219,394.4672 Q105.2859,395.1422 105.2859,396.0703 L105.2859,397.0547 Q105.2859,398.1656 106.0875,398.9109 Q106.8891,399.6422 108.3234,399.6422 Q109.1672,399.6422 109.7578,399.4172 Q110.1094,399.2766 110.4891,398.8828 Q110.7281,398.6438 110.8547,398.5734 Q110.9953,398.5031 111.1781,398.5031 Q111.4734,398.5031 111.6984,398.7422 Q111.9375,398.9672 111.9375,399.2766 Q111.9375,399.5859 111.6281,399.9516 Q111.1781,400.4719 110.4609,400.7672 Q109.4906,401.175 108.3234,401.175 Q106.9594,401.175 105.8766,400.6125 Q104.9906,400.1625 104.3719,399.2063 Q103.7531,398.2359 103.7531,397.0828 L103.7531,396.0422 Q103.7531,394.8469 104.3016,393.8203 Q104.8641,392.7797 105.8484,392.2313 Q106.8328,391.6688 107.9438,391.6688 Q108.6047,391.6688 109.1813,391.8234 Q109.7719,391.9641 110.2641,392.2875 Z " fill="#000000"/><text fill="#000000" font-family="sans-serif" font-size="12.6" lengthAdjust="spacing" textLength="44.1" x="126.225" y="401.2172">Agenda</text><line style="stroke:#181818;stroke-width:0.45;" x1="7.2" x2="260.1" y1="410.4" y2="410.4"/><text fill="#000000" font-family="sans-serif" font-size="12.6" lengthAdjust="spacing" textLength="154.8" x="11.7" y="427.5967">-List&lt;AgendaEntry&gt; entries</text><line style="stroke:#181818;stroke-width:0.45;" x1="7.2" x2="260.1" y1="434.359" y2="434.359"/><text fill="#000000" font-family="sans-serif" font-size="12.6" lengthAdjust="spacing" textLength="117.9" x="11.7" y="451.5557">+getAgendaEntries()</text><text fill="#000000" font-family="sans-serif" font-size="12.6" lengthAdjust="spacing" textLength="243.9" x="11.7" y="468.3146">+addVehicleToAgendaEntry(vehicle, entry)</text></g><!--class Repositories--><g id="elem_Repositories"><rect codeLine="34" fill="#F1F1F1" height="93.477" id="Repositories" rx="2.25" ry="2.25" style="stroke:#181818;stroke-width:0.45;" width="147.6" x="175.05" y="234"/><ellipse cx="210.015" cy="248.4" fill="#ADD1B2" rx="9.9" ry="9.9" style="stroke:#181818;stroke-width:0.9;"/><path d="M212.5041,244.6875 Q212.6447,244.4906 212.8134,244.3922 Q212.9822,244.2938 213.1791,244.2938 Q213.5166,244.2938 213.7275,244.5328 Q213.9384,244.7578 213.9384,245.3063 L213.9384,246.6141 Q213.9384,247.1625 213.7275,247.4016 Q213.5166,247.6406 213.1791,247.6406 Q212.8697,247.6406 212.6869,247.4578 Q212.5041,247.2891 212.4056,246.825 Q212.3634,246.5016 212.1947,246.3328 Q211.8994,245.9953 211.3509,245.7984 Q210.8025,245.6016 210.24,245.6016 Q209.5509,245.6016 208.9744,245.8969 Q208.4119,246.1922 207.9619,246.8672 Q207.5259,247.5422 207.5259,248.4703 L207.5259,249.4547 Q207.5259,250.5656 208.3275,251.3109 Q209.1291,252.0422 210.5634,252.0422 Q211.4072,252.0422 211.9978,251.8172 Q212.3494,251.6766 212.7291,251.2828 Q212.9681,251.0438 213.0947,250.9734 Q213.2353,250.9031 213.4181,250.9031 Q213.7134,250.9031 213.9384,251.1422 Q214.1775,251.3672 214.1775,251.6766 Q214.1775,251.9859 213.8681,252.3516 Q213.4181,252.8719 212.7009,253.1672 Q211.7306,253.575 210.5634,253.575 Q209.1994,253.575 208.1166,253.0125 Q207.2306,252.5625 206.6119,251.6063 Q205.9931,250.6359 205.9931,249.4828 L205.9931,248.4422 Q205.9931,247.2469 206.5416,246.2203 Q207.1041,245.1797 208.0884,244.6313 Q209.0728,244.0688 210.1838,244.0688 Q210.8447,244.0688 211.4213,244.2234 Q212.0119,244.3641 212.5041,244.6875 Z " fill="#000000"/><text fill="#000000" font-family="sans-serif" font-size="12.6" lengthAdjust="spacing" textLength="71.1" x="227.385" y="253.6172">Repositories</text><line style="stroke:#181818;stroke-width:0.45;" x1="175.95" x2="321.75" y1="262.8" y2="262.8"/><line style="stroke:#181818;stroke-width:0.45;" x1="175.95" x2="321.75" y1="270" y2="270"/><text fill="#000000" font-family="sans-serif" font-size="12.6" lengthAdjust="spacing" textLength="81.9" x="180.45" y="287.1967">+getInstance()</text><text fill="#000000" font-family="sans-serif" font-size="12.6" lengthAdjust="spacing" textLength="78.3" x="180.45" y="303.9557">+getAgenda()</text><text fill="#000000" font-family="sans-serif" font-size="12.6" lengthAdjust="spacing" textLength="136.8" x="180.45" y="320.7146">+getVehicleRepository()</text></g><!--link AddVehicleToAgendaEntryUI to AgendaController--><g id="link_AddVehicleToAgendaEntryUI_AgendaController"><path codeLine="41" d="M227.385,49.617 C212.508,64.674 195.7732,81.6036 178.0702,99.5316 " fill="none" id="AddVehicleToAgendaEntryUI-to-AgendaController" style="stroke:#181818;stroke-width:0.9;stroke-dasharray:7.0,7.0;"/><polygon fill="#181818" points="174.276,103.374,182.5289,100.1398,177.4378,100.172,177.4057,95.0809,174.276,103.374" style="stroke:#181818;stroke-width:0.9;"/></g><!--link AddVehicleToAgendaEntryUI to VehicleController--><g id="link_AddVehicleToAgendaEntryUI_VehicleController"><path codeLine="42" d="M268.677,49.617 C285.948,66.951 306.9506,88.0366 326.2826,107.4496 " fill="none" id="AddVehicleToAgendaEntryUI-to-VehicleController" style="stroke:#181818;stroke-width:0.9;stroke-dasharray:7.0,7.0;"/><polygon fill="#181818" points="330.093,111.276,326.9283,102.9962,326.9177,108.0874,321.8265,108.0767,330.093,111.276" style="stroke:#181818;stroke-width:0.9;"/></g><!--link VehicleController to Repositories--><g id="link_VehicleController_Repositories"><path codeLine="43" d="M335.799,172.098 C321.318,190.053 305.881,209.1965 289.447,229.5635 " fill="none" id="VehicleController-to-Repositories" style="stroke:#181818;stroke-width:0.9;stroke-dasharray:7.0,7.0;"/><polygon fill="#181818" points="286.056,233.766,293.9442,229.7229,288.8818,230.2639,288.3408,225.2016,286.056,233.766" style="stroke:#181818;stroke-width:0.9;"/></g><!--link AgendaController to Repositories--><g id="link_AgendaController_Repositories"><path codeLine="44" d="M167.742,180.153 C181.233,196.74 193.8196,212.215 208.0216,229.684 " fill="none" id="AgendaController-to-Repositories" style="stroke:#181818;stroke-width:0.9;stroke-dasharray:7.0,7.0;"/><polygon fill="#181818" points="211.428,233.874,209.1117,225.318,208.5893,230.3823,203.525,229.8599,211.428,233.874" style="stroke:#181818;stroke-width:0.9;"/></g><!--link Repositories to VehicleRepository--><g id="link_Repositories_VehicleRepository"><path codeLine="45" d="M286.155,327.834 C302.346,347.859 317.6708,366.8079 332.9888,385.7529 " fill="none" id="Repositories-to-VehicleRepository" style="stroke:#181818;stroke-width:0.9;stroke-dasharray:7.0,7.0;"/><polygon fill="#181818" points="336.384,389.952,334.0906,381.3899,333.5547,386.4527,328.4918,385.9168,336.384,389.952" style="stroke:#181818;stroke-width:0.9;"/></g><!--link Repositories to Agenda--><g id="link_Repositories_Agenda"><path codeLine="46" d="M212.4,327.834 C198.891,344.934 186.9205,360.0827 173.4115,377.1827 " fill="none" id="Repositories-to-Agenda" style="stroke:#181818;stroke-width:0.9;stroke-dasharray:7.0,7.0;"/><polygon fill="#181818" points="170.064,381.42,177.91,377.2957,172.8535,377.8889,172.2603,372.8324,170.064,381.42" style="stroke:#181818;stroke-width:0.9;"/></g><!--link VehicleController to VehicleRepository--><g id="link_VehicleController_VehicleRepository"><path codeLine="47" d="M360.297,172.062 C361.611,224.154 364.2099,327.1607 365.6679,384.5627 " fill="none" id="VehicleController-to-VehicleRepository" style="stroke:#181818;stroke-width:0.9;stroke-dasharray:7.0,7.0;"/><polygon fill="#181818" points="365.805,389.961,369.1982,381.7722,365.6907,385.4625,362.0005,381.955,365.805,389.961" style="stroke:#181818;stroke-width:0.9;"/></g><!--link AgendaController to Agenda--><g id="link_AgendaController_Agenda"><path codeLine="48" d="M136.773,180.18 C136.125,232.002 135.0047,319.9864 134.3027,375.9844 " fill="none" id="AgendaController-to-Agenda" style="stroke:#181818;stroke-width:0.9;stroke-dasharray:7.0,7.0;"/><polygon fill="#181818" points="134.235,381.384,137.9363,373.3298,134.2914,376.8844,130.7368,373.2395,134.235,381.384" style="stroke:#181818;stroke-width:0.9;"/></g><!--SRC=[hLAzJiCm4Dxz5BUr5L3n0AXIXHWgCL5WDyurETNrHVOL513lJjAOrCMfkk3D_lxknvEm9LThhtUmOyUcyhn34Bz7TKHgRRQwnBKq5i6Z4UrAcn92fGl-85V2HjkG8fOSIbCZr6oRxg8c8o1xOPMeZDKXB4KylUq5LuRTcZuHRfMQMDm828EdiX8eg2k7s2brqC2oH5VeUtRYsLhqyAMWFLTGelJOGmiHXkai0heeNh4YO_6PZunc-ju_NWDsrvdw_es8xF6C27RsWs0vdl2oQeL_NP-mva32leckD_18GUuYl81OLhWGUOWvjKYY5uUcA7Nvf-4CzRSkwLnMBhI_nk3WF4IcBzaG-fxK-GdEvujivnVesVvKlj6EbxQYid-LCKuwJtAEpUIKtlLCVguVBI9wWFe1]--></g></svg>