<?xml version="1.0" encoding="us-ascii" standalone="no"?><svg xmlns="http://www.w3.org/2000/svg" xmlns:xlink="http://www.w3.org/1999/xlink" contentStyleType="text/css" height="880px" preserveAspectRatio="none" style="width:1079px;height:880px;background:#FFFFFF;" version="1.1" viewBox="0 0 1079 880" width="1079.2px" zoomAndPan="magnify"><defs/><g><rect fill="#FFFFFF" height="701.7188" style="stroke:#181818;stroke-width:0.8000000000000002;" width="8" x="61.6" y="89.7938"/><rect fill="#FFFFFF" height="225.2953" style="stroke:#181818;stroke-width:0.8000000000000002;" width="8" x="341.6" y="108.4266"/><rect fill="#FFFFFF" height="225.2953" style="stroke:#181818;stroke-width:0.8000000000000002;" width="8" x="341.6" y="358.7547"/><rect fill="#FFFFFF" height="25.0328" style="stroke:#181818;stroke-width:0.8000000000000002;" width="8" x="341.6" y="609.0828"/><rect fill="#FFFFFF" height="125.1641" style="stroke:#181818;stroke-width:0.8000000000000002;" width="8" x="341.6" y="659.1484"/><rect fill="#FFFFFF" height="175.2297" style="stroke:#181818;stroke-width:0.8000000000000002;" width="8" x="568.8" y="133.4594"/><rect fill="#FFFFFF" height="75.0984" style="stroke:#181818;stroke-width:0.8000000000000002;" width="8" x="568.8" y="684.1813"/><rect fill="#FFFFFF" height="175.2297" style="stroke:#181818;stroke-width:0.8000000000000002;" width="8" x="678.8" y="383.7875"/><rect fill="#FFFFFF" height="25.0328" style="stroke:#181818;stroke-width:0.8000000000000002;" width="8" x="776.4" y="158.4922"/><rect fill="#FFFFFF" height="25.0328" style="stroke:#181818;stroke-width:0.8000000000000002;" width="8" x="776.4" y="408.8203"/><rect fill="#FFFFFF" height="25.0328" style="stroke:#181818;stroke-width:0.8000000000000002;" width="8" x="860.4" y="208.5578"/><rect fill="#FFFFFF" height="25.0328" style="stroke:#181818;stroke-width:0.8000000000000002;" width="8" x="860.4" y="458.8859"/><rect fill="#FFFFFF" height="25.0328" style="stroke:#181818;stroke-width:0.8000000000000002;" width="8" x="932" y="258.6234"/><rect fill="#FFFFFF" height="25.0328" style="stroke:#181818;stroke-width:0.8000000000000002;" width="8" x="932" y="709.2141"/><rect fill="#FFFFFF" height="25.0328" style="stroke:#181818;stroke-width:0.8000000000000002;" width="8" x="1018.4" y="508.9516"/><line style="stroke:#181818;stroke-width:0.4000000000000001;stroke-dasharray:5.0,5.0;" x1="65.6" x2="65.6" y1="81.7938" y2="798.7125"/><line style="stroke:#181818;stroke-width:0.4000000000000001;stroke-dasharray:5.0,5.0;" x1="345.6" x2="345.6" y1="81.7938" y2="798.7125"/><line style="stroke:#181818;stroke-width:0.4000000000000001;stroke-dasharray:5.0,5.0;" x1="572.4" x2="572.4" y1="81.7938" y2="798.7125"/><line style="stroke:#181818;stroke-width:0.4000000000000001;stroke-dasharray:5.0,5.0;" x1="682.8" x2="682.8" y1="81.7938" y2="798.7125"/><line style="stroke:#181818;stroke-width:0.4000000000000001;stroke-dasharray:5.0,5.0;" x1="780" x2="780" y1="81.7938" y2="798.7125"/><line style="stroke:#181818;stroke-width:0.4000000000000001;stroke-dasharray:5.0,5.0;" x1="864" x2="864" y1="81.7938" y2="798.7125"/><line style="stroke:#181818;stroke-width:0.4000000000000001;stroke-dasharray:5.0,5.0;" x1="936" x2="936" y1="81.7938" y2="798.7125"/><line style="stroke:#181818;stroke-width:0.4000000000000001;stroke-dasharray:5.0,5.0;" x1="1022.4" x2="1022.4" y1="81.7938" y2="798.7125"/><text fill="#000000" font-family="sans-serif" font-size="11.2" lengthAdjust="spacing" textLength="115.2" x="4" y="64.0859">Green Space Manager</text><text fill="#000000" font-family="sans-serif" font-size="11.2" lengthAdjust="spacing" textLength="32.8" x="46.8" y="78.9828">(GSM)</text><ellipse cx="65.6" cy="10.8" fill="#E3E3E3" rx="6.4" ry="6.4" style="stroke:#181818;stroke-width:0.4000000000000001;"/><path d="M65.6,17.2 L65.6,38.8 M55.2,23.6 L76,23.6 M65.6,38.8 L55.2,50.8 M65.6,38.8 L76,50.8 " fill="none" style="stroke:#181818;stroke-width:0.4000000000000001;"/><text fill="#000000" font-family="sans-serif" font-size="11.2" lengthAdjust="spacing" textLength="115.2" x="4" y="809.9984">Green Space Manager</text><text fill="#000000" font-family="sans-serif" font-size="11.2" lengthAdjust="spacing" textLength="32.8" x="46.8" y="824.8953">(GSM)</text><ellipse cx="65.6" cy="834.5063" fill="#E3E3E3" rx="6.4" ry="6.4" style="stroke:#181818;stroke-width:0.4000000000000001;"/><path d="M65.6,840.9063 L65.6,862.5063 M55.2,847.3063 L76,847.3063 M65.6,862.5063 L55.2,874.5063 M65.6,862.5063 L76,874.5063 " fill="none" style="stroke:#181818;stroke-width:0.4000000000000001;"/><rect fill="#E3E3E3" height="26.0969" rx="2" ry="2" style="stroke:#181818;stroke-width:0.4000000000000001;" width="160" x="265.6" y="54.8969"/><text fill="#000000" font-family="sans-serif" font-size="11.2" lengthAdjust="spacing" textLength="148.8" x="271.2" y="72.5828">:AddVehicleToAgendaEntryUI</text><rect fill="#E3E3E3" height="26.0969" rx="2" ry="2" style="stroke:#181818;stroke-width:0.4000000000000001;" width="160" x="265.6" y="797.9125"/><text fill="#000000" font-family="sans-serif" font-size="11.2" lengthAdjust="spacing" textLength="148.8" x="271.2" y="815.5984">:AddVehicleToAgendaEntryUI</text><rect fill="#E3E3E3" height="26.0969" rx="2" ry="2" style="stroke:#181818;stroke-width:0.4000000000000001;" width="103.2" x="521.2" y="54.8969"/><text fill="#000000" font-family="sans-serif" font-size="11.2" lengthAdjust="spacing" textLength="92" x="526.8" y="72.5828">:AgendaController</text><rect fill="#E3E3E3" height="26.0969" rx="2" ry="2" style="stroke:#181818;stroke-width:0.4000000000000001;" width="103.2" x="521.2" y="797.9125"/><text fill="#000000" font-family="sans-serif" font-size="11.2" lengthAdjust="spacing" textLength="92" x="526.8" y="815.5984">:AgendaController</text><rect fill="#E3E3E3" height="26.0969" rx="2" ry="2" style="stroke:#181818;stroke-width:0.4000000000000001;" width="100.8" x="632.4" y="54.8969"/><text fill="#000000" font-family="sans-serif" font-size="11.2" lengthAdjust="spacing" textLength="89.6" x="638" y="72.5828">:VehicleController</text><rect fill="#E3E3E3" height="26.0969" rx="2" ry="2" style="stroke:#181818;stroke-width:0.4000000000000001;" width="100.8" x="632.4" y="797.9125"/><text fill="#000000" font-family="sans-serif" font-size="11.2" lengthAdjust="spacing" textLength="89.6" x="638" y="815.5984">:VehicleController</text><rect fill="#E3E3E3" height="26.0969" rx="2" ry="2" style="stroke:#181818;stroke-width:0.4000000000000001;" width="77.6" x="741.6" y="54.8969"/><text fill="#000000" font-family="sans-serif" font-size="11.2" lengthAdjust="spacing" textLength="66.4" x="747.2" y="72.5828">:Repositories</text><rect fill="#E3E3E3" height="26.0969" rx="2" ry="2" style="stroke:#181818;stroke-width:0.4000000000000001;" width="77.6" x="741.6" y="797.9125"/><text fill="#000000" font-family="sans-serif" font-size="11.2" lengthAdjust="spacing" textLength="66.4" x="747.2" y="815.5984">:Repositories</text><rect fill="#E3E3E3" height="40.9938" rx="2" ry="2" style="stroke:#181818;stroke-width:0.4000000000000001;" width="74.4" x="827.2" y="40"/><text fill="#000000" font-family="sans-serif" font-size="11.2" lengthAdjust="spacing" textLength="62.4" x="833.2" y="57.6859">repositories:</text><text fill="#000000" font-family="sans-serif" font-size="11.2" lengthAdjust="spacing" textLength="63.2" x="832.8" y="72.5828">Repositories</text><rect fill="#E3E3E3" height="40.9938" rx="2" ry="2" style="stroke:#181818;stroke-width:0.4000000000000001;" width="74.4" x="827.2" y="797.9125"/><text fill="#000000" font-family="sans-serif" font-size="11.2" lengthAdjust="spacing" textLength="62.4" x="833.2" y="815.5984">repositories:</text><text fill="#000000" font-family="sans-serif" font-size="11.2" lengthAdjust="spacing" textLength="63.2" x="832.8" y="830.4953">Repositories</text><rect fill="#E3E3E3" height="40.9938" rx="2" ry="2" style="stroke:#181818;stroke-width:0.4000000000000001;" width="52.8" x="909.6" y="40"/><text fill="#000000" font-family="sans-serif" font-size="11.2" lengthAdjust="spacing" textLength="41.6" x="915.2" y="57.6859">agenda:</text><text fill="#000000" font-family="sans-serif" font-size="11.2" lengthAdjust="spacing" textLength="39.2" x="916.4" y="72.5828">Agenda</text><rect fill="#E3E3E3" height="40.9938" rx="2" ry="2" style="stroke:#181818;stroke-width:0.4000000000000001;" width="52.8" x="909.6" y="797.9125"/><text fill="#000000" font-family="sans-serif" font-size="11.2" lengthAdjust="spacing" textLength="41.6" x="915.2" y="815.5984">agenda:</text><text fill="#000000" font-family="sans-serif" font-size="11.2" lengthAdjust="spacing" textLength="39.2" x="916.4" y="830.4953">Agenda</text><rect fill="#E3E3E3" height="40.9938" rx="2" ry="2" style="stroke:#181818;stroke-width:0.4000000000000001;" width="104" x="970.4" y="40"/><text fill="#000000" font-family="sans-serif" font-size="11.2" lengthAdjust="spacing" textLength="92.8" x="976" y="57.6859">vehicleRepository:</text><text fill="#000000" font-family="sans-serif" font-size="11.2" lengthAdjust="spacing" textLength="91.2" x="976.8" y="72.5828">VehicleRepository</text><rect fill="#E3E3E3" height="40.9938" rx="2" ry="2" style="stroke:#181818;stroke-width:0.4000000000000001;" width="104" x="970.4" y="797.9125"/><text fill="#000000" font-family="sans-serif" font-size="11.2" lengthAdjust="spacing" textLength="92.8" x="976" y="815.5984">vehicleRepository:</text><text fill="#000000" font-family="sans-serif" font-size="11.2" lengthAdjust="spacing" textLength="91.2" x="976.8" y="830.4953">VehicleRepository</text><rect fill="#FFFFFF" height="701.7188" style="stroke:#181818;stroke-width:0.8000000000000002;" width="8" x="61.6" y="89.7938"/><rect fill="#FFFFFF" height="225.2953" style="stroke:#181818;stroke-width:0.8000000000000002;" width="8" x="341.6" y="108.4266"/><rect fill="#FFFFFF" height="225.2953" style="stroke:#181818;stroke-width:0.8000000000000002;" width="8" x="341.6" y="358.7547"/><rect fill="#FFFFFF" height="25.0328" style="stroke:#181818;stroke-width:0.8000000000000002;" width="8" x="341.6" y="609.0828"/><rect fill="#FFFFFF" height="125.1641" style="stroke:#181818;stroke-width:0.8000000000000002;" width="8" x="341.6" y="659.1484"/><rect fill="#FFFFFF" height="175.2297" style="stroke:#181818;stroke-width:0.8000000000000002;" width="8" x="568.8" y="133.4594"/><rect fill="#FFFFFF" height="75.0984" style="stroke:#181818;stroke-width:0.8000000000000002;" width="8" x="568.8" y="684.1813"/><rect fill="#FFFFFF" height="175.2297" style="stroke:#181818;stroke-width:0.8000000000000002;" width="8" x="678.8" y="383.7875"/><rect fill="#FFFFFF" height="25.0328" style="stroke:#181818;stroke-width:0.8000000000000002;" width="8" x="776.4" y="158.4922"/><rect fill="#FFFFFF" height="25.0328" style="stroke:#181818;stroke-width:0.8000000000000002;" width="8" x="776.4" y="408.8203"/><rect fill="#FFFFFF" height="25.0328" style="stroke:#181818;stroke-width:0.8000000000000002;" width="8" x="860.4" y="208.5578"/><rect fill="#FFFFFF" height="25.0328" style="stroke:#181818;stroke-width:0.8000000000000002;" width="8" x="860.4" y="458.8859"/><rect fill="#FFFFFF" height="25.0328" style="stroke:#181818;stroke-width:0.8000000000000002;" width="8" x="932" y="258.6234"/><rect fill="#FFFFFF" height="25.0328" style="stroke:#181818;stroke-width:0.8000000000000002;" width="8" x="932" y="709.2141"/><rect fill="#FFFFFF" height="25.0328" style="stroke:#181818;stroke-width:0.8000000000000002;" width="8" x="1018.4" y="508.9516"/><polygon fill="#181818" points="332,105.2266,340,108.4266,332,111.6266,335.2,108.4266" style="stroke:#181818;stroke-width:0.8000000000000002;"/><line style="stroke:#181818;stroke-width:0.8000000000000002;" x1="69.6" x2="336.8" y1="108.4266" y2="108.4266"/><text fill="#000000" font-family="sans-serif" font-size="10.4" font-weight="bold" lengthAdjust="spacing" textLength="5.6" x="75.2" y="104.2164">1</text><text fill="#000000" font-family="sans-serif" font-size="10.4" lengthAdjust="spacing" textLength="192.8" x="84" y="104.2164">requests to assign one vehicle to an entry</text><polygon fill="#181818" points="559.2,130.2594,567.2,133.4594,559.2,136.6594,562.4,133.4594" style="stroke:#181818;stroke-width:0.8000000000000002;"/><line style="stroke:#181818;stroke-width:0.8000000000000002;" x1="349.6" x2="564" y1="133.4594" y2="133.4594"/><text fill="#000000" font-family="sans-serif" font-size="10.4" font-weight="bold" lengthAdjust="spacing" textLength="5.6" x="355.2" y="129.2492">2</text><text fill="#000000" font-family="sans-serif" font-size="10.4" lengthAdjust="spacing" textLength="88.8" x="364" y="129.2492">getAgendaEntries()</text><polygon fill="#181818" points="766.8,155.2922,774.8,158.4922,766.8,161.6922,770,158.4922" style="stroke:#181818;stroke-width:0.8000000000000002;"/><line style="stroke:#181818;stroke-width:0.8000000000000002;" x1="576.8" x2="771.6" y1="158.4922" y2="158.4922"/><text fill="#000000" font-family="sans-serif" font-size="10.4" font-weight="bold" lengthAdjust="spacing" textLength="5.6" x="582.4" y="154.282">3</text><text fill="#000000" font-family="sans-serif" font-size="10.4" lengthAdjust="spacing" textLength="60" x="591.2" y="154.282">getInstance()</text><polygon fill="#181818" points="585.6,180.325,577.6,183.525,585.6,186.725,582.4,183.525" style="stroke:#181818;stroke-width:0.8000000000000002;"/><line style="stroke:#181818;stroke-width:0.8000000000000002;stroke-dasharray:2.0,2.0;" x1="580.8" x2="779.6" y1="183.525" y2="183.525"/><text fill="#000000" font-family="sans-serif" font-size="10.4" font-weight="bold" lengthAdjust="spacing" textLength="5.6" x="590.4" y="179.3148">4</text><text fill="#000000" font-family="sans-serif" font-size="10.4" lengthAdjust="spacing" textLength="53.6" x="599.2" y="179.3148">repositories</text><polygon fill="#181818" points="850.8,205.3578,858.8,208.5578,850.8,211.7578,854,208.5578" style="stroke:#181818;stroke-width:0.8000000000000002;"/><line style="stroke:#181818;stroke-width:0.8000000000000002;" x1="576.8" x2="855.6" y1="208.5578" y2="208.5578"/><text fill="#000000" font-family="sans-serif" font-size="10.4" font-weight="bold" lengthAdjust="spacing" textLength="5.6" x="582.4" y="204.3477">5</text><text fill="#000000" font-family="sans-serif" font-size="10.4" lengthAdjust="spacing" textLength="56" x="591.2" y="204.3477">getAgenda()</text><polygon fill="#181818" points="585.6,230.3906,577.6,233.5906,585.6,236.7906,582.4,233.5906" style="stroke:#181818;stroke-width:0.8000000000000002;"/><line style="stroke:#181818;stroke-width:0.8000000000000002;stroke-dasharray:2.0,2.0;" x1="580.8" x2="863.6" y1="233.5906" y2="233.5906"/><text fill="#000000" font-family="sans-serif" font-size="10.4" font-weight="bold" lengthAdjust="spacing" textLength="5.6" x="590.4" y="229.3805">6</text><text fill="#000000" font-family="sans-serif" font-size="10.4" lengthAdjust="spacing" textLength="33.6" x="599.2" y="229.3805">agenda</text><polygon fill="#181818" points="922.4,255.4234,930.4,258.6234,922.4,261.8234,925.6,258.6234" style="stroke:#181818;stroke-width:0.8000000000000002;"/><line style="stroke:#181818;stroke-width:0.8000000000000002;" x1="576.8" x2="927.2" y1="258.6234" y2="258.6234"/><text fill="#000000" font-family="sans-serif" font-size="10.4" font-weight="bold" lengthAdjust="spacing" textLength="5.6" x="582.4" y="254.4133">7</text><text fill="#000000" font-family="sans-serif" font-size="10.4" lengthAdjust="spacing" textLength="88.8" x="591.2" y="254.4133">getAgendaEntries()</text><polygon fill="#181818" points="585.6,280.4563,577.6,283.6563,585.6,286.8563,582.4,283.6563" style="stroke:#181818;stroke-width:0.8000000000000002;"/><line style="stroke:#181818;stroke-width:0.8000000000000002;stroke-dasharray:2.0,2.0;" x1="580.8" x2="935.2" y1="283.6563" y2="283.6563"/><text fill="#000000" font-family="sans-serif" font-size="10.4" font-weight="bold" lengthAdjust="spacing" textLength="5.6" x="590.4" y="279.4461">8</text><text fill="#000000" font-family="sans-serif" font-size="10.4" lengthAdjust="spacing" textLength="68" x="599.2" y="279.4461">agenda entries</text><polygon fill="#181818" points="358.4,305.4891,350.4,308.6891,358.4,311.8891,355.2,308.6891" style="stroke:#181818;stroke-width:0.8000000000000002;"/><line style="stroke:#181818;stroke-width:0.8000000000000002;stroke-dasharray:2.0,2.0;" x1="353.6" x2="572" y1="308.6891" y2="308.6891"/><text fill="#000000" font-family="sans-serif" font-size="10.4" font-weight="bold" lengthAdjust="spacing" textLength="5.6" x="363.2" y="304.4789">9</text><text fill="#000000" font-family="sans-serif" font-size="10.4" lengthAdjust="spacing" textLength="68" x="372" y="304.4789">agenda entries</text><polygon fill="#181818" points="78.4,330.5219,70.4,333.7219,78.4,336.9219,75.2,333.7219" style="stroke:#181818;stroke-width:0.8000000000000002;"/><line style="stroke:#181818;stroke-width:0.8000000000000002;stroke-dasharray:2.0,2.0;" x1="73.6" x2="344.8" y1="333.7219" y2="333.7219"/><text fill="#000000" font-family="sans-serif" font-size="10.4" font-weight="bold" lengthAdjust="spacing" textLength="11.2" x="83.2" y="329.5117">10</text><text fill="#000000" font-family="sans-serif" font-size="10.4" lengthAdjust="spacing" textLength="127.2" x="97.6" y="329.5117">requests to select the entry</text><polygon fill="#181818" points="332,355.5547,340,358.7547,332,361.9547,335.2,358.7547" style="stroke:#181818;stroke-width:0.8000000000000002;"/><line style="stroke:#181818;stroke-width:0.8000000000000002;" x1="69.6" x2="336.8" y1="358.7547" y2="358.7547"/><text fill="#000000" font-family="sans-serif" font-size="10.4" font-weight="bold" lengthAdjust="spacing" textLength="11.2" x="75.2" y="354.5445">11</text><text fill="#000000" font-family="sans-serif" font-size="10.4" lengthAdjust="spacing" textLength="77.6" x="89.6" y="354.5445">selects the entry</text><polygon fill="#181818" points="669.2,380.5875,677.2,383.7875,669.2,386.9875,672.4,383.7875" style="stroke:#181818;stroke-width:0.8000000000000002;"/><line style="stroke:#181818;stroke-width:0.8000000000000002;" x1="349.6" x2="674" y1="383.7875" y2="383.7875"/><text fill="#000000" font-family="sans-serif" font-size="10.4" font-weight="bold" lengthAdjust="spacing" textLength="11.2" x="355.2" y="379.5773">12</text><text fill="#000000" font-family="sans-serif" font-size="10.4" lengthAdjust="spacing" textLength="60.8" x="369.6" y="379.5773">getVehicles()</text><polygon fill="#181818" points="766.8,405.6203,774.8,408.8203,766.8,412.0203,770,408.8203" style="stroke:#181818;stroke-width:0.8000000000000002;"/><line style="stroke:#181818;stroke-width:0.8000000000000002;" x1="686.8" x2="771.6" y1="408.8203" y2="408.8203"/><text fill="#000000" font-family="sans-serif" font-size="10.4" font-weight="bold" lengthAdjust="spacing" textLength="11.2" x="692.4" y="404.6102">13</text><text fill="#000000" font-family="sans-serif" font-size="10.4" lengthAdjust="spacing" textLength="60" x="706.8" y="404.6102">getInstance()</text><polygon fill="#181818" points="695.6,430.6531,687.6,433.8531,695.6,437.0531,692.4,433.8531" style="stroke:#181818;stroke-width:0.8000000000000002;"/><line style="stroke:#181818;stroke-width:0.8000000000000002;stroke-dasharray:2.0,2.0;" x1="690.8" x2="779.6" y1="433.8531" y2="433.8531"/><text fill="#000000" font-family="sans-serif" font-size="10.4" font-weight="bold" lengthAdjust="spacing" textLength="11.2" x="700.4" y="429.643">14</text><text fill="#000000" font-family="sans-serif" font-size="10.4" lengthAdjust="spacing" textLength="53.6" x="714.8" y="429.643">repositories</text><polygon fill="#181818" points="850.8,455.6859,858.8,458.8859,850.8,462.0859,854,458.8859" style="stroke:#181818;stroke-width:0.8000000000000002;"/><line style="stroke:#181818;stroke-width:0.8000000000000002;" x1="686.8" x2="855.6" y1="458.8859" y2="458.8859"/><text fill="#000000" font-family="sans-serif" font-size="10.4" font-weight="bold" lengthAdjust="spacing" textLength="11.2" x="692.4" y="454.6758">15</text><text fill="#000000" font-family="sans-serif" font-size="10.4" lengthAdjust="spacing" textLength="104.8" x="706.8" y="454.6758">getVehicleRepository()</text><polygon fill="#181818" points="695.6,480.7188,687.6,483.9188,695.6,487.1188,692.4,483.9188" style="stroke:#181818;stroke-width:0.8000000000000002;"/><line style="stroke:#181818;stroke-width:0.8000000000000002;stroke-dasharray:2.0,2.0;" x1="690.8" x2="863.6" y1="483.9188" y2="483.9188"/><text fill="#000000" font-family="sans-serif" font-size="10.4" font-weight="bold" lengthAdjust="spacing" textLength="11.2" x="700.4" y="479.7086">16</text><text fill="#000000" font-family="sans-serif" font-size="10.4" lengthAdjust="spacing" textLength="80.8" x="714.8" y="479.7086">vehicleRepository</text><polygon fill="#181818" points="1008.8,505.7516,1016.8,508.9516,1008.8,512.1516,1012,508.9516" style="stroke:#181818;stroke-width:0.8000000000000002;"/><line style="stroke:#181818;stroke-width:0.8000000000000002;" x1="686.8" x2="1013.6" y1="508.9516" y2="508.9516"/><text fill="#000000" font-family="sans-serif" font-size="10.4" font-weight="bold" lengthAdjust="spacing" textLength="11.2" x="692.4" y="504.7414">17</text><text fill="#000000" font-family="sans-serif" font-size="10.4" lengthAdjust="spacing" textLength="60.8" x="706.8" y="504.7414">getVehicles()</text><polygon fill="#181818" points="695.6,530.7844,687.6,533.9844,695.6,537.1844,692.4,533.9844" style="stroke:#181818;stroke-width:0.8000000000000002;"/><line style="stroke:#181818;stroke-width:0.8000000000000002;stroke-dasharray:2.0,2.0;" x1="690.8" x2="1021.6" y1="533.9844" y2="533.9844"/><text fill="#000000" font-family="sans-serif" font-size="10.4" font-weight="bold" lengthAdjust="spacing" textLength="11.2" x="700.4" y="529.7742">18</text><text fill="#000000" font-family="sans-serif" font-size="10.4" lengthAdjust="spacing" textLength="53.6" x="714.8" y="529.7742">vehicles list</text><polygon fill="#181818" points="358.4,555.8172,350.4,559.0172,358.4,562.2172,355.2,559.0172" style="stroke:#181818;stroke-width:0.8000000000000002;"/><line style="stroke:#181818;stroke-width:0.8000000000000002;stroke-dasharray:2.0,2.0;" x1="353.6" x2="682" y1="559.0172" y2="559.0172"/><text fill="#000000" font-family="sans-serif" font-size="10.4" font-weight="bold" lengthAdjust="spacing" textLength="11.2" x="363.2" y="554.807">19</text><text fill="#000000" font-family="sans-serif" font-size="10.4" lengthAdjust="spacing" textLength="53.6" x="377.6" y="554.807">vehicles list</text><polygon fill="#181818" points="78.4,580.85,70.4,584.05,78.4,587.25,75.2,584.05" style="stroke:#181818;stroke-width:0.8000000000000002;"/><line style="stroke:#181818;stroke-width:0.8000000000000002;stroke-dasharray:2.0,2.0;" x1="73.6" x2="344.8" y1="584.05" y2="584.05"/><text fill="#000000" font-family="sans-serif" font-size="10.4" font-weight="bold" lengthAdjust="spacing" textLength="11.2" x="83.2" y="579.8398">20</text><text fill="#000000" font-family="sans-serif" font-size="10.4" lengthAdjust="spacing" textLength="238.4" x="97.6" y="579.8398">requests to select the vehicle the user wants to add</text><polygon fill="#181818" points="332,605.8828,340,609.0828,332,612.2828,335.2,609.0828" style="stroke:#181818;stroke-width:0.8000000000000002;"/><line style="stroke:#181818;stroke-width:0.8000000000000002;" x1="69.6" x2="336.8" y1="609.0828" y2="609.0828"/><text fill="#000000" font-family="sans-serif" font-size="10.4" font-weight="bold" lengthAdjust="spacing" textLength="11.2" x="75.2" y="604.8727">21</text><text fill="#000000" font-family="sans-serif" font-size="10.4" lengthAdjust="spacing" textLength="85.6" x="89.6" y="604.8727">selects the vehicle</text><polygon fill="#181818" points="78.4,630.9156,70.4,634.1156,78.4,637.3156,75.2,634.1156" style="stroke:#181818;stroke-width:0.8000000000000002;"/><line style="stroke:#181818;stroke-width:0.8000000000000002;stroke-dasharray:2.0,2.0;" x1="73.6" x2="344.8" y1="634.1156" y2="634.1156"/><text fill="#000000" font-family="sans-serif" font-size="10.4" font-weight="bold" lengthAdjust="spacing" textLength="11.2" x="83.2" y="629.9055">22</text><text fill="#000000" font-family="sans-serif" font-size="10.4" lengthAdjust="spacing" textLength="188.8" x="97.6" y="629.9055">shows all data and requests confirmation</text><polygon fill="#181818" points="332,655.9484,340,659.1484,332,662.3484,335.2,659.1484" style="stroke:#181818;stroke-width:0.8000000000000002;"/><line style="stroke:#181818;stroke-width:0.8000000000000002;" x1="69.6" x2="336.8" y1="659.1484" y2="659.1484"/><text fill="#000000" font-family="sans-serif" font-size="10.4" font-weight="bold" lengthAdjust="spacing" textLength="11.2" x="75.2" y="654.9383">23</text><text fill="#000000" font-family="sans-serif" font-size="10.4" lengthAdjust="spacing" textLength="62.4" x="89.6" y="654.9383">confirms data</text><polygon fill="#181818" points="559.2,680.9813,567.2,684.1813,559.2,687.3813,562.4,684.1813" style="stroke:#181818;stroke-width:0.8000000000000002;"/><line style="stroke:#181818;stroke-width:0.8000000000000002;" x1="349.6" x2="564" y1="684.1813" y2="684.1813"/><text fill="#000000" font-family="sans-serif" font-size="10.4" font-weight="bold" lengthAdjust="spacing" textLength="11.2" x="355.2" y="679.9711">24</text><text fill="#000000" font-family="sans-serif" font-size="10.4" lengthAdjust="spacing" textLength="189.6" x="369.6" y="679.9711">addVehicleToAgendaEntry(vehicle, entry)</text><polygon fill="#181818" points="922.4,706.0141,930.4,709.2141,922.4,712.4141,925.6,709.2141" style="stroke:#181818;stroke-width:0.8000000000000002;"/><line style="stroke:#181818;stroke-width:0.8000000000000002;" x1="576.8" x2="927.2" y1="709.2141" y2="709.2141"/><text fill="#000000" font-family="sans-serif" font-size="10.4" font-weight="bold" lengthAdjust="spacing" textLength="11.2" x="582.4" y="705.0039">25</text><text fill="#000000" font-family="sans-serif" font-size="10.4" lengthAdjust="spacing" textLength="189.6" x="596.8" y="705.0039">addVehicleToAgendaEntry(vehicle, entry)</text><polygon fill="#181818" points="585.6,731.0469,577.6,734.2469,585.6,737.4469,582.4,734.2469" style="stroke:#181818;stroke-width:0.8000000000000002;"/><line style="stroke:#181818;stroke-width:0.8000000000000002;stroke-dasharray:2.0,2.0;" x1="580.8" x2="935.2" y1="734.2469" y2="734.2469"/><text fill="#000000" font-family="sans-serif" font-size="10.4" font-weight="bold" lengthAdjust="spacing" textLength="11.2" x="590.4" y="730.0367">26</text><text fill="#000000" font-family="sans-serif" font-size="10.4" lengthAdjust="spacing" textLength="39.2" x="604.8" y="730.0367">success</text><polygon fill="#181818" points="358.4,756.0797,350.4,759.2797,358.4,762.4797,355.2,759.2797" style="stroke:#181818;stroke-width:0.8000000000000002;"/><line style="stroke:#181818;stroke-width:0.8000000000000002;stroke-dasharray:2.0,2.0;" x1="353.6" x2="572" y1="759.2797" y2="759.2797"/><text fill="#000000" font-family="sans-serif" font-size="10.4" font-weight="bold" lengthAdjust="spacing" textLength="11.2" x="363.2" y="755.0695">27</text><text fill="#000000" font-family="sans-serif" font-size="10.4" lengthAdjust="spacing" textLength="39.2" x="377.6" y="755.0695">success</text><polygon fill="#181818" points="78.4,781.1125,70.4,784.3125,78.4,787.5125,75.2,784.3125" style="stroke:#181818;stroke-width:0.8000000000000002;"/><line style="stroke:#181818;stroke-width:0.8000000000000002;stroke-dasharray:2.0,2.0;" x1="73.6" x2="344.8" y1="784.3125" y2="784.3125"/><text fill="#000000" font-family="sans-serif" font-size="10.4" font-weight="bold" lengthAdjust="spacing" textLength="11.2" x="83.2" y="780.1023">28</text><text fill="#000000" font-family="sans-serif" font-size="10.4" lengthAdjust="spacing" textLength="174.4" x="97.6" y="780.1023">notifies successful vehicle registration</text><!--SRC=[rLR1Rjim3BthAuXSbW3B3-Gm81Y68i0A34lRKo-gpTX27IcJv6Rv-z6sOikIcZWTTfWFWQ6GJoGV7sdpAkI1Qxw7lP8gAxNQ8rXT8pFzFmUUlV82j_PK8MZCB9T5vHkOakVgA6G1EruPP8pNLibw_uAQiK-bo15sIjaNzPlnp2eDipkDA65Bo0ZtN1AwXcSvlzlUBsR03T0B8smhCd7Wqi9ijSxp9on5Lk63MXSeS_vDMdrwtBJsZvlGl3NvgiX6LHNgree7Xu6Fmm-StiBJmEid7fGHb9L0qphq1wUjQ0f5fHYxQCzZzImZW1_VrmzZZovmiktIyf8PsxbOXmZ8vIayyxCoh654l76BRSqP_S3o2zKJLaJrhngDDM0LkHXHI50IpwxjgGHiM1X0Y0Zo9OImreHNe1sOesJdYy4leWReYJ08Dr7T3deZ3JLcXeGA4v_-zXHbar6Q9nNLCb65fgW3svEloF5YgE_Lgcaal-wkD3rMssZDIMkuJBFc-Ym8etUTLET4RDrPkYjkvi_5U1DbBe2BMRVT_K6YN4nnxcTv1LT4hfuO6acHMoFEiImDLZIFmPReXEYXa1HzDNUcnhEDHHlDkeuVDq96Wet7OkpytyarIk7VwJLPhK6mqTI-hjqKUT52IEfuSbx9eC-h9EgLctaTbj8jPFRtNoc2WKeO-n4E-xWI-P_bDRuaThvHpVsIfVVQq4L7Ml3T9ixpGELDjEyftU4mlypEXPvH9APKH_gig2h8kUMqs_CXk4p9dT1xReLhtt6129559yxCZyp1cFO65j8_ZYizbjDVWNENvkTkiYrOUa44dnVNDjFVNSOcRXfJPnaQRxR4E-J28kqvlueI9p-mlmAfhDZHY3i3xUggxq6D1VMqxiaVqVm7]--></g></svg>