<?xml version="1.0" encoding="us-ascii" standalone="no"?><svg xmlns="http://www.w3.org/2000/svg" xmlns:xlink="http://www.w3.org/1999/xlink" contentStyleType="text/css" height="219px" preserveAspectRatio="none" style="width:624px;height:219px;background:#FFFFFF;" version="1.1" viewBox="0 0 624 219" width="624px" zoomAndPan="magnify"><defs/><g><!--class RegisterJobController--><g id="elem_RegisterJobController"><rect codeLine="12" fill="#F1F1F1" height="66.6211" id="RegisterJobController" rx="2.5" ry="2.5" style="stroke:#181818;stroke-width:0.5;" width="169" x="43.5" y="7"/><ellipse cx="58.5" cy="23" fill="#ADD1B2" rx="11" ry="11" style="stroke:#181818;stroke-width:1.0;"/><path d="M61.2656,18.875 Q61.4219,18.6563 61.6094,18.5469 Q61.7969,18.4375 62.0156,18.4375 Q62.3906,18.4375 62.625,18.7031 Q62.8594,18.9531 62.8594,19.5625 L62.8594,21.0156 Q62.8594,21.625 62.625,21.8906 Q62.3906,22.1563 62.0156,22.1563 Q61.6719,22.1563 61.4688,21.9531 Q61.2656,21.7656 61.1563,21.25 Q61.1094,20.8906 60.9219,20.7031 Q60.5938,20.3281 59.9844,20.1094 Q59.375,19.8906 58.75,19.8906 Q57.9844,19.8906 57.3438,20.2188 Q56.7188,20.5469 56.2188,21.2969 Q55.7344,22.0469 55.7344,23.0781 L55.7344,24.1719 Q55.7344,25.4063 56.625,26.2344 Q57.5156,27.0469 59.1094,27.0469 Q60.0469,27.0469 60.7031,26.7969 Q61.0938,26.6406 61.5156,26.2031 Q61.7813,25.9375 61.9219,25.8594 Q62.0781,25.7813 62.2813,25.7813 Q62.6094,25.7813 62.8594,26.0469 Q63.125,26.2969 63.125,26.6406 Q63.125,26.9844 62.7813,27.3906 Q62.2813,27.9688 61.4844,28.2969 Q60.4063,28.75 59.1094,28.75 Q57.5938,28.75 56.3906,28.125 Q55.4063,27.625 54.7188,26.5625 Q54.0313,25.4844 54.0313,24.2031 L54.0313,23.0469 Q54.0313,21.7188 54.6406,20.5781 Q55.2656,19.4219 56.3594,18.8125 Q57.4531,18.1875 58.6875,18.1875 Q59.4219,18.1875 60.0625,18.3594 Q60.7188,18.5156 61.2656,18.875 Z " fill="#000000"/><text fill="#000000" font-family="sans-serif" font-size="14" lengthAdjust="spacing" textLength="137" x="72.5" y="28.7969">RegisterJobController</text><line style="stroke:#181818;stroke-width:0.5;" x1="44.5" x2="211.5" y1="39" y2="39"/><line style="stroke:#181818;stroke-width:0.5;" x1="44.5" x2="211.5" y1="47" y2="47"/><text fill="#000000" font-family="sans-serif" font-size="14" lengthAdjust="spacing" textLength="143" x="49.5" y="66.1074">+registerJob(jobName)</text></g><!--class JobRepository--><g id="elem_JobRepository"><rect codeLine="17" fill="#F1F1F1" height="103.8633" id="JobRepository" rx="2.5" ry="2.5" style="stroke:#181818;stroke-width:0.5;" width="194" x="309" y="93.5"/><ellipse cx="356.75" cy="109.5" fill="#ADD1B2" rx="11" ry="11" style="stroke:#181818;stroke-width:1.0;"/><path d="M359.5156,105.375 Q359.6719,105.1563 359.8594,105.0469 Q360.0469,104.9375 360.2656,104.9375 Q360.6406,104.9375 360.875,105.2031 Q361.1094,105.4531 361.1094,106.0625 L361.1094,107.5156 Q361.1094,108.125 360.875,108.3906 Q360.6406,108.6563 360.2656,108.6563 Q359.9219,108.6563 359.7188,108.4531 Q359.5156,108.2656 359.4063,107.75 Q359.3594,107.3906 359.1719,107.2031 Q358.8438,106.8281 358.2344,106.6094 Q357.625,106.3906 357,106.3906 Q356.2344,106.3906 355.5938,106.7188 Q354.9688,107.0469 354.4688,107.7969 Q353.9844,108.5469 353.9844,109.5781 L353.9844,110.6719 Q353.9844,111.9063 354.875,112.7344 Q355.7656,113.5469 357.3594,113.5469 Q358.2969,113.5469 358.9531,113.2969 Q359.3438,113.1406 359.7656,112.7031 Q360.0313,112.4375 360.1719,112.3594 Q360.3281,112.2813 360.5313,112.2813 Q360.8594,112.2813 361.1094,112.5469 Q361.375,112.7969 361.375,113.1406 Q361.375,113.4844 361.0313,113.8906 Q360.5313,114.4688 359.7344,114.7969 Q358.6563,115.25 357.3594,115.25 Q355.8438,115.25 354.6406,114.625 Q353.6563,114.125 352.9688,113.0625 Q352.2813,111.9844 352.2813,110.7031 L352.2813,109.5469 Q352.2813,108.2188 352.8906,107.0781 Q353.5156,105.9219 354.6094,105.3125 Q355.7031,104.6875 356.9375,104.6875 Q357.6719,104.6875 358.3125,104.8594 Q358.9688,105.0156 359.5156,105.375 Z " fill="#000000"/><text fill="#000000" font-family="sans-serif" font-size="14" lengthAdjust="spacing" textLength="90" x="377.25" y="115.2969">JobRepository</text><line style="stroke:#181818;stroke-width:0.5;" x1="310" x2="502" y1="125.5" y2="125.5"/><line style="stroke:#181818;stroke-width:0.5;" x1="310" x2="502" y1="133.5" y2="133.5"/><text fill="#000000" font-family="sans-serif" font-size="14" lengthAdjust="spacing" textLength="182" x="315" y="152.6074">+addJob(jobName) : boolean</text><text fill="#000000" font-family="sans-serif" font-size="14" lengthAdjust="spacing" textLength="149" x="315" y="171.2285">+validate(job) : boolean</text><text fill="#000000" font-family="sans-serif" font-size="14" lengthAdjust="spacing" textLength="124" x="315" y="189.8496">+add(job) : boolean</text></g><!--class Job--><g id="elem_Job"><rect codeLine="23" fill="#F1F1F1" height="66.6211" id="Job" rx="2.5" ry="2.5" style="stroke:#181818;stroke-width:0.5;" width="54" x="563" y="60"/><ellipse cx="578" cy="76" fill="#ADD1B2" rx="11" ry="11" style="stroke:#181818;stroke-width:1.0;"/><path d="M580.7656,71.875 Q580.9219,71.6563 581.1094,71.5469 Q581.2969,71.4375 581.5156,71.4375 Q581.8906,71.4375 582.125,71.7031 Q582.3594,71.9531 582.3594,72.5625 L582.3594,74.0156 Q582.3594,74.625 582.125,74.8906 Q581.8906,75.1563 581.5156,75.1563 Q581.1719,75.1563 580.9688,74.9531 Q580.7656,74.7656 580.6563,74.25 Q580.6094,73.8906 580.4219,73.7031 Q580.0938,73.3281 579.4844,73.1094 Q578.875,72.8906 578.25,72.8906 Q577.4844,72.8906 576.8438,73.2188 Q576.2188,73.5469 575.7188,74.2969 Q575.2344,75.0469 575.2344,76.0781 L575.2344,77.1719 Q575.2344,78.4063 576.125,79.2344 Q577.0156,80.0469 578.6094,80.0469 Q579.5469,80.0469 580.2031,79.7969 Q580.5938,79.6406 581.0156,79.2031 Q581.2813,78.9375 581.4219,78.8594 Q581.5781,78.7813 581.7813,78.7813 Q582.1094,78.7813 582.3594,79.0469 Q582.625,79.2969 582.625,79.6406 Q582.625,79.9844 582.2813,80.3906 Q581.7813,80.9688 580.9844,81.2969 Q579.9063,81.75 578.6094,81.75 Q577.0938,81.75 575.8906,81.125 Q574.9063,80.625 574.2188,79.5625 Q573.5313,78.4844 573.5313,77.2031 L573.5313,76.0469 Q573.5313,74.7188 574.1406,73.5781 Q574.7656,72.4219 575.8594,71.8125 Q576.9531,71.1875 578.1875,71.1875 Q578.9219,71.1875 579.5625,71.3594 Q580.2188,71.5156 580.7656,71.875 Z " fill="#000000"/><text fill="#000000" font-family="sans-serif" font-size="14" lengthAdjust="spacing" textLength="22" x="592" y="81.7969">Job</text><line style="stroke:#181818;stroke-width:0.5;" x1="564" x2="616" y1="92" y2="92"/><text fill="#000000" font-family="sans-serif" font-size="14" lengthAdjust="spacing" textLength="40" x="569" y="111.1074">-name</text><line style="stroke:#181818;stroke-width:0.5;" x1="564" x2="616" y1="118.6211" y2="118.6211"/></g><!--class Repository--><g id="elem_Repository"><rect codeLine="27" fill="#F1F1F1" height="85.2422" id="Repository" rx="2.5" ry="2.5" style="stroke:#181818;stroke-width:0.5;" width="242" x="7" y="127"/><ellipse cx="89.75" cy="143" fill="#ADD1B2" rx="11" ry="11" style="stroke:#181818;stroke-width:1.0;"/><path d="M92.5156,138.875 Q92.6719,138.6563 92.8594,138.5469 Q93.0469,138.4375 93.2656,138.4375 Q93.6406,138.4375 93.875,138.7031 Q94.1094,138.9531 94.1094,139.5625 L94.1094,141.0156 Q94.1094,141.625 93.875,141.8906 Q93.6406,142.1563 93.2656,142.1563 Q92.9219,142.1563 92.7188,141.9531 Q92.5156,141.7656 92.4063,141.25 Q92.3594,140.8906 92.1719,140.7031 Q91.8438,140.3281 91.2344,140.1094 Q90.625,139.8906 90,139.8906 Q89.2344,139.8906 88.5938,140.2188 Q87.9688,140.5469 87.4688,141.2969 Q86.9844,142.0469 86.9844,143.0781 L86.9844,144.1719 Q86.9844,145.4063 87.875,146.2344 Q88.7656,147.0469 90.3594,147.0469 Q91.2969,147.0469 91.9531,146.7969 Q92.3438,146.6406 92.7656,146.2031 Q93.0313,145.9375 93.1719,145.8594 Q93.3281,145.7813 93.5313,145.7813 Q93.8594,145.7813 94.1094,146.0469 Q94.375,146.2969 94.375,146.6406 Q94.375,146.9844 94.0313,147.3906 Q93.5313,147.9688 92.7344,148.2969 Q91.6563,148.75 90.3594,148.75 Q88.8438,148.75 87.6406,148.125 Q86.6563,147.625 85.9688,146.5625 Q85.2813,145.4844 85.2813,144.2031 L85.2813,143.0469 Q85.2813,141.7188 85.8906,140.5781 Q86.5156,139.4219 87.6094,138.8125 Q88.7031,138.1875 89.9375,138.1875 Q90.6719,138.1875 91.3125,138.3594 Q91.9688,138.5156 92.5156,138.875 Z " fill="#000000"/><text fill="#000000" font-family="sans-serif" font-size="14" lengthAdjust="spacing" textLength="68" x="110.25" y="148.7969">Repository</text><line style="stroke:#181818;stroke-width:0.5;" x1="8" x2="248" y1="159" y2="159"/><line style="stroke:#181818;stroke-width:0.5;" x1="8" x2="248" y1="167" y2="167"/><text fill="#000000" font-family="sans-serif" font-size="14" lengthAdjust="spacing" textLength="186" x="13" y="186.1074">+getInstanceOf() : Repository</text><text fill="#000000" font-family="sans-serif" font-size="14" lengthAdjust="spacing" textLength="230" x="13" y="204.7285">+getJobRepository() : JobRepository</text></g><!--link RegisterJobController to JobRepository--><g id="link_RegisterJobController_JobRepository"><path codeLine="38" d="M212.56,72.29 C242.86,83.82 271.7326,94.7952 303.0426,106.7152 " fill="none" id="RegisterJobController-to-JobRepository" style="stroke:#181818;stroke-width:1.0;stroke-dasharray:7.0,7.0;"/><polygon fill="#181818" points="308.65,108.85,301.6621,101.9096,303.9772,107.071,298.8157,109.3861,308.65,108.85" style="stroke:#181818;stroke-width:1.0;"/></g><!--link RegisterJobController to Job--><g id="link_RegisterJobController_Job"><path codeLine="39" d="M212.51,45.6 C288.52,50.89 403.7,60.51 503,75.5 C523.21,78.55 539.9804,82.0052 556.9404,85.8752 " fill="none" id="RegisterJobController-to-Job" style="stroke:#181818;stroke-width:1.0;stroke-dasharray:7.0,7.0;"/><polygon fill="#181818" points="562.79,87.21,554.9054,81.308,557.9153,86.0977,553.1257,89.1076,562.79,87.21" style="stroke:#181818;stroke-width:1.0;"/></g><!--link RegisterJobController to Repository--><g id="link_RegisterJobController_Repository"><path codeLine="40" d="M128,74.26 C128,91.81 128,103.37 128,120.92 " fill="none" id="RegisterJobController-to-Repository" style="stroke:#181818;stroke-width:1.0;stroke-dasharray:7.0,7.0;"/><polygon fill="#181818" points="128,126.92,132,117.92,128,121.92,124,117.92,128,126.92" style="stroke:#181818;stroke-width:1.0;"/></g><!--link Repository to Repository--><g id="link_Repository_Repository"><path codeLine="41" d="M76.59,126.86 C72.04,108.12 89.18,92 128,92 C166.82,92 185.3756,102.2894 180.8256,121.0294 " fill="none" id="Repository-to-Repository" style="stroke:#181818;stroke-width:1.0;"/><polygon fill="#181818" points="179.41,126.86,185.4205,119.0579,180.5897,122.0012,177.6464,117.1703,179.41,126.86" style="stroke:#181818;stroke-width:1.0;"/></g><!--link JobRepository to Job--><g id="link_JobRepository_Job"><path codeLine="43" d="M503.06,118.05 C525.11,111.75 540.9913,107.2198 557.0413,102.6298 " fill="none" id="JobRepository-to-Job" style="stroke:#181818;stroke-width:1.0;"/><polygon fill="#181818" points="562.81,100.98,553.0571,99.6088,558.0027,102.3548,555.2567,107.3005,562.81,100.98" style="stroke:#181818;stroke-width:1.0;"/></g><!--reverse link Repository to JobRepository--><g id="link_Repository_JobRepository"><path codeLine="44" d="M267.1824,157.4818 C287.0924,155.7518 289.56,155.54 308.77,153.87 " fill="none" id="Repository-backto-JobRepository" style="stroke:#181818;stroke-width:1.0;"/><polygon fill="none" points="249.25,159.04,267.7018,163.4593,266.663,151.5044,249.25,159.04" style="stroke:#181818;stroke-width:1.0;"/></g><!--SRC=[VP3FJiCm3CRlUGhV64ATE2Cq2N4Q1v2s9t1JDmrBuohnG0NsxZJTw9yny2t-VP_znLTnPts30MkesREk0jS44lQaHjAWtg6XhRIE890MzCPD1R72Wj-jDr2YYrFYh2Tf6uA6NPiUbnW7OJK1sc6C3oB1vdkXjMQ_jHy4jqevAWM48LXJ2HGsXR7ibLAz1pPaR1GAJvm_ifV0pb60JmLTtOGHBbuvVyQQhjLXy7Rj3JKShN1eVpnO55Cvt47Ex0Zz4R-XimKA9S4ls7dF-uV9ijEAp7U3Hp16E2Km96iVkvDhUYaNQTWe6HIpxBrerb7zDrDTFj1okJep_AlxYwvWDc6uPPRDY9fVEj7ZqA5r_vLbPu6-0G00]--></g></svg>