<?xml version="1.0" encoding="us-ascii" standalone="no"?><svg xmlns="http://www.w3.org/2000/svg" xmlns:xlink="http://www.w3.org/1999/xlink" contentStyleType="text/css" height="466px" preserveAspectRatio="none" style="width:724px;height:466px;background:#FFFFFF;" version="1.1" viewBox="0 0 724 466" width="724px" zoomAndPan="magnify"><defs/><g><text fill="#000000" font-family="sans-serif" font-size="14" font-weight="bold" lengthAdjust="spacing" textLength="228" x="249.5" y="30.1074">System Sequence Diagram (SSD)</text><rect fill="#FFFFFF" height="203.7461" style="stroke:#181818;stroke-width:1.0;" width="10" x="76" y="151.8633"/><rect fill="#FFFFFF" height="57.582" style="stroke:#181818;stroke-width:1.0;" width="10" x="595" y="175.1543"/><rect fill="#FFFFFF" height="82.582" style="stroke:#181818;stroke-width:1.0;" width="10" x="595" y="264.0273"/><rect fill="none" height="126.1641" style="stroke:#000000;stroke-width:1.5;" width="708" x="10" y="190.1543"/><line style="stroke:#181818;stroke-width:0.5;stroke-dasharray:5.0,5.0;" x1="81" x2="81" y1="141.8633" y2="364.6094"/><line style="stroke:#181818;stroke-width:0.5;stroke-dasharray:5.0,5.0;" x1="600" x2="600" y1="141.8633" y2="364.6094"/><text fill="#000000" font-family="sans-serif" font-size="14" lengthAdjust="spacing" textLength="116" x="20" y="119.7285">Human Resources</text><text fill="#000000" font-family="sans-serif" font-size="14" lengthAdjust="spacing" textLength="56" x="50" y="138.3496">Manager</text><ellipse cx="81" cy="53.1211" fill="#E3E3E3" rx="8" ry="8" style="stroke:#181818;stroke-width:0.5;"/><path d="M81,61.1211 L81,88.1211 M68,69.1211 L94,69.1211 M81,88.1211 L68,103.1211 M81,88.1211 L94,103.1211 " fill="none" style="stroke:#181818;stroke-width:0.5;"/><text fill="#000000" font-family="sans-serif" font-size="14" lengthAdjust="spacing" textLength="116" x="20" y="378.7168">Human Resources</text><text fill="#000000" font-family="sans-serif" font-size="14" lengthAdjust="spacing" textLength="56" x="50" y="397.3379">Manager</text><ellipse cx="81" cy="409.3516" fill="#E3E3E3" rx="8" ry="8" style="stroke:#181818;stroke-width:0.5;"/><path d="M81,417.3516 L81,444.3516 M68,425.3516 L94,425.3516 M81,444.3516 L68,459.3516 M81,444.3516 L94,459.3516 " fill="none" style="stroke:#181818;stroke-width:0.5;"/><rect fill="#E3E3E3" height="32.6211" rx="2.5" ry="2.5" style="stroke:#181818;stroke-width:0.5;" width="64" x="568" y="108.2422"/><text fill="#000000" font-family="sans-serif" font-size="14" lengthAdjust="spacing" textLength="50" x="575" y="130.3496">:System</text><rect fill="#E3E3E3" height="32.6211" rx="2.5" ry="2.5" style="stroke:#181818;stroke-width:0.5;" width="64" x="568" y="363.6094"/><text fill="#000000" font-family="sans-serif" font-size="14" lengthAdjust="spacing" textLength="50" x="575" y="385.7168">:System</text><rect fill="#FFFFFF" height="203.7461" style="stroke:#181818;stroke-width:1.0;" width="10" x="76" y="151.8633"/><rect fill="#FFFFFF" height="57.582" style="stroke:#181818;stroke-width:1.0;" width="10" x="595" y="175.1543"/><rect fill="#FFFFFF" height="82.582" style="stroke:#181818;stroke-width:1.0;" width="10" x="595" y="264.0273"/><polygon fill="#181818" points="583,171.1543,593,175.1543,583,179.1543,587,175.1543" style="stroke:#181818;stroke-width:1.0;"/><line style="stroke:#181818;stroke-width:1.0;" x1="86" x2="589" y1="175.1543" y2="175.1543"/><text fill="#000000" font-family="sans-serif" font-size="13" font-weight="bold" lengthAdjust="spacing" textLength="7" x="93" y="169.8916">1</text><text fill="#000000" font-family="sans-serif" font-size="13" lengthAdjust="spacing" textLength="203" x="104" y="169.8916">asks to add a skill to a collaborator</text><path d="M10,190.1543 L83,190.1543 L83,199.4453 L73,209.4453 L10,209.4453 L10,190.1543 " fill="#EEEEEE" style="stroke:#000000;stroke-width:1.5;"/><rect fill="none" height="126.1641" style="stroke:#000000;stroke-width:1.5;" width="708" x="10" y="190.1543"/><text fill="#000000" font-family="sans-serif" font-size="13" font-weight="bold" lengthAdjust="spacing" textLength="28" x="25" y="205.1826">loop</text><text fill="#000000" font-family="sans-serif" font-size="11" font-weight="bold" lengthAdjust="spacing" textLength="115" x="98" y="204.0244">[while Data is invalid]</text><polygon fill="#181818" points="97,228.7363,87,232.7363,97,236.7363,93,232.7363" style="stroke:#181818;stroke-width:1.0;"/><line style="stroke:#181818;stroke-width:1.0;stroke-dasharray:2.0,2.0;" x1="91" x2="599" y1="232.7363" y2="232.7363"/><text fill="#000000" font-family="sans-serif" font-size="13" font-weight="bold" lengthAdjust="spacing" textLength="7" x="103" y="227.4736">2</text><text fill="#000000" font-family="sans-serif" font-size="13" lengthAdjust="spacing" textLength="337" x="114" y="227.4736">requests data (i.e. name or id of the collaborator, and skill)</text><polygon fill="#181818" points="583,260.0273,593,264.0273,583,268.0273,587,264.0273" style="stroke:#181818;stroke-width:1.0;"/><line style="stroke:#181818;stroke-width:1.0;" x1="86" x2="589" y1="264.0273" y2="264.0273"/><text fill="#000000" font-family="sans-serif" font-size="13" font-weight="bold" lengthAdjust="spacing" textLength="7" x="93" y="258.7646">3</text><text fill="#000000" font-family="sans-serif" font-size="13" lengthAdjust="spacing" textLength="122" x="104" y="258.7646">types requested data</text><line style="stroke:#181818;stroke-width:1.0;stroke-dasharray:2.0,2.0;" x1="605" x2="647" y1="295.3184" y2="295.3184"/><line style="stroke:#181818;stroke-width:1.0;stroke-dasharray:2.0,2.0;" x1="647" x2="647" y1="295.3184" y2="308.3184"/><line style="stroke:#181818;stroke-width:1.0;stroke-dasharray:2.0,2.0;" x1="606" x2="647" y1="308.3184" y2="308.3184"/><polygon fill="#181818" points="616,304.3184,606,308.3184,616,312.3184,612,308.3184" style="stroke:#181818;stroke-width:1.0;"/><text fill="#000000" font-family="sans-serif" font-size="13" font-weight="bold" lengthAdjust="spacing" textLength="7" x="612" y="290.0557">4</text><text fill="#000000" font-family="sans-serif" font-size="13" lengthAdjust="spacing" textLength="83" x="623" y="290.0557">Validates data</text><polygon fill="#181818" points="97,342.6094,87,346.6094,97,350.6094,93,346.6094" style="stroke:#181818;stroke-width:1.0;"/><line style="stroke:#181818;stroke-width:1.0;stroke-dasharray:2.0,2.0;" x1="91" x2="599" y1="346.6094" y2="346.6094"/><text fill="#000000" font-family="sans-serif" font-size="13" font-weight="bold" lengthAdjust="spacing" textLength="7" x="103" y="341.3467">5</text><text fill="#000000" font-family="sans-serif" font-size="13" lengthAdjust="spacing" textLength="474" x="114" y="341.3467">Updates the collaborator with the skill and displays all the skills of the collaborator</text><!--SRC=[TL6zRi8m4Dxz52Sca0eFmD29IbswD6gdBeTz91QExVekeBnz7QS9j0gU_FFTzsS-MnynOGjjy44tARG4aZfIFBz4r6UigPBU4IJIWhvszm1kq8IhzJMSq34f9LOojEfPg8MAlZlock1WiHxWwwewR9J2JeBlsYEblDSI4gnUknOzl1E7BcdYB_-6FYkd5I33InjTw8bK5XMhRKGliDgFAWKnRWkRlQ3GRKH1NjC9ji-JjtqUEpD803G6478cvyeHT70EZo5XTbR6PzP9PhXq8KIuDZR7FQ0WM0RhB-YiAS_3-fNQPjNPmJxtc5jXOJ33sDhkQ0SUS_cv1siWd40Q-cFY2T2RqU5c9ZUqQEjXNEaZyIHEfgZF4m-fxYBCJ9z3o0pc6mTvCyuiH_w88_v_CBXQQShjMFyGqrYE3di67FvZUkAbNjHo3py0]--></g></svg>