<?xml version="1.0" encoding="us-ascii" standalone="no"?><svg xmlns="http://www.w3.org/2000/svg" xmlns:xlink="http://www.w3.org/1999/xlink" contentStyleType="text/css" height="895px" preserveAspectRatio="none" style="width:898px;height:895px;background:#FFFFFF;" version="1.1" viewBox="0 0 898 895" width="898px" zoomAndPan="magnify"><defs/><g><text fill="#000000" font-family="Verdana" font-size="22" font-weight="bold" lengthAdjust="spacing" textLength="865" x="15" y="37.1182">US05 -  As a HRM, I want to generate a team proposal automatically.</text><!--class company--><g id="elem_company"><rect codeLine="9" fill="#FFFFFF" height="154.1172" id="company" rx="2.5" ry="2.5" style="stroke:#000000;stroke-width:1.0;" width="253" x="220.75" y="59.7373"/><text fill="#000000" font-family="Verdana" font-size="14" lengthAdjust="spacing" textLength="63" x="315.75" y="78.8125">company</text><line style="stroke:#000000;stroke-width:1.0;" x1="221.75" x2="472.75" y1="86.752" y2="86.752"/><ellipse cx="231.75" cy="100.7593" fill="none" rx="3" ry="3" style="stroke:#000000;stroke-width:1.0;"/><text fill="#000000" font-family="Verdana" font-size="14" lengthAdjust="spacing" textLength="86" x="238.75" y="104.8271">String name</text><ellipse cx="231.75" cy="117.7739" fill="none" rx="3" ry="3" style="stroke:#000000;stroke-width:1.0;"/><text fill="#000000" font-family="Verdana" font-size="14" lengthAdjust="spacing" textLength="104" x="238.75" y="121.8418">String address</text><ellipse cx="231.75" cy="134.7886" fill="none" rx="3" ry="3" style="stroke:#000000;stroke-width:1.0;"/><text fill="#000000" font-family="Verdana" font-size="14" lengthAdjust="spacing" textLength="128" x="238.75" y="138.8564">String contactInfo</text><rect fill="none" height="6" style="stroke:#000000;stroke-width:1.0;" width="6" x="228.75" y="148.8032"/><text fill="#000000" font-family="Verdana" font-size="14" lengthAdjust="spacing" textLength="107" x="238.75" y="155.8711">List&lt;Job&gt; jobs</text><rect fill="none" height="6" style="stroke:#000000;stroke-width:1.0;" width="6" x="228.75" y="165.8179"/><text fill="#000000" font-family="Verdana" font-size="14" lengthAdjust="spacing" textLength="112" x="238.75" y="172.8857">List&lt;Skill&gt; skills</text><rect fill="none" height="6" style="stroke:#000000;stroke-width:1.0;" width="6" x="228.75" y="182.8325"/><text fill="#000000" font-family="Verdana" font-size="14" lengthAdjust="spacing" textLength="119" x="238.75" y="189.9004">List&lt;HRM&gt; hrms</text><rect fill="none" height="6" style="stroke:#000000;stroke-width:1.0;" width="6" x="228.75" y="199.8472"/><text fill="#000000" font-family="Verdana" font-size="14" lengthAdjust="spacing" textLength="229" x="238.75" y="206.915">List&lt;Collaborator&gt; collaborators</text></g><!--class Collaborator--><g id="elem_Collaborator"><rect codeLine="19" fill="#FFFFFF" height="171.1318" id="Collaborator" rx="2.5" ry="2.5" style="stroke:#000000;stroke-width:1.0;" width="166" x="264.25" y="717.7373"/><text fill="#000000" font-family="Verdana" font-size="14" lengthAdjust="spacing" textLength="86" x="304.25" y="736.8125">Collaborator</text><line style="stroke:#000000;stroke-width:1.0;" x1="265.25" x2="429.25" y1="744.752" y2="744.752"/><ellipse cx="275.25" cy="758.7593" fill="none" rx="3" ry="3" style="stroke:#000000;stroke-width:1.0;"/><text fill="#000000" font-family="Verdana" font-size="14" lengthAdjust="spacing" textLength="86" x="282.25" y="762.8271">String name</text><ellipse cx="275.25" cy="775.7739" fill="none" rx="3" ry="3" style="stroke:#000000;stroke-width:1.0;"/><text fill="#000000" font-family="Verdana" font-size="14" lengthAdjust="spacing" textLength="102" x="282.25" y="779.8418">Date birthdate</text><ellipse cx="275.25" cy="792.7886" fill="none" rx="3" ry="3" style="stroke:#000000;stroke-width:1.0;"/><text fill="#000000" font-family="Verdana" font-size="14" lengthAdjust="spacing" textLength="141" x="282.25" y="796.8564">Date admissionDate</text><rect fill="none" height="6" style="stroke:#000000;stroke-width:1.0;" width="6" x="272.25" y="806.8032"/><text fill="#000000" font-family="Verdana" font-size="14" lengthAdjust="spacing" textLength="104" x="282.25" y="813.8711">String address</text><rect fill="none" height="6" style="stroke:#000000;stroke-width:1.0;" width="6" x="272.25" y="823.8179"/><text fill="#000000" font-family="Verdana" font-size="14" lengthAdjust="spacing" textLength="128" x="282.25" y="830.8857">String contactInfo</text><rect fill="none" height="6" style="stroke:#000000;stroke-width:1.0;" width="6" x="272.25" y="840.8325"/><text fill="#000000" font-family="Verdana" font-size="14" lengthAdjust="spacing" textLength="121" x="282.25" y="847.9004">String idDocType</text><rect fill="none" height="6" style="stroke:#000000;stroke-width:1.0;" width="6" x="272.25" y="857.8472"/><text fill="#000000" font-family="Verdana" font-size="14" lengthAdjust="spacing" textLength="142" x="282.25" y="864.915">String idDocNumber</text><rect fill="none" height="6" style="stroke:#000000;stroke-width:1.0;" width="6" x="272.25" y="874.8618"/><text fill="#000000" font-family="Verdana" font-size="14" lengthAdjust="spacing" textLength="112" x="282.25" y="881.9297">List&lt;Skill&gt; skills</text></g><!--class HRM--><g id="elem_HRM"><rect codeLine="32" fill="#FFFFFF" height="171.1318" id="HRM" rx="2.5" ry="2.5" style="stroke:#000000;stroke-width:1.0;" width="173" x="260.75" y="290.7373"/><text fill="#000000" font-family="Verdana" font-size="14" lengthAdjust="spacing" textLength="31" x="331.75" y="309.8125">HRM</text><line style="stroke:#000000;stroke-width:1.0;" x1="261.75" x2="432.75" y1="317.752" y2="317.752"/><ellipse cx="271.75" cy="331.7593" fill="none" rx="3" ry="3" style="stroke:#000000;stroke-width:1.0;"/><text fill="#000000" font-family="Verdana" font-size="14" lengthAdjust="spacing" textLength="86" x="278.75" y="335.8271">String name</text><ellipse cx="271.75" cy="348.7739" fill="none" rx="3" ry="3" style="stroke:#000000;stroke-width:1.0;"/><text fill="#000000" font-family="Verdana" font-size="14" lengthAdjust="spacing" textLength="102" x="278.75" y="352.8418">Date birthdate</text><ellipse cx="271.75" cy="365.7886" fill="none" rx="3" ry="3" style="stroke:#000000;stroke-width:1.0;"/><text fill="#000000" font-family="Verdana" font-size="14" lengthAdjust="spacing" textLength="141" x="278.75" y="369.8564">Date admissionDate</text><ellipse cx="271.75" cy="382.8032" fill="none" rx="3" ry="3" style="stroke:#000000;stroke-width:1.0;"/><text fill="#000000" font-family="Verdana" font-size="14" lengthAdjust="spacing" textLength="104" x="278.75" y="386.8711">String address</text><rect fill="none" height="6" style="stroke:#000000;stroke-width:1.0;" width="6" x="268.75" y="396.8179"/><text fill="#000000" font-family="Verdana" font-size="14" lengthAdjust="spacing" textLength="149" x="278.75" y="403.8857">Int Taxpayer number</text><rect fill="none" height="6" style="stroke:#000000;stroke-width:1.0;" width="6" x="268.75" y="413.8325"/><text fill="#000000" font-family="Verdana" font-size="14" lengthAdjust="spacing" textLength="128" x="278.75" y="420.9004">String contactInfo</text><rect fill="none" height="6" style="stroke:#000000;stroke-width:1.0;" width="6" x="268.75" y="430.8472"/><text fill="#000000" font-family="Verdana" font-size="14" lengthAdjust="spacing" textLength="121" x="278.75" y="437.915">String idDocType</text><rect fill="none" height="6" style="stroke:#000000;stroke-width:1.0;" width="6" x="268.75" y="447.8618"/><text fill="#000000" font-family="Verdana" font-size="14" lengthAdjust="spacing" textLength="142" x="278.75" y="454.9297">String idDocNumber</text></g><!--class assignTeam--><g id="elem_assignTeam"><rect codeLine="43" fill="#FFFFFF" height="86.0586" id="assignTeam" rx="2.5" ry="2.5" style="stroke:#000000;stroke-width:1.0;" width="188" x="500.25" y="538.7373"/><text fill="#000000" font-family="Verdana" font-size="14" lengthAdjust="spacing" textLength="83" x="552.75" y="557.8125">assignTeam</text><line style="stroke:#000000;stroke-width:1.0;" x1="501.25" x2="687.25" y1="565.752" y2="565.752"/><ellipse cx="511.25" cy="579.7593" fill="none" rx="3" ry="3" style="stroke:#000000;stroke-width:1.0;"/><text fill="#000000" font-family="Verdana" font-size="14" lengthAdjust="spacing" textLength="164" x="518.25" y="583.8271">List&lt;Skill&gt; requiredSkill</text><ellipse cx="511.25" cy="596.7739" fill="none" rx="3" ry="3" style="stroke:#000000;stroke-width:1.0;"/><text fill="#000000" font-family="Verdana" font-size="14" lengthAdjust="spacing" textLength="155" x="518.25" y="600.8418">Int minimumTeamSize</text><ellipse cx="511.25" cy="613.7886" fill="none" rx="3" ry="3" style="stroke:#000000;stroke-width:1.0;"/><text fill="#000000" font-family="Verdana" font-size="14" lengthAdjust="spacing" textLength="160" x="518.25" y="617.8564">Int maximumTeamSize</text></g><!--link company to HRM--><g id="link_company_HRM"><path codeLine="50" d="M318.88,214.0173 C316.15,223.8973 313.82,233.9773 312.25,243.7373 C309.79,259.0173 309.74,269.1966 312.73,284.6466 " fill="none" id="company-to-HRM" style="stroke:#000000;stroke-width:1.0;"/><polygon fill="#000000" points="313.87,290.5373,316.0871,280.9412,312.92,285.6284,308.2328,282.4613,313.87,290.5373" style="stroke:#000000;stroke-width:1.0;"/><text fill="#000000" font-family="Verdana" font-size="13" lengthAdjust="spacing" textLength="23" x="313.25" y="257.8071">has</text></g><!--link HRM to company--><g id="link_HRM_company"><path codeLine="56" d="M347.25,284.4773 C347.25,259.4773 347.25,244.2873 347.25,219.8673 " fill="none" id="HRM-company" style="stroke:#000000;stroke-width:1.0;"/><polygon fill="#000000" points="347.25,290.4773,351.25,281.4773,347.25,285.4773,343.25,281.4773,347.25,290.4773" style="stroke:#000000;stroke-width:1.0;"/><polygon fill="#000000" points="347.25,213.8673,343.25,222.8673,347.25,218.8673,351.25,222.8673,347.25,213.8673" style="stroke:#000000;stroke-width:1.0;"/><text fill="#000000" font-family="Verdana" font-size="13" lengthAdjust="spacing" textLength="88" x="348.25" y="257.8071">choose a skill</text></g><!--link HRM to assignTeam--><g id="link_HRM_assignTeam"><path codeLine="53" d="M433.99,448.6973 C470.4,478.7073 506.8893,508.762 538.3493,534.682 " fill="none" id="HRM-to-assignTeam" style="stroke:#000000;stroke-width:1.0;"/><polygon fill="#000000" points="542.98,538.4973,538.5774,529.6872,539.1211,535.3179,533.4904,535.8615,542.98,538.4973" style="stroke:#000000;stroke-width:1.0;"/><text fill="#000000" font-family="Verdana" font-size="13" lengthAdjust="spacing" textLength="24" x="500.25" y="505.8071">can</text></g><!--link assignTeam to Collaborator--><g id="link_assignTeam_Collaborator"><path codeLine="59" d="M546.92,624.7973 C514,654.0573 473.725,689.8517 434.925,724.3317 " fill="none" id="assignTeam-to-Collaborator" style="stroke:#000000;stroke-width:1.0;"/><polygon fill="#000000" points="430.44,728.3173,439.8245,725.3289,434.1775,724.996,434.5104,719.3489,430.44,728.3173" style="stroke:#000000;stroke-width:1.0;"/><text fill="#000000" font-family="Verdana" font-size="13" lengthAdjust="spacing" textLength="144" x="512.75" y="668.8071">chooses collaborators</text><text fill="#000000" font-family="Verdana" font-size="13" lengthAdjust="spacing" textLength="148" x="513.25" y="684.6064">with the required skills</text></g><!--link Collaborator to HRM--><g id="link_Collaborator_HRM"><path codeLine="61" d="M340.47,717.6973 C337.13,666.0173 334.21,598.5673 336.25,538.7373 C337.1,513.7373 338.2768,492.5931 339.9868,467.8231 " fill="none" id="Collaborator-to-HRM" style="stroke:#000000;stroke-width:1.0;"/><polygon fill="#000000" points="340.4,461.8373,335.7897,470.5404,340.0556,466.8254,343.7707,471.0914,340.4,461.8373" style="stroke:#000000;stroke-width:1.0;"/><text fill="#000000" font-family="Verdana" font-size="13" lengthAdjust="spacing" textLength="74" x="372.75" y="579.3071">returns the</text><text fill="#000000" font-family="Verdana" font-size="13" lengthAdjust="spacing" textLength="145" x="337.25" y="595.1064">choosen collaborators</text></g><!--SRC=[hLDDRzGm4BtxLmod7Y1LBrnG5Gcn1nQr7DZbril4dgwd-2FO4xKBuhzZPpVT1BedY1J5Vc_6cJVp_4eiUOBU8GSbB8xWw-RgBJG0xpCWVFno-mRMy8X1G2BiA512eS88eOS-nJvcT823H8_26ftRNofruUX-p4YyimA64sdX69IoR0WyYOqc7pQQatQab7QOC-ZeUmpxdmhAyteZYSCE0dfQ06XCefmNc8v1KCiwtCSHRsuuo_MdsBNm4BiympRVsBaMSltCyQAs1Ply7FiGdSCk5jKnjUKVfrrMlwQYvq5mhlHLRLp7IQmfgnc6ndFEfJkh2MzUaDcSatd4sQoYtkvx-XlzFFYEqja651cJaDA1_r7_IsDgriL3MtpgSKy9mgoaVnRsF8VoyYviYpMF8kPg4tqVYW_Dk3tGjIJFWVtWQzA6Vz2CmAS5KTjqT2SqJJlswXrOp0MlwugT2YYKnd2ahYitvHR2nfZh9He7K69cQJLoOQSfF2_DTnVWaSL2kS3FogQ1giK1freJoP12hZbtuN1g-CFIlm40]--></g></svg>