<?xml version="1.0" encoding="UTF-8" standalone="no"?><svg xmlns="http://www.w3.org/2000/svg" xmlns:xlink="http://www.w3.org/1999/xlink" contentStyleType="text/css" height="668px" preserveAspectRatio="none" style="width:583px;height:668px;background:#FFFFFF;" version="1.1" viewBox="0 0 583 668" width="583px" zoomAndPan="magnify"><defs/><g><rect fill="#FFFFFF" height="461.8906" style="stroke:#181818;stroke-width:1.0;" width="10" x="366" y="114.9609"/><rect fill="none" height="439.8906" style="stroke:#000000;stroke-width:1.5;" width="567" x="10" y="129.9609"/><rect fill="none" height="181.5938" style="stroke:#000000;stroke-width:1.5;" width="547" x="20" y="155.3125"/><rect fill="none" height="181.5938" style="stroke:#000000;stroke-width:1.5;" width="502" x="20" y="381.2578"/><line style="stroke:#181818;stroke-width:0.5;stroke-dasharray:5.0,5.0;" x1="143" x2="143" y1="82.6094" y2="586.8516"/><line style="stroke:#181818;stroke-width:0.5;stroke-dasharray:5.0,5.0;" x1="371" x2="371" y1="82.6094" y2="586.8516"/><text fill="#000000" font-family="sans-serif" font-size="14" lengthAdjust="spacing" textLength="220" x="30" y="79.5332">Human Resources Manager (HRM)</text><ellipse cx="143" cy="13.5" fill="#E2E2F0" rx="8" ry="8" style="stroke:#181818;stroke-width:0.5;"/><path d="M143,21.5 L143,48.5 M130,29.5 L156,29.5 M143,48.5 L130,63.5 M143,48.5 L156,63.5 " fill="none" style="stroke:#181818;stroke-width:0.5;"/><text fill="#000000" font-family="sans-serif" font-size="14" lengthAdjust="spacing" textLength="220" x="30" y="600.3848">Human Resources Manager (HRM)</text><ellipse cx="143" cy="611.9609" fill="#E2E2F0" rx="8" ry="8" style="stroke:#181818;stroke-width:0.5;"/><path d="M143,619.9609 L143,646.9609 M130,627.9609 L156,627.9609 M143,646.9609 L130,661.9609 M143,646.9609 L156,661.9609 " fill="none" style="stroke:#181818;stroke-width:0.5;"/><rect fill="#E2E2F0" height="31.6094" rx="2.5" ry="2.5" style="stroke:#181818;stroke-width:0.5;" width="60" x="341" y="50"/><text fill="#000000" font-family="sans-serif" font-size="14" lengthAdjust="spacing" textLength="46" x="348" y="71.5332">System</text><rect fill="#E2E2F0" height="31.6094" rx="2.5" ry="2.5" style="stroke:#181818;stroke-width:0.5;" width="60" x="341" y="585.8516"/><text fill="#000000" font-family="sans-serif" font-size="14" lengthAdjust="spacing" textLength="46" x="348" y="607.3848">System</text><rect fill="#FFFFFF" height="461.8906" style="stroke:#181818;stroke-width:1.0;" width="10" x="366" y="114.9609"/><polygon fill="#181818" points="354,110.9609,364,114.9609,354,118.9609,358,114.9609" style="stroke:#181818;stroke-width:1.0;"/><line style="stroke:#181818;stroke-width:1.0;" x1="143" x2="360" y1="114.9609" y2="114.9609"/><text fill="#000000" font-family="sans-serif" font-size="13" font-weight="bold" lengthAdjust="spacing" textLength="7" x="150" y="110.1045">1</text><text fill="#000000" font-family="sans-serif" font-size="13" lengthAdjust="spacing" textLength="131" x="161" y="110.1045">Request to register job</text><path d="M10,129.9609 L83,129.9609 L83,138.3125 L73,148.3125 L10,148.3125 L10,129.9609 " fill="#EEEEEE" style="stroke:#000000;stroke-width:1.5;"/><rect fill="none" height="439.8906" style="stroke:#000000;stroke-width:1.5;" width="567" x="10" y="129.9609"/><text fill="#000000" font-family="sans-serif" font-size="13" font-weight="bold" lengthAdjust="spacing" textLength="28" x="25" y="144.4561">loop</text><text fill="#000000" font-family="sans-serif" font-size="11" font-weight="bold" lengthAdjust="spacing" textLength="177" x="98" y="143.3799">[while HRM provides job details]</text><path d="M20,155.3125 L81,155.3125 L81,163.6641 L71,173.6641 L20,173.6641 L20,155.3125 " fill="#EEEEEE" style="stroke:#000000;stroke-width:1.5;"/><rect fill="none" height="181.5938" style="stroke:#000000;stroke-width:1.5;" width="547" x="20" y="155.3125"/><text fill="#000000" font-family="sans-serif" font-size="13" font-weight="bold" lengthAdjust="spacing" textLength="16" x="35" y="169.8076">alt</text><text fill="#000000" font-family="sans-serif" font-size="11" font-weight="bold" lengthAdjust="spacing" textLength="82" x="96" y="168.7314">[Valid request]</text><line style="stroke:#181818;stroke-width:1.0;" x1="376" x2="418" y1="196.0156" y2="196.0156"/><line style="stroke:#181818;stroke-width:1.0;" x1="418" x2="418" y1="196.0156" y2="209.0156"/><line style="stroke:#181818;stroke-width:1.0;" x1="377" x2="418" y1="209.0156" y2="209.0156"/><polygon fill="#181818" points="387,205.0156,377,209.0156,387,213.0156,383,209.0156" style="stroke:#181818;stroke-width:1.0;"/><text fill="#000000" font-family="sans-serif" font-size="13" font-weight="bold" lengthAdjust="spacing" textLength="7" x="383" y="191.1592">2</text><text fill="#000000" font-family="sans-serif" font-size="13" lengthAdjust="spacing" textLength="94" x="394" y="191.1592">Validate request</text><line style="stroke:#181818;stroke-width:1.0;" x1="376" x2="418" y1="239.3672" y2="239.3672"/><line style="stroke:#181818;stroke-width:1.0;" x1="418" x2="418" y1="239.3672" y2="252.3672"/><line style="stroke:#181818;stroke-width:1.0;" x1="377" x2="418" y1="252.3672" y2="252.3672"/><polygon fill="#181818" points="387,248.3672,377,252.3672,387,256.3672,383,252.3672" style="stroke:#181818;stroke-width:1.0;"/><text fill="#000000" font-family="sans-serif" font-size="13" font-weight="bold" lengthAdjust="spacing" textLength="7" x="383" y="234.5107">3</text><text fill="#000000" font-family="sans-serif" font-size="13" lengthAdjust="spacing" textLength="161" x="394" y="234.5107">Display job registration form</text><polygon fill="#181818" points="154,278.7188,144,282.7188,154,286.7188,150,282.7188" style="stroke:#181818;stroke-width:1.0;"/><line style="stroke:#181818;stroke-width:1.0;" x1="148" x2="365" y1="282.7188" y2="282.7188"/><text fill="#000000" font-family="sans-serif" font-size="13" font-weight="bold" lengthAdjust="spacing" textLength="7" x="160" y="277.8623">4</text><text fill="#000000" font-family="sans-serif" font-size="13" lengthAdjust="spacing" textLength="105" x="171" y="277.8623">Provide job details</text><line style="stroke:#000000;stroke-width:1.0;stroke-dasharray:2.0,2.0;" x1="20" x2="567" y1="291.7188" y2="291.7188"/><text fill="#000000" font-family="sans-serif" font-size="11" font-weight="bold" lengthAdjust="spacing" textLength="90" x="25" y="303.1377">[Invalid request]</text><polygon fill="#181818" points="154,324.9063,144,328.9063,154,332.9063,150,328.9063" style="stroke:#181818;stroke-width:1.0;"/><line style="stroke:#181818;stroke-width:1.0;stroke-dasharray:2.0,2.0;" x1="148" x2="365" y1="328.9063" y2="328.9063"/><text fill="#000000" font-family="sans-serif" font-size="13" font-weight="bold" lengthAdjust="spacing" textLength="7" x="160" y="324.0498">5</text><text fill="#000000" font-family="sans-serif" font-size="13" lengthAdjust="spacing" textLength="119" x="171" y="324.0498">Notify invalid request</text><polygon fill="#181818" points="354,362.2578,364,366.2578,354,370.2578,358,366.2578" style="stroke:#181818;stroke-width:1.0;"/><line style="stroke:#181818;stroke-width:1.0;" x1="143" x2="360" y1="366.2578" y2="366.2578"/><text fill="#000000" font-family="sans-serif" font-size="13" font-weight="bold" lengthAdjust="spacing" textLength="7" x="150" y="361.4014">6</text><text fill="#000000" font-family="sans-serif" font-size="13" lengthAdjust="spacing" textLength="105" x="161" y="361.4014">Provide job details</text><path d="M20,381.2578 L81,381.2578 L81,389.6094 L71,399.6094 L20,399.6094 L20,381.2578 " fill="#EEEEEE" style="stroke:#000000;stroke-width:1.5;"/><rect fill="none" height="181.5938" style="stroke:#000000;stroke-width:1.5;" width="502" x="20" y="381.2578"/><text fill="#000000" font-family="sans-serif" font-size="13" font-weight="bold" lengthAdjust="spacing" textLength="16" x="35" y="395.7529">alt</text><text fill="#000000" font-family="sans-serif" font-size="11" font-weight="bold" lengthAdjust="spacing" textLength="95" x="96" y="394.6768">[Valid job details]</text><line style="stroke:#181818;stroke-width:1.0;" x1="376" x2="418" y1="421.9609" y2="421.9609"/><line style="stroke:#181818;stroke-width:1.0;" x1="418" x2="418" y1="421.9609" y2="434.9609"/><line style="stroke:#181818;stroke-width:1.0;" x1="377" x2="418" y1="434.9609" y2="434.9609"/><polygon fill="#181818" points="387,430.9609,377,434.9609,387,438.9609,383,434.9609" style="stroke:#181818;stroke-width:1.0;"/><text fill="#000000" font-family="sans-serif" font-size="13" font-weight="bold" lengthAdjust="spacing" textLength="7" x="383" y="417.1045">7</text><text fill="#000000" font-family="sans-serif" font-size="13" lengthAdjust="spacing" textLength="110" x="394" y="417.1045">Validate job details</text><line style="stroke:#181818;stroke-width:1.0;" x1="376" x2="418" y1="465.3125" y2="465.3125"/><line style="stroke:#181818;stroke-width:1.0;" x1="418" x2="418" y1="465.3125" y2="478.3125"/><line style="stroke:#181818;stroke-width:1.0;" x1="377" x2="418" y1="478.3125" y2="478.3125"/><polygon fill="#181818" points="387,474.3125,377,478.3125,387,482.3125,383,478.3125" style="stroke:#181818;stroke-width:1.0;"/><text fill="#000000" font-family="sans-serif" font-size="13" font-weight="bold" lengthAdjust="spacing" textLength="7" x="383" y="460.4561">8</text><text fill="#000000" font-family="sans-serif" font-size="13" lengthAdjust="spacing" textLength="116" x="394" y="460.4561">Save job information</text><polygon fill="#181818" points="154,504.6641,144,508.6641,154,512.6641,150,508.6641" style="stroke:#181818;stroke-width:1.0;"/><line style="stroke:#181818;stroke-width:1.0;stroke-dasharray:2.0,2.0;" x1="148" x2="365" y1="508.6641" y2="508.6641"/><text fill="#000000" font-family="sans-serif" font-size="13" font-weight="bold" lengthAdjust="spacing" textLength="7" x="160" y="503.8076">9</text><text fill="#000000" font-family="sans-serif" font-size="13" lengthAdjust="spacing" textLength="188" x="171" y="503.8076">Notify successful job registration</text><line style="stroke:#000000;stroke-width:1.0;stroke-dasharray:2.0,2.0;" x1="20" x2="522" y1="517.6641" y2="517.6641"/><text fill="#000000" font-family="sans-serif" font-size="11" font-weight="bold" lengthAdjust="spacing" textLength="103" x="25" y="529.083">[Invalid job details]</text><polygon fill="#181818" points="154,550.8516,144,554.8516,154,558.8516,150,554.8516" style="stroke:#181818;stroke-width:1.0;"/><line style="stroke:#181818;stroke-width:1.0;stroke-dasharray:2.0,2.0;" x1="148" x2="365" y1="554.8516" y2="554.8516"/><text fill="#000000" font-family="sans-serif" font-size="13" font-weight="bold" lengthAdjust="spacing" textLength="14" x="160" y="549.9951">10</text><text fill="#000000" font-family="sans-serif" font-size="13" lengthAdjust="spacing" textLength="135" x="178" y="549.9951">Notify invalid job details</text><!--SRC=[XLB1JiCm3BtdAwoUuC0FxC29mpWCeKtYxZNkC4hZaZX5_NlIb8crq2qdotv-x_afMAi4gBQfHGzxYf92JH5swF540Uws-zrz1HWX5yPq69Hhxj0hL8SXAhLbE9K6aufFxP62oN1uUFmPR3BpPwAee0A1JfoR0JxaQB1Mxb7fpE14ElXwPqUZ87H1UhRPJyQ29KLsqQ1JU4F7DbCLLWFvJGINcWKpSb-7FN7i70v5Ol8MK5ayD1BQnKxsj87NoTJC4xb8yEpxLLldvHTHRWRW1PIyDSlC_jFvlVsoU-F-sz03zXEC_NXrkV-Q_PZg_4jYazoVsEPHh4cln36BD4TIOh6q-2NV]--></g></svg>