<?xml version="1.0" encoding="us-ascii" standalone="no"?><svg xmlns="http://www.w3.org/2000/svg" xmlns:xlink="http://www.w3.org/1999/xlink" contentStyleType="text/css" height="498px" preserveAspectRatio="none" style="width:1111px;height:498px;background:#FFFFFF;" version="1.1" viewBox="0 0 1111 498" width="1111px" zoomAndPan="magnify"><defs/><g><!--class AddEntryToDoListGUI--><g id="elem_ToDoListGUI"><rect codeLine="7" fill="#F1F1F1" height="48" id="ToDoListGUI" rx="2.5" ry="2.5" style="stroke:#181818;stroke-width:0.5;" width="112" x="352.5" y="7"/><ellipse cx="367.5" cy="23" fill="#ADD1B2" rx="11" ry="11" style="stroke:#181818;stroke-width:1.0;"/><path d="M370.2656,18.875 Q370.4219,18.6563 370.6094,18.5469 Q370.7969,18.4375 371.0156,18.4375 Q371.3906,18.4375 371.625,18.7031 Q371.8594,18.9531 371.8594,19.5625 L371.8594,21.0156 Q371.8594,21.625 371.625,21.8906 Q371.3906,22.1563 371.0156,22.1563 Q370.6719,22.1563 370.4688,21.9531 Q370.2656,21.7656 370.1563,21.25 Q370.1094,20.8906 369.9219,20.7031 Q369.5938,20.3281 368.9844,20.1094 Q368.375,19.8906 367.75,19.8906 Q366.9844,19.8906 366.3438,20.2188 Q365.7188,20.5469 365.2188,21.2969 Q364.7344,22.0469 364.7344,23.0781 L364.7344,24.1719 Q364.7344,25.4063 365.625,26.2344 Q366.5156,27.0469 368.1094,27.0469 Q369.0469,27.0469 369.7031,26.7969 Q370.0938,26.6406 370.5156,26.2031 Q370.7813,25.9375 370.9219,25.8594 Q371.0781,25.7813 371.2813,25.7813 Q371.6094,25.7813 371.8594,26.0469 Q372.125,26.2969 372.125,26.6406 Q372.125,26.9844 371.7813,27.3906 Q371.2813,27.9688 370.4844,28.2969 Q369.4063,28.75 368.1094,28.75 Q366.5938,28.75 365.3906,28.125 Q364.4063,27.625 363.7188,26.5625 Q363.0313,25.4844 363.0313,24.2031 L363.0313,23.0469 Q363.0313,21.7188 363.6406,20.5781 Q364.2656,19.4219 365.3594,18.8125 Q366.4531,18.1875 367.6875,18.1875 Q368.4219,18.1875 369.0625,18.3594 Q369.7188,18.5156 370.2656,18.875 Z " fill="#000000"/><text fill="#000000" font-family="sans-serif" font-size="14" lengthAdjust="spacing" textLength="80" x="381.5" y="28.7969">ToDoListGUI</text><line style="stroke:#181818;stroke-width:0.5;" x1="353.5" x2="463.5" y1="39" y2="39"/><line style="stroke:#181818;stroke-width:0.5;" x1="353.5" x2="463.5" y1="47" y2="47"/></g><!--class GreenSpaceController--><g id="elem_GreenSpaceController"><rect codeLine="10" fill="#F1F1F1" height="66.6211" id="GreenSpaceController" rx="2.5" ry="2.5" style="stroke:#181818;stroke-width:0.5;" width="237" x="7" y="115"/><ellipse cx="50.35" cy="131" fill="#ADD1B2" rx="11" ry="11" style="stroke:#181818;stroke-width:1.0;"/><path d="M53.1156,126.875 Q53.2719,126.6563 53.4594,126.5469 Q53.6469,126.4375 53.8656,126.4375 Q54.2406,126.4375 54.475,126.7031 Q54.7094,126.9531 54.7094,127.5625 L54.7094,129.0156 Q54.7094,129.625 54.475,129.8906 Q54.2406,130.1563 53.8656,130.1563 Q53.5219,130.1563 53.3188,129.9531 Q53.1156,129.7656 53.0063,129.25 Q52.9594,128.8906 52.7719,128.7031 Q52.4438,128.3281 51.8344,128.1094 Q51.225,127.8906 50.6,127.8906 Q49.8344,127.8906 49.1938,128.2188 Q48.5688,128.5469 48.0688,129.2969 Q47.5844,130.0469 47.5844,131.0781 L47.5844,132.1719 Q47.5844,133.4063 48.475,134.2344 Q49.3656,135.0469 50.9594,135.0469 Q51.8969,135.0469 52.5531,134.7969 Q52.9438,134.6406 53.3656,134.2031 Q53.6313,133.9375 53.7719,133.8594 Q53.9281,133.7813 54.1313,133.7813 Q54.4594,133.7813 54.7094,134.0469 Q54.975,134.2969 54.975,134.6406 Q54.975,134.9844 54.6313,135.3906 Q54.1313,135.9688 53.3344,136.2969 Q52.2563,136.75 50.9594,136.75 Q49.4438,136.75 48.2406,136.125 Q47.2563,135.625 46.5688,134.5625 Q45.8813,133.4844 45.8813,132.2031 L45.8813,131.0469 Q45.8813,129.7188 46.4906,128.5781 Q47.1156,127.4219 48.2094,126.8125 Q49.3031,126.1875 50.5375,126.1875 Q51.2719,126.1875 51.9125,126.3594 Q52.5688,126.5156 53.1156,126.875 Z " fill="#000000"/><text fill="#000000" font-family="sans-serif" font-size="14" lengthAdjust="spacing" textLength="142" x="70.65" y="136.7969">GreenSpaceController</text><line style="stroke:#181818;stroke-width:0.5;" x1="8" x2="243" y1="147" y2="147"/><line style="stroke:#181818;stroke-width:0.5;" x1="8" x2="243" y1="155" y2="155"/><text fill="#000000" font-family="sans-serif" font-size="14" lengthAdjust="spacing" textLength="225" x="13" y="174.1074">+getGreenSpaces() : GreenSpace[]</text></g><!--class ToDoListController--><g id="elem_ToDoListController"><rect codeLine="14" fill="#F1F1F1" height="66.6211" id="ToDoListController" rx="2.5" ry="2.5" style="stroke:#181818;stroke-width:0.5;" width="825" x="279" y="115"/><ellipse cx="627.75" cy="131" fill="#ADD1B2" rx="11" ry="11" style="stroke:#181818;stroke-width:1.0;"/><path d="M630.5156,126.875 Q630.6719,126.6563 630.8594,126.5469 Q631.0469,126.4375 631.2656,126.4375 Q631.6406,126.4375 631.875,126.7031 Q632.1094,126.9531 632.1094,127.5625 L632.1094,129.0156 Q632.1094,129.625 631.875,129.8906 Q631.6406,130.1563 631.2656,130.1563 Q630.9219,130.1563 630.7188,129.9531 Q630.5156,129.7656 630.4063,129.25 Q630.3594,128.8906 630.1719,128.7031 Q629.8438,128.3281 629.2344,128.1094 Q628.625,127.8906 628,127.8906 Q627.2344,127.8906 626.5938,128.2188 Q625.9688,128.5469 625.4688,129.2969 Q624.9844,130.0469 624.9844,131.0781 L624.9844,132.1719 Q624.9844,133.4063 625.875,134.2344 Q626.7656,135.0469 628.3594,135.0469 Q629.2969,135.0469 629.9531,134.7969 Q630.3438,134.6406 630.7656,134.2031 Q631.0313,133.9375 631.1719,133.8594 Q631.3281,133.7813 631.5313,133.7813 Q631.8594,133.7813 632.1094,134.0469 Q632.375,134.2969 632.375,134.6406 Q632.375,134.9844 632.0313,135.3906 Q631.5313,135.9688 630.7344,136.2969 Q629.6563,136.75 628.3594,136.75 Q626.8438,136.75 625.6406,136.125 Q624.6563,135.625 623.9688,134.5625 Q623.2813,133.4844 623.2813,132.2031 L623.2813,131.0469 Q623.2813,129.7188 623.8906,128.5781 Q624.5156,127.4219 625.6094,126.8125 Q626.7031,126.1875 627.9375,126.1875 Q628.6719,126.1875 629.3125,126.3594 Q629.9688,126.5156 630.5156,126.875 Z " fill="#000000"/><text fill="#000000" font-family="sans-serif" font-size="14" lengthAdjust="spacing" textLength="119" x="648.25" y="136.7969">ToDoListController</text><line style="stroke:#181818;stroke-width:0.5;" x1="280" x2="1103" y1="147" y2="147"/><line style="stroke:#181818;stroke-width:0.5;" x1="280" x2="1103" y1="155" y2="155"/><text fill="#000000" font-family="sans-serif" font-size="14" lengthAdjust="spacing" textLength="813" x="285" y="174.1074">+createToDoList(title : String, description : String, degreeOfUrgency : String, expectedDuration : String, status : String) : ToDoList</text></g><!--class Repositories--><g id="elem_Repositories"><rect codeLine="18" fill="#F1F1F1" height="103.8633" id="Repositories" rx="2.5" ry="2.5" style="stroke:#181818;stroke-width:0.5;" width="358" x="229.5" y="242"/><ellipse cx="364.75" cy="258" fill="#ADD1B2" rx="11" ry="11" style="stroke:#181818;stroke-width:1.0;"/><path d="M367.5156,253.875 Q367.6719,253.6563 367.8594,253.5469 Q368.0469,253.4375 368.2656,253.4375 Q368.6406,253.4375 368.875,253.7031 Q369.1094,253.9531 369.1094,254.5625 L369.1094,256.0156 Q369.1094,256.625 368.875,256.8906 Q368.6406,257.1563 368.2656,257.1563 Q367.9219,257.1563 367.7188,256.9531 Q367.5156,256.7656 367.4063,256.25 Q367.3594,255.8906 367.1719,255.7031 Q366.8438,255.3281 366.2344,255.1094 Q365.625,254.8906 365,254.8906 Q364.2344,254.8906 363.5938,255.2188 Q362.9688,255.5469 362.4688,256.2969 Q361.9844,257.0469 361.9844,258.0781 L361.9844,259.1719 Q361.9844,260.4063 362.875,261.2344 Q363.7656,262.0469 365.3594,262.0469 Q366.2969,262.0469 366.9531,261.7969 Q367.3438,261.6406 367.7656,261.2031 Q368.0313,260.9375 368.1719,260.8594 Q368.3281,260.7813 368.5313,260.7813 Q368.8594,260.7813 369.1094,261.0469 Q369.375,261.2969 369.375,261.6406 Q369.375,261.9844 369.0313,262.3906 Q368.5313,262.9688 367.7344,263.2969 Q366.6563,263.75 365.3594,263.75 Q363.8438,263.75 362.6406,263.125 Q361.6563,262.625 360.9688,261.5625 Q360.2813,260.4844 360.2813,259.2031 L360.2813,258.0469 Q360.2813,256.7188 360.8906,255.5781 Q361.5156,254.4219 362.6094,253.8125 Q363.7031,253.1875 364.9375,253.1875 Q365.6719,253.1875 366.3125,253.3594 Q366.9688,253.5156 367.5156,253.875 Z " fill="#000000"/><text fill="#000000" font-family="sans-serif" font-size="14" lengthAdjust="spacing" textLength="79" x="385.25" y="263.7969">Repositories</text><line style="stroke:#181818;stroke-width:0.5;" x1="230.5" x2="586.5" y1="274" y2="274"/><line style="stroke:#181818;stroke-width:0.5;" x1="230.5" x2="586.5" y1="282" y2="282"/><text fill="#000000" font-family="sans-serif" font-size="14" lengthAdjust="spacing" textLength="182" x="235.5" y="301.1074">+getInstance() : Repositories</text><text fill="#000000" font-family="sans-serif" font-size="14" lengthAdjust="spacing" textLength="346" x="235.5" y="319.7285">+getGreenSpaceRepository() : GreenSpaceRepository</text><text fill="#000000" font-family="sans-serif" font-size="14" lengthAdjust="spacing" textLength="164" x="235.5" y="338.3496">+getToDoList() : ToDoList</text></g><!--class GreenSpaceRepository--><g id="elem_GreenSpaceRepository"><rect codeLine="24" fill="#F1F1F1" height="66.6211" id="GreenSpaceRepository" rx="2.5" ry="2.5" style="stroke:#181818;stroke-width:0.5;" width="237" x="168" y="415"/><ellipse cx="208.65" cy="431" fill="#ADD1B2" rx="11" ry="11" style="stroke:#181818;stroke-width:1.0;"/><path d="M211.4156,426.875 Q211.5719,426.6563 211.7594,426.5469 Q211.9469,426.4375 212.1656,426.4375 Q212.5406,426.4375 212.775,426.7031 Q213.0094,426.9531 213.0094,427.5625 L213.0094,429.0156 Q213.0094,429.625 212.775,429.8906 Q212.5406,430.1563 212.1656,430.1563 Q211.8219,430.1563 211.6188,429.9531 Q211.4156,429.7656 211.3063,429.25 Q211.2594,428.8906 211.0719,428.7031 Q210.7438,428.3281 210.1344,428.1094 Q209.525,427.8906 208.9,427.8906 Q208.1344,427.8906 207.4938,428.2188 Q206.8688,428.5469 206.3688,429.2969 Q205.8844,430.0469 205.8844,431.0781 L205.8844,432.1719 Q205.8844,433.4063 206.775,434.2344 Q207.6656,435.0469 209.2594,435.0469 Q210.1969,435.0469 210.8531,434.7969 Q211.2438,434.6406 211.6656,434.2031 Q211.9313,433.9375 212.0719,433.8594 Q212.2281,433.7813 212.4313,433.7813 Q212.7594,433.7813 213.0094,434.0469 Q213.275,434.2969 213.275,434.6406 Q213.275,434.9844 212.9313,435.3906 Q212.4313,435.9688 211.6344,436.2969 Q210.5563,436.75 209.2594,436.75 Q207.7438,436.75 206.5406,436.125 Q205.5563,435.625 204.8688,434.5625 Q204.1813,433.4844 204.1813,432.2031 L204.1813,431.0469 Q204.1813,429.7188 204.7906,428.5781 Q205.4156,427.4219 206.5094,426.8125 Q207.6031,426.1875 208.8375,426.1875 Q209.5719,426.1875 210.2125,426.3594 Q210.8688,426.5156 211.4156,426.875 Z " fill="#000000"/><text fill="#000000" font-family="sans-serif" font-size="14" lengthAdjust="spacing" textLength="148" x="228.35" y="436.7969">GreenSpaceRepository</text><line style="stroke:#181818;stroke-width:0.5;" x1="169" x2="404" y1="447" y2="447"/><line style="stroke:#181818;stroke-width:0.5;" x1="169" x2="404" y1="455" y2="455"/><text fill="#000000" font-family="sans-serif" font-size="14" lengthAdjust="spacing" textLength="225" x="174" y="474.1074">+getGreenSpaces() : GreenSpace[]</text></g><!--class ToDoList--><g id="elem_ToDoList"><rect codeLine="28" fill="#F1F1F1" height="85.2422" id="ToDoList" rx="2.5" ry="2.5" style="stroke:#181818;stroke-width:0.5;" width="182" x="440.5" y="406"/><ellipse cx="498.75" cy="422" fill="#ADD1B2" rx="11" ry="11" style="stroke:#181818;stroke-width:1.0;"/><path d="M501.5156,417.875 Q501.6719,417.6563 501.8594,417.5469 Q502.0469,417.4375 502.2656,417.4375 Q502.6406,417.4375 502.875,417.7031 Q503.1094,417.9531 503.1094,418.5625 L503.1094,420.0156 Q503.1094,420.625 502.875,420.8906 Q502.6406,421.1563 502.2656,421.1563 Q501.9219,421.1563 501.7188,420.9531 Q501.5156,420.7656 501.4063,420.25 Q501.3594,419.8906 501.1719,419.7031 Q500.8438,419.3281 500.2344,419.1094 Q499.625,418.8906 499,418.8906 Q498.2344,418.8906 497.5938,419.2188 Q496.9688,419.5469 496.4688,420.2969 Q495.9844,421.0469 495.9844,422.0781 L495.9844,423.1719 Q495.9844,424.4063 496.875,425.2344 Q497.7656,426.0469 499.3594,426.0469 Q500.2969,426.0469 500.9531,425.7969 Q501.3438,425.6406 501.7656,425.2031 Q502.0313,424.9375 502.1719,424.8594 Q502.3281,424.7813 502.5313,424.7813 Q502.8594,424.7813 503.1094,425.0469 Q503.375,425.2969 503.375,425.6406 Q503.375,425.9844 503.0313,426.3906 Q502.5313,426.9688 501.7344,427.2969 Q500.6563,427.75 499.3594,427.75 Q497.8438,427.75 496.6406,427.125 Q495.6563,426.625 494.9688,425.5625 Q494.2813,424.4844 494.2813,423.2031 L494.2813,422.0469 Q494.2813,420.7188 494.8906,419.5781 Q495.5156,418.4219 496.6094,417.8125 Q497.7031,417.1875 498.9375,417.1875 Q499.6719,417.1875 500.3125,417.3594 Q500.9688,417.5156 501.5156,417.875 Z " fill="#000000"/><text fill="#000000" font-family="sans-serif" font-size="14" lengthAdjust="spacing" textLength="57" x="519.25" y="427.7969">ToDoList</text><line style="stroke:#181818;stroke-width:0.5;" x1="441.5" x2="621.5" y1="438" y2="438"/><line style="stroke:#181818;stroke-width:0.5;" x1="441.5" x2="621.5" y1="446" y2="446"/><text fill="#000000" font-family="sans-serif" font-size="14" lengthAdjust="spacing" textLength="170" x="446.5" y="465.1074">+addToDoListEntry() : void</text><text fill="#000000" font-family="sans-serif" font-size="14" lengthAdjust="spacing" textLength="138" x="446.5" y="483.7285">+validateEntry() : void</text></g><!--link AddEntryToDoListGUI to GreenSpaceController--><g id="link_ToDoListGUI_GreenSpaceController"><path codeLine="34" d="M352.25,54.96 C310.18,72.13 257.6354,93.5733 210.7754,112.6933 " fill="none" id="ToDoListGUI-to-GreenSpaceController" style="stroke:#181818;stroke-width:1.0;stroke-dasharray:7.0,7.0;"/><polygon fill="#181818" points="205.22,114.96,215.0642,115.2635,209.8495,113.0711,212.0419,107.8564,205.22,114.96" style="stroke:#181818;stroke-width:1.0;"/></g><!--link AddEntryToDoListGUI to ToDoListController--><g id="link_ToDoListGUI_ToDoListController"><path codeLine="35" d="M464.75,54.96 C506.82,72.13 559.3646,93.5733 606.2246,112.6933 " fill="none" id="ToDoListGUI-to-ToDoListController" style="stroke:#181818;stroke-width:1.0;stroke-dasharray:7.0,7.0;"/><polygon fill="#181818" points="611.78,114.96,604.9581,107.8564,607.1505,113.0711,601.9358,115.2635,611.78,114.96" style="stroke:#181818;stroke-width:1.0;"/></g><!--link GreenSpaceController to Repositories--><g id="link_GreenSpaceController_Repositories"><path codeLine="37" d="M189.72,182.06 C224.62,199.76 263.2088,219.3263 302.5488,239.2763 " fill="none" id="GreenSpaceController-to-Repositories" style="stroke:#181818;stroke-width:1.0;stroke-dasharray:7.0,7.0;"/><polygon fill="#181818" points="307.9,241.99,301.6823,234.3519,303.4406,239.7286,298.064,241.4869,307.9,241.99" style="stroke:#181818;stroke-width:1.0;"/></g><!--link ToDoListController to Repositories--><g id="link_ToDoListController_Repositories"><path codeLine="38" d="M627.28,182.06 C592.38,199.76 553.7912,219.3263 514.4512,239.2763 " fill="none" id="ToDoListController-to-Repositories" style="stroke:#181818;stroke-width:1.0;stroke-dasharray:7.0,7.0;"/><polygon fill="#181818" points="509.1,241.99,518.936,241.4869,513.5594,239.7286,515.3177,234.3519,509.1,241.99" style="stroke:#181818;stroke-width:1.0;"/></g><!--link Repositories to GreenSpaceRepository--><g id="link_Repositories_GreenSpaceRepository"><path codeLine="40" d="M367.54,346.2 C349.4,368.88 332.359,390.1855 316.369,410.1655 " fill="none" id="Repositories-to-GreenSpaceRepository" style="stroke:#181818;stroke-width:1.0;stroke-dasharray:7.0,7.0;"/><polygon fill="#181818" points="312.62,414.85,321.3666,410.3226,315.7442,410.9462,315.1205,405.3239,312.62,414.85" style="stroke:#181818;stroke-width:1.0;"/></g><!--link Repositories to ToDoList--><g id="link_Repositories_ToDoList"><path codeLine="41" d="M449.8,346.2 C465.43,365.59 479.2517,382.7309 494.1017,401.1309 " fill="none" id="Repositories-to-ToDoList" style="stroke:#181818;stroke-width:1.0;stroke-dasharray:7.0,7.0;"/><polygon fill="#181818" points="497.87,405.8,495.3303,396.2842,494.7298,401.9091,489.1049,401.3086,497.87,405.8" style="stroke:#181818;stroke-width:1.0;"/></g><!--SRC=[dLAnJiCm4Dtz5HwBG1Lp1oH4KHK92OdG2J4SzjLODRPbNme1yUyuXIHEuubikVVk_ExTYtjjFGHuunx47XJMr1ha0GM1LGPP70Zn5QHxrrRn7PYO8qPRfDOZzywqtG_BG64WnckYe5yQmaeuM-jFv9UC7H7-wDRkJaVQR2l-nRxxyYOWsZg9mXjdAJXZC2ISf- -SAwGHZuiplihuJy_Zb7vuOOO828GzOK6QqjuhNYUXLbrmYL44xKaxEwcgzCxzRXiKMj5c27xuv1dATHFWf2aIK1E7GgUsVtPK-e3UHKqkQ8pvdfLDxLRWSScSLB9YmDiJJqPWR1jMBmigDV__04CdIDdNRjDDVeKUd9P_-06Cbkam9s0QoFAaB9TNnOZCIFC4C5RCLaUU-5l8pep39cURYieydx46kzaF]--></g></svg>