<?xml version="1.0" encoding="us-ascii" standalone="no"?><svg xmlns="http://www.w3.org/2000/svg" xmlns:xlink="http://www.w3.org/1999/xlink" contentStyleType="text/css" height="1034px" preserveAspectRatio="none" style="width:1458px;height:1034px;background:#FFFFFF;" version="1.1" viewBox="0 0 1458 1034" width="1458px" zoomAndPan="magnify"><defs/><g><rect fill="#FFFFFF" height="802.8965" style="stroke:#181818;stroke-width:1.0;" width="10" x="75" y="112.2422"/><rect fill="#FFFFFF" height="281.6191" style="stroke:#181818;stroke-width:1.0;" width="10" x="373" y="135.5332"/><rect fill="#FFFFFF" height="48.582" style="stroke:#181818;stroke-width:1.0;" width="10" x="373" y="448.4434"/><rect fill="#FFFFFF" height="386.8223" style="stroke:#181818;stroke-width:1.0;" width="10" x="373" y="528.3164"/><rect fill="#FFFFFF" height="219.0371" style="stroke:#181818;stroke-width:1.0;" width="10" x="518" y="166.8242"/><rect fill="#FFFFFF" height="263.3281" style="stroke:#181818;stroke-width:1.0;" width="10" x="719" y="620.5195"/><rect fill="#FFFFFF" height="31.291" style="stroke:#181818;stroke-width:1.0;" width="10" x="846" y="198.1152"/><rect fill="#FFFFFF" height="31.291" style="stroke:#181818;stroke-width:1.0;" width="10" x="846" y="651.8105"/><rect fill="#FFFFFF" height="31.291" style="stroke:#181818;stroke-width:1.0;" width="10" x="953" y="260.6973"/><rect fill="#FFFFFF" height="31.291" style="stroke:#181818;stroke-width:1.0;" width="10" x="1150" y="323.2793"/><rect fill="#FFFFFF" height="31.291" style="stroke:#181818;stroke-width:1.0;" width="10" x="1334" y="714.3926"/><rect fill="#FFFFFF" height="75.582" style="stroke:#181818;stroke-width:1.0;" width="10" x="1334" y="776.9746"/><line style="stroke:#181818;stroke-width:0.5;stroke-dasharray:5.0,5.0;" x1="80" x2="80" y1="102.2422" y2="933.1387"/><line style="stroke:#181818;stroke-width:0.5;stroke-dasharray:5.0,5.0;" x1="378" x2="378" y1="102.2422" y2="933.1387"/><line style="stroke:#181818;stroke-width:0.5;stroke-dasharray:5.0,5.0;" x1="523" x2="523" y1="102.2422" y2="933.1387"/><line style="stroke:#181818;stroke-width:0.5;stroke-dasharray:5.0,5.0;" x1="723.5" x2="723.5" y1="568.127" y2="933.1387"/><line style="stroke:#181818;stroke-width:0.5;stroke-dasharray:5.0,5.0;" x1="850.5" x2="850.5" y1="102.2422" y2="933.1387"/><line style="stroke:#181818;stroke-width:0.5;stroke-dasharray:5.0,5.0;" x1="957.5" x2="957.5" y1="102.2422" y2="933.1387"/><line style="stroke:#181818;stroke-width:0.5;stroke-dasharray:5.0,5.0;" x1="1154.5" x2="1154.5" y1="102.2422" y2="933.1387"/><line style="stroke:#181818;stroke-width:0.5;stroke-dasharray:5.0,5.0;" x1="1338.5" x2="1338.5" y1="102.2422" y2="933.1387"/><text fill="#000000" font-family="sans-serif" font-size="14" lengthAdjust="spacing" textLength="144" x="5" y="80.1074">Green Space Manager</text><text fill="#000000" font-family="sans-serif" font-size="14" lengthAdjust="spacing" textLength="41" x="58.5" y="98.7285">(GSM)</text><ellipse cx="80" cy="13.5" fill="#E3E3E3" rx="8" ry="8" style="stroke:#181818;stroke-width:0.5;"/><path d="M80,21.5 L80,48.5 M67,29.5 L93,29.5 M80,48.5 L67,63.5 M80,48.5 L93,63.5 " fill="none" style="stroke:#181818;stroke-width:0.5;"/><text fill="#000000" font-family="sans-serif" font-size="14" lengthAdjust="spacing" textLength="144" x="5" y="947.2461">Green Space Manager</text><text fill="#000000" font-family="sans-serif" font-size="14" lengthAdjust="spacing" textLength="41" x="58.5" y="965.8672">(GSM)</text><ellipse cx="80" cy="977.8809" fill="#E3E3E3" rx="8" ry="8" style="stroke:#181818;stroke-width:0.5;"/><path d="M80,985.8809 L80,1012.8809 M67,993.8809 L93,993.8809 M80,1012.8809 L67,1027.8809 M80,1012.8809 L93,1027.8809 " fill="none" style="stroke:#181818;stroke-width:0.5;"/><rect fill="#E3E3E3" height="32.6211" rx="2.5" ry="2.5" style="stroke:#181818;stroke-width:0.5;" width="98" x="329" y="68.6211"/><text fill="#000000" font-family="sans-serif" font-size="14" lengthAdjust="spacing" textLength="84" x="336" y="90.7285">:ToDoListGUI</text><rect fill="#E3E3E3" height="32.6211" rx="2.5" ry="2.5" style="stroke:#181818;stroke-width:0.5;" width="98" x="329" y="932.1387"/><text fill="#000000" font-family="sans-serif" font-size="14" lengthAdjust="spacing" textLength="84" x="336" y="954.2461">:ToDoListGUI</text><rect fill="#E3E3E3" height="32.6211" rx="2.5" ry="2.5" style="stroke:#181818;stroke-width:0.5;" width="160" x="443" y="68.6211"/><text fill="#000000" font-family="sans-serif" font-size="14" lengthAdjust="spacing" textLength="146" x="450" y="90.7285">:GreenSpaceController</text><rect fill="#E3E3E3" height="32.6211" rx="2.5" ry="2.5" style="stroke:#181818;stroke-width:0.5;" width="160" x="443" y="932.1387"/><text fill="#000000" font-family="sans-serif" font-size="14" lengthAdjust="spacing" textLength="146" x="450" y="954.2461">:GreenSpaceController</text><rect fill="#E3E3E3" height="32.6211" rx="2.5" ry="2.5" style="stroke:#181818;stroke-width:0.5;" width="137" x="655.5" y="932.1387"/><text fill="#000000" font-family="sans-serif" font-size="14" lengthAdjust="spacing" textLength="123" x="662.5" y="954.2461">:ToDoListController</text><rect fill="#E3E3E3" height="32.6211" rx="2.5" ry="2.5" style="stroke:#181818;stroke-width:0.5;" width="97" x="802.5" y="68.6211"/><text fill="#000000" font-family="sans-serif" font-size="14" lengthAdjust="spacing" textLength="83" x="809.5" y="90.7285">:Repositories</text><rect fill="#E3E3E3" height="32.6211" rx="2.5" ry="2.5" style="stroke:#181818;stroke-width:0.5;" width="97" x="802.5" y="932.1387"/><text fill="#000000" font-family="sans-serif" font-size="14" lengthAdjust="spacing" textLength="83" x="809.5" y="954.2461">:Repositories</text><rect fill="#E3E3E3" height="51.2422" rx="2.5" ry="2.5" style="stroke:#181818;stroke-width:0.5;" width="97" x="909.5" y="50"/><text fill="#000000" font-family="sans-serif" font-size="14" lengthAdjust="spacing" textLength="74" x="921" y="72.1074">repositories</text><text fill="#000000" font-family="sans-serif" font-size="14" lengthAdjust="spacing" textLength="83" x="916.5" y="90.7285">:Repositories</text><rect fill="#E3E3E3" height="51.2422" rx="2.5" ry="2.5" style="stroke:#181818;stroke-width:0.5;" width="97" x="909.5" y="932.1387"/><text fill="#000000" font-family="sans-serif" font-size="14" lengthAdjust="spacing" textLength="74" x="921" y="954.2461">repositories</text><text fill="#000000" font-family="sans-serif" font-size="14" lengthAdjust="spacing" textLength="83" x="916.5" y="972.8672">:Repositories</text><rect fill="#E3E3E3" height="32.6211" rx="2.5" ry="2.5" style="stroke:#181818;stroke-width:0.5;" width="277" x="1016.5" y="68.6211"/><text fill="#000000" font-family="sans-serif" font-size="14" lengthAdjust="spacing" textLength="263" x="1023.5" y="90.7285">greenSpaceRepo:GreenSpaceRepository</text><rect fill="#E3E3E3" height="32.6211" rx="2.5" ry="2.5" style="stroke:#181818;stroke-width:0.5;" width="277" x="1016.5" y="932.1387"/><text fill="#000000" font-family="sans-serif" font-size="14" lengthAdjust="spacing" textLength="263" x="1023.5" y="954.2461">greenSpaceRepo:GreenSpaceRepository</text><rect fill="#E3E3E3" height="32.6211" rx="2.5" ry="2.5" style="stroke:#181818;stroke-width:0.5;" width="71" x="1303.5" y="68.6211"/><text fill="#000000" font-family="sans-serif" font-size="14" lengthAdjust="spacing" textLength="57" x="1310.5" y="90.7285">ToDoList</text><rect fill="#E3E3E3" height="32.6211" rx="2.5" ry="2.5" style="stroke:#181818;stroke-width:0.5;" width="71" x="1303.5" y="932.1387"/><text fill="#000000" font-family="sans-serif" font-size="14" lengthAdjust="spacing" textLength="57" x="1310.5" y="954.2461">ToDoList</text><rect fill="#FFFFFF" height="802.8965" style="stroke:#181818;stroke-width:1.0;" width="10" x="75" y="112.2422"/><rect fill="#FFFFFF" height="281.6191" style="stroke:#181818;stroke-width:1.0;" width="10" x="373" y="135.5332"/><rect fill="#FFFFFF" height="48.582" style="stroke:#181818;stroke-width:1.0;" width="10" x="373" y="448.4434"/><rect fill="#FFFFFF" height="386.8223" style="stroke:#181818;stroke-width:1.0;" width="10" x="373" y="528.3164"/><rect fill="#FFFFFF" height="219.0371" style="stroke:#181818;stroke-width:1.0;" width="10" x="518" y="166.8242"/><rect fill="#FFFFFF" height="263.3281" style="stroke:#181818;stroke-width:1.0;" width="10" x="719" y="620.5195"/><rect fill="#FFFFFF" height="31.291" style="stroke:#181818;stroke-width:1.0;" width="10" x="846" y="198.1152"/><rect fill="#FFFFFF" height="31.291" style="stroke:#181818;stroke-width:1.0;" width="10" x="846" y="651.8105"/><rect fill="#FFFFFF" height="31.291" style="stroke:#181818;stroke-width:1.0;" width="10" x="953" y="260.6973"/><rect fill="#FFFFFF" height="31.291" style="stroke:#181818;stroke-width:1.0;" width="10" x="1150" y="323.2793"/><rect fill="#FFFFFF" height="31.291" style="stroke:#181818;stroke-width:1.0;" width="10" x="1334" y="714.3926"/><rect fill="#FFFFFF" height="75.582" style="stroke:#181818;stroke-width:1.0;" width="10" x="1334" y="776.9746"/><polygon fill="#181818" points="361,131.5332,371,135.5332,361,139.5332,365,135.5332" style="stroke:#181818;stroke-width:1.0;"/><line style="stroke:#181818;stroke-width:1.0;" x1="85" x2="367" y1="135.5332" y2="135.5332"/><text fill="#000000" font-family="sans-serif" font-size="13" font-weight="bold" lengthAdjust="spacing" textLength="7" x="92" y="130.2705">1</text><text fill="#000000" font-family="sans-serif" font-size="13" lengthAdjust="spacing" textLength="239" x="103" y="130.2705">asks to add a new entry to the To-Do List</text><polygon fill="#181818" points="506,162.8242,516,166.8242,506,170.8242,510,166.8242" style="stroke:#181818;stroke-width:1.0;"/><line style="stroke:#181818;stroke-width:1.0;" x1="383" x2="512" y1="166.8242" y2="166.8242"/><text fill="#000000" font-family="sans-serif" font-size="13" font-weight="bold" lengthAdjust="spacing" textLength="7" x="390" y="161.5615">2</text><text fill="#000000" font-family="sans-serif" font-size="13" lengthAdjust="spacing" textLength="105" x="401" y="161.5615">getGreenSpaces()</text><polygon fill="#181818" points="834,194.1152,844,198.1152,834,202.1152,838,198.1152" style="stroke:#181818;stroke-width:1.0;"/><line style="stroke:#181818;stroke-width:1.0;" x1="528" x2="840" y1="198.1152" y2="198.1152"/><text fill="#000000" font-family="sans-serif" font-size="13" font-weight="bold" lengthAdjust="spacing" textLength="7" x="535" y="192.8525">3</text><text fill="#000000" font-family="sans-serif" font-size="13" lengthAdjust="spacing" textLength="75" x="546" y="192.8525">getInstance()</text><polygon fill="#181818" points="539,225.4063,529,229.4063,539,233.4063,535,229.4063" style="stroke:#181818;stroke-width:1.0;"/><line style="stroke:#181818;stroke-width:1.0;stroke-dasharray:2.0,2.0;" x1="533" x2="850" y1="229.4063" y2="229.4063"/><text fill="#000000" font-family="sans-serif" font-size="13" font-weight="bold" lengthAdjust="spacing" textLength="7" x="545" y="224.1436">4</text><text fill="#000000" font-family="sans-serif" font-size="13" lengthAdjust="spacing" textLength="67" x="556" y="224.1436">repositories</text><polygon fill="#181818" points="941,256.6973,951,260.6973,941,264.6973,945,260.6973" style="stroke:#181818;stroke-width:1.0;"/><line style="stroke:#181818;stroke-width:1.0;" x1="528" x2="947" y1="260.6973" y2="260.6973"/><text fill="#000000" font-family="sans-serif" font-size="13" font-weight="bold" lengthAdjust="spacing" textLength="7" x="535" y="255.4346">5</text><text fill="#000000" font-family="sans-serif" font-size="13" lengthAdjust="spacing" textLength="160" x="546" y="255.4346">getGreenSpaceRepository()</text><polygon fill="#181818" points="539,287.9883,529,291.9883,539,295.9883,535,291.9883" style="stroke:#181818;stroke-width:1.0;"/><line style="stroke:#181818;stroke-width:1.0;stroke-dasharray:2.0,2.0;" x1="533" x2="957" y1="291.9883" y2="291.9883"/><text fill="#000000" font-family="sans-serif" font-size="13" font-weight="bold" lengthAdjust="spacing" textLength="7" x="545" y="286.7256">6</text><text fill="#000000" font-family="sans-serif" font-size="13" lengthAdjust="spacing" textLength="131" x="556" y="286.7256">greenSpaceRepository</text><polygon fill="#181818" points="1138,319.2793,1148,323.2793,1138,327.2793,1142,323.2793" style="stroke:#181818;stroke-width:1.0;"/><line style="stroke:#181818;stroke-width:1.0;" x1="528" x2="1144" y1="323.2793" y2="323.2793"/><text fill="#000000" font-family="sans-serif" font-size="13" font-weight="bold" lengthAdjust="spacing" textLength="7" x="535" y="318.0166">7</text><text fill="#000000" font-family="sans-serif" font-size="13" lengthAdjust="spacing" textLength="105" x="546" y="318.0166">getGreenSpaces()</text><polygon fill="#181818" points="539,350.5703,529,354.5703,539,358.5703,535,354.5703" style="stroke:#181818;stroke-width:1.0;"/><line style="stroke:#181818;stroke-width:1.0;stroke-dasharray:2.0,2.0;" x1="533" x2="1154" y1="354.5703" y2="354.5703"/><text fill="#000000" font-family="sans-serif" font-size="13" font-weight="bold" lengthAdjust="spacing" textLength="7" x="545" y="349.3076">8</text><text fill="#000000" font-family="sans-serif" font-size="13" lengthAdjust="spacing" textLength="76" x="556" y="349.3076">greenSpaces</text><polygon fill="#181818" points="394,381.8613,384,385.8613,394,389.8613,390,385.8613" style="stroke:#181818;stroke-width:1.0;"/><line style="stroke:#181818;stroke-width:1.0;stroke-dasharray:2.0,2.0;" x1="388" x2="522" y1="385.8613" y2="385.8613"/><text fill="#000000" font-family="sans-serif" font-size="13" font-weight="bold" lengthAdjust="spacing" textLength="7" x="400" y="380.5986">9</text><text fill="#000000" font-family="sans-serif" font-size="13" lengthAdjust="spacing" textLength="76" x="411" y="380.5986">greenSpaces</text><polygon fill="#181818" points="96,413.1523,86,417.1523,96,421.1523,92,417.1523" style="stroke:#181818;stroke-width:1.0;"/><line style="stroke:#181818;stroke-width:1.0;stroke-dasharray:2.0,2.0;" x1="90" x2="377" y1="417.1523" y2="417.1523"/><text fill="#000000" font-family="sans-serif" font-size="13" font-weight="bold" lengthAdjust="spacing" textLength="14" x="102" y="411.8896">10</text><text fill="#000000" font-family="sans-serif" font-size="13" lengthAdjust="spacing" textLength="176" x="120" y="411.8896">displays a list of green spaces</text><polygon fill="#181818" points="361,444.4434,371,448.4434,361,452.4434,365,448.4434" style="stroke:#181818;stroke-width:1.0;"/><line style="stroke:#181818;stroke-width:1.0;" x1="85" x2="367" y1="448.4434" y2="448.4434"/><text fill="#000000" font-family="sans-serif" font-size="13" font-weight="bold" lengthAdjust="spacing" textLength="14" x="92" y="443.1807">11</text><text fill="#000000" font-family="sans-serif" font-size="13" lengthAdjust="spacing" textLength="128" x="110" y="443.1807">selects a green space</text><polygon fill="#181818" points="96,493.0254,86,497.0254,96,501.0254,92,497.0254" style="stroke:#181818;stroke-width:1.0;"/><line style="stroke:#181818;stroke-width:1.0;stroke-dasharray:2.0,2.0;" x1="90" x2="377" y1="497.0254" y2="497.0254"/><text fill="#000000" font-family="sans-serif" font-size="13" font-weight="bold" lengthAdjust="spacing" textLength="14" x="102" y="483.1172">12</text><text fill="#000000" font-family="sans-serif" font-size="13" lengthAdjust="spacing" textLength="242" x="120" y="474.4717">requests data (i.e. title, description, state,</text><text fill="#000000" font-family="sans-serif" font-size="13" lengthAdjust="spacing" textLength="161" x="120" y="491.7627">duration, degree of urgency)</text><polygon fill="#181818" points="361,524.3164,371,528.3164,361,532.3164,365,528.3164" style="stroke:#181818;stroke-width:1.0;"/><line style="stroke:#181818;stroke-width:1.0;" x1="85" x2="367" y1="528.3164" y2="528.3164"/><text fill="#000000" font-family="sans-serif" font-size="13" font-weight="bold" lengthAdjust="spacing" textLength="14" x="92" y="523.0537">13</text><text fill="#000000" font-family="sans-serif" font-size="13" lengthAdjust="spacing" textLength="122" x="110" y="523.0537">types requested data</text><polygon fill="#181818" points="643.5,555.6074,653.5,559.6074,643.5,563.6074,647.5,559.6074" style="stroke:#181818;stroke-width:1.0;"/><line style="stroke:#181818;stroke-width:1.0;" x1="383" x2="649.5" y1="559.6074" y2="559.6074"/><text fill="#000000" font-family="sans-serif" font-size="13" font-weight="bold" lengthAdjust="spacing" textLength="14" x="390" y="554.3447">14</text><text fill="#000000" font-family="sans-serif" font-size="13" lengthAdjust="spacing" textLength="36" x="408" y="554.3447">create</text><rect fill="#E3E3E3" height="32.6211" rx="2.5" ry="2.5" style="stroke:#181818;stroke-width:0.5;" width="137" x="655.5" y="536.3164"/><text fill="#000000" font-family="sans-serif" font-size="14" lengthAdjust="spacing" textLength="123" x="662.5" y="558.4238">:ToDoListController</text><polygon fill="#181818" points="707,616.5195,717,620.5195,707,624.5195,711,620.5195" style="stroke:#181818;stroke-width:1.0;"/><line style="stroke:#181818;stroke-width:1.0;" x1="383" x2="713" y1="620.5195" y2="620.5195"/><text fill="#000000" font-family="sans-serif" font-size="13" font-weight="bold" lengthAdjust="spacing" textLength="14" x="390" y="606.6113">15</text><text fill="#000000" font-family="sans-serif" font-size="13" lengthAdjust="spacing" textLength="295" x="408" y="597.9658">createToDoList(title, description, degreeOfUrgency,</text><text fill="#000000" font-family="sans-serif" font-size="13" lengthAdjust="spacing" textLength="149" x="408" y="615.2568">expectedDuration, status)</text><polygon fill="#181818" points="834,647.8105,844,651.8105,834,655.8105,838,651.8105" style="stroke:#181818;stroke-width:1.0;"/><line style="stroke:#181818;stroke-width:1.0;" x1="729" x2="840" y1="651.8105" y2="651.8105"/><text fill="#000000" font-family="sans-serif" font-size="13" font-weight="bold" lengthAdjust="spacing" textLength="14" x="736" y="646.5479">16</text><text fill="#000000" font-family="sans-serif" font-size="13" lengthAdjust="spacing" textLength="75" x="754" y="646.5479">getInstance()</text><polygon fill="#181818" points="740,679.1016,730,683.1016,740,687.1016,736,683.1016" style="stroke:#181818;stroke-width:1.0;"/><line style="stroke:#181818;stroke-width:1.0;stroke-dasharray:2.0,2.0;" x1="734" x2="850" y1="683.1016" y2="683.1016"/><text fill="#000000" font-family="sans-serif" font-size="13" font-weight="bold" lengthAdjust="spacing" textLength="14" x="746" y="677.8389">17</text><text fill="#000000" font-family="sans-serif" font-size="13" lengthAdjust="spacing" textLength="67" x="764" y="677.8389">repositories</text><polygon fill="#181818" points="1322,710.3926,1332,714.3926,1322,718.3926,1326,714.3926" style="stroke:#181818;stroke-width:1.0;"/><line style="stroke:#181818;stroke-width:1.0;" x1="729" x2="1328" y1="714.3926" y2="714.3926"/><text fill="#000000" font-family="sans-serif" font-size="13" font-weight="bold" lengthAdjust="spacing" textLength="14" x="736" y="709.1299">18</text><text fill="#000000" font-family="sans-serif" font-size="13" lengthAdjust="spacing" textLength="77" x="754" y="709.1299">getToDoList()</text><polygon fill="#181818" points="740,741.6836,730,745.6836,740,749.6836,736,745.6836" style="stroke:#181818;stroke-width:1.0;"/><line style="stroke:#181818;stroke-width:1.0;stroke-dasharray:2.0,2.0;" x1="734" x2="1338" y1="745.6836" y2="745.6836"/><text fill="#000000" font-family="sans-serif" font-size="13" font-weight="bold" lengthAdjust="spacing" textLength="14" x="746" y="740.4209">19</text><text fill="#000000" font-family="sans-serif" font-size="13" lengthAdjust="spacing" textLength="48" x="764" y="740.4209">toDoList</text><polygon fill="#181818" points="1322,772.9746,1332,776.9746,1322,780.9746,1326,776.9746" style="stroke:#181818;stroke-width:1.0;"/><line style="stroke:#181818;stroke-width:1.0;" x1="729" x2="1328" y1="776.9746" y2="776.9746"/><text fill="#000000" font-family="sans-serif" font-size="13" font-weight="bold" lengthAdjust="spacing" textLength="14" x="736" y="771.7119">20</text><text fill="#000000" font-family="sans-serif" font-size="13" lengthAdjust="spacing" textLength="111" x="754" y="771.7119">addToDoListEntry()</text><line style="stroke:#181818;stroke-width:1.0;" x1="1344" x2="1386" y1="808.2656" y2="808.2656"/><line style="stroke:#181818;stroke-width:1.0;" x1="1386" x2="1386" y1="808.2656" y2="821.2656"/><line style="stroke:#181818;stroke-width:1.0;" x1="1345" x2="1386" y1="821.2656" y2="821.2656"/><polygon fill="#181818" points="1355,817.2656,1345,821.2656,1355,825.2656,1351,821.2656" style="stroke:#181818;stroke-width:1.0;"/><text fill="#000000" font-family="sans-serif" font-size="13" font-weight="bold" lengthAdjust="spacing" textLength="14" x="1351" y="803.0029">21</text><text fill="#000000" font-family="sans-serif" font-size="13" lengthAdjust="spacing" textLength="82" x="1369" y="803.0029">validateEntry()</text><polygon fill="#181818" points="740,848.5566,730,852.5566,740,856.5566,736,852.5566" style="stroke:#181818;stroke-width:1.0;"/><line style="stroke:#181818;stroke-width:1.0;stroke-dasharray:2.0,2.0;" x1="734" x2="1338" y1="852.5566" y2="852.5566"/><text fill="#000000" font-family="sans-serif" font-size="13" font-weight="bold" lengthAdjust="spacing" textLength="14" x="746" y="847.2939">22</text><text fill="#000000" font-family="sans-serif" font-size="13" lengthAdjust="spacing" textLength="58" x="764" y="847.2939">toDoEntry</text><polygon fill="#181818" points="394,879.8477,384,883.8477,394,887.8477,390,883.8477" style="stroke:#181818;stroke-width:1.0;"/><line style="stroke:#181818;stroke-width:1.0;stroke-dasharray:2.0,2.0;" x1="388" x2="723" y1="883.8477" y2="883.8477"/><text fill="#000000" font-family="sans-serif" font-size="13" font-weight="bold" lengthAdjust="spacing" textLength="14" x="400" y="878.585">23</text><text fill="#000000" font-family="sans-serif" font-size="13" lengthAdjust="spacing" textLength="58" x="418" y="878.585">toDoEntry</text><polygon fill="#181818" points="91,911.1387,81,915.1387,91,919.1387,87,915.1387" style="stroke:#181818;stroke-width:1.0;"/><line style="stroke:#181818;stroke-width:1.0;stroke-dasharray:2.0,2.0;" x1="85" x2="377" y1="915.1387" y2="915.1387"/><text fill="#000000" font-family="sans-serif" font-size="13" font-weight="bold" lengthAdjust="spacing" textLength="14" x="97" y="909.876">24</text><text fill="#000000" font-family="sans-serif" font-size="13" lengthAdjust="spacing" textLength="158" x="115" y="909.876">displays operation success</text><!--SRC=[fPNBRjim44Nt-eg1DxM3E1-GHO52BWm3DbhuiVE6aSOoOPbKIIg9_hv3wlroN5ShWPevl7Su7EaB5mbJx0fNAMHmLlAAO5IAdgw-92oui0Xt9eiH50Q6YIXk1kWp2-K75n6SMApHyrXgf4YlRwWyxzkPXmWdASsR_FHOOAI2oL8X2jWH6M731D7LKS1qkTlC9i0qq8j7RCC3dZ1XOFAwbmkvvjei3oiNSLXr0XpI4NqfZ99nZAfW-IEiJg2_twuxaLjCfEOacQDsCTL2jkEs2kIpdQ8Q6KVH1_nU_zYtCw9Ak0rk-AZtAdnisucb3VTrlrXxjhhydHbqzVE07dg1-NUg5hnIr4M3aS3241W8_00a_vbTCcU4lPml95YWownOL6ctO1_Y48qgIhW8JQrLJsTLK4E5NwVcQdoRFr34dBSIcfehm0Qi1HogVYlIFaFqUQMwUJwjr13ltwRmOS-oMuWwTyo4wu2UQiUgPKO3m36vVM2XZphcrZbrpchR5sK1Gvf6A-SeVIbb1muHMjb-kzNSrXjA3BbEOfPfwjkO6XJaAMU1hc4DKDcopUxN6DFeieH6vd2djxQcZlcJegRCa1a6K_w2Bs2uYV6PjjI1uedXKZm3jQwXjQC8KyNofH3jNbPjgY8KGJQxHwd94jJbjXYwVR-wadPsFJrHSg2G8eO-Ln_BkJ4TSf5B_dKwv8Aj7_nCg78OBYfVrcgg1swy6w6jytSxFt3d7xx-Tqo2eXgZe-31gJ3WcgPoxhAg-TSktII_uSeo6ovCGRx3mIroMp7z8ah5F-q_uZzbEyab-vt5d5eQI_0_UdLfzvgzxRQwSBUm3MI_kqVdb4mmlooWqu0cLB_1EaDWO33qfkFcBm00]--></g></svg>