<?xml version="1.0" encoding="us-ascii" standalone="no"?><svg xmlns="http://www.w3.org/2000/svg" xmlns:xlink="http://www.w3.org/1999/xlink" contentStyleType="text/css" height="409px" preserveAspectRatio="none" style="width:224px;height:409px;background:#FFFFFF;" version="1.1" viewBox="0 0 224 409" width="224px" zoomAndPan="magnify"><defs/><g><!--class RegisterSkillUI--><g id="elem_RegisterSkillUI"><rect codeLine="13" fill="#F1F1F1" height="48" id="RegisterSkillUI" rx="2.5" ry="2.5" style="stroke:#181818;stroke-width:0.5;" width="122" x="51" y="7"/><ellipse cx="66" cy="23" fill="#ADD1B2" rx="11" ry="11" style="stroke:#181818;stroke-width:1.0;"/><path d="M68.7656,18.875 Q68.9219,18.6563 69.1094,18.5469 Q69.2969,18.4375 69.5156,18.4375 Q69.8906,18.4375 70.125,18.7031 Q70.3594,18.9531 70.3594,19.5625 L70.3594,21.0156 Q70.3594,21.625 70.125,21.8906 Q69.8906,22.1563 69.5156,22.1563 Q69.1719,22.1563 68.9688,21.9531 Q68.7656,21.7656 68.6563,21.25 Q68.6094,20.8906 68.4219,20.7031 Q68.0938,20.3281 67.4844,20.1094 Q66.875,19.8906 66.25,19.8906 Q65.4844,19.8906 64.8438,20.2188 Q64.2188,20.5469 63.7188,21.2969 Q63.2344,22.0469 63.2344,23.0781 L63.2344,24.1719 Q63.2344,25.4063 64.125,26.2344 Q65.0156,27.0469 66.6094,27.0469 Q67.5469,27.0469 68.2031,26.7969 Q68.5938,26.6406 69.0156,26.2031 Q69.2813,25.9375 69.4219,25.8594 Q69.5781,25.7813 69.7813,25.7813 Q70.1094,25.7813 70.3594,26.0469 Q70.625,26.2969 70.625,26.6406 Q70.625,26.9844 70.2813,27.3906 Q69.7813,27.9688 68.9844,28.2969 Q67.9063,28.75 66.6094,28.75 Q65.0938,28.75 63.8906,28.125 Q62.9063,27.625 62.2188,26.5625 Q61.5313,25.4844 61.5313,24.2031 L61.5313,23.0469 Q61.5313,21.7188 62.1406,20.5781 Q62.7656,19.4219 63.8594,18.8125 Q64.9531,18.1875 66.1875,18.1875 Q66.9219,18.1875 67.5625,18.3594 Q68.2188,18.5156 68.7656,18.875 Z " fill="#000000"/><text fill="#000000" font-family="sans-serif" font-size="14" lengthAdjust="spacing" textLength="90" x="80" y="28.7969">RegisterSkillUI</text><line style="stroke:#181818;stroke-width:0.5;" x1="52" x2="172" y1="39" y2="39"/><line style="stroke:#181818;stroke-width:0.5;" x1="52" x2="172" y1="47" y2="47"/></g><!--class SkillsController--><g id="elem_SkillsController"><rect codeLine="17" fill="#F1F1F1" height="122.4844" id="SkillsController" rx="2.5" ry="2.5" style="stroke:#181818;stroke-width:0.5;" width="210" x="7" y="116"/><ellipse cx="60.75" cy="132" fill="#ADD1B2" rx="11" ry="11" style="stroke:#181818;stroke-width:1.0;"/><path d="M63.5156,127.875 Q63.6719,127.6563 63.8594,127.5469 Q64.0469,127.4375 64.2656,127.4375 Q64.6406,127.4375 64.875,127.7031 Q65.1094,127.9531 65.1094,128.5625 L65.1094,130.0156 Q65.1094,130.625 64.875,130.8906 Q64.6406,131.1563 64.2656,131.1563 Q63.9219,131.1563 63.7188,130.9531 Q63.5156,130.7656 63.4063,130.25 Q63.3594,129.8906 63.1719,129.7031 Q62.8438,129.3281 62.2344,129.1094 Q61.625,128.8906 61,128.8906 Q60.2344,128.8906 59.5938,129.2188 Q58.9688,129.5469 58.4688,130.2969 Q57.9844,131.0469 57.9844,132.0781 L57.9844,133.1719 Q57.9844,134.4063 58.875,135.2344 Q59.7656,136.0469 61.3594,136.0469 Q62.2969,136.0469 62.9531,135.7969 Q63.3438,135.6406 63.7656,135.2031 Q64.0313,134.9375 64.1719,134.8594 Q64.3281,134.7813 64.5313,134.7813 Q64.8594,134.7813 65.1094,135.0469 Q65.375,135.2969 65.375,135.6406 Q65.375,135.9844 65.0313,136.3906 Q64.5313,136.9688 63.7344,137.2969 Q62.6563,137.75 61.3594,137.75 Q59.8438,137.75 58.6406,137.125 Q57.6563,136.625 56.9688,135.5625 Q56.2813,134.4844 56.2813,133.2031 L56.2813,132.0469 Q56.2813,130.7188 56.8906,129.5781 Q57.5156,128.4219 58.6094,127.8125 Q59.7031,127.1875 60.9375,127.1875 Q61.6719,127.1875 62.3125,127.3594 Q62.9688,127.5156 63.5156,127.875 Z " fill="#000000"/><text fill="#000000" font-family="sans-serif" font-size="14" lengthAdjust="spacing" textLength="94" x="81.25" y="137.7969">SkillsController</text><line style="stroke:#181818;stroke-width:0.5;" x1="8" x2="216" y1="148" y2="148"/><text fill="#000000" font-family="sans-serif" font-size="14" lengthAdjust="spacing" textLength="129" x="13" y="167.1074">-List&lt;String&gt; skillList</text><text fill="#000000" font-family="sans-serif" font-size="14" lengthAdjust="spacing" textLength="162" x="13" y="185.7285">-Collaborator collaborator</text><line style="stroke:#181818;stroke-width:0.5;" x1="8" x2="216" y1="193.2422" y2="193.2422"/><text fill="#000000" font-family="sans-serif" font-size="14" lengthAdjust="spacing" textLength="123" x="13" y="212.3496">+getCollaborators()</text><text fill="#000000" font-family="sans-serif" font-size="14" lengthAdjust="spacing" textLength="198" x="13" y="230.9707">+addSkills(collaborator,skillList)</text></g><!--class Repositories--><g id="elem_Repositories"><rect codeLine="26" fill="#F1F1F1" height="85.2422" id="Repositories" rx="2.5" ry="2.5" style="stroke:#181818;stroke-width:0.5;" width="196" x="14" y="317"/><ellipse cx="68.25" cy="333" fill="#ADD1B2" rx="11" ry="11" style="stroke:#181818;stroke-width:1.0;"/><path d="M71.0156,328.875 Q71.1719,328.6563 71.3594,328.5469 Q71.5469,328.4375 71.7656,328.4375 Q72.1406,328.4375 72.375,328.7031 Q72.6094,328.9531 72.6094,329.5625 L72.6094,331.0156 Q72.6094,331.625 72.375,331.8906 Q72.1406,332.1563 71.7656,332.1563 Q71.4219,332.1563 71.2188,331.9531 Q71.0156,331.7656 70.9063,331.25 Q70.8594,330.8906 70.6719,330.7031 Q70.3438,330.3281 69.7344,330.1094 Q69.125,329.8906 68.5,329.8906 Q67.7344,329.8906 67.0938,330.2188 Q66.4688,330.5469 65.9688,331.2969 Q65.4844,332.0469 65.4844,333.0781 L65.4844,334.1719 Q65.4844,335.4063 66.375,336.2344 Q67.2656,337.0469 68.8594,337.0469 Q69.7969,337.0469 70.4531,336.7969 Q70.8438,336.6406 71.2656,336.2031 Q71.5313,335.9375 71.6719,335.8594 Q71.8281,335.7813 72.0313,335.7813 Q72.3594,335.7813 72.6094,336.0469 Q72.875,336.2969 72.875,336.6406 Q72.875,336.9844 72.5313,337.3906 Q72.0313,337.9688 71.2344,338.2969 Q70.1563,338.75 68.8594,338.75 Q67.3438,338.75 66.1406,338.125 Q65.1563,337.625 64.4688,336.5625 Q63.7813,335.4844 63.7813,334.2031 L63.7813,333.0469 Q63.7813,331.7188 64.3906,330.5781 Q65.0156,329.4219 66.1094,328.8125 Q67.2031,328.1875 68.4375,328.1875 Q69.1719,328.1875 69.8125,328.3594 Q70.4688,328.5156 71.0156,328.875 Z " fill="#000000"/><text fill="#000000" font-family="sans-serif" font-size="14" lengthAdjust="spacing" textLength="79" x="88.75" y="338.7969">Repositories</text><line style="stroke:#181818;stroke-width:0.5;" x1="15" x2="209" y1="349" y2="349"/><line style="stroke:#181818;stroke-width:0.5;" x1="15" x2="209" y1="357" y2="357"/><text fill="#000000" font-family="sans-serif" font-size="14" lengthAdjust="spacing" textLength="91" x="20" y="376.1074">+getInstance()</text><text fill="#000000" font-family="sans-serif" font-size="14" lengthAdjust="spacing" textLength="184" x="20" y="394.7285">+getCollaboratorRepository()</text></g><!--link RegisterSkillUI to SkillsController--><g id="link_RegisterSkillUI_SkillsController"><path codeLine="32" d="M112,55.14 C112,71.59 112,88.5 112,109.95 " fill="none" id="RegisterSkillUI-to-SkillsController" style="stroke:#181818;stroke-width:1.0;stroke-dasharray:7.0,7.0;"/><polygon fill="#181818" points="112,115.95,116,106.95,112,110.95,108,106.95,112,115.95" style="stroke:#181818;stroke-width:1.0;"/></g><!--link SkillsController to Repositories--><g id="link_SkillsController_Repositories"><path codeLine="33" d="M112,238.1 C112,263.95 112,287.52 112,310.88 " fill="none" id="SkillsController-to-Repositories" style="stroke:#181818;stroke-width:1.0;stroke-dasharray:7.0,7.0;"/><polygon fill="#181818" points="112,316.88,116,307.88,112,311.88,108,307.88,112,316.88" style="stroke:#181818;stroke-width:1.0;"/><text fill="#000000" font-family="sans-serif" font-size="13" lengthAdjust="spacing" textLength="67" x="113" y="283.0283">repositories</text></g><!--SRC=[RP7FJiCm3CRlUGhVsWcOE2Cq2UrKYTCg7Y1BlTHg6bU99rGctfsqOsjKyCt-VP__94Nio0yww1vwzcpQm3s2X3EgXGpQTDfYBQD326X4U-joGMnrmv_aBPoqYpbnv5760M5WDqw9Alw178HLvZ9En_Wc4kXu5gmC-vg-49wLAXoU18GXa6q56fhM8VOgnUo20rgAWg7koBcFIbtKzmtDfRXdBu6Tmv0Of7Y2z-HuhTCuRtSG9zLK-ONxfDL73beuWCaIDGiUmABacbXkha0tpNLYcRiUx_qtosO773XIeeGHBalVoiVqs0PlBTUpxhwndBkfrVMmtUx-dhqkpAfyXPVqoqkcVW00]--></g></svg>