<?xml version="1.0" encoding="us-ascii" standalone="no"?><svg xmlns="http://www.w3.org/2000/svg" xmlns:xlink="http://www.w3.org/1999/xlink" contentStyleType="text/css" height="924px" preserveAspectRatio="none" style="width:1694px;height:924px;background:#FFFFFF;" version="1.1" viewBox="0 0 1694 924" width="1694px" zoomAndPan="magnify"><defs/><g><rect fill="#FFFFFF" height="737.3242" style="stroke:#181818;stroke-width:1.0;" width="10" x="91" y="93.6211"/><rect fill="#FFFFFF" height="31.291" style="stroke:#181818;stroke-width:1.0;" width="10" x="767" y="116.9121"/><rect fill="#FFFFFF" height="156.4551" style="stroke:#181818;stroke-width:1.0;" width="10" x="767" y="179.4941"/><rect fill="#FFFFFF" height="463.7051" style="stroke:#181818;stroke-width:1.0;" width="10" x="767" y="367.2402"/><rect fill="#FFFFFF" height="93.873" style="stroke:#181818;stroke-width:1.0;" width="10" x="920.5" y="210.7852"/><rect fill="#FFFFFF" height="433.4141" style="stroke:#181818;stroke-width:1.0;" width="10" x="1177" y="398.5313"/><rect fill="#FFFFFF" height="31.291" style="stroke:#181818;stroke-width:1.0;" width="10" x="1454" y="242.0762"/><rect fill="#FFFFFF" height="31.291" style="stroke:#181818;stroke-width:1.0;" width="10" x="1601.5" y="429.8223"/><rect fill="none" height="286.25" style="stroke:#000000;stroke-width:1.5;" width="1261" x="10" y="537.6953"/><line style="stroke:#181818;stroke-width:0.5;stroke-dasharray:5.0,5.0;" x1="96" x2="96" y1="83.6211" y2="840.9453"/><line style="stroke:#181818;stroke-width:0.5;stroke-dasharray:5.0,5.0;" x1="772" x2="772" y1="83.6211" y2="840.9453"/><line style="stroke:#181818;stroke-width:0.5;stroke-dasharray:5.0,5.0;" x1="925" x2="925" y1="83.6211" y2="840.9453"/><line style="stroke:#181818;stroke-width:0.5;stroke-dasharray:5.0,5.0;" x1="1182" x2="1182" y1="83.6211" y2="840.9453"/><line style="stroke:#181818;stroke-width:0.5;stroke-dasharray:5.0,5.0;" x1="1458.5" x2="1458.5" y1="83.6211" y2="840.9453"/><line style="stroke:#181818;stroke-width:0.5;stroke-dasharray:5.0,5.0;" x1="1606.5" x2="1606.5" y1="83.6211" y2="840.9453"/><text fill="#000000" font-family="sans-serif" font-size="14" lengthAdjust="spacing" textLength="146" x="20" y="80.1074">Organization Employee</text><ellipse cx="96" cy="13.5" fill="#E3E3E3" rx="8" ry="8" style="stroke:#181818;stroke-width:0.5;"/><path d="M96,21.5 L96,48.5 M83,29.5 L109,29.5 M96,48.5 L83,63.5 M96,48.5 L109,63.5 " fill="none" style="stroke:#181818;stroke-width:0.5;"/><text fill="#000000" font-family="sans-serif" font-size="14" lengthAdjust="spacing" textLength="146" x="20" y="855.0527">Organization Employee</text><ellipse cx="96" cy="867.0664" fill="#E3E3E3" rx="8" ry="8" style="stroke:#181818;stroke-width:0.5;"/><path d="M96,875.0664 L96,902.0664 M83,883.0664 L109,883.0664 M96,902.0664 L83,917.0664 M96,902.0664 L109,917.0664 " fill="none" style="stroke:#181818;stroke-width:0.5;"/><rect fill="#E3E3E3" height="32.6211" rx="2.5" ry="2.5" style="stroke:#181818;stroke-width:0.5;" width="182" x="681" y="50"/><text fill="#000000" font-family="sans-serif" font-size="14" lengthAdjust="spacing" textLength="168" x="688" y="72.1074">:GenerateTeamProposalUI</text><rect fill="#E3E3E3" height="32.6211" rx="2.5" ry="2.5" style="stroke:#181818;stroke-width:0.5;" width="182" x="681" y="839.9453"/><text fill="#000000" font-family="sans-serif" font-size="14" lengthAdjust="spacing" textLength="168" x="688" y="862.0527">:GenerateTeamProposalUI</text><rect fill="#E3E3E3" height="32.6211" rx="2.5" ry="2.5" style="stroke:#181818;stroke-width:0.5;" width="105" x="873" y="50"/><text fill="#000000" font-family="sans-serif" font-size="14" lengthAdjust="spacing" textLength="91" x="880" y="72.1074">:SkillController</text><rect fill="#E3E3E3" height="32.6211" rx="2.5" ry="2.5" style="stroke:#181818;stroke-width:0.5;" width="105" x="873" y="839.9453"/><text fill="#000000" font-family="sans-serif" font-size="14" lengthAdjust="spacing" textLength="91" x="880" y="862.0527">:SkillController</text><rect fill="#E3E3E3" height="32.6211" rx="2.5" ry="2.5" style="stroke:#181818;stroke-width:0.5;" width="158" x="1103" y="50"/><text fill="#000000" font-family="sans-serif" font-size="14" lengthAdjust="spacing" textLength="144" x="1110" y="72.1074">:CollaboratorController</text><rect fill="#E3E3E3" height="32.6211" rx="2.5" ry="2.5" style="stroke:#181818;stroke-width:0.5;" width="158" x="1103" y="839.9453"/><text fill="#000000" font-family="sans-serif" font-size="14" lengthAdjust="spacing" textLength="144" x="1110" y="862.0527">:CollaboratorController</text><rect fill="#E3E3E3" height="51.2422" rx="2.5" ry="2.5" style="stroke:#181818;stroke-width:0.5;" width="111" x="1403.5" y="31.3789"/><text fill="#000000" font-family="sans-serif" font-size="14" lengthAdjust="spacing" textLength="97" x="1410.5" y="53.4863">SkillRepository:</text><text fill="#000000" font-family="sans-serif" font-size="14" lengthAdjust="spacing" textLength="93" x="1412.5" y="72.1074">SkillRepository</text><rect fill="#E3E3E3" height="51.2422" rx="2.5" ry="2.5" style="stroke:#181818;stroke-width:0.5;" width="111" x="1403.5" y="839.9453"/><text fill="#000000" font-family="sans-serif" font-size="14" lengthAdjust="spacing" textLength="97" x="1410.5" y="862.0527">SkillRepository:</text><text fill="#000000" font-family="sans-serif" font-size="14" lengthAdjust="spacing" textLength="93" x="1412.5" y="880.6738">SkillRepository</text><rect fill="#E3E3E3" height="51.2422" rx="2.5" ry="2.5" style="stroke:#181818;stroke-width:0.5;" width="164" x="1524.5" y="31.3789"/><text fill="#000000" font-family="sans-serif" font-size="14" lengthAdjust="spacing" textLength="150" x="1531.5" y="53.4863">CollaboratorRepository:</text><text fill="#000000" font-family="sans-serif" font-size="14" lengthAdjust="spacing" textLength="146" x="1533.5" y="72.1074">CollaboratorRepository</text><rect fill="#E3E3E3" height="51.2422" rx="2.5" ry="2.5" style="stroke:#181818;stroke-width:0.5;" width="164" x="1524.5" y="839.9453"/><text fill="#000000" font-family="sans-serif" font-size="14" lengthAdjust="spacing" textLength="150" x="1531.5" y="862.0527">CollaboratorRepository:</text><text fill="#000000" font-family="sans-serif" font-size="14" lengthAdjust="spacing" textLength="146" x="1533.5" y="880.6738">CollaboratorRepository</text><rect fill="#FFFFFF" height="737.3242" style="stroke:#181818;stroke-width:1.0;" width="10" x="91" y="93.6211"/><rect fill="#FFFFFF" height="31.291" style="stroke:#181818;stroke-width:1.0;" width="10" x="767" y="116.9121"/><rect fill="#FFFFFF" height="156.4551" style="stroke:#181818;stroke-width:1.0;" width="10" x="767" y="179.4941"/><rect fill="#FFFFFF" height="463.7051" style="stroke:#181818;stroke-width:1.0;" width="10" x="767" y="367.2402"/><rect fill="#FFFFFF" height="93.873" style="stroke:#181818;stroke-width:1.0;" width="10" x="920.5" y="210.7852"/><rect fill="#FFFFFF" height="433.4141" style="stroke:#181818;stroke-width:1.0;" width="10" x="1177" y="398.5313"/><rect fill="#FFFFFF" height="31.291" style="stroke:#181818;stroke-width:1.0;" width="10" x="1454" y="242.0762"/><rect fill="#FFFFFF" height="31.291" style="stroke:#181818;stroke-width:1.0;" width="10" x="1601.5" y="429.8223"/><polygon fill="#181818" points="755,112.9121,765,116.9121,755,120.9121,759,116.9121" style="stroke:#181818;stroke-width:1.0;"/><line style="stroke:#181818;stroke-width:1.0;" x1="101" x2="761" y1="116.9121" y2="116.9121"/><text fill="#000000" font-family="sans-serif" font-size="13" font-weight="bold" lengthAdjust="spacing" textLength="7" x="108" y="111.6494">1</text><text fill="#000000" font-family="sans-serif" font-size="13" lengthAdjust="spacing" textLength="194" x="119" y="111.6494">asks to generate a team proposal</text><polygon fill="#181818" points="112,144.2031,102,148.2031,112,152.2031,108,148.2031" style="stroke:#181818;stroke-width:1.0;"/><line style="stroke:#181818;stroke-width:1.0;" x1="106" x2="771" y1="148.2031" y2="148.2031"/><text fill="#000000" font-family="sans-serif" font-size="13" font-weight="bold" lengthAdjust="spacing" textLength="7" x="118" y="142.9404">2</text><text fill="#000000" font-family="sans-serif" font-size="13" lengthAdjust="spacing" textLength="200" x="129" y="142.9404">minimum and maximum team size</text><polygon fill="#181818" points="755,175.4941,765,179.4941,755,183.4941,759,179.4941" style="stroke:#181818;stroke-width:1.0;"/><line style="stroke:#181818;stroke-width:1.0;" x1="101" x2="761" y1="179.4941" y2="179.4941"/><text fill="#000000" font-family="sans-serif" font-size="13" font-weight="bold" lengthAdjust="spacing" textLength="7" x="108" y="174.2314">3</text><text fill="#000000" font-family="sans-serif" font-size="13" lengthAdjust="spacing" textLength="146" x="119" y="174.2314">writes the required values</text><polygon fill="#181818" points="908.5,206.7852,918.5,210.7852,908.5,214.7852,912.5,210.7852" style="stroke:#181818;stroke-width:1.0;"/><line style="stroke:#181818;stroke-width:1.0;" x1="777" x2="914.5" y1="210.7852" y2="210.7852"/><text fill="#000000" font-family="sans-serif" font-size="13" font-weight="bold" lengthAdjust="spacing" textLength="7" x="784" y="205.5225">4</text><text fill="#000000" font-family="sans-serif" font-size="13" lengthAdjust="spacing" textLength="58" x="795" y="205.5225">getSkills()</text><polygon fill="#181818" points="1442,238.0762,1452,242.0762,1442,246.0762,1446,242.0762" style="stroke:#181818;stroke-width:1.0;"/><line style="stroke:#181818;stroke-width:1.0;" x1="930.5" x2="1448" y1="242.0762" y2="242.0762"/><text fill="#000000" font-family="sans-serif" font-size="13" font-weight="bold" lengthAdjust="spacing" textLength="7" x="937.5" y="236.8135">5</text><text fill="#000000" font-family="sans-serif" font-size="13" lengthAdjust="spacing" textLength="58" x="948.5" y="236.8135">getSkills()</text><polygon fill="#181818" points="941.5,269.3672,931.5,273.3672,941.5,277.3672,937.5,273.3672" style="stroke:#181818;stroke-width:1.0;"/><line style="stroke:#181818;stroke-width:1.0;" x1="935.5" x2="1458" y1="273.3672" y2="273.3672"/><text fill="#000000" font-family="sans-serif" font-size="13" font-weight="bold" lengthAdjust="spacing" textLength="7" x="947.5" y="268.1045">6</text><text fill="#000000" font-family="sans-serif" font-size="13" lengthAdjust="spacing" textLength="74" x="958.5" y="268.1045">returns skills</text><polygon fill="#181818" points="788,300.6582,778,304.6582,788,308.6582,784,304.6582" style="stroke:#181818;stroke-width:1.0;"/><line style="stroke:#181818;stroke-width:1.0;" x1="782" x2="924.5" y1="304.6582" y2="304.6582"/><text fill="#000000" font-family="sans-serif" font-size="13" font-weight="bold" lengthAdjust="spacing" textLength="7" x="794" y="299.3955">7</text><text fill="#000000" font-family="sans-serif" font-size="13" lengthAdjust="spacing" textLength="74" x="805" y="299.3955">returns skills</text><polygon fill="#181818" points="112,331.9492,102,335.9492,112,339.9492,108,335.9492" style="stroke:#181818;stroke-width:1.0;"/><line style="stroke:#181818;stroke-width:1.0;" x1="106" x2="771" y1="335.9492" y2="335.9492"/><text fill="#000000" font-family="sans-serif" font-size="13" font-weight="bold" lengthAdjust="spacing" textLength="7" x="118" y="330.6865">8</text><text fill="#000000" font-family="sans-serif" font-size="13" lengthAdjust="spacing" textLength="631" x="129" y="330.6865">shows the possible skills for the team and\asks the user to choose which one he wants and in which quantity</text><polygon fill="#181818" points="755,363.2402,765,367.2402,755,371.2402,759,367.2402" style="stroke:#181818;stroke-width:1.0;"/><line style="stroke:#181818;stroke-width:1.0;" x1="101" x2="761" y1="367.2402" y2="367.2402"/><text fill="#000000" font-family="sans-serif" font-size="13" font-weight="bold" lengthAdjust="spacing" textLength="7" x="108" y="361.9775">9</text><text fill="#000000" font-family="sans-serif" font-size="13" lengthAdjust="spacing" textLength="227" x="119" y="361.9775">chooses the skills that he wants to add</text><polygon fill="#181818" points="1165,394.5313,1175,398.5313,1165,402.5313,1169,398.5313" style="stroke:#181818;stroke-width:1.0;"/><line style="stroke:#181818;stroke-width:1.0;" x1="777" x2="1171" y1="398.5313" y2="398.5313"/><text fill="#000000" font-family="sans-serif" font-size="13" font-weight="bold" lengthAdjust="spacing" textLength="14" x="784" y="393.2686">10</text><text fill="#000000" font-family="sans-serif" font-size="13" lengthAdjust="spacing" textLength="363" x="802" y="393.2686">generateTeamProposal(minTeamSize, maxTeamSize, skillList)</text><polygon fill="#181818" points="1589.5,425.8223,1599.5,429.8223,1589.5,433.8223,1593.5,429.8223" style="stroke:#181818;stroke-width:1.0;"/><line style="stroke:#181818;stroke-width:1.0;" x1="1187" x2="1595.5" y1="429.8223" y2="429.8223"/><text fill="#000000" font-family="sans-serif" font-size="13" font-weight="bold" lengthAdjust="spacing" textLength="14" x="1194" y="424.5596">11</text><text fill="#000000" font-family="sans-serif" font-size="13" lengthAdjust="spacing" textLength="110" x="1212" y="424.5596">get collaborator list</text><polygon fill="#181818" points="1198,457.1133,1188,461.1133,1198,465.1133,1194,461.1133" style="stroke:#181818;stroke-width:1.0;"/><line style="stroke:#181818;stroke-width:1.0;" x1="1192" x2="1605.5" y1="461.1133" y2="461.1133"/><text fill="#000000" font-family="sans-serif" font-size="13" font-weight="bold" lengthAdjust="spacing" textLength="14" x="1204" y="455.8506">12</text><text fill="#000000" font-family="sans-serif" font-size="13" lengthAdjust="spacing" textLength="132" x="1222" y="455.8506">returns collaborator list</text><line style="stroke:#181818;stroke-width:1.0;" x1="1187" x2="1229" y1="509.6953" y2="509.6953"/><line style="stroke:#181818;stroke-width:1.0;" x1="1229" x2="1229" y1="509.6953" y2="522.6953"/><line style="stroke:#181818;stroke-width:1.0;" x1="1188" x2="1229" y1="522.6953" y2="522.6953"/><polygon fill="#181818" points="1198,518.6953,1188,522.6953,1198,526.6953,1194,522.6953" style="stroke:#181818;stroke-width:1.0;"/><text fill="#000000" font-family="sans-serif" font-size="13" font-weight="bold" lengthAdjust="spacing" textLength="14" x="1194" y="495.7871">13</text><text fill="#000000" font-family="sans-serif" font-size="13" lengthAdjust="spacing" textLength="229" x="1212" y="487.1416">iterate through each possible team, and</text><text fill="#000000" font-family="sans-serif" font-size="13" lengthAdjust="spacing" textLength="235" x="1212" y="504.4326">selecting the ones with the desired skills</text><path d="M10,537.6953 L71,537.6953 L71,546.9863 L61,556.9863 L10,556.9863 L10,537.6953 " fill="#EEEEEE" style="stroke:#000000;stroke-width:1.5;"/><rect fill="none" height="286.25" style="stroke:#000000;stroke-width:1.5;" width="1261" x="10" y="537.6953"/><text fill="#000000" font-family="sans-serif" font-size="13" font-weight="bold" lengthAdjust="spacing" textLength="16" x="25" y="552.7236">alt</text><text fill="#000000" font-family="sans-serif" font-size="11" font-weight="bold" lengthAdjust="spacing" textLength="178" x="86" y="551.5654">[if at least one team is achieved]</text><polygon fill="#181818" points="788,576.2773,778,580.2773,788,584.2773,784,580.2773" style="stroke:#181818;stroke-width:1.0;"/><line style="stroke:#181818;stroke-width:1.0;" x1="782" x2="1176" y1="580.2773" y2="580.2773"/><text fill="#000000" font-family="sans-serif" font-size="13" font-weight="bold" lengthAdjust="spacing" textLength="14" x="794" y="575.0146">14</text><text fill="#000000" font-family="sans-serif" font-size="13" lengthAdjust="spacing" textLength="109" x="812" y="575.0146">return the team list</text><polygon fill="#181818" points="112,607.5684,102,611.5684,112,615.5684,108,611.5684" style="stroke:#181818;stroke-width:1.0;"/><line style="stroke:#181818;stroke-width:1.0;" x1="106" x2="766" y1="611.5684" y2="611.5684"/><text fill="#000000" font-family="sans-serif" font-size="13" font-weight="bold" lengthAdjust="spacing" textLength="14" x="118" y="606.3057">15</text><text fill="#000000" font-family="sans-serif" font-size="13" lengthAdjust="spacing" textLength="341" x="136" y="606.3057">display the team options, and allow the user to choose one</text><polygon fill="#181818" points="755,638.8594,765,642.8594,755,646.8594,759,642.8594" style="stroke:#181818;stroke-width:1.0;"/><line style="stroke:#181818;stroke-width:1.0;" x1="101" x2="761" y1="642.8594" y2="642.8594"/><text fill="#000000" font-family="sans-serif" font-size="13" font-weight="bold" lengthAdjust="spacing" textLength="14" x="108" y="637.5967">16</text><text fill="#000000" font-family="sans-serif" font-size="13" lengthAdjust="spacing" textLength="155" x="126" y="637.5967">the user chooses the team</text><polygon fill="#181818" points="1165,670.1504,1175,674.1504,1165,678.1504,1169,674.1504" style="stroke:#181818;stroke-width:1.0;"/><line style="stroke:#181818;stroke-width:1.0;" x1="777" x2="1171" y1="674.1504" y2="674.1504"/><text fill="#000000" font-family="sans-serif" font-size="13" font-weight="bold" lengthAdjust="spacing" textLength="14" x="784" y="668.8877">17</text><text fill="#000000" font-family="sans-serif" font-size="13" lengthAdjust="spacing" textLength="150" x="802" y="668.8877">startTask(collaboratorList)</text><polygon fill="#181818" points="788,701.4414,778,705.4414,788,709.4414,784,705.4414" style="stroke:#181818;stroke-width:1.0;"/><line style="stroke:#181818;stroke-width:1.0;" x1="782" x2="1176" y1="705.4414" y2="705.4414"/><text fill="#000000" font-family="sans-serif" font-size="13" font-weight="bold" lengthAdjust="spacing" textLength="14" x="794" y="700.1787">18</text><text fill="#000000" font-family="sans-serif" font-size="13" lengthAdjust="spacing" textLength="86" x="812" y="700.1787">return success</text><polygon fill="#181818" points="112,732.7324,102,736.7324,112,740.7324,108,736.7324" style="stroke:#181818;stroke-width:1.0;"/><line style="stroke:#181818;stroke-width:1.0;" x1="106" x2="766" y1="736.7324" y2="736.7324"/><text fill="#000000" font-family="sans-serif" font-size="13" font-weight="bold" lengthAdjust="spacing" textLength="14" x="118" y="731.4697">19</text><text fill="#000000" font-family="sans-serif" font-size="13" lengthAdjust="spacing" textLength="101" x="136" y="731.4697">displays success</text><line style="stroke:#000000;stroke-width:1.0;stroke-dasharray:2.0,2.0;" x1="10" x2="1271" y1="745.7324" y2="745.7324"/><text fill="#000000" font-family="sans-serif" font-size="11" font-weight="bold" lengthAdjust="spacing" textLength="128" x="15" y="757.6025">[if no team is achieved]</text><polygon fill="#181818" points="788,780.6543,778,784.6543,788,788.6543,784,784.6543" style="stroke:#181818;stroke-width:1.0;"/><line style="stroke:#181818;stroke-width:1.0;" x1="782" x2="1176" y1="784.6543" y2="784.6543"/><text fill="#000000" font-family="sans-serif" font-size="13" font-weight="bold" lengthAdjust="spacing" textLength="14" x="794" y="779.3916">20</text><text fill="#000000" font-family="sans-serif" font-size="13" lengthAdjust="spacing" textLength="219" x="812" y="779.3916">return error that no team was possible</text><polygon fill="#181818" points="112,811.9453,102,815.9453,112,819.9453,108,815.9453" style="stroke:#181818;stroke-width:1.0;"/><line style="stroke:#181818;stroke-width:1.0;" x1="106" x2="766" y1="815.9453" y2="815.9453"/><text fill="#000000" font-family="sans-serif" font-size="13" font-weight="bold" lengthAdjust="spacing" textLength="14" x="118" y="810.6826">21</text><text fill="#000000" font-family="sans-serif" font-size="13" lengthAdjust="spacing" textLength="93" x="136" y="810.6826">display the error</text><!--SRC=[hLR1Rjim3BtxAuXUrW7T3_WmOEY6eK273MrwwqMnsLY8BBcY73Vz-b5oOikoswH0VKb4aO_FvADasahT22jgg8qsHMLDZU1iYnaDEuqejcA3zswl42mMJkYDYXse4gNffDx0ar24MIPQPtHRhz5csPTAbWXFnhYrUSb4uOo5Yxzs8xHy5KuQ3R_gHfazuWK8WXy__sICwcGX6w4TNEI_KQCL3bSewd_MD8Q4UhW9pWytYU_zLYfrRRIpHYcqmQcthUvk4zzhTX5hmz369Y6JhLba0Bn39Y9vVvy_wiGofXrjKuWumGHfUMD6AiBr9PKxhaye7V33l_3jEnS7SexR4ZW3cqCHGO13tzD38KF0WC3rXCF3qOp1K3dKKikwhK7e4chn4lu749Al609AJ25Y3fsL3fb5vTNpt4gB9Uo4Qf6oMVei8J0qB-TNS655bry7fo5qR394ps0TeA9YBmBEGQDIG_8a-mbVYwwrce12ZabmLAyqnzly7su-X1cAiTHEgapNTuEJabppKFTmFAGss4DpkTkFlNhOqX9QBwEYCeOGkaeM5HYDm7iTAvg2EAG-x3otR9DkVqeS-G6mJt9WuIhXHbnEAieoMzJfvFtxDqmdDn-K7nyVbonflxvd0LzvJO-BGE9Madj34xEZ8VPA5P8wfmmJDK8HxO5Y4YdW8ert59gIc8frNgoZlauIYPfw7fLJfUZpyq4HJYd75r6xgO2pLADClIwlWZ0reUABo5yvNZciH89EkYgiIgHmnYmCYI-XSY2VW3McK90BAWw2bopYefAum_9a7USpEGxEKhdI6ImbDKhino3J-AkGmjinHMMwfRbZhel8qK2DOV5e-HplS9etWXnVLokU_yjO2lEvEBCur1O54frP5ZhwBxcd6CXV7BwXsdnA6z7QS0goFew87L- -Hmr-fB41QXQ0UfbNTfPfRfmVGDC3Drhv3uJ_]--></g></svg>