<?xml version="1.0" encoding="us-ascii" standalone="no"?><svg xmlns="http://www.w3.org/2000/svg" xmlns:xlink="http://www.w3.org/1999/xlink" contentStyleType="text/css" height="412px" preserveAspectRatio="none" style="width:1583px;height:412px;background:#FFFFFF;" version="1.1" viewBox="0 0 1583 412" width="1583px" zoomAndPan="magnify"><defs/><g><!--class Skill--><g id="elem_Skill"><rect codeLine="12" fill="#F1F1F1" height="122.4844" id="Skill" rx="2.5" ry="2.5" style="stroke:#181818;stroke-width:0.5;" width="443" x="607" y="283"/><ellipse cx="811.75" cy="299" fill="#ADD1B2" rx="11" ry="11" style="stroke:#181818;stroke-width:1.0;"/><path d="M814.5156,294.875 Q814.6719,294.6563 814.8594,294.5469 Q815.0469,294.4375 815.2656,294.4375 Q815.6406,294.4375 815.875,294.7031 Q816.1094,294.9531 816.1094,295.5625 L816.1094,297.0156 Q816.1094,297.625 815.875,297.8906 Q815.6406,298.1563 815.2656,298.1563 Q814.9219,298.1563 814.7188,297.9531 Q814.5156,297.7656 814.4063,297.25 Q814.3594,296.8906 814.1719,296.7031 Q813.8438,296.3281 813.2344,296.1094 Q812.625,295.8906 812,295.8906 Q811.2344,295.8906 810.5938,296.2188 Q809.9688,296.5469 809.4688,297.2969 Q808.9844,298.0469 808.9844,299.0781 L808.9844,300.1719 Q808.9844,301.4063 809.875,302.2344 Q810.7656,303.0469 812.3594,303.0469 Q813.2969,303.0469 813.9531,302.7969 Q814.3438,302.6406 814.7656,302.2031 Q815.0313,301.9375 815.1719,301.8594 Q815.3281,301.7813 815.5313,301.7813 Q815.8594,301.7813 816.1094,302.0469 Q816.375,302.2969 816.375,302.6406 Q816.375,302.9844 816.0313,303.3906 Q815.5313,303.9688 814.7344,304.2969 Q813.6563,304.75 812.3594,304.75 Q810.8438,304.75 809.6406,304.125 Q808.6563,303.625 807.9688,302.5625 Q807.2813,301.4844 807.2813,300.2031 L807.2813,299.0469 Q807.2813,297.7188 807.8906,296.5781 Q808.5156,295.4219 809.6094,294.8125 Q810.7031,294.1875 811.9375,294.1875 Q812.6719,294.1875 813.3125,294.3594 Q813.9688,294.5156 814.5156,294.875 Z " fill="#000000"/><text fill="#000000" font-family="sans-serif" font-size="14" lengthAdjust="spacing" textLength="25" x="832.25" y="304.7969">Skill</text><line style="stroke:#181818;stroke-width:0.5;" x1="608" x2="1049" y1="315" y2="315"/><text fill="#000000" font-family="sans-serif" font-size="14" lengthAdjust="spacing" textLength="81" x="613" y="334.1074">-String name</text><text fill="#000000" font-family="sans-serif" font-size="14" lengthAdjust="spacing" textLength="167" x="613" y="352.7285">-String informalDescription</text><text fill="#000000" font-family="sans-serif" font-size="14" lengthAdjust="spacing" textLength="173" x="613" y="371.3496">-String technicalDescription</text><line style="stroke:#181818;stroke-width:0.5;" x1="608" x2="1049" y1="378.8633" y2="378.8633"/><text fill="#000000" font-family="sans-serif" font-size="14" lengthAdjust="spacing" textLength="431" x="613" y="397.9707">+Skill(name, skillCategory, informalDescription, technicalDescription)</text></g><!--class SkillController--><g id="elem_SkillController"><rect codeLine="21" fill="#F1F1F1" height="66.6211" id="SkillController" rx="2.5" ry="2.5" style="stroke:#181818;stroke-width:0.5;" width="119" x="182" y="310.5"/><ellipse cx="197" cy="326.5" fill="#ADD1B2" rx="11" ry="11" style="stroke:#181818;stroke-width:1.0;"/><path d="M199.7656,322.375 Q199.9219,322.1563 200.1094,322.0469 Q200.2969,321.9375 200.5156,321.9375 Q200.8906,321.9375 201.125,322.2031 Q201.3594,322.4531 201.3594,323.0625 L201.3594,324.5156 Q201.3594,325.125 201.125,325.3906 Q200.8906,325.6563 200.5156,325.6563 Q200.1719,325.6563 199.9688,325.4531 Q199.7656,325.2656 199.6563,324.75 Q199.6094,324.3906 199.4219,324.2031 Q199.0938,323.8281 198.4844,323.6094 Q197.875,323.3906 197.25,323.3906 Q196.4844,323.3906 195.8438,323.7188 Q195.2188,324.0469 194.7188,324.7969 Q194.2344,325.5469 194.2344,326.5781 L194.2344,327.6719 Q194.2344,328.9063 195.125,329.7344 Q196.0156,330.5469 197.6094,330.5469 Q198.5469,330.5469 199.2031,330.2969 Q199.5938,330.1406 200.0156,329.7031 Q200.2813,329.4375 200.4219,329.3594 Q200.5781,329.2813 200.7813,329.2813 Q201.1094,329.2813 201.3594,329.5469 Q201.625,329.7969 201.625,330.1406 Q201.625,330.4844 201.2813,330.8906 Q200.7813,331.4688 199.9844,331.7969 Q198.9063,332.25 197.6094,332.25 Q196.0938,332.25 194.8906,331.625 Q193.9063,331.125 193.2188,330.0625 Q192.5313,328.9844 192.5313,327.7031 L192.5313,326.5469 Q192.5313,325.2188 193.1406,324.0781 Q193.7656,322.9219 194.8594,322.3125 Q195.9531,321.6875 197.1875,321.6875 Q197.9219,321.6875 198.5625,321.8594 Q199.2188,322.0156 199.7656,322.375 Z " fill="#000000"/><text fill="#000000" font-family="sans-serif" font-size="14" lengthAdjust="spacing" textLength="87" x="211" y="332.2969">SkillController</text><line style="stroke:#181818;stroke-width:0.5;" x1="183" x2="300" y1="342.5" y2="342.5"/><line style="stroke:#181818;stroke-width:0.5;" x1="183" x2="300" y1="350.5" y2="350.5"/><text fill="#000000" font-family="sans-serif" font-size="14" lengthAdjust="spacing" textLength="85" x="188" y="369.6074">+getSkillList()</text></g><!--class AddSkillToACollaboratorUI--><g id="elem_AddSkillToACollaboratorUI"><rect codeLine="27" fill="#F1F1F1" height="85.2422" id="AddSkillToACollaboratorUI" rx="2.5" ry="2.5" style="stroke:#181818;stroke-width:0.5;" width="469" x="7" y="63"/><ellipse cx="154.25" cy="79" fill="#ADD1B2" rx="11" ry="11" style="stroke:#181818;stroke-width:1.0;"/><path d="M157.0156,74.875 Q157.1719,74.6563 157.3594,74.5469 Q157.5469,74.4375 157.7656,74.4375 Q158.1406,74.4375 158.375,74.7031 Q158.6094,74.9531 158.6094,75.5625 L158.6094,77.0156 Q158.6094,77.625 158.375,77.8906 Q158.1406,78.1563 157.7656,78.1563 Q157.4219,78.1563 157.2188,77.9531 Q157.0156,77.7656 156.9063,77.25 Q156.8594,76.8906 156.6719,76.7031 Q156.3438,76.3281 155.7344,76.1094 Q155.125,75.8906 154.5,75.8906 Q153.7344,75.8906 153.0938,76.2188 Q152.4688,76.5469 151.9688,77.2969 Q151.4844,78.0469 151.4844,79.0781 L151.4844,80.1719 Q151.4844,81.4063 152.375,82.2344 Q153.2656,83.0469 154.8594,83.0469 Q155.7969,83.0469 156.4531,82.7969 Q156.8438,82.6406 157.2656,82.2031 Q157.5313,81.9375 157.6719,81.8594 Q157.8281,81.7813 158.0313,81.7813 Q158.3594,81.7813 158.6094,82.0469 Q158.875,82.2969 158.875,82.6406 Q158.875,82.9844 158.5313,83.3906 Q158.0313,83.9688 157.2344,84.2969 Q156.1563,84.75 154.8594,84.75 Q153.3438,84.75 152.1406,84.125 Q151.1563,83.625 150.4688,82.5625 Q149.7813,81.4844 149.7813,80.2031 L149.7813,79.0469 Q149.7813,77.7188 150.3906,76.5781 Q151.0156,75.4219 152.1094,74.8125 Q153.2031,74.1875 154.4375,74.1875 Q155.1719,74.1875 155.8125,74.3594 Q156.4688,74.5156 157.0156,74.875 Z " fill="#000000"/><text fill="#000000" font-family="sans-serif" font-size="14" lengthAdjust="spacing" textLength="166" x="174.75" y="84.7969">AddSkillToACollaboratorUI</text><line style="stroke:#181818;stroke-width:0.5;" x1="8" x2="475" y1="95" y2="95"/><line style="stroke:#181818;stroke-width:0.5;" x1="8" x2="475" y1="103" y2="103"/><text fill="#000000" font-family="sans-serif" font-size="14" lengthAdjust="spacing" textLength="457" x="13" y="122.1074">+generateATeamProposal(minimumSize, maximumSize, requiredSkillList)</text><text fill="#000000" font-family="sans-serif" font-size="14" lengthAdjust="spacing" textLength="85" x="13" y="140.7285">+getSkillList()</text></g><!--class CollaboratorRepository--><g id="elem_CollaboratorRepository"><rect codeLine="33" fill="#F1F1F1" height="66.6211" id="CollaboratorRepository" rx="2.5" ry="2.5" style="stroke:#181818;stroke-width:0.5;" width="178" x="1107.5" y="72"/><ellipse cx="1122.5" cy="88" fill="#ADD1B2" rx="11" ry="11" style="stroke:#181818;stroke-width:1.0;"/><path d="M1125.2656,83.875 Q1125.4219,83.6563 1125.6094,83.5469 Q1125.7969,83.4375 1126.0156,83.4375 Q1126.3906,83.4375 1126.625,83.7031 Q1126.8594,83.9531 1126.8594,84.5625 L1126.8594,86.0156 Q1126.8594,86.625 1126.625,86.8906 Q1126.3906,87.1563 1126.0156,87.1563 Q1125.6719,87.1563 1125.4688,86.9531 Q1125.2656,86.7656 1125.1563,86.25 Q1125.1094,85.8906 1124.9219,85.7031 Q1124.5938,85.3281 1123.9844,85.1094 Q1123.375,84.8906 1122.75,84.8906 Q1121.9844,84.8906 1121.3438,85.2188 Q1120.7188,85.5469 1120.2188,86.2969 Q1119.7344,87.0469 1119.7344,88.0781 L1119.7344,89.1719 Q1119.7344,90.4063 1120.625,91.2344 Q1121.5156,92.0469 1123.1094,92.0469 Q1124.0469,92.0469 1124.7031,91.7969 Q1125.0938,91.6406 1125.5156,91.2031 Q1125.7813,90.9375 1125.9219,90.8594 Q1126.0781,90.7813 1126.2813,90.7813 Q1126.6094,90.7813 1126.8594,91.0469 Q1127.125,91.2969 1127.125,91.6406 Q1127.125,91.9844 1126.7813,92.3906 Q1126.2813,92.9688 1125.4844,93.2969 Q1124.4063,93.75 1123.1094,93.75 Q1121.5938,93.75 1120.3906,93.125 Q1119.4063,92.625 1118.7188,91.5625 Q1118.0313,90.4844 1118.0313,89.2031 L1118.0313,88.0469 Q1118.0313,86.7188 1118.6406,85.5781 Q1119.2656,84.4219 1120.3594,83.8125 Q1121.4531,83.1875 1122.6875,83.1875 Q1123.4219,83.1875 1124.0625,83.3594 Q1124.7188,83.5156 1125.2656,83.875 Z " fill="#000000"/><text fill="#000000" font-family="sans-serif" font-size="14" lengthAdjust="spacing" textLength="146" x="1136.5" y="93.7969">CollaboratorRepository</text><line style="stroke:#181818;stroke-width:0.5;" x1="1108.5" x2="1284.5" y1="104" y2="104"/><line style="stroke:#181818;stroke-width:0.5;" x1="1108.5" x2="1284.5" y1="112" y2="112"/><text fill="#000000" font-family="sans-serif" font-size="14" lengthAdjust="spacing" textLength="123" x="1113.5" y="131.1074">+getCollaborators()</text></g><!--class SkillRepository--><g id="elem_SkillRepository"><rect codeLine="37" fill="#F1F1F1" height="66.6211" id="SkillRepository" rx="2.5" ry="2.5" style="stroke:#181818;stroke-width:0.5;" width="125" x="394" y="310.5"/><ellipse cx="409" cy="326.5" fill="#ADD1B2" rx="11" ry="11" style="stroke:#181818;stroke-width:1.0;"/><path d="M411.7656,322.375 Q411.9219,322.1563 412.1094,322.0469 Q412.2969,321.9375 412.5156,321.9375 Q412.8906,321.9375 413.125,322.2031 Q413.3594,322.4531 413.3594,323.0625 L413.3594,324.5156 Q413.3594,325.125 413.125,325.3906 Q412.8906,325.6563 412.5156,325.6563 Q412.1719,325.6563 411.9688,325.4531 Q411.7656,325.2656 411.6563,324.75 Q411.6094,324.3906 411.4219,324.2031 Q411.0938,323.8281 410.4844,323.6094 Q409.875,323.3906 409.25,323.3906 Q408.4844,323.3906 407.8438,323.7188 Q407.2188,324.0469 406.7188,324.7969 Q406.2344,325.5469 406.2344,326.5781 L406.2344,327.6719 Q406.2344,328.9063 407.125,329.7344 Q408.0156,330.5469 409.6094,330.5469 Q410.5469,330.5469 411.2031,330.2969 Q411.5938,330.1406 412.0156,329.7031 Q412.2813,329.4375 412.4219,329.3594 Q412.5781,329.2813 412.7813,329.2813 Q413.1094,329.2813 413.3594,329.5469 Q413.625,329.7969 413.625,330.1406 Q413.625,330.4844 413.2813,330.8906 Q412.7813,331.4688 411.9844,331.7969 Q410.9063,332.25 409.6094,332.25 Q408.0938,332.25 406.8906,331.625 Q405.9063,331.125 405.2188,330.0625 Q404.5313,328.9844 404.5313,327.7031 L404.5313,326.5469 Q404.5313,325.2188 405.1406,324.0781 Q405.7656,322.9219 406.8594,322.3125 Q407.9531,321.6875 409.1875,321.6875 Q409.9219,321.6875 410.5625,321.8594 Q411.2188,322.0156 411.7656,322.375 Z " fill="#000000"/><text fill="#000000" font-family="sans-serif" font-size="14" lengthAdjust="spacing" textLength="93" x="423" y="332.2969">SkillRepository</text><line style="stroke:#181818;stroke-width:0.5;" x1="395" x2="518" y1="342.5" y2="342.5"/><line style="stroke:#181818;stroke-width:0.5;" x1="395" x2="518" y1="350.5" y2="350.5"/><text fill="#000000" font-family="sans-serif" font-size="14" lengthAdjust="spacing" textLength="85" x="400" y="369.6074">+getSkillList()</text></g><!--class Collaborators--><g id="elem_Collaborators"><rect codeLine="41" fill="#F1F1F1" height="196.9688" id="Collaborators" rx="2.5" ry="2.5" style="stroke:#181818;stroke-width:0.5;" width="203" x="1373" y="7"/><ellipse cx="1427.75" cy="23" fill="#ADD1B2" rx="11" ry="11" style="stroke:#181818;stroke-width:1.0;"/><path d="M1430.5156,18.875 Q1430.6719,18.6563 1430.8594,18.5469 Q1431.0469,18.4375 1431.2656,18.4375 Q1431.6406,18.4375 1431.875,18.7031 Q1432.1094,18.9531 1432.1094,19.5625 L1432.1094,21.0156 Q1432.1094,21.625 1431.875,21.8906 Q1431.6406,22.1563 1431.2656,22.1563 Q1430.9219,22.1563 1430.7188,21.9531 Q1430.5156,21.7656 1430.4063,21.25 Q1430.3594,20.8906 1430.1719,20.7031 Q1429.8438,20.3281 1429.2344,20.1094 Q1428.625,19.8906 1428,19.8906 Q1427.2344,19.8906 1426.5938,20.2188 Q1425.9688,20.5469 1425.4688,21.2969 Q1424.9844,22.0469 1424.9844,23.0781 L1424.9844,24.1719 Q1424.9844,25.4063 1425.875,26.2344 Q1426.7656,27.0469 1428.3594,27.0469 Q1429.2969,27.0469 1429.9531,26.7969 Q1430.3438,26.6406 1430.7656,26.2031 Q1431.0313,25.9375 1431.1719,25.8594 Q1431.3281,25.7813 1431.5313,25.7813 Q1431.8594,25.7813 1432.1094,26.0469 Q1432.375,26.2969 1432.375,26.6406 Q1432.375,26.9844 1432.0313,27.3906 Q1431.5313,27.9688 1430.7344,28.2969 Q1429.6563,28.75 1428.3594,28.75 Q1426.8438,28.75 1425.6406,28.125 Q1424.6563,27.625 1423.9688,26.5625 Q1423.2813,25.4844 1423.2813,24.2031 L1423.2813,23.0469 Q1423.2813,21.7188 1423.8906,20.5781 Q1424.5156,19.4219 1425.6094,18.8125 Q1426.7031,18.1875 1427.9375,18.1875 Q1428.6719,18.1875 1429.3125,18.3594 Q1429.9688,18.5156 1430.5156,18.875 Z " fill="#000000"/><text fill="#000000" font-family="sans-serif" font-size="14" lengthAdjust="spacing" textLength="85" x="1448.25" y="28.7969">Collaborators</text><line style="stroke:#181818;stroke-width:0.5;" x1="1374" x2="1575" y1="39" y2="39"/><text fill="#000000" font-family="sans-serif" font-size="14" lengthAdjust="spacing" textLength="81" x="1379" y="58.1074">-String name</text><text fill="#000000" font-family="sans-serif" font-size="14" lengthAdjust="spacing" textLength="102" x="1379" y="76.7285">-String birthdate</text><text fill="#000000" font-family="sans-serif" font-size="14" lengthAdjust="spacing" textLength="141" x="1379" y="95.3496">-String admission date</text><text fill="#000000" font-family="sans-serif" font-size="14" lengthAdjust="spacing" textLength="97" x="1379" y="113.9707">-String address</text><text fill="#000000" font-family="sans-serif" font-size="14" lengthAdjust="spacing" textLength="70" x="1379" y="132.5918">-Int contact</text><text fill="#000000" font-family="sans-serif" font-size="14" lengthAdjust="spacing" textLength="191" x="1379" y="151.2129">-String identification document</text><text fill="#000000" font-family="sans-serif" font-size="14" lengthAdjust="spacing" textLength="177" x="1379" y="169.834">-String identification number</text><text fill="#000000" font-family="sans-serif" font-size="14" lengthAdjust="spacing" textLength="102" x="1379" y="188.4551">-List&lt;Skill&gt; skills</text><line style="stroke:#181818;stroke-width:0.5;" x1="1374" x2="1575" y1="195.9688" y2="195.9688"/></g><!--class CollaboratorController--><g id="elem_CollaboratorController"><rect codeLine="52" fill="#F1F1F1" height="85.2422" id="CollaboratorController" rx="2.5" ry="2.5" style="stroke:#181818;stroke-width:0.5;" width="469" x="546" y="63"/><ellipse cx="706.25" cy="79" fill="#ADD1B2" rx="11" ry="11" style="stroke:#181818;stroke-width:1.0;"/><path d="M709.0156,74.875 Q709.1719,74.6563 709.3594,74.5469 Q709.5469,74.4375 709.7656,74.4375 Q710.1406,74.4375 710.375,74.7031 Q710.6094,74.9531 710.6094,75.5625 L710.6094,77.0156 Q710.6094,77.625 710.375,77.8906 Q710.1406,78.1563 709.7656,78.1563 Q709.4219,78.1563 709.2188,77.9531 Q709.0156,77.7656 708.9063,77.25 Q708.8594,76.8906 708.6719,76.7031 Q708.3438,76.3281 707.7344,76.1094 Q707.125,75.8906 706.5,75.8906 Q705.7344,75.8906 705.0938,76.2188 Q704.4688,76.5469 703.9688,77.2969 Q703.4844,78.0469 703.4844,79.0781 L703.4844,80.1719 Q703.4844,81.4063 704.375,82.2344 Q705.2656,83.0469 706.8594,83.0469 Q707.7969,83.0469 708.4531,82.7969 Q708.8438,82.6406 709.2656,82.2031 Q709.5313,81.9375 709.6719,81.8594 Q709.8281,81.7813 710.0313,81.7813 Q710.3594,81.7813 710.6094,82.0469 Q710.875,82.2969 710.875,82.6406 Q710.875,82.9844 710.5313,83.3906 Q710.0313,83.9688 709.2344,84.2969 Q708.1563,84.75 706.8594,84.75 Q705.3438,84.75 704.1406,84.125 Q703.1563,83.625 702.4688,82.5625 Q701.7813,81.4844 701.7813,80.2031 L701.7813,79.0469 Q701.7813,77.7188 702.3906,76.5781 Q703.0156,75.4219 704.1094,74.8125 Q705.2031,74.1875 706.4375,74.1875 Q707.1719,74.1875 707.8125,74.3594 Q708.4688,74.5156 709.0156,74.875 Z " fill="#000000"/><text fill="#000000" font-family="sans-serif" font-size="14" lengthAdjust="spacing" textLength="140" x="726.75" y="84.7969">CollaboratorController</text><line style="stroke:#181818;stroke-width:0.5;" x1="547" x2="1014" y1="95" y2="95"/><line style="stroke:#181818;stroke-width:0.5;" x1="547" x2="1014" y1="103" y2="103"/><text fill="#000000" font-family="sans-serif" font-size="14" lengthAdjust="spacing" textLength="138" x="552" y="122.1074">+getCollaboratorList()</text><text fill="#000000" font-family="sans-serif" font-size="14" lengthAdjust="spacing" textLength="457" x="552" y="140.7285">+generateATeamProposal(minimumSize, maximumSize, requiredSkillList)</text></g><!--link AddSkillToACollaboratorUI to SkillController--><g id="link_AddSkillToACollaboratorUI_SkillController"><path codeLine="58" d="M241.5,148.24 C241.5,194.52 241.5,262.2 241.5,304.42 " fill="none" id="AddSkillToACollaboratorUI-to-SkillController" style="stroke:#181818;stroke-width:1.0;"/><polygon fill="#181818" points="241.5,310.42,245.5,301.42,241.5,305.42,237.5,301.42,241.5,310.42" style="stroke:#181818;stroke-width:1.0;"/><text fill="#000000" font-family="sans-serif" font-size="13" lengthAdjust="spacing" textLength="33" x="242.5" y="249.0283">starts</text><text fill="#000000" font-family="sans-serif" font-size="13" lengthAdjust="spacing" textLength="7" x="233.9641" y="170.1182">1</text><text fill="#000000" font-family="sans-serif" font-size="13" lengthAdjust="spacing" textLength="7" x="233.8109" y="299.2298">1</text></g><!--link SkillController to SkillRepository--><g id="link_SkillController_SkillRepository"><path codeLine="59" d="M301.1,344 C329.94,344 358.54,344 387.78,344 " fill="none" id="SkillController-to-SkillRepository" style="stroke:#181818;stroke-width:1.0;"/><polygon fill="#181818" points="393.78,344,384.78,340,388.78,344,384.78,348,393.78,344" style="stroke:#181818;stroke-width:1.0;"/><text fill="#000000" font-family="sans-serif" font-size="13" lengthAdjust="spacing" textLength="56" x="319.5" y="337.0283">accesses</text><text fill="#000000" font-family="sans-serif" font-size="13" lengthAdjust="spacing" textLength="7" x="309.1847" y="339.9822">1</text><text fill="#000000" font-family="sans-serif" font-size="13" lengthAdjust="spacing" textLength="7" x="379.1233" y="340.0842">1</text></g><!--link AddSkillToACollaboratorUI to CollaboratorController--><g id="link_AddSkillToACollaboratorUI_CollaboratorController"><path codeLine="60" d="M476.35,105.5 C499.32,105.5 516.64,105.5 539.62,105.5 " fill="none" id="AddSkillToACollaboratorUI-to-CollaboratorController" style="stroke:#181818;stroke-width:1.0;"/><polygon fill="#181818" points="545.62,105.5,536.62,101.5,540.62,105.5,536.62,109.5,545.62,105.5" style="stroke:#181818;stroke-width:1.0;"/><text fill="#000000" font-family="sans-serif" font-size="13" lengthAdjust="spacing" textLength="33" x="494.5" y="98.5283">starts</text><text fill="#000000" font-family="sans-serif" font-size="13" lengthAdjust="spacing" textLength="7" x="484.1709" y="102.2502">1</text><text fill="#000000" font-family="sans-serif" font-size="13" lengthAdjust="spacing" textLength="7" x="530.7982" y="102.2502">1</text></g><!--link CollaboratorController to CollaboratorRepository--><g id="link_CollaboratorController_CollaboratorRepository"><path codeLine="61" d="M1015.25,105.5 C1047.87,105.5 1073.6,105.5 1101.15,105.5 " fill="none" id="CollaboratorController-to-CollaboratorRepository" style="stroke:#181818;stroke-width:1.0;"/><polygon fill="#181818" points="1107.15,105.5,1098.15,101.5,1102.15,105.5,1098.15,109.5,1107.15,105.5" style="stroke:#181818;stroke-width:1.0;"/><text fill="#000000" font-family="sans-serif" font-size="13" lengthAdjust="spacing" textLength="56" x="1033.25" y="98.5283">accesses</text><text fill="#000000" font-family="sans-serif" font-size="13" lengthAdjust="spacing" textLength="7" x="1023.0676" y="102.2502">1</text><text fill="#000000" font-family="sans-serif" font-size="13" lengthAdjust="spacing" textLength="7" x="1092.4609" y="101.8522">1</text></g><!--link CollaboratorRepository to Collaborators--><g id="link_CollaboratorRepository_Collaborators"><path codeLine="62" d="M1285.61,105.5 C1313.4,105.5 1338.26,105.5 1366.85,105.5 " fill="none" id="CollaboratorRepository-to-Collaborators" style="stroke:#181818;stroke-width:1.0;"/><polygon fill="#181818" points="1372.85,105.5,1363.85,101.5,1367.85,105.5,1363.85,109.5,1372.85,105.5" style="stroke:#181818;stroke-width:1.0;"/><text fill="#000000" font-family="sans-serif" font-size="13" lengthAdjust="spacing" textLength="51" x="1303.75" y="98.5283">Contains</text><text fill="#000000" font-family="sans-serif" font-size="13" lengthAdjust="spacing" textLength="7" x="1293.5687" y="101.8266">1</text><text fill="#000000" font-family="sans-serif" font-size="13" lengthAdjust="spacing" textLength="19" x="1346.0348" y="120.1373">0...</text></g><!--link SkillRepository to Skill--><g id="link_SkillRepository_Skill"><path codeLine="63" d="M519.18,344 C544.24,344 568.73,344 600.68,344 " fill="none" id="SkillRepository-to-Skill" style="stroke:#181818;stroke-width:1.0;"/><polygon fill="#181818" points="606.68,344,597.68,340,601.68,344,597.68,348,606.68,344" style="stroke:#181818;stroke-width:1.0;"/><text fill="#000000" font-family="sans-serif" font-size="13" lengthAdjust="spacing" textLength="51" x="537.5" y="337.0283">Contains</text><text fill="#000000" font-family="sans-serif" font-size="13" lengthAdjust="spacing" textLength="7" x="526.8321" y="340.0842">1</text><text fill="#000000" font-family="sans-serif" font-size="13" lengthAdjust="spacing" textLength="19" x="580.0898" y="358.3041">0...</text></g><!--SRC=[hLJBZjf04BpFLxJs0gi5jBcYQ2L4BaWvH67p0SsuiLlCmvbfAo5H_ZtZHy0cG_OIBjZTLTNL3taMJ-ng36Z1UkTr5RmbaD2GkcPgr2SiQIzdGn182xhIZ06nmi9_OrV24KqSPmmxadDDK7jpRb_KB9FqGRmQiRJ163SYWG-Dq4vxj-SV1CzApGmT1SH3uB8IABYrmzuffJeIx4zi3FnKa7vBs2U9vCgXfMc4tT47Y-O3HHsuxYGc025TETPJXEemJtsHUQkwWDW-Rr6ezE6yo0alicAFwjV4yzOx2TuO2eFx9oX9kjH7ZZBly7yOcwBeCgz-iqqSFFY0uiENNU9Uo8vIa3QlXFPJyBMFQEQM7Tl6jkDSWCNlrvT0NviqpU9IyV6kYzx3kF1dIlAS7iuZxsD0dD_scwMyMIWEc_rhiKFWm46g8hKzYM9XESOqTCYaYa0nzh6T4qZ79gXb0kA2dF0nRL0w4QyRcoB_mhZ67YZqYBQXzrrhB_svn7nprnCORN4onc4q_st3oSRzKtfuzm3BvKltVtEYQuY2GQAwFTsECw9Sjxm6r3fDck9R9NjwVZ2NmldqFO6iZJpW8l6yMgscAX7MqDP2TaFdTsdzPsW4Lxy1]--></g></svg>