<?xml version="1.0" encoding="us-ascii" standalone="no"?><svg xmlns="http://www.w3.org/2000/svg" xmlns:xlink="http://www.w3.org/1999/xlink" contentStyleType="text/css" height="623px" preserveAspectRatio="none" style="width:1173px;height:623px;background:#FFFFFF;" version="1.1" viewBox="0 0 1173 623" width="1173px" zoomAndPan="magnify"><defs/><g><!--class Skill--><g id="elem_Skill"><rect codeLine="11" fill="#F1F1F1" height="122.4844" id="Skill" rx="2.5" ry="2.5" style="stroke:#181818;stroke-width:0.5;" width="443" x="723.5" y="457.5"/><ellipse cx="928.25" cy="473.5" fill="#ADD1B2" rx="11" ry="11" style="stroke:#181818;stroke-width:1.0;"/><path d="M931.0156,469.375 Q931.1719,469.1563 931.3594,469.0469 Q931.5469,468.9375 931.7656,468.9375 Q932.1406,468.9375 932.375,469.2031 Q932.6094,469.4531 932.6094,470.0625 L932.6094,471.5156 Q932.6094,472.125 932.375,472.3906 Q932.1406,472.6563 931.7656,472.6563 Q931.4219,472.6563 931.2188,472.4531 Q931.0156,472.2656 930.9063,471.75 Q930.8594,471.3906 930.6719,471.2031 Q930.3438,470.8281 929.7344,470.6094 Q929.125,470.3906 928.5,470.3906 Q927.7344,470.3906 927.0938,470.7188 Q926.4688,471.0469 925.9688,471.7969 Q925.4844,472.5469 925.4844,473.5781 L925.4844,474.6719 Q925.4844,475.9063 926.375,476.7344 Q927.2656,477.5469 928.8594,477.5469 Q929.7969,477.5469 930.4531,477.2969 Q930.8438,477.1406 931.2656,476.7031 Q931.5313,476.4375 931.6719,476.3594 Q931.8281,476.2813 932.0313,476.2813 Q932.3594,476.2813 932.6094,476.5469 Q932.875,476.7969 932.875,477.1406 Q932.875,477.4844 932.5313,477.8906 Q932.0313,478.4688 931.2344,478.7969 Q930.1563,479.25 928.8594,479.25 Q927.3438,479.25 926.1406,478.625 Q925.1563,478.125 924.4688,477.0625 Q923.7813,475.9844 923.7813,474.7031 L923.7813,473.5469 Q923.7813,472.2188 924.3906,471.0781 Q925.0156,469.9219 926.1094,469.3125 Q927.2031,468.6875 928.4375,468.6875 Q929.1719,468.6875 929.8125,468.8594 Q930.4688,469.0156 931.0156,469.375 Z " fill="#000000"/><text fill="#000000" font-family="sans-serif" font-size="14" lengthAdjust="spacing" textLength="25" x="948.75" y="479.2969">Skill</text><line style="stroke:#181818;stroke-width:0.5;" x1="724.5" x2="1165.5" y1="489.5" y2="489.5"/><text fill="#000000" font-family="sans-serif" font-size="14" lengthAdjust="spacing" textLength="81" x="729.5" y="508.6074">-String name</text><text fill="#000000" font-family="sans-serif" font-size="14" lengthAdjust="spacing" textLength="167" x="729.5" y="527.2285">-String informalDescription</text><text fill="#000000" font-family="sans-serif" font-size="14" lengthAdjust="spacing" textLength="173" x="729.5" y="545.8496">-String technicalDescription</text><line style="stroke:#181818;stroke-width:0.5;" x1="724.5" x2="1165.5" y1="553.3633" y2="553.3633"/><text fill="#000000" font-family="sans-serif" font-size="14" lengthAdjust="spacing" textLength="431" x="729.5" y="572.4707">+Skill(name, skillCategory, informalDescription, technicalDescription)</text></g><!--class SkillController--><g id="elem_SkillController"><rect codeLine="18" fill="#F1F1F1" height="66.6211" id="SkillController" rx="2.5" ry="2.5" style="stroke:#181818;stroke-width:0.5;" width="119" x="67.5" y="255.5"/><ellipse cx="82.5" cy="271.5" fill="#ADD1B2" rx="11" ry="11" style="stroke:#181818;stroke-width:1.0;"/><path d="M85.2656,267.375 Q85.4219,267.1563 85.6094,267.0469 Q85.7969,266.9375 86.0156,266.9375 Q86.3906,266.9375 86.625,267.2031 Q86.8594,267.4531 86.8594,268.0625 L86.8594,269.5156 Q86.8594,270.125 86.625,270.3906 Q86.3906,270.6563 86.0156,270.6563 Q85.6719,270.6563 85.4688,270.4531 Q85.2656,270.2656 85.1563,269.75 Q85.1094,269.3906 84.9219,269.2031 Q84.5938,268.8281 83.9844,268.6094 Q83.375,268.3906 82.75,268.3906 Q81.9844,268.3906 81.3438,268.7188 Q80.7188,269.0469 80.2188,269.7969 Q79.7344,270.5469 79.7344,271.5781 L79.7344,272.6719 Q79.7344,273.9063 80.625,274.7344 Q81.5156,275.5469 83.1094,275.5469 Q84.0469,275.5469 84.7031,275.2969 Q85.0938,275.1406 85.5156,274.7031 Q85.7813,274.4375 85.9219,274.3594 Q86.0781,274.2813 86.2813,274.2813 Q86.6094,274.2813 86.8594,274.5469 Q87.125,274.7969 87.125,275.1406 Q87.125,275.4844 86.7813,275.8906 Q86.2813,276.4688 85.4844,276.7969 Q84.4063,277.25 83.1094,277.25 Q81.5938,277.25 80.3906,276.625 Q79.4063,276.125 78.7188,275.0625 Q78.0313,273.9844 78.0313,272.7031 L78.0313,271.5469 Q78.0313,270.2188 78.6406,269.0781 Q79.2656,267.9219 80.3594,267.3125 Q81.4531,266.6875 82.6875,266.6875 Q83.4219,266.6875 84.0625,266.8594 Q84.7188,267.0156 85.2656,267.375 Z " fill="#000000"/><text fill="#000000" font-family="sans-serif" font-size="14" lengthAdjust="spacing" textLength="87" x="96.5" y="277.2969">SkillController</text><line style="stroke:#181818;stroke-width:0.5;" x1="68.5" x2="185.5" y1="287.5" y2="287.5"/><line style="stroke:#181818;stroke-width:0.5;" x1="68.5" x2="185.5" y1="295.5" y2="295.5"/><text fill="#000000" font-family="sans-serif" font-size="14" lengthAdjust="spacing" textLength="85" x="73.5" y="314.6074">+getSkillList()</text></g><!--class Collaborator--><g id="elem_Collaborator"><rect codeLine="22" fill="#F1F1F1" height="196.9688" id="Collaborator" rx="2.5" ry="2.5" style="stroke:#181818;stroke-width:0.5;" width="203" x="272.5" y="420"/><ellipse cx="330.75" cy="436" fill="#ADD1B2" rx="11" ry="11" style="stroke:#181818;stroke-width:1.0;"/><path d="M333.5156,431.875 Q333.6719,431.6563 333.8594,431.5469 Q334.0469,431.4375 334.2656,431.4375 Q334.6406,431.4375 334.875,431.7031 Q335.1094,431.9531 335.1094,432.5625 L335.1094,434.0156 Q335.1094,434.625 334.875,434.8906 Q334.6406,435.1563 334.2656,435.1563 Q333.9219,435.1563 333.7188,434.9531 Q333.5156,434.7656 333.4063,434.25 Q333.3594,433.8906 333.1719,433.7031 Q332.8438,433.3281 332.2344,433.1094 Q331.625,432.8906 331,432.8906 Q330.2344,432.8906 329.5938,433.2188 Q328.9688,433.5469 328.4688,434.2969 Q327.9844,435.0469 327.9844,436.0781 L327.9844,437.1719 Q327.9844,438.4063 328.875,439.2344 Q329.7656,440.0469 331.3594,440.0469 Q332.2969,440.0469 332.9531,439.7969 Q333.3438,439.6406 333.7656,439.2031 Q334.0313,438.9375 334.1719,438.8594 Q334.3281,438.7813 334.5313,438.7813 Q334.8594,438.7813 335.1094,439.0469 Q335.375,439.2969 335.375,439.6406 Q335.375,439.9844 335.0313,440.3906 Q334.5313,440.9688 333.7344,441.2969 Q332.6563,441.75 331.3594,441.75 Q329.8438,441.75 328.6406,441.125 Q327.6563,440.625 326.9688,439.5625 Q326.2813,438.4844 326.2813,437.2031 L326.2813,436.0469 Q326.2813,434.7188 326.8906,433.5781 Q327.5156,432.4219 328.6094,431.8125 Q329.7031,431.1875 330.9375,431.1875 Q331.6719,431.1875 332.3125,431.3594 Q332.9688,431.5156 333.5156,431.875 Z " fill="#000000"/><text fill="#000000" font-family="sans-serif" font-size="14" lengthAdjust="spacing" textLength="78" x="351.25" y="441.7969">Collaborator</text><line style="stroke:#181818;stroke-width:0.5;" x1="273.5" x2="474.5" y1="452" y2="452"/><text fill="#000000" font-family="sans-serif" font-size="14" lengthAdjust="spacing" textLength="81" x="278.5" y="471.1074">-String name</text><text fill="#000000" font-family="sans-serif" font-size="14" lengthAdjust="spacing" textLength="102" x="278.5" y="489.7285">-String birthdate</text><text fill="#000000" font-family="sans-serif" font-size="14" lengthAdjust="spacing" textLength="141" x="278.5" y="508.3496">-String admission date</text><text fill="#000000" font-family="sans-serif" font-size="14" lengthAdjust="spacing" textLength="97" x="278.5" y="526.9707">-String address</text><text fill="#000000" font-family="sans-serif" font-size="14" lengthAdjust="spacing" textLength="70" x="278.5" y="545.5918">-Int contact</text><text fill="#000000" font-family="sans-serif" font-size="14" lengthAdjust="spacing" textLength="191" x="278.5" y="564.2129">-String identification document</text><text fill="#000000" font-family="sans-serif" font-size="14" lengthAdjust="spacing" textLength="177" x="278.5" y="582.834">-String identification number</text><text fill="#000000" font-family="sans-serif" font-size="14" lengthAdjust="spacing" textLength="102" x="278.5" y="601.4551">-List&lt;Skill&gt; skills</text><line style="stroke:#181818;stroke-width:0.5;" x1="273.5" x2="474.5" y1="608.9688" y2="608.9688"/></g><!--class CollaboratorController--><g id="elem_CollaboratorController"><rect codeLine="33" fill="#F1F1F1" height="85.2422" id="CollaboratorController" rx="2.5" ry="2.5" style="stroke:#181818;stroke-width:0.5;" width="469" x="155.5" y="122"/><ellipse cx="315.75" cy="138" fill="#ADD1B2" rx="11" ry="11" style="stroke:#181818;stroke-width:1.0;"/><path d="M318.5156,133.875 Q318.6719,133.6563 318.8594,133.5469 Q319.0469,133.4375 319.2656,133.4375 Q319.6406,133.4375 319.875,133.7031 Q320.1094,133.9531 320.1094,134.5625 L320.1094,136.0156 Q320.1094,136.625 319.875,136.8906 Q319.6406,137.1563 319.2656,137.1563 Q318.9219,137.1563 318.7188,136.9531 Q318.5156,136.7656 318.4063,136.25 Q318.3594,135.8906 318.1719,135.7031 Q317.8438,135.3281 317.2344,135.1094 Q316.625,134.8906 316,134.8906 Q315.2344,134.8906 314.5938,135.2188 Q313.9688,135.5469 313.4688,136.2969 Q312.9844,137.0469 312.9844,138.0781 L312.9844,139.1719 Q312.9844,140.4063 313.875,141.2344 Q314.7656,142.0469 316.3594,142.0469 Q317.2969,142.0469 317.9531,141.7969 Q318.3438,141.6406 318.7656,141.2031 Q319.0313,140.9375 319.1719,140.8594 Q319.3281,140.7813 319.5313,140.7813 Q319.8594,140.7813 320.1094,141.0469 Q320.375,141.2969 320.375,141.6406 Q320.375,141.9844 320.0313,142.3906 Q319.5313,142.9688 318.7344,143.2969 Q317.6563,143.75 316.3594,143.75 Q314.8438,143.75 313.6406,143.125 Q312.6563,142.625 311.9688,141.5625 Q311.2813,140.4844 311.2813,139.2031 L311.2813,138.0469 Q311.2813,136.7188 311.8906,135.5781 Q312.5156,134.4219 313.6094,133.8125 Q314.7031,133.1875 315.9375,133.1875 Q316.6719,133.1875 317.3125,133.3594 Q317.9688,133.5156 318.5156,133.875 Z " fill="#000000"/><text fill="#000000" font-family="sans-serif" font-size="14" lengthAdjust="spacing" textLength="140" x="336.25" y="143.7969">CollaboratorController</text><line style="stroke:#181818;stroke-width:0.5;" x1="156.5" x2="623.5" y1="154" y2="154"/><line style="stroke:#181818;stroke-width:0.5;" x1="156.5" x2="623.5" y1="162" y2="162"/><text fill="#000000" font-family="sans-serif" font-size="14" lengthAdjust="spacing" textLength="138" x="161.5" y="181.1074">+getCollaboratorList()</text><text fill="#000000" font-family="sans-serif" font-size="14" lengthAdjust="spacing" textLength="457" x="161.5" y="199.7285">+generateATeamProposal(minimumSize, maximumSize, requiredSkillList)</text></g><!--class AddSkillToACollaboratorUI--><g id="elem_AddSkillToACollaboratorUI"><rect codeLine="38" fill="#F1F1F1" height="85.2422" id="AddSkillToACollaboratorUI" rx="2.5" ry="2.5" style="stroke:#181818;stroke-width:0.5;" width="469" x="17.5" y="7"/><ellipse cx="164.75" cy="23" fill="#ADD1B2" rx="11" ry="11" style="stroke:#181818;stroke-width:1.0;"/><path d="M167.5156,18.875 Q167.6719,18.6563 167.8594,18.5469 Q168.0469,18.4375 168.2656,18.4375 Q168.6406,18.4375 168.875,18.7031 Q169.1094,18.9531 169.1094,19.5625 L169.1094,21.0156 Q169.1094,21.625 168.875,21.8906 Q168.6406,22.1563 168.2656,22.1563 Q167.9219,22.1563 167.7188,21.9531 Q167.5156,21.7656 167.4063,21.25 Q167.3594,20.8906 167.1719,20.7031 Q166.8438,20.3281 166.2344,20.1094 Q165.625,19.8906 165,19.8906 Q164.2344,19.8906 163.5938,20.2188 Q162.9688,20.5469 162.4688,21.2969 Q161.9844,22.0469 161.9844,23.0781 L161.9844,24.1719 Q161.9844,25.4063 162.875,26.2344 Q163.7656,27.0469 165.3594,27.0469 Q166.2969,27.0469 166.9531,26.7969 Q167.3438,26.6406 167.7656,26.2031 Q168.0313,25.9375 168.1719,25.8594 Q168.3281,25.7813 168.5313,25.7813 Q168.8594,25.7813 169.1094,26.0469 Q169.375,26.2969 169.375,26.6406 Q169.375,26.9844 169.0313,27.3906 Q168.5313,27.9688 167.7344,28.2969 Q166.6563,28.75 165.3594,28.75 Q163.8438,28.75 162.6406,28.125 Q161.6563,27.625 160.9688,26.5625 Q160.2813,25.4844 160.2813,24.2031 L160.2813,23.0469 Q160.2813,21.7188 160.8906,20.5781 Q161.5156,19.4219 162.6094,18.8125 Q163.7031,18.1875 164.9375,18.1875 Q165.6719,18.1875 166.3125,18.3594 Q166.9688,18.5156 167.5156,18.875 Z " fill="#000000"/><text fill="#000000" font-family="sans-serif" font-size="14" lengthAdjust="spacing" textLength="166" x="185.25" y="28.7969">AddSkillToACollaboratorUI</text><line style="stroke:#181818;stroke-width:0.5;" x1="18.5" x2="485.5" y1="39" y2="39"/><line style="stroke:#181818;stroke-width:0.5;" x1="18.5" x2="485.5" y1="47" y2="47"/><text fill="#000000" font-family="sans-serif" font-size="14" lengthAdjust="spacing" textLength="457" x="23.5" y="66.1074">+generateATeamProposal(minimumSize, maximumSize, requiredSkillList)</text><text fill="#000000" font-family="sans-serif" font-size="14" lengthAdjust="spacing" textLength="85" x="23.5" y="84.7285">+getSkillList()</text></g><!--class CollaboratorRepository--><g id="elem_CollaboratorRepository"><rect codeLine="43" fill="#F1F1F1" height="66.6211" id="CollaboratorRepository" rx="2.5" ry="2.5" style="stroke:#181818;stroke-width:0.5;" width="178" x="7" y="485"/><ellipse cx="22" cy="501" fill="#ADD1B2" rx="11" ry="11" style="stroke:#181818;stroke-width:1.0;"/><path d="M24.7656,496.875 Q24.9219,496.6563 25.1094,496.5469 Q25.2969,496.4375 25.5156,496.4375 Q25.8906,496.4375 26.125,496.7031 Q26.3594,496.9531 26.3594,497.5625 L26.3594,499.0156 Q26.3594,499.625 26.125,499.8906 Q25.8906,500.1563 25.5156,500.1563 Q25.1719,500.1563 24.9688,499.9531 Q24.7656,499.7656 24.6563,499.25 Q24.6094,498.8906 24.4219,498.7031 Q24.0938,498.3281 23.4844,498.1094 Q22.875,497.8906 22.25,497.8906 Q21.4844,497.8906 20.8438,498.2188 Q20.2188,498.5469 19.7188,499.2969 Q19.2344,500.0469 19.2344,501.0781 L19.2344,502.1719 Q19.2344,503.4063 20.125,504.2344 Q21.0156,505.0469 22.6094,505.0469 Q23.5469,505.0469 24.2031,504.7969 Q24.5938,504.6406 25.0156,504.2031 Q25.2813,503.9375 25.4219,503.8594 Q25.5781,503.7813 25.7813,503.7813 Q26.1094,503.7813 26.3594,504.0469 Q26.625,504.2969 26.625,504.6406 Q26.625,504.9844 26.2813,505.3906 Q25.7813,505.9688 24.9844,506.2969 Q23.9063,506.75 22.6094,506.75 Q21.0938,506.75 19.8906,506.125 Q18.9063,505.625 18.2188,504.5625 Q17.5313,503.4844 17.5313,502.2031 L17.5313,501.0469 Q17.5313,499.7188 18.1406,498.5781 Q18.7656,497.4219 19.8594,496.8125 Q20.9531,496.1875 22.1875,496.1875 Q22.9219,496.1875 23.5625,496.3594 Q24.2188,496.5156 24.7656,496.875 Z " fill="#000000"/><text fill="#000000" font-family="sans-serif" font-size="14" lengthAdjust="spacing" textLength="146" x="36" y="506.7969">CollaboratorRepository</text><line style="stroke:#181818;stroke-width:0.5;" x1="8" x2="184" y1="517" y2="517"/><line style="stroke:#181818;stroke-width:0.5;" x1="8" x2="184" y1="525" y2="525"/><text fill="#000000" font-family="sans-serif" font-size="14" lengthAdjust="spacing" textLength="123" x="13" y="544.1074">+getCollaborators()</text></g><!--class SkillRepository--><g id="elem_SkillRepository"><rect codeLine="47" fill="#F1F1F1" height="66.6211" id="SkillRepository" rx="2.5" ry="2.5" style="stroke:#181818;stroke-width:0.5;" width="125" x="510.5" y="485"/><ellipse cx="525.5" cy="501" fill="#ADD1B2" rx="11" ry="11" style="stroke:#181818;stroke-width:1.0;"/><path d="M528.2656,496.875 Q528.4219,496.6563 528.6094,496.5469 Q528.7969,496.4375 529.0156,496.4375 Q529.3906,496.4375 529.625,496.7031 Q529.8594,496.9531 529.8594,497.5625 L529.8594,499.0156 Q529.8594,499.625 529.625,499.8906 Q529.3906,500.1563 529.0156,500.1563 Q528.6719,500.1563 528.4688,499.9531 Q528.2656,499.7656 528.1563,499.25 Q528.1094,498.8906 527.9219,498.7031 Q527.5938,498.3281 526.9844,498.1094 Q526.375,497.8906 525.75,497.8906 Q524.9844,497.8906 524.3438,498.2188 Q523.7188,498.5469 523.2188,499.2969 Q522.7344,500.0469 522.7344,501.0781 L522.7344,502.1719 Q522.7344,503.4063 523.625,504.2344 Q524.5156,505.0469 526.1094,505.0469 Q527.0469,505.0469 527.7031,504.7969 Q528.0938,504.6406 528.5156,504.2031 Q528.7813,503.9375 528.9219,503.8594 Q529.0781,503.7813 529.2813,503.7813 Q529.6094,503.7813 529.8594,504.0469 Q530.125,504.2969 530.125,504.6406 Q530.125,504.9844 529.7813,505.3906 Q529.2813,505.9688 528.4844,506.2969 Q527.4063,506.75 526.1094,506.75 Q524.5938,506.75 523.3906,506.125 Q522.4063,505.625 521.7188,504.5625 Q521.0313,503.4844 521.0313,502.2031 L521.0313,501.0469 Q521.0313,499.7188 521.6406,498.5781 Q522.2656,497.4219 523.3594,496.8125 Q524.4531,496.1875 525.6875,496.1875 Q526.4219,496.1875 527.0625,496.3594 Q527.7188,496.5156 528.2656,496.875 Z " fill="#000000"/><text fill="#000000" font-family="sans-serif" font-size="14" lengthAdjust="spacing" textLength="93" x="539.5" y="506.7969">SkillRepository</text><line style="stroke:#181818;stroke-width:0.5;" x1="511.5" x2="634.5" y1="517" y2="517"/><line style="stroke:#181818;stroke-width:0.5;" x1="511.5" x2="634.5" y1="525" y2="525"/><text fill="#000000" font-family="sans-serif" font-size="14" lengthAdjust="spacing" textLength="85" x="516.5" y="544.1074">+getSkillList()</text></g><!--class Repositories--><g id="elem_Repositories"><rect codeLine="51" fill="#F1F1F1" height="103.8633" id="Repositories" rx="2.5" ry="2.5" style="stroke:#181818;stroke-width:0.5;" width="196" x="285" y="237"/><ellipse cx="339.25" cy="253" fill="#ADD1B2" rx="11" ry="11" style="stroke:#181818;stroke-width:1.0;"/><path d="M342.0156,248.875 Q342.1719,248.6563 342.3594,248.5469 Q342.5469,248.4375 342.7656,248.4375 Q343.1406,248.4375 343.375,248.7031 Q343.6094,248.9531 343.6094,249.5625 L343.6094,251.0156 Q343.6094,251.625 343.375,251.8906 Q343.1406,252.1563 342.7656,252.1563 Q342.4219,252.1563 342.2188,251.9531 Q342.0156,251.7656 341.9063,251.25 Q341.8594,250.8906 341.6719,250.7031 Q341.3438,250.3281 340.7344,250.1094 Q340.125,249.8906 339.5,249.8906 Q338.7344,249.8906 338.0938,250.2188 Q337.4688,250.5469 336.9688,251.2969 Q336.4844,252.0469 336.4844,253.0781 L336.4844,254.1719 Q336.4844,255.4063 337.375,256.2344 Q338.2656,257.0469 339.8594,257.0469 Q340.7969,257.0469 341.4531,256.7969 Q341.8438,256.6406 342.2656,256.2031 Q342.5313,255.9375 342.6719,255.8594 Q342.8281,255.7813 343.0313,255.7813 Q343.3594,255.7813 343.6094,256.0469 Q343.875,256.2969 343.875,256.6406 Q343.875,256.9844 343.5313,257.3906 Q343.0313,257.9688 342.2344,258.2969 Q341.1563,258.75 339.8594,258.75 Q338.3438,258.75 337.1406,258.125 Q336.1563,257.625 335.4688,256.5625 Q334.7813,255.4844 334.7813,254.2031 L334.7813,253.0469 Q334.7813,251.7188 335.3906,250.5781 Q336.0156,249.4219 337.1094,248.8125 Q338.2031,248.1875 339.4375,248.1875 Q340.1719,248.1875 340.8125,248.3594 Q341.4688,248.5156 342.0156,248.875 Z " fill="#000000"/><text fill="#000000" font-family="sans-serif" font-size="14" lengthAdjust="spacing" textLength="79" x="359.75" y="258.7969">Repositories</text><line style="stroke:#181818;stroke-width:0.5;" x1="286" x2="480" y1="269" y2="269"/><line style="stroke:#181818;stroke-width:0.5;" x1="286" x2="480" y1="277" y2="277"/><text fill="#000000" font-family="sans-serif" font-size="14" lengthAdjust="spacing" textLength="91" x="291" y="296.1074">+getInstance()</text><text fill="#000000" font-family="sans-serif" font-size="14" lengthAdjust="spacing" textLength="184" x="291" y="314.7285">+getCollaboratorRepository()</text><text fill="#000000" font-family="sans-serif" font-size="14" lengthAdjust="spacing" textLength="131" x="291" y="333.3496">+getSkillRepository()</text></g><!--link AddSkillToACollaboratorUI to SkillController--><g id="link_AddSkillToACollaboratorUI_SkillController"><path codeLine="57" d="M165.33,92.09 C132.55,107.82 103,122 103,122 C103,122 103,207 103,207 C103,207 108.8838,226.8777 115.5338,249.2977 " fill="none" id="AddSkillToACollaboratorUI-to-SkillController" style="stroke:#181818;stroke-width:1.0;"/><polygon fill="#181818" points="117.24,255.05,118.5156,245.2841,115.8182,250.2564,110.8459,247.559,117.24,255.05" style="stroke:#181818;stroke-width:1.0;"/><text fill="#000000" font-family="sans-serif" font-size="13" lengthAdjust="spacing" textLength="33" x="104" y="170.0283">starts</text><text fill="#000000" font-family="sans-serif" font-size="13" lengthAdjust="spacing" textLength="7" x="143.9592" y="114.2647">1</text><text fill="#000000" font-family="sans-serif" font-size="13" lengthAdjust="spacing" textLength="7" x="107.7952" y="244.3134">1</text></g><!--link SkillController to Repositories--><g id="link_SkillController_Repositories"><path codeLine="58" d="M186.7,289 C215.88,289 245.75,289 278.82,289 " fill="none" id="SkillController-to-Repositories" style="stroke:#181818;stroke-width:1.0;"/><polygon fill="#181818" points="284.82,289,275.82,285,279.82,289,275.82,293,284.82,289" style="stroke:#181818;stroke-width:1.0;"/><text fill="#000000" font-family="sans-serif" font-size="13" lengthAdjust="spacing" textLength="56" x="207.75" y="282.0283">accesses</text><text fill="#000000" font-family="sans-serif" font-size="13" lengthAdjust="spacing" textLength="7" x="194.4025" y="285.0332">1</text><text fill="#000000" font-family="sans-serif" font-size="13" lengthAdjust="spacing" textLength="7" x="270.0351" y="285.3939">1</text></g><!--link AddSkillToACollaboratorUI to CollaboratorController--><g id="link_AddSkillToACollaboratorUI_CollaboratorController"><path codeLine="59" d="M302.99,92.26 C314.82,101.94 322.758,108.4384 334.578,118.1184 " fill="none" id="AddSkillToACollaboratorUI-to-CollaboratorController" style="stroke:#181818;stroke-width:1.0;"/><polygon fill="#181818" points="339.22,121.92,334.7914,113.123,335.3517,118.752,329.7226,119.3123,339.22,121.92" style="stroke:#181818;stroke-width:1.0;"/><text fill="#000000" font-family="sans-serif" font-size="13" lengthAdjust="spacing" textLength="33" x="287.1" y="103.1183">starts</text><text fill="#000000" font-family="sans-serif" font-size="13" lengthAdjust="spacing" textLength="7" x="303.2619" y="114.1412">1</text><text fill="#000000" font-family="sans-serif" font-size="13" lengthAdjust="spacing" textLength="7" x="328.1436" y="114.2121">1</text></g><!--link CollaboratorController to Repositories--><g id="link_CollaboratorController_Repositories"><path codeLine="60" d="M387.61,207.31 C387.07,216.74 386.8272,220.8595 386.2772,230.6295 " fill="none" id="CollaboratorController-to-Repositories" style="stroke:#181818;stroke-width:1.0;"/><polygon fill="#181818" points="385.94,236.62,390.4395,227.8591,386.221,231.6279,382.4522,227.4094,385.94,236.62" style="stroke:#181818;stroke-width:1.0;"/><text fill="#000000" font-family="sans-serif" font-size="13" lengthAdjust="spacing" textLength="56" x="329.77" y="217.9983">accesses</text><text fill="#000000" font-family="sans-serif" font-size="13" lengthAdjust="spacing" textLength="7" x="388.2328" y="225.6379">1</text><text fill="#000000" font-family="sans-serif" font-size="13" lengthAdjust="spacing" textLength="7" x="378.8683" y="225.8755">1</text></g><!--link Repositories to CollaboratorRepository--><g id="link_Repositories_CollaboratorRepository"><path codeLine="61" d="M318.59,341.06 C263.06,385.07 189.252,443.5829 141.842,481.1629 " fill="none" id="Repositories-to-CollaboratorRepository" style="stroke:#181818;stroke-width:1.0;"/><polygon fill="#181818" points="137.14,484.89,146.6777,482.434,141.0583,481.7841,141.7083,476.1647,137.14,484.89" style="stroke:#181818;stroke-width:1.0;"/><text fill="#000000" font-family="sans-serif" font-size="13" lengthAdjust="spacing" textLength="49" x="275" y="386.0283">contains</text></g><!--link Repositories to SkillRepository--><g id="link_Repositories_SkillRepository"><path codeLine="62" d="M426.16,341.01 C456.98,377.43 493,420 493,420 C493,420 519.0938,451.8018 542.3338,480.1218 " fill="none" id="Repositories-to-SkillRepository" style="stroke:#181818;stroke-width:1.0;"/><polygon fill="#181818" points="546.14,484.76,543.5228,475.2652,542.9682,480.8948,537.3386,480.3402,546.14,484.76" style="stroke:#181818;stroke-width:1.0;"/><text fill="#000000" font-family="sans-serif" font-size="13" lengthAdjust="spacing" textLength="49" x="467" y="386.0283">contains</text></g><!--link CollaboratorRepository to Collaborator--><g id="link_CollaboratorRepository_Collaborator"><path codeLine="63" d="M185.11,518.5 C212.9,518.5 237.76,518.5 266.35,518.5 " fill="none" id="CollaboratorRepository-to-Collaborator" style="stroke:#181818;stroke-width:1.0;"/><polygon fill="#181818" points="272.35,518.5,263.35,514.5,267.35,518.5,263.35,522.5,272.35,518.5" style="stroke:#181818;stroke-width:1.0;"/><text fill="#000000" font-family="sans-serif" font-size="13" lengthAdjust="spacing" textLength="51" x="203.25" y="511.5283">Contains</text><text fill="#000000" font-family="sans-serif" font-size="13" lengthAdjust="spacing" textLength="7" x="193.0687" y="514.8266">1</text><text fill="#000000" font-family="sans-serif" font-size="13" lengthAdjust="spacing" textLength="19" x="245.5348" y="533.1373">0...</text></g><!--link SkillRepository to Skill--><g id="link_SkillRepository_Skill"><path codeLine="64" d="M635.68,518.5 C660.74,518.5 685.23,518.5 717.18,518.5 " fill="none" id="SkillRepository-to-Skill" style="stroke:#181818;stroke-width:1.0;"/><polygon fill="#181818" points="723.18,518.5,714.18,514.5,718.18,518.5,714.18,522.5,723.18,518.5" style="stroke:#181818;stroke-width:1.0;"/><text fill="#000000" font-family="sans-serif" font-size="13" lengthAdjust="spacing" textLength="51" x="654" y="511.5283">Contains</text><text fill="#000000" font-family="sans-serif" font-size="13" lengthAdjust="spacing" textLength="7" x="643.3321" y="514.5842">1</text><text fill="#000000" font-family="sans-serif" font-size="13" lengthAdjust="spacing" textLength="19" x="696.5898" y="532.8041">0...</text></g><!--SRC=[fLJBZjim3BphAuYznCKcmVOQ50i4wIL03qMp_G15PXmYUhWIZTOj-k-LxIGhUvMcG7snJSwGmp7bMJYHhQMN1eopJXszCmZi6nIlcLggawnmnwr6yAXOsagdW72KfVjEjeA3r27DQBB8ROrGEzrsBsAMIJhFJYGifMK8QsPF-uPngvpTqK-49o5c6WyCxC1JTMGegPD3pWhHSs1t8gtXbu1uBM0NAqHHLXeSHyWUd3TIVyIWFDLzXH60KHqjgRU8nw55qTMSG-YUDvAnShwTvyhEiwNUYTyZnHjdsJkjqP-rFqA5tAS-KU0YmMyYJEwTb-py_K7tvFbOHe7Zi2mDXH25G2vNUWpX7DnQXkW_IyKJ2qkqJ8Su6FTrd6fCZFmLP1kpHt-6T8Dzw4Ty7dmC-I7ptgI8iqMNdCKOnVKBIlFPkze5gGj3banZkZMQWv4_NbyyVclY5fLNinElr-KGVd7hjD_NRQBalxlz- -V-Wh4ynOVsbXEXc6vMdfDjTOKIXXIyjI6UU8M9nPoNLKod6QLYezk6Fhn_WCNYkRzFZiGAOd_FGKoFIiyPAAds5KYbuWPZkDTluEQNxThrnYxURpxoivijRzfgE5zaCuo9YGdqnbvSL3qjbylnPB22pOKytOmnQ_Y79l0_]--></g></svg>