<?xml version="1.0" encoding="us-ascii" standalone="no"?><svg xmlns="http://www.w3.org/2000/svg" xmlns:xlink="http://www.w3.org/1999/xlink" contentStyleType="text/css" height="1031px" preserveAspectRatio="none" style="width:1765px;height:1031px;background:#FFFFFF;" version="1.1" viewBox="0 0 1765 1031" width="1765px" zoomAndPan="magnify"><defs/><g><rect fill="#FFFFFF" height="845.1973" style="stroke:#181818;stroke-width:1.0;" width="10" x="91" y="93.6211"/><rect fill="#FFFFFF" height="31.291" style="stroke:#181818;stroke-width:1.0;" width="10" x="774" y="116.9121"/><rect fill="#FFFFFF" height="219.0371" style="stroke:#181818;stroke-width:1.0;" width="10" x="774" y="179.4941"/><rect fill="#FFFFFF" height="508.9961" style="stroke:#181818;stroke-width:1.0;" width="10" x="774" y="429.8223"/><rect fill="#FFFFFF" height="156.4551" style="stroke:#181818;stroke-width:1.0;" width="10" x="927.5" y="210.7852"/><rect fill="#FFFFFF" height="477.7051" style="stroke:#181818;stroke-width:1.0;" width="10" x="1184" y="461.1133"/><rect fill="#FFFFFF" height="31.291" style="stroke:#181818;stroke-width:1.0;" width="10" x="1411" y="242.0762"/><rect fill="#FFFFFF" height="31.291" style="stroke:#181818;stroke-width:1.0;" width="10" x="1411" y="492.4043"/><rect fill="#FFFFFF" height="31.291" style="stroke:#181818;stroke-width:1.0;" width="10" x="1525" y="304.6582"/><rect fill="#FFFFFF" height="31.291" style="stroke:#181818;stroke-width:1.0;" width="10" x="1672.5" y="554.9863"/><rect fill="none" height="286.25" style="stroke:#000000;stroke-width:1.5;" width="1268" x="10" y="645.5684"/><line style="stroke:#181818;stroke-width:0.5;stroke-dasharray:5.0,5.0;" x1="96" x2="96" y1="83.6211" y2="948.8184"/><line style="stroke:#181818;stroke-width:0.5;stroke-dasharray:5.0,5.0;" x1="779" x2="779" y1="83.6211" y2="948.8184"/><line style="stroke:#181818;stroke-width:0.5;stroke-dasharray:5.0,5.0;" x1="932" x2="932" y1="83.6211" y2="948.8184"/><line style="stroke:#181818;stroke-width:0.5;stroke-dasharray:5.0,5.0;" x1="1189" x2="1189" y1="83.6211" y2="948.8184"/><line style="stroke:#181818;stroke-width:0.5;stroke-dasharray:5.0,5.0;" x1="1415.5" x2="1415.5" y1="83.6211" y2="948.8184"/><line style="stroke:#181818;stroke-width:0.5;stroke-dasharray:5.0,5.0;" x1="1529.5" x2="1529.5" y1="83.6211" y2="948.8184"/><line style="stroke:#181818;stroke-width:0.5;stroke-dasharray:5.0,5.0;" x1="1677.5" x2="1677.5" y1="83.6211" y2="948.8184"/><text fill="#000000" font-family="sans-serif" font-size="14" lengthAdjust="spacing" textLength="146" x="20" y="80.1074">Organization Employee</text><ellipse cx="96" cy="13.5" fill="#E3E3E3" rx="8" ry="8" style="stroke:#181818;stroke-width:0.5;"/><path d="M96,21.5 L96,48.5 M83,29.5 L109,29.5 M96,48.5 L83,63.5 M96,48.5 L109,63.5 " fill="none" style="stroke:#181818;stroke-width:0.5;"/><text fill="#000000" font-family="sans-serif" font-size="14" lengthAdjust="spacing" textLength="146" x="20" y="962.9258">Organization Employee</text><ellipse cx="96" cy="974.9395" fill="#E3E3E3" rx="8" ry="8" style="stroke:#181818;stroke-width:0.5;"/><path d="M96,982.9395 L96,1009.9395 M83,990.9395 L109,990.9395 M96,1009.9395 L83,1024.9395 M96,1009.9395 L109,1024.9395 " fill="none" style="stroke:#181818;stroke-width:0.5;"/><rect fill="#E3E3E3" height="32.6211" rx="2.5" ry="2.5" style="stroke:#181818;stroke-width:0.5;" width="182" x="688" y="50"/><text fill="#000000" font-family="sans-serif" font-size="14" lengthAdjust="spacing" textLength="168" x="695" y="72.1074">:GenerateTeamProposalUI</text><rect fill="#E3E3E3" height="32.6211" rx="2.5" ry="2.5" style="stroke:#181818;stroke-width:0.5;" width="182" x="688" y="947.8184"/><text fill="#000000" font-family="sans-serif" font-size="14" lengthAdjust="spacing" textLength="168" x="695" y="969.9258">:GenerateTeamProposalUI</text><rect fill="#E3E3E3" height="32.6211" rx="2.5" ry="2.5" style="stroke:#181818;stroke-width:0.5;" width="105" x="880" y="50"/><text fill="#000000" font-family="sans-serif" font-size="14" lengthAdjust="spacing" textLength="91" x="887" y="72.1074">:SkillController</text><rect fill="#E3E3E3" height="32.6211" rx="2.5" ry="2.5" style="stroke:#181818;stroke-width:0.5;" width="105" x="880" y="947.8184"/><text fill="#000000" font-family="sans-serif" font-size="14" lengthAdjust="spacing" textLength="91" x="887" y="969.9258">:SkillController</text><rect fill="#E3E3E3" height="32.6211" rx="2.5" ry="2.5" style="stroke:#181818;stroke-width:0.5;" width="158" x="1110" y="50"/><text fill="#000000" font-family="sans-serif" font-size="14" lengthAdjust="spacing" textLength="144" x="1117" y="72.1074">:CollaboratorController</text><rect fill="#E3E3E3" height="32.6211" rx="2.5" ry="2.5" style="stroke:#181818;stroke-width:0.5;" width="158" x="1110" y="947.8184"/><text fill="#000000" font-family="sans-serif" font-size="14" lengthAdjust="spacing" textLength="144" x="1117" y="969.9258">:CollaboratorController</text><rect fill="#E3E3E3" height="51.2422" rx="2.5" ry="2.5" style="stroke:#181818;stroke-width:0.5;" width="97" x="1367.5" y="31.3789"/><text fill="#000000" font-family="sans-serif" font-size="14" lengthAdjust="spacing" textLength="83" x="1374.5" y="53.4863">Repositories:</text><text fill="#000000" font-family="sans-serif" font-size="14" lengthAdjust="spacing" textLength="79" x="1376.5" y="72.1074">Repositories</text><rect fill="#E3E3E3" height="51.2422" rx="2.5" ry="2.5" style="stroke:#181818;stroke-width:0.5;" width="97" x="1367.5" y="947.8184"/><text fill="#000000" font-family="sans-serif" font-size="14" lengthAdjust="spacing" textLength="83" x="1374.5" y="969.9258">Repositories:</text><text fill="#000000" font-family="sans-serif" font-size="14" lengthAdjust="spacing" textLength="79" x="1376.5" y="988.5469">Repositories</text><rect fill="#E3E3E3" height="51.2422" rx="2.5" ry="2.5" style="stroke:#181818;stroke-width:0.5;" width="111" x="1474.5" y="31.3789"/><text fill="#000000" font-family="sans-serif" font-size="14" lengthAdjust="spacing" textLength="97" x="1481.5" y="53.4863">SkillRepository:</text><text fill="#000000" font-family="sans-serif" font-size="14" lengthAdjust="spacing" textLength="93" x="1483.5" y="72.1074">SkillRepository</text><rect fill="#E3E3E3" height="51.2422" rx="2.5" ry="2.5" style="stroke:#181818;stroke-width:0.5;" width="111" x="1474.5" y="947.8184"/><text fill="#000000" font-family="sans-serif" font-size="14" lengthAdjust="spacing" textLength="97" x="1481.5" y="969.9258">SkillRepository:</text><text fill="#000000" font-family="sans-serif" font-size="14" lengthAdjust="spacing" textLength="93" x="1483.5" y="988.5469">SkillRepository</text><rect fill="#E3E3E3" height="51.2422" rx="2.5" ry="2.5" style="stroke:#181818;stroke-width:0.5;" width="164" x="1595.5" y="31.3789"/><text fill="#000000" font-family="sans-serif" font-size="14" lengthAdjust="spacing" textLength="150" x="1602.5" y="53.4863">CollaboratorRepository:</text><text fill="#000000" font-family="sans-serif" font-size="14" lengthAdjust="spacing" textLength="146" x="1604.5" y="72.1074">CollaboratorRepository</text><rect fill="#E3E3E3" height="51.2422" rx="2.5" ry="2.5" style="stroke:#181818;stroke-width:0.5;" width="164" x="1595.5" y="947.8184"/><text fill="#000000" font-family="sans-serif" font-size="14" lengthAdjust="spacing" textLength="150" x="1602.5" y="969.9258">CollaboratorRepository:</text><text fill="#000000" font-family="sans-serif" font-size="14" lengthAdjust="spacing" textLength="146" x="1604.5" y="988.5469">CollaboratorRepository</text><rect fill="#FFFFFF" height="845.1973" style="stroke:#181818;stroke-width:1.0;" width="10" x="91" y="93.6211"/><rect fill="#FFFFFF" height="31.291" style="stroke:#181818;stroke-width:1.0;" width="10" x="774" y="116.9121"/><rect fill="#FFFFFF" height="219.0371" style="stroke:#181818;stroke-width:1.0;" width="10" x="774" y="179.4941"/><rect fill="#FFFFFF" height="508.9961" style="stroke:#181818;stroke-width:1.0;" width="10" x="774" y="429.8223"/><rect fill="#FFFFFF" height="156.4551" style="stroke:#181818;stroke-width:1.0;" width="10" x="927.5" y="210.7852"/><rect fill="#FFFFFF" height="477.7051" style="stroke:#181818;stroke-width:1.0;" width="10" x="1184" y="461.1133"/><rect fill="#FFFFFF" height="31.291" style="stroke:#181818;stroke-width:1.0;" width="10" x="1411" y="242.0762"/><rect fill="#FFFFFF" height="31.291" style="stroke:#181818;stroke-width:1.0;" width="10" x="1411" y="492.4043"/><rect fill="#FFFFFF" height="31.291" style="stroke:#181818;stroke-width:1.0;" width="10" x="1525" y="304.6582"/><rect fill="#FFFFFF" height="31.291" style="stroke:#181818;stroke-width:1.0;" width="10" x="1672.5" y="554.9863"/><polygon fill="#181818" points="762,112.9121,772,116.9121,762,120.9121,766,116.9121" style="stroke:#181818;stroke-width:1.0;"/><line style="stroke:#181818;stroke-width:1.0;" x1="101" x2="768" y1="116.9121" y2="116.9121"/><text fill="#000000" font-family="sans-serif" font-size="13" font-weight="bold" lengthAdjust="spacing" textLength="7" x="108" y="111.6494">1</text><text fill="#000000" font-family="sans-serif" font-size="13" lengthAdjust="spacing" textLength="194" x="119" y="111.6494">asks to generate a team proposal</text><polygon fill="#181818" points="112,144.2031,102,148.2031,112,152.2031,108,148.2031" style="stroke:#181818;stroke-width:1.0;"/><line style="stroke:#181818;stroke-width:1.0;" x1="106" x2="778" y1="148.2031" y2="148.2031"/><text fill="#000000" font-family="sans-serif" font-size="13" font-weight="bold" lengthAdjust="spacing" textLength="7" x="118" y="142.9404">2</text><text fill="#000000" font-family="sans-serif" font-size="13" lengthAdjust="spacing" textLength="200" x="129" y="142.9404">minimum and maximum team size</text><polygon fill="#181818" points="762,175.4941,772,179.4941,762,183.4941,766,179.4941" style="stroke:#181818;stroke-width:1.0;"/><line style="stroke:#181818;stroke-width:1.0;" x1="101" x2="768" y1="179.4941" y2="179.4941"/><text fill="#000000" font-family="sans-serif" font-size="13" font-weight="bold" lengthAdjust="spacing" textLength="7" x="108" y="174.2314">3</text><text fill="#000000" font-family="sans-serif" font-size="13" lengthAdjust="spacing" textLength="146" x="119" y="174.2314">writes the required values</text><polygon fill="#181818" points="915.5,206.7852,925.5,210.7852,915.5,214.7852,919.5,210.7852" style="stroke:#181818;stroke-width:1.0;"/><line style="stroke:#181818;stroke-width:1.0;" x1="784" x2="921.5" y1="210.7852" y2="210.7852"/><text fill="#000000" font-family="sans-serif" font-size="13" font-weight="bold" lengthAdjust="spacing" textLength="7" x="791" y="205.5225">4</text><text fill="#000000" font-family="sans-serif" font-size="13" lengthAdjust="spacing" textLength="72" x="802" y="205.5225">getSkillList()</text><polygon fill="#181818" points="1399,238.0762,1409,242.0762,1399,246.0762,1403,242.0762" style="stroke:#181818;stroke-width:1.0;"/><line style="stroke:#181818;stroke-width:1.0;" x1="937.5" x2="1405" y1="242.0762" y2="242.0762"/><text fill="#000000" font-family="sans-serif" font-size="13" font-weight="bold" lengthAdjust="spacing" textLength="7" x="944.5" y="236.8135">5</text><text fill="#000000" font-family="sans-serif" font-size="13" lengthAdjust="spacing" textLength="113" x="955.5" y="236.8135">getSkillRepository()</text><polygon fill="#181818" points="948.5,269.3672,938.5,273.3672,948.5,277.3672,944.5,273.3672" style="stroke:#181818;stroke-width:1.0;"/><line style="stroke:#181818;stroke-width:1.0;" x1="942.5" x2="1415" y1="273.3672" y2="273.3672"/><text fill="#000000" font-family="sans-serif" font-size="13" font-weight="bold" lengthAdjust="spacing" textLength="7" x="954.5" y="268.1045">6</text><text fill="#000000" font-family="sans-serif" font-size="13" lengthAdjust="spacing" textLength="131" x="965.5" y="268.1045">returns SkillRepository</text><polygon fill="#181818" points="1513,300.6582,1523,304.6582,1513,308.6582,1517,304.6582" style="stroke:#181818;stroke-width:1.0;"/><line style="stroke:#181818;stroke-width:1.0;" x1="937.5" x2="1519" y1="304.6582" y2="304.6582"/><text fill="#000000" font-family="sans-serif" font-size="13" font-weight="bold" lengthAdjust="spacing" textLength="7" x="944.5" y="299.3955">7</text><text fill="#000000" font-family="sans-serif" font-size="13" lengthAdjust="spacing" textLength="58" x="955.5" y="299.3955">getSkills()</text><polygon fill="#181818" points="948.5,331.9492,938.5,335.9492,948.5,339.9492,944.5,335.9492" style="stroke:#181818;stroke-width:1.0;"/><line style="stroke:#181818;stroke-width:1.0;" x1="942.5" x2="1529" y1="335.9492" y2="335.9492"/><text fill="#000000" font-family="sans-serif" font-size="13" font-weight="bold" lengthAdjust="spacing" textLength="7" x="954.5" y="330.6865">8</text><text fill="#000000" font-family="sans-serif" font-size="13" lengthAdjust="spacing" textLength="74" x="965.5" y="330.6865">returns skills</text><polygon fill="#181818" points="795,363.2402,785,367.2402,795,371.2402,791,367.2402" style="stroke:#181818;stroke-width:1.0;"/><line style="stroke:#181818;stroke-width:1.0;" x1="789" x2="931.5" y1="367.2402" y2="367.2402"/><text fill="#000000" font-family="sans-serif" font-size="13" font-weight="bold" lengthAdjust="spacing" textLength="7" x="801" y="361.9775">9</text><text fill="#000000" font-family="sans-serif" font-size="13" lengthAdjust="spacing" textLength="74" x="812" y="361.9775">returns skills</text><polygon fill="#181818" points="112,394.5313,102,398.5313,112,402.5313,108,398.5313" style="stroke:#181818;stroke-width:1.0;"/><line style="stroke:#181818;stroke-width:1.0;" x1="106" x2="778" y1="398.5313" y2="398.5313"/><text fill="#000000" font-family="sans-serif" font-size="13" font-weight="bold" lengthAdjust="spacing" textLength="14" x="118" y="393.2686">10</text><text fill="#000000" font-family="sans-serif" font-size="13" lengthAdjust="spacing" textLength="631" x="136" y="393.2686">shows the possible skills for the team and asks the user to choose which one he wants and in which quantity</text><polygon fill="#181818" points="762,425.8223,772,429.8223,762,433.8223,766,429.8223" style="stroke:#181818;stroke-width:1.0;"/><line style="stroke:#181818;stroke-width:1.0;" x1="101" x2="768" y1="429.8223" y2="429.8223"/><text fill="#000000" font-family="sans-serif" font-size="13" font-weight="bold" lengthAdjust="spacing" textLength="14" x="108" y="424.5596">11</text><text fill="#000000" font-family="sans-serif" font-size="13" lengthAdjust="spacing" textLength="227" x="126" y="424.5596">chooses the skills that he wants to add</text><polygon fill="#181818" points="1172,457.1133,1182,461.1133,1172,465.1133,1176,461.1133" style="stroke:#181818;stroke-width:1.0;"/><line style="stroke:#181818;stroke-width:1.0;" x1="784" x2="1178" y1="461.1133" y2="461.1133"/><text fill="#000000" font-family="sans-serif" font-size="13" font-weight="bold" lengthAdjust="spacing" textLength="14" x="791" y="455.8506">12</text><text fill="#000000" font-family="sans-serif" font-size="13" lengthAdjust="spacing" textLength="363" x="809" y="455.8506">generateTeamProposal(minTeamSize, maxTeamSize, skillList)</text><polygon fill="#181818" points="1399,488.4043,1409,492.4043,1399,496.4043,1403,492.4043" style="stroke:#181818;stroke-width:1.0;"/><line style="stroke:#181818;stroke-width:1.0;" x1="1194" x2="1405" y1="492.4043" y2="492.4043"/><text fill="#000000" font-family="sans-serif" font-size="13" font-weight="bold" lengthAdjust="spacing" textLength="14" x="1201" y="487.1416">13</text><text fill="#000000" font-family="sans-serif" font-size="13" lengthAdjust="spacing" textLength="157" x="1219" y="487.1416">getCollaboratorRepository()</text><polygon fill="#181818" points="1205,519.6953,1195,523.6953,1205,527.6953,1201,523.6953" style="stroke:#181818;stroke-width:1.0;"/><line style="stroke:#181818;stroke-width:1.0;" x1="1199" x2="1415" y1="523.6953" y2="523.6953"/><text fill="#000000" font-family="sans-serif" font-size="13" font-weight="bold" lengthAdjust="spacing" textLength="14" x="1211" y="518.4326">14</text><text fill="#000000" font-family="sans-serif" font-size="13" lengthAdjust="spacing" textLength="175" x="1229" y="518.4326">returns CollaboratorRepository</text><polygon fill="#181818" points="1660.5,550.9863,1670.5,554.9863,1660.5,558.9863,1664.5,554.9863" style="stroke:#181818;stroke-width:1.0;"/><line style="stroke:#181818;stroke-width:1.0;" x1="1194" x2="1666.5" y1="554.9863" y2="554.9863"/><text fill="#000000" font-family="sans-serif" font-size="13" font-weight="bold" lengthAdjust="spacing" textLength="14" x="1201" y="549.7236">15</text><text fill="#000000" font-family="sans-serif" font-size="13" lengthAdjust="spacing" textLength="102" x="1219" y="549.7236">getCollaborators()</text><polygon fill="#181818" points="1205,582.2773,1195,586.2773,1205,590.2773,1201,586.2773" style="stroke:#181818;stroke-width:1.0;"/><line style="stroke:#181818;stroke-width:1.0;" x1="1199" x2="1676.5" y1="586.2773" y2="586.2773"/><text fill="#000000" font-family="sans-serif" font-size="13" font-weight="bold" lengthAdjust="spacing" textLength="14" x="1211" y="581.0146">16</text><text fill="#000000" font-family="sans-serif" font-size="13" lengthAdjust="spacing" textLength="118" x="1229" y="581.0146">returns collaborators</text><line style="stroke:#181818;stroke-width:1.0;" x1="1194" x2="1236" y1="617.5684" y2="617.5684"/><line style="stroke:#181818;stroke-width:1.0;" x1="1236" x2="1236" y1="617.5684" y2="630.5684"/><line style="stroke:#181818;stroke-width:1.0;" x1="1195" x2="1236" y1="630.5684" y2="630.5684"/><polygon fill="#181818" points="1205,626.5684,1195,630.5684,1205,634.5684,1201,630.5684" style="stroke:#181818;stroke-width:1.0;"/><text fill="#000000" font-family="sans-serif" font-size="13" font-weight="bold" lengthAdjust="spacing" textLength="14" x="1201" y="612.3057">17</text><text fill="#000000" font-family="sans-serif" font-size="13" lengthAdjust="spacing" textLength="97" x="1219" y="612.3057">generateTeams()</text><path d="M10,645.5684 L71,645.5684 L71,654.8594 L61,664.8594 L10,664.8594 L10,645.5684 " fill="#EEEEEE" style="stroke:#000000;stroke-width:1.5;"/><rect fill="none" height="286.25" style="stroke:#000000;stroke-width:1.5;" width="1268" x="10" y="645.5684"/><text fill="#000000" font-family="sans-serif" font-size="13" font-weight="bold" lengthAdjust="spacing" textLength="16" x="25" y="660.5967">alt</text><text fill="#000000" font-family="sans-serif" font-size="11" font-weight="bold" lengthAdjust="spacing" textLength="178" x="86" y="659.4385">[if at least one team is achieved]</text><polygon fill="#181818" points="795,684.1504,785,688.1504,795,692.1504,791,688.1504" style="stroke:#181818;stroke-width:1.0;"/><line style="stroke:#181818;stroke-width:1.0;" x1="789" x2="1183" y1="688.1504" y2="688.1504"/><text fill="#000000" font-family="sans-serif" font-size="13" font-weight="bold" lengthAdjust="spacing" textLength="14" x="801" y="682.8877">18</text><text fill="#000000" font-family="sans-serif" font-size="13" lengthAdjust="spacing" textLength="109" x="819" y="682.8877">return the team list</text><polygon fill="#181818" points="112,715.4414,102,719.4414,112,723.4414,108,719.4414" style="stroke:#181818;stroke-width:1.0;"/><line style="stroke:#181818;stroke-width:1.0;" x1="106" x2="773" y1="719.4414" y2="719.4414"/><text fill="#000000" font-family="sans-serif" font-size="13" font-weight="bold" lengthAdjust="spacing" textLength="14" x="118" y="714.1787">19</text><text fill="#000000" font-family="sans-serif" font-size="13" lengthAdjust="spacing" textLength="341" x="136" y="714.1787">display the team options, and allow the user to choose one</text><polygon fill="#181818" points="762,746.7324,772,750.7324,762,754.7324,766,750.7324" style="stroke:#181818;stroke-width:1.0;"/><line style="stroke:#181818;stroke-width:1.0;" x1="101" x2="768" y1="750.7324" y2="750.7324"/><text fill="#000000" font-family="sans-serif" font-size="13" font-weight="bold" lengthAdjust="spacing" textLength="14" x="108" y="745.4697">20</text><text fill="#000000" font-family="sans-serif" font-size="13" lengthAdjust="spacing" textLength="155" x="126" y="745.4697">the user chooses the team</text><polygon fill="#181818" points="1172,778.0234,1182,782.0234,1172,786.0234,1176,782.0234" style="stroke:#181818;stroke-width:1.0;"/><line style="stroke:#181818;stroke-width:1.0;" x1="784" x2="1178" y1="782.0234" y2="782.0234"/><text fill="#000000" font-family="sans-serif" font-size="13" font-weight="bold" lengthAdjust="spacing" textLength="14" x="791" y="776.7607">21</text><text fill="#000000" font-family="sans-serif" font-size="13" lengthAdjust="spacing" textLength="150" x="809" y="776.7607">startTask(collaboratorList)</text><polygon fill="#181818" points="795,809.3145,785,813.3145,795,817.3145,791,813.3145" style="stroke:#181818;stroke-width:1.0;"/><line style="stroke:#181818;stroke-width:1.0;" x1="789" x2="1183" y1="813.3145" y2="813.3145"/><text fill="#000000" font-family="sans-serif" font-size="13" font-weight="bold" lengthAdjust="spacing" textLength="14" x="801" y="808.0518">22</text><text fill="#000000" font-family="sans-serif" font-size="13" lengthAdjust="spacing" textLength="86" x="819" y="808.0518">return success</text><polygon fill="#181818" points="112,840.6055,102,844.6055,112,848.6055,108,844.6055" style="stroke:#181818;stroke-width:1.0;"/><line style="stroke:#181818;stroke-width:1.0;" x1="106" x2="773" y1="844.6055" y2="844.6055"/><text fill="#000000" font-family="sans-serif" font-size="13" font-weight="bold" lengthAdjust="spacing" textLength="14" x="118" y="839.3428">23</text><text fill="#000000" font-family="sans-serif" font-size="13" lengthAdjust="spacing" textLength="101" x="136" y="839.3428">displays success</text><line style="stroke:#000000;stroke-width:1.0;stroke-dasharray:2.0,2.0;" x1="10" x2="1278" y1="853.6055" y2="853.6055"/><text fill="#000000" font-family="sans-serif" font-size="11" font-weight="bold" lengthAdjust="spacing" textLength="128" x="15" y="865.4756">[if no team is achieved]</text><polygon fill="#181818" points="795,888.5273,785,892.5273,795,896.5273,791,892.5273" style="stroke:#181818;stroke-width:1.0;"/><line style="stroke:#181818;stroke-width:1.0;" x1="789" x2="1183" y1="892.5273" y2="892.5273"/><text fill="#000000" font-family="sans-serif" font-size="13" font-weight="bold" lengthAdjust="spacing" textLength="14" x="801" y="887.2646">24</text><text fill="#000000" font-family="sans-serif" font-size="13" lengthAdjust="spacing" textLength="219" x="819" y="887.2646">return error that no team was possible</text><polygon fill="#181818" points="112,919.8184,102,923.8184,112,927.8184,108,923.8184" style="stroke:#181818;stroke-width:1.0;"/><line style="stroke:#181818;stroke-width:1.0;" x1="106" x2="773" y1="923.8184" y2="923.8184"/><text fill="#000000" font-family="sans-serif" font-size="13" font-weight="bold" lengthAdjust="spacing" textLength="14" x="118" y="918.5557">25</text><text fill="#000000" font-family="sans-serif" font-size="13" lengthAdjust="spacing" textLength="93" x="136" y="918.5557">display the error</text><!--SRC=[hLRDRjim3BxdAOYUEg1x0Hy63Dqm5EYmeKrlkwWs6mkH9LUKuwLFFqfER5csaxIOBx4eykFlnvYsKjV2YWegeqrUMbCXEDlWYlgRMkHRiS57jrS85dCdz4R52bIAmhHIR-15ACBLIZJEwAPwHillkJCMhdxPZT3oJJXfD7olQcNsY5SW2Bv- -xbY72TpMGlju2hxWHgjSBX6KVssfZOarDDTK7wwItGVjrAfMwETDKgX3KgTRFrmd-ZUiefuDWnjR68okffOFY378FbA8cL_T7mCra4mDWanz8fxjaeaGwI3R0mHnpH2ch-Ov17X-Yx87PSqL1luuL_u_8Nh2HdRRGcSWSsXxY30eM_yeVR1e4VW5i3XOMl6OAWCAgbbrLGWT06L-1lU0mZ9Dmm61QOGSGojbGuvYjAFs6iZBHQm4wf1MfrnttSxumHSEDrBSjUVUhtUTXWCY9vUwj52qGQaeOOHtWYpwpqaJv0cqLbqZTNJfiTsKP6cmAD0qm7hGwQbI4_vxU67-uNeAVXO2lgKZr7uJtUBa2bSQDZSp55fscvas1_9PrvF7HIyyChnyZ21VYIx4MT9GsZzhEUbCOJGbZ8lmMW4lckPTXJKfJxSl3Oiasv_ReAp0s3dv125AuKRSDcfA8fpqvmkegndPRmDhvbk_lp8vBhnV1iET2J0pFnFjbpSdlHop8RvnV91KaoJF8x2mlwwc29pIIpiqJIhHTvS45FgUioYvNJpsFzIbXVuFvVsT99yjcaAGZcGBy13gr2G2xG839BCYhoKkCDYalQI-u7W0nCLZ-KiG4JgGbAjn7umChN_Pg2RZiTAcNQEo1phB7B4qC4ivghtSIAcQHN9yP_qcXVATTozCUFUKHngyXo9BYmBBUaZVtZvvcdpNrg6reOLohDmH6pvy-AuPz_Jn00rCK1ThCxCUh-XnditElcFcNy0]--></g></svg>