<?xml version="1.0" encoding="us-ascii" standalone="no"?><svg xmlns="http://www.w3.org/2000/svg" xmlns:xlink="http://www.w3.org/1999/xlink" contentStyleType="text/css" height="441px" preserveAspectRatio="none" style="width:1371px;height:441px;background:#FFFFFF;" version="1.1" viewBox="0 0 1371 441" width="1371px" zoomAndPan="magnify"><defs/><g><text fill="#000000" font-family="Verdana" font-size="22" font-weight="bold" lengthAdjust="spacing" textLength="1204" x="87.5" y="37.1182">System Sequence Diagram (SSD) - Alternative Two - "Not enough collaborators to form a team"</text><line style="stroke:#000000;stroke-width:1.0;" x1="28" x2="28" y1="130.752" y2="359.3472"/><line style="stroke:#000000;stroke-width:1.0;" x1="286" x2="286" y1="130.752" y2="359.3472"/><line style="stroke:#000000;stroke-width:1.0;" x1="656" x2="656" y1="130.752" y2="359.3472"/><line style="stroke:#000000;stroke-width:1.0;" x1="947" x2="947" y1="130.752" y2="359.3472"/><line style="stroke:#000000;stroke-width:1.0;" x1="1059" x2="1059" y1="130.752" y2="359.3472"/><line style="stroke:#000000;stroke-width:1.0;" x1="1247" x2="1247" y1="130.752" y2="359.3472"/><text fill="#000000" font-family="Verdana" font-size="14" lengthAdjust="spacing" textLength="31" x="10" y="127.8125">HRM</text><ellipse cx="28.5" cy="61.7373" fill="#FFFFFF" rx="8" ry="8" style="stroke:#000000;stroke-width:1.0;"/><path d="M28.5,69.7373 L28.5,96.7373 M15.5,77.7373 L41.5,77.7373 M28.5,96.7373 L15.5,111.7373 M28.5,96.7373 L41.5,111.7373 " fill="none" style="stroke:#000000;stroke-width:1.0;"/><text fill="#000000" font-family="Verdana" font-size="14" lengthAdjust="spacing" textLength="31" x="10" y="372.4224">HRM</text><ellipse cx="28.5" cy="384.3618" fill="#FFFFFF" rx="8" ry="8" style="stroke:#000000;stroke-width:1.0;"/><path d="M28.5,392.3618 L28.5,419.3618 M15.5,400.3618 L41.5,400.3618 M28.5,419.3618 L15.5,434.3618 M28.5,419.3618 L41.5,434.3618 " fill="none" style="stroke:#000000;stroke-width:1.0;"/><text fill="#000000" font-family="Verdana" font-size="14" lengthAdjust="spacing" textLength="51" x="258" y="127.8125">HRM UI</text><ellipse cx="286.5" cy="97.7373" fill="#FFFFFF" rx="12" ry="12" style="stroke:#000000;stroke-width:1.0;"/><line style="stroke:#000000;stroke-width:1.0;" x1="274.5" x2="298.5" y1="111.7373" y2="111.7373"/><text fill="#000000" font-family="Verdana" font-size="14" lengthAdjust="spacing" textLength="51" x="258" y="372.4224">HRM UI</text><ellipse cx="286.5" cy="391.3618" fill="#FFFFFF" rx="12" ry="12" style="stroke:#000000;stroke-width:1.0;"/><line style="stroke:#000000;stroke-width:1.0;" x1="274.5" x2="298.5" y1="405.3618" y2="405.3618"/><text fill="#000000" font-family="Verdana" font-size="14" lengthAdjust="spacing" textLength="105" x="601" y="127.8125">HRM Controller</text><ellipse cx="656.5" cy="97.7373" fill="#FFFFFF" rx="12" ry="12" style="stroke:#000000;stroke-width:1.0;"/><line style="stroke:#000000;stroke-width:1.0;" x1="644.5" x2="668.5" y1="111.7373" y2="111.7373"/><text fill="#000000" font-family="Verdana" font-size="14" lengthAdjust="spacing" textLength="105" x="601" y="372.4224">HRM Controller</text><ellipse cx="656.5" cy="391.3618" fill="#FFFFFF" rx="12" ry="12" style="stroke:#000000;stroke-width:1.0;"/><line style="stroke:#000000;stroke-width:1.0;" x1="644.5" x2="668.5" y1="405.3618" y2="405.3618"/><text fill="#000000" font-family="Verdana" font-size="14" lengthAdjust="spacing" textLength="89" x="900" y="127.8125">Organization</text><ellipse cx="947.5" cy="97.7373" fill="#FFFFFF" rx="12" ry="12" style="stroke:#000000;stroke-width:1.0;"/><line style="stroke:#000000;stroke-width:1.0;" x1="935.5" x2="959.5" y1="111.7373" y2="111.7373"/><text fill="#000000" font-family="Verdana" font-size="14" lengthAdjust="spacing" textLength="89" x="900" y="372.4224">Organization</text><ellipse cx="947.5" cy="391.3618" fill="#FFFFFF" rx="12" ry="12" style="stroke:#000000;stroke-width:1.0;"/><line style="stroke:#000000;stroke-width:1.0;" x1="935.5" x2="959.5" y1="405.3618" y2="405.3618"/><text fill="#000000" font-family="Verdana" font-size="14" lengthAdjust="spacing" textLength="103" x="1005" y="127.8125">Team Proposal</text><ellipse cx="1059.5" cy="97.7373" fill="#FFFFFF" rx="12" ry="12" style="stroke:#000000;stroke-width:1.0;"/><line style="stroke:#000000;stroke-width:1.0;" x1="1047.5" x2="1071.5" y1="111.7373" y2="111.7373"/><text fill="#000000" font-family="Verdana" font-size="14" lengthAdjust="spacing" textLength="103" x="1005" y="372.4224">Team Proposal</text><ellipse cx="1059.5" cy="391.3618" fill="#FFFFFF" rx="12" ry="12" style="stroke:#000000;stroke-width:1.0;"/><line style="stroke:#000000;stroke-width:1.0;" x1="1047.5" x2="1071.5" y1="405.3618" y2="405.3618"/><text fill="#000000" font-family="Verdana" font-size="14" lengthAdjust="spacing" textLength="240" x="1124" y="127.8125">InsufficientCollaboratorsException</text><ellipse cx="1247" cy="97.7373" fill="#FFFFFF" rx="12" ry="12" style="stroke:#000000;stroke-width:1.0;"/><line style="stroke:#000000;stroke-width:1.0;" x1="1235" x2="1259" y1="111.7373" y2="111.7373"/><text fill="#000000" font-family="Verdana" font-size="14" lengthAdjust="spacing" textLength="240" x="1124" y="372.4224">InsufficientCollaboratorsException</text><ellipse cx="1247" cy="391.3618" fill="#FFFFFF" rx="12" ry="12" style="stroke:#000000;stroke-width:1.0;"/><line style="stroke:#000000;stroke-width:1.0;" x1="1235" x2="1259" y1="405.3618" y2="405.3618"/><polygon fill="#000000" points="274.5,158.5513,284.5,162.5513,274.5,166.5513,278.5,162.5513" style="stroke:#000000;stroke-width:1.0;"/><line style="stroke:#000000;stroke-width:1.0;" x1="28.5" x2="280.5" y1="162.5513" y2="162.5513"/><text fill="#000000" font-family="Verdana" font-size="13" lengthAdjust="spacing" textLength="234" x="35.5" y="157.8218">Request to generate team proposal</text><polygon fill="#000000" points="644.5,188.3506,654.5,192.3506,644.5,196.3506,648.5,192.3506" style="stroke:#000000;stroke-width:1.0;"/><line style="stroke:#000000;stroke-width:1.0;" x1="286.5" x2="650.5" y1="192.3506" y2="192.3506"/><text fill="#000000" font-family="Verdana" font-size="13" lengthAdjust="spacing" textLength="346" x="293.5" y="187.6211">generateTeamProposal(maxTeamSize, requiredSkills)</text><polygon fill="#000000" points="935.5,218.1499,945.5,222.1499,935.5,226.1499,939.5,222.1499" style="stroke:#000000;stroke-width:1.0;"/><line style="stroke:#000000;stroke-width:1.0;" x1="656.5" x2="941.5" y1="222.1499" y2="222.1499"/><text fill="#000000" font-family="Verdana" font-size="13" lengthAdjust="spacing" textLength="267" x="663.5" y="217.4204">getCollaboratorsWithSkills(requiredSkills)</text><polygon fill="#000000" points="667.5,247.9492,657.5,251.9492,667.5,255.9492,663.5,251.9492" style="stroke:#000000;stroke-width:1.0;"/><line style="stroke:#000000;stroke-width:1.0;stroke-dasharray:2.0,2.0;" x1="661.5" x2="946.5" y1="251.9492" y2="251.9492"/><text fill="#000000" font-family="Verdana" font-size="13" lengthAdjust="spacing" textLength="85" x="673.5" y="247.2197">collaborators</text><polygon fill="#000000" points="1235,277.7485,1245,281.7485,1235,285.7485,1239,281.7485" style="stroke:#000000;stroke-width:1.0;"/><line style="stroke:#000000;stroke-width:1.0;" x1="656.5" x2="1241" y1="281.7485" y2="281.7485"/><text fill="#000000" font-family="Verdana" font-size="13" lengthAdjust="spacing" textLength="210" x="663.5" y="277.019">throwInsufficientCollaborators()</text><polygon fill="#000000" points="297.5,307.5479,287.5,311.5479,297.5,315.5479,293.5,311.5479" style="stroke:#000000;stroke-width:1.0;"/><line style="stroke:#000000;stroke-width:1.0;stroke-dasharray:2.0,2.0;" x1="291.5" x2="1246" y1="311.5479" y2="311.5479"/><text fill="#000000" font-family="Verdana" font-size="13" lengthAdjust="spacing" textLength="357" x="303.5" y="306.8184">showError("Not enough collaborators to form a team")</text><polygon fill="#000000" points="39.5,337.3472,29.5,341.3472,39.5,345.3472,35.5,341.3472" style="stroke:#000000;stroke-width:1.0;"/><line style="stroke:#000000;stroke-width:1.0;stroke-dasharray:2.0,2.0;" x1="33.5" x2="285.5" y1="341.3472" y2="341.3472"/><text fill="#000000" font-family="Verdana" font-size="13" lengthAdjust="spacing" textLength="144" x="45.5" y="336.6177">Display error message</text><!--SRC=[ZLBBJiGm3BpdAqnFhKH_O0z8Q7SbUk2XxIBEeNZRY2GkJfPzV3rEKRiF2ObJu_5uF7Pz4pjq2BtLnYiLJRG8zI54T53ZrnPzWx0mkcNj8A_hHG4btDk8x7KqtmZh7GcIFL44zBHjEsZ8MlrEh2DnW4Ym8NQW8Q9scLAw4HmULeyAlRGxG2PlUAqoq44-5-YSV6IHGnwoft1YFNEhlJcA5_83Hu0fkPQEyCBKKz1so8x1HAbys6usfZ42pC-DB_SDzfDgDLygbHoLT-8HPh1AkmanZTUYHwd1OK3enmv24_B9iXIDpEHhT98xlKznROvu2oooXl6Z_ZJMXaATbOkOp3QeN3fzCx7xvUVNvQcWl7PnyN-kEiYSmeWTq-xFpUI5IhHoN4NeQBTa9ix_VGN5i1qHI2kToNq5kRy3O581Xo7e5jKF]--></g></svg>