<?xml version="1.0" encoding="us-ascii" standalone="no"?><svg xmlns="http://www.w3.org/2000/svg" xmlns:xlink="http://www.w3.org/1999/xlink" contentStyleType="text/css" height="471px" preserveAspectRatio="none" style="width:1125px;height:471px;background:#FFFFFF;" version="1.1" viewBox="0 0 1125 471" width="1125px" zoomAndPan="magnify"><defs/><g><text fill="#000000" font-family="Verdana" font-size="22" font-weight="bold" lengthAdjust="spacing" textLength="639" x="247" y="37.1182">System Sequence Diagram (SSD) - Alternative One</text><line style="stroke:#000000;stroke-width:1.0;" x1="28" x2="28" y1="130.752" y2="389.1465"/><line style="stroke:#000000;stroke-width:1.0;" x1="286" x2="286" y1="130.752" y2="389.1465"/><line style="stroke:#000000;stroke-width:1.0;" x1="656" x2="656" y1="130.752" y2="389.1465"/><line style="stroke:#000000;stroke-width:1.0;" x1="947" x2="947" y1="130.752" y2="389.1465"/><line style="stroke:#000000;stroke-width:1.0;" x1="1069" x2="1069" y1="130.752" y2="389.1465"/><text fill="#000000" font-family="Verdana" font-size="14" lengthAdjust="spacing" textLength="31" x="10" y="127.8125">HRM</text><ellipse cx="28.5" cy="61.7373" fill="#FFFFFF" rx="8" ry="8" style="stroke:#000000;stroke-width:1.0;"/><path d="M28.5,69.7373 L28.5,96.7373 M15.5,77.7373 L41.5,77.7373 M28.5,96.7373 L15.5,111.7373 M28.5,96.7373 L41.5,111.7373 " fill="none" style="stroke:#000000;stroke-width:1.0;"/><text fill="#000000" font-family="Verdana" font-size="14" lengthAdjust="spacing" textLength="31" x="10" y="402.2217">HRM</text><ellipse cx="28.5" cy="414.1611" fill="#FFFFFF" rx="8" ry="8" style="stroke:#000000;stroke-width:1.0;"/><path d="M28.5,422.1611 L28.5,449.1611 M15.5,430.1611 L41.5,430.1611 M28.5,449.1611 L15.5,464.1611 M28.5,449.1611 L41.5,464.1611 " fill="none" style="stroke:#000000;stroke-width:1.0;"/><text fill="#000000" font-family="Verdana" font-size="14" lengthAdjust="spacing" textLength="51" x="258" y="127.8125">HRM UI</text><ellipse cx="286.5" cy="97.7373" fill="#FFFFFF" rx="12" ry="12" style="stroke:#000000;stroke-width:1.0;"/><line style="stroke:#000000;stroke-width:1.0;" x1="274.5" x2="298.5" y1="111.7373" y2="111.7373"/><text fill="#000000" font-family="Verdana" font-size="14" lengthAdjust="spacing" textLength="51" x="258" y="402.2217">HRM UI</text><ellipse cx="286.5" cy="421.1611" fill="#FFFFFF" rx="12" ry="12" style="stroke:#000000;stroke-width:1.0;"/><line style="stroke:#000000;stroke-width:1.0;" x1="274.5" x2="298.5" y1="435.1611" y2="435.1611"/><text fill="#000000" font-family="Verdana" font-size="14" lengthAdjust="spacing" textLength="105" x="601" y="127.8125">HRM Controller</text><ellipse cx="656.5" cy="97.7373" fill="#FFFFFF" rx="12" ry="12" style="stroke:#000000;stroke-width:1.0;"/><line style="stroke:#000000;stroke-width:1.0;" x1="644.5" x2="668.5" y1="111.7373" y2="111.7373"/><text fill="#000000" font-family="Verdana" font-size="14" lengthAdjust="spacing" textLength="105" x="601" y="402.2217">HRM Controller</text><ellipse cx="656.5" cy="421.1611" fill="#FFFFFF" rx="12" ry="12" style="stroke:#000000;stroke-width:1.0;"/><line style="stroke:#000000;stroke-width:1.0;" x1="644.5" x2="668.5" y1="435.1611" y2="435.1611"/><text fill="#000000" font-family="Verdana" font-size="14" lengthAdjust="spacing" textLength="89" x="900" y="127.8125">Organization</text><ellipse cx="947.5" cy="97.7373" fill="#FFFFFF" rx="12" ry="12" style="stroke:#000000;stroke-width:1.0;"/><line style="stroke:#000000;stroke-width:1.0;" x1="935.5" x2="959.5" y1="111.7373" y2="111.7373"/><text fill="#000000" font-family="Verdana" font-size="14" lengthAdjust="spacing" textLength="89" x="900" y="402.2217">Organization</text><ellipse cx="947.5" cy="421.1611" fill="#FFFFFF" rx="12" ry="12" style="stroke:#000000;stroke-width:1.0;"/><line style="stroke:#000000;stroke-width:1.0;" x1="935.5" x2="959.5" y1="435.1611" y2="435.1611"/><text fill="#000000" font-family="Verdana" font-size="14" lengthAdjust="spacing" textLength="103" x="1015" y="127.8125">Team Proposal</text><ellipse cx="1069.5" cy="97.7373" fill="#FFFFFF" rx="12" ry="12" style="stroke:#000000;stroke-width:1.0;"/><line style="stroke:#000000;stroke-width:1.0;" x1="1057.5" x2="1081.5" y1="111.7373" y2="111.7373"/><text fill="#000000" font-family="Verdana" font-size="14" lengthAdjust="spacing" textLength="103" x="1015" y="402.2217">Team Proposal</text><ellipse cx="1069.5" cy="421.1611" fill="#FFFFFF" rx="12" ry="12" style="stroke:#000000;stroke-width:1.0;"/><line style="stroke:#000000;stroke-width:1.0;" x1="1057.5" x2="1081.5" y1="435.1611" y2="435.1611"/><polygon fill="#000000" points="274.5,158.5513,284.5,162.5513,274.5,166.5513,278.5,162.5513" style="stroke:#000000;stroke-width:1.0;"/><line style="stroke:#000000;stroke-width:1.0;" x1="28.5" x2="280.5" y1="162.5513" y2="162.5513"/><text fill="#000000" font-family="Verdana" font-size="13" lengthAdjust="spacing" textLength="234" x="35.5" y="157.8218">Request to generate team proposal</text><polygon fill="#000000" points="644.5,188.3506,654.5,192.3506,644.5,196.3506,648.5,192.3506" style="stroke:#000000;stroke-width:1.0;"/><line style="stroke:#000000;stroke-width:1.0;" x1="286.5" x2="650.5" y1="192.3506" y2="192.3506"/><text fill="#000000" font-family="Verdana" font-size="13" lengthAdjust="spacing" textLength="346" x="293.5" y="187.6211">generateTeamProposal(maxTeamSize, requiredSkills)</text><polygon fill="#000000" points="935.5,218.1499,945.5,222.1499,935.5,226.1499,939.5,222.1499" style="stroke:#000000;stroke-width:1.0;"/><line style="stroke:#000000;stroke-width:1.0;" x1="656.5" x2="941.5" y1="222.1499" y2="222.1499"/><text fill="#000000" font-family="Verdana" font-size="13" lengthAdjust="spacing" textLength="267" x="663.5" y="217.4204">getCollaboratorsWithSkills(requiredSkills)</text><polygon fill="#000000" points="667.5,247.9492,657.5,251.9492,667.5,255.9492,663.5,251.9492" style="stroke:#000000;stroke-width:1.0;"/><line style="stroke:#000000;stroke-width:1.0;stroke-dasharray:2.0,2.0;" x1="661.5" x2="946.5" y1="251.9492" y2="251.9492"/><text fill="#000000" font-family="Verdana" font-size="13" lengthAdjust="spacing" textLength="85" x="673.5" y="247.2197">collaborators</text><polygon fill="#000000" points="1057.5,277.7485,1067.5,281.7485,1057.5,285.7485,1061.5,281.7485" style="stroke:#000000;stroke-width:1.0;"/><line style="stroke:#000000;stroke-width:1.0;" x1="656.5" x2="1063.5" y1="281.7485" y2="281.7485"/><text fill="#000000" font-family="Verdana" font-size="13" lengthAdjust="spacing" textLength="389" x="663.5" y="277.019">createProposal(collaborators, maxTeamSize, minTeamSize)</text><polygon fill="#000000" points="667.5,307.5479,657.5,311.5479,667.5,315.5479,663.5,311.5479" style="stroke:#000000;stroke-width:1.0;"/><line style="stroke:#000000;stroke-width:1.0;stroke-dasharray:2.0,2.0;" x1="661.5" x2="1068.5" y1="311.5479" y2="311.5479"/><text fill="#000000" font-family="Verdana" font-size="13" lengthAdjust="spacing" textLength="88" x="673.5" y="306.8184">teamProposal</text><polygon fill="#000000" points="297.5,337.3472,287.5,341.3472,297.5,345.3472,293.5,341.3472" style="stroke:#000000;stroke-width:1.0;"/><line style="stroke:#000000;stroke-width:1.0;stroke-dasharray:2.0,2.0;" x1="291.5" x2="655.5" y1="341.3472" y2="341.3472"/><text fill="#000000" font-family="Verdana" font-size="13" lengthAdjust="spacing" textLength="88" x="303.5" y="336.6177">teamProposal</text><polygon fill="#000000" points="39.5,367.1465,29.5,371.1465,39.5,375.1465,35.5,371.1465" style="stroke:#000000;stroke-width:1.0;"/><line style="stroke:#000000;stroke-width:1.0;stroke-dasharray:2.0,2.0;" x1="33.5" x2="285.5" y1="371.1465" y2="371.1465"/><text fill="#000000" font-family="Verdana" font-size="13" lengthAdjust="spacing" textLength="134" x="45.5" y="366.417">Show team proposal</text><!--SRC=[PL3DJiCm3BxdASnEhRI-m0v8Q3l00Gqj8CwXM6sqDEaS3zYU7gSeNLjEhVtzndVSOeVGEsEzKcpP8UXBPEn0u-cClaROMTEGwQ3GUbT21G-EaRnX-uMmzwYKgJaGF1wU5NgnkC1A_k7jQGKcocUstGRF59n36j3REBBsr1Xlh-8V_C2HnGY-eXHveT27QDo0va6fP5_TIo1iu93AHmOEqA17Cep0ITjdkj24VCiNKMQca6nRTEOdpTfUSGqajfRmKn-jSx5K4xcOIT71XRUoCXz1l0B5Tylj7xzOofEWMhQef-95GcwLQ8HITQmvKwrXrhgpFW-b6Yt-1VFasRFSVDGP8TrFW7Jq3UWsV2_k-mi0]--></g></svg>