<?xml version="1.0" encoding="us-ascii" standalone="no"?><svg xmlns="http://www.w3.org/2000/svg" xmlns:xlink="http://www.w3.org/1999/xlink" contentStyleType="text/css" height="669px" preserveAspectRatio="none" style="width:1165px;height:669px;background:#FFFFFF;" version="1.1" viewBox="0 0 1165 669" width="1165px" zoomAndPan="magnify"><defs/><g><text fill="#000000" font-family="Verdana" font-size="22" font-weight="bold" lengthAdjust="spacing" textLength="639" x="267" y="37.1182">System Sequence Diagram (SSD) - Alternative One</text><rect fill="#FFFFFF" height="362.9604" style="stroke:#000000;stroke-width:1.0;" width="1144" x="15" y="207.3506"/><rect fill="#FFFFFF" height="211.9639" style="stroke:#000000;stroke-width:1.0;" width="722" x="25" y="351.3472"/><rect fill="#FFFFFF" height="74.9673" style="stroke:none;stroke-width:1.0;" width="722" x="25" y="488.3438"/><line style="stroke:#000000;stroke-width:1.0;" x1="53" x2="53" y1="130.752" y2="587.311"/><line style="stroke:#000000;stroke-width:1.0;" x1="311" x2="311" y1="130.752" y2="587.311"/><line style="stroke:#000000;stroke-width:1.0;" x1="681" x2="681" y1="130.752" y2="587.311"/><line style="stroke:#000000;stroke-width:1.0;" x1="972" x2="972" y1="130.752" y2="587.311"/><line style="stroke:#000000;stroke-width:1.0;" x1="1094" x2="1094" y1="130.752" y2="587.311"/><text fill="#000000" font-family="Verdana" font-size="14" lengthAdjust="spacing" textLength="31" x="35" y="127.8125">HRM</text><ellipse cx="53.5" cy="61.7373" fill="#FFFFFF" rx="8" ry="8" style="stroke:#000000;stroke-width:1.0;"/><path d="M53.5,69.7373 L53.5,96.7373 M40.5,77.7373 L66.5,77.7373 M53.5,96.7373 L40.5,111.7373 M53.5,96.7373 L66.5,111.7373 " fill="none" style="stroke:#000000;stroke-width:1.0;"/><text fill="#000000" font-family="Verdana" font-size="14" lengthAdjust="spacing" textLength="31" x="35" y="600.3862">HRM</text><ellipse cx="53.5" cy="612.3257" fill="#FFFFFF" rx="8" ry="8" style="stroke:#000000;stroke-width:1.0;"/><path d="M53.5,620.3257 L53.5,647.3257 M40.5,628.3257 L66.5,628.3257 M53.5,647.3257 L40.5,662.3257 M53.5,647.3257 L66.5,662.3257 " fill="none" style="stroke:#000000;stroke-width:1.0;"/><text fill="#000000" font-family="Verdana" font-size="14" lengthAdjust="spacing" textLength="51" x="283" y="127.8125">HRM UI</text><ellipse cx="311.5" cy="97.7373" fill="#FFFFFF" rx="12" ry="12" style="stroke:#000000;stroke-width:1.0;"/><line style="stroke:#000000;stroke-width:1.0;" x1="299.5" x2="323.5" y1="111.7373" y2="111.7373"/><text fill="#000000" font-family="Verdana" font-size="14" lengthAdjust="spacing" textLength="51" x="283" y="600.3862">HRM UI</text><ellipse cx="311.5" cy="619.3257" fill="#FFFFFF" rx="12" ry="12" style="stroke:#000000;stroke-width:1.0;"/><line style="stroke:#000000;stroke-width:1.0;" x1="299.5" x2="323.5" y1="633.3257" y2="633.3257"/><text fill="#000000" font-family="Verdana" font-size="14" lengthAdjust="spacing" textLength="105" x="626" y="127.8125">HRM Controller</text><ellipse cx="681.5" cy="97.7373" fill="#FFFFFF" rx="12" ry="12" style="stroke:#000000;stroke-width:1.0;"/><line style="stroke:#000000;stroke-width:1.0;" x1="669.5" x2="693.5" y1="111.7373" y2="111.7373"/><text fill="#000000" font-family="Verdana" font-size="14" lengthAdjust="spacing" textLength="105" x="626" y="600.3862">HRM Controller</text><ellipse cx="681.5" cy="619.3257" fill="#FFFFFF" rx="12" ry="12" style="stroke:#000000;stroke-width:1.0;"/><line style="stroke:#000000;stroke-width:1.0;" x1="669.5" x2="693.5" y1="633.3257" y2="633.3257"/><text fill="#000000" font-family="Verdana" font-size="14" lengthAdjust="spacing" textLength="89" x="925" y="127.8125">Organization</text><ellipse cx="972.5" cy="97.7373" fill="#FFFFFF" rx="12" ry="12" style="stroke:#000000;stroke-width:1.0;"/><line style="stroke:#000000;stroke-width:1.0;" x1="960.5" x2="984.5" y1="111.7373" y2="111.7373"/><text fill="#000000" font-family="Verdana" font-size="14" lengthAdjust="spacing" textLength="89" x="925" y="600.3862">Organization</text><ellipse cx="972.5" cy="619.3257" fill="#FFFFFF" rx="12" ry="12" style="stroke:#000000;stroke-width:1.0;"/><line style="stroke:#000000;stroke-width:1.0;" x1="960.5" x2="984.5" y1="633.3257" y2="633.3257"/><text fill="#000000" font-family="Verdana" font-size="14" lengthAdjust="spacing" textLength="103" x="1040" y="127.8125">Team Proposal</text><ellipse cx="1094.5" cy="97.7373" fill="#FFFFFF" rx="12" ry="12" style="stroke:#000000;stroke-width:1.0;"/><line style="stroke:#000000;stroke-width:1.0;" x1="1082.5" x2="1106.5" y1="111.7373" y2="111.7373"/><text fill="#000000" font-family="Verdana" font-size="14" lengthAdjust="spacing" textLength="103" x="1040" y="600.3862">Team Proposal</text><ellipse cx="1094.5" cy="619.3257" fill="#FFFFFF" rx="12" ry="12" style="stroke:#000000;stroke-width:1.0;"/><line style="stroke:#000000;stroke-width:1.0;" x1="1082.5" x2="1106.5" y1="633.3257" y2="633.3257"/><polygon fill="#000000" points="299.5,158.5513,309.5,162.5513,299.5,166.5513,303.5,162.5513" style="stroke:#000000;stroke-width:1.0;"/><line style="stroke:#000000;stroke-width:1.0;" x1="53.5" x2="305.5" y1="162.5513" y2="162.5513"/><text fill="#000000" font-family="Verdana" font-size="13" lengthAdjust="spacing" textLength="234" x="60.5" y="157.8218">Request to generate team proposal</text><polygon fill="#000000" points="669.5,188.3506,679.5,192.3506,669.5,196.3506,673.5,192.3506" style="stroke:#000000;stroke-width:1.0;"/><line style="stroke:#000000;stroke-width:1.0;" x1="311.5" x2="675.5" y1="192.3506" y2="192.3506"/><text fill="#000000" font-family="Verdana" font-size="13" lengthAdjust="spacing" textLength="346" x="318.5" y="187.6211">generateTeamProposal(maxTeamSize, requiredSkills)</text><path d="M15,207.3506 L91,207.3506 L91,215.1499 L81,225.1499 L15,225.1499 L15,207.3506 " fill="#FFFFFF" style="stroke:#000000;stroke-width:1.0;"/><rect fill="none" height="362.9604" style="stroke:#000000;stroke-width:1.0;" width="1144" x="15" y="207.3506"/><text fill="#000000" font-family="Verdana" font-size="13" font-weight="bold" lengthAdjust="spacing" textLength="31" x="30" y="221.4204">loop</text><text fill="#000000" font-family="Verdana" font-size="11" font-weight="bold" lengthAdjust="spacing" textLength="110" x="106" y="220.4097">[until valid data]</text><polygon fill="#000000" points="960.5,242.9492,970.5,246.9492,960.5,250.9492,964.5,246.9492" style="stroke:#000000;stroke-width:1.0;"/><line style="stroke:#000000;stroke-width:1.0;" x1="681.5" x2="966.5" y1="246.9492" y2="246.9492"/><text fill="#000000" font-family="Verdana" font-size="13" lengthAdjust="spacing" textLength="267" x="688.5" y="242.2197">getCollaboratorsWithSkills(requiredSkills)</text><polygon fill="#000000" points="692.5,272.7485,682.5,276.7485,692.5,280.7485,688.5,276.7485" style="stroke:#000000;stroke-width:1.0;"/><line style="stroke:#000000;stroke-width:1.0;stroke-dasharray:2.0,2.0;" x1="686.5" x2="971.5" y1="276.7485" y2="276.7485"/><text fill="#000000" font-family="Verdana" font-size="13" lengthAdjust="spacing" textLength="85" x="698.5" y="272.019">collaborators</text><polygon fill="#000000" points="1082.5,302.5479,1092.5,306.5479,1082.5,310.5479,1086.5,306.5479" style="stroke:#000000;stroke-width:1.0;"/><line style="stroke:#000000;stroke-width:1.0;" x1="681.5" x2="1088.5" y1="306.5479" y2="306.5479"/><text fill="#000000" font-family="Verdana" font-size="13" lengthAdjust="spacing" textLength="389" x="688.5" y="301.8184">createProposal(collaborators, maxTeamSize, minTeamSize)</text><polygon fill="#000000" points="692.5,332.3472,682.5,336.3472,692.5,340.3472,688.5,336.3472" style="stroke:#000000;stroke-width:1.0;"/><line style="stroke:#000000;stroke-width:1.0;stroke-dasharray:2.0,2.0;" x1="686.5" x2="1093.5" y1="336.3472" y2="336.3472"/><text fill="#000000" font-family="Verdana" font-size="13" lengthAdjust="spacing" textLength="88" x="698.5" y="331.6177">teamProposal</text><path d="M25,351.3472 L89,351.3472 L89,359.1465 L79,369.1465 L25,369.1465 L25,351.3472 " fill="#FFFFFF" style="stroke:#000000;stroke-width:1.0;"/><rect fill="none" height="211.9639" style="stroke:#000000;stroke-width:1.0;" width="722" x="25" y="351.3472"/><text fill="#000000" font-family="Verdana" font-size="13" font-weight="bold" lengthAdjust="spacing" textLength="19" x="40" y="365.417">alt</text><text fill="#000000" font-family="Verdana" font-size="11" font-weight="bold" lengthAdjust="spacing" textLength="104" x="104" y="364.4063">[data is invalid]</text><polygon fill="#000000" points="322.5,386.9458,312.5,390.9458,322.5,394.9458,318.5,390.9458" style="stroke:#000000;stroke-width:1.0;"/><line style="stroke:#000000;stroke-width:1.0;stroke-dasharray:2.0,2.0;" x1="316.5" x2="680.5" y1="390.9458" y2="390.9458"/><text fill="#000000" font-family="Verdana" font-size="13" lengthAdjust="spacing" textLength="153" x="328.5" y="386.2163">request additional data</text><polygon fill="#000000" points="64.5,416.7451,54.5,420.7451,64.5,424.7451,60.5,420.7451" style="stroke:#000000;stroke-width:1.0;"/><line style="stroke:#000000;stroke-width:1.0;stroke-dasharray:2.0,2.0;" x1="58.5" x2="310.5" y1="420.7451" y2="420.7451"/><text fill="#000000" font-family="Verdana" font-size="13" lengthAdjust="spacing" textLength="153" x="70.5" y="416.0156">request additional data</text><polygon fill="#000000" points="299.5,446.5444,309.5,450.5444,299.5,454.5444,303.5,450.5444" style="stroke:#000000;stroke-width:1.0;"/><line style="stroke:#000000;stroke-width:1.0;" x1="53.5" x2="305.5" y1="450.5444" y2="450.5444"/><text fill="#000000" font-family="Verdana" font-size="13" lengthAdjust="spacing" textLength="151" x="60.5" y="445.8149">provide additional data</text><polygon fill="#000000" points="669.5,476.3438,679.5,480.3438,669.5,484.3438,673.5,480.3438" style="stroke:#000000;stroke-width:1.0;"/><line style="stroke:#000000;stroke-width:1.0;" x1="311.5" x2="675.5" y1="480.3438" y2="480.3438"/><text fill="#000000" font-family="Verdana" font-size="13" lengthAdjust="spacing" textLength="159" x="318.5" y="475.6143">additional data provided</text><line style="stroke:#000000;stroke-width:1.0;stroke-dasharray:2.0,2.0;" x1="25" x2="747" y1="489.3438" y2="489.3438"/><text fill="#000000" font-family="Verdana" font-size="11" font-weight="bold" lengthAdjust="spacing" textLength="92" x="30" y="500.4028">[data is valid]</text><polygon fill="#000000" points="322.5,521.5117,312.5,525.5117,322.5,529.5117,318.5,525.5117" style="stroke:#000000;stroke-width:1.0;"/><line style="stroke:#000000;stroke-width:1.0;stroke-dasharray:2.0,2.0;" x1="316.5" x2="680.5" y1="525.5117" y2="525.5117"/><text fill="#000000" font-family="Verdana" font-size="13" lengthAdjust="spacing" textLength="88" x="328.5" y="520.7822">teamProposal</text><polygon fill="#000000" points="64.5,551.311,54.5,555.311,64.5,559.311,60.5,555.311" style="stroke:#000000;stroke-width:1.0;"/><line style="stroke:#000000;stroke-width:1.0;stroke-dasharray:2.0,2.0;" x1="58.5" x2="310.5" y1="555.311" y2="555.311"/><text fill="#000000" font-family="Verdana" font-size="13" lengthAdjust="spacing" textLength="134" x="70.5" y="550.5815">Show team proposal</text><!--SRC=[XLB1Ri8m3BtdApnE8C4Fx31fWiDsc9ZeffqzQe6rDEaImmPVFoSi1Seq8bMjdUVt_EpUo9eQWjOYEsE4nH9KkoZKG4MV6t9BWXdZAc03mwgQZM02zrOeE1JU4imT6ODByG4U5a-6d5BiOA3VyFeu08pwEijElPFWhQMGRuzXXvg75JhUAxzt6QE9xlA5j97du5iVqURR4XYJw2TtAWYti4ZDHm7ni2970OL0KcrRu0fJy55VYmeoYHJQOOFVAQvuJsC8Iik1wkg3hOqZOwptBMoqEGjRj5n3ZO86z9mmguvwo08orHI-UvNn8Rwnh0zKmpvpeaX5atwJorE2FvHAumaQIDrqJiugnt1ch65NWeDsHtFHW9nC9qFHIhOD785T7aFEztihkmc_ky6wvhHa5UccbaxQZ6BJEg-3JvUkkzroJVyIzypqe8NYO81ifCxPTLyNWxamKwtzL-ytp3gkDkdv0G00]--></g></svg>