<?xml version="1.0" encoding="us-ascii" standalone="no"?><svg xmlns="http://www.w3.org/2000/svg" xmlns:xlink="http://www.w3.org/1999/xlink" contentStyleType="text/css" height="471px" preserveAspectRatio="none" style="width:672px;height:471px;background:#FFFFFF;" version="1.1" viewBox="0 0 672 471" width="672px" zoomAndPan="magnify"><defs/><g><text fill="#000000" font-family="Verdana" font-size="22" font-weight="bold" lengthAdjust="spacing" textLength="639" x="15" y="37.1182">System Sequence Diagram (SSD) - Alternative One</text><rect fill="#FFFFFF" height="239.3945" style="stroke:#000000;stroke-width:1.0;" width="10" x="148" y="140.752"/><rect fill="#FFFFFF" height="29.7993" style="stroke:#000000;stroke-width:1.0;" width="10" x="484" y="162.5513"/><rect fill="#FFFFFF" height="29.7993" style="stroke:#000000;stroke-width:1.0;" width="10" x="484" y="222.1499"/><rect fill="#FFFFFF" height="29.7993" style="stroke:#000000;stroke-width:1.0;" width="10" x="484" y="281.7485"/><rect fill="#FFFFFF" height="29.7993" style="stroke:#000000;stroke-width:1.0;" width="10" x="484" y="341.3472"/><line style="stroke:#000000;stroke-width:1.0;" x1="152.5" x2="152.5" y1="130.752" y2="389.1465"/><line style="stroke:#000000;stroke-width:1.0;" x1="488.5" x2="488.5" y1="130.752" y2="389.1465"/><text fill="#000000" font-family="Verdana" font-size="14" lengthAdjust="spacing" textLength="31" x="134.5" y="127.8125">HRM</text><ellipse cx="153" cy="61.7373" fill="#FFFFFF" rx="8" ry="8" style="stroke:#000000;stroke-width:1.0;"/><path d="M153,69.7373 L153,96.7373 M140,77.7373 L166,77.7373 M153,96.7373 L140,111.7373 M153,96.7373 L166,111.7373 " fill="none" style="stroke:#000000;stroke-width:1.0;"/><text fill="#000000" font-family="Verdana" font-size="14" lengthAdjust="spacing" textLength="31" x="134.5" y="402.2217">HRM</text><ellipse cx="153" cy="414.1611" fill="#FFFFFF" rx="8" ry="8" style="stroke:#000000;stroke-width:1.0;"/><path d="M153,422.1611 L153,449.1611 M140,430.1611 L166,430.1611 M153,449.1611 L140,464.1611 M153,449.1611 L166,464.1611 " fill="none" style="stroke:#000000;stroke-width:1.0;"/><rect fill="#FFFFFF" height="31.0146" rx="2.5" ry="2.5" style="stroke:#000000;stroke-width:1.0;" width="73" x="452.5" y="98.7373"/><text fill="#000000" font-family="Verdana" font-size="14" lengthAdjust="spacing" textLength="59" x="459.5" y="119.8125">:System</text><rect fill="#FFFFFF" height="31.0146" rx="2.5" ry="2.5" style="stroke:#000000;stroke-width:1.0;" width="73" x="452.5" y="388.1465"/><text fill="#000000" font-family="Verdana" font-size="14" lengthAdjust="spacing" textLength="59" x="459.5" y="409.2217">:System</text><rect fill="#FFFFFF" height="239.3945" style="stroke:#000000;stroke-width:1.0;" width="10" x="148" y="140.752"/><rect fill="#FFFFFF" height="29.7993" style="stroke:#000000;stroke-width:1.0;" width="10" x="484" y="162.5513"/><rect fill="#FFFFFF" height="29.7993" style="stroke:#000000;stroke-width:1.0;" width="10" x="484" y="222.1499"/><rect fill="#FFFFFF" height="29.7993" style="stroke:#000000;stroke-width:1.0;" width="10" x="484" y="281.7485"/><rect fill="#FFFFFF" height="29.7993" style="stroke:#000000;stroke-width:1.0;" width="10" x="484" y="341.3472"/><polygon fill="#000000" points="472,158.5513,482,162.5513,472,166.5513,476,162.5513" style="stroke:#000000;stroke-width:1.0;"/><line style="stroke:#000000;stroke-width:1.0;" x1="158" x2="478" y1="162.5513" y2="162.5513"/><text fill="#000000" font-family="Verdana" font-size="13" lengthAdjust="spacing" textLength="255" x="165" y="157.8218">asks to generate a new team proposal</text><polygon fill="#000000" points="169,188.3506,159,192.3506,169,196.3506,165,192.3506" style="stroke:#000000;stroke-width:1.0;"/><line style="stroke:#000000;stroke-width:1.0;stroke-dasharray:2.0,2.0;" x1="163" x2="488" y1="192.3506" y2="192.3506"/><text fill="#000000" font-family="Verdana" font-size="13" lengthAdjust="spacing" textLength="278" x="175" y="187.6211">requests maximum and minimum team size</text><polygon fill="#000000" points="472,218.1499,482,222.1499,472,226.1499,476,222.1499" style="stroke:#000000;stroke-width:1.0;"/><line style="stroke:#000000;stroke-width:1.0;" x1="158" x2="478" y1="222.1499" y2="222.1499"/><text fill="#000000" font-family="Verdana" font-size="13" lengthAdjust="spacing" textLength="143" x="165" y="217.4204">types requested data</text><polygon fill="#000000" points="169,247.9492,159,251.9492,169,255.9492,165,251.9492" style="stroke:#000000;stroke-width:1.0;"/><line style="stroke:#000000;stroke-width:1.0;stroke-dasharray:2.0,2.0;" x1="163" x2="488" y1="251.9492" y2="251.9492"/><text fill="#000000" font-family="Verdana" font-size="13" lengthAdjust="spacing" textLength="218" x="175" y="247.2197">Displays team skills for selection.</text><polygon fill="#000000" points="472,277.7485,482,281.7485,472,285.7485,476,281.7485" style="stroke:#000000;stroke-width:1.0;"/><line style="stroke:#000000;stroke-width:1.0;" x1="158" x2="478" y1="281.7485" y2="281.7485"/><text fill="#000000" font-family="Verdana" font-size="13" lengthAdjust="spacing" textLength="307" x="165" y="277.019">selects the skills that the team needs to have</text><polygon fill="#000000" points="169,307.5479,159,311.5479,169,315.5479,165,311.5479" style="stroke:#000000;stroke-width:1.0;"/><line style="stroke:#000000;stroke-width:1.0;stroke-dasharray:2.0,2.0;" x1="163" x2="488" y1="311.5479" y2="311.5479"/><text fill="#000000" font-family="Verdana" font-size="13" lengthAdjust="spacing" textLength="166" x="175" y="306.8184">shows the team proposal</text><polygon fill="#000000" points="472,337.3472,482,341.3472,472,345.3472,476,341.3472" style="stroke:#000000;stroke-width:1.0;"/><line style="stroke:#000000;stroke-width:1.0;" x1="158" x2="478" y1="341.3472" y2="341.3472"/><text fill="#000000" font-family="Verdana" font-size="13" lengthAdjust="spacing" textLength="249" x="165" y="336.6177">accepts or refuses the team proposal</text><polygon fill="#000000" points="169,367.1465,159,371.1465,169,375.1465,165,371.1465" style="stroke:#000000;stroke-width:1.0;"/><line style="stroke:#000000;stroke-width:1.0;stroke-dasharray:2.0,2.0;" x1="163" x2="488" y1="371.1465" y2="371.1465"/><text fill="#000000" font-family="Verdana" font-size="13" lengthAdjust="spacing" textLength="177" x="175" y="366.417">displays operation success</text><!--SRC=[dP9DJiCm44RtESNG5IpA0Rf0GYeI6uH4JZ1AlZPM_LVFf2MS7jTDMY6rY-2LBVbxyppZ1-tWGD6oyLMbHYse7aJXgCQ-Xsz0QyFRn8uUwthzH4jwjOhaMSq1zEbHLHKt6X8jthy-5iH2RoxQC01LvAIcCP6zqc9rvfORvsq9cWChhf6AyffEj7oPR5OvjXFIG5juf5E6oUD8YgmMKuX1s9Rq1JfLeN6Dg6McNYgiA9tUAIha-DkutX7xbfpnPL_eOdvG82rkic_gwX0X4nmjjQpy7xsraJoTGKQLdR5MQ9FRBR38gE2VPxkTendPOI9gnrhEfOm7sjBiZW_ZJ6PgInUESWN-6T0SLMuQnAoQ7vomwGNte3Fzsgcj8Pv-KsuZIPzhYTnH_0K0]--></g></svg>