<?xml version="1.0" encoding="us-ascii" standalone="no"?><svg xmlns="http://www.w3.org/2000/svg" xmlns:xlink="http://www.w3.org/1999/xlink" contentStyleType="text/css" height="457px" preserveAspectRatio="none" style="width:455px;height:457px;background:#FFFFFF;" version="1.1" viewBox="0 0 455 457" width="455px" zoomAndPan="magnify"><defs/><g><rect fill="#FFFFFF" height="239.3945" style="stroke:#000000;stroke-width:1.0;" width="10" x="71.5" y="110.0293"/><rect fill="#FFFFFF" height="29.7993" style="stroke:#000000;stroke-width:1.0;" width="10" x="407.5" y="131.8286"/><rect fill="#FFFFFF" height="29.7993" style="stroke:#000000;stroke-width:1.0;" width="10" x="407.5" y="191.4272"/><rect fill="#FFFFFF" height="29.7993" style="stroke:#000000;stroke-width:1.0;" width="10" x="407.5" y="251.0259"/><rect fill="#FFFFFF" height="29.7993" style="stroke:#000000;stroke-width:1.0;" width="10" x="407.5" y="310.6245"/><line style="stroke:#000000;stroke-width:1.0;" x1="76" x2="76" y1="100.0293" y2="358.4238"/><line style="stroke:#000000;stroke-width:1.0;" x1="412" x2="412" y1="100.0293" y2="358.4238"/><text fill="#000000" font-family="Verdana" font-size="14" lengthAdjust="spacing" textLength="127" x="10" y="80.0752">Human Resources</text><text fill="#000000" font-family="Verdana" font-size="14" lengthAdjust="spacing" textLength="59" x="44" y="97.0898">Manager</text><ellipse cx="76.5" cy="14" fill="#FFFFFF" rx="8" ry="8" style="stroke:#000000;stroke-width:1.0;"/><path d="M76.5,22 L76.5,49 M63.5,30 L89.5,30 M76.5,49 L63.5,64 M76.5,49 L89.5,64 " fill="none" style="stroke:#000000;stroke-width:1.0;"/><text fill="#000000" font-family="Verdana" font-size="14" lengthAdjust="spacing" textLength="127" x="10" y="371.499">Human Resources</text><text fill="#000000" font-family="Verdana" font-size="14" lengthAdjust="spacing" textLength="59" x="44" y="388.5137">Manager</text><ellipse cx="76.5" cy="400.4531" fill="#FFFFFF" rx="8" ry="8" style="stroke:#000000;stroke-width:1.0;"/><path d="M76.5,408.4531 L76.5,435.4531 M63.5,416.4531 L89.5,416.4531 M76.5,435.4531 L63.5,450.4531 M76.5,435.4531 L89.5,450.4531 " fill="none" style="stroke:#000000;stroke-width:1.0;"/><rect fill="#FFFFFF" height="31.0146" rx="2.5" ry="2.5" style="stroke:#000000;stroke-width:1.0;" width="73" x="376" y="68.0146"/><text fill="#000000" font-family="Verdana" font-size="14" lengthAdjust="spacing" textLength="59" x="383" y="89.0898">:System</text><rect fill="#FFFFFF" height="31.0146" rx="2.5" ry="2.5" style="stroke:#000000;stroke-width:1.0;" width="73" x="376" y="357.4238"/><text fill="#000000" font-family="Verdana" font-size="14" lengthAdjust="spacing" textLength="59" x="383" y="378.499">:System</text><rect fill="#FFFFFF" height="239.3945" style="stroke:#000000;stroke-width:1.0;" width="10" x="71.5" y="110.0293"/><rect fill="#FFFFFF" height="29.7993" style="stroke:#000000;stroke-width:1.0;" width="10" x="407.5" y="131.8286"/><rect fill="#FFFFFF" height="29.7993" style="stroke:#000000;stroke-width:1.0;" width="10" x="407.5" y="191.4272"/><rect fill="#FFFFFF" height="29.7993" style="stroke:#000000;stroke-width:1.0;" width="10" x="407.5" y="251.0259"/><rect fill="#FFFFFF" height="29.7993" style="stroke:#000000;stroke-width:1.0;" width="10" x="407.5" y="310.6245"/><polygon fill="#000000" points="395.5,127.8286,405.5,131.8286,395.5,135.8286,399.5,131.8286" style="stroke:#000000;stroke-width:1.0;"/><line style="stroke:#000000;stroke-width:1.0;" x1="81.5" x2="401.5" y1="131.8286" y2="131.8286"/><text fill="#000000" font-family="Verdana" font-size="13" lengthAdjust="spacing" textLength="255" x="88.5" y="127.0991">asks to generate a new team proposal</text><polygon fill="#000000" points="92.5,157.6279,82.5,161.6279,92.5,165.6279,88.5,161.6279" style="stroke:#000000;stroke-width:1.0;"/><line style="stroke:#000000;stroke-width:1.0;stroke-dasharray:2.0,2.0;" x1="86.5" x2="411.5" y1="161.6279" y2="161.6279"/><text fill="#000000" font-family="Verdana" font-size="13" lengthAdjust="spacing" textLength="278" x="98.5" y="156.8984">requests maximum and minimum team size</text><polygon fill="#000000" points="395.5,187.4272,405.5,191.4272,395.5,195.4272,399.5,191.4272" style="stroke:#000000;stroke-width:1.0;"/><line style="stroke:#000000;stroke-width:1.0;" x1="81.5" x2="401.5" y1="191.4272" y2="191.4272"/><text fill="#000000" font-family="Verdana" font-size="13" lengthAdjust="spacing" textLength="143" x="88.5" y="186.6978">types requested data</text><polygon fill="#000000" points="92.5,217.2266,82.5,221.2266,92.5,225.2266,88.5,221.2266" style="stroke:#000000;stroke-width:1.0;"/><line style="stroke:#000000;stroke-width:1.0;stroke-dasharray:2.0,2.0;" x1="86.5" x2="411.5" y1="221.2266" y2="221.2266"/><text fill="#000000" font-family="Verdana" font-size="13" lengthAdjust="spacing" textLength="218" x="98.5" y="216.4971">Displays team skills for selection.</text><polygon fill="#000000" points="395.5,247.0259,405.5,251.0259,395.5,255.0259,399.5,251.0259" style="stroke:#000000;stroke-width:1.0;"/><line style="stroke:#000000;stroke-width:1.0;" x1="81.5" x2="401.5" y1="251.0259" y2="251.0259"/><text fill="#000000" font-family="Verdana" font-size="13" lengthAdjust="spacing" textLength="307" x="88.5" y="246.2964">selects the skills that the team needs to have</text><polygon fill="#000000" points="92.5,276.8252,82.5,280.8252,92.5,284.8252,88.5,280.8252" style="stroke:#000000;stroke-width:1.0;"/><line style="stroke:#000000;stroke-width:1.0;stroke-dasharray:2.0,2.0;" x1="86.5" x2="411.5" y1="280.8252" y2="280.8252"/><text fill="#000000" font-family="Verdana" font-size="13" lengthAdjust="spacing" textLength="166" x="98.5" y="276.0957">shows the team proposal</text><polygon fill="#000000" points="395.5,306.6245,405.5,310.6245,395.5,314.6245,399.5,310.6245" style="stroke:#000000;stroke-width:1.0;"/><line style="stroke:#000000;stroke-width:1.0;" x1="81.5" x2="401.5" y1="310.6245" y2="310.6245"/><text fill="#000000" font-family="Verdana" font-size="13" lengthAdjust="spacing" textLength="249" x="88.5" y="305.895">accepts or refuses the team proposal</text><polygon fill="#000000" points="92.5,336.4238,82.5,340.4238,92.5,344.4238,88.5,340.4238" style="stroke:#000000;stroke-width:1.0;"/><line style="stroke:#000000;stroke-width:1.0;stroke-dasharray:2.0,2.0;" x1="86.5" x2="411.5" y1="340.4238" y2="340.4238"/><text fill="#000000" font-family="Verdana" font-size="13" lengthAdjust="spacing" textLength="177" x="98.5" y="335.6943">displays operation success</text><!--SRC=[dP8zJyCm48Rt_8eZU_a16PX0Oc61bUKKlssinX_upYtXr-EwIIkaTWYURCdlSu_l_A0372YER7tJDDnhIDI-PiUUtY4XfnxowT_Oymwf9HPwSN4C4z14Jcfx6zahjTt790fNRvotbMOFhBX66YfhET7cQRvANOdjXJJG3Xxfb67oE9A27SKKOX0UQ_e2NQhGl6RKfb0l5JfA-CeG5NByRLrsnDwGixxkArti3oh4u2RxfgvE4RB0OSYmyd_qdgsKtayog-pjE0fjomm48meg-CVLRkTeGGvOY3gmrdCjum5JcptmOPx9IcqPmb6km3y3MgFAVOzOLCk34xPPS0-wqiyiRGtnz9jA6qbogILoH_4N]--></g></svg>