<?xml version="1.0" encoding="us-ascii" standalone="no"?><svg xmlns="http://www.w3.org/2000/svg" xmlns:xlink="http://www.w3.org/1999/xlink" contentStyleType="text/css" height="765.9px" preserveAspectRatio="none" style="width:1215px;height:765px;background:#FFFFFF;" version="1.1" viewBox="0 0 1215 765" width="1215.9px" zoomAndPan="magnify"><defs/><g><text fill="#000000" font-family="sans-serif" font-size="12.6" font-weight="bold" lengthAdjust="spacing" textLength="205.2" x="507.375" y="27.0967">System Sequence Diagram (SSD)</text><rect fill="#FFFFFF" height="555.1383" style="stroke:#181818;stroke-width:0.9;" width="9" x="16.65" y="119.918"/><rect fill="#FFFFFF" height="212.6953" style="stroke:#181818;stroke-width:0.9;" width="9" x="274.95" y="140.8799"/><rect fill="#FFFFFF" height="28.1619" style="stroke:#181818;stroke-width:0.9;" width="9" x="274.95" y="381.7371"/><rect fill="#FFFFFF" height="236.9953" style="stroke:#181818;stroke-width:0.9;" width="9" x="274.95" y="438.0609"/><rect fill="#FFFFFF" height="140.8096" style="stroke:#181818;stroke-width:0.9;" width="9" x="575.55" y="169.0418"/><rect fill="#FFFFFF" height="180.6715" style="stroke:#181818;stroke-width:0.9;" width="9" x="575.55" y="466.2229"/><rect fill="#FFFFFF" height="28.1619" style="stroke:#181818;stroke-width:0.9;" width="9" x="706.05" y="197.2037"/><rect fill="#FFFFFF" height="28.1619" style="stroke:#181818;stroke-width:0.9;" width="9" x="802.35" y="253.5275"/><rect fill="#FFFFFF" height="28.1619" style="stroke:#181818;stroke-width:0.9;" width="9" x="802.35" y="590.5705"/><rect fill="#FFFFFF" height="68.0238" style="stroke:#181818;stroke-width:0.9;" width="9" x="897.75" y="494.3848"/><line style="stroke:#181818;stroke-width:0.45;stroke-dasharray:5.0,5.0;" x1="20.7" x2="20.7" y1="110.918" y2="691.2563"/><line style="stroke:#181818;stroke-width:0.45;stroke-dasharray:5.0,5.0;" x1="279" x2="279" y1="110.918" y2="691.2563"/><line style="stroke:#181818;stroke-width:0.45;stroke-dasharray:5.0,5.0;" x1="579.6" x2="579.6" y1="110.918" y2="691.2563"/><line style="stroke:#181818;stroke-width:0.45;stroke-dasharray:5.0,5.0;" x1="710.1" x2="710.1" y1="110.918" y2="691.2563"/><line style="stroke:#181818;stroke-width:0.45;stroke-dasharray:5.0,5.0;" x1="806.4" x2="806.4" y1="110.918" y2="691.2563"/><line style="stroke:#181818;stroke-width:0.45;stroke-dasharray:5.0,5.0;" x1="901.8" x2="901.8" y1="110.918" y2="691.2563"/><text fill="#000000" font-family="sans-serif" font-size="12.6" lengthAdjust="spacing" textLength="27.9" x="4.5" y="107.7557">GSM</text><ellipse cx="21.15" cy="47.809" fill="#E3E3E3" rx="7.2" ry="7.2" style="stroke:#181818;stroke-width:0.45;"/><path d="M21.15,55.009 L21.15,79.309 M9.45,62.209 L32.85,62.209 M21.15,79.309 L9.45,92.809 M21.15,79.309 L32.85,92.809 " fill="none" style="stroke:#181818;stroke-width:0.45;"/><text fill="#000000" font-family="sans-serif" font-size="12.6" lengthAdjust="spacing" textLength="27.9" x="4.5" y="703.9529">GSM</text><ellipse cx="21.15" cy="714.7652" fill="#E3E3E3" rx="7.2" ry="7.2" style="stroke:#181818;stroke-width:0.45;"/><path d="M21.15,721.9652 L21.15,746.2652 M9.45,729.1652 L32.85,729.1652 M21.15,746.2652 L9.45,759.7652 M21.15,746.2652 L32.85,759.7652 " fill="none" style="stroke:#181818;stroke-width:0.45;"/><rect fill="#E3E3E3" height="29.359" rx="2.25" ry="2.25" style="stroke:#181818;stroke-width:0.45;" width="110.7" x="224.1" y="80.659"/><text fill="#000000" font-family="sans-serif" font-size="12.6" lengthAdjust="spacing" textLength="98.1" x="230.4" y="100.5557">:PostponeEntryUI</text><rect fill="#E3E3E3" height="29.359" rx="2.25" ry="2.25" style="stroke:#181818;stroke-width:0.45;" width="110.7" x="224.1" y="690.3563"/><text fill="#000000" font-family="sans-serif" font-size="12.6" lengthAdjust="spacing" textLength="98.1" x="230.4" y="710.2529">:PostponeEntryUI</text><rect fill="#E3E3E3" height="29.359" rx="2.25" ry="2.25" style="stroke:#181818;stroke-width:0.45;" width="155.7" x="502.2" y="80.659"/><text fill="#000000" font-family="sans-serif" font-size="12.6" lengthAdjust="spacing" textLength="143.1" x="508.5" y="100.5557">:PostponeEntryController</text><rect fill="#E3E3E3" height="29.359" rx="2.25" ry="2.25" style="stroke:#181818;stroke-width:0.45;" width="155.7" x="502.2" y="690.3563"/><text fill="#000000" font-family="sans-serif" font-size="12.6" lengthAdjust="spacing" textLength="143.1" x="508.5" y="710.2529">:PostponeEntryController</text><rect fill="#E3E3E3" height="29.359" rx="2.25" ry="2.25" style="stroke:#181818;stroke-width:0.45;" width="87.3" x="666.9" y="80.659"/><text fill="#000000" font-family="sans-serif" font-size="12.6" lengthAdjust="spacing" textLength="74.7" x="673.2" y="100.5557">:Repositories</text><rect fill="#E3E3E3" height="29.359" rx="2.25" ry="2.25" style="stroke:#181818;stroke-width:0.45;" width="87.3" x="666.9" y="690.3563"/><text fill="#000000" font-family="sans-serif" font-size="12.6" lengthAdjust="spacing" textLength="74.7" x="673.2" y="710.2529">:Repositories</text><rect fill="#E3E3E3" height="46.118" rx="2.25" ry="2.25" style="stroke:#181818;stroke-width:0.45;" width="87.3" x="763.2" y="63.9"/><text fill="#000000" font-family="sans-serif" font-size="12.6" lengthAdjust="spacing" textLength="66.6" x="773.55" y="83.7967">repositories</text><text fill="#000000" font-family="sans-serif" font-size="12.6" lengthAdjust="spacing" textLength="74.7" x="769.5" y="100.5557">:Repositories</text><rect fill="#E3E3E3" height="46.118" rx="2.25" ry="2.25" style="stroke:#181818;stroke-width:0.45;" width="87.3" x="763.2" y="690.3563"/><text fill="#000000" font-family="sans-serif" font-size="12.6" lengthAdjust="spacing" textLength="66.6" x="773.55" y="710.2529">repositories</text><text fill="#000000" font-family="sans-serif" font-size="12.6" lengthAdjust="spacing" textLength="74.7" x="769.5" y="727.0119">:Repositories</text><rect fill="#E3E3E3" height="29.359" rx="2.25" ry="2.25" style="stroke:#181818;stroke-width:0.45;" width="85.5" x="859.5" y="80.659"/><text fill="#000000" font-family="sans-serif" font-size="12.6" lengthAdjust="spacing" textLength="72.9" x="865.8" y="100.5557">EntryMapper</text><rect fill="#E3E3E3" height="29.359" rx="2.25" ry="2.25" style="stroke:#181818;stroke-width:0.45;" width="85.5" x="859.5" y="690.3563"/><text fill="#000000" font-family="sans-serif" font-size="12.6" lengthAdjust="spacing" textLength="72.9" x="865.8" y="710.2529">EntryMapper</text><rect fill="#FFFFFF" height="555.1383" style="stroke:#181818;stroke-width:0.9;" width="9" x="16.65" y="119.918"/><rect fill="#FFFFFF" height="212.6953" style="stroke:#181818;stroke-width:0.9;" width="9" x="274.95" y="140.8799"/><rect fill="#FFFFFF" height="28.1619" style="stroke:#181818;stroke-width:0.9;" width="9" x="274.95" y="381.7371"/><rect fill="#FFFFFF" height="236.9953" style="stroke:#181818;stroke-width:0.9;" width="9" x="274.95" y="438.0609"/><rect fill="#FFFFFF" height="140.8096" style="stroke:#181818;stroke-width:0.9;" width="9" x="575.55" y="169.0418"/><rect fill="#FFFFFF" height="180.6715" style="stroke:#181818;stroke-width:0.9;" width="9" x="575.55" y="466.2229"/><rect fill="#FFFFFF" height="28.1619" style="stroke:#181818;stroke-width:0.9;" width="9" x="706.05" y="197.2037"/><rect fill="#FFFFFF" height="28.1619" style="stroke:#181818;stroke-width:0.9;" width="9" x="802.35" y="253.5275"/><rect fill="#FFFFFF" height="28.1619" style="stroke:#181818;stroke-width:0.9;" width="9" x="802.35" y="590.5705"/><rect fill="#FFFFFF" height="68.0238" style="stroke:#181818;stroke-width:0.9;" width="9" x="897.75" y="494.3848"/><polygon fill="#181818" points="264.15,137.2799,273.15,140.8799,264.15,144.4799,267.75,140.8799" style="stroke:#181818;stroke-width:0.9;"/><line style="stroke:#181818;stroke-width:0.9;" x1="25.65" x2="269.55" y1="140.8799" y2="140.8799"/><text fill="#000000" font-family="sans-serif" font-size="11.7" font-weight="bold" lengthAdjust="spacing" textLength="6.3" x="31.95" y="136.1435">1</text><text fill="#000000" font-family="sans-serif" font-size="11.7" lengthAdjust="spacing" textLength="211.5" x="41.85" y="136.1435">asks to postpone an entry in the Agenda</text><polygon fill="#181818" points="564.75,165.4418,573.75,169.0418,564.75,172.6418,568.35,169.0418" style="stroke:#181818;stroke-width:0.9;"/><line style="stroke:#181818;stroke-width:0.9;" x1="283.95" x2="570.15" y1="169.0418" y2="169.0418"/><text fill="#000000" font-family="sans-serif" font-size="11.7" font-weight="bold" lengthAdjust="spacing" textLength="6.3" x="290.25" y="164.3054">2</text><text fill="#000000" font-family="sans-serif" font-size="11.7" lengthAdjust="spacing" textLength="99.9" x="300.15" y="164.3054">getAgendaEntries()</text><polygon fill="#181818" points="695.25,193.6037,704.25,197.2037,695.25,200.8037,698.85,197.2037" style="stroke:#181818;stroke-width:0.9;"/><line style="stroke:#181818;stroke-width:0.9;" x1="584.55" x2="700.65" y1="197.2037" y2="197.2037"/><text fill="#000000" font-family="sans-serif" font-size="11.7" font-weight="bold" lengthAdjust="spacing" textLength="6.3" x="590.85" y="192.4673">3</text><text fill="#000000" font-family="sans-serif" font-size="11.7" lengthAdjust="spacing" textLength="67.5" x="600.75" y="192.4673">getInstance()</text><polygon fill="#181818" points="594.45,221.7656,585.45,225.3656,594.45,228.9656,590.85,225.3656" style="stroke:#181818;stroke-width:0.9;"/><line style="stroke:#181818;stroke-width:0.9;stroke-dasharray:2.0,2.0;" x1="589.05" x2="709.65" y1="225.3656" y2="225.3656"/><text fill="#000000" font-family="sans-serif" font-size="11.7" font-weight="bold" lengthAdjust="spacing" textLength="6.3" x="599.85" y="220.6292">4</text><text fill="#000000" font-family="sans-serif" font-size="11.7" lengthAdjust="spacing" textLength="60.3" x="609.75" y="220.6292">repositories</text><polygon fill="#181818" points="791.55,249.9275,800.55,253.5275,791.55,257.1275,795.15,253.5275" style="stroke:#181818;stroke-width:0.9;"/><line style="stroke:#181818;stroke-width:0.9;" x1="584.55" x2="796.95" y1="253.5275" y2="253.5275"/><text fill="#000000" font-family="sans-serif" font-size="11.7" font-weight="bold" lengthAdjust="spacing" textLength="6.3" x="590.85" y="248.7911">5</text><text fill="#000000" font-family="sans-serif" font-size="11.7" lengthAdjust="spacing" textLength="99.9" x="600.75" y="248.7911">getAgendaEntries()</text><polygon fill="#181818" points="594.45,278.0895,585.45,281.6895,594.45,285.2895,590.85,281.6895" style="stroke:#181818;stroke-width:0.9;"/><line style="stroke:#181818;stroke-width:0.9;stroke-dasharray:2.0,2.0;" x1="589.05" x2="805.95" y1="281.6895" y2="281.6895"/><text fill="#000000" font-family="sans-serif" font-size="11.7" font-weight="bold" lengthAdjust="spacing" textLength="6.3" x="599.85" y="276.953">6</text><text fill="#000000" font-family="sans-serif" font-size="11.7" lengthAdjust="spacing" textLength="84.6" x="609.75" y="276.953">agendaEntryList</text><polygon fill="#181818" points="293.85,306.2514,284.85,309.8514,293.85,313.4514,290.25,309.8514" style="stroke:#181818;stroke-width:0.9;"/><line style="stroke:#181818;stroke-width:0.9;stroke-dasharray:2.0,2.0;" x1="288.45" x2="579.15" y1="309.8514" y2="309.8514"/><text fill="#000000" font-family="sans-serif" font-size="11.7" font-weight="bold" lengthAdjust="spacing" textLength="6.3" x="299.25" y="305.1149">7</text><text fill="#000000" font-family="sans-serif" font-size="11.7" lengthAdjust="spacing" textLength="105.3" x="309.15" y="305.1149">uiFormatedEntryList</text><polygon fill="#181818" points="35.55,349.9752,26.55,353.5752,35.55,357.1752,31.95,353.5752" style="stroke:#181818;stroke-width:0.9;"/><line style="stroke:#181818;stroke-width:0.9;stroke-dasharray:2.0,2.0;" x1="30.15" x2="278.55" y1="353.5752" y2="353.5752"/><text fill="#000000" font-family="sans-serif" font-size="11.7" font-weight="bold" lengthAdjust="spacing" textLength="6.3" x="40.95" y="341.0578">8</text><text fill="#000000" font-family="sans-serif" font-size="11.7" lengthAdjust="spacing" textLength="198.9" x="50.85" y="333.2769">shows the list of entries in the Agenda</text><text fill="#000000" font-family="sans-serif" font-size="11.7" lengthAdjust="spacing" textLength="217.8" x="50.85" y="348.8388">and planned dates and asks to select one</text><polygon fill="#181818" points="264.15,378.1371,273.15,381.7371,264.15,385.3371,267.75,381.7371" style="stroke:#181818;stroke-width:0.9;"/><line style="stroke:#181818;stroke-width:0.9;" x1="25.65" x2="269.55" y1="381.7371" y2="381.7371"/><text fill="#000000" font-family="sans-serif" font-size="11.7" font-weight="bold" lengthAdjust="spacing" textLength="6.3" x="31.95" y="377.0007">9</text><text fill="#000000" font-family="sans-serif" font-size="11.7" lengthAdjust="spacing" textLength="83.7" x="41.85" y="377.0007">selects an entry</text><polygon fill="#181818" points="35.55,406.299,26.55,409.899,35.55,413.499,31.95,409.899" style="stroke:#181818;stroke-width:0.9;"/><line style="stroke:#181818;stroke-width:0.9;stroke-dasharray:2.0,2.0;" x1="30.15" x2="278.55" y1="409.899" y2="409.899"/><text fill="#000000" font-family="sans-serif" font-size="11.7" font-weight="bold" lengthAdjust="spacing" textLength="12.6" x="40.95" y="405.1626">10</text><text fill="#000000" font-family="sans-serif" font-size="11.7" lengthAdjust="spacing" textLength="134.1" x="57.15" y="405.1626">asks to select a new date</text><polygon fill="#181818" points="264.15,434.4609,273.15,438.0609,264.15,441.6609,267.75,438.0609" style="stroke:#181818;stroke-width:0.9;"/><line style="stroke:#181818;stroke-width:0.9;" x1="25.65" x2="269.55" y1="438.0609" y2="438.0609"/><text fill="#000000" font-family="sans-serif" font-size="11.7" font-weight="bold" lengthAdjust="spacing" textLength="12.6" x="31.95" y="433.3245">11</text><text fill="#000000" font-family="sans-serif" font-size="11.7" lengthAdjust="spacing" textLength="153.9" x="48.15" y="433.3245">selects new date for the entry</text><polygon fill="#181818" points="564.75,462.6229,573.75,466.2229,564.75,469.8229,568.35,466.2229" style="stroke:#181818;stroke-width:0.9;"/><line style="stroke:#181818;stroke-width:0.9;" x1="283.95" x2="570.15" y1="466.2229" y2="466.2229"/><text fill="#000000" font-family="sans-serif" font-size="11.7" font-weight="bold" lengthAdjust="spacing" textLength="12.6" x="290.25" y="461.4864">12</text><text fill="#000000" font-family="sans-serif" font-size="11.7" lengthAdjust="spacing" textLength="258.3" x="306.45" y="461.4864">updateAgendaEntryDate(selectedEntry, newDate)</text><polygon fill="#181818" points="886.95,490.7848,895.95,494.3848,886.95,497.9848,890.55,494.3848" style="stroke:#181818;stroke-width:0.9;"/><line style="stroke:#181818;stroke-width:0.9;" x1="584.55" x2="892.35" y1="494.3848" y2="494.3848"/><text fill="#000000" font-family="sans-serif" font-size="11.7" font-weight="bold" lengthAdjust="spacing" textLength="12.6" x="590.85" y="489.6483">13</text><text fill="#000000" font-family="sans-serif" font-size="11.7" lengthAdjust="spacing" textLength="218.7" x="607.05" y="489.6483">updateEntryDate(selectedEntry, newDate)</text><line style="stroke:#181818;stroke-width:0.9;" x1="906.75" x2="944.55" y1="522.5467" y2="522.5467"/><line style="stroke:#181818;stroke-width:0.9;" x1="944.55" x2="944.55" y1="522.5467" y2="534.2467"/><line style="stroke:#181818;stroke-width:0.9;" x1="907.65" x2="944.55" y1="534.2467" y2="534.2467"/><polygon fill="#181818" points="916.65,530.6467,907.65,534.2467,916.65,537.8467,913.05,534.2467" style="stroke:#181818;stroke-width:0.9;"/><text fill="#000000" font-family="sans-serif" font-size="11.7" font-weight="bold" lengthAdjust="spacing" textLength="12.6" x="913.05" y="517.8103">14</text><text fill="#000000" font-family="sans-serif" font-size="11.7" lengthAdjust="spacing" textLength="280.8" x="929.25" y="517.8103">updatedEntry = updateEntity(selectedEntry, newDate)</text><polygon fill="#181818" points="594.45,558.8086,585.45,562.4086,594.45,566.0086,590.85,562.4086" style="stroke:#181818;stroke-width:0.9;"/><line style="stroke:#181818;stroke-width:0.9;stroke-dasharray:2.0,2.0;" x1="589.05" x2="901.35" y1="562.4086" y2="562.4086"/><text fill="#000000" font-family="sans-serif" font-size="11.7" font-weight="bold" lengthAdjust="spacing" textLength="12.6" x="599.85" y="557.6722">15</text><text fill="#000000" font-family="sans-serif" font-size="11.7" lengthAdjust="spacing" textLength="69.3" x="616.05" y="557.6722">updatedEntry</text><polygon fill="#181818" points="791.55,586.9705,800.55,590.5705,791.55,594.1705,795.15,590.5705" style="stroke:#181818;stroke-width:0.9;"/><line style="stroke:#181818;stroke-width:0.9;" x1="584.55" x2="796.95" y1="590.5705" y2="590.5705"/><text fill="#000000" font-family="sans-serif" font-size="11.7" font-weight="bold" lengthAdjust="spacing" textLength="12.6" x="590.85" y="585.8341">16</text><text fill="#000000" font-family="sans-serif" font-size="11.7" lengthAdjust="spacing" textLength="163.8" x="607.05" y="585.8341">updateEntryDate(updatedEntry)</text><polygon fill="#181818" points="594.45,615.1324,585.45,618.7324,594.45,622.3324,590.85,618.7324" style="stroke:#181818;stroke-width:0.9;"/><line style="stroke:#181818;stroke-width:0.9;stroke-dasharray:2.0,2.0;" x1="589.05" x2="805.95" y1="618.7324" y2="618.7324"/><text fill="#000000" font-family="sans-serif" font-size="11.7" font-weight="bold" lengthAdjust="spacing" textLength="12.6" x="599.85" y="613.996">17</text><text fill="#000000" font-family="sans-serif" font-size="11.7" lengthAdjust="spacing" textLength="78.3" x="616.05" y="613.996">success/failure</text><polygon fill="#181818" points="293.85,643.2943,284.85,646.8943,293.85,650.4943,290.25,646.8943" style="stroke:#181818;stroke-width:0.9;"/><line style="stroke:#181818;stroke-width:0.9;stroke-dasharray:2.0,2.0;" x1="288.45" x2="579.15" y1="646.8943" y2="646.8943"/><text fill="#000000" font-family="sans-serif" font-size="11.7" font-weight="bold" lengthAdjust="spacing" textLength="12.6" x="299.25" y="642.1579">18</text><text fill="#000000" font-family="sans-serif" font-size="11.7" lengthAdjust="spacing" textLength="171" x="315.45" y="642.1579">displays message of (in)success</text><polygon fill="#181818" points="31.05,671.4563,22.05,675.0563,31.05,678.6563,27.45,675.0563" style="stroke:#181818;stroke-width:0.9;"/><line style="stroke:#181818;stroke-width:0.9;stroke-dasharray:2.0,2.0;" x1="25.65" x2="278.55" y1="675.0563" y2="675.0563"/><text fill="#000000" font-family="sans-serif" font-size="11.7" font-weight="bold" lengthAdjust="spacing" textLength="12.6" x="36.45" y="670.3198">19</text><text fill="#000000" font-family="sans-serif" font-size="11.7" lengthAdjust="spacing" textLength="171" x="52.65" y="670.3198">displays message of (in)success</text><!--SRC=[hLLDYzim4BtxLmmv9T3GUw25ijajWLqew-vjBwezSKHiITN83Vxt7ScnOZaVP4jr2B4oyzwRcJSExQKomee66grqiREwGN2snOpYBqOKUr5XxheQmMBXXAhgSG3jHAaFKbMm5JLXbZdfE3Jlo643EVvkKHK8Qoag7pxFy_KYoqJhj6gRNsZvU-6qXTdt_6K6Wk2nCRNk43F6TxAGHYW7izKFJSveXO_AsUvj4qBVDhU27ZH_whf66u8VVhu-Jy9VqMYIp2wHGaoyw7BfwsIHQOeTPRohSu1l5QfI-EjGb_mZ79ugoe3Fy0JBhrm0h3XjJ-0qcADu40hG5m1IWTlX4JGaHqmkFLpumoYCvUjZj0fT7-zxmBBcYnWNaqChuhK_8Pb1BZIWnzmeuj4NE89B82zrBedqvnBwyYXz1UFU9gabtayp578QnEsU94MCfpVLFW9Sdhej8cptBCbTapq6lgHti48hdxHjEACyXnp1fVFpusU0wAiLxwG-KB1EpGYWjy5FN7Zgg7SbL0cc5afX2IKZ4_YRmP24DIyyi2MpYO31VMTUxbCeMlYsQLFL4re12Wz1rOVPXqJOyel5rtk7bZZIrlZKar-wDJ_EU-ZZN3vv1d_zeTsQXTmNOOn_8mr4zrCaD0dOkLjJhglaFHTyEMcHhhig9AMPK4mRs6TVMuWRyYzkyBHNOux_jipK5WKIVTuAMRSMxrdcwwjSIkBDwWWQXkJNXD_2kLIB8yc_hFKza9Cr6Jt6Vw6_]--></g></svg>