<?xml version="1.0" encoding="us-ascii" standalone="no"?><svg xmlns="http://www.w3.org/2000/svg" xmlns:xlink="http://www.w3.org/1999/xlink" contentStyleType="text/css" height="769.3px" preserveAspectRatio="none" style="width:871px;height:769px;background:#FFFFFF;" version="1.1" viewBox="0 0 871 769" width="871.5px" zoomAndPan="magnify"><defs/><g><text fill="#000000" font-family="sans-serif" font-size="9.8" font-weight="bold" lengthAdjust="spacing" textLength="159.6" x="357" y="21.0752">System Sequence Diagram (SSD)</text><rect fill="#FFFFFF" height="605.6928" style="stroke:#181818;stroke-width:0.6999999999999998;" width="7" x="12.95" y="93.2695"/><rect fill="#FFFFFF" height="275.4445" style="stroke:#181818;stroke-width:0.6999999999999998;" width="7" x="218.75" y="109.5732"/><rect fill="#FFFFFF" height="21.9037" style="stroke:#181818;stroke-width:0.6999999999999998;" width="7" x="218.75" y="406.9215"/><rect fill="#FFFFFF" height="248.2334" style="stroke:#181818;stroke-width:0.6999999999999998;" width="7" x="218.75" y="450.7289"/><rect fill="#FFFFFF" height="219.5334" style="stroke:#181818;stroke-width:0.6999999999999998;" width="7" x="395.85" y="131.477"/><rect fill="#FFFFFF" height="161.5223" style="stroke:#181818;stroke-width:0.6999999999999998;" width="7" x="395.85" y="515.5363"/><rect fill="#FFFFFF" height="21.9037" style="stroke:#181818;stroke-width:0.6999999999999998;" width="7" x="497.35" y="153.3807"/><rect fill="#FFFFFF" height="21.9037" style="stroke:#181818;stroke-width:0.6999999999999998;" width="7" x="579.6" y="197.1881"/><rect fill="#FFFFFF" height="21.9037" style="stroke:#181818;stroke-width:0.6999999999999998;" width="7" x="579.6" y="633.2512"/><rect fill="#FFFFFF" height="88.1111" style="stroke:#181818;stroke-width:0.6999999999999998;" width="7" x="661.15" y="240.9955"/><rect fill="#FFFFFF" height="73.9074" style="stroke:#181818;stroke-width:0.6999999999999998;" width="7" x="661.15" y="537.44"/><rect fill="#FFFFFF" height="19.6" style="stroke:#181818;stroke-width:0.6999999999999998;" width="7" x="664.65" y="564.9437"/><rect fill="#FFFFFF" height="21" style="stroke:#181818;stroke-width:0.6999999999999998;" width="7" x="829.85" y="281.3029"/><rect fill="#FFFFFF" height="21" style="stroke:#181818;stroke-width:0.6999999999999998;" width="7" x="829.85" y="472.6326"/><rect fill="none" height="56.4074" style="stroke:#000000;stroke-width:1.0499999999999998;" width="242.9" x="624.4" y="251.4955"/><line style="stroke:#181818;stroke-width:0.3499999999999999;stroke-dasharray:5.0,5.0;" x1="16.1" x2="16.1" y1="86.2695" y2="711.5623"/><line style="stroke:#181818;stroke-width:0.3499999999999999;stroke-dasharray:5.0,5.0;" x1="221.9" x2="221.9" y1="86.2695" y2="711.5623"/><line style="stroke:#181818;stroke-width:0.3499999999999999;stroke-dasharray:5.0,5.0;" x1="399" x2="399" y1="86.2695" y2="711.5623"/><line style="stroke:#181818;stroke-width:0.3499999999999999;stroke-dasharray:5.0,5.0;" x1="500.5" x2="500.5" y1="86.2695" y2="711.5623"/><line style="stroke:#181818;stroke-width:0.3499999999999999;stroke-dasharray:5.0,5.0;" x1="583.1" x2="583.1" y1="86.2695" y2="711.5623"/><line style="stroke:#181818;stroke-width:0.3499999999999999;stroke-dasharray:5.0,5.0;" x1="664.3" x2="664.3" y1="86.2695" y2="711.5623"/><line style="stroke:#181818;stroke-width:0.3499999999999999;stroke-dasharray:5.0,5.0;" x1="833" x2="833" y1="86.2695" y2="711.5623"/><text fill="#000000" font-family="sans-serif" font-size="9.8" lengthAdjust="spacing" textLength="21.7" x="3.5" y="83.81">GSM</text><ellipse cx="16.45" cy="37.1848" fill="#E3E3E3" rx="5.6" ry="5.6" style="stroke:#181818;stroke-width:0.3499999999999999;"/><path d="M16.45,42.7848 L16.45,61.6848 M7.35,48.3848 L25.55,48.3848 M16.45,61.6848 L7.35,72.1848 M16.45,61.6848 L25.55,72.1848 " fill="none" style="stroke:#181818;stroke-width:0.3499999999999999;"/><text fill="#000000" font-family="sans-serif" font-size="9.8" lengthAdjust="spacing" textLength="21.7" x="3.5" y="721.4375">GSM</text><ellipse cx="16.45" cy="729.8471" fill="#E3E3E3" rx="5.6" ry="5.6" style="stroke:#181818;stroke-width:0.3499999999999999;"/><path d="M16.45,735.4471 L16.45,754.3471 M7.35,741.0471 L25.55,741.0471 M16.45,754.3471 L7.35,764.8471 M16.45,754.3471 L25.55,764.8471 " fill="none" style="stroke:#181818;stroke-width:0.3499999999999999;"/><rect fill="#E3E3E3" height="22.8348" rx="1.75" ry="1.75" style="stroke:#181818;stroke-width:0.3499999999999999;" width="86.1" x="179.2" y="62.7348"/><text fill="#000000" font-family="sans-serif" font-size="9.8" lengthAdjust="spacing" textLength="76.3" x="184.1" y="78.21">:PostponeEntryUI</text><rect fill="#E3E3E3" height="22.8348" rx="1.75" ry="1.75" style="stroke:#181818;stroke-width:0.3499999999999999;" width="86.1" x="179.2" y="710.8623"/><text fill="#000000" font-family="sans-serif" font-size="9.8" lengthAdjust="spacing" textLength="76.3" x="184.1" y="726.3375">:PostponeEntryUI</text><rect fill="#E3E3E3" height="22.8348" rx="1.75" ry="1.75" style="stroke:#181818;stroke-width:0.3499999999999999;" width="121.1" x="338.8" y="62.7348"/><text fill="#000000" font-family="sans-serif" font-size="9.8" lengthAdjust="spacing" textLength="111.3" x="343.7" y="78.21">:PostponeEntryController</text><rect fill="#E3E3E3" height="22.8348" rx="1.75" ry="1.75" style="stroke:#181818;stroke-width:0.3499999999999999;" width="121.1" x="338.8" y="710.8623"/><text fill="#000000" font-family="sans-serif" font-size="9.8" lengthAdjust="spacing" textLength="111.3" x="343.7" y="726.3375">:PostponeEntryController</text><rect fill="#E3E3E3" height="22.8348" rx="1.75" ry="1.75" style="stroke:#181818;stroke-width:0.3499999999999999;" width="67.9" x="466.9" y="62.7348"/><text fill="#000000" font-family="sans-serif" font-size="9.8" lengthAdjust="spacing" textLength="58.1" x="471.8" y="78.21">:Repositories</text><rect fill="#E3E3E3" height="22.8348" rx="1.75" ry="1.75" style="stroke:#181818;stroke-width:0.3499999999999999;" width="67.9" x="466.9" y="710.8623"/><text fill="#000000" font-family="sans-serif" font-size="9.8" lengthAdjust="spacing" textLength="58.1" x="471.8" y="726.3375">:Repositories</text><rect fill="#E3E3E3" height="35.8695" rx="1.75" ry="1.75" style="stroke:#181818;stroke-width:0.3499999999999999;" width="82.6" x="541.8" y="49.7"/><text fill="#000000" font-family="sans-serif" font-size="9.8" lengthAdjust="spacing" textLength="70.7" x="547.75" y="65.1752">EntryRepository</text><text fill="#000000" font-family="sans-serif" font-size="9.8" lengthAdjust="spacing" textLength="72.8" x="546.7" y="78.21">:entryRepository</text><rect fill="#E3E3E3" height="35.8695" rx="1.75" ry="1.75" style="stroke:#181818;stroke-width:0.3499999999999999;" width="82.6" x="541.8" y="710.8623"/><text fill="#000000" font-family="sans-serif" font-size="9.8" lengthAdjust="spacing" textLength="70.7" x="547.75" y="726.3375">EntryRepository</text><text fill="#000000" font-family="sans-serif" font-size="9.8" lengthAdjust="spacing" textLength="72.8" x="546.7" y="739.3723">:entryRepository</text><rect fill="#E3E3E3" height="22.8348" rx="1.75" ry="1.75" style="stroke:#181818;stroke-width:0.3499999999999999;" width="66.5" x="631.4" y="62.7348"/><text fill="#000000" font-family="sans-serif" font-size="9.8" lengthAdjust="spacing" textLength="56.7" x="636.3" y="78.21">EntryMapper</text><rect fill="#E3E3E3" height="22.8348" rx="1.75" ry="1.75" style="stroke:#181818;stroke-width:0.3499999999999999;" width="66.5" x="631.4" y="710.8623"/><text fill="#000000" font-family="sans-serif" font-size="9.8" lengthAdjust="spacing" textLength="56.7" x="636.3" y="726.3375">EntryMapper</text><rect fill="#E3E3E3" height="22.8348" rx="1.75" ry="1.75" style="stroke:#181818;stroke-width:0.3499999999999999;" width="53.9" x="806.4" y="62.7348"/><text fill="#000000" font-family="sans-serif" font-size="9.8" lengthAdjust="spacing" textLength="44.1" x="811.3" y="78.21">EntryDTO</text><rect fill="#E3E3E3" height="22.8348" rx="1.75" ry="1.75" style="stroke:#181818;stroke-width:0.3499999999999999;" width="53.9" x="806.4" y="710.8623"/><text fill="#000000" font-family="sans-serif" font-size="9.8" lengthAdjust="spacing" textLength="44.1" x="811.3" y="726.3375">EntryDTO</text><rect fill="#FFFFFF" height="605.6928" style="stroke:#181818;stroke-width:0.6999999999999998;" width="7" x="12.95" y="93.2695"/><rect fill="#FFFFFF" height="275.4445" style="stroke:#181818;stroke-width:0.6999999999999998;" width="7" x="218.75" y="109.5732"/><rect fill="#FFFFFF" height="21.9037" style="stroke:#181818;stroke-width:0.6999999999999998;" width="7" x="218.75" y="406.9215"/><rect fill="#FFFFFF" height="248.2334" style="stroke:#181818;stroke-width:0.6999999999999998;" width="7" x="218.75" y="450.7289"/><rect fill="#FFFFFF" height="219.5334" style="stroke:#181818;stroke-width:0.6999999999999998;" width="7" x="395.85" y="131.477"/><rect fill="#FFFFFF" height="161.5223" style="stroke:#181818;stroke-width:0.6999999999999998;" width="7" x="395.85" y="515.5363"/><rect fill="#FFFFFF" height="21.9037" style="stroke:#181818;stroke-width:0.6999999999999998;" width="7" x="497.35" y="153.3807"/><rect fill="#FFFFFF" height="21.9037" style="stroke:#181818;stroke-width:0.6999999999999998;" width="7" x="579.6" y="197.1881"/><rect fill="#FFFFFF" height="21.9037" style="stroke:#181818;stroke-width:0.6999999999999998;" width="7" x="579.6" y="633.2512"/><rect fill="#FFFFFF" height="88.1111" style="stroke:#181818;stroke-width:0.6999999999999998;" width="7" x="661.15" y="240.9955"/><rect fill="#FFFFFF" height="73.9074" style="stroke:#181818;stroke-width:0.6999999999999998;" width="7" x="661.15" y="537.44"/><rect fill="#FFFFFF" height="19.6" style="stroke:#181818;stroke-width:0.6999999999999998;" width="7" x="664.65" y="564.9437"/><rect fill="#FFFFFF" height="21" style="stroke:#181818;stroke-width:0.6999999999999998;" width="7" x="829.85" y="281.3029"/><rect fill="#FFFFFF" height="21" style="stroke:#181818;stroke-width:0.6999999999999998;" width="7" x="829.85" y="472.6326"/><polygon fill="#181818" points="210.35,106.7732,217.35,109.5732,210.35,112.3732,213.15,109.5732" style="stroke:#181818;stroke-width:0.6999999999999998;"/><line style="stroke:#181818;stroke-width:0.6999999999999998;" x1="19.95" x2="214.55" y1="109.5732" y2="109.5732"/><text fill="#000000" font-family="sans-serif" font-size="9.1" font-weight="bold" lengthAdjust="spacing" textLength="4.9" x="24.85" y="105.8894">1</text><text fill="#000000" font-family="sans-serif" font-size="9.1" lengthAdjust="spacing" textLength="164.5" x="32.55" y="105.8894">asks to postpone an entry in the Agenda</text><polygon fill="#181818" points="387.45,128.677,394.45,131.477,387.45,134.277,390.25,131.477" style="stroke:#181818;stroke-width:0.6999999999999998;"/><line style="stroke:#181818;stroke-width:0.6999999999999998;" x1="225.75" x2="391.65" y1="131.477" y2="131.477"/><text fill="#000000" font-family="sans-serif" font-size="9.1" font-weight="bold" lengthAdjust="spacing" textLength="4.9" x="230.65" y="127.7931">2</text><text fill="#000000" font-family="sans-serif" font-size="9.1" lengthAdjust="spacing" textLength="77.7" x="238.35" y="127.7931">getAgendaEntries()</text><polygon fill="#181818" points="488.95,150.5807,495.95,153.3807,488.95,156.1807,491.75,153.3807" style="stroke:#181818;stroke-width:0.6999999999999998;"/><line style="stroke:#181818;stroke-width:0.6999999999999998;" x1="402.85" x2="493.15" y1="153.3807" y2="153.3807"/><text fill="#000000" font-family="sans-serif" font-size="9.1" font-weight="bold" lengthAdjust="spacing" textLength="4.9" x="407.75" y="149.6968">3</text><text fill="#000000" font-family="sans-serif" font-size="9.1" lengthAdjust="spacing" textLength="52.5" x="415.45" y="149.6968">getInstance()</text><polygon fill="#181818" points="410.55,172.4844,403.55,175.2844,410.55,178.0844,407.75,175.2844" style="stroke:#181818;stroke-width:0.6999999999999998;"/><line style="stroke:#181818;stroke-width:0.6999999999999998;stroke-dasharray:2.0,2.0;" x1="406.35" x2="500.15" y1="175.2844" y2="175.2844"/><text fill="#000000" font-family="sans-serif" font-size="9.1" font-weight="bold" lengthAdjust="spacing" textLength="4.9" x="414.75" y="171.6005">4</text><text fill="#000000" font-family="sans-serif" font-size="9.1" lengthAdjust="spacing" textLength="46.9" x="422.45" y="171.6005">repositories</text><polygon fill="#181818" points="571.2,194.3881,578.2,197.1881,571.2,199.9881,574,197.1881" style="stroke:#181818;stroke-width:0.6999999999999998;"/><line style="stroke:#181818;stroke-width:0.6999999999999998;" x1="402.85" x2="575.4" y1="197.1881" y2="197.1881"/><text fill="#000000" font-family="sans-serif" font-size="9.1" font-weight="bold" lengthAdjust="spacing" textLength="4.9" x="407.75" y="193.5042">5</text><text fill="#000000" font-family="sans-serif" font-size="9.1" lengthAdjust="spacing" textLength="77.7" x="415.45" y="193.5042">getAgendaEntries()</text><polygon fill="#181818" points="410.55,216.2918,403.55,219.0918,410.55,221.8918,407.75,219.0918" style="stroke:#181818;stroke-width:0.6999999999999998;"/><line style="stroke:#181818;stroke-width:0.6999999999999998;stroke-dasharray:2.0,2.0;" x1="406.35" x2="582.4" y1="219.0918" y2="219.0918"/><text fill="#000000" font-family="sans-serif" font-size="9.1" font-weight="bold" lengthAdjust="spacing" textLength="4.9" x="414.75" y="215.4079">6</text><text fill="#000000" font-family="sans-serif" font-size="9.1" lengthAdjust="spacing" textLength="65.8" x="422.45" y="215.4079">agendaEntryList</text><polygon fill="#181818" points="652.75,238.1955,659.75,240.9955,652.75,243.7955,655.55,240.9955" style="stroke:#181818;stroke-width:0.6999999999999998;"/><line style="stroke:#181818;stroke-width:0.6999999999999998;" x1="402.85" x2="656.95" y1="240.9955" y2="240.9955"/><text fill="#000000" font-family="sans-serif" font-size="9.1" font-weight="bold" lengthAdjust="spacing" textLength="4.9" x="407.75" y="237.3116">7</text><text fill="#000000" font-family="sans-serif" font-size="9.1" lengthAdjust="spacing" textLength="100.8" x="415.45" y="237.3116">getAgendaEntriesDTOs()</text><path d="M624.4,251.4955 L675.5,251.4955 L675.5,257.9992 L668.5,264.9992 L624.4,264.9992 L624.4,251.4955 " fill="#EEEEEE" style="stroke:#000000;stroke-width:1.0499999999999998;"/><rect fill="none" height="56.4074" style="stroke:#000000;stroke-width:1.0499999999999998;" width="242.9" x="624.4" y="251.4955"/><text fill="#000000" font-family="sans-serif" font-size="9.1" font-weight="bold" lengthAdjust="spacing" textLength="19.6" x="634.9" y="262.0153">loop</text><text fill="#000000" font-family="sans-serif" font-size="7.7" font-weight="bold" lengthAdjust="spacing" textLength="160.3" x="686" y="261.2046">[for each agendaEntry in agendaEntryList]</text><polygon fill="#181818" points="821.45,278.5029,828.45,281.3029,821.45,284.1029,824.25,281.3029" style="stroke:#181818;stroke-width:0.6999999999999998;"/><line style="stroke:#181818;stroke-width:0.6999999999999998;" x1="668.15" x2="825.65" y1="281.3029" y2="281.3029"/><text fill="#000000" font-family="sans-serif" font-size="9.1" font-weight="bold" lengthAdjust="spacing" textLength="4.9" x="673.05" y="277.619">8</text><text fill="#000000" font-family="sans-serif" font-size="9.1" lengthAdjust="spacing" textLength="133.7" x="680.75" y="277.619">EntryDTO = toDTO(agendaEntry)</text><polygon fill="#181818" points="410.55,326.3066,403.55,329.1066,410.55,331.9066,407.75,329.1066" style="stroke:#181818;stroke-width:0.6999999999999998;"/><line style="stroke:#181818;stroke-width:0.6999999999999998;stroke-dasharray:2.0,2.0;" x1="406.35" x2="663.95" y1="329.1066" y2="329.1066"/><text fill="#000000" font-family="sans-serif" font-size="9.1" font-weight="bold" lengthAdjust="spacing" textLength="4.9" x="414.75" y="325.4228">9</text><text fill="#000000" font-family="sans-serif" font-size="9.1" lengthAdjust="spacing" textLength="54.6" x="422.45" y="325.4228">EntryDTOList</text><polygon fill="#181818" points="233.45,348.2104,226.45,351.0104,233.45,353.8104,230.65,351.0104" style="stroke:#181818;stroke-width:0.6999999999999998;"/><line style="stroke:#181818;stroke-width:0.6999999999999998;stroke-dasharray:2.0,2.0;" x1="229.25" x2="398.65" y1="351.0104" y2="351.0104"/><text fill="#000000" font-family="sans-serif" font-size="9.1" font-weight="bold" lengthAdjust="spacing" textLength="9.8" x="237.65" y="347.3265">10</text><text fill="#000000" font-family="sans-serif" font-size="9.1" lengthAdjust="spacing" textLength="54.6" x="250.25" y="347.3265">EntryDTOList</text><polygon fill="#181818" points="27.65,382.2178,20.65,385.0178,27.65,387.8178,24.85,385.0178" style="stroke:#181818;stroke-width:0.6999999999999998;"/><line style="stroke:#181818;stroke-width:0.6999999999999998;stroke-dasharray:2.0,2.0;" x1="23.45" x2="221.55" y1="385.0178" y2="385.0178"/><text fill="#000000" font-family="sans-serif" font-size="9.1" font-weight="bold" lengthAdjust="spacing" textLength="9.8" x="31.85" y="375.282">11</text><text fill="#000000" font-family="sans-serif" font-size="9.1" lengthAdjust="spacing" textLength="154.7" x="44.45" y="369.2302">shows the list of entries in the Agenda</text><text fill="#000000" font-family="sans-serif" font-size="9.1" lengthAdjust="spacing" textLength="169.4" x="44.45" y="381.3339">and planned dates and asks to select one</text><polygon fill="#181818" points="210.35,404.1215,217.35,406.9215,210.35,409.7215,213.15,406.9215" style="stroke:#181818;stroke-width:0.6999999999999998;"/><line style="stroke:#181818;stroke-width:0.6999999999999998;" x1="19.95" x2="214.55" y1="406.9215" y2="406.9215"/><text fill="#000000" font-family="sans-serif" font-size="9.1" font-weight="bold" lengthAdjust="spacing" textLength="9.8" x="24.85" y="403.2376">12</text><text fill="#000000" font-family="sans-serif" font-size="9.1" lengthAdjust="spacing" textLength="65.1" x="37.45" y="403.2376">selects an entry</text><polygon fill="#181818" points="27.65,426.0252,20.65,428.8252,27.65,431.6252,24.85,428.8252" style="stroke:#181818;stroke-width:0.6999999999999998;"/><line style="stroke:#181818;stroke-width:0.6999999999999998;stroke-dasharray:2.0,2.0;" x1="23.45" x2="221.55" y1="428.8252" y2="428.8252"/><text fill="#000000" font-family="sans-serif" font-size="9.1" font-weight="bold" lengthAdjust="spacing" textLength="9.8" x="31.85" y="425.1413">13</text><text fill="#000000" font-family="sans-serif" font-size="9.1" lengthAdjust="spacing" textLength="104.3" x="44.45" y="425.1413">asks to select a new date</text><polygon fill="#181818" points="210.35,447.9289,217.35,450.7289,210.35,453.5289,213.15,450.7289" style="stroke:#181818;stroke-width:0.6999999999999998;"/><line style="stroke:#181818;stroke-width:0.6999999999999998;" x1="19.95" x2="214.55" y1="450.7289" y2="450.7289"/><text fill="#000000" font-family="sans-serif" font-size="9.1" font-weight="bold" lengthAdjust="spacing" textLength="9.8" x="24.85" y="447.045">14</text><text fill="#000000" font-family="sans-serif" font-size="9.1" lengthAdjust="spacing" textLength="119.7" x="37.45" y="447.045">selects new date for the entry</text><polygon fill="#181818" points="821.45,469.8326,828.45,472.6326,821.45,475.4326,824.25,472.6326" style="stroke:#181818;stroke-width:0.6999999999999998;"/><line style="stroke:#181818;stroke-width:0.6999999999999998;" x1="225.75" x2="825.65" y1="472.6326" y2="472.6326"/><text fill="#000000" font-family="sans-serif" font-size="9.1" font-weight="bold" lengthAdjust="spacing" textLength="9.8" x="230.65" y="468.9487">15</text><text fill="#000000" font-family="sans-serif" font-size="9.1" lengthAdjust="spacing" textLength="106.4" x="243.25" y="468.9487">EntryDTO.date = newDate</text><polygon fill="#181818" points="387.45,512.7363,394.45,515.5363,387.45,518.3363,390.25,515.5363" style="stroke:#181818;stroke-width:0.6999999999999998;"/><line style="stroke:#181818;stroke-width:0.6999999999999998;" x1="225.75" x2="391.65" y1="515.5363" y2="515.5363"/><text fill="#000000" font-family="sans-serif" font-size="9.1" font-weight="bold" lengthAdjust="spacing" textLength="9.8" x="230.65" y="511.8524">16</text><text fill="#000000" font-family="sans-serif" font-size="9.1" lengthAdjust="spacing" textLength="144.2" x="243.25" y="511.8524">updateAgendaEntryDate(EntryDTO)</text><polygon fill="#181818" points="652.75,534.64,659.75,537.44,652.75,540.24,655.55,537.44" style="stroke:#181818;stroke-width:0.6999999999999998;"/><line style="stroke:#181818;stroke-width:0.6999999999999998;" x1="402.85" x2="656.95" y1="537.44" y2="537.44"/><text fill="#000000" font-family="sans-serif" font-size="9.1" font-weight="bold" lengthAdjust="spacing" textLength="9.8" x="407.75" y="533.7562">17</text><text fill="#000000" font-family="sans-serif" font-size="9.1" lengthAdjust="spacing" textLength="125.3" x="420.35" y="533.7562">updateAgendaEntry(EntryDTO)</text><line style="stroke:#181818;stroke-width:0.6999999999999998;" x1="671.65" x2="701.05" y1="559.3437" y2="559.3437"/><line style="stroke:#181818;stroke-width:0.6999999999999998;" x1="701.05" x2="701.05" y1="559.3437" y2="568.4437"/><line style="stroke:#181818;stroke-width:0.6999999999999998;" x1="672.35" x2="701.05" y1="568.4437" y2="568.4437"/><polygon fill="#181818" points="679.35,565.6437,672.35,568.4437,679.35,571.2437,676.55,568.4437" style="stroke:#181818;stroke-width:0.6999999999999998;"/><text fill="#000000" font-family="sans-serif" font-size="9.1" font-weight="bold" lengthAdjust="spacing" textLength="9.8" x="676.55" y="555.6599">18</text><text fill="#000000" font-family="sans-serif" font-size="9.1" lengthAdjust="spacing" textLength="139.3" x="689.15" y="555.6599">agendaEntry = toEntity(EntryDTO)</text><polygon fill="#181818" points="410.55,608.5475,403.55,611.3475,410.55,614.1475,407.75,611.3475" style="stroke:#181818;stroke-width:0.6999999999999998;"/><line style="stroke:#181818;stroke-width:0.6999999999999998;stroke-dasharray:2.0,2.0;" x1="406.35" x2="663.95" y1="611.3475" y2="611.3475"/><text fill="#000000" font-family="sans-serif" font-size="9.1" font-weight="bold" lengthAdjust="spacing" textLength="9.8" x="414.75" y="607.6636">19</text><text fill="#000000" font-family="sans-serif" font-size="9.1" lengthAdjust="spacing" textLength="51.1" x="427.35" y="607.6636">agendaEntry</text><polygon fill="#181818" points="571.2,630.4512,578.2,633.2512,571.2,636.0512,574,633.2512" style="stroke:#181818;stroke-width:0.6999999999999998;"/><line style="stroke:#181818;stroke-width:0.6999999999999998;" x1="402.85" x2="575.4" y1="633.2512" y2="633.2512"/><text fill="#000000" font-family="sans-serif" font-size="9.1" font-weight="bold" lengthAdjust="spacing" textLength="9.8" x="407.75" y="629.5673">20</text><text fill="#000000" font-family="sans-serif" font-size="9.1" lengthAdjust="spacing" textLength="124.6" x="420.35" y="629.5673">updateEntryDate(agendaEntry)</text><polygon fill="#181818" points="410.55,652.3549,403.55,655.1549,410.55,657.9549,407.75,655.1549" style="stroke:#181818;stroke-width:0.6999999999999998;"/><line style="stroke:#181818;stroke-width:0.6999999999999998;stroke-dasharray:2.0,2.0;" x1="406.35" x2="582.4" y1="655.1549" y2="655.1549"/><text fill="#000000" font-family="sans-serif" font-size="9.1" font-weight="bold" lengthAdjust="spacing" textLength="9.8" x="414.75" y="651.471">21</text><text fill="#000000" font-family="sans-serif" font-size="9.1" lengthAdjust="spacing" textLength="60.9" x="427.35" y="651.471">success/failure</text><polygon fill="#181818" points="233.45,674.2586,226.45,677.0586,233.45,679.8586,230.65,677.0586" style="stroke:#181818;stroke-width:0.6999999999999998;"/><line style="stroke:#181818;stroke-width:0.6999999999999998;stroke-dasharray:2.0,2.0;" x1="229.25" x2="398.65" y1="677.0586" y2="677.0586"/><text fill="#000000" font-family="sans-serif" font-size="9.1" font-weight="bold" lengthAdjust="spacing" textLength="9.8" x="237.65" y="673.3747">22</text><text fill="#000000" font-family="sans-serif" font-size="9.1" lengthAdjust="spacing" textLength="133" x="250.25" y="673.3747">displays message of (in)success</text><polygon fill="#181818" points="24.15,696.1623,17.15,698.9623,24.15,701.7623,21.35,698.9623" style="stroke:#181818;stroke-width:0.6999999999999998;"/><line style="stroke:#181818;stroke-width:0.6999999999999998;stroke-dasharray:2.0,2.0;" x1="19.95" x2="221.55" y1="698.9623" y2="698.9623"/><text fill="#000000" font-family="sans-serif" font-size="9.1" font-weight="bold" lengthAdjust="spacing" textLength="9.8" x="28.35" y="695.2784">23</text><text fill="#000000" font-family="sans-serif" font-size="9.1" lengthAdjust="spacing" textLength="133" x="40.95" y="695.2784">displays message of (in)success</text><!--SRC=[fLR1Zjem4BtdAqQSu41xHzfArRAga7RLQhDxsukR3C4YiTtOAShVTsnmOeSaOgaFa9WtRvx7yqRe8nUArQo2IWgP7MfP8PYwmKHtloYM7Lc1gMbBX1epmqHHXW1zOBaySL70dfKQayHmGz2qrGOhIF5FWo93s79MMFWoJRUh966DaQAfVcDDpvcHDIn-f2yBO1gUAbNA5Z4XViCphfWmiDZyajeeAV19cBfztpde-suEz2ZfKvObrWxy-FRwF82_efAQKtQEsc6wZJRbzfmaCWvnn3tgGsmmtd4qtmiKERER8z4lJ2cIDFBBzktdmbQ3_sK6-peaGCk_mVeR7HisbEQemKXGboC34-2q01TW3dWHuO8xJYgOsx2BM8ZBLeNO2ZHdl1L2rLYkEbmNx0hORTlbWebaf6ndpftGr30P1dGHvLYz8wHTO-phY_GDzMH_Xr5eZhUdyGVfBsw-9j4XWjk-qXuGhljgiuwsVURQJCcU8lPgetuQ4KpzD2awxiK8KqgfO4-M92M7KAljh3dfTiMQEf6sjKcXVuO7QbtwNWPqgokkWLXdZojGKAy05Y8eGnmsqDZVYu-VkvIPmftlnHjqb2mWYkratKYHdSqtD5ZbIJidbyG0Sk_iJTSQ6_n3C963AfaGc4DEp1hiZfyF6akQsa0J8Xa8yCFWQhISGtGtKUPdIAnwa9Q1m9DJzUdiFj2reZtl3LecsksButcmb5ilPQh1vljgV7esoYRelTVQB4iVzQbHElJq5VK8xQt6dl5ddp3qktKfFN4pbNKcyxHFR_DYeEDkAmu6-hcM_GLD3f__6EswoJBK-kkUyRAfyRxHxgsGSqt6RZLKH4bgxH1OSh6w9Bbdgjn2EN1fyDhz9_a7]--></g></svg>