<?xml version="1.0" encoding="us-ascii" standalone="no"?><svg xmlns="http://www.w3.org/2000/svg" xmlns:xlink="http://www.w3.org/1999/xlink" contentStyleType="text/css" height="684.5px" preserveAspectRatio="none" style="width:523px;height:684px;background:#FFFFFF;" version="1.1" viewBox="0 0 523 684" width="523.5px" zoomAndPan="magnify"><defs/><g><!--class PostponeEntryController--><g id="elem_PostponeEntryController"><rect codeLine="21" fill="#F1F1F1" height="61.2422" id="PostponeEntryController" rx="1.25" ry="1.25" style="stroke:#181818;stroke-width:0.25;" width="104" x="188.25" y="169.5"/><ellipse cx="200.475" cy="177.5" fill="#ADD1B2" rx="5.5" ry="5.5" style="stroke:#181818;stroke-width:0.5;"/><path d="M201.8578,175.4375 Q201.9359,175.3281 202.0297,175.2734 Q202.1234,175.2188 202.2328,175.2188 Q202.4203,175.2188 202.5375,175.3516 Q202.6547,175.4766 202.6547,175.7813 L202.6547,176.5078 Q202.6547,176.8125 202.5375,176.9453 Q202.4203,177.0781 202.2328,177.0781 Q202.0609,177.0781 201.9594,176.9766 Q201.8578,176.8828 201.8031,176.625 Q201.7797,176.4453 201.6859,176.3516 Q201.5219,176.1641 201.2172,176.0547 Q200.9125,175.9453 200.6,175.9453 Q200.2172,175.9453 199.8969,176.1094 Q199.5844,176.2734 199.3344,176.6484 Q199.0922,177.0234 199.0922,177.5391 L199.0922,178.0859 Q199.0922,178.7031 199.5375,179.1172 Q199.9828,179.5234 200.7797,179.5234 Q201.2484,179.5234 201.5766,179.3984 Q201.7719,179.3203 201.9828,179.1016 Q202.1156,178.9688 202.1859,178.9297 Q202.2641,178.8906 202.3656,178.8906 Q202.5297,178.8906 202.6547,179.0234 Q202.7875,179.1484 202.7875,179.3203 Q202.7875,179.4922 202.6156,179.6953 Q202.3656,179.9844 201.9672,180.1484 Q201.4281,180.375 200.7797,180.375 Q200.0219,180.375 199.4203,180.0625 Q198.9281,179.8125 198.5844,179.2813 Q198.2406,178.7422 198.2406,178.1016 L198.2406,177.5234 Q198.2406,176.8594 198.5453,176.2891 Q198.8578,175.7109 199.4047,175.4063 Q199.9516,175.0938 200.5688,175.0938 Q200.9359,175.0938 201.2563,175.1797 Q201.5844,175.2578 201.8578,175.4375 Z " fill="#000000"/><text fill="#000000" font-family="sans-serif" font-size="7" lengthAdjust="spacing" textLength="77.5" x="208.525" y="180.3984">PostponeEntryController</text><line style="stroke:#181818;stroke-width:0.25;" x1="188.75" x2="291.75" y1="185.5" y2="185.5"/><text fill="#000000" font-family="sans-serif" font-size="7" lengthAdjust="spacing" textLength="53" x="191.25" y="195.0537">-Agenda agenda</text><line style="stroke:#181818;stroke-width:0.25;" x1="188.75" x2="291.75" y1="198.8105" y2="198.8105"/><text fill="#000000" font-family="sans-serif" font-size="7" lengthAdjust="spacing" textLength="86.5" x="191.25" y="208.3643">+PostponeEntryController()</text><text fill="#000000" font-family="sans-serif" font-size="7" lengthAdjust="spacing" textLength="57" x="191.25" y="217.6748">-void getAgenda()</text><text fill="#000000" font-family="sans-serif" font-size="7" lengthAdjust="spacing" textLength="98" x="191.25" y="226.9854">+Entry displayAndSelectEntry()</text></g><!--class Agenda--><g id="elem_Agenda"><rect codeLine="51" fill="#F1F1F1" height="79.8633" id="Agenda" rx="1.25" ry="1.25" style="stroke:#181818;stroke-width:0.25;" width="110" x="123.25" y="352.5"/><ellipse cx="163.875" cy="360.5" fill="#ADD1B2" rx="5.5" ry="5.5" style="stroke:#181818;stroke-width:0.5;"/><path d="M165.2578,358.4375 Q165.3359,358.3281 165.4297,358.2734 Q165.5234,358.2188 165.6328,358.2188 Q165.8203,358.2188 165.9375,358.3516 Q166.0547,358.4766 166.0547,358.7813 L166.0547,359.5078 Q166.0547,359.8125 165.9375,359.9453 Q165.8203,360.0781 165.6328,360.0781 Q165.4609,360.0781 165.3594,359.9766 Q165.2578,359.8828 165.2031,359.625 Q165.1797,359.4453 165.0859,359.3516 Q164.9219,359.1641 164.6172,359.0547 Q164.3125,358.9453 164,358.9453 Q163.6172,358.9453 163.2969,359.1094 Q162.9844,359.2734 162.7344,359.6484 Q162.4922,360.0234 162.4922,360.5391 L162.4922,361.0859 Q162.4922,361.7031 162.9375,362.1172 Q163.3828,362.5234 164.1797,362.5234 Q164.6484,362.5234 164.9766,362.3984 Q165.1719,362.3203 165.3828,362.1016 Q165.5156,361.9688 165.5859,361.9297 Q165.6641,361.8906 165.7656,361.8906 Q165.9297,361.8906 166.0547,362.0234 Q166.1875,362.1484 166.1875,362.3203 Q166.1875,362.4922 166.0156,362.6953 Q165.7656,362.9844 165.3672,363.1484 Q164.8281,363.375 164.1797,363.375 Q163.4219,363.375 162.8203,363.0625 Q162.3281,362.8125 161.9844,362.2813 Q161.6406,361.7422 161.6406,361.1016 L161.6406,360.5234 Q161.6406,359.8594 161.9453,359.2891 Q162.2578,358.7109 162.8047,358.4063 Q163.3516,358.0938 163.9688,358.0938 Q164.3359,358.0938 164.6563,358.1797 Q164.9844,358.2578 165.2578,358.4375 Z " fill="#000000"/><text fill="#000000" font-family="sans-serif" font-size="7" lengthAdjust="spacing" textLength="24.5" x="174.125" y="363.3984">Agenda</text><line style="stroke:#181818;stroke-width:0.25;" x1="123.75" x2="232.75" y1="368.5" y2="368.5"/><text fill="#000000" font-family="sans-serif" font-size="7" lengthAdjust="spacing" textLength="97.5" x="126.25" y="378.0537">-static final List&lt;Entry&gt; agenda</text><line style="stroke:#181818;stroke-width:0.25;" x1="123.75" x2="232.75" y1="381.8105" y2="381.8105"/><text fill="#000000" font-family="sans-serif" font-size="7" lengthAdjust="spacing" textLength="87" x="126.25" y="391.3643">+void addEntry(Entry entry)</text><text fill="#000000" font-family="sans-serif" font-size="7" lengthAdjust="spacing" textLength="104" x="126.25" y="400.6748">+static void printEntryAt(int nList)</text><text fill="#000000" font-family="sans-serif" font-size="7" lengthAdjust="spacing" textLength="99.5" x="126.25" y="409.9854">+static List&lt;Entry&gt; getAgenda()</text><text fill="#000000" font-family="sans-serif" font-size="7" lengthAdjust="spacing" textLength="103.5" x="126.25" y="419.2959">+static Entry getEntryAt(int nList)</text><text fill="#000000" font-family="sans-serif" font-size="7" lengthAdjust="spacing" textLength="60" x="126.25" y="428.6064">+static int getSize()</text></g><!--class Repositories--><g id="elem_Repositories"><rect codeLine="87" fill="#F1F1F1" height="51.9316" id="Repositories" rx="1.25" ry="1.25" style="stroke:#181818;stroke-width:0.25;" width="133" x="173.75" y="270"/><ellipse cx="218.375" cy="278" fill="#ADD1B2" rx="5.5" ry="5.5" style="stroke:#181818;stroke-width:0.5;"/><path d="M219.7578,275.9375 Q219.8359,275.8281 219.9297,275.7734 Q220.0234,275.7188 220.1328,275.7188 Q220.3203,275.7188 220.4375,275.8516 Q220.5547,275.9766 220.5547,276.2813 L220.5547,277.0078 Q220.5547,277.3125 220.4375,277.4453 Q220.3203,277.5781 220.1328,277.5781 Q219.9609,277.5781 219.8594,277.4766 Q219.7578,277.3828 219.7031,277.125 Q219.6797,276.9453 219.5859,276.8516 Q219.4219,276.6641 219.1172,276.5547 Q218.8125,276.4453 218.5,276.4453 Q218.1172,276.4453 217.7969,276.6094 Q217.4844,276.7734 217.2344,277.1484 Q216.9922,277.5234 216.9922,278.0391 L216.9922,278.5859 Q216.9922,279.2031 217.4375,279.6172 Q217.8828,280.0234 218.6797,280.0234 Q219.1484,280.0234 219.4766,279.8984 Q219.6719,279.8203 219.8828,279.6016 Q220.0156,279.4688 220.0859,279.4297 Q220.1641,279.3906 220.2656,279.3906 Q220.4297,279.3906 220.5547,279.5234 Q220.6875,279.6484 220.6875,279.8203 Q220.6875,279.9922 220.5156,280.1953 Q220.2656,280.4844 219.8672,280.6484 Q219.3281,280.875 218.6797,280.875 Q217.9219,280.875 217.3203,280.5625 Q216.8281,280.3125 216.4844,279.7813 Q216.1406,279.2422 216.1406,278.6016 L216.1406,278.0234 Q216.1406,277.3594 216.4453,276.7891 Q216.7578,276.2109 217.3047,275.9063 Q217.8516,275.5938 218.4688,275.5938 Q218.8359,275.5938 219.1563,275.6797 Q219.4844,275.7578 219.7578,275.9375 Z " fill="#000000"/><text fill="#000000" font-family="sans-serif" font-size="7" lengthAdjust="spacing" textLength="39.5" x="228.625" y="280.8984">Repositories</text><line style="stroke:#181818;stroke-width:0.25;" x1="174.25" x2="306.25" y1="286" y2="286"/><line style="stroke:#181818;stroke-width:0.25;" x1="174.25" x2="306.25" y1="290" y2="290"/><text fill="#000000" font-family="sans-serif" font-size="7" lengthAdjust="spacing" textLength="45.5" x="176.75" y="299.5537">+getInstance()</text><text fill="#000000" font-family="sans-serif" font-size="7" lengthAdjust="spacing" textLength="72" x="176.75" y="308.8643">+getAgenda(): Agenda</text><text fill="#000000" font-family="sans-serif" font-size="7" lengthAdjust="spacing" textLength="127" x="176.75" y="318.1748">+getTeamRepository(): TeamRepository</text></g><!--class Entry--><g id="elem_Entry"><rect codeLine="29" fill="#F1F1F1" height="154.3477" id="Entry" rx="1.25" ry="1.25" style="stroke:#181818;stroke-width:0.25;" width="516.5" x="3.5" y="463"/><ellipse cx="251.375" cy="471" fill="#ADD1B2" rx="5.5" ry="5.5" style="stroke:#181818;stroke-width:0.5;"/><path d="M252.7578,468.9375 Q252.8359,468.8281 252.9297,468.7734 Q253.0234,468.7188 253.1328,468.7188 Q253.3203,468.7188 253.4375,468.8516 Q253.5547,468.9766 253.5547,469.2813 L253.5547,470.0078 Q253.5547,470.3125 253.4375,470.4453 Q253.3203,470.5781 253.1328,470.5781 Q252.9609,470.5781 252.8594,470.4766 Q252.7578,470.3828 252.7031,470.125 Q252.6797,469.9453 252.5859,469.8516 Q252.4219,469.6641 252.1172,469.5547 Q251.8125,469.4453 251.5,469.4453 Q251.1172,469.4453 250.7969,469.6094 Q250.4844,469.7734 250.2344,470.1484 Q249.9922,470.5234 249.9922,471.0391 L249.9922,471.5859 Q249.9922,472.2031 250.4375,472.6172 Q250.8828,473.0234 251.6797,473.0234 Q252.1484,473.0234 252.4766,472.8984 Q252.6719,472.8203 252.8828,472.6016 Q253.0156,472.4688 253.0859,472.4297 Q253.1641,472.3906 253.2656,472.3906 Q253.4297,472.3906 253.5547,472.5234 Q253.6875,472.6484 253.6875,472.8203 Q253.6875,472.9922 253.5156,473.1953 Q253.2656,473.4844 252.8672,473.6484 Q252.3281,473.875 251.6797,473.875 Q250.9219,473.875 250.3203,473.5625 Q249.8281,473.3125 249.4844,472.7813 Q249.1406,472.2422 249.1406,471.6016 L249.1406,471.0234 Q249.1406,470.3594 249.4453,469.7891 Q249.7578,469.2109 250.3047,468.9063 Q250.8516,468.5938 251.4688,468.5938 Q251.8359,468.5938 252.1563,468.6797 Q252.4844,468.7578 252.7578,468.9375 Z " fill="#000000"/><text fill="#000000" font-family="sans-serif" font-size="7" lengthAdjust="spacing" textLength="16.5" x="261.625" y="473.8984">Entry</text><line style="stroke:#181818;stroke-width:0.25;" x1="4" x2="519.5" y1="479" y2="479"/><text fill="#000000" font-family="sans-serif" font-size="7" lengthAdjust="spacing" textLength="52.5" x="6.5" y="488.5537">-String entryTitle</text><text fill="#000000" font-family="sans-serif" font-size="7" lengthAdjust="spacing" textLength="47.5" x="6.5" y="497.8643">-Calendar date</text><text fill="#000000" font-family="sans-serif" font-size="7" lengthAdjust="spacing" textLength="38" x="6.5" y="507.1748">-Team team</text><line style="stroke:#181818;stroke-width:0.25;" x1="4" x2="519.5" y1="510.9316" y2="510.9316"/><text fill="#000000" font-family="sans-serif" font-size="7" lengthAdjust="spacing" textLength="510.5" x="6.5" y="520.4854">+Entry(String state, String description, String urgency, String entryTitle, int duration, Calendar date, List&lt;Vehicle&gt; vehicles, Team team, GreenSpace greenSpace)</text><text fill="#000000" font-family="sans-serif" font-size="7" lengthAdjust="spacing" textLength="397.5" x="6.5" y="529.7959">+Entry(String state, String description, String urgency, String entryTitle, int duration, Calendar date, GreenSpace greenSpace)</text><text fill="#000000" font-family="sans-serif" font-size="7" lengthAdjust="spacing" textLength="87" x="6.5" y="539.1064">+void setTeam(Team team)</text><text fill="#000000" font-family="sans-serif" font-size="7" lengthAdjust="spacing" textLength="69.5" x="6.5" y="548.417">+String getEntryTitle()</text><text fill="#000000" font-family="sans-serif" font-size="7" lengthAdjust="spacing" textLength="81.5" x="6.5" y="557.7275">+String getDateToString()</text><text fill="#000000" font-family="sans-serif" font-size="7" lengthAdjust="spacing" textLength="57" x="6.5" y="567.0381">+Team getTeam()</text><text fill="#000000" font-family="sans-serif" font-size="7" lengthAdjust="spacing" textLength="93.5" x="6.5" y="576.3486">+void setDate(Calendar date)</text><text fill="#000000" font-family="sans-serif" font-size="7" lengthAdjust="spacing" textLength="65" x="6.5" y="585.6592">+Calendar getDate()</text><text fill="#000000" font-family="sans-serif" font-size="7" lengthAdjust="spacing" textLength="79.5" x="6.5" y="594.9697">+Calendar validateDate()</text><text fill="#000000" font-family="sans-serif" font-size="7" lengthAdjust="spacing" textLength="109.5" x="6.5" y="604.2803">+Calendar validatePostponeDate()</text><text fill="#000000" font-family="sans-serif" font-size="7" lengthAdjust="spacing" textLength="54" x="6.5" y="613.5908">+String toString()</text></g><!--class Team--><g id="elem_Team"><rect codeLine="46" fill="#F1F1F1" height="33.3105" id="Team" rx="1.25" ry="1.25" style="stroke:#181818;stroke-width:0.25;" width="132" x="195.75" y="648"/><ellipse cx="250.625" cy="656" fill="#ADD1B2" rx="5.5" ry="5.5" style="stroke:#181818;stroke-width:0.5;"/><path d="M252.0078,653.9375 Q252.0859,653.8281 252.1797,653.7734 Q252.2734,653.7188 252.3828,653.7188 Q252.5703,653.7188 252.6875,653.8516 Q252.8047,653.9766 252.8047,654.2813 L252.8047,655.0078 Q252.8047,655.3125 252.6875,655.4453 Q252.5703,655.5781 252.3828,655.5781 Q252.2109,655.5781 252.1094,655.4766 Q252.0078,655.3828 251.9531,655.125 Q251.9297,654.9453 251.8359,654.8516 Q251.6719,654.6641 251.3672,654.5547 Q251.0625,654.4453 250.75,654.4453 Q250.3672,654.4453 250.0469,654.6094 Q249.7344,654.7734 249.4844,655.1484 Q249.2422,655.5234 249.2422,656.0391 L249.2422,656.5859 Q249.2422,657.2031 249.6875,657.6172 Q250.1328,658.0234 250.9297,658.0234 Q251.3984,658.0234 251.7266,657.8984 Q251.9219,657.8203 252.1328,657.6016 Q252.2656,657.4688 252.3359,657.4297 Q252.4141,657.3906 252.5156,657.3906 Q252.6797,657.3906 252.8047,657.5234 Q252.9375,657.6484 252.9375,657.8203 Q252.9375,657.9922 252.7656,658.1953 Q252.5156,658.4844 252.1172,658.6484 Q251.5781,658.875 250.9297,658.875 Q250.1719,658.875 249.5703,658.5625 Q249.0781,658.3125 248.7344,657.7813 Q248.3906,657.2422 248.3906,656.6016 L248.3906,656.0234 Q248.3906,655.3594 248.6953,654.7891 Q249.0078,654.2109 249.5547,653.9063 Q250.1016,653.5938 250.7188,653.5938 Q251.0859,653.5938 251.4063,653.6797 Q251.7344,653.7578 252.0078,653.9375 Z " fill="#000000"/><text fill="#000000" font-family="sans-serif" font-size="7" lengthAdjust="spacing" textLength="18" x="260.875" y="658.8984">Team</text><line style="stroke:#181818;stroke-width:0.25;" x1="196.25" x2="327.25" y1="664" y2="664"/><line style="stroke:#181818;stroke-width:0.25;" x1="196.25" x2="327.25" y1="668" y2="668"/><text fill="#000000" font-family="sans-serif" font-size="7" lengthAdjust="spacing" textLength="126" x="198.75" y="677.5537">+List&lt;Collaborator&gt; getTeamMembers()</text></g><!--class PostponeEntryUI--><g id="elem_PostponeEntryUI"><rect codeLine="60" fill="#F1F1F1" height="107.7949" id="PostponeEntryUI" rx="1.25" ry="1.25" style="stroke:#181818;stroke-width:0.25;" width="134" x="84.25" y="17.25"/><ellipse cx="122.875" cy="25.25" fill="#ADD1B2" rx="5.5" ry="5.5" style="stroke:#181818;stroke-width:0.5;"/><path d="M124.2578,23.1875 Q124.3359,23.0781 124.4297,23.0234 Q124.5234,22.9688 124.6328,22.9688 Q124.8203,22.9688 124.9375,23.1016 Q125.0547,23.2266 125.0547,23.5313 L125.0547,24.2578 Q125.0547,24.5625 124.9375,24.6953 Q124.8203,24.8281 124.6328,24.8281 Q124.4609,24.8281 124.3594,24.7266 Q124.2578,24.6328 124.2031,24.375 Q124.1797,24.1953 124.0859,24.1016 Q123.9219,23.9141 123.6172,23.8047 Q123.3125,23.6953 123,23.6953 Q122.6172,23.6953 122.2969,23.8594 Q121.9844,24.0234 121.7344,24.3984 Q121.4922,24.7734 121.4922,25.2891 L121.4922,25.8359 Q121.4922,26.4531 121.9375,26.8672 Q122.3828,27.2734 123.1797,27.2734 Q123.6484,27.2734 123.9766,27.1484 Q124.1719,27.0703 124.3828,26.8516 Q124.5156,26.7188 124.5859,26.6797 Q124.6641,26.6406 124.7656,26.6406 Q124.9297,26.6406 125.0547,26.7734 Q125.1875,26.8984 125.1875,27.0703 Q125.1875,27.2422 125.0156,27.4453 Q124.7656,27.7344 124.3672,27.8984 Q123.8281,28.125 123.1797,28.125 Q122.4219,28.125 121.8203,27.8125 Q121.3281,27.5625 120.9844,27.0313 Q120.6406,26.4922 120.6406,25.8516 L120.6406,25.2734 Q120.6406,24.6094 120.9453,24.0391 Q121.2578,23.4609 121.8047,23.1563 Q122.3516,22.8438 122.9688,22.8438 Q123.3359,22.8438 123.6563,22.9297 Q123.9844,23.0078 124.2578,23.1875 Z " fill="#000000"/><text fill="#000000" font-family="sans-serif" font-size="7" lengthAdjust="spacing" textLength="52.5" x="133.125" y="28.1484">PostponeEntryUI</text><line style="stroke:#181818;stroke-width:0.25;" x1="84.75" x2="217.75" y1="33.25" y2="33.25"/><text fill="#000000" font-family="sans-serif" font-size="7" lengthAdjust="spacing" textLength="111.5" x="87.25" y="42.8037">-PostponeEntryController controller</text><text fill="#000000" font-family="sans-serif" font-size="7" lengthAdjust="spacing" textLength="37" x="87.25" y="52.1143">-Entry entry</text><text fill="#000000" font-family="sans-serif" font-size="7" lengthAdjust="spacing" textLength="61" x="87.25" y="61.4248">-Calendar newDate</text><line style="stroke:#181818;stroke-width:0.25;" x1="84.75" x2="217.75" y1="65.1816" y2="65.1816"/><text fill="#000000" font-family="sans-serif" font-size="7" lengthAdjust="spacing" textLength="61.5" x="87.25" y="74.7354">+PostponeEntryUI()</text><text fill="#000000" font-family="sans-serif" font-size="7" lengthAdjust="spacing" textLength="34.5" x="87.25" y="84.0459">+void run()</text><text fill="#000000" font-family="sans-serif" font-size="7" lengthAdjust="spacing" textLength="128" x="87.25" y="93.3564">-PostponeEntryController getController()</text><text fill="#000000" font-family="sans-serif" font-size="7" lengthAdjust="spacing" textLength="61.5" x="87.25" y="102.667">-void requestData()</text><text fill="#000000" font-family="sans-serif" font-size="7" lengthAdjust="spacing" textLength="58" x="87.25" y="111.9775">-void submitData()</text><text fill="#000000" font-family="sans-serif" font-size="7" lengthAdjust="spacing" textLength="64" x="87.25" y="121.2881">-void confirmsData()</text></g><!--class TeamRepository--><g id="elem_TeamRepository"><rect fill="#F1F1F1" height="24" id="TeamRepository" rx="1.25" ry="1.25" style="stroke:#181818;stroke-width:0.25;" width="68" x="250.75" y="380.5"/><ellipse cx="258.25" cy="388.5" fill="#ADD1B2" rx="5.5" ry="5.5" style="stroke:#181818;stroke-width:0.5;"/><path d="M259.6328,386.4375 Q259.7109,386.3281 259.8047,386.2734 Q259.8984,386.2188 260.0078,386.2188 Q260.1953,386.2188 260.3125,386.3516 Q260.4297,386.4766 260.4297,386.7813 L260.4297,387.5078 Q260.4297,387.8125 260.3125,387.9453 Q260.1953,388.0781 260.0078,388.0781 Q259.8359,388.0781 259.7344,387.9766 Q259.6328,387.8828 259.5781,387.625 Q259.5547,387.4453 259.4609,387.3516 Q259.2969,387.1641 258.9922,387.0547 Q258.6875,386.9453 258.375,386.9453 Q257.9922,386.9453 257.6719,387.1094 Q257.3594,387.2734 257.1094,387.6484 Q256.8672,388.0234 256.8672,388.5391 L256.8672,389.0859 Q256.8672,389.7031 257.3125,390.1172 Q257.7578,390.5234 258.5547,390.5234 Q259.0234,390.5234 259.3516,390.3984 Q259.5469,390.3203 259.7578,390.1016 Q259.8906,389.9688 259.9609,389.9297 Q260.0391,389.8906 260.1406,389.8906 Q260.3047,389.8906 260.4297,390.0234 Q260.5625,390.1484 260.5625,390.3203 Q260.5625,390.4922 260.3906,390.6953 Q260.1406,390.9844 259.7422,391.1484 Q259.2031,391.375 258.5547,391.375 Q257.7969,391.375 257.1953,391.0625 Q256.7031,390.8125 256.3594,390.2813 Q256.0156,389.7422 256.0156,389.1016 L256.0156,388.5234 Q256.0156,387.8594 256.3203,387.2891 Q256.6328,386.7109 257.1797,386.4063 Q257.7266,386.0938 258.3438,386.0938 Q258.7109,386.0938 259.0313,386.1797 Q259.3594,386.2578 259.6328,386.4375 Z " fill="#000000"/><text fill="#000000" font-family="sans-serif" font-size="7" lengthAdjust="spacing" textLength="52" x="265.25" y="391.3984">TeamRepository</text><line style="stroke:#181818;stroke-width:0.25;" x1="251.25" x2="318.25" y1="396.5" y2="396.5"/><line style="stroke:#181818;stroke-width:0.25;" x1="251.25" x2="318.25" y1="400.5" y2="400.5"/></g><!--class PostponeEntryUI_fx--><g id="elem_PostponeEntryUI_fx"><rect codeLine="72" fill="#F1F1F1" height="135.7266" id="PostponeEntryUI_fx" rx="1.25" ry="1.25" style="stroke:#181818;stroke-width:0.25;" width="187" x="235.75" y="3.5"/><ellipse cx="296.375" cy="11.5" fill="#ADD1B2" rx="5.5" ry="5.5" style="stroke:#181818;stroke-width:0.5;"/><path d="M297.7578,9.4375 Q297.8359,9.3281 297.9297,9.2734 Q298.0234,9.2188 298.1328,9.2188 Q298.3203,9.2188 298.4375,9.3516 Q298.5547,9.4766 298.5547,9.7813 L298.5547,10.5078 Q298.5547,10.8125 298.4375,10.9453 Q298.3203,11.0781 298.1328,11.0781 Q297.9609,11.0781 297.8594,10.9766 Q297.7578,10.8828 297.7031,10.625 Q297.6797,10.4453 297.5859,10.3516 Q297.4219,10.1641 297.1172,10.0547 Q296.8125,9.9453 296.5,9.9453 Q296.1172,9.9453 295.7969,10.1094 Q295.4844,10.2734 295.2344,10.6484 Q294.9922,11.0234 294.9922,11.5391 L294.9922,12.0859 Q294.9922,12.7031 295.4375,13.1172 Q295.8828,13.5234 296.6797,13.5234 Q297.1484,13.5234 297.4766,13.3984 Q297.6719,13.3203 297.8828,13.1016 Q298.0156,12.9688 298.0859,12.9297 Q298.1641,12.8906 298.2656,12.8906 Q298.4297,12.8906 298.5547,13.0234 Q298.6875,13.1484 298.6875,13.3203 Q298.6875,13.4922 298.5156,13.6953 Q298.2656,13.9844 297.8672,14.1484 Q297.3281,14.375 296.6797,14.375 Q295.9219,14.375 295.3203,14.0625 Q294.8281,13.8125 294.4844,13.2813 Q294.1406,12.7422 294.1406,12.1016 L294.1406,11.5234 Q294.1406,10.8594 294.4453,10.2891 Q294.7578,9.7109 295.3047,9.4063 Q295.8516,9.0938 296.4688,9.0938 Q296.8359,9.0938 297.1563,9.1797 Q297.4844,9.2578 297.7578,9.4375 Z " fill="#000000"/><text fill="#000000" font-family="sans-serif" font-size="7" lengthAdjust="spacing" textLength="61.5" x="306.625" y="14.3984">PostponeEntryUI_fx</text><line style="stroke:#181818;stroke-width:0.25;" x1="236.25" x2="422.25" y1="19.5" y2="19.5"/><text fill="#000000" font-family="sans-serif" font-size="7" lengthAdjust="spacing" textLength="103.5" x="238.75" y="29.0537">-ListView&lt;String&gt; entriesListView</text><text fill="#000000" font-family="sans-serif" font-size="7" lengthAdjust="spacing" textLength="61.5" x="238.75" y="38.3643">-List&lt;Entry&gt; entries</text><text fill="#000000" font-family="sans-serif" font-size="7" lengthAdjust="spacing" textLength="60" x="238.75" y="47.6748">-List&lt;String&gt; hours</text><text fill="#000000" font-family="sans-serif" font-size="7" lengthAdjust="spacing" textLength="45" x="238.75" y="56.9854">-Button button</text><text fill="#000000" font-family="sans-serif" font-size="7" lengthAdjust="spacing" textLength="89.5" x="238.75" y="66.2959">-Label operationStatusLabel</text><text fill="#000000" font-family="sans-serif" font-size="7" lengthAdjust="spacing" textLength="103" x="238.75" y="75.6064">-DatePicker postponeDatePicker</text><text fill="#000000" font-family="sans-serif" font-size="7" lengthAdjust="spacing" textLength="86" x="238.75" y="84.917">-ChoiceBox hourChoiceBox</text><line style="stroke:#181818;stroke-width:0.25;" x1="236.25" x2="422.25" y1="88.6738" y2="88.6738"/><text fill="#000000" font-family="sans-serif" font-size="7" lengthAdjust="spacing" textLength="180.5" x="238.75" y="98.2275">+void initialize(URL url, ResourceBundle resourceBundle)</text><text fill="#000000" font-family="sans-serif" font-size="7" lengthAdjust="spacing" textLength="97.5" x="238.75" y="107.5381">-void populateEntriesListView()</text><text fill="#000000" font-family="sans-serif" font-size="7" lengthAdjust="spacing" textLength="94" x="238.75" y="116.8486">-void populateHoursListView()</text><text fill="#000000" font-family="sans-serif" font-size="7" lengthAdjust="spacing" textLength="74" x="238.75" y="126.1592">-void postponingEntry()</text><text fill="#000000" font-family="sans-serif" font-size="7" lengthAdjust="spacing" textLength="181" x="238.75" y="135.4697">-Calendar localDateToCalendar(LocalDate selectedDate)</text></g><!--link PostponeEntryController to Agenda--><g id="link_PostponeEntryController_Agenda"><path codeLine="10" d="M207.575,230.58 C187.17,249.365 164.75,270 164.75,270 C164.75,270 164.75,322 164.75,322 C164.75,322 167.0024,333.6742 170.0624,349.5542 " fill="none" id="PostponeEntryController-to-Agenda" style="stroke:#181818;stroke-width:0.5;"/><polygon fill="#181818" points="170.63,352.5,171.7424,347.7029,170.157,350.0452,167.8147,348.4597,170.63,352.5" style="stroke:#181818;stroke-width:0.5;"/></g><!--link PostponeEntryController to Repositories--><g id="link_PostponeEntryController_Repositories"><path codeLine="11" d="M240.25,230.56 C240.25,243.225 240.25,254.81 240.25,266.95 " fill="none" id="PostponeEntryController-to-Repositories" style="stroke:#181818;stroke-width:0.5;stroke-dasharray:7.0,7.0;"/><polygon fill="#181818" points="240.25,269.95,242.25,265.45,240.25,267.45,238.25,265.45,240.25,269.95" style="stroke:#181818;stroke-width:0.5;"/><text fill="#000000" font-family="sans-serif" font-size="6.5" lengthAdjust="spacing" textLength="33.5" x="240.75" y="253.0142">repositories</text></g><!--link PostponeEntryController to Entry--><g id="link_PostponeEntryController_Entry"><path codeLine="12" d="M290.02,230.58 C321.1,249.365 355.25,270 355.25,270 C355.25,270 355.25,322 355.25,322 C355.25,322 327.75,432.5 327.75,432.5 C327.75,432.5 321.1675,443.2001 310.5875,460.3901 " fill="none" id="PostponeEntryController-to-Entry" style="stroke:#181818;stroke-width:0.5;"/><polygon fill="#181818" points="309.015,462.945,313.0769,460.161,310.3254,460.8159,309.6704,458.0644,309.015,462.945" style="stroke:#181818;stroke-width:0.5;"/></g><!--link Entry to Team--><g id="link_Entry_Team"><path codeLine="13" d="M261.75,617.56 C261.75,628.94 261.75,636.595 261.75,644.84 " fill="none" id="Entry-to-Team" style="stroke:#181818;stroke-width:0.5;"/><polygon fill="#181818" points="261.75,647.84,263.75,643.34,261.75,645.34,259.75,643.34,261.75,647.84" style="stroke:#181818;stroke-width:0.5;"/></g><!--link PostponeEntryUI to PostponeEntryController--><g id="link_PostponeEntryUI_PostponeEntryController"><path codeLine="14" d="M188.605,125.37 C199.075,140.395 208.3648,153.7337 217.5148,166.8637 " fill="none" id="PostponeEntryUI-to-PostponeEntryController" style="stroke:#181818;stroke-width:0.5;stroke-dasharray:7.0,7.0;"/><polygon fill="#181818" points="219.23,169.325,218.298,164.4896,217.8006,167.2739,215.0163,166.7765,219.23,169.325" style="stroke:#181818;stroke-width:0.5;"/></g><!--link Repositories to Agenda--><g id="link_Repositories_Agenda"><path codeLine="15" d="M223.635,322.09 C217.575,331.43 212.2037,339.7039 205.5387,349.9689 " fill="none" id="Repositories-to-Agenda" style="stroke:#181818;stroke-width:0.5;"/><polygon fill="#181818" points="203.905,352.485,208.033,349.7999,205.2664,350.3882,204.6781,347.6216,203.905,352.485" style="stroke:#181818;stroke-width:0.5;"/><text fill="#000000" font-family="sans-serif" font-size="6.5" lengthAdjust="spacing" textLength="3.5" x="202.6087" y="346.9315">1</text></g><!--link Repositories to TeamRepository--><g id="link_Repositories_TeamRepository"><path codeLine="16" d="M252.175,322.09 C261.03,341.1 271.4226,363.4058 278.1226,377.7808 " fill="none" id="Repositories-to-TeamRepository" style="stroke:#181818;stroke-width:0.5;"/><polygon fill="#181818" points="279.39,380.5,279.3017,375.5764,278.3339,378.234,275.6762,377.2662,279.39,380.5" style="stroke:#181818;stroke-width:0.5;"/><text fill="#000000" font-family="sans-serif" font-size="6.5" lengthAdjust="spacing" textLength="3.5" x="274.0681" y="374.8687">1</text></g><!--reverse link Repositories to Repositories--><g id="link_Repositories_Repositories"><path codeLine="17" d="M309.7796,289.2584 C320.1596,290.3134 324.25,292.355 324.25,296 C324.25,299.645 317.175,301.99 306.795,303.045 " fill="none" id="Repositories-backto-Repositories" style="stroke:#181818;stroke-width:0.5;"/><polygon fill="#181818" points="306.795,288.955,311.0697,291.3998,309.2822,289.2078,311.4742,287.4203,306.795,288.955" style="stroke:#181818;stroke-width:0.5;"/><text fill="#000000" font-family="sans-serif" font-size="6.5" lengthAdjust="spacing" textLength="24.5" x="327.25" y="298.7642">instance</text></g><!--link PostponeEntryUI_fx to PostponeEntryController--><g id="link_PostponeEntryUI_fx_PostponeEntryController"><path codeLine="18" d="M282.275,139.18 C274.88,149.795 269.2904,157.8188 262.8954,166.9938 " fill="none" id="PostponeEntryUI_fx-to-PostponeEntryController" style="stroke:#181818;stroke-width:0.5;stroke-dasharray:7.0,7.0;"/><polygon fill="#181818" points="261.18,169.455,265.3939,166.9069,262.6095,167.404,262.1124,164.6196,261.18,169.455" style="stroke:#181818;stroke-width:0.5;"/></g><!--link Agenda to Entry--><g id="link_Agenda_Entry"><path codeLine="19" d="M200.735,432.52 C206.12,441.985 210.5706,449.808 216.5606,460.328 " fill="none" id="Agenda-to-Entry" style="stroke:#181818;stroke-width:0.5;"/><polygon fill="#181818" points="218.045,462.935,217.5564,458.0349,216.808,460.7625,214.0804,460.0141,218.045,462.935" style="stroke:#181818;stroke-width:0.5;"/></g><!--SRC=[lLR9Rjim4BthAuXSei1sq5w3m82pe0sG0a6Sz5hGqbWcGf4gIILnY_nxXuiaIfQSMtsmpPatdErno5FzmaH55Ir9AONCTagMG8og8Uaq5SrUQ05hi-T056I6YeB70BsZkNnZeY1RodMiuKo0sLT0AidtTf6SZYYbCZ8ooZZLUcMCOflQm5qcnPhz0V8bEUMmDSH8ebYnCoHdDXWcHP8a3rARIWgu5KRjhoL-Iyv1aSLYILO5Y9nEGixFb-GHAgcPaOg19XUOPBSykhMJ9UxRhP-0bds3vpldO6AJfEVOxd3ozQG9U5HdFRIAVHzpkLWCCs52Oxio60RrQ_j-D2uVGfHZGdnVfYp8NqJupo8OKvz68vvDMAPddUMhP3afmFWT8itCrpXdkk9qlnBv6ZWstqa3x2D9tAyFq-EZeDR89sGeMFaJCqZWLdLDkNMdI4vD9BQb9iPsj1z56hR2oXgOax3AGMUALPQFhQnMc4UsRzUTypbs1XbSA-eDUY7CoJtJvl8dx5Z6OKbU_Hyz9sr8S_9D0OWrdaqWHVltxF-7-baShgKQZ0qzRUEF0C4XTlsszPcEwc_GuPFqwnZXTYs2Yn7NrYxjXHs1Mdbma8xfNYbdrkvJGCFn8J0aOVhHVyICTLbqX9qv3bpZ4Q4RYRMNQjda-0FA3IWzoljmzYBYszwpZ6oPeDmJozLvUN0-NRbeddlc-0FaQ13b4JPpq0epyJrRcTHoHDZT3y6npz6p7N3UOyE3utjQ5IBjnJ1Mo-48ZienDR-oRlYrsAW68zD2mDjDF31c0wy7L5IrY8VTL2IOrv7fgE1t3TfIbHxeTBqfsRWAqzioLUf8UQnYzdw8YcQRy9F1swMdxzBL16-OHjv7DiqEe86osM8dQnNfhcfZf20RznEPq0rm8YlmusUDxQ-r4tOOsuK7bhrWxQhe_7bHrBYTP1bSoNVdkbqDciG4CmnFCnBh-V4UvoAVuwMgqGBHjSZT6oXU3YjToQhcwFwsNw9q2lVTrk48oYM45OllkZuHkSmezyEnaQNtZGm7eBqf8RzfvnustZSzVYpuRi-GV7VXpH1ypU93Uz4yJbfD_q5Y4OCdYlFu3m00]--></g></svg>