<?xml version="1.0" encoding="us-ascii" standalone="no"?><svg xmlns="http://www.w3.org/2000/svg" xmlns:xlink="http://www.w3.org/1999/xlink" contentStyleType="text/css" height="971.6px" preserveAspectRatio="none" style="width:713px;height:971px;background:#FFFFFF;" version="1.1" viewBox="0 0 713 971" width="713.3px" zoomAndPan="magnify"><defs/><g><!--class EntryController--><g id="elem_EntryController"><rect codeLine="20" fill="#F1F1F1" height="98.7738" id="EntryController" rx="1.75" ry="1.75" style="stroke:#181818;stroke-width:0.3499999999999999;" width="240.1" x="206.5" y="237.3"/><ellipse cx="290.325" cy="248.5" fill="#ADD1B2" rx="7.7" ry="7.7" style="stroke:#181818;stroke-width:0.6999999999999998;"/><path d="M292.2609,245.6125 Q292.3703,245.4594 292.5016,245.3828 Q292.6328,245.3062 292.7859,245.3062 Q293.0484,245.3062 293.2125,245.4922 Q293.3766,245.6672 293.3766,246.0937 L293.3766,247.1109 Q293.3766,247.5375 293.2125,247.7234 Q293.0484,247.9094 292.7859,247.9094 Q292.5453,247.9094 292.4031,247.7672 Q292.2609,247.6359 292.1844,247.275 Q292.1516,247.0234 292.0203,246.8922 Q291.7906,246.6297 291.3641,246.4766 Q290.9375,246.3234 290.5,246.3234 Q289.9641,246.3234 289.5156,246.5531 Q289.0781,246.7828 288.7281,247.3078 Q288.3891,247.8328 288.3891,248.5547 L288.3891,249.3203 Q288.3891,250.1844 289.0125,250.7641 Q289.6359,251.3328 290.7516,251.3328 Q291.4078,251.3328 291.8672,251.1578 Q292.1406,251.0484 292.4359,250.7422 Q292.6219,250.5562 292.7203,250.5016 Q292.8297,250.4469 292.9719,250.4469 Q293.2016,250.4469 293.3766,250.6328 Q293.5625,250.8078 293.5625,251.0484 Q293.5625,251.2891 293.3219,251.5734 Q292.9719,251.9781 292.4141,252.2078 Q291.6594,252.525 290.7516,252.525 Q289.6906,252.525 288.8484,252.0875 Q288.1594,251.7375 287.6781,250.9937 Q287.1969,250.2391 287.1969,249.3422 L287.1969,248.5328 Q287.1969,247.6031 287.6234,246.8047 Q288.0609,245.9953 288.8266,245.5687 Q289.5922,245.1312 290.4562,245.1312 Q290.9703,245.1312 291.4187,245.2516 Q291.8781,245.3609 292.2609,245.6125 Z " fill="#000000"/><text fill="#000000" font-family="sans-serif" font-size="9.8" lengthAdjust="spacing" textLength="66.5" x="304.675" y="252.5578">EntryController</text><line style="stroke:#181818;stroke-width:0.3499999999999999;" x1="207.2" x2="445.9" y1="259.7" y2="259.7"/><text fill="#000000" font-family="sans-serif" font-size="9.8" lengthAdjust="spacing" textLength="74.2" x="210.7" y="273.0752">-Agenda agenda</text><line style="stroke:#181818;stroke-width:0.3499999999999999;" x1="207.2" x2="445.9" y1="278.3348" y2="278.3348"/><text fill="#000000" font-family="sans-serif" font-size="9.8" lengthAdjust="spacing" textLength="79.1" x="210.7" y="291.71">+EntryController()</text><text fill="#000000" font-family="sans-serif" font-size="9.8" lengthAdjust="spacing" textLength="79.8" x="210.7" y="304.7447">-void getAgenda()</text><text fill="#000000" font-family="sans-serif" font-size="9.8" lengthAdjust="spacing" textLength="137.2" x="210.7" y="317.7795">+Entry displayAndSelectEntry()</text><text fill="#000000" font-family="sans-serif" font-size="9.8" lengthAdjust="spacing" textLength="231.7" x="210.7" y="330.8143">+boolean postponeEntry(Entry entry, Date newDate)</text></g><!--class Agenda--><g id="elem_Agenda"><rect codeLine="49" fill="#F1F1F1" height="111.8086" id="Agenda" rx="1.75" ry="1.75" style="stroke:#181818;stroke-width:0.3499999999999999;" width="154" x="162.75" y="506.8"/><ellipse cx="219.625" cy="518" fill="#ADD1B2" rx="7.7" ry="7.7" style="stroke:#181818;stroke-width:0.6999999999999998;"/><path d="M221.5609,515.1125 Q221.6703,514.9594 221.8016,514.8828 Q221.9328,514.8062 222.0859,514.8062 Q222.3484,514.8062 222.5125,514.9922 Q222.6766,515.1672 222.6766,515.5937 L222.6766,516.6109 Q222.6766,517.0375 222.5125,517.2234 Q222.3484,517.4094 222.0859,517.4094 Q221.8453,517.4094 221.7031,517.2672 Q221.5609,517.1359 221.4844,516.775 Q221.4516,516.5234 221.3203,516.3922 Q221.0906,516.1297 220.6641,515.9766 Q220.2375,515.8234 219.8,515.8234 Q219.2641,515.8234 218.8156,516.0531 Q218.3781,516.2828 218.0281,516.8078 Q217.6891,517.3328 217.6891,518.0547 L217.6891,518.8203 Q217.6891,519.6844 218.3125,520.2641 Q218.9359,520.8328 220.0516,520.8328 Q220.7078,520.8328 221.1672,520.6578 Q221.4406,520.5484 221.7359,520.2422 Q221.9219,520.0562 222.0203,520.0016 Q222.1297,519.9469 222.2719,519.9469 Q222.5016,519.9469 222.6766,520.1328 Q222.8625,520.3078 222.8625,520.5484 Q222.8625,520.7891 222.6219,521.0734 Q222.2719,521.4781 221.7141,521.7078 Q220.9594,522.025 220.0516,522.025 Q218.9906,522.025 218.1484,521.5875 Q217.4594,521.2375 216.9781,520.4937 Q216.4969,519.7391 216.4969,518.8422 L216.4969,518.0328 Q216.4969,517.1031 216.9234,516.3047 Q217.3609,515.4953 218.1266,515.0687 Q218.8922,514.6312 219.7562,514.6312 Q220.2703,514.6312 220.7187,514.7516 Q221.1781,514.8609 221.5609,515.1125 Z " fill="#000000"/><text fill="#000000" font-family="sans-serif" font-size="9.8" lengthAdjust="spacing" textLength="34.3" x="233.975" y="522.0578">Agenda</text><line style="stroke:#181818;stroke-width:0.3499999999999999;" x1="163.45" x2="316.05" y1="529.2" y2="529.2"/><text fill="#000000" font-family="sans-serif" font-size="9.8" lengthAdjust="spacing" textLength="136.5" x="166.95" y="542.5752">-static final List&lt;Entry&gt; agenda</text><line style="stroke:#181818;stroke-width:0.3499999999999999;" x1="163.45" x2="316.05" y1="547.8348" y2="547.8348"/><text fill="#000000" font-family="sans-serif" font-size="9.8" lengthAdjust="spacing" textLength="121.8" x="166.95" y="561.21">+void addEntry(Entry entry)</text><text fill="#000000" font-family="sans-serif" font-size="9.8" lengthAdjust="spacing" textLength="145.6" x="166.95" y="574.2447">+static void printEntryAt(int nList)</text><text fill="#000000" font-family="sans-serif" font-size="9.8" lengthAdjust="spacing" textLength="139.3" x="166.95" y="587.2795">+static List&lt;Entry&gt; getAgenda()</text><text fill="#000000" font-family="sans-serif" font-size="9.8" lengthAdjust="spacing" textLength="144.9" x="166.95" y="600.3143">+static Entry getEntryAt(int nList)</text><text fill="#000000" font-family="sans-serif" font-size="9.8" lengthAdjust="spacing" textLength="84" x="166.95" y="613.349">+static int getSize()</text></g><!--class Repositories--><g id="elem_Repositories"><rect codeLine="85" fill="#F1F1F1" height="72.7043" id="Repositories" rx="1.75" ry="1.75" style="stroke:#181818;stroke-width:0.3499999999999999;" width="186.2" x="233.45" y="391.3"/><ellipse cx="295.925" cy="402.5" fill="#ADD1B2" rx="7.7" ry="7.7" style="stroke:#181818;stroke-width:0.6999999999999998;"/><path d="M297.8609,399.6125 Q297.9703,399.4594 298.1016,399.3828 Q298.2328,399.3062 298.3859,399.3062 Q298.6484,399.3062 298.8125,399.4922 Q298.9766,399.6672 298.9766,400.0937 L298.9766,401.1109 Q298.9766,401.5375 298.8125,401.7234 Q298.6484,401.9094 298.3859,401.9094 Q298.1453,401.9094 298.0031,401.7672 Q297.8609,401.6359 297.7844,401.275 Q297.7516,401.0234 297.6203,400.8922 Q297.3906,400.6297 296.9641,400.4766 Q296.5375,400.3234 296.1,400.3234 Q295.5641,400.3234 295.1156,400.5531 Q294.6781,400.7828 294.3281,401.3078 Q293.9891,401.8328 293.9891,402.5547 L293.9891,403.3203 Q293.9891,404.1844 294.6125,404.7641 Q295.2359,405.3328 296.3516,405.3328 Q297.0078,405.3328 297.4672,405.1578 Q297.7406,405.0484 298.0359,404.7422 Q298.2219,404.5562 298.3203,404.5016 Q298.4297,404.4469 298.5719,404.4469 Q298.8016,404.4469 298.9766,404.6328 Q299.1625,404.8078 299.1625,405.0484 Q299.1625,405.2891 298.9219,405.5734 Q298.5719,405.9781 298.0141,406.2078 Q297.2594,406.525 296.3516,406.525 Q295.2906,406.525 294.4484,406.0875 Q293.7594,405.7375 293.2781,404.9937 Q292.7969,404.2391 292.7969,403.3422 L292.7969,402.5328 Q292.7969,401.6031 293.2234,400.8047 Q293.6609,399.9953 294.4266,399.5687 Q295.1922,399.1312 296.0562,399.1312 Q296.5703,399.1312 297.0187,399.2516 Q297.4781,399.3609 297.8609,399.6125 Z " fill="#000000"/><text fill="#000000" font-family="sans-serif" font-size="9.8" lengthAdjust="spacing" textLength="55.3" x="310.275" y="406.5578">Repositories</text><line style="stroke:#181818;stroke-width:0.3499999999999999;" x1="234.15" x2="418.95" y1="413.7" y2="413.7"/><line style="stroke:#181818;stroke-width:0.3499999999999999;" x1="234.15" x2="418.95" y1="419.3" y2="419.3"/><text fill="#000000" font-family="sans-serif" font-size="9.8" lengthAdjust="spacing" textLength="63.7" x="237.65" y="432.6752">+getInstance()</text><text fill="#000000" font-family="sans-serif" font-size="9.8" lengthAdjust="spacing" textLength="100.8" x="237.65" y="445.71">+getAgenda(): Agenda</text><text fill="#000000" font-family="sans-serif" font-size="9.8" lengthAdjust="spacing" textLength="177.8" x="237.65" y="458.7447">+getTeamRepository(): TeamRepository</text></g><!--class Entry--><g id="elem_Entry"><rect codeLine="28" fill="#F1F1F1" height="216.0867" id="Entry" rx="1.75" ry="1.75" style="stroke:#181818;stroke-width:0.3499999999999999;" width="703.5" x="4.9" y="661.5"/><ellipse cx="342.125" cy="672.7" fill="#ADD1B2" rx="7.7" ry="7.7" style="stroke:#181818;stroke-width:0.6999999999999998;"/><path d="M344.0609,669.8125 Q344.1703,669.6594 344.3016,669.5828 Q344.4328,669.5062 344.5859,669.5062 Q344.8484,669.5062 345.0125,669.6922 Q345.1766,669.8672 345.1766,670.2937 L345.1766,671.3109 Q345.1766,671.7375 345.0125,671.9234 Q344.8484,672.1094 344.5859,672.1094 Q344.3453,672.1094 344.2031,671.9672 Q344.0609,671.8359 343.9844,671.475 Q343.9516,671.2234 343.8203,671.0922 Q343.5906,670.8297 343.1641,670.6766 Q342.7375,670.5234 342.3,670.5234 Q341.7641,670.5234 341.3156,670.7531 Q340.8781,670.9828 340.5281,671.5078 Q340.1891,672.0328 340.1891,672.7547 L340.1891,673.5203 Q340.1891,674.3844 340.8125,674.9641 Q341.4359,675.5328 342.5516,675.5328 Q343.2078,675.5328 343.6672,675.3578 Q343.9406,675.2484 344.2359,674.9422 Q344.4219,674.7562 344.5203,674.7016 Q344.6297,674.6469 344.7719,674.6469 Q345.0016,674.6469 345.1766,674.8328 Q345.3625,675.0078 345.3625,675.2484 Q345.3625,675.4891 345.1219,675.7734 Q344.7719,676.1781 344.2141,676.4078 Q343.4594,676.725 342.5516,676.725 Q341.4906,676.725 340.6484,676.2875 Q339.9594,675.9375 339.4781,675.1937 Q338.9969,674.4391 338.9969,673.5422 L338.9969,672.7328 Q338.9969,671.8031 339.4234,671.0047 Q339.8609,670.1953 340.6266,669.7687 Q341.3922,669.3312 342.2562,669.3312 Q342.7703,669.3312 343.2187,669.4516 Q343.6781,669.5609 344.0609,669.8125 Z " fill="#000000"/><text fill="#000000" font-family="sans-serif" font-size="9.8" lengthAdjust="spacing" textLength="23.1" x="356.475" y="676.7578">Entry</text><line style="stroke:#181818;stroke-width:0.3499999999999999;" x1="5.6" x2="707.7" y1="683.9" y2="683.9"/><text fill="#000000" font-family="sans-serif" font-size="9.8" lengthAdjust="spacing" textLength="73.5" x="9.1" y="697.2752">-String entryTitle</text><text fill="#000000" font-family="sans-serif" font-size="9.8" lengthAdjust="spacing" textLength="46.9" x="9.1" y="710.31">-Date date</text><text fill="#000000" font-family="sans-serif" font-size="9.8" lengthAdjust="spacing" textLength="53.2" x="9.1" y="723.3447">-Team team</text><line style="stroke:#181818;stroke-width:0.3499999999999999;" x1="5.6" x2="707.7" y1="728.6043" y2="728.6043"/><text fill="#000000" font-family="sans-serif" font-size="9.8" lengthAdjust="spacing" textLength="695.1" x="9.1" y="741.9795">+Entry(String state, String description, String urgency, String entryTitle, int duration, Date date, List&lt;Vehicle&gt; vehicles, Team team, GreenSpace greenSpace)</text><text fill="#000000" font-family="sans-serif" font-size="9.8" lengthAdjust="spacing" textLength="536.9" x="9.1" y="755.0143">+Entry(String state, String description, String urgency, String entryTitle, int duration, Date date, GreenSpace greenSpace)</text><text fill="#000000" font-family="sans-serif" font-size="9.8" lengthAdjust="spacing" textLength="121.8" x="9.1" y="768.049">+void setTeam(Team team)</text><text fill="#000000" font-family="sans-serif" font-size="9.8" lengthAdjust="spacing" textLength="97.3" x="9.1" y="781.0838">+String getEntryTitle()</text><text fill="#000000" font-family="sans-serif" font-size="9.8" lengthAdjust="spacing" textLength="114.1" x="9.1" y="794.1186">+String getDateToString()</text><text fill="#000000" font-family="sans-serif" font-size="9.8" lengthAdjust="spacing" textLength="79.8" x="9.1" y="807.1533">+Team getTeam()</text><text fill="#000000" font-family="sans-serif" font-size="9.8" lengthAdjust="spacing" textLength="111.3" x="9.1" y="820.1881">+void setDate(Date date)</text><text fill="#000000" font-family="sans-serif" font-size="9.8" lengthAdjust="spacing" textLength="71.4" x="9.1" y="833.2229">+Date getDate()</text><text fill="#000000" font-family="sans-serif" font-size="9.8" lengthAdjust="spacing" textLength="91.7" x="9.1" y="846.2576">+Date validateDate()</text><text fill="#000000" font-family="sans-serif" font-size="9.8" lengthAdjust="spacing" textLength="133.7" x="9.1" y="859.2924">+Date validatePostponeDate()</text><text fill="#000000" font-family="sans-serif" font-size="9.8" lengthAdjust="spacing" textLength="75.6" x="9.1" y="872.3271">+String toString()</text></g><!--class Team--><g id="elem_Team"><rect codeLine="45" fill="#F1F1F1" height="46.6348" id="Team" rx="1.75" ry="1.75" style="stroke:#181818;stroke-width:0.3499999999999999;" width="184.8" x="264.25" y="920.5"/><ellipse cx="341.075" cy="931.7" fill="#ADD1B2" rx="7.7" ry="7.7" style="stroke:#181818;stroke-width:0.6999999999999998;"/><path d="M343.0109,928.8125 Q343.1203,928.6594 343.2516,928.5828 Q343.3828,928.5062 343.5359,928.5062 Q343.7984,928.5062 343.9625,928.6922 Q344.1266,928.8672 344.1266,929.2937 L344.1266,930.3109 Q344.1266,930.7375 343.9625,930.9234 Q343.7984,931.1094 343.5359,931.1094 Q343.2953,931.1094 343.1531,930.9672 Q343.0109,930.8359 342.9344,930.475 Q342.9016,930.2234 342.7703,930.0922 Q342.5406,929.8297 342.1141,929.6766 Q341.6875,929.5234 341.25,929.5234 Q340.7141,929.5234 340.2656,929.7531 Q339.8281,929.9828 339.4781,930.5078 Q339.1391,931.0328 339.1391,931.7547 L339.1391,932.5203 Q339.1391,933.3844 339.7625,933.9641 Q340.3859,934.5328 341.5016,934.5328 Q342.1578,934.5328 342.6172,934.3578 Q342.8906,934.2484 343.1859,933.9422 Q343.3719,933.7562 343.4703,933.7016 Q343.5797,933.6469 343.7219,933.6469 Q343.9516,933.6469 344.1266,933.8328 Q344.3125,934.0078 344.3125,934.2484 Q344.3125,934.4891 344.0719,934.7734 Q343.7219,935.1781 343.1641,935.4078 Q342.4094,935.725 341.5016,935.725 Q340.4406,935.725 339.5984,935.2875 Q338.9094,934.9375 338.4281,934.1937 Q337.9469,933.4391 337.9469,932.5422 L337.9469,931.7328 Q337.9469,930.8031 338.3734,930.0047 Q338.8109,929.1953 339.5766,928.7687 Q340.3422,928.3312 341.2062,928.3312 Q341.7203,928.3312 342.1687,928.4516 Q342.6281,928.5609 343.0109,928.8125 Z " fill="#000000"/><text fill="#000000" font-family="sans-serif" font-size="9.8" lengthAdjust="spacing" textLength="25.2" x="355.425" y="935.7578">Team</text><line style="stroke:#181818;stroke-width:0.3499999999999999;" x1="264.95" x2="448.35" y1="942.9" y2="942.9"/><line style="stroke:#181818;stroke-width:0.3499999999999999;" x1="264.95" x2="448.35" y1="948.5" y2="948.5"/><text fill="#000000" font-family="sans-serif" font-size="9.8" lengthAdjust="spacing" textLength="176.4" x="268.45" y="961.8752">+List&lt;Collaborator&gt; getTeamMembers()</text></g><!--class PostponeEntryUI--><g id="elem_PostponeEntryUI"><rect codeLine="58" fill="#F1F1F1" height="150.9129" id="PostponeEntryUI" rx="1.75" ry="1.75" style="stroke:#181818;stroke-width:0.3499999999999999;" width="145.6" x="139.65" y="24.15"/><ellipse cx="172.725" cy="35.35" fill="#ADD1B2" rx="7.7" ry="7.7" style="stroke:#181818;stroke-width:0.6999999999999998;"/><path d="M174.6609,32.4625 Q174.7703,32.3094 174.9016,32.2328 Q175.0328,32.1562 175.1859,32.1562 Q175.4484,32.1562 175.6125,32.3422 Q175.7766,32.5172 175.7766,32.9437 L175.7766,33.9609 Q175.7766,34.3875 175.6125,34.5734 Q175.4484,34.7594 175.1859,34.7594 Q174.9453,34.7594 174.8031,34.6172 Q174.6609,34.4859 174.5844,34.125 Q174.5516,33.8734 174.4203,33.7422 Q174.1906,33.4797 173.7641,33.3266 Q173.3375,33.1734 172.9,33.1734 Q172.3641,33.1734 171.9156,33.4031 Q171.4781,33.6328 171.1281,34.1578 Q170.7891,34.6828 170.7891,35.4047 L170.7891,36.1703 Q170.7891,37.0344 171.4125,37.6141 Q172.0359,38.1828 173.1516,38.1828 Q173.8078,38.1828 174.2672,38.0078 Q174.5406,37.8984 174.8359,37.5922 Q175.0219,37.4062 175.1203,37.3516 Q175.2297,37.2969 175.3719,37.2969 Q175.6016,37.2969 175.7766,37.4828 Q175.9625,37.6578 175.9625,37.8984 Q175.9625,38.1391 175.7219,38.4234 Q175.3719,38.8281 174.8141,39.0578 Q174.0594,39.375 173.1516,39.375 Q172.0906,39.375 171.2484,38.9375 Q170.5594,38.5875 170.0781,37.8437 Q169.5969,37.0891 169.5969,36.1922 L169.5969,35.3828 Q169.5969,34.4531 170.0234,33.6547 Q170.4609,32.8453 171.2266,32.4187 Q171.9922,31.9812 172.8562,31.9812 Q173.3703,31.9812 173.8187,32.1016 Q174.2781,32.2109 174.6609,32.4625 Z " fill="#000000"/><text fill="#000000" font-family="sans-serif" font-size="9.8" lengthAdjust="spacing" textLength="73.5" x="187.075" y="39.4078">PostponeEntryUI</text><line style="stroke:#181818;stroke-width:0.3499999999999999;" x1="140.35" x2="284.55" y1="46.55" y2="46.55"/><text fill="#000000" font-family="sans-serif" font-size="9.8" lengthAdjust="spacing" textLength="114.1" x="143.85" y="59.9252">-EntryController controller</text><text fill="#000000" font-family="sans-serif" font-size="9.8" lengthAdjust="spacing" textLength="51.8" x="143.85" y="72.96">-Entry entry</text><text fill="#000000" font-family="sans-serif" font-size="9.8" lengthAdjust="spacing" textLength="65.8" x="143.85" y="85.9947">-Date newDate</text><line style="stroke:#181818;stroke-width:0.3499999999999999;" x1="140.35" x2="284.55" y1="91.2543" y2="91.2543"/><text fill="#000000" font-family="sans-serif" font-size="9.8" lengthAdjust="spacing" textLength="86.1" x="143.85" y="104.6295">+PostponeEntryUI()</text><text fill="#000000" font-family="sans-serif" font-size="9.8" lengthAdjust="spacing" textLength="48.3" x="143.85" y="117.6643">+void run()</text><text fill="#000000" font-family="sans-serif" font-size="9.8" lengthAdjust="spacing" textLength="137.2" x="143.85" y="130.699">-EntryController getController()</text><text fill="#000000" font-family="sans-serif" font-size="9.8" lengthAdjust="spacing" textLength="86.1" x="143.85" y="143.7338">-void requestData()</text><text fill="#000000" font-family="sans-serif" font-size="9.8" lengthAdjust="spacing" textLength="81.2" x="143.85" y="156.7686">-void submitData()</text><text fill="#000000" font-family="sans-serif" font-size="9.8" lengthAdjust="spacing" textLength="89.6" x="143.85" y="169.8033">-void confirmsData()</text></g><!--class TeamRepository--><g id="elem_TeamRepository"><rect fill="#F1F1F1" height="33.6" id="TeamRepository" rx="1.75" ry="1.75" style="stroke:#181818;stroke-width:0.3499999999999999;" width="95.2" x="341.25" y="546"/><ellipse cx="351.75" cy="557.2" fill="#ADD1B2" rx="7.7" ry="7.7" style="stroke:#181818;stroke-width:0.6999999999999998;"/><path d="M353.6859,554.3125 Q353.7953,554.1594 353.9266,554.0828 Q354.0578,554.0062 354.2109,554.0062 Q354.4734,554.0062 354.6375,554.1922 Q354.8016,554.3672 354.8016,554.7937 L354.8016,555.8109 Q354.8016,556.2375 354.6375,556.4234 Q354.4734,556.6094 354.2109,556.6094 Q353.9703,556.6094 353.8281,556.4672 Q353.6859,556.3359 353.6094,555.975 Q353.5766,555.7234 353.4453,555.5922 Q353.2156,555.3297 352.7891,555.1766 Q352.3625,555.0234 351.925,555.0234 Q351.3891,555.0234 350.9406,555.2531 Q350.5031,555.4828 350.1531,556.0078 Q349.8141,556.5328 349.8141,557.2547 L349.8141,558.0203 Q349.8141,558.8844 350.4375,559.4641 Q351.0609,560.0328 352.1766,560.0328 Q352.8328,560.0328 353.2922,559.8578 Q353.5656,559.7484 353.8609,559.4422 Q354.0469,559.2562 354.1453,559.2016 Q354.2547,559.1469 354.3969,559.1469 Q354.6266,559.1469 354.8016,559.3328 Q354.9875,559.5078 354.9875,559.7484 Q354.9875,559.9891 354.7469,560.2734 Q354.3969,560.6781 353.8391,560.9078 Q353.0844,561.225 352.1766,561.225 Q351.1156,561.225 350.2734,560.7875 Q349.5844,560.4375 349.1031,559.6937 Q348.6219,558.9391 348.6219,558.0422 L348.6219,557.2328 Q348.6219,556.3031 349.0484,555.5047 Q349.4859,554.6953 350.2516,554.2687 Q351.0172,553.8312 351.8812,553.8312 Q352.3953,553.8312 352.8437,553.9516 Q353.3031,554.0609 353.6859,554.3125 Z " fill="#000000"/><text fill="#000000" font-family="sans-serif" font-size="9.8" lengthAdjust="spacing" textLength="72.8" x="361.55" y="561.2578">TeamRepository</text><line style="stroke:#181818;stroke-width:0.3499999999999999;" x1="341.95" x2="435.75" y1="568.4" y2="568.4"/><line style="stroke:#181818;stroke-width:0.3499999999999999;" x1="341.95" x2="435.75" y1="574" y2="574"/></g><!--class PostponeEntryUI_fx--><g id="elem_PostponeEntryUI_fx"><rect codeLine="70" fill="#F1F1F1" height="190.0172" id="PostponeEntryUI_fx" rx="1.75" ry="1.75" style="stroke:#181818;stroke-width:0.3499999999999999;" width="261.1" x="310.1" y="4.9"/><ellipse cx="394.625" cy="16.1" fill="#ADD1B2" rx="7.7" ry="7.7" style="stroke:#181818;stroke-width:0.6999999999999998;"/><path d="M396.5609,13.2125 Q396.6703,13.0594 396.8016,12.9828 Q396.9328,12.9062 397.0859,12.9062 Q397.3484,12.9062 397.5125,13.0922 Q397.6766,13.2672 397.6766,13.6937 L397.6766,14.7109 Q397.6766,15.1375 397.5125,15.3234 Q397.3484,15.5094 397.0859,15.5094 Q396.8453,15.5094 396.7031,15.3672 Q396.5609,15.2359 396.4844,14.875 Q396.4516,14.6234 396.3203,14.4922 Q396.0906,14.2297 395.6641,14.0766 Q395.2375,13.9234 394.8,13.9234 Q394.2641,13.9234 393.8156,14.1531 Q393.3781,14.3828 393.0281,14.9078 Q392.6891,15.4328 392.6891,16.1547 L392.6891,16.9203 Q392.6891,17.7844 393.3125,18.3641 Q393.9359,18.9328 395.0516,18.9328 Q395.7078,18.9328 396.1672,18.7578 Q396.4406,18.6484 396.7359,18.3422 Q396.9219,18.1562 397.0203,18.1016 Q397.1297,18.0469 397.2719,18.0469 Q397.5016,18.0469 397.6766,18.2328 Q397.8625,18.4078 397.8625,18.6484 Q397.8625,18.8891 397.6219,19.1734 Q397.2719,19.5781 396.7141,19.8078 Q395.9594,20.125 395.0516,20.125 Q393.9906,20.125 393.1484,19.6875 Q392.4594,19.3375 391.9781,18.5937 Q391.4969,17.8391 391.4969,16.9422 L391.4969,16.1328 Q391.4969,15.2031 391.9234,14.4047 Q392.3609,13.5953 393.1266,13.1687 Q393.8922,12.7312 394.7562,12.7312 Q395.2703,12.7312 395.7187,12.8516 Q396.1781,12.9609 396.5609,13.2125 Z " fill="#000000"/><text fill="#000000" font-family="sans-serif" font-size="9.8" lengthAdjust="spacing" textLength="86.1" x="408.975" y="20.1578">PostponeEntryUI_fx</text><line style="stroke:#181818;stroke-width:0.3499999999999999;" x1="310.8" x2="570.5" y1="27.3" y2="27.3"/><text fill="#000000" font-family="sans-serif" font-size="9.8" lengthAdjust="spacing" textLength="144.9" x="314.3" y="40.6752">-ListView&lt;String&gt; entriesListView</text><text fill="#000000" font-family="sans-serif" font-size="9.8" lengthAdjust="spacing" textLength="86.1" x="314.3" y="53.71">-List&lt;Entry&gt; entries</text><text fill="#000000" font-family="sans-serif" font-size="9.8" lengthAdjust="spacing" textLength="84" x="314.3" y="66.7447">-List&lt;String&gt; hours</text><text fill="#000000" font-family="sans-serif" font-size="9.8" lengthAdjust="spacing" textLength="63" x="314.3" y="79.7795">-Button button</text><text fill="#000000" font-family="sans-serif" font-size="9.8" lengthAdjust="spacing" textLength="125.3" x="314.3" y="92.8143">-Label operationStatusLabel</text><text fill="#000000" font-family="sans-serif" font-size="9.8" lengthAdjust="spacing" textLength="144.2" x="314.3" y="105.849">-DatePicker postponeDatePicker</text><text fill="#000000" font-family="sans-serif" font-size="9.8" lengthAdjust="spacing" textLength="120.4" x="314.3" y="118.8838">-ChoiceBox hourChoiceBox</text><line style="stroke:#181818;stroke-width:0.3499999999999999;" x1="310.8" x2="570.5" y1="124.1434" y2="124.1434"/><text fill="#000000" font-family="sans-serif" font-size="9.8" lengthAdjust="spacing" textLength="252.7" x="314.3" y="137.5186">+void initialize(URL url, ResourceBundle resourceBundle)</text><text fill="#000000" font-family="sans-serif" font-size="9.8" lengthAdjust="spacing" textLength="136.5" x="314.3" y="150.5533">-void populateEntriesListView()</text><text fill="#000000" font-family="sans-serif" font-size="9.8" lengthAdjust="spacing" textLength="131.6" x="314.3" y="163.5881">-void populateHoursListView()</text><text fill="#000000" font-family="sans-serif" font-size="9.8" lengthAdjust="spacing" textLength="103.6" x="314.3" y="176.6229">-void postponingEntry()</text><text fill="#000000" font-family="sans-serif" font-size="9.8" lengthAdjust="spacing" textLength="214.2" x="314.3" y="189.6576">-Date localDateToDate(LocalDate selectedDate)</text></g><!--link EntryController to Agenda--><g id="link_EntryController_Agenda"><path codeLine="9" d="M276.794,336.28 C249.382,363.244 220.85,391.3 220.85,391.3 C220.85,391.3 220.85,464.1 220.85,464.1 C220.85,464.1 224.0033,480.4439 228.2873,502.6759 " fill="none" id="EntryController-to-Agenda" style="stroke:#181818;stroke-width:0.6999999999999998;"/><polygon fill="#181818" points="229.082,506.8,230.6394,500.084,228.4197,503.3632,225.1405,501.1436,229.082,506.8" style="stroke:#181818;stroke-width:0.6999999999999998;"/></g><!--link EntryController to Repositories--><g id="link_EntryController_Repositories"><path codeLine="10" d="M326.55,336.196 C326.55,354.284 326.55,370.244 326.55,386.967 " fill="none" id="EntryController-to-Repositories" style="stroke:#181818;stroke-width:0.6999999999999998;stroke-dasharray:7.0,7.0;"/><polygon fill="#181818" points="326.55,391.167,329.35,384.867,326.55,387.667,323.75,384.867,326.55,391.167" style="stroke:#181818;stroke-width:0.6999999999999998;"/><text fill="#000000" font-family="sans-serif" font-size="9.1" lengthAdjust="spacing" textLength="46.9" x="327.25" y="367.5198">repositories</text></g><!--link EntryController to Entry--><g id="link_EntryController_Entry"><path codeLine="11" d="M402.101,336.126 C443.933,363.139 487.55,391.3 487.55,391.3 C487.55,391.3 487.55,464.1 487.55,464.1 C487.55,464.1 449.05,618.8 449.05,618.8 C449.05,618.8 439.8344,633.7802 425.0224,657.8462 " fill="none" id="EntryController-to-Entry" style="stroke:#181818;stroke-width:0.6999999999999998;"/><polygon fill="#181818" points="422.821,661.423,428.5077,657.5254,424.6555,658.4423,423.7386,654.5901,422.821,661.423" style="stroke:#181818;stroke-width:0.6999999999999998;"/></g><!--link Entry to Team--><g id="link_Entry_Team"><path codeLine="12" d="M356.65,877.884 C356.65,893.816 356.65,904.533 356.65,916.076 " fill="none" id="Entry-to-Team" style="stroke:#181818;stroke-width:0.6999999999999998;"/><polygon fill="#181818" points="356.65,920.276,359.45,913.976,356.65,916.776,353.85,913.976,356.65,920.276" style="stroke:#181818;stroke-width:0.6999999999999998;"/></g><!--link PostponeEntryUI to EntryController--><g id="link_PostponeEntryUI_EntryController"><path codeLine="13" d="M258.531,175.364 C271.334,196.182 282.6987,214.6621 294.3257,233.5551 " fill="none" id="PostponeEntryUI-to-EntryController" style="stroke:#181818;stroke-width:0.6999999999999998;stroke-dasharray:7.0,7.0;"/><polygon fill="#181818" points="296.527,237.132,295.6097,230.2991,294.6926,234.1512,290.8405,233.2341,296.527,237.132" style="stroke:#181818;stroke-width:0.6999999999999998;"/></g><!--link Repositories to Agenda--><g id="link_Repositories_Agenda"><path codeLine="14" d="M303.289,464.226 C294.805,477.302 287.2852,488.8854 277.9542,503.2564 " fill="none" id="Repositories-to-Agenda" style="stroke:#181818;stroke-width:0.6999999999999998;"/><polygon fill="#181818" points="275.667,506.779,281.4462,503.0199,277.573,503.8435,276.7494,499.9703,275.667,506.779" style="stroke:#181818;stroke-width:0.6999999999999998;"/><text fill="#000000" font-family="sans-serif" font-size="9.1" lengthAdjust="spacing" textLength="4.9" x="273.8522" y="499.0041">1</text></g><!--link Repositories to TeamRepository--><g id="link_Repositories_TeamRepository"><path codeLine="15" d="M343.245,464.226 C355.642,490.84 370.1917,522.0682 379.5717,542.1932 " fill="none" id="Repositories-to-TeamRepository" style="stroke:#181818;stroke-width:0.6999999999999998;"/><polygon fill="#181818" points="381.346,546,381.2224,539.1069,379.8674,542.8277,376.1467,541.4726,381.346,546" style="stroke:#181818;stroke-width:0.6999999999999998;"/><text fill="#000000" font-family="sans-serif" font-size="9.1" lengthAdjust="spacing" textLength="4.9" x="373.8953" y="538.1162">1</text></g><!--reverse link Repositories to Repositories--><g id="link_Repositories_Repositories"><path codeLine="16" d="M423.8915,418.2617 C438.4235,419.7387 444.15,422.597 444.15,427.7 C444.15,432.803 434.245,436.086 419.713,437.563 " fill="none" id="Repositories-backto-Repositories" style="stroke:#181818;stroke-width:0.6999999999999998;"/><polygon fill="#181818" points="419.713,417.837,425.6976,421.2597,423.1951,418.1909,426.2638,415.6884,419.713,417.837" style="stroke:#181818;stroke-width:0.6999999999999998;"/><text fill="#000000" font-family="sans-serif" font-size="9.1" lengthAdjust="spacing" textLength="34.3" x="448.35" y="431.5698">instance</text></g><!--link PostponeEntryUI_fx to EntryController--><g id="link_PostponeEntryUI_fx_EntryController"><path codeLine="17" d="M382.599,194.831 C373.569,209.51 366.7747,220.5557 358.7177,233.6527 " fill="none" id="PostponeEntryUI_fx-to-EntryController" style="stroke:#181818;stroke-width:0.6999999999999998;stroke-dasharray:7.0,7.0;"/><polygon fill="#181818" points="356.517,237.23,362.2029,233.3312,358.3509,234.2489,357.4332,230.3969,356.517,237.23" style="stroke:#181818;stroke-width:0.6999999999999998;"/></g><!--link Agenda to Entry--><g id="link_Agenda_Entry"><path codeLine="18" d="M271.229,618.828 C278.768,632.079 284.9988,643.0312 293.3848,657.7592 " fill="none" id="Agenda-to-Entry" style="stroke:#181818;stroke-width:0.6999999999999998;"/><polygon fill="#181818" points="295.463,661.409,294.7789,654.5488,293.7312,658.3675,289.9125,657.3197,295.463,661.409" style="stroke:#181818;stroke-width:0.6999999999999998;"/></g><!--SRC=[lLNTJzim47_FNs7nGj1IjBqYLAamj24n2L7WTNAJQshX-ZBR0Rg9_ttdZoHEskvnVMXxTp_xVlVfK_CYLCCrtx8jAYmt6hV0h6uX6omDBrzu3Kkxay0qb9QhMgO0i-4LlWbLipMN9hL8eS3k6c0DofqJijC3HjGMaqEbvCOihDLYrLguBL4jnMzWdxDJ2MlBB38jwerbbN1a1Aeikr5MxwwHlb5Aq6mscxD53QhYUwRpypbxW0QDiAW567P1CGtYmQkyBbYy_0XyczsZiGqgyEgdMt_nv70sSkHEddmvwOWTjBcRUyDkZBcSpQRCXJ9KZHAcP7wktm_o2QwJc3AVx2cE_SaOVMOHpWDXf_eqGUPd0VcAec8rs70YQWEOwcGQoNSBLIr1KiMyjeEi42LmHGsI1927W-2-2_QLMs0AtjplMVOnujmnNLAtKF_v4u_2KdjwjJzQqLSGNNQPTSKRwENnA2NIGi6YL84fjMXST_MwLbDmvQwN1sS55OBwiTKy7EZT5knE67lv31jHIfYpr_375AodKh1l6a0jQSg0rVtVi_z7yL_-VLqDM4Stxpb7OtH2PR_f_UHxDkVf4OFSMVrDTRnsuihXyvvUD7evNfQdkbSkXSCTDNIJaG8YEJkmwhlACmjDzSdNxfhwdA-GyePwtd7-0TiLQ9CUZBCI-z6LIfHiBHINeGTyYkQZMV8HywhQw_b8CrxYOGqH3MbUsDoLKhbRny3KpzuiHapmqfNi-5rEJIYtUTCefqilXZlT7-MmSWPxY2qPp3ZJmU_avb5Nw5PrYsRgYJWUsKOQVhLWNCVmaTwqgwtOLnFbjT1R4mt78dQRDGRjalOiuEqoTD7SnqTxkTCFgAue4P0OkgCRR7NKNxNMec8h_nEXV0MIOGDXUfTKejPuvP3DUr6-K3wQfDs3Aa2kDoXAkC9txwgNaYGB9QoWeQ62FptSqIgH1JqtXj24R5Nb7_zKJBFNODDASdapJa5-2FFTnNe4uSbJHj8t8ZIBn9BBi4lyADzrCkqCzwf0DNaVqgSo3ZGrosryCRl-IWVbedkQUyluENQ8oGFzyHS0]--></g></svg>