<?xml version="1.0" encoding="us-ascii" standalone="no"?><svg xmlns="http://www.w3.org/2000/svg" xmlns:xlink="http://www.w3.org/1999/xlink" contentStyleType="text/css" height="464.8px" preserveAspectRatio="none" style="width:714px;height:464px;background:#FFFFFF;" version="1.1" viewBox="0 0 714 464" width="714.7px" zoomAndPan="magnify"><defs/><g><text fill="#000000" font-family="sans-serif" font-size="9.8" font-weight="bold" lengthAdjust="spacing" textLength="159.6" x="276.85" y="21.0752">System Sequence Diagram (SSD)</text><rect fill="#FFFFFF" height="301.052" style="stroke:#181818;stroke-width:0.6999999999999998;" width="7" x="12.95" y="93.2695"/><rect fill="#FFFFFF" height="153.326" style="stroke:#181818;stroke-width:0.6999999999999998;" width="7" x="235.55" y="109.5732"/><rect fill="#FFFFFF" height="109.5186" style="stroke:#181818;stroke-width:0.6999999999999998;" width="7" x="235.55" y="284.8029"/><rect fill="#FFFFFF" height="109.5186" style="stroke:#181818;stroke-width:0.6999999999999998;" width="7" x="429.45" y="131.477"/><rect fill="#FFFFFF" height="65.7111" style="stroke:#181818;stroke-width:0.6999999999999998;" width="7" x="429.45" y="306.7066"/><rect fill="#FFFFFF" height="21.9037" style="stroke:#181818;stroke-width:0.6999999999999998;" width="7" x="530.95" y="153.3807"/><rect fill="#FFFFFF" height="21.9037" style="stroke:#181818;stroke-width:0.6999999999999998;" width="7" x="673.05" y="197.1881"/><rect fill="#FFFFFF" height="21.9037" style="stroke:#181818;stroke-width:0.6999999999999998;" width="7" x="673.05" y="328.6104"/><line style="stroke:#181818;stroke-width:0.3499999999999999;stroke-dasharray:5.0,5.0;" x1="16.1" x2="16.1" y1="86.2695" y2="406.9215"/><line style="stroke:#181818;stroke-width:0.3499999999999999;stroke-dasharray:5.0,5.0;" x1="238.7" x2="238.7" y1="86.2695" y2="406.9215"/><line style="stroke:#181818;stroke-width:0.3499999999999999;stroke-dasharray:5.0,5.0;" x1="432.6" x2="432.6" y1="86.2695" y2="406.9215"/><line style="stroke:#181818;stroke-width:0.3499999999999999;stroke-dasharray:5.0,5.0;" x1="534.1" x2="534.1" y1="86.2695" y2="406.9215"/><line style="stroke:#181818;stroke-width:0.3499999999999999;stroke-dasharray:5.0,5.0;" x1="676.2" x2="676.2" y1="86.2695" y2="406.9215"/><text fill="#000000" font-family="sans-serif" font-size="9.8" lengthAdjust="spacing" textLength="21.7" x="3.5" y="83.81">GSM</text><ellipse cx="16.45" cy="37.1848" fill="#E3E3E3" rx="5.6" ry="5.6" style="stroke:#181818;stroke-width:0.3499999999999999;"/><path d="M16.45,42.7848 L16.45,61.6848 M7.35,48.3848 L25.55,48.3848 M16.45,61.6848 L7.35,72.1848 M16.45,61.6848 L25.55,72.1848 " fill="none" style="stroke:#181818;stroke-width:0.3499999999999999;"/><text fill="#000000" font-family="sans-serif" font-size="9.8" lengthAdjust="spacing" textLength="21.7" x="3.5" y="416.7967">GSM</text><ellipse cx="16.45" cy="425.2062" fill="#E3E3E3" rx="5.6" ry="5.6" style="stroke:#181818;stroke-width:0.3499999999999999;"/><path d="M16.45,430.8062 L16.45,449.7062 M7.35,436.4062 L25.55,436.4062 M16.45,449.7062 L7.35,460.2062 M16.45,449.7062 L25.55,460.2062 " fill="none" style="stroke:#181818;stroke-width:0.3499999999999999;"/><rect fill="#E3E3E3" height="22.8348" rx="1.75" ry="1.75" style="stroke:#181818;stroke-width:0.3499999999999999;" width="86.1" x="196" y="62.7348"/><text fill="#000000" font-family="sans-serif" font-size="9.8" lengthAdjust="spacing" textLength="76.3" x="200.9" y="78.21">:PostponeEntryUI</text><rect fill="#E3E3E3" height="22.8348" rx="1.75" ry="1.75" style="stroke:#181818;stroke-width:0.3499999999999999;" width="86.1" x="196" y="406.2215"/><text fill="#000000" font-family="sans-serif" font-size="9.8" lengthAdjust="spacing" textLength="76.3" x="200.9" y="421.6967">:PostponeEntryUI</text><rect fill="#E3E3E3" height="22.8348" rx="1.75" ry="1.75" style="stroke:#181818;stroke-width:0.3499999999999999;" width="121.1" x="372.4" y="62.7348"/><text fill="#000000" font-family="sans-serif" font-size="9.8" lengthAdjust="spacing" textLength="111.3" x="377.3" y="78.21">:PostponeEntryController</text><rect fill="#E3E3E3" height="22.8348" rx="1.75" ry="1.75" style="stroke:#181818;stroke-width:0.3499999999999999;" width="121.1" x="372.4" y="406.2215"/><text fill="#000000" font-family="sans-serif" font-size="9.8" lengthAdjust="spacing" textLength="111.3" x="377.3" y="421.6967">:PostponeEntryController</text><rect fill="#E3E3E3" height="22.8348" rx="1.75" ry="1.75" style="stroke:#181818;stroke-width:0.3499999999999999;" width="67.9" x="500.5" y="62.7348"/><text fill="#000000" font-family="sans-serif" font-size="9.8" lengthAdjust="spacing" textLength="58.1" x="505.4" y="78.21">:Repositories</text><rect fill="#E3E3E3" height="22.8348" rx="1.75" ry="1.75" style="stroke:#181818;stroke-width:0.3499999999999999;" width="67.9" x="500.5" y="406.2215"/><text fill="#000000" font-family="sans-serif" font-size="9.8" lengthAdjust="spacing" textLength="58.1" x="505.4" y="421.6967">:Repositories</text><rect fill="#E3E3E3" height="35.8695" rx="1.75" ry="1.75" style="stroke:#181818;stroke-width:0.3499999999999999;" width="67.9" x="642.6" y="49.7"/><text fill="#000000" font-family="sans-serif" font-size="9.8" lengthAdjust="spacing" textLength="51.8" x="650.65" y="65.1752">repositories</text><text fill="#000000" font-family="sans-serif" font-size="9.8" lengthAdjust="spacing" textLength="58.1" x="647.5" y="78.21">:Repositories</text><rect fill="#E3E3E3" height="35.8695" rx="1.75" ry="1.75" style="stroke:#181818;stroke-width:0.3499999999999999;" width="67.9" x="642.6" y="406.2215"/><text fill="#000000" font-family="sans-serif" font-size="9.8" lengthAdjust="spacing" textLength="51.8" x="650.65" y="421.6967">repositories</text><text fill="#000000" font-family="sans-serif" font-size="9.8" lengthAdjust="spacing" textLength="58.1" x="647.5" y="434.7314">:Repositories</text><rect fill="#FFFFFF" height="301.052" style="stroke:#181818;stroke-width:0.6999999999999998;" width="7" x="12.95" y="93.2695"/><rect fill="#FFFFFF" height="153.326" style="stroke:#181818;stroke-width:0.6999999999999998;" width="7" x="235.55" y="109.5732"/><rect fill="#FFFFFF" height="109.5186" style="stroke:#181818;stroke-width:0.6999999999999998;" width="7" x="235.55" y="284.8029"/><rect fill="#FFFFFF" height="109.5186" style="stroke:#181818;stroke-width:0.6999999999999998;" width="7" x="429.45" y="131.477"/><rect fill="#FFFFFF" height="65.7111" style="stroke:#181818;stroke-width:0.6999999999999998;" width="7" x="429.45" y="306.7066"/><rect fill="#FFFFFF" height="21.9037" style="stroke:#181818;stroke-width:0.6999999999999998;" width="7" x="530.95" y="153.3807"/><rect fill="#FFFFFF" height="21.9037" style="stroke:#181818;stroke-width:0.6999999999999998;" width="7" x="673.05" y="197.1881"/><rect fill="#FFFFFF" height="21.9037" style="stroke:#181818;stroke-width:0.6999999999999998;" width="7" x="673.05" y="328.6104"/><polygon fill="#181818" points="227.15,106.7732,234.15,109.5732,227.15,112.3732,229.95,109.5732" style="stroke:#181818;stroke-width:0.6999999999999998;"/><line style="stroke:#181818;stroke-width:0.6999999999999998;" x1="19.95" x2="231.35" y1="109.5732" y2="109.5732"/><text fill="#000000" font-family="sans-serif" font-size="9.1" font-weight="bold" lengthAdjust="spacing" textLength="4.9" x="24.85" y="105.8894">1</text><text fill="#000000" font-family="sans-serif" font-size="9.1" lengthAdjust="spacing" textLength="164.5" x="32.55" y="105.8894">asks to postpone an entry in the Agenda</text><polygon fill="#181818" points="421.05,128.677,428.05,131.477,421.05,134.277,423.85,131.477" style="stroke:#181818;stroke-width:0.6999999999999998;"/><line style="stroke:#181818;stroke-width:0.6999999999999998;" x1="242.55" x2="425.25" y1="131.477" y2="131.477"/><text fill="#000000" font-family="sans-serif" font-size="9.1" font-weight="bold" lengthAdjust="spacing" textLength="4.9" x="247.45" y="127.7931">2</text><text fill="#000000" font-family="sans-serif" font-size="9.1" lengthAdjust="spacing" textLength="77.7" x="255.15" y="127.7931">getAgendaEntries()</text><polygon fill="#181818" points="522.55,150.5807,529.55,153.3807,522.55,156.1807,525.35,153.3807" style="stroke:#181818;stroke-width:0.6999999999999998;"/><line style="stroke:#181818;stroke-width:0.6999999999999998;" x1="436.45" x2="526.75" y1="153.3807" y2="153.3807"/><text fill="#000000" font-family="sans-serif" font-size="9.1" font-weight="bold" lengthAdjust="spacing" textLength="4.9" x="441.35" y="149.6968">3</text><text fill="#000000" font-family="sans-serif" font-size="9.1" lengthAdjust="spacing" textLength="52.5" x="449.05" y="149.6968">getInstance()</text><polygon fill="#181818" points="444.15,172.4844,437.15,175.2844,444.15,178.0844,441.35,175.2844" style="stroke:#181818;stroke-width:0.6999999999999998;"/><line style="stroke:#181818;stroke-width:0.6999999999999998;stroke-dasharray:2.0,2.0;" x1="439.95" x2="533.75" y1="175.2844" y2="175.2844"/><text fill="#000000" font-family="sans-serif" font-size="9.1" font-weight="bold" lengthAdjust="spacing" textLength="4.9" x="448.35" y="171.6005">4</text><text fill="#000000" font-family="sans-serif" font-size="9.1" lengthAdjust="spacing" textLength="46.9" x="456.05" y="171.6005">repositories</text><polygon fill="#181818" points="664.65,194.3881,671.65,197.1881,664.65,199.9881,667.45,197.1881" style="stroke:#181818;stroke-width:0.6999999999999998;"/><line style="stroke:#181818;stroke-width:0.6999999999999998;" x1="436.45" x2="668.85" y1="197.1881" y2="197.1881"/><text fill="#000000" font-family="sans-serif" font-size="9.1" font-weight="bold" lengthAdjust="spacing" textLength="4.9" x="441.35" y="193.5042">5</text><text fill="#000000" font-family="sans-serif" font-size="9.1" lengthAdjust="spacing" textLength="77.7" x="449.05" y="193.5042">getAgendaEntries()</text><polygon fill="#181818" points="444.15,216.2918,437.15,219.0918,444.15,221.8918,441.35,219.0918" style="stroke:#181818;stroke-width:0.6999999999999998;"/><line style="stroke:#181818;stroke-width:0.6999999999999998;stroke-dasharray:2.0,2.0;" x1="439.95" x2="675.85" y1="219.0918" y2="219.0918"/><text fill="#000000" font-family="sans-serif" font-size="9.1" font-weight="bold" lengthAdjust="spacing" textLength="4.9" x="448.35" y="215.4079">6</text><text fill="#000000" font-family="sans-serif" font-size="9.1" lengthAdjust="spacing" textLength="65.8" x="456.05" y="215.4079">agendaEntryList</text><polygon fill="#181818" points="250.25,238.1955,243.25,240.9955,250.25,243.7955,247.45,240.9955" style="stroke:#181818;stroke-width:0.6999999999999998;"/><line style="stroke:#181818;stroke-width:0.6999999999999998;stroke-dasharray:2.0,2.0;" x1="246.05" x2="432.25" y1="240.9955" y2="240.9955"/><text fill="#000000" font-family="sans-serif" font-size="9.1" font-weight="bold" lengthAdjust="spacing" textLength="4.9" x="254.45" y="237.3116">7</text><text fill="#000000" font-family="sans-serif" font-size="9.1" lengthAdjust="spacing" textLength="35" x="262.15" y="237.3116">entryList</text><polygon fill="#181818" points="27.65,260.0992,20.65,262.8992,27.65,265.6992,24.85,262.8992" style="stroke:#181818;stroke-width:0.6999999999999998;"/><line style="stroke:#181818;stroke-width:0.6999999999999998;stroke-dasharray:2.0,2.0;" x1="23.45" x2="238.35" y1="262.8992" y2="262.8992"/><text fill="#000000" font-family="sans-serif" font-size="9.1" font-weight="bold" lengthAdjust="spacing" textLength="4.9" x="31.85" y="259.2153">8</text><text fill="#000000" font-family="sans-serif" font-size="9.1" lengthAdjust="spacing" textLength="191.1" x="39.55" y="259.2153">shows the list of entries and asks to select one</text><polygon fill="#181818" points="227.15,282.0029,234.15,284.8029,227.15,287.6029,229.95,284.8029" style="stroke:#181818;stroke-width:0.6999999999999998;"/><line style="stroke:#181818;stroke-width:0.6999999999999998;" x1="19.95" x2="231.35" y1="284.8029" y2="284.8029"/><text fill="#000000" font-family="sans-serif" font-size="9.1" font-weight="bold" lengthAdjust="spacing" textLength="4.9" x="24.85" y="281.119">9</text><text fill="#000000" font-family="sans-serif" font-size="9.1" lengthAdjust="spacing" textLength="165.2" x="32.55" y="281.119">selects an entry and provides a new date</text><polygon fill="#181818" points="421.05,303.9066,428.05,306.7066,421.05,309.5066,423.85,306.7066" style="stroke:#181818;stroke-width:0.6999999999999998;"/><line style="stroke:#181818;stroke-width:0.6999999999999998;" x1="242.55" x2="425.25" y1="306.7066" y2="306.7066"/><text fill="#000000" font-family="sans-serif" font-size="9.1" font-weight="bold" lengthAdjust="spacing" textLength="9.8" x="247.45" y="303.0228">10</text><text fill="#000000" font-family="sans-serif" font-size="9.1" lengthAdjust="spacing" textLength="161" x="260.05" y="303.0228">postponeEntry(selectedEntry, newDate)</text><polygon fill="#181818" points="664.65,325.8104,671.65,328.6104,664.65,331.4104,667.45,328.6104" style="stroke:#181818;stroke-width:0.6999999999999998;"/><line style="stroke:#181818;stroke-width:0.6999999999999998;" x1="436.45" x2="668.85" y1="328.6104" y2="328.6104"/><text fill="#000000" font-family="sans-serif" font-size="9.1" font-weight="bold" lengthAdjust="spacing" textLength="9.8" x="441.35" y="324.9265">11</text><text fill="#000000" font-family="sans-serif" font-size="9.1" lengthAdjust="spacing" textLength="210.7" x="453.95" y="324.9265">updateEntryDateAndStatus(updatedEntry, newDate)</text><polygon fill="#181818" points="444.15,347.7141,437.15,350.5141,444.15,353.3141,441.35,350.5141" style="stroke:#181818;stroke-width:0.6999999999999998;"/><line style="stroke:#181818;stroke-width:0.6999999999999998;stroke-dasharray:2.0,2.0;" x1="439.95" x2="675.85" y1="350.5141" y2="350.5141"/><text fill="#000000" font-family="sans-serif" font-size="9.1" font-weight="bold" lengthAdjust="spacing" textLength="9.8" x="448.35" y="346.8302">12</text><text fill="#000000" font-family="sans-serif" font-size="9.1" lengthAdjust="spacing" textLength="60.9" x="460.95" y="346.8302">success/failure</text><polygon fill="#181818" points="250.25,369.6178,243.25,372.4178,250.25,375.2178,247.45,372.4178" style="stroke:#181818;stroke-width:0.6999999999999998;"/><line style="stroke:#181818;stroke-width:0.6999999999999998;stroke-dasharray:2.0,2.0;" x1="246.05" x2="432.25" y1="372.4178" y2="372.4178"/><text fill="#000000" font-family="sans-serif" font-size="9.1" font-weight="bold" lengthAdjust="spacing" textLength="9.8" x="254.45" y="368.7339">13</text><text fill="#000000" font-family="sans-serif" font-size="9.1" lengthAdjust="spacing" textLength="133" x="267.05" y="368.7339">displays message of (in)success</text><polygon fill="#181818" points="24.15,391.5215,17.15,394.3215,24.15,397.1215,21.35,394.3215" style="stroke:#181818;stroke-width:0.6999999999999998;"/><line style="stroke:#181818;stroke-width:0.6999999999999998;stroke-dasharray:2.0,2.0;" x1="19.95" x2="238.35" y1="394.3215" y2="394.3215"/><text fill="#000000" font-family="sans-serif" font-size="9.1" font-weight="bold" lengthAdjust="spacing" textLength="9.8" x="28.35" y="390.6376">14</text><text fill="#000000" font-family="sans-serif" font-size="9.1" lengthAdjust="spacing" textLength="133" x="40.95" y="390.6376">displays message of (in)success</text><!--SRC=[fPHDYzim48Rl_XL3JWuqz9v3OTai9R25ikxUUb7bYICYIwf6tk1_tv6SA7O-bcnNXn3BxpoQZrUcdJ9EUD52QusLMszRXE0xB2Y_SKBkH8DLw3M2Hnc4QVHOG5jHsxqo3Mo49YoAe09Bgvu2jb3XtmwDH5WfqKHvMLMhUL68BbZJjN_GytyPh8VPz-h730J1K-kqxH4BvWSbbHCcm6pvqr9mrk2J2Rv_NIVfw_ezqQFbNwir-YH-_FNoV2P_GMT9yUaAAMdoHb-fM2SdEGtneuZVvXBmqA2fHTnETQat4V1KKG6yZa-m-CO5m9B3TWJ1WZia3y80nW906GXRF41JS6PowMaZBgOmAzR7j0R3e8yzuBJAUTRbuDIAl1rN2cR8bGOCpBKX7ht44Mw2lDQvYJAkQ_J58VKbZ7ix2Qtn_cEEXPm6yNvF9aMCftUU-mYuE7LRP6p_h2ZSIliMUCZsQ0Iym8mGqvd5aNDOzjAIxw7TKxABPWBOJS9niModEdkCKFCT1dPPSSO_6kh2daC8dLmPUSxRDrL7E1ZSGys4E_tfnbUq7E1OfwSlaRNYw0zPTZBfpiLK4Ys27anT1H4wAeSNDy_vf0seanA9lcw4qft7pzcWLkIqw0bQHhB1uYnBPUQ7G_x77FSWpxmmUipVhty0]--></g></svg>