<?xml version="1.0" encoding="us-ascii" standalone="no"?><svg xmlns="http://www.w3.org/2000/svg" xmlns:xlink="http://www.w3.org/1999/xlink" contentStyleType="text/css" height="508.9px" preserveAspectRatio="none" style="width:773px;height:508px;background:#FFFFFF;" version="1.1" viewBox="0 0 773 508" width="773.5px" zoomAndPan="magnify"><defs/><g><text fill="#000000" font-family="sans-serif" font-size="9.8" font-weight="bold" lengthAdjust="spacing" textLength="159.6" x="306.25" y="21.0752">System Sequence Diagram (SSD)</text><rect fill="#FFFFFF" height="344.8594" style="stroke:#181818;stroke-width:0.6999999999999998;" width="7" x="12.95" y="93.2695"/><rect fill="#FFFFFF" height="197.1334" style="stroke:#181818;stroke-width:0.6999999999999998;" width="7" x="240.45" y="109.5732"/><rect fill="#FFFFFF" height="109.5186" style="stroke:#181818;stroke-width:0.6999999999999998;" width="7" x="240.45" y="328.6104"/><rect fill="#FFFFFF" height="153.326" style="stroke:#181818;stroke-width:0.6999999999999998;" width="7" x="434.35" y="131.477"/><rect fill="#FFFFFF" height="65.7111" style="stroke:#181818;stroke-width:0.6999999999999998;" width="7" x="434.35" y="350.5141"/><rect fill="#FFFFFF" height="21.9037" style="stroke:#181818;stroke-width:0.6999999999999998;" width="7" x="520.45" y="153.3807"/><rect fill="#FFFFFF" height="21.9037" style="stroke:#181818;stroke-width:0.6999999999999998;" width="7" x="677.95" y="197.1881"/><rect fill="#FFFFFF" height="21.9037" style="stroke:#181818;stroke-width:0.6999999999999998;" width="7" x="677.95" y="372.4178"/><rect fill="#FFFFFF" height="21.9037" style="stroke:#181818;stroke-width:0.6999999999999998;" width="7" x="742.35" y="240.9955"/><line style="stroke:#181818;stroke-width:0.3499999999999999;stroke-dasharray:5.0,5.0;" x1="16.1" x2="16.1" y1="86.2695" y2="450.7289"/><line style="stroke:#181818;stroke-width:0.3499999999999999;stroke-dasharray:5.0,5.0;" x1="243.95" x2="243.95" y1="86.2695" y2="450.7289"/><line style="stroke:#181818;stroke-width:0.3499999999999999;stroke-dasharray:5.0,5.0;" x1="437.5" x2="437.5" y1="86.2695" y2="450.7289"/><line style="stroke:#181818;stroke-width:0.3499999999999999;stroke-dasharray:5.0,5.0;" x1="523.6" x2="523.6" y1="86.2695" y2="450.7289"/><line style="stroke:#181818;stroke-width:0.3499999999999999;stroke-dasharray:5.0,5.0;" x1="681.1" x2="681.1" y1="86.2695" y2="450.7289"/><line style="stroke:#181818;stroke-width:0.3499999999999999;stroke-dasharray:5.0,5.0;" x1="745.5" x2="745.5" y1="86.2695" y2="450.7289"/><text fill="#000000" font-family="sans-serif" font-size="9.8" lengthAdjust="spacing" textLength="21.7" x="3.5" y="83.81">GSM</text><ellipse cx="16.45" cy="37.1848" fill="#E3E3E3" rx="5.6" ry="5.6" style="stroke:#181818;stroke-width:0.3499999999999999;"/><path d="M16.45,42.7848 L16.45,61.6848 M7.35,48.3848 L25.55,48.3848 M16.45,61.6848 L7.35,72.1848 M16.45,61.6848 L25.55,72.1848 " fill="none" style="stroke:#181818;stroke-width:0.3499999999999999;"/><text fill="#000000" font-family="sans-serif" font-size="9.8" lengthAdjust="spacing" textLength="21.7" x="3.5" y="460.6041">GSM</text><ellipse cx="16.45" cy="469.0137" fill="#E3E3E3" rx="5.6" ry="5.6" style="stroke:#181818;stroke-width:0.3499999999999999;"/><path d="M16.45,474.6137 L16.45,493.5137 M7.35,480.2137 L25.55,480.2137 M16.45,493.5137 L7.35,504.0137 M16.45,493.5137 L25.55,504.0137 " fill="none" style="stroke:#181818;stroke-width:0.3499999999999999;"/><rect fill="#E3E3E3" height="22.8348" rx="1.75" ry="1.75" style="stroke:#181818;stroke-width:0.3499999999999999;" width="93.8" x="197.05" y="62.7348"/><text fill="#000000" font-family="sans-serif" font-size="9.8" lengthAdjust="spacing" textLength="84" x="201.95" y="78.21">:PostponeEntryGUI</text><rect fill="#E3E3E3" height="22.8348" rx="1.75" ry="1.75" style="stroke:#181818;stroke-width:0.3499999999999999;" width="93.8" x="197.05" y="450.0289"/><text fill="#000000" font-family="sans-serif" font-size="9.8" lengthAdjust="spacing" textLength="84" x="201.95" y="465.5041">:PostponeEntryGUI</text><rect fill="#E3E3E3" height="22.8348" rx="1.75" ry="1.75" style="stroke:#181818;stroke-width:0.3499999999999999;" width="90.3" x="392.7" y="62.7348"/><text fill="#000000" font-family="sans-serif" font-size="9.8" lengthAdjust="spacing" textLength="80.5" x="397.6" y="78.21">:AgendaController</text><rect fill="#E3E3E3" height="22.8348" rx="1.75" ry="1.75" style="stroke:#181818;stroke-width:0.3499999999999999;" width="90.3" x="392.7" y="450.0289"/><text fill="#000000" font-family="sans-serif" font-size="9.8" lengthAdjust="spacing" textLength="80.5" x="397.6" y="465.5041">:AgendaController</text><rect fill="#E3E3E3" height="22.8348" rx="1.75" ry="1.75" style="stroke:#181818;stroke-width:0.3499999999999999;" width="67.9" x="490" y="62.7348"/><text fill="#000000" font-family="sans-serif" font-size="9.8" lengthAdjust="spacing" textLength="58.1" x="494.9" y="78.21">:Repositories</text><rect fill="#E3E3E3" height="22.8348" rx="1.75" ry="1.75" style="stroke:#181818;stroke-width:0.3499999999999999;" width="67.9" x="490" y="450.0289"/><text fill="#000000" font-family="sans-serif" font-size="9.8" lengthAdjust="spacing" textLength="58.1" x="494.9" y="465.5041">:Repositories</text><rect fill="#E3E3E3" height="35.8695" rx="1.75" ry="1.75" style="stroke:#181818;stroke-width:0.3499999999999999;" width="67.9" x="647.5" y="49.7"/><text fill="#000000" font-family="sans-serif" font-size="9.8" lengthAdjust="spacing" textLength="51.8" x="655.55" y="65.1752">repositories</text><text fill="#000000" font-family="sans-serif" font-size="9.8" lengthAdjust="spacing" textLength="58.1" x="652.4" y="78.21">:Repositories</text><rect fill="#E3E3E3" height="35.8695" rx="1.75" ry="1.75" style="stroke:#181818;stroke-width:0.3499999999999999;" width="67.9" x="647.5" y="450.0289"/><text fill="#000000" font-family="sans-serif" font-size="9.8" lengthAdjust="spacing" textLength="51.8" x="655.55" y="465.5041">repositories</text><text fill="#000000" font-family="sans-serif" font-size="9.8" lengthAdjust="spacing" textLength="58.1" x="652.4" y="478.5389">:Repositories</text><rect fill="#E3E3E3" height="35.8695" rx="1.75" ry="1.75" style="stroke:#181818;stroke-width:0.3499999999999999;" width="46.9" x="722.4" y="49.7"/><text fill="#000000" font-family="sans-serif" font-size="9.8" lengthAdjust="spacing" textLength="33.6" x="729.05" y="65.1752">agenda</text><text fill="#000000" font-family="sans-serif" font-size="9.8" lengthAdjust="spacing" textLength="37.1" x="727.3" y="78.21">:Agenda</text><rect fill="#E3E3E3" height="35.8695" rx="1.75" ry="1.75" style="stroke:#181818;stroke-width:0.3499999999999999;" width="46.9" x="722.4" y="450.0289"/><text fill="#000000" font-family="sans-serif" font-size="9.8" lengthAdjust="spacing" textLength="33.6" x="729.05" y="465.5041">agenda</text><text fill="#000000" font-family="sans-serif" font-size="9.8" lengthAdjust="spacing" textLength="37.1" x="727.3" y="478.5389">:Agenda</text><rect fill="#FFFFFF" height="344.8594" style="stroke:#181818;stroke-width:0.6999999999999998;" width="7" x="12.95" y="93.2695"/><rect fill="#FFFFFF" height="197.1334" style="stroke:#181818;stroke-width:0.6999999999999998;" width="7" x="240.45" y="109.5732"/><rect fill="#FFFFFF" height="109.5186" style="stroke:#181818;stroke-width:0.6999999999999998;" width="7" x="240.45" y="328.6104"/><rect fill="#FFFFFF" height="153.326" style="stroke:#181818;stroke-width:0.6999999999999998;" width="7" x="434.35" y="131.477"/><rect fill="#FFFFFF" height="65.7111" style="stroke:#181818;stroke-width:0.6999999999999998;" width="7" x="434.35" y="350.5141"/><rect fill="#FFFFFF" height="21.9037" style="stroke:#181818;stroke-width:0.6999999999999998;" width="7" x="520.45" y="153.3807"/><rect fill="#FFFFFF" height="21.9037" style="stroke:#181818;stroke-width:0.6999999999999998;" width="7" x="677.95" y="197.1881"/><rect fill="#FFFFFF" height="21.9037" style="stroke:#181818;stroke-width:0.6999999999999998;" width="7" x="677.95" y="372.4178"/><rect fill="#FFFFFF" height="21.9037" style="stroke:#181818;stroke-width:0.6999999999999998;" width="7" x="742.35" y="240.9955"/><polygon fill="#181818" points="232.05,106.7732,239.05,109.5732,232.05,112.3732,234.85,109.5732" style="stroke:#181818;stroke-width:0.6999999999999998;"/><line style="stroke:#181818;stroke-width:0.6999999999999998;" x1="19.95" x2="236.25" y1="109.5732" y2="109.5732"/><text fill="#000000" font-family="sans-serif" font-size="9.1" font-weight="bold" lengthAdjust="spacing" textLength="4.9" x="24.85" y="105.8894">1</text><text fill="#000000" font-family="sans-serif" font-size="9.1" lengthAdjust="spacing" textLength="164.5" x="32.55" y="105.8894">asks to postpone an entry in the Agenda</text><polygon fill="#181818" points="425.95,128.677,432.95,131.477,425.95,134.277,428.75,131.477" style="stroke:#181818;stroke-width:0.6999999999999998;"/><line style="stroke:#181818;stroke-width:0.6999999999999998;" x1="247.45" x2="430.15" y1="131.477" y2="131.477"/><text fill="#000000" font-family="sans-serif" font-size="9.1" font-weight="bold" lengthAdjust="spacing" textLength="4.9" x="252.35" y="127.7931">2</text><text fill="#000000" font-family="sans-serif" font-size="9.1" lengthAdjust="spacing" textLength="77.7" x="260.05" y="127.7931">getAgendaEntries()</text><polygon fill="#181818" points="512.05,150.5807,519.05,153.3807,512.05,156.1807,514.85,153.3807" style="stroke:#181818;stroke-width:0.6999999999999998;"/><line style="stroke:#181818;stroke-width:0.6999999999999998;" x1="441.35" x2="516.25" y1="153.3807" y2="153.3807"/><text fill="#000000" font-family="sans-serif" font-size="9.1" font-weight="bold" lengthAdjust="spacing" textLength="4.9" x="446.25" y="149.6968">3</text><text fill="#000000" font-family="sans-serif" font-size="9.1" lengthAdjust="spacing" textLength="52.5" x="453.95" y="149.6968">getInstance()</text><polygon fill="#181818" points="449.05,172.4844,442.05,175.2844,449.05,178.0844,446.25,175.2844" style="stroke:#181818;stroke-width:0.6999999999999998;"/><line style="stroke:#181818;stroke-width:0.6999999999999998;stroke-dasharray:2.0,2.0;" x1="444.85" x2="523.25" y1="175.2844" y2="175.2844"/><text fill="#000000" font-family="sans-serif" font-size="9.1" font-weight="bold" lengthAdjust="spacing" textLength="4.9" x="453.25" y="171.6005">4</text><text fill="#000000" font-family="sans-serif" font-size="9.1" lengthAdjust="spacing" textLength="46.9" x="460.95" y="171.6005">repositories</text><polygon fill="#181818" points="669.55,194.3881,676.55,197.1881,669.55,199.9881,672.35,197.1881" style="stroke:#181818;stroke-width:0.6999999999999998;"/><line style="stroke:#181818;stroke-width:0.6999999999999998;" x1="441.35" x2="673.75" y1="197.1881" y2="197.1881"/><text fill="#000000" font-family="sans-serif" font-size="9.1" font-weight="bold" lengthAdjust="spacing" textLength="4.9" x="446.25" y="193.5042">5</text><text fill="#000000" font-family="sans-serif" font-size="9.1" lengthAdjust="spacing" textLength="49" x="453.95" y="193.5042">getAgenda()</text><polygon fill="#181818" points="449.05,216.2918,442.05,219.0918,449.05,221.8918,446.25,219.0918" style="stroke:#181818;stroke-width:0.6999999999999998;"/><line style="stroke:#181818;stroke-width:0.6999999999999998;stroke-dasharray:2.0,2.0;" x1="444.85" x2="680.75" y1="219.0918" y2="219.0918"/><text fill="#000000" font-family="sans-serif" font-size="9.1" font-weight="bold" lengthAdjust="spacing" textLength="4.9" x="453.25" y="215.4079">6</text><text fill="#000000" font-family="sans-serif" font-size="9.1" lengthAdjust="spacing" textLength="29.4" x="460.95" y="215.4079">agenda</text><polygon fill="#181818" points="733.95,238.1955,740.95,240.9955,733.95,243.7955,736.75,240.9955" style="stroke:#181818;stroke-width:0.6999999999999998;"/><line style="stroke:#181818;stroke-width:0.6999999999999998;" x1="441.35" x2="738.15" y1="240.9955" y2="240.9955"/><text fill="#000000" font-family="sans-serif" font-size="9.1" font-weight="bold" lengthAdjust="spacing" textLength="4.9" x="446.25" y="237.3116">7</text><text fill="#000000" font-family="sans-serif" font-size="9.1" lengthAdjust="spacing" textLength="46.9" x="453.95" y="237.3116">getEntries()</text><polygon fill="#181818" points="449.05,260.0992,442.05,262.8992,449.05,265.6992,446.25,262.8992" style="stroke:#181818;stroke-width:0.6999999999999998;"/><line style="stroke:#181818;stroke-width:0.6999999999999998;stroke-dasharray:2.0,2.0;" x1="444.85" x2="745.15" y1="262.8992" y2="262.8992"/><text fill="#000000" font-family="sans-serif" font-size="9.1" font-weight="bold" lengthAdjust="spacing" textLength="4.9" x="453.25" y="259.2153">8</text><text fill="#000000" font-family="sans-serif" font-size="9.1" lengthAdjust="spacing" textLength="27.3" x="460.95" y="259.2153">entries</text><polygon fill="#181818" points="255.15,282.0029,248.15,284.8029,255.15,287.6029,252.35,284.8029" style="stroke:#181818;stroke-width:0.6999999999999998;"/><line style="stroke:#181818;stroke-width:0.6999999999999998;stroke-dasharray:2.0,2.0;" x1="250.95" x2="437.15" y1="284.8029" y2="284.8029"/><text fill="#000000" font-family="sans-serif" font-size="9.1" font-weight="bold" lengthAdjust="spacing" textLength="4.9" x="259.35" y="281.119">9</text><text fill="#000000" font-family="sans-serif" font-size="9.1" lengthAdjust="spacing" textLength="35" x="267.05" y="281.119">entryList</text><polygon fill="#181818" points="27.65,303.9066,20.65,306.7066,27.65,309.5066,24.85,306.7066" style="stroke:#181818;stroke-width:0.6999999999999998;"/><line style="stroke:#181818;stroke-width:0.6999999999999998;stroke-dasharray:2.0,2.0;" x1="23.45" x2="243.25" y1="306.7066" y2="306.7066"/><text fill="#000000" font-family="sans-serif" font-size="9.1" font-weight="bold" lengthAdjust="spacing" textLength="9.8" x="31.85" y="303.0228">10</text><text fill="#000000" font-family="sans-serif" font-size="9.1" lengthAdjust="spacing" textLength="191.1" x="44.45" y="303.0228">shows the list of entries and asks to select one</text><polygon fill="#181818" points="232.05,325.8104,239.05,328.6104,232.05,331.4104,234.85,328.6104" style="stroke:#181818;stroke-width:0.6999999999999998;"/><line style="stroke:#181818;stroke-width:0.6999999999999998;" x1="19.95" x2="236.25" y1="328.6104" y2="328.6104"/><text fill="#000000" font-family="sans-serif" font-size="9.1" font-weight="bold" lengthAdjust="spacing" textLength="9.8" x="24.85" y="324.9265">11</text><text fill="#000000" font-family="sans-serif" font-size="9.1" lengthAdjust="spacing" textLength="165.2" x="37.45" y="324.9265">selects an entry and provides a new date</text><polygon fill="#181818" points="425.95,347.7141,432.95,350.5141,425.95,353.3141,428.75,350.5141" style="stroke:#181818;stroke-width:0.6999999999999998;"/><line style="stroke:#181818;stroke-width:0.6999999999999998;" x1="247.45" x2="430.15" y1="350.5141" y2="350.5141"/><text fill="#000000" font-family="sans-serif" font-size="9.1" font-weight="bold" lengthAdjust="spacing" textLength="9.8" x="252.35" y="346.8302">12</text><text fill="#000000" font-family="sans-serif" font-size="9.1" lengthAdjust="spacing" textLength="161" x="264.95" y="346.8302">postponeEntry(selectedEntry, newDate)</text><polygon fill="#181818" points="669.55,369.6178,676.55,372.4178,669.55,375.2178,672.35,372.4178" style="stroke:#181818;stroke-width:0.6999999999999998;"/><line style="stroke:#181818;stroke-width:0.6999999999999998;" x1="441.35" x2="673.75" y1="372.4178" y2="372.4178"/><text fill="#000000" font-family="sans-serif" font-size="9.1" font-weight="bold" lengthAdjust="spacing" textLength="9.8" x="446.25" y="368.7339">13</text><text fill="#000000" font-family="sans-serif" font-size="9.1" lengthAdjust="spacing" textLength="210.7" x="458.85" y="368.7339">updateEntryDateAndStatus(updatedEntry, newDate)</text><polygon fill="#181818" points="449.05,391.5215,442.05,394.3215,449.05,397.1215,446.25,394.3215" style="stroke:#181818;stroke-width:0.6999999999999998;"/><line style="stroke:#181818;stroke-width:0.6999999999999998;stroke-dasharray:2.0,2.0;" x1="444.85" x2="680.75" y1="394.3215" y2="394.3215"/><text fill="#000000" font-family="sans-serif" font-size="9.1" font-weight="bold" lengthAdjust="spacing" textLength="9.8" x="453.25" y="390.6376">14</text><text fill="#000000" font-family="sans-serif" font-size="9.1" lengthAdjust="spacing" textLength="60.9" x="465.85" y="390.6376">success/failure</text><polygon fill="#181818" points="255.15,413.4252,248.15,416.2252,255.15,419.0252,252.35,416.2252" style="stroke:#181818;stroke-width:0.6999999999999998;"/><line style="stroke:#181818;stroke-width:0.6999999999999998;stroke-dasharray:2.0,2.0;" x1="250.95" x2="437.15" y1="416.2252" y2="416.2252"/><text fill="#000000" font-family="sans-serif" font-size="9.1" font-weight="bold" lengthAdjust="spacing" textLength="9.8" x="259.35" y="412.5413">15</text><text fill="#000000" font-family="sans-serif" font-size="9.1" lengthAdjust="spacing" textLength="133" x="271.95" y="412.5413">displays message of (in)success</text><polygon fill="#181818" points="24.15,435.3289,17.15,438.1289,24.15,440.9289,21.35,438.1289" style="stroke:#181818;stroke-width:0.6999999999999998;"/><line style="stroke:#181818;stroke-width:0.6999999999999998;stroke-dasharray:2.0,2.0;" x1="19.95" x2="243.25" y1="438.1289" y2="438.1289"/><text fill="#000000" font-family="sans-serif" font-size="9.1" font-weight="bold" lengthAdjust="spacing" textLength="9.8" x="28.35" y="434.445">16</text><text fill="#000000" font-family="sans-serif" font-size="9.1" lengthAdjust="spacing" textLength="133" x="40.95" y="434.445">displays message of (in)success</text><!--SRC=[fPH1Zzem48Nl-HKZJa4gwfr3fTMoGaXRQKMwjrxSP0WMYUtrE8loxpks8JW49BRrYPWtdv_7pwQ3L4POqKAhbIxtLhS8pdQOqV2F4UL1r5Yula6mM3gXwYOLq5vK-YXL3JlH46QPauwbHKyEMoZmeqDL8goagBqyBuhLFCj4vxJgsZze-NVfj8NPklWv0q7mqff6zuWPyvqifH7AmMpvfiaPhV15ETkltpT1-xwvKZtLg2hnh5cacmPjK3t_shvUwRPeD4bULo85pJ3H5zBlaEsDIsnIyLjD0N5bFpsk4s6UAw8WQjVRi6tvAHnUDfm1Z_CNB7xmzc39-WE1qs1E3G2X07qJG2fmUpoj78e79ZScJFZ156Rv9Z2jHXVrle_iFPyFkg4uz6kOzYCKC-H6bo9peuYJKMA26o5ljNUazECMVN6oleJq04Qb5Jw-p7aZbzDAUtBFVNAs4zC9QN5fixYSoGsRTtc3lVKs-fgUqjIS3zF84HSdLZ0Y9e3KppKY-ZWdCAJjLPBBRjIEm-ApncL3Y9VyFkWZXPmsJ02zEnlY75T3k0aRVbk0uvrTySz9djoBM4ANw-1vnkfFMNauA3n2nOG7BuP9tvSymh4ANzyyQyNLNxeheuXrnbi9D0zwKbNXXEieZt_SNUS_OqXTMIBHzvsGJMVngtaSnw2IP1hH4xICv83xiyobcfyM-PTmF8AyoaBoEJoSVm40]--></g></svg>