<?xml version="1.0" encoding="us-ascii" standalone="no"?><svg xmlns="http://www.w3.org/2000/svg" xmlns:xlink="http://www.w3.org/1999/xlink" contentStyleType="text/css" height="674.1px" preserveAspectRatio="none" style="width:310px;height:674px;background:#FFFFFF;" version="1.1" viewBox="0 0 310 674" width="310.1px" zoomAndPan="magnify"><defs/><g><!--class EntryController--><g id="elem_EntryController"><rect codeLine="18" fill="#F1F1F1" height="98.7738" id="EntryController" rx="1.75" ry="1.75" style="stroke:#181818;stroke-width:0.3499999999999999;" width="274.4" x="4.9" y="81.2"/><ellipse cx="105.875" cy="92.4" fill="#ADD1B2" rx="7.7" ry="7.7" style="stroke:#181818;stroke-width:0.6999999999999998;"/><path d="M107.8109,89.5125 Q107.9203,89.3594 108.0516,89.2828 Q108.1828,89.2062 108.3359,89.2062 Q108.5984,89.2062 108.7625,89.3922 Q108.9266,89.5672 108.9266,89.9937 L108.9266,91.0109 Q108.9266,91.4375 108.7625,91.6234 Q108.5984,91.8094 108.3359,91.8094 Q108.0953,91.8094 107.9531,91.6672 Q107.8109,91.5359 107.7344,91.175 Q107.7016,90.9234 107.5703,90.7922 Q107.3406,90.5297 106.9141,90.3766 Q106.4875,90.2234 106.05,90.2234 Q105.5141,90.2234 105.0656,90.4531 Q104.6281,90.6828 104.2781,91.2078 Q103.9391,91.7328 103.9391,92.4547 L103.9391,93.2203 Q103.9391,94.0844 104.5625,94.6641 Q105.1859,95.2328 106.3016,95.2328 Q106.9578,95.2328 107.4172,95.0578 Q107.6906,94.9484 107.9859,94.6422 Q108.1719,94.4562 108.2703,94.4016 Q108.3797,94.3469 108.5219,94.3469 Q108.7516,94.3469 108.9266,94.5328 Q109.1125,94.7078 109.1125,94.9484 Q109.1125,95.1891 108.8719,95.4734 Q108.5219,95.8781 107.9641,96.1078 Q107.2094,96.425 106.3016,96.425 Q105.2406,96.425 104.3984,95.9875 Q103.7094,95.6375 103.2281,94.8937 Q102.7469,94.1391 102.7469,93.2422 L102.7469,92.4328 Q102.7469,91.5031 103.1734,90.7047 Q103.6109,89.8953 104.3766,89.4687 Q105.1422,89.0312 106.0062,89.0312 Q106.5203,89.0312 106.9687,89.1516 Q107.4281,89.2609 107.8109,89.5125 Z " fill="#000000"/><text fill="#000000" font-family="sans-serif" font-size="9.8" lengthAdjust="spacing" textLength="66.5" x="120.225" y="96.4578">EntryController</text><line style="stroke:#181818;stroke-width:0.3499999999999999;" x1="5.6" x2="278.6" y1="103.6" y2="103.6"/><text fill="#000000" font-family="sans-serif" font-size="9.8" lengthAdjust="spacing" textLength="74.2" x="9.1" y="116.9752">-Agenda agenda</text><line style="stroke:#181818;stroke-width:0.3499999999999999;" x1="5.6" x2="278.6" y1="122.2348" y2="122.2348"/><text fill="#000000" font-family="sans-serif" font-size="9.8" lengthAdjust="spacing" textLength="79.1" x="9.1" y="135.61">+EntryController()</text><text fill="#000000" font-family="sans-serif" font-size="9.8" lengthAdjust="spacing" textLength="79.8" x="9.1" y="148.6447">-void getAgenda()</text><text fill="#000000" font-family="sans-serif" font-size="9.8" lengthAdjust="spacing" textLength="171.5" x="9.1" y="161.6795">+AgendaEntry displayAndSelectEntry()</text><text fill="#000000" font-family="sans-serif" font-size="9.8" lengthAdjust="spacing" textLength="266" x="9.1" y="174.7143">+boolean postponeEntry(AgendaEntry entry, Date newDate)</text></g><!--class Agenda--><g id="elem_Agenda"><rect codeLine="40" fill="#F1F1F1" height="111.8086" id="Agenda" rx="1.75" ry="1.75" style="stroke:#181818;stroke-width:0.3499999999999999;" width="187.6" x="48.3" y="350.7"/><ellipse cx="121.975" cy="361.9" fill="#ADD1B2" rx="7.7" ry="7.7" style="stroke:#181818;stroke-width:0.6999999999999998;"/><path d="M123.9109,359.0125 Q124.0203,358.8594 124.1516,358.7828 Q124.2828,358.7062 124.4359,358.7062 Q124.6984,358.7062 124.8625,358.8922 Q125.0266,359.0672 125.0266,359.4937 L125.0266,360.5109 Q125.0266,360.9375 124.8625,361.1234 Q124.6984,361.3094 124.4359,361.3094 Q124.1953,361.3094 124.0531,361.1672 Q123.9109,361.0359 123.8344,360.675 Q123.8016,360.4234 123.6703,360.2922 Q123.4406,360.0297 123.0141,359.8766 Q122.5875,359.7234 122.15,359.7234 Q121.6141,359.7234 121.1656,359.9531 Q120.7281,360.1828 120.3781,360.7078 Q120.0391,361.2328 120.0391,361.9547 L120.0391,362.7203 Q120.0391,363.5844 120.6625,364.1641 Q121.2859,364.7328 122.4016,364.7328 Q123.0578,364.7328 123.5172,364.5578 Q123.7906,364.4484 124.0859,364.1422 Q124.2719,363.9562 124.3703,363.9016 Q124.4797,363.8469 124.6219,363.8469 Q124.8516,363.8469 125.0266,364.0328 Q125.2125,364.2078 125.2125,364.4484 Q125.2125,364.6891 124.9719,364.9734 Q124.6219,365.3781 124.0641,365.6078 Q123.3094,365.925 122.4016,365.925 Q121.3406,365.925 120.4984,365.4875 Q119.8094,365.1375 119.3281,364.3937 Q118.8469,363.6391 118.8469,362.7422 L118.8469,361.9328 Q118.8469,361.0031 119.2734,360.2047 Q119.7109,359.3953 120.4766,358.9687 Q121.2422,358.5312 122.1062,358.5312 Q122.6203,358.5312 123.0687,358.6516 Q123.5281,358.7609 123.9109,359.0125 Z " fill="#000000"/><text fill="#000000" font-family="sans-serif" font-size="9.8" lengthAdjust="spacing" textLength="34.3" x="136.325" y="365.9578">Agenda</text><line style="stroke:#181818;stroke-width:0.3499999999999999;" x1="49" x2="235.2" y1="373.1" y2="373.1"/><text fill="#000000" font-family="sans-serif" font-size="9.8" lengthAdjust="spacing" textLength="170.8" x="52.5" y="386.4752">-static final List&lt;AgendaEntry&gt; agenda</text><line style="stroke:#181818;stroke-width:0.3499999999999999;" x1="49" x2="235.2" y1="391.7348" y2="391.7348"/><text fill="#000000" font-family="sans-serif" font-size="9.8" lengthAdjust="spacing" textLength="121.8" x="52.5" y="405.11">+void addEntry(Entry entry)</text><text fill="#000000" font-family="sans-serif" font-size="9.8" lengthAdjust="spacing" textLength="145.6" x="52.5" y="418.1447">+static void printEntryAt(int nList)</text><text fill="#000000" font-family="sans-serif" font-size="9.8" lengthAdjust="spacing" textLength="173.6" x="52.5" y="431.1795">+static List&lt;AgendaEntry&gt; getAgenda()</text><text fill="#000000" font-family="sans-serif" font-size="9.8" lengthAdjust="spacing" textLength="179.2" x="52.5" y="444.2143">+static AgendaEntry getEntryAt(int nList)</text><text fill="#000000" font-family="sans-serif" font-size="9.8" lengthAdjust="spacing" textLength="84" x="52.5" y="457.249">+static int getSize()</text></g><!--class Repositories--><g id="elem_Repositories"><rect codeLine="52" fill="#F1F1F1" height="72.7043" id="Repositories" rx="1.75" ry="1.75" style="stroke:#181818;stroke-width:0.3499999999999999;" width="186.2" x="49" y="235.2"/><ellipse cx="111.475" cy="246.4" fill="#ADD1B2" rx="7.7" ry="7.7" style="stroke:#181818;stroke-width:0.6999999999999998;"/><path d="M113.4109,243.5125 Q113.5203,243.3594 113.6516,243.2828 Q113.7828,243.2062 113.9359,243.2062 Q114.1984,243.2062 114.3625,243.3922 Q114.5266,243.5672 114.5266,243.9937 L114.5266,245.0109 Q114.5266,245.4375 114.3625,245.6234 Q114.1984,245.8094 113.9359,245.8094 Q113.6953,245.8094 113.5531,245.6672 Q113.4109,245.5359 113.3344,245.175 Q113.3016,244.9234 113.1703,244.7922 Q112.9406,244.5297 112.5141,244.3766 Q112.0875,244.2234 111.65,244.2234 Q111.1141,244.2234 110.6656,244.4531 Q110.2281,244.6828 109.8781,245.2078 Q109.5391,245.7328 109.5391,246.4547 L109.5391,247.2203 Q109.5391,248.0844 110.1625,248.6641 Q110.7859,249.2328 111.9016,249.2328 Q112.5578,249.2328 113.0172,249.0578 Q113.2906,248.9484 113.5859,248.6422 Q113.7719,248.4562 113.8703,248.4016 Q113.9797,248.3469 114.1219,248.3469 Q114.3516,248.3469 114.5266,248.5328 Q114.7125,248.7078 114.7125,248.9484 Q114.7125,249.1891 114.4719,249.4734 Q114.1219,249.8781 113.5641,250.1078 Q112.8094,250.425 111.9016,250.425 Q110.8406,250.425 109.9984,249.9875 Q109.3094,249.6375 108.8281,248.8937 Q108.3469,248.1391 108.3469,247.2422 L108.3469,246.4328 Q108.3469,245.5031 108.7734,244.7047 Q109.2109,243.8953 109.9766,243.4687 Q110.7422,243.0312 111.6062,243.0312 Q112.1203,243.0312 112.5687,243.1516 Q113.0281,243.2609 113.4109,243.5125 Z " fill="#000000"/><text fill="#000000" font-family="sans-serif" font-size="9.8" lengthAdjust="spacing" textLength="55.3" x="125.825" y="250.4578">Repositories</text><line style="stroke:#181818;stroke-width:0.3499999999999999;" x1="49.7" x2="234.5" y1="257.6" y2="257.6"/><line style="stroke:#181818;stroke-width:0.3499999999999999;" x1="49.7" x2="234.5" y1="263.2" y2="263.2"/><text fill="#000000" font-family="sans-serif" font-size="9.8" lengthAdjust="spacing" textLength="63.7" x="53.2" y="276.5752">+getInstance()</text><text fill="#000000" font-family="sans-serif" font-size="9.8" lengthAdjust="spacing" textLength="100.8" x="53.2" y="289.61">+getAgenda(): Agenda</text><text fill="#000000" font-family="sans-serif" font-size="9.8" lengthAdjust="spacing" textLength="177.8" x="53.2" y="302.6447">+getTeamRepository(): TeamRepository</text></g><!--class AgendaEntry--><g id="elem_AgendaEntry"><rect codeLine="26" fill="#F1F1F1" height="163.9477" id="AgendaEntry" rx="1.75" ry="1.75" style="stroke:#181818;stroke-width:0.3499999999999999;" width="142.1" x="163.45" y="505.4"/><ellipse cx="202.825" cy="516.6" fill="#ADD1B2" rx="7.7" ry="7.7" style="stroke:#181818;stroke-width:0.6999999999999998;"/><path d="M204.7609,513.7125 Q204.8703,513.5594 205.0016,513.4828 Q205.1328,513.4062 205.2859,513.4062 Q205.5484,513.4062 205.7125,513.5922 Q205.8766,513.7672 205.8766,514.1937 L205.8766,515.2109 Q205.8766,515.6375 205.7125,515.8234 Q205.5484,516.0094 205.2859,516.0094 Q205.0453,516.0094 204.9031,515.8672 Q204.7609,515.7359 204.6844,515.375 Q204.6516,515.1234 204.5203,514.9922 Q204.2906,514.7297 203.8641,514.5766 Q203.4375,514.4234 203,514.4234 Q202.4641,514.4234 202.0156,514.6531 Q201.5781,514.8828 201.2281,515.4078 Q200.8891,515.9328 200.8891,516.6547 L200.8891,517.4203 Q200.8891,518.2844 201.5125,518.8641 Q202.1359,519.4328 203.2516,519.4328 Q203.9078,519.4328 204.3672,519.2578 Q204.6406,519.1484 204.9359,518.8422 Q205.1219,518.6562 205.2203,518.6016 Q205.3297,518.5469 205.4719,518.5469 Q205.7016,518.5469 205.8766,518.7328 Q206.0625,518.9078 206.0625,519.1484 Q206.0625,519.3891 205.8219,519.6734 Q205.4719,520.0781 204.9141,520.3078 Q204.1594,520.625 203.2516,520.625 Q202.1906,520.625 201.3484,520.1875 Q200.6594,519.8375 200.1781,519.0937 Q199.6969,518.3391 199.6969,517.4422 L199.6969,516.6328 Q199.6969,515.7031 200.1234,514.9047 Q200.5609,514.0953 201.3266,513.6687 Q202.0922,513.2312 202.9562,513.2312 Q203.4703,513.2312 203.9187,513.3516 Q204.3781,513.4609 204.7609,513.7125 Z " fill="#000000"/><text fill="#000000" font-family="sans-serif" font-size="9.8" lengthAdjust="spacing" textLength="57.4" x="217.175" y="520.6578">AgendaEntry</text><line style="stroke:#181818;stroke-width:0.3499999999999999;" x1="164.15" x2="304.85" y1="527.8" y2="527.8"/><text fill="#000000" font-family="sans-serif" font-size="9.8" lengthAdjust="spacing" textLength="73.5" x="167.65" y="541.1752">-String entryTitle</text><text fill="#000000" font-family="sans-serif" font-size="9.8" lengthAdjust="spacing" textLength="46.9" x="167.65" y="554.21">-Date date</text><text fill="#000000" font-family="sans-serif" font-size="9.8" lengthAdjust="spacing" textLength="53.2" x="167.65" y="567.2447">-Team team</text><line style="stroke:#181818;stroke-width:0.3499999999999999;" x1="164.15" x2="304.85" y1="572.5043" y2="572.5043"/><text fill="#000000" font-family="sans-serif" font-size="9.8" lengthAdjust="spacing" textLength="97.3" x="167.65" y="585.8795">+String getEntryTitle()</text><text fill="#000000" font-family="sans-serif" font-size="9.8" lengthAdjust="spacing" textLength="114.1" x="167.65" y="598.9143">+String getDateToString()</text><text fill="#000000" font-family="sans-serif" font-size="9.8" lengthAdjust="spacing" textLength="111.3" x="167.65" y="611.949">+void setDate(Date date)</text><text fill="#000000" font-family="sans-serif" font-size="9.8" lengthAdjust="spacing" textLength="71.4" x="167.65" y="624.9838">+Date getDate()</text><text fill="#000000" font-family="sans-serif" font-size="9.8" lengthAdjust="spacing" textLength="91.7" x="167.65" y="638.0186">+Date validateDate()</text><text fill="#000000" font-family="sans-serif" font-size="9.8" lengthAdjust="spacing" textLength="133.7" x="167.65" y="651.0533">+Date validatePostponeDate()</text><text fill="#000000" font-family="sans-serif" font-size="9.8" lengthAdjust="spacing" textLength="75.6" x="167.65" y="664.0881">+String toString()</text></g><!--class PostponeEntryGUI--><g id="elem_PostponeEntryGUI"><rect codeLine="49" fill="#F1F1F1" height="33.6" id="PostponeEntryGUI" rx="1.75" ry="1.75" style="stroke:#181818;stroke-width:0.3499999999999999;" width="103.6" x="90.3" y="4.9"/><ellipse cx="100.8" cy="16.1" fill="#ADD1B2" rx="7.7" ry="7.7" style="stroke:#181818;stroke-width:0.6999999999999998;"/><path d="M102.7359,13.2125 Q102.8453,13.0594 102.9766,12.9828 Q103.1078,12.9062 103.2609,12.9062 Q103.5234,12.9062 103.6875,13.0922 Q103.8516,13.2672 103.8516,13.6937 L103.8516,14.7109 Q103.8516,15.1375 103.6875,15.3234 Q103.5234,15.5094 103.2609,15.5094 Q103.0203,15.5094 102.8781,15.3672 Q102.7359,15.2359 102.6594,14.875 Q102.6266,14.6234 102.4953,14.4922 Q102.2656,14.2297 101.8391,14.0766 Q101.4125,13.9234 100.975,13.9234 Q100.4391,13.9234 99.9906,14.1531 Q99.5531,14.3828 99.2031,14.9078 Q98.8641,15.4328 98.8641,16.1547 L98.8641,16.9203 Q98.8641,17.7844 99.4875,18.3641 Q100.1109,18.9328 101.2266,18.9328 Q101.8828,18.9328 102.3422,18.7578 Q102.6156,18.6484 102.9109,18.3422 Q103.0969,18.1562 103.1953,18.1016 Q103.3047,18.0469 103.4469,18.0469 Q103.6766,18.0469 103.8516,18.2328 Q104.0375,18.4078 104.0375,18.6484 Q104.0375,18.8891 103.7969,19.1734 Q103.4469,19.5781 102.8891,19.8078 Q102.1344,20.125 101.2266,20.125 Q100.1656,20.125 99.3234,19.6875 Q98.6344,19.3375 98.1531,18.5937 Q97.6719,17.8391 97.6719,16.9422 L97.6719,16.1328 Q97.6719,15.2031 98.0984,14.4047 Q98.5359,13.5953 99.3016,13.1687 Q100.0672,12.7312 100.9312,12.7312 Q101.4453,12.7312 101.8937,12.8516 Q102.3531,12.9609 102.7359,13.2125 Z " fill="#000000"/><text fill="#000000" font-family="sans-serif" font-size="9.8" lengthAdjust="spacing" textLength="81.2" x="110.6" y="20.1578">PostponeEntryGUI</text><line style="stroke:#181818;stroke-width:0.3499999999999999;" x1="91" x2="193.2" y1="27.3" y2="27.3"/><line style="stroke:#181818;stroke-width:0.3499999999999999;" x1="91" x2="193.2" y1="32.9" y2="32.9"/></g><!--link EntryController to Agenda--><g id="link_EntryController_Agenda"><path codeLine="9" d="M92.344,180.18 C64.932,207.144 36.4,235.2 36.4,235.2 C36.4,235.2 36.4,308 36.4,308 C36.4,308 55.3983,325.6122 79.3733,347.8442 " fill="none" id="EntryController-to-Agenda" style="stroke:#181818;stroke-width:0.6999999999999998;"/><polygon fill="#181818" points="82.453,350.7,79.7373,344.3632,79.8866,348.3202,75.9296,348.4694,82.453,350.7" style="stroke:#181818;stroke-width:0.6999999999999998;"/></g><!--link EntryController to Repositories--><g id="link_EntryController_Repositories"><path codeLine="10" d="M142.1,180.096 C142.1,198.184 142.1,214.144 142.1,230.867 " fill="none" id="EntryController-to-Repositories" style="stroke:#181818;stroke-width:0.6999999999999998;stroke-dasharray:7.0,7.0;"/><polygon fill="#181818" points="142.1,235.067,144.9,228.767,142.1,231.567,139.3,228.767,142.1,235.067" style="stroke:#181818;stroke-width:0.6999999999999998;"/><text fill="#000000" font-family="sans-serif" font-size="9.1" lengthAdjust="spacing" textLength="46.9" x="142.8" y="211.4198">repositories</text></g><!--link EntryController to AgendaEntry--><g id="link_EntryController_AgendaEntry"><path codeLine="11" d="M217.651,180.026 C259.483,207.039 303.1,235.2 303.1,235.2 C303.1,235.2 303.1,308 303.1,308 C303.1,308 275.7823,418.9599 255.5313,501.1889 " fill="none" id="EntryController-to-AgendaEntry" style="stroke:#181818;stroke-width:0.6999999999999998;"/><polygon fill="#181818" points="254.527,505.267,258.7523,499.8193,255.364,501.8685,253.3148,498.4802,254.527,505.267" style="stroke:#181818;stroke-width:0.6999999999999998;"/></g><!--link PostponeEntryGUI to EntryController--><g id="link_PostponeEntryGUI_EntryController"><path codeLine="12" d="M142.1,38.717 C142.1,50.05 142.1,61.586 142.1,76.797 " fill="none" id="PostponeEntryGUI-to-EntryController" style="stroke:#181818;stroke-width:0.6999999999999998;stroke-dasharray:7.0,7.0;"/><polygon fill="#181818" points="142.1,80.997,144.9,74.697,142.1,77.497,139.3,74.697,142.1,80.997" style="stroke:#181818;stroke-width:0.6999999999999998;"/></g><!--link Repositories to Agenda--><g id="link_Repositories_Agenda"><path codeLine="13" d="M142.1,308.126 C142.1,321.202 142.1,332.108 142.1,346.479 " fill="none" id="Repositories-to-Agenda" style="stroke:#181818;stroke-width:0.6999999999999998;"/><polygon fill="#181818" points="142.1,350.679,144.9,344.379,142.1,347.179,139.3,344.379,142.1,350.679" style="stroke:#181818;stroke-width:0.6999999999999998;"/><text fill="#000000" font-family="sans-serif" font-size="9.1" lengthAdjust="spacing" textLength="4.9" x="136.9741" y="342.9041">1</text></g><!--reverse link Repositories to Repositories--><g id="link_Repositories_Repositories"><path codeLine="15" d="M239.4415,262.1617 C253.9735,263.6387 259.7,266.497 259.7,271.6 C259.7,276.703 249.795,279.986 235.263,281.463 " fill="none" id="Repositories-backto-Repositories" style="stroke:#181818;stroke-width:0.6999999999999998;"/><polygon fill="#181818" points="235.263,261.737,241.2476,265.1597,238.7451,262.0909,241.8138,259.5884,235.263,261.737" style="stroke:#181818;stroke-width:0.6999999999999998;"/><text fill="#000000" font-family="sans-serif" font-size="9.1" lengthAdjust="spacing" textLength="34.3" x="263.9" y="275.4698">instance</text></g><!--link Agenda to AgendaEntry--><g id="link_Agenda_AgendaEntry"><path codeLine="16" d="M170.702,462.875 C177.646,476.336 183.2876,487.2823 190.7076,501.6673 " fill="none" id="Agenda-to-AgendaEntry" style="stroke:#181818;stroke-width:0.6999999999999998;"/><polygon fill="#181818" points="192.633,505.4,192.2334,498.5174,191.0285,502.2894,187.2565,501.0846,192.633,505.4" style="stroke:#181818;stroke-width:0.6999999999999998;"/></g><!--SRC=[VLDDRzim3BthLn2zn4NcOhiMHO1WBOe0EmnBzWDKct64Af8XiIsyelzzr8TZELcNWnBoFP8lJzJ2FolJIoUFSBJ6DWTdZmZaNb1CI2-RPzdXbWQDuB0XQJfT4ln1jlPDcGxsKliIqSeW3Jr2R_KG0h7u1sWTsQAeqTBxDP5JJo-4cyQQhVg3y5KiDEu9o89JtO6WLK6CiaQ81qDk-6xvj5gZWxfUmRf3qyeBwEPc1R-mjrwHTGeztF9_ciB_j8g8-6azzTPWZ1v_RsB3io8n6n0wN7sx6WNDmRkwFfUZZ6UB6nIfu4A1Y0QTpuHt0VofSv5Cmq9gUSQihXFprQeMEgHKaRFBOX8xx7ijXxLfjwZPwvWTYK_MQfI6hxOmf2hBCPnVu5uIWi6ty7qjFaRz9JDht_ATynR5kfqYNhAOZWrQFbAuGruIuYFfo4NyHnvETQF62GizTZR58neDy0chJaCo6EDSM9MvLwbLu7qAZ1jI4h8GcXIm3pCZHW_uxaari5T6QlYXFDqLHgrcznhroxPDpXUUvw6vLQJrF3OPjAQAVu89lUV4osaNsv6PvTsDnd_UDwIP5LvnLIp0nKjwdx3oIIHZbjnXar_6gARKTpk-hnCIzkJKPmYCUKPy_0K0]--></g></svg>