<?xml version="1.0" encoding="us-ascii" standalone="no"?><svg xmlns="http://www.w3.org/2000/svg" xmlns:xlink="http://www.w3.org/1999/xlink" contentStyleType="text/css" height="1689px" preserveAspectRatio="none" style="width:1396px;height:1689px;background:#FFFFFF;" version="1.1" viewBox="0 0 1396 1689" width="1396px" zoomAndPan="magnify"><defs/><g><text fill="#000000" font-family="sans-serif" font-size="14" font-weight="bold" lengthAdjust="spacing" textLength="242" x="576" y="30.1074">System Sequence Diagram - US020</text><rect fill="#FFFFFF" height="1426.4355" style="stroke:#181818;stroke-width:1.0;" width="10" x="102" y="151.8633"/><rect fill="#FFFFFF" height="57.582" style="stroke:#181818;stroke-width:1.0;" width="10" x="506" y="175.1543"/><rect fill="#FFFFFF" height="495.9961" style="stroke:#181818;stroke-width:1.0;" width="10" x="506" y="264.0273"/><rect fill="#FFFFFF" height="332.9102" style="stroke:#181818;stroke-width:1.0;" width="10" x="506" y="791.3145"/><rect fill="#FFFFFF" height="31.291" style="stroke:#181818;stroke-width:1.0;" width="10" x="506" y="1155.5156"/><rect fill="#FFFFFF" height="344.2012" style="stroke:#181818;stroke-width:1.0;" width="10" x="506" y="1218.0977"/><rect fill="#FFFFFF" height="219.0371" style="stroke:#181818;stroke-width:1.0;" width="10" x="731" y="409.1914"/><rect fill="#FFFFFF" height="219.0371" style="stroke:#181818;stroke-width:1.0;" width="10" x="731" y="873.8965"/><rect fill="#FFFFFF" height="219.0371" style="stroke:#181818;stroke-width:1.0;" width="10" x="731" y="1311.9707"/><rect fill="#FFFFFF" height="31.291" style="stroke:#181818;stroke-width:1.0;" width="10" x="869.5" y="440.4824"/><rect fill="#FFFFFF" height="31.291" style="stroke:#181818;stroke-width:1.0;" width="10" x="869.5" y="905.1875"/><rect fill="#FFFFFF" height="31.291" style="stroke:#181818;stroke-width:1.0;" width="10" x="869.5" y="1343.2617"/><rect fill="#FFFFFF" height="31.291" style="stroke:#181818;stroke-width:1.0;" width="10" x="974.5" y="503.0645"/><rect fill="#FFFFFF" height="31.291" style="stroke:#181818;stroke-width:1.0;" width="10" x="974.5" y="967.7695"/><rect fill="#FFFFFF" height="31.291" style="stroke:#181818;stroke-width:1.0;" width="10" x="974.5" y="1405.8438"/><rect fill="#FFFFFF" height="31.291" style="stroke:#181818;stroke-width:1.0;" width="10" x="1114" y="565.6465"/><rect fill="#FFFFFF" height="31.291" style="stroke:#181818;stroke-width:1.0;" width="10" x="1114" y="1030.3516"/><rect fill="#FFFFFF" height="31.291" style="stroke:#181818;stroke-width:1.0;" width="10" x="1114" y="1468.4258"/><rect fill="#FFFFFF" height="31.291" style="stroke:#181818;stroke-width:1.0;" width="10" x="1256" y="1249.3887"/><rect fill="#FFFFFF" height="31.291" style="stroke:#181818;stroke-width:1.0;" width="10" x="1350" y="346.6094"/><rect fill="none" height="126.1641" style="stroke:#000000;stroke-width:1.5;" width="605" x="20" y="190.1543"/><rect fill="none" height="927.0703" style="stroke:#000000;stroke-width:1.5;" width="1310" x="10" y="643.2285"/><rect fill="none" height="126.1641" style="stroke:#000000;stroke-width:1.5;" width="612" x="20" y="717.4414"/><line style="stroke:#181818;stroke-width:0.5;stroke-dasharray:5.0,5.0;" x1="107" x2="107" y1="141.8633" y2="1587.2988"/><line style="stroke:#181818;stroke-width:0.5;stroke-dasharray:5.0,5.0;" x1="510.5" x2="510.5" y1="141.8633" y2="1587.2988"/><line style="stroke:#181818;stroke-width:0.5;stroke-dasharray:5.0,5.0;" x1="736" x2="736" y1="141.8633" y2="1587.2988"/><line style="stroke:#181818;stroke-width:0.5;stroke-dasharray:5.0,5.0;" x1="874" x2="874" y1="141.8633" y2="1587.2988"/><line style="stroke:#181818;stroke-width:0.5;stroke-dasharray:5.0,5.0;" x1="979" x2="979" y1="141.8633" y2="1587.2988"/><line style="stroke:#181818;stroke-width:0.5;stroke-dasharray:5.0,5.0;" x1="1119" x2="1119" y1="141.8633" y2="1587.2988"/><line style="stroke:#181818;stroke-width:0.5;stroke-dasharray:5.0,5.0;" x1="1261" x2="1261" y1="141.8633" y2="1587.2988"/><line style="stroke:#181818;stroke-width:0.5;stroke-dasharray:5.0,5.0;" x1="1355" x2="1355" y1="141.8633" y2="1587.2988"/><text fill="#000000" font-family="sans-serif" font-size="14" lengthAdjust="spacing" textLength="144" x="30" y="119.7285">Green Space Manager</text><text fill="#000000" font-family="sans-serif" font-size="14" lengthAdjust="spacing" textLength="41" x="83.5" y="138.3496">(GSM)</text><ellipse cx="107" cy="53.1211" fill="#E3E3E3" rx="8" ry="8" style="stroke:#181818;stroke-width:0.5;"/><path d="M107,61.1211 L107,88.1211 M94,69.1211 L120,69.1211 M107,88.1211 L94,103.1211 M107,88.1211 L120,103.1211 " fill="none" style="stroke:#181818;stroke-width:0.5;"/><text fill="#000000" font-family="sans-serif" font-size="14" lengthAdjust="spacing" textLength="144" x="30" y="1601.4063">Green Space Manager</text><text fill="#000000" font-family="sans-serif" font-size="14" lengthAdjust="spacing" textLength="41" x="83.5" y="1620.0273">(GSM)</text><ellipse cx="107" cy="1632.041" fill="#E3E3E3" rx="8" ry="8" style="stroke:#181818;stroke-width:0.5;"/><path d="M107,1640.041 L107,1667.041 M94,1648.041 L120,1648.041 M107,1667.041 L94,1682.041 M107,1667.041 L120,1682.041 " fill="none" style="stroke:#181818;stroke-width:0.5;"/><rect fill="#E3E3E3" height="32.6211" rx="2.5" ry="2.5" style="stroke:#181818;stroke-width:0.5;" width="163" x="429.5" y="108.2422"/><text fill="#000000" font-family="sans-serif" font-size="14" lengthAdjust="spacing" textLength="149" x="436.5" y="130.3496">:RegisterGreenSpaceUI</text><rect fill="#E3E3E3" height="32.6211" rx="2.5" ry="2.5" style="stroke:#181818;stroke-width:0.5;" width="163" x="429.5" y="1586.2988"/><text fill="#000000" font-family="sans-serif" font-size="14" lengthAdjust="spacing" textLength="149" x="436.5" y="1608.4063">:RegisterGreenSpaceUI</text><rect fill="#E3E3E3" height="32.6211" rx="2.5" ry="2.5" style="stroke:#181818;stroke-width:0.5;" width="160" x="656" y="108.2422"/><text fill="#000000" font-family="sans-serif" font-size="14" lengthAdjust="spacing" textLength="146" x="663" y="130.3496">:GreenSpaceController</text><rect fill="#E3E3E3" height="32.6211" rx="2.5" ry="2.5" style="stroke:#181818;stroke-width:0.5;" width="160" x="656" y="1586.2988"/><text fill="#000000" font-family="sans-serif" font-size="14" lengthAdjust="spacing" textLength="146" x="663" y="1608.4063">:GreenSpaceController</text><rect fill="#E3E3E3" height="32.6211" rx="2.5" ry="2.5" style="stroke:#181818;stroke-width:0.5;" width="97" x="826" y="108.2422"/><text fill="#000000" font-family="sans-serif" font-size="14" lengthAdjust="spacing" textLength="83" x="833" y="130.3496">:Repositories</text><rect fill="#E3E3E3" height="32.6211" rx="2.5" ry="2.5" style="stroke:#181818;stroke-width:0.5;" width="97" x="826" y="1586.2988"/><text fill="#000000" font-family="sans-serif" font-size="14" lengthAdjust="spacing" textLength="83" x="833" y="1608.4063">:Repositories</text><rect fill="#E3E3E3" height="51.2422" rx="2.5" ry="2.5" style="stroke:#181818;stroke-width:0.5;" width="93" x="933" y="89.6211"/><text fill="#000000" font-family="sans-serif" font-size="14" lengthAdjust="spacing" textLength="78" x="940.5" y="111.7285">repositories:</text><text fill="#000000" font-family="sans-serif" font-size="14" lengthAdjust="spacing" textLength="79" x="940" y="130.3496">Repositories</text><rect fill="#E3E3E3" height="51.2422" rx="2.5" ry="2.5" style="stroke:#181818;stroke-width:0.5;" width="93" x="933" y="1586.2988"/><text fill="#000000" font-family="sans-serif" font-size="14" lengthAdjust="spacing" textLength="78" x="940.5" y="1608.4063">repositories:</text><text fill="#000000" font-family="sans-serif" font-size="14" lengthAdjust="spacing" textLength="79" x="940" y="1627.0273">Repositories</text><rect fill="#E3E3E3" height="51.2422" rx="2.5" ry="2.5" style="stroke:#181818;stroke-width:0.5;" width="166" x="1036" y="89.6211"/><text fill="#000000" font-family="sans-serif" font-size="14" lengthAdjust="spacing" textLength="145" x="1046.5" y="111.7285">greenSpaceRepository</text><text fill="#000000" font-family="sans-serif" font-size="14" lengthAdjust="spacing" textLength="152" x="1043" y="130.3496">:GreenSpaceRepository</text><rect fill="#E3E3E3" height="51.2422" rx="2.5" ry="2.5" style="stroke:#181818;stroke-width:0.5;" width="166" x="1036" y="1586.2988"/><text fill="#000000" font-family="sans-serif" font-size="14" lengthAdjust="spacing" textLength="145" x="1046.5" y="1608.4063">greenSpaceRepository</text><text fill="#000000" font-family="sans-serif" font-size="14" lengthAdjust="spacing" textLength="152" x="1043" y="1627.0273">:GreenSpaceRepository</text><rect fill="#E3E3E3" height="51.2422" rx="2.5" ry="2.5" style="stroke:#181818;stroke-width:0.5;" width="98" x="1212" y="89.6211"/><text fill="#000000" font-family="sans-serif" font-size="14" lengthAdjust="spacing" textLength="77" x="1222.5" y="111.7285">greenSpace</text><text fill="#000000" font-family="sans-serif" font-size="14" lengthAdjust="spacing" textLength="84" x="1219" y="130.3496">:GreenSpace</text><rect fill="#E3E3E3" height="51.2422" rx="2.5" ry="2.5" style="stroke:#181818;stroke-width:0.5;" width="98" x="1212" y="1586.2988"/><text fill="#000000" font-family="sans-serif" font-size="14" lengthAdjust="spacing" textLength="77" x="1222.5" y="1608.4063">greenSpace</text><text fill="#000000" font-family="sans-serif" font-size="14" lengthAdjust="spacing" textLength="84" x="1219" y="1627.0273">:GreenSpace</text><rect fill="#E3E3E3" height="51.2422" rx="2.5" ry="2.5" style="stroke:#181818;stroke-width:0.5;" width="70" x="1320" y="89.6211"/><text fill="#000000" font-family="sans-serif" font-size="14" lengthAdjust="spacing" textLength="51" x="1329.5" y="111.7285">address</text><text fill="#000000" font-family="sans-serif" font-size="14" lengthAdjust="spacing" textLength="56" x="1327" y="130.3496">:Address</text><rect fill="#E3E3E3" height="51.2422" rx="2.5" ry="2.5" style="stroke:#181818;stroke-width:0.5;" width="70" x="1320" y="1586.2988"/><text fill="#000000" font-family="sans-serif" font-size="14" lengthAdjust="spacing" textLength="51" x="1329.5" y="1608.4063">address</text><text fill="#000000" font-family="sans-serif" font-size="14" lengthAdjust="spacing" textLength="56" x="1327" y="1627.0273">:Address</text><rect fill="#FFFFFF" height="1426.4355" style="stroke:#181818;stroke-width:1.0;" width="10" x="102" y="151.8633"/><rect fill="#FFFFFF" height="57.582" style="stroke:#181818;stroke-width:1.0;" width="10" x="506" y="175.1543"/><rect fill="#FFFFFF" height="495.9961" style="stroke:#181818;stroke-width:1.0;" width="10" x="506" y="264.0273"/><rect fill="#FFFFFF" height="332.9102" style="stroke:#181818;stroke-width:1.0;" width="10" x="506" y="791.3145"/><rect fill="#FFFFFF" height="31.291" style="stroke:#181818;stroke-width:1.0;" width="10" x="506" y="1155.5156"/><rect fill="#FFFFFF" height="344.2012" style="stroke:#181818;stroke-width:1.0;" width="10" x="506" y="1218.0977"/><rect fill="#FFFFFF" height="219.0371" style="stroke:#181818;stroke-width:1.0;" width="10" x="731" y="409.1914"/><rect fill="#FFFFFF" height="219.0371" style="stroke:#181818;stroke-width:1.0;" width="10" x="731" y="873.8965"/><rect fill="#FFFFFF" height="219.0371" style="stroke:#181818;stroke-width:1.0;" width="10" x="731" y="1311.9707"/><rect fill="#FFFFFF" height="31.291" style="stroke:#181818;stroke-width:1.0;" width="10" x="869.5" y="440.4824"/><rect fill="#FFFFFF" height="31.291" style="stroke:#181818;stroke-width:1.0;" width="10" x="869.5" y="905.1875"/><rect fill="#FFFFFF" height="31.291" style="stroke:#181818;stroke-width:1.0;" width="10" x="869.5" y="1343.2617"/><rect fill="#FFFFFF" height="31.291" style="stroke:#181818;stroke-width:1.0;" width="10" x="974.5" y="503.0645"/><rect fill="#FFFFFF" height="31.291" style="stroke:#181818;stroke-width:1.0;" width="10" x="974.5" y="967.7695"/><rect fill="#FFFFFF" height="31.291" style="stroke:#181818;stroke-width:1.0;" width="10" x="974.5" y="1405.8438"/><rect fill="#FFFFFF" height="31.291" style="stroke:#181818;stroke-width:1.0;" width="10" x="1114" y="565.6465"/><rect fill="#FFFFFF" height="31.291" style="stroke:#181818;stroke-width:1.0;" width="10" x="1114" y="1030.3516"/><rect fill="#FFFFFF" height="31.291" style="stroke:#181818;stroke-width:1.0;" width="10" x="1114" y="1468.4258"/><rect fill="#FFFFFF" height="31.291" style="stroke:#181818;stroke-width:1.0;" width="10" x="1256" y="1249.3887"/><rect fill="#FFFFFF" height="31.291" style="stroke:#181818;stroke-width:1.0;" width="10" x="1350" y="346.6094"/><polygon fill="#181818" points="494,171.1543,504,175.1543,494,179.1543,498,175.1543" style="stroke:#181818;stroke-width:1.0;"/><line style="stroke:#181818;stroke-width:1.0;" x1="112" x2="500" y1="175.1543" y2="175.1543"/><text fill="#000000" font-family="sans-serif" font-size="13" font-weight="bold" lengthAdjust="spacing" textLength="7" x="119" y="169.8916">1</text><text fill="#000000" font-family="sans-serif" font-size="13" lengthAdjust="spacing" textLength="225" x="130" y="169.8916">requests to register a new green space</text><path d="M20,190.1543 L93,190.1543 L93,199.4453 L83,209.4453 L20,209.4453 L20,190.1543 " fill="#EEEEEE" style="stroke:#000000;stroke-width:1.5;"/><rect fill="none" height="126.1641" style="stroke:#000000;stroke-width:1.5;" width="605" x="20" y="190.1543"/><text fill="#000000" font-family="sans-serif" font-size="13" font-weight="bold" lengthAdjust="spacing" textLength="28" x="35" y="205.1826">loop</text><text fill="#000000" font-family="sans-serif" font-size="11" font-weight="bold" lengthAdjust="spacing" textLength="126" x="108" y="204.0244">[while data is not valid]</text><polygon fill="#181818" points="123,228.7363,113,232.7363,123,236.7363,119,232.7363" style="stroke:#181818;stroke-width:1.0;"/><line style="stroke:#181818;stroke-width:1.0;stroke-dasharray:2.0,2.0;" x1="117" x2="510" y1="232.7363" y2="232.7363"/><text fill="#000000" font-family="sans-serif" font-size="13" font-weight="bold" lengthAdjust="spacing" textLength="7" x="129" y="227.4736">2</text><text fill="#000000" font-family="sans-serif" font-size="13" lengthAdjust="spacing" textLength="359" x="140" y="227.4736">requests green space name, city, street address and zip code</text><polygon fill="#181818" points="494,260.0273,504,264.0273,494,268.0273,498,264.0273" style="stroke:#181818;stroke-width:1.0;"/><line style="stroke:#181818;stroke-width:1.0;" x1="112" x2="500" y1="264.0273" y2="264.0273"/><text fill="#000000" font-family="sans-serif" font-size="13" font-weight="bold" lengthAdjust="spacing" textLength="7" x="119" y="258.7646">3</text><text fill="#000000" font-family="sans-serif" font-size="13" lengthAdjust="spacing" textLength="341" x="130" y="258.7646">types green space name, city, street address and zip code</text><line style="stroke:#181818;stroke-width:1.0;" x1="516" x2="558" y1="295.3184" y2="295.3184"/><line style="stroke:#181818;stroke-width:1.0;" x1="558" x2="558" y1="295.3184" y2="308.3184"/><line style="stroke:#181818;stroke-width:1.0;" x1="517" x2="558" y1="308.3184" y2="308.3184"/><polygon fill="#181818" points="527,304.3184,517,308.3184,527,312.3184,523,308.3184" style="stroke:#181818;stroke-width:1.0;"/><text fill="#000000" font-family="sans-serif" font-size="13" font-weight="bold" lengthAdjust="spacing" textLength="7" x="523" y="290.0557">4</text><text fill="#000000" font-family="sans-serif" font-size="13" lengthAdjust="spacing" textLength="79" x="534" y="290.0557">validates data</text><polygon fill="#181818" points="1338,342.6094,1348,346.6094,1338,350.6094,1342,346.6094" style="stroke:#181818;stroke-width:1.0;"/><line style="stroke:#181818;stroke-width:1.0;" x1="516" x2="1344" y1="346.6094" y2="346.6094"/><text fill="#000000" font-family="sans-serif" font-size="13" font-weight="bold" lengthAdjust="spacing" textLength="7" x="523" y="341.3467">5</text><text fill="#000000" font-family="sans-serif" font-size="13" lengthAdjust="spacing" textLength="261" x="534" y="341.3467">createAddress(city, street address, zip code)</text><polygon fill="#181818" points="527,373.9004,517,377.9004,527,381.9004,523,377.9004" style="stroke:#181818;stroke-width:1.0;"/><line style="stroke:#181818;stroke-width:1.0;stroke-dasharray:2.0,2.0;" x1="521" x2="1354" y1="377.9004" y2="377.9004"/><text fill="#000000" font-family="sans-serif" font-size="13" font-weight="bold" lengthAdjust="spacing" textLength="7" x="533" y="372.6377">6</text><text fill="#000000" font-family="sans-serif" font-size="13" lengthAdjust="spacing" textLength="46" x="544" y="372.6377">address</text><polygon fill="#181818" points="719,405.1914,729,409.1914,719,413.1914,723,409.1914" style="stroke:#181818;stroke-width:1.0;"/><line style="stroke:#181818;stroke-width:1.0;" x1="516" x2="725" y1="409.1914" y2="409.1914"/><text fill="#000000" font-family="sans-serif" font-size="13" font-weight="bold" lengthAdjust="spacing" textLength="7" x="523" y="403.9287">7</text><text fill="#000000" font-family="sans-serif" font-size="13" lengthAdjust="spacing" textLength="184" x="534" y="403.9287">getGreenSpace(name, address)</text><polygon fill="#181818" points="857.5,436.4824,867.5,440.4824,857.5,444.4824,861.5,440.4824" style="stroke:#181818;stroke-width:1.0;"/><line style="stroke:#181818;stroke-width:1.0;" x1="741" x2="863.5" y1="440.4824" y2="440.4824"/><text fill="#000000" font-family="sans-serif" font-size="13" font-weight="bold" lengthAdjust="spacing" textLength="7" x="748" y="435.2197">8</text><text fill="#000000" font-family="sans-serif" font-size="13" lengthAdjust="spacing" textLength="75" x="759" y="435.2197">getInstance()</text><polygon fill="#181818" points="752,467.7734,742,471.7734,752,475.7734,748,471.7734" style="stroke:#181818;stroke-width:1.0;"/><line style="stroke:#181818;stroke-width:1.0;stroke-dasharray:2.0,2.0;" x1="746" x2="873.5" y1="471.7734" y2="471.7734"/><text fill="#000000" font-family="sans-serif" font-size="13" font-weight="bold" lengthAdjust="spacing" textLength="7" x="758" y="466.5107">9</text><text fill="#000000" font-family="sans-serif" font-size="13" lengthAdjust="spacing" textLength="67" x="769" y="466.5107">repositories</text><polygon fill="#181818" points="962.5,499.0645,972.5,503.0645,962.5,507.0645,966.5,503.0645" style="stroke:#181818;stroke-width:1.0;"/><line style="stroke:#181818;stroke-width:1.0;" x1="741" x2="968.5" y1="503.0645" y2="503.0645"/><text fill="#000000" font-family="sans-serif" font-size="13" font-weight="bold" lengthAdjust="spacing" textLength="14" x="748" y="497.8018">10</text><text fill="#000000" font-family="sans-serif" font-size="13" lengthAdjust="spacing" textLength="160" x="766" y="497.8018">getGreenSpaceRepository()</text><polygon fill="#181818" points="752,530.3555,742,534.3555,752,538.3555,748,534.3555" style="stroke:#181818;stroke-width:1.0;"/><line style="stroke:#181818;stroke-width:1.0;stroke-dasharray:2.0,2.0;" x1="746" x2="978.5" y1="534.3555" y2="534.3555"/><text fill="#000000" font-family="sans-serif" font-size="13" font-weight="bold" lengthAdjust="spacing" textLength="14" x="758" y="529.0928">11</text><text fill="#000000" font-family="sans-serif" font-size="13" lengthAdjust="spacing" textLength="131" x="776" y="529.0928">greenSpaceRepository</text><polygon fill="#181818" points="1102,561.6465,1112,565.6465,1102,569.6465,1106,565.6465" style="stroke:#181818;stroke-width:1.0;"/><line style="stroke:#181818;stroke-width:1.0;" x1="741" x2="1108" y1="565.6465" y2="565.6465"/><text fill="#000000" font-family="sans-serif" font-size="13" font-weight="bold" lengthAdjust="spacing" textLength="14" x="748" y="560.3838">12</text><text fill="#000000" font-family="sans-serif" font-size="13" lengthAdjust="spacing" textLength="184" x="766" y="560.3838">getGreenSpace(name, address)</text><polygon fill="#181818" points="752,592.9375,742,596.9375,752,600.9375,748,596.9375" style="stroke:#181818;stroke-width:1.0;"/><line style="stroke:#181818;stroke-width:1.0;stroke-dasharray:2.0,2.0;" x1="746" x2="1118" y1="596.9375" y2="596.9375"/><text fill="#000000" font-family="sans-serif" font-size="13" font-weight="bold" lengthAdjust="spacing" textLength="14" x="758" y="591.6748">13</text><text fill="#000000" font-family="sans-serif" font-size="13" lengthAdjust="spacing" textLength="69" x="776" y="591.6748">greenSpace</text><polygon fill="#181818" points="527,624.2285,517,628.2285,527,632.2285,523,628.2285" style="stroke:#181818;stroke-width:1.0;"/><line style="stroke:#181818;stroke-width:1.0;stroke-dasharray:2.0,2.0;" x1="521" x2="735" y1="628.2285" y2="628.2285"/><text fill="#000000" font-family="sans-serif" font-size="13" font-weight="bold" lengthAdjust="spacing" textLength="14" x="533" y="622.9658">14</text><text fill="#000000" font-family="sans-serif" font-size="13" lengthAdjust="spacing" textLength="69" x="551" y="622.9658">greenSpace</text><path d="M10,643.2285 L71,643.2285 L71,652.5195 L61,662.5195 L10,662.5195 L10,643.2285 " fill="#EEEEEE" style="stroke:#000000;stroke-width:1.5;"/><rect fill="none" height="927.0703" style="stroke:#000000;stroke-width:1.5;" width="1310" x="10" y="643.2285"/><text fill="#000000" font-family="sans-serif" font-size="13" font-weight="bold" lengthAdjust="spacing" textLength="16" x="25" y="658.2568">alt</text><text fill="#000000" font-family="sans-serif" font-size="11" font-weight="bold" lengthAdjust="spacing" textLength="112" x="86" y="657.0986">[green space != null]</text><polygon fill="#181818" points="123,681.8105,113,685.8105,123,689.8105,119,685.8105" style="stroke:#181818;stroke-width:1.0;"/><line style="stroke:#181818;stroke-width:1.0;stroke-dasharray:2.0,2.0;" x1="117" x2="505" y1="685.8105" y2="685.8105"/><text fill="#000000" font-family="sans-serif" font-size="13" font-weight="bold" lengthAdjust="spacing" textLength="14" x="129" y="680.5479">15</text><text fill="#000000" font-family="sans-serif" font-size="13" lengthAdjust="spacing" textLength="227" x="147" y="680.5479">notifies that green space already exists</text><line style="stroke:#000000;stroke-width:1.0;stroke-dasharray:2.0,2.0;" x1="10" x2="1320" y1="694.8105" y2="694.8105"/><text fill="#000000" font-family="sans-serif" font-size="11" font-weight="bold" lengthAdjust="spacing" textLength="115" x="15" y="706.6807">[green space == null]</text><path d="M20,717.4414 L93,717.4414 L93,726.7324 L83,736.7324 L20,736.7324 L20,717.4414 " fill="#EEEEEE" style="stroke:#000000;stroke-width:1.5;"/><rect fill="none" height="126.1641" style="stroke:#000000;stroke-width:1.5;" width="612" x="20" y="717.4414"/><text fill="#000000" font-family="sans-serif" font-size="13" font-weight="bold" lengthAdjust="spacing" textLength="28" x="35" y="732.4697">loop</text><text fill="#000000" font-family="sans-serif" font-size="11" font-weight="bold" lengthAdjust="spacing" textLength="126" x="108" y="731.3115">[while data is not valid]</text><polygon fill="#181818" points="123,756.0234,113,760.0234,123,764.0234,119,760.0234" style="stroke:#181818;stroke-width:1.0;"/><line style="stroke:#181818;stroke-width:1.0;stroke-dasharray:2.0,2.0;" x1="117" x2="510" y1="760.0234" y2="760.0234"/><text fill="#000000" font-family="sans-serif" font-size="13" font-weight="bold" lengthAdjust="spacing" textLength="14" x="129" y="754.7607">16</text><text fill="#000000" font-family="sans-serif" font-size="13" lengthAdjust="spacing" textLength="154" x="147" y="754.7607">requests green space area</text><polygon fill="#181818" points="494,787.3145,504,791.3145,494,795.3145,498,791.3145" style="stroke:#181818;stroke-width:1.0;"/><line style="stroke:#181818;stroke-width:1.0;" x1="112" x2="500" y1="791.3145" y2="791.3145"/><text fill="#000000" font-family="sans-serif" font-size="13" font-weight="bold" lengthAdjust="spacing" textLength="14" x="119" y="786.0518">17</text><text fill="#000000" font-family="sans-serif" font-size="13" lengthAdjust="spacing" textLength="122" x="137" y="786.0518">types requested data</text><line style="stroke:#181818;stroke-width:1.0;" x1="516" x2="558" y1="822.6055" y2="822.6055"/><line style="stroke:#181818;stroke-width:1.0;" x1="558" x2="558" y1="822.6055" y2="835.6055"/><line style="stroke:#181818;stroke-width:1.0;" x1="517" x2="558" y1="835.6055" y2="835.6055"/><polygon fill="#181818" points="527,831.6055,517,835.6055,527,839.6055,523,835.6055" style="stroke:#181818;stroke-width:1.0;"/><text fill="#000000" font-family="sans-serif" font-size="13" font-weight="bold" lengthAdjust="spacing" textLength="14" x="523" y="817.3428">18</text><text fill="#000000" font-family="sans-serif" font-size="13" lengthAdjust="spacing" textLength="79" x="541" y="817.3428">validates data</text><polygon fill="#181818" points="719,869.8965,729,873.8965,719,877.8965,723,873.8965" style="stroke:#181818;stroke-width:1.0;"/><line style="stroke:#181818;stroke-width:1.0;" x1="516" x2="725" y1="873.8965" y2="873.8965"/><text fill="#000000" font-family="sans-serif" font-size="13" font-weight="bold" lengthAdjust="spacing" textLength="14" x="523" y="868.6338">19</text><text fill="#000000" font-family="sans-serif" font-size="13" lengthAdjust="spacing" textLength="126" x="541" y="868.6338">getGreenSpaceType()</text><polygon fill="#181818" points="857.5,901.1875,867.5,905.1875,857.5,909.1875,861.5,905.1875" style="stroke:#181818;stroke-width:1.0;"/><line style="stroke:#181818;stroke-width:1.0;" x1="741" x2="863.5" y1="905.1875" y2="905.1875"/><text fill="#000000" font-family="sans-serif" font-size="13" font-weight="bold" lengthAdjust="spacing" textLength="14" x="748" y="899.9248">20</text><text fill="#000000" font-family="sans-serif" font-size="13" lengthAdjust="spacing" textLength="75" x="766" y="899.9248">getInstance()</text><polygon fill="#181818" points="752,932.4785,742,936.4785,752,940.4785,748,936.4785" style="stroke:#181818;stroke-width:1.0;"/><line style="stroke:#181818;stroke-width:1.0;stroke-dasharray:2.0,2.0;" x1="746" x2="873.5" y1="936.4785" y2="936.4785"/><text fill="#000000" font-family="sans-serif" font-size="13" font-weight="bold" lengthAdjust="spacing" textLength="14" x="758" y="931.2158">21</text><text fill="#000000" font-family="sans-serif" font-size="13" lengthAdjust="spacing" textLength="67" x="776" y="931.2158">repositories</text><polygon fill="#181818" points="962.5,963.7695,972.5,967.7695,962.5,971.7695,966.5,967.7695" style="stroke:#181818;stroke-width:1.0;"/><line style="stroke:#181818;stroke-width:1.0;" x1="741" x2="968.5" y1="967.7695" y2="967.7695"/><text fill="#000000" font-family="sans-serif" font-size="13" font-weight="bold" lengthAdjust="spacing" textLength="14" x="748" y="962.5068">22</text><text fill="#000000" font-family="sans-serif" font-size="13" lengthAdjust="spacing" textLength="160" x="766" y="962.5068">getGreenSpaceRepository()</text><polygon fill="#181818" points="752,995.0605,742,999.0605,752,1003.0605,748,999.0605" style="stroke:#181818;stroke-width:1.0;"/><line style="stroke:#181818;stroke-width:1.0;stroke-dasharray:2.0,2.0;" x1="746" x2="978.5" y1="999.0605" y2="999.0605"/><text fill="#000000" font-family="sans-serif" font-size="13" font-weight="bold" lengthAdjust="spacing" textLength="14" x="758" y="993.7979">23</text><text fill="#000000" font-family="sans-serif" font-size="13" lengthAdjust="spacing" textLength="131" x="776" y="993.7979">greenSpaceRepository</text><polygon fill="#181818" points="1102,1026.3516,1112,1030.3516,1102,1034.3516,1106,1030.3516" style="stroke:#181818;stroke-width:1.0;"/><line style="stroke:#181818;stroke-width:1.0;" x1="741" x2="1108" y1="1030.3516" y2="1030.3516"/><text fill="#000000" font-family="sans-serif" font-size="13" font-weight="bold" lengthAdjust="spacing" textLength="14" x="748" y="1025.0889">24</text><text fill="#000000" font-family="sans-serif" font-size="13" lengthAdjust="spacing" textLength="126" x="766" y="1025.0889">getGreenSpaceType()</text><polygon fill="#181818" points="752,1057.6426,742,1061.6426,752,1065.6426,748,1061.6426" style="stroke:#181818;stroke-width:1.0;"/><line style="stroke:#181818;stroke-width:1.0;stroke-dasharray:2.0,2.0;" x1="746" x2="1118" y1="1061.6426" y2="1061.6426"/><text fill="#000000" font-family="sans-serif" font-size="13" font-weight="bold" lengthAdjust="spacing" textLength="14" x="758" y="1056.3799">25</text><text fill="#000000" font-family="sans-serif" font-size="13" lengthAdjust="spacing" textLength="46" x="776" y="1056.3799">typeList</text><polygon fill="#181818" points="527,1088.9336,517,1092.9336,527,1096.9336,523,1092.9336" style="stroke:#181818;stroke-width:1.0;"/><line style="stroke:#181818;stroke-width:1.0;stroke-dasharray:2.0,2.0;" x1="521" x2="735" y1="1092.9336" y2="1092.9336"/><text fill="#000000" font-family="sans-serif" font-size="13" font-weight="bold" lengthAdjust="spacing" textLength="14" x="533" y="1087.6709">26</text><text fill="#000000" font-family="sans-serif" font-size="13" lengthAdjust="spacing" textLength="46" x="551" y="1087.6709">typeList</text><polygon fill="#181818" points="123,1120.2246,113,1124.2246,123,1128.2246,119,1124.2246" style="stroke:#181818;stroke-width:1.0;"/><line style="stroke:#181818;stroke-width:1.0;stroke-dasharray:2.0,2.0;" x1="117" x2="510" y1="1124.2246" y2="1124.2246"/><text fill="#000000" font-family="sans-serif" font-size="13" font-weight="bold" lengthAdjust="spacing" textLength="14" x="129" y="1118.9619">27</text><text fill="#000000" font-family="sans-serif" font-size="13" lengthAdjust="spacing" textLength="111" x="147" y="1118.9619">asks to select type</text><polygon fill="#181818" points="494,1151.5156,504,1155.5156,494,1159.5156,498,1155.5156" style="stroke:#181818;stroke-width:1.0;"/><line style="stroke:#181818;stroke-width:1.0;" x1="112" x2="500" y1="1155.5156" y2="1155.5156"/><text fill="#000000" font-family="sans-serif" font-size="13" font-weight="bold" lengthAdjust="spacing" textLength="14" x="119" y="1150.2529">28</text><text fill="#000000" font-family="sans-serif" font-size="13" lengthAdjust="spacing" textLength="71" x="137" y="1150.2529">selects type</text><polygon fill="#181818" points="123,1182.8066,113,1186.8066,123,1190.8066,119,1186.8066" style="stroke:#181818;stroke-width:1.0;"/><line style="stroke:#181818;stroke-width:1.0;stroke-dasharray:2.0,2.0;" x1="117" x2="510" y1="1186.8066" y2="1186.8066"/><text fill="#000000" font-family="sans-serif" font-size="13" font-weight="bold" lengthAdjust="spacing" textLength="14" x="129" y="1181.5439">29</text><text fill="#000000" font-family="sans-serif" font-size="13" lengthAdjust="spacing" textLength="236" x="147" y="1181.5439">shows all data and requests confirmation</text><polygon fill="#181818" points="494,1214.0977,504,1218.0977,494,1222.0977,498,1218.0977" style="stroke:#181818;stroke-width:1.0;"/><line style="stroke:#181818;stroke-width:1.0;" x1="112" x2="500" y1="1218.0977" y2="1218.0977"/><text fill="#000000" font-family="sans-serif" font-size="13" font-weight="bold" lengthAdjust="spacing" textLength="14" x="119" y="1212.835">30</text><text fill="#000000" font-family="sans-serif" font-size="13" lengthAdjust="spacing" textLength="78" x="137" y="1212.835">confirms data</text><polygon fill="#181818" points="1244,1245.3887,1254,1249.3887,1244,1253.3887,1248,1249.3887" style="stroke:#181818;stroke-width:1.0;"/><line style="stroke:#181818;stroke-width:1.0;" x1="516" x2="1250" y1="1249.3887" y2="1249.3887"/><text fill="#000000" font-family="sans-serif" font-size="13" font-weight="bold" lengthAdjust="spacing" textLength="14" x="523" y="1244.126">31</text><text fill="#000000" font-family="sans-serif" font-size="13" lengthAdjust="spacing" textLength="283" x="541" y="1244.126">saveNewGreenSpace(name, address, area, type)</text><polygon fill="#181818" points="527,1276.6797,517,1280.6797,527,1284.6797,523,1280.6797" style="stroke:#181818;stroke-width:1.0;"/><line style="stroke:#181818;stroke-width:1.0;stroke-dasharray:2.0,2.0;" x1="521" x2="1260" y1="1280.6797" y2="1280.6797"/><text fill="#000000" font-family="sans-serif" font-size="13" font-weight="bold" lengthAdjust="spacing" textLength="14" x="533" y="1275.417">32</text><text fill="#000000" font-family="sans-serif" font-size="13" lengthAdjust="spacing" textLength="69" x="551" y="1275.417">greenSpace</text><polygon fill="#181818" points="719,1307.9707,729,1311.9707,719,1315.9707,723,1311.9707" style="stroke:#181818;stroke-width:1.0;"/><line style="stroke:#181818;stroke-width:1.0;" x1="516" x2="725" y1="1311.9707" y2="1311.9707"/><text fill="#000000" font-family="sans-serif" font-size="13" font-weight="bold" lengthAdjust="spacing" textLength="14" x="523" y="1306.708">33</text><text fill="#000000" font-family="sans-serif" font-size="13" lengthAdjust="spacing" textLength="178" x="541" y="1306.708">storeGreenSpace(greenSpace)</text><polygon fill="#181818" points="857.5,1339.2617,867.5,1343.2617,857.5,1347.2617,861.5,1343.2617" style="stroke:#181818;stroke-width:1.0;"/><line style="stroke:#181818;stroke-width:1.0;" x1="741" x2="863.5" y1="1343.2617" y2="1343.2617"/><text fill="#000000" font-family="sans-serif" font-size="13" font-weight="bold" lengthAdjust="spacing" textLength="14" x="748" y="1337.999">34</text><text fill="#000000" font-family="sans-serif" font-size="13" lengthAdjust="spacing" textLength="75" x="766" y="1337.999">getInstance()</text><polygon fill="#181818" points="752,1370.5527,742,1374.5527,752,1378.5527,748,1374.5527" style="stroke:#181818;stroke-width:1.0;"/><line style="stroke:#181818;stroke-width:1.0;stroke-dasharray:2.0,2.0;" x1="746" x2="873.5" y1="1374.5527" y2="1374.5527"/><text fill="#000000" font-family="sans-serif" font-size="13" font-weight="bold" lengthAdjust="spacing" textLength="14" x="758" y="1369.29">35</text><text fill="#000000" font-family="sans-serif" font-size="13" lengthAdjust="spacing" textLength="67" x="776" y="1369.29">repositories</text><polygon fill="#181818" points="962.5,1401.8438,972.5,1405.8438,962.5,1409.8438,966.5,1405.8438" style="stroke:#181818;stroke-width:1.0;"/><line style="stroke:#181818;stroke-width:1.0;" x1="741" x2="968.5" y1="1405.8438" y2="1405.8438"/><text fill="#000000" font-family="sans-serif" font-size="13" font-weight="bold" lengthAdjust="spacing" textLength="14" x="748" y="1400.5811">36</text><text fill="#000000" font-family="sans-serif" font-size="13" lengthAdjust="spacing" textLength="160" x="766" y="1400.5811">getGreenSpaceRepository()</text><polygon fill="#181818" points="752,1433.1348,742,1437.1348,752,1441.1348,748,1437.1348" style="stroke:#181818;stroke-width:1.0;"/><line style="stroke:#181818;stroke-width:1.0;stroke-dasharray:2.0,2.0;" x1="746" x2="978.5" y1="1437.1348" y2="1437.1348"/><text fill="#000000" font-family="sans-serif" font-size="13" font-weight="bold" lengthAdjust="spacing" textLength="14" x="758" y="1431.8721">37</text><text fill="#000000" font-family="sans-serif" font-size="13" lengthAdjust="spacing" textLength="131" x="776" y="1431.8721">greenSpaceRepository</text><polygon fill="#181818" points="1102,1464.4258,1112,1468.4258,1102,1472.4258,1106,1468.4258" style="stroke:#181818;stroke-width:1.0;"/><line style="stroke:#181818;stroke-width:1.0;" x1="741" x2="1108" y1="1468.4258" y2="1468.4258"/><text fill="#000000" font-family="sans-serif" font-size="13" font-weight="bold" lengthAdjust="spacing" textLength="14" x="748" y="1463.1631">38</text><text fill="#000000" font-family="sans-serif" font-size="13" lengthAdjust="spacing" textLength="178" x="766" y="1463.1631">storeGreenSpace(greenSpace)</text><polygon fill="#181818" points="752,1495.7168,742,1499.7168,752,1503.7168,748,1499.7168" style="stroke:#181818;stroke-width:1.0;"/><line style="stroke:#181818;stroke-width:1.0;stroke-dasharray:2.0,2.0;" x1="746" x2="1118" y1="1499.7168" y2="1499.7168"/><text fill="#000000" font-family="sans-serif" font-size="13" font-weight="bold" lengthAdjust="spacing" textLength="14" x="758" y="1494.4541">39</text><text fill="#000000" font-family="sans-serif" font-size="13" lengthAdjust="spacing" textLength="49" x="776" y="1494.4541">success</text><polygon fill="#181818" points="527,1527.0078,517,1531.0078,527,1535.0078,523,1531.0078" style="stroke:#181818;stroke-width:1.0;"/><line style="stroke:#181818;stroke-width:1.0;stroke-dasharray:2.0,2.0;" x1="521" x2="735" y1="1531.0078" y2="1531.0078"/><text fill="#000000" font-family="sans-serif" font-size="13" font-weight="bold" lengthAdjust="spacing" textLength="14" x="533" y="1525.7451">40</text><text fill="#000000" font-family="sans-serif" font-size="13" lengthAdjust="spacing" textLength="49" x="551" y="1525.7451">success</text><polygon fill="#181818" points="123,1558.2988,113,1562.2988,123,1566.2988,119,1562.2988" style="stroke:#181818;stroke-width:1.0;"/><line style="stroke:#181818;stroke-width:1.0;stroke-dasharray:2.0,2.0;" x1="117" x2="510" y1="1562.2988" y2="1562.2988"/><text fill="#000000" font-family="sans-serif" font-size="13" font-weight="bold" lengthAdjust="spacing" textLength="14" x="129" y="1557.0361">41</text><text fill="#000000" font-family="sans-serif" font-size="13" lengthAdjust="spacing" textLength="250" x="147" y="1557.0361">notifies successful green space registration</text><!--SRC=[jLVBRjim4BphAxO-9O0D13qQI86W1Om0IL54oIqNLbhBH2XI9UcuxjTtIIaIgOVh9hOF1atjpWxtCQBD2vSLqwo4KacLRRGg4QpUOcBQ9nNBNbY1gTqB18sPPR8GeO7Pi5pjk2nWpOJ19B7SaccwDnPBIF7N5cM6y8spmfalu2cz-doL96nhbToMFr7JEhDAmsob4IMa51BXdaaAg-5PNgpI-yiPC0EhX_k4WbgUyOf92xFb0nQSucZlwHsVRhtfqstFihFuggJLIWZKthBxES2kbE54ZAFnbkt6FkKk2SG_Tj61n_9P3W1-tDqynXv5owe3VvO1sMwxHs4A9_AkivR6jYpFDHf3XZVrobirQrSA_iei-cGdz0MBBvHDM5BngPJ66h2ArdNUWO747VZmO5p83e1A89IgOBVXr0yvimou0Qail3B1yuH05uJjGWJW0HH8Lk8SCcxtSp2M7bXeo0EJEVpX5MGgnoJ7C6Z8sUuhV1zcYEYOEi1bpPnsZJzFWZ9l7ZRfev2PHZ9eVb-C1PgtKIwxC6_vVmDQl1sXSGeFUJFS2hgu9jHjBA50s_N4HPs11ZPW441qImSrqlVWGM-b8JaWoCi4ZloqqSQ6wMWKznbZjUWTF1p8ey63h7w8P9n4D_lGAqK7_vuCUZNvhvHv3d6E7AKHFkz9bkSprJd7Dc50eLiEwjfHJaQh5T5eHdVS9sXw9coa59-kGMw5yAc8j8eaZA-fey1kMEp210r_lWVyJUfOTnpIEp6okGvW3-hZ8EweHZAAcFGKq7aELR1nnxpMhgYN6gT9eVCdaNbWDAalZnIiQUUnB0yduvJoSbg9EQlCd59gpYWt7vISCydEcFGSwgmZUhJ7ue3wk76wem5F9aiuuD9CrPHdRpwYgMVcnL-v30gwVNk8lll8oDVMfZCV6_KsXjce7Tr_XAXbo5s4Mh79b5npNJBBgIE7WG_JQ9pDloHdbH89zehVSJVrafXxgPlx4_LAHpTS5pTjBqs1riU4QykXWXcg6WQHEm0VQg9GvzMnaqlPkTNin89sNatxkAoTJzd6nMrQsuxjtfZE0OKpsonpVp0EwTj0tc3ARrBTWgjKuxdUYkXsK__FrBNun593rv6_]--></g></svg>