<?xml version="1.0" encoding="us-ascii" standalone="no"?><svg xmlns="http://www.w3.org/2000/svg" xmlns:xlink="http://www.w3.org/1999/xlink" contentStyleType="text/css" height="790px" preserveAspectRatio="none" style="width:525px;height:790px;background:#FFFFFF;" version="1.1" viewBox="0 0 525 790" width="525px" zoomAndPan="magnify"><defs/><g><!--class RegisterGreenSpaceUI--><g id="elem_RegisterGreenSpaceUI"><rect codeLine="11" fill="#F1F1F1" height="48" id="RegisterGreenSpaceUI" rx="2.5" ry="2.5" style="stroke:#181818;stroke-width:0.5;" width="177" x="140.5" y="7"/><ellipse cx="155.5" cy="23" fill="#ADD1B2" rx="11" ry="11" style="stroke:#181818;stroke-width:1.0;"/><path d="M158.2656,18.875 Q158.4219,18.6563 158.6094,18.5469 Q158.7969,18.4375 159.0156,18.4375 Q159.3906,18.4375 159.625,18.7031 Q159.8594,18.9531 159.8594,19.5625 L159.8594,21.0156 Q159.8594,21.625 159.625,21.8906 Q159.3906,22.1563 159.0156,22.1563 Q158.6719,22.1563 158.4688,21.9531 Q158.2656,21.7656 158.1563,21.25 Q158.1094,20.8906 157.9219,20.7031 Q157.5938,20.3281 156.9844,20.1094 Q156.375,19.8906 155.75,19.8906 Q154.9844,19.8906 154.3438,20.2188 Q153.7188,20.5469 153.2188,21.2969 Q152.7344,22.0469 152.7344,23.0781 L152.7344,24.1719 Q152.7344,25.4063 153.625,26.2344 Q154.5156,27.0469 156.1094,27.0469 Q157.0469,27.0469 157.7031,26.7969 Q158.0938,26.6406 158.5156,26.2031 Q158.7813,25.9375 158.9219,25.8594 Q159.0781,25.7813 159.2813,25.7813 Q159.6094,25.7813 159.8594,26.0469 Q160.125,26.2969 160.125,26.6406 Q160.125,26.9844 159.7813,27.3906 Q159.2813,27.9688 158.4844,28.2969 Q157.4063,28.75 156.1094,28.75 Q154.5938,28.75 153.3906,28.125 Q152.4063,27.625 151.7188,26.5625 Q151.0313,25.4844 151.0313,24.2031 L151.0313,23.0469 Q151.0313,21.7188 151.6406,20.5781 Q152.2656,19.4219 153.3594,18.8125 Q154.4531,18.1875 155.6875,18.1875 Q156.4219,18.1875 157.0625,18.3594 Q157.7188,18.5156 158.2656,18.875 Z " fill="#000000"/><text fill="#000000" font-family="sans-serif" font-size="14" lengthAdjust="spacing" textLength="145" x="169.5" y="28.7969">RegisterGreenSpaceUI</text><line style="stroke:#181818;stroke-width:0.5;" x1="141.5" x2="316.5" y1="39" y2="39"/><line style="stroke:#181818;stroke-width:0.5;" x1="141.5" x2="316.5" y1="47" y2="47"/></g><!--class GreenSpaceController--><g id="elem_GreenSpaceController"><rect codeLine="14" fill="#F1F1F1" height="122.4844" id="GreenSpaceController" rx="2.5" ry="2.5" style="stroke:#181818;stroke-width:0.5;" width="332" x="63" y="115"/><ellipse cx="153.75" cy="131" fill="#ADD1B2" rx="11" ry="11" style="stroke:#181818;stroke-width:1.0;"/><path d="M156.5156,126.875 Q156.6719,126.6563 156.8594,126.5469 Q157.0469,126.4375 157.2656,126.4375 Q157.6406,126.4375 157.875,126.7031 Q158.1094,126.9531 158.1094,127.5625 L158.1094,129.0156 Q158.1094,129.625 157.875,129.8906 Q157.6406,130.1563 157.2656,130.1563 Q156.9219,130.1563 156.7188,129.9531 Q156.5156,129.7656 156.4063,129.25 Q156.3594,128.8906 156.1719,128.7031 Q155.8438,128.3281 155.2344,128.1094 Q154.625,127.8906 154,127.8906 Q153.2344,127.8906 152.5938,128.2188 Q151.9688,128.5469 151.4688,129.2969 Q150.9844,130.0469 150.9844,131.0781 L150.9844,132.1719 Q150.9844,133.4063 151.875,134.2344 Q152.7656,135.0469 154.3594,135.0469 Q155.2969,135.0469 155.9531,134.7969 Q156.3438,134.6406 156.7656,134.2031 Q157.0313,133.9375 157.1719,133.8594 Q157.3281,133.7813 157.5313,133.7813 Q157.8594,133.7813 158.1094,134.0469 Q158.375,134.2969 158.375,134.6406 Q158.375,134.9844 158.0313,135.3906 Q157.5313,135.9688 156.7344,136.2969 Q155.6563,136.75 154.3594,136.75 Q152.8438,136.75 151.6406,136.125 Q150.6563,135.625 149.9688,134.5625 Q149.2813,133.4844 149.2813,132.2031 L149.2813,131.0469 Q149.2813,129.7188 149.8906,128.5781 Q150.5156,127.4219 151.6094,126.8125 Q152.7031,126.1875 153.9375,126.1875 Q154.6719,126.1875 155.3125,126.3594 Q155.9688,126.5156 156.5156,126.875 Z " fill="#000000"/><text fill="#000000" font-family="sans-serif" font-size="14" lengthAdjust="spacing" textLength="142" x="174.25" y="136.7969">GreenSpaceController</text><line style="stroke:#181818;stroke-width:0.5;" x1="64" x2="394" y1="147" y2="147"/><line style="stroke:#181818;stroke-width:0.5;" x1="64" x2="394" y1="155" y2="155"/><text fill="#000000" font-family="sans-serif" font-size="14" lengthAdjust="spacing" textLength="212" x="69" y="174.1074">+getGreenSpace(name, address)</text><text fill="#000000" font-family="sans-serif" font-size="14" lengthAdjust="spacing" textLength="150" x="69" y="192.7285">+getGreenSpaceType()</text><text fill="#000000" font-family="sans-serif" font-size="14" lengthAdjust="spacing" textLength="320" x="69" y="211.3496">+saveNewGreenSpace(name, address, area, type)</text><text fill="#000000" font-family="sans-serif" font-size="14" lengthAdjust="spacing" textLength="207" x="69" y="229.9707">+storeGreenSpace(greenSpace)</text></g><!--class GreenSpaceRepository--><g id="elem_GreenSpaceRepository"><rect codeLine="23" fill="#F1F1F1" height="122.4844" id="GreenSpaceRepository" rx="2.5" ry="2.5" style="stroke:#181818;stroke-width:0.5;" width="224" x="240" y="297"/><ellipse cx="274.8" cy="313" fill="#ADD1B2" rx="11" ry="11" style="stroke:#181818;stroke-width:1.0;"/><path d="M277.5656,308.875 Q277.7219,308.6563 277.9094,308.5469 Q278.0969,308.4375 278.3156,308.4375 Q278.6906,308.4375 278.925,308.7031 Q279.1594,308.9531 279.1594,309.5625 L279.1594,311.0156 Q279.1594,311.625 278.925,311.8906 Q278.6906,312.1563 278.3156,312.1563 Q277.9719,312.1563 277.7688,311.9531 Q277.5656,311.7656 277.4563,311.25 Q277.4094,310.8906 277.2219,310.7031 Q276.8938,310.3281 276.2844,310.1094 Q275.675,309.8906 275.05,309.8906 Q274.2844,309.8906 273.6438,310.2188 Q273.0188,310.5469 272.5188,311.2969 Q272.0344,312.0469 272.0344,313.0781 L272.0344,314.1719 Q272.0344,315.4063 272.925,316.2344 Q273.8156,317.0469 275.4094,317.0469 Q276.3469,317.0469 277.0031,316.7969 Q277.3938,316.6406 277.8156,316.2031 Q278.0813,315.9375 278.2219,315.8594 Q278.3781,315.7813 278.5813,315.7813 Q278.9094,315.7813 279.1594,316.0469 Q279.425,316.2969 279.425,316.6406 Q279.425,316.9844 279.0813,317.3906 Q278.5813,317.9688 277.7844,318.2969 Q276.7063,318.75 275.4094,318.75 Q273.8938,318.75 272.6906,318.125 Q271.7063,317.625 271.0188,316.5625 Q270.3313,315.4844 270.3313,314.2031 L270.3313,313.0469 Q270.3313,311.7188 270.9406,310.5781 Q271.5656,309.4219 272.6594,308.8125 Q273.7531,308.1875 274.9875,308.1875 Q275.7219,308.1875 276.3625,308.3594 Q277.0188,308.5156 277.5656,308.875 Z " fill="#000000"/><text fill="#000000" font-family="sans-serif" font-size="14" lengthAdjust="spacing" textLength="148" x="293.2" y="318.7969">GreenSpaceRepository</text><line style="stroke:#181818;stroke-width:0.5;" x1="241" x2="463" y1="329" y2="329"/><text fill="#000000" font-family="sans-serif" font-size="14" lengthAdjust="spacing" textLength="211" x="246" y="348.1074">-List&lt;GreenSpace&gt; greenSpaces</text><line style="stroke:#181818;stroke-width:0.5;" x1="241" x2="463" y1="355.6211" y2="355.6211"/><text fill="#000000" font-family="sans-serif" font-size="14" lengthAdjust="spacing" textLength="212" x="246" y="374.7285">+getGreenSpace(name, address)</text><text fill="#000000" font-family="sans-serif" font-size="14" lengthAdjust="spacing" textLength="150" x="246" y="393.3496">+getGreenSpaceType()</text><text fill="#000000" font-family="sans-serif" font-size="14" lengthAdjust="spacing" textLength="207" x="246" y="411.9707">+storeGreenSpace(greenSpace)</text></g><!--class GreenSpace--><g id="elem_GreenSpace"><rect codeLine="29" fill="#F1F1F1" height="122.4844" id="GreenSpace" rx="2.5" ry="2.5" style="stroke:#181818;stroke-width:0.5;" width="332" x="186" y="479"/><ellipse cx="307.75" cy="495" fill="#ADD1B2" rx="11" ry="11" style="stroke:#181818;stroke-width:1.0;"/><path d="M310.5156,490.875 Q310.6719,490.6563 310.8594,490.5469 Q311.0469,490.4375 311.2656,490.4375 Q311.6406,490.4375 311.875,490.7031 Q312.1094,490.9531 312.1094,491.5625 L312.1094,493.0156 Q312.1094,493.625 311.875,493.8906 Q311.6406,494.1563 311.2656,494.1563 Q310.9219,494.1563 310.7188,493.9531 Q310.5156,493.7656 310.4063,493.25 Q310.3594,492.8906 310.1719,492.7031 Q309.8438,492.3281 309.2344,492.1094 Q308.625,491.8906 308,491.8906 Q307.2344,491.8906 306.5938,492.2188 Q305.9688,492.5469 305.4688,493.2969 Q304.9844,494.0469 304.9844,495.0781 L304.9844,496.1719 Q304.9844,497.4063 305.875,498.2344 Q306.7656,499.0469 308.3594,499.0469 Q309.2969,499.0469 309.9531,498.7969 Q310.3438,498.6406 310.7656,498.2031 Q311.0313,497.9375 311.1719,497.8594 Q311.3281,497.7813 311.5313,497.7813 Q311.8594,497.7813 312.1094,498.0469 Q312.375,498.2969 312.375,498.6406 Q312.375,498.9844 312.0313,499.3906 Q311.5313,499.9688 310.7344,500.2969 Q309.6563,500.75 308.3594,500.75 Q306.8438,500.75 305.6406,500.125 Q304.6563,499.625 303.9688,498.5625 Q303.2813,497.4844 303.2813,496.2031 L303.2813,495.0469 Q303.2813,493.7188 303.8906,492.5781 Q304.5156,491.4219 305.6094,490.8125 Q306.7031,490.1875 307.9375,490.1875 Q308.6719,490.1875 309.3125,490.3594 Q309.9688,490.5156 310.5156,490.875 Z " fill="#000000"/><text fill="#000000" font-family="sans-serif" font-size="14" lengthAdjust="spacing" textLength="80" x="328.25" y="500.7969">GreenSpace</text><line style="stroke:#181818;stroke-width:0.5;" x1="187" x2="517" y1="511" y2="511"/><text fill="#000000" font-family="sans-serif" font-size="14" lengthAdjust="spacing" textLength="81" x="192" y="530.1074">-String name</text><text fill="#000000" font-family="sans-serif" font-size="14" lengthAdjust="spacing" textLength="68" x="192" y="548.7285">-Type type</text><text fill="#000000" font-family="sans-serif" font-size="14" lengthAdjust="spacing" textLength="83" x="192" y="567.3496">-Double area</text><line style="stroke:#181818;stroke-width:0.5;" x1="187" x2="517" y1="574.8633" y2="574.8633"/><text fill="#000000" font-family="sans-serif" font-size="14" lengthAdjust="spacing" textLength="320" x="192" y="593.9707">+saveNewGreenSpace(name, address, area, type)</text></g><!--class Repositories--><g id="elem_Repositories"><rect codeLine="36" fill="#F1F1F1" height="85.2422" id="Repositories" rx="2.5" ry="2.5" style="stroke:#181818;stroke-width:0.5;" width="198" x="7" y="315.5"/><ellipse cx="62.25" cy="331.5" fill="#ADD1B2" rx="11" ry="11" style="stroke:#181818;stroke-width:1.0;"/><path d="M65.0156,327.375 Q65.1719,327.1563 65.3594,327.0469 Q65.5469,326.9375 65.7656,326.9375 Q66.1406,326.9375 66.375,327.2031 Q66.6094,327.4531 66.6094,328.0625 L66.6094,329.5156 Q66.6094,330.125 66.375,330.3906 Q66.1406,330.6563 65.7656,330.6563 Q65.4219,330.6563 65.2188,330.4531 Q65.0156,330.2656 64.9063,329.75 Q64.8594,329.3906 64.6719,329.2031 Q64.3438,328.8281 63.7344,328.6094 Q63.125,328.3906 62.5,328.3906 Q61.7344,328.3906 61.0938,328.7188 Q60.4688,329.0469 59.9688,329.7969 Q59.4844,330.5469 59.4844,331.5781 L59.4844,332.6719 Q59.4844,333.9063 60.375,334.7344 Q61.2656,335.5469 62.8594,335.5469 Q63.7969,335.5469 64.4531,335.2969 Q64.8438,335.1406 65.2656,334.7031 Q65.5313,334.4375 65.6719,334.3594 Q65.8281,334.2813 66.0313,334.2813 Q66.3594,334.2813 66.6094,334.5469 Q66.875,334.7969 66.875,335.1406 Q66.875,335.4844 66.5313,335.8906 Q66.0313,336.4688 65.2344,336.7969 Q64.1563,337.25 62.8594,337.25 Q61.3438,337.25 60.1406,336.625 Q59.1563,336.125 58.4688,335.0625 Q57.7813,333.9844 57.7813,332.7031 L57.7813,331.5469 Q57.7813,330.2188 58.3906,329.0781 Q59.0156,327.9219 60.1094,327.3125 Q61.2031,326.6875 62.4375,326.6875 Q63.1719,326.6875 63.8125,326.8594 Q64.4688,327.0156 65.0156,327.375 Z " fill="#000000"/><text fill="#000000" font-family="sans-serif" font-size="14" lengthAdjust="spacing" textLength="79" x="82.75" y="337.2969">Repositories</text><line style="stroke:#181818;stroke-width:0.5;" x1="8" x2="204" y1="347.5" y2="347.5"/><line style="stroke:#181818;stroke-width:0.5;" x1="8" x2="204" y1="355.5" y2="355.5"/><text fill="#000000" font-family="sans-serif" font-size="14" lengthAdjust="spacing" textLength="91" x="13" y="374.6074">+getInstance()</text><text fill="#000000" font-family="sans-serif" font-size="14" lengthAdjust="spacing" textLength="186" x="13" y="393.2285">+getGreenSpaceRepository()</text></g><!--class Address--><g id="elem_Address"><rect codeLine="40" fill="#F1F1F1" height="122.4844" id="Address" rx="2.5" ry="2.5" style="stroke:#181818;stroke-width:0.5;" width="246" x="229" y="661"/><ellipse cx="321.75" cy="677" fill="#ADD1B2" rx="11" ry="11" style="stroke:#181818;stroke-width:1.0;"/><path d="M324.5156,672.875 Q324.6719,672.6563 324.8594,672.5469 Q325.0469,672.4375 325.2656,672.4375 Q325.6406,672.4375 325.875,672.7031 Q326.1094,672.9531 326.1094,673.5625 L326.1094,675.0156 Q326.1094,675.625 325.875,675.8906 Q325.6406,676.1563 325.2656,676.1563 Q324.9219,676.1563 324.7188,675.9531 Q324.5156,675.7656 324.4063,675.25 Q324.3594,674.8906 324.1719,674.7031 Q323.8438,674.3281 323.2344,674.1094 Q322.625,673.8906 322,673.8906 Q321.2344,673.8906 320.5938,674.2188 Q319.9688,674.5469 319.4688,675.2969 Q318.9844,676.0469 318.9844,677.0781 L318.9844,678.1719 Q318.9844,679.4063 319.875,680.2344 Q320.7656,681.0469 322.3594,681.0469 Q323.2969,681.0469 323.9531,680.7969 Q324.3438,680.6406 324.7656,680.2031 Q325.0313,679.9375 325.1719,679.8594 Q325.3281,679.7813 325.5313,679.7813 Q325.8594,679.7813 326.1094,680.0469 Q326.375,680.2969 326.375,680.6406 Q326.375,680.9844 326.0313,681.3906 Q325.5313,681.9688 324.7344,682.2969 Q323.6563,682.75 322.3594,682.75 Q320.8438,682.75 319.6406,682.125 Q318.6563,681.625 317.9688,680.5625 Q317.2813,679.4844 317.2813,678.2031 L317.2813,677.0469 Q317.2813,675.7188 317.8906,674.5781 Q318.5156,673.4219 319.6094,672.8125 Q320.7031,672.1875 321.9375,672.1875 Q322.6719,672.1875 323.3125,672.3594 Q323.9688,672.5156 324.5156,672.875 Z " fill="#000000"/><text fill="#000000" font-family="sans-serif" font-size="14" lengthAdjust="spacing" textLength="52" x="342.25" y="682.7969">Address</text><line style="stroke:#181818;stroke-width:0.5;" x1="230" x2="474" y1="693" y2="693"/><text fill="#000000" font-family="sans-serif" font-size="14" lengthAdjust="spacing" textLength="82" x="235" y="712.1074">-String street</text><text fill="#000000" font-family="sans-serif" font-size="14" lengthAdjust="spacing" textLength="67" x="235" y="730.7285">-String city</text><text fill="#000000" font-family="sans-serif" font-size="14" lengthAdjust="spacing" textLength="97" x="235" y="749.3496">-String zipCode</text><line style="stroke:#181818;stroke-width:0.5;" x1="230" x2="474" y1="756.8633" y2="756.8633"/><text fill="#000000" font-family="sans-serif" font-size="14" lengthAdjust="spacing" textLength="234" x="235" y="775.9707">+createAddress(street, city, zipCode)</text></g><!--link RegisterGreenSpaceUI to GreenSpaceController--><g id="link_RegisterGreenSpaceUI_GreenSpaceController"><path codeLine="47" d="M229,55.29 C229,71.52 229,87.94 229,109 " fill="none" id="RegisterGreenSpaceUI-to-GreenSpaceController" style="stroke:#181818;stroke-width:1.0;stroke-dasharray:7.0,7.0;"/><polygon fill="#181818" points="229,115,233,106,229,110,225,106,229,115" style="stroke:#181818;stroke-width:1.0;"/></g><!--link GreenSpaceController to GreenSpaceRepository--><g id="link_GreenSpaceController_GreenSpaceRepository"><path codeLine="48" d="M270.13,237.19 C283.26,256.4 294.3943,272.7065 307.5243,291.9165 " fill="none" id="GreenSpaceController-to-GreenSpaceRepository" style="stroke:#181818;stroke-width:1.0;stroke-dasharray:7.0,7.0;"/><polygon fill="#181818" points="310.91,296.87,309.1338,287.1826,308.0886,292.7421,302.5291,291.6969,310.91,296.87" style="stroke:#181818;stroke-width:1.0;"/></g><!--link GreenSpaceController to Repositories--><g id="link_GreenSpaceController_Repositories"><path codeLine="49" d="M187.87,237.19 C170.34,262.84 153.7047,287.1858 137.8547,310.3858 " fill="none" id="GreenSpaceController-to-Repositories" style="stroke:#181818;stroke-width:1.0;stroke-dasharray:7.0,7.0;"/><polygon fill="#181818" points="134.47,315.34,142.8498,310.1651,137.2905,311.2115,136.2442,305.6523,134.47,315.34" style="stroke:#181818;stroke-width:1.0;"/></g><!--link Repositories to GreenSpaceRepository--><g id="link_Repositories_GreenSpaceRepository"><path codeLine="50" d="M205.39,358 C215.36,358 222.15,358 233.71,358 " fill="none" id="Repositories-to-GreenSpaceRepository" style="stroke:#181818;stroke-width:1.0;stroke-dasharray:7.0,7.0;"/><polygon fill="#181818" points="239.71,358,230.71,354,234.71,358,230.71,362,239.71,358" style="stroke:#181818;stroke-width:1.0;"/></g><!--link GreenSpaceRepository to GreenSpace--><g id="link_GreenSpaceRepository_GreenSpace"><path codeLine="51" d="M352,419.19 C352,438.4 352,453.66 352,472.87 " fill="none" id="GreenSpaceRepository-to-GreenSpace" style="stroke:#181818;stroke-width:1.0;"/><polygon fill="#181818" points="352,478.87,356,469.87,352,473.87,348,469.87,352,478.87" style="stroke:#181818;stroke-width:1.0;"/><text fill="#000000" font-family="sans-serif" font-size="13" lengthAdjust="spacing" textLength="5" x="346.7109" y="467.8362">*</text></g><!--link GreenSpace to Address--><g id="link_GreenSpace_Address"><path codeLine="52" d="M352,601.19 C352,620.4 352,635.66 352,654.87 " fill="none" id="GreenSpace-to-Address" style="stroke:#181818;stroke-width:1.0;"/><polygon fill="#181818" points="352,660.87,356,651.87,352,655.87,348,651.87,352,660.87" style="stroke:#181818;stroke-width:1.0;"/><text fill="#000000" font-family="sans-serif" font-size="13" lengthAdjust="spacing" textLength="7" x="344.5734" y="623.7">1</text><text fill="#000000" font-family="sans-serif" font-size="13" lengthAdjust="spacing" textLength="7" x="344.5953" y="649.8362">1</text></g><!--SRC=[hLB1Ri8m3BtdAwnUA5j1upuX8IPDIDCEi7r0I4s9I9CgCKDbuj-NGY4jAvichQVKptv-ptRFRQGkkEKvv4ORiROcHo2xHHQGWeiDpt11fKAmA8ZhJ3KJt9gdPYTr1YkkN1DHKYEL1K9XL5dzCDP0XUBEJOYiN6u9PyBeXTmZF33MKxWY80DMPck2L5PjfT6C7MjWZfbqXFRP8kg55uZlC_XaXpCUubEZoHgbq7eS_7SF6LB0OyrpJ82dgKNd-bqfRzv0V4OS_y1NtDqYy0-BF87AzBa471cBZOhiyknNah-BdcDXdFHLPIrw02_UxsF864CWSV_YwqUDrm8liXP-UNxlLRCwKh4UxTV_JsQxz7TJZOMnlu_mSDbuFHA9hhd9cNR-7aKmqh8O1Xa7gicfpxK7HxwCsZ4XgMn7zhAOcXHPtKrugOGrOtoYI8vboJdr9Ep0EczsE1nt7YlhlE1sTZ1t8tlScXfhZV1tfiOH3WPZYEwYW3NIeb5qmaTHFGRs1G00]--></g></svg>