<?xml version="1.0" encoding="us-ascii" standalone="no"?><svg xmlns="http://www.w3.org/2000/svg" xmlns:xlink="http://www.w3.org/1999/xlink" contentStyleType="text/css" height="1463.4px" preserveAspectRatio="none" style="width:1184px;height:1463px;background:#FFFFFF;" version="1.1" viewBox="0 0 1184 1463" width="1184.4px" zoomAndPan="magnify"><defs/><g><text fill="#000000" font-family="sans-serif" font-size="12.6" font-weight="bold" lengthAdjust="spacing" textLength="217.8" x="484.2" y="27.0967">System Sequence Diagram - US020</text><rect fill="#FFFFFF" height="1227.4682" style="stroke:#181818;stroke-width:0.9;" width="9" x="91.8" y="136.677"/><rect fill="#FFFFFF" height="51.8238" style="stroke:#181818;stroke-width:0.9;" width="9" x="351" y="157.6389"/><rect fill="#FFFFFF" height="390.0727" style="stroke:#181818;stroke-width:0.9;" width="9" x="351" y="237.6246"/><rect fill="#FFFFFF" height="299.6191" style="stroke:#181818;stroke-width:0.9;" width="9" x="351" y="655.8592"/><rect fill="#FFFFFF" height="28.1619" style="stroke:#181818;stroke-width:0.9;" width="9" x="351" y="983.6402"/><rect fill="#FFFFFF" height="309.7811" style="stroke:#181818;stroke-width:0.9;" width="9" x="351" y="1039.9641"/><rect fill="#FFFFFF" height="197.1334" style="stroke:#181818;stroke-width:0.9;" width="9" x="648" y="311.9484"/><rect fill="#FFFFFF" height="197.1334" style="stroke:#181818;stroke-width:0.9;" width="9" x="648" y="730.183"/><rect fill="#FFFFFF" height="253.4572" style="stroke:#181818;stroke-width:0.9;" width="9" x="648" y="1068.126"/><rect fill="#FFFFFF" height="28.1619" style="stroke:#181818;stroke-width:0.9;" width="9" x="772.65" y="340.1104"/><rect fill="#FFFFFF" height="28.1619" style="stroke:#181818;stroke-width:0.9;" width="9" x="772.65" y="758.3449"/><rect fill="#FFFFFF" height="28.1619" style="stroke:#181818;stroke-width:0.9;" width="9" x="772.65" y="1152.6117"/><rect fill="#FFFFFF" height="28.1619" style="stroke:#181818;stroke-width:0.9;" width="9" x="867.15" y="396.4342"/><rect fill="#FFFFFF" height="28.1619" style="stroke:#181818;stroke-width:0.9;" width="9" x="867.15" y="814.6688"/><rect fill="#FFFFFF" height="28.1619" style="stroke:#181818;stroke-width:0.9;" width="9" x="867.15" y="1208.9355"/><rect fill="#FFFFFF" height="28.1619" style="stroke:#181818;stroke-width:0.9;" width="9" x="992.7" y="452.758"/><rect fill="#FFFFFF" height="28.1619" style="stroke:#181818;stroke-width:0.9;" width="9" x="992.7" y="870.9926"/><rect fill="#FFFFFF" height="28.1619" style="stroke:#181818;stroke-width:0.9;" width="9" x="992.7" y="1265.2594"/><rect fill="#FFFFFF" height="28.1619" style="stroke:#181818;stroke-width:0.9;" width="9" x="1120.5" y="1096.2879"/><rect fill="none" height="113.5477" style="stroke:#000000;stroke-width:1.35;" width="440.1" x="18" y="171.1389"/><rect fill="none" height="834.3633" style="stroke:#000000;stroke-width:1.35;" width="1169.1" x="9" y="522.5818"/><rect fill="none" height="113.5477" style="stroke:#000000;stroke-width:1.35;" width="446.4" x="18" y="589.3734"/><line style="stroke:#181818;stroke-width:0.45;stroke-dasharray:5.0,5.0;" x1="96.3" x2="96.3" y1="127.677" y2="1372.2451"/><line style="stroke:#181818;stroke-width:0.45;stroke-dasharray:5.0,5.0;" x1="355.05" x2="355.05" y1="127.677" y2="1372.2451"/><line style="stroke:#181818;stroke-width:0.45;stroke-dasharray:5.0,5.0;" x1="652.5" x2="652.5" y1="127.677" y2="1372.2451"/><line style="stroke:#181818;stroke-width:0.45;stroke-dasharray:5.0,5.0;" x1="776.7" x2="776.7" y1="127.677" y2="1372.2451"/><line style="stroke:#181818;stroke-width:0.45;stroke-dasharray:5.0,5.0;" x1="871.2" x2="871.2" y1="127.677" y2="1372.2451"/><line style="stroke:#181818;stroke-width:0.45;stroke-dasharray:5.0,5.0;" x1="997.2" x2="997.2" y1="127.677" y2="1372.2451"/><line style="stroke:#181818;stroke-width:0.45;stroke-dasharray:5.0,5.0;" x1="1125" x2="1125" y1="127.677" y2="1372.2451"/><text fill="#000000" font-family="sans-serif" font-size="12.6" lengthAdjust="spacing" textLength="129.6" x="27" y="107.7557">Green Space Manager</text><text fill="#000000" font-family="sans-serif" font-size="12.6" lengthAdjust="spacing" textLength="37.8" x="74.7" y="124.5146">(GRM)</text><ellipse cx="96.3" cy="47.809" fill="#E3E3E3" rx="7.2" ry="7.2" style="stroke:#181818;stroke-width:0.45;"/><path d="M96.3,55.009 L96.3,79.309 M84.6,62.209 L108,62.209 M96.3,79.309 L84.6,92.809 M96.3,79.309 L108,92.809 " fill="none" style="stroke:#181818;stroke-width:0.45;"/><text fill="#000000" font-family="sans-serif" font-size="12.6" lengthAdjust="spacing" textLength="129.6" x="27" y="1384.9418">Green Space Manager</text><text fill="#000000" font-family="sans-serif" font-size="12.6" lengthAdjust="spacing" textLength="37.8" x="74.7" y="1401.7008">(GRM)</text><ellipse cx="96.3" cy="1412.5131" fill="#E3E3E3" rx="7.2" ry="7.2" style="stroke:#181818;stroke-width:0.45;"/><path d="M96.3,1419.7131 L96.3,1444.0131 M84.6,1426.9131 L108,1426.9131 M96.3,1444.0131 L84.6,1457.5131 M96.3,1444.0131 L108,1457.5131 " fill="none" style="stroke:#181818;stroke-width:0.45;"/><rect fill="#E3E3E3" height="29.359" rx="2.25" ry="2.25" style="stroke:#181818;stroke-width:0.45;" width="146.7" x="282.15" y="97.418"/><text fill="#000000" font-family="sans-serif" font-size="12.6" lengthAdjust="spacing" textLength="134.1" x="288.45" y="117.3146">:RegisterGreenSpaceUI</text><rect fill="#E3E3E3" height="29.359" rx="2.25" ry="2.25" style="stroke:#181818;stroke-width:0.45;" width="146.7" x="282.15" y="1371.3451"/><text fill="#000000" font-family="sans-serif" font-size="12.6" lengthAdjust="spacing" textLength="134.1" x="288.45" y="1391.2418">:RegisterGreenSpaceUI</text><rect fill="#E3E3E3" height="29.359" rx="2.25" ry="2.25" style="stroke:#181818;stroke-width:0.45;" width="144" x="580.5" y="97.418"/><text fill="#000000" font-family="sans-serif" font-size="12.6" lengthAdjust="spacing" textLength="131.4" x="586.8" y="117.3146">:GreenSpaceController</text><rect fill="#E3E3E3" height="29.359" rx="2.25" ry="2.25" style="stroke:#181818;stroke-width:0.45;" width="144" x="580.5" y="1371.3451"/><text fill="#000000" font-family="sans-serif" font-size="12.6" lengthAdjust="spacing" textLength="131.4" x="586.8" y="1391.2418">:GreenSpaceController</text><rect fill="#E3E3E3" height="29.359" rx="2.25" ry="2.25" style="stroke:#181818;stroke-width:0.45;" width="87.3" x="733.5" y="97.418"/><text fill="#000000" font-family="sans-serif" font-size="12.6" lengthAdjust="spacing" textLength="74.7" x="739.8" y="117.3146">:Repositories</text><rect fill="#E3E3E3" height="29.359" rx="2.25" ry="2.25" style="stroke:#181818;stroke-width:0.45;" width="87.3" x="733.5" y="1371.3451"/><text fill="#000000" font-family="sans-serif" font-size="12.6" lengthAdjust="spacing" textLength="74.7" x="739.8" y="1391.2418">:Repositories</text><rect fill="#E3E3E3" height="46.118" rx="2.25" ry="2.25" style="stroke:#181818;stroke-width:0.45;" width="83.7" x="829.8" y="80.659"/><text fill="#000000" font-family="sans-serif" font-size="12.6" lengthAdjust="spacing" textLength="70.2" x="836.55" y="100.5557">repositories:</text><text fill="#000000" font-family="sans-serif" font-size="12.6" lengthAdjust="spacing" textLength="71.1" x="836.1" y="117.3146">Repositories</text><rect fill="#E3E3E3" height="46.118" rx="2.25" ry="2.25" style="stroke:#181818;stroke-width:0.45;" width="83.7" x="829.8" y="1371.3451"/><text fill="#000000" font-family="sans-serif" font-size="12.6" lengthAdjust="spacing" textLength="70.2" x="836.55" y="1391.2418">repositories:</text><text fill="#000000" font-family="sans-serif" font-size="12.6" lengthAdjust="spacing" textLength="71.1" x="836.1" y="1408.0008">Repositories</text><rect fill="#E3E3E3" height="46.118" rx="2.25" ry="2.25" style="stroke:#181818;stroke-width:0.45;" width="149.4" x="922.5" y="80.659"/><text fill="#000000" font-family="sans-serif" font-size="12.6" lengthAdjust="spacing" textLength="130.5" x="931.95" y="100.5557">greenSpaceRepository</text><text fill="#000000" font-family="sans-serif" font-size="12.6" lengthAdjust="spacing" textLength="136.8" x="928.8" y="117.3146">:GreenSpaceRepository</text><rect fill="#E3E3E3" height="46.118" rx="2.25" ry="2.25" style="stroke:#181818;stroke-width:0.45;" width="149.4" x="922.5" y="1371.3451"/><text fill="#000000" font-family="sans-serif" font-size="12.6" lengthAdjust="spacing" textLength="130.5" x="931.95" y="1391.2418">greenSpaceRepository</text><text fill="#000000" font-family="sans-serif" font-size="12.6" lengthAdjust="spacing" textLength="136.8" x="928.8" y="1408.0008">:GreenSpaceRepository</text><rect fill="#E3E3E3" height="46.118" rx="2.25" ry="2.25" style="stroke:#181818;stroke-width:0.45;" width="88.2" x="1080.9" y="80.659"/><text fill="#000000" font-family="sans-serif" font-size="12.6" lengthAdjust="spacing" textLength="69.3" x="1090.35" y="100.5557">greenSpace</text><text fill="#000000" font-family="sans-serif" font-size="12.6" lengthAdjust="spacing" textLength="75.6" x="1087.2" y="117.3146">:GreenSpace</text><rect fill="#E3E3E3" height="46.118" rx="2.25" ry="2.25" style="stroke:#181818;stroke-width:0.45;" width="88.2" x="1080.9" y="1371.3451"/><text fill="#000000" font-family="sans-serif" font-size="12.6" lengthAdjust="spacing" textLength="69.3" x="1090.35" y="1391.2418">greenSpace</text><text fill="#000000" font-family="sans-serif" font-size="12.6" lengthAdjust="spacing" textLength="75.6" x="1087.2" y="1408.0008">:GreenSpace</text><rect fill="#FFFFFF" height="1227.4682" style="stroke:#181818;stroke-width:0.9;" width="9" x="91.8" y="136.677"/><rect fill="#FFFFFF" height="51.8238" style="stroke:#181818;stroke-width:0.9;" width="9" x="351" y="157.6389"/><rect fill="#FFFFFF" height="390.0727" style="stroke:#181818;stroke-width:0.9;" width="9" x="351" y="237.6246"/><rect fill="#FFFFFF" height="299.6191" style="stroke:#181818;stroke-width:0.9;" width="9" x="351" y="655.8592"/><rect fill="#FFFFFF" height="28.1619" style="stroke:#181818;stroke-width:0.9;" width="9" x="351" y="983.6402"/><rect fill="#FFFFFF" height="309.7811" style="stroke:#181818;stroke-width:0.9;" width="9" x="351" y="1039.9641"/><rect fill="#FFFFFF" height="197.1334" style="stroke:#181818;stroke-width:0.9;" width="9" x="648" y="311.9484"/><rect fill="#FFFFFF" height="197.1334" style="stroke:#181818;stroke-width:0.9;" width="9" x="648" y="730.183"/><rect fill="#FFFFFF" height="253.4572" style="stroke:#181818;stroke-width:0.9;" width="9" x="648" y="1068.126"/><rect fill="#FFFFFF" height="28.1619" style="stroke:#181818;stroke-width:0.9;" width="9" x="772.65" y="340.1104"/><rect fill="#FFFFFF" height="28.1619" style="stroke:#181818;stroke-width:0.9;" width="9" x="772.65" y="758.3449"/><rect fill="#FFFFFF" height="28.1619" style="stroke:#181818;stroke-width:0.9;" width="9" x="772.65" y="1152.6117"/><rect fill="#FFFFFF" height="28.1619" style="stroke:#181818;stroke-width:0.9;" width="9" x="867.15" y="396.4342"/><rect fill="#FFFFFF" height="28.1619" style="stroke:#181818;stroke-width:0.9;" width="9" x="867.15" y="814.6688"/><rect fill="#FFFFFF" height="28.1619" style="stroke:#181818;stroke-width:0.9;" width="9" x="867.15" y="1208.9355"/><rect fill="#FFFFFF" height="28.1619" style="stroke:#181818;stroke-width:0.9;" width="9" x="992.7" y="452.758"/><rect fill="#FFFFFF" height="28.1619" style="stroke:#181818;stroke-width:0.9;" width="9" x="992.7" y="870.9926"/><rect fill="#FFFFFF" height="28.1619" style="stroke:#181818;stroke-width:0.9;" width="9" x="992.7" y="1265.2594"/><rect fill="#FFFFFF" height="28.1619" style="stroke:#181818;stroke-width:0.9;" width="9" x="1120.5" y="1096.2879"/><polygon fill="#181818" points="340.2,154.0389,349.2,157.6389,340.2,161.2389,343.8,157.6389" style="stroke:#181818;stroke-width:0.9;"/><line style="stroke:#181818;stroke-width:0.9;" x1="100.8" x2="345.6" y1="157.6389" y2="157.6389"/><text fill="#000000" font-family="sans-serif" font-size="11.7" font-weight="bold" lengthAdjust="spacing" textLength="6.3" x="107.1" y="152.9024">1</text><text fill="#000000" font-family="sans-serif" font-size="11.7" lengthAdjust="spacing" textLength="202.5" x="117" y="152.9024">requests to register a new green space</text><path d="M18,171.1389 L83.7,171.1389 L83.7,179.5008 L74.7,188.5008 L18,188.5008 L18,171.1389 " fill="#EEEEEE" style="stroke:#000000;stroke-width:1.35;"/><rect fill="none" height="113.5477" style="stroke:#000000;stroke-width:1.35;" width="440.1" x="18" y="171.1389"/><text fill="#000000" font-family="sans-serif" font-size="11.7" font-weight="bold" lengthAdjust="spacing" textLength="25.2" x="31.5" y="184.6644">loop</text><text fill="#000000" font-family="sans-serif" font-size="9.9" font-weight="bold" lengthAdjust="spacing" textLength="113.4" x="97.2" y="183.622">[while data is not valid]</text><polygon fill="#181818" points="110.7,205.8627,101.7,209.4627,110.7,213.0627,107.1,209.4627" style="stroke:#181818;stroke-width:0.9;"/><line style="stroke:#181818;stroke-width:0.9;stroke-dasharray:2.0,2.0;" x1="105.3" x2="354.6" y1="209.4627" y2="209.4627"/><text fill="#000000" font-family="sans-serif" font-size="11.7" font-weight="bold" lengthAdjust="spacing" textLength="6.3" x="116.1" y="204.7263">2</text><text fill="#000000" font-family="sans-serif" font-size="11.7" lengthAdjust="spacing" textLength="212.4" x="126" y="204.7263">requests green space name and address</text><polygon fill="#181818" points="340.2,234.0246,349.2,237.6246,340.2,241.2246,343.8,237.6246" style="stroke:#181818;stroke-width:0.9;"/><line style="stroke:#181818;stroke-width:0.9;" x1="100.8" x2="345.6" y1="237.6246" y2="237.6246"/><text fill="#000000" font-family="sans-serif" font-size="11.7" font-weight="bold" lengthAdjust="spacing" textLength="6.3" x="107.1" y="232.8882">3</text><text fill="#000000" font-family="sans-serif" font-size="11.7" lengthAdjust="spacing" textLength="196.2" x="117" y="232.8882">types green space name and address</text><line style="stroke:#181818;stroke-width:0.9;" x1="360" x2="397.8" y1="265.7865" y2="265.7865"/><line style="stroke:#181818;stroke-width:0.9;" x1="397.8" x2="397.8" y1="265.7865" y2="277.4865"/><line style="stroke:#181818;stroke-width:0.9;" x1="360.9" x2="397.8" y1="277.4865" y2="277.4865"/><polygon fill="#181818" points="369.9,273.8865,360.9,277.4865,369.9,281.0865,366.3,277.4865" style="stroke:#181818;stroke-width:0.9;"/><text fill="#000000" font-family="sans-serif" font-size="11.7" font-weight="bold" lengthAdjust="spacing" textLength="6.3" x="366.3" y="261.0501">4</text><text fill="#000000" font-family="sans-serif" font-size="11.7" lengthAdjust="spacing" textLength="71.1" x="376.2" y="261.0501">validates data</text><polygon fill="#181818" points="637.2,308.3484,646.2,311.9484,637.2,315.5484,640.8,311.9484" style="stroke:#181818;stroke-width:0.9;"/><line style="stroke:#181818;stroke-width:0.9;" x1="360" x2="642.6" y1="311.9484" y2="311.9484"/><text fill="#000000" font-family="sans-serif" font-size="11.7" font-weight="bold" lengthAdjust="spacing" textLength="6.3" x="366.3" y="307.212">5</text><text fill="#000000" font-family="sans-serif" font-size="11.7" lengthAdjust="spacing" textLength="165.6" x="376.2" y="307.212">getGreenSpace(name, address)</text><polygon fill="#181818" points="761.85,336.5104,770.85,340.1104,761.85,343.7104,765.45,340.1104" style="stroke:#181818;stroke-width:0.9;"/><line style="stroke:#181818;stroke-width:0.9;" x1="657" x2="767.25" y1="340.1104" y2="340.1104"/><text fill="#000000" font-family="sans-serif" font-size="11.7" font-weight="bold" lengthAdjust="spacing" textLength="6.3" x="663.3" y="335.3739">6</text><text fill="#000000" font-family="sans-serif" font-size="11.7" lengthAdjust="spacing" textLength="67.5" x="673.2" y="335.3739">getInstance()</text><polygon fill="#181818" points="666.9,364.6723,657.9,368.2723,666.9,371.8723,663.3,368.2723" style="stroke:#181818;stroke-width:0.9;"/><line style="stroke:#181818;stroke-width:0.9;stroke-dasharray:2.0,2.0;" x1="661.5" x2="776.25" y1="368.2723" y2="368.2723"/><text fill="#000000" font-family="sans-serif" font-size="11.7" font-weight="bold" lengthAdjust="spacing" textLength="6.3" x="672.3" y="363.5358">7</text><text fill="#000000" font-family="sans-serif" font-size="11.7" lengthAdjust="spacing" textLength="60.3" x="682.2" y="363.5358">repositories</text><polygon fill="#181818" points="856.35,392.8342,865.35,396.4342,856.35,400.0342,859.95,396.4342" style="stroke:#181818;stroke-width:0.9;"/><line style="stroke:#181818;stroke-width:0.9;" x1="657" x2="861.75" y1="396.4342" y2="396.4342"/><text fill="#000000" font-family="sans-serif" font-size="11.7" font-weight="bold" lengthAdjust="spacing" textLength="6.3" x="663.3" y="391.6978">8</text><text fill="#000000" font-family="sans-serif" font-size="11.7" lengthAdjust="spacing" textLength="144" x="673.2" y="391.6978">getGreenSpaceRepository()</text><polygon fill="#181818" points="666.9,420.9961,657.9,424.5961,666.9,428.1961,663.3,424.5961" style="stroke:#181818;stroke-width:0.9;"/><line style="stroke:#181818;stroke-width:0.9;stroke-dasharray:2.0,2.0;" x1="661.5" x2="870.75" y1="424.5961" y2="424.5961"/><text fill="#000000" font-family="sans-serif" font-size="11.7" font-weight="bold" lengthAdjust="spacing" textLength="6.3" x="672.3" y="419.8597">9</text><text fill="#000000" font-family="sans-serif" font-size="11.7" lengthAdjust="spacing" textLength="117.9" x="682.2" y="419.8597">greenSpaceRepository</text><polygon fill="#181818" points="981.9,449.158,990.9,452.758,981.9,456.358,985.5,452.758" style="stroke:#181818;stroke-width:0.9;"/><line style="stroke:#181818;stroke-width:0.9;" x1="657" x2="987.3" y1="452.758" y2="452.758"/><text fill="#000000" font-family="sans-serif" font-size="11.7" font-weight="bold" lengthAdjust="spacing" textLength="12.6" x="663.3" y="448.0216">10</text><text fill="#000000" font-family="sans-serif" font-size="11.7" lengthAdjust="spacing" textLength="165.6" x="679.5" y="448.0216">getGreenSpace(name, address)</text><polygon fill="#181818" points="666.9,477.3199,657.9,480.9199,666.9,484.5199,663.3,480.9199" style="stroke:#181818;stroke-width:0.9;"/><line style="stroke:#181818;stroke-width:0.9;stroke-dasharray:2.0,2.0;" x1="661.5" x2="996.3" y1="480.9199" y2="480.9199"/><text fill="#000000" font-family="sans-serif" font-size="11.7" font-weight="bold" lengthAdjust="spacing" textLength="12.6" x="672.3" y="476.1835">11</text><text fill="#000000" font-family="sans-serif" font-size="11.7" lengthAdjust="spacing" textLength="62.1" x="688.5" y="476.1835">greenSpace</text><polygon fill="#181818" points="369.9,505.4818,360.9,509.0818,369.9,512.6818,366.3,509.0818" style="stroke:#181818;stroke-width:0.9;"/><line style="stroke:#181818;stroke-width:0.9;stroke-dasharray:2.0,2.0;" x1="364.5" x2="651.6" y1="509.0818" y2="509.0818"/><text fill="#000000" font-family="sans-serif" font-size="11.7" font-weight="bold" lengthAdjust="spacing" textLength="12.6" x="375.3" y="504.3454">12</text><text fill="#000000" font-family="sans-serif" font-size="11.7" lengthAdjust="spacing" textLength="62.1" x="391.5" y="504.3454">greenSpace</text><path d="M9,522.5818 L63.9,522.5818 L63.9,530.9438 L54.9,539.9438 L9,539.9438 L9,522.5818 " fill="#EEEEEE" style="stroke:#000000;stroke-width:1.35;"/><rect fill="none" height="834.3633" style="stroke:#000000;stroke-width:1.35;" width="1169.1" x="9" y="522.5818"/><text fill="#000000" font-family="sans-serif" font-size="11.7" font-weight="bold" lengthAdjust="spacing" textLength="14.4" x="22.5" y="536.1073">alt</text><text fill="#000000" font-family="sans-serif" font-size="9.9" font-weight="bold" lengthAdjust="spacing" textLength="100.8" x="77.4" y="535.0649">[green space != null]</text><polygon fill="#181818" points="110.7,557.3057,101.7,560.9057,110.7,564.5057,107.1,560.9057" style="stroke:#181818;stroke-width:0.9;"/><line style="stroke:#181818;stroke-width:0.9;stroke-dasharray:2.0,2.0;" x1="105.3" x2="350.1" y1="560.9057" y2="560.9057"/><text fill="#000000" font-family="sans-serif" font-size="11.7" font-weight="bold" lengthAdjust="spacing" textLength="12.6" x="116.1" y="556.1692">13</text><text fill="#000000" font-family="sans-serif" font-size="11.7" lengthAdjust="spacing" textLength="204.3" x="132.3" y="556.1692">notifies that green space already exists</text><line style="stroke:#000000;stroke-width:0.9;stroke-dasharray:2.0,2.0;" x1="9" x2="1178.1" y1="569.0057" y2="569.0057"/><text fill="#000000" font-family="sans-serif" font-size="9.9" font-weight="bold" lengthAdjust="spacing" textLength="103.5" x="13.5" y="579.6888">[green space == null]</text><path d="M18,589.3734 L83.7,589.3734 L83.7,597.7354 L74.7,606.7354 L18,606.7354 L18,589.3734 " fill="#EEEEEE" style="stroke:#000000;stroke-width:1.35;"/><rect fill="none" height="113.5477" style="stroke:#000000;stroke-width:1.35;" width="446.4" x="18" y="589.3734"/><text fill="#000000" font-family="sans-serif" font-size="11.7" font-weight="bold" lengthAdjust="spacing" textLength="25.2" x="31.5" y="602.8989">loop</text><text fill="#000000" font-family="sans-serif" font-size="9.9" font-weight="bold" lengthAdjust="spacing" textLength="113.4" x="97.2" y="601.8565">[while data is not valid]</text><polygon fill="#181818" points="110.7,624.0973,101.7,627.6973,110.7,631.2973,107.1,627.6973" style="stroke:#181818;stroke-width:0.9;"/><line style="stroke:#181818;stroke-width:0.9;stroke-dasharray:2.0,2.0;" x1="105.3" x2="354.6" y1="627.6973" y2="627.6973"/><text fill="#000000" font-family="sans-serif" font-size="11.7" font-weight="bold" lengthAdjust="spacing" textLength="12.6" x="116.1" y="622.9608">14</text><text fill="#000000" font-family="sans-serif" font-size="11.7" lengthAdjust="spacing" textLength="138.6" x="132.3" y="622.9608">requests green space area</text><polygon fill="#181818" points="340.2,652.2592,349.2,655.8592,340.2,659.4592,343.8,655.8592" style="stroke:#181818;stroke-width:0.9;"/><line style="stroke:#181818;stroke-width:0.9;" x1="100.8" x2="345.6" y1="655.8592" y2="655.8592"/><text fill="#000000" font-family="sans-serif" font-size="11.7" font-weight="bold" lengthAdjust="spacing" textLength="12.6" x="107.1" y="651.1228">15</text><text fill="#000000" font-family="sans-serif" font-size="11.7" lengthAdjust="spacing" textLength="109.8" x="123.3" y="651.1228">types requested data</text><line style="stroke:#181818;stroke-width:0.9;" x1="360" x2="397.8" y1="684.0211" y2="684.0211"/><line style="stroke:#181818;stroke-width:0.9;" x1="397.8" x2="397.8" y1="684.0211" y2="695.7211"/><line style="stroke:#181818;stroke-width:0.9;" x1="360.9" x2="397.8" y1="695.7211" y2="695.7211"/><polygon fill="#181818" points="369.9,692.1211,360.9,695.7211,369.9,699.3211,366.3,695.7211" style="stroke:#181818;stroke-width:0.9;"/><text fill="#000000" font-family="sans-serif" font-size="11.7" font-weight="bold" lengthAdjust="spacing" textLength="12.6" x="366.3" y="679.2847">16</text><text fill="#000000" font-family="sans-serif" font-size="11.7" lengthAdjust="spacing" textLength="71.1" x="382.5" y="679.2847">validates data</text><polygon fill="#181818" points="637.2,726.583,646.2,730.183,637.2,733.783,640.8,730.183" style="stroke:#181818;stroke-width:0.9;"/><line style="stroke:#181818;stroke-width:0.9;" x1="360" x2="642.6" y1="730.183" y2="730.183"/><text fill="#000000" font-family="sans-serif" font-size="11.7" font-weight="bold" lengthAdjust="spacing" textLength="12.6" x="366.3" y="725.4466">17</text><text fill="#000000" font-family="sans-serif" font-size="11.7" lengthAdjust="spacing" textLength="113.4" x="382.5" y="725.4466">getGreenSpaceType()</text><polygon fill="#181818" points="761.85,754.7449,770.85,758.3449,761.85,761.9449,765.45,758.3449" style="stroke:#181818;stroke-width:0.9;"/><line style="stroke:#181818;stroke-width:0.9;" x1="657" x2="767.25" y1="758.3449" y2="758.3449"/><text fill="#000000" font-family="sans-serif" font-size="11.7" font-weight="bold" lengthAdjust="spacing" textLength="12.6" x="663.3" y="753.6085">18</text><text fill="#000000" font-family="sans-serif" font-size="11.7" lengthAdjust="spacing" textLength="67.5" x="679.5" y="753.6085">getInstance()</text><polygon fill="#181818" points="666.9,782.9068,657.9,786.5068,666.9,790.1068,663.3,786.5068" style="stroke:#181818;stroke-width:0.9;"/><line style="stroke:#181818;stroke-width:0.9;stroke-dasharray:2.0,2.0;" x1="661.5" x2="776.25" y1="786.5068" y2="786.5068"/><text fill="#000000" font-family="sans-serif" font-size="11.7" font-weight="bold" lengthAdjust="spacing" textLength="12.6" x="672.3" y="781.7704">19</text><text fill="#000000" font-family="sans-serif" font-size="11.7" lengthAdjust="spacing" textLength="60.3" x="688.5" y="781.7704">repositories</text><polygon fill="#181818" points="856.35,811.0688,865.35,814.6688,856.35,818.2688,859.95,814.6688" style="stroke:#181818;stroke-width:0.9;"/><line style="stroke:#181818;stroke-width:0.9;" x1="657" x2="861.75" y1="814.6688" y2="814.6688"/><text fill="#000000" font-family="sans-serif" font-size="11.7" font-weight="bold" lengthAdjust="spacing" textLength="12.6" x="663.3" y="809.9323">20</text><text fill="#000000" font-family="sans-serif" font-size="11.7" lengthAdjust="spacing" textLength="144" x="679.5" y="809.9323">getGreenSpaceRepository()</text><polygon fill="#181818" points="666.9,839.2307,657.9,842.8307,666.9,846.4307,663.3,842.8307" style="stroke:#181818;stroke-width:0.9;"/><line style="stroke:#181818;stroke-width:0.9;stroke-dasharray:2.0,2.0;" x1="661.5" x2="870.75" y1="842.8307" y2="842.8307"/><text fill="#000000" font-family="sans-serif" font-size="11.7" font-weight="bold" lengthAdjust="spacing" textLength="12.6" x="672.3" y="838.0942">21</text><text fill="#000000" font-family="sans-serif" font-size="11.7" lengthAdjust="spacing" textLength="117.9" x="688.5" y="838.0942">greenSpaceRepository</text><polygon fill="#181818" points="981.9,867.3926,990.9,870.9926,981.9,874.5926,985.5,870.9926" style="stroke:#181818;stroke-width:0.9;"/><line style="stroke:#181818;stroke-width:0.9;" x1="657" x2="987.3" y1="870.9926" y2="870.9926"/><text fill="#000000" font-family="sans-serif" font-size="11.7" font-weight="bold" lengthAdjust="spacing" textLength="12.6" x="663.3" y="866.2562">22</text><text fill="#000000" font-family="sans-serif" font-size="11.7" lengthAdjust="spacing" textLength="113.4" x="679.5" y="866.2562">getGreenSpaceType()</text><polygon fill="#181818" points="666.9,895.5545,657.9,899.1545,666.9,902.7545,663.3,899.1545" style="stroke:#181818;stroke-width:0.9;"/><line style="stroke:#181818;stroke-width:0.9;stroke-dasharray:2.0,2.0;" x1="661.5" x2="996.3" y1="899.1545" y2="899.1545"/><text fill="#000000" font-family="sans-serif" font-size="11.7" font-weight="bold" lengthAdjust="spacing" textLength="12.6" x="672.3" y="894.4181">23</text><text fill="#000000" font-family="sans-serif" font-size="11.7" lengthAdjust="spacing" textLength="41.4" x="688.5" y="894.4181">typeList</text><polygon fill="#181818" points="369.9,923.7164,360.9,927.3164,369.9,930.9164,366.3,927.3164" style="stroke:#181818;stroke-width:0.9;"/><line style="stroke:#181818;stroke-width:0.9;stroke-dasharray:2.0,2.0;" x1="364.5" x2="651.6" y1="927.3164" y2="927.3164"/><text fill="#000000" font-family="sans-serif" font-size="11.7" font-weight="bold" lengthAdjust="spacing" textLength="12.6" x="375.3" y="922.58">24</text><text fill="#000000" font-family="sans-serif" font-size="11.7" lengthAdjust="spacing" textLength="41.4" x="391.5" y="922.58">typeList</text><polygon fill="#181818" points="110.7,951.8783,101.7,955.4783,110.7,959.0783,107.1,955.4783" style="stroke:#181818;stroke-width:0.9;"/><line style="stroke:#181818;stroke-width:0.9;stroke-dasharray:2.0,2.0;" x1="105.3" x2="354.6" y1="955.4783" y2="955.4783"/><text fill="#000000" font-family="sans-serif" font-size="11.7" font-weight="bold" lengthAdjust="spacing" textLength="12.6" x="116.1" y="950.7419">25</text><text fill="#000000" font-family="sans-serif" font-size="11.7" lengthAdjust="spacing" textLength="99.9" x="132.3" y="950.7419">asks to select type</text><polygon fill="#181818" points="340.2,980.0402,349.2,983.6402,340.2,987.2402,343.8,983.6402" style="stroke:#181818;stroke-width:0.9;"/><line style="stroke:#181818;stroke-width:0.9;" x1="100.8" x2="345.6" y1="983.6402" y2="983.6402"/><text fill="#000000" font-family="sans-serif" font-size="11.7" font-weight="bold" lengthAdjust="spacing" textLength="12.6" x="107.1" y="978.9038">26</text><text fill="#000000" font-family="sans-serif" font-size="11.7" lengthAdjust="spacing" textLength="63.9" x="123.3" y="978.9038">selects type</text><polygon fill="#181818" points="110.7,1008.2021,101.7,1011.8021,110.7,1015.4021,107.1,1011.8021" style="stroke:#181818;stroke-width:0.9;"/><line style="stroke:#181818;stroke-width:0.9;stroke-dasharray:2.0,2.0;" x1="105.3" x2="354.6" y1="1011.8021" y2="1011.8021"/><text fill="#000000" font-family="sans-serif" font-size="11.7" font-weight="bold" lengthAdjust="spacing" textLength="12.6" x="116.1" y="1007.0657">27</text><text fill="#000000" font-family="sans-serif" font-size="11.7" lengthAdjust="spacing" textLength="212.4" x="132.3" y="1007.0657">shows all data and requests confirmation</text><polygon fill="#181818" points="340.2,1036.3641,349.2,1039.9641,340.2,1043.5641,343.8,1039.9641" style="stroke:#181818;stroke-width:0.9;"/><line style="stroke:#181818;stroke-width:0.9;" x1="100.8" x2="345.6" y1="1039.9641" y2="1039.9641"/><text fill="#000000" font-family="sans-serif" font-size="11.7" font-weight="bold" lengthAdjust="spacing" textLength="12.6" x="107.1" y="1035.2276">28</text><text fill="#000000" font-family="sans-serif" font-size="11.7" lengthAdjust="spacing" textLength="70.2" x="123.3" y="1035.2276">confirms data</text><polygon fill="#181818" points="637.2,1064.526,646.2,1068.126,637.2,1071.726,640.8,1068.126" style="stroke:#181818;stroke-width:0.9;"/><line style="stroke:#181818;stroke-width:0.9;stroke-dasharray:2.0,2.0;" x1="360" x2="642.6" y1="1068.126" y2="1068.126"/><text fill="#000000" font-family="sans-serif" font-size="11.7" font-weight="bold" lengthAdjust="spacing" textLength="12.6" x="366.3" y="1063.3896">29</text><text fill="#000000" font-family="sans-serif" font-size="11.7" lengthAdjust="spacing" textLength="254.7" x="382.5" y="1063.3896">saveNewGreenSpace(name, address, area, type)</text><polygon fill="#181818" points="1109.7,1092.6879,1118.7,1096.2879,1109.7,1099.8879,1113.3,1096.2879" style="stroke:#181818;stroke-width:0.9;"/><line style="stroke:#181818;stroke-width:0.9;" x1="657" x2="1115.1" y1="1096.2879" y2="1096.2879"/><text fill="#000000" font-family="sans-serif" font-size="11.7" font-weight="bold" lengthAdjust="spacing" textLength="12.6" x="663.3" y="1091.5515">30</text><text fill="#000000" font-family="sans-serif" font-size="11.7" lengthAdjust="spacing" textLength="241.2" x="679.5" y="1091.5515">createGreenSpace(name, address, area, type)</text><polygon fill="#181818" points="666.9,1120.8498,657.9,1124.4498,666.9,1128.0498,663.3,1124.4498" style="stroke:#181818;stroke-width:0.9;"/><line style="stroke:#181818;stroke-width:0.9;stroke-dasharray:2.0,2.0;" x1="661.5" x2="1124.1" y1="1124.4498" y2="1124.4498"/><text fill="#000000" font-family="sans-serif" font-size="11.7" font-weight="bold" lengthAdjust="spacing" textLength="12.6" x="672.3" y="1119.7134">31</text><text fill="#000000" font-family="sans-serif" font-size="11.7" lengthAdjust="spacing" textLength="62.1" x="688.5" y="1119.7134">greenSpace</text><polygon fill="#181818" points="761.85,1149.0117,770.85,1152.6117,761.85,1156.2117,765.45,1152.6117" style="stroke:#181818;stroke-width:0.9;"/><line style="stroke:#181818;stroke-width:0.9;" x1="657" x2="767.25" y1="1152.6117" y2="1152.6117"/><text fill="#000000" font-family="sans-serif" font-size="11.7" font-weight="bold" lengthAdjust="spacing" textLength="12.6" x="663.3" y="1147.8753">32</text><text fill="#000000" font-family="sans-serif" font-size="11.7" lengthAdjust="spacing" textLength="67.5" x="679.5" y="1147.8753">getInstance()</text><polygon fill="#181818" points="666.9,1177.1736,657.9,1180.7736,666.9,1184.3736,663.3,1180.7736" style="stroke:#181818;stroke-width:0.9;"/><line style="stroke:#181818;stroke-width:0.9;stroke-dasharray:2.0,2.0;" x1="661.5" x2="776.25" y1="1180.7736" y2="1180.7736"/><text fill="#000000" font-family="sans-serif" font-size="11.7" font-weight="bold" lengthAdjust="spacing" textLength="12.6" x="672.3" y="1176.0372">33</text><text fill="#000000" font-family="sans-serif" font-size="11.7" lengthAdjust="spacing" textLength="60.3" x="688.5" y="1176.0372">repositories</text><polygon fill="#181818" points="856.35,1205.3355,865.35,1208.9355,856.35,1212.5355,859.95,1208.9355" style="stroke:#181818;stroke-width:0.9;"/><line style="stroke:#181818;stroke-width:0.9;" x1="657" x2="861.75" y1="1208.9355" y2="1208.9355"/><text fill="#000000" font-family="sans-serif" font-size="11.7" font-weight="bold" lengthAdjust="spacing" textLength="12.6" x="663.3" y="1204.1991">34</text><text fill="#000000" font-family="sans-serif" font-size="11.7" lengthAdjust="spacing" textLength="144" x="679.5" y="1204.1991">getGreenSpaceRepository()</text><polygon fill="#181818" points="666.9,1233.4975,657.9,1237.0975,666.9,1240.6975,663.3,1237.0975" style="stroke:#181818;stroke-width:0.9;"/><line style="stroke:#181818;stroke-width:0.9;stroke-dasharray:2.0,2.0;" x1="661.5" x2="870.75" y1="1237.0975" y2="1237.0975"/><text fill="#000000" font-family="sans-serif" font-size="11.7" font-weight="bold" lengthAdjust="spacing" textLength="12.6" x="672.3" y="1232.361">35</text><text fill="#000000" font-family="sans-serif" font-size="11.7" lengthAdjust="spacing" textLength="117.9" x="688.5" y="1232.361">greenSpaceRepository</text><polygon fill="#181818" points="981.9,1261.6594,990.9,1265.2594,981.9,1268.8594,985.5,1265.2594" style="stroke:#181818;stroke-width:0.9;"/><line style="stroke:#181818;stroke-width:0.9;" x1="657" x2="987.3" y1="1265.2594" y2="1265.2594"/><text fill="#000000" font-family="sans-serif" font-size="11.7" font-weight="bold" lengthAdjust="spacing" textLength="12.6" x="663.3" y="1260.5229">36</text><text fill="#000000" font-family="sans-serif" font-size="11.7" lengthAdjust="spacing" textLength="160.2" x="679.5" y="1260.5229">storeGreenSpace(greenSpace)</text><polygon fill="#181818" points="666.9,1289.8213,657.9,1293.4213,666.9,1297.0213,663.3,1293.4213" style="stroke:#181818;stroke-width:0.9;"/><line style="stroke:#181818;stroke-width:0.9;stroke-dasharray:2.0,2.0;" x1="661.5" x2="996.3" y1="1293.4213" y2="1293.4213"/><text fill="#000000" font-family="sans-serif" font-size="11.7" font-weight="bold" lengthAdjust="spacing" textLength="12.6" x="672.3" y="1288.6849">37</text><text fill="#000000" font-family="sans-serif" font-size="11.7" lengthAdjust="spacing" textLength="44.1" x="688.5" y="1288.6849">success</text><polygon fill="#181818" points="369.9,1317.9832,360.9,1321.5832,369.9,1325.1832,366.3,1321.5832" style="stroke:#181818;stroke-width:0.9;"/><line style="stroke:#181818;stroke-width:0.9;stroke-dasharray:2.0,2.0;" x1="364.5" x2="651.6" y1="1321.5832" y2="1321.5832"/><text fill="#000000" font-family="sans-serif" font-size="11.7" font-weight="bold" lengthAdjust="spacing" textLength="12.6" x="375.3" y="1316.8468">38</text><text fill="#000000" font-family="sans-serif" font-size="11.7" lengthAdjust="spacing" textLength="44.1" x="391.5" y="1316.8468">success</text><polygon fill="#181818" points="110.7,1346.1451,101.7,1349.7451,110.7,1353.3451,107.1,1349.7451" style="stroke:#181818;stroke-width:0.9;"/><line style="stroke:#181818;stroke-width:0.9;stroke-dasharray:2.0,2.0;" x1="105.3" x2="354.6" y1="1349.7451" y2="1349.7451"/><text fill="#000000" font-family="sans-serif" font-size="11.7" font-weight="bold" lengthAdjust="spacing" textLength="12.6" x="116.1" y="1345.0087">39</text><text fill="#000000" font-family="sans-serif" font-size="11.7" lengthAdjust="spacing" textLength="196.2" x="132.3" y="1345.0087">notifies successful vehicle registration</text><!--SRC=[jLVBRjim4BppAxO-9K0C13qQI86Y1O80IL54oIqNLbhBH6ZI9Icx_likATKYzN2TnF8XaUMTsT4-Hf9z5Mh33L_3MYkThunU8pXJ8RE7NpOyV-KbPcul4GpcZgjInW5snGkz4wg49PSM6NF2KMYsjmxNaE7l2bMEy5tmqeVFuJcx_dpD6A-SLjNw5newpfqsCBirY0eoIedmm1MbDV2YBcuV7ovdm2tG0QEaJkHYmvM3sU8HIq5vJ406uFDT27s-wqIs4T-qSaPBYIP4jbzxt1jj1GaJQ4FauSG-4xu8f3-5c0YnU54zWf_tNvzIH7bGrPA_g4XiUxeZOOmdGTTLotnznPOx31Laz0VcNwX4iA2EKd-ii-0q7TV510uATn0umNgUbe3gAhNUm6ubgCa5Tno41QKTRBaK1IFIEN7x515vH0MAqv1nLG0l2eFMiW9ZzbYSss_mF-0OwdDxvABMGcTjKCXG5SsFRRE9laJNbkh2Kr_zuxriYQFvYD34DJ0EDUcTihGbH7d9uCJF8TlGZ9tCuZz3gkR9bVk-j8DvCddKfW-9J8leLwBRYfR-FHKCI_QcaWKDyzvq3EXvJx62dh79ENK88mdjOQ-lhMGssAr4HhCgmvXewBbqoGf-kW5LIHbAaMmxcO1OqaI1M_4KmgL1Nkm1_v2_r1E7TAj8OcuYsgCEqyixw3ASChAEjNXatruQE1QrLoIpr816ZILSYIgYeAGTSMkVA5appaDLxc_6EUtbl1OpgSsSqsecj9iFMiv4jZDaFSScwuGPxQWuuZv-dUvfmTbe2tjQcgqQGtRs8zbwRb_3Guj5IG-bWQ8B7rZvEjgsuKEhViXXLtfdoRraRKF-kUDWDhbMIs7Mt0cQo7xYup8Qi3rkEPtwMhx57xWRkrjS1S-x2fVs5f-vpKWF8Hs-WvcUBVsbPRqvZcuhQMrgnBHMTtQtczhmpknvqzhUnvrlElCRzhzn-xFqBvxxLa2eoOY77J51M-MvVoyvPe4z1uGntAW1HazR3N9PITZYIkJXDTs_o9dQcr8degULlm00]--></g></svg>