<?xml version="1.0" encoding="us-ascii" standalone="no"?><svg xmlns="http://www.w3.org/2000/svg" xmlns:xlink="http://www.w3.org/1999/xlink" contentStyleType="text/css" height="1626px" preserveAspectRatio="none" style="width:1330px;height:1626px;background:#FFFFFF;" version="1.1" viewBox="0 0 1330 1626" width="1330px" zoomAndPan="magnify"><defs/><g><text fill="#000000" font-family="sans-serif" font-size="14" font-weight="bold" lengthAdjust="spacing" textLength="242" x="545" y="30.1074">System Sequence Diagram - US020</text><rect fill="#FFFFFF" height="1363.8535" style="stroke:#181818;stroke-width:1.0;" width="10" x="102" y="151.8633"/><rect fill="#FFFFFF" height="57.582" style="stroke:#181818;stroke-width:1.0;" width="10" x="404" y="175.1543"/><rect fill="#FFFFFF" height="433.4141" style="stroke:#181818;stroke-width:1.0;" width="10" x="404" y="264.0273"/><rect fill="#FFFFFF" height="332.9102" style="stroke:#181818;stroke-width:1.0;" width="10" x="404" y="728.7324"/><rect fill="#FFFFFF" height="31.291" style="stroke:#181818;stroke-width:1.0;" width="10" x="404" y="1092.9336"/><rect fill="#FFFFFF" height="344.2012" style="stroke:#181818;stroke-width:1.0;" width="10" x="404" y="1155.5156"/><rect fill="#FFFFFF" height="219.0371" style="stroke:#181818;stroke-width:1.0;" width="10" x="734" y="346.6094"/><rect fill="#FFFFFF" height="219.0371" style="stroke:#181818;stroke-width:1.0;" width="10" x="734" y="811.3145"/><rect fill="#FFFFFF" height="281.6191" style="stroke:#181818;stroke-width:1.0;" width="10" x="734" y="1186.8066"/><rect fill="#FFFFFF" height="31.291" style="stroke:#181818;stroke-width:1.0;" width="10" x="872.5" y="377.9004"/><rect fill="#FFFFFF" height="31.291" style="stroke:#181818;stroke-width:1.0;" width="10" x="872.5" y="842.6055"/><rect fill="#FFFFFF" height="31.291" style="stroke:#181818;stroke-width:1.0;" width="10" x="872.5" y="1280.6797"/><rect fill="#FFFFFF" height="31.291" style="stroke:#181818;stroke-width:1.0;" width="10" x="977.5" y="440.4824"/><rect fill="#FFFFFF" height="31.291" style="stroke:#181818;stroke-width:1.0;" width="10" x="977.5" y="905.1875"/><rect fill="#FFFFFF" height="31.291" style="stroke:#181818;stroke-width:1.0;" width="10" x="977.5" y="1343.2617"/><rect fill="#FFFFFF" height="31.291" style="stroke:#181818;stroke-width:1.0;" width="10" x="1117" y="503.0645"/><rect fill="#FFFFFF" height="31.291" style="stroke:#181818;stroke-width:1.0;" width="10" x="1117" y="967.7695"/><rect fill="#FFFFFF" height="31.291" style="stroke:#181818;stroke-width:1.0;" width="10" x="1117" y="1405.8438"/><rect fill="#FFFFFF" height="31.291" style="stroke:#181818;stroke-width:1.0;" width="10" x="1259" y="1218.0977"/><rect fill="none" height="126.1641" style="stroke:#000000;stroke-width:1.5;" width="503" x="20" y="190.1543"/><rect fill="none" height="927.0703" style="stroke:#000000;stroke-width:1.5;" width="1313" x="10" y="580.6465"/><rect fill="none" height="126.1641" style="stroke:#000000;stroke-width:1.5;" width="510" x="20" y="654.8594"/><line style="stroke:#181818;stroke-width:0.5;stroke-dasharray:5.0,5.0;" x1="107" x2="107" y1="141.8633" y2="1524.7168"/><line style="stroke:#181818;stroke-width:0.5;stroke-dasharray:5.0,5.0;" x1="408.5" x2="408.5" y1="141.8633" y2="1524.7168"/><line style="stroke:#181818;stroke-width:0.5;stroke-dasharray:5.0,5.0;" x1="739" x2="739" y1="141.8633" y2="1524.7168"/><line style="stroke:#181818;stroke-width:0.5;stroke-dasharray:5.0,5.0;" x1="877" x2="877" y1="141.8633" y2="1524.7168"/><line style="stroke:#181818;stroke-width:0.5;stroke-dasharray:5.0,5.0;" x1="982" x2="982" y1="141.8633" y2="1524.7168"/><line style="stroke:#181818;stroke-width:0.5;stroke-dasharray:5.0,5.0;" x1="1122" x2="1122" y1="141.8633" y2="1524.7168"/><line style="stroke:#181818;stroke-width:0.5;stroke-dasharray:5.0,5.0;" x1="1264" x2="1264" y1="141.8633" y2="1524.7168"/><text fill="#000000" font-family="sans-serif" font-size="14" lengthAdjust="spacing" textLength="144" x="30" y="119.7285">Green Space Manager</text><text fill="#000000" font-family="sans-serif" font-size="14" lengthAdjust="spacing" textLength="41" x="83.5" y="138.3496">(GSM)</text><ellipse cx="107" cy="53.1211" fill="#E3E3E3" rx="8" ry="8" style="stroke:#181818;stroke-width:0.5;"/><path d="M107,61.1211 L107,88.1211 M94,69.1211 L120,69.1211 M107,88.1211 L94,103.1211 M107,88.1211 L120,103.1211 " fill="none" style="stroke:#181818;stroke-width:0.5;"/><text fill="#000000" font-family="sans-serif" font-size="14" lengthAdjust="spacing" textLength="144" x="30" y="1538.8242">Green Space Manager</text><text fill="#000000" font-family="sans-serif" font-size="14" lengthAdjust="spacing" textLength="41" x="83.5" y="1557.4453">(GSM)</text><ellipse cx="107" cy="1569.459" fill="#E3E3E3" rx="8" ry="8" style="stroke:#181818;stroke-width:0.5;"/><path d="M107,1577.459 L107,1604.459 M94,1585.459 L120,1585.459 M107,1604.459 L94,1619.459 M107,1604.459 L120,1619.459 " fill="none" style="stroke:#181818;stroke-width:0.5;"/><rect fill="#E3E3E3" height="32.6211" rx="2.5" ry="2.5" style="stroke:#181818;stroke-width:0.5;" width="163" x="327.5" y="108.2422"/><text fill="#000000" font-family="sans-serif" font-size="14" lengthAdjust="spacing" textLength="149" x="334.5" y="130.3496">:RegisterGreenSpaceUI</text><rect fill="#E3E3E3" height="32.6211" rx="2.5" ry="2.5" style="stroke:#181818;stroke-width:0.5;" width="163" x="327.5" y="1523.7168"/><text fill="#000000" font-family="sans-serif" font-size="14" lengthAdjust="spacing" textLength="149" x="334.5" y="1545.8242">:RegisterGreenSpaceUI</text><rect fill="#E3E3E3" height="32.6211" rx="2.5" ry="2.5" style="stroke:#181818;stroke-width:0.5;" width="160" x="659" y="108.2422"/><text fill="#000000" font-family="sans-serif" font-size="14" lengthAdjust="spacing" textLength="146" x="666" y="130.3496">:GreenSpaceController</text><rect fill="#E3E3E3" height="32.6211" rx="2.5" ry="2.5" style="stroke:#181818;stroke-width:0.5;" width="160" x="659" y="1523.7168"/><text fill="#000000" font-family="sans-serif" font-size="14" lengthAdjust="spacing" textLength="146" x="666" y="1545.8242">:GreenSpaceController</text><rect fill="#E3E3E3" height="32.6211" rx="2.5" ry="2.5" style="stroke:#181818;stroke-width:0.5;" width="97" x="829" y="108.2422"/><text fill="#000000" font-family="sans-serif" font-size="14" lengthAdjust="spacing" textLength="83" x="836" y="130.3496">:Repositories</text><rect fill="#E3E3E3" height="32.6211" rx="2.5" ry="2.5" style="stroke:#181818;stroke-width:0.5;" width="97" x="829" y="1523.7168"/><text fill="#000000" font-family="sans-serif" font-size="14" lengthAdjust="spacing" textLength="83" x="836" y="1545.8242">:Repositories</text><rect fill="#E3E3E3" height="51.2422" rx="2.5" ry="2.5" style="stroke:#181818;stroke-width:0.5;" width="93" x="936" y="89.6211"/><text fill="#000000" font-family="sans-serif" font-size="14" lengthAdjust="spacing" textLength="78" x="943.5" y="111.7285">repositories:</text><text fill="#000000" font-family="sans-serif" font-size="14" lengthAdjust="spacing" textLength="79" x="943" y="130.3496">Repositories</text><rect fill="#E3E3E3" height="51.2422" rx="2.5" ry="2.5" style="stroke:#181818;stroke-width:0.5;" width="93" x="936" y="1523.7168"/><text fill="#000000" font-family="sans-serif" font-size="14" lengthAdjust="spacing" textLength="78" x="943.5" y="1545.8242">repositories:</text><text fill="#000000" font-family="sans-serif" font-size="14" lengthAdjust="spacing" textLength="79" x="943" y="1564.4453">Repositories</text><rect fill="#E3E3E3" height="51.2422" rx="2.5" ry="2.5" style="stroke:#181818;stroke-width:0.5;" width="166" x="1039" y="89.6211"/><text fill="#000000" font-family="sans-serif" font-size="14" lengthAdjust="spacing" textLength="145" x="1049.5" y="111.7285">greenSpaceRepository</text><text fill="#000000" font-family="sans-serif" font-size="14" lengthAdjust="spacing" textLength="152" x="1046" y="130.3496">:GreenSpaceRepository</text><rect fill="#E3E3E3" height="51.2422" rx="2.5" ry="2.5" style="stroke:#181818;stroke-width:0.5;" width="166" x="1039" y="1523.7168"/><text fill="#000000" font-family="sans-serif" font-size="14" lengthAdjust="spacing" textLength="145" x="1049.5" y="1545.8242">greenSpaceRepository</text><text fill="#000000" font-family="sans-serif" font-size="14" lengthAdjust="spacing" textLength="152" x="1046" y="1564.4453">:GreenSpaceRepository</text><rect fill="#E3E3E3" height="51.2422" rx="2.5" ry="2.5" style="stroke:#181818;stroke-width:0.5;" width="98" x="1215" y="89.6211"/><text fill="#000000" font-family="sans-serif" font-size="14" lengthAdjust="spacing" textLength="77" x="1225.5" y="111.7285">greenSpace</text><text fill="#000000" font-family="sans-serif" font-size="14" lengthAdjust="spacing" textLength="84" x="1222" y="130.3496">:GreenSpace</text><rect fill="#E3E3E3" height="51.2422" rx="2.5" ry="2.5" style="stroke:#181818;stroke-width:0.5;" width="98" x="1215" y="1523.7168"/><text fill="#000000" font-family="sans-serif" font-size="14" lengthAdjust="spacing" textLength="77" x="1225.5" y="1545.8242">greenSpace</text><text fill="#000000" font-family="sans-serif" font-size="14" lengthAdjust="spacing" textLength="84" x="1222" y="1564.4453">:GreenSpace</text><rect fill="#FFFFFF" height="1363.8535" style="stroke:#181818;stroke-width:1.0;" width="10" x="102" y="151.8633"/><rect fill="#FFFFFF" height="57.582" style="stroke:#181818;stroke-width:1.0;" width="10" x="404" y="175.1543"/><rect fill="#FFFFFF" height="433.4141" style="stroke:#181818;stroke-width:1.0;" width="10" x="404" y="264.0273"/><rect fill="#FFFFFF" height="332.9102" style="stroke:#181818;stroke-width:1.0;" width="10" x="404" y="728.7324"/><rect fill="#FFFFFF" height="31.291" style="stroke:#181818;stroke-width:1.0;" width="10" x="404" y="1092.9336"/><rect fill="#FFFFFF" height="344.2012" style="stroke:#181818;stroke-width:1.0;" width="10" x="404" y="1155.5156"/><rect fill="#FFFFFF" height="219.0371" style="stroke:#181818;stroke-width:1.0;" width="10" x="734" y="346.6094"/><rect fill="#FFFFFF" height="219.0371" style="stroke:#181818;stroke-width:1.0;" width="10" x="734" y="811.3145"/><rect fill="#FFFFFF" height="281.6191" style="stroke:#181818;stroke-width:1.0;" width="10" x="734" y="1186.8066"/><rect fill="#FFFFFF" height="31.291" style="stroke:#181818;stroke-width:1.0;" width="10" x="872.5" y="377.9004"/><rect fill="#FFFFFF" height="31.291" style="stroke:#181818;stroke-width:1.0;" width="10" x="872.5" y="842.6055"/><rect fill="#FFFFFF" height="31.291" style="stroke:#181818;stroke-width:1.0;" width="10" x="872.5" y="1280.6797"/><rect fill="#FFFFFF" height="31.291" style="stroke:#181818;stroke-width:1.0;" width="10" x="977.5" y="440.4824"/><rect fill="#FFFFFF" height="31.291" style="stroke:#181818;stroke-width:1.0;" width="10" x="977.5" y="905.1875"/><rect fill="#FFFFFF" height="31.291" style="stroke:#181818;stroke-width:1.0;" width="10" x="977.5" y="1343.2617"/><rect fill="#FFFFFF" height="31.291" style="stroke:#181818;stroke-width:1.0;" width="10" x="1117" y="503.0645"/><rect fill="#FFFFFF" height="31.291" style="stroke:#181818;stroke-width:1.0;" width="10" x="1117" y="967.7695"/><rect fill="#FFFFFF" height="31.291" style="stroke:#181818;stroke-width:1.0;" width="10" x="1117" y="1405.8438"/><rect fill="#FFFFFF" height="31.291" style="stroke:#181818;stroke-width:1.0;" width="10" x="1259" y="1218.0977"/><polygon fill="#181818" points="392,171.1543,402,175.1543,392,179.1543,396,175.1543" style="stroke:#181818;stroke-width:1.0;"/><line style="stroke:#181818;stroke-width:1.0;" x1="112" x2="398" y1="175.1543" y2="175.1543"/><text fill="#000000" font-family="sans-serif" font-size="13" font-weight="bold" lengthAdjust="spacing" textLength="7" x="119" y="169.8916">1</text><text fill="#000000" font-family="sans-serif" font-size="13" lengthAdjust="spacing" textLength="225" x="130" y="169.8916">requests to register a new green space</text><path d="M20,190.1543 L93,190.1543 L93,199.4453 L83,209.4453 L20,209.4453 L20,190.1543 " fill="#EEEEEE" style="stroke:#000000;stroke-width:1.5;"/><rect fill="none" height="126.1641" style="stroke:#000000;stroke-width:1.5;" width="503" x="20" y="190.1543"/><text fill="#000000" font-family="sans-serif" font-size="13" font-weight="bold" lengthAdjust="spacing" textLength="28" x="35" y="205.1826">loop</text><text fill="#000000" font-family="sans-serif" font-size="11" font-weight="bold" lengthAdjust="spacing" textLength="126" x="108" y="204.0244">[while data is not valid]</text><polygon fill="#181818" points="123,228.7363,113,232.7363,123,236.7363,119,232.7363" style="stroke:#181818;stroke-width:1.0;"/><line style="stroke:#181818;stroke-width:1.0;stroke-dasharray:2.0,2.0;" x1="117" x2="408" y1="232.7363" y2="232.7363"/><text fill="#000000" font-family="sans-serif" font-size="13" font-weight="bold" lengthAdjust="spacing" textLength="7" x="129" y="227.4736">2</text><text fill="#000000" font-family="sans-serif" font-size="13" lengthAdjust="spacing" textLength="236" x="140" y="227.4736">requests green space name and address</text><polygon fill="#181818" points="392,260.0273,402,264.0273,392,268.0273,396,264.0273" style="stroke:#181818;stroke-width:1.0;"/><line style="stroke:#181818;stroke-width:1.0;" x1="112" x2="398" y1="264.0273" y2="264.0273"/><text fill="#000000" font-family="sans-serif" font-size="13" font-weight="bold" lengthAdjust="spacing" textLength="7" x="119" y="258.7646">3</text><text fill="#000000" font-family="sans-serif" font-size="13" lengthAdjust="spacing" textLength="218" x="130" y="258.7646">types green space name and address</text><line style="stroke:#181818;stroke-width:1.0;" x1="414" x2="456" y1="295.3184" y2="295.3184"/><line style="stroke:#181818;stroke-width:1.0;" x1="456" x2="456" y1="295.3184" y2="308.3184"/><line style="stroke:#181818;stroke-width:1.0;" x1="415" x2="456" y1="308.3184" y2="308.3184"/><polygon fill="#181818" points="425,304.3184,415,308.3184,425,312.3184,421,308.3184" style="stroke:#181818;stroke-width:1.0;"/><text fill="#000000" font-family="sans-serif" font-size="13" font-weight="bold" lengthAdjust="spacing" textLength="7" x="421" y="290.0557">4</text><text fill="#000000" font-family="sans-serif" font-size="13" lengthAdjust="spacing" textLength="79" x="432" y="290.0557">validates data</text><polygon fill="#181818" points="722,342.6094,732,346.6094,722,350.6094,726,346.6094" style="stroke:#181818;stroke-width:1.0;"/><line style="stroke:#181818;stroke-width:1.0;" x1="414" x2="728" y1="346.6094" y2="346.6094"/><text fill="#000000" font-family="sans-serif" font-size="13" font-weight="bold" lengthAdjust="spacing" textLength="7" x="421" y="341.3467">5</text><text fill="#000000" font-family="sans-serif" font-size="13" lengthAdjust="spacing" textLength="184" x="432" y="341.3467">getGreenSpace(name, address)</text><polygon fill="#181818" points="860.5,373.9004,870.5,377.9004,860.5,381.9004,864.5,377.9004" style="stroke:#181818;stroke-width:1.0;"/><line style="stroke:#181818;stroke-width:1.0;" x1="744" x2="866.5" y1="377.9004" y2="377.9004"/><text fill="#000000" font-family="sans-serif" font-size="13" font-weight="bold" lengthAdjust="spacing" textLength="7" x="751" y="372.6377">6</text><text fill="#000000" font-family="sans-serif" font-size="13" lengthAdjust="spacing" textLength="75" x="762" y="372.6377">getInstance()</text><polygon fill="#181818" points="755,405.1914,745,409.1914,755,413.1914,751,409.1914" style="stroke:#181818;stroke-width:1.0;"/><line style="stroke:#181818;stroke-width:1.0;stroke-dasharray:2.0,2.0;" x1="749" x2="876.5" y1="409.1914" y2="409.1914"/><text fill="#000000" font-family="sans-serif" font-size="13" font-weight="bold" lengthAdjust="spacing" textLength="7" x="761" y="403.9287">7</text><text fill="#000000" font-family="sans-serif" font-size="13" lengthAdjust="spacing" textLength="67" x="772" y="403.9287">repositories</text><polygon fill="#181818" points="965.5,436.4824,975.5,440.4824,965.5,444.4824,969.5,440.4824" style="stroke:#181818;stroke-width:1.0;"/><line style="stroke:#181818;stroke-width:1.0;" x1="744" x2="971.5" y1="440.4824" y2="440.4824"/><text fill="#000000" font-family="sans-serif" font-size="13" font-weight="bold" lengthAdjust="spacing" textLength="7" x="751" y="435.2197">8</text><text fill="#000000" font-family="sans-serif" font-size="13" lengthAdjust="spacing" textLength="160" x="762" y="435.2197">getGreenSpaceRepository()</text><polygon fill="#181818" points="755,467.7734,745,471.7734,755,475.7734,751,471.7734" style="stroke:#181818;stroke-width:1.0;"/><line style="stroke:#181818;stroke-width:1.0;stroke-dasharray:2.0,2.0;" x1="749" x2="981.5" y1="471.7734" y2="471.7734"/><text fill="#000000" font-family="sans-serif" font-size="13" font-weight="bold" lengthAdjust="spacing" textLength="7" x="761" y="466.5107">9</text><text fill="#000000" font-family="sans-serif" font-size="13" lengthAdjust="spacing" textLength="131" x="772" y="466.5107">greenSpaceRepository</text><polygon fill="#181818" points="1105,499.0645,1115,503.0645,1105,507.0645,1109,503.0645" style="stroke:#181818;stroke-width:1.0;"/><line style="stroke:#181818;stroke-width:1.0;" x1="744" x2="1111" y1="503.0645" y2="503.0645"/><text fill="#000000" font-family="sans-serif" font-size="13" font-weight="bold" lengthAdjust="spacing" textLength="14" x="751" y="497.8018">10</text><text fill="#000000" font-family="sans-serif" font-size="13" lengthAdjust="spacing" textLength="184" x="769" y="497.8018">getGreenSpace(name, address)</text><polygon fill="#181818" points="755,530.3555,745,534.3555,755,538.3555,751,534.3555" style="stroke:#181818;stroke-width:1.0;"/><line style="stroke:#181818;stroke-width:1.0;stroke-dasharray:2.0,2.0;" x1="749" x2="1121" y1="534.3555" y2="534.3555"/><text fill="#000000" font-family="sans-serif" font-size="13" font-weight="bold" lengthAdjust="spacing" textLength="14" x="761" y="529.0928">11</text><text fill="#000000" font-family="sans-serif" font-size="13" lengthAdjust="spacing" textLength="69" x="779" y="529.0928">greenSpace</text><polygon fill="#181818" points="425,561.6465,415,565.6465,425,569.6465,421,565.6465" style="stroke:#181818;stroke-width:1.0;"/><line style="stroke:#181818;stroke-width:1.0;stroke-dasharray:2.0,2.0;" x1="419" x2="738" y1="565.6465" y2="565.6465"/><text fill="#000000" font-family="sans-serif" font-size="13" font-weight="bold" lengthAdjust="spacing" textLength="14" x="431" y="560.3838">12</text><text fill="#000000" font-family="sans-serif" font-size="13" lengthAdjust="spacing" textLength="69" x="449" y="560.3838">greenSpace</text><path d="M10,580.6465 L71,580.6465 L71,589.9375 L61,599.9375 L10,599.9375 L10,580.6465 " fill="#EEEEEE" style="stroke:#000000;stroke-width:1.5;"/><rect fill="none" height="927.0703" style="stroke:#000000;stroke-width:1.5;" width="1313" x="10" y="580.6465"/><text fill="#000000" font-family="sans-serif" font-size="13" font-weight="bold" lengthAdjust="spacing" textLength="16" x="25" y="595.6748">alt</text><text fill="#000000" font-family="sans-serif" font-size="11" font-weight="bold" lengthAdjust="spacing" textLength="112" x="86" y="594.5166">[green space != null]</text><polygon fill="#181818" points="123,619.2285,113,623.2285,123,627.2285,119,623.2285" style="stroke:#181818;stroke-width:1.0;"/><line style="stroke:#181818;stroke-width:1.0;stroke-dasharray:2.0,2.0;" x1="117" x2="403" y1="623.2285" y2="623.2285"/><text fill="#000000" font-family="sans-serif" font-size="13" font-weight="bold" lengthAdjust="spacing" textLength="14" x="129" y="617.9658">13</text><text fill="#000000" font-family="sans-serif" font-size="13" lengthAdjust="spacing" textLength="227" x="147" y="617.9658">notifies that green space already exists</text><line style="stroke:#000000;stroke-width:1.0;stroke-dasharray:2.0,2.0;" x1="10" x2="1323" y1="632.2285" y2="632.2285"/><text fill="#000000" font-family="sans-serif" font-size="11" font-weight="bold" lengthAdjust="spacing" textLength="115" x="15" y="644.0986">[green space == null]</text><path d="M20,654.8594 L93,654.8594 L93,664.1504 L83,674.1504 L20,674.1504 L20,654.8594 " fill="#EEEEEE" style="stroke:#000000;stroke-width:1.5;"/><rect fill="none" height="126.1641" style="stroke:#000000;stroke-width:1.5;" width="510" x="20" y="654.8594"/><text fill="#000000" font-family="sans-serif" font-size="13" font-weight="bold" lengthAdjust="spacing" textLength="28" x="35" y="669.8877">loop</text><text fill="#000000" font-family="sans-serif" font-size="11" font-weight="bold" lengthAdjust="spacing" textLength="126" x="108" y="668.7295">[while data is not valid]</text><polygon fill="#181818" points="123,693.4414,113,697.4414,123,701.4414,119,697.4414" style="stroke:#181818;stroke-width:1.0;"/><line style="stroke:#181818;stroke-width:1.0;stroke-dasharray:2.0,2.0;" x1="117" x2="408" y1="697.4414" y2="697.4414"/><text fill="#000000" font-family="sans-serif" font-size="13" font-weight="bold" lengthAdjust="spacing" textLength="14" x="129" y="692.1787">14</text><text fill="#000000" font-family="sans-serif" font-size="13" lengthAdjust="spacing" textLength="154" x="147" y="692.1787">requests green space area</text><polygon fill="#181818" points="392,724.7324,402,728.7324,392,732.7324,396,728.7324" style="stroke:#181818;stroke-width:1.0;"/><line style="stroke:#181818;stroke-width:1.0;" x1="112" x2="398" y1="728.7324" y2="728.7324"/><text fill="#000000" font-family="sans-serif" font-size="13" font-weight="bold" lengthAdjust="spacing" textLength="14" x="119" y="723.4697">15</text><text fill="#000000" font-family="sans-serif" font-size="13" lengthAdjust="spacing" textLength="122" x="137" y="723.4697">types requested data</text><line style="stroke:#181818;stroke-width:1.0;" x1="414" x2="456" y1="760.0234" y2="760.0234"/><line style="stroke:#181818;stroke-width:1.0;" x1="456" x2="456" y1="760.0234" y2="773.0234"/><line style="stroke:#181818;stroke-width:1.0;" x1="415" x2="456" y1="773.0234" y2="773.0234"/><polygon fill="#181818" points="425,769.0234,415,773.0234,425,777.0234,421,773.0234" style="stroke:#181818;stroke-width:1.0;"/><text fill="#000000" font-family="sans-serif" font-size="13" font-weight="bold" lengthAdjust="spacing" textLength="14" x="421" y="754.7607">16</text><text fill="#000000" font-family="sans-serif" font-size="13" lengthAdjust="spacing" textLength="79" x="439" y="754.7607">validates data</text><polygon fill="#181818" points="722,807.3145,732,811.3145,722,815.3145,726,811.3145" style="stroke:#181818;stroke-width:1.0;"/><line style="stroke:#181818;stroke-width:1.0;" x1="414" x2="728" y1="811.3145" y2="811.3145"/><text fill="#000000" font-family="sans-serif" font-size="13" font-weight="bold" lengthAdjust="spacing" textLength="14" x="421" y="806.0518">17</text><text fill="#000000" font-family="sans-serif" font-size="13" lengthAdjust="spacing" textLength="126" x="439" y="806.0518">getGreenSpaceType()</text><polygon fill="#181818" points="860.5,838.6055,870.5,842.6055,860.5,846.6055,864.5,842.6055" style="stroke:#181818;stroke-width:1.0;"/><line style="stroke:#181818;stroke-width:1.0;" x1="744" x2="866.5" y1="842.6055" y2="842.6055"/><text fill="#000000" font-family="sans-serif" font-size="13" font-weight="bold" lengthAdjust="spacing" textLength="14" x="751" y="837.3428">18</text><text fill="#000000" font-family="sans-serif" font-size="13" lengthAdjust="spacing" textLength="75" x="769" y="837.3428">getInstance()</text><polygon fill="#181818" points="755,869.8965,745,873.8965,755,877.8965,751,873.8965" style="stroke:#181818;stroke-width:1.0;"/><line style="stroke:#181818;stroke-width:1.0;stroke-dasharray:2.0,2.0;" x1="749" x2="876.5" y1="873.8965" y2="873.8965"/><text fill="#000000" font-family="sans-serif" font-size="13" font-weight="bold" lengthAdjust="spacing" textLength="14" x="761" y="868.6338">19</text><text fill="#000000" font-family="sans-serif" font-size="13" lengthAdjust="spacing" textLength="67" x="779" y="868.6338">repositories</text><polygon fill="#181818" points="965.5,901.1875,975.5,905.1875,965.5,909.1875,969.5,905.1875" style="stroke:#181818;stroke-width:1.0;"/><line style="stroke:#181818;stroke-width:1.0;" x1="744" x2="971.5" y1="905.1875" y2="905.1875"/><text fill="#000000" font-family="sans-serif" font-size="13" font-weight="bold" lengthAdjust="spacing" textLength="14" x="751" y="899.9248">20</text><text fill="#000000" font-family="sans-serif" font-size="13" lengthAdjust="spacing" textLength="160" x="769" y="899.9248">getGreenSpaceRepository()</text><polygon fill="#181818" points="755,932.4785,745,936.4785,755,940.4785,751,936.4785" style="stroke:#181818;stroke-width:1.0;"/><line style="stroke:#181818;stroke-width:1.0;stroke-dasharray:2.0,2.0;" x1="749" x2="981.5" y1="936.4785" y2="936.4785"/><text fill="#000000" font-family="sans-serif" font-size="13" font-weight="bold" lengthAdjust="spacing" textLength="14" x="761" y="931.2158">21</text><text fill="#000000" font-family="sans-serif" font-size="13" lengthAdjust="spacing" textLength="131" x="779" y="931.2158">greenSpaceRepository</text><polygon fill="#181818" points="1105,963.7695,1115,967.7695,1105,971.7695,1109,967.7695" style="stroke:#181818;stroke-width:1.0;"/><line style="stroke:#181818;stroke-width:1.0;" x1="744" x2="1111" y1="967.7695" y2="967.7695"/><text fill="#000000" font-family="sans-serif" font-size="13" font-weight="bold" lengthAdjust="spacing" textLength="14" x="751" y="962.5068">22</text><text fill="#000000" font-family="sans-serif" font-size="13" lengthAdjust="spacing" textLength="126" x="769" y="962.5068">getGreenSpaceType()</text><polygon fill="#181818" points="755,995.0605,745,999.0605,755,1003.0605,751,999.0605" style="stroke:#181818;stroke-width:1.0;"/><line style="stroke:#181818;stroke-width:1.0;stroke-dasharray:2.0,2.0;" x1="749" x2="1121" y1="999.0605" y2="999.0605"/><text fill="#000000" font-family="sans-serif" font-size="13" font-weight="bold" lengthAdjust="spacing" textLength="14" x="761" y="993.7979">23</text><text fill="#000000" font-family="sans-serif" font-size="13" lengthAdjust="spacing" textLength="46" x="779" y="993.7979">typeList</text><polygon fill="#181818" points="425,1026.3516,415,1030.3516,425,1034.3516,421,1030.3516" style="stroke:#181818;stroke-width:1.0;"/><line style="stroke:#181818;stroke-width:1.0;stroke-dasharray:2.0,2.0;" x1="419" x2="738" y1="1030.3516" y2="1030.3516"/><text fill="#000000" font-family="sans-serif" font-size="13" font-weight="bold" lengthAdjust="spacing" textLength="14" x="431" y="1025.0889">24</text><text fill="#000000" font-family="sans-serif" font-size="13" lengthAdjust="spacing" textLength="46" x="449" y="1025.0889">typeList</text><polygon fill="#181818" points="123,1057.6426,113,1061.6426,123,1065.6426,119,1061.6426" style="stroke:#181818;stroke-width:1.0;"/><line style="stroke:#181818;stroke-width:1.0;stroke-dasharray:2.0,2.0;" x1="117" x2="408" y1="1061.6426" y2="1061.6426"/><text fill="#000000" font-family="sans-serif" font-size="13" font-weight="bold" lengthAdjust="spacing" textLength="14" x="129" y="1056.3799">25</text><text fill="#000000" font-family="sans-serif" font-size="13" lengthAdjust="spacing" textLength="111" x="147" y="1056.3799">asks to select type</text><polygon fill="#181818" points="392,1088.9336,402,1092.9336,392,1096.9336,396,1092.9336" style="stroke:#181818;stroke-width:1.0;"/><line style="stroke:#181818;stroke-width:1.0;" x1="112" x2="398" y1="1092.9336" y2="1092.9336"/><text fill="#000000" font-family="sans-serif" font-size="13" font-weight="bold" lengthAdjust="spacing" textLength="14" x="119" y="1087.6709">26</text><text fill="#000000" font-family="sans-serif" font-size="13" lengthAdjust="spacing" textLength="71" x="137" y="1087.6709">selects type</text><polygon fill="#181818" points="123,1120.2246,113,1124.2246,123,1128.2246,119,1124.2246" style="stroke:#181818;stroke-width:1.0;"/><line style="stroke:#181818;stroke-width:1.0;stroke-dasharray:2.0,2.0;" x1="117" x2="408" y1="1124.2246" y2="1124.2246"/><text fill="#000000" font-family="sans-serif" font-size="13" font-weight="bold" lengthAdjust="spacing" textLength="14" x="129" y="1118.9619">27</text><text fill="#000000" font-family="sans-serif" font-size="13" lengthAdjust="spacing" textLength="236" x="147" y="1118.9619">shows all data and requests confirmation</text><polygon fill="#181818" points="392,1151.5156,402,1155.5156,392,1159.5156,396,1155.5156" style="stroke:#181818;stroke-width:1.0;"/><line style="stroke:#181818;stroke-width:1.0;" x1="112" x2="398" y1="1155.5156" y2="1155.5156"/><text fill="#000000" font-family="sans-serif" font-size="13" font-weight="bold" lengthAdjust="spacing" textLength="14" x="119" y="1150.2529">28</text><text fill="#000000" font-family="sans-serif" font-size="13" lengthAdjust="spacing" textLength="78" x="137" y="1150.2529">confirms data</text><polygon fill="#181818" points="722,1182.8066,732,1186.8066,722,1190.8066,726,1186.8066" style="stroke:#181818;stroke-width:1.0;"/><line style="stroke:#181818;stroke-width:1.0;stroke-dasharray:2.0,2.0;" x1="414" x2="728" y1="1186.8066" y2="1186.8066"/><text fill="#000000" font-family="sans-serif" font-size="13" font-weight="bold" lengthAdjust="spacing" textLength="14" x="421" y="1181.5439">29</text><text fill="#000000" font-family="sans-serif" font-size="13" lengthAdjust="spacing" textLength="283" x="439" y="1181.5439">saveNewGreenSpace(name, address, area, type)</text><polygon fill="#181818" points="1247,1214.0977,1257,1218.0977,1247,1222.0977,1251,1218.0977" style="stroke:#181818;stroke-width:1.0;"/><line style="stroke:#181818;stroke-width:1.0;" x1="744" x2="1253" y1="1218.0977" y2="1218.0977"/><text fill="#000000" font-family="sans-serif" font-size="13" font-weight="bold" lengthAdjust="spacing" textLength="14" x="751" y="1212.835">30</text><text fill="#000000" font-family="sans-serif" font-size="13" lengthAdjust="spacing" textLength="268" x="769" y="1212.835">createGreenSpace(name, address, area, type)</text><polygon fill="#181818" points="755,1245.3887,745,1249.3887,755,1253.3887,751,1249.3887" style="stroke:#181818;stroke-width:1.0;"/><line style="stroke:#181818;stroke-width:1.0;stroke-dasharray:2.0,2.0;" x1="749" x2="1263" y1="1249.3887" y2="1249.3887"/><text fill="#000000" font-family="sans-serif" font-size="13" font-weight="bold" lengthAdjust="spacing" textLength="14" x="761" y="1244.126">31</text><text fill="#000000" font-family="sans-serif" font-size="13" lengthAdjust="spacing" textLength="69" x="779" y="1244.126">greenSpace</text><polygon fill="#181818" points="860.5,1276.6797,870.5,1280.6797,860.5,1284.6797,864.5,1280.6797" style="stroke:#181818;stroke-width:1.0;"/><line style="stroke:#181818;stroke-width:1.0;" x1="744" x2="866.5" y1="1280.6797" y2="1280.6797"/><text fill="#000000" font-family="sans-serif" font-size="13" font-weight="bold" lengthAdjust="spacing" textLength="14" x="751" y="1275.417">32</text><text fill="#000000" font-family="sans-serif" font-size="13" lengthAdjust="spacing" textLength="75" x="769" y="1275.417">getInstance()</text><polygon fill="#181818" points="755,1307.9707,745,1311.9707,755,1315.9707,751,1311.9707" style="stroke:#181818;stroke-width:1.0;"/><line style="stroke:#181818;stroke-width:1.0;stroke-dasharray:2.0,2.0;" x1="749" x2="876.5" y1="1311.9707" y2="1311.9707"/><text fill="#000000" font-family="sans-serif" font-size="13" font-weight="bold" lengthAdjust="spacing" textLength="14" x="761" y="1306.708">33</text><text fill="#000000" font-family="sans-serif" font-size="13" lengthAdjust="spacing" textLength="67" x="779" y="1306.708">repositories</text><polygon fill="#181818" points="965.5,1339.2617,975.5,1343.2617,965.5,1347.2617,969.5,1343.2617" style="stroke:#181818;stroke-width:1.0;"/><line style="stroke:#181818;stroke-width:1.0;" x1="744" x2="971.5" y1="1343.2617" y2="1343.2617"/><text fill="#000000" font-family="sans-serif" font-size="13" font-weight="bold" lengthAdjust="spacing" textLength="14" x="751" y="1337.999">34</text><text fill="#000000" font-family="sans-serif" font-size="13" lengthAdjust="spacing" textLength="160" x="769" y="1337.999">getGreenSpaceRepository()</text><polygon fill="#181818" points="755,1370.5527,745,1374.5527,755,1378.5527,751,1374.5527" style="stroke:#181818;stroke-width:1.0;"/><line style="stroke:#181818;stroke-width:1.0;stroke-dasharray:2.0,2.0;" x1="749" x2="981.5" y1="1374.5527" y2="1374.5527"/><text fill="#000000" font-family="sans-serif" font-size="13" font-weight="bold" lengthAdjust="spacing" textLength="14" x="761" y="1369.29">35</text><text fill="#000000" font-family="sans-serif" font-size="13" lengthAdjust="spacing" textLength="131" x="779" y="1369.29">greenSpaceRepository</text><polygon fill="#181818" points="1105,1401.8438,1115,1405.8438,1105,1409.8438,1109,1405.8438" style="stroke:#181818;stroke-width:1.0;"/><line style="stroke:#181818;stroke-width:1.0;" x1="744" x2="1111" y1="1405.8438" y2="1405.8438"/><text fill="#000000" font-family="sans-serif" font-size="13" font-weight="bold" lengthAdjust="spacing" textLength="14" x="751" y="1400.5811">36</text><text fill="#000000" font-family="sans-serif" font-size="13" lengthAdjust="spacing" textLength="178" x="769" y="1400.5811">storeGreenSpace(greenSpace)</text><polygon fill="#181818" points="755,1433.1348,745,1437.1348,755,1441.1348,751,1437.1348" style="stroke:#181818;stroke-width:1.0;"/><line style="stroke:#181818;stroke-width:1.0;stroke-dasharray:2.0,2.0;" x1="749" x2="1121" y1="1437.1348" y2="1437.1348"/><text fill="#000000" font-family="sans-serif" font-size="13" font-weight="bold" lengthAdjust="spacing" textLength="14" x="761" y="1431.8721">37</text><text fill="#000000" font-family="sans-serif" font-size="13" lengthAdjust="spacing" textLength="49" x="779" y="1431.8721">success</text><polygon fill="#181818" points="425,1464.4258,415,1468.4258,425,1472.4258,421,1468.4258" style="stroke:#181818;stroke-width:1.0;"/><line style="stroke:#181818;stroke-width:1.0;stroke-dasharray:2.0,2.0;" x1="419" x2="738" y1="1468.4258" y2="1468.4258"/><text fill="#000000" font-family="sans-serif" font-size="13" font-weight="bold" lengthAdjust="spacing" textLength="14" x="431" y="1463.1631">38</text><text fill="#000000" font-family="sans-serif" font-size="13" lengthAdjust="spacing" textLength="49" x="449" y="1463.1631">success</text><polygon fill="#181818" points="123,1495.7168,113,1499.7168,123,1503.7168,119,1499.7168" style="stroke:#181818;stroke-width:1.0;"/><line style="stroke:#181818;stroke-width:1.0;stroke-dasharray:2.0,2.0;" x1="117" x2="408" y1="1499.7168" y2="1499.7168"/><text fill="#000000" font-family="sans-serif" font-size="13" font-weight="bold" lengthAdjust="spacing" textLength="14" x="129" y="1494.4541">39</text><text fill="#000000" font-family="sans-serif" font-size="13" lengthAdjust="spacing" textLength="250" x="147" y="1494.4541">notifies successful green space registration</text><!--SRC=[jLVBRjim4BppAxO-9K0C13qQI86Y1Om0IL54oIqNLbhBH6ZI9Qcu_likATKYzN2TnF8XaUsTsT4-HhHz4MhB3T_0HYkThutU83XJ8RE7RxOyV-4bPcul4GpcZgjInW5spGkz4wg45PSM6NF2KMYsjmutaE7l2bMEy5tmqeVFuIcx_dpD6A-SLjNc5ngwpfqsC5iQH0KPfKIuvuhI6dXM5yli_d86tCBouPvHKYToiUNAmMpnWAMWF2OW0_3fDeG-tNOYsuXlMZcZfKGJ8jktFUwjjeA42RGXyl31FXE-2AG_XPW8iNXMFOAVTryVKqHvKDMIFwj8RFjnHy8OJuAkgvRv-efNxZ1KaD4Vc7-X4i62EahziSw2qtHT5nCuADn1u0JhULe2gglKUWkxjQ0c5znn41QKTl3AfIWOaSw9swU8o2CgK9o6ZAi2U54Oj9OL6BF7ujn-Y_y1nr2VsoCNjHRwr0Q535NHVDasc-XBT6sfBZprrJ_UovOucey8JLm3ur2JtYfBMqAKbmnEV1so3StOoIp-DQHgdjovxqixc2UJHstwaCYqY7ubkgrewTzJmR1aRofPq33lJSU0dlSKA-WPcvnJXp2Iq5xs-jfAPeFTIcGqgpACYOQUIvUiuASRK9MKeHJ9jfC9Y1LD5BWrJo5S6kJ57l0F-KizSKYFYYJc9g8zwZ2zl8CkmoaZwrYBH_RjfO5ZKNj5CaiDQDHOmfse8WfAsX6tzf6IDUCyLEN-PfpJNivhCPFQp3cjPaAx-Q3bJ6GxGzPpRB9EcD6EYYFkuzVfZXQSZRQmfwNPgZ5aPp-IhUVs9HnQB4ewb0QABdnWvUjesuOFhVeXXrthdINtahKD-NF7mMnohLR2RBWJD97znCTbD61xt78wzRNy5N_WRknfSHKyxohSsbjyPfcH7a8wV0SpdItzhMMzEOuUAsbjQiIqLdTsjvlQyCxiUTFQtiUTRphp6_Q_SVkpz2-U-rP0gCc8XnqnGLlbkVzTSim2Umu8OxXH0unEMmroLSda05J_c3ErFwLkH2UMlm00]--></g></svg>