<?xml version="1.0" encoding="us-ascii" standalone="no"?><svg xmlns="http://www.w3.org/2000/svg" xmlns:xlink="http://www.w3.org/1999/xlink" contentStyleType="text/css" height="1351.2px" preserveAspectRatio="none" style="width:1116px;height:1351px;background:#FFFFFF;" version="1.1" viewBox="0 0 1116 1351" width="1116.8px" zoomAndPan="magnify"><defs/><g><text fill="#000000" font-family="sans-serif" font-size="11.2" font-weight="bold" lengthAdjust="spacing" textLength="193.6" x="460.8" y="24.0859">System Sequence Diagram - US020</text><rect fill="#FFFFFF" height="1141.1484" style="stroke:#181818;stroke-width:0.8000000000000002;" width="8" x="81.6" y="121.4906"/><rect fill="#FFFFFF" height="46.0656" style="stroke:#181818;stroke-width:0.8000000000000002;" width="8" x="404.8" y="140.1234"/><rect fill="#FFFFFF" height="396.7969" style="stroke:#181818;stroke-width:0.8000000000000002;" width="8" x="404.8" y="211.2219"/><rect fill="#FFFFFF" height="266.3281" style="stroke:#181818;stroke-width:0.8000000000000002;" width="8" x="404.8" y="633.0516"/><rect fill="#FFFFFF" height="25.0328" style="stroke:#181818;stroke-width:0.8000000000000002;" width="8" x="404.8" y="924.4125"/><rect fill="#FFFFFF" height="275.3609" style="stroke:#181818;stroke-width:0.8000000000000002;" width="8" x="404.8" y="974.4781"/><rect fill="#FFFFFF" height="175.2297" style="stroke:#181818;stroke-width:0.8000000000000002;" width="8" x="584.8" y="327.3531"/><rect fill="#FFFFFF" height="175.2297" style="stroke:#181818;stroke-width:0.8000000000000002;" width="8" x="584.8" y="699.1172"/><rect fill="#FFFFFF" height="175.2297" style="stroke:#181818;stroke-width:0.8000000000000002;" width="8" x="584.8" y="1049.5766"/><rect fill="#FFFFFF" height="25.0328" style="stroke:#181818;stroke-width:0.8000000000000002;" width="8" x="695.6" y="352.3859"/><rect fill="#FFFFFF" height="25.0328" style="stroke:#181818;stroke-width:0.8000000000000002;" width="8" x="695.6" y="724.15"/><rect fill="#FFFFFF" height="25.0328" style="stroke:#181818;stroke-width:0.8000000000000002;" width="8" x="695.6" y="1074.6094"/><rect fill="#FFFFFF" height="25.0328" style="stroke:#181818;stroke-width:0.8000000000000002;" width="8" x="779.6" y="402.4516"/><rect fill="#FFFFFF" height="25.0328" style="stroke:#181818;stroke-width:0.8000000000000002;" width="8" x="779.6" y="774.2156"/><rect fill="#FFFFFF" height="25.0328" style="stroke:#181818;stroke-width:0.8000000000000002;" width="8" x="779.6" y="1124.675"/><rect fill="#FFFFFF" height="25.0328" style="stroke:#181818;stroke-width:0.8000000000000002;" width="8" x="891.2" y="452.5172"/><rect fill="#FFFFFF" height="25.0328" style="stroke:#181818;stroke-width:0.8000000000000002;" width="8" x="891.2" y="824.2813"/><rect fill="#FFFFFF" height="25.0328" style="stroke:#181818;stroke-width:0.8000000000000002;" width="8" x="891.2" y="1174.7406"/><rect fill="#FFFFFF" height="25.0328" style="stroke:#181818;stroke-width:0.8000000000000002;" width="8" x="1004.8" y="999.5109"/><rect fill="#FFFFFF" height="25.0328" style="stroke:#181818;stroke-width:0.8000000000000002;" width="8" x="1080" y="277.2875"/><rect fill="none" height="100.9313" style="stroke:#000000;stroke-width:1.2000000000000002;" width="484" x="16" y="152.1234"/><rect fill="none" height="741.6563" style="stroke:#000000;stroke-width:1.2000000000000002;" width="1048" x="8" y="514.5828"/><rect fill="none" height="100.9313" style="stroke:#000000;stroke-width:1.2000000000000002;" width="489.6" x="16" y="573.9531"/><line style="stroke:#181818;stroke-width:0.4000000000000001;stroke-dasharray:5.0,5.0;" x1="85.6" x2="85.6" y1="113.4906" y2="1269.8391"/><line style="stroke:#181818;stroke-width:0.4000000000000001;stroke-dasharray:5.0,5.0;" x1="408.4" x2="408.4" y1="113.4906" y2="1269.8391"/><line style="stroke:#181818;stroke-width:0.4000000000000001;stroke-dasharray:5.0,5.0;" x1="588.8" x2="588.8" y1="113.4906" y2="1269.8391"/><line style="stroke:#181818;stroke-width:0.4000000000000001;stroke-dasharray:5.0,5.0;" x1="699.2" x2="699.2" y1="113.4906" y2="1269.8391"/><line style="stroke:#181818;stroke-width:0.4000000000000001;stroke-dasharray:5.0,5.0;" x1="783.2" x2="783.2" y1="113.4906" y2="1269.8391"/><line style="stroke:#181818;stroke-width:0.4000000000000001;stroke-dasharray:5.0,5.0;" x1="895.2" x2="895.2" y1="113.4906" y2="1269.8391"/><line style="stroke:#181818;stroke-width:0.4000000000000001;stroke-dasharray:5.0,5.0;" x1="1008.8" x2="1008.8" y1="113.4906" y2="1269.8391"/><line style="stroke:#181818;stroke-width:0.4000000000000001;stroke-dasharray:5.0,5.0;" x1="1084" x2="1084" y1="113.4906" y2="1269.8391"/><text fill="#000000" font-family="sans-serif" font-size="11.2" lengthAdjust="spacing" textLength="115.2" x="24" y="95.7828">Green Space Manager</text><text fill="#000000" font-family="sans-serif" font-size="11.2" lengthAdjust="spacing" textLength="32.8" x="66.8" y="110.6797">(GSM)</text><ellipse cx="85.6" cy="42.4969" fill="#E3E3E3" rx="6.4" ry="6.4" style="stroke:#181818;stroke-width:0.4000000000000001;"/><path d="M85.6,48.8969 L85.6,70.4969 M75.2,55.2969 L96,55.2969 M85.6,70.4969 L75.2,82.4969 M85.6,70.4969 L96,82.4969 " fill="none" style="stroke:#181818;stroke-width:0.4000000000000001;"/><text fill="#000000" font-family="sans-serif" font-size="11.2" lengthAdjust="spacing" textLength="115.2" x="24" y="1281.125">Green Space Manager</text><text fill="#000000" font-family="sans-serif" font-size="11.2" lengthAdjust="spacing" textLength="32.8" x="66.8" y="1296.0219">(GSM)</text><ellipse cx="85.6" cy="1305.6328" fill="#E3E3E3" rx="6.4" ry="6.4" style="stroke:#181818;stroke-width:0.4000000000000001;"/><path d="M85.6,1312.0328 L85.6,1333.6328 M75.2,1318.4328 L96,1318.4328 M85.6,1333.6328 L75.2,1345.6328 M85.6,1333.6328 L96,1345.6328 " fill="none" style="stroke:#181818;stroke-width:0.4000000000000001;"/><rect fill="#E3E3E3" height="26.0969" rx="2" ry="2" style="stroke:#181818;stroke-width:0.4000000000000001;" width="130.4" x="343.6" y="86.5938"/><text fill="#000000" font-family="sans-serif" font-size="11.2" lengthAdjust="spacing" textLength="119.2" x="349.2" y="104.2797">:RegisterGreenSpaceUI</text><rect fill="#E3E3E3" height="26.0969" rx="2" ry="2" style="stroke:#181818;stroke-width:0.4000000000000001;" width="130.4" x="343.6" y="1269.0391"/><text fill="#000000" font-family="sans-serif" font-size="11.2" lengthAdjust="spacing" textLength="119.2" x="349.2" y="1286.725">:RegisterGreenSpaceUI</text><rect fill="#E3E3E3" height="26.0969" rx="2" ry="2" style="stroke:#181818;stroke-width:0.4000000000000001;" width="128" x="524.8" y="86.5938"/><text fill="#000000" font-family="sans-serif" font-size="11.2" lengthAdjust="spacing" textLength="116.8" x="530.4" y="104.2797">:GreenSpaceController</text><rect fill="#E3E3E3" height="26.0969" rx="2" ry="2" style="stroke:#181818;stroke-width:0.4000000000000001;" width="128" x="524.8" y="1269.0391"/><text fill="#000000" font-family="sans-serif" font-size="11.2" lengthAdjust="spacing" textLength="116.8" x="530.4" y="1286.725">:GreenSpaceController</text><rect fill="#E3E3E3" height="26.0969" rx="2" ry="2" style="stroke:#181818;stroke-width:0.4000000000000001;" width="77.6" x="660.8" y="86.5938"/><text fill="#000000" font-family="sans-serif" font-size="11.2" lengthAdjust="spacing" textLength="66.4" x="666.4" y="104.2797">:Repositories</text><rect fill="#E3E3E3" height="26.0969" rx="2" ry="2" style="stroke:#181818;stroke-width:0.4000000000000001;" width="77.6" x="660.8" y="1269.0391"/><text fill="#000000" font-family="sans-serif" font-size="11.2" lengthAdjust="spacing" textLength="66.4" x="666.4" y="1286.725">:Repositories</text><rect fill="#E3E3E3" height="40.9938" rx="2" ry="2" style="stroke:#181818;stroke-width:0.4000000000000001;" width="74.4" x="746.4" y="71.6969"/><text fill="#000000" font-family="sans-serif" font-size="11.2" lengthAdjust="spacing" textLength="62.4" x="752.4" y="89.3828">repositories:</text><text fill="#000000" font-family="sans-serif" font-size="11.2" lengthAdjust="spacing" textLength="63.2" x="752" y="104.2797">Repositories</text><rect fill="#E3E3E3" height="40.9938" rx="2" ry="2" style="stroke:#181818;stroke-width:0.4000000000000001;" width="74.4" x="746.4" y="1269.0391"/><text fill="#000000" font-family="sans-serif" font-size="11.2" lengthAdjust="spacing" textLength="62.4" x="752.4" y="1286.725">repositories:</text><text fill="#000000" font-family="sans-serif" font-size="11.2" lengthAdjust="spacing" textLength="63.2" x="752" y="1301.6219">Repositories</text><rect fill="#E3E3E3" height="40.9938" rx="2" ry="2" style="stroke:#181818;stroke-width:0.4000000000000001;" width="132.8" x="828.8" y="71.6969"/><text fill="#000000" font-family="sans-serif" font-size="11.2" lengthAdjust="spacing" textLength="116" x="837.2" y="89.3828">greenSpaceRepository</text><text fill="#000000" font-family="sans-serif" font-size="11.2" lengthAdjust="spacing" textLength="121.6" x="834.4" y="104.2797">:GreenSpaceRepository</text><rect fill="#E3E3E3" height="40.9938" rx="2" ry="2" style="stroke:#181818;stroke-width:0.4000000000000001;" width="132.8" x="828.8" y="1269.0391"/><text fill="#000000" font-family="sans-serif" font-size="11.2" lengthAdjust="spacing" textLength="116" x="837.2" y="1286.725">greenSpaceRepository</text><text fill="#000000" font-family="sans-serif" font-size="11.2" lengthAdjust="spacing" textLength="121.6" x="834.4" y="1301.6219">:GreenSpaceRepository</text><rect fill="#E3E3E3" height="40.9938" rx="2" ry="2" style="stroke:#181818;stroke-width:0.4000000000000001;" width="78.4" x="969.6" y="71.6969"/><text fill="#000000" font-family="sans-serif" font-size="11.2" lengthAdjust="spacing" textLength="61.6" x="978" y="89.3828">greenSpace</text><text fill="#000000" font-family="sans-serif" font-size="11.2" lengthAdjust="spacing" textLength="67.2" x="975.2" y="104.2797">:GreenSpace</text><rect fill="#E3E3E3" height="40.9938" rx="2" ry="2" style="stroke:#181818;stroke-width:0.4000000000000001;" width="78.4" x="969.6" y="1269.0391"/><text fill="#000000" font-family="sans-serif" font-size="11.2" lengthAdjust="spacing" textLength="61.6" x="978" y="1286.725">greenSpace</text><text fill="#000000" font-family="sans-serif" font-size="11.2" lengthAdjust="spacing" textLength="67.2" x="975.2" y="1301.6219">:GreenSpace</text><rect fill="#E3E3E3" height="40.9938" rx="2" ry="2" style="stroke:#181818;stroke-width:0.4000000000000001;" width="56" x="1056" y="71.6969"/><text fill="#000000" font-family="sans-serif" font-size="11.2" lengthAdjust="spacing" textLength="40.8" x="1063.6" y="89.3828">address</text><text fill="#000000" font-family="sans-serif" font-size="11.2" lengthAdjust="spacing" textLength="44.8" x="1061.6" y="104.2797">:Address</text><rect fill="#E3E3E3" height="40.9938" rx="2" ry="2" style="stroke:#181818;stroke-width:0.4000000000000001;" width="56" x="1056" y="1269.0391"/><text fill="#000000" font-family="sans-serif" font-size="11.2" lengthAdjust="spacing" textLength="40.8" x="1063.6" y="1286.725">address</text><text fill="#000000" font-family="sans-serif" font-size="11.2" lengthAdjust="spacing" textLength="44.8" x="1061.6" y="1301.6219">:Address</text><rect fill="#FFFFFF" height="1141.1484" style="stroke:#181818;stroke-width:0.8000000000000002;" width="8" x="81.6" y="121.4906"/><rect fill="#FFFFFF" height="46.0656" style="stroke:#181818;stroke-width:0.8000000000000002;" width="8" x="404.8" y="140.1234"/><rect fill="#FFFFFF" height="396.7969" style="stroke:#181818;stroke-width:0.8000000000000002;" width="8" x="404.8" y="211.2219"/><rect fill="#FFFFFF" height="266.3281" style="stroke:#181818;stroke-width:0.8000000000000002;" width="8" x="404.8" y="633.0516"/><rect fill="#FFFFFF" height="25.0328" style="stroke:#181818;stroke-width:0.8000000000000002;" width="8" x="404.8" y="924.4125"/><rect fill="#FFFFFF" height="275.3609" style="stroke:#181818;stroke-width:0.8000000000000002;" width="8" x="404.8" y="974.4781"/><rect fill="#FFFFFF" height="175.2297" style="stroke:#181818;stroke-width:0.8000000000000002;" width="8" x="584.8" y="327.3531"/><rect fill="#FFFFFF" height="175.2297" style="stroke:#181818;stroke-width:0.8000000000000002;" width="8" x="584.8" y="699.1172"/><rect fill="#FFFFFF" height="175.2297" style="stroke:#181818;stroke-width:0.8000000000000002;" width="8" x="584.8" y="1049.5766"/><rect fill="#FFFFFF" height="25.0328" style="stroke:#181818;stroke-width:0.8000000000000002;" width="8" x="695.6" y="352.3859"/><rect fill="#FFFFFF" height="25.0328" style="stroke:#181818;stroke-width:0.8000000000000002;" width="8" x="695.6" y="724.15"/><rect fill="#FFFFFF" height="25.0328" style="stroke:#181818;stroke-width:0.8000000000000002;" width="8" x="695.6" y="1074.6094"/><rect fill="#FFFFFF" height="25.0328" style="stroke:#181818;stroke-width:0.8000000000000002;" width="8" x="779.6" y="402.4516"/><rect fill="#FFFFFF" height="25.0328" style="stroke:#181818;stroke-width:0.8000000000000002;" width="8" x="779.6" y="774.2156"/><rect fill="#FFFFFF" height="25.0328" style="stroke:#181818;stroke-width:0.8000000000000002;" width="8" x="779.6" y="1124.675"/><rect fill="#FFFFFF" height="25.0328" style="stroke:#181818;stroke-width:0.8000000000000002;" width="8" x="891.2" y="452.5172"/><rect fill="#FFFFFF" height="25.0328" style="stroke:#181818;stroke-width:0.8000000000000002;" width="8" x="891.2" y="824.2813"/><rect fill="#FFFFFF" height="25.0328" style="stroke:#181818;stroke-width:0.8000000000000002;" width="8" x="891.2" y="1174.7406"/><rect fill="#FFFFFF" height="25.0328" style="stroke:#181818;stroke-width:0.8000000000000002;" width="8" x="1004.8" y="999.5109"/><rect fill="#FFFFFF" height="25.0328" style="stroke:#181818;stroke-width:0.8000000000000002;" width="8" x="1080" y="277.2875"/><polygon fill="#181818" points="395.2,136.9234,403.2,140.1234,395.2,143.3234,398.4,140.1234" style="stroke:#181818;stroke-width:0.8000000000000002;"/><line style="stroke:#181818;stroke-width:0.8000000000000002;" x1="89.6" x2="400" y1="140.1234" y2="140.1234"/><text fill="#000000" font-family="sans-serif" font-size="10.4" font-weight="bold" lengthAdjust="spacing" textLength="5.6" x="95.2" y="135.9133">1</text><text fill="#000000" font-family="sans-serif" font-size="10.4" lengthAdjust="spacing" textLength="180" x="104" y="135.9133">requests to register a new green space</text><path d="M16,152.1234 L74.4,152.1234 L74.4,159.5563 L66.4,167.5563 L16,167.5563 L16,152.1234 " fill="#EEEEEE" style="stroke:#000000;stroke-width:1.2000000000000002;"/><rect fill="none" height="100.9313" style="stroke:#000000;stroke-width:1.2000000000000002;" width="484" x="16" y="152.1234"/><text fill="#000000" font-family="sans-serif" font-size="10.4" font-weight="bold" lengthAdjust="spacing" textLength="22.4" x="28" y="164.1461">loop</text><text fill="#000000" font-family="sans-serif" font-size="8.8" font-weight="bold" lengthAdjust="spacing" textLength="100.8" x="86.4" y="163.2195">[while data is not valid]</text><polygon fill="#181818" points="98.4,182.9891,90.4,186.1891,98.4,189.3891,95.2,186.1891" style="stroke:#181818;stroke-width:0.8000000000000002;"/><line style="stroke:#181818;stroke-width:0.8000000000000002;stroke-dasharray:2.0,2.0;" x1="93.6" x2="408" y1="186.1891" y2="186.1891"/><text fill="#000000" font-family="sans-serif" font-size="10.4" font-weight="bold" lengthAdjust="spacing" textLength="5.6" x="103.2" y="181.9789">2</text><text fill="#000000" font-family="sans-serif" font-size="10.4" lengthAdjust="spacing" textLength="287.2" x="112" y="181.9789">requests green space name, city, street address and zip code</text><polygon fill="#181818" points="395.2,208.0219,403.2,211.2219,395.2,214.4219,398.4,211.2219" style="stroke:#181818;stroke-width:0.8000000000000002;"/><line style="stroke:#181818;stroke-width:0.8000000000000002;" x1="89.6" x2="400" y1="211.2219" y2="211.2219"/><text fill="#000000" font-family="sans-serif" font-size="10.4" font-weight="bold" lengthAdjust="spacing" textLength="5.6" x="95.2" y="207.0117">3</text><text fill="#000000" font-family="sans-serif" font-size="10.4" lengthAdjust="spacing" textLength="272.8" x="104" y="207.0117">types green space name, city, street address and zip code</text><line style="stroke:#181818;stroke-width:0.8000000000000002;" x1="412.8" x2="446.4" y1="236.2547" y2="236.2547"/><line style="stroke:#181818;stroke-width:0.8000000000000002;" x1="446.4" x2="446.4" y1="236.2547" y2="246.6547"/><line style="stroke:#181818;stroke-width:0.8000000000000002;" x1="413.6" x2="446.4" y1="246.6547" y2="246.6547"/><polygon fill="#181818" points="421.6,243.4547,413.6,246.6547,421.6,249.8547,418.4,246.6547" style="stroke:#181818;stroke-width:0.8000000000000002;"/><text fill="#000000" font-family="sans-serif" font-size="10.4" font-weight="bold" lengthAdjust="spacing" textLength="5.6" x="418.4" y="232.0445">4</text><text fill="#000000" font-family="sans-serif" font-size="10.4" lengthAdjust="spacing" textLength="63.2" x="427.2" y="232.0445">validates data</text><polygon fill="#181818" points="1070.4,274.0875,1078.4,277.2875,1070.4,280.4875,1073.6,277.2875" style="stroke:#181818;stroke-width:0.8000000000000002;"/><line style="stroke:#181818;stroke-width:0.8000000000000002;" x1="412.8" x2="1075.2" y1="277.2875" y2="277.2875"/><text fill="#000000" font-family="sans-serif" font-size="10.4" font-weight="bold" lengthAdjust="spacing" textLength="5.6" x="418.4" y="273.0773">5</text><text fill="#000000" font-family="sans-serif" font-size="10.4" lengthAdjust="spacing" textLength="208.8" x="427.2" y="273.0773">createAddress(city, street address, zip code)</text><polygon fill="#181818" points="421.6,299.1203,413.6,302.3203,421.6,305.5203,418.4,302.3203" style="stroke:#181818;stroke-width:0.8000000000000002;"/><line style="stroke:#181818;stroke-width:0.8000000000000002;stroke-dasharray:2.0,2.0;" x1="416.8" x2="1083.2" y1="302.3203" y2="302.3203"/><text fill="#000000" font-family="sans-serif" font-size="10.4" font-weight="bold" lengthAdjust="spacing" textLength="5.6" x="426.4" y="298.1102">6</text><text fill="#000000" font-family="sans-serif" font-size="10.4" lengthAdjust="spacing" textLength="36.8" x="435.2" y="298.1102">address</text><polygon fill="#181818" points="575.2,324.1531,583.2,327.3531,575.2,330.5531,578.4,327.3531" style="stroke:#181818;stroke-width:0.8000000000000002;"/><line style="stroke:#181818;stroke-width:0.8000000000000002;" x1="412.8" x2="580" y1="327.3531" y2="327.3531"/><text fill="#000000" font-family="sans-serif" font-size="10.4" font-weight="bold" lengthAdjust="spacing" textLength="5.6" x="418.4" y="323.143">7</text><text fill="#000000" font-family="sans-serif" font-size="10.4" lengthAdjust="spacing" textLength="147.2" x="427.2" y="323.143">getGreenSpace(name, address)</text><polygon fill="#181818" points="686,349.1859,694,352.3859,686,355.5859,689.2,352.3859" style="stroke:#181818;stroke-width:0.8000000000000002;"/><line style="stroke:#181818;stroke-width:0.8000000000000002;" x1="592.8" x2="690.8" y1="352.3859" y2="352.3859"/><text fill="#000000" font-family="sans-serif" font-size="10.4" font-weight="bold" lengthAdjust="spacing" textLength="5.6" x="598.4" y="348.1758">8</text><text fill="#000000" font-family="sans-serif" font-size="10.4" lengthAdjust="spacing" textLength="60" x="607.2" y="348.1758">getInstance()</text><polygon fill="#181818" points="601.6,374.2188,593.6,377.4188,601.6,380.6188,598.4,377.4188" style="stroke:#181818;stroke-width:0.8000000000000002;"/><line style="stroke:#181818;stroke-width:0.8000000000000002;stroke-dasharray:2.0,2.0;" x1="596.8" x2="698.8" y1="377.4188" y2="377.4188"/><text fill="#000000" font-family="sans-serif" font-size="10.4" font-weight="bold" lengthAdjust="spacing" textLength="5.6" x="606.4" y="373.2086">9</text><text fill="#000000" font-family="sans-serif" font-size="10.4" lengthAdjust="spacing" textLength="53.6" x="615.2" y="373.2086">repositories</text><polygon fill="#181818" points="770,399.2516,778,402.4516,770,405.6516,773.2,402.4516" style="stroke:#181818;stroke-width:0.8000000000000002;"/><line style="stroke:#181818;stroke-width:0.8000000000000002;" x1="592.8" x2="774.8" y1="402.4516" y2="402.4516"/><text fill="#000000" font-family="sans-serif" font-size="10.4" font-weight="bold" lengthAdjust="spacing" textLength="11.2" x="598.4" y="398.2414">10</text><text fill="#000000" font-family="sans-serif" font-size="10.4" lengthAdjust="spacing" textLength="128" x="612.8" y="398.2414">getGreenSpaceRepository()</text><polygon fill="#181818" points="601.6,424.2844,593.6,427.4844,601.6,430.6844,598.4,427.4844" style="stroke:#181818;stroke-width:0.8000000000000002;"/><line style="stroke:#181818;stroke-width:0.8000000000000002;stroke-dasharray:2.0,2.0;" x1="596.8" x2="782.8" y1="427.4844" y2="427.4844"/><text fill="#000000" font-family="sans-serif" font-size="10.4" font-weight="bold" lengthAdjust="spacing" textLength="11.2" x="606.4" y="423.2742">11</text><text fill="#000000" font-family="sans-serif" font-size="10.4" lengthAdjust="spacing" textLength="104.8" x="620.8" y="423.2742">greenSpaceRepository</text><polygon fill="#181818" points="881.6,449.3172,889.6,452.5172,881.6,455.7172,884.8,452.5172" style="stroke:#181818;stroke-width:0.8000000000000002;"/><line style="stroke:#181818;stroke-width:0.8000000000000002;" x1="592.8" x2="886.4" y1="452.5172" y2="452.5172"/><text fill="#000000" font-family="sans-serif" font-size="10.4" font-weight="bold" lengthAdjust="spacing" textLength="11.2" x="598.4" y="448.307">12</text><text fill="#000000" font-family="sans-serif" font-size="10.4" lengthAdjust="spacing" textLength="147.2" x="612.8" y="448.307">getGreenSpace(name, address)</text><polygon fill="#181818" points="601.6,474.35,593.6,477.55,601.6,480.75,598.4,477.55" style="stroke:#181818;stroke-width:0.8000000000000002;"/><line style="stroke:#181818;stroke-width:0.8000000000000002;stroke-dasharray:2.0,2.0;" x1="596.8" x2="894.4" y1="477.55" y2="477.55"/><text fill="#000000" font-family="sans-serif" font-size="10.4" font-weight="bold" lengthAdjust="spacing" textLength="11.2" x="606.4" y="473.3398">13</text><text fill="#000000" font-family="sans-serif" font-size="10.4" lengthAdjust="spacing" textLength="55.2" x="620.8" y="473.3398">greenSpace</text><polygon fill="#181818" points="421.6,499.3828,413.6,502.5828,421.6,505.7828,418.4,502.5828" style="stroke:#181818;stroke-width:0.8000000000000002;"/><line style="stroke:#181818;stroke-width:0.8000000000000002;stroke-dasharray:2.0,2.0;" x1="416.8" x2="588" y1="502.5828" y2="502.5828"/><text fill="#000000" font-family="sans-serif" font-size="10.4" font-weight="bold" lengthAdjust="spacing" textLength="11.2" x="426.4" y="498.3727">14</text><text fill="#000000" font-family="sans-serif" font-size="10.4" lengthAdjust="spacing" textLength="55.2" x="440.8" y="498.3727">greenSpace</text><path d="M8,514.5828 L56.8,514.5828 L56.8,522.0156 L48.8,530.0156 L8,530.0156 L8,514.5828 " fill="#EEEEEE" style="stroke:#000000;stroke-width:1.2000000000000002;"/><rect fill="none" height="741.6563" style="stroke:#000000;stroke-width:1.2000000000000002;" width="1048" x="8" y="514.5828"/><text fill="#000000" font-family="sans-serif" font-size="10.4" font-weight="bold" lengthAdjust="spacing" textLength="12.8" x="20" y="526.6055">alt</text><text fill="#000000" font-family="sans-serif" font-size="8.8" font-weight="bold" lengthAdjust="spacing" textLength="89.6" x="68.8" y="525.6789">[green space != null]</text><polygon fill="#181818" points="98.4,545.4484,90.4,548.6484,98.4,551.8484,95.2,548.6484" style="stroke:#181818;stroke-width:0.8000000000000002;"/><line style="stroke:#181818;stroke-width:0.8000000000000002;stroke-dasharray:2.0,2.0;" x1="93.6" x2="404" y1="548.6484" y2="548.6484"/><text fill="#000000" font-family="sans-serif" font-size="10.4" font-weight="bold" lengthAdjust="spacing" textLength="11.2" x="103.2" y="544.4383">15</text><text fill="#000000" font-family="sans-serif" font-size="10.4" lengthAdjust="spacing" textLength="181.6" x="117.6" y="544.4383">notifies that green space already exists</text><line style="stroke:#000000;stroke-width:0.8000000000000002;stroke-dasharray:2.0,2.0;" x1="8" x2="1056" y1="555.8484" y2="555.8484"/><text fill="#000000" font-family="sans-serif" font-size="8.8" font-weight="bold" lengthAdjust="spacing" textLength="92" x="12" y="565.3445">[green space == null]</text><path d="M16,573.9531 L74.4,573.9531 L74.4,581.3859 L66.4,589.3859 L16,589.3859 L16,573.9531 " fill="#EEEEEE" style="stroke:#000000;stroke-width:1.2000000000000002;"/><rect fill="none" height="100.9313" style="stroke:#000000;stroke-width:1.2000000000000002;" width="489.6" x="16" y="573.9531"/><text fill="#000000" font-family="sans-serif" font-size="10.4" font-weight="bold" lengthAdjust="spacing" textLength="22.4" x="28" y="585.9758">loop</text><text fill="#000000" font-family="sans-serif" font-size="8.8" font-weight="bold" lengthAdjust="spacing" textLength="100.8" x="86.4" y="585.0492">[while data is not valid]</text><polygon fill="#181818" points="98.4,604.8188,90.4,608.0188,98.4,611.2188,95.2,608.0188" style="stroke:#181818;stroke-width:0.8000000000000002;"/><line style="stroke:#181818;stroke-width:0.8000000000000002;stroke-dasharray:2.0,2.0;" x1="93.6" x2="408" y1="608.0188" y2="608.0188"/><text fill="#000000" font-family="sans-serif" font-size="10.4" font-weight="bold" lengthAdjust="spacing" textLength="11.2" x="103.2" y="603.8086">16</text><text fill="#000000" font-family="sans-serif" font-size="10.4" lengthAdjust="spacing" textLength="123.2" x="117.6" y="603.8086">requests green space area</text><polygon fill="#181818" points="395.2,629.8516,403.2,633.0516,395.2,636.2516,398.4,633.0516" style="stroke:#181818;stroke-width:0.8000000000000002;"/><line style="stroke:#181818;stroke-width:0.8000000000000002;" x1="89.6" x2="400" y1="633.0516" y2="633.0516"/><text fill="#000000" font-family="sans-serif" font-size="10.4" font-weight="bold" lengthAdjust="spacing" textLength="11.2" x="95.2" y="628.8414">17</text><text fill="#000000" font-family="sans-serif" font-size="10.4" lengthAdjust="spacing" textLength="97.6" x="109.6" y="628.8414">types requested data</text><line style="stroke:#181818;stroke-width:0.8000000000000002;" x1="412.8" x2="446.4" y1="658.0844" y2="658.0844"/><line style="stroke:#181818;stroke-width:0.8000000000000002;" x1="446.4" x2="446.4" y1="658.0844" y2="668.4844"/><line style="stroke:#181818;stroke-width:0.8000000000000002;" x1="413.6" x2="446.4" y1="668.4844" y2="668.4844"/><polygon fill="#181818" points="421.6,665.2844,413.6,668.4844,421.6,671.6844,418.4,668.4844" style="stroke:#181818;stroke-width:0.8000000000000002;"/><text fill="#000000" font-family="sans-serif" font-size="10.4" font-weight="bold" lengthAdjust="spacing" textLength="11.2" x="418.4" y="653.8742">18</text><text fill="#000000" font-family="sans-serif" font-size="10.4" lengthAdjust="spacing" textLength="63.2" x="432.8" y="653.8742">validates data</text><polygon fill="#181818" points="575.2,695.9172,583.2,699.1172,575.2,702.3172,578.4,699.1172" style="stroke:#181818;stroke-width:0.8000000000000002;"/><line style="stroke:#181818;stroke-width:0.8000000000000002;" x1="412.8" x2="580" y1="699.1172" y2="699.1172"/><text fill="#000000" font-family="sans-serif" font-size="10.4" font-weight="bold" lengthAdjust="spacing" textLength="11.2" x="418.4" y="694.907">19</text><text fill="#000000" font-family="sans-serif" font-size="10.4" lengthAdjust="spacing" textLength="100.8" x="432.8" y="694.907">getGreenSpaceType()</text><polygon fill="#181818" points="686,720.95,694,724.15,686,727.35,689.2,724.15" style="stroke:#181818;stroke-width:0.8000000000000002;"/><line style="stroke:#181818;stroke-width:0.8000000000000002;" x1="592.8" x2="690.8" y1="724.15" y2="724.15"/><text fill="#000000" font-family="sans-serif" font-size="10.4" font-weight="bold" lengthAdjust="spacing" textLength="11.2" x="598.4" y="719.9398">20</text><text fill="#000000" font-family="sans-serif" font-size="10.4" lengthAdjust="spacing" textLength="60" x="612.8" y="719.9398">getInstance()</text><polygon fill="#181818" points="601.6,745.9828,593.6,749.1828,601.6,752.3828,598.4,749.1828" style="stroke:#181818;stroke-width:0.8000000000000002;"/><line style="stroke:#181818;stroke-width:0.8000000000000002;stroke-dasharray:2.0,2.0;" x1="596.8" x2="698.8" y1="749.1828" y2="749.1828"/><text fill="#000000" font-family="sans-serif" font-size="10.4" font-weight="bold" lengthAdjust="spacing" textLength="11.2" x="606.4" y="744.9727">21</text><text fill="#000000" font-family="sans-serif" font-size="10.4" lengthAdjust="spacing" textLength="53.6" x="620.8" y="744.9727">repositories</text><polygon fill="#181818" points="770,771.0156,778,774.2156,770,777.4156,773.2,774.2156" style="stroke:#181818;stroke-width:0.8000000000000002;"/><line style="stroke:#181818;stroke-width:0.8000000000000002;" x1="592.8" x2="774.8" y1="774.2156" y2="774.2156"/><text fill="#000000" font-family="sans-serif" font-size="10.4" font-weight="bold" lengthAdjust="spacing" textLength="11.2" x="598.4" y="770.0055">22</text><text fill="#000000" font-family="sans-serif" font-size="10.4" lengthAdjust="spacing" textLength="128" x="612.8" y="770.0055">getGreenSpaceRepository()</text><polygon fill="#181818" points="601.6,796.0484,593.6,799.2484,601.6,802.4484,598.4,799.2484" style="stroke:#181818;stroke-width:0.8000000000000002;"/><line style="stroke:#181818;stroke-width:0.8000000000000002;stroke-dasharray:2.0,2.0;" x1="596.8" x2="782.8" y1="799.2484" y2="799.2484"/><text fill="#000000" font-family="sans-serif" font-size="10.4" font-weight="bold" lengthAdjust="spacing" textLength="11.2" x="606.4" y="795.0383">23</text><text fill="#000000" font-family="sans-serif" font-size="10.4" lengthAdjust="spacing" textLength="104.8" x="620.8" y="795.0383">greenSpaceRepository</text><polygon fill="#181818" points="881.6,821.0813,889.6,824.2813,881.6,827.4813,884.8,824.2813" style="stroke:#181818;stroke-width:0.8000000000000002;"/><line style="stroke:#181818;stroke-width:0.8000000000000002;" x1="592.8" x2="886.4" y1="824.2813" y2="824.2813"/><text fill="#000000" font-family="sans-serif" font-size="10.4" font-weight="bold" lengthAdjust="spacing" textLength="11.2" x="598.4" y="820.0711">24</text><text fill="#000000" font-family="sans-serif" font-size="10.4" lengthAdjust="spacing" textLength="100.8" x="612.8" y="820.0711">getGreenSpaceType()</text><polygon fill="#181818" points="601.6,846.1141,593.6,849.3141,601.6,852.5141,598.4,849.3141" style="stroke:#181818;stroke-width:0.8000000000000002;"/><line style="stroke:#181818;stroke-width:0.8000000000000002;stroke-dasharray:2.0,2.0;" x1="596.8" x2="894.4" y1="849.3141" y2="849.3141"/><text fill="#000000" font-family="sans-serif" font-size="10.4" font-weight="bold" lengthAdjust="spacing" textLength="11.2" x="606.4" y="845.1039">25</text><text fill="#000000" font-family="sans-serif" font-size="10.4" lengthAdjust="spacing" textLength="36.8" x="620.8" y="845.1039">typeList</text><polygon fill="#181818" points="421.6,871.1469,413.6,874.3469,421.6,877.5469,418.4,874.3469" style="stroke:#181818;stroke-width:0.8000000000000002;"/><line style="stroke:#181818;stroke-width:0.8000000000000002;stroke-dasharray:2.0,2.0;" x1="416.8" x2="588" y1="874.3469" y2="874.3469"/><text fill="#000000" font-family="sans-serif" font-size="10.4" font-weight="bold" lengthAdjust="spacing" textLength="11.2" x="426.4" y="870.1367">26</text><text fill="#000000" font-family="sans-serif" font-size="10.4" lengthAdjust="spacing" textLength="36.8" x="440.8" y="870.1367">typeList</text><polygon fill="#181818" points="98.4,896.1797,90.4,899.3797,98.4,902.5797,95.2,899.3797" style="stroke:#181818;stroke-width:0.8000000000000002;"/><line style="stroke:#181818;stroke-width:0.8000000000000002;stroke-dasharray:2.0,2.0;" x1="93.6" x2="408" y1="899.3797" y2="899.3797"/><text fill="#000000" font-family="sans-serif" font-size="10.4" font-weight="bold" lengthAdjust="spacing" textLength="11.2" x="103.2" y="895.1695">27</text><text fill="#000000" font-family="sans-serif" font-size="10.4" lengthAdjust="spacing" textLength="88.8" x="117.6" y="895.1695">asks to select type</text><polygon fill="#181818" points="395.2,921.2125,403.2,924.4125,395.2,927.6125,398.4,924.4125" style="stroke:#181818;stroke-width:0.8000000000000002;"/><line style="stroke:#181818;stroke-width:0.8000000000000002;" x1="89.6" x2="400" y1="924.4125" y2="924.4125"/><text fill="#000000" font-family="sans-serif" font-size="10.4" font-weight="bold" lengthAdjust="spacing" textLength="11.2" x="95.2" y="920.2023">28</text><text fill="#000000" font-family="sans-serif" font-size="10.4" lengthAdjust="spacing" textLength="56.8" x="109.6" y="920.2023">selects type</text><polygon fill="#181818" points="98.4,946.2453,90.4,949.4453,98.4,952.6453,95.2,949.4453" style="stroke:#181818;stroke-width:0.8000000000000002;"/><line style="stroke:#181818;stroke-width:0.8000000000000002;stroke-dasharray:2.0,2.0;" x1="93.6" x2="408" y1="949.4453" y2="949.4453"/><text fill="#000000" font-family="sans-serif" font-size="10.4" font-weight="bold" lengthAdjust="spacing" textLength="11.2" x="103.2" y="945.2352">29</text><text fill="#000000" font-family="sans-serif" font-size="10.4" lengthAdjust="spacing" textLength="188.8" x="117.6" y="945.2352">shows all data and requests confirmation</text><polygon fill="#181818" points="395.2,971.2781,403.2,974.4781,395.2,977.6781,398.4,974.4781" style="stroke:#181818;stroke-width:0.8000000000000002;"/><line style="stroke:#181818;stroke-width:0.8000000000000002;" x1="89.6" x2="400" y1="974.4781" y2="974.4781"/><text fill="#000000" font-family="sans-serif" font-size="10.4" font-weight="bold" lengthAdjust="spacing" textLength="11.2" x="95.2" y="970.268">30</text><text fill="#000000" font-family="sans-serif" font-size="10.4" lengthAdjust="spacing" textLength="62.4" x="109.6" y="970.268">confirms data</text><polygon fill="#181818" points="995.2,996.3109,1003.2,999.5109,995.2,1002.7109,998.4,999.5109" style="stroke:#181818;stroke-width:0.8000000000000002;"/><line style="stroke:#181818;stroke-width:0.8000000000000002;" x1="412.8" x2="1000" y1="999.5109" y2="999.5109"/><text fill="#000000" font-family="sans-serif" font-size="10.4" font-weight="bold" lengthAdjust="spacing" textLength="11.2" x="418.4" y="995.3008">31</text><text fill="#000000" font-family="sans-serif" font-size="10.4" lengthAdjust="spacing" textLength="226.4" x="432.8" y="995.3008">saveNewGreenSpace(name, address, area, type)</text><polygon fill="#181818" points="421.6,1021.3438,413.6,1024.5438,421.6,1027.7438,418.4,1024.5438" style="stroke:#181818;stroke-width:0.8000000000000002;"/><line style="stroke:#181818;stroke-width:0.8000000000000002;stroke-dasharray:2.0,2.0;" x1="416.8" x2="1008" y1="1024.5438" y2="1024.5438"/><text fill="#000000" font-family="sans-serif" font-size="10.4" font-weight="bold" lengthAdjust="spacing" textLength="11.2" x="426.4" y="1020.3336">32</text><text fill="#000000" font-family="sans-serif" font-size="10.4" lengthAdjust="spacing" textLength="55.2" x="440.8" y="1020.3336">greenSpace</text><polygon fill="#181818" points="575.2,1046.3766,583.2,1049.5766,575.2,1052.7766,578.4,1049.5766" style="stroke:#181818;stroke-width:0.8000000000000002;"/><line style="stroke:#181818;stroke-width:0.8000000000000002;" x1="412.8" x2="580" y1="1049.5766" y2="1049.5766"/><text fill="#000000" font-family="sans-serif" font-size="10.4" font-weight="bold" lengthAdjust="spacing" textLength="11.2" x="418.4" y="1045.3664">33</text><text fill="#000000" font-family="sans-serif" font-size="10.4" lengthAdjust="spacing" textLength="142.4" x="432.8" y="1045.3664">storeGreenSpace(greenSpace)</text><polygon fill="#181818" points="686,1071.4094,694,1074.6094,686,1077.8094,689.2,1074.6094" style="stroke:#181818;stroke-width:0.8000000000000002;"/><line style="stroke:#181818;stroke-width:0.8000000000000002;" x1="592.8" x2="690.8" y1="1074.6094" y2="1074.6094"/><text fill="#000000" font-family="sans-serif" font-size="10.4" font-weight="bold" lengthAdjust="spacing" textLength="11.2" x="598.4" y="1070.3992">34</text><text fill="#000000" font-family="sans-serif" font-size="10.4" lengthAdjust="spacing" textLength="60" x="612.8" y="1070.3992">getInstance()</text><polygon fill="#181818" points="601.6,1096.4422,593.6,1099.6422,601.6,1102.8422,598.4,1099.6422" style="stroke:#181818;stroke-width:0.8000000000000002;"/><line style="stroke:#181818;stroke-width:0.8000000000000002;stroke-dasharray:2.0,2.0;" x1="596.8" x2="698.8" y1="1099.6422" y2="1099.6422"/><text fill="#000000" font-family="sans-serif" font-size="10.4" font-weight="bold" lengthAdjust="spacing" textLength="11.2" x="606.4" y="1095.432">35</text><text fill="#000000" font-family="sans-serif" font-size="10.4" lengthAdjust="spacing" textLength="53.6" x="620.8" y="1095.432">repositories</text><polygon fill="#181818" points="770,1121.475,778,1124.675,770,1127.875,773.2,1124.675" style="stroke:#181818;stroke-width:0.8000000000000002;"/><line style="stroke:#181818;stroke-width:0.8000000000000002;" x1="592.8" x2="774.8" y1="1124.675" y2="1124.675"/><text fill="#000000" font-family="sans-serif" font-size="10.4" font-weight="bold" lengthAdjust="spacing" textLength="11.2" x="598.4" y="1120.4648">36</text><text fill="#000000" font-family="sans-serif" font-size="10.4" lengthAdjust="spacing" textLength="128" x="612.8" y="1120.4648">getGreenSpaceRepository()</text><polygon fill="#181818" points="601.6,1146.5078,593.6,1149.7078,601.6,1152.9078,598.4,1149.7078" style="stroke:#181818;stroke-width:0.8000000000000002;"/><line style="stroke:#181818;stroke-width:0.8000000000000002;stroke-dasharray:2.0,2.0;" x1="596.8" x2="782.8" y1="1149.7078" y2="1149.7078"/><text fill="#000000" font-family="sans-serif" font-size="10.4" font-weight="bold" lengthAdjust="spacing" textLength="11.2" x="606.4" y="1145.4977">37</text><text fill="#000000" font-family="sans-serif" font-size="10.4" lengthAdjust="spacing" textLength="104.8" x="620.8" y="1145.4977">greenSpaceRepository</text><polygon fill="#181818" points="881.6,1171.5406,889.6,1174.7406,881.6,1177.9406,884.8,1174.7406" style="stroke:#181818;stroke-width:0.8000000000000002;"/><line style="stroke:#181818;stroke-width:0.8000000000000002;" x1="592.8" x2="886.4" y1="1174.7406" y2="1174.7406"/><text fill="#000000" font-family="sans-serif" font-size="10.4" font-weight="bold" lengthAdjust="spacing" textLength="11.2" x="598.4" y="1170.5305">38</text><text fill="#000000" font-family="sans-serif" font-size="10.4" lengthAdjust="spacing" textLength="142.4" x="612.8" y="1170.5305">storeGreenSpace(greenSpace)</text><polygon fill="#181818" points="601.6,1196.5734,593.6,1199.7734,601.6,1202.9734,598.4,1199.7734" style="stroke:#181818;stroke-width:0.8000000000000002;"/><line style="stroke:#181818;stroke-width:0.8000000000000002;stroke-dasharray:2.0,2.0;" x1="596.8" x2="894.4" y1="1199.7734" y2="1199.7734"/><text fill="#000000" font-family="sans-serif" font-size="10.4" font-weight="bold" lengthAdjust="spacing" textLength="11.2" x="606.4" y="1195.5633">39</text><text fill="#000000" font-family="sans-serif" font-size="10.4" lengthAdjust="spacing" textLength="39.2" x="620.8" y="1195.5633">success</text><polygon fill="#181818" points="421.6,1221.6063,413.6,1224.8063,421.6,1228.0063,418.4,1224.8063" style="stroke:#181818;stroke-width:0.8000000000000002;"/><line style="stroke:#181818;stroke-width:0.8000000000000002;stroke-dasharray:2.0,2.0;" x1="416.8" x2="588" y1="1224.8063" y2="1224.8063"/><text fill="#000000" font-family="sans-serif" font-size="10.4" font-weight="bold" lengthAdjust="spacing" textLength="11.2" x="426.4" y="1220.5961">40</text><text fill="#000000" font-family="sans-serif" font-size="10.4" lengthAdjust="spacing" textLength="39.2" x="440.8" y="1220.5961">success</text><polygon fill="#181818" points="98.4,1246.6391,90.4,1249.8391,98.4,1253.0391,95.2,1249.8391" style="stroke:#181818;stroke-width:0.8000000000000002;"/><line style="stroke:#181818;stroke-width:0.8000000000000002;stroke-dasharray:2.0,2.0;" x1="93.6" x2="408" y1="1249.8391" y2="1249.8391"/><text fill="#000000" font-family="sans-serif" font-size="10.4" font-weight="bold" lengthAdjust="spacing" textLength="11.2" x="103.2" y="1245.6289">41</text><text fill="#000000" font-family="sans-serif" font-size="10.4" lengthAdjust="spacing" textLength="200" x="117.6" y="1245.6289">notifies successful green space registration</text><!--SRC=[jLVBRjim4BphAxO-9O0D13qQI86W1Om0IL54oIqNLbhBH2XI9UcuxjTtIIaIgOVh9hOF1atjpWxtCQBD2vSLqwo4KacLRRGg4QpUOcBQ9nNBNbY1gTqB18sPPR8GeO7Pi5pjk2nWpOJ19B7SaccwDnPBIF7N5cM6y8spmfalu2cz-doL96nhbToMFr7JEhDAmsob4IMa51BXdaaAg-5PNgpI-yiPC0EhX_k4WbgUyOf92xFb0nQSucZlwHsVRhtfqstFihFuggJLIWZKthBxES2kbE54ZAFnbkt6FkKk2SG_Tj61n_9P3W1-tDqynXv5owe3VvO1sMwxHs4A9_AkivR6jYpFDHf3XZVrobirQrSA_iei-cGdz0MBBvHDM5BngPJ66h2ArdNUWO747VZmO5p83e1A89IgOBVXr0yvimou0Qail3B1yuH05uJjGWJW0HH8Lk8SCcxtSp2M7bXeo0EJEVpX5MGgnoJ7C6Z8sUuhV1zcYEYOEi1bpPnsZJzFWZ9l7ZRfev2PHZ9eVb-C1PgtKIwxC6_vVmDQl1sXSGeFUJFS2hgu9jHjBA50s_N4HPs11ZPW441qImSrqlVWGM-b8JaWoCi4ZloqqSQ6wMWKznbZjUWTF1p8ey63h7w8P9n4D_lGAqK7_vuCUZNvhvHv3d6E7AKHFkz9bkSprJd7Dc50eLiEwjfHJaQh5T5eHdVS9sXw9coa59-kGMw5yAc8j8eaZA-fey1kMEp210r_lWVyJUfOTnpIEp6okGvW3-hZ8EweHZAAcFGKq7aELR1nnxpMhgYN6gT9eVCdaNbWDAalZnIiQUUnB0yduvJoSbg9EQlCd59gpYWt7vISCydEcFGSwgmZUhJ7ue3wk76wem5F9aiuuD9CrPHdRpwYgMVcnL-v30gwVNk8lll8oDVMfZCV6_KsXjce7Tr_XAXbo5s4Mh79b5npNJBBgIE7WG_JQ9pDloHdbH89zehVSJVrafXxgPlx4_LAHpTS5pTjBqs1riU4QykXWXcg6WQHEm0VQg9GvzMnaqlPkTNin89sNatxkAoTJzd6nMrQsuxjtfZE0OKpsonpVp0EwTj0tc3ARrBTWgjKuxdUYkXsK__FrBNun593rv6_]--></g></svg>