<?xml version="1.0" encoding="UTF-8" standalone="no"?><svg xmlns="http://www.w3.org/2000/svg" xmlns:xlink="http://www.w3.org/1999/xlink" contentStyleType="text/css" height="922px" preserveAspectRatio="none" style="width:621px;height:922px;background:#FFFFFF;" version="1.1" viewBox="0 0 621 922" width="621px" zoomAndPan="magnify"><defs/><g><!--cluster usecases--><g id="cluster_usecases"><rect fill="none" height="700" rx="2.5" ry="2.5" style="stroke:#181818;stroke-width:1.0;" width="345" x="270" y="7"/><text fill="#000000" font-family="sans-serif" font-size="14" font-weight="bold" lengthAdjust="spacing" textLength="74" x="405.5" y="23.5332">Use Cases</text></g><g id="elem_UC1"><ellipse cx="442.2698" cy="62.954" fill="#F1F1F1" rx="85.2698" ry="19.454" style="stroke:#181818;stroke-width:0.5;"/><text fill="#000000" font-family="sans-serif" font-size="14" lengthAdjust="spacing" textLength="127" x="378.7698" y="66.6825">UC1 - Register skills</text></g><g id="elem_UC2"><ellipse cx="442.6926" cy="137.0385" fill="#F1F1F1" rx="85.6926" ry="19.5385" style="stroke:#181818;stroke-width:0.5;"/><text fill="#000000" font-family="sans-serif" font-size="14" lengthAdjust="spacing" textLength="128" x="378.6926" y="140.767">UC2 - Register a job</text></g><g id="elem_UC3"><ellipse cx="442.434" cy="215.9868" fill="#F1F1F1" rx="110.434" ry="24.4868" style="stroke:#181818;stroke-width:0.5;"/><text fill="#000000" font-family="sans-serif" font-size="14" lengthAdjust="spacing" textLength="184" x="350.434" y="219.7153">UC3 - Register a collaborator</text></g><g id="elem_UC4"><ellipse cx="442.3945" cy="301.1789" fill="#F1F1F1" rx="116.3945" ry="25.6789" style="stroke:#181818;stroke-width:0.5;"/><text fill="#000000" font-family="sans-serif" font-size="14" lengthAdjust="spacing" textLength="197" x="343.8945" y="304.9074">UC4 - Assign one or more skills</text></g><g id="elem_UC5"><ellipse cx="442.5545" cy="388.0109" fill="#F1F1F1" rx="120.5545" ry="26.5109" style="stroke:#181818;stroke-width:0.5;"/><text fill="#000000" font-family="sans-serif" font-size="14" lengthAdjust="spacing" textLength="206" x="339.5545" y="391.7394">UC5 - Generate a team proposal</text></g><g id="elem_UC6"><ellipse cx="442.511" cy="471.2022" fill="#F1F1F1" rx="96.511" ry="21.7022" style="stroke:#181818;stroke-width:0.5;"/><text fill="#000000" font-family="sans-serif" font-size="14" lengthAdjust="spacing" textLength="153" x="366.011" y="474.9307">UC6 - Register a vehicle</text></g><g id="elem_UC7"><ellipse cx="442.7255" cy="558.0451" fill="#F1F1F1" rx="140.7255" ry="30.5451" style="stroke:#181818;stroke-width:0.5;"/><text fill="#000000" font-family="sans-serif" font-size="14" lengthAdjust="spacing" textLength="249" x="318.2255" y="561.7736">UC7 - Register a vehicle’s check-up</text></g><g id="elem_UC8"><ellipse cx="442.4505" cy="657.1901" fill="#F1F1F1" rx="156.4505" ry="33.6901" style="stroke:#181818;stroke-width:0.5;"/><text fill="#000000" font-family="sans-serif" font-size="14" lengthAdjust="spacing" textLength="282" x="301.4505" y="660.9186">UC8 - List the vehicles needing the check-up</text></g><!--entity Collaborator--><g id="elem_Collaborator"><ellipse cx="116" cy="734.5" fill="#F1F1F1" rx="8" ry="8" style="stroke:#181818;stroke-width:0.5;"/><path d="M116,742.5 L116,769.5 M103,750.5 L129,750.5 M116,769.5 L103,784.5 M116,769.5 L129,784.5 " fill="none" style="stroke:#181818;stroke-width:0.5;"/><text fill="#000000" font-family="sans-serif" font-size="14" lengthAdjust="spacing" textLength="78" x="77" y="800.5332">Collaborator</text></g><!--entity HRM--><g id="elem_HRM"><ellipse cx="116" cy="185.5" fill="#F1F1F1" rx="8" ry="8" style="stroke:#181818;stroke-width:0.5;"/><path d="M116,193.5 L116,220.5 M103,201.5 L129,201.5 M116,220.5 L103,235.5 M116,220.5 L129,235.5 " fill="none" style="stroke:#181818;stroke-width:0.5;"/><text fill="#000000" font-family="sans-serif" font-size="14" lengthAdjust="spacing" textLength="220" x="6" y="251.5332">Human Resources Manager (HRM)</text></g><!--entity FM--><g id="elem_FM"><ellipse cx="116" cy="527.5" fill="#F1F1F1" rx="8" ry="8" style="stroke:#181818;stroke-width:0.5;"/><path d="M116,535.5 L116,562.5 M103,543.5 L129,543.5 M116,562.5 L103,577.5 M116,562.5 L129,577.5 " fill="none" style="stroke:#181818;stroke-width:0.5;"/><text fill="#000000" font-family="sans-serif" font-size="14" lengthAdjust="spacing" textLength="126" x="53" y="593.5332">Fleet Manager (FM)</text></g><!--entity GSM--><g id="elem_GSM"><ellipse cx="116" cy="847.5" fill="#F1F1F1" rx="8" ry="8" style="stroke:#181818;stroke-width:0.5;"/><path d="M116,855.5 L116,882.5 M103,863.5 L129,863.5 M116,882.5 L103,897.5 M116,882.5 L129,897.5 " fill="none" style="stroke:#181818;stroke-width:0.5;"/><text fill="#000000" font-family="sans-serif" font-size="14" lengthAdjust="spacing" textLength="196" x="18" y="913.5332">Green Spaces Manager (GSM)</text></g><!--entity GSU--><g id="elem_GSU"><ellipse cx="442.5" cy="734.5" fill="#F1F1F1" rx="8" ry="8" style="stroke:#181818;stroke-width:0.5;"/><path d="M442.5,742.5 L442.5,769.5 M429.5,750.5 L455.5,750.5 M442.5,769.5 L429.5,784.5 M442.5,769.5 L455.5,784.5 " fill="none" style="stroke:#181818;stroke-width:0.5;"/><text fill="#000000" font-family="sans-serif" font-size="14" lengthAdjust="spacing" textLength="167" x="359" y="800.5332">Green Spaces User (GSU)</text></g><!--link HRM to UC1--><g id="link_HRM_UC1"><path d="M155.35,176.84 C182.74,151.14 221.73,118.91 262,100 C292.07,85.88 327.47,77.12 358.86,71.7 " fill="none" id="HRM-to-UC1" style="stroke:#181818;stroke-width:1.0;"/><polygon fill="#181818" points="363.86,70.86,354.3226,68.403,358.9288,71.6866,355.6451,76.2929,363.86,70.86" style="stroke:#181818;stroke-width:1.0;"/></g><!--link HRM to UC2--><g id="link_HRM_UC2"><path d="M226.01,183.43 C238.12,180.11 250.3,176.9 262,174 C297.47,165.22 337.25,156.87 370.32,150.33 " fill="none" id="HRM-to-UC2" style="stroke:#181818;stroke-width:1.0;"/><polygon fill="#181818" points="375.57,149.3,365.964,147.1266,370.6655,150.2723,367.5197,154.9738,375.57,149.3" style="stroke:#181818;stroke-width:1.0;"/></g><!--link HRM to UC3--><g id="link_HRM_UC3"><path d="M226.41,216 C258.63,216 293.98,216 326.54,216 " fill="none" id="HRM-to-UC3" style="stroke:#181818;stroke-width:1.0;"/><polygon fill="#181818" points="331.74,216,322.74,212,326.74,216,322.74,220,331.74,216" style="stroke:#181818;stroke-width:1.0;"/></g><!--link HRM to UC4--><g id="link_HRM_UC4"><path d="M226.11,248.2 C238.2,251.59 250.34,254.92 262,258 C292.6,266.09 326.32,274.34 356.18,281.42 " fill="none" id="HRM-to-UC4" style="stroke:#181818;stroke-width:1.0;"/><polygon fill="#181818" points="361.33,282.64,353.4854,276.685,356.4629,281.4948,351.6531,284.4723,361.33,282.64" style="stroke:#181818;stroke-width:1.0;"/></g><!--link HRM to UC5--><g id="link_HRM_UC5"><path d="M151.37,255.2 C178.63,283.9 219.15,321.59 262,344 C285.46,356.27 312.44,365.2 338.23,371.67 " fill="none" id="HRM-to-UC5" style="stroke:#181818;stroke-width:1.0;"/><polygon fill="#181818" points="343.38,372.93,335.6021,366.8881,338.5259,371.7308,333.6833,374.6546,343.38,372.93" style="stroke:#181818;stroke-width:1.0;"/></g><!--link FM to UC6--><g id="link_FM_UC6"><path d="M179.01,535.87 C204.53,527.18 234.5,517.52 262,510 C295,500.98 331.85,492.67 363.54,486.06 " fill="none" id="FM-to-UC6" style="stroke:#181818;stroke-width:1.0;"/><polygon fill="#181818" points="368.58,485.02,358.956,482.9273,363.6838,486.0335,360.5776,490.7613,368.58,485.02" style="stroke:#181818;stroke-width:1.0;"/></g><!--link FM to UC7--><g id="link_FM_UC7"><path d="M179.18,558 C212.69,558 255.55,558 296.86,558 " fill="none" id="FM-to-UC7" style="stroke:#181818;stroke-width:1.0;"/><polygon fill="#181818" points="301.89,558,292.89,554,296.89,558,292.89,562,301.89,558" style="stroke:#181818;stroke-width:1.0;"/></g><!--link FM to UC8--><g id="link_FM_UC8"><path d="M179.26,579.26 C204.82,587.82 234.75,597.62 262,606 C287.4,613.81 314.96,621.85 340.67,629.17 " fill="none" id="FM-to-UC8" style="stroke:#181818;stroke-width:1.0;"/><polygon fill="#181818" points="345.79,630.63,338.2352,624.3114,340.9824,629.2564,336.0374,632.0036,345.79,630.63" style="stroke:#181818;stroke-width:1.0;"/></g><!--SRC=[TP9DRi8m48NtESM83Us2HVbVLQfeWKNPW3Z0O8R4nR4Zs-cFgcwgdeHrRz6RS99E841YjLb4VfxllNWcRhgjr1bQJ24rseZ4cfJ0svoYIoL3iSMO5lvD4LWI7dMiA6fU29VWshn87SC6bUEIbvxPfICO8R_k9SO5z_2AQSPMHHiFte2LSU9XBOjGQNGK0JyelB4mCahXobXaKTbkJFCKDSp9cTmASZ13pMUpS3MTpwuRW0vuKJMC5P6_OEEI6jUWYINIiE1Egv6JHGdpub-QcpoWonEwZABpaA1nce4xL7D7eX3lXxXICJIwWHOt5KldEOq7gzJHm9KGRLTHX2UpAibsI7RgfAYCjBHqGakNBNVEoLY3qGJSRMeirK_K3KqzDar84oSJVyTJSMcioOn3LNfweQTVFzip9L8eAkb-I0_-f7zs-y_l_TVEWKX8R5jvLle7eN_8_aTsWq_ev7QWYTR5fIqsWuJX8O6l4hHQj-U_SD7jG7S2tGtqiV_nIVRhSb2Nm-ZZ5m00]--></g></svg>