<?xml version="1.0" encoding="us-ascii" standalone="no"?><svg xmlns="http://www.w3.org/2000/svg" xmlns:xlink="http://www.w3.org/1999/xlink" contentStyleType="text/css" height="632px" preserveAspectRatio="none" style="width:483px;height:632px;background:#FFFFFF;" version="1.1" viewBox="0 0 483 632" width="483px" zoomAndPan="magnify"><defs/><g><rect fill="#FFFFFF" height="31.291" style="stroke:#181818;stroke-width:1.0;" width="10" x="411" y="116.9121"/><rect fill="#FFFFFF" height="31.291" style="stroke:#181818;stroke-width:1.0;" width="10" x="411" y="232.0762"/><rect fill="#FFFFFF" height="31.291" style="stroke:#181818;stroke-width:1.0;" width="10" x="411" y="320.9492"/><rect fill="#FFFFFF" height="31.291" style="stroke:#181818;stroke-width:1.0;" width="10" x="411" y="400.1621"/><rect fill="#FFFFFF" height="31.291" style="stroke:#181818;stroke-width:1.0;" width="10" x="411" y="493.375"/><rect fill="none" height="369.4629" style="stroke:#000000;stroke-width:1.5;" width="466" x="10" y="163.2031"/><rect fill="none" height="256.959" style="stroke:#000000;stroke-width:1.5;" width="446" x="20" y="189.4941"/><rect fill="none" height="161.0859" style="stroke:#000000;stroke-width:1.5;" width="426" x="30" y="278.3672"/><line style="stroke:#181818;stroke-width:0.5;stroke-dasharray:5.0,5.0;" x1="155" x2="155" y1="83.6211" y2="549.666"/><line style="stroke:#181818;stroke-width:0.5;stroke-dasharray:5.0,5.0;" x1="416" x2="416" y1="83.6211" y2="549.666"/><text fill="#000000" font-family="sans-serif" font-size="14" lengthAdjust="spacing" textLength="224" x="40" y="80.1074">Quality Assessment Team Manager</text><ellipse cx="155" cy="13.5" fill="#E2E2F0" rx="8" ry="8" style="stroke:#181818;stroke-width:0.5;"/><path d="M155,21.5 L155,48.5 M142,29.5 L168,29.5 M155,48.5 L142,63.5 M155,48.5 L168,63.5 " fill="none" style="stroke:#181818;stroke-width:0.5;"/><text fill="#000000" font-family="sans-serif" font-size="14" lengthAdjust="spacing" textLength="224" x="40" y="563.7734">Quality Assessment Team Manager</text><ellipse cx="155" cy="575.7871" fill="#E2E2F0" rx="8" ry="8" style="stroke:#181818;stroke-width:0.5;"/><path d="M155,583.7871 L155,610.7871 M142,591.7871 L168,591.7871 M155,610.7871 L142,625.7871 M155,610.7871 L168,625.7871 " fill="none" style="stroke:#181818;stroke-width:0.5;"/><rect fill="#E2E2F0" height="32.6211" rx="2.5" ry="2.5" style="stroke:#181818;stroke-width:0.5;" width="60" x="386" y="50"/><text fill="#000000" font-family="sans-serif" font-size="14" lengthAdjust="spacing" textLength="46" x="393" y="72.1074">System</text><rect fill="#E2E2F0" height="32.6211" rx="2.5" ry="2.5" style="stroke:#181818;stroke-width:0.5;" width="60" x="386" y="548.666"/><text fill="#000000" font-family="sans-serif" font-size="14" lengthAdjust="spacing" textLength="46" x="393" y="570.7734">System</text><rect fill="#FFFFFF" height="31.291" style="stroke:#181818;stroke-width:1.0;" width="10" x="411" y="116.9121"/><rect fill="#FFFFFF" height="31.291" style="stroke:#181818;stroke-width:1.0;" width="10" x="411" y="232.0762"/><rect fill="#FFFFFF" height="31.291" style="stroke:#181818;stroke-width:1.0;" width="10" x="411" y="320.9492"/><rect fill="#FFFFFF" height="31.291" style="stroke:#181818;stroke-width:1.0;" width="10" x="411" y="400.1621"/><rect fill="#FFFFFF" height="31.291" style="stroke:#181818;stroke-width:1.0;" width="10" x="411" y="493.375"/><polygon fill="#181818" points="399,112.9121,409,116.9121,399,120.9121,403,116.9121" style="stroke:#181818;stroke-width:1.0;"/><line style="stroke:#181818;stroke-width:1.0;" x1="155" x2="405" y1="116.9121" y2="116.9121"/><text fill="#000000" font-family="sans-serif" font-size="13" font-weight="bold" lengthAdjust="spacing" textLength="7" x="162" y="111.6494">1</text><text fill="#000000" font-family="sans-serif" font-size="13" lengthAdjust="spacing" textLength="135" x="173" y="111.6494">Authentication Request</text><polygon fill="#181818" points="166,144.2031,156,148.2031,166,152.2031,162,148.2031" style="stroke:#181818;stroke-width:1.0;"/><line style="stroke:#181818;stroke-width:1.0;stroke-dasharray:2.0,2.0;" x1="160" x2="415" y1="148.2031" y2="148.2031"/><text fill="#000000" font-family="sans-serif" font-size="13" font-weight="bold" lengthAdjust="spacing" textLength="7" x="172" y="142.9404">2</text><text fill="#000000" font-family="sans-serif" font-size="13" lengthAdjust="spacing" textLength="145" x="183" y="142.9404">Authentication Response</text><path d="M10,163.2031 L71,163.2031 L71,172.4941 L61,182.4941 L10,182.4941 L10,163.2031 " fill="#EEEEEE" style="stroke:#000000;stroke-width:1.5;"/><rect fill="none" height="369.4629" style="stroke:#000000;stroke-width:1.5;" width="466" x="10" y="163.2031"/><text fill="#000000" font-family="sans-serif" font-size="13" font-weight="bold" lengthAdjust="spacing" textLength="16" x="25" y="178.2314">alt</text><text fill="#000000" font-family="sans-serif" font-size="11" font-weight="bold" lengthAdjust="spacing" textLength="84" x="86" y="177.0732">[Valid Request]</text><path d="M20,189.4941 L81,189.4941 L81,198.7852 L71,208.7852 L20,208.7852 L20,189.4941 " fill="#EEEEEE" style="stroke:#000000;stroke-width:1.5;"/><rect fill="none" height="256.959" style="stroke:#000000;stroke-width:1.5;" width="446" x="20" y="189.4941"/><text fill="#000000" font-family="sans-serif" font-size="13" font-weight="bold" lengthAdjust="spacing" textLength="16" x="35" y="204.5225">alt</text><text fill="#000000" font-family="sans-serif" font-size="11" font-weight="bold" lengthAdjust="spacing" textLength="231" x="96" y="203.3643">[QAM run tests for inputs of variable size]</text><polygon fill="#181818" points="399,228.0762,409,232.0762,399,236.0762,403,232.0762" style="stroke:#181818;stroke-width:1.0;"/><line style="stroke:#181818;stroke-width:1.0;" x1="155" x2="405" y1="232.0762" y2="232.0762"/><text fill="#000000" font-family="sans-serif" font-size="13" font-weight="bold" lengthAdjust="spacing" textLength="7" x="162" y="226.8135">3</text><text fill="#000000" font-family="sans-serif" font-size="13" lengthAdjust="spacing" textLength="81" x="173" y="226.8135">Requests test</text><polygon fill="#181818" points="166,259.3672,156,263.3672,166,267.3672,162,263.3672" style="stroke:#181818;stroke-width:1.0;"/><line style="stroke:#181818;stroke-width:1.0;stroke-dasharray:2.0,2.0;" x1="160" x2="415" y1="263.3672" y2="263.3672"/><text fill="#000000" font-family="sans-serif" font-size="13" font-weight="bold" lengthAdjust="spacing" textLength="7" x="172" y="258.1045">4</text><text fill="#000000" font-family="sans-serif" font-size="13" lengthAdjust="spacing" textLength="169" x="183" y="258.1045">Asks for input of variable size</text><path d="M30,278.3672 L103,278.3672 L103,287.6582 L93,297.6582 L30,297.6582 L30,278.3672 " fill="#EEEEEE" style="stroke:#000000;stroke-width:1.5;"/><rect fill="none" height="161.0859" style="stroke:#000000;stroke-width:1.5;" width="426" x="30" y="278.3672"/><text fill="#000000" font-family="sans-serif" font-size="13" font-weight="bold" lengthAdjust="spacing" textLength="28" x="45" y="293.3955">loop</text><text fill="#000000" font-family="sans-serif" font-size="11" font-weight="bold" lengthAdjust="spacing" textLength="203" x="118" y="292.2373">[QAM provides input of variable size]</text><polygon fill="#181818" points="399,316.9492,409,320.9492,399,324.9492,403,320.9492" style="stroke:#181818;stroke-width:1.0;"/><line style="stroke:#181818;stroke-width:1.0;" x1="155" x2="405" y1="320.9492" y2="320.9492"/><text fill="#000000" font-family="sans-serif" font-size="13" font-weight="bold" lengthAdjust="spacing" textLength="7" x="162" y="315.6865">5</text><text fill="#000000" font-family="sans-serif" font-size="13" lengthAdjust="spacing" textLength="170" x="173" y="315.6865">Provides input of variable size</text><polygon fill="#181818" points="166,348.2402,156,352.2402,166,356.2402,162,352.2402" style="stroke:#181818;stroke-width:1.0;"/><line style="stroke:#181818;stroke-width:1.0;stroke-dasharray:2.0,2.0;" x1="160" x2="415" y1="352.2402" y2="352.2402"/><text fill="#000000" font-family="sans-serif" font-size="13" font-weight="bold" lengthAdjust="spacing" textLength="7" x="172" y="346.9775">6</text><text fill="#000000" font-family="sans-serif" font-size="13" lengthAdjust="spacing" textLength="172" x="183" y="346.9775">Confirms input of variable size</text><line style="stroke:#000000;stroke-width:1.0;stroke-dasharray:2.0,2.0;" x1="30" x2="456" y1="361.2402" y2="361.2402"/><text fill="#000000" font-family="sans-serif" font-size="11" font-weight="bold" lengthAdjust="spacing" textLength="248" x="35" y="373.1104">[QAM does not provide input of variable size]</text><polygon fill="#181818" points="399,396.1621,409,400.1621,399,404.1621,403,400.1621" style="stroke:#181818;stroke-width:1.0;"/><line style="stroke:#181818;stroke-width:1.0;" x1="155" x2="405" y1="400.1621" y2="400.1621"/><text fill="#000000" font-family="sans-serif" font-size="13" font-weight="bold" lengthAdjust="spacing" textLength="7" x="162" y="394.8994">7</text><text fill="#000000" font-family="sans-serif" font-size="13" lengthAdjust="spacing" textLength="217" x="173" y="394.8994">Does not provide input of variable size</text><polygon fill="#181818" points="166,427.4531,156,431.4531,166,435.4531,162,431.4531" style="stroke:#181818;stroke-width:1.0;"/><line style="stroke:#181818;stroke-width:1.0;stroke-dasharray:2.0,2.0;" x1="160" x2="415" y1="431.4531" y2="431.4531"/><text fill="#000000" font-family="sans-serif" font-size="13" font-weight="bold" lengthAdjust="spacing" textLength="7" x="172" y="426.1904">8</text><text fill="#000000" font-family="sans-serif" font-size="13" lengthAdjust="spacing" textLength="165" x="183" y="426.1904">Rejects input of variable size</text><line style="stroke:#000000;stroke-width:1.0;stroke-dasharray:2.0,2.0;" x1="10" x2="476" y1="454.4531" y2="454.4531"/><text fill="#000000" font-family="sans-serif" font-size="11" font-weight="bold" lengthAdjust="spacing" textLength="92" x="15" y="466.3232">[Invalid Request]</text><polygon fill="#181818" points="166,489.375,156,493.375,166,497.375,162,493.375" style="stroke:#181818;stroke-width:1.0;"/><line style="stroke:#181818;stroke-width:1.0;stroke-dasharray:2.0,2.0;" x1="160" x2="410" y1="493.375" y2="493.375"/><text fill="#000000" font-family="sans-serif" font-size="13" font-weight="bold" lengthAdjust="spacing" textLength="7" x="172" y="488.1123">9</text><text fill="#000000" font-family="sans-serif" font-size="13" lengthAdjust="spacing" textLength="136" x="183" y="488.1123">Returns Invalid Request</text><polygon fill="#181818" points="166,520.666,156,524.666,166,528.666,162,524.666" style="stroke:#181818;stroke-width:1.0;"/><line style="stroke:#181818;stroke-width:1.0;stroke-dasharray:2.0,2.0;" x1="160" x2="415" y1="524.666" y2="524.666"/><text fill="#000000" font-family="sans-serif" font-size="13" font-weight="bold" lengthAdjust="spacing" textLength="14" x="172" y="519.4033">10</text><text fill="#000000" font-family="sans-serif" font-size="13" lengthAdjust="spacing" textLength="214" x="190" y="519.4033">Asks for new Authentication Request</text><!--SRC=[fPCnRy8m48Nt_8eJIoVApb09jKi7f4AhxaToW5lx77pdLFJNrqu1qK2a0hSuiU-zUr_atArLQncFHhL5rkZiVUdTI6WJYKiQLWPN0Ls1fVe0Wrb4QtGB4n4ISSGARuGEfiYueZ0059XDfWL6zHpTWa9Hf7SOFi3hLfJS62PHrqbdIbJZ6UPvacWUO1fKslKLlmiCap8Pd959xLcegAYhHAlmdc9M1sz8bNTpaX0PD6qAB1EGuJgcHx-41eF1XIKGyqsj8bSd-yvGMeT3KslV2N5yTe8YdqVJ-uVdEiNRdrZlwpPV7NnZAfB_s7LuNYwGNaBuw7bfWfFR2CaAjOahdoAorptg5QHFLrXSGZod3ohrLc2kYZzh_W3Ft9nSvlC9D0QMtlw-eRsta-chxsVjHqdHVm00]--></g></svg>