<?xml version="1.0" encoding="UTF-8" standalone="no"?><svg xmlns="http://www.w3.org/2000/svg" xmlns:xlink="http://www.w3.org/1999/xlink" contentStyleType="text/css" height="777px" preserveAspectRatio="none" style="width:537px;height:777px;background:#FFFFFF;" version="1.1" viewBox="0 0 537 777" width="537px" zoomAndPan="magnify"><defs/><g><rect fill="#FFFFFF" height="570.7813" style="stroke:#181818;stroke-width:1.0;" width="10" x="299" y="114.9609"/><rect fill="none" height="138.2422" style="stroke:#000000;stroke-width:1.5;" width="501" x="20" y="129.9609"/><rect fill="none" height="396.5391" style="stroke:#000000;stroke-width:1.5;" width="521" x="10" y="282.2031"/><rect fill="none" height="138.2422" style="stroke:#000000;stroke-width:1.5;" width="501" x="20" y="307.5547"/><rect fill="none" height="181.5938" style="stroke:#000000;stroke-width:1.5;" width="463" x="20" y="490.1484"/><line style="stroke:#181818;stroke-width:0.5;stroke-dasharray:5.0,5.0;" x1="48" x2="48" y1="82.6094" y2="695.7422"/><line style="stroke:#181818;stroke-width:0.5;stroke-dasharray:5.0,5.0;" x1="304" x2="304" y1="82.6094" y2="695.7422"/><text fill="#000000" font-family="sans-serif" font-size="14" lengthAdjust="spacing" textLength="30" x="30" y="79.5332">HRM</text><ellipse cx="48" cy="13.5" fill="#E2E2F0" rx="8" ry="8" style="stroke:#181818;stroke-width:0.5;"/><path d="M48,21.5 L48,48.5 M35,29.5 L61,29.5 M48,48.5 L35,63.5 M48,48.5 L61,63.5 " fill="none" style="stroke:#181818;stroke-width:0.5;"/><text fill="#000000" font-family="sans-serif" font-size="14" lengthAdjust="spacing" textLength="30" x="30" y="709.2754">HRM</text><ellipse cx="48" cy="720.8516" fill="#E2E2F0" rx="8" ry="8" style="stroke:#181818;stroke-width:0.5;"/><path d="M48,728.8516 L48,755.8516 M35,736.8516 L61,736.8516 M48,755.8516 L35,770.8516 M48,755.8516 L61,770.8516 " fill="none" style="stroke:#181818;stroke-width:0.5;"/><rect fill="#E2E2F0" height="31.6094" rx="2.5" ry="2.5" style="stroke:#181818;stroke-width:0.5;" width="60" x="274" y="50"/><text fill="#000000" font-family="sans-serif" font-size="14" lengthAdjust="spacing" textLength="46" x="281" y="71.5332">System</text><rect fill="#E2E2F0" height="31.6094" rx="2.5" ry="2.5" style="stroke:#181818;stroke-width:0.5;" width="60" x="274" y="694.7422"/><text fill="#000000" font-family="sans-serif" font-size="14" lengthAdjust="spacing" textLength="46" x="281" y="716.2754">System</text><rect fill="#FFFFFF" height="570.7813" style="stroke:#181818;stroke-width:1.0;" width="10" x="299" y="114.9609"/><polygon fill="#181818" points="287,110.9609,297,114.9609,287,118.9609,291,114.9609" style="stroke:#181818;stroke-width:1.0;"/><line style="stroke:#181818;stroke-width:1.0;" x1="48" x2="293" y1="114.9609" y2="114.9609"/><text fill="#000000" font-family="sans-serif" font-size="13" font-weight="bold" lengthAdjust="spacing" textLength="7" x="55" y="110.1045">1</text><text fill="#000000" font-family="sans-serif" font-size="13" lengthAdjust="spacing" textLength="152" x="66" y="110.1045">Request to register skill(s)</text><path d="M20,129.9609 L81,129.9609 L81,138.3125 L71,148.3125 L20,148.3125 L20,129.9609 " fill="#EEEEEE" style="stroke:#000000;stroke-width:1.5;"/><rect fill="none" height="138.2422" style="stroke:#000000;stroke-width:1.5;" width="501" x="20" y="129.9609"/><text fill="#000000" font-family="sans-serif" font-size="13" font-weight="bold" lengthAdjust="spacing" textLength="16" x="35" y="144.4561">alt</text><text fill="#000000" font-family="sans-serif" font-size="11" font-weight="bold" lengthAdjust="spacing" textLength="82" x="96" y="143.3799">[Valid request]</text><line style="stroke:#181818;stroke-width:1.0;" x1="309" x2="351" y1="170.6641" y2="170.6641"/><line style="stroke:#181818;stroke-width:1.0;" x1="351" x2="351" y1="170.6641" y2="183.6641"/><line style="stroke:#181818;stroke-width:1.0;" x1="310" x2="351" y1="183.6641" y2="183.6641"/><polygon fill="#181818" points="320,179.6641,310,183.6641,320,187.6641,316,183.6641" style="stroke:#181818;stroke-width:1.0;"/><text fill="#000000" font-family="sans-serif" font-size="13" font-weight="bold" lengthAdjust="spacing" textLength="7" x="316" y="165.8076">2</text><text fill="#000000" font-family="sans-serif" font-size="13" lengthAdjust="spacing" textLength="182" x="327" y="165.8076">Display skill(s) registration form</text><polygon fill="#181818" points="59,210.0156,49,214.0156,59,218.0156,55,214.0156" style="stroke:#181818;stroke-width:1.0;"/><line style="stroke:#181818;stroke-width:1.0;" x1="53" x2="298" y1="214.0156" y2="214.0156"/><text fill="#000000" font-family="sans-serif" font-size="13" font-weight="bold" lengthAdjust="spacing" textLength="7" x="65" y="209.1592">3</text><text fill="#000000" font-family="sans-serif" font-size="13" lengthAdjust="spacing" textLength="126" x="76" y="209.1592">Provide skill(s) details</text><line style="stroke:#000000;stroke-width:1.0;stroke-dasharray:2.0,2.0;" x1="20" x2="521" y1="223.0156" y2="223.0156"/><text fill="#000000" font-family="sans-serif" font-size="11" font-weight="bold" lengthAdjust="spacing" textLength="90" x="25" y="234.4346">[Invalid request]</text><polygon fill="#181818" points="59,256.2031,49,260.2031,59,264.2031,55,260.2031" style="stroke:#181818;stroke-width:1.0;"/><line style="stroke:#181818;stroke-width:1.0;stroke-dasharray:2.0,2.0;" x1="53" x2="298" y1="260.2031" y2="260.2031"/><text fill="#000000" font-family="sans-serif" font-size="13" font-weight="bold" lengthAdjust="spacing" textLength="7" x="65" y="255.3467">4</text><text fill="#000000" font-family="sans-serif" font-size="13" lengthAdjust="spacing" textLength="119" x="76" y="255.3467">Notify invalid request</text><path d="M10,282.2031 L83,282.2031 L83,290.5547 L73,300.5547 L10,300.5547 L10,282.2031 " fill="#EEEEEE" style="stroke:#000000;stroke-width:1.5;"/><rect fill="none" height="396.5391" style="stroke:#000000;stroke-width:1.5;" width="521" x="10" y="282.2031"/><text fill="#000000" font-family="sans-serif" font-size="13" font-weight="bold" lengthAdjust="spacing" textLength="28" x="25" y="296.6982">loop</text><text fill="#000000" font-family="sans-serif" font-size="11" font-weight="bold" lengthAdjust="spacing" textLength="186" x="98" y="295.6221">[while HRM enters skill(s) details]</text><path d="M20,307.5547 L81,307.5547 L81,315.9063 L71,325.9063 L20,325.9063 L20,307.5547 " fill="#EEEEEE" style="stroke:#000000;stroke-width:1.5;"/><rect fill="none" height="138.2422" style="stroke:#000000;stroke-width:1.5;" width="501" x="20" y="307.5547"/><text fill="#000000" font-family="sans-serif" font-size="13" font-weight="bold" lengthAdjust="spacing" textLength="16" x="35" y="322.0498">alt</text><text fill="#000000" font-family="sans-serif" font-size="11" font-weight="bold" lengthAdjust="spacing" textLength="82" x="96" y="320.9736">[Valid request]</text><line style="stroke:#181818;stroke-width:1.0;" x1="309" x2="351" y1="348.2578" y2="348.2578"/><line style="stroke:#181818;stroke-width:1.0;" x1="351" x2="351" y1="348.2578" y2="361.2578"/><line style="stroke:#181818;stroke-width:1.0;" x1="310" x2="351" y1="361.2578" y2="361.2578"/><polygon fill="#181818" points="320,357.2578,310,361.2578,320,365.2578,316,361.2578" style="stroke:#181818;stroke-width:1.0;"/><text fill="#000000" font-family="sans-serif" font-size="13" font-weight="bold" lengthAdjust="spacing" textLength="7" x="316" y="343.4014">5</text><text fill="#000000" font-family="sans-serif" font-size="13" lengthAdjust="spacing" textLength="182" x="327" y="343.4014">Display skill(s) registration form</text><polygon fill="#181818" points="59,387.6094,49,391.6094,59,395.6094,55,391.6094" style="stroke:#181818;stroke-width:1.0;"/><line style="stroke:#181818;stroke-width:1.0;" x1="53" x2="298" y1="391.6094" y2="391.6094"/><text fill="#000000" font-family="sans-serif" font-size="13" font-weight="bold" lengthAdjust="spacing" textLength="7" x="65" y="386.7529">6</text><text fill="#000000" font-family="sans-serif" font-size="13" lengthAdjust="spacing" textLength="126" x="76" y="386.7529">Provide skill(s) details</text><line style="stroke:#000000;stroke-width:1.0;stroke-dasharray:2.0,2.0;" x1="20" x2="521" y1="400.6094" y2="400.6094"/><text fill="#000000" font-family="sans-serif" font-size="11" font-weight="bold" lengthAdjust="spacing" textLength="90" x="25" y="412.0283">[Invalid request]</text><polygon fill="#181818" points="59,433.7969,49,437.7969,59,441.7969,55,437.7969" style="stroke:#181818;stroke-width:1.0;"/><line style="stroke:#181818;stroke-width:1.0;stroke-dasharray:2.0,2.0;" x1="53" x2="298" y1="437.7969" y2="437.7969"/><text fill="#000000" font-family="sans-serif" font-size="13" font-weight="bold" lengthAdjust="spacing" textLength="7" x="65" y="432.9404">7</text><text fill="#000000" font-family="sans-serif" font-size="13" lengthAdjust="spacing" textLength="119" x="76" y="432.9404">Notify invalid request</text><polygon fill="#181818" points="287,471.1484,297,475.1484,287,479.1484,291,475.1484" style="stroke:#181818;stroke-width:1.0;"/><line style="stroke:#181818;stroke-width:1.0;" x1="48" x2="293" y1="475.1484" y2="475.1484"/><text fill="#000000" font-family="sans-serif" font-size="13" font-weight="bold" lengthAdjust="spacing" textLength="7" x="55" y="470.292">8</text><text fill="#000000" font-family="sans-serif" font-size="13" lengthAdjust="spacing" textLength="126" x="66" y="470.292">Provide skill(s) details</text><path d="M20,490.1484 L81,490.1484 L81,498.5 L71,508.5 L20,508.5 L20,490.1484 " fill="#EEEEEE" style="stroke:#000000;stroke-width:1.5;"/><rect fill="none" height="181.5938" style="stroke:#000000;stroke-width:1.5;" width="463" x="20" y="490.1484"/><text fill="#000000" font-family="sans-serif" font-size="13" font-weight="bold" lengthAdjust="spacing" textLength="16" x="35" y="504.6436">alt</text><text fill="#000000" font-family="sans-serif" font-size="11" font-weight="bold" lengthAdjust="spacing" textLength="116" x="96" y="503.5674">[Valid skill(s) details]</text><line style="stroke:#181818;stroke-width:1.0;" x1="309" x2="351" y1="530.8516" y2="530.8516"/><line style="stroke:#181818;stroke-width:1.0;" x1="351" x2="351" y1="530.8516" y2="543.8516"/><line style="stroke:#181818;stroke-width:1.0;" x1="310" x2="351" y1="543.8516" y2="543.8516"/><polygon fill="#181818" points="320,539.8516,310,543.8516,320,547.8516,316,543.8516" style="stroke:#181818;stroke-width:1.0;"/><text fill="#000000" font-family="sans-serif" font-size="13" font-weight="bold" lengthAdjust="spacing" textLength="7" x="316" y="525.9951">9</text><text fill="#000000" font-family="sans-serif" font-size="13" lengthAdjust="spacing" textLength="131" x="327" y="525.9951">Validate skill(s) details</text><line style="stroke:#181818;stroke-width:1.0;" x1="309" x2="351" y1="574.2031" y2="574.2031"/><line style="stroke:#181818;stroke-width:1.0;" x1="351" x2="351" y1="574.2031" y2="587.2031"/><line style="stroke:#181818;stroke-width:1.0;" x1="310" x2="351" y1="587.2031" y2="587.2031"/><polygon fill="#181818" points="320,583.2031,310,587.2031,320,591.2031,316,587.2031" style="stroke:#181818;stroke-width:1.0;"/><text fill="#000000" font-family="sans-serif" font-size="13" font-weight="bold" lengthAdjust="spacing" textLength="14" x="316" y="569.3467">10</text><text fill="#000000" font-family="sans-serif" font-size="13" lengthAdjust="spacing" textLength="137" x="334" y="569.3467">Save skill(s) information</text><polygon fill="#181818" points="59,613.5547,49,617.5547,59,621.5547,55,617.5547" style="stroke:#181818;stroke-width:1.0;"/><line style="stroke:#181818;stroke-width:1.0;stroke-dasharray:2.0,2.0;" x1="53" x2="298" y1="617.5547" y2="617.5547"/><text fill="#000000" font-family="sans-serif" font-size="13" font-weight="bold" lengthAdjust="spacing" textLength="14" x="65" y="612.6982">11</text><text fill="#000000" font-family="sans-serif" font-size="13" lengthAdjust="spacing" textLength="209" x="83" y="612.6982">Notify successful skill(s) registration</text><line style="stroke:#000000;stroke-width:1.0;stroke-dasharray:2.0,2.0;" x1="20" x2="483" y1="626.5547" y2="626.5547"/><text fill="#000000" font-family="sans-serif" font-size="11" font-weight="bold" lengthAdjust="spacing" textLength="124" x="25" y="637.9736">[Invalid skill(s) details]</text><polygon fill="#181818" points="59,659.7422,49,663.7422,59,667.7422,55,663.7422" style="stroke:#181818;stroke-width:1.0;"/><line style="stroke:#181818;stroke-width:1.0;stroke-dasharray:2.0,2.0;" x1="53" x2="298" y1="663.7422" y2="663.7422"/><text fill="#000000" font-family="sans-serif" font-size="13" font-weight="bold" lengthAdjust="spacing" textLength="14" x="65" y="658.8857">12</text><text fill="#000000" font-family="sans-serif" font-size="13" lengthAdjust="spacing" textLength="156" x="83" y="658.8857">Notify invalid skill(s) details</text><!--SRC=[rPAnKiCm38PtFuKk4moyG0Uc3Z30SUqTk-eeeCEnWoM7ozlZf2s4kEbE5kUiNx_yVpPQ3H6gXzrJ1IYGLzDXLBRSeLUezeCejLFj-6imQV2fFL0qMGrtzwV21dRqcKWKD42aDywR4UI3dRkHMuDMkKUbiur1f_2AZkiidleCvEzOdRjkMJg7mu_JoJkYSl3GXDWk6lEfDl0IGyyr_NRLfCXE33aXUFJzwkIpmtDGRWRWXPHyROmBeOElTtOqQe5yZYhbhFySSN6tgyDc8OjQcNGIZg-Wq5uciyT-fcK_ifYeNCiZoLeIQPAxJFGleAidMI5L8i_89cmrBHxwDm00]--></g></svg>