<?xml version="1.0" encoding="us-ascii" standalone="no"?><svg xmlns="http://www.w3.org/2000/svg" xmlns:xlink="http://www.w3.org/1999/xlink" contentStyleType="text/css" height="651px" preserveAspectRatio="none" style="width:459px;height:651px;background:#FFFFFF;" version="1.1" viewBox="0 0 459 651" width="459px" zoomAndPan="magnify"><defs/><g><rect fill="#FFFFFF" height="441.4629" style="stroke:#181818;stroke-width:1.0;" width="10" x="256" y="116.9121"/><rect fill="none" height="142.7949" style="stroke:#000000;stroke-width:1.5;" width="442" x="10" y="176.2031"/><rect fill="none" height="142.7949" style="stroke:#000000;stroke-width:1.5;" width="397" x="10" y="408.5801"/><line style="stroke:#181818;stroke-width:0.5;stroke-dasharray:5.0,5.0;" x1="38" x2="38" y1="83.6211" y2="568.375"/><line style="stroke:#181818;stroke-width:0.5;stroke-dasharray:5.0,5.0;" x1="261" x2="261" y1="83.6211" y2="568.375"/><text fill="#000000" font-family="sans-serif" font-size="14" lengthAdjust="spacing" textLength="30" x="20" y="80.1074">HRM</text><ellipse cx="38" cy="13.5" fill="#E2E2F0" rx="8" ry="8" style="stroke:#181818;stroke-width:0.5;"/><path d="M38,21.5 L38,48.5 M25,29.5 L51,29.5 M38,48.5 L25,63.5 M38,48.5 L51,63.5 " fill="none" style="stroke:#181818;stroke-width:0.5;"/><text fill="#000000" font-family="sans-serif" font-size="14" lengthAdjust="spacing" textLength="30" x="20" y="582.4824">HRM</text><ellipse cx="38" cy="594.4961" fill="#E2E2F0" rx="8" ry="8" style="stroke:#181818;stroke-width:0.5;"/><path d="M38,602.4961 L38,629.4961 M25,610.4961 L51,610.4961 M38,629.4961 L25,644.4961 M38,629.4961 L51,644.4961 " fill="none" style="stroke:#181818;stroke-width:0.5;"/><rect fill="#E2E2F0" height="32.6211" rx="2.5" ry="2.5" style="stroke:#181818;stroke-width:0.5;" width="60" x="231" y="50"/><text fill="#000000" font-family="sans-serif" font-size="14" lengthAdjust="spacing" textLength="46" x="238" y="72.1074">System</text><rect fill="#E2E2F0" height="32.6211" rx="2.5" ry="2.5" style="stroke:#181818;stroke-width:0.5;" width="60" x="231" y="567.375"/><text fill="#000000" font-family="sans-serif" font-size="14" lengthAdjust="spacing" textLength="46" x="238" y="589.4824">System</text><rect fill="#FFFFFF" height="441.4629" style="stroke:#181818;stroke-width:1.0;" width="10" x="256" y="116.9121"/><polygon fill="#181818" points="244,112.9121,254,116.9121,244,120.9121,248,116.9121" style="stroke:#181818;stroke-width:1.0;"/><line style="stroke:#181818;stroke-width:1.0;" x1="38" x2="250" y1="116.9121" y2="116.9121"/><text fill="#000000" font-family="sans-serif" font-size="13" lengthAdjust="spacing" textLength="137" x="45" y="111.6494">Request to register skill</text><line style="stroke:#181818;stroke-width:1.0;" x1="266" x2="308" y1="148.2031" y2="148.2031"/><line style="stroke:#181818;stroke-width:1.0;" x1="308" x2="308" y1="148.2031" y2="161.2031"/><line style="stroke:#181818;stroke-width:1.0;" x1="267" x2="308" y1="161.2031" y2="161.2031"/><polygon fill="#181818" points="277,157.2031,267,161.2031,277,165.2031,273,161.2031" style="stroke:#181818;stroke-width:1.0;"/><text fill="#000000" font-family="sans-serif" font-size="13" lengthAdjust="spacing" textLength="94" x="273" y="142.9404">Validate request</text><path d="M10,176.2031 L71,176.2031 L71,185.4941 L61,195.4941 L10,195.4941 L10,176.2031 " fill="#EEEEEE" style="stroke:#000000;stroke-width:1.5;"/><rect fill="none" height="142.7949" style="stroke:#000000;stroke-width:1.5;" width="442" x="10" y="176.2031"/><text fill="#000000" font-family="sans-serif" font-size="13" font-weight="bold" lengthAdjust="spacing" textLength="16" x="25" y="191.2314">alt</text><text fill="#000000" font-family="sans-serif" font-size="11" font-weight="bold" lengthAdjust="spacing" textLength="82" x="86" y="190.0732">[Valid request]</text><line style="stroke:#181818;stroke-width:1.0;" x1="266" x2="308" y1="218.7852" y2="218.7852"/><line style="stroke:#181818;stroke-width:1.0;" x1="308" x2="308" y1="218.7852" y2="231.7852"/><line style="stroke:#181818;stroke-width:1.0;" x1="267" x2="308" y1="231.7852" y2="231.7852"/><polygon fill="#181818" points="277,227.7852,267,231.7852,277,235.7852,273,231.7852" style="stroke:#181818;stroke-width:1.0;"/><text fill="#000000" font-family="sans-serif" font-size="13" lengthAdjust="spacing" textLength="167" x="273" y="213.5225">Display skill registration form</text><polygon fill="#181818" points="49,259.0762,39,263.0762,49,267.0762,45,263.0762" style="stroke:#181818;stroke-width:1.0;"/><line style="stroke:#181818;stroke-width:1.0;" x1="43" x2="255" y1="263.0762" y2="263.0762"/><text fill="#000000" font-family="sans-serif" font-size="13" lengthAdjust="spacing" textLength="111" x="55" y="257.8135">Provide skill details</text><line style="stroke:#000000;stroke-width:1.0;stroke-dasharray:2.0,2.0;" x1="10" x2="452" y1="272.0762" y2="272.0762"/><text fill="#000000" font-family="sans-serif" font-size="11" font-weight="bold" lengthAdjust="spacing" textLength="90" x="15" y="283.9463">[Invalid request]</text><polygon fill="#181818" points="49,306.998,39,310.998,49,314.998,45,310.998" style="stroke:#181818;stroke-width:1.0;"/><line style="stroke:#181818;stroke-width:1.0;stroke-dasharray:2.0,2.0;" x1="43" x2="255" y1="310.998" y2="310.998"/><text fill="#000000" font-family="sans-serif" font-size="13" lengthAdjust="spacing" textLength="119" x="55" y="305.7354">Notify invalid request</text><polygon fill="#181818" points="244,345.2891,254,349.2891,244,353.2891,248,349.2891" style="stroke:#181818;stroke-width:1.0;"/><line style="stroke:#181818;stroke-width:1.0;" x1="38" x2="250" y1="349.2891" y2="349.2891"/><text fill="#000000" font-family="sans-serif" font-size="13" lengthAdjust="spacing" textLength="111" x="45" y="344.0264">Provide skill details</text><line style="stroke:#181818;stroke-width:1.0;" x1="266" x2="308" y1="380.5801" y2="380.5801"/><line style="stroke:#181818;stroke-width:1.0;" x1="308" x2="308" y1="380.5801" y2="393.5801"/><line style="stroke:#181818;stroke-width:1.0;" x1="267" x2="308" y1="393.5801" y2="393.5801"/><polygon fill="#181818" points="277,389.5801,267,393.5801,277,397.5801,273,393.5801" style="stroke:#181818;stroke-width:1.0;"/><text fill="#000000" font-family="sans-serif" font-size="13" lengthAdjust="spacing" textLength="116" x="273" y="375.3174">Validate skill details</text><path d="M10,408.5801 L71,408.5801 L71,417.8711 L61,427.8711 L10,427.8711 L10,408.5801 " fill="#EEEEEE" style="stroke:#000000;stroke-width:1.5;"/><rect fill="none" height="142.7949" style="stroke:#000000;stroke-width:1.5;" width="397" x="10" y="408.5801"/><text fill="#000000" font-family="sans-serif" font-size="13" font-weight="bold" lengthAdjust="spacing" textLength="16" x="25" y="423.6084">alt</text><text fill="#000000" font-family="sans-serif" font-size="11" font-weight="bold" lengthAdjust="spacing" textLength="101" x="86" y="422.4502">[Valid skill details]</text><line style="stroke:#181818;stroke-width:1.0;" x1="266" x2="308" y1="451.1621" y2="451.1621"/><line style="stroke:#181818;stroke-width:1.0;" x1="308" x2="308" y1="451.1621" y2="464.1621"/><line style="stroke:#181818;stroke-width:1.0;" x1="267" x2="308" y1="464.1621" y2="464.1621"/><polygon fill="#181818" points="277,460.1621,267,464.1621,277,468.1621,273,464.1621" style="stroke:#181818;stroke-width:1.0;"/><text fill="#000000" font-family="sans-serif" font-size="13" lengthAdjust="spacing" textLength="122" x="273" y="445.8994">Save skill information</text><polygon fill="#181818" points="49,491.4531,39,495.4531,49,499.4531,45,495.4531" style="stroke:#181818;stroke-width:1.0;"/><line style="stroke:#181818;stroke-width:1.0;stroke-dasharray:2.0,2.0;" x1="43" x2="255" y1="495.4531" y2="495.4531"/><text fill="#000000" font-family="sans-serif" font-size="13" lengthAdjust="spacing" textLength="194" x="55" y="490.1904">Notify successful skill registration</text><line style="stroke:#000000;stroke-width:1.0;stroke-dasharray:2.0,2.0;" x1="10" x2="407" y1="504.4531" y2="504.4531"/><text fill="#000000" font-family="sans-serif" font-size="11" font-weight="bold" lengthAdjust="spacing" textLength="109" x="15" y="516.3232">[Invalid skill details]</text><polygon fill="#181818" points="49,539.375,39,543.375,49,547.375,45,543.375" style="stroke:#181818;stroke-width:1.0;"/><line style="stroke:#181818;stroke-width:1.0;stroke-dasharray:2.0,2.0;" x1="43" x2="255" y1="543.375" y2="543.375"/><text fill="#000000" font-family="sans-serif" font-size="13" lengthAdjust="spacing" textLength="141" x="55" y="538.1123">Notify invalid skill details</text><!--SRC=[VPB1RiCW38RlF8ML-rwWXvrss0wjgbRQtGAdiaOXmqwalFr8ITebJSh5OFpxnvz0gp51zNdQLu02EPe6axBb1eD2TUv5wNgxArjZSWsylO_77PpejoLHq0Y9BfoJ2UI7lJTebJjKcfGb_DT-esStLAJInA3Nahnd8AzduGTBux4lHgDlGkKOe8xfkb3b5-_Wc6B7ZaQ98qNsOiWBmLVeDZqd-I4grptmefI2UoAoxlHY-ddXWy4ylqxYZDtKWCCm-ut2gn6ajPP4wjQlu9i3sNx01fO5t06EeyK_-0C0]--></g></svg>