<?xml version="1.0" encoding="us-ascii" standalone="no"?><svg xmlns="http://www.w3.org/2000/svg" xmlns:xlink="http://www.w3.org/1999/xlink" contentStyleType="text/css" height="797px" preserveAspectRatio="none" style="width:508px;height:797px;background:#FFFFFF;" version="1.1" viewBox="0 0 508 797" width="508px" zoomAndPan="magnify"><defs/><g><rect fill="#FFFFFF" height="587.2578" style="stroke:#181818;stroke-width:1.0;" width="10" x="281" y="116.9121"/><rect fill="none" height="142.7949" style="stroke:#000000;stroke-width:1.5;" width="472" x="20" y="131.9121"/><rect fill="none" height="408.4629" style="stroke:#000000;stroke-width:1.5;" width="492" x="10" y="288.707"/><rect fill="none" height="142.7949" style="stroke:#000000;stroke-width:1.5;" width="472" x="20" y="314.998"/><rect fill="none" height="187.0859" style="stroke:#000000;stroke-width:1.5;" width="427" x="20" y="503.084"/><line style="stroke:#181818;stroke-width:0.5;stroke-dasharray:5.0,5.0;" x1="48" x2="48" y1="83.6211" y2="714.1699"/><line style="stroke:#181818;stroke-width:0.5;stroke-dasharray:5.0,5.0;" x1="286" x2="286" y1="83.6211" y2="714.1699"/><text fill="#000000" font-family="sans-serif" font-size="14" lengthAdjust="spacing" textLength="30" x="30" y="80.1074">HRM</text><ellipse cx="48" cy="13.5" fill="#E2E2F0" rx="8" ry="8" style="stroke:#181818;stroke-width:0.5;"/><path d="M48,21.5 L48,48.5 M35,29.5 L61,29.5 M48,48.5 L35,63.5 M48,48.5 L61,63.5 " fill="none" style="stroke:#181818;stroke-width:0.5;"/><text fill="#000000" font-family="sans-serif" font-size="14" lengthAdjust="spacing" textLength="30" x="30" y="728.2773">HRM</text><ellipse cx="48" cy="740.291" fill="#E2E2F0" rx="8" ry="8" style="stroke:#181818;stroke-width:0.5;"/><path d="M48,748.291 L48,775.291 M35,756.291 L61,756.291 M48,775.291 L35,790.291 M48,775.291 L61,790.291 " fill="none" style="stroke:#181818;stroke-width:0.5;"/><rect fill="#E2E2F0" height="32.6211" rx="2.5" ry="2.5" style="stroke:#181818;stroke-width:0.5;" width="60" x="256" y="50"/><text fill="#000000" font-family="sans-serif" font-size="14" lengthAdjust="spacing" textLength="46" x="263" y="72.1074">System</text><rect fill="#E2E2F0" height="32.6211" rx="2.5" ry="2.5" style="stroke:#181818;stroke-width:0.5;" width="60" x="256" y="713.1699"/><text fill="#000000" font-family="sans-serif" font-size="14" lengthAdjust="spacing" textLength="46" x="263" y="735.2773">System</text><rect fill="#FFFFFF" height="587.2578" style="stroke:#181818;stroke-width:1.0;" width="10" x="281" y="116.9121"/><polygon fill="#181818" points="269,112.9121,279,116.9121,269,120.9121,273,116.9121" style="stroke:#181818;stroke-width:1.0;"/><line style="stroke:#181818;stroke-width:1.0;" x1="48" x2="275" y1="116.9121" y2="116.9121"/><text fill="#000000" font-family="sans-serif" font-size="13" lengthAdjust="spacing" textLength="152" x="55" y="111.6494">Request to register skill(s)</text><path d="M20,131.9121 L81,131.9121 L81,141.2031 L71,151.2031 L20,151.2031 L20,131.9121 " fill="#EEEEEE" style="stroke:#000000;stroke-width:1.5;"/><rect fill="none" height="142.7949" style="stroke:#000000;stroke-width:1.5;" width="472" x="20" y="131.9121"/><text fill="#000000" font-family="sans-serif" font-size="13" font-weight="bold" lengthAdjust="spacing" textLength="16" x="35" y="146.9404">alt</text><text fill="#000000" font-family="sans-serif" font-size="11" font-weight="bold" lengthAdjust="spacing" textLength="82" x="96" y="145.7822">[Valid request]</text><line style="stroke:#181818;stroke-width:1.0;" x1="291" x2="333" y1="174.4941" y2="174.4941"/><line style="stroke:#181818;stroke-width:1.0;" x1="333" x2="333" y1="174.4941" y2="187.4941"/><line style="stroke:#181818;stroke-width:1.0;" x1="292" x2="333" y1="187.4941" y2="187.4941"/><polygon fill="#181818" points="302,183.4941,292,187.4941,302,191.4941,298,187.4941" style="stroke:#181818;stroke-width:1.0;"/><text fill="#000000" font-family="sans-serif" font-size="13" lengthAdjust="spacing" textLength="182" x="298" y="169.2314">Display skill(s) registration form</text><polygon fill="#181818" points="59,214.7852,49,218.7852,59,222.7852,55,218.7852" style="stroke:#181818;stroke-width:1.0;"/><line style="stroke:#181818;stroke-width:1.0;" x1="53" x2="280" y1="218.7852" y2="218.7852"/><text fill="#000000" font-family="sans-serif" font-size="13" lengthAdjust="spacing" textLength="126" x="65" y="213.5225">Provide skill(s) details</text><line style="stroke:#000000;stroke-width:1.0;stroke-dasharray:2.0,2.0;" x1="20" x2="492" y1="227.7852" y2="227.7852"/><text fill="#000000" font-family="sans-serif" font-size="11" font-weight="bold" lengthAdjust="spacing" textLength="90" x="25" y="239.6553">[Invalid request]</text><polygon fill="#181818" points="59,262.707,49,266.707,59,270.707,55,266.707" style="stroke:#181818;stroke-width:1.0;"/><line style="stroke:#181818;stroke-width:1.0;stroke-dasharray:2.0,2.0;" x1="53" x2="280" y1="266.707" y2="266.707"/><text fill="#000000" font-family="sans-serif" font-size="13" lengthAdjust="spacing" textLength="119" x="65" y="261.4443">Notify invalid request</text><path d="M10,288.707 L83,288.707 L83,297.998 L73,307.998 L10,307.998 L10,288.707 " fill="#EEEEEE" style="stroke:#000000;stroke-width:1.5;"/><rect fill="none" height="408.4629" style="stroke:#000000;stroke-width:1.5;" width="492" x="10" y="288.707"/><text fill="#000000" font-family="sans-serif" font-size="13" font-weight="bold" lengthAdjust="spacing" textLength="28" x="25" y="303.7354">loop</text><text fill="#000000" font-family="sans-serif" font-size="11" font-weight="bold" lengthAdjust="spacing" textLength="186" x="98" y="302.5771">[while HRM enters skill(s) details]</text><path d="M20,314.998 L81,314.998 L81,324.2891 L71,334.2891 L20,334.2891 L20,314.998 " fill="#EEEEEE" style="stroke:#000000;stroke-width:1.5;"/><rect fill="none" height="142.7949" style="stroke:#000000;stroke-width:1.5;" width="472" x="20" y="314.998"/><text fill="#000000" font-family="sans-serif" font-size="13" font-weight="bold" lengthAdjust="spacing" textLength="16" x="35" y="330.0264">alt</text><text fill="#000000" font-family="sans-serif" font-size="11" font-weight="bold" lengthAdjust="spacing" textLength="82" x="96" y="328.8682">[Valid request]</text><line style="stroke:#181818;stroke-width:1.0;" x1="291" x2="333" y1="357.5801" y2="357.5801"/><line style="stroke:#181818;stroke-width:1.0;" x1="333" x2="333" y1="357.5801" y2="370.5801"/><line style="stroke:#181818;stroke-width:1.0;" x1="292" x2="333" y1="370.5801" y2="370.5801"/><polygon fill="#181818" points="302,366.5801,292,370.5801,302,374.5801,298,370.5801" style="stroke:#181818;stroke-width:1.0;"/><text fill="#000000" font-family="sans-serif" font-size="13" lengthAdjust="spacing" textLength="182" x="298" y="352.3174">Display skill(s) registration form</text><polygon fill="#181818" points="59,397.8711,49,401.8711,59,405.8711,55,401.8711" style="stroke:#181818;stroke-width:1.0;"/><line style="stroke:#181818;stroke-width:1.0;" x1="53" x2="280" y1="401.8711" y2="401.8711"/><text fill="#000000" font-family="sans-serif" font-size="13" lengthAdjust="spacing" textLength="126" x="65" y="396.6084">Provide skill(s) details</text><line style="stroke:#000000;stroke-width:1.0;stroke-dasharray:2.0,2.0;" x1="20" x2="492" y1="410.8711" y2="410.8711"/><text fill="#000000" font-family="sans-serif" font-size="11" font-weight="bold" lengthAdjust="spacing" textLength="90" x="25" y="422.7412">[Invalid request]</text><polygon fill="#181818" points="59,445.793,49,449.793,59,453.793,55,449.793" style="stroke:#181818;stroke-width:1.0;"/><line style="stroke:#181818;stroke-width:1.0;stroke-dasharray:2.0,2.0;" x1="53" x2="280" y1="449.793" y2="449.793"/><text fill="#000000" font-family="sans-serif" font-size="13" lengthAdjust="spacing" textLength="119" x="65" y="444.5303">Notify invalid request</text><polygon fill="#181818" points="269,484.084,279,488.084,269,492.084,273,488.084" style="stroke:#181818;stroke-width:1.0;"/><line style="stroke:#181818;stroke-width:1.0;" x1="48" x2="275" y1="488.084" y2="488.084"/><text fill="#000000" font-family="sans-serif" font-size="13" lengthAdjust="spacing" textLength="126" x="55" y="482.8213">Provide skill(s) details</text><path d="M20,503.084 L81,503.084 L81,512.375 L71,522.375 L20,522.375 L20,503.084 " fill="#EEEEEE" style="stroke:#000000;stroke-width:1.5;"/><rect fill="none" height="187.0859" style="stroke:#000000;stroke-width:1.5;" width="427" x="20" y="503.084"/><text fill="#000000" font-family="sans-serif" font-size="13" font-weight="bold" lengthAdjust="spacing" textLength="16" x="35" y="518.1123">alt</text><text fill="#000000" font-family="sans-serif" font-size="11" font-weight="bold" lengthAdjust="spacing" textLength="116" x="96" y="516.9541">[Valid skill(s) details]</text><line style="stroke:#181818;stroke-width:1.0;" x1="291" x2="333" y1="545.666" y2="545.666"/><line style="stroke:#181818;stroke-width:1.0;" x1="333" x2="333" y1="545.666" y2="558.666"/><line style="stroke:#181818;stroke-width:1.0;" x1="292" x2="333" y1="558.666" y2="558.666"/><polygon fill="#181818" points="302,554.666,292,558.666,302,562.666,298,558.666" style="stroke:#181818;stroke-width:1.0;"/><text fill="#000000" font-family="sans-serif" font-size="13" lengthAdjust="spacing" textLength="131" x="298" y="540.4033">Validate skill(s) details</text><line style="stroke:#181818;stroke-width:1.0;" x1="291" x2="333" y1="589.957" y2="589.957"/><line style="stroke:#181818;stroke-width:1.0;" x1="333" x2="333" y1="589.957" y2="602.957"/><line style="stroke:#181818;stroke-width:1.0;" x1="292" x2="333" y1="602.957" y2="602.957"/><polygon fill="#181818" points="302,598.957,292,602.957,302,606.957,298,602.957" style="stroke:#181818;stroke-width:1.0;"/><text fill="#000000" font-family="sans-serif" font-size="13" lengthAdjust="spacing" textLength="137" x="298" y="584.6943">Save skill(s) information</text><polygon fill="#181818" points="59,630.248,49,634.248,59,638.248,55,634.248" style="stroke:#181818;stroke-width:1.0;"/><line style="stroke:#181818;stroke-width:1.0;stroke-dasharray:2.0,2.0;" x1="53" x2="280" y1="634.248" y2="634.248"/><text fill="#000000" font-family="sans-serif" font-size="13" lengthAdjust="spacing" textLength="209" x="65" y="628.9854">Notify successful skill(s) registration</text><line style="stroke:#000000;stroke-width:1.0;stroke-dasharray:2.0,2.0;" x1="20" x2="447" y1="643.248" y2="643.248"/><text fill="#000000" font-family="sans-serif" font-size="11" font-weight="bold" lengthAdjust="spacing" textLength="124" x="25" y="655.1182">[Invalid skill(s) details]</text><polygon fill="#181818" points="59,678.1699,49,682.1699,59,686.1699,55,682.1699" style="stroke:#181818;stroke-width:1.0;"/><line style="stroke:#181818;stroke-width:1.0;stroke-dasharray:2.0,2.0;" x1="53" x2="280" y1="682.1699" y2="682.1699"/><text fill="#000000" font-family="sans-serif" font-size="13" lengthAdjust="spacing" textLength="156" x="65" y="676.9072">Notify invalid skill(s) details</text><!--SRC=[rPA_KiCm3CPtFuKk4moyG0Sc1XZWkFQENMSheCErKqi9bxV7SKi9STCTB_wZJvA_durMOuBcSVlS00hasNIOb2rt61IQtIXA-n8xBet96hYxFsqtiAL3JwAW4HAzSpvC89_i_OtS6hJA0ogTaz4hlA5dbyKbpq0Un-YywWDBvt4yLphLJgWS0xGnxHU9-LORU4rnO4U_MOuKsOiXBmHFOLZj_5FX9Igt8_12Ii4PusFiuEk3FKrQe92jIjthFrjSlErgivd9AbOxBSBf5rJQosHsECoq72OMXSerFz9RIo9jxoyJ_GlewarMIDN8CxA2pT7Yety3]--></g></svg>