<?xml version="1.0" encoding="us-ascii" standalone="no"?><svg xmlns="http://www.w3.org/2000/svg" xmlns:xlink="http://www.w3.org/1999/xlink" contentStyleType="text/css" height="1357px" preserveAspectRatio="none" style="width:1071px;height:1357px;background:#FFFFFF;" version="1.1" viewBox="0 0 1071 1357" width="1071px" zoomAndPan="magnify"><defs/><g><!--class Collaborator--><g id="elem_Collaborator"><rect codeLine="13" fill="#F1F1F1" height="327.3164" id="Collaborator" rx="2.5" ry="2.5" style="stroke:#181818;stroke-width:0.5;" width="778" x="67" y="1023"/><ellipse cx="412.75" cy="1039" fill="#ADD1B2" rx="11" ry="11" style="stroke:#181818;stroke-width:1.0;"/><path d="M415.5156,1034.875 Q415.6719,1034.6563 415.8594,1034.5469 Q416.0469,1034.4375 416.2656,1034.4375 Q416.6406,1034.4375 416.875,1034.7031 Q417.1094,1034.9531 417.1094,1035.5625 L417.1094,1037.0156 Q417.1094,1037.625 416.875,1037.8906 Q416.6406,1038.1563 416.2656,1038.1563 Q415.9219,1038.1563 415.7188,1037.9531 Q415.5156,1037.7656 415.4063,1037.25 Q415.3594,1036.8906 415.1719,1036.7031 Q414.8438,1036.3281 414.2344,1036.1094 Q413.625,1035.8906 413,1035.8906 Q412.2344,1035.8906 411.5938,1036.2188 Q410.9688,1036.5469 410.4688,1037.2969 Q409.9844,1038.0469 409.9844,1039.0781 L409.9844,1040.1719 Q409.9844,1041.4063 410.875,1042.2344 Q411.7656,1043.0469 413.3594,1043.0469 Q414.2969,1043.0469 414.9531,1042.7969 Q415.3438,1042.6406 415.7656,1042.2031 Q416.0313,1041.9375 416.1719,1041.8594 Q416.3281,1041.7813 416.5313,1041.7813 Q416.8594,1041.7813 417.1094,1042.0469 Q417.375,1042.2969 417.375,1042.6406 Q417.375,1042.9844 417.0313,1043.3906 Q416.5313,1043.9688 415.7344,1044.2969 Q414.6563,1044.75 413.3594,1044.75 Q411.8438,1044.75 410.6406,1044.125 Q409.6563,1043.625 408.9688,1042.5625 Q408.2813,1041.4844 408.2813,1040.2031 L408.2813,1039.0469 Q408.2813,1037.7188 408.8906,1036.5781 Q409.5156,1035.4219 410.6094,1034.8125 Q411.7031,1034.1875 412.9375,1034.1875 Q413.6719,1034.1875 414.3125,1034.3594 Q414.9688,1034.5156 415.5156,1034.875 Z " fill="#000000"/><text fill="#000000" font-family="sans-serif" font-size="14" lengthAdjust="spacing" textLength="78" x="433.25" y="1044.7969">Collaborator</text><line style="stroke:#181818;stroke-width:0.5;" x1="68" x2="844" y1="1055" y2="1055"/><text fill="#000000" font-family="sans-serif" font-size="14" lengthAdjust="spacing" textLength="79" x="73" y="1074.1074">-String email</text><text fill="#000000" font-family="sans-serif" font-size="14" lengthAdjust="spacing" textLength="81" x="73" y="1092.7285">-String name</text><text fill="#000000" font-family="sans-serif" font-size="14" lengthAdjust="spacing" textLength="97" x="73" y="1111.3496">-String address</text><text fill="#000000" font-family="sans-serif" font-size="14" lengthAdjust="spacing" textLength="86" x="73" y="1129.9707">-String phone</text><text fill="#000000" font-family="sans-serif" font-size="14" lengthAdjust="spacing" textLength="50" x="73" y="1148.5918">-Job job</text><text fill="#000000" font-family="sans-serif" font-size="14" lengthAdjust="spacing" textLength="102" x="73" y="1167.2129">-List&lt;Skill&gt; skills</text><text fill="#000000" font-family="sans-serif" font-size="14" lengthAdjust="spacing" textLength="97" x="73" y="1185.834">-Date birthDate</text><text fill="#000000" font-family="sans-serif" font-size="14" lengthAdjust="spacing" textLength="132" x="73" y="1204.4551">-Date admissionDate</text><text fill="#000000" font-family="sans-serif" font-size="14" lengthAdjust="spacing" textLength="86" x="73" y="1223.0762">-String IDtype</text><text fill="#000000" font-family="sans-serif" font-size="14" lengthAdjust="spacing" textLength="127" x="73" y="1241.6973">-int taxpayerNumber</text><text fill="#000000" font-family="sans-serif" font-size="14" lengthAdjust="spacing" textLength="112" x="73" y="1260.3184">-int citizenNumber</text><text fill="#000000" font-family="sans-serif" font-size="14" lengthAdjust="spacing" textLength="100" x="73" y="1278.9395">-boolean isFree</text><line style="stroke:#181818;stroke-width:0.5;" x1="68" x2="844" y1="1286.4531" y2="1286.4531"/><text fill="#000000" font-family="sans-serif" font-size="14" lengthAdjust="spacing" textLength="766" x="73" y="1305.5605">+Collaborator(email, name, address, phone, job, birthDate, admissionDate, IDtype, taxpayerNumber, citizenNumber, skills)</text><text fill="#000000" font-family="sans-serif" font-size="14" lengthAdjust="spacing" textLength="90" x="73" y="1324.1816">+addSkill(skill)</text><text fill="#000000" font-family="sans-serif" font-size="14" lengthAdjust="spacing" textLength="113" x="73" y="1342.8027">+removeSkill(skill)</text></g><!--class AssignTeamToAgendaEntryGUI--><g id="elem_AssignTeamToAgendaEntryGUI"><rect codeLine="33" fill="#F1F1F1" height="48" id="AssignTeamToAgendaEntryGUI" rx="2.5" ry="2.5" style="stroke:#181818;stroke-width:0.5;" width="232" x="88" y="7"/><ellipse cx="103" cy="23" fill="#ADD1B2" rx="11" ry="11" style="stroke:#181818;stroke-width:1.0;"/><path d="M105.7656,18.875 Q105.9219,18.6563 106.1094,18.5469 Q106.2969,18.4375 106.5156,18.4375 Q106.8906,18.4375 107.125,18.7031 Q107.3594,18.9531 107.3594,19.5625 L107.3594,21.0156 Q107.3594,21.625 107.125,21.8906 Q106.8906,22.1563 106.5156,22.1563 Q106.1719,22.1563 105.9688,21.9531 Q105.7656,21.7656 105.6563,21.25 Q105.6094,20.8906 105.4219,20.7031 Q105.0938,20.3281 104.4844,20.1094 Q103.875,19.8906 103.25,19.8906 Q102.4844,19.8906 101.8438,20.2188 Q101.2188,20.5469 100.7188,21.2969 Q100.2344,22.0469 100.2344,23.0781 L100.2344,24.1719 Q100.2344,25.4063 101.125,26.2344 Q102.0156,27.0469 103.6094,27.0469 Q104.5469,27.0469 105.2031,26.7969 Q105.5938,26.6406 106.0156,26.2031 Q106.2813,25.9375 106.4219,25.8594 Q106.5781,25.7813 106.7813,25.7813 Q107.1094,25.7813 107.3594,26.0469 Q107.625,26.2969 107.625,26.6406 Q107.625,26.9844 107.2813,27.3906 Q106.7813,27.9688 105.9844,28.2969 Q104.9063,28.75 103.6094,28.75 Q102.0938,28.75 100.8906,28.125 Q99.9063,27.625 99.2188,26.5625 Q98.5313,25.4844 98.5313,24.2031 L98.5313,23.0469 Q98.5313,21.7188 99.1406,20.5781 Q99.7656,19.4219 100.8594,18.8125 Q101.9531,18.1875 103.1875,18.1875 Q103.9219,18.1875 104.5625,18.3594 Q105.2188,18.5156 105.7656,18.875 Z " fill="#000000"/><text fill="#000000" font-family="sans-serif" font-size="14" lengthAdjust="spacing" textLength="200" x="117" y="28.7969">AssignTeamToAgendaEntryGUI</text><line style="stroke:#181818;stroke-width:0.5;" x1="89" x2="319" y1="39" y2="39"/><line style="stroke:#181818;stroke-width:0.5;" x1="89" x2="319" y1="47" y2="47"/></g><!--class TeamRepository--><g id="elem_TeamRepository"><rect codeLine="36" fill="#F1F1F1" height="66.6211" id="TeamRepository" rx="2.5" ry="2.5" style="stroke:#181818;stroke-width:0.5;" width="136" x="278" y="579"/><ellipse cx="293" cy="595" fill="#ADD1B2" rx="11" ry="11" style="stroke:#181818;stroke-width:1.0;"/><path d="M295.7656,590.875 Q295.9219,590.6563 296.1094,590.5469 Q296.2969,590.4375 296.5156,590.4375 Q296.8906,590.4375 297.125,590.7031 Q297.3594,590.9531 297.3594,591.5625 L297.3594,593.0156 Q297.3594,593.625 297.125,593.8906 Q296.8906,594.1563 296.5156,594.1563 Q296.1719,594.1563 295.9688,593.9531 Q295.7656,593.7656 295.6563,593.25 Q295.6094,592.8906 295.4219,592.7031 Q295.0938,592.3281 294.4844,592.1094 Q293.875,591.8906 293.25,591.8906 Q292.4844,591.8906 291.8438,592.2188 Q291.2188,592.5469 290.7188,593.2969 Q290.2344,594.0469 290.2344,595.0781 L290.2344,596.1719 Q290.2344,597.4063 291.125,598.2344 Q292.0156,599.0469 293.6094,599.0469 Q294.5469,599.0469 295.2031,598.7969 Q295.5938,598.6406 296.0156,598.2031 Q296.2813,597.9375 296.4219,597.8594 Q296.5781,597.7813 296.7813,597.7813 Q297.1094,597.7813 297.3594,598.0469 Q297.625,598.2969 297.625,598.6406 Q297.625,598.9844 297.2813,599.3906 Q296.7813,599.9688 295.9844,600.2969 Q294.9063,600.75 293.6094,600.75 Q292.0938,600.75 290.8906,600.125 Q289.9063,599.625 289.2188,598.5625 Q288.5313,597.4844 288.5313,596.2031 L288.5313,595.0469 Q288.5313,593.7188 289.1406,592.5781 Q289.7656,591.4219 290.8594,590.8125 Q291.9531,590.1875 293.1875,590.1875 Q293.9219,590.1875 294.5625,590.3594 Q295.2188,590.5156 295.7656,590.875 Z " fill="#000000"/><text fill="#000000" font-family="sans-serif" font-size="14" lengthAdjust="spacing" textLength="104" x="307" y="600.7969">TeamRepository</text><line style="stroke:#181818;stroke-width:0.5;" x1="279" x2="413" y1="611" y2="611"/><line style="stroke:#181818;stroke-width:0.5;" x1="279" x2="413" y1="619" y2="619"/><text fill="#000000" font-family="sans-serif" font-size="14" lengthAdjust="spacing" textLength="81" x="284" y="638.1074">+getTeams()</text></g><!--class Agenda--><g id="elem_Agenda"><rect codeLine="40" fill="#F1F1F1" height="122.4844" id="Agenda" rx="2.5" ry="2.5" style="stroke:#181818;stroke-width:0.5;" width="827" x="237.5" y="427"/><ellipse cx="622.25" cy="443" fill="#ADD1B2" rx="11" ry="11" style="stroke:#181818;stroke-width:1.0;"/><path d="M625.0156,438.875 Q625.1719,438.6563 625.3594,438.5469 Q625.5469,438.4375 625.7656,438.4375 Q626.1406,438.4375 626.375,438.7031 Q626.6094,438.9531 626.6094,439.5625 L626.6094,441.0156 Q626.6094,441.625 626.375,441.8906 Q626.1406,442.1563 625.7656,442.1563 Q625.4219,442.1563 625.2188,441.9531 Q625.0156,441.7656 624.9063,441.25 Q624.8594,440.8906 624.6719,440.7031 Q624.3438,440.3281 623.7344,440.1094 Q623.125,439.8906 622.5,439.8906 Q621.7344,439.8906 621.0938,440.2188 Q620.4688,440.5469 619.9688,441.2969 Q619.4844,442.0469 619.4844,443.0781 L619.4844,444.1719 Q619.4844,445.4063 620.375,446.2344 Q621.2656,447.0469 622.8594,447.0469 Q623.7969,447.0469 624.4531,446.7969 Q624.8438,446.6406 625.2656,446.2031 Q625.5313,445.9375 625.6719,445.8594 Q625.8281,445.7813 626.0313,445.7813 Q626.3594,445.7813 626.6094,446.0469 Q626.875,446.2969 626.875,446.6406 Q626.875,446.9844 626.5313,447.3906 Q626.0313,447.9688 625.2344,448.2969 Q624.1563,448.75 622.8594,448.75 Q621.3438,448.75 620.1406,448.125 Q619.1563,447.625 618.4688,446.5625 Q617.7813,445.4844 617.7813,444.2031 L617.7813,443.0469 Q617.7813,441.7188 618.3906,440.5781 Q619.0156,439.4219 620.1094,438.8125 Q621.2031,438.1875 622.4375,438.1875 Q623.1719,438.1875 623.8125,438.3594 Q624.4688,438.5156 625.0156,438.875 Z " fill="#000000"/><text fill="#000000" font-family="sans-serif" font-size="14" lengthAdjust="spacing" textLength="49" x="642.75" y="448.7969">Agenda</text><line style="stroke:#181818;stroke-width:0.5;" x1="238.5" x2="1063.5" y1="459" y2="459"/><line style="stroke:#181818;stroke-width:0.5;" x1="238.5" x2="1063.5" y1="467" y2="467"/><text fill="#000000" font-family="sans-serif" font-size="14" lengthAdjust="spacing" textLength="117" x="243.5" y="486.1074">+add(collaborator)</text><text fill="#000000" font-family="sans-serif" font-size="14" lengthAdjust="spacing" textLength="140" x="243.5" y="504.7285">+remove(collaborator)</text><text fill="#000000" font-family="sans-serif" font-size="14" lengthAdjust="spacing" textLength="815" x="243.5" y="523.3496">+update(collaborator, name, email, address, phone, job, skills, birthDate, admissionDate, IDtype, taxpayerNumber, citizenNumber)</text><text fill="#000000" font-family="sans-serif" font-size="14" lengthAdjust="spacing" textLength="123" x="243.5" y="541.9707">+getCollaborators()</text></g><!--class Repositories--><g id="elem_Repositories"><rect codeLine="47" fill="#F1F1F1" height="103.8633" id="Repositories" rx="2.5" ry="2.5" style="stroke:#181818;stroke-width:0.5;" width="196" x="106" y="262"/><ellipse cx="160.25" cy="278" fill="#ADD1B2" rx="11" ry="11" style="stroke:#181818;stroke-width:1.0;"/><path d="M163.0156,273.875 Q163.1719,273.6563 163.3594,273.5469 Q163.5469,273.4375 163.7656,273.4375 Q164.1406,273.4375 164.375,273.7031 Q164.6094,273.9531 164.6094,274.5625 L164.6094,276.0156 Q164.6094,276.625 164.375,276.8906 Q164.1406,277.1563 163.7656,277.1563 Q163.4219,277.1563 163.2188,276.9531 Q163.0156,276.7656 162.9063,276.25 Q162.8594,275.8906 162.6719,275.7031 Q162.3438,275.3281 161.7344,275.1094 Q161.125,274.8906 160.5,274.8906 Q159.7344,274.8906 159.0938,275.2188 Q158.4688,275.5469 157.9688,276.2969 Q157.4844,277.0469 157.4844,278.0781 L157.4844,279.1719 Q157.4844,280.4063 158.375,281.2344 Q159.2656,282.0469 160.8594,282.0469 Q161.7969,282.0469 162.4531,281.7969 Q162.8438,281.6406 163.2656,281.2031 Q163.5313,280.9375 163.6719,280.8594 Q163.8281,280.7813 164.0313,280.7813 Q164.3594,280.7813 164.6094,281.0469 Q164.875,281.2969 164.875,281.6406 Q164.875,281.9844 164.5313,282.3906 Q164.0313,282.9688 163.2344,283.2969 Q162.1563,283.75 160.8594,283.75 Q159.3438,283.75 158.1406,283.125 Q157.1563,282.625 156.4688,281.5625 Q155.7813,280.4844 155.7813,279.2031 L155.7813,278.0469 Q155.7813,276.7188 156.3906,275.5781 Q157.0156,274.4219 158.1094,273.8125 Q159.2031,273.1875 160.4375,273.1875 Q161.1719,273.1875 161.8125,273.3594 Q162.4688,273.5156 163.0156,273.875 Z " fill="#000000"/><text fill="#000000" font-family="sans-serif" font-size="14" lengthAdjust="spacing" textLength="79" x="180.75" y="283.7969">Repositories</text><line style="stroke:#181818;stroke-width:0.5;" x1="107" x2="301" y1="294" y2="294"/><line style="stroke:#181818;stroke-width:0.5;" x1="107" x2="301" y1="302" y2="302"/><text fill="#000000" font-family="sans-serif" font-size="14" lengthAdjust="spacing" textLength="91" x="112" y="321.1074">+getInstance()</text><text fill="#000000" font-family="sans-serif" font-size="14" lengthAdjust="spacing" textLength="142" x="112" y="339.7285">+getTeamRepository()</text><text fill="#000000" font-family="sans-serif" font-size="14" lengthAdjust="spacing" textLength="184" x="112" y="358.3496">+getCollaboratorRepository()</text></g><!--class AgendaEntry--><g id="elem_AgendaEntry"><rect codeLine="53" fill="#F1F1F1" height="141.1055" id="AgendaEntry" rx="2.5" ry="2.5" style="stroke:#181818;stroke-width:0.5;" width="114" x="553" y="676"/><ellipse cx="568" cy="692" fill="#ADD1B2" rx="11" ry="11" style="stroke:#181818;stroke-width:1.0;"/><path d="M570.7656,687.875 Q570.9219,687.6563 571.1094,687.5469 Q571.2969,687.4375 571.5156,687.4375 Q571.8906,687.4375 572.125,687.7031 Q572.3594,687.9531 572.3594,688.5625 L572.3594,690.0156 Q572.3594,690.625 572.125,690.8906 Q571.8906,691.1563 571.5156,691.1563 Q571.1719,691.1563 570.9688,690.9531 Q570.7656,690.7656 570.6563,690.25 Q570.6094,689.8906 570.4219,689.7031 Q570.0938,689.3281 569.4844,689.1094 Q568.875,688.8906 568.25,688.8906 Q567.4844,688.8906 566.8438,689.2188 Q566.2188,689.5469 565.7188,690.2969 Q565.2344,691.0469 565.2344,692.0781 L565.2344,693.1719 Q565.2344,694.4063 566.125,695.2344 Q567.0156,696.0469 568.6094,696.0469 Q569.5469,696.0469 570.2031,695.7969 Q570.5938,695.6406 571.0156,695.2031 Q571.2813,694.9375 571.4219,694.8594 Q571.5781,694.7813 571.7813,694.7813 Q572.1094,694.7813 572.3594,695.0469 Q572.625,695.2969 572.625,695.6406 Q572.625,695.9844 572.2813,696.3906 Q571.7813,696.9688 570.9844,697.2969 Q569.9063,697.75 568.6094,697.75 Q567.0938,697.75 565.8906,697.125 Q564.9063,696.625 564.2188,695.5625 Q563.5313,694.4844 563.5313,693.2031 L563.5313,692.0469 Q563.5313,690.7188 564.1406,689.5781 Q564.7656,688.4219 565.8594,687.8125 Q566.9531,687.1875 568.1875,687.1875 Q568.9219,687.1875 569.5625,687.3594 Q570.2188,687.5156 570.7656,687.875 Z " fill="#000000"/><text fill="#000000" font-family="sans-serif" font-size="14" lengthAdjust="spacing" textLength="82" x="582" y="697.7969">AgendaEntry</text><line style="stroke:#181818;stroke-width:0.5;" x1="554" x2="666" y1="708" y2="708"/><text fill="#000000" font-family="sans-serif" font-size="14" lengthAdjust="spacing" textLength="32" x="559" y="727.1074">entry</text><text fill="#000000" font-family="sans-serif" font-size="14" lengthAdjust="spacing" textLength="58" x="559" y="745.7285">startDate</text><text fill="#000000" font-family="sans-serif" font-size="14" lengthAdjust="spacing" textLength="54" x="559" y="764.3496">endDate</text><text fill="#000000" font-family="sans-serif" font-size="14" lengthAdjust="spacing" textLength="38" x="559" y="782.9707">status</text><text fill="#000000" font-family="sans-serif" font-size="14" lengthAdjust="spacing" textLength="51" x="559" y="801.5918">vehicles</text><line style="stroke:#181818;stroke-width:0.5;" x1="554" x2="666" y1="809.1055" y2="809.1055"/></g><!--class TeamController--><g id="elem_TeamController"><rect codeLine="61" fill="#F1F1F1" height="66.6211" id="TeamController" rx="2.5" ry="2.5" style="stroke:#181818;stroke-width:0.5;" width="130" x="7" y="125"/><ellipse cx="22" cy="141" fill="#ADD1B2" rx="11" ry="11" style="stroke:#181818;stroke-width:1.0;"/><path d="M24.7656,136.875 Q24.9219,136.6563 25.1094,136.5469 Q25.2969,136.4375 25.5156,136.4375 Q25.8906,136.4375 26.125,136.7031 Q26.3594,136.9531 26.3594,137.5625 L26.3594,139.0156 Q26.3594,139.625 26.125,139.8906 Q25.8906,140.1563 25.5156,140.1563 Q25.1719,140.1563 24.9688,139.9531 Q24.7656,139.7656 24.6563,139.25 Q24.6094,138.8906 24.4219,138.7031 Q24.0938,138.3281 23.4844,138.1094 Q22.875,137.8906 22.25,137.8906 Q21.4844,137.8906 20.8438,138.2188 Q20.2188,138.5469 19.7188,139.2969 Q19.2344,140.0469 19.2344,141.0781 L19.2344,142.1719 Q19.2344,143.4063 20.125,144.2344 Q21.0156,145.0469 22.6094,145.0469 Q23.5469,145.0469 24.2031,144.7969 Q24.5938,144.6406 25.0156,144.2031 Q25.2813,143.9375 25.4219,143.8594 Q25.5781,143.7813 25.7813,143.7813 Q26.1094,143.7813 26.3594,144.0469 Q26.625,144.2969 26.625,144.6406 Q26.625,144.9844 26.2813,145.3906 Q25.7813,145.9688 24.9844,146.2969 Q23.9063,146.75 22.6094,146.75 Q21.0938,146.75 19.8906,146.125 Q18.9063,145.625 18.2188,144.5625 Q17.5313,143.4844 17.5313,142.2031 L17.5313,141.0469 Q17.5313,139.7188 18.1406,138.5781 Q18.7656,137.4219 19.8594,136.8125 Q20.9531,136.1875 22.1875,136.1875 Q22.9219,136.1875 23.5625,136.3594 Q24.2188,136.5156 24.7656,136.875 Z " fill="#000000"/><text fill="#000000" font-family="sans-serif" font-size="14" lengthAdjust="spacing" textLength="98" x="36" y="146.7969">TeamController</text><line style="stroke:#181818;stroke-width:0.5;" x1="8" x2="136" y1="157" y2="157"/><line style="stroke:#181818;stroke-width:0.5;" x1="8" x2="136" y1="165" y2="165"/><text fill="#000000" font-family="sans-serif" font-size="14" lengthAdjust="spacing" textLength="81" x="13" y="184.1074">+getTeams()</text></g><!--class AgendaController--><g id="elem_AgendaController"><rect codeLine="65" fill="#F1F1F1" height="85.2422" id="AgendaController" rx="2.5" ry="2.5" style="stroke:#181818;stroke-width:0.5;" width="332" x="172" y="116"/><ellipse cx="278.25" cy="132" fill="#ADD1B2" rx="11" ry="11" style="stroke:#181818;stroke-width:1.0;"/><path d="M281.0156,127.875 Q281.1719,127.6563 281.3594,127.5469 Q281.5469,127.4375 281.7656,127.4375 Q282.1406,127.4375 282.375,127.7031 Q282.6094,127.9531 282.6094,128.5625 L282.6094,130.0156 Q282.6094,130.625 282.375,130.8906 Q282.1406,131.1563 281.7656,131.1563 Q281.4219,131.1563 281.2188,130.9531 Q281.0156,130.7656 280.9063,130.25 Q280.8594,129.8906 280.6719,129.7031 Q280.3438,129.3281 279.7344,129.1094 Q279.125,128.8906 278.5,128.8906 Q277.7344,128.8906 277.0938,129.2188 Q276.4688,129.5469 275.9688,130.2969 Q275.4844,131.0469 275.4844,132.0781 L275.4844,133.1719 Q275.4844,134.4063 276.375,135.2344 Q277.2656,136.0469 278.8594,136.0469 Q279.7969,136.0469 280.4531,135.7969 Q280.8438,135.6406 281.2656,135.2031 Q281.5313,134.9375 281.6719,134.8594 Q281.8281,134.7813 282.0313,134.7813 Q282.3594,134.7813 282.6094,135.0469 Q282.875,135.2969 282.875,135.6406 Q282.875,135.9844 282.5313,136.3906 Q282.0313,136.9688 281.2344,137.2969 Q280.1563,137.75 278.8594,137.75 Q277.3438,137.75 276.1406,137.125 Q275.1563,136.625 274.4688,135.5625 Q273.7813,134.4844 273.7813,133.2031 L273.7813,132.0469 Q273.7813,130.7188 274.3906,129.5781 Q275.0156,128.4219 276.1094,127.8125 Q277.2031,127.1875 278.4375,127.1875 Q279.1719,127.1875 279.8125,127.3594 Q280.4688,127.5156 281.0156,127.875 Z " fill="#000000"/><text fill="#000000" font-family="sans-serif" font-size="14" lengthAdjust="spacing" textLength="111" x="298.75" y="137.7969">AgendaController</text><line style="stroke:#181818;stroke-width:0.5;" x1="173" x2="503" y1="148" y2="148"/><line style="stroke:#181818;stroke-width:0.5;" x1="173" x2="503" y1="156" y2="156"/><text fill="#000000" font-family="sans-serif" font-size="14" lengthAdjust="spacing" textLength="320" x="178" y="175.1074">+getTeamsFreeAtDate(startDate, endDate, teams)</text><text fill="#000000" font-family="sans-serif" font-size="14" lengthAdjust="spacing" textLength="177" x="178" y="193.7285">+addTeamToAgendaEntry()</text></g><!--class Team--><g id="elem_Team"><rect fill="#F1F1F1" height="48" id="Team" rx="2.5" ry="2.5" style="stroke:#181818;stroke-width:0.5;" width="68" x="422" y="896"/><ellipse cx="437" cy="912" fill="#ADD1B2" rx="11" ry="11" style="stroke:#181818;stroke-width:1.0;"/><path d="M439.7656,907.875 Q439.9219,907.6563 440.1094,907.5469 Q440.2969,907.4375 440.5156,907.4375 Q440.8906,907.4375 441.125,907.7031 Q441.3594,907.9531 441.3594,908.5625 L441.3594,910.0156 Q441.3594,910.625 441.125,910.8906 Q440.8906,911.1563 440.5156,911.1563 Q440.1719,911.1563 439.9688,910.9531 Q439.7656,910.7656 439.6563,910.25 Q439.6094,909.8906 439.4219,909.7031 Q439.0938,909.3281 438.4844,909.1094 Q437.875,908.8906 437.25,908.8906 Q436.4844,908.8906 435.8438,909.2188 Q435.2188,909.5469 434.7188,910.2969 Q434.2344,911.0469 434.2344,912.0781 L434.2344,913.1719 Q434.2344,914.4063 435.125,915.2344 Q436.0156,916.0469 437.6094,916.0469 Q438.5469,916.0469 439.2031,915.7969 Q439.5938,915.6406 440.0156,915.2031 Q440.2813,914.9375 440.4219,914.8594 Q440.5781,914.7813 440.7813,914.7813 Q441.1094,914.7813 441.3594,915.0469 Q441.625,915.2969 441.625,915.6406 Q441.625,915.9844 441.2813,916.3906 Q440.7813,916.9688 439.9844,917.2969 Q438.9063,917.75 437.6094,917.75 Q436.0938,917.75 434.8906,917.125 Q433.9063,916.625 433.2188,915.5625 Q432.5313,914.4844 432.5313,913.2031 L432.5313,912.0469 Q432.5313,910.7188 433.1406,909.5781 Q433.7656,908.4219 434.8594,907.8125 Q435.9531,907.1875 437.1875,907.1875 Q437.9219,907.1875 438.5625,907.3594 Q439.2188,907.5156 439.7656,907.875 Z " fill="#000000"/><text fill="#000000" font-family="sans-serif" font-size="14" lengthAdjust="spacing" textLength="36" x="451" y="917.7969">Team</text><line style="stroke:#181818;stroke-width:0.5;" x1="423" x2="489" y1="928" y2="928"/><line style="stroke:#181818;stroke-width:0.5;" x1="423" x2="489" y1="936" y2="936"/></g><!--link AssignTeamToAgendaEntryGUI to TeamController--><g id="link_AssignTeamToAgendaEntryGUI_TeamController"><path codeLine="70" d="M179.79,55.02 C159.25,74.55 133.878,98.6654 110.848,120.5654 " fill="none" id="AssignTeamToAgendaEntryGUI-to-TeamController" style="stroke:#181818;stroke-width:1.0;"/><polygon fill="#181818" points="106.5,124.7,115.7784,121.3967,110.1233,121.2545,110.2655,115.5994,106.5,124.7" style="stroke:#181818;stroke-width:1.0;"/></g><!--link AssignTeamToAgendaEntryGUI to AgendaController--><g id="link_AssignTeamToAgendaEntryGUI_AgendaController"><path codeLine="71" d="M228.58,55.02 C246.71,72 267.5109,91.4783 289.1409,111.7383 " fill="none" id="AssignTeamToAgendaEntryGUI-to-AgendaController" style="stroke:#181818;stroke-width:1.0;"/><polygon fill="#181818" points="293.52,115.84,289.6859,106.7681,289.8708,112.4219,284.217,112.6068,293.52,115.84" style="stroke:#181818;stroke-width:1.0;"/></g><!--link AgendaController to Repositories--><g id="link_AgendaController_Repositories"><path codeLine="72" d="M301.74,201.04 C285.38,219.77 269.8558,237.56 252.6058,257.32 " fill="none" id="AgendaController-to-Repositories" style="stroke:#181818;stroke-width:1.0;"/><polygon fill="#181818" points="248.66,261.84,257.5921,257.6906,251.9482,258.0733,251.5654,252.4295,248.66,261.84" style="stroke:#181818;stroke-width:1.0;"/></g><!--link TeamController to Repositories--><g id="link_TeamController_Repositories"><path codeLine="73" d="M99.99,192.05 C117.4,212.29 136.2487,234.21 156.0287,257.22 " fill="none" id="TeamController-to-Repositories" style="stroke:#181818;stroke-width:1.0;"/><polygon fill="#181818" points="159.94,261.77,157.1064,252.3376,156.6806,257.9784,151.0398,257.5526,159.94,261.77" style="stroke:#181818;stroke-width:1.0;"/></g><!--link Repositories to TeamRepository--><g id="link_Repositories_TeamRepository"><path codeLine="74" d="M207.49,366.06 C212.2,434.92 220,549 220,549 C220,549 244.425,561.1136 275.045,576.3036 " fill="none" id="Repositories-to-TeamRepository" style="stroke:#181818;stroke-width:1.0;"/><polygon fill="#181818" points="280.42,578.97,274.1352,571.3871,275.9409,576.748,270.5799,578.5537,280.42,578.97" style="stroke:#181818;stroke-width:1.0;"/></g><!--link Repositories to Agenda--><g id="link_Repositories_Agenda"><path codeLine="75" d="M302.1,352.75 C358.51,374.45 425.0805,400.0647 489.1205,424.7147 " fill="none" id="Repositories-to-Agenda" style="stroke:#181818;stroke-width:1.0;"/><polygon fill="#181818" points="494.72,426.87,487.7576,419.904,490.0537,425.0739,484.8838,427.37,494.72,426.87" style="stroke:#181818;stroke-width:1.0;"/></g><!--link TeamRepository to Team--><g id="link_TeamRepository_Team"><path codeLine="76" d="M357.77,646.19 C380.11,708.23 426.1073,835.9748 445.5473,889.9648 " fill="none" id="TeamRepository-to-Team" style="stroke:#181818;stroke-width:1.0;"/><polygon fill="#181818" points="447.58,895.61,448.2945,885.7871,445.8861,890.9057,440.7676,888.4973,447.58,895.61" style="stroke:#181818;stroke-width:1.0;"/><text fill="#000000" font-family="sans-serif" font-size="13" lengthAdjust="spacing" textLength="49" x="418" y="752.0283">contains</text></g><!--link Team to Collaborator--><g id="link_Team_Collaborator"><path codeLine="77" d="M456,944.01 C456,962.99 456,985.78 456,1016.94 " fill="none" id="Team-to-Collaborator" style="stroke:#181818;stroke-width:1.0;"/><polygon fill="#181818" points="456,1022.94,460,1013.94,456,1017.94,452,1013.94,456,1022.94" style="stroke:#181818;stroke-width:1.0;"/><text fill="#000000" font-family="sans-serif" font-size="13" lengthAdjust="spacing" textLength="51" x="457" y="989.0283">Contains</text></g><!--link Agenda to AgendaEntry--><g id="link_Agenda_AgendaEntry"><path codeLine="78" d="M641.39,549.14 C635.33,587.04 628.4268,630.2152 622.0968,669.8252 " fill="none" id="Agenda-to-AgendaEntry" style="stroke:#181818;stroke-width:1.0;"/><polygon fill="#181818" points="621.15,675.75,626.5201,667.494,621.939,670.8126,618.6204,666.2315,621.15,675.75" style="stroke:#181818;stroke-width:1.0;"/><text fill="#000000" font-family="sans-serif" font-size="13" lengthAdjust="spacing" textLength="51" x="637" y="618.0283">Contains</text></g><!--link AgendaEntry to Team--><g id="link_AgendaEntry_Team"><path codeLine="79" d="M552.66,811.36 C526.15,840.88 500.3095,869.6563 480.8895,891.2763 " fill="none" id="AgendaEntry-to-Team" style="stroke:#181818;stroke-width:1.0;"/><polygon fill="#181818" points="476.88,895.74,485.87,891.7175,480.2212,892.0203,479.9184,886.3715,476.88,895.74" style="stroke:#181818;stroke-width:1.0;"/><text fill="#000000" font-family="sans-serif" font-size="13" lengthAdjust="spacing" textLength="51" x="520" y="862.0283">Contains</text></g><!--SRC=[fLJ1RjmW4Btp5TpMgx1Ipr4LQPMqrLPL3ztq0x0ziUbYnW8shLlbtmlOsE3TD8VwOZplCVFc3NXZJaBrNFEETgYmQZLsGAq-0rcGdbSdti3H3XAeXiforSYKO5fUuq-X6lh4fKaHAHJOeGVQenpy1zbS0L5R9CckId9ZzjPgKPuj72fKH_4Rw3j2DXAUBBL8jMXQIslXvGXKn3rX5xr7ANc9cblKz0-XxjdHeqlbr477XSn3YdUGHtXTQp0c3_OjgiZxZ2NzWUNqzKKO-_vu4bBUKUDVSUS3jq1BeMthLscGrvqmngbEWAdEuS4RCiM4SgtoNpqVG7yzToNe1AY4TPweB5uYIk2A2lDH0v0GlSaSAO85BBJDOgjiR8_vhjWYcUL2sIIEhJInN0gRNDXErLsDu4uHmZ6geSDdo82NUOHxLxDHZy2xHzmte6h-GLazVFf-S0DzYIoFVuCUZN1z3TEeRsW3rYEcs2xKCSbCSPAAAZ4b5tKLElUrio23eecJerUz7AtuRq-tIs_fCBCUPoi4cDICWpBklbPGR7E35kkALz9dZ9MNOI1Z5V3Bi7A5j9tFjAFDQuVOytWndg4LbGIJ3_8UNHPN6_JRStoTwq_zFYWePYqi2d4UUqvoBYzEs5Zh7yTljxjRoNsBlPPCre70IeT7yWANU3Rfg6WPrYK-bYIh2nDttbBtVxLSgB5oY6S_qLjw7mdJHLgIXbul6MCuLaZmlm00]--></g></svg>