<?xml version="1.0" encoding="us-ascii" standalone="no"?><svg xmlns="http://www.w3.org/2000/svg" xmlns:xlink="http://www.w3.org/1999/xlink" contentStyleType="text/css" height="433px" preserveAspectRatio="none" style="width:1229px;height:433px;background:#FFFFFF;" version="1.1" viewBox="0 0 1229 433" width="1229px" zoomAndPan="magnify"><defs/><g><rect fill="#FFFFFF" height="251.3281" style="stroke:#181818;stroke-width:1.0;" width="10" x="506" y="107.8242"/><rect fill="#FFFFFF" height="31.291" style="stroke:#181818;stroke-width:1.0;" width="10" x="718" y="289.5703"/><rect fill="#FFFFFF" height="65.582" style="stroke:#181818;stroke-width:1.0;" width="10" x="1070" y="192.6973"/><rect fill="none" height="206.0371" style="stroke:#000000;stroke-width:1.5;" width="801" x="422" y="122.8242"/><line style="stroke:#181818;stroke-width:0.5;stroke-dasharray:5.0,5.0;" x1="511" x2="511" y1="57.2422" y2="377.1523"/><line style="stroke:#181818;stroke-width:0.5;stroke-dasharray:5.0,5.0;" x1="722.5" x2="722.5" y1="57.2422" y2="377.1523"/><line style="stroke:#181818;stroke-width:0.5;stroke-dasharray:5.0,5.0;" x1="1075" x2="1075" y1="176.4063" y2="377.1523"/><rect fill="#E3E3E3" height="32.6211" rx="2.5" ry="2.5" style="stroke:#181818;stroke-width:0.5;" width="158" x="432" y="23.6211"/><text fill="#000000" font-family="sans-serif" font-size="14" lengthAdjust="spacing" textLength="144" x="439" y="45.7285">:CollaboratorController</text><rect fill="#E3E3E3" height="32.6211" rx="2.5" ry="2.5" style="stroke:#181818;stroke-width:0.5;" width="158" x="432" y="376.1523"/><text fill="#000000" font-family="sans-serif" font-size="14" lengthAdjust="spacing" textLength="144" x="439" y="398.2598">:CollaboratorController</text><rect fill="#E3E3E3" height="51.2422" rx="2.5" ry="2.5" style="stroke:#181818;stroke-width:0.5;" width="161" x="642.5" y="5"/><text fill="#000000" font-family="sans-serif" font-size="14" lengthAdjust="spacing" textLength="147" x="649.5" y="27.1074">collaboratorRepository:</text><text fill="#000000" font-family="sans-serif" font-size="14" lengthAdjust="spacing" textLength="146" x="650" y="45.7285">CollaboratorRepository</text><rect fill="#E3E3E3" height="51.2422" rx="2.5" ry="2.5" style="stroke:#181818;stroke-width:0.5;" width="161" x="642.5" y="376.1523"/><text fill="#000000" font-family="sans-serif" font-size="14" lengthAdjust="spacing" textLength="147" x="649.5" y="398.2598">collaboratorRepository:</text><text fill="#000000" font-family="sans-serif" font-size="14" lengthAdjust="spacing" textLength="146" x="650" y="416.8809">CollaboratorRepository</text><rect fill="#E3E3E3" height="32.6211" rx="2.5" ry="2.5" style="stroke:#181818;stroke-width:0.5;" width="96" x="1027" y="376.1523"/><text fill="#000000" font-family="sans-serif" font-size="14" lengthAdjust="spacing" textLength="82" x="1034" y="398.2598">:Collaborator</text><rect fill="#FFFFFF" height="251.3281" style="stroke:#181818;stroke-width:1.0;" width="10" x="506" y="107.8242"/><rect fill="#FFFFFF" height="31.291" style="stroke:#181818;stroke-width:1.0;" width="10" x="718" y="289.5703"/><rect fill="#FFFFFF" height="65.582" style="stroke:#181818;stroke-width:1.0;" width="10" x="1070" y="192.6973"/><polygon fill="#181818" points="494,103.8242,504,107.8242,494,111.8242,498,107.8242" style="stroke:#181818;stroke-width:1.0;"/><line style="stroke:#181818;stroke-width:1.0;" x1="0" x2="500" y1="107.8242" y2="107.8242"/><text fill="#000000" font-family="sans-serif" font-size="13" font-weight="bold" lengthAdjust="spacing" textLength="14" x="7" y="93.916">21</text><text fill="#000000" font-family="sans-serif" font-size="13" lengthAdjust="spacing" textLength="396" x="25" y="85.2705">createCLB(name, birthdate, contactMobile, email, address, zipCode,</text><text fill="#000000" font-family="sans-serif" font-size="13" lengthAdjust="spacing" textLength="465" x="29" y="102.5615">city, documentType, identificationNumber, admissionDate, job, taxpayerNumber)</text><path d="M422,122.8242 L602,122.8242 L602,132.1152 L592,142.1152 L422,142.1152 L422,122.8242 " fill="#EEEEEE" style="stroke:#000000;stroke-width:1.5;"/><rect fill="none" height="206.0371" style="stroke:#000000;stroke-width:1.5;" width="801" x="422" y="122.8242"/><text fill="#000000" font-family="sans-serif" font-size="13" font-weight="bold" lengthAdjust="spacing" textLength="135" x="437" y="137.8525">Register Collaborator</text><polygon fill="#181818" points="1015,178.6973,1025,182.6973,1015,186.6973,1019,182.6973" style="stroke:#181818;stroke-width:1.0;"/><line style="stroke:#181818;stroke-width:1.0;" x1="516" x2="1021" y1="182.6973" y2="182.6973"/><text fill="#000000" font-family="sans-serif" font-size="13" font-weight="bold" lengthAdjust="spacing" textLength="14" x="523" y="168.7891">22</text><text fill="#000000" font-family="sans-serif" font-size="13" lengthAdjust="spacing" textLength="341" x="541" y="160.1436">createCLB(name, birthdate, contactMobile, email, address,</text><text fill="#000000" font-family="sans-serif" font-size="13" lengthAdjust="spacing" textLength="465" x="545" y="177.4346">city, documentType, identificationNumber, admissionDate, job, taxpayerNumber)</text><rect fill="#E3E3E3" height="32.6211" rx="2.5" ry="2.5" style="stroke:#181818;stroke-width:0.5;" width="96" x="1027" y="147.0762"/><text fill="#000000" font-family="sans-serif" font-size="14" lengthAdjust="spacing" textLength="82" x="1034" y="169.1836">:Collaborator</text><line style="stroke:#181818;stroke-width:1.0;" x1="1080" x2="1122" y1="213.9883" y2="213.9883"/><line style="stroke:#181818;stroke-width:1.0;" x1="1122" x2="1122" y1="213.9883" y2="226.9883"/><line style="stroke:#181818;stroke-width:1.0;" x1="1081" x2="1122" y1="226.9883" y2="226.9883"/><polygon fill="#181818" points="1091,222.9883,1081,226.9883,1091,230.9883,1087,226.9883" style="stroke:#181818;stroke-width:1.0;"/><text fill="#000000" font-family="sans-serif" font-size="13" font-weight="bold" lengthAdjust="spacing" textLength="14" x="1087" y="208.7256">23</text><text fill="#000000" font-family="sans-serif" font-size="13" lengthAdjust="spacing" textLength="106" x="1105" y="208.7256">verifyCollaborator()</text><polygon fill="#181818" points="527,254.2793,517,258.2793,527,262.2793,523,258.2793" style="stroke:#181818;stroke-width:1.0;"/><line style="stroke:#181818;stroke-width:1.0;" x1="521" x2="1074" y1="258.2793" y2="258.2793"/><text fill="#000000" font-family="sans-serif" font-size="13" font-weight="bold" lengthAdjust="spacing" textLength="14" x="533" y="253.0166">24</text><text fill="#000000" font-family="sans-serif" font-size="13" lengthAdjust="spacing" textLength="110" x="551" y="253.0166">returnCollaborator()</text><polygon fill="#181818" points="706,285.5703,716,289.5703,706,293.5703,710,289.5703" style="stroke:#181818;stroke-width:1.0;"/><line style="stroke:#181818;stroke-width:1.0;" x1="516" x2="712" y1="289.5703" y2="289.5703"/><text fill="#000000" font-family="sans-serif" font-size="13" font-weight="bold" lengthAdjust="spacing" textLength="14" x="523" y="284.3076">25</text><text fill="#000000" font-family="sans-serif" font-size="13" lengthAdjust="spacing" textLength="165" x="541" y="284.3076">addCollaborator(collaborator)</text><polygon fill="#181818" points="527,316.8613,517,320.8613,527,324.8613,523,320.8613" style="stroke:#181818;stroke-width:1.0;"/><line style="stroke:#181818;stroke-width:1.0;" x1="521" x2="722" y1="320.8613" y2="320.8613"/><text fill="#000000" font-family="sans-serif" font-size="13" font-weight="bold" lengthAdjust="spacing" textLength="14" x="533" y="315.5986">26</text><text fill="#000000" font-family="sans-serif" font-size="13" lengthAdjust="spacing" textLength="42" x="551" y="315.5986">sucess</text><polygon fill="#181818" points="11,355.1523,1,359.1523,11,363.1523,7,359.1523" style="stroke:#181818;stroke-width:1.0;"/><line style="stroke:#181818;stroke-width:1.0;stroke-dasharray:2.0,2.0;" x1="5" x2="510" y1="359.1523" y2="359.1523"/><text fill="#000000" font-family="sans-serif" font-size="13" font-weight="bold" lengthAdjust="spacing" textLength="14" x="17" y="353.8896">27</text><text fill="#000000" font-family="sans-serif" font-size="13" lengthAdjust="spacing" textLength="42" x="35" y="353.8896">sucess</text><!--SRC=[hLAnRjj03Dtr5KIcD927P2bW51sYP7E2misOXRgZPIRIdS2ZqgfVNqggqxEHP6av7Sbtv7iaqpE77WKxw6A8RY-n8r0Pg4YlcHxTCpRqNSUMGCWfXgRD0McFFlxWqC0EsqH5OM5bnpq6XRDr5TiMwoYeKQeOLCmdEGDCK3riDyTebu6trCV4zXZNZw5wCx5KsLnlRxzzqFM0AWeSD8QXgqdWwh9OVPqPm1gS42ePv3nWHoNKBBht5Yh16MLqUXThRisb3haj0RqNIgc4NznNqLFv6C2nZYNuw8QEWZwClS7PsvDtx50vXlkvzVIxuvGiS3EtU8fr2Oe_Unn95iodOwvNvZhb5uClGmEpHkBGmvOQJcgWNF6SdspMD-dSN5zS_8lG_w_lGF6lCDiGP6R-7-f6_8M4TsEkyJohaSENZGhf8E44Vu1wEchwrhJiejQJ-ACA-NM-es2wn5DQ5ikOfS7PGD_XylgTWbyMlBZvCNoU8rzMgvEAHLvgEfBYDm00]--></g></svg>