<?xml version="1.0" encoding="us-ascii" standalone="no"?><svg xmlns="http://www.w3.org/2000/svg" xmlns:xlink="http://www.w3.org/1999/xlink" contentStyleType="text/css" height="640px" preserveAspectRatio="none" style="width:603px;height:640px;background:#FFFFFF;" version="1.1" viewBox="0 0 603 640" width="603px" zoomAndPan="magnify"><defs/><g><rect fill="#FFFFFF" height="176.0859" style="stroke:#181818;stroke-width:1.0;" width="10" x="365" y="116.9121"/><rect fill="#FFFFFF" height="194.0859" style="stroke:#181818;stroke-width:1.0;" width="10" x="365" y="331.2891"/><rect fill="none" height="408.4629" style="stroke:#000000;stroke-width:1.5;" width="587" x="10" y="131.9121"/><rect fill="none" height="142.7949" style="stroke:#000000;stroke-width:1.5;" width="567" x="20" y="158.2031"/><rect fill="none" height="187.0859" style="stroke:#000000;stroke-width:1.5;" width="522" x="20" y="346.2891"/><line style="stroke:#181818;stroke-width:0.5;stroke-dasharray:5.0,5.0;" x1="121" x2="121" y1="83.6211" y2="557.375"/><line style="stroke:#181818;stroke-width:0.5;stroke-dasharray:5.0,5.0;" x1="370" x2="370" y1="83.6211" y2="557.375"/><text fill="#000000" font-family="sans-serif" font-size="14" lengthAdjust="spacing" textLength="176" x="30" y="80.1074">Human Resources Manager</text><ellipse cx="121" cy="13.5" fill="#E2E2F0" rx="8" ry="8" style="stroke:#181818;stroke-width:0.5;"/><path d="M121,21.5 L121,48.5 M108,29.5 L134,29.5 M121,48.5 L108,63.5 M121,48.5 L134,63.5 " fill="none" style="stroke:#181818;stroke-width:0.5;"/><text fill="#000000" font-family="sans-serif" font-size="14" lengthAdjust="spacing" textLength="176" x="30" y="571.4824">Human Resources Manager</text><ellipse cx="121" cy="583.4961" fill="#E2E2F0" rx="8" ry="8" style="stroke:#181818;stroke-width:0.5;"/><path d="M121,591.4961 L121,618.4961 M108,599.4961 L134,599.4961 M121,618.4961 L108,633.4961 M121,618.4961 L134,633.4961 " fill="none" style="stroke:#181818;stroke-width:0.5;"/><rect fill="#E2E2F0" height="32.6211" rx="2.5" ry="2.5" style="stroke:#181818;stroke-width:0.5;" width="60" x="340" y="50"/><text fill="#000000" font-family="sans-serif" font-size="14" lengthAdjust="spacing" textLength="46" x="347" y="72.1074">System</text><rect fill="#E2E2F0" height="32.6211" rx="2.5" ry="2.5" style="stroke:#181818;stroke-width:0.5;" width="60" x="340" y="556.375"/><text fill="#000000" font-family="sans-serif" font-size="14" lengthAdjust="spacing" textLength="46" x="347" y="578.4824">System</text><rect fill="#FFFFFF" height="176.0859" style="stroke:#181818;stroke-width:1.0;" width="10" x="365" y="116.9121"/><rect fill="#FFFFFF" height="194.0859" style="stroke:#181818;stroke-width:1.0;" width="10" x="365" y="331.2891"/><polygon fill="#181818" points="353,112.9121,363,116.9121,353,120.9121,357,116.9121" style="stroke:#181818;stroke-width:1.0;"/><line style="stroke:#181818;stroke-width:1.0;" x1="121" x2="359" y1="116.9121" y2="116.9121"/><text fill="#000000" font-family="sans-serif" font-size="13" font-weight="bold" lengthAdjust="spacing" textLength="7" x="128" y="111.6494">1</text><text fill="#000000" font-family="sans-serif" font-size="13" lengthAdjust="spacing" textLength="152" x="139" y="111.6494">Request to register skill(s)</text><path d="M10,131.9121 L83,131.9121 L83,141.2031 L73,151.2031 L10,151.2031 L10,131.9121 " fill="#EEEEEE" style="stroke:#000000;stroke-width:1.5;"/><rect fill="none" height="408.4629" style="stroke:#000000;stroke-width:1.5;" width="587" x="10" y="131.9121"/><text fill="#000000" font-family="sans-serif" font-size="13" font-weight="bold" lengthAdjust="spacing" textLength="28" x="25" y="146.9404">loop</text><text fill="#000000" font-family="sans-serif" font-size="11" font-weight="bold" lengthAdjust="spacing" textLength="186" x="98" y="145.7822">[while HRM enters skill(s) details]</text><path d="M20,158.2031 L81,158.2031 L81,167.4941 L71,177.4941 L20,177.4941 L20,158.2031 " fill="#EEEEEE" style="stroke:#000000;stroke-width:1.5;"/><rect fill="none" height="142.7949" style="stroke:#000000;stroke-width:1.5;" width="567" x="20" y="158.2031"/><text fill="#000000" font-family="sans-serif" font-size="13" font-weight="bold" lengthAdjust="spacing" textLength="16" x="35" y="173.2314">alt</text><text fill="#000000" font-family="sans-serif" font-size="11" font-weight="bold" lengthAdjust="spacing" textLength="82" x="96" y="172.0732">[Valid request]</text><line style="stroke:#181818;stroke-width:1.0;" x1="375" x2="417" y1="200.7852" y2="200.7852"/><line style="stroke:#181818;stroke-width:1.0;" x1="417" x2="417" y1="200.7852" y2="213.7852"/><line style="stroke:#181818;stroke-width:1.0;" x1="376" x2="417" y1="213.7852" y2="213.7852"/><polygon fill="#181818" points="386,209.7852,376,213.7852,386,217.7852,382,213.7852" style="stroke:#181818;stroke-width:1.0;"/><text fill="#000000" font-family="sans-serif" font-size="13" font-weight="bold" lengthAdjust="spacing" textLength="7" x="382" y="195.5225">2</text><text fill="#000000" font-family="sans-serif" font-size="13" lengthAdjust="spacing" textLength="182" x="393" y="195.5225">Display skill(s) registration form</text><polygon fill="#181818" points="132,241.0762,122,245.0762,132,249.0762,128,245.0762" style="stroke:#181818;stroke-width:1.0;"/><line style="stroke:#181818;stroke-width:1.0;stroke-dasharray:2.0,2.0;" x1="126" x2="364" y1="245.0762" y2="245.0762"/><text fill="#000000" font-family="sans-serif" font-size="13" font-weight="bold" lengthAdjust="spacing" textLength="7" x="138" y="239.8135">3</text><text fill="#000000" font-family="sans-serif" font-size="13" lengthAdjust="spacing" textLength="126" x="149" y="239.8135">Provide skill(s) details</text><line style="stroke:#000000;stroke-width:1.0;stroke-dasharray:2.0,2.0;" x1="20" x2="587" y1="254.0762" y2="254.0762"/><text fill="#000000" font-family="sans-serif" font-size="11" font-weight="bold" lengthAdjust="spacing" textLength="90" x="25" y="265.9463">[Invalid request]</text><polygon fill="#181818" points="132,288.998,122,292.998,132,296.998,128,292.998" style="stroke:#181818;stroke-width:1.0;"/><line style="stroke:#181818;stroke-width:1.0;stroke-dasharray:2.0,2.0;" x1="126" x2="369" y1="292.998" y2="292.998"/><text fill="#000000" font-family="sans-serif" font-size="13" font-weight="bold" lengthAdjust="spacing" textLength="7" x="138" y="287.7354">4</text><text fill="#000000" font-family="sans-serif" font-size="13" lengthAdjust="spacing" textLength="119" x="149" y="287.7354">Notify invalid request</text><polygon fill="#181818" points="353,327.2891,363,331.2891,353,335.2891,357,331.2891" style="stroke:#181818;stroke-width:1.0;"/><line style="stroke:#181818;stroke-width:1.0;" x1="121" x2="359" y1="331.2891" y2="331.2891"/><text fill="#000000" font-family="sans-serif" font-size="13" font-weight="bold" lengthAdjust="spacing" textLength="7" x="128" y="326.0264">5</text><text fill="#000000" font-family="sans-serif" font-size="13" lengthAdjust="spacing" textLength="126" x="139" y="326.0264">Provide skill(s) details</text><path d="M20,346.2891 L81,346.2891 L81,355.5801 L71,365.5801 L20,365.5801 L20,346.2891 " fill="#EEEEEE" style="stroke:#000000;stroke-width:1.5;"/><rect fill="none" height="187.0859" style="stroke:#000000;stroke-width:1.5;" width="522" x="20" y="346.2891"/><text fill="#000000" font-family="sans-serif" font-size="13" font-weight="bold" lengthAdjust="spacing" textLength="16" x="35" y="361.3174">alt</text><text fill="#000000" font-family="sans-serif" font-size="11" font-weight="bold" lengthAdjust="spacing" textLength="116" x="96" y="360.1592">[Valid skill(s) details]</text><line style="stroke:#181818;stroke-width:1.0;" x1="375" x2="417" y1="388.8711" y2="388.8711"/><line style="stroke:#181818;stroke-width:1.0;" x1="417" x2="417" y1="388.8711" y2="401.8711"/><line style="stroke:#181818;stroke-width:1.0;" x1="376" x2="417" y1="401.8711" y2="401.8711"/><polygon fill="#181818" points="386,397.8711,376,401.8711,386,405.8711,382,401.8711" style="stroke:#181818;stroke-width:1.0;"/><text fill="#000000" font-family="sans-serif" font-size="13" font-weight="bold" lengthAdjust="spacing" textLength="7" x="382" y="383.6084">6</text><text fill="#000000" font-family="sans-serif" font-size="13" lengthAdjust="spacing" textLength="131" x="393" y="383.6084">Validate skill(s) details</text><line style="stroke:#181818;stroke-width:1.0;" x1="375" x2="417" y1="433.1621" y2="433.1621"/><line style="stroke:#181818;stroke-width:1.0;" x1="417" x2="417" y1="433.1621" y2="446.1621"/><line style="stroke:#181818;stroke-width:1.0;" x1="376" x2="417" y1="446.1621" y2="446.1621"/><polygon fill="#181818" points="386,442.1621,376,446.1621,386,450.1621,382,446.1621" style="stroke:#181818;stroke-width:1.0;"/><text fill="#000000" font-family="sans-serif" font-size="13" font-weight="bold" lengthAdjust="spacing" textLength="7" x="382" y="427.8994">7</text><text fill="#000000" font-family="sans-serif" font-size="13" lengthAdjust="spacing" textLength="137" x="393" y="427.8994">Save skill(s) information</text><polygon fill="#181818" points="132,473.4531,122,477.4531,132,481.4531,128,477.4531" style="stroke:#181818;stroke-width:1.0;"/><line style="stroke:#181818;stroke-width:1.0;stroke-dasharray:2.0,2.0;" x1="126" x2="364" y1="477.4531" y2="477.4531"/><text fill="#000000" font-family="sans-serif" font-size="13" font-weight="bold" lengthAdjust="spacing" textLength="7" x="138" y="472.1904">8</text><text fill="#000000" font-family="sans-serif" font-size="13" lengthAdjust="spacing" textLength="209" x="149" y="472.1904">Notify successful skill(s) registration</text><line style="stroke:#000000;stroke-width:1.0;stroke-dasharray:2.0,2.0;" x1="20" x2="542" y1="486.4531" y2="486.4531"/><text fill="#000000" font-family="sans-serif" font-size="11" font-weight="bold" lengthAdjust="spacing" textLength="124" x="25" y="498.3232">[Invalid skill(s) details]</text><polygon fill="#181818" points="132,521.375,122,525.375,132,529.375,128,525.375" style="stroke:#181818;stroke-width:1.0;"/><line style="stroke:#181818;stroke-width:1.0;stroke-dasharray:2.0,2.0;" x1="126" x2="369" y1="525.375" y2="525.375"/><text fill="#000000" font-family="sans-serif" font-size="13" font-weight="bold" lengthAdjust="spacing" textLength="7" x="138" y="520.1123">9</text><text fill="#000000" font-family="sans-serif" font-size="13" lengthAdjust="spacing" textLength="156" x="149" y="520.1123">Notify invalid skill(s) details</text><!--SRC=[VPAzJiCm4CTtFyKf4moyG0ScXZ8KeLPYF-9BEU7OgUySbBV7IIXjyz5CLkx_SVx9M6g8K6nJZHxs9275aWHswF58iG0KsEvtfi6eN7A3Ng4uTA9K3xFnQ31fyAd-f6Yo6fwU_mQR77bA90eQ8DAHyyy8yitEFSYZmLAvHQLpZ0kXWPylTjIN0lcibdyvM59a9mQTmWSwjZboI3UGlp7Zklk5fN7ONGB63I8g1mzLYFMDCJjpwmRUOsZPqhoNd12y-dQr-fpm5fIh3dX1QcbwQVBMJAcjhZ0rNr3Cf7CUWx0tpxJB_0xONcdPzyG6TlSkBQdC3qYgv9QvtrAykyaApaNFCjU1xMpq2m00]--></g></svg>