<?xml version="1.0" encoding="us-ascii" standalone="no"?><svg xmlns="http://www.w3.org/2000/svg" xmlns:xlink="http://www.w3.org/1999/xlink" contentStyleType="text/css" height="835.5px" preserveAspectRatio="none" style="width:318px;height:835px;background:#FFFFFF;" version="1.1" viewBox="0 0 318 835" width="318px" zoomAndPan="magnify"><defs/><g><!--entity HRM--><g id="elem_HRM"><ellipse cx="58" cy="711.25" fill="#F1F1F1" rx="4" ry="4" style="stroke:#181818;stroke-width:0.25;"/><path d="M58,715.25 L58,728.75 M51.5,719.25 L64.5,719.25 M58,728.75 L51.5,736.25 M58,728.75 L64.5,736.25 " fill="none" style="stroke:#181818;stroke-width:0.25;"/><text fill="#000000" font-family="sans-serif" font-size="7" lengthAdjust="spacing" textLength="110" x="3" y="744.5537">Human Resources Manager (HRM)</text></g><!--entity FM--><g id="elem_FM"><ellipse cx="58" cy="534.75" fill="#F1F1F1" rx="4" ry="4" style="stroke:#181818;stroke-width:0.25;"/><path d="M58,538.75 L58,552.25 M51.5,542.75 L64.5,542.75 M58,552.25 L51.5,559.75 M58,552.25 L64.5,559.75 " fill="none" style="stroke:#181818;stroke-width:0.25;"/><text fill="#000000" font-family="sans-serif" font-size="7" lengthAdjust="spacing" textLength="63" x="26.5" y="568.0537">Fleet Manager (FM)</text></g><!--entity GSM--><g id="elem_GSM"><ellipse cx="58" cy="268.25" fill="#F1F1F1" rx="4" ry="4" style="stroke:#181818;stroke-width:0.25;"/><path d="M58,272.25 L58,285.75 M51.5,276.25 L64.5,276.25 M58,285.75 L51.5,293.25 M58,285.75 L64.5,293.25 " fill="none" style="stroke:#181818;stroke-width:0.25;"/><text fill="#000000" font-family="sans-serif" font-size="7" lengthAdjust="spacing" textLength="94.5" x="10.75" y="301.5537">Green Space Manager (GSM)</text></g><!--entity CLB--><g id="elem_CLB"><ellipse cx="58" cy="30.75" fill="#F1F1F1" rx="4" ry="4" style="stroke:#181818;stroke-width:0.25;"/><path d="M58,34.75 L58,48.25 M51.5,38.75 L64.5,38.75 M58,48.25 L51.5,55.75 M58,48.25 L64.5,55.75 " fill="none" style="stroke:#181818;stroke-width:0.25;"/><text fill="#000000" font-family="sans-serif" font-size="7" lengthAdjust="spacing" textLength="59.5" x="28.25" y="64.0537">Collaborator (CLB)</text></g><g id="elem_UC1"><ellipse cx="229.0761" cy="643.8652" fill="#F1F1F1" rx="44.5761" ry="10.1152" style="stroke:#181818;stroke-width:0.25;"/><text fill="#000000" font-family="sans-serif" font-size="7" lengthAdjust="spacing" textLength="66" x="194.5761" y="646.2671">UC1 - Register a skill</text></g><g id="elem_UC2"><ellipse cx="229.0295" cy="681.2059" fill="#F1F1F1" rx="43.7795" ry="9.9559" style="stroke:#181818;stroke-width:0.25;"/><text fill="#000000" font-family="sans-serif" font-size="7" lengthAdjust="spacing" textLength="64" x="195.5295" y="683.6077">UC2 - Register a job</text></g><g id="elem_UC3"><ellipse cx="229.0774" cy="726.8655" fill="#F1F1F1" rx="84.5774" ry="18.1155" style="stroke:#181818;stroke-width:0.25;"/><text fill="#000000" font-family="sans-serif" font-size="7" lengthAdjust="spacing" textLength="153.5" x="152.3274" y="728.7639">UC3 - Register a collaborator and characteristics</text></g><g id="elem_UC4"><ellipse cx="228.9501" cy="775.19" fill="#F1F1F1" rx="58.7001" ry="12.94" style="stroke:#181818;stroke-width:0.25;"/><text fill="#000000" font-family="sans-serif" font-size="7" lengthAdjust="spacing" textLength="98.5" x="179.7001" y="777.0885">UC4 - Assign one or more skills</text></g><g id="elem_UC5"><ellipse cx="229.0125" cy="819.3525" fill="#F1F1F1" rx="60.7625" ry="13.3525" style="stroke:#181818;stroke-width:0.25;"/><text fill="#000000" font-family="sans-serif" font-size="7" lengthAdjust="spacing" textLength="103" x="177.5125" y="821.2509">UC5 - Generate a team proposal</text></g><g id="elem_UC6"><ellipse cx="228.8986" cy="507.2297" fill="#F1F1F1" rx="48.8986" ry="10.9797" style="stroke:#181818;stroke-width:0.25;"/><text fill="#000000" font-family="sans-serif" font-size="7" lengthAdjust="spacing" textLength="76.5" x="189.7595" y="509.4433">UC6 - Register a vehicle</text></g><g id="elem_UC7"><ellipse cx="228.9081" cy="550.2316" fill="#F1F1F1" rx="65.1581" ry="14.2316" style="stroke:#181818;stroke-width:0.25;"/><text fill="#000000" font-family="sans-serif" font-size="7" lengthAdjust="spacing" textLength="112.5" x="172.6581" y="552.1301">UC7 - Register a vehicle&#8217;s check-up</text></g><g id="elem_UC8"><ellipse cx="229.0976" cy="599.1695" fill="#F1F1F1" rx="78.5976" ry="16.9195" style="stroke:#181818;stroke-width:0.25;"/><text fill="#000000" font-family="sans-serif" font-size="7" lengthAdjust="spacing" textLength="141" x="158.5976" y="601.068">UC8 - List the vehicles needing the check-up</text></g><g id="elem_UC20"><ellipse cx="228.9718" cy="117.1444" fill="#F1F1F1" rx="58.4718" ry="12.8944" style="stroke:#181818;stroke-width:0.25;"/><text fill="#000000" font-family="sans-serif" font-size="7" lengthAdjust="spacing" textLength="98" x="179.9718" y="119.0428">UC20 - Register a green space</text></g><g id="elem_UC21"><ellipse cx="228.9955" cy="165.3491" fill="#F1F1F1" rx="80.7455" ry="17.3491" style="stroke:#181818;stroke-width:0.25;"/><text fill="#000000" font-family="sans-serif" font-size="7" lengthAdjust="spacing" textLength="145.5" x="156.2455" y="167.2475">UC21 - Add a new toDoEntry to the To-Do List</text></g><g id="elem_UC22"><ellipse cx="229.0144" cy="214.2029" fill="#F1F1F1" rx="63.7644" ry="13.9529" style="stroke:#181818;stroke-width:0.25;"/><text fill="#000000" font-family="sans-serif" font-size="7" lengthAdjust="spacing" textLength="109.5" x="174.2644" y="216.1013">UC22 - Add a skill to a collaborator</text></g><g id="elem_UC23"><ellipse cx="229.0144" cy="259.7029" fill="#F1F1F1" rx="63.7644" ry="13.9529" style="stroke:#181818;stroke-width:0.25;"/><text fill="#000000" font-family="sans-serif" font-size="7" lengthAdjust="spacing" textLength="109.5" x="174.2644" y="261.6013">UC23 - Add a skill to a collaborator</text></g><g id="elem_UC24"><ellipse cx="228.9281" cy="307.1856" fill="#F1F1F1" rx="72.4281" ry="15.6856" style="stroke:#181818;stroke-width:0.25;"/><text fill="#000000" font-family="sans-serif" font-size="7" lengthAdjust="spacing" textLength="128" x="164.9281" y="309.084">UC24 - Postpone an entry in the Agenda</text></g><g id="elem_UC25"><ellipse cx="228.9124" cy="355.6825" fill="#F1F1F1" rx="68.6624" ry="14.9325" style="stroke:#181818;stroke-width:0.25;"/><text fill="#000000" font-family="sans-serif" font-size="7" lengthAdjust="spacing" textLength="120" x="168.9124" y="357.5809">UC25 - Cancel an entry in the Agenda</text></g><g id="elem_UC26"><ellipse cx="229.0184" cy="406.6537" fill="#F1F1F1" rx="86.0184" ry="18.4037" style="stroke:#181818;stroke-width:0.25;"/><text fill="#000000" font-family="sans-serif" font-size="7" lengthAdjust="spacing" textLength="156.5" x="150.7684" y="408.5521">UC26 - Assign a vehicle to an entry in the agenda</text></g><g id="elem_UC27"><ellipse cx="229.0774" cy="460.8655" fill="#F1F1F1" rx="84.5774" ry="18.1155" style="stroke:#181818;stroke-width:0.25;"/><text fill="#000000" font-family="sans-serif" font-size="7" lengthAdjust="spacing" textLength="153.5" x="152.3274" y="462.7639">UC27 - List all green spaces managed by a GSM</text></g><g id="elem_UC28"><ellipse cx="228.8885" cy="20.8277" fill="#F1F1F1" rx="83.1385" ry="17.8277" style="stroke:#181818;stroke-width:0.25;"/><text fill="#000000" font-family="sans-serif" font-size="7" lengthAdjust="spacing" textLength="150.5" x="153.6385" y="22.7261">UC28 - Consult tasks assigned to a collaborator</text></g><g id="elem_UC29"><ellipse cx="229.0419" cy="71.3084" fill="#F1F1F1" rx="70.5419" ry="15.3084" style="stroke:#181818;stroke-width:0.25;"/><text fill="#000000" font-family="sans-serif" font-size="7" lengthAdjust="spacing" textLength="124" x="167.0419" y="73.2068">UC29 - Record the completion of a task</text></g><!--link HRM to UC1--><g id="link_HRM_UC1"><path d="M79.23,706.96 C95.385,692.61 119.035,673.84 143,662.75 C157.695,655.95 172.0171,652.0765 187.1671,649.2165 " fill="none" id="HRM-to-UC1" style="stroke:#181818;stroke-width:0.5;"/><polygon fill="#181818" points="190.115,648.66,185.3221,647.5295,187.6584,649.1238,186.0641,651.46,190.115,648.66" style="stroke:#181818;stroke-width:0.5;"/></g><!--link HRM to UC2--><g id="link_HRM_UC2"><path d="M113.075,708.89 C122.99,705.855 133.27,702.85 143,700.25 C160.335,695.615 176.9203,691.8375 192.9253,688.4425 " fill="none" id="HRM-to-UC2" style="stroke:#181818;stroke-width:0.5;"/><polygon fill="#181818" points="195.86,687.82,191.0429,686.7973,193.4144,688.3388,191.873,690.7102,195.86,687.82" style="stroke:#181818;stroke-width:0.5;"/></g><!--link HRM to UC3--><g id="link_HRM_UC3"><path d="M113.225,726.75 C123.22,726.75 130.865,726.75 141.48,726.75 " fill="none" id="HRM-to-UC3" style="stroke:#181818;stroke-width:0.5;"/><polygon fill="#181818" points="144.48,726.75,139.98,724.75,141.98,726.75,139.98,728.75,144.48,726.75" style="stroke:#181818;stroke-width:0.5;"/></g><!--link HRM to UC4--><g id="link_HRM_UC4"><path d="M113.12,744.755 C123.03,747.865 133.3,750.985 143,753.75 C157.795,757.97 171.238,761.4686 185.648,765.0386 " fill="none" id="HRM-to-UC4" style="stroke:#181818;stroke-width:0.5;"/><polygon fill="#181818" points="188.56,765.76,184.673,762.7366,186.1334,765.1588,183.7111,766.6192,188.56,765.76" style="stroke:#181818;stroke-width:0.5;"/></g><!--link HRM to UC5--><g id="link_HRM_UC5"><path d="M77.17,746.6 C93.195,762.515 117.665,784.265 143,797.25 C154.8,803.295 165.4781,807.0285 178.2981,810.2985 " fill="none" id="HRM-to-UC5" style="stroke:#181818;stroke-width:0.5;"/><polygon fill="#181818" points="181.205,811.04,177.3389,807.9898,178.7826,810.4221,176.3503,811.8657,181.205,811.04" style="stroke:#181818;stroke-width:0.5;"/></g><!--link FM to UC6--><g id="link_FM_UC6"><path d="M89.53,541.515 C105.475,537.1 125.24,531.745 143,527.25 C159.775,523.005 175.5563,519.2675 191.1863,515.6725 " fill="none" id="FM-to-UC6" style="stroke:#181818;stroke-width:0.5;"/><polygon fill="#181818" points="194.11,515,189.2762,514.0596,191.6736,515.5604,190.1728,517.9578,194.11,515" style="stroke:#181818;stroke-width:0.5;"/></g><!--link FM to UC7--><g id="link_FM_UC7"><path d="M89.68,550.25 C110.385,550.25 135.325,550.25 160.715,550.25 " fill="none" id="FM-to-UC7" style="stroke:#181818;stroke-width:0.5;"/><polygon fill="#181818" points="163.715,550.25,159.215,548.25,161.215,550.25,159.215,552.25,163.715,550.25" style="stroke:#181818;stroke-width:0.5;"/></g><!--link FM to UC8--><g id="link_FM_UC8"><path d="M89.68,559.235 C115.37,566.64 149.3173,576.4293 178.5873,584.8643 " fill="none" id="FM-to-UC8" style="stroke:#181818;stroke-width:0.5;"/><polygon fill="#181818" points="181.47,585.695,177.6998,582.5271,179.0678,585.0027,176.5921,586.3707,181.47,585.695" style="stroke:#181818;stroke-width:0.5;"/></g><!--link GSM to UC20--><g id="link_GSM_UC20"><path d="M64.535,263.92 C75.14,232.52 100.15,171.605 143,139.25 C152.97,131.725 162.3586,127.5415 174.4786,124.2715 " fill="none" id="GSM-to-UC20" style="stroke:#181818;stroke-width:0.5;"/><polygon fill="#181818" points="177.375,123.49,172.5094,122.7312,174.9613,124.1412,173.5513,126.5931,177.375,123.49" style="stroke:#181818;stroke-width:0.5;"/></g><!--link GSM to UC21--><g id="link_GSM_UC21"><path d="M71.89,263.825 C86.88,242.98 113.035,210.71 143,191.75 C152.125,185.975 159.7667,182.3661 170.1817,178.7411 " fill="none" id="GSM-to-UC21" style="stroke:#181818;stroke-width:0.5;"/><polygon fill="#181818" points="173.015,177.755,168.1076,177.3454,170.6539,178.5768,169.4225,181.1231,173.015,177.755" style="stroke:#181818;stroke-width:0.5;"/></g><!--link GSM to UC22--><g id="link_GSM_UC22"><path d="M90.11,263.985 C105.615,254.91 124.83,244.57 143,237.25 C155.905,232.05 167.4694,228.421 180.7794,224.906 " fill="none" id="GSM-to-UC22" style="stroke:#181818;stroke-width:0.5;"/><polygon fill="#181818" points="183.68,224.14,178.8185,223.3553,181.2629,224.7783,179.8398,227.2227,183.68,224.14" style="stroke:#181818;stroke-width:0.5;"/></g><!--link GSM to UC23--><g id="link_GSM_UC23"><path d="M105.405,277.13 C127.025,274.075 149.8245,270.8599 172.1795,267.6999 " fill="none" id="GSM-to-UC23" style="stroke:#181818;stroke-width:0.5;"/><polygon fill="#181818" points="175.15,267.28,170.4144,265.9295,172.6746,267.6299,170.9742,269.8902,175.15,267.28" style="stroke:#181818;stroke-width:0.5;"/></g><!--link GSM to UC24--><g id="link_GSM_UC24"><path d="M105.405,290.235 C124.615,292.89 144.1332,295.5897 164.5932,298.4147 " fill="none" id="GSM-to-UC24" style="stroke:#181818;stroke-width:0.5;"/><polygon fill="#181818" points="167.565,298.825,163.3808,296.2283,165.0885,298.4831,162.8337,300.1907,167.565,298.825" style="stroke:#181818;stroke-width:0.5;"/></g><!--link GSM to UC25--><g id="link_GSM_UC25"><path d="M89.08,303.52 C104.745,313.015 124.39,323.99 143,331.75 C155.235,336.855 166.0113,340.4254 178.7663,344.0004 " fill="none" id="GSM-to-UC25" style="stroke:#181818;stroke-width:0.5;"/><polygon fill="#181818" points="181.655,344.81,177.8617,341.6697,179.2478,344.1353,176.7822,345.5213,181.655,344.81" style="stroke:#181818;stroke-width:0.5;"/></g><!--link GSM to UC26--><g id="link_GSM_UC26"><path d="M71.04,303.545 C85.755,325.24 112.12,359.63 143,379.75 C151.345,385.19 158.0519,388.5526 167.6319,392.1026 " fill="none" id="GSM-to-UC26" style="stroke:#181818;stroke-width:0.5;"/><polygon fill="#181818" points="170.445,393.145,166.9203,389.706,168.1008,392.2763,165.5304,393.4567,170.445,393.145" style="stroke:#181818;stroke-width:0.5;"/></g><!--link GSM to UC27--><g id="link_GSM_UC27"><path d="M64.32,303.625 C74.755,335.81 99.715,399.255 143,434.25 C150.25,440.11 156.0177,443.558 164.8577,447.123 " fill="none" id="GSM-to-UC27" style="stroke:#181818;stroke-width:0.5;"/><polygon fill="#181818" points="167.64,448.245,164.2146,444.7071,165.3214,447.31,162.7186,448.4168,167.64,448.245" style="stroke:#181818;stroke-width:0.5;"/></g><!--link CLB to UC28--><g id="link_CLB_UC28"><path d="M87.92,41.835 C107.97,38.83 132.4032,35.1653 157.6882,31.3703 " fill="none" id="CLB-to-UC28" style="stroke:#181818;stroke-width:0.5;"/><polygon fill="#181818" points="160.655,30.925,155.908,29.6151,158.1827,31.2961,156.5017,33.5708,160.655,30.925" style="stroke:#181818;stroke-width:0.5;"/></g><!--link CLB to UC29--><g id="link_CLB_UC29"><path d="M87.92,50.575 C110.585,53.91 139.6669,58.1885 167.4469,62.2735 " fill="none" id="CLB-to-UC29" style="stroke:#181818;stroke-width:0.5;"/><polygon fill="#181818" points="170.415,62.71,166.2538,60.0766,167.9416,62.3463,165.6719,64.034,170.415,62.71" style="stroke:#181818;stroke-width:0.5;"/></g><!--SRC=[ZLHBRjim4Dth50DlaYuCEF9_Ky2LOsUH04NS782cnf9gYHH8ggbtlKQlrvDqA8cMHRLelJ0qm_VU33cFlDFdJ9HCiG8AAIHFbImGZAemw5PAniyimOEvv0WAkM4YoJ6uwn0wPR5ypqG29vPhMZAP8UoRHeWO_MqpbbZSutTMb4JDyMJ0I51PaXg8CokQIH40_HWtKi7egIgOW5VKib8SDRmmGJqek7zwVVam0gQ1Fcu9knpHTB1TYzhrG7k5AE10Ey8EkZ-qMFgu1KSopzbHAcQZ- -ZvKuEYZo2eSPL6RhStUeiUO4pD9fasfCY0ZYRFQpGj-TYmZ_qgZoqoz97JFfBVDiH433obu-UqI8YCwrPcwilCI6QZTPO8a0A1o8LKs3JfI3EVD2VI7WLIDQJQ1gqJb2obPcvdSv-pwFVx3TECvzYY5pvw-KVqhny_DMqC-NbSbIrrwLDNH7qc8fWK7L63G8oj2MtIKrWDXZ3fLqzgPsZh33UDoO1Zfxo9Ou8BV2S3R-MZCEfYhMnhVf7ZhQpxSXB3sOTNYVhuBRK_M4STc26S_YzrO83GEk2prAQqywTxXNNRcQZRtYGeOkR80oE4rWaH4nppVr07VWWNdVEk0wxxzdHOJsVWb73fviretpUZqb3KjpY6uuKgq0Ls6WFBXDOpaHIwoiasJ9yr8MrdHFxhIGvjiwvjmwMA6vj9-w3PnmlaoLuJ4dRaTKscPmh6uu_NXw2BGo-UUl7CYvlZtRbmqG-N_R3fd0x45PluYGS_4Vg9gP-O-OcvdrZuYQOjUZDTOkKdri5l]--></g></svg>