<?xml version="1.0" encoding="us-ascii" standalone="no"?><svg xmlns="http://www.w3.org/2000/svg" xmlns:xlink="http://www.w3.org/1999/xlink" contentStyleType="text/css" height="2832px" preserveAspectRatio="none" style="width:936px;height:2832px;background:#FFFFFF;" version="1.1" viewBox="0 0 936 2832" width="936px" zoomAndPan="magnify"><defs/><g><text fill="#000000" font-family="sans-serif" font-size="14" font-weight="bold" lengthAdjust="spacing" textLength="127" x="397.6191" y="25.1074">Use Case Diagram</text><!--entity HRM--><g id="elem_HRM"><ellipse cx="170" cy="2583.1211" fill="#F1F1F1" rx="8" ry="8" style="stroke:#181818;stroke-width:0.5;"/><path d="M170,2591.1211 L170,2618.1211 M157,2599.1211 L183,2599.1211 M170,2618.1211 L157,2633.1211 M170,2618.1211 L183,2633.1211 " fill="none" style="stroke:#181818;stroke-width:0.5;"/><text fill="#000000" font-family="sans-serif" font-size="14" lengthAdjust="spacing" textLength="220" x="60" y="2649.7285">Human Resources Manager (HRM)</text></g><!--entity FM--><g id="elem_FM"><ellipse cx="170" cy="2230.1211" fill="#F1F1F1" rx="8" ry="8" style="stroke:#181818;stroke-width:0.5;"/><path d="M170,2238.1211 L170,2265.1211 M157,2246.1211 L183,2246.1211 M170,2265.1211 L157,2280.1211 M170,2265.1211 L183,2280.1211 " fill="none" style="stroke:#181818;stroke-width:0.5;"/><text fill="#000000" font-family="sans-serif" font-size="14" lengthAdjust="spacing" textLength="126" x="107" y="2296.7285">Fleet Manager (FM)</text></g><!--entity GSM--><g id="elem_GSM"><ellipse cx="170" cy="1239.1211" fill="#F1F1F1" rx="8" ry="8" style="stroke:#181818;stroke-width:0.5;"/><path d="M170,1247.1211 L170,1274.1211 M157,1255.1211 L183,1255.1211 M170,1274.1211 L157,1289.1211 M170,1274.1211 L183,1289.1211 " fill="none" style="stroke:#181818;stroke-width:0.5;"/><text fill="#000000" font-family="sans-serif" font-size="14" lengthAdjust="spacing" textLength="189" x="75.5" y="1305.7285">Green Space Manager (GSM)</text></g><!--entity QAM--><g id="elem_QAM"><ellipse cx="170" cy="303.1211" fill="#F1F1F1" rx="8" ry="8" style="stroke:#181818;stroke-width:0.5;"/><path d="M170,311.1211 L170,338.1211 M157,319.1211 L183,319.1211 M170,338.1211 L157,353.1211 M170,338.1211 L183,353.1211 " fill="none" style="stroke:#181818;stroke-width:0.5;"/><text fill="#000000" font-family="sans-serif" font-size="14" lengthAdjust="spacing" textLength="328" x="6" y="369.7285">Software Quality Assessment Team Manager (QAM)</text></g><!--entity CLB--><g id="elem_CLB"><ellipse cx="170" cy="101.1211" fill="#F1F1F1" rx="8" ry="8" style="stroke:#181818;stroke-width:0.5;"/><path d="M170,109.1211 L170,136.1211 M157,117.1211 L183,117.1211 M170,136.1211 L157,151.1211 M170,136.1211 L183,151.1211 " fill="none" style="stroke:#181818;stroke-width:0.5;"/><text fill="#000000" font-family="sans-serif" font-size="14" lengthAdjust="spacing" textLength="119" x="110.5" y="167.7285">Collaborator (CLB)</text></g><g id="elem_UC1"><ellipse cx="662.1522" cy="2448.3515" fill="#F1F1F1" rx="89.1522" ry="20.2304" style="stroke:#181818;stroke-width:0.5;"/><text fill="#000000" font-family="sans-serif" font-size="14" lengthAdjust="spacing" textLength="132" x="593.1522" y="2453.1553">UC1 - Register a skill</text></g><g id="elem_UC2"><ellipse cx="662.0589" cy="2523.0329" fill="#F1F1F1" rx="87.5589" ry="19.9118" style="stroke:#181818;stroke-width:0.5;"/><text fill="#000000" font-family="sans-serif" font-size="14" lengthAdjust="spacing" textLength="128" x="595.0589" y="2527.8366">UC2 - Register a job</text></g><g id="elem_UC3"><ellipse cx="662.1548" cy="2614.352" fill="#F1F1F1" rx="169.1548" ry="36.231" style="stroke:#181818;stroke-width:0.5;"/><text fill="#000000" font-family="sans-serif" font-size="14" lengthAdjust="spacing" textLength="307" x="508.6548" y="2618.1489">UC3 - Register a collaborator and characteristics</text></g><g id="elem_UC4"><ellipse cx="661.9002" cy="2711.0011" fill="#F1F1F1" rx="117.4002" ry="25.88" style="stroke:#181818;stroke-width:0.5;"/><text fill="#000000" font-family="sans-serif" font-size="14" lengthAdjust="spacing" textLength="197" x="563.4002" y="2714.798">UC4 - Assign one or more skills</text></g><g id="elem_UC5"><ellipse cx="662.0249" cy="2799.3261" fill="#F1F1F1" rx="121.5249" ry="26.705" style="stroke:#181818;stroke-width:0.5;"/><text fill="#000000" font-family="sans-serif" font-size="14" lengthAdjust="spacing" textLength="206" x="559.0249" y="2803.123">UC5 - Generate a team proposal</text></g><g id="elem_UC6"><ellipse cx="661.7971" cy="2175.0805" fill="#F1F1F1" rx="97.7971" ry="21.9594" style="stroke:#181818;stroke-width:0.5;"/><text fill="#000000" font-family="sans-serif" font-size="14" lengthAdjust="spacing" textLength="153" x="583.519" y="2179.5076">UC6 - Register a vehicle</text></g><g id="elem_UC7"><ellipse cx="661.8162" cy="2261.0843" fill="#F1F1F1" rx="130.3162" ry="28.4632" style="stroke:#181818;stroke-width:0.5;"/><text fill="#000000" font-family="sans-serif" font-size="14" lengthAdjust="spacing" textLength="225" x="549.3162" y="2264.8812">UC7 - Register a vehicle&#8217;s check-up</text></g><g id="elem_UC8"><ellipse cx="662.1952" cy="2358.9601" fill="#F1F1F1" rx="157.1952" ry="33.839" style="stroke:#181818;stroke-width:0.5;"/><text fill="#000000" font-family="sans-serif" font-size="14" lengthAdjust="spacing" textLength="282" x="521.1952" y="2362.757">UC8 - List the vehicles needing the check-up</text></g><g id="elem_UC9"><ellipse cx="661.8518" cy="487.0914" fill="#F1F1F1" rx="112.8518" ry="24.9704" style="stroke:#181818;stroke-width:0.5;"/><text fill="#000000" font-family="sans-serif" font-size="14" lengthAdjust="spacing" textLength="187" x="568.3518" y="490.8883">UC9 - Perform a cost analysis</text></g><g id="elem_UC10"><ellipse cx="662.1883" cy="573.9588" fill="#F1F1F1" rx="119.6883" ry="26.3377" style="stroke:#181818;stroke-width:0.5;"/><text fill="#000000" font-family="sans-serif" font-size="14" lengthAdjust="spacing" textLength="202" x="561.1883" y="577.7556">UC10 - See the used equipment</text></g><g id="elem_UC11"><ellipse cx="662.0547" cy="666.332" fill="#F1F1F1" rx="141.5547" ry="30.7109" style="stroke:#181818;stroke-width:0.5;"/><text fill="#000000" font-family="sans-serif" font-size="14" lengthAdjust="spacing" textLength="249" x="537.5547" y="670.1289">UC11 - Analyse the park by age groups</text></g><g id="elem_UC12"><ellipse cx="662.0275" cy="753.3266" fill="#F1F1F1" rx="96.5275" ry="21.7055" style="stroke:#181818;stroke-width:0.5;"/><text fill="#000000" font-family="sans-serif" font-size="14" lengthAdjust="spacing" textLength="150" x="584.8422" y="757.8839">UC12 - Import a .csv file</text></g><g id="elem_UC13"><ellipse cx="661.8571" cy="836.0925" fill="#F1F1F1" rx="117.8571" ry="25.9714" style="stroke:#181818;stroke-width:0.5;"/><text fill="#000000" font-family="sans-serif" font-size="14" lengthAdjust="spacing" textLength="198" x="562.8571" y="839.8894">UC13 - get the best pipe routes</text></g><g id="elem_UC14"><ellipse cx="662.0115" cy="280.2234" fill="#F1F1F1" rx="151.0115" ry="32.6023" style="stroke:#181818;stroke-width:0.5;"/><text fill="#000000" font-family="sans-serif" font-size="14" lengthAdjust="spacing" textLength="269" x="527.5115" y="284.0203">UC14 - Run tests for inputs of variable size</text></g><g id="elem_UC15"><ellipse cx="661.8839" cy="928.8979" fill="#F1F1F1" rx="144.3839" ry="31.2768" style="stroke:#181818;stroke-width:0.5;"/><text fill="#000000" font-family="sans-serif" font-size="14" lengthAdjust="spacing" textLength="255" x="534.3839" y="932.6947">UC15 - Predict the average monthly cost</text></g><g id="elem_UC16"><ellipse cx="661.7824" cy="1037.1776" fill="#F1F1F1" rx="193.2824" ry="41.0565" style="stroke:#181818;stroke-width:0.5;"/><text fill="#000000" font-family="sans-serif" font-size="14" lengthAdjust="spacing" textLength="357" x="483.2824" y="1040.9745">UC16 - Determine the best line that fits the data in US14.</text></g><g id="elem_UC17"><ellipse cx="662.0115" cy="1146.2234" fill="#F1F1F1" rx="151.0115" ry="32.6023" style="stroke:#181818;stroke-width:0.5;"/><text fill="#000000" font-family="sans-serif" font-size="14" lengthAdjust="spacing" textLength="269" x="527.5115" y="1150.0203">UC17 - Place signs to evacuate park users</text></g><g id="elem_UC18"><ellipse cx="662.1191" cy="1270.1449" fill="#F1F1F1" rx="268.1191" ry="56.0238" style="stroke:#181818;stroke-width:0.5;"/><text fill="#000000" font-family="sans-serif" font-size="14" lengthAdjust="spacing" textLength="510" x="407.1191" y="1273.9418">UC18 - Place signs to evacuate park users to one of the several Assembly Points</text></g><g id="elem_UC19"><ellipse cx="662.0032" cy="387.3217" fill="#F1F1F1" rx="186.5032" ry="39.7006" style="stroke:#181818;stroke-width:0.5;"/><text fill="#000000" font-family="sans-serif" font-size="14" lengthAdjust="spacing" textLength="343" x="490.5032" y="391.1186">UC19 - Conclude about the worst-case time complexity</text></g><g id="elem_UC20"><ellipse cx="661.9437" cy="1386.9098" fill="#F1F1F1" rx="116.9437" ry="25.7887" style="stroke:#181818;stroke-width:0.5;"/><text fill="#000000" font-family="sans-serif" font-size="14" lengthAdjust="spacing" textLength="196" x="563.9437" y="1390.7067">UC20 - Register a green space</text></g><g id="elem_UC21"><ellipse cx="661.991" cy="1483.3193" fill="#F1F1F1" rx="161.491" ry="34.6982" style="stroke:#181818;stroke-width:0.5;"/><text fill="#000000" font-family="sans-serif" font-size="14" lengthAdjust="spacing" textLength="291" x="516.491" y="1487.1162">UC21 - Add a new toDoEntry to the To-Do List</text></g><g id="elem_UC22"><ellipse cx="661.9212" cy="1581.3053" fill="#F1F1F1" rx="128.9212" ry="28.1842" style="stroke:#181818;stroke-width:0.5;"/><text fill="#000000" font-family="sans-serif" font-size="14" lengthAdjust="spacing" textLength="222" x="550.9212" y="1585.1022">UC22 - Add an entry to the Agenda</text></g><g id="elem_UC23"><ellipse cx="662.1405" cy="1676.2492" fill="#F1F1F1" rx="148.6405" ry="32.1281" style="stroke:#181818;stroke-width:0.5;"/><text fill="#000000" font-family="sans-serif" font-size="14" lengthAdjust="spacing" textLength="264" x="530.1405" y="1680.0461">UC23 - Assign a Team to an AgendaEntry</text></g><g id="elem_UC24"><ellipse cx="661.8561" cy="1774.9923" fill="#F1F1F1" rx="144.8561" ry="31.3712" style="stroke:#181818;stroke-width:0.5;"/><text fill="#000000" font-family="sans-serif" font-size="14" lengthAdjust="spacing" textLength="256" x="533.8561" y="1778.7892">UC24 - Postpone an entry in the Agenda</text></g><g id="elem_UC25"><ellipse cx="661.8248" cy="1871.9861" fill="#F1F1F1" rx="137.3248" ry="29.865" style="stroke:#181818;stroke-width:0.5;"/><text fill="#000000" font-family="sans-serif" font-size="14" lengthAdjust="spacing" textLength="240" x="541.8248" y="1875.7829">UC25 - Cancel an entry in the Agenda</text></g><g id="elem_UC26"><ellipse cx="662.0367" cy="1973.9284" fill="#F1F1F1" rx="172.0367" ry="36.8073" style="stroke:#181818;stroke-width:0.5;"/><text fill="#000000" font-family="sans-serif" font-size="14" lengthAdjust="spacing" textLength="313" x="505.5367" y="1977.7253">UC26 - Assign a vehicle to an entry in the agenda</text></g><g id="elem_UC27"><ellipse cx="662.1548" cy="2082.352" fill="#F1F1F1" rx="169.1548" ry="36.231" style="stroke:#181818;stroke-width:0.5;"/><text fill="#000000" font-family="sans-serif" font-size="14" lengthAdjust="spacing" textLength="307" x="508.6548" y="2086.1489">UC27 - List all green spaces managed by a GSM</text></g><g id="elem_UC28"><ellipse cx="661.7771" cy="81.2765" fill="#F1F1F1" rx="166.2771" ry="35.6554" style="stroke:#181818;stroke-width:0.5;"/><text fill="#000000" font-family="sans-serif" font-size="14" lengthAdjust="spacing" textLength="301" x="511.2771" y="85.0734">UC28 - Consult tasks assigned to a collaborator</text></g><g id="elem_UC29"><ellipse cx="662.0839" cy="182.2379" fill="#F1F1F1" rx="141.0839" ry="30.6168" style="stroke:#181818;stroke-width:0.5;"/><text fill="#000000" font-family="sans-serif" font-size="14" lengthAdjust="spacing" textLength="248" x="538.0839" y="186.0347">UC29 - Record the completion of a task</text></g><!--link HRM to UC1--><g id="link_HRM_UC1"><path d="M226.35,2574.3611 C269.82,2545.1711 333,2507.1011 394,2486.1211 C452.33,2466.0611 515.361,2457.083 568.611,2452.613 " fill="none" id="HRM-to-UC1" style="stroke:#181818;stroke-width:1.0;"/><polygon fill="#181818" points="574.59,2452.1111,565.2869,2448.878,569.6075,2452.5293,565.9561,2456.8499,574.59,2452.1111" style="stroke:#181818;stroke-width:1.0;"/></g><!--link HRM to UC2--><g id="link_HRM_UC2"><path d="M280.02,2586.0911 C316.15,2577.3711 356.66,2568.2011 394,2561.1211 C457.6,2549.0611 524.4173,2539.7032 577.9173,2532.9432 " fill="none" id="HRM-to-UC2" style="stroke:#181818;stroke-width:1.0;"/><polygon fill="#181818" points="583.87,2532.1911,574.4396,2529.3509,578.9094,2532.8179,575.4424,2537.2878,583.87,2532.1911" style="stroke:#181818;stroke-width:1.0;"/></g><!--link HRM to UC3--><g id="link_HRM_UC3"><path d="M280.05,2614.1211 C342.52,2614.1211 416.23,2614.1211 486.58,2614.1211 " fill="none" id="HRM-to-UC3" style="stroke:#181818;stroke-width:1.0;"/><polygon fill="#181818" points="492.58,2614.1211,483.58,2610.1211,487.58,2614.1211,483.58,2618.1211,492.58,2614.1211" style="stroke:#181818;stroke-width:1.0;"/></g><!--link HRM to UC4--><g id="link_HRM_UC4"><path d="M280.08,2642.3311 C316.2,2651.1911 356.71,2660.6111 394,2668.1211 C449.58,2679.3111 506.1975,2688.6138 556.7775,2696.2638 " fill="none" id="HRM-to-UC4" style="stroke:#181818;stroke-width:1.0;"/><polygon fill="#181818" points="562.71,2697.1611,554.4094,2691.8602,557.7662,2696.4134,553.213,2699.7702,562.71,2697.1611" style="stroke:#181818;stroke-width:1.0;"/></g><!--link HRM to UC5--><g id="link_HRM_UC5"><path d="M220.58,2653.7311 C263.82,2686.1811 329.57,2730.6011 394,2755.1211 C442.41,2773.5411 492.6892,2783.4842 541.0292,2789.7142 " fill="none" id="HRM-to-UC5" style="stroke:#181818;stroke-width:1.0;"/><polygon fill="#181818" points="546.98,2790.4811,538.5651,2785.3635,542.021,2789.842,537.5425,2793.2979,546.98,2790.4811" style="stroke:#181818;stroke-width:1.0;"/></g><!--link FM to UC6--><g id="link_FM_UC6"><path d="M233.3,2247.3211 C277.93,2237.6611 339.51,2224.8111 394,2215.1211 C455.38,2204.2011 519.0987,2194.6686 571.8787,2187.2286 " fill="none" id="FM-to-UC6" style="stroke:#181818;stroke-width:1.0;"/><polygon fill="#181818" points="577.82,2186.3911,568.3498,2183.6865,572.8689,2187.089,569.4664,2191.6082,577.82,2186.3911" style="stroke:#181818;stroke-width:1.0;"/></g><!--link FM to UC7--><g id="link_FM_UC7"><path d="M233.06,2261.1211 C307.61,2261.1211 428.67,2261.1211 525.03,2261.1211 " fill="none" id="FM-to-UC7" style="stroke:#181818;stroke-width:1.0;"/><polygon fill="#181818" points="531.03,2261.1211,522.03,2257.1211,526.03,2261.1211,522.03,2265.1211,531.03,2261.1211" style="stroke:#181818;stroke-width:1.0;"/></g><!--link FM to UC8--><g id="link_FM_UC8"><path d="M233.44,2274.1911 C278.13,2283.5011 339.74,2296.2411 394,2307.1211 C443.08,2316.9611 491.3997,2326.4291 538.0797,2335.4791 " fill="none" id="FM-to-UC8" style="stroke:#181818;stroke-width:1.0;"/><polygon fill="#181818" points="543.97,2336.6211,535.8958,2330.9812,539.0614,2335.6694,534.3732,2338.835,543.97,2336.6211" style="stroke:#181818;stroke-width:1.0;"/></g><!--link GSM to UC9--><g id="link_GSM_UC9"><path d="M177.32,1230.5111 C200.39,1091.0411 284.44,625.9911 394,530.1211 C437.46,492.0911 494.7926,480.8585 548.8726,479.2585 " fill="none" id="GSM-to-UC9" style="stroke:#181818;stroke-width:1.0;"/><polygon fill="#181818" points="554.87,479.0811,545.7556,475.349,549.8722,479.229,545.9922,483.3455,554.87,479.0811" style="stroke:#181818;stroke-width:1.0;"/></g><!--link GSM to UC10--><g id="link_GSM_UC10"><path d="M171.44,1230.2511 C175.02,1115.1811 202.22,780.4011 394,618.1211 C435.6,582.9211 488.3298,570.9235 540.1198,567.9635 " fill="none" id="GSM-to-UC10" style="stroke:#181818;stroke-width:1.0;"/><polygon fill="#181818" points="546.11,567.6211,536.8964,564.1412,541.1181,567.9064,537.3529,572.1281,546.11,567.6211" style="stroke:#181818;stroke-width:1.0;"/></g><!--link GSM to UC11--><g id="link_GSM_UC11"><path d="M174.19,1230.2611 C184.72,1127.0011 227.9,849.4411 394,714.1211 C429.24,685.4111 469.9069,672.3556 514.3069,666.1956 " fill="none" id="GSM-to-UC11" style="stroke:#181818;stroke-width:1.0;"/><polygon fill="#181818" points="520.25,665.3711,510.7857,662.6458,515.2974,666.0582,511.8851,670.5699,520.25,665.3711" style="stroke:#181818;stroke-width:1.0;"/></g><!--link GSM to UC12--><g id="link_GSM_UC12"><path d="M176.77,1230.4911 C192.59,1137.2811 245.82,903.7011 394,793.1211 C444.15,755.7011 508.6001,746.4643 564.5501,746.1543 " fill="none" id="GSM-to-UC12" style="stroke:#181818;stroke-width:1.0;"/><polygon fill="#181818" points="570.55,746.1211,561.528,742.171,565.5501,746.1488,561.5723,750.1709,570.55,746.1211" style="stroke:#181818;stroke-width:1.0;"/></g><!--link GSM to UC13--><g id="link_GSM_UC13"><path d="M181.23,1230.5811 C204.28,1150.0911 268.31,967.4711 394,880.1211 C437.4,849.9611 488.2405,838.3068 538.3005,834.1568 " fill="none" id="GSM-to-UC13" style="stroke:#181818;stroke-width:1.0;"/><polygon fill="#181818" points="544.28,833.6611,534.9803,830.4183,539.2971,834.0742,535.6412,838.391,544.28,833.6611" style="stroke:#181818;stroke-width:1.0;"/></g><!--link GSM to UC15--><g id="link_GSM_UC15"><path d="M189.41,1230.3911 C221.31,1166.3011 293.27,1041.0211 394,979.1211 C431.77,955.9111 471.8784,943.9677 515.0084,936.9277 " fill="none" id="GSM-to-UC15" style="stroke:#181818;stroke-width:1.0;"/><polygon fill="#181818" points="520.93,935.9611,511.4032,933.4632,515.9953,936.7666,512.6919,941.3587,520.93,935.9611" style="stroke:#181818;stroke-width:1.0;"/></g><!--link GSM to UC16--><g id="link_GSM_UC16"><path d="M210.4,1230.3011 C252.28,1190.3111 322.25,1129.9011 394,1096.1211 C427.5,1080.3511 459.5287,1070.0818 496.0087,1061.5218 " fill="none" id="GSM-to-UC16" style="stroke:#181818;stroke-width:1.0;"/><polygon fill="#181818" points="501.85,1060.1511,492.1742,1058.3129,496.9822,1061.2933,494.0018,1066.1013,501.85,1060.1511" style="stroke:#181818;stroke-width:1.0;"/></g><!--link GSM to UC17--><g id="link_GSM_UC17"><path d="M264.61,1236.5311 C304.2,1223.1011 351.01,1208.2211 394,1197.1211 C441.64,1184.8311 488.8468,1175.1647 535.0868,1166.7547 " fill="none" id="GSM-to-UC17" style="stroke:#181818;stroke-width:1.0;"/><polygon fill="#181818" points="540.99,1165.6811,531.4195,1163.3561,536.0707,1166.5758,532.851,1171.227,540.99,1165.6811" style="stroke:#181818;stroke-width:1.0;"/></g><!--link GSM to UC18--><g id="link_GSM_UC18"><path d="M264.61,1270.1211 C302.11,1270.1211 341.39,1270.1211 387.75,1270.1211 " fill="none" id="GSM-to-UC18" style="stroke:#181818;stroke-width:1.0;"/><polygon fill="#181818" points="393.75,1270.1211,384.75,1266.1211,388.75,1270.1211,384.75,1274.1211,393.75,1270.1211" style="stroke:#181818;stroke-width:1.0;"/></g><!--link GSM to UC20--><g id="link_GSM_UC20"><path d="M264.7,1304.9411 C304.19,1318.6311 350.91,1333.5711 394,1344.1211 C447.93,1357.3211 503.0598,1366.6561 553.1798,1373.7861 " fill="none" id="GSM-to-UC20" style="stroke:#181818;stroke-width:1.0;"/><polygon fill="#181818" points="559.12,1374.6311,550.7731,1369.4034,554.1698,1373.9269,549.6463,1377.3237,559.12,1374.6311" style="stroke:#181818;stroke-width:1.0;"/></g><!--link GSM to UC21--><g id="link_GSM_UC21"><path d="M213.58,1309.6511 C256.05,1346.8311 324.77,1401.1311 394,1431.1211 C432.89,1447.9711 471.4323,1458.2978 512.7523,1466.0278 " fill="none" id="GSM-to-UC21" style="stroke:#181818;stroke-width:1.0;"/><polygon fill="#181818" points="518.65,1467.1311,510.539,1461.5443,513.7353,1466.2117,509.0679,1469.4079,518.65,1467.1311" style="stroke:#181818;stroke-width:1.0;"/></g><!--link GSM to UC22--><g id="link_GSM_UC22"><path d="M192.33,1310.0911 C226.41,1369.6911 299.08,1480.6611 394,1535.1211 C436.02,1559.2311 481.4981,1570.6329 527.9681,1576.5529 " fill="none" id="GSM-to-UC22" style="stroke:#181818;stroke-width:1.0;"/><polygon fill="#181818" points="533.92,1577.3111,525.4976,1572.2058,528.9601,1576.6792,524.4867,1580.1417,533.92,1577.3111" style="stroke:#181818;stroke-width:1.0;"/></g><!--link GSM to UC23--><g id="link_GSM_UC23"><path d="M183.57,1309.6411 C209.67,1384.7711 277.2,1547.7311 394,1627.1211 C429.37,1651.1611 467.3012,1663.3372 509.1712,1670.2972 " fill="none" id="GSM-to-UC23" style="stroke:#181818;stroke-width:1.0;"/><polygon fill="#181818" points="515.09,1671.2811,506.8677,1665.8594,510.1577,1670.4612,505.5559,1673.7511,515.09,1671.2811" style="stroke:#181818;stroke-width:1.0;"/></g><!--link GSM to UC24--><g id="link_GSM_UC24"><path d="M177.98,1309.7411 C196.02,1399.5711 253.03,1619.2311 394,1726.1211 C429.11,1752.7411 468.2608,1765.5419 511.3508,1772.2219 " fill="none" id="GSM-to-UC24" style="stroke:#181818;stroke-width:1.0;"/><polygon fill="#181818" points="517.28,1773.1411,508.999,1767.8096,512.339,1772.3751,507.7735,1775.7151,517.28,1773.1411" style="stroke:#181818;stroke-width:1.0;"/></g><!--link GSM to UC25--><g id="link_GSM_UC25"><path d="M174.24,1309.8411 C184.89,1412.7411 228.33,1689.3311 394,1824.1211 C430.35,1853.7011 472.8291,1866.7654 518.4491,1872.6354 " fill="none" id="GSM-to-UC25" style="stroke:#181818;stroke-width:1.0;"/><polygon fill="#181818" points="524.4,1873.4011,515.9841,1868.2852,519.4409,1872.763,514.9631,1876.2198,524.4,1873.4011" style="stroke:#181818;stroke-width:1.0;"/></g><!--link GSM to UC26--><g id="link_GSM_UC26"><path d="M171.78,1309.9511 C176.32,1424.1511 205.86,1755.1311 394,1920.1211 C421.56,1944.2911 451.0597,1957.396 486.9497,1965.846 " fill="none" id="GSM-to-UC26" style="stroke:#181818;stroke-width:1.0;"/><polygon fill="#181818" points="492.79,1967.2211,484.9462,1961.265,487.9231,1966.0752,483.1128,1969.0521,492.79,1967.2211" style="stroke:#181818;stroke-width:1.0;"/></g><!--link GSM to UC27--><g id="link_GSM_UC27"><path d="M177.21,1310.1111 C200.06,1452.0411 283.88,1928.4711 394,2029.1211 C421.65,2054.3911 451.9064,2067.7736 488.6064,2076.0336 " fill="none" id="GSM-to-UC27" style="stroke:#181818;stroke-width:1.0;"/><polygon fill="#181818" points="494.46,2077.3511,486.5579,2071.4725,489.582,2076.2532,484.8013,2079.2773,494.46,2077.3511" style="stroke:#181818;stroke-width:1.0;"/></g><!--link QAM to UC14--><g id="link_QAM_UC14"><path d="M334.16,316.1411 C396.8,309.2411 461.546,302.0977 521.126,295.5377 " fill="none" id="QAM-to-UC14" style="stroke:#181818;stroke-width:1.0;"/><polygon fill="#181818" points="527.09,294.8811,517.7063,291.8901,522.12,295.4283,518.5818,299.8421,527.09,294.8811" style="stroke:#181818;stroke-width:1.0;"/></g><!--link QAM to UC19--><g id="link_QAM_UC19"><path d="M334.16,351.7711 C386.08,357.3811 437.5848,362.9561 489.6548,368.5861 " fill="none" id="QAM-to-UC19" style="stroke:#181818;stroke-width:1.0;"/><polygon fill="#181818" points="495.62,369.2311,487.1021,364.2868,490.649,368.6936,486.2422,372.2404,495.62,369.2311" style="stroke:#181818;stroke-width:1.0;"/></g><!--link CLB to UC28--><g id="link_CLB_UC28"><path d="M229.62,126.0211 C298.97,118.8011 411.0423,107.1424 506.1323,97.2424 " fill="none" id="CLB-to-UC28" style="stroke:#181818;stroke-width:1.0;"/><polygon fill="#181818" points="512.1,96.6211,502.7342,93.5746,507.1269,97.1389,503.5626,101.5316,512.1,96.6211" style="stroke:#181818;stroke-width:1.0;"/></g><!--link CLB to UC29--><g id="link_CLB_UC29"><path d="M229.62,138.1011 C304.43,145.7411 429.931,158.542 528.131,168.562 " fill="none" id="CLB-to-UC29" style="stroke:#181818;stroke-width:1.0;"/><polygon fill="#181818" points="534.1,169.1711,525.5525,164.2782,529.1258,168.6635,524.7405,172.2368,534.1,169.1711" style="stroke:#181818;stroke-width:1.0;"/></g><!--SRC=[ZLRDRkCs4BxxAGOvRGzUHBBZdqk1r6co1NO1Rxnv05eQowmfKYKff-wfhz7NwvDqI8csH1ROpI4GHz_tSMRuQMXpuh9XcjLGAwcAerOrWjKjJiprJSEA4wjmPoy2GMDXcQp4462Eh5JlN5PmOCBWP6Av9UYRGTWm-lV4MKMuoKJWmO9Le7brj51o9yQLd4o0_bXXbOQxJstD9BoYKQqkqC0N9cbp3Hy-lNxvwGwO0NeO4fu5eht1ddlKymZqeX4bxAWKl45VTZsM7eRWdJhOTwOHlhPCS7k1HsFGc1gbXMz81LyLlZxs2lGmLDWe8TXUQUPM7pQVV-bGz32PTDMs1WlNcxktJGPJghVYnf8a0-gh41vEhs9iFiR-hlOzCe-Hip6o66R4P0d5aSwke9U4u8NfPMQnp9nag7nUIL0IWSYreixu90Df7fCUYFI24catfBsjwrcZLQCC2vKzn9p5EDyp7daXi4SlOlJoVz7__lsFeSAmE4tRfgSkO-gAg9-92FQ8WMX08fREmIuOAQnYXJKfR54VbAvzPqcB324kXeUEh9CplYVE3j7hKxm4_AFbZRDKEEhxXEECyUY5EnvzRIVONu2y1vLMRHEsonAVPCuelzMDqfGRV2pC6GxysiuiSKlcx59XrvGzKaKDR-XhLwt5wow9EJBdZjTMqWaRQu0Q0ZGJMdfK1pWppTcUve3XVrqtJgoIEQziDJM_w3PdPx8D5KZpo1x5nRSti1FJPCurJqWcgBd4M_AYMp5BLLCsBbuoooWxUDjbyuz1CF5Lveor5MvCECyRDwtmp8hMETdtdy3wsf74NDdgX_Wkx3-dWy_De2jQ-3bJxwdehUBINdT939Wv1swKB4HRKiVsT4fUvrrfOwSUPJaDyaBLZS0_QOG5gSIO-VtuIwhye3HkK8R9aXWpzyOiIu9BVATQdjIlqkgBgygbyKrDdvJ_ne94EiVo8241Xzp72cN90Y_nQJwxpIFM3MCYaaZ7ysa4ScBNtDbrItvgNE-lEvCfqfqJe-REg1ic2nJVeIOkpHV3fFkHq-Szqc4ZdSIS-JACBYR4yAGCrFv6AlrqSDTPq4WCcgywwvXMa6UOEHb2kio8x38QNHH19J5WllQkAPGkkudfZURkScTfveK3kRCSNTemdVvylTDkwpnQpwBrF5e_T1VeSrWlnilbUBdgqDIIFh2ErltS7GIoE937WLaSU8W3YpYmZ0EhA937UUHn7dcSHnxdqRjs48WJo-F4o24-GZzWGcRpEB3k8FJh9P1MSM0z-Gy0]--></g></svg>