<?xml version="1.0" encoding="us-ascii" standalone="no"?><svg xmlns="http://www.w3.org/2000/svg" xmlns:xlink="http://www.w3.org/1999/xlink" contentStyleType="text/css" height="346.2px" preserveAspectRatio="none" style="width:618px;height:346px;background:#FFFFFF;" version="1.1" viewBox="0 0 618 346" width="618.6px" zoomAndPan="magnify"><defs/><g><rect fill="#FFFFFF" height="229.8738" style="stroke:#181818;stroke-width:0.6;" width="6" x="87" y="56.1727"/><rect fill="#FFFFFF" height="215.8992" style="stroke:#181818;stroke-width:0.6;" width="6" x="268.8" y="70.1473"/><rect fill="#FFFFFF" height="47.7258" style="stroke:#181818;stroke-width:0.6;" width="6" x="424.8" y="88.9219"/><rect fill="#FFFFFF" height="85.275" style="stroke:#181818;stroke-width:0.6;" width="6" x="424.8" y="181.9969"/><rect fill="#FFFFFF" height="47.7258" style="stroke:#181818;stroke-width:0.6;" width="6" x="568.2" y="200.7715"/><line style="stroke:#181818;stroke-width:0.3;stroke-dasharray:5.0,5.0;" x1="90" x2="90" y1="50.1727" y2="296.8465"/><line style="stroke:#181818;stroke-width:0.3;stroke-dasharray:5.0,5.0;" x1="271.5" x2="271.5" y1="50.1727" y2="296.8465"/><line style="stroke:#181818;stroke-width:0.3;stroke-dasharray:5.0,5.0;" x1="427.8" x2="427.8" y1="50.1727" y2="296.8465"/><line style="stroke:#181818;stroke-width:0.3;stroke-dasharray:5.0,5.0;" x1="571.2" x2="571.2" y1="50.1727" y2="296.8465"/><text fill="#000000" font-family="sans-serif" font-size="8.4" lengthAdjust="spacing" textLength="170.4" x="3" y="48.0645">Vehicle and Equipment Fleet Manager (VFM)</text><ellipse cx="90" cy="8.1" fill="#E3E3E3" rx="4.8" ry="4.8" style="stroke:#181818;stroke-width:0.3;"/><path d="M90,12.9 L90,29.1 M82.2,17.7 L97.8,17.7 M90,29.1 L82.2,38.1 M90,29.1 L97.8,38.1 " fill="none" style="stroke:#181818;stroke-width:0.3;"/><text fill="#000000" font-family="sans-serif" font-size="8.4" lengthAdjust="spacing" textLength="170.4" x="3" y="305.3109">Vehicle and Equipment Fleet Manager (VFM)</text><ellipse cx="90" cy="312.5191" fill="#E3E3E3" rx="4.8" ry="4.8" style="stroke:#181818;stroke-width:0.3;"/><path d="M90,317.3191 L90,333.5191 M82.2,322.1191 L97.8,322.1191 M90,333.5191 L82.2,342.5191 M90,333.5191 L97.8,342.5191 " fill="none" style="stroke:#181818;stroke-width:0.3;"/><rect fill="#E3E3E3" height="19.5727" rx="1.5" ry="1.5" style="stroke:#181818;stroke-width:0.3;" width="79.8" x="231.9" y="30"/><text fill="#000000" font-family="sans-serif" font-size="8.4" lengthAdjust="spacing" textLength="71.4" x="236.1" y="43.2645">:ListMaintenanceUI</text><rect fill="#E3E3E3" height="19.5727" rx="1.5" ry="1.5" style="stroke:#181818;stroke-width:0.3;" width="79.8" x="231.9" y="296.2465"/><text fill="#000000" font-family="sans-serif" font-size="8.4" lengthAdjust="spacing" textLength="71.4" x="236.1" y="309.5109">:ListMaintenanceUI</text><rect fill="#E3E3E3" height="19.5727" rx="1.5" ry="1.5" style="stroke:#181818;stroke-width:0.3;" width="75.6" x="390" y="30"/><text fill="#000000" font-family="sans-serif" font-size="8.4" lengthAdjust="spacing" textLength="67.2" x="394.2" y="43.2645">:VehicleController</text><rect fill="#E3E3E3" height="19.5727" rx="1.5" ry="1.5" style="stroke:#181818;stroke-width:0.3;" width="75.6" x="390" y="296.2465"/><text fill="#000000" font-family="sans-serif" font-size="8.4" lengthAdjust="spacing" textLength="67.2" x="394.2" y="309.5109">:VehicleController</text><rect fill="#E3E3E3" height="30.7453" rx="1.5" ry="1.5" style="stroke:#181818;stroke-width:0.3;" width="78" x="532.2" y="18.8273"/><text fill="#000000" font-family="sans-serif" font-size="8.4" lengthAdjust="spacing" textLength="69.6" x="536.4" y="32.0918">vehicleRepository:</text><text fill="#000000" font-family="sans-serif" font-size="8.4" lengthAdjust="spacing" textLength="68.4" x="537" y="43.2645">VehicleRepository</text><rect fill="#E3E3E3" height="30.7453" rx="1.5" ry="1.5" style="stroke:#181818;stroke-width:0.3;" width="78" x="532.2" y="296.2465"/><text fill="#000000" font-family="sans-serif" font-size="8.4" lengthAdjust="spacing" textLength="69.6" x="536.4" y="309.5109">vehicleRepository:</text><text fill="#000000" font-family="sans-serif" font-size="8.4" lengthAdjust="spacing" textLength="68.4" x="537" y="320.6836">VehicleRepository</text><rect fill="#FFFFFF" height="229.8738" style="stroke:#181818;stroke-width:0.6;" width="6" x="87" y="56.1727"/><rect fill="#FFFFFF" height="215.8992" style="stroke:#181818;stroke-width:0.6;" width="6" x="268.8" y="70.1473"/><rect fill="#FFFFFF" height="47.7258" style="stroke:#181818;stroke-width:0.6;" width="6" x="424.8" y="88.9219"/><rect fill="#FFFFFF" height="85.275" style="stroke:#181818;stroke-width:0.6;" width="6" x="424.8" y="181.9969"/><rect fill="#FFFFFF" height="47.7258" style="stroke:#181818;stroke-width:0.6;" width="6" x="568.2" y="200.7715"/><polygon fill="#181818" points="261.6,67.7473,267.6,70.1473,261.6,72.5473,264,70.1473" style="stroke:#181818;stroke-width:0.6;"/><line style="stroke:#181818;stroke-width:0.6;" x1="93" x2="265.2" y1="70.1473" y2="70.1473"/><text fill="#000000" font-family="sans-serif" font-size="7.8" font-weight="bold" lengthAdjust="spacing" textLength="4.2" x="97.2" y="66.9896">1</text><text fill="#000000" font-family="sans-serif" font-size="7.8" lengthAdjust="spacing" textLength="157.8" x="103.8" y="66.9896">requests to list vehicles needing maintenance</text><polygon fill="#181818" points="417.6,86.5219,423.6,88.9219,417.6,91.3219,420,88.9219" style="stroke:#181818;stroke-width:0.6;"/><line style="stroke:#181818;stroke-width:0.6;" x1="274.8" x2="421.2" y1="88.9219" y2="88.9219"/><text fill="#000000" font-family="sans-serif" font-size="7.8" font-weight="bold" lengthAdjust="spacing" textLength="4.2" x="279" y="85.7643">2</text><text fill="#000000" font-family="sans-serif" font-size="7.8" lengthAdjust="spacing" textLength="58.2" x="285.6" y="85.7643">getVehiclesList()</text><rect fill="none" height="25.9512" style="stroke:#000000;stroke-width:0.8999999999999999;" width="79.2" x="388.2" y="93.7219"/><path d="M388.2,93.7219 L425.4,93.7219 L425.4,99.1219 L419.4,105.1219 L388.2,105.1219 L388.2,93.7219 " fill="#EEEEEE" style="stroke:#000000;stroke-width:1.2;"/><text fill="#000000" font-family="sans-serif" font-size="7.8" font-weight="bold" lengthAdjust="spacing" textLength="10.2" x="396" y="103.3389">ref</text><text fill="#000000" font-family="sans-serif" font-size="7.2" lengthAdjust="spacing" textLength="51" x="402.3" y="115.2914">Get Vehicle List</text><polygon fill="#181818" points="281.4,134.2477,275.4,136.6477,281.4,139.0477,279,136.6477" style="stroke:#181818;stroke-width:0.6;"/><line style="stroke:#181818;stroke-width:0.6;stroke-dasharray:2.0,2.0;" x1="277.8" x2="427.2" y1="136.6477" y2="136.6477"/><text fill="#000000" font-family="sans-serif" font-size="7.8" font-weight="bold" lengthAdjust="spacing" textLength="4.2" x="285" y="133.49">3</text><text fill="#000000" font-family="sans-serif" font-size="7.8" lengthAdjust="spacing" textLength="36" x="291.6" y="133.49">vehicleList</text><line style="stroke:#181818;stroke-width:0.6;stroke-dasharray:2.0,2.0;" x1="274.8" x2="300" y1="155.4223" y2="155.4223"/><line style="stroke:#181818;stroke-width:0.6;stroke-dasharray:2.0,2.0;" x1="300" x2="300" y1="155.4223" y2="163.2223"/><line style="stroke:#181818;stroke-width:0.6;stroke-dasharray:2.0,2.0;" x1="275.4" x2="300" y1="163.2223" y2="163.2223"/><polygon fill="#181818" points="281.4,160.8223,275.4,163.2223,281.4,165.6223,279,163.2223" style="stroke:#181818;stroke-width:0.6;"/><text fill="#000000" font-family="sans-serif" font-size="7.8" font-weight="bold" lengthAdjust="spacing" textLength="4.2" x="279" y="152.2646">4</text><text fill="#000000" font-family="sans-serif" font-size="7.8" lengthAdjust="spacing" textLength="55.2" x="285.6" y="152.2646">keep vehicleList</text><polygon fill="#181818" points="417.6,179.5969,423.6,181.9969,417.6,184.3969,420,181.9969" style="stroke:#181818;stroke-width:0.6;"/><line style="stroke:#181818;stroke-width:0.6;" x1="274.8" x2="421.2" y1="181.9969" y2="181.9969"/><text fill="#000000" font-family="sans-serif" font-size="7.8" font-weight="bold" lengthAdjust="spacing" textLength="4.2" x="279" y="178.8393">5</text><text fill="#000000" font-family="sans-serif" font-size="7.8" lengthAdjust="spacing" textLength="132" x="285.6" y="178.8393">generateMaintenanceList(vehiclesList)</text><polygon fill="#181818" points="561,198.3715,567,200.7715,561,203.1715,563.4,200.7715" style="stroke:#181818;stroke-width:0.6;"/><line style="stroke:#181818;stroke-width:0.6;" x1="430.8" x2="564.6" y1="200.7715" y2="200.7715"/><text fill="#000000" font-family="sans-serif" font-size="7.8" font-weight="bold" lengthAdjust="spacing" textLength="4.2" x="435" y="197.6139">6</text><text fill="#000000" font-family="sans-serif" font-size="7.8" lengthAdjust="spacing" textLength="119.4" x="441.6" y="197.6139">createMaintenanceList(vehicleList)</text><rect fill="none" height="25.9512" style="stroke:#000000;stroke-width:0.8999999999999999;" width="84.6" x="530.4" y="205.5715"/><path d="M530.4,205.5715 L567.6,205.5715 L567.6,210.9715 L561.6,216.9715 L530.4,216.9715 L530.4,205.5715 " fill="#EEEEEE" style="stroke:#000000;stroke-width:1.2;"/><text fill="#000000" font-family="sans-serif" font-size="7.8" font-weight="bold" lengthAdjust="spacing" textLength="10.2" x="538.2" y="215.1885">ref</text><text fill="#000000" font-family="sans-serif" font-size="7.2" lengthAdjust="spacing" textLength="79.8" x="532.8" y="227.141">Create Maintenance List</text><polygon fill="#181818" points="437.4,246.0973,431.4,248.4973,437.4,250.8973,435,248.4973" style="stroke:#181818;stroke-width:0.6;"/><line style="stroke:#181818;stroke-width:0.6;stroke-dasharray:2.0,2.0;" x1="433.8" x2="570.6" y1="248.4973" y2="248.4973"/><text fill="#000000" font-family="sans-serif" font-size="7.8" font-weight="bold" lengthAdjust="spacing" textLength="4.2" x="441" y="245.3396">7</text><text fill="#000000" font-family="sans-serif" font-size="7.8" lengthAdjust="spacing" textLength="57" x="447.6" y="245.3396">maintenanceList</text><polygon fill="#181818" points="281.4,264.8719,275.4,267.2719,281.4,269.6719,279,267.2719" style="stroke:#181818;stroke-width:0.6;"/><line style="stroke:#181818;stroke-width:0.6;stroke-dasharray:2.0,2.0;" x1="277.8" x2="427.2" y1="267.2719" y2="267.2719"/><text fill="#000000" font-family="sans-serif" font-size="7.8" font-weight="bold" lengthAdjust="spacing" textLength="4.2" x="285" y="264.1143">8</text><text fill="#000000" font-family="sans-serif" font-size="7.8" lengthAdjust="spacing" textLength="57" x="291.6" y="264.1143">maintenanceList</text><polygon fill="#181818" points="96.6,283.6465,90.6,286.0465,96.6,288.4465,94.2,286.0465" style="stroke:#181818;stroke-width:0.6;"/><line style="stroke:#181818;stroke-width:0.6;stroke-dasharray:2.0,2.0;" x1="93" x2="271.2" y1="286.0465" y2="286.0465"/><text fill="#000000" font-family="sans-serif" font-size="7.8" font-weight="bold" lengthAdjust="spacing" textLength="4.2" x="100.2" y="282.8889">9</text><text fill="#000000" font-family="sans-serif" font-size="7.8" lengthAdjust="spacing" textLength="84" x="106.8" y="282.8889">shows maintenance List</text><!--SRC=[ZLInae8m4Etp5JisfuK_G67Zd3VEQEETLjT4M24Z99W4FF_-DX4ne8ocoYHltxxtDc2EGfPSym8A9LMSQLKWM5qXC-rDoUCZJ_7RNd84ZR7bCir3WCbueiv2fd3WkK766A-iabMnHytOHoOIX8DITg_-68-jqZ3QOIPYekCoWSzJ9Se2fOL5ZcXXpIMrqp3UBTQJ4N03j67KoefOb9nmesWbZ5rp8IrABcFSBZrkk-p1cZPp9QrMUOxQm-O_crKNM5zn6ooL4IJm4ltANV_iAgL_wXo9cblqAXdGeWrCPwG68ihhLA6n1go2d4H3qyg0H4nSPiNTXgzk-SYDFt2Bk8ZH2IVE56qZmxWSnfCMrjPwY-snMneFe6gArLz1RtrHxhUPECuE06b8LDxbyrgcDvkDgqvfWWDod9bRuH6nx5GFMPQeYIcOkRTU1pcyZE4gUVOummXYZSFi0-IFJ-5vu8-uVlfptns2zcyCuO7MX-eyHk6R6Xh92_NTyRx1ztJ4xak8wF-WpYRakBiB2Dnp3_NHr_GF]--></g></svg>