<?xml version="1.0" encoding="us-ascii" standalone="no"?><svg xmlns="http://www.w3.org/2000/svg" xmlns:xlink="http://www.w3.org/1999/xlink" contentStyleType="text/css" height="284.5px" preserveAspectRatio="none" style="width:748px;height:284px;background:#FFFFFF;" version="1.1" viewBox="0 0 748 284" width="748px" zoomAndPan="magnify"><defs/><g><rect fill="#FFFFFF" height="187.2656" style="stroke:#181818;stroke-width:0.5;" width="5" x="72.5" y="46.8105"/><rect fill="#FFFFFF" height="175.6201" style="stroke:#181818;stroke-width:0.5;" width="5" x="224" y="58.4561"/><rect fill="#FFFFFF" height="15.6455" style="stroke:#181818;stroke-width:0.5;" width="5" x="355.5" y="95.9121"/><rect fill="#FFFFFF" height="69.082" style="stroke:#181818;stroke-width:0.5;" width="5" x="355.5" y="149.3486"/><rect fill="#FFFFFF" height="15.6455" style="stroke:#181818;stroke-width:0.5;" width="5" x="625" y="164.9941"/><line style="stroke:#181818;stroke-width:0.25;stroke-dasharray:5.0,5.0;" x1="75" x2="75" y1="41.8105" y2="243.0762"/><line style="stroke:#181818;stroke-width:0.25;stroke-dasharray:5.0,5.0;" x1="226.25" x2="226.25" y1="41.8105" y2="243.0762"/><line style="stroke:#181818;stroke-width:0.25;stroke-dasharray:5.0,5.0;" x1="357.75" x2="357.75" y1="78.3613" y2="243.0762"/><line style="stroke:#181818;stroke-width:0.25;stroke-dasharray:5.0,5.0;" x1="432.75" x2="432.75" y1="41.8105" y2="243.0762"/><line style="stroke:#181818;stroke-width:0.25;stroke-dasharray:5.0,5.0;" x1="486.25" x2="486.25" y1="41.8105" y2="243.0762"/><line style="stroke:#181818;stroke-width:0.25;stroke-dasharray:5.0,5.0;" x1="548.25" x2="548.25" y1="41.8105" y2="243.0762"/><line style="stroke:#181818;stroke-width:0.25;stroke-dasharray:5.0,5.0;" x1="627.25" x2="627.25" y1="41.8105" y2="243.0762"/><line style="stroke:#181818;stroke-width:0.25;stroke-dasharray:5.0,5.0;" x1="709.75" x2="709.75" y1="41.8105" y2="243.0762"/><text fill="#000000" font-family="sans-serif" font-size="7" lengthAdjust="spacing" textLength="142" x="2.5" y="40.0537">Vehicle and Equipment Fleet Manager (VFM)</text><ellipse cx="75" cy="6.75" fill="#E3E3E3" rx="4" ry="4" style="stroke:#181818;stroke-width:0.25;"/><path d="M75,10.75 L75,24.25 M68.5,14.75 L81.5,14.75 M75,24.25 L68.5,31.75 M75,24.25 L81.5,31.75 " fill="none" style="stroke:#181818;stroke-width:0.25;"/><text fill="#000000" font-family="sans-serif" font-size="7" lengthAdjust="spacing" textLength="142" x="2.5" y="250.1299">Vehicle and Equipment Fleet Manager (VFM)</text><ellipse cx="75" cy="256.1367" fill="#E3E3E3" rx="4" ry="4" style="stroke:#181818;stroke-width:0.25;"/><path d="M75,260.1367 L75,273.6367 M68.5,264.1367 L81.5,264.1367 M75,273.6367 L68.5,281.1367 M75,273.6367 L81.5,281.1367 " fill="none" style="stroke:#181818;stroke-width:0.25;"/><rect fill="#E3E3E3" height="16.3105" rx="1.25" ry="1.25" style="stroke:#181818;stroke-width:0.25;" width="66.5" x="193.25" y="25"/><text fill="#000000" font-family="sans-serif" font-size="7" lengthAdjust="spacing" textLength="59.5" x="196.75" y="36.0537">:ListMaintenanceUI</text><rect fill="#E3E3E3" height="16.3105" rx="1.25" ry="1.25" style="stroke:#181818;stroke-width:0.25;" width="66.5" x="193.25" y="242.5762"/><text fill="#000000" font-family="sans-serif" font-size="7" lengthAdjust="spacing" textLength="59.5" x="196.75" y="253.6299">:ListMaintenanceUI</text><rect fill="#E3E3E3" height="16.3105" rx="1.25" ry="1.25" style="stroke:#181818;stroke-width:0.25;" width="91.5" x="312.25" y="242.5762"/><text fill="#000000" font-family="sans-serif" font-size="7" lengthAdjust="spacing" textLength="84.5" x="315.75" y="253.6299">:ListMaintenanceController</text><rect fill="#E3E3E3" height="16.3105" rx="1.25" ry="1.25" style="stroke:#181818;stroke-width:0.25;" width="48.5" x="408.75" y="25"/><text fill="#000000" font-family="sans-serif" font-size="7" lengthAdjust="spacing" textLength="41.5" x="412.25" y="36.0537">:Repositories</text><rect fill="#E3E3E3" height="16.3105" rx="1.25" ry="1.25" style="stroke:#181818;stroke-width:0.25;" width="48.5" x="408.75" y="242.5762"/><text fill="#000000" font-family="sans-serif" font-size="7" lengthAdjust="spacing" textLength="41.5" x="412.25" y="253.6299">:Repositories</text><rect fill="#E3E3E3" height="25.6211" rx="1.25" ry="1.25" style="stroke:#181818;stroke-width:0.25;" width="48.5" x="462.25" y="15.6895"/><text fill="#000000" font-family="sans-serif" font-size="7" lengthAdjust="spacing" textLength="37" x="468" y="26.7432">repositories</text><text fill="#000000" font-family="sans-serif" font-size="7" lengthAdjust="spacing" textLength="41.5" x="465.75" y="36.0537">:Repositories</text><rect fill="#E3E3E3" height="25.6211" rx="1.25" ry="1.25" style="stroke:#181818;stroke-width:0.25;" width="48.5" x="462.25" y="242.5762"/><text fill="#000000" font-family="sans-serif" font-size="7" lengthAdjust="spacing" textLength="37" x="468" y="253.6299">repositories</text><text fill="#000000" font-family="sans-serif" font-size="7" lengthAdjust="spacing" textLength="41.5" x="465.75" y="262.9404">:Repositories</text><rect fill="#E3E3E3" height="25.6211" rx="1.25" ry="1.25" style="stroke:#181818;stroke-width:0.25;" width="65" x="515.75" y="15.6895"/><text fill="#000000" font-family="sans-serif" font-size="7" lengthAdjust="spacing" textLength="58" x="519.25" y="26.7432">vehicleRepository:</text><text fill="#000000" font-family="sans-serif" font-size="7" lengthAdjust="spacing" textLength="57" x="519.75" y="36.0537">VehicleRepository</text><rect fill="#E3E3E3" height="25.6211" rx="1.25" ry="1.25" style="stroke:#181818;stroke-width:0.25;" width="65" x="515.75" y="242.5762"/><text fill="#000000" font-family="sans-serif" font-size="7" lengthAdjust="spacing" textLength="58" x="519.25" y="253.6299">vehicleRepository:</text><text fill="#000000" font-family="sans-serif" font-size="7" lengthAdjust="spacing" textLength="57" x="519.75" y="262.9404">VehicleRepository</text><rect fill="#E3E3E3" height="25.6211" rx="1.25" ry="1.25" style="stroke:#181818;stroke-width:0.25;" width="83.5" x="585.75" y="15.6895"/><text fill="#000000" font-family="sans-serif" font-size="7" lengthAdjust="spacing" textLength="76.5" x="589.25" y="26.7432">maintenanceRepository:</text><text fill="#000000" font-family="sans-serif" font-size="7" lengthAdjust="spacing" textLength="74.5" x="590.25" y="36.0537">MaintenanceRepository</text><rect fill="#E3E3E3" height="25.6211" rx="1.25" ry="1.25" style="stroke:#181818;stroke-width:0.25;" width="83.5" x="585.75" y="242.5762"/><text fill="#000000" font-family="sans-serif" font-size="7" lengthAdjust="spacing" textLength="76.5" x="589.25" y="253.6299">maintenanceRepository:</text><text fill="#000000" font-family="sans-serif" font-size="7" lengthAdjust="spacing" textLength="74.5" x="590.25" y="262.9404">MaintenanceRepository</text><rect fill="#E3E3E3" height="25.6211" rx="1.25" ry="1.25" style="stroke:#181818;stroke-width:0.25;" width="71" x="674.25" y="15.6895"/><text fill="#000000" font-family="sans-serif" font-size="7" lengthAdjust="spacing" textLength="62" x="678.75" y="26.7432">maintenanceReport</text><text fill="#000000" font-family="sans-serif" font-size="7" lengthAdjust="spacing" textLength="64" x="677.75" y="36.0537">:MaintenanceReport</text><rect fill="#E3E3E3" height="25.6211" rx="1.25" ry="1.25" style="stroke:#181818;stroke-width:0.25;" width="71" x="674.25" y="242.5762"/><text fill="#000000" font-family="sans-serif" font-size="7" lengthAdjust="spacing" textLength="62" x="678.75" y="253.6299">maintenanceReport</text><text fill="#000000" font-family="sans-serif" font-size="7" lengthAdjust="spacing" textLength="64" x="677.75" y="262.9404">:MaintenanceReport</text><rect fill="#FFFFFF" height="187.2656" style="stroke:#181818;stroke-width:0.5;" width="5" x="72.5" y="46.8105"/><rect fill="#FFFFFF" height="175.6201" style="stroke:#181818;stroke-width:0.5;" width="5" x="224" y="58.4561"/><rect fill="#FFFFFF" height="15.6455" style="stroke:#181818;stroke-width:0.5;" width="5" x="355.5" y="95.9121"/><rect fill="#FFFFFF" height="69.082" style="stroke:#181818;stroke-width:0.5;" width="5" x="355.5" y="149.3486"/><rect fill="#FFFFFF" height="15.6455" style="stroke:#181818;stroke-width:0.5;" width="5" x="625" y="164.9941"/><polygon fill="#181818" points="218,56.4561,223,58.4561,218,60.4561,220,58.4561" style="stroke:#181818;stroke-width:0.5;"/><line style="stroke:#181818;stroke-width:0.5;" x1="77.5" x2="221" y1="58.4561" y2="58.4561"/><text fill="#000000" font-family="sans-serif" font-size="6.5" font-weight="bold" lengthAdjust="spacing" textLength="3.5" x="81" y="55.8247">1</text><text fill="#000000" font-family="sans-serif" font-size="6.5" lengthAdjust="spacing" textLength="131.5" x="86.5" y="55.8247">requests to list vehicles needing maintenance</text><polygon fill="#181818" points="306.25,72.1016,311.25,74.1016,306.25,76.1016,308.25,74.1016" style="stroke:#181818;stroke-width:0.5;"/><line style="stroke:#181818;stroke-width:0.5;" x1="229" x2="309.25" y1="74.1016" y2="74.1016"/><text fill="#000000" font-family="sans-serif" font-size="6.5" font-weight="bold" lengthAdjust="spacing" textLength="3.5" x="232.5" y="71.4702">2</text><text fill="#000000" font-family="sans-serif" font-size="6.5" lengthAdjust="spacing" textLength="18" x="238" y="71.4702">create</text><rect fill="#E3E3E3" height="16.3105" rx="1.25" ry="1.25" style="stroke:#181818;stroke-width:0.25;" width="91.5" x="312.25" y="62.4561"/><text fill="#000000" font-family="sans-serif" font-size="7" lengthAdjust="spacing" textLength="84.5" x="315.75" y="73.5098">:ListMaintenanceController</text><polygon fill="#181818" points="349.5,93.9121,354.5,95.9121,349.5,97.9121,351.5,95.9121" style="stroke:#181818;stroke-width:0.5;"/><line style="stroke:#181818;stroke-width:0.5;" x1="229" x2="352.5" y1="95.9121" y2="95.9121"/><text fill="#000000" font-family="sans-serif" font-size="6.5" font-weight="bold" lengthAdjust="spacing" textLength="3.5" x="232.5" y="93.2808">3</text><text fill="#000000" font-family="sans-serif" font-size="6.5" lengthAdjust="spacing" textLength="48.5" x="238" y="93.2808">getVehiclesList()</text><polygon fill="#181818" points="234.5,109.5576,229.5,111.5576,234.5,113.5576,232.5,111.5576" style="stroke:#181818;stroke-width:0.5;"/><line style="stroke:#181818;stroke-width:0.5;stroke-dasharray:2.0,2.0;" x1="231.5" x2="357.5" y1="111.5576" y2="111.5576"/><text fill="#000000" font-family="sans-serif" font-size="6.5" font-weight="bold" lengthAdjust="spacing" textLength="3.5" x="237.5" y="108.9263">4</text><text fill="#000000" font-family="sans-serif" font-size="6.5" lengthAdjust="spacing" textLength="30" x="243" y="108.9263">vehicleList</text><line style="stroke:#181818;stroke-width:0.5;stroke-dasharray:2.0,2.0;" x1="229" x2="250" y1="127.2031" y2="127.2031"/><line style="stroke:#181818;stroke-width:0.5;stroke-dasharray:2.0,2.0;" x1="250" x2="250" y1="127.2031" y2="133.7031"/><line style="stroke:#181818;stroke-width:0.5;stroke-dasharray:2.0,2.0;" x1="229.5" x2="250" y1="133.7031" y2="133.7031"/><polygon fill="#181818" points="234.5,131.7031,229.5,133.7031,234.5,135.7031,232.5,133.7031" style="stroke:#181818;stroke-width:0.5;"/><text fill="#000000" font-family="sans-serif" font-size="6.5" font-weight="bold" lengthAdjust="spacing" textLength="3.5" x="232.5" y="124.5718">5</text><text fill="#000000" font-family="sans-serif" font-size="6.5" lengthAdjust="spacing" textLength="46" x="238" y="124.5718">keep vehicleList</text><polygon fill="#181818" points="349.5,147.3486,354.5,149.3486,349.5,151.3486,351.5,149.3486" style="stroke:#181818;stroke-width:0.5;"/><line style="stroke:#181818;stroke-width:0.5;" x1="229" x2="352.5" y1="149.3486" y2="149.3486"/><text fill="#000000" font-family="sans-serif" font-size="6.5" font-weight="bold" lengthAdjust="spacing" textLength="3.5" x="232.5" y="146.7173">6</text><text fill="#000000" font-family="sans-serif" font-size="6.5" lengthAdjust="spacing" textLength="111.5" x="238" y="146.7173">createMaintenanceReport(vehiclesList)</text><polygon fill="#181818" points="619,162.9941,624,164.9941,619,166.9941,621,164.9941" style="stroke:#181818;stroke-width:0.5;"/><line style="stroke:#181818;stroke-width:0.5;" x1="360.5" x2="622" y1="164.9941" y2="164.9941"/><text fill="#000000" font-family="sans-serif" font-size="6.5" font-weight="bold" lengthAdjust="spacing" textLength="3.5" x="364" y="162.3628">7</text><text fill="#000000" font-family="sans-serif" font-size="6.5" lengthAdjust="spacing" textLength="108" x="369.5" y="162.3628">createMaintenanceReport(vehicleList)</text><polygon fill="#181818" points="366,178.6396,361,180.6396,366,182.6396,364,180.6396" style="stroke:#181818;stroke-width:0.5;"/><line style="stroke:#181818;stroke-width:0.5;stroke-dasharray:2.0,2.0;" x1="363" x2="627" y1="180.6396" y2="180.6396"/><text fill="#000000" font-family="sans-serif" font-size="6.5" font-weight="bold" lengthAdjust="spacing" textLength="3.5" x="369" y="178.0083">8</text><text fill="#000000" font-family="sans-serif" font-size="6.5" lengthAdjust="spacing" textLength="56" x="374.5" y="178.0083">maintenanceReport</text><line style="stroke:#181818;stroke-width:0.5;stroke-dasharray:2.0,2.0;" x1="360.5" x2="381.5" y1="196.2852" y2="196.2852"/><line style="stroke:#181818;stroke-width:0.5;stroke-dasharray:2.0,2.0;" x1="381.5" x2="381.5" y1="196.2852" y2="202.7852"/><line style="stroke:#181818;stroke-width:0.5;stroke-dasharray:2.0,2.0;" x1="361" x2="381.5" y1="202.7852" y2="202.7852"/><polygon fill="#181818" points="366,200.7852,361,202.7852,366,204.7852,364,202.7852" style="stroke:#181818;stroke-width:0.5;"/><text fill="#000000" font-family="sans-serif" font-size="6.5" font-weight="bold" lengthAdjust="spacing" textLength="3.5" x="364" y="193.6538">9</text><text fill="#000000" font-family="sans-serif" font-size="6.5" lengthAdjust="spacing" textLength="56" x="369.5" y="193.6538">maintenanceReport</text><polygon fill="#181818" points="234.5,216.4307,229.5,218.4307,234.5,220.4307,232.5,218.4307" style="stroke:#181818;stroke-width:0.5;"/><line style="stroke:#181818;stroke-width:0.5;stroke-dasharray:2.0,2.0;" x1="231.5" x2="357.5" y1="218.4307" y2="218.4307"/><text fill="#000000" font-family="sans-serif" font-size="6.5" font-weight="bold" lengthAdjust="spacing" textLength="7" x="237.5" y="215.7993">10</text><text fill="#000000" font-family="sans-serif" font-size="6.5" lengthAdjust="spacing" textLength="56" x="246.5" y="215.7993">maintenanceReport</text><polygon fill="#181818" points="80.5,232.0762,75.5,234.0762,80.5,236.0762,78.5,234.0762" style="stroke:#181818;stroke-width:0.5;"/><line style="stroke:#181818;stroke-width:0.5;stroke-dasharray:2.0,2.0;" x1="77.5" x2="226" y1="234.0762" y2="234.0762"/><text fill="#000000" font-family="sans-serif" font-size="6.5" font-weight="bold" lengthAdjust="spacing" textLength="7" x="83.5" y="231.4448">11</text><text fill="#000000" font-family="sans-serif" font-size="6.5" lengthAdjust="spacing" textLength="76" x="92.5" y="231.4448">shows maintenance report</text><!--SRC=[ZLJ1Ri8m3BtdAomkOvFs0prCcj0c8L5f0iQ9IsWDHBH9ILos_VsS0AMbWIsdOlizF_jPk9tIbRIoXD9eassjAH78rYXSawbajfCRdD5FWM0n8watHRl0RMLklfJUm5eM3eKGiYQZwtA5LeY7hSeHriRGodmBcP6nC5ZWLcLC9tKER_jQLILgWlS2aI2LcjjP62xUqyS1I0Vy8RWLgKnLaki6oKGvIgNIX5hg33_7eUvpVBziP3HPKnHeG_beFfrS0QPO6QTOea8NQfh0pqpviNckBiIs44lT9_YOlCwxYCDnzWjpijIBwzXnxkjebwYyJDOXIsFnG1ZDt2Mrn4Ebrx4OcILlhZf8mc2O07xy0SylR0maV3hx6Xqv80C56mEdHJZGYBa_drRlW6xusDWGy8-vcD5xz_J4h9b5heYbERb1EktG-LCOFZPb3NKuWYRiNy0-drMVH7fuKvNZ3RXlVWRk4AiEEYxngB-to-6XfVjFsKV9Bt5__-nneqNyM2vDe_amlvUJGE-IOlkxqQJdnMbRVSvxtlrBGTH1VxS9_x6PBzTc0NkXQL7uyspzzDV_2m00]--></g></svg>