<?xml version="1.0" encoding="us-ascii" standalone="no"?><svg xmlns="http://www.w3.org/2000/svg" xmlns:xlink="http://www.w3.org/1999/xlink" contentStyleType="text/css" height="285.3px" preserveAspectRatio="none" style="width:354px;height:285px;background:#FFFFFF;" version="1.1" viewBox="0 0 354 285" width="354.6px" zoomAndPan="magnify"><defs/><g><rect fill="#FFFFFF" height="170.7715" style="stroke:#181818;stroke-width:0.9;" width="9" x="114.3" y="64.7209"/><rect fill="#FFFFFF" height="28.1619" style="stroke:#181818;stroke-width:0.9;" width="9" x="278.1" y="116.5447"/><rect fill="#FFFFFF" height="28.1619" style="stroke:#181818;stroke-width:0.9;" width="9" x="278.1" y="172.8686"/><rect fill="none" height="130.0096" style="stroke:#000000;stroke-width:1.35;" width="296.1" x="53.1" y="78.2209"/><line style="stroke:#181818;stroke-width:0.45;stroke-dasharray:5.0,5.0;" x1="118.8" x2="118.8" y1="34.759" y2="251.6924"/><line style="stroke:#181818;stroke-width:0.45;stroke-dasharray:5.0,5.0;" x1="282.6" x2="282.6" y1="34.759" y2="251.6924"/><rect fill="#E3E3E3" height="29.359" rx="2.25" ry="2.25" style="stroke:#181818;stroke-width:0.45;" width="113.4" x="62.1" y="4.5"/><text fill="#000000" font-family="sans-serif" font-size="12.6" lengthAdjust="spacing" textLength="100.8" x="68.4" y="24.3967">:VehicleController</text><rect fill="#E3E3E3" height="29.359" rx="2.25" ry="2.25" style="stroke:#181818;stroke-width:0.45;" width="113.4" x="62.1" y="250.7924"/><text fill="#000000" font-family="sans-serif" font-size="12.6" lengthAdjust="spacing" textLength="100.8" x="68.4" y="270.6891">:VehicleController</text><rect fill="#E3E3E3" height="29.359" rx="2.25" ry="2.25" style="stroke:#181818;stroke-width:0.45;" width="115.2" x="225" y="4.5"/><text fill="#000000" font-family="sans-serif" font-size="12.6" lengthAdjust="spacing" textLength="102.6" x="231.3" y="24.3967">VehicleRepository</text><rect fill="#E3E3E3" height="29.359" rx="2.25" ry="2.25" style="stroke:#181818;stroke-width:0.45;" width="115.2" x="225" y="250.7924"/><text fill="#000000" font-family="sans-serif" font-size="12.6" lengthAdjust="spacing" textLength="102.6" x="231.3" y="270.6891">VehicleRepository</text><rect fill="#FFFFFF" height="170.7715" style="stroke:#181818;stroke-width:0.9;" width="9" x="114.3" y="64.7209"/><rect fill="#FFFFFF" height="28.1619" style="stroke:#181818;stroke-width:0.9;" width="9" x="278.1" y="116.5447"/><rect fill="#FFFFFF" height="28.1619" style="stroke:#181818;stroke-width:0.9;" width="9" x="278.1" y="172.8686"/><polygon fill="#181818" points="103.5,61.1209,112.5,64.7209,103.5,68.3209,107.1,64.7209" style="stroke:#181818;stroke-width:0.9;"/><line style="stroke:#181818;stroke-width:0.9;" x1="0" x2="108.9" y1="64.7209" y2="64.7209"/><text fill="#000000" font-family="sans-serif" font-size="11.7" font-weight="bold" lengthAdjust="spacing" textLength="6.3" x="6.3" y="59.9845">3</text><text fill="#000000" font-family="sans-serif" font-size="11.7" lengthAdjust="spacing" textLength="87.3" x="16.2" y="59.9845">getVehiclesList()</text><path d="M53.1,78.2209 L183.6,78.2209 L183.6,86.5828 L174.6,95.5828 L53.1,95.5828 L53.1,78.2209 " fill="#EEEEEE" style="stroke:#000000;stroke-width:1.35;"/><rect fill="none" height="130.0096" style="stroke:#000000;stroke-width:1.35;" width="296.1" x="53.1" y="78.2209"/><text fill="#000000" font-family="sans-serif" font-size="11.7" font-weight="bold" lengthAdjust="spacing" textLength="90" x="66.6" y="91.7464">Get Vehicle List</text><polygon fill="#181818" points="267.3,112.9447,276.3,116.5447,267.3,120.1447,270.9,116.5447" style="stroke:#181818;stroke-width:0.9;"/><line style="stroke:#181818;stroke-width:0.9;" x1="123.3" x2="272.7" y1="116.5447" y2="116.5447"/><text fill="#000000" font-family="sans-serif" font-size="11.7" font-weight="bold" lengthAdjust="spacing" textLength="16.2" x="129.6" y="111.8083">3.1</text><text fill="#000000" font-family="sans-serif" font-size="11.7" lengthAdjust="spacing" textLength="117.9" x="149.4" y="111.8083">getVehicleRepository()</text><polygon fill="#181818" points="133.2,141.1066,124.2,144.7066,133.2,148.3066,129.6,144.7066" style="stroke:#181818;stroke-width:0.9;"/><line style="stroke:#181818;stroke-width:0.9;stroke-dasharray:2.0,2.0;" x1="127.8" x2="281.7" y1="144.7066" y2="144.7066"/><text fill="#000000" font-family="sans-serif" font-size="11.7" font-weight="bold" lengthAdjust="spacing" textLength="16.2" x="138.6" y="139.9702">3.2</text><text fill="#000000" font-family="sans-serif" font-size="11.7" lengthAdjust="spacing" textLength="94.5" x="158.4" y="139.9702">VehicleRepository</text><polygon fill="#181818" points="267.3,169.2686,276.3,172.8686,267.3,176.4686,270.9,172.8686" style="stroke:#181818;stroke-width:0.9;"/><line style="stroke:#181818;stroke-width:0.9;" x1="123.3" x2="272.7" y1="172.8686" y2="172.8686"/><text fill="#000000" font-family="sans-serif" font-size="11.7" font-weight="bold" lengthAdjust="spacing" textLength="16.2" x="129.6" y="168.1321">3.3</text><text fill="#000000" font-family="sans-serif" font-size="11.7" lengthAdjust="spacing" textLength="87.3" x="149.4" y="168.1321">getVehiclesList()</text><polygon fill="#181818" points="133.2,197.4305,124.2,201.0305,133.2,204.6305,129.6,201.0305" style="stroke:#181818;stroke-width:0.9;"/><line style="stroke:#181818;stroke-width:0.9;stroke-dasharray:2.0,2.0;" x1="127.8" x2="281.7" y1="201.0305" y2="201.0305"/><text fill="#000000" font-family="sans-serif" font-size="11.7" font-weight="bold" lengthAdjust="spacing" textLength="16.2" x="138.6" y="196.294">3.4</text><text fill="#000000" font-family="sans-serif" font-size="11.7" lengthAdjust="spacing" textLength="60.3" x="158.4" y="196.294">vehiclesList</text><polygon fill="#181818" points="9.9,231.8924,0.9,235.4924,9.9,239.0924,6.3,235.4924" style="stroke:#181818;stroke-width:0.9;"/><line style="stroke:#181818;stroke-width:0.9;stroke-dasharray:2.0,2.0;" x1="4.5" x2="117.9" y1="235.4924" y2="235.4924"/><text fill="#000000" font-family="sans-serif" font-size="11.7" font-weight="bold" lengthAdjust="spacing" textLength="6.3" x="15.3" y="230.756">4</text><text fill="#000000" font-family="sans-serif" font-size="11.7" lengthAdjust="spacing" textLength="54" x="25.2" y="230.756">vehicleList</text><!--SRC=[hP8nJyCm48Nt-nMdBeKXI1LC4UhIeKkdWjYlpZMnwlWY-rBeloSaQUke2874JTRTlU_fsOu7wniAL6CjNamLf6RKq3B4owGXSw2IN_Ja60CR9L-wT25MLCYxzINkoKK6e5R5j_ME0y2yiWNZNaHtyW7GATGQsv1NdELlN5dZU2LUWpZ7OOOKSVMwtQGGV0J0RDdtCSUITTJ5ZOrwTpzPVLW06RL7KXv0s5KPf6rmpOgZ4h-KqC_ErTEpvRYmvKQYLGcdYUErtTccweldpUBKvHQVZSdoRwIfik3VUen9yESevylxtnITnJ7X_p41-s8u92_wr3UUispWNmrwVi8Sliqd]--></g></svg>