<?xml version="1.0" encoding="us-ascii" standalone="no"?><svg xmlns="http://www.w3.org/2000/svg" xmlns:xlink="http://www.w3.org/1999/xlink" contentStyleType="text/css" height="989px" preserveAspectRatio="none" style="width:1607px;height:989px;background:#FFFFFF;" version="1.1" viewBox="0 0 1607 989" width="1607px" zoomAndPan="magnify"><defs/><g><rect fill="#FFFFFF" height="794.3145" style="stroke:#181818;stroke-width:1.0;" width="10" x="145" y="93.6211"/><rect fill="#FFFFFF" height="771.0234" style="stroke:#181818;stroke-width:1.0;" width="10" x="379" y="116.9121"/><rect fill="#FFFFFF" height="219.0371" style="stroke:#181818;stroke-width:1.0;" width="10" x="646" y="191.8242"/><rect fill="#FFFFFF" height="370.2012" style="stroke:#181818;stroke-width:1.0;" width="10" x="646" y="486.4434"/><rect fill="#FFFFFF" height="292.6191" style="stroke:#181818;stroke-width:1.0;" width="10" x="651" y="525.7344"/><rect fill="#FFFFFF" height="31.291" style="stroke:#181818;stroke-width:1.0;" width="10" x="894" y="223.1152"/><rect fill="#FFFFFF" height="31.291" style="stroke:#181818;stroke-width:1.0;" width="10" x="894" y="562.0254"/><rect fill="#FFFFFF" height="31.291" style="stroke:#181818;stroke-width:1.0;" width="10" x="1001" y="285.6973"/><rect fill="#FFFFFF" height="31.291" style="stroke:#181818;stroke-width:1.0;" width="10" x="1001" y="624.6074"/><rect fill="#FFFFFF" height="31.291" style="stroke:#181818;stroke-width:1.0;" width="10" x="1124.5" y="348.2793"/><rect fill="#FFFFFF" height="93.873" style="stroke:#181818;stroke-width:1.0;" width="10" x="1283" y="687.1895"/><rect fill="#FFFFFF" height="31.291" style="stroke:#181818;stroke-width:1.0;" width="10" x="1536" y="718.4805"/><line style="stroke:#181818;stroke-width:0.5;stroke-dasharray:5.0,5.0;" x1="150" x2="150" y1="83.6211" y2="905.9355"/><line style="stroke:#181818;stroke-width:0.5;stroke-dasharray:5.0,5.0;" x1="383.5" x2="383.5" y1="83.6211" y2="905.9355"/><line style="stroke:#181818;stroke-width:0.5;stroke-dasharray:5.0,5.0;" x1="650.5" x2="650.5" y1="156.7227" y2="905.9355"/><line style="stroke:#181818;stroke-width:0.5;stroke-dasharray:5.0,5.0;" x1="898.5" x2="898.5" y1="83.6211" y2="905.9355"/><line style="stroke:#181818;stroke-width:0.5;stroke-dasharray:5.0,5.0;" x1="1005.5" x2="1005.5" y1="83.6211" y2="905.9355"/><line style="stroke:#181818;stroke-width:0.5;stroke-dasharray:5.0,5.0;" x1="1129.5" x2="1129.5" y1="83.6211" y2="905.9355"/><line style="stroke:#181818;stroke-width:0.5;stroke-dasharray:5.0,5.0;" x1="1287.5" x2="1287.5" y1="83.6211" y2="905.9355"/><line style="stroke:#181818;stroke-width:0.5;stroke-dasharray:5.0,5.0;" x1="1540.5" x2="1540.5" y1="83.6211" y2="905.9355"/><text fill="#000000" font-family="sans-serif" font-size="14" lengthAdjust="spacing" textLength="284" x="5" y="80.1074">Vehicle and Equipment Fleet Manager (VFM)</text><ellipse cx="150" cy="13.5" fill="#E3E3E3" rx="8" ry="8" style="stroke:#181818;stroke-width:0.5;"/><path d="M150,21.5 L150,48.5 M137,29.5 L163,29.5 M150,48.5 L137,63.5 M150,48.5 L163,63.5 " fill="none" style="stroke:#181818;stroke-width:0.5;"/><text fill="#000000" font-family="sans-serif" font-size="14" lengthAdjust="spacing" textLength="284" x="5" y="920.043">Vehicle and Equipment Fleet Manager (VFM)</text><ellipse cx="150" cy="932.0566" fill="#E3E3E3" rx="8" ry="8" style="stroke:#181818;stroke-width:0.5;"/><path d="M150,940.0566 L150,967.0566 M137,948.0566 L163,948.0566 M150,967.0566 L137,982.0566 M150,967.0566 L163,982.0566 " fill="none" style="stroke:#181818;stroke-width:0.5;"/><rect fill="#E3E3E3" height="32.6211" rx="2.5" ry="2.5" style="stroke:#181818;stroke-width:0.5;" width="133" x="317.5" y="50"/><text fill="#000000" font-family="sans-serif" font-size="14" lengthAdjust="spacing" textLength="119" x="324.5" y="72.1074">:ListMaintenanceUI</text><rect fill="#E3E3E3" height="32.6211" rx="2.5" ry="2.5" style="stroke:#181818;stroke-width:0.5;" width="133" x="317.5" y="904.9355"/><text fill="#000000" font-family="sans-serif" font-size="14" lengthAdjust="spacing" textLength="119" x="324.5" y="927.043">:ListMaintenanceUI</text><rect fill="#E3E3E3" height="32.6211" rx="2.5" ry="2.5" style="stroke:#181818;stroke-width:0.5;" width="183" x="559.5" y="904.9355"/><text fill="#000000" font-family="sans-serif" font-size="14" lengthAdjust="spacing" textLength="169" x="566.5" y="927.043">:ListMaintenanceController</text><rect fill="#E3E3E3" height="32.6211" rx="2.5" ry="2.5" style="stroke:#181818;stroke-width:0.5;" width="97" x="850.5" y="50"/><text fill="#000000" font-family="sans-serif" font-size="14" lengthAdjust="spacing" textLength="83" x="857.5" y="72.1074">:Repositories</text><rect fill="#E3E3E3" height="32.6211" rx="2.5" ry="2.5" style="stroke:#181818;stroke-width:0.5;" width="97" x="850.5" y="904.9355"/><text fill="#000000" font-family="sans-serif" font-size="14" lengthAdjust="spacing" textLength="83" x="857.5" y="927.043">:Repositories</text><rect fill="#E3E3E3" height="51.2422" rx="2.5" ry="2.5" style="stroke:#181818;stroke-width:0.5;" width="97" x="957.5" y="31.3789"/><text fill="#000000" font-family="sans-serif" font-size="14" lengthAdjust="spacing" textLength="74" x="969" y="53.4863">repositories</text><text fill="#000000" font-family="sans-serif" font-size="14" lengthAdjust="spacing" textLength="83" x="964.5" y="72.1074">:Repositories</text><rect fill="#E3E3E3" height="51.2422" rx="2.5" ry="2.5" style="stroke:#181818;stroke-width:0.5;" width="97" x="957.5" y="904.9355"/><text fill="#000000" font-family="sans-serif" font-size="14" lengthAdjust="spacing" textLength="74" x="969" y="927.043">repositories</text><text fill="#000000" font-family="sans-serif" font-size="14" lengthAdjust="spacing" textLength="83" x="964.5" y="945.6641">:Repositories</text><rect fill="#E3E3E3" height="51.2422" rx="2.5" ry="2.5" style="stroke:#181818;stroke-width:0.5;" width="130" x="1064.5" y="31.3789"/><text fill="#000000" font-family="sans-serif" font-size="14" lengthAdjust="spacing" textLength="116" x="1071.5" y="53.4863">vehicleRepository:</text><text fill="#000000" font-family="sans-serif" font-size="14" lengthAdjust="spacing" textLength="114" x="1072.5" y="72.1074">VehicleRepository</text><rect fill="#E3E3E3" height="51.2422" rx="2.5" ry="2.5" style="stroke:#181818;stroke-width:0.5;" width="130" x="1064.5" y="904.9355"/><text fill="#000000" font-family="sans-serif" font-size="14" lengthAdjust="spacing" textLength="116" x="1071.5" y="927.043">vehicleRepository:</text><text fill="#000000" font-family="sans-serif" font-size="14" lengthAdjust="spacing" textLength="114" x="1072.5" y="945.6641">VehicleRepository</text><rect fill="#E3E3E3" height="51.2422" rx="2.5" ry="2.5" style="stroke:#181818;stroke-width:0.5;" width="167" x="1204.5" y="31.3789"/><text fill="#000000" font-family="sans-serif" font-size="14" lengthAdjust="spacing" textLength="153" x="1211.5" y="53.4863">maintenanceRepository:</text><text fill="#000000" font-family="sans-serif" font-size="14" lengthAdjust="spacing" textLength="149" x="1213.5" y="72.1074">MaintenanceRepository</text><rect fill="#E3E3E3" height="51.2422" rx="2.5" ry="2.5" style="stroke:#181818;stroke-width:0.5;" width="167" x="1204.5" y="904.9355"/><text fill="#000000" font-family="sans-serif" font-size="14" lengthAdjust="spacing" textLength="153" x="1211.5" y="927.043">maintenanceRepository:</text><text fill="#000000" font-family="sans-serif" font-size="14" lengthAdjust="spacing" textLength="149" x="1213.5" y="945.6641">MaintenanceRepository</text><rect fill="#E3E3E3" height="51.2422" rx="2.5" ry="2.5" style="stroke:#181818;stroke-width:0.5;" width="121" x="1480.5" y="31.3789"/><text fill="#000000" font-family="sans-serif" font-size="14" lengthAdjust="spacing" textLength="103" x="1489.5" y="53.4863">maintenanceList</text><text fill="#000000" font-family="sans-serif" font-size="14" lengthAdjust="spacing" textLength="107" x="1487.5" y="72.1074">:MaintenanceList</text><rect fill="#E3E3E3" height="51.2422" rx="2.5" ry="2.5" style="stroke:#181818;stroke-width:0.5;" width="121" x="1480.5" y="904.9355"/><text fill="#000000" font-family="sans-serif" font-size="14" lengthAdjust="spacing" textLength="103" x="1489.5" y="927.043">maintenanceList</text><text fill="#000000" font-family="sans-serif" font-size="14" lengthAdjust="spacing" textLength="107" x="1487.5" y="945.6641">:MaintenanceList</text><rect fill="#FFFFFF" height="794.3145" style="stroke:#181818;stroke-width:1.0;" width="10" x="145" y="93.6211"/><rect fill="#FFFFFF" height="771.0234" style="stroke:#181818;stroke-width:1.0;" width="10" x="379" y="116.9121"/><rect fill="#FFFFFF" height="219.0371" style="stroke:#181818;stroke-width:1.0;" width="10" x="646" y="191.8242"/><rect fill="#FFFFFF" height="370.2012" style="stroke:#181818;stroke-width:1.0;" width="10" x="646" y="486.4434"/><rect fill="#FFFFFF" height="292.6191" style="stroke:#181818;stroke-width:1.0;" width="10" x="651" y="525.7344"/><rect fill="#FFFFFF" height="31.291" style="stroke:#181818;stroke-width:1.0;" width="10" x="894" y="223.1152"/><rect fill="#FFFFFF" height="31.291" style="stroke:#181818;stroke-width:1.0;" width="10" x="894" y="562.0254"/><rect fill="#FFFFFF" height="31.291" style="stroke:#181818;stroke-width:1.0;" width="10" x="1001" y="285.6973"/><rect fill="#FFFFFF" height="31.291" style="stroke:#181818;stroke-width:1.0;" width="10" x="1001" y="624.6074"/><rect fill="#FFFFFF" height="31.291" style="stroke:#181818;stroke-width:1.0;" width="10" x="1124.5" y="348.2793"/><rect fill="#FFFFFF" height="93.873" style="stroke:#181818;stroke-width:1.0;" width="10" x="1283" y="687.1895"/><rect fill="#FFFFFF" height="31.291" style="stroke:#181818;stroke-width:1.0;" width="10" x="1536" y="718.4805"/><polygon fill="#181818" points="367,112.9121,377,116.9121,367,120.9121,371,116.9121" style="stroke:#181818;stroke-width:1.0;"/><line style="stroke:#181818;stroke-width:1.0;" x1="155" x2="373" y1="116.9121" y2="116.9121"/><text fill="#000000" font-family="sans-serif" font-size="13" font-weight="bold" lengthAdjust="spacing" textLength="7" x="162" y="111.6494">1</text><text fill="#000000" font-family="sans-serif" font-size="13" lengthAdjust="spacing" textLength="194" x="173" y="111.6494">list vehicles needing maintenance</text><polygon fill="#181818" points="547.5,144.2031,557.5,148.2031,547.5,152.2031,551.5,148.2031" style="stroke:#181818;stroke-width:1.0;"/><line style="stroke:#181818;stroke-width:1.0;" x1="389" x2="553.5" y1="148.2031" y2="148.2031"/><text fill="#000000" font-family="sans-serif" font-size="13" font-weight="bold" lengthAdjust="spacing" textLength="7" x="396" y="142.9404">2</text><text fill="#000000" font-family="sans-serif" font-size="13" lengthAdjust="spacing" textLength="36" x="407" y="142.9404">create</text><rect fill="#E3E3E3" height="32.6211" rx="2.5" ry="2.5" style="stroke:#181818;stroke-width:0.5;" width="183" x="559.5" y="124.9121"/><text fill="#000000" font-family="sans-serif" font-size="14" lengthAdjust="spacing" textLength="169" x="566.5" y="147.0195">:ListMaintenanceController</text><polygon fill="#181818" points="634,187.8242,644,191.8242,634,195.8242,638,191.8242" style="stroke:#181818;stroke-width:1.0;"/><line style="stroke:#181818;stroke-width:1.0;" x1="389" x2="640" y1="191.8242" y2="191.8242"/><text fill="#000000" font-family="sans-serif" font-size="13" font-weight="bold" lengthAdjust="spacing" textLength="7" x="396" y="186.5615">3</text><text fill="#000000" font-family="sans-serif" font-size="13" lengthAdjust="spacing" textLength="97" x="407" y="186.5615">getVehiclesList()</text><polygon fill="#181818" points="882,219.1152,892,223.1152,882,227.1152,886,223.1152" style="stroke:#181818;stroke-width:1.0;"/><line style="stroke:#181818;stroke-width:1.0;" x1="656" x2="888" y1="223.1152" y2="223.1152"/><text fill="#000000" font-family="sans-serif" font-size="13" font-weight="bold" lengthAdjust="spacing" textLength="7" x="663" y="217.8525">4</text><text fill="#000000" font-family="sans-serif" font-size="13" lengthAdjust="spacing" textLength="75" x="674" y="217.8525">getInstance()</text><polygon fill="#181818" points="667,250.4063,657,254.4063,667,258.4063,663,254.4063" style="stroke:#181818;stroke-width:1.0;"/><line style="stroke:#181818;stroke-width:1.0;stroke-dasharray:2.0,2.0;" x1="661" x2="898" y1="254.4063" y2="254.4063"/><text fill="#000000" font-family="sans-serif" font-size="13" font-weight="bold" lengthAdjust="spacing" textLength="7" x="673" y="249.1436">5</text><text fill="#000000" font-family="sans-serif" font-size="13" lengthAdjust="spacing" textLength="67" x="684" y="249.1436">repositories</text><polygon fill="#181818" points="989,281.6973,999,285.6973,989,289.6973,993,285.6973" style="stroke:#181818;stroke-width:1.0;"/><line style="stroke:#181818;stroke-width:1.0;" x1="656" x2="995" y1="285.6973" y2="285.6973"/><text fill="#000000" font-family="sans-serif" font-size="13" font-weight="bold" lengthAdjust="spacing" textLength="7" x="663" y="280.4346">6</text><text fill="#000000" font-family="sans-serif" font-size="13" lengthAdjust="spacing" textLength="131" x="674" y="280.4346">getVehicleRepository()</text><polygon fill="#181818" points="667,312.9883,657,316.9883,667,320.9883,663,316.9883" style="stroke:#181818;stroke-width:1.0;"/><line style="stroke:#181818;stroke-width:1.0;stroke-dasharray:2.0,2.0;" x1="661" x2="1005" y1="316.9883" y2="316.9883"/><text fill="#000000" font-family="sans-serif" font-size="13" font-weight="bold" lengthAdjust="spacing" textLength="7" x="673" y="311.7256">7</text><text fill="#000000" font-family="sans-serif" font-size="13" lengthAdjust="spacing" textLength="105" x="684" y="311.7256">VehicleRepository</text><polygon fill="#181818" points="1112.5,344.2793,1122.5,348.2793,1112.5,352.2793,1116.5,348.2793" style="stroke:#181818;stroke-width:1.0;"/><line style="stroke:#181818;stroke-width:1.0;" x1="656" x2="1118.5" y1="348.2793" y2="348.2793"/><text fill="#000000" font-family="sans-serif" font-size="13" font-weight="bold" lengthAdjust="spacing" textLength="7" x="663" y="343.0166">8</text><text fill="#000000" font-family="sans-serif" font-size="13" lengthAdjust="spacing" textLength="97" x="674" y="343.0166">getVehiclesList()</text><polygon fill="#181818" points="667,375.5703,657,379.5703,667,383.5703,663,379.5703" style="stroke:#181818;stroke-width:1.0;"/><line style="stroke:#181818;stroke-width:1.0;stroke-dasharray:2.0,2.0;" x1="661" x2="1128.5" y1="379.5703" y2="379.5703"/><text fill="#000000" font-family="sans-serif" font-size="13" font-weight="bold" lengthAdjust="spacing" textLength="7" x="673" y="374.3076">9</text><text fill="#000000" font-family="sans-serif" font-size="13" lengthAdjust="spacing" textLength="60" x="684" y="374.3076">vehicleList</text><polygon fill="#181818" points="400,406.8613,390,410.8613,400,414.8613,396,410.8613" style="stroke:#181818;stroke-width:1.0;"/><line style="stroke:#181818;stroke-width:1.0;stroke-dasharray:2.0,2.0;" x1="394" x2="650" y1="410.8613" y2="410.8613"/><text fill="#000000" font-family="sans-serif" font-size="13" font-weight="bold" lengthAdjust="spacing" textLength="14" x="406" y="405.5986">10</text><text fill="#000000" font-family="sans-serif" font-size="13" lengthAdjust="spacing" textLength="60" x="424" y="405.5986">vehicleList</text><line style="stroke:#181818;stroke-width:1.0;stroke-dasharray:2.0,2.0;" x1="389" x2="431" y1="442.1523" y2="442.1523"/><line style="stroke:#181818;stroke-width:1.0;stroke-dasharray:2.0,2.0;" x1="431" x2="431" y1="442.1523" y2="455.1523"/><line style="stroke:#181818;stroke-width:1.0;stroke-dasharray:2.0,2.0;" x1="390" x2="431" y1="455.1523" y2="455.1523"/><polygon fill="#181818" points="400,451.1523,390,455.1523,400,459.1523,396,455.1523" style="stroke:#181818;stroke-width:1.0;"/><text fill="#000000" font-family="sans-serif" font-size="13" font-weight="bold" lengthAdjust="spacing" textLength="14" x="396" y="436.8896">11</text><text fill="#000000" font-family="sans-serif" font-size="13" lengthAdjust="spacing" textLength="92" x="414" y="436.8896">keep vehicleList</text><polygon fill="#181818" points="634,482.4434,644,486.4434,634,490.4434,638,486.4434" style="stroke:#181818;stroke-width:1.0;"/><line style="stroke:#181818;stroke-width:1.0;" x1="389" x2="640" y1="486.4434" y2="486.4434"/><text fill="#000000" font-family="sans-serif" font-size="13" font-weight="bold" lengthAdjust="spacing" textLength="14" x="396" y="481.1807">12</text><text fill="#000000" font-family="sans-serif" font-size="13" lengthAdjust="spacing" textLength="220" x="414" y="481.1807">generateMaintenanceList(vehiclesList)</text><line style="stroke:#181818;stroke-width:1.0;" x1="656" x2="703" y1="512.7344" y2="512.7344"/><line style="stroke:#181818;stroke-width:1.0;" x1="703" x2="703" y1="512.7344" y2="525.7344"/><line style="stroke:#181818;stroke-width:1.0;" x1="662" x2="703" y1="525.7344" y2="525.7344"/><polygon fill="#181818" points="672,521.7344,662,525.7344,672,529.7344,668,525.7344" style="stroke:#181818;stroke-width:1.0;"/><text fill="#000000" font-family="sans-serif" font-size="13" font-weight="bold" lengthAdjust="spacing" textLength="14" x="668" y="507.4717">13</text><text fill="#000000" font-family="sans-serif" font-size="13" lengthAdjust="spacing" textLength="206" x="686" y="507.4717">createMaintenanceList(vehiclesList)</text><polygon fill="#181818" points="882,558.0254,892,562.0254,882,566.0254,886,562.0254" style="stroke:#181818;stroke-width:1.0;"/><line style="stroke:#181818;stroke-width:1.0;" x1="661" x2="888" y1="562.0254" y2="562.0254"/><text fill="#000000" font-family="sans-serif" font-size="13" font-weight="bold" lengthAdjust="spacing" textLength="14" x="668" y="556.7627">14</text><text fill="#000000" font-family="sans-serif" font-size="13" lengthAdjust="spacing" textLength="75" x="686" y="556.7627">getInstance()</text><polygon fill="#181818" points="672,589.3164,662,593.3164,672,597.3164,668,593.3164" style="stroke:#181818;stroke-width:1.0;"/><line style="stroke:#181818;stroke-width:1.0;stroke-dasharray:2.0,2.0;" x1="666" x2="898" y1="593.3164" y2="593.3164"/><text fill="#000000" font-family="sans-serif" font-size="13" font-weight="bold" lengthAdjust="spacing" textLength="14" x="678" y="588.0537">15</text><text fill="#000000" font-family="sans-serif" font-size="13" lengthAdjust="spacing" textLength="67" x="696" y="588.0537">repositories</text><polygon fill="#181818" points="989,620.6074,999,624.6074,989,628.6074,993,624.6074" style="stroke:#181818;stroke-width:1.0;"/><line style="stroke:#181818;stroke-width:1.0;" x1="661" x2="995" y1="624.6074" y2="624.6074"/><text fill="#000000" font-family="sans-serif" font-size="13" font-weight="bold" lengthAdjust="spacing" textLength="14" x="668" y="619.3447">16</text><text fill="#000000" font-family="sans-serif" font-size="13" lengthAdjust="spacing" textLength="162" x="686" y="619.3447">getMaintenanceRepository()</text><polygon fill="#181818" points="672,651.8984,662,655.8984,672,659.8984,668,655.8984" style="stroke:#181818;stroke-width:1.0;"/><line style="stroke:#181818;stroke-width:1.0;stroke-dasharray:2.0,2.0;" x1="666" x2="1005" y1="655.8984" y2="655.8984"/><text fill="#000000" font-family="sans-serif" font-size="13" font-weight="bold" lengthAdjust="spacing" textLength="14" x="678" y="650.6357">17</text><text fill="#000000" font-family="sans-serif" font-size="13" lengthAdjust="spacing" textLength="136" x="696" y="650.6357">MaintenanceRepository</text><polygon fill="#181818" points="1271,683.1895,1281,687.1895,1271,691.1895,1275,687.1895" style="stroke:#181818;stroke-width:1.0;"/><line style="stroke:#181818;stroke-width:1.0;" x1="661" x2="1277" y1="687.1895" y2="687.1895"/><text fill="#000000" font-family="sans-serif" font-size="13" font-weight="bold" lengthAdjust="spacing" textLength="14" x="668" y="681.9268">18</text><text fill="#000000" font-family="sans-serif" font-size="13" lengthAdjust="spacing" textLength="206" x="686" y="681.9268">createMaintenanceList(vehiclesList)</text><polygon fill="#181818" points="1524,714.4805,1534,718.4805,1524,722.4805,1528,718.4805" style="stroke:#181818;stroke-width:1.0;"/><line style="stroke:#181818;stroke-width:1.0;" x1="1293" x2="1530" y1="718.4805" y2="718.4805"/><text fill="#000000" font-family="sans-serif" font-size="13" font-weight="bold" lengthAdjust="spacing" textLength="14" x="1300" y="713.2178">19</text><text fill="#000000" font-family="sans-serif" font-size="13" lengthAdjust="spacing" textLength="206" x="1318" y="713.2178">createMaintenanceList(vehiclesList)</text><polygon fill="#181818" points="1304,745.7715,1294,749.7715,1304,753.7715,1300,749.7715" style="stroke:#181818;stroke-width:1.0;"/><line style="stroke:#181818;stroke-width:1.0;stroke-dasharray:2.0,2.0;" x1="1298" x2="1540" y1="749.7715" y2="749.7715"/><text fill="#000000" font-family="sans-serif" font-size="13" font-weight="bold" lengthAdjust="spacing" textLength="14" x="1310" y="744.5088">20</text><text fill="#000000" font-family="sans-serif" font-size="13" lengthAdjust="spacing" textLength="95" x="1328" y="744.5088">maintenanceList</text><polygon fill="#181818" points="672,777.0625,662,781.0625,672,785.0625,668,781.0625" style="stroke:#181818;stroke-width:1.0;"/><line style="stroke:#181818;stroke-width:1.0;stroke-dasharray:2.0,2.0;" x1="666" x2="1287" y1="781.0625" y2="781.0625"/><text fill="#000000" font-family="sans-serif" font-size="13" font-weight="bold" lengthAdjust="spacing" textLength="14" x="678" y="775.7998">21</text><text fill="#000000" font-family="sans-serif" font-size="13" lengthAdjust="spacing" textLength="95" x="696" y="775.7998">maintenanceList</text><line style="stroke:#181818;stroke-width:1.0;stroke-dasharray:2.0,2.0;" x1="661" x2="703" y1="817.3535" y2="817.3535"/><line style="stroke:#181818;stroke-width:1.0;stroke-dasharray:2.0,2.0;" x1="703" x2="703" y1="817.3535" y2="830.3535"/><line style="stroke:#181818;stroke-width:1.0;stroke-dasharray:2.0,2.0;" x1="656" x2="703" y1="830.3535" y2="830.3535"/><polygon fill="#181818" points="666,826.3535,656,830.3535,666,834.3535,662,830.3535" style="stroke:#181818;stroke-width:1.0;"/><text fill="#000000" font-family="sans-serif" font-size="13" font-weight="bold" lengthAdjust="spacing" textLength="14" x="668" y="812.0908">22</text><text fill="#000000" font-family="sans-serif" font-size="13" lengthAdjust="spacing" textLength="95" x="686" y="812.0908">maintenanceList</text><polygon fill="#181818" points="400,852.6445,390,856.6445,400,860.6445,396,856.6445" style="stroke:#181818;stroke-width:1.0;"/><line style="stroke:#181818;stroke-width:1.0;stroke-dasharray:2.0,2.0;" x1="394" x2="650" y1="856.6445" y2="856.6445"/><text fill="#000000" font-family="sans-serif" font-size="13" font-weight="bold" lengthAdjust="spacing" textLength="14" x="406" y="851.3818">23</text><text fill="#000000" font-family="sans-serif" font-size="13" lengthAdjust="spacing" textLength="95" x="424" y="851.3818">maintenanceList</text><polygon fill="#181818" points="161,883.9355,151,887.9355,161,891.9355,157,887.9355" style="stroke:#181818;stroke-width:1.0;"/><line style="stroke:#181818;stroke-width:1.0;stroke-dasharray:2.0,2.0;" x1="155" x2="383" y1="887.9355" y2="887.9355"/><text fill="#000000" font-family="sans-serif" font-size="13" font-weight="bold" lengthAdjust="spacing" textLength="14" x="167" y="882.6729">24</text><text fill="#000000" font-family="sans-serif" font-size="13" lengthAdjust="spacing" textLength="58" x="185" y="882.6729">shows list</text><!--SRC=[fPPBRkCm38RtFWMHpQG5SW4l2WoAAH0W1WPzPDMDwh2945jo9IMTtdue-IbRjfDMAqCcF_uKITdwo4N15CiXbqAc1oLp1ADE6EdcJS7I8zlZa_dA41IcXebzrZNG1xQJdrpiuPrb6gE8dOmKf_mDLHJzEl0TmhkKvat-YrXgf8B55Wyy9HeJE_ZpSU95ZiB0GuPe8662eYbORX-IcmKm3VGGKIJ3Krumibl46wvDmhWmA9X8yMNjx5xMqsRtKXWbimoLCxz_Vjpq71wna9gJH8xQsJGRNq_SParv-Iwgu_4gXe2_cz_FliUvpBqbnwzYszyhy-xl-g2ypSo39Q5z1mo-6ONQqwEK4d-d3x9xaQqhFpE3hbOHqA87MDrHJI3Eo0Igj3K8n9tjbKuavz0Wg8nkmovo9uYjrEqjn90g98lGQtgvHrETcBQYbZUDMODs9M-sxNA-n0WKkaIkXJPMOmVd8KCTubdQ5QAlAkKnT7l8SztXvM7gH6p3UOVHUewbu7fqeDc1Mf73PXnHEgJLqWQ8oQ9v4eVH1tg7z5NR6rNtkMOTqJqJeaoYwkWWhyFo-ynsQUruH2myxx5U5gY8r1kqvRbpLbVrTyKj1-WowWpv9zDp_GJzO8gkdQJmD0NlpgcqmbCLcApmhJoHGPXSImxYlb5wBvcmnc1suVY-C1ljcvB6PFd3D2B8nLrD75BlynVaTIen6t_aCDg1d0iO3ZPxILr07xskXhVT66RknhF_037z7ifF3Ldjs76oN_hk3Kp_3ly1]--></g></svg>