<?xml version="1.0" encoding="us-ascii" standalone="no"?><svg xmlns="http://www.w3.org/2000/svg" xmlns:xlink="http://www.w3.org/1999/xlink" contentStyleType="text/css" height="504.39px" preserveAspectRatio="none" style="width:851px;height:504px;background:#FFFFFF;" version="1.1" viewBox="0 0 851 504" width="851.19px" zoomAndPan="magnify"><defs/><g><rect fill="#FFFFFF" height="405.1004" style="stroke:#181818;stroke-width:0.51;" width="5.1" x="73.95" y="47.7468"/><rect fill="#FFFFFF" height="393.222" style="stroke:#181818;stroke-width:0.51;" width="5.1" x="193.29" y="59.6252"/><rect fill="#FFFFFF" height="111.7089" style="stroke:#181818;stroke-width:0.51;" width="5.1" x="338.13" y="97.8304"/><rect fill="#FFFFFF" height="188.8026" style="stroke:#181818;stroke-width:0.51;" width="5.1" x="338.13" y="248.0861"/><rect fill="#FFFFFF" height="149.2358" style="stroke:#181818;stroke-width:0.51;" width="5.1" x="340.68" y="268.1245"/><rect fill="#FFFFFF" height="15.9584" style="stroke:#181818;stroke-width:0.51;" width="5.1" x="473.28" y="113.7888"/><rect fill="#FFFFFF" height="15.9584" style="stroke:#181818;stroke-width:0.51;" width="5.1" x="473.28" y="286.6329"/><rect fill="#FFFFFF" height="15.9584" style="stroke:#181818;stroke-width:0.51;" width="5.1" x="527.85" y="145.7056"/><rect fill="#FFFFFF" height="15.9584" style="stroke:#181818;stroke-width:0.51;" width="5.1" x="527.85" y="318.5498"/><rect fill="#FFFFFF" height="15.9584" style="stroke:#181818;stroke-width:0.51;" width="5.1" x="590.835" y="177.6224"/><rect fill="#FFFFFF" height="47.8753" style="stroke:#181818;stroke-width:0.51;" width="5.1" x="671.67" y="350.4666"/><rect fill="#FFFFFF" height="15.9584" style="stroke:#181818;stroke-width:0.51;" width="5.1" x="809.37" y="366.425"/><line style="stroke:#181818;stroke-width:0.255;stroke-dasharray:5.0,5.0;" x1="76.5" x2="76.5" y1="42.6468" y2="462.0271"/><line style="stroke:#181818;stroke-width:0.255;stroke-dasharray:5.0,5.0;" x1="195.585" x2="195.585" y1="42.6468" y2="462.0271"/><line style="stroke:#181818;stroke-width:0.255;stroke-dasharray:5.0,5.0;" x1="340.425" x2="340.425" y1="79.9286" y2="462.0271"/><line style="stroke:#181818;stroke-width:0.255;stroke-dasharray:5.0,5.0;" x1="475.575" x2="475.575" y1="42.6468" y2="462.0271"/><line style="stroke:#181818;stroke-width:0.255;stroke-dasharray:5.0,5.0;" x1="530.145" x2="530.145" y1="42.6468" y2="462.0271"/><line style="stroke:#181818;stroke-width:0.255;stroke-dasharray:5.0,5.0;" x1="593.385" x2="593.385" y1="42.6468" y2="462.0271"/><line style="stroke:#181818;stroke-width:0.255;stroke-dasharray:5.0,5.0;" x1="673.965" x2="673.965" y1="42.6468" y2="462.0271"/><line style="stroke:#181818;stroke-width:0.255;stroke-dasharray:5.0,5.0;" x1="811.92" x2="811.92" y1="42.6468" y2="462.0271"/><text fill="#000000" font-family="sans-serif" font-size="7.14" lengthAdjust="spacing" textLength="144.84" x="2.55" y="40.8548">Vehicle and Equipment Fleet Manager (VFM)</text><ellipse cx="76.5" cy="6.885" fill="#E3E3E3" rx="4.08" ry="4.08" style="stroke:#181818;stroke-width:0.255;"/><path d="M76.5,10.965 L76.5,24.735 M69.87,15.045 L83.13,15.045 M76.5,24.735 L69.87,32.385 M76.5,24.735 L83.13,32.385 " fill="none" style="stroke:#181818;stroke-width:0.255;"/><text fill="#000000" font-family="sans-serif" font-size="7.14" lengthAdjust="spacing" textLength="144.84" x="2.55" y="469.2219">Vehicle and Equipment Fleet Manager (VFM)</text><ellipse cx="76.5" cy="475.3489" fill="#E3E3E3" rx="4.08" ry="4.08" style="stroke:#181818;stroke-width:0.255;"/><path d="M76.5,479.4289 L76.5,493.1989 M69.87,483.5089 L83.13,483.5089 M76.5,493.1989 L69.87,500.8489 M76.5,493.1989 L83.13,500.8489 " fill="none" style="stroke:#181818;stroke-width:0.255;"/><rect fill="#E3E3E3" height="16.6368" rx="1.275" ry="1.275" style="stroke:#181818;stroke-width:0.255;" width="67.83" x="161.925" y="25.5"/><text fill="#000000" font-family="sans-serif" font-size="7.14" lengthAdjust="spacing" textLength="60.69" x="165.495" y="36.7748">:ListMaintenanceUI</text><rect fill="#E3E3E3" height="16.6368" rx="1.275" ry="1.275" style="stroke:#181818;stroke-width:0.255;" width="67.83" x="161.925" y="461.5171"/><text fill="#000000" font-family="sans-serif" font-size="7.14" lengthAdjust="spacing" textLength="60.69" x="165.495" y="472.7919">:ListMaintenanceUI</text><rect fill="#E3E3E3" height="16.6368" rx="1.275" ry="1.275" style="stroke:#181818;stroke-width:0.255;" width="93.33" x="294.015" y="461.5171"/><text fill="#000000" font-family="sans-serif" font-size="7.14" lengthAdjust="spacing" textLength="86.19" x="297.585" y="472.7919">:ListMaintenanceController</text><rect fill="#E3E3E3" height="16.6368" rx="1.275" ry="1.275" style="stroke:#181818;stroke-width:0.255;" width="49.47" x="451.095" y="25.5"/><text fill="#000000" font-family="sans-serif" font-size="7.14" lengthAdjust="spacing" textLength="42.33" x="454.665" y="36.7748">:Repositories</text><rect fill="#E3E3E3" height="16.6368" rx="1.275" ry="1.275" style="stroke:#181818;stroke-width:0.255;" width="49.47" x="451.095" y="461.5171"/><text fill="#000000" font-family="sans-serif" font-size="7.14" lengthAdjust="spacing" textLength="42.33" x="454.665" y="472.7919">:Repositories</text><rect fill="#E3E3E3" height="26.1335" rx="1.275" ry="1.275" style="stroke:#181818;stroke-width:0.255;" width="49.47" x="505.665" y="16.0032"/><text fill="#000000" font-family="sans-serif" font-size="7.14" lengthAdjust="spacing" textLength="37.74" x="511.53" y="27.278">repositories</text><text fill="#000000" font-family="sans-serif" font-size="7.14" lengthAdjust="spacing" textLength="42.33" x="509.235" y="36.7748">:Repositories</text><rect fill="#E3E3E3" height="26.1335" rx="1.275" ry="1.275" style="stroke:#181818;stroke-width:0.255;" width="49.47" x="505.665" y="461.5171"/><text fill="#000000" font-family="sans-serif" font-size="7.14" lengthAdjust="spacing" textLength="37.74" x="511.53" y="472.7919">repositories</text><text fill="#000000" font-family="sans-serif" font-size="7.14" lengthAdjust="spacing" textLength="42.33" x="509.235" y="482.2887">:Repositories</text><rect fill="#E3E3E3" height="26.1335" rx="1.275" ry="1.275" style="stroke:#181818;stroke-width:0.255;" width="66.3" x="560.235" y="16.0032"/><text fill="#000000" font-family="sans-serif" font-size="7.14" lengthAdjust="spacing" textLength="59.16" x="563.805" y="27.278">vehicleRepository:</text><text fill="#000000" font-family="sans-serif" font-size="7.14" lengthAdjust="spacing" textLength="58.14" x="564.315" y="36.7748">VehicleRepository</text><rect fill="#E3E3E3" height="26.1335" rx="1.275" ry="1.275" style="stroke:#181818;stroke-width:0.255;" width="66.3" x="560.235" y="461.5171"/><text fill="#000000" font-family="sans-serif" font-size="7.14" lengthAdjust="spacing" textLength="59.16" x="563.805" y="472.7919">vehicleRepository:</text><text fill="#000000" font-family="sans-serif" font-size="7.14" lengthAdjust="spacing" textLength="58.14" x="564.315" y="482.2887">VehicleRepository</text><rect fill="#E3E3E3" height="26.1335" rx="1.275" ry="1.275" style="stroke:#181818;stroke-width:0.255;" width="85.17" x="631.635" y="16.0032"/><text fill="#000000" font-family="sans-serif" font-size="7.14" lengthAdjust="spacing" textLength="78.03" x="635.205" y="27.278">maintenanceRepository:</text><text fill="#000000" font-family="sans-serif" font-size="7.14" lengthAdjust="spacing" textLength="75.99" x="636.225" y="36.7748">MaintenanceRepository</text><rect fill="#E3E3E3" height="26.1335" rx="1.275" ry="1.275" style="stroke:#181818;stroke-width:0.255;" width="85.17" x="631.635" y="461.5171"/><text fill="#000000" font-family="sans-serif" font-size="7.14" lengthAdjust="spacing" textLength="78.03" x="635.205" y="472.7919">maintenanceRepository:</text><text fill="#000000" font-family="sans-serif" font-size="7.14" lengthAdjust="spacing" textLength="75.99" x="636.225" y="482.2887">MaintenanceRepository</text><rect fill="#E3E3E3" height="26.1335" rx="1.275" ry="1.275" style="stroke:#181818;stroke-width:0.255;" width="72.42" x="775.71" y="16.0032"/><text fill="#000000" font-family="sans-serif" font-size="7.14" lengthAdjust="spacing" textLength="63.24" x="780.3" y="27.278">maintenanceReport</text><text fill="#000000" font-family="sans-serif" font-size="7.14" lengthAdjust="spacing" textLength="65.28" x="779.28" y="36.7748">:MaintenanceReport</text><rect fill="#E3E3E3" height="26.1335" rx="1.275" ry="1.275" style="stroke:#181818;stroke-width:0.255;" width="72.42" x="775.71" y="461.5171"/><text fill="#000000" font-family="sans-serif" font-size="7.14" lengthAdjust="spacing" textLength="63.24" x="780.3" y="472.7919">maintenanceReport</text><text fill="#000000" font-family="sans-serif" font-size="7.14" lengthAdjust="spacing" textLength="65.28" x="779.28" y="482.2887">:MaintenanceReport</text><rect fill="#FFFFFF" height="405.1004" style="stroke:#181818;stroke-width:0.51;" width="5.1" x="73.95" y="47.7468"/><rect fill="#FFFFFF" height="393.222" style="stroke:#181818;stroke-width:0.51;" width="5.1" x="193.29" y="59.6252"/><rect fill="#FFFFFF" height="111.7089" style="stroke:#181818;stroke-width:0.51;" width="5.1" x="338.13" y="97.8304"/><rect fill="#FFFFFF" height="188.8026" style="stroke:#181818;stroke-width:0.51;" width="5.1" x="338.13" y="248.0861"/><rect fill="#FFFFFF" height="149.2358" style="stroke:#181818;stroke-width:0.51;" width="5.1" x="340.68" y="268.1245"/><rect fill="#FFFFFF" height="15.9584" style="stroke:#181818;stroke-width:0.51;" width="5.1" x="473.28" y="113.7888"/><rect fill="#FFFFFF" height="15.9584" style="stroke:#181818;stroke-width:0.51;" width="5.1" x="473.28" y="286.6329"/><rect fill="#FFFFFF" height="15.9584" style="stroke:#181818;stroke-width:0.51;" width="5.1" x="527.85" y="145.7056"/><rect fill="#FFFFFF" height="15.9584" style="stroke:#181818;stroke-width:0.51;" width="5.1" x="527.85" y="318.5498"/><rect fill="#FFFFFF" height="15.9584" style="stroke:#181818;stroke-width:0.51;" width="5.1" x="590.835" y="177.6224"/><rect fill="#FFFFFF" height="47.8753" style="stroke:#181818;stroke-width:0.51;" width="5.1" x="671.67" y="350.4666"/><rect fill="#FFFFFF" height="15.9584" style="stroke:#181818;stroke-width:0.51;" width="5.1" x="809.37" y="366.425"/><polygon fill="#181818" points="187.17,57.5852,192.27,59.6252,187.17,61.6652,189.21,59.6252" style="stroke:#181818;stroke-width:0.51;"/><line style="stroke:#181818;stroke-width:0.51;" x1="79.05" x2="190.23" y1="59.6252" y2="59.6252"/><text fill="#000000" font-family="sans-serif" font-size="6.63" font-weight="bold" lengthAdjust="spacing" textLength="3.57" x="82.62" y="56.9412">1</text><text fill="#000000" font-family="sans-serif" font-size="6.63" lengthAdjust="spacing" textLength="98.94" x="88.23" y="56.9412">list vehicles needing maintenance</text><polygon fill="#181818" points="287.895,73.5436,292.995,75.5836,287.895,77.6236,289.935,75.5836" style="stroke:#181818;stroke-width:0.51;"/><line style="stroke:#181818;stroke-width:0.51;" x1="198.39" x2="290.955" y1="75.5836" y2="75.5836"/><text fill="#000000" font-family="sans-serif" font-size="6.63" font-weight="bold" lengthAdjust="spacing" textLength="3.57" x="201.96" y="72.8996">2</text><text fill="#000000" font-family="sans-serif" font-size="6.63" lengthAdjust="spacing" textLength="18.36" x="207.57" y="72.8996">create</text><rect fill="#E3E3E3" height="16.6368" rx="1.275" ry="1.275" style="stroke:#181818;stroke-width:0.255;" width="93.33" x="294.015" y="63.7052"/><text fill="#000000" font-family="sans-serif" font-size="7.14" lengthAdjust="spacing" textLength="86.19" x="297.585" y="74.98">:ListMaintenanceController</text><polygon fill="#181818" points="332.01,95.7904,337.11,97.8304,332.01,99.8704,334.05,97.8304" style="stroke:#181818;stroke-width:0.51;"/><line style="stroke:#181818;stroke-width:0.51;" x1="198.39" x2="335.07" y1="97.8304" y2="97.8304"/><text fill="#000000" font-family="sans-serif" font-size="6.63" font-weight="bold" lengthAdjust="spacing" textLength="3.57" x="201.96" y="95.1464">3</text><text fill="#000000" font-family="sans-serif" font-size="6.63" lengthAdjust="spacing" textLength="49.47" x="207.57" y="95.1464">getVehiclesList()</text><polygon fill="#181818" points="467.16,111.7488,472.26,113.7888,467.16,115.8288,469.2,113.7888" style="stroke:#181818;stroke-width:0.51;"/><line style="stroke:#181818;stroke-width:0.51;" x1="343.23" x2="470.22" y1="113.7888" y2="113.7888"/><text fill="#000000" font-family="sans-serif" font-size="6.63" font-weight="bold" lengthAdjust="spacing" textLength="3.57" x="346.8" y="111.1048">4</text><text fill="#000000" font-family="sans-serif" font-size="6.63" lengthAdjust="spacing" textLength="38.25" x="352.41" y="111.1048">getInstance()</text><polygon fill="#181818" points="348.84,127.7072,343.74,129.7472,348.84,131.7872,346.8,129.7472" style="stroke:#181818;stroke-width:0.51;"/><line style="stroke:#181818;stroke-width:0.51;stroke-dasharray:2.0,2.0;" x1="345.78" x2="475.32" y1="129.7472" y2="129.7472"/><text fill="#000000" font-family="sans-serif" font-size="6.63" font-weight="bold" lengthAdjust="spacing" textLength="3.57" x="351.9" y="127.0632">5</text><text fill="#000000" font-family="sans-serif" font-size="6.63" lengthAdjust="spacing" textLength="34.17" x="357.51" y="127.0632">repositories</text><polygon fill="#181818" points="521.73,143.6656,526.83,145.7056,521.73,147.7456,523.77,145.7056" style="stroke:#181818;stroke-width:0.51;"/><line style="stroke:#181818;stroke-width:0.51;" x1="343.23" x2="524.79" y1="145.7056" y2="145.7056"/><text fill="#000000" font-family="sans-serif" font-size="6.63" font-weight="bold" lengthAdjust="spacing" textLength="3.57" x="346.8" y="143.0216">6</text><text fill="#000000" font-family="sans-serif" font-size="6.63" lengthAdjust="spacing" textLength="66.81" x="352.41" y="143.0216">getVehicleRepository()</text><polygon fill="#181818" points="348.84,159.624,343.74,161.664,348.84,163.704,346.8,161.664" style="stroke:#181818;stroke-width:0.51;"/><line style="stroke:#181818;stroke-width:0.51;stroke-dasharray:2.0,2.0;" x1="345.78" x2="529.89" y1="161.664" y2="161.664"/><text fill="#000000" font-family="sans-serif" font-size="6.63" font-weight="bold" lengthAdjust="spacing" textLength="3.57" x="351.9" y="158.98">7</text><text fill="#000000" font-family="sans-serif" font-size="6.63" lengthAdjust="spacing" textLength="53.55" x="357.51" y="158.98">VehicleRepository</text><polygon fill="#181818" points="584.715,175.5824,589.815,177.6224,584.715,179.6624,586.755,177.6224" style="stroke:#181818;stroke-width:0.51;"/><line style="stroke:#181818;stroke-width:0.51;" x1="343.23" x2="587.775" y1="177.6224" y2="177.6224"/><text fill="#000000" font-family="sans-serif" font-size="6.63" font-weight="bold" lengthAdjust="spacing" textLength="3.57" x="346.8" y="174.9385">8</text><text fill="#000000" font-family="sans-serif" font-size="6.63" lengthAdjust="spacing" textLength="49.47" x="352.41" y="174.9385">getVehiclesList()</text><polygon fill="#181818" points="348.84,191.5409,343.74,193.5809,348.84,195.6209,346.8,193.5809" style="stroke:#181818;stroke-width:0.51;"/><line style="stroke:#181818;stroke-width:0.51;stroke-dasharray:2.0,2.0;" x1="345.78" x2="592.875" y1="193.5809" y2="193.5809"/><text fill="#000000" font-family="sans-serif" font-size="6.63" font-weight="bold" lengthAdjust="spacing" textLength="3.57" x="351.9" y="190.8969">9</text><text fill="#000000" font-family="sans-serif" font-size="6.63" lengthAdjust="spacing" textLength="30.6" x="357.51" y="190.8969">vehicleList</text><polygon fill="#181818" points="204,207.4993,198.9,209.5393,204,211.5793,201.96,209.5393" style="stroke:#181818;stroke-width:0.51;"/><line style="stroke:#181818;stroke-width:0.51;stroke-dasharray:2.0,2.0;" x1="200.94" x2="340.17" y1="209.5393" y2="209.5393"/><text fill="#000000" font-family="sans-serif" font-size="6.63" font-weight="bold" lengthAdjust="spacing" textLength="7.14" x="207.06" y="206.8553">10</text><text fill="#000000" font-family="sans-serif" font-size="6.63" lengthAdjust="spacing" textLength="30.6" x="216.24" y="206.8553">vehicleList</text><line style="stroke:#181818;stroke-width:0.51;stroke-dasharray:2.0,2.0;" x1="198.39" x2="219.81" y1="225.4977" y2="225.4977"/><line style="stroke:#181818;stroke-width:0.51;stroke-dasharray:2.0,2.0;" x1="219.81" x2="219.81" y1="225.4977" y2="232.1277"/><line style="stroke:#181818;stroke-width:0.51;stroke-dasharray:2.0,2.0;" x1="198.9" x2="219.81" y1="232.1277" y2="232.1277"/><polygon fill="#181818" points="204,230.0877,198.9,232.1277,204,234.1677,201.96,232.1277" style="stroke:#181818;stroke-width:0.51;"/><text fill="#000000" font-family="sans-serif" font-size="6.63" font-weight="bold" lengthAdjust="spacing" textLength="7.14" x="201.96" y="222.8137">11</text><text fill="#000000" font-family="sans-serif" font-size="6.63" lengthAdjust="spacing" textLength="46.92" x="211.14" y="222.8137">keep vehicleList</text><polygon fill="#181818" points="332.01,246.0461,337.11,248.0861,332.01,250.1261,334.05,248.0861" style="stroke:#181818;stroke-width:0.51;"/><line style="stroke:#181818;stroke-width:0.51;" x1="198.39" x2="335.07" y1="248.0861" y2="248.0861"/><text fill="#000000" font-family="sans-serif" font-size="6.63" font-weight="bold" lengthAdjust="spacing" textLength="7.14" x="201.96" y="245.4021">12</text><text fill="#000000" font-family="sans-serif" font-size="6.63" lengthAdjust="spacing" textLength="120.87" x="211.14" y="245.4021">generateMaintenanceReport(vehiclesList)</text><line style="stroke:#181818;stroke-width:0.51;" x1="343.23" x2="367.2" y1="261.4945" y2="261.4945"/><line style="stroke:#181818;stroke-width:0.51;" x1="367.2" x2="367.2" y1="261.4945" y2="268.1245"/><line style="stroke:#181818;stroke-width:0.51;" x1="346.29" x2="367.2" y1="268.1245" y2="268.1245"/><polygon fill="#181818" points="351.39,266.0845,346.29,268.1245,351.39,270.1645,349.35,268.1245" style="stroke:#181818;stroke-width:0.51;"/><text fill="#000000" font-family="sans-serif" font-size="6.63" font-weight="bold" lengthAdjust="spacing" textLength="7.14" x="349.35" y="258.8106">13</text><text fill="#000000" font-family="sans-serif" font-size="6.63" lengthAdjust="spacing" textLength="113.73" x="358.53" y="258.8106">createMaintenanceReport(vehiclesList)</text><polygon fill="#181818" points="467.16,284.5929,472.26,286.6329,467.16,288.6729,469.2,286.6329" style="stroke:#181818;stroke-width:0.51;"/><line style="stroke:#181818;stroke-width:0.51;" x1="345.78" x2="470.22" y1="286.6329" y2="286.6329"/><text fill="#000000" font-family="sans-serif" font-size="6.63" font-weight="bold" lengthAdjust="spacing" textLength="7.14" x="349.35" y="283.949">14</text><text fill="#000000" font-family="sans-serif" font-size="6.63" lengthAdjust="spacing" textLength="38.25" x="358.53" y="283.949">getInstance()</text><polygon fill="#181818" points="351.39,300.5514,346.29,302.5914,351.39,304.6314,349.35,302.5914" style="stroke:#181818;stroke-width:0.51;"/><line style="stroke:#181818;stroke-width:0.51;stroke-dasharray:2.0,2.0;" x1="348.33" x2="475.32" y1="302.5914" y2="302.5914"/><text fill="#000000" font-family="sans-serif" font-size="6.63" font-weight="bold" lengthAdjust="spacing" textLength="7.14" x="354.45" y="299.9074">15</text><text fill="#000000" font-family="sans-serif" font-size="6.63" lengthAdjust="spacing" textLength="34.17" x="363.63" y="299.9074">repositories</text><polygon fill="#181818" points="521.73,316.5098,526.83,318.5498,521.73,320.5898,523.77,318.5498" style="stroke:#181818;stroke-width:0.51;"/><line style="stroke:#181818;stroke-width:0.51;" x1="345.78" x2="524.79" y1="318.5498" y2="318.5498"/><text fill="#000000" font-family="sans-serif" font-size="6.63" font-weight="bold" lengthAdjust="spacing" textLength="7.14" x="349.35" y="315.8658">16</text><text fill="#000000" font-family="sans-serif" font-size="6.63" lengthAdjust="spacing" textLength="82.62" x="358.53" y="315.8658">getMaintenanceRepository()</text><polygon fill="#181818" points="351.39,332.4682,346.29,334.5082,351.39,336.5482,349.35,334.5082" style="stroke:#181818;stroke-width:0.51;"/><line style="stroke:#181818;stroke-width:0.51;stroke-dasharray:2.0,2.0;" x1="348.33" x2="529.89" y1="334.5082" y2="334.5082"/><text fill="#000000" font-family="sans-serif" font-size="6.63" font-weight="bold" lengthAdjust="spacing" textLength="7.14" x="354.45" y="331.8242">17</text><text fill="#000000" font-family="sans-serif" font-size="6.63" lengthAdjust="spacing" textLength="69.36" x="363.63" y="331.8242">MaintenanceRepository</text><polygon fill="#181818" points="665.55,348.4266,670.65,350.4666,665.55,352.5066,667.59,350.4666" style="stroke:#181818;stroke-width:0.51;"/><line style="stroke:#181818;stroke-width:0.51;" x1="345.78" x2="668.61" y1="350.4666" y2="350.4666"/><text fill="#000000" font-family="sans-serif" font-size="6.63" font-weight="bold" lengthAdjust="spacing" textLength="7.14" x="349.35" y="347.7826">18</text><text fill="#000000" font-family="sans-serif" font-size="6.63" lengthAdjust="spacing" textLength="113.73" x="358.53" y="347.7826">createMaintenanceReport(vehiclesList)</text><polygon fill="#181818" points="803.25,364.385,808.35,366.425,803.25,368.465,805.29,366.425" style="stroke:#181818;stroke-width:0.51;"/><line style="stroke:#181818;stroke-width:0.51;" x1="676.77" x2="806.31" y1="366.425" y2="366.425"/><text fill="#000000" font-family="sans-serif" font-size="6.63" font-weight="bold" lengthAdjust="spacing" textLength="7.14" x="680.34" y="363.7411">19</text><text fill="#000000" font-family="sans-serif" font-size="6.63" lengthAdjust="spacing" textLength="113.73" x="689.52" y="363.7411">createMaintenanceReport(vehiclesList)</text><polygon fill="#181818" points="682.38,380.3435,677.28,382.3835,682.38,384.4235,680.34,382.3835" style="stroke:#181818;stroke-width:0.51;"/><line style="stroke:#181818;stroke-width:0.51;stroke-dasharray:2.0,2.0;" x1="679.32" x2="811.41" y1="382.3835" y2="382.3835"/><text fill="#000000" font-family="sans-serif" font-size="6.63" font-weight="bold" lengthAdjust="spacing" textLength="7.14" x="685.44" y="379.6995">20</text><text fill="#000000" font-family="sans-serif" font-size="6.63" lengthAdjust="spacing" textLength="57.12" x="694.62" y="379.6995">maintenanceReport</text><polygon fill="#181818" points="351.39,396.3019,346.29,398.3419,351.39,400.3819,349.35,398.3419" style="stroke:#181818;stroke-width:0.51;"/><line style="stroke:#181818;stroke-width:0.51;stroke-dasharray:2.0,2.0;" x1="348.33" x2="673.71" y1="398.3419" y2="398.3419"/><text fill="#000000" font-family="sans-serif" font-size="6.63" font-weight="bold" lengthAdjust="spacing" textLength="7.14" x="354.45" y="395.6579">21</text><text fill="#000000" font-family="sans-serif" font-size="6.63" lengthAdjust="spacing" textLength="57.12" x="363.63" y="395.6579">maintenanceReport</text><line style="stroke:#181818;stroke-width:0.51;stroke-dasharray:2.0,2.0;" x1="345.78" x2="367.2" y1="416.8503" y2="416.8503"/><line style="stroke:#181818;stroke-width:0.51;stroke-dasharray:2.0,2.0;" x1="367.2" x2="367.2" y1="416.8503" y2="423.4803"/><line style="stroke:#181818;stroke-width:0.51;stroke-dasharray:2.0,2.0;" x1="343.23" x2="367.2" y1="423.4803" y2="423.4803"/><polygon fill="#181818" points="348.33,421.4403,343.23,423.4803,348.33,425.5203,346.29,423.4803" style="stroke:#181818;stroke-width:0.51;"/><text fill="#000000" font-family="sans-serif" font-size="6.63" font-weight="bold" lengthAdjust="spacing" textLength="7.14" x="349.35" y="414.1663">22</text><text fill="#000000" font-family="sans-serif" font-size="6.63" lengthAdjust="spacing" textLength="57.12" x="358.53" y="414.1663">maintenanceReport</text><polygon fill="#181818" points="204,434.8487,198.9,436.8887,204,438.9287,201.96,436.8887" style="stroke:#181818;stroke-width:0.51;"/><line style="stroke:#181818;stroke-width:0.51;stroke-dasharray:2.0,2.0;" x1="200.94" x2="340.17" y1="436.8887" y2="436.8887"/><text fill="#000000" font-family="sans-serif" font-size="6.63" font-weight="bold" lengthAdjust="spacing" textLength="7.14" x="207.06" y="434.2047">23</text><text fill="#000000" font-family="sans-serif" font-size="6.63" lengthAdjust="spacing" textLength="57.12" x="216.24" y="434.2047">maintenanceReport</text><polygon fill="#181818" points="82.11,450.8071,77.01,452.8471,82.11,454.8871,80.07,452.8471" style="stroke:#181818;stroke-width:0.51;"/><line style="stroke:#181818;stroke-width:0.51;stroke-dasharray:2.0,2.0;" x1="79.05" x2="195.33" y1="452.8471" y2="452.8471"/><text fill="#000000" font-family="sans-serif" font-size="6.63" font-weight="bold" lengthAdjust="spacing" textLength="7.14" x="85.17" y="450.1632">24</text><text fill="#000000" font-family="sans-serif" font-size="6.63" lengthAdjust="spacing" textLength="37.74" x="94.35" y="450.1632">shows report</text><!--SRC=[fPRDRk8m4CVlUOeHbwMLU84SAgsghOH4f5K_EFNYXYbO97Pg6xfz-nqx8Ocn4qBh4x9dVlCVpuo9tdDHCSLAAAMG-Kx94i6e0oQwFQbOlcTRV39V1OB2t32nBVe6UiSsyfEBBRopGcEIi8EHub2-eKgINpk-GNYNqhp9VmdBZLGmM-EEvqHZOWD_FWwyAb4OU2WG3MHCK3G5y_L3TZC3fe5-91J9y9nNZEncwOfhap4k30ecSdnPEhkNvRZPlHH6oQ90vSpldnzNPmwFM4dDII97xMpQZQydRhEcl7mNrVDu5I7Wx-hti-znh7FloEchM9_lrNcVx_gWiilCWsMnVGUCden2bQ6ailEz64oPn5QN7vb1Lx44QD4FMDnHPI0jg1ZG9Az186vin_JYEOSMGSLq6tQHEq5ilMvl8OLS8Ld4ZkbmYwQvDstBFxzfpLgqAtoxRPVp9KQat3LoARIn6diu3ndh4y_IhXXzqIXFeTz9dki6fuSv9MBRphkCpdCe1TUfWMO7waI6BJcWDAITf0M8qQ9v4iFeWTwGlkXwe-a-6s98zuKGTH9DHqTvFPRVPxPBJuvxnChp7kfbWOf8mQZDZxtRkgh36t8zGbEv5zW_cQ3hf-W7atJjDCKdAlgAZgKLdwp8TCNVvv4CukIJv2ZkMyNtqechZEONLn1AK-RRiiQaAJD95aLVZ5nNy9SOPVQgCa75mCLq0tevw730qOTh4d_m4GlVm67GfPVGVXkazF4eFxKRsSQrvsQ_0VflCtrL_0S0]--></g></svg>