<?xml version="1.0" encoding="us-ascii" standalone="no"?><svg xmlns="http://www.w3.org/2000/svg" xmlns:xlink="http://www.w3.org/1999/xlink" contentStyleType="text/css" height="454.4px" preserveAspectRatio="none" style="width:926px;height:454px;background:#FFFFFF;" version="1.1" viewBox="0 0 926 454" width="926.4px" zoomAndPan="magnify"><defs/><g><rect fill="#FFFFFF" height="322.7938" style="stroke:#181818;stroke-width:0.8000000000000002;" width="8" x="208" y="72.4266"/><rect fill="#FFFFFF" height="234.0953" style="stroke:#181818;stroke-width:0.8000000000000002;" width="8" x="212" y="124.8922"/><rect fill="#FFFFFF" height="25.0328" style="stroke:#181818;stroke-width:0.8000000000000002;" width="8" x="428.8" y="153.925"/><rect fill="#FFFFFF" height="25.0328" style="stroke:#181818;stroke-width:0.8000000000000002;" width="8" x="514.4" y="203.9906"/><rect fill="#FFFFFF" height="75.0984" style="stroke:#181818;stroke-width:0.8000000000000002;" width="8" x="628" y="254.0563"/><rect fill="#FFFFFF" height="25.0328" style="stroke:#181818;stroke-width:0.8000000000000002;" width="8" x="852.8" y="279.0891"/><rect fill="none" height="286.5609" style="stroke:#000000;stroke-width:1.2000000000000002;" width="790.8" x="130.8" y="84.4266"/><line style="stroke:#181818;stroke-width:0.4000000000000001;stroke-dasharray:5.0,5.0;" x1="211.6" x2="211.6" y1="45.7938" y2="409.6203"/><line style="stroke:#181818;stroke-width:0.4000000000000001;stroke-dasharray:5.0,5.0;" x1="432.4" x2="432.4" y1="45.7938" y2="409.6203"/><line style="stroke:#181818;stroke-width:0.4000000000000001;stroke-dasharray:5.0,5.0;" x1="518" x2="518" y1="45.7938" y2="409.6203"/><line style="stroke:#181818;stroke-width:0.4000000000000001;stroke-dasharray:5.0,5.0;" x1="631.6" x2="631.6" y1="45.7938" y2="409.6203"/><line style="stroke:#181818;stroke-width:0.4000000000000001;stroke-dasharray:5.0,5.0;" x1="856.8" x2="856.8" y1="45.7938" y2="409.6203"/><rect fill="#E3E3E3" height="26.0969" rx="2" ry="2" style="stroke:#181818;stroke-width:0.4000000000000001;" width="146.4" x="138.8" y="18.8969"/><text fill="#000000" font-family="sans-serif" font-size="11.2" lengthAdjust="spacing" textLength="135.2" x="144.4" y="36.5828">:ListMaintenanceController</text><rect fill="#E3E3E3" height="26.0969" rx="2" ry="2" style="stroke:#181818;stroke-width:0.4000000000000001;" width="146.4" x="138.8" y="408.8203"/><text fill="#000000" font-family="sans-serif" font-size="11.2" lengthAdjust="spacing" textLength="135.2" x="144.4" y="426.5063">:ListMaintenanceController</text><rect fill="#E3E3E3" height="26.0969" rx="2" ry="2" style="stroke:#181818;stroke-width:0.4000000000000001;" width="77.6" x="394" y="18.8969"/><text fill="#000000" font-family="sans-serif" font-size="11.2" lengthAdjust="spacing" textLength="66.4" x="399.6" y="36.5828">:Repositories</text><rect fill="#E3E3E3" height="26.0969" rx="2" ry="2" style="stroke:#181818;stroke-width:0.4000000000000001;" width="77.6" x="394" y="408.8203"/><text fill="#000000" font-family="sans-serif" font-size="11.2" lengthAdjust="spacing" textLength="66.4" x="399.6" y="426.5063">:Repositories</text><rect fill="#E3E3E3" height="40.9938" rx="2" ry="2" style="stroke:#181818;stroke-width:0.4000000000000001;" width="77.6" x="479.6" y="4"/><text fill="#000000" font-family="sans-serif" font-size="11.2" lengthAdjust="spacing" textLength="59.2" x="488.8" y="21.6859">repositories</text><text fill="#000000" font-family="sans-serif" font-size="11.2" lengthAdjust="spacing" textLength="66.4" x="485.2" y="36.5828">:Repositories</text><rect fill="#E3E3E3" height="40.9938" rx="2" ry="2" style="stroke:#181818;stroke-width:0.4000000000000001;" width="77.6" x="479.6" y="408.8203"/><text fill="#000000" font-family="sans-serif" font-size="11.2" lengthAdjust="spacing" textLength="59.2" x="488.8" y="426.5063">repositories</text><text fill="#000000" font-family="sans-serif" font-size="11.2" lengthAdjust="spacing" textLength="66.4" x="485.2" y="441.4031">:Repositories</text><rect fill="#E3E3E3" height="40.9938" rx="2" ry="2" style="stroke:#181818;stroke-width:0.4000000000000001;" width="133.6" x="565.2" y="4"/><text fill="#000000" font-family="sans-serif" font-size="11.2" lengthAdjust="spacing" textLength="122.4" x="570.8" y="21.6859">maintenanceRepository:</text><text fill="#000000" font-family="sans-serif" font-size="11.2" lengthAdjust="spacing" textLength="119.2" x="572.4" y="36.5828">MaintenanceRepository</text><rect fill="#E3E3E3" height="40.9938" rx="2" ry="2" style="stroke:#181818;stroke-width:0.4000000000000001;" width="133.6" x="565.2" y="408.8203"/><text fill="#000000" font-family="sans-serif" font-size="11.2" lengthAdjust="spacing" textLength="122.4" x="570.8" y="426.5063">maintenanceRepository:</text><text fill="#000000" font-family="sans-serif" font-size="11.2" lengthAdjust="spacing" textLength="119.2" x="572.4" y="441.4031">MaintenanceRepository</text><rect fill="#E3E3E3" height="40.9938" rx="2" ry="2" style="stroke:#181818;stroke-width:0.4000000000000001;" width="113.6" x="800" y="4"/><text fill="#000000" font-family="sans-serif" font-size="11.2" lengthAdjust="spacing" textLength="99.2" x="807.2" y="21.6859">maintenanceReport</text><text fill="#000000" font-family="sans-serif" font-size="11.2" lengthAdjust="spacing" textLength="102.4" x="805.6" y="36.5828">:MaintenanceReport</text><rect fill="#E3E3E3" height="40.9938" rx="2" ry="2" style="stroke:#181818;stroke-width:0.4000000000000001;" width="113.6" x="800" y="408.8203"/><text fill="#000000" font-family="sans-serif" font-size="11.2" lengthAdjust="spacing" textLength="99.2" x="807.2" y="426.5063">maintenanceReport</text><text fill="#000000" font-family="sans-serif" font-size="11.2" lengthAdjust="spacing" textLength="102.4" x="805.6" y="441.4031">:MaintenanceReport</text><rect fill="#FFFFFF" height="322.7938" style="stroke:#181818;stroke-width:0.8000000000000002;" width="8" x="208" y="72.4266"/><rect fill="#FFFFFF" height="234.0953" style="stroke:#181818;stroke-width:0.8000000000000002;" width="8" x="212" y="124.8922"/><rect fill="#FFFFFF" height="25.0328" style="stroke:#181818;stroke-width:0.8000000000000002;" width="8" x="428.8" y="153.925"/><rect fill="#FFFFFF" height="25.0328" style="stroke:#181818;stroke-width:0.8000000000000002;" width="8" x="514.4" y="203.9906"/><rect fill="#FFFFFF" height="75.0984" style="stroke:#181818;stroke-width:0.8000000000000002;" width="8" x="628" y="254.0563"/><rect fill="#FFFFFF" height="25.0328" style="stroke:#181818;stroke-width:0.8000000000000002;" width="8" x="852.8" y="279.0891"/><polygon fill="#181818" points="198.4,69.2266,206.4,72.4266,198.4,75.6266,201.6,72.4266" style="stroke:#181818;stroke-width:0.8000000000000002;"/><line style="stroke:#181818;stroke-width:0.8000000000000002;" x1="0" x2="203.2" y1="72.4266" y2="72.4266"/><text fill="#000000" font-family="sans-serif" font-size="10.4" font-weight="bold" lengthAdjust="spacing" textLength="11.2" x="5.6" y="68.2164">12</text><text fill="#000000" font-family="sans-serif" font-size="10.4" lengthAdjust="spacing" textLength="178.4" x="20" y="68.2164">createMaintenanceReport(vehiclesList)</text><path d="M130.8,84.4266 L306,84.4266 L306,91.8594 L298,99.8594 L130.8,99.8594 L130.8,84.4266 " fill="#EEEEEE" style="stroke:#000000;stroke-width:1.2000000000000002;"/><rect fill="none" height="286.5609" style="stroke:#000000;stroke-width:1.2000000000000002;" width="790.8" x="130.8" y="84.4266"/><text fill="#000000" font-family="sans-serif" font-size="10.4" font-weight="bold" lengthAdjust="spacing" textLength="139.2" x="142.8" y="96.4492">Create Maintenance Report</text><line style="stroke:#181818;stroke-width:0.8000000000000002;" x1="216" x2="253.6" y1="114.4922" y2="114.4922"/><line style="stroke:#181818;stroke-width:0.8000000000000002;" x1="253.6" x2="253.6" y1="114.4922" y2="124.8922"/><line style="stroke:#181818;stroke-width:0.8000000000000002;" x1="220.8" x2="253.6" y1="124.8922" y2="124.8922"/><polygon fill="#181818" points="228.8,121.6922,220.8,124.8922,228.8,128.0922,225.6,124.8922" style="stroke:#181818;stroke-width:0.8000000000000002;"/><text fill="#000000" font-family="sans-serif" font-size="10.4" font-weight="bold" lengthAdjust="spacing" textLength="20" x="225.6" y="110.282">12.1</text><text fill="#000000" font-family="sans-serif" font-size="10.4" lengthAdjust="spacing" textLength="178.4" x="248.8" y="110.282">createMaintenanceReport(vehiclesList)</text><polygon fill="#181818" points="419.2,150.725,427.2,153.925,419.2,157.125,422.4,153.925" style="stroke:#181818;stroke-width:0.8000000000000002;"/><line style="stroke:#181818;stroke-width:0.8000000000000002;" x1="220" x2="424" y1="153.925" y2="153.925"/><text fill="#000000" font-family="sans-serif" font-size="10.4" font-weight="bold" lengthAdjust="spacing" textLength="20" x="225.6" y="149.7148">12.2</text><text fill="#000000" font-family="sans-serif" font-size="10.4" lengthAdjust="spacing" textLength="60" x="248.8" y="149.7148">getInstance()</text><polygon fill="#181818" points="228.8,175.7578,220.8,178.9578,228.8,182.1578,225.6,178.9578" style="stroke:#181818;stroke-width:0.8000000000000002;"/><line style="stroke:#181818;stroke-width:0.8000000000000002;stroke-dasharray:2.0,2.0;" x1="224" x2="432" y1="178.9578" y2="178.9578"/><text fill="#000000" font-family="sans-serif" font-size="10.4" font-weight="bold" lengthAdjust="spacing" textLength="20" x="233.6" y="174.7477">12.3</text><text fill="#000000" font-family="sans-serif" font-size="10.4" lengthAdjust="spacing" textLength="53.6" x="256.8" y="174.7477">repositories</text><polygon fill="#181818" points="504.8,200.7906,512.8,203.9906,504.8,207.1906,508,203.9906" style="stroke:#181818;stroke-width:0.8000000000000002;"/><line style="stroke:#181818;stroke-width:0.8000000000000002;" x1="220" x2="509.6" y1="203.9906" y2="203.9906"/><text fill="#000000" font-family="sans-serif" font-size="10.4" font-weight="bold" lengthAdjust="spacing" textLength="20" x="225.6" y="199.7805">12.4</text><text fill="#000000" font-family="sans-serif" font-size="10.4" lengthAdjust="spacing" textLength="129.6" x="248.8" y="199.7805">getMaintenanceRepository()</text><polygon fill="#181818" points="228.8,225.8234,220.8,229.0234,228.8,232.2234,225.6,229.0234" style="stroke:#181818;stroke-width:0.8000000000000002;"/><line style="stroke:#181818;stroke-width:0.8000000000000002;stroke-dasharray:2.0,2.0;" x1="224" x2="517.6" y1="229.0234" y2="229.0234"/><text fill="#000000" font-family="sans-serif" font-size="10.4" font-weight="bold" lengthAdjust="spacing" textLength="20" x="233.6" y="224.8133">12.5</text><text fill="#000000" font-family="sans-serif" font-size="10.4" lengthAdjust="spacing" textLength="108.8" x="256.8" y="224.8133">MaintenanceRepository</text><polygon fill="#181818" points="618.4,250.8563,626.4,254.0563,618.4,257.2563,621.6,254.0563" style="stroke:#181818;stroke-width:0.8000000000000002;"/><line style="stroke:#181818;stroke-width:0.8000000000000002;" x1="220" x2="623.2" y1="254.0563" y2="254.0563"/><text fill="#000000" font-family="sans-serif" font-size="10.4" font-weight="bold" lengthAdjust="spacing" textLength="20" x="225.6" y="249.8461">12.6</text><text fill="#000000" font-family="sans-serif" font-size="10.4" lengthAdjust="spacing" textLength="178.4" x="248.8" y="249.8461">createMaintenanceReport(vehiclesList)</text><polygon fill="#181818" points="843.2,275.8891,851.2,279.0891,843.2,282.2891,846.4,279.0891" style="stroke:#181818;stroke-width:0.8000000000000002;"/><line style="stroke:#181818;stroke-width:0.8000000000000002;" x1="636" x2="848" y1="279.0891" y2="279.0891"/><text fill="#000000" font-family="sans-serif" font-size="10.4" font-weight="bold" lengthAdjust="spacing" textLength="20" x="641.6" y="274.8789">12.7</text><text fill="#000000" font-family="sans-serif" font-size="10.4" lengthAdjust="spacing" textLength="178.4" x="664.8" y="274.8789">createMaintenanceReport(vehiclesList)</text><polygon fill="#181818" points="644.8,300.9219,636.8,304.1219,644.8,307.3219,641.6,304.1219" style="stroke:#181818;stroke-width:0.8000000000000002;"/><line style="stroke:#181818;stroke-width:0.8000000000000002;stroke-dasharray:2.0,2.0;" x1="640" x2="856" y1="304.1219" y2="304.1219"/><text fill="#000000" font-family="sans-serif" font-size="10.4" font-weight="bold" lengthAdjust="spacing" textLength="20" x="649.6" y="299.9117">12.8</text><text fill="#000000" font-family="sans-serif" font-size="10.4" lengthAdjust="spacing" textLength="89.6" x="672.8" y="299.9117">maintenanceReport</text><polygon fill="#181818" points="228.8,325.9547,220.8,329.1547,228.8,332.3547,225.6,329.1547" style="stroke:#181818;stroke-width:0.8000000000000002;"/><line style="stroke:#181818;stroke-width:0.8000000000000002;stroke-dasharray:2.0,2.0;" x1="224" x2="631.2" y1="329.1547" y2="329.1547"/><text fill="#000000" font-family="sans-serif" font-size="10.4" font-weight="bold" lengthAdjust="spacing" textLength="20" x="233.6" y="324.9445">12.9</text><text fill="#000000" font-family="sans-serif" font-size="10.4" lengthAdjust="spacing" textLength="89.6" x="256.8" y="324.9445">maintenanceReport</text><line style="stroke:#181818;stroke-width:0.8000000000000002;stroke-dasharray:2.0,2.0;" x1="220" x2="253.6" y1="358.1875" y2="358.1875"/><line style="stroke:#181818;stroke-width:0.8000000000000002;stroke-dasharray:2.0,2.0;" x1="253.6" x2="253.6" y1="358.1875" y2="368.5875"/><line style="stroke:#181818;stroke-width:0.8000000000000002;stroke-dasharray:2.0,2.0;" x1="216" x2="253.6" y1="368.5875" y2="368.5875"/><polygon fill="#181818" points="224,365.3875,216,368.5875,224,371.7875,220.8,368.5875" style="stroke:#181818;stroke-width:0.8000000000000002;"/><text fill="#000000" font-family="sans-serif" font-size="10.4" font-weight="bold" lengthAdjust="spacing" textLength="25.6" x="225.6" y="353.9773">12.10</text><text fill="#000000" font-family="sans-serif" font-size="10.4" lengthAdjust="spacing" textLength="89.6" x="254.4" y="353.9773">maintenanceReport</text><polygon fill="#181818" points="8.8,392.0203,0.8,395.2203,8.8,398.4203,5.6,395.2203" style="stroke:#181818;stroke-width:0.8000000000000002;"/><line style="stroke:#181818;stroke-width:0.8000000000000002;stroke-dasharray:2.0,2.0;" x1="4" x2="211.2" y1="395.2203" y2="395.2203"/><text fill="#000000" font-family="sans-serif" font-size="10.4" font-weight="bold" lengthAdjust="spacing" textLength="11.2" x="13.6" y="391.0102">13</text><text fill="#000000" font-family="sans-serif" font-size="10.4" lengthAdjust="spacing" textLength="61.6" x="28" y="391.0102">taskCategory</text><!--SRC=[fLIzRi8m4Dxp51OJ3Ab4kqLLfIfJ9P0gO6HnpJLO97PaNwXu-peE8GvnhD1wu-BlxtoSFd5HKaKBKaWXsL790WYg2Y9z-r9ITg8PRF6I0r70a8eiTo_e8pt87ouoyarp3L5aoiWPBwb0CajMNEEQSe4Wg62GIe5AvZce6Q6QfBlDwWwmWL9gZb9nqFREhN3PybeRfUX3b8FOYo71v-fzrqSKdQ6EFTcBjQzkERnVWgGAZPVrVSr7fZ2AQ6LYLSKNAB9yZk8tsncI4AQ08Wm0ypCSESj1r-rTtC6VbgR0a9yDikamCITJiYf9QlbS1wIrGAx7AZ_gW7XEtuFtYgldUMSZdm5-28sry7mnod6JyWtBAAe-FjNucZuXxcYDqXpWR_9jy7e-cwJUAPiIsuvuCASLwOBvvtb2mh1I6ybB_wzXwiNrkm_czpiQMbNuRviXg-uVRO9DuoOEj7EmSeBSpYi-u6gaSTs2c6vYt43e1PkPUbJFqUhM3uX3imURd-xMVB6LrpXkPP3gKshWcJKseFi5]--></g></svg>