<?xml version="1.0" encoding="us-ascii" standalone="no"?><svg xmlns="http://www.w3.org/2000/svg" xmlns:xlink="http://www.w3.org/1999/xlink" contentStyleType="text/css" height="569px" preserveAspectRatio="none" style="width:1458px;height:569px;background:#FFFFFF;" version="1.1" viewBox="0 0 1458 569" width="1458px" zoomAndPan="magnify"><defs/><g><rect fill="#FFFFFF" height="374.5313" style="stroke:#181818;stroke-width:1.0;" width="10" x="145" y="93.6211"/><rect fill="#FFFFFF" height="351.2402" style="stroke:#181818;stroke-width:1.0;" width="10" x="448" y="116.9121"/><rect fill="#FFFFFF" height="31.291" style="stroke:#181818;stroke-width:1.0;" width="10" x="694" y="191.8242"/><rect fill="#FFFFFF" height="138.1641" style="stroke:#181818;stroke-width:1.0;" width="10" x="694" y="298.6973"/><rect fill="#FFFFFF" height="31.291" style="stroke:#181818;stroke-width:1.0;" width="10" x="1233" y="329.9883"/><line style="stroke:#181818;stroke-width:0.5;stroke-dasharray:5.0,5.0;" x1="150" x2="150" y1="83.6211" y2="486.1523"/><line style="stroke:#181818;stroke-width:0.5;stroke-dasharray:5.0,5.0;" x1="452.5" x2="452.5" y1="83.6211" y2="486.1523"/><line style="stroke:#181818;stroke-width:0.5;stroke-dasharray:5.0,5.0;" x1="698.5" x2="698.5" y1="156.7227" y2="486.1523"/><line style="stroke:#181818;stroke-width:0.5;stroke-dasharray:5.0,5.0;" x1="848.5" x2="848.5" y1="83.6211" y2="486.1523"/><line style="stroke:#181818;stroke-width:0.5;stroke-dasharray:5.0,5.0;" x1="955.5" x2="955.5" y1="83.6211" y2="486.1523"/><line style="stroke:#181818;stroke-width:0.5;stroke-dasharray:5.0,5.0;" x1="1079.5" x2="1079.5" y1="83.6211" y2="486.1523"/><line style="stroke:#181818;stroke-width:0.5;stroke-dasharray:5.0,5.0;" x1="1237.5" x2="1237.5" y1="83.6211" y2="486.1523"/><line style="stroke:#181818;stroke-width:0.5;stroke-dasharray:5.0,5.0;" x1="1391.5" x2="1391.5" y1="83.6211" y2="486.1523"/><text fill="#000000" font-family="sans-serif" font-size="14" lengthAdjust="spacing" textLength="284" x="5" y="80.1074">Vehicle and Equipment Fleet Manager (VFM)</text><ellipse cx="150" cy="13.5" fill="#E3E3E3" rx="8" ry="8" style="stroke:#181818;stroke-width:0.5;"/><path d="M150,21.5 L150,48.5 M137,29.5 L163,29.5 M150,48.5 L137,63.5 M150,48.5 L163,63.5 " fill="none" style="stroke:#181818;stroke-width:0.5;"/><text fill="#000000" font-family="sans-serif" font-size="14" lengthAdjust="spacing" textLength="284" x="5" y="500.2598">Vehicle and Equipment Fleet Manager (VFM)</text><ellipse cx="150" cy="512.2734" fill="#E3E3E3" rx="8" ry="8" style="stroke:#181818;stroke-width:0.5;"/><path d="M150,520.2734 L150,547.2734 M137,528.2734 L163,528.2734 M150,547.2734 L137,562.2734 M150,547.2734 L163,562.2734 " fill="none" style="stroke:#181818;stroke-width:0.5;"/><rect fill="#E3E3E3" height="32.6211" rx="2.5" ry="2.5" style="stroke:#181818;stroke-width:0.5;" width="133" x="386.5" y="50"/><text fill="#000000" font-family="sans-serif" font-size="14" lengthAdjust="spacing" textLength="119" x="393.5" y="72.1074">:ListMaintenanceUI</text><rect fill="#E3E3E3" height="32.6211" rx="2.5" ry="2.5" style="stroke:#181818;stroke-width:0.5;" width="133" x="386.5" y="485.1523"/><text fill="#000000" font-family="sans-serif" font-size="14" lengthAdjust="spacing" textLength="119" x="393.5" y="507.2598">:ListMaintenanceUI</text><rect fill="#E3E3E3" height="32.6211" rx="2.5" ry="2.5" style="stroke:#181818;stroke-width:0.5;" width="183" x="607.5" y="485.1523"/><text fill="#000000" font-family="sans-serif" font-size="14" lengthAdjust="spacing" textLength="169" x="614.5" y="507.2598">:ListMaintenanceController</text><rect fill="#E3E3E3" height="32.6211" rx="2.5" ry="2.5" style="stroke:#181818;stroke-width:0.5;" width="97" x="800.5" y="50"/><text fill="#000000" font-family="sans-serif" font-size="14" lengthAdjust="spacing" textLength="83" x="807.5" y="72.1074">:Repositories</text><rect fill="#E3E3E3" height="32.6211" rx="2.5" ry="2.5" style="stroke:#181818;stroke-width:0.5;" width="97" x="800.5" y="485.1523"/><text fill="#000000" font-family="sans-serif" font-size="14" lengthAdjust="spacing" textLength="83" x="807.5" y="507.2598">:Repositories</text><rect fill="#E3E3E3" height="51.2422" rx="2.5" ry="2.5" style="stroke:#181818;stroke-width:0.5;" width="97" x="907.5" y="31.3789"/><text fill="#000000" font-family="sans-serif" font-size="14" lengthAdjust="spacing" textLength="74" x="919" y="53.4863">repositories</text><text fill="#000000" font-family="sans-serif" font-size="14" lengthAdjust="spacing" textLength="83" x="914.5" y="72.1074">:Repositories</text><rect fill="#E3E3E3" height="51.2422" rx="2.5" ry="2.5" style="stroke:#181818;stroke-width:0.5;" width="97" x="907.5" y="485.1523"/><text fill="#000000" font-family="sans-serif" font-size="14" lengthAdjust="spacing" textLength="74" x="919" y="507.2598">repositories</text><text fill="#000000" font-family="sans-serif" font-size="14" lengthAdjust="spacing" textLength="83" x="914.5" y="525.8809">:Repositories</text><rect fill="#E3E3E3" height="51.2422" rx="2.5" ry="2.5" style="stroke:#181818;stroke-width:0.5;" width="130" x="1014.5" y="31.3789"/><text fill="#000000" font-family="sans-serif" font-size="14" lengthAdjust="spacing" textLength="116" x="1021.5" y="53.4863">vehicleRepository:</text><text fill="#000000" font-family="sans-serif" font-size="14" lengthAdjust="spacing" textLength="114" x="1022.5" y="72.1074">VehicleRepository</text><rect fill="#E3E3E3" height="51.2422" rx="2.5" ry="2.5" style="stroke:#181818;stroke-width:0.5;" width="130" x="1014.5" y="485.1523"/><text fill="#000000" font-family="sans-serif" font-size="14" lengthAdjust="spacing" textLength="116" x="1021.5" y="507.2598">vehicleRepository:</text><text fill="#000000" font-family="sans-serif" font-size="14" lengthAdjust="spacing" textLength="114" x="1022.5" y="525.8809">VehicleRepository</text><rect fill="#E3E3E3" height="51.2422" rx="2.5" ry="2.5" style="stroke:#181818;stroke-width:0.5;" width="167" x="1154.5" y="31.3789"/><text fill="#000000" font-family="sans-serif" font-size="14" lengthAdjust="spacing" textLength="153" x="1161.5" y="53.4863">maintenanceRepository:</text><text fill="#000000" font-family="sans-serif" font-size="14" lengthAdjust="spacing" textLength="149" x="1163.5" y="72.1074">MaintenanceRepository</text><rect fill="#E3E3E3" height="51.2422" rx="2.5" ry="2.5" style="stroke:#181818;stroke-width:0.5;" width="167" x="1154.5" y="485.1523"/><text fill="#000000" font-family="sans-serif" font-size="14" lengthAdjust="spacing" textLength="153" x="1161.5" y="507.2598">maintenanceRepository:</text><text fill="#000000" font-family="sans-serif" font-size="14" lengthAdjust="spacing" textLength="149" x="1163.5" y="525.8809">MaintenanceRepository</text><rect fill="#E3E3E3" height="51.2422" rx="2.5" ry="2.5" style="stroke:#181818;stroke-width:0.5;" width="121" x="1331.5" y="31.3789"/><text fill="#000000" font-family="sans-serif" font-size="14" lengthAdjust="spacing" textLength="103" x="1340.5" y="53.4863">maintenanceList</text><text fill="#000000" font-family="sans-serif" font-size="14" lengthAdjust="spacing" textLength="107" x="1338.5" y="72.1074">:MaintenanceList</text><rect fill="#E3E3E3" height="51.2422" rx="2.5" ry="2.5" style="stroke:#181818;stroke-width:0.5;" width="121" x="1331.5" y="485.1523"/><text fill="#000000" font-family="sans-serif" font-size="14" lengthAdjust="spacing" textLength="103" x="1340.5" y="507.2598">maintenanceList</text><text fill="#000000" font-family="sans-serif" font-size="14" lengthAdjust="spacing" textLength="107" x="1338.5" y="525.8809">:MaintenanceList</text><rect fill="#FFFFFF" height="374.5313" style="stroke:#181818;stroke-width:1.0;" width="10" x="145" y="93.6211"/><rect fill="#FFFFFF" height="351.2402" style="stroke:#181818;stroke-width:1.0;" width="10" x="448" y="116.9121"/><rect fill="#FFFFFF" height="31.291" style="stroke:#181818;stroke-width:1.0;" width="10" x="694" y="191.8242"/><rect fill="#FFFFFF" height="138.1641" style="stroke:#181818;stroke-width:1.0;" width="10" x="694" y="298.6973"/><rect fill="#FFFFFF" height="31.291" style="stroke:#181818;stroke-width:1.0;" width="10" x="1233" y="329.9883"/><polygon fill="#181818" points="436,112.9121,446,116.9121,436,120.9121,440,116.9121" style="stroke:#181818;stroke-width:1.0;"/><line style="stroke:#181818;stroke-width:1.0;" x1="155" x2="442" y1="116.9121" y2="116.9121"/><text fill="#000000" font-family="sans-serif" font-size="13" font-weight="bold" lengthAdjust="spacing" textLength="7" x="162" y="111.6494">1</text><text fill="#000000" font-family="sans-serif" font-size="13" lengthAdjust="spacing" textLength="263" x="173" y="111.6494">requests to list vehicles needing maintenance</text><polygon fill="#181818" points="595.5,144.2031,605.5,148.2031,595.5,152.2031,599.5,148.2031" style="stroke:#181818;stroke-width:1.0;"/><line style="stroke:#181818;stroke-width:1.0;" x1="458" x2="601.5" y1="148.2031" y2="148.2031"/><text fill="#000000" font-family="sans-serif" font-size="13" font-weight="bold" lengthAdjust="spacing" textLength="7" x="465" y="142.9404">2</text><text fill="#000000" font-family="sans-serif" font-size="13" lengthAdjust="spacing" textLength="36" x="476" y="142.9404">create</text><rect fill="#E3E3E3" height="32.6211" rx="2.5" ry="2.5" style="stroke:#181818;stroke-width:0.5;" width="183" x="607.5" y="124.9121"/><text fill="#000000" font-family="sans-serif" font-size="14" lengthAdjust="spacing" textLength="169" x="614.5" y="147.0195">:ListMaintenanceController</text><polygon fill="#181818" points="682,187.8242,692,191.8242,682,195.8242,686,191.8242" style="stroke:#181818;stroke-width:1.0;"/><line style="stroke:#181818;stroke-width:1.0;" x1="458" x2="688" y1="191.8242" y2="191.8242"/><text fill="#000000" font-family="sans-serif" font-size="13" font-weight="bold" lengthAdjust="spacing" textLength="7" x="465" y="186.5615">3</text><text fill="#000000" font-family="sans-serif" font-size="13" lengthAdjust="spacing" textLength="97" x="476" y="186.5615">getVehiclesList()</text><polygon fill="#181818" points="469,219.1152,459,223.1152,469,227.1152,465,223.1152" style="stroke:#181818;stroke-width:1.0;"/><line style="stroke:#181818;stroke-width:1.0;stroke-dasharray:2.0,2.0;" x1="463" x2="698" y1="223.1152" y2="223.1152"/><text fill="#000000" font-family="sans-serif" font-size="13" font-weight="bold" lengthAdjust="spacing" textLength="7" x="475" y="217.8525">4</text><text fill="#000000" font-family="sans-serif" font-size="13" lengthAdjust="spacing" textLength="60" x="486" y="217.8525">vehicleList</text><line style="stroke:#181818;stroke-width:1.0;stroke-dasharray:2.0,2.0;" x1="458" x2="500" y1="254.4063" y2="254.4063"/><line style="stroke:#181818;stroke-width:1.0;stroke-dasharray:2.0,2.0;" x1="500" x2="500" y1="254.4063" y2="267.4063"/><line style="stroke:#181818;stroke-width:1.0;stroke-dasharray:2.0,2.0;" x1="459" x2="500" y1="267.4063" y2="267.4063"/><polygon fill="#181818" points="469,263.4063,459,267.4063,469,271.4063,465,267.4063" style="stroke:#181818;stroke-width:1.0;"/><text fill="#000000" font-family="sans-serif" font-size="13" font-weight="bold" lengthAdjust="spacing" textLength="7" x="465" y="249.1436">5</text><text fill="#000000" font-family="sans-serif" font-size="13" lengthAdjust="spacing" textLength="92" x="476" y="249.1436">keep vehicleList</text><polygon fill="#181818" points="682,294.6973,692,298.6973,682,302.6973,686,298.6973" style="stroke:#181818;stroke-width:1.0;"/><line style="stroke:#181818;stroke-width:1.0;" x1="458" x2="688" y1="298.6973" y2="298.6973"/><text fill="#000000" font-family="sans-serif" font-size="13" font-weight="bold" lengthAdjust="spacing" textLength="7" x="465" y="293.4346">6</text><text fill="#000000" font-family="sans-serif" font-size="13" lengthAdjust="spacing" textLength="206" x="476" y="293.4346">createMaintenanceList(vehiclesList)</text><polygon fill="#181818" points="1221,325.9883,1231,329.9883,1221,333.9883,1225,329.9883" style="stroke:#181818;stroke-width:1.0;"/><line style="stroke:#181818;stroke-width:1.0;" x1="704" x2="1227" y1="329.9883" y2="329.9883"/><text fill="#000000" font-family="sans-serif" font-size="13" font-weight="bold" lengthAdjust="spacing" textLength="7" x="711" y="324.7256">7</text><text fill="#000000" font-family="sans-serif" font-size="13" lengthAdjust="spacing" textLength="199" x="722" y="324.7256">createMaintenanceList(vehicleList)</text><polygon fill="#181818" points="715,357.2793,705,361.2793,715,365.2793,711,361.2793" style="stroke:#181818;stroke-width:1.0;"/><line style="stroke:#181818;stroke-width:1.0;stroke-dasharray:2.0,2.0;" x1="709" x2="1237" y1="361.2793" y2="361.2793"/><text fill="#000000" font-family="sans-serif" font-size="13" font-weight="bold" lengthAdjust="spacing" textLength="7" x="721" y="356.0166">8</text><text fill="#000000" font-family="sans-serif" font-size="13" lengthAdjust="spacing" textLength="95" x="732" y="356.0166">maintenanceList</text><line style="stroke:#181818;stroke-width:1.0;stroke-dasharray:2.0,2.0;" x1="704" x2="746" y1="392.5703" y2="392.5703"/><line style="stroke:#181818;stroke-width:1.0;stroke-dasharray:2.0,2.0;" x1="746" x2="746" y1="392.5703" y2="405.5703"/><line style="stroke:#181818;stroke-width:1.0;stroke-dasharray:2.0,2.0;" x1="705" x2="746" y1="405.5703" y2="405.5703"/><polygon fill="#181818" points="715,401.5703,705,405.5703,715,409.5703,711,405.5703" style="stroke:#181818;stroke-width:1.0;"/><text fill="#000000" font-family="sans-serif" font-size="13" font-weight="bold" lengthAdjust="spacing" textLength="7" x="711" y="387.3076">9</text><text fill="#000000" font-family="sans-serif" font-size="13" lengthAdjust="spacing" textLength="95" x="722" y="387.3076">maintenanceList</text><polygon fill="#181818" points="469,432.8613,459,436.8613,469,440.8613,465,436.8613" style="stroke:#181818;stroke-width:1.0;"/><line style="stroke:#181818;stroke-width:1.0;stroke-dasharray:2.0,2.0;" x1="463" x2="698" y1="436.8613" y2="436.8613"/><text fill="#000000" font-family="sans-serif" font-size="13" font-weight="bold" lengthAdjust="spacing" textLength="14" x="475" y="431.5986">10</text><text fill="#000000" font-family="sans-serif" font-size="13" lengthAdjust="spacing" textLength="95" x="493" y="431.5986">maintenanceList</text><polygon fill="#181818" points="161,464.1523,151,468.1523,161,472.1523,157,468.1523" style="stroke:#181818;stroke-width:1.0;"/><line style="stroke:#181818;stroke-width:1.0;stroke-dasharray:2.0,2.0;" x1="155" x2="452" y1="468.1523" y2="468.1523"/><text fill="#000000" font-family="sans-serif" font-size="13" font-weight="bold" lengthAdjust="spacing" textLength="14" x="167" y="462.8896">11</text><text fill="#000000" font-family="sans-serif" font-size="13" lengthAdjust="spacing" textLength="140" x="185" y="462.8896">shows maintenance List</text><!--SRC=[ZLJBZi8m3BpdAomk2oln0pqWhT0Y8L5fnUl49RG68jga92aiVxzEWDAM09jJiSVZiSV2x8KikEOvv4ggPATLZc1rYSnKcO8dUxx5cJrd21eJo-KsgmFCZgVg9EGMDZmpo1ZZfLMopDUe6VlOYHHXevHTgr_64wiqT9Qu4mdHSPd2zw4KHOxImYX3j11pIUqqT9UZkDS1Re0-6BMo8X459rmdcWXZOowaHSbbWeknnot6hs539QrMMORQmuVpwQHLCCL26K4I1HgFgGBdcN1ZqrpD4bshMCb7Wf_9rxnPSRpCVcUELdBPZbtcRaURHFbziWPP78fxmc3cAQdR7eqKDoDj8XTpjeeZj-YjOa2FFg0_84iWegCvb6Yi0QiW8pXSLs108gRkS6fTVNN5HvRwW7l4HOpEjSzFOaqq4YAKfkGMxNLxnWdizYfOHUtjhyBk-Th-JVLLf9_lXaZnIRbhVYlS8nQDwh34Y_xM9hl7ckgteY-21s5VttHuqY1y8lUMmRoVtOc9e7K_eSqzQV7WmdLFRSPNdlsZUz0tTwqH_P6fawbpG4LI8t0dMVlfBluF]--></g></svg>