<?xml version="1.0" encoding="us-ascii" standalone="no"?><svg xmlns="http://www.w3.org/2000/svg" xmlns:xlink="http://www.w3.org/1999/xlink" contentStyleType="text/css" height="336.7px" preserveAspectRatio="none" style="width:669px;height:336px;background:#FFFFFF;" version="1.1" viewBox="0 0 669 336" width="669.2px" zoomAndPan="magnify"><defs/><g><rect fill="#FFFFFF" height="200.6334" style="stroke:#181818;stroke-width:0.6999999999999998;" width="7" x="101.5" y="65.5348"/><rect fill="#FFFFFF" height="184.3297" style="stroke:#181818;stroke-width:0.6999999999999998;" width="7" x="265.3" y="81.8385"/><rect fill="#FFFFFF" height="65.7111" style="stroke:#181818;stroke-width:0.6999999999999998;" width="7" x="447.3" y="103.7422"/><rect fill="#FFFFFF" height="52.9074" style="stroke:#181818;stroke-width:0.6999999999999998;" width="7" x="447.3" y="191.357"/><rect fill="#FFFFFF" height="21.9037" style="stroke:#181818;stroke-width:0.6999999999999998;" width="7" x="616" y="125.6459"/><line style="stroke:#181818;stroke-width:0.3499999999999999;stroke-dasharray:5.0,5.0;" x1="105" x2="105" y1="58.5348" y2="278.7682"/><line style="stroke:#181818;stroke-width:0.3499999999999999;stroke-dasharray:5.0,5.0;" x1="268.45" x2="268.45" y1="58.5348" y2="278.7682"/><line style="stroke:#181818;stroke-width:0.3499999999999999;stroke-dasharray:5.0,5.0;" x1="450.8" x2="450.8" y1="58.5348" y2="278.7682"/><line style="stroke:#181818;stroke-width:0.3499999999999999;stroke-dasharray:5.0,5.0;" x1="619.5" x2="619.5" y1="58.5348" y2="278.7682"/><text fill="#000000" font-family="sans-serif" font-size="9.8" lengthAdjust="spacing" textLength="198.8" x="3.5" y="56.0752">Vehicle and Equipment Fleet Manager (VFM)</text><ellipse cx="105" cy="9.45" fill="#E3E3E3" rx="5.6" ry="5.6" style="stroke:#181818;stroke-width:0.3499999999999999;"/><path d="M105,15.05 L105,33.95 M95.9,20.65 L114.1,20.65 M105,33.95 L95.9,44.45 M105,33.95 L114.1,44.45 " fill="none" style="stroke:#181818;stroke-width:0.3499999999999999;"/><text fill="#000000" font-family="sans-serif" font-size="9.8" lengthAdjust="spacing" textLength="198.8" x="3.5" y="288.6434">Vehicle and Equipment Fleet Manager (VFM)</text><ellipse cx="105" cy="297.0529" fill="#E3E3E3" rx="5.6" ry="5.6" style="stroke:#181818;stroke-width:0.3499999999999999;"/><path d="M105,302.6529 L105,321.5529 M95.9,308.2529 L114.1,308.2529 M105,321.5529 L95.9,332.0529 M105,321.5529 L114.1,332.0529 " fill="none" style="stroke:#181818;stroke-width:0.3499999999999999;"/><rect fill="#E3E3E3" height="22.8348" rx="1.75" ry="1.75" style="stroke:#181818;stroke-width:0.3499999999999999;" width="93.1" x="222.25" y="35"/><text fill="#000000" font-family="sans-serif" font-size="9.8" lengthAdjust="spacing" textLength="83.3" x="227.15" y="50.4752">:ListMaintenanceUI</text><rect fill="#E3E3E3" height="22.8348" rx="1.75" ry="1.75" style="stroke:#181818;stroke-width:0.3499999999999999;" width="93.1" x="222.25" y="278.0682"/><text fill="#000000" font-family="sans-serif" font-size="9.8" lengthAdjust="spacing" textLength="83.3" x="227.15" y="293.5434">:ListMaintenanceUI</text><rect fill="#E3E3E3" height="22.8348" rx="1.75" ry="1.75" style="stroke:#181818;stroke-width:0.3499999999999999;" width="88.2" x="406.7" y="35"/><text fill="#000000" font-family="sans-serif" font-size="9.8" lengthAdjust="spacing" textLength="78.4" x="411.6" y="50.4752">:VehicleController</text><rect fill="#E3E3E3" height="22.8348" rx="1.75" ry="1.75" style="stroke:#181818;stroke-width:0.3499999999999999;" width="88.2" x="406.7" y="278.0682"/><text fill="#000000" font-family="sans-serif" font-size="9.8" lengthAdjust="spacing" textLength="78.4" x="411.6" y="293.5434">:VehicleController</text><rect fill="#E3E3E3" height="35.8695" rx="1.75" ry="1.75" style="stroke:#181818;stroke-width:0.3499999999999999;" width="91" x="574" y="21.9652"/><text fill="#000000" font-family="sans-serif" font-size="9.8" lengthAdjust="spacing" textLength="81.2" x="578.9" y="37.4404">vehicleRepository:</text><text fill="#000000" font-family="sans-serif" font-size="9.8" lengthAdjust="spacing" textLength="79.8" x="579.6" y="50.4752">VehicleRepository</text><rect fill="#E3E3E3" height="35.8695" rx="1.75" ry="1.75" style="stroke:#181818;stroke-width:0.3499999999999999;" width="91" x="574" y="278.0682"/><text fill="#000000" font-family="sans-serif" font-size="9.8" lengthAdjust="spacing" textLength="81.2" x="578.9" y="293.5434">vehicleRepository:</text><text fill="#000000" font-family="sans-serif" font-size="9.8" lengthAdjust="spacing" textLength="79.8" x="579.6" y="306.5781">VehicleRepository</text><rect fill="#FFFFFF" height="200.6334" style="stroke:#181818;stroke-width:0.6999999999999998;" width="7" x="101.5" y="65.5348"/><rect fill="#FFFFFF" height="184.3297" style="stroke:#181818;stroke-width:0.6999999999999998;" width="7" x="265.3" y="81.8385"/><rect fill="#FFFFFF" height="65.7111" style="stroke:#181818;stroke-width:0.6999999999999998;" width="7" x="447.3" y="103.7422"/><rect fill="#FFFFFF" height="52.9074" style="stroke:#181818;stroke-width:0.6999999999999998;" width="7" x="447.3" y="191.357"/><rect fill="#FFFFFF" height="21.9037" style="stroke:#181818;stroke-width:0.6999999999999998;" width="7" x="616" y="125.6459"/><polygon fill="#181818" points="256.9,79.0385,263.9,81.8385,256.9,84.6385,259.7,81.8385" style="stroke:#181818;stroke-width:0.6999999999999998;"/><line style="stroke:#181818;stroke-width:0.6999999999999998;" x1="108.5" x2="261.1" y1="81.8385" y2="81.8385"/><text fill="#000000" font-family="sans-serif" font-size="9.1" font-weight="bold" lengthAdjust="spacing" textLength="4.9" x="113.4" y="78.1546">1</text><text fill="#000000" font-family="sans-serif" font-size="9.1" lengthAdjust="spacing" textLength="135.8" x="121.1" y="78.1546">list vehicles needing maintenance</text><polygon fill="#181818" points="438.9,100.9422,445.9,103.7422,438.9,106.5422,441.7,103.7422" style="stroke:#181818;stroke-width:0.6999999999999998;"/><line style="stroke:#181818;stroke-width:0.6999999999999998;" x1="272.3" x2="443.1" y1="103.7422" y2="103.7422"/><text fill="#000000" font-family="sans-serif" font-size="9.1" font-weight="bold" lengthAdjust="spacing" textLength="4.9" x="277.2" y="100.0583">2</text><text fill="#000000" font-family="sans-serif" font-size="9.1" lengthAdjust="spacing" textLength="67.9" x="284.9" y="100.0583">getVehiclesList()</text><polygon fill="#181818" points="607.6,122.8459,614.6,125.6459,607.6,128.4459,610.4,125.6459" style="stroke:#181818;stroke-width:0.6999999999999998;"/><line style="stroke:#181818;stroke-width:0.6999999999999998;" x1="454.3" x2="611.8" y1="125.6459" y2="125.6459"/><text fill="#000000" font-family="sans-serif" font-size="9.1" font-weight="bold" lengthAdjust="spacing" textLength="4.9" x="459.2" y="121.962">3</text><text fill="#000000" font-family="sans-serif" font-size="9.1" lengthAdjust="spacing" textLength="67.9" x="466.9" y="121.962">getVehiclesList()</text><polygon fill="#181818" points="462,144.7496,455,147.5496,462,150.3496,459.2,147.5496" style="stroke:#181818;stroke-width:0.6999999999999998;"/><line style="stroke:#181818;stroke-width:0.6999999999999998;stroke-dasharray:2.0,2.0;" x1="457.8" x2="618.8" y1="147.5496" y2="147.5496"/><text fill="#000000" font-family="sans-serif" font-size="9.1" font-weight="bold" lengthAdjust="spacing" textLength="4.9" x="466.2" y="143.8657">4</text><text fill="#000000" font-family="sans-serif" font-size="9.1" lengthAdjust="spacing" textLength="42" x="473.9" y="143.8657">vehicleList</text><polygon fill="#181818" points="280,166.6533,273,169.4533,280,172.2533,277.2,169.4533" style="stroke:#181818;stroke-width:0.6999999999999998;"/><line style="stroke:#181818;stroke-width:0.6999999999999998;stroke-dasharray:2.0,2.0;" x1="275.8" x2="450.1" y1="169.4533" y2="169.4533"/><text fill="#000000" font-family="sans-serif" font-size="9.1" font-weight="bold" lengthAdjust="spacing" textLength="4.9" x="284.2" y="165.7694">5</text><text fill="#000000" font-family="sans-serif" font-size="9.1" lengthAdjust="spacing" textLength="42" x="291.9" y="165.7694">vehicleList</text><polygon fill="#181818" points="438.9,188.557,445.9,191.357,438.9,194.157,441.7,191.357" style="stroke:#181818;stroke-width:0.6999999999999998;"/><line style="stroke:#181818;stroke-width:0.6999999999999998;" x1="272.3" x2="443.1" y1="191.357" y2="191.357"/><text fill="#000000" font-family="sans-serif" font-size="9.1" font-weight="bold" lengthAdjust="spacing" textLength="4.9" x="277.2" y="187.6731">6</text><text fill="#000000" font-family="sans-serif" font-size="9.1" lengthAdjust="spacing" textLength="154" x="284.9" y="187.6731">generateMaintenanceList(vehiclesList)</text><line style="stroke:#181818;stroke-width:0.6999999999999998;" x1="454.3" x2="483.7" y1="213.2607" y2="213.2607"/><line style="stroke:#181818;stroke-width:0.6999999999999998;" x1="483.7" x2="483.7" y1="213.2607" y2="222.3607"/><line style="stroke:#181818;stroke-width:0.6999999999999998;" x1="455" x2="483.7" y1="222.3607" y2="222.3607"/><polygon fill="#181818" points="462,219.5607,455,222.3607,462,225.1607,459.2,222.3607" style="stroke:#181818;stroke-width:0.6999999999999998;"/><text fill="#000000" font-family="sans-serif" font-size="9.1" font-weight="bold" lengthAdjust="spacing" textLength="4.9" x="459.2" y="209.5769">7</text><text fill="#000000" font-family="sans-serif" font-size="9.1" lengthAdjust="spacing" textLength="144.2" x="466.9" y="209.5769">createMaintenanceList(vehiclesList)</text><polygon fill="#181818" points="280,241.4645,273,244.2645,280,247.0645,277.2,244.2645" style="stroke:#181818;stroke-width:0.6999999999999998;"/><line style="stroke:#181818;stroke-width:0.6999999999999998;stroke-dasharray:2.0,2.0;" x1="275.8" x2="450.1" y1="244.2645" y2="244.2645"/><text fill="#000000" font-family="sans-serif" font-size="9.1" font-weight="bold" lengthAdjust="spacing" textLength="4.9" x="284.2" y="240.5806">8</text><text fill="#000000" font-family="sans-serif" font-size="9.1" lengthAdjust="spacing" textLength="66.5" x="291.9" y="240.5806">maintenanceList</text><polygon fill="#181818" points="112.7,263.3682,105.7,266.1682,112.7,268.9682,109.9,266.1682" style="stroke:#181818;stroke-width:0.6999999999999998;"/><line style="stroke:#181818;stroke-width:0.6999999999999998;stroke-dasharray:2.0,2.0;" x1="108.5" x2="268.1" y1="266.1682" y2="266.1682"/><text fill="#000000" font-family="sans-serif" font-size="9.1" font-weight="bold" lengthAdjust="spacing" textLength="4.9" x="116.9" y="262.4843">9</text><text fill="#000000" font-family="sans-serif" font-size="9.1" lengthAdjust="spacing" textLength="40.6" x="124.6" y="262.4843">shows list</text><!--SRC=[bLCnSi8m4EprYXkQGC47NAHXmWmpq910bUQG3rk3B3cI3E7tETcEiGcGv2gDjBUtkpxxWp8bEYoWiCRAtDc28BYAXEzUIfG7pEWrd3M18ndGPBeFy3cczgHC1dlKdeJ0AbXJ5JjoGZpbAYNOMnjszbEW3DR1Q4kvaio69eMNZqgL1Pa0SqqKO8M6fpaOR-UhoGZG0ny4JmfAgX8PDqgMoeSLAXF8e96qMTIupU8ArewPMHESrPfS3PkzhPT3uB71hQcqNh70S_9kjjTtZPJhMo6Y9tN4GBLE0LnyWEapwu54ir9e-JqOeZJcL5oqrmqT1LiG3KSi9c2Qg1SIo2YqqtsqFvvqiAwxTjPTnwfxcUE7xeU40z8Rbk6gVh9FBxfRyt74e36bluveJBI1tkJhSJKPt8lGa6DGRtLgvyTU3F-AjUMLZdvbVMIf67RUjzLt5Rygxrd2lvyzUT3VZRsck4tzc7a_lm00]--></g></svg>