<?xml version="1.0" encoding="us-ascii" standalone="no"?><svg xmlns="http://www.w3.org/2000/svg" xmlns:xlink="http://www.w3.org/1999/xlink" contentStyleType="text/css" height="212.4px" preserveAspectRatio="none" style="width:355px;height:212px;background:#FFFFFF;" version="1.1" viewBox="0 0 355 212" width="355.8px" zoomAndPan="magnify"><defs/><g><rect fill="#FFFFFF" height="90.873" style="stroke:#181818;stroke-width:0.6;" width="6" x="145.8" y="54.3199"/><rect fill="#FFFFFF" height="18.7746" style="stroke:#181818;stroke-width:0.6;" width="6" x="304.2" y="88.8691"/><rect fill="#FFFFFF" height="18.7746" style="stroke:#181818;stroke-width:0.6;" width="6" x="304.2" y="126.4184"/><rect fill="none" height="86.673" style="stroke:#000000;stroke-width:0.8999999999999999;" width="247.2" x="105" y="63.3199"/><line style="stroke:#181818;stroke-width:0.3;stroke-dasharray:5.0,5.0;" x1="148.8" x2="148.8" y1="34.3453" y2="178.9676"/><line style="stroke:#181818;stroke-width:0.3;stroke-dasharray:5.0,5.0;" x1="307.2" x2="307.2" y1="34.3453" y2="178.9676"/><rect fill="#E3E3E3" height="19.5727" rx="1.5" ry="1.5" style="stroke:#181818;stroke-width:0.3;" width="75.6" x="111" y="14.1727"/><text fill="#000000" font-family="sans-serif" font-size="8.4" lengthAdjust="spacing" textLength="67.2" x="115.2" y="27.4371">:VehicleController</text><rect fill="#E3E3E3" height="19.5727" rx="1.5" ry="1.5" style="stroke:#181818;stroke-width:0.3;" width="75.6" x="111" y="178.3676"/><text fill="#000000" font-family="sans-serif" font-size="8.4" lengthAdjust="spacing" textLength="67.2" x="115.2" y="191.632">:VehicleController</text><rect fill="#E3E3E3" height="30.7453" rx="1.5" ry="1.5" style="stroke:#181818;stroke-width:0.3;" width="78" x="268.2" y="3"/><text fill="#000000" font-family="sans-serif" font-size="8.4" lengthAdjust="spacing" textLength="69.6" x="272.4" y="16.2645">vehicleRepository:</text><text fill="#000000" font-family="sans-serif" font-size="8.4" lengthAdjust="spacing" textLength="68.4" x="273" y="27.4371">VehicleRepository</text><rect fill="#E3E3E3" height="30.7453" rx="1.5" ry="1.5" style="stroke:#181818;stroke-width:0.3;" width="78" x="268.2" y="178.3676"/><text fill="#000000" font-family="sans-serif" font-size="8.4" lengthAdjust="spacing" textLength="69.6" x="272.4" y="191.632">vehicleRepository:</text><text fill="#000000" font-family="sans-serif" font-size="8.4" lengthAdjust="spacing" textLength="68.4" x="273" y="202.8047">VehicleRepository</text><rect fill="#FFFFFF" height="90.873" style="stroke:#181818;stroke-width:0.6;" width="6" x="145.8" y="54.3199"/><rect fill="#FFFFFF" height="18.7746" style="stroke:#181818;stroke-width:0.6;" width="6" x="304.2" y="88.8691"/><rect fill="#FFFFFF" height="18.7746" style="stroke:#181818;stroke-width:0.6;" width="6" x="304.2" y="126.4184"/><polygon fill="#181818" points="138.6,51.9199,144.6,54.3199,138.6,56.7199,141,54.3199" style="stroke:#181818;stroke-width:0.6;"/><line style="stroke:#181818;stroke-width:0.6;" x1="0" x2="142.2" y1="54.3199" y2="54.3199"/><text fill="#000000" font-family="sans-serif" font-size="7.8" font-weight="bold" lengthAdjust="spacing" textLength="8.4" x="4.2" y="51.1623">12</text><text fill="#000000" font-family="sans-serif" font-size="7.8" lengthAdjust="spacing" textLength="123.6" x="15" y="51.1623">createMaintenanceList(vehiclesList)</text><path d="M105,63.3199 L224.4,63.3199 L224.4,68.8945 L218.4,74.8945 L105,74.8945 L105,63.3199 " fill="#EEEEEE" style="stroke:#000000;stroke-width:0.8999999999999999;"/><rect fill="none" height="86.673" style="stroke:#000000;stroke-width:0.8999999999999999;" width="247.2" x="105" y="63.3199"/><text fill="#000000" font-family="sans-serif" font-size="7.8" font-weight="bold" lengthAdjust="spacing" textLength="92.4" x="114" y="72.3369">Create Maintenance List</text><polygon fill="#181818" points="297,86.4691,303,88.8691,297,91.2691,299.4,88.8691" style="stroke:#181818;stroke-width:0.6;"/><line style="stroke:#181818;stroke-width:0.6;" x1="151.8" x2="300.6" y1="88.8691" y2="88.8691"/><text fill="#000000" font-family="sans-serif" font-size="7.8" font-weight="bold" lengthAdjust="spacing" textLength="15" x="156" y="85.7115">12.1</text><text fill="#000000" font-family="sans-serif" font-size="7.8" lengthAdjust="spacing" textLength="97.2" x="173.4" y="85.7115">getMaintenanceRepository()</text><polygon fill="#181818" points="158.4,105.2437,152.4,107.6438,158.4,110.0438,156,107.6438" style="stroke:#181818;stroke-width:0.6;"/><line style="stroke:#181818;stroke-width:0.6;stroke-dasharray:2.0,2.0;" x1="154.8" x2="306.6" y1="107.6438" y2="107.6438"/><text fill="#000000" font-family="sans-serif" font-size="7.8" font-weight="bold" lengthAdjust="spacing" textLength="15" x="162" y="104.4861">12.2</text><text fill="#000000" font-family="sans-serif" font-size="7.8" lengthAdjust="spacing" textLength="81.6" x="179.4" y="104.4861">MaintenanceRepository</text><polygon fill="#181818" points="297,124.0184,303,126.4184,297,128.8184,299.4,126.4184" style="stroke:#181818;stroke-width:0.6;"/><line style="stroke:#181818;stroke-width:0.6;" x1="151.8" x2="300.6" y1="126.4184" y2="126.4184"/><text fill="#000000" font-family="sans-serif" font-size="7.8" font-weight="bold" lengthAdjust="spacing" textLength="15" x="156" y="123.2607">12.3</text><text fill="#000000" font-family="sans-serif" font-size="7.8" lengthAdjust="spacing" textLength="123.6" x="173.4" y="123.2607">createMaintenanceList(vehiclesList)</text><polygon fill="#181818" points="155.4,142.793,149.4,145.193,155.4,147.593,153,145.193" style="stroke:#181818;stroke-width:0.6;"/><line style="stroke:#181818;stroke-width:0.6;stroke-dasharray:2.0,2.0;" x1="151.8" x2="306.6" y1="145.193" y2="145.193"/><text fill="#000000" font-family="sans-serif" font-size="7.8" font-weight="bold" lengthAdjust="spacing" textLength="15" x="159" y="142.0354">12.4</text><text fill="#000000" font-family="sans-serif" font-size="7.8" lengthAdjust="spacing" textLength="57" x="176.4" y="142.0354">maintenanceList</text><polygon fill="#181818" points="6.6,165.7676,0.6,168.1676,6.6,170.5676,4.2,168.1676" style="stroke:#181818;stroke-width:0.6;"/><line style="stroke:#181818;stroke-width:0.6;stroke-dasharray:2.0,2.0;" x1="3" x2="148.2" y1="168.1676" y2="168.1676"/><text fill="#000000" font-family="sans-serif" font-size="7.8" font-weight="bold" lengthAdjust="spacing" textLength="8.4" x="10.2" y="165.01">13</text><text fill="#000000" font-family="sans-serif" font-size="7.8" lengthAdjust="spacing" textLength="46.2" x="21" y="165.01">taskCategory</text><!--SRC=[hPAzRiCm38HtFGMHAHbS8Erc55sy9ajQPEh2ogmjH9OCYKwHjwyYfwxZdw0emiqKx_ZXJ7zGfaQ75LJMM5awMn6mQqZuxgL6US22Nlca2Hn9HbFe_e0lCRTVoXJmYTgJ4A7DIgeQ3SCYtLEffARC6dPMQt8BG0_PssvpFNXivtPKMw_OkbFwRlR3NjIEka9WmzOqrGSvM3-Av2NwGmhI4J9jKHacWqRIHdbUNbRvyyTg87vOXuPaTGowbX925SusDMJH3NfsSBOGSMIg8aMW6H47j8AuP_Jxj5pDsdLS4md0ZHglJouHfJ39CEkMqtyORiNmbpzqpppcimWmrJN67MFeARgZ8fEtXzLA-cVu53lFIV93nkWFML0NSSFGxHi0]--></g></svg>