<?xml version="1.0" encoding="us-ascii" standalone="no"?><svg xmlns="http://www.w3.org/2000/svg" xmlns:xlink="http://www.w3.org/1999/xlink" contentStyleType="text/css" height="518.7px" preserveAspectRatio="none" style="width:1181px;height:518px;background:#FFFFFF;" version="1.1" viewBox="0 0 1181 518" width="1181.6px" zoomAndPan="magnify"><defs/><g><!--class VFM--><g id="elem_VFM"><rect codeLine="5" fill="#F1F1F1" height="33.6" id="VFM" rx="1.75" ry="1.75" style="stroke:#181818;stroke-width:0.3499999999999999;" width="42.7" x="400.75" y="17.85"/><ellipse cx="411.25" cy="29.05" fill="#ADD1B2" rx="7.7" ry="7.7" style="stroke:#181818;stroke-width:0.6999999999999998;"/><path d="M413.1859,26.1625 Q413.2953,26.0094 413.4266,25.9328 Q413.5578,25.8562 413.7109,25.8562 Q413.9734,25.8562 414.1375,26.0422 Q414.3016,26.2172 414.3016,26.6437 L414.3016,27.6609 Q414.3016,28.0875 414.1375,28.2734 Q413.9734,28.4594 413.7109,28.4594 Q413.4703,28.4594 413.3281,28.3172 Q413.1859,28.1859 413.1094,27.825 Q413.0766,27.5734 412.9453,27.4422 Q412.7156,27.1797 412.2891,27.0266 Q411.8625,26.8734 411.425,26.8734 Q410.8891,26.8734 410.4406,27.1031 Q410.0031,27.3328 409.6531,27.8578 Q409.3141,28.3828 409.3141,29.1047 L409.3141,29.8703 Q409.3141,30.7344 409.9375,31.3141 Q410.5609,31.8828 411.6766,31.8828 Q412.3328,31.8828 412.7922,31.7078 Q413.0656,31.5984 413.3609,31.2922 Q413.5469,31.1062 413.6453,31.0516 Q413.7547,30.9969 413.8969,30.9969 Q414.1266,30.9969 414.3016,31.1828 Q414.4875,31.3578 414.4875,31.5984 Q414.4875,31.8391 414.2469,32.1234 Q413.8969,32.5281 413.3391,32.7578 Q412.5844,33.075 411.6766,33.075 Q410.6156,33.075 409.7734,32.6375 Q409.0844,32.2875 408.6031,31.5437 Q408.1219,30.7891 408.1219,29.8922 L408.1219,29.0828 Q408.1219,28.1531 408.5484,27.3547 Q408.9859,26.5453 409.7516,26.1187 Q410.5172,25.6812 411.3812,25.6812 Q411.8953,25.6812 412.3437,25.8016 Q412.8031,25.9109 413.1859,26.1625 Z " fill="#000000"/><text fill="#000000" font-family="sans-serif" font-size="9.8" lengthAdjust="spacing" textLength="20.3" x="421.05" y="33.1078">VFM</text><line style="stroke:#181818;stroke-width:0.3499999999999999;" x1="401.45" x2="442.75" y1="40.25" y2="40.25"/><line style="stroke:#181818;stroke-width:0.3499999999999999;" x1="401.45" x2="442.75" y1="45.85" y2="45.85"/></g><!--class Vehicle--><g id="elem_Vehicle"><rect codeLine="8" fill="#F1F1F1" height="150.9129" id="Vehicle" rx="1.75" ry="1.75" style="stroke:#181818;stroke-width:0.3499999999999999;" width="499.8" x="585.9" y="247.8"/><ellipse cx="816.725" cy="259" fill="#ADD1B2" rx="7.7" ry="7.7" style="stroke:#181818;stroke-width:0.6999999999999998;"/><path d="M818.6609,256.1125 Q818.7703,255.9594 818.9016,255.8828 Q819.0328,255.8062 819.1859,255.8062 Q819.4484,255.8062 819.6125,255.9922 Q819.7766,256.1672 819.7766,256.5937 L819.7766,257.6109 Q819.7766,258.0375 819.6125,258.2234 Q819.4484,258.4094 819.1859,258.4094 Q818.9453,258.4094 818.8031,258.2672 Q818.6609,258.1359 818.5844,257.775 Q818.5516,257.5234 818.4203,257.3922 Q818.1906,257.1297 817.7641,256.9766 Q817.3375,256.8234 816.9,256.8234 Q816.3641,256.8234 815.9156,257.0531 Q815.4781,257.2828 815.1281,257.8078 Q814.7891,258.3328 814.7891,259.0547 L814.7891,259.8203 Q814.7891,260.6844 815.4125,261.2641 Q816.0359,261.8328 817.1516,261.8328 Q817.8078,261.8328 818.2672,261.6578 Q818.5406,261.5484 818.8359,261.2422 Q819.0219,261.0562 819.1203,261.0016 Q819.2297,260.9469 819.3719,260.9469 Q819.6016,260.9469 819.7766,261.1328 Q819.9625,261.3078 819.9625,261.5484 Q819.9625,261.7891 819.7219,262.0734 Q819.3719,262.4781 818.8141,262.7078 Q818.0594,263.025 817.1516,263.025 Q816.0906,263.025 815.2484,262.5875 Q814.5594,262.2375 814.0781,261.4937 Q813.5969,260.7391 813.5969,259.8422 L813.5969,259.0328 Q813.5969,258.1031 814.0234,257.3047 Q814.4609,256.4953 815.2266,256.0687 Q815.9922,255.6312 816.8562,255.6312 Q817.3703,255.6312 817.8187,255.7516 Q818.2781,255.8609 818.6609,256.1125 Z " fill="#000000"/><text fill="#000000" font-family="sans-serif" font-size="9.8" lengthAdjust="spacing" textLength="32.2" x="831.075" y="263.0578">Vehicle</text><line style="stroke:#181818;stroke-width:0.3499999999999999;" x1="586.6" x2="1085" y1="270.2" y2="270.2"/><rect fill="none" height="4.2" style="stroke:#C82930;stroke-width:0.6999999999999998;" width="4.2" x="591.5" y="278.4674"/><text fill="#000000" font-family="sans-serif" font-size="9.8" lengthAdjust="spacing" textLength="12.6" x="599.9" y="283.5752">vin</text><rect fill="none" height="4.2" style="stroke:#C82930;stroke-width:0.6999999999999998;" width="4.2" x="591.5" y="291.5021"/><text fill="#000000" font-family="sans-serif" font-size="9.8" lengthAdjust="spacing" textLength="53.2" x="599.9" y="296.61">vehiclePlate</text><rect fill="none" height="4.2" style="stroke:#C82930;stroke-width:0.6999999999999998;" width="4.2" x="591.5" y="304.5369"/><text fill="#000000" font-family="sans-serif" font-size="9.8" lengthAdjust="spacing" textLength="48.3" x="599.9" y="309.6447">tareWeight</text><rect fill="none" height="4.2" style="stroke:#C82930;stroke-width:0.6999999999999998;" width="4.2" x="591.5" y="317.5717"/><text fill="#000000" font-family="sans-serif" font-size="9.8" lengthAdjust="spacing" textLength="55.3" x="599.9" y="322.6795">grossWeight</text><rect fill="none" height="4.2" style="stroke:#C82930;stroke-width:0.6999999999999998;" width="4.2" x="591.5" y="330.6064"/><text fill="#000000" font-family="sans-serif" font-size="9.8" lengthAdjust="spacing" textLength="45.5" x="599.9" y="335.7143">currentKm</text><rect fill="none" height="4.2" style="stroke:#C82930;stroke-width:0.6999999999999998;" width="4.2" x="591.5" y="343.6412"/><text fill="#000000" font-family="sans-serif" font-size="9.8" lengthAdjust="spacing" textLength="67.9" x="599.9" y="348.749">acquisitionDate</text><rect fill="none" height="4.2" style="stroke:#C82930;stroke-width:0.6999999999999998;" width="4.2" x="591.5" y="356.676"/><text fill="#000000" font-family="sans-serif" font-size="9.8" lengthAdjust="spacing" textLength="104.3" x="599.9" y="361.7838">maintenanceFrequency</text><rect fill="none" height="4.2" style="stroke:#C82930;stroke-width:0.6999999999999998;" width="4.2" x="591.5" y="369.7107"/><text fill="#000000" font-family="sans-serif" font-size="9.8" lengthAdjust="spacing" textLength="18.9" x="599.9" y="374.8186">type</text><line style="stroke:#181818;stroke-width:0.3499999999999999;" x1="586.6" x2="1085" y1="380.0781" y2="380.0781"/><ellipse cx="593.6" cy="390.4455" fill="#84BE84" rx="2.1" ry="2.1" style="stroke:#038048;stroke-width:0.6999999999999998;"/><text fill="#000000" font-family="sans-serif" font-size="9.8" lengthAdjust="spacing" textLength="481.6" x="599.9" y="393.4533">Vehicle(vin, vehiclePlate, tareWeight, grossWeight,currentKm, acquisitionDate, maintenanceFrequency, type)</text></g><!--class Brand--><g id="elem_Brand"><rect codeLine="21" fill="#F1F1F1" height="59.6695" id="Brand" rx="1.75" ry="1.75" style="stroke:#181818;stroke-width:0.3499999999999999;" width="78.4" x="940.1" y="454.3"/><ellipse cx="963.83" cy="465.5" fill="#ADD1B2" rx="7.7" ry="7.7" style="stroke:#181818;stroke-width:0.6999999999999998;"/><path d="M965.7659,462.6125 Q965.8753,462.4594 966.0066,462.3828 Q966.1378,462.3062 966.2909,462.3062 Q966.5534,462.3062 966.7175,462.4922 Q966.8816,462.6672 966.8816,463.0937 L966.8816,464.1109 Q966.8816,464.5375 966.7175,464.7234 Q966.5534,464.9094 966.2909,464.9094 Q966.0503,464.9094 965.9081,464.7672 Q965.7659,464.6359 965.6894,464.275 Q965.6566,464.0234 965.5253,463.8922 Q965.2956,463.6297 964.8691,463.4766 Q964.4425,463.3234 964.005,463.3234 Q963.4691,463.3234 963.0206,463.5531 Q962.5831,463.7828 962.2331,464.3078 Q961.8941,464.8328 961.8941,465.5547 L961.8941,466.3203 Q961.8941,467.1844 962.5175,467.7641 Q963.1409,468.3328 964.2566,468.3328 Q964.9128,468.3328 965.3722,468.1578 Q965.6456,468.0484 965.9409,467.7422 Q966.1269,467.5562 966.2253,467.5016 Q966.3347,467.4469 966.4769,467.4469 Q966.7066,467.4469 966.8816,467.6328 Q967.0675,467.8078 967.0675,468.0484 Q967.0675,468.2891 966.8269,468.5734 Q966.4769,468.9781 965.9191,469.2078 Q965.1644,469.525 964.2566,469.525 Q963.1956,469.525 962.3534,469.0875 Q961.6644,468.7375 961.1831,467.9937 Q960.7019,467.2391 960.7019,466.3422 L960.7019,465.5328 Q960.7019,464.6031 961.1284,463.8047 Q961.5659,462.9953 962.3316,462.5687 Q963.0972,462.1312 963.9612,462.1312 Q964.4753,462.1312 964.9237,462.2516 Q965.3831,462.3609 965.7659,462.6125 Z " fill="#000000"/><text fill="#000000" font-family="sans-serif" font-size="9.8" lengthAdjust="spacing" textLength="26.6" x="976.57" y="469.5578">Brand</text><line style="stroke:#181818;stroke-width:0.3499999999999999;" x1="940.8" x2="1017.8" y1="476.7" y2="476.7"/><rect fill="none" height="4.2" style="stroke:#C82930;stroke-width:0.6999999999999998;" width="4.2" x="945.7" y="484.9674"/><text fill="#000000" font-family="sans-serif" font-size="9.8" lengthAdjust="spacing" textLength="26.6" x="954.1" y="490.0752">model</text><line style="stroke:#181818;stroke-width:0.3499999999999999;" x1="940.8" x2="1017.8" y1="495.3348" y2="495.3348"/><ellipse cx="947.8" cy="505.7021" fill="#84BE84" rx="2.1" ry="2.1" style="stroke:#038048;stroke-width:0.6999999999999998;"/><text fill="#000000" font-family="sans-serif" font-size="9.8" lengthAdjust="spacing" textLength="60.2" x="954.1" y="508.71">Brand(model)</text></g><!--class VehicleRepository--><g id="elem_VehicleRepository"><rect codeLine="27" fill="#F1F1F1" height="72.7043" id="VehicleRepository" rx="1.75" ry="1.75" style="stroke:#181818;stroke-width:0.3499999999999999;" width="572.6" x="224.7" y="126"/><ellipse cx="468.125" cy="137.2" fill="#ADD1B2" rx="7.7" ry="7.7" style="stroke:#181818;stroke-width:0.6999999999999998;"/><path d="M470.0609,134.3125 Q470.1703,134.1594 470.3016,134.0828 Q470.4328,134.0062 470.5859,134.0062 Q470.8484,134.0062 471.0125,134.1922 Q471.1766,134.3672 471.1766,134.7937 L471.1766,135.8109 Q471.1766,136.2375 471.0125,136.4234 Q470.8484,136.6094 470.5859,136.6094 Q470.3453,136.6094 470.2031,136.4672 Q470.0609,136.3359 469.9844,135.975 Q469.9516,135.7234 469.8203,135.5922 Q469.5906,135.3297 469.1641,135.1766 Q468.7375,135.0234 468.3,135.0234 Q467.7641,135.0234 467.3156,135.2531 Q466.8781,135.4828 466.5281,136.0078 Q466.1891,136.5328 466.1891,137.2547 L466.1891,138.0203 Q466.1891,138.8844 466.8125,139.4641 Q467.4359,140.0328 468.5516,140.0328 Q469.2078,140.0328 469.6672,139.8578 Q469.9406,139.7484 470.2359,139.4422 Q470.4219,139.2562 470.5203,139.2016 Q470.6297,139.1469 470.7719,139.1469 Q471.0016,139.1469 471.1766,139.3328 Q471.3625,139.5078 471.3625,139.7484 Q471.3625,139.9891 471.1219,140.2734 Q470.7719,140.6781 470.2141,140.9078 Q469.4594,141.225 468.5516,141.225 Q467.4906,141.225 466.6484,140.7875 Q465.9594,140.4375 465.4781,139.6937 Q464.9969,138.9391 464.9969,138.0422 L464.9969,137.2328 Q464.9969,136.3031 465.4234,135.5047 Q465.8609,134.6953 466.6266,134.2687 Q467.3922,133.8312 468.2562,133.8312 Q468.7703,133.8312 469.2187,133.9516 Q469.6781,134.0609 470.0609,134.3125 Z " fill="#000000"/><text fill="#000000" font-family="sans-serif" font-size="9.8" lengthAdjust="spacing" textLength="79.8" x="482.475" y="141.2578">VehicleRepository</text><line style="stroke:#181818;stroke-width:0.3499999999999999;" x1="225.4" x2="796.6" y1="148.4" y2="148.4"/><line style="stroke:#181818;stroke-width:0.3499999999999999;" x1="225.4" x2="796.6" y1="154" y2="154"/><ellipse cx="232.4" cy="164.3674" fill="#84BE84" rx="2.1" ry="2.1" style="stroke:#038048;stroke-width:0.6999999999999998;"/><text fill="#000000" font-family="sans-serif" font-size="9.8" lengthAdjust="spacing" textLength="554.4" x="238.7" y="167.3752">registerVehicle(vin, brand, model, vehiclePlate, tareWeight,grossWeight, currentKm, acquisitionDate, maintenanceFrequency)</text><ellipse cx="232.4" cy="177.4021" fill="#84BE84" rx="2.1" ry="2.1" style="stroke:#038048;stroke-width:0.6999999999999998;"/><text fill="#000000" font-family="sans-serif" font-size="9.8" lengthAdjust="spacing" textLength="68.6" x="238.7" y="180.41">validateVIN(vin)</text><ellipse cx="232.4" cy="190.4369" fill="#84BE84" rx="2.1" ry="2.1" style="stroke:#038048;stroke-width:0.6999999999999998;"/><text fill="#000000" font-family="sans-serif" font-size="9.8" lengthAdjust="spacing" textLength="151.2" x="238.7" y="193.4447">getVehiclesNeedingMaintenance()</text></g><!--class BrandRepository--><g id="elem_BrandRepository"><rect codeLine="33" fill="#F1F1F1" height="59.6695" id="BrandRepository" rx="1.75" ry="1.75" style="stroke:#181818;stroke-width:0.3499999999999999;" width="129.5" x="822.15" y="132.65"/><ellipse cx="847.455" cy="143.85" fill="#ADD1B2" rx="7.7" ry="7.7" style="stroke:#181818;stroke-width:0.6999999999999998;"/><path d="M849.3909,140.9625 Q849.5003,140.8094 849.6316,140.7328 Q849.7628,140.6562 849.9159,140.6562 Q850.1784,140.6562 850.3425,140.8422 Q850.5066,141.0172 850.5066,141.4437 L850.5066,142.4609 Q850.5066,142.8875 850.3425,143.0734 Q850.1784,143.2594 849.9159,143.2594 Q849.6753,143.2594 849.5331,143.1172 Q849.3909,142.9859 849.3144,142.625 Q849.2816,142.3734 849.1503,142.2422 Q848.9206,141.9797 848.4941,141.8266 Q848.0675,141.6734 847.63,141.6734 Q847.0941,141.6734 846.6456,141.9031 Q846.2081,142.1328 845.8581,142.6578 Q845.5191,143.1828 845.5191,143.9047 L845.5191,144.6703 Q845.5191,145.5344 846.1425,146.1141 Q846.7659,146.6828 847.8816,146.6828 Q848.5378,146.6828 848.9972,146.5078 Q849.2706,146.3984 849.5659,146.0922 Q849.7519,145.9062 849.8503,145.8516 Q849.9597,145.7969 850.1019,145.7969 Q850.3316,145.7969 850.5066,145.9828 Q850.6925,146.1578 850.6925,146.3984 Q850.6925,146.6391 850.4519,146.9234 Q850.1019,147.3281 849.5441,147.5578 Q848.7894,147.875 847.8816,147.875 Q846.8206,147.875 845.9784,147.4375 Q845.2894,147.0875 844.8081,146.3437 Q844.3269,145.5891 844.3269,144.6922 L844.3269,143.8828 Q844.3269,142.9531 844.7534,142.1547 Q845.1909,141.3453 845.9566,140.9187 Q846.7222,140.4812 847.5862,140.4812 Q848.1003,140.4812 848.5487,140.6016 Q849.0081,140.7109 849.3909,140.9625 Z " fill="#000000"/><text fill="#000000" font-family="sans-serif" font-size="9.8" lengthAdjust="spacing" textLength="74.2" x="860.545" y="147.9078">BrandRepository</text><line style="stroke:#181818;stroke-width:0.3499999999999999;" x1="822.85" x2="950.95" y1="155.05" y2="155.05"/><line style="stroke:#181818;stroke-width:0.3499999999999999;" x1="822.85" x2="950.95" y1="160.65" y2="160.65"/><ellipse cx="829.85" cy="171.0174" fill="#84BE84" rx="2.1" ry="2.1" style="stroke:#038048;stroke-width:0.6999999999999998;"/><text fill="#000000" font-family="sans-serif" font-size="9.8" lengthAdjust="spacing" textLength="52.5" x="836.15" y="174.0252">getBrands()</text><ellipse cx="829.85" cy="184.0521" fill="#84BE84" rx="2.1" ry="2.1" style="stroke:#038048;stroke-width:0.6999999999999998;"/><text fill="#000000" font-family="sans-serif" font-size="9.8" lengthAdjust="spacing" textLength="111.3" x="836.15" y="187.06">getModelByBrand(brand)</text></g><!--class MaintenanceReport--><g id="elem_MaintenanceReport"><rect codeLine="38" fill="#F1F1F1" height="46.6348" id="MaintenanceReport" rx="1.75" ry="1.75" style="stroke:#181818;stroke-width:0.3499999999999999;" width="109.2" x="976.5" y="138.95"/><ellipse cx="987" cy="150.15" fill="#ADD1B2" rx="7.7" ry="7.7" style="stroke:#181818;stroke-width:0.6999999999999998;"/><path d="M988.9359,147.2625 Q989.0453,147.1094 989.1766,147.0328 Q989.3078,146.9562 989.4609,146.9562 Q989.7234,146.9562 989.8875,147.1422 Q990.0516,147.3172 990.0516,147.7437 L990.0516,148.7609 Q990.0516,149.1875 989.8875,149.3734 Q989.7234,149.5594 989.4609,149.5594 Q989.2203,149.5594 989.0781,149.4172 Q988.9359,149.2859 988.8594,148.925 Q988.8266,148.6734 988.6953,148.5422 Q988.4656,148.2797 988.0391,148.1266 Q987.6125,147.9734 987.175,147.9734 Q986.6391,147.9734 986.1906,148.2031 Q985.7531,148.4328 985.4031,148.9578 Q985.0641,149.4828 985.0641,150.2047 L985.0641,150.9703 Q985.0641,151.8344 985.6875,152.4141 Q986.3109,152.9828 987.4266,152.9828 Q988.0828,152.9828 988.5422,152.8078 Q988.8156,152.6984 989.1109,152.3922 Q989.2969,152.2062 989.3953,152.1516 Q989.5047,152.0969 989.6469,152.0969 Q989.8766,152.0969 990.0516,152.2828 Q990.2375,152.4578 990.2375,152.6984 Q990.2375,152.9391 989.9969,153.2234 Q989.6469,153.6281 989.0891,153.8578 Q988.3344,154.175 987.4266,154.175 Q986.3656,154.175 985.5234,153.7375 Q984.8344,153.3875 984.3531,152.6437 Q983.8719,151.8891 983.8719,150.9922 L983.8719,150.1828 Q983.8719,149.2531 984.2984,148.4547 Q984.7359,147.6453 985.5016,147.2187 Q986.2672,146.7812 987.1312,146.7812 Q987.6453,146.7812 988.0937,146.9016 Q988.5531,147.0109 988.9359,147.2625 Z " fill="#000000"/><text fill="#000000" font-family="sans-serif" font-size="9.8" lengthAdjust="spacing" textLength="86.8" x="996.8" y="154.2078">MaintenanceReport</text><line style="stroke:#181818;stroke-width:0.3499999999999999;" x1="977.2" x2="1085" y1="161.35" y2="161.35"/><rect fill="none" height="4.2" style="stroke:#C82930;stroke-width:0.6999999999999998;" width="4.2" x="982.1" y="169.6174"/><text fill="#000000" font-family="sans-serif" font-size="9.8" lengthAdjust="spacing" textLength="56.7" x="990.5" y="174.7252">reportDetails</text><line style="stroke:#181818;stroke-width:0.3499999999999999;" x1="977.2" x2="1085" y1="179.9848" y2="179.9848"/></g><!--class Repositories--><g id="elem_Repositories"><rect codeLine="42" fill="#F1F1F1" height="85.7391" id="Repositories" rx="1.75" ry="1.75" style="stroke:#181818;stroke-width:0.3499999999999999;" width="140" x="4.9" y="119.7"/><ellipse cx="44.275" cy="130.9" fill="#ADD1B2" rx="7.7" ry="7.7" style="stroke:#181818;stroke-width:0.6999999999999998;"/><path d="M46.2109,128.0125 Q46.3203,127.8594 46.4516,127.7828 Q46.5828,127.7062 46.7359,127.7062 Q46.9984,127.7062 47.1625,127.8922 Q47.3266,128.0672 47.3266,128.4937 L47.3266,129.5109 Q47.3266,129.9375 47.1625,130.1234 Q46.9984,130.3094 46.7359,130.3094 Q46.4953,130.3094 46.3531,130.1672 Q46.2109,130.0359 46.1344,129.675 Q46.1016,129.4234 45.9703,129.2922 Q45.7406,129.0297 45.3141,128.8766 Q44.8875,128.7234 44.45,128.7234 Q43.9141,128.7234 43.4656,128.9531 Q43.0281,129.1828 42.6781,129.7078 Q42.3391,130.2328 42.3391,130.9547 L42.3391,131.7203 Q42.3391,132.5844 42.9625,133.1641 Q43.5859,133.7328 44.7016,133.7328 Q45.3578,133.7328 45.8172,133.5578 Q46.0906,133.4484 46.3859,133.1422 Q46.5719,132.9562 46.6703,132.9016 Q46.7797,132.8469 46.9219,132.8469 Q47.1516,132.8469 47.3266,133.0328 Q47.5125,133.2078 47.5125,133.4484 Q47.5125,133.6891 47.2719,133.9734 Q46.9219,134.3781 46.3641,134.6078 Q45.6094,134.925 44.7016,134.925 Q43.6406,134.925 42.7984,134.4875 Q42.1094,134.1375 41.6281,133.3937 Q41.1469,132.6391 41.1469,131.7422 L41.1469,130.9328 Q41.1469,130.0031 41.5734,129.2047 Q42.0109,128.3953 42.7766,127.9687 Q43.5422,127.5312 44.4062,127.5312 Q44.9203,127.5312 45.3687,127.6516 Q45.8281,127.7609 46.2109,128.0125 Z " fill="#000000"/><text fill="#000000" font-family="sans-serif" font-size="9.8" lengthAdjust="spacing" textLength="55.3" x="58.625" y="134.9578">Repositories</text><line style="stroke:#181818;stroke-width:0.3499999999999999;" x1="5.6" x2="144.2" y1="142.1" y2="142.1"/><line style="stroke:#181818;stroke-width:0.3499999999999999;" x1="5.6" x2="144.2" y1="147.7" y2="147.7"/><rect fill="#F24D5C" height="4.2" style="stroke:#C82930;stroke-width:0.6999999999999998;" width="4.2" x="10.5" y="155.9674"/><text fill="#000000" font-family="sans-serif" font-size="9.8" lengthAdjust="spacing" textLength="62.3" x="18.9" y="161.0752">Repositories()</text><ellipse cx="12.6" cy="171.1021" fill="#84BE84" rx="2.1" ry="2.1" style="stroke:#038048;stroke-width:0.6999999999999998;"/><text fill="#000000" font-family="sans-serif" font-size="9.8" lengthAdjust="spacing" textLength="121.8" x="18.9" y="174.11">getInstance() : Repositories</text><ellipse cx="12.6" cy="184.1369" fill="#84BE84" rx="2.1" ry="2.1" style="stroke:#038048;stroke-width:0.6999999999999998;"/><text fill="#000000" font-family="sans-serif" font-size="9.8" lengthAdjust="spacing" textLength="95.2" x="18.9" y="187.1447">getBrandRepository()</text><ellipse cx="12.6" cy="197.1717" fill="#84BE84" rx="2.1" ry="2.1" style="stroke:#038048;stroke-width:0.6999999999999998;"/><text fill="#000000" font-family="sans-serif" font-size="9.8" lengthAdjust="spacing" textLength="100.8" x="18.9" y="200.1795">getVehicleRepository()</text></g><!--class ListMaintenanceController--><g id="elem_ListMaintenanceController"><rect codeLine="49" fill="#F1F1F1" height="59.6695" id="ListMaintenanceController" rx="1.75" ry="1.75" style="stroke:#181818;stroke-width:0.3499999999999999;" width="188.3" x="595.35" y="4.9"/><ellipse cx="628.775" cy="16.1" fill="#ADD1B2" rx="7.7" ry="7.7" style="stroke:#181818;stroke-width:0.6999999999999998;"/><path d="M630.7109,13.2125 Q630.8203,13.0594 630.9516,12.9828 Q631.0828,12.9062 631.2359,12.9062 Q631.4984,12.9062 631.6625,13.0922 Q631.8266,13.2672 631.8266,13.6937 L631.8266,14.7109 Q631.8266,15.1375 631.6625,15.3234 Q631.4984,15.5094 631.2359,15.5094 Q630.9953,15.5094 630.8531,15.3672 Q630.7109,15.2359 630.6344,14.875 Q630.6016,14.6234 630.4703,14.4922 Q630.2406,14.2297 629.8141,14.0766 Q629.3875,13.9234 628.95,13.9234 Q628.4141,13.9234 627.9656,14.1531 Q627.5281,14.3828 627.1781,14.9078 Q626.8391,15.4328 626.8391,16.1547 L626.8391,16.9203 Q626.8391,17.7844 627.4625,18.3641 Q628.0859,18.9328 629.2016,18.9328 Q629.8578,18.9328 630.3172,18.7578 Q630.5906,18.6484 630.8859,18.3422 Q631.0719,18.1562 631.1703,18.1016 Q631.2797,18.0469 631.4219,18.0469 Q631.6516,18.0469 631.8266,18.2328 Q632.0125,18.4078 632.0125,18.6484 Q632.0125,18.8891 631.7719,19.1734 Q631.4219,19.5781 630.8641,19.8078 Q630.1094,20.125 629.2016,20.125 Q628.1406,20.125 627.2984,19.6875 Q626.6094,19.3375 626.1281,18.5937 Q625.6469,17.8391 625.6469,16.9422 L625.6469,16.1328 Q625.6469,15.2031 626.0734,14.4047 Q626.5109,13.5953 627.2766,13.1687 Q628.0422,12.7312 628.9062,12.7312 Q629.4203,12.7312 629.8687,12.8516 Q630.3281,12.9609 630.7109,13.2125 Z " fill="#000000"/><text fill="#000000" font-family="sans-serif" font-size="9.8" lengthAdjust="spacing" textLength="115.5" x="643.125" y="20.1578">ListMaintenanceController</text><line style="stroke:#181818;stroke-width:0.3499999999999999;" x1="596.05" x2="782.95" y1="27.3" y2="27.3"/><line style="stroke:#181818;stroke-width:0.3499999999999999;" x1="596.05" x2="782.95" y1="32.9" y2="32.9"/><ellipse cx="603.05" cy="43.2674" fill="#84BE84" rx="2.1" ry="2.1" style="stroke:#038048;stroke-width:0.6999999999999998;"/><text fill="#000000" font-family="sans-serif" font-size="9.8" lengthAdjust="spacing" textLength="73.5" x="609.35" y="46.2752">getVehiclesList()</text><ellipse cx="603.05" cy="56.3021" fill="#84BE84" rx="2.1" ry="2.1" style="stroke:#038048;stroke-width:0.6999999999999998;"/><text fill="#000000" font-family="sans-serif" font-size="9.8" lengthAdjust="spacing" textLength="170.1" x="609.35" y="59.31">generateMaintenanceList(vehiclesList)</text></g><!--class ListMaintenanceUI--><g id="elem_ListMaintenanceUI"><rect codeLine="54" fill="#F1F1F1" height="33.6" id="ListMaintenanceUI" rx="1.75" ry="1.75" style="stroke:#181818;stroke-width:0.3499999999999999;" width="102.9" x="467.95" y="17.85"/><ellipse cx="478.45" cy="29.05" fill="#ADD1B2" rx="7.7" ry="7.7" style="stroke:#181818;stroke-width:0.6999999999999998;"/><path d="M480.3859,26.1625 Q480.4953,26.0094 480.6266,25.9328 Q480.7578,25.8562 480.9109,25.8562 Q481.1734,25.8562 481.3375,26.0422 Q481.5016,26.2172 481.5016,26.6437 L481.5016,27.6609 Q481.5016,28.0875 481.3375,28.2734 Q481.1734,28.4594 480.9109,28.4594 Q480.6703,28.4594 480.5281,28.3172 Q480.3859,28.1859 480.3094,27.825 Q480.2766,27.5734 480.1453,27.4422 Q479.9156,27.1797 479.4891,27.0266 Q479.0625,26.8734 478.625,26.8734 Q478.0891,26.8734 477.6406,27.1031 Q477.2031,27.3328 476.8531,27.8578 Q476.5141,28.3828 476.5141,29.1047 L476.5141,29.8703 Q476.5141,30.7344 477.1375,31.3141 Q477.7609,31.8828 478.8766,31.8828 Q479.5328,31.8828 479.9922,31.7078 Q480.2656,31.5984 480.5609,31.2922 Q480.7469,31.1062 480.8453,31.0516 Q480.9547,30.9969 481.0969,30.9969 Q481.3266,30.9969 481.5016,31.1828 Q481.6875,31.3578 481.6875,31.5984 Q481.6875,31.8391 481.4469,32.1234 Q481.0969,32.5281 480.5391,32.7578 Q479.7844,33.075 478.8766,33.075 Q477.8156,33.075 476.9734,32.6375 Q476.2844,32.2875 475.8031,31.5437 Q475.3219,30.7891 475.3219,29.8922 L475.3219,29.0828 Q475.3219,28.1531 475.7484,27.3547 Q476.1859,26.5453 476.9516,26.1187 Q477.7172,25.6812 478.5812,25.6812 Q479.0953,25.6812 479.5437,25.8016 Q480.0031,25.9109 480.3859,26.1625 Z " fill="#000000"/><text fill="#000000" font-family="sans-serif" font-size="9.8" lengthAdjust="spacing" textLength="80.5" x="488.25" y="33.1078">ListMaintenanceUI</text><line style="stroke:#181818;stroke-width:0.3499999999999999;" x1="468.65" x2="570.15" y1="40.25" y2="40.25"/><line style="stroke:#181818;stroke-width:0.3499999999999999;" x1="468.65" x2="570.15" y1="45.85" y2="45.85"/></g><!--link VFM to ListMaintenanceUI--><g id="link_VFM_ListMaintenanceUI"><path codeLine="57" d="M443.576,34.65 C451.668,34.65 455.567,34.65 463.659,34.65 " fill="none" id="VFM-to-ListMaintenanceUI" style="stroke:#181818;stroke-width:0.6999999999999998;"/><polygon fill="#181818" points="467.859,34.65,461.559,31.85,464.359,34.65,461.559,37.45,467.859,34.65" style="stroke:#181818;stroke-width:0.6999999999999998;"/></g><!--link Repositories to Repositories--><g id="link_Repositories_Repositories"><path codeLine="59" d="M144.963,151.039 C159.201,152.278 169.4,156.065 169.4,162.4 C169.4,168.735 163.3852,172.1579 149.1472,173.3969 " fill="none" id="Repositories-to-Repositories" style="stroke:#181818;stroke-width:0.6999999999999998;"/><polygon fill="#181818" points="144.963,173.761,151.482,176.0043,148.4498,173.4576,150.9965,170.4254,144.963,173.761" style="stroke:#181818;stroke-width:0.6999999999999998;"/><text fill="#000000" font-family="sans-serif" font-size="9.1" lengthAdjust="spacing" textLength="34.3" x="173.6" y="166.2698">instance</text></g><!--link ListMaintenanceUI to ListMaintenanceController--><g id="link_ListMaintenanceUI_ListMaintenanceController"><path codeLine="61" d="M570.892,34.65 C579.005,34.65 582.911,34.65 591.017,34.65 " fill="none" id="ListMaintenanceUI-to-ListMaintenanceController" style="stroke:#181818;stroke-width:0.6999999999999998;stroke-dasharray:7.0,7.0;"/><polygon fill="#181818" points="595.217,34.65,588.917,31.85,591.717,34.65,588.917,37.45,595.217,34.65" style="stroke:#181818;stroke-width:0.6999999999999998;"/></g><!--link ListMaintenanceController to Repositories--><g id="link_ListMaintenanceController_Repositories"><path codeLine="63" d="M595.077,61.754 C591.038,62.685 587.034,63.574 583.1,64.4 C419.958,98.707 374.703,82.908 212.1,119.7 C190.05,124.691 170.4022,130.1762 149.0522,136.7842 " fill="none" id="ListMaintenanceController-to-Repositories" style="stroke:#181818;stroke-width:0.6999999999999998;stroke-dasharray:7.0,7.0;"/><polygon fill="#181818" points="145.04,138.026,151.8862,138.8381,148.3835,136.9912,150.2305,133.4885,145.04,138.026" style="stroke:#181818;stroke-width:0.6999999999999998;"/><text fill="#000000" font-family="sans-serif" font-size="9.1" lengthAdjust="spacing" textLength="46.9" x="449.4" y="95.9198">repositories</text></g><!--link Repositories to VehicleRepository--><g id="link_Repositories_VehicleRepository"><path codeLine="65" d="M144.956,162.4 C171.528,162.4 193.9,162.4 220.472,162.4 " fill="none" id="Repositories-to-VehicleRepository" style="stroke:#181818;stroke-width:0.6999999999999998;"/><polygon fill="#181818" points="224.672,162.4,218.372,159.6,221.172,162.4,218.372,165.2,224.672,162.4" style="stroke:#181818;stroke-width:0.6999999999999998;"/><text fill="#000000" font-family="sans-serif" font-size="9.1" lengthAdjust="spacing" textLength="4.9" x="213.9062" y="160.202">1</text></g><!--link ListMaintenanceController to VehicleRepository--><g id="link_ListMaintenanceController_VehicleRepository"><path codeLine="67" d="M648.326,64.498 C622.482,82.789 592.4009,104.0781 564.9539,123.5101 " fill="none" id="ListMaintenanceController-to-VehicleRepository" style="stroke:#181818;stroke-width:0.6999999999999998;stroke-dasharray:7.0,7.0;"/><polygon fill="#181818" points="561.526,125.937,568.2857,124.5819,564.3826,123.9146,565.0499,120.0114,561.526,125.937" style="stroke:#181818;stroke-width:0.6999999999999998;"/><text fill="#000000" font-family="sans-serif" font-size="9.1" lengthAdjust="spacing" textLength="70.7" x="617.4" y="95.9198">vehicleRepository</text></g><!--link VehicleRepository to Vehicle--><g id="link_VehicleRepository_Vehicle"><path codeLine="69" d="M583.688,198.821 C613.235,213.339 644.7876,228.8396 679.5006,245.8986 " fill="none" id="VehicleRepository-to-Vehicle" style="stroke:#181818;stroke-width:0.6999999999999998;"/><polygon fill="#181818" points="683.27,247.751,678.8508,242.4594,680.1288,246.2073,676.3809,247.4853,683.27,247.751" style="stroke:#181818;stroke-width:0.6999999999999998;"/><text fill="#000000" font-family="sans-serif" font-size="9.1" lengthAdjust="spacing" textLength="3.5" x="668.9222" y="239.9506">*</text></g><!--link Vehicle to Brand--><g id="link_Vehicle_Brand"><path codeLine="71" d="M903.35,399.063 C921.011,418.663 936.2026,435.5287 950.2516,451.1107 " fill="none" id="Vehicle-to-Brand" style="stroke:#181818;stroke-width:0.6999999999999998;"/><polygon fill="#181818" points="953.064,454.23,950.9249,447.6761,950.7203,451.6306,946.7658,451.426,953.064,454.23" style="stroke:#181818;stroke-width:0.6999999999999998;"/><text fill="#000000" font-family="sans-serif" font-size="9.1" lengthAdjust="spacing" textLength="22.4" x="933.1" y="430.5198">brand</text><text fill="#000000" font-family="sans-serif" font-size="9.1" lengthAdjust="spacing" textLength="4.9" x="943.5922" y="446.4517">1</text></g><!--link Repositories to BrandRepository--><g id="link_Repositories_BrandRepository"><path codeLine="73" d="M145.012,121.625 C169.316,109.627 197.274,98.105 224.35,92.05 C348.53,64.281 676.648,50.596 796.95,92.05 C820.47,100.156 839.4764,114.3575 855.8774,129.6525 " fill="none" id="Repositories-to-BrandRepository" style="stroke:#181818;stroke-width:0.6999999999999998;"/><polygon fill="#181818" points="858.949,132.517,856.2512,126.1725,856.3893,130.1299,852.4319,130.268,858.949,132.517" style="stroke:#181818;stroke-width:0.6999999999999998;"/><text fill="#000000" font-family="sans-serif" font-size="9.1" lengthAdjust="spacing" textLength="4.9" x="849.2038" y="124.7287">1</text></g><!--link ListMaintenanceController to Brand--><g id="link_ListMaintenanceController_Brand"><path codeLine="75" d="M783.734,41.342 C891.884,50.421 1059.394,71.946 1098.3,119.7 C1176.707,215.936 1155.301,288.729 1098.3,399 C1081.675,431.172 1050.2573,451.8704 1022.4393,465.5064 " fill="none" id="ListMaintenanceController-to-Brand" style="stroke:#181818;stroke-width:0.6999999999999998;stroke-dasharray:7.0,7.0;"/><polygon fill="#181818" points="1018.668,467.355,1025.5573,467.0962,1021.8107,465.8145,1023.0925,462.0679,1018.668,467.355" style="stroke:#181818;stroke-width:0.6999999999999998;"/></g><!--link ListMaintenanceController to BrandRepository--><g id="link_ListMaintenanceController_BrandRepository"><path codeLine="76" d="M735.035,64.498 C766.92,84.903 805.8094,109.799 837.7154,130.218 " fill="none" id="ListMaintenanceController-to-BrandRepository" style="stroke:#181818;stroke-width:0.6999999999999998;stroke-dasharray:7.0,7.0;"/><polygon fill="#181818" points="841.253,132.482,837.4559,126.7277,838.305,130.5954,834.4373,131.4444,841.253,132.482" style="stroke:#181818;stroke-width:0.6999999999999998;"/><text fill="#000000" font-family="sans-serif" font-size="9.1" lengthAdjust="spacing" textLength="65.8" x="788.9" y="95.9198">brandRepository</text></g><!--link MaintenanceReport to Vehicle--><g id="link_MaintenanceReport_Vehicle"><path codeLine="78" d="M1003.121,185.969 C983.129,202.3 958.2689,222.616 930.7869,245.079 " fill="none" id="MaintenanceReport-to-Vehicle" style="stroke:#181818;stroke-width:0.6999999999999998;"/><polygon fill="#181818" points="927.535,247.737,934.1849,245.9179,930.2449,245.522,930.6409,241.582,927.535,247.737" style="stroke:#181818;stroke-width:0.6999999999999998;"/></g><!--SRC=[bLCxJyCm4DxzAooc558arWuCW90gA48WO3R9aLguTh3TeWZntx6TnBd4vPKflZj_h-JCAvSrqsn3QrQyiWhkRIE0QYWiavK0OkA0MRDIlNDPqHSc3Eu8Be7QfWPQAz7u4o65OCRGnyiL_I2VyGXhNZZu3qBTCwSxBlktjdChc8MkP9c69-3LsdQ5IYjZHfLYgpL8UxNfpgnustB3BLVoOW3QC2ujI2OBkDJmjWLPD3s74qt2-r4lBdEYyf6U74d9iOeyykTJwdmlQnu8PqCWPvh9CiQnKIM8NavePQ4qInAyWrevCgMRxlAH-sGLDnRqoCQp1ybRu1zCOK_qlwPcdO0T4xnqKu_B6q_UbokmdIHp0r2w_sSrW6JJBFOOSm2XPJ84kVAEpfesfE0I8I42ZwTjJ5Y7umLOneKPBaHM3YREuYAcNafZM-rqCHgQw1siP6aMesRKSUs-819_hgJLIWZGE8m-JJ-Ca2Le5pww7VexDFmzqSEotLA_hlFJj4l8A24tCZelAEyo8IH5FZxztbSoZomV9omQXvr8EZWvIDVZHmB7aExJebyJ39AEpJtZOMIC8st3IMbNUz6ku7wraz_aDwrX_2yp8pVFKv9qExpatiSN]--></g></svg>