<?xml version="1.0" encoding="us-ascii" standalone="no"?><svg xmlns="http://www.w3.org/2000/svg" xmlns:xlink="http://www.w3.org/1999/xlink" contentStyleType="text/css" height="444.6px" preserveAspectRatio="none" style="width:938px;height:444px;background:#FFFFFF;" version="1.1" viewBox="0 0 938 444" width="938.4px" zoomAndPan="magnify"><defs/><g><!--class VFM--><g id="elem_VFM"><rect codeLine="5" fill="#F1F1F1" height="28.8" id="VFM" rx="1.5" ry="1.5" style="stroke:#181818;stroke-width:0.3;" width="36.6" x="343.5" y="15.3"/><ellipse cx="352.5" cy="24.9" fill="#ADD1B2" rx="6.6" ry="6.6" style="stroke:#181818;stroke-width:0.6;"/><path d="M354.1594,22.425 Q354.2531,22.2938 354.3656,22.2281 Q354.4781,22.1625 354.6094,22.1625 Q354.8344,22.1625 354.975,22.3219 Q355.1156,22.4719 355.1156,22.8375 L355.1156,23.7094 Q355.1156,24.075 354.975,24.2344 Q354.8344,24.3938 354.6094,24.3938 Q354.4031,24.3938 354.2813,24.2719 Q354.1594,24.1594 354.0938,23.85 Q354.0656,23.6344 353.9531,23.5219 Q353.7562,23.2969 353.3906,23.1656 Q353.025,23.0344 352.65,23.0344 Q352.1906,23.0344 351.8063,23.2313 Q351.4313,23.4281 351.1312,23.8781 Q350.8406,24.3281 350.8406,24.9469 L350.8406,25.6031 Q350.8406,26.3438 351.375,26.8406 Q351.9094,27.3281 352.8656,27.3281 Q353.4281,27.3281 353.8219,27.1781 Q354.0563,27.0844 354.3094,26.8219 Q354.4688,26.6625 354.5531,26.6156 Q354.6469,26.5687 354.7688,26.5687 Q354.9656,26.5687 355.1156,26.7281 Q355.275,26.8781 355.275,27.0844 Q355.275,27.2906 355.0687,27.5344 Q354.7688,27.8812 354.2906,28.0781 Q353.6438,28.35 352.8656,28.35 Q351.9563,28.35 351.2344,27.975 Q350.6438,27.675 350.2313,27.0375 Q349.8187,26.3906 349.8187,25.6219 L349.8187,24.9281 Q349.8187,24.1312 350.1844,23.4469 Q350.5594,22.7531 351.2156,22.3875 Q351.8719,22.0125 352.6125,22.0125 Q353.0531,22.0125 353.4375,22.1156 Q353.8313,22.2094 354.1594,22.425 Z " fill="#000000"/><text fill="#000000" font-family="sans-serif" font-size="8.4" lengthAdjust="spacing" textLength="17.4" x="360.9" y="28.3781">VFM</text><line style="stroke:#181818;stroke-width:0.3;" x1="344.1" x2="379.5" y1="34.5" y2="34.5"/><line style="stroke:#181818;stroke-width:0.3;" x1="344.1" x2="379.5" y1="39.3" y2="39.3"/></g><!--class Vehicle--><g id="elem_Vehicle"><rect codeLine="8" fill="#F1F1F1" height="129.3539" id="Vehicle" rx="1.5" ry="1.5" style="stroke:#181818;stroke-width:0.3;" width="428.4" x="489.6" y="212.4"/><ellipse cx="687.45" cy="222" fill="#ADD1B2" rx="6.6" ry="6.6" style="stroke:#181818;stroke-width:0.6;"/><path d="M689.1094,219.525 Q689.2031,219.3937 689.3156,219.3281 Q689.4281,219.2625 689.5594,219.2625 Q689.7844,219.2625 689.925,219.4219 Q690.0656,219.5719 690.0656,219.9375 L690.0656,220.8094 Q690.0656,221.175 689.925,221.3344 Q689.7844,221.4938 689.5594,221.4938 Q689.3531,221.4938 689.2312,221.3719 Q689.1094,221.2594 689.0437,220.95 Q689.0156,220.7344 688.9031,220.6219 Q688.7063,220.3969 688.3406,220.2656 Q687.975,220.1344 687.6,220.1344 Q687.1406,220.1344 686.7563,220.3312 Q686.3813,220.5281 686.0813,220.9781 Q685.7906,221.4281 685.7906,222.0469 L685.7906,222.7031 Q685.7906,223.4438 686.325,223.9406 Q686.8594,224.4281 687.8156,224.4281 Q688.3781,224.4281 688.7719,224.2781 Q689.0063,224.1844 689.2594,223.9219 Q689.4187,223.7625 689.5031,223.7156 Q689.5969,223.6688 689.7188,223.6688 Q689.9156,223.6688 690.0656,223.8281 Q690.225,223.9781 690.225,224.1844 Q690.225,224.3906 690.0188,224.6344 Q689.7188,224.9813 689.2406,225.1781 Q688.5938,225.45 687.8156,225.45 Q686.9063,225.45 686.1844,225.075 Q685.5938,224.775 685.1813,224.1375 Q684.7688,223.4906 684.7688,222.7219 L684.7688,222.0281 Q684.7688,221.2313 685.1344,220.5469 Q685.5094,219.8531 686.1656,219.4875 Q686.8219,219.1125 687.5625,219.1125 Q688.0031,219.1125 688.3875,219.2156 Q688.7813,219.3094 689.1094,219.525 Z " fill="#000000"/><text fill="#000000" font-family="sans-serif" font-size="8.4" lengthAdjust="spacing" textLength="27.6" x="699.75" y="225.4781">Vehicle</text><line style="stroke:#181818;stroke-width:0.3;" x1="490.2" x2="917.4" y1="231.6" y2="231.6"/><rect fill="none" height="3.6" style="stroke:#C82930;stroke-width:0.6;" width="3.6" x="494.4" y="238.6863"/><text fill="#000000" font-family="sans-serif" font-size="8.4" lengthAdjust="spacing" textLength="10.8" x="501.6" y="243.0645">vin</text><rect fill="none" height="3.6" style="stroke:#C82930;stroke-width:0.6;" width="3.6" x="494.4" y="249.859"/><text fill="#000000" font-family="sans-serif" font-size="8.4" lengthAdjust="spacing" textLength="45.6" x="501.6" y="254.2371">vehiclePlate</text><rect fill="none" height="3.6" style="stroke:#C82930;stroke-width:0.6;" width="3.6" x="494.4" y="261.0316"/><text fill="#000000" font-family="sans-serif" font-size="8.4" lengthAdjust="spacing" textLength="41.4" x="501.6" y="265.4098">tareWeight</text><rect fill="none" height="3.6" style="stroke:#C82930;stroke-width:0.6;" width="3.6" x="494.4" y="272.2043"/><text fill="#000000" font-family="sans-serif" font-size="8.4" lengthAdjust="spacing" textLength="47.4" x="501.6" y="276.5824">grossWeight</text><rect fill="none" height="3.6" style="stroke:#C82930;stroke-width:0.6;" width="3.6" x="494.4" y="283.377"/><text fill="#000000" font-family="sans-serif" font-size="8.4" lengthAdjust="spacing" textLength="39" x="501.6" y="287.7551">currentKm</text><rect fill="none" height="3.6" style="stroke:#C82930;stroke-width:0.6;" width="3.6" x="494.4" y="294.5496"/><text fill="#000000" font-family="sans-serif" font-size="8.4" lengthAdjust="spacing" textLength="58.2" x="501.6" y="298.9277">acquisitionDate</text><rect fill="none" height="3.6" style="stroke:#C82930;stroke-width:0.6;" width="3.6" x="494.4" y="305.7223"/><text fill="#000000" font-family="sans-serif" font-size="8.4" lengthAdjust="spacing" textLength="89.4" x="501.6" y="310.1004">maintenanceFrequency</text><rect fill="none" height="3.6" style="stroke:#C82930;stroke-width:0.6;" width="3.6" x="494.4" y="316.8949"/><text fill="#000000" font-family="sans-serif" font-size="8.4" lengthAdjust="spacing" textLength="16.2" x="501.6" y="321.273">type</text><line style="stroke:#181818;stroke-width:0.3;" x1="490.2" x2="917.4" y1="325.7813" y2="325.7813"/><ellipse cx="496.2" cy="334.6676" fill="#84BE84" rx="1.8" ry="1.8" style="stroke:#038048;stroke-width:0.6;"/><text fill="#000000" font-family="sans-serif" font-size="8.4" lengthAdjust="spacing" textLength="412.8" x="501.6" y="337.2457">Vehicle(vin, vehiclePlate, tareWeight, grossWeight,currentKm, acquisitionDate, maintenanceFrequency, type)</text></g><!--class Brand--><g id="elem_Brand"><rect codeLine="21" fill="#F1F1F1" height="51.1453" id="Brand" rx="1.5" ry="1.5" style="stroke:#181818;stroke-width:0.3;" width="67.2" x="793.2" y="389.4"/><ellipse cx="813.54" cy="399" fill="#ADD1B2" rx="6.6" ry="6.6" style="stroke:#181818;stroke-width:0.6;"/><path d="M815.1994,396.525 Q815.2931,396.3938 815.4056,396.3281 Q815.5181,396.2625 815.6494,396.2625 Q815.8744,396.2625 816.015,396.4219 Q816.1556,396.5719 816.1556,396.9375 L816.1556,397.8094 Q816.1556,398.175 816.015,398.3344 Q815.8744,398.4938 815.6494,398.4938 Q815.4431,398.4938 815.3213,398.3719 Q815.1994,398.2594 815.1338,397.95 Q815.1056,397.7344 814.9931,397.6219 Q814.7963,397.3969 814.4306,397.2656 Q814.065,397.1344 813.69,397.1344 Q813.2306,397.1344 812.8463,397.3313 Q812.4713,397.5281 812.1713,397.9781 Q811.8806,398.4281 811.8806,399.0469 L811.8806,399.7031 Q811.8806,400.4437 812.415,400.9406 Q812.9494,401.4281 813.9056,401.4281 Q814.4681,401.4281 814.8619,401.2781 Q815.0963,401.1844 815.3494,400.9219 Q815.5088,400.7625 815.5931,400.7156 Q815.6869,400.6688 815.8088,400.6688 Q816.0056,400.6688 816.1556,400.8281 Q816.315,400.9781 816.315,401.1844 Q816.315,401.3906 816.1088,401.6344 Q815.8088,401.9813 815.3306,402.1781 Q814.6838,402.45 813.9056,402.45 Q812.9963,402.45 812.2744,402.075 Q811.6838,401.775 811.2713,401.1375 Q810.8588,400.4906 810.8588,399.7219 L810.8588,399.0281 Q810.8588,398.2313 811.2244,397.5469 Q811.5994,396.8531 812.2556,396.4875 Q812.9119,396.1125 813.6525,396.1125 Q814.0931,396.1125 814.4775,396.2156 Q814.8713,396.3094 815.1994,396.525 Z " fill="#000000"/><text fill="#000000" font-family="sans-serif" font-size="8.4" lengthAdjust="spacing" textLength="22.8" x="824.46" y="402.4781">Brand</text><line style="stroke:#181818;stroke-width:0.3;" x1="793.8" x2="859.8" y1="408.6" y2="408.6"/><rect fill="none" height="3.6" style="stroke:#C82930;stroke-width:0.6;" width="3.6" x="798" y="415.6863"/><text fill="#000000" font-family="sans-serif" font-size="8.4" lengthAdjust="spacing" textLength="22.8" x="805.2" y="420.0645">model</text><line style="stroke:#181818;stroke-width:0.3;" x1="793.8" x2="859.8" y1="424.5727" y2="424.5727"/><ellipse cx="799.8" cy="433.459" fill="#84BE84" rx="1.8" ry="1.8" style="stroke:#038048;stroke-width:0.6;"/><text fill="#000000" font-family="sans-serif" font-size="8.4" lengthAdjust="spacing" textLength="51.6" x="805.2" y="436.0371">Brand(model)</text></g><!--class VehicleRepository--><g id="elem_VehicleRepository"><rect codeLine="27" fill="#F1F1F1" height="62.318" id="VehicleRepository" rx="1.5" ry="1.5" style="stroke:#181818;stroke-width:0.3;" width="490.8" x="192.6" y="108"/><ellipse cx="401.25" cy="117.6" fill="#ADD1B2" rx="6.6" ry="6.6" style="stroke:#181818;stroke-width:0.6;"/><path d="M402.9094,115.125 Q403.0031,114.9937 403.1156,114.9281 Q403.2281,114.8625 403.3594,114.8625 Q403.5844,114.8625 403.725,115.0219 Q403.8656,115.1719 403.8656,115.5375 L403.8656,116.4094 Q403.8656,116.775 403.725,116.9344 Q403.5844,117.0938 403.3594,117.0938 Q403.1531,117.0938 403.0313,116.9719 Q402.9094,116.8594 402.8438,116.55 Q402.8156,116.3344 402.7031,116.2219 Q402.5062,115.9969 402.1406,115.8656 Q401.775,115.7344 401.4,115.7344 Q400.9406,115.7344 400.5563,115.9312 Q400.1813,116.1281 399.8812,116.5781 Q399.5906,117.0281 399.5906,117.6469 L399.5906,118.3031 Q399.5906,119.0437 400.125,119.5406 Q400.6594,120.0281 401.6156,120.0281 Q402.1781,120.0281 402.5719,119.8781 Q402.8063,119.7844 403.0594,119.5219 Q403.2188,119.3625 403.3031,119.3156 Q403.3969,119.2688 403.5188,119.2688 Q403.7156,119.2688 403.8656,119.4281 Q404.025,119.5781 404.025,119.7844 Q404.025,119.9906 403.8187,120.2344 Q403.5188,120.5813 403.0406,120.7781 Q402.3938,121.05 401.6156,121.05 Q400.7063,121.05 399.9844,120.675 Q399.3938,120.375 398.9813,119.7375 Q398.5687,119.0906 398.5687,118.3219 L398.5687,117.6281 Q398.5687,116.8313 398.9344,116.1469 Q399.3094,115.4531 399.9656,115.0875 Q400.6219,114.7125 401.3625,114.7125 Q401.8031,114.7125 402.1875,114.8156 Q402.5813,114.9094 402.9094,115.125 Z " fill="#000000"/><text fill="#000000" font-family="sans-serif" font-size="8.4" lengthAdjust="spacing" textLength="68.4" x="413.55" y="121.0781">VehicleRepository</text><line style="stroke:#181818;stroke-width:0.3;" x1="193.2" x2="682.8" y1="127.2" y2="127.2"/><line style="stroke:#181818;stroke-width:0.3;" x1="193.2" x2="682.8" y1="132" y2="132"/><ellipse cx="199.2" cy="140.8863" fill="#84BE84" rx="1.8" ry="1.8" style="stroke:#038048;stroke-width:0.6;"/><text fill="#000000" font-family="sans-serif" font-size="8.4" lengthAdjust="spacing" textLength="475.2" x="204.6" y="143.4645">registerVehicle(vin, brand, model, vehiclePlate, tareWeight,grossWeight, currentKm, acquisitionDate, maintenanceFrequency)</text><ellipse cx="199.2" cy="152.059" fill="#84BE84" rx="1.8" ry="1.8" style="stroke:#038048;stroke-width:0.6;"/><text fill="#000000" font-family="sans-serif" font-size="8.4" lengthAdjust="spacing" textLength="58.8" x="204.6" y="154.6371">validateVIN(vin)</text><ellipse cx="199.2" cy="163.2316" fill="#84BE84" rx="1.8" ry="1.8" style="stroke:#038048;stroke-width:0.6;"/><text fill="#000000" font-family="sans-serif" font-size="8.4" lengthAdjust="spacing" textLength="129.6" x="204.6" y="165.8098">getVehiclesNeedingMaintenance()</text></g><!--class BrandRepository--><g id="elem_BrandRepository"><rect codeLine="33" fill="#F1F1F1" height="51.1453" id="BrandRepository" rx="1.5" ry="1.5" style="stroke:#181818;stroke-width:0.3;" width="111" x="704.7" y="113.7"/><ellipse cx="726.39" cy="123.3" fill="#ADD1B2" rx="6.6" ry="6.6" style="stroke:#181818;stroke-width:0.6;"/><path d="M728.0494,120.825 Q728.1431,120.6938 728.2556,120.6281 Q728.3681,120.5625 728.4994,120.5625 Q728.7244,120.5625 728.865,120.7219 Q729.0056,120.8719 729.0056,121.2375 L729.0056,122.1094 Q729.0056,122.475 728.865,122.6344 Q728.7244,122.7937 728.4994,122.7937 Q728.2931,122.7937 728.1713,122.6719 Q728.0494,122.5594 727.9838,122.25 Q727.9556,122.0344 727.8431,121.9219 Q727.6463,121.6969 727.2806,121.5656 Q726.915,121.4344 726.54,121.4344 Q726.0806,121.4344 725.6963,121.6313 Q725.3213,121.8281 725.0213,122.2781 Q724.7306,122.7281 724.7306,123.3469 L724.7306,124.0031 Q724.7306,124.7437 725.265,125.2406 Q725.7994,125.7281 726.7556,125.7281 Q727.3181,125.7281 727.7119,125.5781 Q727.9463,125.4844 728.1994,125.2219 Q728.3588,125.0625 728.4431,125.0156 Q728.5369,124.9688 728.6588,124.9688 Q728.8556,124.9688 729.0056,125.1281 Q729.165,125.2781 729.165,125.4844 Q729.165,125.6906 728.9588,125.9344 Q728.6588,126.2813 728.1806,126.4781 Q727.5338,126.75 726.7556,126.75 Q725.8463,126.75 725.1244,126.375 Q724.5338,126.075 724.1213,125.4375 Q723.7088,124.7906 723.7088,124.0219 L723.7088,123.3281 Q723.7088,122.5313 724.0744,121.8469 Q724.4494,121.1531 725.1056,120.7875 Q725.7619,120.4125 726.5025,120.4125 Q726.9431,120.4125 727.3275,120.5156 Q727.7213,120.6094 728.0494,120.825 Z " fill="#000000"/><text fill="#000000" font-family="sans-serif" font-size="8.4" lengthAdjust="spacing" textLength="63.6" x="737.61" y="126.7781">BrandRepository</text><line style="stroke:#181818;stroke-width:0.3;" x1="705.3" x2="815.1" y1="132.9" y2="132.9"/><line style="stroke:#181818;stroke-width:0.3;" x1="705.3" x2="815.1" y1="137.7" y2="137.7"/><ellipse cx="711.3" cy="146.5863" fill="#84BE84" rx="1.8" ry="1.8" style="stroke:#038048;stroke-width:0.6;"/><text fill="#000000" font-family="sans-serif" font-size="8.4" lengthAdjust="spacing" textLength="45" x="716.7" y="149.1645">getBrands()</text><ellipse cx="711.3" cy="157.759" fill="#84BE84" rx="1.8" ry="1.8" style="stroke:#038048;stroke-width:0.6;"/><text fill="#000000" font-family="sans-serif" font-size="8.4" lengthAdjust="spacing" textLength="95.4" x="716.7" y="160.3371">getModelByBrand(brand)</text></g><!--class MaintenanceList--><g id="elem_MaintenanceList"><rect codeLine="38" fill="#F1F1F1" height="39.9727" id="MaintenanceList" rx="1.5" ry="1.5" style="stroke:#181818;stroke-width:0.3;" width="81" x="836.7" y="119.1"/><ellipse cx="845.7" cy="128.7" fill="#ADD1B2" rx="6.6" ry="6.6" style="stroke:#181818;stroke-width:0.6;"/><path d="M847.3594,126.225 Q847.4531,126.0938 847.5656,126.0281 Q847.6781,125.9625 847.8094,125.9625 Q848.0344,125.9625 848.175,126.1219 Q848.3156,126.2719 848.3156,126.6375 L848.3156,127.5094 Q848.3156,127.875 848.175,128.0344 Q848.0344,128.1938 847.8094,128.1938 Q847.6031,128.1938 847.4812,128.0719 Q847.3594,127.9594 847.2937,127.65 Q847.2656,127.4344 847.1531,127.3219 Q846.9563,127.0969 846.5906,126.9656 Q846.225,126.8344 845.85,126.8344 Q845.3906,126.8344 845.0063,127.0313 Q844.6313,127.2281 844.3313,127.6781 Q844.0406,128.1281 844.0406,128.7469 L844.0406,129.4031 Q844.0406,130.1437 844.575,130.6406 Q845.1094,131.1281 846.0656,131.1281 Q846.6281,131.1281 847.0219,130.9781 Q847.2563,130.8844 847.5094,130.6219 Q847.6687,130.4625 847.7531,130.4156 Q847.8469,130.3688 847.9688,130.3688 Q848.1656,130.3688 848.3156,130.5281 Q848.475,130.6781 848.475,130.8844 Q848.475,131.0906 848.2688,131.3344 Q847.9688,131.6813 847.4906,131.8781 Q846.8438,132.15 846.0656,132.15 Q845.1563,132.15 844.4344,131.775 Q843.8438,131.475 843.4313,130.8375 Q843.0188,130.1906 843.0188,129.4219 L843.0188,128.7281 Q843.0188,127.9312 843.3844,127.2469 Q843.7594,126.5531 844.4156,126.1875 Q845.0719,125.8125 845.8125,125.8125 Q846.2531,125.8125 846.6375,125.9156 Q847.0313,126.0094 847.3594,126.225 Z " fill="#000000"/><text fill="#000000" font-family="sans-serif" font-size="8.4" lengthAdjust="spacing" textLength="61.8" x="854.1" y="132.1781">MaintenanceList</text><line style="stroke:#181818;stroke-width:0.3;" x1="837.3" x2="917.1" y1="138.3" y2="138.3"/><rect fill="none" height="3.6" style="stroke:#C82930;stroke-width:0.6;" width="3.6" x="841.5" y="145.3863"/><text fill="#000000" font-family="sans-serif" font-size="8.4" lengthAdjust="spacing" textLength="48.6" x="848.7" y="149.7645">reportDetails</text><line style="stroke:#181818;stroke-width:0.3;" x1="837.3" x2="917.1" y1="154.2727" y2="154.2727"/></g><!--class Repositories--><g id="elem_Repositories"><rect codeLine="42" fill="#F1F1F1" height="73.4906" id="Repositories" rx="1.5" ry="1.5" style="stroke:#181818;stroke-width:0.3;" width="120" x="4.2" y="102.6"/><ellipse cx="37.95" cy="112.2" fill="#ADD1B2" rx="6.6" ry="6.6" style="stroke:#181818;stroke-width:0.6;"/><path d="M39.6094,109.725 Q39.7031,109.5938 39.8156,109.5281 Q39.9281,109.4625 40.0594,109.4625 Q40.2844,109.4625 40.425,109.6219 Q40.5656,109.7719 40.5656,110.1375 L40.5656,111.0094 Q40.5656,111.375 40.425,111.5344 Q40.2844,111.6938 40.0594,111.6938 Q39.8531,111.6938 39.7312,111.5719 Q39.6094,111.4594 39.5437,111.15 Q39.5156,110.9344 39.4031,110.8219 Q39.2063,110.5969 38.8406,110.4656 Q38.475,110.3344 38.1,110.3344 Q37.6406,110.3344 37.2563,110.5313 Q36.8813,110.7281 36.5813,111.1781 Q36.2906,111.6281 36.2906,112.2469 L36.2906,112.9031 Q36.2906,113.6438 36.825,114.1406 Q37.3594,114.6281 38.3156,114.6281 Q38.8781,114.6281 39.2719,114.4781 Q39.5063,114.3844 39.7594,114.1219 Q39.9187,113.9625 40.0031,113.9156 Q40.0969,113.8687 40.2188,113.8687 Q40.4156,113.8687 40.5656,114.0281 Q40.725,114.1781 40.725,114.3844 Q40.725,114.5906 40.5188,114.8344 Q40.2188,115.1812 39.7406,115.3781 Q39.0938,115.65 38.3156,115.65 Q37.4063,115.65 36.6844,115.275 Q36.0938,114.975 35.6813,114.3375 Q35.2688,113.6906 35.2688,112.9219 L35.2688,112.2281 Q35.2688,111.4312 35.6344,110.7469 Q36.0094,110.0531 36.6656,109.6875 Q37.3219,109.3125 38.0625,109.3125 Q38.5031,109.3125 38.8875,109.4156 Q39.2813,109.5094 39.6094,109.725 Z " fill="#000000"/><text fill="#000000" font-family="sans-serif" font-size="8.4" lengthAdjust="spacing" textLength="47.4" x="50.25" y="115.6781">Repositories</text><line style="stroke:#181818;stroke-width:0.3;" x1="4.8" x2="123.6" y1="121.8" y2="121.8"/><line style="stroke:#181818;stroke-width:0.3;" x1="4.8" x2="123.6" y1="126.6" y2="126.6"/><rect fill="#F24D5C" height="3.6" style="stroke:#C82930;stroke-width:0.6;" width="3.6" x="9" y="133.6863"/><text fill="#000000" font-family="sans-serif" font-size="8.4" lengthAdjust="spacing" textLength="53.4" x="16.2" y="138.0645">Repositories()</text><ellipse cx="10.8" cy="146.659" fill="#84BE84" rx="1.8" ry="1.8" style="stroke:#038048;stroke-width:0.6;"/><text fill="#000000" font-family="sans-serif" font-size="8.4" lengthAdjust="spacing" textLength="104.4" x="16.2" y="149.2371">getInstance() : Repositories</text><ellipse cx="10.8" cy="157.8316" fill="#84BE84" rx="1.8" ry="1.8" style="stroke:#038048;stroke-width:0.6;"/><text fill="#000000" font-family="sans-serif" font-size="8.4" lengthAdjust="spacing" textLength="81.6" x="16.2" y="160.4098">getBrandRepository()</text><ellipse cx="10.8" cy="169.0043" fill="#84BE84" rx="1.8" ry="1.8" style="stroke:#038048;stroke-width:0.6;"/><text fill="#000000" font-family="sans-serif" font-size="8.4" lengthAdjust="spacing" textLength="86.4" x="16.2" y="171.5824">getVehicleRepository()</text></g><!--class ListMaintenanceController--><g id="elem_ListMaintenanceController"><rect codeLine="49" fill="#F1F1F1" height="51.1453" id="ListMaintenanceController" rx="1.5" ry="1.5" style="stroke:#181818;stroke-width:0.3;" width="161.4" x="510.3" y="4.2"/><ellipse cx="538.95" cy="13.8" fill="#ADD1B2" rx="6.6" ry="6.6" style="stroke:#181818;stroke-width:0.6;"/><path d="M540.6094,11.325 Q540.7031,11.1938 540.8156,11.1281 Q540.9281,11.0625 541.0594,11.0625 Q541.2844,11.0625 541.425,11.2219 Q541.5656,11.3719 541.5656,11.7375 L541.5656,12.6094 Q541.5656,12.975 541.425,13.1344 Q541.2844,13.2938 541.0594,13.2938 Q540.8531,13.2938 540.7312,13.1719 Q540.6094,13.0594 540.5437,12.75 Q540.5156,12.5344 540.4031,12.4219 Q540.2063,12.1969 539.8406,12.0656 Q539.475,11.9344 539.1,11.9344 Q538.6406,11.9344 538.2563,12.1313 Q537.8813,12.3281 537.5813,12.7781 Q537.2906,13.2281 537.2906,13.8469 L537.2906,14.5031 Q537.2906,15.2437 537.825,15.7406 Q538.3594,16.2281 539.3156,16.2281 Q539.8781,16.2281 540.2719,16.0781 Q540.5063,15.9844 540.7594,15.7219 Q540.9187,15.5625 541.0031,15.5156 Q541.0969,15.4688 541.2188,15.4688 Q541.4156,15.4688 541.5656,15.6281 Q541.725,15.7781 541.725,15.9844 Q541.725,16.1906 541.5188,16.4344 Q541.2188,16.7813 540.7406,16.9781 Q540.0938,17.25 539.3156,17.25 Q538.4063,17.25 537.6844,16.875 Q537.0938,16.575 536.6813,15.9375 Q536.2688,15.2906 536.2688,14.5219 L536.2688,13.8281 Q536.2688,13.0313 536.6344,12.3469 Q537.0094,11.6531 537.6656,11.2875 Q538.3219,10.9125 539.0625,10.9125 Q539.5031,10.9125 539.8875,11.0156 Q540.2813,11.1094 540.6094,11.325 Z " fill="#000000"/><text fill="#000000" font-family="sans-serif" font-size="8.4" lengthAdjust="spacing" textLength="99" x="551.25" y="17.2781">ListMaintenanceController</text><line style="stroke:#181818;stroke-width:0.3;" x1="510.9" x2="671.1" y1="23.4" y2="23.4"/><line style="stroke:#181818;stroke-width:0.3;" x1="510.9" x2="671.1" y1="28.2" y2="28.2"/><ellipse cx="516.9" cy="37.0863" fill="#84BE84" rx="1.8" ry="1.8" style="stroke:#038048;stroke-width:0.6;"/><text fill="#000000" font-family="sans-serif" font-size="8.4" lengthAdjust="spacing" textLength="63" x="522.3" y="39.6645">getVehiclesList()</text><ellipse cx="516.9" cy="48.259" fill="#84BE84" rx="1.8" ry="1.8" style="stroke:#038048;stroke-width:0.6;"/><text fill="#000000" font-family="sans-serif" font-size="8.4" lengthAdjust="spacing" textLength="145.8" x="522.3" y="50.8371">generateMaintenanceList(vehiclesList)</text></g><!--class ListMaintenanceUI--><g id="elem_ListMaintenanceUI"><rect codeLine="54" fill="#F1F1F1" height="28.8" id="ListMaintenanceUI" rx="1.5" ry="1.5" style="stroke:#181818;stroke-width:0.3;" width="88.2" x="401.1" y="15.3"/><ellipse cx="410.1" cy="24.9" fill="#ADD1B2" rx="6.6" ry="6.6" style="stroke:#181818;stroke-width:0.6;"/><path d="M411.7594,22.425 Q411.8531,22.2938 411.9656,22.2281 Q412.0781,22.1625 412.2094,22.1625 Q412.4344,22.1625 412.575,22.3219 Q412.7156,22.4719 412.7156,22.8375 L412.7156,23.7094 Q412.7156,24.075 412.575,24.2344 Q412.4344,24.3938 412.2094,24.3938 Q412.0031,24.3938 411.8812,24.2719 Q411.7594,24.1594 411.6937,23.85 Q411.6656,23.6344 411.5531,23.5219 Q411.3563,23.2969 410.9906,23.1656 Q410.625,23.0344 410.25,23.0344 Q409.7906,23.0344 409.4063,23.2313 Q409.0313,23.4281 408.7313,23.8781 Q408.4406,24.3281 408.4406,24.9469 L408.4406,25.6031 Q408.4406,26.3438 408.975,26.8406 Q409.5094,27.3281 410.4656,27.3281 Q411.0281,27.3281 411.4219,27.1781 Q411.6563,27.0844 411.9094,26.8219 Q412.0687,26.6625 412.1531,26.6156 Q412.2469,26.5687 412.3688,26.5687 Q412.5656,26.5687 412.7156,26.7281 Q412.875,26.8781 412.875,27.0844 Q412.875,27.2906 412.6688,27.5344 Q412.3688,27.8812 411.8906,28.0781 Q411.2438,28.35 410.4656,28.35 Q409.5563,28.35 408.8344,27.975 Q408.2438,27.675 407.8313,27.0375 Q407.4188,26.3906 407.4188,25.6219 L407.4188,24.9281 Q407.4188,24.1312 407.7844,23.4469 Q408.1594,22.7531 408.8156,22.3875 Q409.4719,22.0125 410.2125,22.0125 Q410.6531,22.0125 411.0375,22.1156 Q411.4313,22.2094 411.7594,22.425 Z " fill="#000000"/><text fill="#000000" font-family="sans-serif" font-size="8.4" lengthAdjust="spacing" textLength="69" x="418.5" y="28.3781">ListMaintenanceUI</text><line style="stroke:#181818;stroke-width:0.3;" x1="401.7" x2="488.7" y1="34.5" y2="34.5"/><line style="stroke:#181818;stroke-width:0.3;" x1="401.7" x2="488.7" y1="39.3" y2="39.3"/></g><!--link VFM to ListMaintenanceUI--><g id="link_VFM_ListMaintenanceUI"><path codeLine="57" d="M380.208,29.7 C387.144,29.7 390.486,29.7 397.422,29.7 " fill="none" id="VFM-to-ListMaintenanceUI" style="stroke:#181818;stroke-width:0.6;"/><polygon fill="#181818" points="401.022,29.7,395.622,27.3,398.022,29.7,395.622,32.1,401.022,29.7" style="stroke:#181818;stroke-width:0.6;"/></g><!--link Repositories to Repositories--><g id="link_Repositories_Repositories"><path codeLine="59" d="M124.254,129.462 C136.458,130.524 145.2,133.77 145.2,139.2 C145.2,144.63 140.0444,147.5639 127.8404,148.6259 " fill="none" id="Repositories-to-Repositories" style="stroke:#181818;stroke-width:0.6;"/><polygon fill="#181818" points="124.254,148.938,129.8417,150.8608,127.2427,148.6779,129.4256,146.0789,124.254,148.938" style="stroke:#181818;stroke-width:0.6;"/><text fill="#000000" font-family="sans-serif" font-size="7.8" lengthAdjust="spacing" textLength="29.4" x="148.8" y="142.517">instance</text></g><!--link ListMaintenanceUI to ListMaintenanceController--><g id="link_ListMaintenanceUI_ListMaintenanceController"><path codeLine="61" d="M489.336,29.7 C496.29,29.7 499.638,29.7 506.586,29.7 " fill="none" id="ListMaintenanceUI-to-ListMaintenanceController" style="stroke:#181818;stroke-width:0.6;stroke-dasharray:7.0,7.0;"/><polygon fill="#181818" points="510.186,29.7,504.786,27.3,507.186,29.7,504.786,32.1,510.186,29.7" style="stroke:#181818;stroke-width:0.6;"/></g><!--link ListMaintenanceController to Repositories--><g id="link_ListMaintenanceController_Repositories"><path codeLine="63" d="M510.066,52.932 C506.604,53.73 503.172,54.492 499.8,55.2 C359.964,84.606 321.174,71.064 181.8,102.6 C162.9,106.878 146.059,111.5796 127.759,117.2436 " fill="none" id="ListMaintenanceController-to-Repositories" style="stroke:#181818;stroke-width:0.6;stroke-dasharray:7.0,7.0;"/><polygon fill="#181818" points="124.32,118.308,130.1882,119.0041,127.1859,117.421,128.769,114.4187,124.32,118.308" style="stroke:#181818;stroke-width:0.6;"/><text fill="#000000" font-family="sans-serif" font-size="7.8" lengthAdjust="spacing" textLength="40.2" x="385.2" y="82.217">repositories</text></g><!--link Repositories to VehicleRepository--><g id="link_Repositories_VehicleRepository"><path codeLine="65" d="M124.248,139.2 C147.024,139.2 166.2,139.2 188.976,139.2 " fill="none" id="Repositories-to-VehicleRepository" style="stroke:#181818;stroke-width:0.6;"/><polygon fill="#181818" points="192.576,139.2,187.176,136.8,189.576,139.2,187.176,141.6,192.576,139.2" style="stroke:#181818;stroke-width:0.6;"/><text fill="#000000" font-family="sans-serif" font-size="7.8" lengthAdjust="spacing" textLength="4.2" x="183.3482" y="137.316">1</text></g><!--link ListMaintenanceController to VehicleRepository--><g id="link_ListMaintenanceController_VehicleRepository"><path codeLine="67" d="M555.708,55.284 C533.556,70.962 507.7722,89.2098 484.2462,105.8658 " fill="none" id="ListMaintenanceController-to-VehicleRepository" style="stroke:#181818;stroke-width:0.6;stroke-dasharray:7.0,7.0;"/><polygon fill="#181818" points="481.308,107.946,487.102,106.7845,483.7565,106.2125,484.3285,102.867,481.308,107.946" style="stroke:#181818;stroke-width:0.6;"/><text fill="#000000" font-family="sans-serif" font-size="7.8" lengthAdjust="spacing" textLength="60.6" x="529.2" y="82.217">vehicleRepository</text></g><!--link VehicleRepository to Vehicle--><g id="link_VehicleRepository_Vehicle"><path codeLine="69" d="M497.484,170.418 C521.664,182.862 547.3651,196.0886 575.7751,210.7106 " fill="none" id="VehicleRepository-to-Vehicle" style="stroke:#181818;stroke-width:0.6;"/><polygon fill="#181818" points="578.976,212.358,575.2729,207.7529,576.3086,210.9851,573.0763,212.0208,578.976,212.358" style="stroke:#181818;stroke-width:0.6;"/><text fill="#000000" font-family="sans-serif" font-size="7.8" lengthAdjust="spacing" textLength="3" x="567.0938" y="205.672">*</text></g><!--link Vehicle to Brand--><g id="link_Vehicle_Brand"><path codeLine="71" d="M761.7,342.054 C776.838,358.854 789.8593,373.3103 801.9013,386.6663 " fill="none" id="Vehicle-to-Brand" style="stroke:#181818;stroke-width:0.6;"/><polygon fill="#181818" points="804.312,389.34,802.4785,383.7223,802.3031,387.1119,798.9135,386.9365,804.312,389.34" style="stroke:#181818;stroke-width:0.6;"/><text fill="#000000" font-family="sans-serif" font-size="7.8" lengthAdjust="spacing" textLength="19.2" x="787.2" y="369.017">brand</text><text fill="#000000" font-family="sans-serif" font-size="7.8" lengthAdjust="spacing" textLength="4.2" x="796.1933" y="382.6729">1</text></g><!--link Repositories to BrandRepository--><g id="link_Repositories_BrandRepository"><path codeLine="73" d="M124.296,104.25 C145.128,93.966 169.092,84.09 192.3,78.9 C298.74,55.098 579.984,43.368 683.1,78.9 C703.26,85.848 719.5512,98.0207 733.6092,111.1307 " fill="none" id="Repositories-to-BrandRepository" style="stroke:#181818;stroke-width:0.6;"/><polygon fill="#181818" points="736.242,113.586,733.9296,108.1479,734.048,111.5399,730.6559,111.6583,736.242,113.586" style="stroke:#181818;stroke-width:0.6;"/><text fill="#000000" font-family="sans-serif" font-size="7.8" lengthAdjust="spacing" textLength="4.2" x="727.889" y="106.9103">1</text></g><!--link ListMaintenanceController to Brand--><g id="link_ListMaintenanceController_Brand"><path codeLine="75" d="M671.898,36.222 C761.172,44.634 896.478,63.576 928.2,102.6 C934.014,109.758 934.35,331.266 928.8,342 C914.55,369.576 887.6205,387.3175 863.7765,399.0055 " fill="none" id="ListMaintenanceController-to-Brand" style="stroke:#181818;stroke-width:0.6;stroke-dasharray:7.0,7.0;"/><polygon fill="#181818" points="860.544,400.59,866.4492,400.3682,863.2378,399.2695,864.3364,396.0582,860.544,400.59" style="stroke:#181818;stroke-width:0.6;"/></g><!--link ListMaintenanceController to BrandRepository--><g id="link_ListMaintenanceController_BrandRepository"><path codeLine="76" d="M630.03,55.284 C657.36,72.774 690.6938,94.1135 718.0418,111.6155 " fill="none" id="ListMaintenanceController-to-BrandRepository" style="stroke:#181818;stroke-width:0.6;stroke-dasharray:7.0,7.0;"/><polygon fill="#181818" points="721.074,113.556,717.8194,108.6237,718.5472,111.9389,715.232,112.6667,721.074,113.556" style="stroke:#181818;stroke-width:0.6;"/><text fill="#000000" font-family="sans-serif" font-size="7.8" lengthAdjust="spacing" textLength="56.4" x="676.2" y="82.217">brandRepository</text></g><!--link MaintenanceList to Vehicle--><g id="link_MaintenanceList_Vehicle"><path codeLine="78" d="M852.354,159.402 C834.612,173.4 812.4782,190.862 788.0762,210.116 " fill="none" id="MaintenanceList-to-Vehicle" style="stroke:#181818;stroke-width:0.6;"/><polygon fill="#181818" points="785.25,212.346,790.9759,210.8852,787.6052,210.4877,788.0026,207.1169,785.25,212.346" style="stroke:#181818;stroke-width:0.6;"/></g><!--SRC=[bLDDJy8m6BxtLpISXWuJhnmu824X2Z4QyLosrz7OjRCjc8NutsttqNKhed9Q-puyNzkhtYalY2GvBaZoJZ9urYK3B27HX6SCa780jIUf-AGyms-4AN_2A0Uiom9m8LXfJmWbZ2Y5jyirFg4lTuGzJGpz2M7pc-0ZvUrJFNbaH4DpfOc4Lw3PNZSNcHHAzMwIWvJ0zNtUd4doSQ2AQYhueYFA2UKQEE49B2Ly780dPQjXJAFg-Rer5nbJSSzFx5c9VHUnqu-7ql5PrRWI77U5p2NXgQiZ5ocmraurYgghST3W4nJ2Y0bPDd- -Dgyieqg3xCNOMPAu9huGoi-4_njgt1Wu4aPJWzgkDbQylSv0DvRK1Y0rty-w8uc6NPm9PWYgaOeyohLDD2_haggK7fCdy60wSVrAGoxr0ZIXJ7Lmfqb1EQn_wGklkDArSppjWGPkko1Hs4Hlw7nOhvxrEy6r58o1zAjekxHWZvc3DDKFWaT73_opqCkgtb6xh9DPE4Merv21zCvJJ9jE40gPRsO_vmhmNkIRG4NwPGUMHhUZS3ak2XY5S9kcxPBu925iOXMldAA3r0DZfLxiQRs0vzqEFfFVl5Rmls1wQNP3aU5kMCDjYcy0]--></g></svg>