<?xml version="1.0" encoding="us-ascii" standalone="no"?><svg xmlns="http://www.w3.org/2000/svg" xmlns:xlink="http://www.w3.org/1999/xlink" contentStyleType="text/css" height="534px" preserveAspectRatio="none" style="width:491px;height:534px;background:#FFFFFF;" version="1.1" viewBox="0 0 491 534" width="491px" zoomAndPan="magnify"><defs/><g><rect fill="#FFFFFF" height="316.3618" style="stroke:#000000;stroke-width:1.0;" width="10" x="86.5" y="110.0293"/><rect fill="#FFFFFF" height="29.7993" style="stroke:#000000;stroke-width:1.0;" width="10" x="422.5" y="131.8286"/><rect fill="#FFFFFF" height="29.7993" style="stroke:#000000;stroke-width:1.0;" width="10" x="422.5" y="191.4272"/><rect fill="#FFFFFF" height="54.5986" style="stroke:#000000;stroke-width:1.0;" width="10" x="422.5" y="251.0259"/><rect fill="#FFFFFF" height="29.7993" style="stroke:#000000;stroke-width:1.0;" width="10" x="422.5" y="335.4238"/><rect fill="#FFFFFF" height="152.3652" style="stroke:#000000;stroke-width:1.0;" width="469" x="15" y="266.0259"/><rect fill="#FFFFFF" height="45.168" style="stroke:none;stroke-width:1.0;" width="469" x="15" y="373.2231"/><line style="stroke:#000000;stroke-width:1.0;" x1="91" x2="91" y1="100.0293" y2="435.3911"/><line style="stroke:#000000;stroke-width:1.0;" x1="427" x2="427" y1="100.0293" y2="435.3911"/><text fill="#000000" font-family="Verdana" font-size="14" lengthAdjust="spacing" textLength="127" x="25" y="80.0752">Human Resources</text><text fill="#000000" font-family="Verdana" font-size="14" lengthAdjust="spacing" textLength="59" x="59" y="97.0898">Manager</text><ellipse cx="91.5" cy="14" fill="#FFFFFF" rx="8" ry="8" style="stroke:#000000;stroke-width:1.0;"/><path d="M91.5,22 L91.5,49 M78.5,30 L104.5,30 M91.5,49 L78.5,64 M91.5,49 L104.5,64 " fill="none" style="stroke:#000000;stroke-width:1.0;"/><text fill="#000000" font-family="Verdana" font-size="14" lengthAdjust="spacing" textLength="127" x="25" y="448.4663">Human Resources</text><text fill="#000000" font-family="Verdana" font-size="14" lengthAdjust="spacing" textLength="59" x="59" y="465.481">Manager</text><ellipse cx="91.5" cy="477.4204" fill="#FFFFFF" rx="8" ry="8" style="stroke:#000000;stroke-width:1.0;"/><path d="M91.5,485.4204 L91.5,512.4204 M78.5,493.4204 L104.5,493.4204 M91.5,512.4204 L78.5,527.4204 M91.5,512.4204 L104.5,527.4204 " fill="none" style="stroke:#000000;stroke-width:1.0;"/><rect fill="#FFFFFF" height="31.0146" rx="2.5" ry="2.5" style="stroke:#000000;stroke-width:1.0;" width="73" x="391" y="68.0146"/><text fill="#000000" font-family="Verdana" font-size="14" lengthAdjust="spacing" textLength="59" x="398" y="89.0898">:System</text><rect fill="#FFFFFF" height="31.0146" rx="2.5" ry="2.5" style="stroke:#000000;stroke-width:1.0;" width="73" x="391" y="434.3911"/><text fill="#000000" font-family="Verdana" font-size="14" lengthAdjust="spacing" textLength="59" x="398" y="455.4663">:System</text><rect fill="#FFFFFF" height="316.3618" style="stroke:#000000;stroke-width:1.0;" width="10" x="86.5" y="110.0293"/><rect fill="#FFFFFF" height="29.7993" style="stroke:#000000;stroke-width:1.0;" width="10" x="422.5" y="131.8286"/><rect fill="#FFFFFF" height="29.7993" style="stroke:#000000;stroke-width:1.0;" width="10" x="422.5" y="191.4272"/><rect fill="#FFFFFF" height="54.5986" style="stroke:#000000;stroke-width:1.0;" width="10" x="422.5" y="251.0259"/><rect fill="#FFFFFF" height="29.7993" style="stroke:#000000;stroke-width:1.0;" width="10" x="422.5" y="335.4238"/><polygon fill="#000000" points="410.5,127.8286,420.5,131.8286,410.5,135.8286,414.5,131.8286" style="stroke:#000000;stroke-width:1.0;"/><line style="stroke:#000000;stroke-width:1.0;" x1="96.5" x2="416.5" y1="131.8286" y2="131.8286"/><text fill="#000000" font-family="Verdana" font-size="13" lengthAdjust="spacing" textLength="255" x="103.5" y="127.0991">asks to generate a new team proposal</text><polygon fill="#000000" points="107.5,157.6279,97.5,161.6279,107.5,165.6279,103.5,161.6279" style="stroke:#000000;stroke-width:1.0;"/><line style="stroke:#000000;stroke-width:1.0;stroke-dasharray:2.0,2.0;" x1="101.5" x2="426.5" y1="161.6279" y2="161.6279"/><text fill="#000000" font-family="Verdana" font-size="13" lengthAdjust="spacing" textLength="278" x="113.5" y="156.8984">requests maximum and minimum team size</text><polygon fill="#000000" points="410.5,187.4272,420.5,191.4272,410.5,195.4272,414.5,191.4272" style="stroke:#000000;stroke-width:1.0;"/><line style="stroke:#000000;stroke-width:1.0;" x1="96.5" x2="416.5" y1="191.4272" y2="191.4272"/><text fill="#000000" font-family="Verdana" font-size="13" lengthAdjust="spacing" textLength="143" x="103.5" y="186.6978">types requested data</text><polygon fill="#000000" points="107.5,217.2266,97.5,221.2266,107.5,225.2266,103.5,221.2266" style="stroke:#000000;stroke-width:1.0;"/><line style="stroke:#000000;stroke-width:1.0;stroke-dasharray:2.0,2.0;" x1="101.5" x2="426.5" y1="221.2266" y2="221.2266"/><text fill="#000000" font-family="Verdana" font-size="13" lengthAdjust="spacing" textLength="218" x="113.5" y="216.4971">Displays team skills for selection.</text><polygon fill="#000000" points="410.5,247.0259,420.5,251.0259,410.5,255.0259,414.5,251.0259" style="stroke:#000000;stroke-width:1.0;"/><line style="stroke:#000000;stroke-width:1.0;" x1="96.5" x2="416.5" y1="251.0259" y2="251.0259"/><text fill="#000000" font-family="Verdana" font-size="13" lengthAdjust="spacing" textLength="307" x="103.5" y="246.2964">selects the skills that the team needs to have</text><path d="M15,266.0259 L79,266.0259 L79,273.8252 L69,283.8252 L15,283.8252 L15,266.0259 " fill="#FFFFFF" style="stroke:#000000;stroke-width:1.0;"/><rect fill="none" height="152.3652" style="stroke:#000000;stroke-width:1.0;" width="469" x="15" y="266.0259"/><text fill="#000000" font-family="Verdana" font-size="13" font-weight="bold" lengthAdjust="spacing" textLength="19" x="30" y="280.0957">alt</text><text fill="#000000" font-family="Verdana" font-size="11" font-weight="bold" lengthAdjust="spacing" textLength="163" x="94" y="279.085">[team can be generated]</text><polygon fill="#000000" points="107.5,301.6245,97.5,305.6245,107.5,309.6245,103.5,305.6245" style="stroke:#000000;stroke-width:1.0;"/><line style="stroke:#000000;stroke-width:1.0;stroke-dasharray:2.0,2.0;" x1="101.5" x2="426.5" y1="305.6245" y2="305.6245"/><text fill="#000000" font-family="Verdana" font-size="13" lengthAdjust="spacing" textLength="166" x="113.5" y="300.895">shows the team proposal</text><polygon fill="#000000" points="410.5,331.4238,420.5,335.4238,410.5,339.4238,414.5,335.4238" style="stroke:#000000;stroke-width:1.0;"/><line style="stroke:#000000;stroke-width:1.0;" x1="96.5" x2="416.5" y1="335.4238" y2="335.4238"/><text fill="#000000" font-family="Verdana" font-size="13" lengthAdjust="spacing" textLength="249" x="103.5" y="330.6943">accepts or refuses the team proposal</text><polygon fill="#000000" points="107.5,361.2231,97.5,365.2231,107.5,369.2231,103.5,365.2231" style="stroke:#000000;stroke-width:1.0;"/><line style="stroke:#000000;stroke-width:1.0;stroke-dasharray:2.0,2.0;" x1="101.5" x2="426.5" y1="365.2231" y2="365.2231"/><text fill="#000000" font-family="Verdana" font-size="13" lengthAdjust="spacing" textLength="177" x="113.5" y="360.4937">displays operation success</text><line style="stroke:#000000;stroke-width:1.0;stroke-dasharray:2.0,2.0;" x1="15" x2="484" y1="374.2231" y2="374.2231"/><text fill="#000000" font-family="Verdana" font-size="11" font-weight="bold" lengthAdjust="spacing" textLength="184" x="20" y="385.2822">[team cannot be generated]</text><polygon fill="#000000" points="107.5,406.3911,97.5,410.3911,107.5,414.3911,103.5,410.3911" style="stroke:#000000;stroke-width:1.0;"/><line style="stroke:#000000;stroke-width:1.0;stroke-dasharray:2.0,2.0;" x1="101.5" x2="426.5" y1="410.3911" y2="410.3911"/><text fill="#000000" font-family="Verdana" font-size="13" lengthAdjust="spacing" textLength="275" x="113.5" y="405.6616">informs that a team cannot be generated</text><!--SRC=[dLAxKiCm4Epz5KVwy04fg626XWPQciFQn9heXKvEC5-FebZEC1CdXAkaqUtZRdMNEbXGCAnTqt2RVAJ5Ss_PqIl4zx65lBiNThn1N10BFTbW_00qWMFIhGxi4YrMRuCasD9nF1OslUE44wIXNFL6ouUnbLOPjXLAdZPmY0SCayEU4jXIY3vuOLFG4sbLeR56gcLcdHHM5F7PGvAGvIzjUqli55djohcmY_v68L4uottMRXe2f993aUB4_x7tg2MlVf3HobOR8xJE6GWCCfLtzpTxEq8pPOVAc3fEvLva7A3AiZlUZPdCscQJZg0s_uWFJFcegMD-EEdyNawolsAiDJDOhVD_fMqHye1vJH7hNd1DvAB4l7zLm_7XC7CEWwJFsY9NHgWlC89fUywdMnUeNVuATeoF_yPqmOrJpGy0]--></g></svg>