<?xml version="1.0" encoding="UTF-8" standalone="no"?><svg xmlns="http://www.w3.org/2000/svg" xmlns:xlink="http://www.w3.org/1999/xlink" contentStyleType="text/css" height="918px" preserveAspectRatio="none" style="width:621px;height:918px;background:#FFFFFF;" version="1.1" viewBox="0 0 621 918" width="621px" zoomAndPan="magnify"><defs/><g><!--cluster usecases--><g id="cluster_usecases"><rect fill="none" height="696" rx="2.5" ry="2.5" style="stroke:#181818;stroke-width:1.0;" width="345" x="270" y="7"/><text fill="#000000" font-family="sans-serif" font-size="14" font-weight="bold" lengthAdjust="spacing" textLength="74" x="405.5" y="23.5332">Use Cases</text></g><g id="elem_UC1"><ellipse cx="442.2698" cy="62.954" fill="#F1F1F1" rx="85.2698" ry="19.454" style="stroke:#181818;stroke-width:0.5;"/><text fill="#000000" font-family="sans-serif" font-size="14" lengthAdjust="spacing" textLength="127" x="378.7698" y="66.6825">UC1 - Register skills</text></g><g id="elem_UC2"><ellipse cx="442.6926" cy="137.0385" fill="#F1F1F1" rx="85.6926" ry="19.5385" style="stroke:#181818;stroke-width:0.5;"/><text fill="#000000" font-family="sans-serif" font-size="14" lengthAdjust="spacing" textLength="128" x="378.6926" y="140.767">UC2 - Register a job</text></g><g id="elem_UC3"><ellipse cx="442.434" cy="215.9868" fill="#F1F1F1" rx="110.434" ry="24.4868" style="stroke:#181818;stroke-width:0.5;"/><text fill="#000000" font-family="sans-serif" font-size="14" lengthAdjust="spacing" textLength="184" x="350.434" y="219.7153">UC3 - Register a collaborator</text></g><g id="elem_UC4"><ellipse cx="442.3945" cy="301.1789" fill="#F1F1F1" rx="116.3945" ry="25.6789" style="stroke:#181818;stroke-width:0.5;"/><text fill="#000000" font-family="sans-serif" font-size="14" lengthAdjust="spacing" textLength="197" x="343.8945" y="304.9074">UC4 - Assign one or more skills</text></g><g id="elem_UC5"><ellipse cx="442.5545" cy="388.0109" fill="#F1F1F1" rx="120.5545" ry="26.5109" style="stroke:#181818;stroke-width:0.5;"/><text fill="#000000" font-family="sans-serif" font-size="14" lengthAdjust="spacing" textLength="206" x="339.5545" y="391.7394">UC5 - Generate a team proposal</text></g><g id="elem_UC6"><ellipse cx="442.511" cy="471.2022" fill="#F1F1F1" rx="96.511" ry="21.7022" style="stroke:#181818;stroke-width:0.5;"/><text fill="#000000" font-family="sans-serif" font-size="14" lengthAdjust="spacing" textLength="153" x="366.011" y="474.9307">UC6 - Register a vehicle</text></g><g id="elem_UC7"><ellipse cx="442.4133" cy="555.7827" fill="#F1F1F1" rx="129.4133" ry="28.2827" style="stroke:#181818;stroke-width:0.5;"/><text fill="#000000" font-family="sans-serif" font-size="14" lengthAdjust="spacing" textLength="225" x="329.9133" y="559.5112">UC7 - Register a vehicle’s check-up</text></g><g id="elem_UC8"><ellipse cx="442.4505" cy="653.1901" fill="#F1F1F1" rx="156.4505" ry="33.6901" style="stroke:#181818;stroke-width:0.5;"/><text fill="#000000" font-family="sans-serif" font-size="14" lengthAdjust="spacing" textLength="282" x="301.4505" y="656.9186">UC8 - List the vehicles needing the check-up</text></g><!--entity Collaborator--><g id="elem_Collaborator"><ellipse cx="116" cy="730.5" fill="#F1F1F1" rx="8" ry="8" style="stroke:#181818;stroke-width:0.5;"/><path d="M116,738.5 L116,765.5 M103,746.5 L129,746.5 M116,765.5 L103,780.5 M116,765.5 L129,780.5 " fill="none" style="stroke:#181818;stroke-width:0.5;"/><text fill="#000000" font-family="sans-serif" font-size="14" lengthAdjust="spacing" textLength="78" x="77" y="796.5332">Collaborator</text></g><!--entity HRM--><g id="elem_HRM"><ellipse cx="116" cy="185.5" fill="#F1F1F1" rx="8" ry="8" style="stroke:#181818;stroke-width:0.5;"/><path d="M116,193.5 L116,220.5 M103,201.5 L129,201.5 M116,220.5 L103,235.5 M116,220.5 L129,235.5 " fill="none" style="stroke:#181818;stroke-width:0.5;"/><text fill="#000000" font-family="sans-serif" font-size="14" lengthAdjust="spacing" textLength="220" x="6" y="251.5332">Human Resources Manager (HRM)</text></g><!--entity FM--><g id="elem_FM"><ellipse cx="116" cy="525.5" fill="#F1F1F1" rx="8" ry="8" style="stroke:#181818;stroke-width:0.5;"/><path d="M116,533.5 L116,560.5 M103,541.5 L129,541.5 M116,560.5 L103,575.5 M116,560.5 L129,575.5 " fill="none" style="stroke:#181818;stroke-width:0.5;"/><text fill="#000000" font-family="sans-serif" font-size="14" lengthAdjust="spacing" textLength="126" x="53" y="591.5332">Fleet Manager (FM)</text></g><!--entity GSM--><g id="elem_GSM"><ellipse cx="116" cy="843.5" fill="#F1F1F1" rx="8" ry="8" style="stroke:#181818;stroke-width:0.5;"/><path d="M116,851.5 L116,878.5 M103,859.5 L129,859.5 M116,878.5 L103,893.5 M116,878.5 L129,893.5 " fill="none" style="stroke:#181818;stroke-width:0.5;"/><text fill="#000000" font-family="sans-serif" font-size="14" lengthAdjust="spacing" textLength="196" x="18" y="909.5332">Green Spaces Manager (GSM)</text></g><!--entity GSU--><g id="elem_GSU"><ellipse cx="442.5" cy="730.5" fill="#F1F1F1" rx="8" ry="8" style="stroke:#181818;stroke-width:0.5;"/><path d="M442.5,738.5 L442.5,765.5 M429.5,746.5 L455.5,746.5 M442.5,765.5 L429.5,780.5 M442.5,765.5 L455.5,780.5 " fill="none" style="stroke:#181818;stroke-width:0.5;"/><text fill="#000000" font-family="sans-serif" font-size="14" lengthAdjust="spacing" textLength="167" x="359" y="796.5332">Green Spaces User (GSU)</text></g><!--link HRM to UC1--><g id="link_HRM_UC1"><path d="M155.35,176.84 C182.74,151.14 221.73,118.91 262,100 C292.07,85.88 327.47,77.12 358.86,71.7 " fill="none" id="HRM-to-UC1" style="stroke:#181818;stroke-width:1.0;"/><polygon fill="#181818" points="363.86,70.86,354.3226,68.403,358.9288,71.6866,355.6451,76.2929,363.86,70.86" style="stroke:#181818;stroke-width:1.0;"/></g><!--link HRM to UC2--><g id="link_HRM_UC2"><path d="M226.01,183.43 C238.12,180.11 250.3,176.9 262,174 C297.47,165.22 337.25,156.87 370.32,150.33 " fill="none" id="HRM-to-UC2" style="stroke:#181818;stroke-width:1.0;"/><polygon fill="#181818" points="375.57,149.3,365.964,147.1266,370.6655,150.2723,367.5197,154.9738,375.57,149.3" style="stroke:#181818;stroke-width:1.0;"/></g><!--link HRM to UC3--><g id="link_HRM_UC3"><path d="M226.41,216 C258.63,216 293.98,216 326.54,216 " fill="none" id="HRM-to-UC3" style="stroke:#181818;stroke-width:1.0;"/><polygon fill="#181818" points="331.74,216,322.74,212,326.74,216,322.74,220,331.74,216" style="stroke:#181818;stroke-width:1.0;"/></g><!--link HRM to UC4--><g id="link_HRM_UC4"><path d="M226.11,248.2 C238.2,251.59 250.34,254.92 262,258 C292.6,266.09 326.32,274.34 356.18,281.42 " fill="none" id="HRM-to-UC4" style="stroke:#181818;stroke-width:1.0;"/><polygon fill="#181818" points="361.33,282.64,353.4854,276.685,356.4629,281.4948,351.6531,284.4723,361.33,282.64" style="stroke:#181818;stroke-width:1.0;"/></g><!--link HRM to UC5--><g id="link_HRM_UC5"><path d="M151.37,255.2 C178.63,283.9 219.15,321.59 262,344 C285.46,356.27 312.44,365.2 338.23,371.67 " fill="none" id="HRM-to-UC5" style="stroke:#181818;stroke-width:1.0;"/><polygon fill="#181818" points="343.38,372.93,335.6021,366.8881,338.5259,371.7308,333.6833,374.6546,343.38,372.93" style="stroke:#181818;stroke-width:1.0;"/></g><!--link FM to UC6--><g id="link_FM_UC6"><path d="M179.08,534.91 C204.61,526.6 234.57,517.31 262,510 C295.2,501.15 332.24,492.84 364.02,486.18 " fill="none" id="FM-to-UC6" style="stroke:#181818;stroke-width:1.0;"/><polygon fill="#181818" points="369.07,485.13,359.4402,483.0642,364.1766,486.1572,361.0837,490.8936,369.07,485.13" style="stroke:#181818;stroke-width:1.0;"/></g><!--link FM to UC7--><g id="link_FM_UC7"><path d="M179.18,556 C215.6,556 263.05,556 307.56,556 " fill="none" id="FM-to-UC7" style="stroke:#181818;stroke-width:1.0;"/><polygon fill="#181818" points="312.69,556,303.69,552,307.69,556,303.69,560,312.69,556" style="stroke:#181818;stroke-width:1.0;"/></g><!--link FM to UC8--><g id="link_FM_UC8"><path d="M179.32,576.23 C204.89,584.41 234.81,593.83 262,602 C287.7,609.73 315.57,617.79 341.5,625.17 " fill="none" id="FM-to-UC8" style="stroke:#181818;stroke-width:1.0;"/><polygon fill="#181818" points="346.32,626.54,338.7429,620.2481,341.5076,625.1834,336.5723,627.948,346.32,626.54" style="stroke:#181818;stroke-width:1.0;"/></g><!--SRC=[TP9DJiCm48NtESMecy8Y2_g_GaA5jWkwQTK3JDrfOkhOaUtm8uJ4DRWU9s4IqYQn88l8p_Ez5y_4VNUIEaUB6MH66v5Qan5uMr3KL78K9qnewzyKWINXKIUAedv3k1GFvaNg18we79UyzCpk7C4S-NKlCIcvXrVCShOgEdhm1gnCKWy7MOPAewC8-47XZOMvKGhtnYABrdPlLMIeOKFE55QGWpLgFfk5gzLcVTq3TC2Bjc6XY7o3BMfgqO6MbaZ3bZjjHowtDSoBVsbkia9tPtGNHPSXGUyy0rTL2qUY5EzLNAqOcjz0p4qbqdbEuy4gzMlWIeWEsYZ2azdNv20aXrrIj4PQMuQXPSIME-Taei5e0kusCvQw9ng5fZ6RbgI9auc_uwcyDDRang6gFUFGC-cUxPbIAHJLz2Iaft_ItvzV3aHAuXGNUMsTXjOPMn_P23wbiz619ZgKzxNS319cLGBV8eZZsyiFQFGWqCD0ZmBzs_hYB2TTEUtAMVJn0m00]--></g></svg>