<?xml version="1.0" encoding="us-ascii" standalone="no"?><svg xmlns="http://www.w3.org/2000/svg" xmlns:xlink="http://www.w3.org/1999/xlink" contentStyleType="text/css" height="717px" preserveAspectRatio="none" style="width:639px;height:717px;background:#FFFFFF;" version="1.1" viewBox="0 0 639 717" width="639px" zoomAndPan="magnify"><defs/><g><!--cluster actors--><g id="cluster_actors"><rect fill="none" height="247" rx="2.5" ry="2.5" style="stroke:#181818;stroke-width:1.0;" width="252" x="7" y="257"/><text fill="#000000" font-family="sans-serif" font-size="14" font-weight="bold" lengthAdjust="spacing" textLength="99" x="83.5" y="274.1074">System Actors</text></g><!--cluster usecases--><g id="cluster_usecases"><rect fill="none" height="704" rx="2.5" ry="2.5" style="stroke:#181818;stroke-width:1.0;" width="346" x="287" y="7"/><text fill="#000000" font-family="sans-serif" font-size="14" font-weight="bold" lengthAdjust="spacing" textLength="74" x="423" y="24.1074">Use Cases</text></g><!--entity HRM--><g id="elem_HRM"><ellipse cx="133" cy="303" fill="#F1F1F1" rx="8" ry="8" style="stroke:#181818;stroke-width:0.5;"/><path d="M133,311 L133,338 M120,319 L146,319 M133,338 L120,353 M133,338 L146,353 " fill="none" style="stroke:#181818;stroke-width:0.5;"/><text fill="#000000" font-family="sans-serif" font-size="14" lengthAdjust="spacing" textLength="220" x="23" y="369.6074">Human Resources Manager (HRM)</text></g><!--entity FM--><g id="elem_FM"><ellipse cx="133" cy="417" fill="#F1F1F1" rx="8" ry="8" style="stroke:#181818;stroke-width:0.5;"/><path d="M133,425 L133,452 M120,433 L146,433 M133,452 L120,467 M133,452 L146,467 " fill="none" style="stroke:#181818;stroke-width:0.5;"/><text fill="#000000" font-family="sans-serif" font-size="14" lengthAdjust="spacing" textLength="126" x="70" y="483.6074">Fleet Manager (FM)</text></g><g id="elem_UC1"><ellipse cx="460.1633" cy="63.8327" fill="#F1F1F1" rx="87.1633" ry="19.8327" style="stroke:#181818;stroke-width:0.5;"/><text fill="#000000" font-family="sans-serif" font-size="14" lengthAdjust="spacing" textLength="127" x="393.6633" y="68.6364">UC1 - Register skills</text></g><g id="elem_UC2"><ellipse cx="460.0589" cy="138.9118" fill="#F1F1F1" rx="87.5589" ry="19.9118" style="stroke:#181818;stroke-width:0.5;"/><text fill="#000000" font-family="sans-serif" font-size="14" lengthAdjust="spacing" textLength="128" x="393.0589" y="143.7155">UC2 - Register a job</text></g><g id="elem_UC3"><ellipse cx="459.995" cy="219.199" fill="#F1F1F1" rx="111.495" ry="24.699" style="stroke:#181818;stroke-width:0.5;"/><text fill="#000000" font-family="sans-serif" font-size="14" lengthAdjust="spacing" textLength="184" x="367.995" y="222.9959">UC3 - Register a collaborator</text></g><g id="elem_UC4"><ellipse cx="459.9002" cy="304.88" fill="#F1F1F1" rx="117.4002" ry="25.88" style="stroke:#181818;stroke-width:0.5;"/><text fill="#000000" font-family="sans-serif" font-size="14" lengthAdjust="spacing" textLength="197" x="361.4002" y="308.6769">UC4 - Assign one or more skills</text></g><g id="elem_UC5"><ellipse cx="460.0249" cy="393.205" fill="#F1F1F1" rx="121.5249" ry="26.705" style="stroke:#181818;stroke-width:0.5;"/><text fill="#000000" font-family="sans-serif" font-size="14" lengthAdjust="spacing" textLength="206" x="357.0249" y="397.0019">UC5 - Generate a team proposal</text></g><g id="elem_UC6"><ellipse cx="459.7971" cy="476.9594" fill="#F1F1F1" rx="97.7971" ry="21.9594" style="stroke:#181818;stroke-width:0.5;"/><text fill="#000000" font-family="sans-serif" font-size="14" lengthAdjust="spacing" textLength="153" x="381.519" y="481.3865">UC6 - Register a vehicle</text></g><g id="elem_UC7"><ellipse cx="459.8162" cy="562.9632" fill="#F1F1F1" rx="130.3162" ry="28.4632" style="stroke:#181818;stroke-width:0.5;"/><text fill="#000000" font-family="sans-serif" font-size="14" lengthAdjust="spacing" textLength="225" x="347.3162" y="566.7601">UC7 - Register a vehicle&#8217;s check-up</text></g><g id="elem_UC8"><ellipse cx="460.1952" cy="660.839" fill="#F1F1F1" rx="157.1952" ry="33.839" style="stroke:#181818;stroke-width:0.5;"/><text fill="#000000" font-family="sans-serif" font-size="14" lengthAdjust="spacing" textLength="282" x="319.1952" y="664.6359">UC8 - List the vehicles needing the check-up</text></g><!--link HRM to UC1--><g id="link_HRM_UC1"><path d="M147.3,294.45 C167.22,241.61 210,149.07 279,101 C306.62,81.76 336.1038,72.9726 368.2138,68.2526 " fill="none" id="HRM-to-UC1" style="stroke:#181818;stroke-width:1.0;"/><polygon fill="#181818" points="374.15,67.38,364.664,64.7314,369.2032,68.1072,365.8274,72.6464,374.15,67.38" style="stroke:#181818;stroke-width:1.0;"/></g><!--link HRM to UC2--><g id="link_HRM_UC2"><path d="M159.8,294.28 C185.56,257.97 228.51,205.68 279,177 C308.58,160.2 338.7787,151.7684 370.8787,146.5184 " fill="none" id="HRM-to-UC2" style="stroke:#181818;stroke-width:1.0;"/><polygon fill="#181818" points="376.8,145.55,367.2724,143.0551,371.8656,146.357,368.5636,150.9502,376.8,145.55" style="stroke:#181818;stroke-width:1.0;"/></g><!--link HRM to UC3--><g id="link_HRM_UC3"><path d="M204.42,294.34 C227.65,282.4 253.96,270.08 279,261 C309.17,250.06 337.3697,242.5473 367.6897,235.8873 " fill="none" id="HRM-to-UC3" style="stroke:#181818;stroke-width:1.0;"/><polygon fill="#181818" points="373.55,234.6,363.9014,232.624,368.6664,235.6727,365.6177,240.4377,373.55,234.6" style="stroke:#181818;stroke-width:1.0;"/></g><!--link HRM to UC4--><g id="link_HRM_UC4"><path d="M243.12,324.26 C277.79,321.17 310.1338,318.2836 344.7438,315.1936 " fill="none" id="HRM-to-UC4" style="stroke:#181818;stroke-width:1.0;"/><polygon fill="#181818" points="350.72,314.66,341.3999,311.4762,345.7398,315.1046,342.1114,319.4445,350.72,314.66" style="stroke:#181818;stroke-width:1.0;"/></g><!--link HRM to UC5--><g id="link_HRM_UC5"><path d="M243.12,353.81 C283.05,361.06 321.9067,368.1074 360.2667,375.0774 " fill="none" id="HRM-to-UC5" style="stroke:#181818;stroke-width:1.0;"/><polygon fill="#181818" points="366.17,376.15,358.0301,370.6055,361.2505,375.2561,356.5999,378.4766,366.17,376.15" style="stroke:#181818;stroke-width:1.0;"/></g><!--link FM to UC6--><g id="link_FM_UC6"><path d="M196.28,453.56 C245.12,457.92 307.8038,463.5065 362.6938,468.4065 " fill="none" id="FM-to-UC6" style="stroke:#181818;stroke-width:1.0;"/><polygon fill="#181818" points="368.67,468.94,360.0613,464.1556,363.6898,468.4954,359.35,472.1239,368.67,468.94" style="stroke:#181818;stroke-width:1.0;"/></g><!--link FM to UC7--><g id="link_FM_UC7"><path d="M196.1,480.18 C221.38,492.47 251.15,505.93 279,516 C307.4,526.27 333.2459,533.8282 362.0059,541.1582 " fill="none" id="FM-to-UC7" style="stroke:#181818;stroke-width:1.0;"/><polygon fill="#181818" points="367.82,542.64,360.0867,536.5412,362.9749,541.4051,358.1109,544.2933,367.82,542.64" style="stroke:#181818;stroke-width:1.0;"/></g><!--link FM to UC8--><g id="link_FM_UC8"><path d="M159.83,487.55 C185.75,524.2 228.95,577.66 279,609 C298.57,621.26 315.4335,628.8563 337.8135,636.1263 " fill="none" id="FM-to-UC8" style="stroke:#181818;stroke-width:1.0;"/><polygon fill="#181818" points="343.52,637.98,336.1961,631.3951,338.7646,636.4352,333.7245,639.0037,343.52,637.98" style="stroke:#181818;stroke-width:1.0;"/></g><!--SRC=[RP9DRi8m44RtESM83UqYY_A_geHeKnPb0-e1fcP8N1mxifssg4BgDNgzdgIJ40YnoYBo5xytCuxfkxtK1LhC8JVQYCoQdC3Rag9sfq2nnvGs_g08B0cFEbKKzLl2PRWr7rAdi4FbUCjBp-oB8rWWFnuafXNt-8bvmQgYdGTlmCeqyx2LLL5fT7Gf3htDmNdAOIwyiQu7w03hvLS4_AlNq5kMEMfOapEb5UHWXPe7jN2pNAzkQuaNrqAYY7oB9GsLhABeUDtzFFcfS-b8LE7KkqaCBUuWvkwfv54jyETGwYJmJeWEhb64D_FQa8EG77P9OPJ2LsEH3z0emr0PiJ9tJgOQZ2RWa-R6KdUYKIYDMNeYJLoPk8-dwggjAOn3rJZZq9bqPtkdJ0f53Jq9wUc_zE_tZmEHaTZ7PT6eqr2TiVhC8lYCpg83JRIj_cNLow32hAx0rmrnV7-vW3OFWZmCyYZ8fwCdvpZfncatpgBZ7m00]--></g></svg>