<?xml version="1.0" encoding="us-ascii" standalone="no"?><svg xmlns="http://www.w3.org/2000/svg" xmlns:xlink="http://www.w3.org/1999/xlink" contentStyleType="text/css" height="517.3px" preserveAspectRatio="none" style="width:464px;height:517px;background:#FFFFFF;" version="1.1" viewBox="0 0 464 517" width="464.1px" zoomAndPan="magnify"><defs/><g><!--cluster actors--><g id="cluster_actors"><rect fill="none" height="172.9" rx="1.75" ry="1.75" style="stroke:#181818;stroke-width:0.6999999999999998;" width="176.4" x="4.9" y="195.3"/><text fill="#000000" font-family="sans-serif" font-size="9.8" font-weight="bold" lengthAdjust="spacing" textLength="69.3" x="58.45" y="207.2752">System Actors</text></g><!--cluster usecases--><g id="cluster_usecases"><rect fill="none" height="508.2" rx="1.75" ry="1.75" style="stroke:#181818;stroke-width:0.6999999999999998;" width="259" x="200.9" y="4.9"/><text fill="#000000" font-family="sans-serif" font-size="9.8" font-weight="bold" lengthAdjust="spacing" textLength="51.8" x="304.5" y="16.8752">Use Cases</text></g><!--entity HRM--><g id="elem_HRM"><ellipse cx="93.1" cy="227.5" fill="#F1F1F1" rx="5.6" ry="5.6" style="stroke:#181818;stroke-width:0.3499999999999999;"/><path d="M93.1,233.1 L93.1,252 M84,238.7 L102.2,238.7 M93.1,252 L84,262.5 M93.1,252 L102.2,262.5 " fill="none" style="stroke:#181818;stroke-width:0.3499999999999999;"/><text fill="#000000" font-family="sans-serif" font-size="9.8" lengthAdjust="spacing" textLength="154" x="16.1" y="274.1252">Human Resources Manager (HRM)</text></g><!--entity FM--><g id="elem_FM"><ellipse cx="93.1" cy="307.3" fill="#F1F1F1" rx="5.6" ry="5.6" style="stroke:#181818;stroke-width:0.3499999999999999;"/><path d="M93.1,312.9 L93.1,331.8 M84,318.5 L102.2,318.5 M93.1,331.8 L84,342.3 M93.1,331.8 L102.2,342.3 " fill="none" style="stroke:#181818;stroke-width:0.3499999999999999;"/><text fill="#000000" font-family="sans-serif" font-size="9.8" lengthAdjust="spacing" textLength="88.2" x="49" y="353.9252">Fleet Manager (FM)</text></g><g id="elem_UC1"><ellipse cx="330.5066" cy="44.9613" fill="#F1F1F1" rx="62.4066" ry="14.1613" style="stroke:#181818;stroke-width:0.3499999999999999;"/><text fill="#000000" font-family="sans-serif" font-size="9.8" lengthAdjust="spacing" textLength="92.4" x="282.2066" y="48.3239">UC1 - Register a skill</text></g><g id="elem_UC2"><ellipse cx="330.4412" cy="97.2382" fill="#F1F1F1" rx="61.2912" ry="13.9382" style="stroke:#181818;stroke-width:0.3499999999999999;"/><text fill="#000000" font-family="sans-serif" font-size="9.8" lengthAdjust="spacing" textLength="89.6" x="283.5412" y="100.6008">UC2 - Register a job</text></g><g id="elem_UC3"><ellipse cx="330.5083" cy="161.1617" fill="#F1F1F1" rx="118.4083" ry="25.3617" style="stroke:#181818;stroke-width:0.3499999999999999;"/><text fill="#000000" font-family="sans-serif" font-size="9.8" lengthAdjust="spacing" textLength="214.9" x="223.0583" y="163.8195">UC3 - Register a collaborator and characteristics</text></g><g id="elem_UC4"><ellipse cx="330.3301" cy="228.816" fill="#F1F1F1" rx="82.1801" ry="18.116" style="stroke:#181818;stroke-width:0.3499999999999999;"/><text fill="#000000" font-family="sans-serif" font-size="9.8" lengthAdjust="spacing" textLength="137.9" x="261.3801" y="231.4738">UC4 - Assign one or more skills</text></g><g id="elem_UC5"><ellipse cx="330.4174" cy="290.6435" fill="#F1F1F1" rx="85.0674" ry="18.6935" style="stroke:#181818;stroke-width:0.3499999999999999;"/><text fill="#000000" font-family="sans-serif" font-size="9.8" lengthAdjust="spacing" textLength="144.2" x="258.3174" y="293.3013">UC5 - Generate a team proposal</text></g><g id="elem_UC6"><ellipse cx="330.258" cy="349.2716" fill="#F1F1F1" rx="68.458" ry="15.3716" style="stroke:#181818;stroke-width:0.3499999999999999;"/><text fill="#000000" font-family="sans-serif" font-size="9.8" lengthAdjust="spacing" textLength="107.1" x="275.4633" y="352.3706">UC6 - Register a vehicle</text></g><g id="elem_UC7"><ellipse cx="330.2713" cy="409.4743" fill="#F1F1F1" rx="91.2213" ry="19.9243" style="stroke:#181818;stroke-width:0.3499999999999999;"/><text fill="#000000" font-family="sans-serif" font-size="9.8" lengthAdjust="spacing" textLength="157.5" x="251.5213" y="412.1321">UC7 - Register a vehicle&#8217;s check-up</text></g><g id="elem_UC8"><ellipse cx="330.5366" cy="477.9873" fill="#F1F1F1" rx="110.0366" ry="23.6873" style="stroke:#181818;stroke-width:0.3499999999999999;"/><text fill="#000000" font-family="sans-serif" font-size="9.8" lengthAdjust="spacing" textLength="197.4" x="231.8366" y="480.6451">UC8 - List the vehicles needing the check-up</text></g><!--link HRM to UC1--><g id="link_HRM_UC1"><path d="M101.535,221.228 C114.156,181.146 143.15,108.094 195.3,70.7 C216.251,55.678 239.4172,49.2453 263.9592,46.2353 " fill="none" id="HRM-to-UC1" style="stroke:#181818;stroke-width:0.6999999999999998;"/><polygon fill="#181818" points="268.128,45.724,261.534,43.7118,264.654,46.1501,262.2157,49.2701,268.128,45.724" style="stroke:#181818;stroke-width:0.6999999999999998;"/></g><!--link HRM to UC2--><g id="link_HRM_UC2"><path d="M108.255,221.543 C125.083,192.255 155.701,147.014 195.3,123.2 C217.595,109.788 241.2423,103.6612 265.7773,100.4132 " fill="none" id="HRM-to-UC2" style="stroke:#181818;stroke-width:0.6999999999999998;"/><polygon fill="#181818" points="269.941,99.862,263.328,97.913,266.4713,100.3213,264.063,103.4646,269.941,99.862" style="stroke:#181818;stroke-width:0.6999999999999998;"/></g><!--link HRM to UC3--><g id="link_HRM_UC3"><path d="M144.025,221.459 C160.104,213.248 178.178,204.701 195.3,198.1 C213.143,191.226 228.7283,186.1978 247.3413,180.9548 " fill="none" id="HRM-to-UC3" style="stroke:#181818;stroke-width:0.6999999999999998;"/><polygon fill="#181818" points="251.384,179.816,244.5608,178.829,248.0151,180.765,246.0792,184.2193,251.384,179.816" style="stroke:#181818;stroke-width:0.6999999999999998;"/></g><!--link HRM to UC4--><g id="link_HRM_UC4"><path d="M170.387,242.606 C197.029,240.317 222.7065,238.1081 249.3065,235.8191 " fill="none" id="HRM-to-UC4" style="stroke:#181818;stroke-width:0.6999999999999998;"/><polygon fill="#181818" points="253.491,235.459,246.9741,233.2094,250.0039,235.7591,247.4543,238.7888,253.491,235.459" style="stroke:#181818;stroke-width:0.6999999999999998;"/></g><!--link HRM to UC5--><g id="link_HRM_UC5"><path d="M170.387,262.612 C200.529,267.883 230.65,273.1572 259.658,278.2392 " fill="none" id="HRM-to-UC5" style="stroke:#181818;stroke-width:0.6999999999999998;"/><polygon fill="#181818" points="263.795,278.964,258.0727,275.1188,260.3475,278.36,257.1063,280.6348,263.795,278.964" style="stroke:#181818;stroke-width:0.6999999999999998;"/></g><!--link FM to UC6--><g id="link_FM_UC6"><path d="M137.34,332.745 C173.488,335.86 221.2014,339.9662 261.9834,343.4732 " fill="none" id="FM-to-UC6" style="stroke:#181818;stroke-width:0.6999999999999998;"/><polygon fill="#181818" points="266.168,343.833,260.1311,340.5035,262.6809,343.5331,259.6513,346.0829,266.168,343.833" style="stroke:#181818;stroke-width:0.6999999999999998;"/></g><!--link FM to UC7--><g id="link_FM_UC7"><path d="M137.221,351.68 C154.903,360.304 175.756,369.698 195.3,376.6 C216.93,384.237 237.0418,389.7872 258.8818,394.9532 " fill="none" id="FM-to-UC7" style="stroke:#181818;stroke-width:0.6999999999999998;"/><polygon fill="#181818" points="262.969,395.92,257.4827,391.745,259.563,395.1143,256.1937,397.1946,262.969,395.92" style="stroke:#181818;stroke-width:0.6999999999999998;"/></g><!--link FM to UC8--><g id="link_FM_UC8"><path d="M111.797,356.818 C129.885,382.571 160.076,420.056 195.3,441.7 C210.336,450.94 223.7033,456.6559 240.8813,461.8429 " fill="none" id="FM-to-UC8" style="stroke:#181818;stroke-width:0.6999999999999998;"/><polygon fill="#181818" points="244.902,463.057,239.6803,458.5554,241.5514,462.0453,238.0616,463.9164,244.902,463.057" style="stroke:#181818;stroke-width:0.6999999999999998;"/></g><!--SRC=[RP9BJiCm48RtESMecy8Y2_fU8LM5qWNTjE80WpDDJ1qxiXsWGfMu1jVZ94pIf6qiieZyUxv_7hRxRYzrWHPpo8qs8hCc9_2sfEWIAL3iCQMjFoW2IyAZJXL5_GlXCapCXzGfx50v3ddfcNrn10latuF4jE8UFp4lsAfevy4Ri3BDF2IoIYgDZix9eRSzE4yvp8KtrlK07M2z_8g0lteDlLMPeuODELDQGGxMgBbH2pUhpVgsDl7Ysh1KHFw2BHjgkOwYutNrjlDJvTAHgCIfTgCOMjn1pDLJoQrQGE03KQfsS2Xa1rtspRmsv20aXrrI6ANmrLYi9a2TWCZuq0K7cP32DMc6OPeHfvax9rCDHXEmEJUMJassfb5e6hFfYJHnDUBQdghxjwOm3jl9ng5dqkttdJ8f53Nq9AId_zA_tp-E1oEnZykYiKv3wuojpsm4dr5hTA29akhfLPj1XbcTWTy0nF7z-L8kUX3eOQ17WJwDlcpbf2kdNJcBZdy0]--></g></svg>