<?xml version="1.0" encoding="us-ascii" standalone="no"?><svg xmlns="http://www.w3.org/2000/svg" xmlns:xlink="http://www.w3.org/1999/xlink" contentStyleType="text/css" height="470px" preserveAspectRatio="none" style="width:521px;height:470px;background:#FFFFFF;" version="1.1" viewBox="0 0 521 470" width="521px" zoomAndPan="magnify"><defs/><g><rect fill="#FFFFFF" height="372.8076" style="stroke:#181818;stroke-width:0.5;" width="5" x="72.5" y="46.8105"/><rect fill="#FFFFFF" height="71.0625" style="stroke:#181818;stroke-width:0.5;" width="5" x="191" y="58.4561"/><rect fill="#FFFFFF" height="46.9365" style="stroke:#181818;stroke-width:0.5;" width="5" x="191" y="145.1641"/><rect fill="#FFFFFF" height="149.29" style="stroke:#181818;stroke-width:0.5;" width="5" x="191" y="207.7461"/><rect fill="#FFFFFF" height="46.9365" style="stroke:#181818;stroke-width:0.5;" width="5" x="191" y="372.6816"/><rect fill="#FFFFFF" height="39.7715" style="stroke:#181818;stroke-width:0.5;" width="5" x="305.5" y="74.1016"/><rect fill="#FFFFFF" height="15.6455" style="stroke:#181818;stroke-width:0.5;" width="5" x="305.5" y="160.8096"/><rect fill="#FFFFFF" height="102.3535" style="stroke:#181818;stroke-width:0.5;" width="5" x="305.5" y="223.3916"/><rect fill="#FFFFFF" height="15.6455" style="stroke:#181818;stroke-width:0.5;" width="5" x="305.5" y="388.3271"/><rect fill="#FFFFFF" height="15.6455" style="stroke:#181818;stroke-width:0.5;" width="5" x="419.75" y="239.0371"/><rect fill="#FFFFFF" height="39.7715" style="stroke:#181818;stroke-width:0.5;" width="5" x="481.5" y="270.3281"/><line style="stroke:#181818;stroke-width:0.25;stroke-dasharray:5.0,5.0;" x1="75" x2="75" y1="41.8105" y2="428.6182"/><line style="stroke:#181818;stroke-width:0.25;stroke-dasharray:5.0,5.0;" x1="193.5" x2="193.5" y1="41.8105" y2="428.6182"/><line style="stroke:#181818;stroke-width:0.25;stroke-dasharray:5.0,5.0;" x1="308" x2="308" y1="41.8105" y2="428.6182"/><line style="stroke:#181818;stroke-width:0.25;stroke-dasharray:5.0,5.0;" x1="368.5" x2="368.5" y1="41.8105" y2="428.6182"/><line style="stroke:#181818;stroke-width:0.25;stroke-dasharray:5.0,5.0;" x1="422" x2="422" y1="41.8105" y2="428.6182"/><line style="stroke:#181818;stroke-width:0.25;stroke-dasharray:5.0,5.0;" x1="484" x2="484" y1="41.8105" y2="428.6182"/><text fill="#000000" font-family="sans-serif" font-size="7" lengthAdjust="spacing" textLength="142" x="2.5" y="40.0537">Vehicle and Equipment Fleet Manager (VFM)</text><ellipse cx="75" cy="6.75" fill="#E3E3E3" rx="4" ry="4" style="stroke:#181818;stroke-width:0.25;"/><path d="M75,10.75 L75,24.25 M68.5,14.75 L81.5,14.75 M75,24.25 L68.5,31.75 M75,24.25 L81.5,31.75 " fill="none" style="stroke:#181818;stroke-width:0.25;"/><text fill="#000000" font-family="sans-serif" font-size="7" lengthAdjust="spacing" textLength="142" x="2.5" y="435.6719">Vehicle and Equipment Fleet Manager (VFM)</text><ellipse cx="75" cy="441.6787" fill="#E3E3E3" rx="4" ry="4" style="stroke:#181818;stroke-width:0.25;"/><path d="M75,445.6787 L75,459.1787 M68.5,449.6787 L81.5,449.6787 M75,459.1787 L68.5,466.6787 M75,459.1787 L81.5,466.6787 " fill="none" style="stroke:#181818;stroke-width:0.25;"/><rect fill="#E3E3E3" height="16.3105" rx="1.25" ry="1.25" style="stroke:#181818;stroke-width:0.25;" width="82" x="152.5" y="25"/><text fill="#000000" font-family="sans-serif" font-size="7" lengthAdjust="spacing" textLength="75" x="156" y="36.0537">:RegisterMaintenanceUI</text><rect fill="#E3E3E3" height="16.3105" rx="1.25" ry="1.25" style="stroke:#181818;stroke-width:0.25;" width="82" x="152.5" y="428.1182"/><text fill="#000000" font-family="sans-serif" font-size="7" lengthAdjust="spacing" textLength="75" x="156" y="439.1719">:RegisterMaintenanceUI</text><rect fill="#E3E3E3" height="16.3105" rx="1.25" ry="1.25" style="stroke:#181818;stroke-width:0.25;" width="63" x="276.5" y="25"/><text fill="#000000" font-family="sans-serif" font-size="7" lengthAdjust="spacing" textLength="56" x="280" y="36.0537">:VehicleController</text><rect fill="#E3E3E3" height="16.3105" rx="1.25" ry="1.25" style="stroke:#181818;stroke-width:0.25;" width="63" x="276.5" y="428.1182"/><text fill="#000000" font-family="sans-serif" font-size="7" lengthAdjust="spacing" textLength="56" x="280" y="439.1719">:VehicleController</text><rect fill="#E3E3E3" height="16.3105" rx="1.25" ry="1.25" style="stroke:#181818;stroke-width:0.25;" width="48.5" x="344.5" y="25"/><text fill="#000000" font-family="sans-serif" font-size="7" lengthAdjust="spacing" textLength="41.5" x="348" y="36.0537">:Repositories</text><rect fill="#E3E3E3" height="16.3105" rx="1.25" ry="1.25" style="stroke:#181818;stroke-width:0.25;" width="48.5" x="344.5" y="428.1182"/><text fill="#000000" font-family="sans-serif" font-size="7" lengthAdjust="spacing" textLength="41.5" x="348" y="439.1719">:Repositories</text><rect fill="#E3E3E3" height="25.6211" rx="1.25" ry="1.25" style="stroke:#181818;stroke-width:0.25;" width="48.5" x="398" y="15.6895"/><text fill="#000000" font-family="sans-serif" font-size="7" lengthAdjust="spacing" textLength="37" x="403.75" y="26.7432">repositories</text><text fill="#000000" font-family="sans-serif" font-size="7" lengthAdjust="spacing" textLength="41.5" x="401.5" y="36.0537">:Repositories</text><rect fill="#E3E3E3" height="25.6211" rx="1.25" ry="1.25" style="stroke:#181818;stroke-width:0.25;" width="48.5" x="398" y="428.1182"/><text fill="#000000" font-family="sans-serif" font-size="7" lengthAdjust="spacing" textLength="37" x="403.75" y="439.1719">repositories</text><text fill="#000000" font-family="sans-serif" font-size="7" lengthAdjust="spacing" textLength="41.5" x="401.5" y="448.4824">:Repositories</text><rect fill="#E3E3E3" height="25.6211" rx="1.25" ry="1.25" style="stroke:#181818;stroke-width:0.25;" width="65" x="451.5" y="15.6895"/><text fill="#000000" font-family="sans-serif" font-size="7" lengthAdjust="spacing" textLength="58" x="455" y="26.7432">vehicleRepository:</text><text fill="#000000" font-family="sans-serif" font-size="7" lengthAdjust="spacing" textLength="57" x="455.5" y="36.0537">VehicleRepository</text><rect fill="#E3E3E3" height="25.6211" rx="1.25" ry="1.25" style="stroke:#181818;stroke-width:0.25;" width="65" x="451.5" y="428.1182"/><text fill="#000000" font-family="sans-serif" font-size="7" lengthAdjust="spacing" textLength="58" x="455" y="439.1719">vehicleRepository:</text><text fill="#000000" font-family="sans-serif" font-size="7" lengthAdjust="spacing" textLength="57" x="455.5" y="448.4824">VehicleRepository</text><rect fill="#FFFFFF" height="372.8076" style="stroke:#181818;stroke-width:0.5;" width="5" x="72.5" y="46.8105"/><rect fill="#FFFFFF" height="71.0625" style="stroke:#181818;stroke-width:0.5;" width="5" x="191" y="58.4561"/><rect fill="#FFFFFF" height="46.9365" style="stroke:#181818;stroke-width:0.5;" width="5" x="191" y="145.1641"/><rect fill="#FFFFFF" height="149.29" style="stroke:#181818;stroke-width:0.5;" width="5" x="191" y="207.7461"/><rect fill="#FFFFFF" height="46.9365" style="stroke:#181818;stroke-width:0.5;" width="5" x="191" y="372.6816"/><rect fill="#FFFFFF" height="39.7715" style="stroke:#181818;stroke-width:0.5;" width="5" x="305.5" y="74.1016"/><rect fill="#FFFFFF" height="15.6455" style="stroke:#181818;stroke-width:0.5;" width="5" x="305.5" y="160.8096"/><rect fill="#FFFFFF" height="102.3535" style="stroke:#181818;stroke-width:0.5;" width="5" x="305.5" y="223.3916"/><rect fill="#FFFFFF" height="15.6455" style="stroke:#181818;stroke-width:0.5;" width="5" x="305.5" y="388.3271"/><rect fill="#FFFFFF" height="15.6455" style="stroke:#181818;stroke-width:0.5;" width="5" x="419.75" y="239.0371"/><rect fill="#FFFFFF" height="39.7715" style="stroke:#181818;stroke-width:0.5;" width="5" x="481.5" y="270.3281"/><polygon fill="#181818" points="185,56.4561,190,58.4561,185,60.4561,187,58.4561" style="stroke:#181818;stroke-width:0.5;"/><line style="stroke:#181818;stroke-width:0.5;" x1="77.5" x2="188" y1="58.4561" y2="58.4561"/><text fill="#000000" font-family="sans-serif" font-size="6.5" font-weight="bold" lengthAdjust="spacing" textLength="3.5" x="81" y="55.8247">1</text><text fill="#000000" font-family="sans-serif" font-size="6.5" lengthAdjust="spacing" textLength="68" x="86.5" y="55.8247">requests to list vehicles</text><polygon fill="#181818" points="299.5,72.1016,304.5,74.1016,299.5,76.1016,301.5,74.1016" style="stroke:#181818;stroke-width:0.5;"/><line style="stroke:#181818;stroke-width:0.5;" x1="196" x2="302.5" y1="74.1016" y2="74.1016"/><text fill="#000000" font-family="sans-serif" font-size="6.5" font-weight="bold" lengthAdjust="spacing" textLength="3.5" x="199.5" y="71.4702">2</text><text fill="#000000" font-family="sans-serif" font-size="6.5" lengthAdjust="spacing" textLength="48.5" x="205" y="71.4702">getVehiclesList()</text><rect fill="none" height="21.626" style="stroke:#000000;stroke-width:0.75;" width="66" x="275" y="78.1016"/><path d="M275,78.1016 L306,78.1016 L306,82.6016 L301,87.6016 L275,87.6016 L275,78.1016 " fill="#EEEEEE" style="stroke:#000000;stroke-width:1.0;"/><text fill="#000000" font-family="sans-serif" font-size="6.5" font-weight="bold" lengthAdjust="spacing" textLength="8.5" x="281.5" y="86.1157">ref</text><text fill="#000000" font-family="sans-serif" font-size="6" lengthAdjust="spacing" textLength="42.5" x="286.75" y="96.0762">Get Vehicle List</text><polygon fill="#181818" points="201.5,111.873,196.5,113.873,201.5,115.873,199.5,113.873" style="stroke:#181818;stroke-width:0.5;"/><line style="stroke:#181818;stroke-width:0.5;stroke-dasharray:2.0,2.0;" x1="198.5" x2="307.5" y1="113.873" y2="113.873"/><text fill="#000000" font-family="sans-serif" font-size="6.5" font-weight="bold" lengthAdjust="spacing" textLength="3.5" x="204.5" y="111.2417">3</text><text fill="#000000" font-family="sans-serif" font-size="6.5" lengthAdjust="spacing" textLength="30" x="210" y="111.2417">vehicleList</text><polygon fill="#181818" points="83,127.5186,78,129.5186,83,131.5186,81,129.5186" style="stroke:#181818;stroke-width:0.5;"/><line style="stroke:#181818;stroke-width:0.5;stroke-dasharray:2.0,2.0;" x1="80" x2="193" y1="129.5186" y2="129.5186"/><text fill="#000000" font-family="sans-serif" font-size="6.5" font-weight="bold" lengthAdjust="spacing" textLength="3.5" x="86" y="126.8872">4</text><text fill="#000000" font-family="sans-serif" font-size="6.5" lengthAdjust="spacing" textLength="58" x="91.5" y="126.8872">displays vehicle List</text><polygon fill="#181818" points="185,143.1641,190,145.1641,185,147.1641,187,145.1641" style="stroke:#181818;stroke-width:0.5;"/><line style="stroke:#181818;stroke-width:0.5;" x1="77.5" x2="188" y1="145.1641" y2="145.1641"/><text fill="#000000" font-family="sans-serif" font-size="6.5" font-weight="bold" lengthAdjust="spacing" textLength="3.5" x="81" y="142.5327">5</text><text fill="#000000" font-family="sans-serif" font-size="6.5" lengthAdjust="spacing" textLength="47" x="86.5" y="142.5327">Chooses vehicle</text><polygon fill="#181818" points="299.5,158.8096,304.5,160.8096,299.5,162.8096,301.5,160.8096" style="stroke:#181818;stroke-width:0.5;"/><line style="stroke:#181818;stroke-width:0.5;" x1="196" x2="302.5" y1="160.8096" y2="160.8096"/><text fill="#000000" font-family="sans-serif" font-size="6.5" font-weight="bold" lengthAdjust="spacing" textLength="3.5" x="199.5" y="158.1782">6</text><text fill="#000000" font-family="sans-serif" font-size="6.5" lengthAdjust="spacing" textLength="19.5" x="205" y="158.1782">vehicle</text><polygon fill="#181818" points="201.5,174.4551,196.5,176.4551,201.5,178.4551,199.5,176.4551" style="stroke:#181818;stroke-width:0.5;"/><line style="stroke:#181818;stroke-width:0.5;stroke-dasharray:2.0,2.0;" x1="198.5" x2="307.5" y1="176.4551" y2="176.4551"/><text fill="#000000" font-family="sans-serif" font-size="6.5" font-weight="bold" lengthAdjust="spacing" textLength="3.5" x="204.5" y="173.8237">7</text><text fill="#000000" font-family="sans-serif" font-size="6.5" lengthAdjust="spacing" textLength="92" x="210" y="173.8237">requests data(date, current Km)</text><polygon fill="#181818" points="83,190.1006,78,192.1006,83,194.1006,81,192.1006" style="stroke:#181818;stroke-width:0.5;"/><line style="stroke:#181818;stroke-width:0.5;stroke-dasharray:2.0,2.0;" x1="80" x2="193" y1="192.1006" y2="192.1006"/><text fill="#000000" font-family="sans-serif" font-size="6.5" font-weight="bold" lengthAdjust="spacing" textLength="3.5" x="86" y="189.4692">8</text><text fill="#000000" font-family="sans-serif" font-size="6.5" lengthAdjust="spacing" textLength="94" x="91.5" y="189.4692">requests data (date, current Km)</text><polygon fill="#181818" points="185,205.7461,190,207.7461,185,209.7461,187,207.7461" style="stroke:#181818;stroke-width:0.5;"/><line style="stroke:#181818;stroke-width:0.5;" x1="77.5" x2="188" y1="207.7461" y2="207.7461"/><text fill="#000000" font-family="sans-serif" font-size="6.5" font-weight="bold" lengthAdjust="spacing" textLength="3.5" x="81" y="205.1147">9</text><text fill="#000000" font-family="sans-serif" font-size="6.5" lengthAdjust="spacing" textLength="86.5" x="86.5" y="205.1147">Types data (date, current Km)</text><polygon fill="#181818" points="299.5,221.3916,304.5,223.3916,299.5,225.3916,301.5,223.3916" style="stroke:#181818;stroke-width:0.5;"/><line style="stroke:#181818;stroke-width:0.5;" x1="196" x2="302.5" y1="223.3916" y2="223.3916"/><text fill="#000000" font-family="sans-serif" font-size="6.5" font-weight="bold" lengthAdjust="spacing" textLength="7" x="199.5" y="220.7603">10</text><text fill="#000000" font-family="sans-serif" font-size="6.5" lengthAdjust="spacing" textLength="60.5" x="208.5" y="220.7603">register maintenance</text><polygon fill="#181818" points="413.75,237.0371,418.75,239.0371,413.75,241.0371,415.75,239.0371" style="stroke:#181818;stroke-width:0.5;"/><line style="stroke:#181818;stroke-width:0.5;" x1="310.5" x2="416.75" y1="239.0371" y2="239.0371"/><text fill="#000000" font-family="sans-serif" font-size="6.5" font-weight="bold" lengthAdjust="spacing" textLength="7" x="314" y="236.4058">11</text><text fill="#000000" font-family="sans-serif" font-size="6.5" lengthAdjust="spacing" textLength="81" x="323" y="236.4058">getMaintenanceRepository()</text><polygon fill="#181818" points="316,252.6826,311,254.6826,316,256.6826,314,254.6826" style="stroke:#181818;stroke-width:0.5;"/><line style="stroke:#181818;stroke-width:0.5;stroke-dasharray:2.0,2.0;" x1="313" x2="421.75" y1="254.6826" y2="254.6826"/><text fill="#000000" font-family="sans-serif" font-size="6.5" font-weight="bold" lengthAdjust="spacing" textLength="7" x="319" y="252.0513">12</text><text fill="#000000" font-family="sans-serif" font-size="6.5" lengthAdjust="spacing" textLength="68" x="328" y="252.0513">MaintenanceRepository</text><polygon fill="#181818" points="475.5,268.3281,480.5,270.3281,475.5,272.3281,477.5,270.3281" style="stroke:#181818;stroke-width:0.5;"/><line style="stroke:#181818;stroke-width:0.5;" x1="310.5" x2="478.5" y1="270.3281" y2="270.3281"/><text fill="#000000" font-family="sans-serif" font-size="6.5" font-weight="bold" lengthAdjust="spacing" textLength="7" x="314" y="267.6968">13</text><text fill="#000000" font-family="sans-serif" font-size="6.5" lengthAdjust="spacing" textLength="60.5" x="323" y="267.6968">register maintenance</text><rect fill="none" height="21.626" style="stroke:#000000;stroke-width:0.75;" width="68" x="450" y="274.3281"/><path d="M450,274.3281 L481,274.3281 L481,278.8281 L476,283.8281 L450,283.8281 L450,274.3281 " fill="#EEEEEE" style="stroke:#000000;stroke-width:1.0;"/><text fill="#000000" font-family="sans-serif" font-size="6.5" font-weight="bold" lengthAdjust="spacing" textLength="8.5" x="456.5" y="282.3423">ref</text><text fill="#000000" font-family="sans-serif" font-size="6" lengthAdjust="spacing" textLength="60" x="454" y="292.3027">Register Maintenance</text><polygon fill="#181818" points="316,308.0996,311,310.0996,316,312.0996,314,310.0996" style="stroke:#181818;stroke-width:0.5;"/><line style="stroke:#181818;stroke-width:0.5;stroke-dasharray:2.0,2.0;" x1="313" x2="483.5" y1="310.0996" y2="310.0996"/><text fill="#000000" font-family="sans-serif" font-size="6.5" font-weight="bold" lengthAdjust="spacing" textLength="7" x="319" y="307.4683">14</text><text fill="#000000" font-family="sans-serif" font-size="6.5" lengthAdjust="spacing" textLength="37" x="328" y="307.4683">maintenance</text><polygon fill="#181818" points="201.5,323.7451,196.5,325.7451,201.5,327.7451,199.5,325.7451" style="stroke:#181818;stroke-width:0.5;"/><line style="stroke:#181818;stroke-width:0.5;stroke-dasharray:2.0,2.0;" x1="198.5" x2="307.5" y1="325.7451" y2="325.7451"/><text fill="#000000" font-family="sans-serif" font-size="6.5" font-weight="bold" lengthAdjust="spacing" textLength="7" x="204.5" y="323.1138">15</text><text fill="#000000" font-family="sans-serif" font-size="6.5" lengthAdjust="spacing" textLength="37" x="213.5" y="323.1138">maintenance</text><polygon fill="#181818" points="83,339.3906,78,341.3906,83,343.3906,81,341.3906" style="stroke:#181818;stroke-width:0.5;"/><line style="stroke:#181818;stroke-width:0.5;stroke-dasharray:2.0,2.0;" x1="80" x2="190.5" y1="341.3906" y2="341.3906"/><text fill="#000000" font-family="sans-serif" font-size="6.5" font-weight="bold" lengthAdjust="spacing" textLength="7" x="86" y="338.7593">16</text><text fill="#000000" font-family="sans-serif" font-size="6.5" lengthAdjust="spacing" textLength="78.5" x="95" y="338.7593">Displays maintenance data</text><polygon fill="#181818" points="83,355.0361,78,357.0361,83,359.0361,81,357.0361" style="stroke:#181818;stroke-width:0.5;"/><line style="stroke:#181818;stroke-width:0.5;stroke-dasharray:2.0,2.0;" x1="80" x2="193" y1="357.0361" y2="357.0361"/><text fill="#000000" font-family="sans-serif" font-size="6.5" font-weight="bold" lengthAdjust="spacing" textLength="7" x="86" y="354.4048">17</text><text fill="#000000" font-family="sans-serif" font-size="6.5" lengthAdjust="spacing" textLength="62" x="95" y="354.4048">requests confirmation</text><polygon fill="#181818" points="185,370.6816,190,372.6816,185,374.6816,187,372.6816" style="stroke:#181818;stroke-width:0.5;"/><line style="stroke:#181818;stroke-width:0.5;" x1="77.5" x2="188" y1="372.6816" y2="372.6816"/><text fill="#000000" font-family="sans-serif" font-size="6.5" font-weight="bold" lengthAdjust="spacing" textLength="7" x="81" y="370.0503">18</text><text fill="#000000" font-family="sans-serif" font-size="6.5" lengthAdjust="spacing" textLength="39" x="90" y="370.0503">confirms data</text><polygon fill="#181818" points="299.5,386.3271,304.5,388.3271,299.5,390.3271,301.5,388.3271" style="stroke:#181818;stroke-width:0.5;"/><line style="stroke:#181818;stroke-width:0.5;" x1="196" x2="302.5" y1="388.3271" y2="388.3271"/><text fill="#000000" font-family="sans-serif" font-size="6.5" font-weight="bold" lengthAdjust="spacing" textLength="7" x="199.5" y="385.6958">19</text><text fill="#000000" font-family="sans-serif" font-size="6.5" lengthAdjust="spacing" textLength="35" x="208.5" y="385.6958">confirmation</text><polygon fill="#181818" points="201.5,401.9727,196.5,403.9727,201.5,405.9727,199.5,403.9727" style="stroke:#181818;stroke-width:0.5;"/><line style="stroke:#181818;stroke-width:0.5;stroke-dasharray:2.0,2.0;" x1="198.5" x2="307.5" y1="403.9727" y2="403.9727"/><text fill="#000000" font-family="sans-serif" font-size="6.5" font-weight="bold" lengthAdjust="spacing" textLength="7" x="204.5" y="401.3413">20</text><text fill="#000000" font-family="sans-serif" font-size="6.5" lengthAdjust="spacing" textLength="53" x="213.5" y="401.3413">operation success</text><polygon fill="#181818" points="80.5,417.6182,75.5,419.6182,80.5,421.6182,78.5,419.6182" style="stroke:#181818;stroke-width:0.5;"/><line style="stroke:#181818;stroke-width:0.5;" x1="77.5" x2="193" y1="419.6182" y2="419.6182"/><text fill="#000000" font-family="sans-serif" font-size="6.5" font-weight="bold" lengthAdjust="spacing" textLength="7" x="83.5" y="416.9868">21</text><text fill="#000000" font-family="sans-serif" font-size="6.5" lengthAdjust="spacing" textLength="79" x="92.5" y="416.9868">displays operation success</text><!--SRC=[dLLDR-8m4BtdLuou5AJb3w2gqehThge5QTLIJhsupf1OJUpKTjZbt-_492REbw0-86JFUpFlsJCn7q8MJBCSSYKLJxNA4QmkCJB-f63yWoNuOayPWaPkcKooTe19MQp-2fd0WMK6euYLLiaoVqSTHNUfY14EIjbtzIzYt2eDipscWXCRap7y_2n5aQEqy9WXMjWoITaqpFUFsyKCc07w4r4cAxWe6CNDLi-O26DHRvcG5YMJ75-VNEphKoUqJhLMqcgLPQXTs7htlEbn5ie8Aa-WSJ5-u_GYAiMaAOJe5k9DzWd-RBxlGiJnNCo5UVKczzszi-RkRbHv9uxCelCZ0bhq1vOFf1bMT36V9Hfhm2h8o1oeSnaNwR7aZzke5k48NLb1-0HjdTDi23vV-32FTQRvRRSq7a0TwRRS6NJMBxhEvgehqZ00wV897pAwQfQDg5f33nlZH56LB2Aep5b1B4oHiPDfg62AgsrErzzrgfH1pnF4ZH843ayY-p929_prniooEVtWD-2brbNV_CuNNtGdO8MhQSTTsfqAl8ujy6pSD5rtEkINLh_DmGVNX-SNtfeNbywQZnJcsZSuSaJBIt63T5TvrfJMQ_ER90yCYMuB-WRjnyB0QWPhMrela1ftGCtzSZaePqp5c3NXqn_7XnITa-2L_sXcG8lAlT59bEyDhkH1w9nPGH-0gojeTqNDO0QJZWwFRYjCrJ4rexkZH1Me7GcOadCqvZPRUvFr5hxn8_TL-my0]--></g></svg>