<?xml version="1.0" encoding="us-ascii" standalone="no"?><svg xmlns="http://www.w3.org/2000/svg" xmlns:xlink="http://www.w3.org/1999/xlink" contentStyleType="text/css" height="1201px" preserveAspectRatio="none" style="width:621px;height:1201px;background:#FFFFFF;" version="1.1" viewBox="0 0 621 1201" width="621px" zoomAndPan="magnify"><defs/><g><!--class CompleteTaskStatusUI--><g id="elem_CompleteTaskStatusUI"><rect codeLine="3" fill="#F1F1F1" height="66.6211" id="CompleteTaskStatusUI" rx="2.5" ry="2.5" style="stroke:#181818;stroke-width:0.5;" width="175" x="223" y="7"/><ellipse cx="238" cy="23" fill="#ADD1B2" rx="11" ry="11" style="stroke:#181818;stroke-width:1.0;"/><path d="M240.7656,18.875 Q240.9219,18.6563 241.1094,18.5469 Q241.2969,18.4375 241.5156,18.4375 Q241.8906,18.4375 242.125,18.7031 Q242.3594,18.9531 242.3594,19.5625 L242.3594,21.0156 Q242.3594,21.625 242.125,21.8906 Q241.8906,22.1563 241.5156,22.1563 Q241.1719,22.1563 240.9688,21.9531 Q240.7656,21.7656 240.6563,21.25 Q240.6094,20.8906 240.4219,20.7031 Q240.0938,20.3281 239.4844,20.1094 Q238.875,19.8906 238.25,19.8906 Q237.4844,19.8906 236.8438,20.2188 Q236.2188,20.5469 235.7188,21.2969 Q235.2344,22.0469 235.2344,23.0781 L235.2344,24.1719 Q235.2344,25.4063 236.125,26.2344 Q237.0156,27.0469 238.6094,27.0469 Q239.5469,27.0469 240.2031,26.7969 Q240.5938,26.6406 241.0156,26.2031 Q241.2813,25.9375 241.4219,25.8594 Q241.5781,25.7813 241.7813,25.7813 Q242.1094,25.7813 242.3594,26.0469 Q242.625,26.2969 242.625,26.6406 Q242.625,26.9844 242.2813,27.3906 Q241.7813,27.9688 240.9844,28.2969 Q239.9063,28.75 238.6094,28.75 Q237.0938,28.75 235.8906,28.125 Q234.9063,27.625 234.2188,26.5625 Q233.5313,25.4844 233.5313,24.2031 L233.5313,23.0469 Q233.5313,21.7188 234.1406,20.5781 Q234.7656,19.4219 235.8594,18.8125 Q236.9531,18.1875 238.1875,18.1875 Q238.9219,18.1875 239.5625,18.3594 Q240.2188,18.5156 240.7656,18.875 Z " fill="#000000"/><text fill="#000000" font-family="sans-serif" font-size="14" lengthAdjust="spacing" textLength="143" x="252" y="28.7969">CompleteTaskStatusUI</text><line style="stroke:#181818;stroke-width:0.5;" x1="224" x2="397" y1="39" y2="39"/><line style="stroke:#181818;stroke-width:0.5;" x1="224" x2="397" y1="47" y2="47"/><rect fill="#F24D5C" height="6" style="stroke:#C82930;stroke-width:1.0;" width="6" x="231" y="58.8105"/><text fill="#000000" font-family="sans-serif" font-size="14" lengthAdjust="spacing" textLength="65" x="243" y="66.1074">run(): void</text></g><!--class Repositories--><g id="elem_Repositories"><rect codeLine="7" fill="#F1F1F1" height="85.2422" id="Repositories" rx="2.5" ry="2.5" style="stroke:#181818;stroke-width:0.5;" width="196" x="212.5" y="465"/><ellipse cx="266.75" cy="481" fill="#ADD1B2" rx="11" ry="11" style="stroke:#181818;stroke-width:1.0;"/><path d="M269.5156,476.875 Q269.6719,476.6563 269.8594,476.5469 Q270.0469,476.4375 270.2656,476.4375 Q270.6406,476.4375 270.875,476.7031 Q271.1094,476.9531 271.1094,477.5625 L271.1094,479.0156 Q271.1094,479.625 270.875,479.8906 Q270.6406,480.1563 270.2656,480.1563 Q269.9219,480.1563 269.7188,479.9531 Q269.5156,479.7656 269.4063,479.25 Q269.3594,478.8906 269.1719,478.7031 Q268.8438,478.3281 268.2344,478.1094 Q267.625,477.8906 267,477.8906 Q266.2344,477.8906 265.5938,478.2188 Q264.9688,478.5469 264.4688,479.2969 Q263.9844,480.0469 263.9844,481.0781 L263.9844,482.1719 Q263.9844,483.4063 264.875,484.2344 Q265.7656,485.0469 267.3594,485.0469 Q268.2969,485.0469 268.9531,484.7969 Q269.3438,484.6406 269.7656,484.2031 Q270.0313,483.9375 270.1719,483.8594 Q270.3281,483.7813 270.5313,483.7813 Q270.8594,483.7813 271.1094,484.0469 Q271.375,484.2969 271.375,484.6406 Q271.375,484.9844 271.0313,485.3906 Q270.5313,485.9688 269.7344,486.2969 Q268.6563,486.75 267.3594,486.75 Q265.8438,486.75 264.6406,486.125 Q263.6563,485.625 262.9688,484.5625 Q262.2813,483.4844 262.2813,482.2031 L262.2813,481.0469 Q262.2813,479.7188 262.8906,478.5781 Q263.5156,477.4219 264.6094,476.8125 Q265.7031,476.1875 266.9375,476.1875 Q267.6719,476.1875 268.3125,476.3594 Q268.9688,476.5156 269.5156,476.875 Z " fill="#000000"/><text fill="#000000" font-family="sans-serif" font-size="14" lengthAdjust="spacing" textLength="79" x="287.25" y="486.7969">Repositories</text><line style="stroke:#181818;stroke-width:0.5;" x1="213.5" x2="407.5" y1="497" y2="497"/><line style="stroke:#181818;stroke-width:0.5;" x1="213.5" x2="407.5" y1="505" y2="505"/><ellipse cx="223.5" cy="519.8105" fill="#84BE84" rx="3" ry="3" style="stroke:#038048;stroke-width:1.0;"/><text fill="#000000" font-family="sans-serif" font-size="14" lengthAdjust="spacing" textLength="170" x="232.5" y="524.1074">getInstance(): Repositories</text><ellipse cx="223.5" cy="538.4316" fill="#84BE84" rx="3" ry="3" style="stroke:#038048;stroke-width:1.0;"/><text fill="#000000" font-family="sans-serif" font-size="14" lengthAdjust="spacing" textLength="136" x="232.5" y="542.7285">getAgenda(): Agenda</text></g><!--class Agenda--><g id="elem_Agenda"><rect codeLine="12" fill="#F1F1F1" height="141.1055" id="Agenda" rx="2.5" ry="2.5" style="stroke:#181818;stroke-width:0.5;" width="412" x="104.5" y="610"/><ellipse cx="281.75" cy="626" fill="#ADD1B2" rx="11" ry="11" style="stroke:#181818;stroke-width:1.0;"/><path d="M284.5156,621.875 Q284.6719,621.6563 284.8594,621.5469 Q285.0469,621.4375 285.2656,621.4375 Q285.6406,621.4375 285.875,621.7031 Q286.1094,621.9531 286.1094,622.5625 L286.1094,624.0156 Q286.1094,624.625 285.875,624.8906 Q285.6406,625.1563 285.2656,625.1563 Q284.9219,625.1563 284.7188,624.9531 Q284.5156,624.7656 284.4063,624.25 Q284.3594,623.8906 284.1719,623.7031 Q283.8438,623.3281 283.2344,623.1094 Q282.625,622.8906 282,622.8906 Q281.2344,622.8906 280.5938,623.2188 Q279.9688,623.5469 279.4688,624.2969 Q278.9844,625.0469 278.9844,626.0781 L278.9844,627.1719 Q278.9844,628.4063 279.875,629.2344 Q280.7656,630.0469 282.3594,630.0469 Q283.2969,630.0469 283.9531,629.7969 Q284.3438,629.6406 284.7656,629.2031 Q285.0313,628.9375 285.1719,628.8594 Q285.3281,628.7813 285.5313,628.7813 Q285.8594,628.7813 286.1094,629.0469 Q286.375,629.2969 286.375,629.6406 Q286.375,629.9844 286.0313,630.3906 Q285.5313,630.9688 284.7344,631.2969 Q283.6563,631.75 282.3594,631.75 Q280.8438,631.75 279.6406,631.125 Q278.6563,630.625 277.9688,629.5625 Q277.2813,628.4844 277.2813,627.2031 L277.2813,626.0469 Q277.2813,624.7188 277.8906,623.5781 Q278.5156,622.4219 279.6094,621.8125 Q280.7031,621.1875 281.9375,621.1875 Q282.6719,621.1875 283.3125,621.3594 Q283.9688,621.5156 284.5156,621.875 Z " fill="#000000"/><text fill="#000000" font-family="sans-serif" font-size="14" lengthAdjust="spacing" textLength="49" x="302.25" y="631.7969">Agenda</text><line style="stroke:#181818;stroke-width:0.5;" x1="105.5" x2="515.5" y1="642" y2="642"/><rect fill="none" height="6" style="stroke:#C82930;stroke-width:1.0;" width="6" x="112.5" y="653.8105"/><text fill="#000000" font-family="sans-serif" font-size="14" lengthAdjust="spacing" textLength="171" x="124.5" y="661.1074">entries: List&lt;AgendaEntry&gt;</text><line style="stroke:#181818;stroke-width:0.5;" x1="105.5" x2="515.5" y1="668.6211" y2="668.6211"/><ellipse cx="115.5" cy="683.4316" fill="#84BE84" rx="3" ry="3" style="stroke:#038048;stroke-width:1.0;"/><text fill="#000000" font-family="sans-serif" font-size="14" lengthAdjust="spacing" textLength="202" x="124.5" y="687.7285">getEntries(): List&lt;AgendaEntry&gt;</text><ellipse cx="115.5" cy="702.0527" fill="#84BE84" rx="3" ry="3" style="stroke:#038048;stroke-width:1.0;"/><text fill="#000000" font-family="sans-serif" font-size="14" lengthAdjust="spacing" textLength="223" x="124.5" y="706.3496">addEntry(entry: AgendaEntry): void</text><ellipse cx="115.5" cy="720.6738" fill="#84BE84" rx="3" ry="3" style="stroke:#038048;stroke-width:1.0;"/><text fill="#000000" font-family="sans-serif" font-size="14" lengthAdjust="spacing" textLength="246" x="124.5" y="724.9707">removeEntry(entry: AgendaEntry): void</text><ellipse cx="115.5" cy="739.2949" fill="#84BE84" rx="3" ry="3" style="stroke:#038048;stroke-width:1.0;"/><text fill="#000000" font-family="sans-serif" font-size="14" lengthAdjust="spacing" textLength="386" x="124.5" y="743.5918">updateEntry(old: AgendaEntry, newEntry: AgendaEntry): void</text></g><!--class AgendaEntry--><g id="elem_AgendaEntry"><rect codeLine="20" fill="#F1F1F1" height="383.1797" id="AgendaEntry" rx="2.5" ry="2.5" style="stroke:#181818;stroke-width:0.5;" width="285" x="168" y="811"/><ellipse cx="265.25" cy="827" fill="#ADD1B2" rx="11" ry="11" style="stroke:#181818;stroke-width:1.0;"/><path d="M268.0156,822.875 Q268.1719,822.6563 268.3594,822.5469 Q268.5469,822.4375 268.7656,822.4375 Q269.1406,822.4375 269.375,822.7031 Q269.6094,822.9531 269.6094,823.5625 L269.6094,825.0156 Q269.6094,825.625 269.375,825.8906 Q269.1406,826.1563 268.7656,826.1563 Q268.4219,826.1563 268.2188,825.9531 Q268.0156,825.7656 267.9063,825.25 Q267.8594,824.8906 267.6719,824.7031 Q267.3438,824.3281 266.7344,824.1094 Q266.125,823.8906 265.5,823.8906 Q264.7344,823.8906 264.0938,824.2188 Q263.4688,824.5469 262.9688,825.2969 Q262.4844,826.0469 262.4844,827.0781 L262.4844,828.1719 Q262.4844,829.4063 263.375,830.2344 Q264.2656,831.0469 265.8594,831.0469 Q266.7969,831.0469 267.4531,830.7969 Q267.8438,830.6406 268.2656,830.2031 Q268.5313,829.9375 268.6719,829.8594 Q268.8281,829.7813 269.0313,829.7813 Q269.3594,829.7813 269.6094,830.0469 Q269.875,830.2969 269.875,830.6406 Q269.875,830.9844 269.5313,831.3906 Q269.0313,831.9688 268.2344,832.2969 Q267.1563,832.75 265.8594,832.75 Q264.3438,832.75 263.1406,832.125 Q262.1563,831.625 261.4688,830.5625 Q260.7813,829.4844 260.7813,828.2031 L260.7813,827.0469 Q260.7813,825.7188 261.3906,824.5781 Q262.0156,823.4219 263.1094,822.8125 Q264.2031,822.1875 265.4375,822.1875 Q266.1719,822.1875 266.8125,822.3594 Q267.4688,822.5156 268.0156,822.875 Z " fill="#000000"/><text fill="#000000" font-family="sans-serif" font-size="14" lengthAdjust="spacing" textLength="82" x="285.75" y="832.7969">AgendaEntry</text><line style="stroke:#181818;stroke-width:0.5;" x1="169" x2="452" y1="843" y2="843"/><rect fill="none" height="6" style="stroke:#C82930;stroke-width:1.0;" width="6" x="176" y="854.8105"/><text fill="#000000" font-family="sans-serif" font-size="14" lengthAdjust="spacing" textLength="75" x="188" y="862.1074">team: Team</text><rect fill="none" height="6" style="stroke:#C82930;stroke-width:1.0;" width="6" x="176" y="873.4316"/><text fill="#000000" font-family="sans-serif" font-size="14" lengthAdjust="spacing" textLength="143" x="188" y="880.7285">vehicles: List&lt;Vehicle&gt;</text><rect fill="none" height="6" style="stroke:#C82930;stroke-width:1.0;" width="6" x="176" y="892.0527"/><text fill="#000000" font-family="sans-serif" font-size="14" lengthAdjust="spacing" textLength="97" x="188" y="899.3496">duration: String</text><rect fill="none" height="6" style="stroke:#C82930;stroke-width:1.0;" width="6" x="176" y="910.6738"/><text fill="#000000" font-family="sans-serif" font-size="14" lengthAdjust="spacing" textLength="86" x="188" y="917.9707">status: Status</text><rect fill="none" height="6" style="stroke:#C82930;stroke-width:1.0;" width="6" x="176" y="929.2949"/><text fill="#000000" font-family="sans-serif" font-size="14" lengthAdjust="spacing" textLength="73" x="188" y="936.5918">entry: Entry</text><rect fill="none" height="6" style="stroke:#C82930;stroke-width:1.0;" width="6" x="176" y="947.916"/><text fill="#000000" font-family="sans-serif" font-size="14" lengthAdjust="spacing" textLength="66" x="188" y="955.2129">date: Date</text><line style="stroke:#181818;stroke-width:0.5;" x1="169" x2="452" y1="962.7266" y2="962.7266"/><ellipse cx="179" cy="977.5371" fill="#84BE84" rx="3" ry="3" style="stroke:#038048;stroke-width:1.0;"/><text fill="#000000" font-family="sans-serif" font-size="14" lengthAdjust="spacing" textLength="110" x="188" y="981.834">getTeam(): Team</text><ellipse cx="179" cy="996.1582" fill="#84BE84" rx="3" ry="3" style="stroke:#038048;stroke-width:1.0;"/><text fill="#000000" font-family="sans-serif" font-size="14" lengthAdjust="spacing" textLength="104" x="188" y="1000.4551">getEntry(): Entry</text><ellipse cx="179" cy="1014.7793" fill="#84BE84" rx="3" ry="3" style="stroke:#038048;stroke-width:1.0;"/><text fill="#000000" font-family="sans-serif" font-size="14" lengthAdjust="spacing" textLength="169" x="188" y="1019.0762">setEntry(entry: Entry): void</text><ellipse cx="179" cy="1033.4004" fill="#84BE84" rx="3" ry="3" style="stroke:#038048;stroke-width:1.0;"/><text fill="#000000" font-family="sans-serif" font-size="14" lengthAdjust="spacing" textLength="174" x="188" y="1037.6973">setTeam(team: Team): void</text><ellipse cx="179" cy="1052.0215" fill="#84BE84" rx="3" ry="3" style="stroke:#038048;stroke-width:1.0;"/><text fill="#000000" font-family="sans-serif" font-size="14" lengthAdjust="spacing" textLength="175" x="188" y="1056.3184">getVehicles(): List&lt;Vehicle&gt;</text><ellipse cx="179" cy="1070.6426" fill="#84BE84" rx="3" ry="3" style="stroke:#038048;stroke-width:1.0;"/><text fill="#000000" font-family="sans-serif" font-size="14" lengthAdjust="spacing" textLength="259" x="188" y="1074.9395">setVehicles(vehicles: List&lt;Vehicle&gt;): void</text><ellipse cx="179" cy="1089.2637" fill="#84BE84" rx="3" ry="3" style="stroke:#038048;stroke-width:1.0;"/><text fill="#000000" font-family="sans-serif" font-size="14" lengthAdjust="spacing" textLength="118" x="188" y="1093.5605">getStatus(): Status</text><ellipse cx="179" cy="1107.8848" fill="#84BE84" rx="3" ry="3" style="stroke:#038048;stroke-width:1.0;"/><text fill="#000000" font-family="sans-serif" font-size="14" lengthAdjust="spacing" textLength="189" x="188" y="1112.1816">setStatus(status: Status): void</text><ellipse cx="179" cy="1126.5059" fill="#84BE84" rx="3" ry="3" style="stroke:#038048;stroke-width:1.0;"/><text fill="#000000" font-family="sans-serif" font-size="14" lengthAdjust="spacing" textLength="129" x="188" y="1130.8027">getDuration(): String</text><ellipse cx="179" cy="1145.127" fill="#84BE84" rx="3" ry="3" style="stroke:#038048;stroke-width:1.0;"/><text fill="#000000" font-family="sans-serif" font-size="14" lengthAdjust="spacing" textLength="214" x="188" y="1149.4238">setDuration(duration: String): void</text><ellipse cx="179" cy="1163.748" fill="#84BE84" rx="3" ry="3" style="stroke:#038048;stroke-width:1.0;"/><text fill="#000000" font-family="sans-serif" font-size="14" lengthAdjust="spacing" textLength="212" x="188" y="1168.0449">addVehicle(vehicle: Vehicle): void</text><ellipse cx="179" cy="1182.3691" fill="#84BE84" rx="3" ry="3" style="stroke:#038048;stroke-width:1.0;"/><text fill="#000000" font-family="sans-serif" font-size="14" lengthAdjust="spacing" textLength="235" x="188" y="1186.666">removeVehicle(vehicle: Vehicle): void</text></g><!--class AgendaController--><g id="elem_AgendaController"><rect codeLine="41" fill="#F1F1F1" height="271.4531" id="AgendaController" rx="2.5" ry="2.5" style="stroke:#181818;stroke-width:0.5;" width="607" x="7" y="134"/><ellipse cx="250.75" cy="150" fill="#ADD1B2" rx="11" ry="11" style="stroke:#181818;stroke-width:1.0;"/><path d="M253.5156,145.875 Q253.6719,145.6563 253.8594,145.5469 Q254.0469,145.4375 254.2656,145.4375 Q254.6406,145.4375 254.875,145.7031 Q255.1094,145.9531 255.1094,146.5625 L255.1094,148.0156 Q255.1094,148.625 254.875,148.8906 Q254.6406,149.1563 254.2656,149.1563 Q253.9219,149.1563 253.7188,148.9531 Q253.5156,148.7656 253.4063,148.25 Q253.3594,147.8906 253.1719,147.7031 Q252.8438,147.3281 252.2344,147.1094 Q251.625,146.8906 251,146.8906 Q250.2344,146.8906 249.5938,147.2188 Q248.9688,147.5469 248.4688,148.2969 Q247.9844,149.0469 247.9844,150.0781 L247.9844,151.1719 Q247.9844,152.4063 248.875,153.2344 Q249.7656,154.0469 251.3594,154.0469 Q252.2969,154.0469 252.9531,153.7969 Q253.3438,153.6406 253.7656,153.2031 Q254.0313,152.9375 254.1719,152.8594 Q254.3281,152.7813 254.5313,152.7813 Q254.8594,152.7813 255.1094,153.0469 Q255.375,153.2969 255.375,153.6406 Q255.375,153.9844 255.0313,154.3906 Q254.5313,154.9688 253.7344,155.2969 Q252.6563,155.75 251.3594,155.75 Q249.8438,155.75 248.6406,155.125 Q247.6563,154.625 246.9688,153.5625 Q246.2813,152.4844 246.2813,151.2031 L246.2813,150.0469 Q246.2813,148.7188 246.8906,147.5781 Q247.5156,146.4219 248.6094,145.8125 Q249.7031,145.1875 250.9375,145.1875 Q251.6719,145.1875 252.3125,145.3594 Q252.9688,145.5156 253.5156,145.875 Z " fill="#000000"/><text fill="#000000" font-family="sans-serif" font-size="14" lengthAdjust="spacing" textLength="111" x="271.25" y="155.7969">AgendaController</text><line style="stroke:#181818;stroke-width:0.5;" x1="8" x2="613" y1="166" y2="166"/><rect fill="none" height="6" style="stroke:#C82930;stroke-width:1.0;" width="6" x="15" y="177.8105"/><text fill="#000000" font-family="sans-serif" font-size="14" lengthAdjust="spacing" textLength="105" x="27" y="185.1074">agenda: Agenda</text><line style="stroke:#181818;stroke-width:0.5;" x1="8" x2="613" y1="192.6211" y2="192.6211"/><ellipse cx="18" cy="207.4316" fill="#84BE84" rx="3" ry="3" style="stroke:#038048;stroke-width:1.0;"/><text fill="#000000" font-family="sans-serif" font-size="14" lengthAdjust="spacing" textLength="388" x="27" y="211.7285">postponeEntry(entry: AgendaEntry, date: Date): AgendaEntry</text><ellipse cx="18" cy="226.0527" fill="#84BE84" rx="3" ry="3" style="stroke:#038048;stroke-width:1.0;"/><text fill="#000000" font-family="sans-serif" font-size="14" lengthAdjust="spacing" textLength="223" x="27" y="230.3496">addEntry(entry: AgendaEntry): void</text><ellipse cx="18" cy="244.6738" fill="#84BE84" rx="3" ry="3" style="stroke:#038048;stroke-width:1.0;"/><text fill="#000000" font-family="sans-serif" font-size="14" lengthAdjust="spacing" textLength="246" x="27" y="248.9707">removeEntry(entry: AgendaEntry): void</text><ellipse cx="18" cy="263.2949" fill="#84BE84" rx="3" ry="3" style="stroke:#038048;stroke-width:1.0;"/><text fill="#000000" font-family="sans-serif" font-size="14" lengthAdjust="spacing" textLength="136" x="27" y="267.5918">getAgenda(): Agenda</text><ellipse cx="18" cy="281.916" fill="#84BE84" rx="3" ry="3" style="stroke:#038048;stroke-width:1.0;"/><text fill="#000000" font-family="sans-serif" font-size="14" lengthAdjust="spacing" textLength="376" x="27" y="286.2129">assignTeamToEntry(team: Team, entry: AgendaEntry): void</text><ellipse cx="18" cy="300.5371" fill="#84BE84" rx="3" ry="3" style="stroke:#038048;stroke-width:1.0;"/><text fill="#000000" font-family="sans-serif" font-size="14" lengthAdjust="spacing" textLength="497" x="27" y="304.834">addVehiclesToAgendaEntry(agendaEntry: AgendaEntry, vehicle: Vehicle): void</text><ellipse cx="18" cy="319.1582" fill="#84BE84" rx="3" ry="3" style="stroke:#038048;stroke-width:1.0;"/><text fill="#000000" font-family="sans-serif" font-size="14" lengthAdjust="spacing" textLength="581" x="27" y="323.4551">removeVehiclesFromAgendaEntry(agendaEntry: AgendaEntry, vehicles: List&lt;Vehicle&gt;): void</text><ellipse cx="18" cy="337.7793" fill="#84BE84" rx="3" ry="3" style="stroke:#038048;stroke-width:1.0;"/><text fill="#000000" font-family="sans-serif" font-size="14" lengthAdjust="spacing" textLength="289" x="27" y="342.0762">cancelAgendaEntry(entry: AgendaEntry): void</text><ellipse cx="18" cy="356.4004" fill="#84BE84" rx="3" ry="3" style="stroke:#038048;stroke-width:1.0;"/><text fill="#000000" font-family="sans-serif" font-size="14" lengthAdjust="spacing" textLength="520" x="27" y="360.6973">getVehiclesNotAssignedToAnyAgendaEntry(vehicles: List&lt;Vehicle&gt;): List&lt;Vehicle&gt;</text><ellipse cx="18" cy="375.0215" fill="#84BE84" rx="3" ry="3" style="stroke:#038048;stroke-width:1.0;"/><text fill="#000000" font-family="sans-serif" font-size="14" lengthAdjust="spacing" textLength="454" x="27" y="379.3184">getVehiclesAssignedToAgendaEntry(entry: AgendaEntry): List&lt;Vehicle&gt;</text><ellipse cx="18" cy="393.6426" fill="#84BE84" rx="3" ry="3" style="stroke:#038048;stroke-width:1.0;"/><text fill="#000000" font-family="sans-serif" font-size="14" lengthAdjust="spacing" textLength="355" x="27" y="397.9395">updateVehicle(vehicle: Vehicle, date: Date, km: int): void</text></g><!--link CompleteTaskStatusUI to AgendaController--><g id="link_CompleteTaskStatusUI_AgendaController"><path codeLine="57" d="M310.5,74.02 C310.5,90.45 310.5,105.6 310.5,127.88 " fill="none" id="CompleteTaskStatusUI-to-AgendaController" style="stroke:#181818;stroke-width:1.0;"/><polygon fill="#181818" points="310.5,133.88,314.5,124.88,310.5,128.88,306.5,124.88,310.5,133.88" style="stroke:#181818;stroke-width:1.0;"/></g><!--link AgendaController to Repositories--><g id="link_AgendaController_Repositories"><path codeLine="58" d="M310.5,405.05 C310.5,426.78 310.5,441.76 310.5,458.94 " fill="none" id="AgendaController-to-Repositories" style="stroke:#181818;stroke-width:1.0;"/><polygon fill="#181818" points="310.5,464.94,314.5,455.94,310.5,459.94,306.5,455.94,310.5,464.94" style="stroke:#181818;stroke-width:1.0;"/></g><!--link Repositories to Agenda--><g id="link_Repositories_Agenda"><path codeLine="59" d="M310.5,550.33 C310.5,568.23 310.5,583.61 310.5,603.78 " fill="none" id="Repositories-to-Agenda" style="stroke:#181818;stroke-width:1.0;"/><polygon fill="#181818" points="310.5,609.78,314.5,600.78,310.5,604.78,306.5,600.78,310.5,609.78" style="stroke:#181818;stroke-width:1.0;"/></g><!--link Agenda to AgendaEntry--><g id="link_Agenda_AgendaEntry"><path codeLine="60" d="M310.5,751.33 C310.5,769.44 310.5,783.85 310.5,804.99 " fill="none" id="Agenda-to-AgendaEntry" style="stroke:#181818;stroke-width:1.0;"/><polygon fill="#181818" points="310.5,810.99,314.5,801.99,310.5,805.99,306.5,801.99,310.5,810.99" style="stroke:#181818;stroke-width:1.0;"/></g><!--SRC=[jLN9JkGm4BtdAtoRHdJeUuIG4FH8I8Z3qCpTYgrWuTXHN6dK6is_Z_Sb93GS9eSahkLLrVDpykCLO53DRZTmB63g-LKh-rtBiL8rORWRSLzLTedkP3zm2lI0rTipO9ZKomFwKo5zrUCaDXSDEaf6ghyXuHSTf68WHqQL3xpiA3m81LYqr2Ja8J7WjgE2OEDsRmdHhKDHAi3aDUYHARXslhssdMuYrDw56AoL84o8NMuCsYcKjAOma8qRQI-Fz4kXqq0m-539IH6uHOA-xrVpPvDQNnWNAEuRTD1tjpxILzRoEFzljtHZrMGQCJ0f6lIi6H2TiogxRSPcdeb5tOmjvNDrzmswr_V8ewbgI8pL0xadOqsvbogOSzY27UNHqZY5M-FwITAk5QCPW1Ynmi4SqSrhyBB93P1tbBpCi-yzbou_icdoeslETu6XDUOx2mqto1iMD7OkTAQHEwafbfpJCGW5MtiyFHPQ7pCOf5WLy1QbNRyeFF_jc2oTT5TBATO9euo3T4X9Arjq1ZLnhGuo2zhWz3wR_EjxedwEilyMwAVARCrdaETuvoaBdJn9kBKyKQBd5ASSPRtsmd7AC3F0Spqj0BdFtffwSu5jqPlUJYOWatIr-7kfwviFCgy-wDv45N-Iui-JC7ncPd4ArzS_]--></g></svg>