<?xml version="1.0" encoding="us-ascii" standalone="no"?><svg xmlns="http://www.w3.org/2000/svg" xmlns:xlink="http://www.w3.org/1999/xlink" contentStyleType="text/css" height="481px" preserveAspectRatio="none" style="width:1034px;height:481px;background:#FFFFFF;" version="1.1" viewBox="0 0 1034 481" width="1034px" zoomAndPan="magnify"><defs/><g><rect fill="#FFFFFF" height="295.6191" style="stroke:#181818;stroke-width:1.0;" width="10" x="42" y="93.6211"/><rect fill="#FFFFFF" height="263.3281" style="stroke:#181818;stroke-width:1.0;" width="10" x="332" y="116.9121"/><rect fill="#FFFFFF" height="31.291" style="stroke:#181818;stroke-width:1.0;" width="10" x="788" y="148.2031"/><rect fill="#FFFFFF" height="31.291" style="stroke:#181818;stroke-width:1.0;" width="10" x="880" y="210.7852"/><rect fill="#FFFFFF" height="31.291" style="stroke:#181818;stroke-width:1.0;" width="10" x="973.5" y="317.6582"/><line style="stroke:#181818;stroke-width:0.5;stroke-dasharray:5.0,5.0;" x1="47" x2="47" y1="83.6211" y2="398.2402"/><line style="stroke:#181818;stroke-width:0.5;stroke-dasharray:5.0,5.0;" x1="336.5" x2="336.5" y1="83.6211" y2="398.2402"/><line style="stroke:#181818;stroke-width:0.5;stroke-dasharray:5.0,5.0;" x1="792.5" x2="792.5" y1="83.6211" y2="398.2402"/><line style="stroke:#181818;stroke-width:0.5;stroke-dasharray:5.0,5.0;" x1="884.5" x2="884.5" y1="83.6211" y2="398.2402"/><line style="stroke:#181818;stroke-width:0.5;stroke-dasharray:5.0,5.0;" x1="978.5" x2="978.5" y1="83.6211" y2="398.2402"/><text fill="#000000" font-family="sans-serif" font-size="14" lengthAdjust="spacing" textLength="78" x="5" y="80.1074">Collaborator</text><ellipse cx="47" cy="13.5" fill="#E3E3E3" rx="8" ry="8" style="stroke:#181818;stroke-width:0.5;"/><path d="M47,21.5 L47,48.5 M34,29.5 L60,29.5 M47,48.5 L34,63.5 M47,48.5 L60,63.5 " fill="none" style="stroke:#181818;stroke-width:0.5;"/><text fill="#000000" font-family="sans-serif" font-size="14" lengthAdjust="spacing" textLength="78" x="5" y="412.3477">Collaborator</text><ellipse cx="47" cy="424.3613" fill="#E3E3E3" rx="8" ry="8" style="stroke:#181818;stroke-width:0.5;"/><path d="M47,432.3613 L47,459.3613 M34,440.3613 L60,440.3613 M47,459.3613 L34,474.3613 M47,459.3613 L60,474.3613 " fill="none" style="stroke:#181818;stroke-width:0.5;"/><rect fill="#E3E3E3" height="32.6211" rx="2.5" ry="2.5" style="stroke:#181818;stroke-width:0.5;" width="161" x="256.5" y="50"/><text fill="#000000" font-family="sans-serif" font-size="14" lengthAdjust="spacing" textLength="147" x="263.5" y="72.1074">:CompleteTaskStatusUI</text><rect fill="#E3E3E3" height="32.6211" rx="2.5" ry="2.5" style="stroke:#181818;stroke-width:0.5;" width="161" x="256.5" y="397.2402"/><text fill="#000000" font-family="sans-serif" font-size="14" lengthAdjust="spacing" textLength="147" x="263.5" y="419.3477">:CompleteTaskStatusUI</text><rect fill="#E3E3E3" height="32.6211" rx="2.5" ry="2.5" style="stroke:#181818;stroke-width:0.5;" width="97" x="744.5" y="50"/><text fill="#000000" font-family="sans-serif" font-size="14" lengthAdjust="spacing" textLength="83" x="751.5" y="72.1074">:Repositories</text><rect fill="#E3E3E3" height="32.6211" rx="2.5" ry="2.5" style="stroke:#181818;stroke-width:0.5;" width="97" x="744.5" y="397.2402"/><text fill="#000000" font-family="sans-serif" font-size="14" lengthAdjust="spacing" textLength="83" x="751.5" y="419.3477">:Repositories</text><rect fill="#E3E3E3" height="32.6211" rx="2.5" ry="2.5" style="stroke:#181818;stroke-width:0.5;" width="67" x="851.5" y="50"/><text fill="#000000" font-family="sans-serif" font-size="14" lengthAdjust="spacing" textLength="53" x="858.5" y="72.1074">:Agenda</text><rect fill="#E3E3E3" height="32.6211" rx="2.5" ry="2.5" style="stroke:#181818;stroke-width:0.5;" width="67" x="851.5" y="397.2402"/><text fill="#000000" font-family="sans-serif" font-size="14" lengthAdjust="spacing" textLength="53" x="858.5" y="419.3477">:Agenda</text><rect fill="#E3E3E3" height="32.6211" rx="2.5" ry="2.5" style="stroke:#181818;stroke-width:0.5;" width="100" x="928.5" y="50"/><text fill="#000000" font-family="sans-serif" font-size="14" lengthAdjust="spacing" textLength="86" x="935.5" y="72.1074">:AgendaEntry</text><rect fill="#E3E3E3" height="32.6211" rx="2.5" ry="2.5" style="stroke:#181818;stroke-width:0.5;" width="100" x="928.5" y="397.2402"/><text fill="#000000" font-family="sans-serif" font-size="14" lengthAdjust="spacing" textLength="86" x="935.5" y="419.3477">:AgendaEntry</text><rect fill="#FFFFFF" height="295.6191" style="stroke:#181818;stroke-width:1.0;" width="10" x="42" y="93.6211"/><rect fill="#FFFFFF" height="263.3281" style="stroke:#181818;stroke-width:1.0;" width="10" x="332" y="116.9121"/><rect fill="#FFFFFF" height="31.291" style="stroke:#181818;stroke-width:1.0;" width="10" x="788" y="148.2031"/><rect fill="#FFFFFF" height="31.291" style="stroke:#181818;stroke-width:1.0;" width="10" x="880" y="210.7852"/><rect fill="#FFFFFF" height="31.291" style="stroke:#181818;stroke-width:1.0;" width="10" x="973.5" y="317.6582"/><polygon fill="#181818" points="320,112.9121,330,116.9121,320,120.9121,324,116.9121" style="stroke:#181818;stroke-width:1.0;"/><line style="stroke:#181818;stroke-width:1.0;" x1="52" x2="326" y1="116.9121" y2="116.9121"/><text fill="#000000" font-family="sans-serif" font-size="13" font-weight="bold" lengthAdjust="spacing" textLength="7" x="59" y="111.6494">1</text><text fill="#000000" font-family="sans-serif" font-size="13" lengthAdjust="spacing" textLength="26" x="70" y="111.6494">run()</text><polygon fill="#181818" points="776,144.2031,786,148.2031,776,152.2031,780,148.2031" style="stroke:#181818;stroke-width:1.0;"/><line style="stroke:#181818;stroke-width:1.0;" x1="342" x2="782" y1="148.2031" y2="148.2031"/><text fill="#000000" font-family="sans-serif" font-size="13" font-weight="bold" lengthAdjust="spacing" textLength="7" x="349" y="142.9404">2</text><text fill="#000000" font-family="sans-serif" font-size="13" lengthAdjust="spacing" textLength="75" x="360" y="142.9404">getInstance()</text><polygon fill="#181818" points="353,175.4941,343,179.4941,353,183.4941,349,179.4941" style="stroke:#181818;stroke-width:1.0;"/><line style="stroke:#181818;stroke-width:1.0;stroke-dasharray:2.0,2.0;" x1="347" x2="792" y1="179.4941" y2="179.4941"/><text fill="#000000" font-family="sans-serif" font-size="13" font-weight="bold" lengthAdjust="spacing" textLength="7" x="359" y="174.2314">3</text><text fill="#000000" font-family="sans-serif" font-size="13" lengthAdjust="spacing" textLength="49" x="370" y="174.2314">instance</text><polygon fill="#181818" points="868,206.7852,878,210.7852,868,214.7852,872,210.7852" style="stroke:#181818;stroke-width:1.0;"/><line style="stroke:#181818;stroke-width:1.0;" x1="342" x2="874" y1="210.7852" y2="210.7852"/><text fill="#000000" font-family="sans-serif" font-size="13" font-weight="bold" lengthAdjust="spacing" textLength="7" x="349" y="205.5225">4</text><text fill="#000000" font-family="sans-serif" font-size="13" lengthAdjust="spacing" textLength="67" x="360" y="205.5225">getEntries()</text><polygon fill="#181818" points="353,238.0762,343,242.0762,353,246.0762,349,242.0762" style="stroke:#181818;stroke-width:1.0;"/><line style="stroke:#181818;stroke-width:1.0;stroke-dasharray:2.0,2.0;" x1="347" x2="884" y1="242.0762" y2="242.0762"/><text fill="#000000" font-family="sans-serif" font-size="13" font-weight="bold" lengthAdjust="spacing" textLength="7" x="359" y="236.8135">5</text><text fill="#000000" font-family="sans-serif" font-size="13" lengthAdjust="spacing" textLength="39" x="370" y="236.8135">entries</text><line style="stroke:#181818;stroke-width:1.0;" x1="342" x2="384" y1="273.3672" y2="273.3672"/><line style="stroke:#181818;stroke-width:1.0;" x1="384" x2="384" y1="273.3672" y2="286.3672"/><line style="stroke:#181818;stroke-width:1.0;" x1="343" x2="384" y1="286.3672" y2="286.3672"/><polygon fill="#181818" points="353,282.3672,343,286.3672,353,290.3672,349,286.3672" style="stroke:#181818;stroke-width:1.0;"/><text fill="#000000" font-family="sans-serif" font-size="13" font-weight="bold" lengthAdjust="spacing" textLength="7" x="349" y="268.1045">6</text><text fill="#000000" font-family="sans-serif" font-size="13" lengthAdjust="spacing" textLength="421" x="360" y="268.1045">showAndSelectIndex(entries, "Select the task that has been completed")</text><polygon fill="#181818" points="961.5,313.6582,971.5,317.6582,961.5,321.6582,965.5,317.6582" style="stroke:#181818;stroke-width:1.0;"/><line style="stroke:#181818;stroke-width:1.0;" x1="342" x2="967.5" y1="317.6582" y2="317.6582"/><text fill="#000000" font-family="sans-serif" font-size="13" font-weight="bold" lengthAdjust="spacing" textLength="7" x="349" y="312.3955">7</text><text fill="#000000" font-family="sans-serif" font-size="13" lengthAdjust="spacing" textLength="143" x="360" y="312.3955">setStatus(Status.DONE)</text><polygon fill="#181818" points="353,344.9492,343,348.9492,353,352.9492,349,348.9492" style="stroke:#181818;stroke-width:1.0;"/><line style="stroke:#181818;stroke-width:1.0;stroke-dasharray:2.0,2.0;" x1="347" x2="977.5" y1="348.9492" y2="348.9492"/><text fill="#000000" font-family="sans-serif" font-size="13" font-weight="bold" lengthAdjust="spacing" textLength="7" x="359" y="343.6865">8</text><text fill="#000000" font-family="sans-serif" font-size="13" lengthAdjust="spacing" textLength="86" x="370" y="343.6865">status updated</text><polygon fill="#181818" points="63,376.2402,53,380.2402,63,384.2402,59,380.2402" style="stroke:#181818;stroke-width:1.0;"/><line style="stroke:#181818;stroke-width:1.0;stroke-dasharray:2.0,2.0;" x1="57" x2="336" y1="380.2402" y2="380.2402"/><text fill="#000000" font-family="sans-serif" font-size="13" font-weight="bold" lengthAdjust="spacing" textLength="7" x="69" y="374.9775">9</text><text fill="#000000" font-family="sans-serif" font-size="13" lengthAdjust="spacing" textLength="245" x="80" y="374.9775">"Task status has been updated to DONE."</text><!--SRC=[RPBBJiCm44Nt-OfHDhGIRVSLGefA5js0rCS7JEqXiUhOmPvG-lTC7e0BR99nvjoRcvdSrSnjNAzMhKN7NMENoZUhI6yTEKKBRR0As6JnR5oBKa7ZdLTry0q1XuwIJelgZ1Nj-Me90Yb6LzaKY3LgVp6kWbUqaR8CE_QkQquKf5Ri0-GRRosUV40vvPdes2ZJIZJ8rnlVj9QO3XZFUqRkud6R0qRO7FR7xIzuHwsFHbmCnG7Q_GAAYfp6eLNysoeTX-lOBuTyvXsP84sOfGTOF8v9rX0wDvidaY7VSEsXtHegugsBCY55ARYRe8V5egVCX6IQ_Y3YKmm-VKpvnjIcI6m4ef58NOeVbobohFsbS7fFLZQtTPe-PfFk7lBnAN0jIvVXIu4CjKpcHEH0JNlH-Jm9LuedyRYdsNXRFhqybsdECWtQ2mOCkbPBMzy4BczdtIkcv7d_Ftn9lqDD7i0U-hSkyzHjK7u2]--></g></svg>