<?xml version="1.0" encoding="us-ascii" standalone="no"?><svg xmlns="http://www.w3.org/2000/svg" xmlns:xlink="http://www.w3.org/1999/xlink" contentStyleType="text/css" height="356px" preserveAspectRatio="none" style="width:847px;height:356px;background:#FFFFFF;" version="1.1" viewBox="0 0 847 356" width="847px" zoomAndPan="magnify"><defs/><g><rect fill="#FFFFFF" height="191.4063" style="stroke:#181818;stroke-width:1.0;" width="10" x="277" y="90.5332"/><rect fill="none" height="146.1152" style="stroke:#000000;stroke-width:1.5;" width="618" x="223" y="105.5332"/><rect fill="none" height="50.582" style="stroke:#000000;stroke-width:1.5;" width="277" x="554" y="194.0664"/><line style="stroke:#181818;stroke-width:0.5;stroke-dasharray:5.0,5.0;" x1="282" x2="282" y1="57.2422" y2="299.9395"/><line style="stroke:#181818;stroke-width:0.5;stroke-dasharray:5.0,5.0;" x1="585" x2="585" y1="165.9453" y2="299.9395"/><line style="stroke:#181818;stroke-width:0.5;stroke-dasharray:5.0,5.0;" x1="783" x2="783" y1="57.2422" y2="299.9395"/><rect fill="#E3E3E3" height="51.2422" rx="2.5" ry="2.5" style="stroke:#181818;stroke-width:0.5;" width="98" x="233" y="5"/><text fill="#000000" font-family="sans-serif" font-size="14" lengthAdjust="spacing" textLength="77" x="243.5" y="27.1074">organization</text><text fill="#000000" font-family="sans-serif" font-size="14" lengthAdjust="spacing" textLength="84" x="240" y="45.7285">:Organization</text><rect fill="#E3E3E3" height="51.2422" rx="2.5" ry="2.5" style="stroke:#181818;stroke-width:0.5;" width="98" x="233" y="298.9395"/><text fill="#000000" font-family="sans-serif" font-size="14" lengthAdjust="spacing" textLength="77" x="243.5" y="321.0469">organization</text><text fill="#000000" font-family="sans-serif" font-size="14" lengthAdjust="spacing" textLength="84" x="240" y="339.668">:Organization</text><rect fill="#E3E3E3" height="51.2422" rx="2.5" ry="2.5" style="stroke:#181818;stroke-width:0.5;" width="43" x="564" y="298.9395"/><text fill="#000000" font-family="sans-serif" font-size="14" lengthAdjust="spacing" textLength="23" x="574" y="321.0469">skill</text><text fill="#000000" font-family="sans-serif" font-size="14" lengthAdjust="spacing" textLength="29" x="571" y="339.668">:Skill</text><rect fill="#E3E3E3" height="32.6211" rx="2.5" ry="2.5" style="stroke:#181818;stroke-width:0.5;" width="75" x="746" y="23.6211"/><text fill="#000000" font-family="sans-serif" font-size="14" lengthAdjust="spacing" textLength="61" x="753" y="45.7285">employee</text><rect fill="#E3E3E3" height="32.6211" rx="2.5" ry="2.5" style="stroke:#181818;stroke-width:0.5;" width="75" x="746" y="298.9395"/><text fill="#000000" font-family="sans-serif" font-size="14" lengthAdjust="spacing" textLength="61" x="753" y="321.0469">employee</text><rect fill="#FFFFFF" height="191.4063" style="stroke:#181818;stroke-width:1.0;" width="10" x="277" y="90.5332"/><polygon fill="#181818" points="265,86.5332,275,90.5332,265,94.5332,269,90.5332" style="stroke:#181818;stroke-width:1.0;"/><line style="stroke:#181818;stroke-width:1.0;" x1="0" x2="271" y1="90.5332" y2="90.5332"/><text fill="#000000" font-family="sans-serif" font-size="13" font-weight="bold" lengthAdjust="spacing" textLength="14" x="7" y="85.2705">16</text><text fill="#000000" font-family="sans-serif" font-size="13" lengthAdjust="spacing" textLength="240" x="25" y="85.2705">addSkillsToCollaborator(Skills, employee)</text><path d="M223,105.5332 L429,105.5332 L429,114.8242 L419,124.8242 L223,124.8242 L223,105.5332 " fill="#EEEEEE" style="stroke:#000000;stroke-width:1.5;"/><rect fill="none" height="146.1152" style="stroke:#000000;stroke-width:1.5;" width="618" x="223" y="105.5332"/><text fill="#000000" font-family="sans-serif" font-size="13" font-weight="bold" lengthAdjust="spacing" textLength="161" x="238" y="120.5615">add Skills to Collaborator</text><polygon fill="#181818" points="552,144.1152,562,148.1152,552,152.1152,556,148.1152" style="stroke:#181818;stroke-width:1.0;"/><line style="stroke:#181818;stroke-width:1.0;" x1="287" x2="558" y1="148.1152" y2="148.1152"/><text fill="#000000" font-family="sans-serif" font-size="13" font-weight="bold" lengthAdjust="spacing" textLength="25" x="294" y="142.8525">16.1</text><text fill="#000000" font-family="sans-serif" font-size="13" lengthAdjust="spacing" textLength="224" x="323" y="142.8525">addSkillToEmployee (skills, employee)</text><rect fill="#E3E3E3" height="51.2422" rx="2.5" ry="2.5" style="stroke:#181818;stroke-width:0.5;" width="43" x="564" y="124.8242"/><text fill="#000000" font-family="sans-serif" font-size="14" lengthAdjust="spacing" textLength="23" x="574" y="146.9316">skill</text><text fill="#000000" font-family="sans-serif" font-size="14" lengthAdjust="spacing" textLength="29" x="571" y="165.5527">:Skill</text><path d="M554,194.0664 L627,194.0664 L627,203.3574 L617,213.3574 L554,213.3574 L554,194.0664 " fill="#EEEEEE" style="stroke:#000000;stroke-width:1.5;"/><rect fill="none" height="50.582" style="stroke:#000000;stroke-width:1.5;" width="277" x="554" y="194.0664"/><text fill="#000000" font-family="sans-serif" font-size="13" font-weight="bold" lengthAdjust="spacing" textLength="28" x="569" y="209.0947">loop</text><text fill="#000000" font-family="sans-serif" font-size="11" font-weight="bold" lengthAdjust="spacing" textLength="125" x="642" y="207.9365">[for each skill in Skills]</text><polygon fill="#181818" points="771.5,232.6484,781.5,236.6484,771.5,240.6484,775.5,236.6484" style="stroke:#181818;stroke-width:1.0;"/><line style="stroke:#181818;stroke-width:1.0;" x1="585.5" x2="777.5" y1="236.6484" y2="236.6484"/><text fill="#000000" font-family="sans-serif" font-size="13" font-weight="bold" lengthAdjust="spacing" textLength="25" x="592.5" y="231.3857">16.2</text><text fill="#000000" font-family="sans-serif" font-size="13" lengthAdjust="spacing" textLength="145" x="621.5" y="231.3857">addSkill (skill, employee)</text><polygon fill="#181818" points="11,277.9395,1,281.9395,11,285.9395,7,281.9395" style="stroke:#181818;stroke-width:1.0;"/><line style="stroke:#181818;stroke-width:1.0;stroke-dasharray:2.0,2.0;" x1="5" x2="281" y1="281.9395" y2="281.9395"/><text fill="#000000" font-family="sans-serif" font-size="13" font-weight="bold" lengthAdjust="spacing" textLength="14" x="17" y="276.6768">17</text><text fill="#000000" font-family="sans-serif" font-size="13" lengthAdjust="spacing" textLength="25" x="35" y="276.6768">task</text><!--SRC=[VL3DIWCn4BxdAOQUQd65NXIAU14HiL1mU_GopKvtmsOp8SagzUbDqjrsg-9SPZBv_XBVAcFHOGST6vQDuuuWk9w4FzrOb2tML8Q39d0a0vfQJm6-mOe_bQbXZzgJ474Tb5GMJO0PkngD-iAWsBoRrMPod05wsBmzNnAYiDOHMQQU8UNhotej1FQ1JT_joC7oLXGFYRe2hAgCz5j-PArnnmu3k_bnUGtKMSq7egiV0ZTBWJAe3moKCq2isd5lao8SsH0Ofg8Yer951iG4ETbYSKwnvQV13-R-LuAH_S-WcItisG6XR21BW393dXCgLVPE8KRzSuh1-ozhCfKOUnwcdtAND_T5aT-tWe2-5HLT_9Fu1W00]--></g></svg>