<?xml version="1.0" encoding="us-ascii" standalone="no"?><svg xmlns="http://www.w3.org/2000/svg" xmlns:xlink="http://www.w3.org/1999/xlink" contentStyleType="text/css" height="976.5px" preserveAspectRatio="none" style="width:1264px;height:976px;background:#FFFFFF;" version="1.1" viewBox="0 0 1264 976" width="1264.5px" zoomAndPan="magnify"><defs/><g><!--class ApplicationSession--><g id="elem_ApplicationSession"><rect codeLine="11" fill="#F1F1F1" height="76.718" id="ApplicationSession" rx="2.25" ry="2.25" style="stroke:#181818;stroke-width:0.45;" width="135.9" x="207.45" y="216.9"/><ellipse cx="220.95" cy="231.3" fill="#ADD1B2" rx="9.9" ry="9.9" style="stroke:#181818;stroke-width:0.9;"/><path d="M223.4391,227.5875 Q223.5797,227.3906 223.7484,227.2922 Q223.9172,227.1938 224.1141,227.1938 Q224.4516,227.1938 224.6625,227.4328 Q224.8734,227.6578 224.8734,228.2063 L224.8734,229.5141 Q224.8734,230.0625 224.6625,230.3016 Q224.4516,230.5406 224.1141,230.5406 Q223.8047,230.5406 223.6219,230.3578 Q223.4391,230.1891 223.3406,229.725 Q223.2984,229.4016 223.1297,229.2328 Q222.8344,228.8953 222.2859,228.6984 Q221.7375,228.5016 221.175,228.5016 Q220.4859,228.5016 219.9094,228.7969 Q219.3469,229.0922 218.8969,229.7672 Q218.4609,230.4422 218.4609,231.3703 L218.4609,232.3547 Q218.4609,233.4656 219.2625,234.2109 Q220.0641,234.9422 221.4984,234.9422 Q222.3422,234.9422 222.9328,234.7172 Q223.2844,234.5766 223.6641,234.1828 Q223.9031,233.9438 224.0297,233.8734 Q224.1703,233.8031 224.3531,233.8031 Q224.6484,233.8031 224.8734,234.0422 Q225.1125,234.2672 225.1125,234.5766 Q225.1125,234.8859 224.8031,235.2516 Q224.3531,235.7719 223.6359,236.0672 Q222.6656,236.475 221.4984,236.475 Q220.1344,236.475 219.0516,235.9125 Q218.1656,235.4625 217.5469,234.5063 Q216.9281,233.5359 216.9281,232.3828 L216.9281,231.3422 Q216.9281,230.1469 217.4766,229.1203 Q218.0391,228.0797 219.0234,227.5313 Q220.0078,226.9688 221.1188,226.9688 Q221.7797,226.9688 222.3563,227.1234 Q222.9469,227.2641 223.4391,227.5875 Z " fill="#000000"/><text fill="#000000" font-family="sans-serif" font-size="12.6" lengthAdjust="spacing" textLength="107.1" x="233.55" y="236.5172">ApplicationSession</text><line style="stroke:#181818;stroke-width:0.45;" x1="208.35" x2="342.45" y1="245.7" y2="245.7"/><line style="stroke:#181818;stroke-width:0.45;" x1="208.35" x2="342.45" y1="252.9" y2="252.9"/><text fill="#000000" font-family="sans-serif" font-size="12.6" lengthAdjust="spacing" textLength="115.2" x="212.85" y="270.0967">+static getInstance()</text><text fill="#000000" font-family="sans-serif" font-size="12.6" lengthAdjust="spacing" textLength="122.4" x="212.85" y="286.8557">+getCurrentSession()</text></g><!--class UserSession--><g id="elem_UserSession"><rect codeLine="17" fill="#F1F1F1" height="59.959" id="UserSession" rx="2.25" ry="2.25" style="stroke:#181818;stroke-width:0.45;" width="101.7" x="348.75" y="456.3"/><ellipse cx="363.06" cy="470.7" fill="#ADD1B2" rx="9.9" ry="9.9" style="stroke:#181818;stroke-width:0.9;"/><path d="M365.5491,466.9875 Q365.6897,466.7906 365.8584,466.6922 Q366.0272,466.5938 366.2241,466.5938 Q366.5616,466.5938 366.7725,466.8328 Q366.9834,467.0578 366.9834,467.6063 L366.9834,468.9141 Q366.9834,469.4625 366.7725,469.7016 Q366.5616,469.9406 366.2241,469.9406 Q365.9147,469.9406 365.7319,469.7578 Q365.5491,469.5891 365.4506,469.125 Q365.4084,468.8016 365.2397,468.6328 Q364.9444,468.2953 364.3959,468.0984 Q363.8475,467.9016 363.285,467.9016 Q362.5959,467.9016 362.0194,468.1969 Q361.4569,468.4922 361.0069,469.1672 Q360.5709,469.8422 360.5709,470.7703 L360.5709,471.7547 Q360.5709,472.8656 361.3725,473.6109 Q362.1741,474.3422 363.6084,474.3422 Q364.4522,474.3422 365.0428,474.1172 Q365.3944,473.9766 365.7741,473.5828 Q366.0131,473.3438 366.1397,473.2734 Q366.2803,473.2031 366.4631,473.2031 Q366.7584,473.2031 366.9834,473.4422 Q367.2225,473.6672 367.2225,473.9766 Q367.2225,474.2859 366.9131,474.6516 Q366.4631,475.1719 365.7459,475.4672 Q364.7756,475.875 363.6084,475.875 Q362.2444,475.875 361.1616,475.3125 Q360.2756,474.8625 359.6569,473.9063 Q359.0381,472.9359 359.0381,471.7828 L359.0381,470.7422 Q359.0381,469.5469 359.5866,468.5203 Q360.1491,467.4797 361.1334,466.9313 Q362.1178,466.3688 363.2288,466.3688 Q363.8897,466.3688 364.4663,466.5234 Q365.0569,466.6641 365.5491,466.9875 Z " fill="#000000"/><text fill="#000000" font-family="sans-serif" font-size="12.6" lengthAdjust="spacing" textLength="71.1" x="375.84" y="475.9172">UserSession</text><line style="stroke:#181818;stroke-width:0.45;" x1="349.65" x2="449.55" y1="485.1" y2="485.1"/><line style="stroke:#181818;stroke-width:0.45;" x1="349.65" x2="449.55" y1="492.3" y2="492.3"/><text fill="#000000" font-family="sans-serif" font-size="12.6" lengthAdjust="spacing" textLength="90.9" x="354.15" y="509.4967">+getUserEmail()</text></g><!--class Employee--><g id="elem_Employee"><rect codeLine="22" fill="#F1F1F1" height="110.2359" id="Employee" rx="2.25" ry="2.25" style="stroke:#181818;stroke-width:0.45;" width="84.6" x="641.7" y="860.4"/><ellipse cx="655.2" cy="874.8" fill="#ADD1B2" rx="9.9" ry="9.9" style="stroke:#181818;stroke-width:0.9;"/><path d="M657.6891,871.0875 Q657.8297,870.8906 657.9984,870.7922 Q658.1672,870.6938 658.3641,870.6938 Q658.7016,870.6938 658.9125,870.9328 Q659.1234,871.1578 659.1234,871.7063 L659.1234,873.0141 Q659.1234,873.5625 658.9125,873.8016 Q658.7016,874.0406 658.3641,874.0406 Q658.0547,874.0406 657.8719,873.8578 Q657.6891,873.6891 657.5906,873.225 Q657.5484,872.9016 657.3797,872.7328 Q657.0844,872.3953 656.5359,872.1984 Q655.9875,872.0016 655.425,872.0016 Q654.7359,872.0016 654.1594,872.2969 Q653.5969,872.5922 653.1469,873.2672 Q652.7109,873.9422 652.7109,874.8703 L652.7109,875.8547 Q652.7109,876.9656 653.5125,877.7109 Q654.3141,878.4422 655.7484,878.4422 Q656.5922,878.4422 657.1828,878.2172 Q657.5344,878.0766 657.9141,877.6828 Q658.1531,877.4438 658.2797,877.3734 Q658.4203,877.3031 658.6031,877.3031 Q658.8984,877.3031 659.1234,877.5422 Q659.3625,877.7672 659.3625,878.0766 Q659.3625,878.3859 659.0531,878.7516 Q658.6031,879.2719 657.8859,879.5672 Q656.9156,879.975 655.7484,879.975 Q654.3844,879.975 653.3016,879.4125 Q652.4156,878.9625 651.7969,878.0063 Q651.1781,877.0359 651.1781,875.8828 L651.1781,874.8422 Q651.1781,873.6469 651.7266,872.6203 Q652.2891,871.5797 653.2734,871.0313 Q654.2578,870.4688 655.3688,870.4688 Q656.0297,870.4688 656.6063,870.6234 Q657.1969,870.7641 657.6891,871.0875 Z " fill="#000000"/><text fill="#000000" font-family="sans-serif" font-size="12.6" lengthAdjust="spacing" textLength="55.8" x="667.8" y="880.0172">Employee</text><line style="stroke:#181818;stroke-width:0.45;" x1="642.6" x2="725.4" y1="889.2" y2="889.2"/><text fill="#000000" font-family="sans-serif" font-size="12.6" lengthAdjust="spacing" textLength="36" x="647.1" y="906.3967">-name</text><text fill="#000000" font-family="sans-serif" font-size="12.6" lengthAdjust="spacing" textLength="34.2" x="647.1" y="923.1557">-email</text><text fill="#000000" font-family="sans-serif" font-size="12.6" lengthAdjust="spacing" textLength="48.6" x="647.1" y="939.9146">-position</text><text fill="#000000" font-family="sans-serif" font-size="12.6" lengthAdjust="spacing" textLength="40.5" x="647.1" y="956.6736">-phone</text><line style="stroke:#181818;stroke-width:0.45;" x1="642.6" x2="725.4" y1="963.4359" y2="963.4359"/></g><!--class Skill--><g id="elem_Skill"><rect codeLine="29" fill="#F1F1F1" height="110.2359" id="Skill" rx="2.25" ry="2.25" style="stroke:#181818;stroke-width:0.45;" width="398.7" x="735.75" y="679.5"/><ellipse cx="920.025" cy="693.9" fill="#ADD1B2" rx="9.9" ry="9.9" style="stroke:#181818;stroke-width:0.9;"/><path d="M922.5141,690.1875 Q922.6547,689.9906 922.8234,689.8922 Q922.9922,689.7938 923.1891,689.7938 Q923.5266,689.7938 923.7375,690.0328 Q923.9484,690.2578 923.9484,690.8063 L923.9484,692.1141 Q923.9484,692.6625 923.7375,692.9016 Q923.5266,693.1406 923.1891,693.1406 Q922.8797,693.1406 922.6969,692.9578 Q922.5141,692.7891 922.4156,692.325 Q922.3734,692.0016 922.2047,691.8328 Q921.9094,691.4953 921.3609,691.2984 Q920.8125,691.1016 920.25,691.1016 Q919.5609,691.1016 918.9844,691.3969 Q918.4219,691.6922 917.9719,692.3672 Q917.5359,693.0422 917.5359,693.9703 L917.5359,694.9547 Q917.5359,696.0656 918.3375,696.8109 Q919.1391,697.5422 920.5734,697.5422 Q921.4172,697.5422 922.0078,697.3172 Q922.3594,697.1766 922.7391,696.7828 Q922.9781,696.5438 923.1047,696.4734 Q923.2453,696.4031 923.4281,696.4031 Q923.7234,696.4031 923.9484,696.6422 Q924.1875,696.8672 924.1875,697.1766 Q924.1875,697.4859 923.8781,697.8516 Q923.4281,698.3719 922.7109,698.6672 Q921.7406,699.075 920.5734,699.075 Q919.2094,699.075 918.1266,698.5125 Q917.2406,698.0625 916.6219,697.1063 Q916.0031,696.1359 916.0031,694.9828 L916.0031,693.9422 Q916.0031,692.7469 916.5516,691.7203 Q917.1141,690.6797 918.0984,690.1313 Q919.0828,689.5688 920.1938,689.5688 Q920.8547,689.5688 921.4313,689.7234 Q922.0219,689.8641 922.5141,690.1875 Z " fill="#000000"/><text fill="#000000" font-family="sans-serif" font-size="12.6" lengthAdjust="spacing" textLength="22.5" x="938.475" y="699.1172">Skill</text><line style="stroke:#181818;stroke-width:0.45;" x1="736.65" x2="1133.55" y1="708.3" y2="708.3"/><text fill="#000000" font-family="sans-serif" font-size="12.6" lengthAdjust="spacing" textLength="72.9" x="741.15" y="725.4967">-String name</text><text fill="#000000" font-family="sans-serif" font-size="12.6" lengthAdjust="spacing" textLength="150.3" x="741.15" y="742.2557">-String informalDescription</text><text fill="#000000" font-family="sans-serif" font-size="12.6" lengthAdjust="spacing" textLength="155.7" x="741.15" y="759.0146">-String technicalDescription</text><line style="stroke:#181818;stroke-width:0.45;" x1="736.65" x2="1133.55" y1="765.777" y2="765.777"/><text fill="#000000" font-family="sans-serif" font-size="12.6" lengthAdjust="spacing" textLength="387.9" x="741.15" y="782.9736">+Skill(name, skillCategory, informalDescription, technicalDescription)</text></g><!--class Organization--><g id="elem_Organization"><rect codeLine="38" fill="#F1F1F1" height="244.3078" id="Organization" rx="2.25" ry="2.25" style="stroke:#181818;stroke-width:0.45;" width="476.1" x="502.65" y="364.5"/><ellipse cx="700.875" cy="378.9" fill="#ADD1B2" rx="9.9" ry="9.9" style="stroke:#181818;stroke-width:0.9;"/><path d="M703.3641,375.1875 Q703.5047,374.9906 703.6734,374.8922 Q703.8422,374.7938 704.0391,374.7938 Q704.3766,374.7938 704.5875,375.0328 Q704.7984,375.2578 704.7984,375.8063 L704.7984,377.1141 Q704.7984,377.6625 704.5875,377.9016 Q704.3766,378.1406 704.0391,378.1406 Q703.7297,378.1406 703.5469,377.9578 Q703.3641,377.7891 703.2656,377.325 Q703.2234,377.0016 703.0547,376.8328 Q702.7594,376.4953 702.2109,376.2984 Q701.6625,376.1016 701.1,376.1016 Q700.4109,376.1016 699.8344,376.3969 Q699.2719,376.6922 698.8219,377.3672 Q698.3859,378.0422 698.3859,378.9703 L698.3859,379.9547 Q698.3859,381.0656 699.1875,381.8109 Q699.9891,382.5422 701.4234,382.5422 Q702.2672,382.5422 702.8578,382.3172 Q703.2094,382.1766 703.5891,381.7828 Q703.8281,381.5438 703.9547,381.4734 Q704.0953,381.4031 704.2781,381.4031 Q704.5734,381.4031 704.7984,381.6422 Q705.0375,381.8672 705.0375,382.1766 Q705.0375,382.4859 704.7281,382.8516 Q704.2781,383.3719 703.5609,383.6672 Q702.5906,384.075 701.4234,384.075 Q700.0594,384.075 698.9766,383.5125 Q698.0906,383.0625 697.4719,382.1063 Q696.8531,381.1359 696.8531,379.9828 L696.8531,378.9422 Q696.8531,377.7469 697.4016,376.7203 Q697.9641,375.6797 698.9484,375.1313 Q699.9328,374.5688 701.0438,374.5688 Q701.7047,374.5688 702.2813,374.7234 Q702.8719,374.8641 703.3641,375.1875 Z " fill="#000000"/><text fill="#000000" font-family="sans-serif" font-size="12.6" lengthAdjust="spacing" textLength="72" x="719.325" y="384.1172">Organization</text><line style="stroke:#181818;stroke-width:0.45;" x1="503.55" x2="977.85" y1="393.3" y2="393.3"/><text fill="#000000" font-family="sans-serif" font-size="12.6" lengthAdjust="spacing" textLength="72.9" x="508.05" y="410.4967">-String name</text><text fill="#000000" font-family="sans-serif" font-size="12.6" lengthAdjust="spacing" textLength="102.6" x="508.05" y="427.2557">-String vatNumber</text><text fill="#000000" font-family="sans-serif" font-size="12.6" lengthAdjust="spacing" textLength="83.7" x="508.05" y="444.0146">-String website</text><text fill="#000000" font-family="sans-serif" font-size="12.6" lengthAdjust="spacing" textLength="77.4" x="508.05" y="460.7736">-String phone</text><text fill="#000000" font-family="sans-serif" font-size="12.6" lengthAdjust="spacing" textLength="71.1" x="508.05" y="477.5326">-String email</text><line style="stroke:#181818;stroke-width:0.45;" x1="503.55" x2="977.85" y1="484.2949" y2="484.2949"/><text fill="#000000" font-family="sans-serif" font-size="12.6" lengthAdjust="spacing" textLength="80.1" x="508.05" y="501.4916">-addSkill(Skill)</text><text fill="#000000" font-family="sans-serif" font-size="12.6" lengthAdjust="spacing" textLength="100.8" x="508.05" y="518.2506">-validateSkill(skill)</text><text fill="#000000" font-family="sans-serif" font-size="12.6" lengthAdjust="spacing" textLength="174.6" x="508.05" y="535.0096">+anyEmployeeHasEmail(email)</text><text fill="#000000" font-family="sans-serif" font-size="12.6" lengthAdjust="spacing" textLength="465.3" x="508.05" y="551.7686">+Organization(name, vatNumber, webSite, phone, email, postalAddress, manager)</text><text fill="#000000" font-family="sans-serif" font-size="12.6" lengthAdjust="spacing" textLength="425.7" x="508.05" y="568.5275">+createSkill(name, SkillCategory, informalDescription, technicalDescription)</text><text fill="#000000" font-family="sans-serif" font-size="12.6" lengthAdjust="spacing" textLength="214.2" x="508.05" y="585.2865">+addSkillToEmployee(skill, employee)</text><text fill="#000000" font-family="sans-serif" font-size="12.6" lengthAdjust="spacing" textLength="162" x="508.05" y="602.0455">-getEmployeeByEmail(email)</text></g><!--class OrganizationRepository--><g id="elem_OrganizationRepository"><rect codeLine="56" fill="#F1F1F1" height="59.959" id="OrganizationRepository" rx="2.25" ry="2.25" style="stroke:#181818;stroke-width:0.45;" width="247.5" x="638.55" y="225"/><ellipse cx="691.875" cy="239.4" fill="#ADD1B2" rx="9.9" ry="9.9" style="stroke:#181818;stroke-width:0.9;"/><path d="M694.3641,235.6875 Q694.5047,235.4906 694.6734,235.3922 Q694.8422,235.2938 695.0391,235.2938 Q695.3766,235.2938 695.5875,235.5328 Q695.7984,235.7578 695.7984,236.3063 L695.7984,237.6141 Q695.7984,238.1625 695.5875,238.4016 Q695.3766,238.6406 695.0391,238.6406 Q694.7297,238.6406 694.5469,238.4578 Q694.3641,238.2891 694.2656,237.825 Q694.2234,237.5016 694.0547,237.3328 Q693.7594,236.9953 693.2109,236.7984 Q692.6625,236.6016 692.1,236.6016 Q691.4109,236.6016 690.8344,236.8969 Q690.2719,237.1922 689.8219,237.8672 Q689.3859,238.5422 689.3859,239.4703 L689.3859,240.4547 Q689.3859,241.5656 690.1875,242.3109 Q690.9891,243.0422 692.4234,243.0422 Q693.2672,243.0422 693.8578,242.8172 Q694.2094,242.6766 694.5891,242.2828 Q694.8281,242.0438 694.9547,241.9734 Q695.0953,241.9031 695.2781,241.9031 Q695.5734,241.9031 695.7984,242.1422 Q696.0375,242.3672 696.0375,242.6766 Q696.0375,242.9859 695.7281,243.3516 Q695.2781,243.8719 694.5609,244.1672 Q693.5906,244.575 692.4234,244.575 Q691.0594,244.575 689.9766,244.0125 Q689.0906,243.5625 688.4719,242.6063 Q687.8531,241.6359 687.8531,240.4828 L687.8531,239.4422 Q687.8531,238.2469 688.4016,237.2203 Q688.9641,236.1797 689.9484,235.6313 Q690.9328,235.0688 692.0438,235.0688 Q692.7047,235.0688 693.2813,235.2234 Q693.8719,235.3641 694.3641,235.6875 Z " fill="#000000"/><text fill="#000000" font-family="sans-serif" font-size="12.6" lengthAdjust="spacing" textLength="133.2" x="710.325" y="244.6172">OrganizationRepository</text><line style="stroke:#181818;stroke-width:0.45;" x1="639.45" x2="885.15" y1="253.8" y2="253.8"/><line style="stroke:#181818;stroke-width:0.45;" x1="639.45" x2="885.15" y1="261" y2="261"/><text fill="#000000" font-family="sans-serif" font-size="12.6" lengthAdjust="spacing" textLength="236.7" x="643.95" y="278.1967">+getOrganizationByEmployeeEmail(email)</text></g><!--class Repositories--><g id="elem_Repositories"><rect codeLine="60" fill="#F1F1F1" height="110.2359" id="Repositories" rx="2.25" ry="2.25" style="stroke:#181818;stroke-width:0.45;" width="178.2" x="802.8" y="27.45"/><ellipse cx="852.525" cy="41.85" fill="#ADD1B2" rx="9.9" ry="9.9" style="stroke:#181818;stroke-width:0.9;"/><path d="M855.0141,38.1375 Q855.1547,37.9406 855.3234,37.8422 Q855.4922,37.7438 855.6891,37.7438 Q856.0266,37.7438 856.2375,37.9828 Q856.4484,38.2078 856.4484,38.7563 L856.4484,40.0641 Q856.4484,40.6125 856.2375,40.8516 Q856.0266,41.0906 855.6891,41.0906 Q855.3797,41.0906 855.1969,40.9078 Q855.0141,40.7391 854.9156,40.275 Q854.8734,39.9516 854.7047,39.7828 Q854.4094,39.4453 853.8609,39.2484 Q853.3125,39.0516 852.75,39.0516 Q852.0609,39.0516 851.4844,39.3469 Q850.9219,39.6422 850.4719,40.3172 Q850.0359,40.9922 850.0359,41.9203 L850.0359,42.9047 Q850.0359,44.0156 850.8375,44.7609 Q851.6391,45.4922 853.0734,45.4922 Q853.9172,45.4922 854.5078,45.2672 Q854.8594,45.1266 855.2391,44.7328 Q855.4781,44.4938 855.6047,44.4234 Q855.7453,44.3531 855.9281,44.3531 Q856.2234,44.3531 856.4484,44.5922 Q856.6875,44.8172 856.6875,45.1266 Q856.6875,45.4359 856.3781,45.8016 Q855.9281,46.3219 855.2109,46.6172 Q854.2406,47.025 853.0734,47.025 Q851.7094,47.025 850.6266,46.4625 Q849.7406,46.0125 849.1219,45.0563 Q848.5031,44.0859 848.5031,42.9328 L848.5031,41.8922 Q848.5031,40.6969 849.0516,39.6703 Q849.6141,38.6297 850.5984,38.0813 Q851.5828,37.5188 852.6938,37.5188 Q853.3547,37.5188 853.9313,37.6734 Q854.5219,37.8141 855.0141,38.1375 Z " fill="#000000"/><text fill="#000000" font-family="sans-serif" font-size="12.6" lengthAdjust="spacing" textLength="71.1" x="870.975" y="47.0672">Repositories</text><line style="stroke:#181818;stroke-width:0.45;" x1="803.7" x2="980.1" y1="56.25" y2="56.25"/><line style="stroke:#181818;stroke-width:0.45;" x1="803.7" x2="980.1" y1="63.45" y2="63.45"/><text fill="#000000" font-family="sans-serif" font-size="12.6" lengthAdjust="spacing" textLength="84.6" x="808.2" y="80.6467">-Repositories()</text><text fill="#000000" font-family="sans-serif" font-size="12.6" lengthAdjust="spacing" textLength="163.8" x="808.2" y="97.4057">+getInstance() : Repositories</text><text fill="#000000" font-family="sans-serif" font-size="12.6" lengthAdjust="spacing" textLength="56.7" x="808.2" y="114.1646">+getSkill()</text><text fill="#000000" font-family="sans-serif" font-size="12.6" lengthAdjust="spacing" textLength="167.4" x="808.2" y="130.9236">+getOrganizationRepository()</text></g><!--class AddSkillToACollaboratorController--><g id="elem_AddSkillToACollaboratorController"><rect codeLine="67" fill="#F1F1F1" height="126.9949" id="AddSkillToACollaboratorController" rx="2.25" ry="2.25" style="stroke:#181818;stroke-width:0.45;" width="493.2" x="216" y="18.9"/><ellipse cx="361.575" cy="33.3" fill="#ADD1B2" rx="9.9" ry="9.9" style="stroke:#181818;stroke-width:0.9;"/><path d="M364.0641,29.5875 Q364.2047,29.3906 364.3734,29.2922 Q364.5422,29.1938 364.7391,29.1938 Q365.0766,29.1938 365.2875,29.4328 Q365.4984,29.6578 365.4984,30.2063 L365.4984,31.5141 Q365.4984,32.0625 365.2875,32.3016 Q365.0766,32.5406 364.7391,32.5406 Q364.4297,32.5406 364.2469,32.3578 Q364.0641,32.1891 363.9656,31.725 Q363.9234,31.4016 363.7547,31.2328 Q363.4594,30.8953 362.9109,30.6984 Q362.3625,30.5016 361.8,30.5016 Q361.1109,30.5016 360.5344,30.7969 Q359.9719,31.0922 359.5219,31.7672 Q359.0859,32.4422 359.0859,33.3703 L359.0859,34.3547 Q359.0859,35.4656 359.8875,36.2109 Q360.6891,36.9422 362.1234,36.9422 Q362.9672,36.9422 363.5578,36.7172 Q363.9094,36.5766 364.2891,36.1828 Q364.5281,35.9438 364.6547,35.8734 Q364.7953,35.8031 364.9781,35.8031 Q365.2734,35.8031 365.4984,36.0422 Q365.7375,36.2672 365.7375,36.5766 Q365.7375,36.8859 365.4281,37.2516 Q364.9781,37.7719 364.2609,38.0672 Q363.2906,38.475 362.1234,38.475 Q360.7594,38.475 359.6766,37.9125 Q358.7906,37.4625 358.1719,36.5063 Q357.5531,35.5359 357.5531,34.3828 L357.5531,33.3422 Q357.5531,32.1469 358.1016,31.1203 Q358.6641,30.0797 359.6484,29.5313 Q360.6328,28.9688 361.7438,28.9688 Q362.4047,28.9688 362.9813,29.1234 Q363.5719,29.2641 364.0641,29.5875 Z " fill="#000000"/><text fill="#000000" font-family="sans-serif" font-size="12.6" lengthAdjust="spacing" textLength="194.4" x="380.025" y="38.5172">AddSkillToACollaboratorController</text><line style="stroke:#181818;stroke-width:0.45;" x1="216.9" x2="708.3" y1="47.7" y2="47.7"/><line style="stroke:#181818;stroke-width:0.45;" x1="216.9" x2="708.3" y1="54.9" y2="54.9"/><text fill="#000000" font-family="sans-serif" font-size="12.6" lengthAdjust="spacing" textLength="482.4" x="221.4" y="72.0967">+AddSkillToACollaboratorController(technicalSkillRepository, organizationRepository)</text><text fill="#000000" font-family="sans-serif" font-size="12.6" lengthAdjust="spacing" textLength="63" x="221.4" y="88.8557">+getSkills()</text><text fill="#000000" font-family="sans-serif" font-size="12.6" lengthAdjust="spacing" textLength="343.8" x="221.4" y="105.6146">+createSkill\(name,informalDescription, technicalDescription)</text><text fill="#000000" font-family="sans-serif" font-size="12.6" lengthAdjust="spacing" textLength="229.5" x="221.4" y="122.3736">+assignSkillToEmployee(skill, employee)</text><text fill="#000000" font-family="sans-serif" font-size="12.6" lengthAdjust="spacing" textLength="162" x="221.4" y="139.1326">-getEmployeeFromSession()</text></g><g id="elem_GMN10"><path d="M1083.6,46.8 L1083.6,118.0477 L1258.2,118.0477 L1258.2,55.8 L1249.2,46.8 L1083.6,46.8 " fill="#FEFFDD" style="stroke:#181818;stroke-width:0.45;"/><path d="M1249.2,46.8 L1249.2,55.8 L1258.2,55.8 L1249.2,46.8 " fill="#FEFFDD" style="stroke:#181818;stroke-width:0.9;"/><text fill="#000000" font-family="sans-serif" font-size="11.7" lengthAdjust="spacing" textLength="119.7" x="1089" y="63.9255">- userEmail is obtained</text><text fill="#000000" font-family="sans-serif" font-size="11.7" lengthAdjust="spacing" textLength="112.5" x="1089" y="79.4874">from the user session</text><text fill="#000000" font-family="sans-serif" font-size="11.7" lengthAdjust="spacing" textLength="110.7" x="1089" y="95.0493">- categoryDescription</text><text fill="#000000" font-family="sans-serif" font-size="11.7" lengthAdjust="spacing" textLength="155.7" x="1089" y="110.6112">is retrieved from selected data</text></g><!--class AddSkillToACollaboratorUI--><g id="elem_AddSkillToACollaboratorUI"><rect codeLine="83" fill="#F1F1F1" height="43.2" id="AddSkillToACollaboratorUI" rx="2.25" ry="2.25" style="stroke:#181818;stroke-width:0.45;" width="178.2" x="6.3" y="60.75"/><ellipse cx="19.8" cy="75.15" fill="#ADD1B2" rx="9.9" ry="9.9" style="stroke:#181818;stroke-width:0.9;"/><path d="M22.2891,71.4375 Q22.4297,71.2406 22.5984,71.1422 Q22.7672,71.0438 22.9641,71.0438 Q23.3016,71.0438 23.5125,71.2828 Q23.7234,71.5078 23.7234,72.0563 L23.7234,73.3641 Q23.7234,73.9125 23.5125,74.1516 Q23.3016,74.3906 22.9641,74.3906 Q22.6547,74.3906 22.4719,74.2078 Q22.2891,74.0391 22.1906,73.575 Q22.1484,73.2516 21.9797,73.0828 Q21.6844,72.7453 21.1359,72.5484 Q20.5875,72.3516 20.025,72.3516 Q19.3359,72.3516 18.7594,72.6469 Q18.1969,72.9422 17.7469,73.6172 Q17.3109,74.2922 17.3109,75.2203 L17.3109,76.2047 Q17.3109,77.3156 18.1125,78.0609 Q18.9141,78.7922 20.3484,78.7922 Q21.1922,78.7922 21.7828,78.5672 Q22.1344,78.4266 22.5141,78.0328 Q22.7531,77.7938 22.8797,77.7234 Q23.0203,77.6531 23.2031,77.6531 Q23.4984,77.6531 23.7234,77.8922 Q23.9625,78.1172 23.9625,78.4266 Q23.9625,78.7359 23.6531,79.1016 Q23.2031,79.6219 22.4859,79.9172 Q21.5156,80.325 20.3484,80.325 Q18.9844,80.325 17.9016,79.7625 Q17.0156,79.3125 16.3969,78.3563 Q15.7781,77.3859 15.7781,76.2328 L15.7781,75.1922 Q15.7781,73.9969 16.3266,72.9703 Q16.8891,71.9297 17.8734,71.3813 Q18.8578,70.8188 19.9688,70.8188 Q20.6297,70.8188 21.2063,70.9734 Q21.7969,71.1141 22.2891,71.4375 Z " fill="#000000"/><text fill="#000000" font-family="sans-serif" font-size="12.6" lengthAdjust="spacing" textLength="149.4" x="32.4" y="80.3672">AddSkillToACollaboratorUI</text><line style="stroke:#181818;stroke-width:0.45;" x1="7.2" x2="183.6" y1="89.55" y2="89.55"/><line style="stroke:#181818;stroke-width:0.45;" x1="7.2" x2="183.6" y1="96.75" y2="96.75"/></g><!--link AddSkillToACollaboratorController to GMN10--><g id="link_AddSkillToACollaboratorController_GMN10"><path d="M709.515,26.424 C762.201,14.49 802.35,5.4 802.35,5.4 C802.35,5.4 1052.55,5.4 1052.55,5.4 C1052.55,5.4 1084.977,26.487 1115.883,46.575 " fill="none" id="AddSkillToACollaboratorController-GMN10" style="stroke:#181818;stroke-width:0.9;stroke-dasharray:7.0,7.0;"/></g><!--link Repositories to Repositories--><g id="link_Repositories_Repositories"><path codeLine="86" d="M981.045,64.467 C999.36,66.384 1012.5,72.342 1012.5,82.35 C1012.5,92.358 1004.7307,97.7539 986.4157,99.6709 " fill="none" id="Repositories-to-Repositories" style="stroke:#181818;stroke-width:0.9;"/><polygon fill="#181818" points="981.045,100.233,989.4758,102.9702,985.5206,99.7646,988.7262,95.8094,981.045,100.233" style="stroke:#181818;stroke-width:0.9;"/><text fill="#000000" font-family="sans-serif" font-size="11.7" lengthAdjust="spacing" textLength="44.1" x="1017.9" y="87.3255">instance</text></g><!--link ApplicationSession to ApplicationSession--><g id="link_ApplicationSession_ApplicationSession"><path codeLine="87" d="M343.494,241.443 C361.35,242.253 374.85,246.825 374.85,255.15 C374.85,263.475 366.7445,267.8023 348.8885,268.6123 " fill="none" id="ApplicationSession-to-ApplicationSession" style="stroke:#181818;stroke-width:0.9;"/><polygon fill="#181818" points="343.494,268.857,351.7488,272.0862,347.9894,268.6531,351.4225,264.8936,343.494,268.857" style="stroke:#181818;stroke-width:0.9;"/><text fill="#000000" font-family="sans-serif" font-size="11.7" lengthAdjust="spacing" textLength="44.1" x="380.25" y="260.1255">instance</text></g><!--link AddSkillToACollaboratorUI to AddSkillToACollaboratorController--><g id="link_AddSkillToACollaboratorUI_AddSkillToACollaboratorController"><path codeLine="89" d="M184.68,82.35 C199.386,82.35 205.929,82.35 210.447,82.35 " fill="none" id="AddSkillToACollaboratorUI-to-AddSkillToACollaboratorController" style="stroke:#181818;stroke-width:0.9;stroke-dasharray:7.0,7.0;"/><polygon fill="#181818" points="215.847,82.35,207.747,78.75,211.347,82.35,207.747,85.95,215.847,82.35" style="stroke:#181818;stroke-width:0.9;"/></g><!--link AddSkillToACollaboratorController to Repositories--><g id="link_AddSkillToACollaboratorController_Repositories"><path codeLine="91" d="M709.218,82.35 C742.482,82.35 769.293,82.35 797.166,82.35 " fill="none" id="AddSkillToACollaboratorController-to-Repositories" style="stroke:#181818;stroke-width:0.9;stroke-dasharray:7.0,7.0;"/><polygon fill="#181818" points="802.566,82.35,794.466,78.75,798.066,82.35,794.466,85.95,802.566,82.35" style="stroke:#181818;stroke-width:0.9;"/><text fill="#000000" font-family="sans-serif" font-size="11.7" lengthAdjust="spacing" textLength="60.3" x="725.85" y="76.0755">repositories</text></g><!--link AddSkillToACollaboratorController to OrganizationRepository--><g id="link_AddSkillToACollaboratorController_OrganizationRepository"><path codeLine="94" d="M572.499,145.953 C619.776,172.926 668.0872,200.4891 706.0402,222.1521 " fill="none" id="AddSkillToACollaboratorController-to-OrganizationRepository" style="stroke:#181818;stroke-width:0.9;stroke-dasharray:7.0,7.0;"/><polygon fill="#181818" points="710.73,224.829,705.4799,217.6871,706.8218,222.5983,701.9107,223.9402,710.73,224.829" style="stroke:#181818;stroke-width:0.9;"/><text fill="#000000" font-family="sans-serif" font-size="11.7" lengthAdjust="spacing" textLength="118.8" x="649.8" y="186.3255">organizationRepository</text></g><!--link Repositories to OrganizationRepository--><g id="link_Repositories_OrganizationRepository"><path codeLine="96" d="M850.896,137.358 C828.945,166.32 806.0262,196.5587 787.8372,220.5527 " fill="none" id="Repositories-to-OrganizationRepository" style="stroke:#181818;stroke-width:0.9;"/><polygon fill="#181818" points="784.575,224.856,792.3371,220.5759,787.2935,221.2699,786.5994,216.2263,784.575,224.856" style="stroke:#181818;stroke-width:0.9;"/><text fill="#000000" font-family="sans-serif" font-size="11.7" lengthAdjust="spacing" textLength="6.3" x="782.0402" y="214.7706">1</text></g><!--link OrganizationRepository to Organization--><g id="link_OrganizationRepository_Organization"><path codeLine="98" d="M759.546,285.345 C757.611,305.892 755.3902,329.4868 752.6092,359.0248 " fill="none" id="OrganizationRepository-to-Organization" style="stroke:#181818;stroke-width:0.9;"/><polygon fill="#181818" points="752.103,364.401,756.4464,356.6741,752.5248,359.9208,749.2781,355.9992,752.103,364.401" style="stroke:#181818;stroke-width:0.9;"/><text fill="#000000" font-family="sans-serif" font-size="11.7" lengthAdjust="spacing" textLength="4.5" x="748.1322" y="354.224">*</text></g><!--link ApplicationSession to UserSession--><g id="link_ApplicationSession_UserSession"><path codeLine="99" d="M295.632,293.436 C320.238,338.904 358.6995,409.9615 381.1455,451.4515 " fill="none" id="ApplicationSession-to-UserSession" style="stroke:#181818;stroke-width:0.9;"/><polygon fill="#181818" points="383.715,456.201,383.0271,447.3638,381.5738,452.2431,376.6945,450.7897,383.715,456.201" style="stroke:#181818;stroke-width:0.9;"/><text fill="#000000" font-family="sans-serif" font-size="11.7" lengthAdjust="spacing" textLength="64.8" x="320.4" y="333.9255">userSession</text><text fill="#000000" font-family="sans-serif" font-size="11.7" lengthAdjust="spacing" textLength="6.3" x="373.6675" y="446.1245">1</text></g><!--link AddSkillToACollaboratorController to Organization--><g id="link_AddSkillToACollaboratorController_Organization"><path codeLine="101" d="M491.094,146.016 C519.201,207.945 558,293.4 558,293.4 C558,293.4 585.3112,322.1204 621.7882,360.4874 " fill="none" id="AddSkillToACollaboratorController-to-Organization" style="stroke:#181818;stroke-width:0.9;stroke-dasharray:7.0,7.0;"/><polygon fill="#181818" points="625.509,364.401,622.5369,356.0502,622.4084,361.1397,617.3188,361.0112,625.509,364.401" style="stroke:#181818;stroke-width:0.9;"/><text fill="#000000" font-family="sans-serif" font-size="11.7" lengthAdjust="spacing" textLength="63" x="558.9" y="260.1255">organization</text><text fill="#000000" font-family="sans-serif" font-size="11.7" lengthAdjust="spacing" textLength="6.3" x="612.3674" y="354.224">1</text></g><!--link AddSkillToACollaboratorController to ApplicationSession--><g id="link_AddSkillToACollaboratorController_ApplicationSession"><path codeLine="102" d="M393.957,145.953 C367.974,169.686 343.2059,192.306 320.5259,213.024 " fill="none" id="AddSkillToACollaboratorController-to-ApplicationSession" style="stroke:#181818;stroke-width:0.9;stroke-dasharray:7.0,7.0;"/><polygon fill="#181818" points="316.539,216.666,324.9474,213.8609,319.8614,213.631,320.0914,208.545,316.539,216.666" style="stroke:#181818;stroke-width:0.9;"/></g><!--link AddSkillToACollaboratorController to UserSession--><g id="link_AddSkillToACollaboratorController_UserSession"><path codeLine="103" d="M452.925,146.016 C443.376,207.945 430.2,293.4 430.2,293.4 C430.2,293.4 413.7515,396.7152 405.1655,450.6162 " fill="none" id="AddSkillToACollaboratorController-to-UserSession" style="stroke:#181818;stroke-width:0.9;stroke-dasharray:7.0,7.0;"/><polygon fill="#181818" points="404.316,455.949,409.1454,448.5162,405.0239,451.505,402.035,447.3835,404.316,455.949" style="stroke:#181818;stroke-width:0.9;"/></g><!--link Organization to Skill--><g id="link_Organization_Skill"><path codeLine="104" d="M836.478,608.625 C856.125,633.501 872.4964,654.2388 889.0924,675.2448 " fill="none" id="Organization-to-Skill" style="stroke:#181818;stroke-width:0.9;"/><polygon fill="#181818" points="892.44,679.482,890.2434,670.8945,889.6503,675.951,884.5938,675.358,892.44,679.482" style="stroke:#181818;stroke-width:0.9;"/><text fill="#000000" font-family="sans-serif" font-size="11.7" lengthAdjust="spacing" textLength="27" x="866.7" y="648.9255">skills</text><text fill="#000000" font-family="sans-serif" font-size="11.7" lengthAdjust="spacing" textLength="6.3" x="835.5331" y="628.7518">1</text><text fill="#000000" font-family="sans-serif" font-size="11.7" lengthAdjust="spacing" textLength="4.5" x="882.4666" y="669.1714">*</text></g><!--link Skill to Employee--><g id="link_Skill_Employee"><path codeLine="105" d="M859.077,789.525 C815.634,820.512 767.1552,855.0861 730.9572,880.9071 " fill="none" id="Skill-to-Employee" style="stroke:#181818;stroke-width:0.9;"/><polygon fill="#181818" points="726.561,884.043,735.2458,882.2699,730.2245,881.4298,731.0646,876.4084,726.561,884.043" style="stroke:#181818;stroke-width:0.9;"/><text fill="#000000" font-family="sans-serif" font-size="11.7" lengthAdjust="spacing" textLength="53.1" x="818.1" y="829.8255">createdBy</text></g><!--link Organization to Employee--><g id="link_Organization_Employee"><path codeLine="107" d="M698.706,608.499 C685.413,646.866 674.1,679.5 674.1,679.5 C674.1,679.5 674.1,789.3 674.1,789.3 C674.1,789.3 676.6174,821.0598 679.2904,854.8728 " fill="none" id="Organization-to-Employee" style="stroke:#181818;stroke-width:0.9;"/><polygon fill="#181818" points="679.716,860.256,682.6665,851.8975,679.3614,855.77,675.4889,852.4649,679.716,860.256" style="stroke:#181818;stroke-width:0.9;"/><text fill="#000000" font-family="sans-serif" font-size="11.7" lengthAdjust="spacing" textLength="44.1" x="675" y="739.3755">employs</text><text fill="#000000" font-family="sans-serif" font-size="11.7" lengthAdjust="spacing" textLength="4.5" x="674.4605" y="850.3224">*</text></g><!--SRC=[dLR1Rjim3BthAuHUsgnkiLrpA91a7TRB1iphRHV5PXoXicH8IWjtsB-FicHPTXqaRGw1HLBFZuyKvKlpn6N3DAjfhQGgzbhLGAq-01ay3IkUM0MvRGLG3OLbiX9fWDcpKhrmMT4T4oRr22x1jWtGHedMBSZbZ5DfgqYogn3Cc9MrccyF5XuA9NF-2lGp8PS2TfPQHJMlzfQMtD7XIXBIxQ6hfX6yOCwKWp7EyvTG_5rJOz5Sq0hiWyHdMS3L8hZGjZbe3TA6JUZvrqC-6j1JBDpWpFSruoADlQyReLe0wWDlg6GrX4TmmU6vKOPtjCDohr2PY98_SI4YH8uoeB89Kh1mkLEwPk8hc4Bp9i4B0HQAlKGrHX4afD2zvCgXPjIuvmspK2dTPdF0sInOalbFNJ79NplbJrD_PlR7eTw27fjVO8kwJ6AzE2EJbpBOM5dwNBh_HR0-Cy5BpCYxpE2wfaosVPs-C-Dhs27s0MakGQ58E7CaSoIPUMAP9vEvabecLcMfiLSoMZE9HqRta8M6ICOZvX_MF6GHqlwj-cHybewGN_TIOBFs8UjsbAuhtqpzVa7NdyYB9WsVHgoZWYEys0qHWOE9tP0QqwCt74Uw70KD8LwunJoPWMvw55THdzL62S6sIZECsIXfDQv1nznEHbx5EdHnm_iod5npF1OJvaEwIH_yyOtm_iBZAAha-sl_3KVxQBn9PI7CKRKxhK90FFHpZt93rTOo7E9bvzlX2wZTGnT2JHYPVbSH6dqwgn130nvgU8RI0nWGED9nXQUN4P0bTJp9YR8-Fc0vCQTHuztSZHjnYQVCjnfvUq-uw1bhieSSV_VjtHdwaTCjUVk6iKxFmraGY77aC2-FjEjKDbJYuil54HH2Zg1tspwDjytg7E2JUnMP7P9Rzimifnmd-Ps9ClF5SDx6zBjWHCFnwiNmL_dItx26-ALpnY-5PPW9vNeYRSH8GltnDkG_]--></g></svg>