<?xml version="1.0" encoding="us-ascii" standalone="no"?><svg xmlns="http://www.w3.org/2000/svg" xmlns:xlink="http://www.w3.org/1999/xlink" contentStyleType="text/css" height="617px" preserveAspectRatio="none" style="width:1220px;height:617px;background:#FFFFFF;" version="1.1" viewBox="0 0 1220 617" width="1220px" zoomAndPan="magnify"><defs/><g><text fill="#000000" font-family="sans-serif" font-size="14" font-weight="bold" lengthAdjust="spacing" textLength="242" x="490.5" y="30.1074">System Sequence Diagram - US006</text><rect fill="#FFFFFF" height="391.832" style="stroke:#181818;stroke-width:1.0;" width="10" x="91" y="133.2422"/><rect fill="#FFFFFF" height="31.291" style="stroke:#181818;stroke-width:1.0;" width="10" x="1019" y="156.5332"/><rect fill="#FFFFFF" height="216.0859" style="stroke:#181818;stroke-width:1.0;" width="10" x="1019" y="245.4063"/><rect fill="#FFFFFF" height="31.291" style="stroke:#181818;stroke-width:1.0;" width="10" x="1019" y="484.7832"/><rect fill="none" height="251.668" style="stroke:#000000;stroke-width:1.5;" width="1204" x="10" y="202.8242"/><rect fill="none" height="187.0859" style="stroke:#000000;stroke-width:1.5;" width="1184" x="20" y="260.4063"/><line style="stroke:#181818;stroke-width:0.5;stroke-dasharray:5.0,5.0;" x1="96" x2="96" y1="123.2422" y2="534.0742"/><line style="stroke:#181818;stroke-width:0.5;stroke-dasharray:5.0,5.0;" x1="1024" x2="1024" y1="123.2422" y2="534.0742"/><text fill="#000000" font-family="sans-serif" font-size="14" lengthAdjust="spacing" textLength="126" x="30" y="119.7285">Fleet Manager (FM)</text><ellipse cx="96" cy="53.1211" fill="#E3E3E3" rx="8" ry="8" style="stroke:#181818;stroke-width:0.5;"/><path d="M96,61.1211 L96,88.1211 M83,69.1211 L109,69.1211 M96,88.1211 L83,103.1211 M96,88.1211 L109,103.1211 " fill="none" style="stroke:#181818;stroke-width:0.5;"/><text fill="#000000" font-family="sans-serif" font-size="14" lengthAdjust="spacing" textLength="126" x="30" y="548.1816">Fleet Manager (FM)</text><ellipse cx="96" cy="560.1953" fill="#E3E3E3" rx="8" ry="8" style="stroke:#181818;stroke-width:0.5;"/><path d="M96,568.1953 L96,595.1953 M83,576.1953 L109,576.1953 M96,595.1953 L83,610.1953 M96,595.1953 L109,610.1953 " fill="none" style="stroke:#181818;stroke-width:0.5;"/><rect fill="#E3E3E3" height="32.6211" rx="2.5" ry="2.5" style="stroke:#181818;stroke-width:0.5;" width="64" x="992" y="89.6211"/><text fill="#000000" font-family="sans-serif" font-size="14" lengthAdjust="spacing" textLength="50" x="999" y="111.7285">:System</text><rect fill="#E3E3E3" height="32.6211" rx="2.5" ry="2.5" style="stroke:#181818;stroke-width:0.5;" width="64" x="992" y="533.0742"/><text fill="#000000" font-family="sans-serif" font-size="14" lengthAdjust="spacing" textLength="50" x="999" y="555.1816">:System</text><rect fill="#FFFFFF" height="391.832" style="stroke:#181818;stroke-width:1.0;" width="10" x="91" y="133.2422"/><rect fill="#FFFFFF" height="31.291" style="stroke:#181818;stroke-width:1.0;" width="10" x="1019" y="156.5332"/><rect fill="#FFFFFF" height="216.0859" style="stroke:#181818;stroke-width:1.0;" width="10" x="1019" y="245.4063"/><rect fill="#FFFFFF" height="31.291" style="stroke:#181818;stroke-width:1.0;" width="10" x="1019" y="484.7832"/><polygon fill="#181818" points="1007,152.5332,1017,156.5332,1007,160.5332,1011,156.5332" style="stroke:#181818;stroke-width:1.0;"/><line style="stroke:#181818;stroke-width:1.0;" x1="101" x2="1013" y1="156.5332" y2="156.5332"/><text fill="#000000" font-family="sans-serif" font-size="13" font-weight="bold" lengthAdjust="spacing" textLength="7" x="108" y="151.2705">1</text><text fill="#000000" font-family="sans-serif" font-size="13" lengthAdjust="spacing" textLength="171" x="119" y="151.2705">Requests to register a vehicle</text><polygon fill="#181818" points="112,183.8242,102,187.8242,112,191.8242,108,187.8242" style="stroke:#181818;stroke-width:1.0;"/><line style="stroke:#181818;stroke-width:1.0;stroke-dasharray:2.0,2.0;" x1="106" x2="1023" y1="187.8242" y2="187.8242"/><text fill="#000000" font-family="sans-serif" font-size="13" font-weight="bold" lengthAdjust="spacing" textLength="7" x="118" y="182.5615">2</text><text fill="#000000" font-family="sans-serif" font-size="13" lengthAdjust="spacing" textLength="883" x="129" y="182.5615">Requests vehicle data (model, brand, type, tare,gross weight, current Km, register date, acquisition date, maintenance/check up frequency, vehicle plate)</text><path d="M10,202.8242 L83,202.8242 L83,212.1152 L73,222.1152 L10,222.1152 L10,202.8242 " fill="#EEEEEE" style="stroke:#000000;stroke-width:1.5;"/><rect fill="none" height="251.668" style="stroke:#000000;stroke-width:1.5;" width="1204" x="10" y="202.8242"/><text fill="#000000" font-family="sans-serif" font-size="13" font-weight="bold" lengthAdjust="spacing" textLength="28" x="25" y="217.8525">loop</text><text fill="#000000" font-family="sans-serif" font-size="11" font-weight="bold" lengthAdjust="spacing" textLength="102" x="98" y="216.6943">[while Invalid data]</text><polygon fill="#181818" points="1007,241.4063,1017,245.4063,1007,249.4063,1011,245.4063" style="stroke:#181818;stroke-width:1.0;"/><line style="stroke:#181818;stroke-width:1.0;" x1="101" x2="1013" y1="245.4063" y2="245.4063"/><text fill="#000000" font-family="sans-serif" font-size="13" font-weight="bold" lengthAdjust="spacing" textLength="7" x="108" y="240.1436">3</text><text fill="#000000" font-family="sans-serif" font-size="13" lengthAdjust="spacing" textLength="125" x="119" y="240.1436">Types requested data</text><path d="M20,260.4063 L81,260.4063 L81,269.6973 L71,279.6973 L20,279.6973 L20,260.4063 " fill="#EEEEEE" style="stroke:#000000;stroke-width:1.5;"/><rect fill="none" height="187.0859" style="stroke:#000000;stroke-width:1.5;" width="1184" x="20" y="260.4063"/><text fill="#000000" font-family="sans-serif" font-size="13" font-weight="bold" lengthAdjust="spacing" textLength="16" x="35" y="275.4346">alt</text><text fill="#000000" font-family="sans-serif" font-size="11" font-weight="bold" lengthAdjust="spacing" textLength="61" x="96" y="274.2764">[Valid data]</text><line style="stroke:#181818;stroke-width:1.0;" x1="1029" x2="1071" y1="302.9883" y2="302.9883"/><line style="stroke:#181818;stroke-width:1.0;" x1="1071" x2="1071" y1="302.9883" y2="315.9883"/><line style="stroke:#181818;stroke-width:1.0;" x1="1030" x2="1071" y1="315.9883" y2="315.9883"/><polygon fill="#181818" points="1040,311.9883,1030,315.9883,1040,319.9883,1036,315.9883" style="stroke:#181818;stroke-width:1.0;"/><text fill="#000000" font-family="sans-serif" font-size="13" font-weight="bold" lengthAdjust="spacing" textLength="7" x="1036" y="297.7256">4</text><text fill="#000000" font-family="sans-serif" font-size="13" lengthAdjust="spacing" textLength="139" x="1047" y="297.7256">Validates vehicle details</text><line style="stroke:#181818;stroke-width:1.0;stroke-dasharray:2.0,2.0;" x1="1029" x2="1071" y1="347.2793" y2="347.2793"/><line style="stroke:#181818;stroke-width:1.0;stroke-dasharray:2.0,2.0;" x1="1071" x2="1071" y1="347.2793" y2="360.2793"/><line style="stroke:#181818;stroke-width:1.0;stroke-dasharray:2.0,2.0;" x1="1030" x2="1071" y1="360.2793" y2="360.2793"/><polygon fill="#181818" points="1040,356.2793,1030,360.2793,1040,364.2793,1036,360.2793" style="stroke:#181818;stroke-width:1.0;"/><text fill="#000000" font-family="sans-serif" font-size="13" font-weight="bold" lengthAdjust="spacing" textLength="7" x="1036" y="342.0166">5</text><text fill="#000000" font-family="sans-serif" font-size="13" lengthAdjust="spacing" textLength="145" x="1047" y="342.0166">Saves vehicle information</text><polygon fill="#181818" points="112,387.5703,102,391.5703,112,395.5703,108,391.5703" style="stroke:#181818;stroke-width:1.0;"/><line style="stroke:#181818;stroke-width:1.0;stroke-dasharray:2.0,2.0;" x1="106" x2="1018" y1="391.5703" y2="391.5703"/><text fill="#000000" font-family="sans-serif" font-size="13" font-weight="bold" lengthAdjust="spacing" textLength="7" x="118" y="386.3076">6</text><text fill="#000000" font-family="sans-serif" font-size="13" lengthAdjust="spacing" textLength="238" x="129" y="386.3076">Shows all data and requests confirmation</text><line style="stroke:#000000;stroke-width:1.0;stroke-dasharray:2.0,2.0;" x1="20" x2="1204" y1="400.5703" y2="400.5703"/><text fill="#000000" font-family="sans-serif" font-size="11" font-weight="bold" lengthAdjust="spacing" textLength="69" x="25" y="412.4404">[Invalid data]</text><polygon fill="#181818" points="112,435.4922,102,439.4922,112,443.4922,108,439.4922" style="stroke:#181818;stroke-width:1.0;"/><line style="stroke:#181818;stroke-width:1.0;stroke-dasharray:2.0,2.0;" x1="106" x2="1018" y1="439.4922" y2="439.4922"/><text fill="#000000" font-family="sans-serif" font-size="13" font-weight="bold" lengthAdjust="spacing" textLength="7" x="118" y="434.2295">7</text><text fill="#000000" font-family="sans-serif" font-size="13" lengthAdjust="spacing" textLength="167" x="129" y="434.2295">Notifies invalid vehicle details</text><polygon fill="#181818" points="1007,480.7832,1017,484.7832,1007,488.7832,1011,484.7832" style="stroke:#181818;stroke-width:1.0;"/><line style="stroke:#181818;stroke-width:1.0;" x1="101" x2="1013" y1="484.7832" y2="484.7832"/><text fill="#000000" font-family="sans-serif" font-size="13" font-weight="bold" lengthAdjust="spacing" textLength="7" x="108" y="479.5205">8</text><text fill="#000000" font-family="sans-serif" font-size="13" lengthAdjust="spacing" textLength="80" x="119" y="479.5205">Confirms data</text><polygon fill="#181818" points="112,512.0742,102,516.0742,112,520.0742,108,516.0742" style="stroke:#181818;stroke-width:1.0;"/><line style="stroke:#181818;stroke-width:1.0;stroke-dasharray:2.0,2.0;" x1="106" x2="1023" y1="516.0742" y2="516.0742"/><text fill="#000000" font-family="sans-serif" font-size="13" font-weight="bold" lengthAdjust="spacing" textLength="7" x="118" y="510.8115">9</text><text fill="#000000" font-family="sans-serif" font-size="13" lengthAdjust="spacing" textLength="220" x="129" y="510.8115">Notifies successful vehicle registration</text><!--SRC=[TL9DRvj04BtlhnZvb4XOpIa77tffPQcgt4DeUvyi0uoy7sHtiEL_ty60Gt2A148xxxrvxq4-SkWmeGSVGxHjYfv0KayctoOTsYCsLCh54IIoWg5nIq1kiOfd3WtKw38PWrPYWitU4GaSC2WxmSF-yBW1pB0_6EK9M-um26nsvIKB-UjiV3NOImozVwLaZB3etd409Rtr52p1TyPcsBs5F-NJq_EmaayeDAYR_G6sNsVA3bu6KfOC4jL_mtgS0E54BLiDSgDEomteDP6tggDg2us91HKAmeEF5Ra2NXE6gW2vTAHFJ5GqAUOCP-AcbG9idn9frf- -U7UW2ef6-zPpPk4OfXEF78G2QimljYLxXBw3Eet9ByNDGUSK_cXCHUi4BiOEpYqhw4SueUFgQlSQRDNDRxMS8OtfQ85RQw8J-FikDVSpI-t6eH8M5P4WkxpkSoQKU5g0ETGnUHnw-FG3b6qyPq3dnkQrxzbr1Xj3pJEPz1Vy6Fk3r0v-HU6QTJLFeBLV2jNrlY_samA_ZRlp_vkxIxEma7jhAUUwTpSNu_-HnZ3t5lu1]--></g></svg>