<?xml version="1.0" encoding="us-ascii" standalone="no"?><svg xmlns="http://www.w3.org/2000/svg" xmlns:xlink="http://www.w3.org/1999/xlink" contentStyleType="text/css" height="705px" preserveAspectRatio="none" style="width:1255px;height:705px;background:#FFFFFF;" version="1.1" viewBox="0 0 1255 705" width="1255px" zoomAndPan="magnify"><defs/><g><text fill="#000000" font-family="sans-serif" font-size="14" font-weight="bold" lengthAdjust="spacing" textLength="242" x="508" y="30.1074">System Sequence Diagram - US006</text><rect fill="#FFFFFF" height="480.4141" style="stroke:#181818;stroke-width:1.0;" width="10" x="91" y="133.2422"/><rect fill="#FFFFFF" height="146.1641" style="stroke:#181818;stroke-width:1.0;" width="10" x="1019" y="156.5332"/><rect fill="#FFFFFF" height="209.0859" style="stroke:#181818;stroke-width:1.0;" width="10" x="1019" y="333.9883"/><rect fill="#FFFFFF" height="38.291" style="stroke:#181818;stroke-width:1.0;" width="10" x="1019" y="566.3652"/><rect fill="none" height="402.832" style="stroke:#000000;stroke-width:1.5;" width="1239" x="10" y="171.5332"/><rect fill="none" height="187.0859" style="stroke:#000000;stroke-width:1.5;" width="1184" x="20" y="348.9883"/><line style="stroke:#181818;stroke-width:0.5;stroke-dasharray:5.0,5.0;" x1="96" x2="96" y1="123.2422" y2="622.6563"/><line style="stroke:#181818;stroke-width:0.5;stroke-dasharray:5.0,5.0;" x1="1024" x2="1024" y1="123.2422" y2="622.6563"/><text fill="#000000" font-family="sans-serif" font-size="14" lengthAdjust="spacing" textLength="126" x="30" y="119.7285">Fleet Manager (FM)</text><ellipse cx="96" cy="53.1211" fill="#E3E3E3" rx="8" ry="8" style="stroke:#181818;stroke-width:0.5;"/><path d="M96,61.1211 L96,88.1211 M83,69.1211 L109,69.1211 M96,88.1211 L83,103.1211 M96,88.1211 L109,103.1211 " fill="none" style="stroke:#181818;stroke-width:0.5;"/><text fill="#000000" font-family="sans-serif" font-size="14" lengthAdjust="spacing" textLength="126" x="30" y="636.7637">Fleet Manager (FM)</text><ellipse cx="96" cy="648.7773" fill="#E3E3E3" rx="8" ry="8" style="stroke:#181818;stroke-width:0.5;"/><path d="M96,656.7773 L96,683.7773 M83,664.7773 L109,664.7773 M96,683.7773 L83,698.7773 M96,683.7773 L109,698.7773 " fill="none" style="stroke:#181818;stroke-width:0.5;"/><rect fill="#E3E3E3" height="32.6211" rx="2.5" ry="2.5" style="stroke:#181818;stroke-width:0.5;" width="64" x="992" y="89.6211"/><text fill="#000000" font-family="sans-serif" font-size="14" lengthAdjust="spacing" textLength="50" x="999" y="111.7285">:System</text><rect fill="#E3E3E3" height="32.6211" rx="2.5" ry="2.5" style="stroke:#181818;stroke-width:0.5;" width="64" x="992" y="621.6563"/><text fill="#000000" font-family="sans-serif" font-size="14" lengthAdjust="spacing" textLength="50" x="999" y="643.7637">:System</text><rect fill="#FFFFFF" height="480.4141" style="stroke:#181818;stroke-width:1.0;" width="10" x="91" y="133.2422"/><rect fill="#FFFFFF" height="146.1641" style="stroke:#181818;stroke-width:1.0;" width="10" x="1019" y="156.5332"/><rect fill="#FFFFFF" height="209.0859" style="stroke:#181818;stroke-width:1.0;" width="10" x="1019" y="333.9883"/><rect fill="#FFFFFF" height="38.291" style="stroke:#181818;stroke-width:1.0;" width="10" x="1019" y="566.3652"/><polygon fill="#181818" points="1007,152.5332,1017,156.5332,1007,160.5332,1011,156.5332" style="stroke:#181818;stroke-width:1.0;"/><line style="stroke:#181818;stroke-width:1.0;" x1="101" x2="1013" y1="156.5332" y2="156.5332"/><text fill="#000000" font-family="sans-serif" font-size="13" font-weight="bold" lengthAdjust="spacing" textLength="7" x="108" y="151.2705">1</text><text fill="#000000" font-family="sans-serif" font-size="13" lengthAdjust="spacing" textLength="171" x="119" y="151.2705">Requests to register a vehicle</text><path d="M10,171.5332 L83,171.5332 L83,180.8242 L73,190.8242 L10,190.8242 L10,171.5332 " fill="#EEEEEE" style="stroke:#000000;stroke-width:1.5;"/><rect fill="none" height="402.832" style="stroke:#000000;stroke-width:1.5;" width="1239" x="10" y="171.5332"/><text fill="#000000" font-family="sans-serif" font-size="13" font-weight="bold" lengthAdjust="spacing" textLength="28" x="25" y="186.5615">loop</text><text fill="#000000" font-family="sans-serif" font-size="11" font-weight="bold" lengthAdjust="spacing" textLength="252" x="98" y="185.4033">[while FM doesn't finish registering a vehicle]</text><line style="stroke:#181818;stroke-width:1.0;" x1="1029" x2="1071" y1="214.1152" y2="214.1152"/><line style="stroke:#181818;stroke-width:1.0;" x1="1071" x2="1071" y1="214.1152" y2="227.1152"/><line style="stroke:#181818;stroke-width:1.0;" x1="1030" x2="1071" y1="227.1152" y2="227.1152"/><polygon fill="#181818" points="1040,223.1152,1030,227.1152,1040,231.1152,1036,227.1152" style="stroke:#181818;stroke-width:1.0;"/><text fill="#000000" font-family="sans-serif" font-size="13" font-weight="bold" lengthAdjust="spacing" textLength="7" x="1036" y="208.8525">2</text><text fill="#000000" font-family="sans-serif" font-size="13" lengthAdjust="spacing" textLength="101" x="1047" y="208.8525">Validates request</text><line style="stroke:#181818;stroke-width:1.0;" x1="1029" x2="1071" y1="258.4063" y2="258.4063"/><line style="stroke:#181818;stroke-width:1.0;" x1="1071" x2="1071" y1="258.4063" y2="271.4063"/><line style="stroke:#181818;stroke-width:1.0;" x1="1030" x2="1071" y1="271.4063" y2="271.4063"/><polygon fill="#181818" points="1040,267.4063,1030,271.4063,1040,275.4063,1036,271.4063" style="stroke:#181818;stroke-width:1.0;"/><text fill="#000000" font-family="sans-serif" font-size="13" font-weight="bold" lengthAdjust="spacing" textLength="7" x="1036" y="253.1436">3</text><text fill="#000000" font-family="sans-serif" font-size="13" lengthAdjust="spacing" textLength="190" x="1047" y="253.1436">Displays vehicle registration form</text><polygon fill="#181818" points="112,298.6973,102,302.6973,112,306.6973,108,302.6973" style="stroke:#181818;stroke-width:1.0;"/><line style="stroke:#181818;stroke-width:1.0;" x1="106" x2="1023" y1="302.6973" y2="302.6973"/><text fill="#000000" font-family="sans-serif" font-size="13" font-weight="bold" lengthAdjust="spacing" textLength="7" x="118" y="297.4346">4</text><text fill="#000000" font-family="sans-serif" font-size="13" lengthAdjust="spacing" textLength="883" x="129" y="297.4346">Requests vehicle data (model, brand, type, tare,gross weight, current Km, register date, acquisition date, maintenance/check up frequency, vehicle plate)</text><polygon fill="#181818" points="1007,329.9883,1017,333.9883,1007,337.9883,1011,333.9883" style="stroke:#181818;stroke-width:1.0;"/><line style="stroke:#181818;stroke-width:1.0;" x1="101" x2="1013" y1="333.9883" y2="333.9883"/><text fill="#000000" font-family="sans-serif" font-size="13" font-weight="bold" lengthAdjust="spacing" textLength="7" x="108" y="328.7256">5</text><text fill="#000000" font-family="sans-serif" font-size="13" lengthAdjust="spacing" textLength="125" x="119" y="328.7256">Types requested data</text><path d="M20,348.9883 L81,348.9883 L81,358.2793 L71,368.2793 L20,368.2793 L20,348.9883 " fill="#EEEEEE" style="stroke:#000000;stroke-width:1.5;"/><rect fill="none" height="187.0859" style="stroke:#000000;stroke-width:1.5;" width="1184" x="20" y="348.9883"/><text fill="#000000" font-family="sans-serif" font-size="13" font-weight="bold" lengthAdjust="spacing" textLength="16" x="35" y="364.0166">alt</text><text fill="#000000" font-family="sans-serif" font-size="11" font-weight="bold" lengthAdjust="spacing" textLength="61" x="96" y="362.8584">[Valid data]</text><line style="stroke:#181818;stroke-width:1.0;" x1="1029" x2="1071" y1="391.5703" y2="391.5703"/><line style="stroke:#181818;stroke-width:1.0;" x1="1071" x2="1071" y1="391.5703" y2="404.5703"/><line style="stroke:#181818;stroke-width:1.0;" x1="1030" x2="1071" y1="404.5703" y2="404.5703"/><polygon fill="#181818" points="1040,400.5703,1030,404.5703,1040,408.5703,1036,404.5703" style="stroke:#181818;stroke-width:1.0;"/><text fill="#000000" font-family="sans-serif" font-size="13" font-weight="bold" lengthAdjust="spacing" textLength="7" x="1036" y="386.3076">6</text><text fill="#000000" font-family="sans-serif" font-size="13" lengthAdjust="spacing" textLength="139" x="1047" y="386.3076">Validates vehicle details</text><line style="stroke:#181818;stroke-width:1.0;" x1="1029" x2="1071" y1="435.8613" y2="435.8613"/><line style="stroke:#181818;stroke-width:1.0;" x1="1071" x2="1071" y1="435.8613" y2="448.8613"/><line style="stroke:#181818;stroke-width:1.0;" x1="1030" x2="1071" y1="448.8613" y2="448.8613"/><polygon fill="#181818" points="1040,444.8613,1030,448.8613,1040,452.8613,1036,448.8613" style="stroke:#181818;stroke-width:1.0;"/><text fill="#000000" font-family="sans-serif" font-size="13" font-weight="bold" lengthAdjust="spacing" textLength="7" x="1036" y="430.5986">7</text><text fill="#000000" font-family="sans-serif" font-size="13" lengthAdjust="spacing" textLength="145" x="1047" y="430.5986">Saves vehicle information</text><polygon fill="#181818" points="112,476.1523,102,480.1523,112,484.1523,108,480.1523" style="stroke:#181818;stroke-width:1.0;"/><line style="stroke:#181818;stroke-width:1.0;" x1="106" x2="1018" y1="480.1523" y2="480.1523"/><text fill="#000000" font-family="sans-serif" font-size="13" font-weight="bold" lengthAdjust="spacing" textLength="7" x="118" y="474.8896">8</text><text fill="#000000" font-family="sans-serif" font-size="13" lengthAdjust="spacing" textLength="238" x="129" y="474.8896">Shows all data and requests confirmation</text><line style="stroke:#000000;stroke-width:1.0;stroke-dasharray:2.0,2.0;" x1="20" x2="1204" y1="489.1523" y2="489.1523"/><text fill="#000000" font-family="sans-serif" font-size="11" font-weight="bold" lengthAdjust="spacing" textLength="69" x="25" y="501.0225">[Invalid data]</text><polygon fill="#181818" points="112,524.0742,102,528.0742,112,532.0742,108,528.0742" style="stroke:#181818;stroke-width:1.0;"/><line style="stroke:#181818;stroke-width:1.0;stroke-dasharray:2.0,2.0;" x1="106" x2="1018" y1="528.0742" y2="528.0742"/><text fill="#000000" font-family="sans-serif" font-size="13" font-weight="bold" lengthAdjust="spacing" textLength="7" x="118" y="522.8115">9</text><text fill="#000000" font-family="sans-serif" font-size="13" lengthAdjust="spacing" textLength="167" x="129" y="522.8115">Notifies invalid vehicle details</text><polygon fill="#181818" points="1007,562.3652,1017,566.3652,1007,570.3652,1011,566.3652" style="stroke:#181818;stroke-width:1.0;"/><line style="stroke:#181818;stroke-width:1.0;" x1="101" x2="1013" y1="566.3652" y2="566.3652"/><text fill="#000000" font-family="sans-serif" font-size="13" font-weight="bold" lengthAdjust="spacing" textLength="14" x="108" y="561.1025">10</text><text fill="#000000" font-family="sans-serif" font-size="13" lengthAdjust="spacing" textLength="80" x="126" y="561.1025">Confirms data</text><polygon fill="#181818" points="112,600.6563,102,604.6563,112,608.6563,108,604.6563" style="stroke:#181818;stroke-width:1.0;"/><line style="stroke:#181818;stroke-width:1.0;" x1="106" x2="1023" y1="604.6563" y2="604.6563"/><text fill="#000000" font-family="sans-serif" font-size="13" font-weight="bold" lengthAdjust="spacing" textLength="14" x="118" y="599.3936">11</text><text fill="#000000" font-family="sans-serif" font-size="13" lengthAdjust="spacing" textLength="220" x="136" y="599.3936">Notifies successful vehicle registration</text><!--SRC=[ZP91Rvj048Nl-oj6lZIHY9fJ3pxqqiXILRc7qlO-MGOOUTabEuCj__lkWY4MSQfmG8XzRzwR3-J0liU87NJ11zl6q15e7CZ8SjAZFM13fPuTGIIhw1jtBP0Mgt1Ytq2DJiWOj1eYR7QEI66FFhaZtEtsznj0WTtU99-ovHwzmcPRdaMf6y-cHuE31ZzqpnIDKTQKEnr0IIy3UKlmnDZax0VuKpu-VicHV4IbFDtizl3mTRPiuLSsYGfeIFqRJgyZ81ofPPiMSI7qS6hPPJDKWSH_KgZPixIBFc_tQbdIBdtD9Mj9tS9VT5mbYQGHOxo1TBtLFR7q3iyopxuaHbGE7keGkvKnTRnQQNQbA8IxBbJa2dYEwAi2zDnJkcEaeeb114x4JQi5s256IkX_TCKha5os0BGl0mkFuTER3jahUKpKFzkMx0667keuVOXpiJH8MoZT6rFHcaxkl_ealrErXGnLO_rHj_QYqmdb9FaVvmK5ARAJTtYNUBpIii-4HzQtC9TjE0cWSnFVH7NkB623htdsKlhluRi_lcqwZjh2pw1SSqhcYsZTbdprCNJVfbnvdraUjLxcge4Crf98FRYR_zoD5ly0]--></g></svg>