<?xml version="1.0" encoding="us-ascii" standalone="no"?><svg xmlns="http://www.w3.org/2000/svg" xmlns:xlink="http://www.w3.org/1999/xlink" contentStyleType="text/css" height="946px" preserveAspectRatio="none" style="width:731px;height:946px;background:#FFFFFF;" version="1.1" viewBox="0 0 731 946" width="731px" zoomAndPan="magnify"><defs/><g><!--class RegisterCollaboratorUI--><g id="elem_RegisterCollaboratorUI"><rect codeLine="10" fill="#F1F1F1" height="48" id="RegisterCollaboratorUI" rx="2.5" ry="2.5" style="stroke:#181818;stroke-width:0.5;" width="175" x="315.5" y="7"/><ellipse cx="330.5" cy="23" fill="#ADD1B2" rx="11" ry="11" style="stroke:#181818;stroke-width:1.0;"/><path d="M333.2656,18.875 Q333.4219,18.6563 333.6094,18.5469 Q333.7969,18.4375 334.0156,18.4375 Q334.3906,18.4375 334.625,18.7031 Q334.8594,18.9531 334.8594,19.5625 L334.8594,21.0156 Q334.8594,21.625 334.625,21.8906 Q334.3906,22.1563 334.0156,22.1563 Q333.6719,22.1563 333.4688,21.9531 Q333.2656,21.7656 333.1563,21.25 Q333.1094,20.8906 332.9219,20.7031 Q332.5938,20.3281 331.9844,20.1094 Q331.375,19.8906 330.75,19.8906 Q329.9844,19.8906 329.3438,20.2188 Q328.7188,20.5469 328.2188,21.2969 Q327.7344,22.0469 327.7344,23.0781 L327.7344,24.1719 Q327.7344,25.4063 328.625,26.2344 Q329.5156,27.0469 331.1094,27.0469 Q332.0469,27.0469 332.7031,26.7969 Q333.0938,26.6406 333.5156,26.2031 Q333.7813,25.9375 333.9219,25.8594 Q334.0781,25.7813 334.2813,25.7813 Q334.6094,25.7813 334.8594,26.0469 Q335.125,26.2969 335.125,26.6406 Q335.125,26.9844 334.7813,27.3906 Q334.2813,27.9688 333.4844,28.2969 Q332.4063,28.75 331.1094,28.75 Q329.5938,28.75 328.3906,28.125 Q327.4063,27.625 326.7188,26.5625 Q326.0313,25.4844 326.0313,24.2031 L326.0313,23.0469 Q326.0313,21.7188 326.6406,20.5781 Q327.2656,19.4219 328.3594,18.8125 Q329.4531,18.1875 330.6875,18.1875 Q331.4219,18.1875 332.0625,18.3594 Q332.7188,18.5156 333.2656,18.875 Z " fill="#000000"/><text fill="#000000" font-family="sans-serif" font-size="14" lengthAdjust="spacing" textLength="143" x="344.5" y="28.7969">RegisterCollaboratorUI</text><line style="stroke:#181818;stroke-width:0.5;" x1="316.5" x2="489.5" y1="39" y2="39"/><line style="stroke:#181818;stroke-width:0.5;" x1="316.5" x2="489.5" y1="47" y2="47"/></g><!--class CollaboratorController--><g id="elem_CollaboratorController"><rect codeLine="13" fill="#F1F1F1" height="159.7266" id="CollaboratorController" rx="2.5" ry="2.5" style="stroke:#181818;stroke-width:0.5;" width="643" x="81.5" y="116"/><ellipse cx="328.75" cy="132" fill="#ADD1B2" rx="11" ry="11" style="stroke:#181818;stroke-width:1.0;"/><path d="M331.5156,127.875 Q331.6719,127.6563 331.8594,127.5469 Q332.0469,127.4375 332.2656,127.4375 Q332.6406,127.4375 332.875,127.7031 Q333.1094,127.9531 333.1094,128.5625 L333.1094,130.0156 Q333.1094,130.625 332.875,130.8906 Q332.6406,131.1563 332.2656,131.1563 Q331.9219,131.1563 331.7188,130.9531 Q331.5156,130.7656 331.4063,130.25 Q331.3594,129.8906 331.1719,129.7031 Q330.8438,129.3281 330.2344,129.1094 Q329.625,128.8906 329,128.8906 Q328.2344,128.8906 327.5938,129.2188 Q326.9688,129.5469 326.4688,130.2969 Q325.9844,131.0469 325.9844,132.0781 L325.9844,133.1719 Q325.9844,134.4063 326.875,135.2344 Q327.7656,136.0469 329.3594,136.0469 Q330.2969,136.0469 330.9531,135.7969 Q331.3438,135.6406 331.7656,135.2031 Q332.0313,134.9375 332.1719,134.8594 Q332.3281,134.7813 332.5313,134.7813 Q332.8594,134.7813 333.1094,135.0469 Q333.375,135.2969 333.375,135.6406 Q333.375,135.9844 333.0313,136.3906 Q332.5313,136.9688 331.7344,137.2969 Q330.6563,137.75 329.3594,137.75 Q327.8438,137.75 326.6406,137.125 Q325.6563,136.625 324.9688,135.5625 Q324.2813,134.4844 324.2813,133.2031 L324.2813,132.0469 Q324.2813,130.7188 324.8906,129.5781 Q325.5156,128.4219 326.6094,127.8125 Q327.7031,127.1875 328.9375,127.1875 Q329.6719,127.1875 330.3125,127.3594 Q330.9688,127.5156 331.5156,127.875 Z " fill="#000000"/><text fill="#000000" font-family="sans-serif" font-size="14" lengthAdjust="spacing" textLength="140" x="349.25" y="137.7969">CollaboratorController</text><line style="stroke:#181818;stroke-width:0.5;" x1="82.5" x2="723.5" y1="148" y2="148"/><line style="stroke:#181818;stroke-width:0.5;" x1="82.5" x2="723.5" y1="156" y2="156"/><text fill="#000000" font-family="sans-serif" font-size="14" lengthAdjust="spacing" textLength="425" x="87.5" y="175.1074">+createCLB(name : String, birthdate : String, contactMobile : String,</text><text fill="#000000" font-family="sans-serif" font-size="14" lengthAdjust="spacing" textLength="272" x="87.5" y="193.7285">email : String, address : String, city : String,</text><text fill="#000000" font-family="sans-serif" font-size="14" lengthAdjust="spacing" textLength="631" x="87.5" y="212.3496">documentType, identificationNumber, admissionDate : String, identificationNumber : String, job : Job)</text><text fill="#000000" font-family="sans-serif" font-size="14" lengthAdjust="spacing" textLength="172" x="87.5" y="230.9707">+assignJob(job : Job) : void</text><text fill="#000000" font-family="sans-serif" font-size="14" lengthAdjust="spacing" textLength="193" x="87.5" y="249.5918">+getInstance() : JobRepository</text><text fill="#000000" font-family="sans-serif" font-size="14" lengthAdjust="spacing" textLength="249" x="87.5" y="268.2129">+getInstance() : CollaboratorRepository</text></g><!--class CollaboratorRepository--><g id="elem_CollaboratorRepository"><rect codeLine="22" fill="#F1F1F1" height="159.7266" id="CollaboratorRepository" rx="2.5" ry="2.5" style="stroke:#181818;stroke-width:0.5;" width="410" x="29" y="355"/><ellipse cx="156.75" cy="371" fill="#ADD1B2" rx="11" ry="11" style="stroke:#181818;stroke-width:1.0;"/><path d="M159.5156,366.875 Q159.6719,366.6563 159.8594,366.5469 Q160.0469,366.4375 160.2656,366.4375 Q160.6406,366.4375 160.875,366.7031 Q161.1094,366.9531 161.1094,367.5625 L161.1094,369.0156 Q161.1094,369.625 160.875,369.8906 Q160.6406,370.1563 160.2656,370.1563 Q159.9219,370.1563 159.7188,369.9531 Q159.5156,369.7656 159.4063,369.25 Q159.3594,368.8906 159.1719,368.7031 Q158.8438,368.3281 158.2344,368.1094 Q157.625,367.8906 157,367.8906 Q156.2344,367.8906 155.5938,368.2188 Q154.9688,368.5469 154.4688,369.2969 Q153.9844,370.0469 153.9844,371.0781 L153.9844,372.1719 Q153.9844,373.4063 154.875,374.2344 Q155.7656,375.0469 157.3594,375.0469 Q158.2969,375.0469 158.9531,374.7969 Q159.3438,374.6406 159.7656,374.2031 Q160.0313,373.9375 160.1719,373.8594 Q160.3281,373.7813 160.5313,373.7813 Q160.8594,373.7813 161.1094,374.0469 Q161.375,374.2969 161.375,374.6406 Q161.375,374.9844 161.0313,375.3906 Q160.5313,375.9688 159.7344,376.2969 Q158.6563,376.75 157.3594,376.75 Q155.8438,376.75 154.6406,376.125 Q153.6563,375.625 152.9688,374.5625 Q152.2813,373.4844 152.2813,372.2031 L152.2813,371.0469 Q152.2813,369.7188 152.8906,368.5781 Q153.5156,367.4219 154.6094,366.8125 Q155.7031,366.1875 156.9375,366.1875 Q157.6719,366.1875 158.3125,366.3594 Q158.9688,366.5156 159.5156,366.875 Z " fill="#000000"/><text fill="#000000" font-family="sans-serif" font-size="14" lengthAdjust="spacing" textLength="146" x="177.25" y="376.7969">CollaboratorRepository</text><line style="stroke:#181818;stroke-width:0.5;" x1="30" x2="438" y1="387" y2="387"/><line style="stroke:#181818;stroke-width:0.5;" x1="30" x2="438" y1="395" y2="395"/><text fill="#000000" font-family="sans-serif" font-size="14" lengthAdjust="spacing" textLength="398" x="35" y="414.1074">+create(name : String, birthdate : String, contactMobile : String,</text><text fill="#000000" font-family="sans-serif" font-size="14" lengthAdjust="spacing" textLength="272" x="35" y="432.7285">email : String, address : String, city : String,</text><text fill="#000000" font-family="sans-serif" font-size="14" lengthAdjust="spacing" textLength="332" x="35" y="451.3496">documentType : String, identificationNumber : String,</text><text fill="#000000" font-family="sans-serif" font-size="14" lengthAdjust="spacing" textLength="346" x="35" y="469.9707">admissionDate : String, taxpayerNumber : int, job : Job)</text><text fill="#000000" font-family="sans-serif" font-size="14" lengthAdjust="spacing" textLength="181" x="35" y="488.5918">+checkForDuplicates() : void</text><text fill="#000000" font-family="sans-serif" font-size="14" lengthAdjust="spacing" textLength="233" x="35" y="507.2129">+addCollaborator(collaborator) : void</text></g><!--class JobRepository--><g id="elem_JobRepository"><rect codeLine="29" fill="#F1F1F1" height="103.8633" id="JobRepository" rx="2.5" ry="2.5" style="stroke:#181818;stroke-width:0.5;" width="197" x="478.5" y="383"/><ellipse cx="527.75" cy="399" fill="#ADD1B2" rx="11" ry="11" style="stroke:#181818;stroke-width:1.0;"/><path d="M530.5156,394.875 Q530.6719,394.6563 530.8594,394.5469 Q531.0469,394.4375 531.2656,394.4375 Q531.6406,394.4375 531.875,394.7031 Q532.1094,394.9531 532.1094,395.5625 L532.1094,397.0156 Q532.1094,397.625 531.875,397.8906 Q531.6406,398.1563 531.2656,398.1563 Q530.9219,398.1563 530.7188,397.9531 Q530.5156,397.7656 530.4063,397.25 Q530.3594,396.8906 530.1719,396.7031 Q529.8438,396.3281 529.2344,396.1094 Q528.625,395.8906 528,395.8906 Q527.2344,395.8906 526.5938,396.2188 Q525.9688,396.5469 525.4688,397.2969 Q524.9844,398.0469 524.9844,399.0781 L524.9844,400.1719 Q524.9844,401.4063 525.875,402.2344 Q526.7656,403.0469 528.3594,403.0469 Q529.2969,403.0469 529.9531,402.7969 Q530.3438,402.6406 530.7656,402.2031 Q531.0313,401.9375 531.1719,401.8594 Q531.3281,401.7813 531.5313,401.7813 Q531.8594,401.7813 532.1094,402.0469 Q532.375,402.2969 532.375,402.6406 Q532.375,402.9844 532.0313,403.3906 Q531.5313,403.9688 530.7344,404.2969 Q529.6563,404.75 528.3594,404.75 Q526.8438,404.75 525.6406,404.125 Q524.6563,403.625 523.9688,402.5625 Q523.2813,401.4844 523.2813,400.2031 L523.2813,399.0469 Q523.2813,397.7188 523.8906,396.5781 Q524.5156,395.4219 525.6094,394.8125 Q526.7031,394.1875 527.9375,394.1875 Q528.6719,394.1875 529.3125,394.3594 Q529.9688,394.5156 530.5156,394.875 Z " fill="#000000"/><text fill="#000000" font-family="sans-serif" font-size="14" lengthAdjust="spacing" textLength="90" x="548.25" y="404.7969">JobRepository</text><line style="stroke:#181818;stroke-width:0.5;" x1="479.5" x2="674.5" y1="415" y2="415"/><line style="stroke:#181818;stroke-width:0.5;" x1="479.5" x2="674.5" y1="423" y2="423"/><text fill="#000000" font-family="sans-serif" font-size="14" lengthAdjust="spacing" textLength="185" x="484.5" y="442.1074">+createJob(title : String) : Job</text><text fill="#000000" font-family="sans-serif" font-size="14" lengthAdjust="spacing" textLength="181" x="484.5" y="460.7285">+checkForDuplicates() : void</text><text fill="#000000" font-family="sans-serif" font-size="14" lengthAdjust="spacing" textLength="127" x="484.5" y="479.3496">+validateJob() : void</text></g><!--class Collaborator--><g id="elem_Collaborator"><rect codeLine="35" fill="#F1F1F1" height="345.9375" id="Collaborator" rx="2.5" ry="2.5" style="stroke:#181818;stroke-width:0.5;" width="448" x="7" y="594"/><ellipse cx="187.75" cy="610" fill="#ADD1B2" rx="11" ry="11" style="stroke:#181818;stroke-width:1.0;"/><path d="M190.5156,605.875 Q190.6719,605.6563 190.8594,605.5469 Q191.0469,605.4375 191.2656,605.4375 Q191.6406,605.4375 191.875,605.7031 Q192.1094,605.9531 192.1094,606.5625 L192.1094,608.0156 Q192.1094,608.625 191.875,608.8906 Q191.6406,609.1563 191.2656,609.1563 Q190.9219,609.1563 190.7188,608.9531 Q190.5156,608.7656 190.4063,608.25 Q190.3594,607.8906 190.1719,607.7031 Q189.8438,607.3281 189.2344,607.1094 Q188.625,606.8906 188,606.8906 Q187.2344,606.8906 186.5938,607.2188 Q185.9688,607.5469 185.4688,608.2969 Q184.9844,609.0469 184.9844,610.0781 L184.9844,611.1719 Q184.9844,612.4063 185.875,613.2344 Q186.7656,614.0469 188.3594,614.0469 Q189.2969,614.0469 189.9531,613.7969 Q190.3438,613.6406 190.7656,613.2031 Q191.0313,612.9375 191.1719,612.8594 Q191.3281,612.7813 191.5313,612.7813 Q191.8594,612.7813 192.1094,613.0469 Q192.375,613.2969 192.375,613.6406 Q192.375,613.9844 192.0313,614.3906 Q191.5313,614.9688 190.7344,615.2969 Q189.6563,615.75 188.3594,615.75 Q186.8438,615.75 185.6406,615.125 Q184.6563,614.625 183.9688,613.5625 Q183.2813,612.4844 183.2813,611.2031 L183.2813,610.0469 Q183.2813,608.7188 183.8906,607.5781 Q184.5156,606.4219 185.6094,605.8125 Q186.7031,605.1875 187.9375,605.1875 Q188.6719,605.1875 189.3125,605.3594 Q189.9688,605.5156 190.5156,605.875 Z " fill="#000000"/><text fill="#000000" font-family="sans-serif" font-size="14" lengthAdjust="spacing" textLength="78" x="208.25" y="615.7969">Collaborator</text><line style="stroke:#181818;stroke-width:0.5;" x1="8" x2="454" y1="626" y2="626"/><text fill="#000000" font-family="sans-serif" font-size="14" lengthAdjust="spacing" textLength="89" x="13" y="645.1074">-name : String</text><text fill="#000000" font-family="sans-serif" font-size="14" lengthAdjust="spacing" textLength="110" x="13" y="663.7285">-birthdate : String</text><text fill="#000000" font-family="sans-serif" font-size="14" lengthAdjust="spacing" textLength="141" x="13" y="682.3496">-contactMobile : String</text><text fill="#000000" font-family="sans-serif" font-size="14" lengthAdjust="spacing" textLength="87" x="13" y="700.9707">-email : String</text><text fill="#000000" font-family="sans-serif" font-size="14" lengthAdjust="spacing" textLength="105" x="13" y="719.5918">-address : String</text><text fill="#000000" font-family="sans-serif" font-size="14" lengthAdjust="spacing" textLength="75" x="13" y="738.2129">-city : String</text><text fill="#000000" font-family="sans-serif" font-size="14" lengthAdjust="spacing" textLength="140" x="13" y="756.834">-admissionDate : Date</text><text fill="#000000" font-family="sans-serif" font-size="14" lengthAdjust="spacing" textLength="58" x="13" y="775.4551">-job : Job</text><text fill="#000000" font-family="sans-serif" font-size="14" lengthAdjust="spacing" textLength="135" x="13" y="794.0762">-taxpayerNumber : int</text><text fill="#000000" font-family="sans-serif" font-size="14" lengthAdjust="spacing" textLength="148" x="13" y="812.6973">-documentType : String</text><text fill="#000000" font-family="sans-serif" font-size="14" lengthAdjust="spacing" textLength="182" x="13" y="831.3184">-identificationNumber : String</text><line style="stroke:#181818;stroke-width:0.5;" x1="8" x2="454" y1="838.832" y2="838.832"/><text fill="#000000" font-family="sans-serif" font-size="14" lengthAdjust="spacing" textLength="436" x="13" y="857.9395">+Collaborator(name : String, birthdate : String, contactMobile : String,</text><text fill="#000000" font-family="sans-serif" font-size="14" lengthAdjust="spacing" textLength="380" x="13" y="876.5605">email : String, address : String, zipCode : String, city : String,</text><text fill="#000000" font-family="sans-serif" font-size="14" lengthAdjust="spacing" textLength="332" x="13" y="895.1816">documentType : String, identificationNumber : String,</text><text fill="#000000" font-family="sans-serif" font-size="14" lengthAdjust="spacing" textLength="346" x="13" y="913.8027">admissionDate : String, taxpayerNumber : int, job : Job)</text><text fill="#000000" font-family="sans-serif" font-size="14" lengthAdjust="spacing" textLength="243" x="13" y="932.4238">+verifyCollaborator(collaborator) : void</text></g><!--class Job--><g id="elem_Job"><rect codeLine="51" fill="#F1F1F1" height="103.8633" id="Job" rx="2.5" ry="2.5" style="stroke:#181818;stroke-width:0.5;" width="177" x="490.5" y="715"/><ellipse cx="563.75" cy="731" fill="#ADD1B2" rx="11" ry="11" style="stroke:#181818;stroke-width:1.0;"/><path d="M566.5156,726.875 Q566.6719,726.6563 566.8594,726.5469 Q567.0469,726.4375 567.2656,726.4375 Q567.6406,726.4375 567.875,726.7031 Q568.1094,726.9531 568.1094,727.5625 L568.1094,729.0156 Q568.1094,729.625 567.875,729.8906 Q567.6406,730.1563 567.2656,730.1563 Q566.9219,730.1563 566.7188,729.9531 Q566.5156,729.7656 566.4063,729.25 Q566.3594,728.8906 566.1719,728.7031 Q565.8438,728.3281 565.2344,728.1094 Q564.625,727.8906 564,727.8906 Q563.2344,727.8906 562.5938,728.2188 Q561.9688,728.5469 561.4688,729.2969 Q560.9844,730.0469 560.9844,731.0781 L560.9844,732.1719 Q560.9844,733.4063 561.875,734.2344 Q562.7656,735.0469 564.3594,735.0469 Q565.2969,735.0469 565.9531,734.7969 Q566.3438,734.6406 566.7656,734.2031 Q567.0313,733.9375 567.1719,733.8594 Q567.3281,733.7813 567.5313,733.7813 Q567.8594,733.7813 568.1094,734.0469 Q568.375,734.2969 568.375,734.6406 Q568.375,734.9844 568.0313,735.3906 Q567.5313,735.9688 566.7344,736.2969 Q565.6563,736.75 564.3594,736.75 Q562.8438,736.75 561.6406,736.125 Q560.6563,735.625 559.9688,734.5625 Q559.2813,733.4844 559.2813,732.2031 L559.2813,731.0469 Q559.2813,729.7188 559.8906,728.5781 Q560.5156,727.4219 561.6094,726.8125 Q562.7031,726.1875 563.9375,726.1875 Q564.6719,726.1875 565.3125,726.3594 Q565.9688,726.5156 566.5156,726.875 Z " fill="#000000"/><text fill="#000000" font-family="sans-serif" font-size="14" lengthAdjust="spacing" textLength="22" x="584.25" y="736.7969">Job</text><line style="stroke:#181818;stroke-width:0.5;" x1="491.5" x2="666.5" y1="747" y2="747"/><text fill="#000000" font-family="sans-serif" font-size="14" lengthAdjust="spacing" textLength="76" x="496.5" y="766.1074">-title : String</text><line style="stroke:#181818;stroke-width:0.5;" x1="491.5" x2="666.5" y1="773.6211" y2="773.6211"/><text fill="#000000" font-family="sans-serif" font-size="14" lengthAdjust="spacing" textLength="111" x="496.5" y="792.7285">+Job(title : String)</text><text fill="#000000" font-family="sans-serif" font-size="14" lengthAdjust="spacing" textLength="165" x="496.5" y="811.3496">+verifyJob(job : Job) : void</text></g><!--link RegisterCollaboratorUI to CollaboratorController--><g id="link_RegisterCollaboratorUI_CollaboratorController"><path codeLine="59" d="M403,55.01 C403,71.07 403,87.53 403,109.77 " fill="none" id="RegisterCollaboratorUI-to-CollaboratorController" style="stroke:#181818;stroke-width:1.0;stroke-dasharray:7.0,7.0;"/><polygon fill="#181818" points="403,115.77,407,106.77,403,110.77,399,106.77,403,115.77" style="stroke:#181818;stroke-width:1.0;"/></g><!--link CollaboratorRepository to Collaborator--><g id="link_CollaboratorRepository_Collaborator"><path codeLine="62" d="M233.28,515.04 C233.06,538.97 232.8744,560.2502 232.6244,587.8002 " fill="none" id="CollaboratorRepository-to-Collaborator" style="stroke:#181818;stroke-width:1.0;"/><polygon fill="#181818" points="232.57,593.8,236.6515,584.8367,232.6154,588.8002,228.6518,584.7641,232.57,593.8" style="stroke:#181818;stroke-width:1.0;"/><text fill="#000000" font-family="sans-serif" font-size="13" lengthAdjust="spacing" textLength="74" x="234" y="560.0283">collaborators</text><text fill="#000000" font-family="sans-serif" font-size="13" lengthAdjust="spacing" textLength="5" x="227.5279" y="582.603">*</text></g><!--link CollaboratorController to CollaboratorRepository--><g id="link_CollaboratorController_CollaboratorRepository"><path codeLine="63" d="M346.49,276.25 C328.45,301.55 311.9721,324.6438 293.9421,349.9438 " fill="none" id="CollaboratorController-to-CollaboratorRepository" style="stroke:#181818;stroke-width:1.0;stroke-dasharray:7.0,7.0;"/><polygon fill="#181818" points="290.46,354.83,298.9406,349.8221,293.3618,350.7582,292.4257,345.1793,290.46,354.83" style="stroke:#181818;stroke-width:1.0;"/><text fill="#000000" font-family="sans-serif" font-size="13" lengthAdjust="spacing" textLength="129" x="325" y="321.0283">collaboratorRepository</text></g><!--link CollaboratorController to JobRepository--><g id="link_CollaboratorController_JobRepository"><path codeLine="64" d="M461.18,276.25 C486.97,311.37 513.009,346.8436 535.829,377.9236 " fill="none" id="CollaboratorController-to-JobRepository" style="stroke:#181818;stroke-width:1.0;stroke-dasharray:7.0,7.0;"/><polygon fill="#181818" points="539.38,382.76,537.2777,373.1381,536.4208,378.7297,530.8292,377.8728,539.38,382.76" style="stroke:#181818;stroke-width:1.0;"/><text fill="#000000" font-family="sans-serif" font-size="13" lengthAdjust="spacing" textLength="79" x="497" y="321.0283">jobRepository</text></g><!--link JobRepository to Job--><g id="link_JobRepository_Job"><path codeLine="65" d="M577.31,487.2 C577.69,549.21 578.2842,647.0101 578.6542,708.9501 " fill="none" id="JobRepository-to-Job" style="stroke:#181818;stroke-width:1.0;"/><polygon fill="#181818" points="578.69,714.95,582.6362,705.9263,578.6601,709.9501,574.6363,705.9741,578.69,714.95" style="stroke:#181818;stroke-width:1.0;"/><text fill="#000000" font-family="sans-serif" font-size="13" lengthAdjust="spacing" textLength="24" x="579" y="560.0283">jobs</text><text fill="#000000" font-family="sans-serif" font-size="13" lengthAdjust="spacing" textLength="5" x="573.3124" y="703.8707">*</text></g><!--SRC=[pLN1SjCm4BthApIza4BJuPn3PsWwpAG371guzI9B6sU9B7caJS1b-7UaH76aOBTS6CZ5qRwtg_LxQyblqBJ2YOQtGcv43KlgD707aeIfDJ3V4_nQAFiDJSrNGliSqMY0kXPuQtKN5unbgDJ2-tT43gijmK9QiyGdu6yPUwLXHPmiTrYlYIkCsw8rZErp-0FKw0dSt6ejAki4MVTbmN-mdqT6Zioj8HVMu0A3XzyRBXq8Wlc7suaH3V0PNuOkJ7t5AtIqLW7BOg4n4f8-sWfr5dyqq0ZK6L4evI1idgKYTNc6idBRWA7FGPGhZYhynHLA4L_kqxQfmCKg3NeV0dTb6qFi3Fvggx2wjzLbUiSW0zOc12OdA3ns5bLYr40BuuEV4YQN1yO3jDPZ4AqRuUJ2PkIe_83q9yQPzFzGzp-NzD6CUK7YUoiwS7qA6XgmGAv1RjvRTxTjTTm4_EJCWj1whjT4PekUUXhhmg6Zf0T5ez64b2cLB4sabrhP2OqgrUcHmUyfxJlbXOSfzhkH2HXsCu6beobuRkknKEvjJorzYey4zQQazP1roOp2YRyxe4_Opgs2_szaT-1mrRqyamSn1vjCsBET5YFT3rGvlwcZWS5E4xjlTVY0YySH6xachgzlHkw7a3DoUasdD_pYzKNv7SnuBerd8vVE-NvPsR92Tfu-Kwey0sRHmYonH8zjt-y52apFs2y0]--></g></svg>