<?xml version="1.0" encoding="us-ascii" standalone="no"?><svg xmlns="http://www.w3.org/2000/svg" xmlns:xlink="http://www.w3.org/1999/xlink" contentStyleType="text/css" height="745.2px" preserveAspectRatio="none" style="width:1290px;height:745px;background:#FFFFFF;" version="1.1" viewBox="0 0 1290 745" width="1290.6px" zoomAndPan="magnify"><defs/><g><rect fill="#FFFFFF" height="570.7002" style="stroke:#181818;stroke-width:0.9;" width="9" x="16.2" y="84.259"/><rect fill="#FFFFFF" height="43.7238" style="stroke:#181818;stroke-width:0.9;" width="9" x="440.1" y="105.2209"/><rect fill="#FFFFFF" height="140.8096" style="stroke:#181818;stroke-width:0.9;" width="9" x="440.1" y="177.1066"/><rect fill="#FFFFFF" height="28.1619" style="stroke:#181818;stroke-width:0.9;" width="9" x="440.1" y="346.0781"/><rect fill="#FFFFFF" height="28.1619" style="stroke:#181818;stroke-width:0.9;" width="9" x="440.1" y="402.402"/><rect fill="#FFFFFF" height="28.1619" style="stroke:#181818;stroke-width:0.9;" width="9" x="440.1" y="626.7973"/><rect fill="#FFFFFF" height="84.4857" style="stroke:#181818;stroke-width:0.9;" width="9" x="592.65" y="205.2686"/><rect fill="#FFFFFF" height="196.2334" style="stroke:#181818;stroke-width:0.9;" width="9" x="592.65" y="430.5639"/><rect fill="#FFFFFF" height="28.1619" style="stroke:#181818;stroke-width:0.9;" width="9" x="783.45" y="570.4734"/><rect fill="#FFFFFF" height="59.0238" style="stroke:#181818;stroke-width:0.9;" width="9" x="1100.25" y="483.2877"/><rect fill="#FFFFFF" height="28.1619" style="stroke:#181818;stroke-width:0.9;" width="9" x="1233.45" y="233.4305"/><line style="stroke:#181818;stroke-width:0.45;stroke-dasharray:5.0,5.0;" x1="20.7" x2="20.7" y1="75.259" y2="671.1592"/><line style="stroke:#181818;stroke-width:0.45;stroke-dasharray:5.0,5.0;" x1="444.15" x2="444.15" y1="75.259" y2="671.1592"/><line style="stroke:#181818;stroke-width:0.45;stroke-dasharray:5.0,5.0;" x1="597.15" x2="597.15" y1="75.259" y2="671.1592"/><line style="stroke:#181818;stroke-width:0.45;stroke-dasharray:5.0,5.0;" x1="787.5" x2="787.5" y1="75.259" y2="671.1592"/><line style="stroke:#181818;stroke-width:0.45;stroke-dasharray:5.0,5.0;" x1="1104.75" x2="1104.75" y1="468.6258" y2="671.1592"/><line style="stroke:#181818;stroke-width:0.45;stroke-dasharray:5.0,5.0;" x1="1237.5" x2="1237.5" y1="75.259" y2="671.1592"/><text fill="#000000" font-family="sans-serif" font-size="12.6" lengthAdjust="spacing" textLength="27" x="4.5" y="72.0967">HRM</text><ellipse cx="20.7" cy="12.15" fill="#E3E3E3" rx="7.2" ry="7.2" style="stroke:#181818;stroke-width:0.45;"/><path d="M20.7,19.35 L20.7,43.65 M9,26.55 L32.4,26.55 M20.7,43.65 L9,57.15 M20.7,43.65 L32.4,57.15 " fill="none" style="stroke:#181818;stroke-width:0.45;"/><text fill="#000000" font-family="sans-serif" font-size="12.6" lengthAdjust="spacing" textLength="27" x="4.5" y="683.8559">HRM</text><ellipse cx="20.7" cy="694.6682" fill="#E3E3E3" rx="7.2" ry="7.2" style="stroke:#181818;stroke-width:0.45;"/><path d="M20.7,701.8682 L20.7,726.1682 M9,709.0682 L32.4,709.0682 M20.7,726.1682 L9,739.6682 M20.7,726.1682 L32.4,739.6682 " fill="none" style="stroke:#181818;stroke-width:0.45;"/><rect fill="#E3E3E3" height="29.359" rx="2.25" ry="2.25" style="stroke:#181818;stroke-width:0.45;" width="144.9" x="372.15" y="45"/><text fill="#000000" font-family="sans-serif" font-size="12.6" lengthAdjust="spacing" textLength="132.3" x="378.45" y="64.8967">:RegisterCollaboratorUI</text><rect fill="#E3E3E3" height="29.359" rx="2.25" ry="2.25" style="stroke:#181818;stroke-width:0.45;" width="144.9" x="372.15" y="670.2592"/><text fill="#000000" font-family="sans-serif" font-size="12.6" lengthAdjust="spacing" textLength="132.3" x="378.45" y="690.1559">:RegisterCollaboratorUI</text><rect fill="#E3E3E3" height="29.359" rx="2.25" ry="2.25" style="stroke:#181818;stroke-width:0.45;" width="142.2" x="526.05" y="45"/><text fill="#000000" font-family="sans-serif" font-size="12.6" lengthAdjust="spacing" textLength="129.6" x="532.35" y="64.8967">:CollaboratorController</text><rect fill="#E3E3E3" height="29.359" rx="2.25" ry="2.25" style="stroke:#181818;stroke-width:0.45;" width="142.2" x="526.05" y="670.2592"/><text fill="#000000" font-family="sans-serif" font-size="12.6" lengthAdjust="spacing" textLength="129.6" x="532.35" y="690.1559">:CollaboratorController</text><rect fill="#E3E3E3" height="46.118" rx="2.25" ry="2.25" style="stroke:#181818;stroke-width:0.45;" width="144.9" x="715.5" y="28.241"/><text fill="#000000" font-family="sans-serif" font-size="12.6" lengthAdjust="spacing" textLength="132.3" x="721.8" y="48.1377">collaboratorRepository:</text><text fill="#000000" font-family="sans-serif" font-size="12.6" lengthAdjust="spacing" textLength="131.4" x="722.25" y="64.8967">CollaboratorRepository</text><rect fill="#E3E3E3" height="46.118" rx="2.25" ry="2.25" style="stroke:#181818;stroke-width:0.45;" width="144.9" x="715.5" y="670.2592"/><text fill="#000000" font-family="sans-serif" font-size="12.6" lengthAdjust="spacing" textLength="132.3" x="721.8" y="690.1559">collaboratorRepository:</text><text fill="#000000" font-family="sans-serif" font-size="12.6" lengthAdjust="spacing" textLength="131.4" x="722.25" y="706.9148">CollaboratorRepository</text><rect fill="#E3E3E3" height="29.359" rx="2.25" ry="2.25" style="stroke:#181818;stroke-width:0.45;" width="86.4" x="1061.55" y="670.2592"/><text fill="#000000" font-family="sans-serif" font-size="12.6" lengthAdjust="spacing" textLength="73.8" x="1067.85" y="690.1559">:Collaborator</text><rect fill="#E3E3E3" height="46.118" rx="2.25" ry="2.25" style="stroke:#181818;stroke-width:0.45;" width="94.5" x="1190.7" y="28.241"/><text fill="#000000" font-family="sans-serif" font-size="12.6" lengthAdjust="spacing" textLength="81.9" x="1197" y="48.1377">jobRepository:</text><text fill="#000000" font-family="sans-serif" font-size="12.6" lengthAdjust="spacing" textLength="81" x="1197.45" y="64.8967">JobRepository</text><rect fill="#E3E3E3" height="46.118" rx="2.25" ry="2.25" style="stroke:#181818;stroke-width:0.45;" width="94.5" x="1190.7" y="670.2592"/><text fill="#000000" font-family="sans-serif" font-size="12.6" lengthAdjust="spacing" textLength="81.9" x="1197" y="690.1559">jobRepository:</text><text fill="#000000" font-family="sans-serif" font-size="12.6" lengthAdjust="spacing" textLength="81" x="1197.45" y="706.9148">JobRepository</text><rect fill="#FFFFFF" height="570.7002" style="stroke:#181818;stroke-width:0.9;" width="9" x="16.2" y="84.259"/><rect fill="#FFFFFF" height="43.7238" style="stroke:#181818;stroke-width:0.9;" width="9" x="440.1" y="105.2209"/><rect fill="#FFFFFF" height="140.8096" style="stroke:#181818;stroke-width:0.9;" width="9" x="440.1" y="177.1066"/><rect fill="#FFFFFF" height="28.1619" style="stroke:#181818;stroke-width:0.9;" width="9" x="440.1" y="346.0781"/><rect fill="#FFFFFF" height="28.1619" style="stroke:#181818;stroke-width:0.9;" width="9" x="440.1" y="402.402"/><rect fill="#FFFFFF" height="28.1619" style="stroke:#181818;stroke-width:0.9;" width="9" x="440.1" y="626.7973"/><rect fill="#FFFFFF" height="84.4857" style="stroke:#181818;stroke-width:0.9;" width="9" x="592.65" y="205.2686"/><rect fill="#FFFFFF" height="196.2334" style="stroke:#181818;stroke-width:0.9;" width="9" x="592.65" y="430.5639"/><rect fill="#FFFFFF" height="28.1619" style="stroke:#181818;stroke-width:0.9;" width="9" x="783.45" y="570.4734"/><rect fill="#FFFFFF" height="59.0238" style="stroke:#181818;stroke-width:0.9;" width="9" x="1100.25" y="483.2877"/><rect fill="#FFFFFF" height="28.1619" style="stroke:#181818;stroke-width:0.9;" width="9" x="1233.45" y="233.4305"/><polygon fill="#181818" points="429.3,101.6209,438.3,105.2209,429.3,108.8209,432.9,105.2209" style="stroke:#181818;stroke-width:0.9;"/><line style="stroke:#181818;stroke-width:0.9;" x1="25.2" x2="434.7" y1="105.2209" y2="105.2209"/><text fill="#000000" font-family="sans-serif" font-size="11.7" font-weight="bold" lengthAdjust="spacing" textLength="6.3" x="31.5" y="100.4845">1</text><text fill="#000000" font-family="sans-serif" font-size="11.7" lengthAdjust="spacing" textLength="184.5" x="41.4" y="100.4845">wants to register a new collaborator</text><polygon fill="#181818" points="35.1,145.3447,26.1,148.9447,35.1,152.5447,31.5,148.9447" style="stroke:#181818;stroke-width:0.9;"/><line style="stroke:#181818;stroke-width:0.9;stroke-dasharray:2.0,2.0;" x1="29.7" x2="443.7" y1="148.9447" y2="148.9447"/><text fill="#000000" font-family="sans-serif" font-size="11.7" font-weight="bold" lengthAdjust="spacing" textLength="6.3" x="40.5" y="136.4273">2</text><text fill="#000000" font-family="sans-serif" font-size="11.7" lengthAdjust="spacing" textLength="379.8" x="50.4" y="128.6464">asks for the info needed (name, birthdate, contactMobile, email, address,</text><text fill="#000000" font-family="sans-serif" font-size="11.7" lengthAdjust="spacing" textLength="283.5" x="54" y="144.2083">city, documentType[], documentCode, admissionDate)</text><polygon fill="#181818" points="429.3,173.5066,438.3,177.1066,429.3,180.7066,432.9,177.1066" style="stroke:#181818;stroke-width:0.9;"/><line style="stroke:#181818;stroke-width:0.9;" x1="25.2" x2="434.7" y1="177.1066" y2="177.1066"/><text fill="#000000" font-family="sans-serif" font-size="11.7" font-weight="bold" lengthAdjust="spacing" textLength="6.3" x="31.5" y="172.3702">3</text><text fill="#000000" font-family="sans-serif" font-size="11.7" lengthAdjust="spacing" textLength="109.8" x="41.4" y="172.3702">types requested data</text><polygon fill="#181818" points="581.85,201.6686,590.85,205.2686,581.85,208.8686,585.45,205.2686" style="stroke:#181818;stroke-width:0.9;"/><line style="stroke:#181818;stroke-width:0.9;" x1="449.1" x2="587.25" y1="205.2686" y2="205.2686"/><text fill="#000000" font-family="sans-serif" font-size="11.7" font-weight="bold" lengthAdjust="spacing" textLength="6.3" x="455.4" y="200.5321">4</text><text fill="#000000" font-family="sans-serif" font-size="11.7" lengthAdjust="spacing" textLength="57.6" x="465.3" y="200.5321">get job List</text><polygon fill="#181818" points="1222.65,229.8305,1231.65,233.4305,1222.65,237.0305,1226.25,233.4305" style="stroke:#181818;stroke-width:0.9;"/><line style="stroke:#181818;stroke-width:0.9;" x1="601.65" x2="1228.05" y1="233.4305" y2="233.4305"/><text fill="#000000" font-family="sans-serif" font-size="11.7" font-weight="bold" lengthAdjust="spacing" textLength="6.3" x="607.95" y="228.694">5</text><text fill="#000000" font-family="sans-serif" font-size="11.7" lengthAdjust="spacing" textLength="47.7" x="617.85" y="228.694">getJobs()</text><polygon fill="#181818" points="611.55,257.9924,602.55,261.5924,611.55,265.1924,607.95,261.5924" style="stroke:#181818;stroke-width:0.9;"/><line style="stroke:#181818;stroke-width:0.9;" x1="606.15" x2="1237.05" y1="261.5924" y2="261.5924"/><text fill="#000000" font-family="sans-serif" font-size="11.7" font-weight="bold" lengthAdjust="spacing" textLength="6.3" x="616.95" y="256.856">6</text><text fill="#000000" font-family="sans-serif" font-size="11.7" lengthAdjust="spacing" textLength="40.5" x="626.85" y="256.856">jobsList</text><polygon fill="#181818" points="459,286.1543,450,289.7543,459,293.3543,455.4,289.7543" style="stroke:#181818;stroke-width:0.9;"/><line style="stroke:#181818;stroke-width:0.9;stroke-dasharray:2.0,2.0;" x1="453.6" x2="596.25" y1="289.7543" y2="289.7543"/><text fill="#000000" font-family="sans-serif" font-size="11.7" font-weight="bold" lengthAdjust="spacing" textLength="6.3" x="464.4" y="285.0179">7</text><text fill="#000000" font-family="sans-serif" font-size="11.7" lengthAdjust="spacing" textLength="37.8" x="474.3" y="285.0179">job List</text><polygon fill="#181818" points="35.1,314.3162,26.1,317.9162,35.1,321.5162,31.5,317.9162" style="stroke:#181818;stroke-width:0.9;"/><line style="stroke:#181818;stroke-width:0.9;stroke-dasharray:2.0,2.0;" x1="29.7" x2="443.7" y1="317.9162" y2="317.9162"/><text fill="#000000" font-family="sans-serif" font-size="11.7" font-weight="bold" lengthAdjust="spacing" textLength="6.3" x="40.5" y="313.1798">8</text><text fill="#000000" font-family="sans-serif" font-size="11.7" lengthAdjust="spacing" textLength="252" x="50.4" y="313.1798">shows the list of jobs and requests to select one</text><polygon fill="#181818" points="429.3,342.4781,438.3,346.0781,429.3,349.6781,432.9,346.0781" style="stroke:#181818;stroke-width:0.9;"/><line style="stroke:#181818;stroke-width:0.9;" x1="25.2" x2="434.7" y1="346.0781" y2="346.0781"/><text fill="#000000" font-family="sans-serif" font-size="11.7" font-weight="bold" lengthAdjust="spacing" textLength="6.3" x="31.5" y="341.3417">9</text><text fill="#000000" font-family="sans-serif" font-size="11.7" lengthAdjust="spacing" textLength="70.2" x="41.4" y="341.3417">select the job</text><polygon fill="#181818" points="35.1,370.64,26.1,374.24,35.1,377.84,31.5,374.24" style="stroke:#181818;stroke-width:0.9;"/><line style="stroke:#181818;stroke-width:0.9;stroke-dasharray:2.0,2.0;" x1="29.7" x2="443.7" y1="374.24" y2="374.24"/><text fill="#000000" font-family="sans-serif" font-size="11.7" font-weight="bold" lengthAdjust="spacing" textLength="12.6" x="40.5" y="369.5036">10</text><text fill="#000000" font-family="sans-serif" font-size="11.7" lengthAdjust="spacing" textLength="228.6" x="56.7" y="369.5036">shows all data and requests for confirmation</text><polygon fill="#181818" points="429.3,398.802,438.3,402.402,429.3,406.002,432.9,402.402" style="stroke:#181818;stroke-width:0.9;"/><line style="stroke:#181818;stroke-width:0.9;" x1="25.2" x2="434.7" y1="402.402" y2="402.402"/><text fill="#000000" font-family="sans-serif" font-size="11.7" font-weight="bold" lengthAdjust="spacing" textLength="12.6" x="31.5" y="397.6655">11</text><text fill="#000000" font-family="sans-serif" font-size="11.7" lengthAdjust="spacing" textLength="90" x="47.7" y="397.6655">confirms the data</text><polygon fill="#181818" points="581.85,426.9639,590.85,430.5639,581.85,434.1639,585.45,430.5639" style="stroke:#181818;stroke-width:0.9;"/><line style="stroke:#181818;stroke-width:0.9;" x1="444.6" x2="587.25" y1="430.5639" y2="430.5639"/><text fill="#000000" font-family="sans-serif" font-size="11.7" font-weight="bold" lengthAdjust="spacing" textLength="12.6" x="450.9" y="425.8274">12</text><text fill="#000000" font-family="sans-serif" font-size="11.7" lengthAdjust="spacing" textLength="96.3" x="467.1" y="425.8274">create collaborator</text><polygon fill="#181818" points="1050.75,470.6877,1059.75,474.2877,1050.75,477.8877,1054.35,474.2877" style="stroke:#181818;stroke-width:0.9;"/><line style="stroke:#181818;stroke-width:0.9;" x1="601.65" x2="1056.15" y1="474.2877" y2="474.2877"/><text fill="#000000" font-family="sans-serif" font-size="11.7" font-weight="bold" lengthAdjust="spacing" textLength="12.6" x="607.95" y="461.7703">13</text><text fill="#000000" font-family="sans-serif" font-size="11.7" lengthAdjust="spacing" textLength="306.9" x="624.15" y="453.9894">createCLB(name, birthdate, contactMobile, email, address,</text><text fill="#000000" font-family="sans-serif" font-size="11.7" lengthAdjust="spacing" textLength="418.5" x="627.75" y="469.5513">city, documentType, identificationNumber, admissionDate, job, taxpayerNumber)</text><rect fill="#E3E3E3" height="29.359" rx="2.25" ry="2.25" style="stroke:#181818;stroke-width:0.45;" width="86.4" x="1061.55" y="442.2287"/><text fill="#000000" font-family="sans-serif" font-size="12.6" lengthAdjust="spacing" textLength="73.8" x="1067.85" y="462.1254">:Collaborator</text><line style="stroke:#181818;stroke-width:0.9;" x1="1109.25" x2="1147.05" y1="502.4496" y2="502.4496"/><line style="stroke:#181818;stroke-width:0.9;" x1="1147.05" x2="1147.05" y1="502.4496" y2="514.1496"/><line style="stroke:#181818;stroke-width:0.9;" x1="1110.15" x2="1147.05" y1="514.1496" y2="514.1496"/><polygon fill="#181818" points="1119.15,510.5496,1110.15,514.1496,1119.15,517.7496,1115.55,514.1496" style="stroke:#181818;stroke-width:0.9;"/><text fill="#000000" font-family="sans-serif" font-size="11.7" font-weight="bold" lengthAdjust="spacing" textLength="12.6" x="1115.55" y="497.7132">14</text><text fill="#000000" font-family="sans-serif" font-size="11.7" lengthAdjust="spacing" textLength="95.4" x="1131.75" y="497.7132">verifyCollaborator()</text><polygon fill="#181818" points="611.55,538.7115,602.55,542.3115,611.55,545.9115,607.95,542.3115" style="stroke:#181818;stroke-width:0.9;"/><line style="stroke:#181818;stroke-width:0.9;" x1="606.15" x2="1103.85" y1="542.3115" y2="542.3115"/><text fill="#000000" font-family="sans-serif" font-size="11.7" font-weight="bold" lengthAdjust="spacing" textLength="12.6" x="616.95" y="537.5751">15</text><text fill="#000000" font-family="sans-serif" font-size="11.7" lengthAdjust="spacing" textLength="99" x="633.15" y="537.5751">returnCollaborator()</text><polygon fill="#181818" points="772.65,566.8734,781.65,570.4734,772.65,574.0734,776.25,570.4734" style="stroke:#181818;stroke-width:0.9;"/><line style="stroke:#181818;stroke-width:0.9;" x1="601.65" x2="778.05" y1="570.4734" y2="570.4734"/><text fill="#000000" font-family="sans-serif" font-size="11.7" font-weight="bold" lengthAdjust="spacing" textLength="12.6" x="607.95" y="565.737">16</text><text fill="#000000" font-family="sans-serif" font-size="11.7" lengthAdjust="spacing" textLength="148.5" x="624.15" y="565.737">addCollaborator(collaborator)</text><polygon fill="#181818" points="611.55,595.0354,602.55,598.6354,611.55,602.2354,607.95,598.6354" style="stroke:#181818;stroke-width:0.9;"/><line style="stroke:#181818;stroke-width:0.9;stroke-dasharray:2.0,2.0;" x1="606.15" x2="787.05" y1="598.6354" y2="598.6354"/><text fill="#000000" font-family="sans-serif" font-size="11.7" font-weight="bold" lengthAdjust="spacing" textLength="12.6" x="616.95" y="593.8989">17</text><text fill="#000000" font-family="sans-serif" font-size="11.7" lengthAdjust="spacing" textLength="44.1" x="633.15" y="593.8989">success</text><polygon fill="#181818" points="459,623.1973,450,626.7973,459,630.3973,455.4,626.7973" style="stroke:#181818;stroke-width:0.9;"/><line style="stroke:#181818;stroke-width:0.9;stroke-dasharray:2.0,2.0;" x1="453.6" x2="596.25" y1="626.7973" y2="626.7973"/><text fill="#000000" font-family="sans-serif" font-size="11.7" font-weight="bold" lengthAdjust="spacing" textLength="12.6" x="464.4" y="622.0608">18</text><text fill="#000000" font-family="sans-serif" font-size="11.7" lengthAdjust="spacing" textLength="44.1" x="480.6" y="622.0608">success</text><polygon fill="#181818" points="30.6,651.3592,21.6,654.9592,30.6,658.5592,27,654.9592" style="stroke:#181818;stroke-width:0.9;"/><line style="stroke:#181818;stroke-width:0.9;stroke-dasharray:2.0,2.0;" x1="25.2" x2="443.7" y1="654.9592" y2="654.9592"/><text fill="#000000" font-family="sans-serif" font-size="11.7" font-weight="bold" lengthAdjust="spacing" textLength="12.6" x="36" y="650.2228">19</text><text fill="#000000" font-family="sans-serif" font-size="11.7" lengthAdjust="spacing" textLength="314.1" x="52.2" y="650.2228">shows success message (collaborator created successfully)</text><!--SRC=[bLLDSvim4BtpAtPoiZFa3t38eMvdcepJwRZ9gUb1HekjMaXK4d7vzrt4HoMCOuU3ZQItJ_lnTh47eIfcM0cbLZhV6rqYE5DZOiUJYkK7jiCVhf481dF7r4w60BjdN1-5sa71fCKaORNJgYwtQEWzTzh0pTVDqmqm2_IVa9KJkQYOSd2JRN0dh4EpqbAohJQCy2yF7lpoCC66c9LMpj0QZSUkdZVh69q7u0rMsWfwQR9NjPezw5ZMdpPVlhzpwu2A8R_rDhhXCLnxamYH-BI8D-RG9oI1_g45tDrJt931aPWjE4qfxn8431GU8GnhD1pfA6NZ9j7S4LjBcf4F1mi5bSBj4OGgD94XHmuBnKfCOIkCstEYIEa6vOZmIM-5f2MMJCWK6ES6hKtXLK4kN9C2rtbTedBFJOK_V_rVhpJ75byAQuLMdubqEJh5STRNC797V9R2_bCZnSs1l6AN8xtt4iXWXwxDDgmfQKboQkU5CcwtJxlJsaSr0iz4XRIBPOGUYIOb3J4nK-yQCTA-zNw5u20ZKvMSUZdaQ8nmXgMBy8mEx5uVhHU197FGXNSAcE93nhteB4hgTD0AprLkjdIzMKjFjDVAS_2AIUcB7NlJYfOaMGXJCaTwkbfAsM3MnViH6L4ekS7sF6gtIrTV8JAQ7RUt8psjFjf_i-sNWk3qAWgH-nnzyzDtqeHfMvCK7FjRiGPDXrd6RiPHq9o3cOVs-r0ea3SqecZ26RcOuGpDklmQTBLH4xkfIQXgSkRaFCWgpUsiJLB465RlGgJjt4_clQOZBzNUSrldELNYWhEpV74JJubEUdXEhUzqTSy79VtG5nkYy7l5yG5Lr58sP-To4gpz9-eV]--></g></svg>