<?xml version="1.0" encoding="us-ascii" standalone="no"?><svg xmlns="http://www.w3.org/2000/svg" xmlns:xlink="http://www.w3.org/1999/xlink" contentStyleType="text/css" height="662.4px" preserveAspectRatio="none" style="width:1236px;height:662px;background:#FFFFFF;" version="1.1" viewBox="0 0 1236 662" width="1236.8px" zoomAndPan="magnify"><defs/><g><rect fill="#FFFFFF" height="507.2891" style="stroke:#181818;stroke-width:0.8000000000000002;" width="8" x="14.4" y="74.8969"/><rect fill="#FFFFFF" height="38.8656" style="stroke:#181818;stroke-width:0.8000000000000002;" width="8" x="391.2" y="93.5297"/><rect fill="#FFFFFF" height="125.1641" style="stroke:#181818;stroke-width:0.8000000000000002;" width="8" x="391.2" y="157.4281"/><rect fill="#FFFFFF" height="25.0328" style="stroke:#181818;stroke-width:0.8000000000000002;" width="8" x="391.2" y="307.625"/><rect fill="#FFFFFF" height="25.0328" style="stroke:#181818;stroke-width:0.8000000000000002;" width="8" x="391.2" y="357.6906"/><rect fill="#FFFFFF" height="25.0328" style="stroke:#181818;stroke-width:0.8000000000000002;" width="8" x="391.2" y="557.1531"/><rect fill="#FFFFFF" height="75.0984" style="stroke:#181818;stroke-width:0.8000000000000002;" width="8" x="504.4" y="182.4609"/><rect fill="#FFFFFF" height="174.4297" style="stroke:#181818;stroke-width:0.8000000000000002;" width="8" x="616.4" y="382.7234"/><rect fill="#FFFFFF" height="25.0328" style="stroke:#181818;stroke-width:0.8000000000000002;" width="8" x="786" y="507.0875"/><rect fill="#FFFFFF" height="52.4656" style="stroke:#181818;stroke-width:0.8000000000000002;" width="8" x="1067.6" y="429.5891"/><rect fill="#FFFFFF" height="25.0328" style="stroke:#181818;stroke-width:0.8000000000000002;" width="8" x="1186" y="207.4938"/><line style="stroke:#181818;stroke-width:0.4000000000000001;stroke-dasharray:5.0,5.0;" x1="18.4" x2="18.4" y1="66.8969" y2="596.5859"/><line style="stroke:#181818;stroke-width:0.4000000000000001;stroke-dasharray:5.0,5.0;" x1="394.8" x2="394.8" y1="66.8969" y2="596.5859"/><line style="stroke:#181818;stroke-width:0.4000000000000001;stroke-dasharray:5.0,5.0;" x1="508.4" x2="508.4" y1="66.8969" y2="596.5859"/><line style="stroke:#181818;stroke-width:0.4000000000000001;stroke-dasharray:5.0,5.0;" x1="620.4" x2="620.4" y1="66.8969" y2="596.5859"/><line style="stroke:#181818;stroke-width:0.4000000000000001;stroke-dasharray:5.0,5.0;" x1="789.6" x2="789.6" y1="66.8969" y2="596.5859"/><line style="stroke:#181818;stroke-width:0.4000000000000001;stroke-dasharray:5.0,5.0;" x1="1071.6" x2="1071.6" y1="416.5563" y2="596.5859"/><line style="stroke:#181818;stroke-width:0.4000000000000001;stroke-dasharray:5.0,5.0;" x1="1189.6" x2="1189.6" y1="66.8969" y2="596.5859"/><text fill="#000000" font-family="sans-serif" font-size="11.2" lengthAdjust="spacing" textLength="24" x="4" y="64.0859">HRM</text><ellipse cx="18.4" cy="10.8" fill="#E3E3E3" rx="6.4" ry="6.4" style="stroke:#181818;stroke-width:0.4000000000000001;"/><path d="M18.4,17.2 L18.4,38.8 M8,23.6 L28.8,23.6 M18.4,38.8 L8,50.8 M18.4,38.8 L28.8,50.8 " fill="none" style="stroke:#181818;stroke-width:0.4000000000000001;"/><text fill="#000000" font-family="sans-serif" font-size="11.2" lengthAdjust="spacing" textLength="24" x="4" y="607.8719">HRM</text><ellipse cx="18.4" cy="617.4828" fill="#E3E3E3" rx="6.4" ry="6.4" style="stroke:#181818;stroke-width:0.4000000000000001;"/><path d="M18.4,623.8828 L18.4,645.4828 M8,630.2828 L28.8,630.2828 M18.4,645.4828 L8,657.4828 M18.4,645.4828 L28.8,657.4828 " fill="none" style="stroke:#181818;stroke-width:0.4000000000000001;"/><rect fill="#E3E3E3" height="26.0969" rx="2" ry="2" style="stroke:#181818;stroke-width:0.4000000000000001;" width="128.8" x="330.8" y="40"/><text fill="#000000" font-family="sans-serif" font-size="11.2" lengthAdjust="spacing" textLength="117.6" x="336.4" y="57.6859">:RegisterCollaboratorUI</text><rect fill="#E3E3E3" height="26.0969" rx="2" ry="2" style="stroke:#181818;stroke-width:0.4000000000000001;" width="128.8" x="330.8" y="595.7859"/><text fill="#000000" font-family="sans-serif" font-size="11.2" lengthAdjust="spacing" textLength="117.6" x="336.4" y="613.4719">:RegisterCollaboratorUI</text><rect fill="#E3E3E3" height="26.0969" rx="2" ry="2" style="stroke:#181818;stroke-width:0.4000000000000001;" width="81.6" x="467.6" y="40"/><text fill="#000000" font-family="sans-serif" font-size="11.2" lengthAdjust="spacing" textLength="70.4" x="473.2" y="57.6859">:JobController</text><rect fill="#E3E3E3" height="26.0969" rx="2" ry="2" style="stroke:#181818;stroke-width:0.4000000000000001;" width="81.6" x="467.6" y="595.7859"/><text fill="#000000" font-family="sans-serif" font-size="11.2" lengthAdjust="spacing" textLength="70.4" x="473.2" y="613.4719">:JobController</text><rect fill="#E3E3E3" height="26.0969" rx="2" ry="2" style="stroke:#181818;stroke-width:0.4000000000000001;" width="126.4" x="557.2" y="40"/><text fill="#000000" font-family="sans-serif" font-size="11.2" lengthAdjust="spacing" textLength="115.2" x="562.8" y="57.6859">:CollaboratorController</text><rect fill="#E3E3E3" height="26.0969" rx="2" ry="2" style="stroke:#181818;stroke-width:0.4000000000000001;" width="126.4" x="557.2" y="595.7859"/><text fill="#000000" font-family="sans-serif" font-size="11.2" lengthAdjust="spacing" textLength="115.2" x="562.8" y="613.4719">:CollaboratorController</text><rect fill="#E3E3E3" height="40.9938" rx="2" ry="2" style="stroke:#181818;stroke-width:0.4000000000000001;" width="128.8" x="725.6" y="25.1031"/><text fill="#000000" font-family="sans-serif" font-size="11.2" lengthAdjust="spacing" textLength="117.6" x="731.2" y="42.7891">collaboratorRepository:</text><text fill="#000000" font-family="sans-serif" font-size="11.2" lengthAdjust="spacing" textLength="116.8" x="731.6" y="57.6859">CollaboratorRepository</text><rect fill="#E3E3E3" height="40.9938" rx="2" ry="2" style="stroke:#181818;stroke-width:0.4000000000000001;" width="128.8" x="725.6" y="595.7859"/><text fill="#000000" font-family="sans-serif" font-size="11.2" lengthAdjust="spacing" textLength="117.6" x="731.2" y="613.4719">collaboratorRepository:</text><text fill="#000000" font-family="sans-serif" font-size="11.2" lengthAdjust="spacing" textLength="116.8" x="731.6" y="628.3688">CollaboratorRepository</text><rect fill="#E3E3E3" height="26.0969" rx="2" ry="2" style="stroke:#181818;stroke-width:0.4000000000000001;" width="76.8" x="1033.2" y="595.7859"/><text fill="#000000" font-family="sans-serif" font-size="11.2" lengthAdjust="spacing" textLength="65.6" x="1038.8" y="613.4719">:Collaborator</text><rect fill="#E3E3E3" height="40.9938" rx="2" ry="2" style="stroke:#181818;stroke-width:0.4000000000000001;" width="84" x="1148" y="25.1031"/><text fill="#000000" font-family="sans-serif" font-size="11.2" lengthAdjust="spacing" textLength="72.8" x="1153.6" y="42.7891">jobRepository:</text><text fill="#000000" font-family="sans-serif" font-size="11.2" lengthAdjust="spacing" textLength="72" x="1154" y="57.6859">JobRepository</text><rect fill="#E3E3E3" height="40.9938" rx="2" ry="2" style="stroke:#181818;stroke-width:0.4000000000000001;" width="84" x="1148" y="595.7859"/><text fill="#000000" font-family="sans-serif" font-size="11.2" lengthAdjust="spacing" textLength="72.8" x="1153.6" y="613.4719">jobRepository:</text><text fill="#000000" font-family="sans-serif" font-size="11.2" lengthAdjust="spacing" textLength="72" x="1154" y="628.3688">JobRepository</text><rect fill="#FFFFFF" height="507.2891" style="stroke:#181818;stroke-width:0.8000000000000002;" width="8" x="14.4" y="74.8969"/><rect fill="#FFFFFF" height="38.8656" style="stroke:#181818;stroke-width:0.8000000000000002;" width="8" x="391.2" y="93.5297"/><rect fill="#FFFFFF" height="125.1641" style="stroke:#181818;stroke-width:0.8000000000000002;" width="8" x="391.2" y="157.4281"/><rect fill="#FFFFFF" height="25.0328" style="stroke:#181818;stroke-width:0.8000000000000002;" width="8" x="391.2" y="307.625"/><rect fill="#FFFFFF" height="25.0328" style="stroke:#181818;stroke-width:0.8000000000000002;" width="8" x="391.2" y="357.6906"/><rect fill="#FFFFFF" height="25.0328" style="stroke:#181818;stroke-width:0.8000000000000002;" width="8" x="391.2" y="557.1531"/><rect fill="#FFFFFF" height="75.0984" style="stroke:#181818;stroke-width:0.8000000000000002;" width="8" x="504.4" y="182.4609"/><rect fill="#FFFFFF" height="174.4297" style="stroke:#181818;stroke-width:0.8000000000000002;" width="8" x="616.4" y="382.7234"/><rect fill="#FFFFFF" height="25.0328" style="stroke:#181818;stroke-width:0.8000000000000002;" width="8" x="786" y="507.0875"/><rect fill="#FFFFFF" height="52.4656" style="stroke:#181818;stroke-width:0.8000000000000002;" width="8" x="1067.6" y="429.5891"/><rect fill="#FFFFFF" height="25.0328" style="stroke:#181818;stroke-width:0.8000000000000002;" width="8" x="1186" y="207.4938"/><polygon fill="#181818" points="381.6,90.3297,389.6,93.5297,381.6,96.7297,384.8,93.5297" style="stroke:#181818;stroke-width:0.8000000000000002;"/><line style="stroke:#181818;stroke-width:0.8000000000000002;" x1="22.4" x2="386.4" y1="93.5297" y2="93.5297"/><text fill="#000000" font-family="sans-serif" font-size="10.4" font-weight="bold" lengthAdjust="spacing" textLength="5.6" x="28" y="89.3195">1</text><text fill="#000000" font-family="sans-serif" font-size="10.4" lengthAdjust="spacing" textLength="164" x="36.8" y="89.3195">wants to register a new collaborator</text><polygon fill="#181818" points="31.2,129.1953,23.2,132.3953,31.2,135.5953,28,132.3953" style="stroke:#181818;stroke-width:0.8000000000000002;"/><line style="stroke:#181818;stroke-width:0.8000000000000002;stroke-dasharray:2.0,2.0;" x1="26.4" x2="394.4" y1="132.3953" y2="132.3953"/><text fill="#000000" font-family="sans-serif" font-size="10.4" font-weight="bold" lengthAdjust="spacing" textLength="5.6" x="36" y="121.2688">2</text><text fill="#000000" font-family="sans-serif" font-size="10.4" lengthAdjust="spacing" textLength="337.6" x="44.8" y="114.3523">asks for the info needed (name, birthdate, contactMobile, email, address,</text><text fill="#000000" font-family="sans-serif" font-size="10.4" lengthAdjust="spacing" textLength="252" x="48" y="128.1852">city, documentType[], documentCode, admissionDate)</text><polygon fill="#181818" points="381.6,154.2281,389.6,157.4281,381.6,160.6281,384.8,157.4281" style="stroke:#181818;stroke-width:0.8000000000000002;"/><line style="stroke:#181818;stroke-width:0.8000000000000002;" x1="22.4" x2="386.4" y1="157.4281" y2="157.4281"/><text fill="#000000" font-family="sans-serif" font-size="10.4" font-weight="bold" lengthAdjust="spacing" textLength="5.6" x="28" y="153.218">3</text><text fill="#000000" font-family="sans-serif" font-size="10.4" lengthAdjust="spacing" textLength="97.6" x="36.8" y="153.218">types requested data</text><polygon fill="#181818" points="494.8,179.2609,502.8,182.4609,494.8,185.6609,498,182.4609" style="stroke:#181818;stroke-width:0.8000000000000002;"/><line style="stroke:#181818;stroke-width:0.8000000000000002;" x1="399.2" x2="499.6" y1="182.4609" y2="182.4609"/><text fill="#000000" font-family="sans-serif" font-size="10.4" font-weight="bold" lengthAdjust="spacing" textLength="5.6" x="404.8" y="178.2508">4</text><text fill="#000000" font-family="sans-serif" font-size="10.4" lengthAdjust="spacing" textLength="48" x="413.6" y="178.2508">get job list</text><polygon fill="#181818" points="1176.4,204.2938,1184.4,207.4938,1176.4,210.6938,1179.6,207.4938" style="stroke:#181818;stroke-width:0.8000000000000002;"/><line style="stroke:#181818;stroke-width:0.8000000000000002;" x1="512.4" x2="1181.2" y1="207.4938" y2="207.4938"/><text fill="#000000" font-family="sans-serif" font-size="10.4" font-weight="bold" lengthAdjust="spacing" textLength="5.6" x="518" y="203.2836">5</text><text fill="#000000" font-family="sans-serif" font-size="10.4" lengthAdjust="spacing" textLength="42.4" x="526.8" y="203.2836">getJobs()</text><polygon fill="#181818" points="521.2,229.3266,513.2,232.5266,521.2,235.7266,518,232.5266" style="stroke:#181818;stroke-width:0.8000000000000002;"/><line style="stroke:#181818;stroke-width:0.8000000000000002;" x1="516.4" x2="1189.2" y1="232.5266" y2="232.5266"/><text fill="#000000" font-family="sans-serif" font-size="10.4" font-weight="bold" lengthAdjust="spacing" textLength="5.6" x="526" y="228.3164">6</text><text fill="#000000" font-family="sans-serif" font-size="10.4" lengthAdjust="spacing" textLength="36" x="534.8" y="228.3164">jobsList</text><polygon fill="#181818" points="408,254.3594,400,257.5594,408,260.7594,404.8,257.5594" style="stroke:#181818;stroke-width:0.8000000000000002;"/><line style="stroke:#181818;stroke-width:0.8000000000000002;stroke-dasharray:2.0,2.0;" x1="403.2" x2="507.6" y1="257.5594" y2="257.5594"/><text fill="#000000" font-family="sans-serif" font-size="10.4" font-weight="bold" lengthAdjust="spacing" textLength="5.6" x="412.8" y="253.3492">7</text><text fill="#000000" font-family="sans-serif" font-size="10.4" lengthAdjust="spacing" textLength="30.4" x="421.6" y="253.3492">job list</text><polygon fill="#181818" points="31.2,279.3922,23.2,282.5922,31.2,285.7922,28,282.5922" style="stroke:#181818;stroke-width:0.8000000000000002;"/><line style="stroke:#181818;stroke-width:0.8000000000000002;stroke-dasharray:2.0,2.0;" x1="26.4" x2="394.4" y1="282.5922" y2="282.5922"/><text fill="#000000" font-family="sans-serif" font-size="10.4" font-weight="bold" lengthAdjust="spacing" textLength="5.6" x="36" y="278.382">8</text><text fill="#000000" font-family="sans-serif" font-size="10.4" lengthAdjust="spacing" textLength="224" x="44.8" y="278.382">shows the list of jobs and requests to select one</text><polygon fill="#181818" points="381.6,304.425,389.6,307.625,381.6,310.825,384.8,307.625" style="stroke:#181818;stroke-width:0.8000000000000002;"/><line style="stroke:#181818;stroke-width:0.8000000000000002;" x1="22.4" x2="386.4" y1="307.625" y2="307.625"/><text fill="#000000" font-family="sans-serif" font-size="10.4" font-weight="bold" lengthAdjust="spacing" textLength="5.6" x="28" y="303.4148">9</text><text fill="#000000" font-family="sans-serif" font-size="10.4" lengthAdjust="spacing" textLength="62.4" x="36.8" y="303.4148">select the job</text><polygon fill="#181818" points="31.2,329.4578,23.2,332.6578,31.2,335.8578,28,332.6578" style="stroke:#181818;stroke-width:0.8000000000000002;"/><line style="stroke:#181818;stroke-width:0.8000000000000002;stroke-dasharray:2.0,2.0;" x1="26.4" x2="394.4" y1="332.6578" y2="332.6578"/><text fill="#000000" font-family="sans-serif" font-size="10.4" font-weight="bold" lengthAdjust="spacing" textLength="11.2" x="36" y="328.4477">10</text><text fill="#000000" font-family="sans-serif" font-size="10.4" lengthAdjust="spacing" textLength="203.2" x="50.4" y="328.4477">shows all data and requests for confirmation</text><polygon fill="#181818" points="381.6,354.4906,389.6,357.6906,381.6,360.8906,384.8,357.6906" style="stroke:#181818;stroke-width:0.8000000000000002;"/><line style="stroke:#181818;stroke-width:0.8000000000000002;" x1="22.4" x2="386.4" y1="357.6906" y2="357.6906"/><text fill="#000000" font-family="sans-serif" font-size="10.4" font-weight="bold" lengthAdjust="spacing" textLength="11.2" x="28" y="353.4805">11</text><text fill="#000000" font-family="sans-serif" font-size="10.4" lengthAdjust="spacing" textLength="80" x="42.4" y="353.4805">confirms the data</text><polygon fill="#181818" points="606.8,379.5234,614.8,382.7234,606.8,385.9234,610,382.7234" style="stroke:#181818;stroke-width:0.8000000000000002;"/><line style="stroke:#181818;stroke-width:0.8000000000000002;" x1="395.2" x2="611.6" y1="382.7234" y2="382.7234"/><text fill="#000000" font-family="sans-serif" font-size="10.4" font-weight="bold" lengthAdjust="spacing" textLength="11.2" x="400.8" y="378.5133">12</text><text fill="#000000" font-family="sans-serif" font-size="10.4" lengthAdjust="spacing" textLength="85.6" x="415.2" y="378.5133">create collaborator</text><polygon fill="#181818" points="1023.6,418.3891,1031.6,421.5891,1023.6,424.7891,1026.8,421.5891" style="stroke:#181818;stroke-width:0.8000000000000002;"/><line style="stroke:#181818;stroke-width:0.8000000000000002;" x1="624.4" x2="1028.4" y1="421.5891" y2="421.5891"/><text fill="#000000" font-family="sans-serif" font-size="10.4" font-weight="bold" lengthAdjust="spacing" textLength="11.2" x="630" y="410.4625">13</text><text fill="#000000" font-family="sans-serif" font-size="10.4" lengthAdjust="spacing" textLength="272.8" x="644.4" y="403.5461">createCLB(name, birthdate, contactMobile, email, address,</text><text fill="#000000" font-family="sans-serif" font-size="10.4" lengthAdjust="spacing" textLength="372" x="647.6" y="417.3789">city, documentType, identificationNumber, admissionDate, job, taxpayerNumber)</text><rect fill="#E3E3E3" height="26.0969" rx="2" ry="2" style="stroke:#181818;stroke-width:0.4000000000000001;" width="76.8" x="1033.2" y="393.0922"/><text fill="#000000" font-family="sans-serif" font-size="11.2" lengthAdjust="spacing" textLength="65.6" x="1038.8" y="410.7781">:Collaborator</text><line style="stroke:#181818;stroke-width:0.8000000000000002;" x1="1075.6" x2="1109.2" y1="446.6219" y2="446.6219"/><line style="stroke:#181818;stroke-width:0.8000000000000002;" x1="1109.2" x2="1109.2" y1="446.6219" y2="457.0219"/><line style="stroke:#181818;stroke-width:0.8000000000000002;" x1="1076.4" x2="1109.2" y1="457.0219" y2="457.0219"/><polygon fill="#181818" points="1084.4,453.8219,1076.4,457.0219,1084.4,460.2219,1081.2,457.0219" style="stroke:#181818;stroke-width:0.8000000000000002;"/><text fill="#000000" font-family="sans-serif" font-size="10.4" font-weight="bold" lengthAdjust="spacing" textLength="11.2" x="1081.2" y="442.4117">14</text><text fill="#000000" font-family="sans-serif" font-size="10.4" lengthAdjust="spacing" textLength="84.8" x="1095.6" y="442.4117">verifyCollaborator()</text><polygon fill="#181818" points="633.2,478.8547,625.2,482.0547,633.2,485.2547,630,482.0547" style="stroke:#181818;stroke-width:0.8000000000000002;"/><line style="stroke:#181818;stroke-width:0.8000000000000002;" x1="628.4" x2="1070.8" y1="482.0547" y2="482.0547"/><text fill="#000000" font-family="sans-serif" font-size="10.4" font-weight="bold" lengthAdjust="spacing" textLength="11.2" x="638" y="477.8445">15</text><text fill="#000000" font-family="sans-serif" font-size="10.4" lengthAdjust="spacing" textLength="88" x="652.4" y="477.8445">returnCollaborator()</text><polygon fill="#181818" points="776.4,503.8875,784.4,507.0875,776.4,510.2875,779.6,507.0875" style="stroke:#181818;stroke-width:0.8000000000000002;"/><line style="stroke:#181818;stroke-width:0.8000000000000002;" x1="624.4" x2="781.2" y1="507.0875" y2="507.0875"/><text fill="#000000" font-family="sans-serif" font-size="10.4" font-weight="bold" lengthAdjust="spacing" textLength="11.2" x="630" y="502.8773">16</text><text fill="#000000" font-family="sans-serif" font-size="10.4" lengthAdjust="spacing" textLength="132" x="644.4" y="502.8773">addCollaborator(collaborator)</text><polygon fill="#181818" points="633.2,528.9203,625.2,532.1203,633.2,535.3203,630,532.1203" style="stroke:#181818;stroke-width:0.8000000000000002;"/><line style="stroke:#181818;stroke-width:0.8000000000000002;stroke-dasharray:2.0,2.0;" x1="628.4" x2="789.2" y1="532.1203" y2="532.1203"/><text fill="#000000" font-family="sans-serif" font-size="10.4" font-weight="bold" lengthAdjust="spacing" textLength="11.2" x="638" y="527.9102">17</text><text fill="#000000" font-family="sans-serif" font-size="10.4" lengthAdjust="spacing" textLength="39.2" x="652.4" y="527.9102">success</text><polygon fill="#181818" points="408,553.9531,400,557.1531,408,560.3531,404.8,557.1531" style="stroke:#181818;stroke-width:0.8000000000000002;"/><line style="stroke:#181818;stroke-width:0.8000000000000002;stroke-dasharray:2.0,2.0;" x1="403.2" x2="619.6" y1="557.1531" y2="557.1531"/><text fill="#000000" font-family="sans-serif" font-size="10.4" font-weight="bold" lengthAdjust="spacing" textLength="11.2" x="412.8" y="552.943">18</text><text fill="#000000" font-family="sans-serif" font-size="10.4" lengthAdjust="spacing" textLength="39.2" x="427.2" y="552.943">success</text><polygon fill="#181818" points="27.2,578.9859,19.2,582.1859,27.2,585.3859,24,582.1859" style="stroke:#181818;stroke-width:0.8000000000000002;"/><line style="stroke:#181818;stroke-width:0.8000000000000002;stroke-dasharray:2.0,2.0;" x1="22.4" x2="394.4" y1="582.1859" y2="582.1859"/><text fill="#000000" font-family="sans-serif" font-size="10.4" font-weight="bold" lengthAdjust="spacing" textLength="11.2" x="32" y="577.9758">19</text><text fill="#000000" font-family="sans-serif" font-size="10.4" lengthAdjust="spacing" textLength="279.2" x="46.4" y="577.9758">shows success message (collaborator created successfully)</text><!--SRC=[bLN1SjiW4BthAtPoiZFA3-YGGzJED1wdqt6JKzC35YkR6e4BAAx-lWksL53asDKX4V3swUtRPMrtGksPOGqqMkbgQtI3u4oBcHrEzgpQiGr-Tvr4C5WvfZOo1jWju_eWr0Pg9Yrc6MkTLcspHaFlbTC6Rhwidcw0MQ3_6KKvKOazKmvkYXLkX7LeIYqbMsl32F_o6C0lZoFiGgzBhPmXA9e0MPGZI4mpmfRFgsMAhYBm2lVQ2dhfYbTLJXuSMPOFgy_VFlXgZqeXl_Gw-S8YNeUG1945vyGRSnWyo-3qq0BkxiaQAE10p1QSfgeSFGG62WyGfpK43dJawh19D7V4vaaBqh2pK5Ert1P1g5eJ6NBaC5EimHpMmhWj9ugSlg0S4JxfjP2qn8O9cGFZtA2rERmgg8JhSk2wQXjKxhdRuu-V_zQbvkZnZR1MQFM9IEU3A8wJMkFC7V5PIljtYvGt1rB5BcTwJ-rIm0QTzneaMPPbxwEefOPD_onA7vbK1m8BbT3EvWbs81aLCyQaJ44KyT6kNNf5CJHoOjmTOuMzCqDc4nm-ipErjrjziA7mFXXq7GG1KxntEJIQHKa30BJ2SzMQBDSfpDCJxRKjsQjYKeO2fsfyer8Rri8qp54FNTq-HHzspFVQrl7JWrAf3Fhpv8fT-lIm6IPGKhh0wjcN3xUt0psj_lVEJLwv70IdLr6BAdZqDGpbqSNBVKroSEpFddLeZfXvAZFDWcORJ3oqVqg54db38-ekdekp2SuuxEYlGTSQDOeRXqG-Up7lpYDNQLONtgI4CQxUXKpzhC-cLTDHQDMJSjjM5LNYWjX9lgFUuRQCY6A2f87YPllWLf_ueA4_z4CEIVgdZkCzgcwbxCxEuYnQXv-blm00]--></g></svg>