<?xml version="1.0" encoding="us-ascii" standalone="no"?><svg xmlns="http://www.w3.org/2000/svg" xmlns:xlink="http://www.w3.org/1999/xlink" contentStyleType="text/css" height="666px" preserveAspectRatio="none" style="width:459px;height:666px;background:#FFFFFF;" version="1.1" viewBox="0 0 459 666" width="459.6px" zoomAndPan="magnify"><defs/><g><!--class RegisterCollaboratorUI--><g id="elem_RegisterCollaboratorUI"><rect codeLine="10" fill="#F1F1F1" height="28.8" id="RegisterCollaboratorUI" rx="1.5" ry="1.5" style="stroke:#181818;stroke-width:0.3;" width="105" x="190.5" y="4.2"/><ellipse cx="199.5" cy="13.8" fill="#ADD1B2" rx="6.6" ry="6.6" style="stroke:#181818;stroke-width:0.6;"/><path d="M201.1594,11.325 Q201.2531,11.1938 201.3656,11.1281 Q201.4781,11.0625 201.6094,11.0625 Q201.8344,11.0625 201.975,11.2219 Q202.1156,11.3719 202.1156,11.7375 L202.1156,12.6094 Q202.1156,12.975 201.975,13.1344 Q201.8344,13.2938 201.6094,13.2938 Q201.4031,13.2938 201.2813,13.1719 Q201.1594,13.0594 201.0938,12.75 Q201.0656,12.5344 200.9531,12.4219 Q200.7563,12.1969 200.3906,12.0656 Q200.025,11.9344 199.65,11.9344 Q199.1906,11.9344 198.8063,12.1313 Q198.4313,12.3281 198.1313,12.7781 Q197.8406,13.2281 197.8406,13.8469 L197.8406,14.5031 Q197.8406,15.2437 198.375,15.7406 Q198.9094,16.2281 199.8656,16.2281 Q200.4281,16.2281 200.8219,16.0781 Q201.0563,15.9844 201.3094,15.7219 Q201.4688,15.5625 201.5531,15.5156 Q201.6469,15.4688 201.7687,15.4688 Q201.9656,15.4688 202.1156,15.6281 Q202.275,15.7781 202.275,15.9844 Q202.275,16.1906 202.0688,16.4344 Q201.7687,16.7813 201.2906,16.9781 Q200.6437,17.25 199.8656,17.25 Q198.9562,17.25 198.2344,16.875 Q197.6437,16.575 197.2313,15.9375 Q196.8188,15.2906 196.8188,14.5219 L196.8188,13.8281 Q196.8188,13.0313 197.1844,12.3469 Q197.5594,11.6531 198.2156,11.2875 Q198.8719,10.9125 199.6125,10.9125 Q200.0531,10.9125 200.4375,11.0156 Q200.8312,11.1094 201.1594,11.325 Z " fill="#000000"/><text fill="#000000" font-family="sans-serif" font-size="8.4" lengthAdjust="spacing" textLength="85.8" x="207.9" y="17.2781">RegisterCollaboratorUI</text><line style="stroke:#181818;stroke-width:0.3;" x1="191.1" x2="294.9" y1="23.4" y2="23.4"/><line style="stroke:#181818;stroke-width:0.3;" x1="191.1" x2="294.9" y1="28.2" y2="28.2"/></g><!--class CollaboratorController--><g id="elem_CollaboratorController"><rect codeLine="13" fill="#F1F1F1" height="95.8359" id="CollaboratorController" rx="1.5" ry="1.5" style="stroke:#181818;stroke-width:0.3;" width="385.8" x="50.1" y="69.6"/><ellipse cx="198.45" cy="79.2" fill="#ADD1B2" rx="6.6" ry="6.6" style="stroke:#181818;stroke-width:0.6;"/><path d="M200.1094,76.725 Q200.2031,76.5938 200.3156,76.5281 Q200.4281,76.4625 200.5594,76.4625 Q200.7844,76.4625 200.925,76.6219 Q201.0656,76.7719 201.0656,77.1375 L201.0656,78.0094 Q201.0656,78.375 200.925,78.5344 Q200.7844,78.6938 200.5594,78.6938 Q200.3531,78.6938 200.2313,78.5719 Q200.1094,78.4594 200.0438,78.15 Q200.0156,77.9344 199.9031,77.8219 Q199.7062,77.5969 199.3406,77.4656 Q198.975,77.3344 198.6,77.3344 Q198.1406,77.3344 197.7563,77.5313 Q197.3813,77.7281 197.0812,78.1781 Q196.7906,78.6281 196.7906,79.2469 L196.7906,79.9031 Q196.7906,80.6438 197.325,81.1406 Q197.8594,81.6281 198.8156,81.6281 Q199.3781,81.6281 199.7719,81.4781 Q200.0063,81.3844 200.2594,81.1219 Q200.4188,80.9625 200.5031,80.9156 Q200.5969,80.8687 200.7188,80.8687 Q200.9156,80.8687 201.0656,81.0281 Q201.225,81.1781 201.225,81.3844 Q201.225,81.5906 201.0187,81.8344 Q200.7188,82.1812 200.2406,82.3781 Q199.5938,82.65 198.8156,82.65 Q197.9063,82.65 197.1844,82.275 Q196.5938,81.975 196.1813,81.3375 Q195.7687,80.6906 195.7687,79.9219 L195.7687,79.2281 Q195.7687,78.4312 196.1344,77.7469 Q196.5094,77.0531 197.1656,76.6875 Q197.8219,76.3125 198.5625,76.3125 Q199.0031,76.3125 199.3875,76.4156 Q199.7813,76.5094 200.1094,76.725 Z " fill="#000000"/><text fill="#000000" font-family="sans-serif" font-size="8.4" lengthAdjust="spacing" textLength="84" x="210.75" y="82.6781">CollaboratorController</text><line style="stroke:#181818;stroke-width:0.3;" x1="50.7" x2="435.3" y1="88.8" y2="88.8"/><line style="stroke:#181818;stroke-width:0.3;" x1="50.7" x2="435.3" y1="93.6" y2="93.6"/><text fill="#000000" font-family="sans-serif" font-size="8.4" lengthAdjust="spacing" textLength="255" x="53.7" y="105.0645">+createCLB(name : String, birthdate : String, contactMobile : String,</text><text fill="#000000" font-family="sans-serif" font-size="8.4" lengthAdjust="spacing" textLength="163.2" x="53.7" y="116.2371">email : String, address : String, city : String,</text><text fill="#000000" font-family="sans-serif" font-size="8.4" lengthAdjust="spacing" textLength="378.6" x="53.7" y="127.4098">documentType, identificationNumber, admissionDate : String, identificationNumber : String, job : Job)</text><text fill="#000000" font-family="sans-serif" font-size="8.4" lengthAdjust="spacing" textLength="103.2" x="53.7" y="138.5824">+assignJob(job : Job) : void</text><text fill="#000000" font-family="sans-serif" font-size="8.4" lengthAdjust="spacing" textLength="115.8" x="53.7" y="149.7551">+getInstance() : JobRepository</text><text fill="#000000" font-family="sans-serif" font-size="8.4" lengthAdjust="spacing" textLength="149.4" x="53.7" y="160.9277">+getInstance() : CollaboratorRepository</text></g><!--class Repositories--><g id="elem_Repositories"><rect codeLine="21" fill="#F1F1F1" height="51.1453" id="Repositories" rx="1.5" ry="1.5" style="stroke:#181818;stroke-width:0.3;" width="212.4" x="136.8" y="213"/><ellipse cx="216.75" cy="222.6" fill="#ADD1B2" rx="6.6" ry="6.6" style="stroke:#181818;stroke-width:0.6;"/><path d="M218.4094,220.125 Q218.5031,219.9938 218.6156,219.9281 Q218.7281,219.8625 218.8594,219.8625 Q219.0844,219.8625 219.225,220.0219 Q219.3656,220.1719 219.3656,220.5375 L219.3656,221.4094 Q219.3656,221.775 219.225,221.9344 Q219.0844,222.0938 218.8594,222.0938 Q218.6531,222.0938 218.5313,221.9719 Q218.4094,221.8594 218.3438,221.55 Q218.3156,221.3344 218.2031,221.2219 Q218.0063,220.9969 217.6406,220.8656 Q217.275,220.7344 216.9,220.7344 Q216.4406,220.7344 216.0563,220.9313 Q215.6813,221.1281 215.3813,221.5781 Q215.0906,222.0281 215.0906,222.6469 L215.0906,223.3031 Q215.0906,224.0438 215.625,224.5406 Q216.1594,225.0281 217.1156,225.0281 Q217.6781,225.0281 218.0719,224.8781 Q218.3063,224.7844 218.5594,224.5219 Q218.7188,224.3625 218.8031,224.3156 Q218.8969,224.2687 219.0187,224.2687 Q219.2156,224.2687 219.3656,224.4281 Q219.525,224.5781 219.525,224.7844 Q219.525,224.9906 219.3188,225.2344 Q219.0187,225.5812 218.5406,225.7781 Q217.8937,226.05 217.1156,226.05 Q216.2062,226.05 215.4844,225.675 Q214.8937,225.375 214.4813,224.7375 Q214.0688,224.0906 214.0688,223.3219 L214.0688,222.6281 Q214.0688,221.8312 214.4344,221.1469 Q214.8094,220.4531 215.4656,220.0875 Q216.1219,219.7125 216.8625,219.7125 Q217.3031,219.7125 217.6875,219.8156 Q218.0812,219.9094 218.4094,220.125 Z " fill="#000000"/><text fill="#000000" font-family="sans-serif" font-size="8.4" lengthAdjust="spacing" textLength="47.4" x="229.05" y="226.0781">Repositories</text><line style="stroke:#181818;stroke-width:0.3;" x1="137.4" x2="348.6" y1="232.2" y2="232.2"/><line style="stroke:#181818;stroke-width:0.3;" x1="137.4" x2="348.6" y1="237" y2="237"/><text fill="#000000" font-family="sans-serif" font-size="8.4" lengthAdjust="spacing" textLength="138" x="140.4" y="248.4645">+getJobRepository() : JobRepository</text><text fill="#000000" font-family="sans-serif" font-size="8.4" lengthAdjust="spacing" textLength="205.2" x="140.4" y="259.6371">+getCollaboratorRepository() : CollaboratorRepository</text></g><!--class CollaboratorRepository--><g id="elem_CollaboratorRepository"><rect codeLine="28" fill="#F1F1F1" height="95.8359" id="CollaboratorRepository" rx="1.5" ry="1.5" style="stroke:#181818;stroke-width:0.3;" width="246" x="15.6" y="311.4"/><ellipse cx="92.25" cy="321" fill="#ADD1B2" rx="6.6" ry="6.6" style="stroke:#181818;stroke-width:0.6;"/><path d="M93.9094,318.525 Q94.0031,318.3938 94.1156,318.3281 Q94.2281,318.2625 94.3594,318.2625 Q94.5844,318.2625 94.725,318.4219 Q94.8656,318.5719 94.8656,318.9375 L94.8656,319.8094 Q94.8656,320.175 94.725,320.3344 Q94.5844,320.4938 94.3594,320.4938 Q94.1531,320.4938 94.0313,320.3719 Q93.9094,320.2594 93.8438,319.95 Q93.8156,319.7344 93.7031,319.6219 Q93.5063,319.3969 93.1406,319.2656 Q92.775,319.1344 92.4,319.1344 Q91.9406,319.1344 91.5562,319.3313 Q91.1812,319.5281 90.8813,319.9781 Q90.5906,320.4281 90.5906,321.0469 L90.5906,321.7031 Q90.5906,322.4437 91.125,322.9406 Q91.6594,323.4281 92.6156,323.4281 Q93.1781,323.4281 93.5719,323.2781 Q93.8062,323.1844 94.0594,322.9219 Q94.2188,322.7625 94.3031,322.7156 Q94.3969,322.6688 94.5188,322.6688 Q94.7156,322.6688 94.8656,322.8281 Q95.025,322.9781 95.025,323.1844 Q95.025,323.3906 94.8188,323.6344 Q94.5188,323.9813 94.0406,324.1781 Q93.3938,324.45 92.6156,324.45 Q91.7063,324.45 90.9844,324.075 Q90.3938,323.775 89.9813,323.1375 Q89.5688,322.4906 89.5688,321.7219 L89.5688,321.0281 Q89.5688,320.2313 89.9344,319.5469 Q90.3094,318.8531 90.9656,318.4875 Q91.6219,318.1125 92.3625,318.1125 Q92.8031,318.1125 93.1875,318.2156 Q93.5813,318.3094 93.9094,318.525 Z " fill="#000000"/><text fill="#000000" font-family="sans-serif" font-size="8.4" lengthAdjust="spacing" textLength="87.6" x="104.55" y="324.4781">CollaboratorRepository</text><line style="stroke:#181818;stroke-width:0.3;" x1="16.2" x2="261" y1="330.6" y2="330.6"/><line style="stroke:#181818;stroke-width:0.3;" x1="16.2" x2="261" y1="335.4" y2="335.4"/><text fill="#000000" font-family="sans-serif" font-size="8.4" lengthAdjust="spacing" textLength="238.8" x="19.2" y="346.8645">+create(name : String, birthdate : String, contactMobile : String,</text><text fill="#000000" font-family="sans-serif" font-size="8.4" lengthAdjust="spacing" textLength="163.2" x="19.2" y="358.0371">email : String, address : String, city : String,</text><text fill="#000000" font-family="sans-serif" font-size="8.4" lengthAdjust="spacing" textLength="199.2" x="19.2" y="369.2098">documentType : String, identificationNumber : String,</text><text fill="#000000" font-family="sans-serif" font-size="8.4" lengthAdjust="spacing" textLength="207.6" x="19.2" y="380.3824">admissionDate : String, taxpayerNumber : int, job : Job)</text><text fill="#000000" font-family="sans-serif" font-size="8.4" lengthAdjust="spacing" textLength="108.6" x="19.2" y="391.5551">+checkForDuplicates() : void</text><text fill="#000000" font-family="sans-serif" font-size="8.4" lengthAdjust="spacing" textLength="139.8" x="19.2" y="402.7277">+addCollaborator(collaborator) : void</text></g><!--class JobRepository--><g id="elem_JobRepository"><rect codeLine="35" fill="#F1F1F1" height="62.318" id="JobRepository" rx="1.5" ry="1.5" style="stroke:#181818;stroke-width:0.3;" width="118.2" x="333.9" y="328.2"/><ellipse cx="363.45" cy="337.8" fill="#ADD1B2" rx="6.6" ry="6.6" style="stroke:#181818;stroke-width:0.6;"/><path d="M365.1094,335.325 Q365.2031,335.1937 365.3156,335.1281 Q365.4281,335.0625 365.5594,335.0625 Q365.7844,335.0625 365.925,335.2219 Q366.0656,335.3719 366.0656,335.7375 L366.0656,336.6094 Q366.0656,336.975 365.925,337.1344 Q365.7844,337.2938 365.5594,337.2938 Q365.3531,337.2938 365.2313,337.1719 Q365.1094,337.0594 365.0438,336.75 Q365.0156,336.5344 364.9031,336.4219 Q364.7063,336.1969 364.3406,336.0656 Q363.975,335.9344 363.6,335.9344 Q363.1406,335.9344 362.7562,336.1312 Q362.3812,336.3281 362.0813,336.7781 Q361.7906,337.2281 361.7906,337.8469 L361.7906,338.5031 Q361.7906,339.2438 362.325,339.7406 Q362.8594,340.2281 363.8156,340.2281 Q364.3781,340.2281 364.7719,340.0781 Q365.0062,339.9844 365.2594,339.7219 Q365.4188,339.5625 365.5031,339.5156 Q365.5969,339.4688 365.7188,339.4688 Q365.9156,339.4688 366.0656,339.6281 Q366.225,339.7781 366.225,339.9844 Q366.225,340.1906 366.0188,340.4344 Q365.7188,340.7813 365.2406,340.9781 Q364.5938,341.25 363.8156,341.25 Q362.9063,341.25 362.1844,340.875 Q361.5938,340.575 361.1813,339.9375 Q360.7688,339.2906 360.7688,338.5219 L360.7688,337.8281 Q360.7688,337.0313 361.1344,336.3469 Q361.5094,335.6531 362.1656,335.2875 Q362.8219,334.9125 363.5625,334.9125 Q364.0031,334.9125 364.3875,335.0156 Q364.7813,335.1094 365.1094,335.325 Z " fill="#000000"/><text fill="#000000" font-family="sans-serif" font-size="8.4" lengthAdjust="spacing" textLength="54" x="375.75" y="341.2781">JobRepository</text><line style="stroke:#181818;stroke-width:0.3;" x1="334.5" x2="451.5" y1="347.4" y2="347.4"/><line style="stroke:#181818;stroke-width:0.3;" x1="334.5" x2="451.5" y1="352.2" y2="352.2"/><text fill="#000000" font-family="sans-serif" font-size="8.4" lengthAdjust="spacing" textLength="111" x="337.5" y="363.6645">+createJob(title : String) : Job</text><text fill="#000000" font-family="sans-serif" font-size="8.4" lengthAdjust="spacing" textLength="108.6" x="337.5" y="374.8371">+checkForDuplicates() : void</text><text fill="#000000" font-family="sans-serif" font-size="8.4" lengthAdjust="spacing" textLength="76.2" x="337.5" y="386.0098">+validateJob() : void</text></g><!--class Collaborator--><g id="elem_Collaborator"><rect codeLine="41" fill="#F1F1F1" height="207.5625" id="Collaborator" rx="1.5" ry="1.5" style="stroke:#181818;stroke-width:0.3;" width="268.8" x="4.2" y="454.8"/><ellipse cx="112.65" cy="464.4" fill="#ADD1B2" rx="6.6" ry="6.6" style="stroke:#181818;stroke-width:0.6;"/><path d="M114.3094,461.925 Q114.4031,461.7938 114.5156,461.7281 Q114.6281,461.6625 114.7594,461.6625 Q114.9844,461.6625 115.125,461.8219 Q115.2656,461.9719 115.2656,462.3375 L115.2656,463.2094 Q115.2656,463.575 115.125,463.7344 Q114.9844,463.8937 114.7594,463.8937 Q114.5531,463.8937 114.4312,463.7719 Q114.3094,463.6594 114.2437,463.35 Q114.2156,463.1344 114.1031,463.0219 Q113.9063,462.7969 113.5406,462.6656 Q113.175,462.5344 112.8,462.5344 Q112.3406,462.5344 111.9563,462.7313 Q111.5813,462.9281 111.2813,463.3781 Q110.9906,463.8281 110.9906,464.4469 L110.9906,465.1031 Q110.9906,465.8438 111.525,466.3406 Q112.0594,466.8281 113.0156,466.8281 Q113.5781,466.8281 113.9719,466.6781 Q114.2063,466.5844 114.4594,466.3219 Q114.6187,466.1625 114.7031,466.1156 Q114.7969,466.0687 114.9188,466.0687 Q115.1156,466.0687 115.2656,466.2281 Q115.425,466.3781 115.425,466.5844 Q115.425,466.7906 115.2188,467.0344 Q114.9188,467.3812 114.4406,467.5781 Q113.7938,467.85 113.0156,467.85 Q112.1063,467.85 111.3844,467.475 Q110.7938,467.175 110.3813,466.5375 Q109.9688,465.8906 109.9688,465.1219 L109.9688,464.4281 Q109.9688,463.6312 110.3344,462.9469 Q110.7094,462.2531 111.3656,461.8875 Q112.0219,461.5125 112.7625,461.5125 Q113.2031,461.5125 113.5875,461.6156 Q113.9813,461.7094 114.3094,461.925 Z " fill="#000000"/><text fill="#000000" font-family="sans-serif" font-size="8.4" lengthAdjust="spacing" textLength="46.8" x="124.95" y="467.8781">Collaborator</text><line style="stroke:#181818;stroke-width:0.3;" x1="4.8" x2="272.4" y1="474" y2="474"/><text fill="#000000" font-family="sans-serif" font-size="8.4" lengthAdjust="spacing" textLength="53.4" x="7.8" y="485.4645">-name : String</text><text fill="#000000" font-family="sans-serif" font-size="8.4" lengthAdjust="spacing" textLength="66" x="7.8" y="496.6371">-birthdate : String</text><text fill="#000000" font-family="sans-serif" font-size="8.4" lengthAdjust="spacing" textLength="84.6" x="7.8" y="507.8098">-contactMobile : String</text><text fill="#000000" font-family="sans-serif" font-size="8.4" lengthAdjust="spacing" textLength="52.2" x="7.8" y="518.9824">-email : String</text><text fill="#000000" font-family="sans-serif" font-size="8.4" lengthAdjust="spacing" textLength="63" x="7.8" y="530.1551">-address : String</text><text fill="#000000" font-family="sans-serif" font-size="8.4" lengthAdjust="spacing" textLength="45" x="7.8" y="541.3277">-city : String</text><text fill="#000000" font-family="sans-serif" font-size="8.4" lengthAdjust="spacing" textLength="84" x="7.8" y="552.5004">-admissionDate : Date</text><text fill="#000000" font-family="sans-serif" font-size="8.4" lengthAdjust="spacing" textLength="34.8" x="7.8" y="563.673">-job : Job</text><text fill="#000000" font-family="sans-serif" font-size="8.4" lengthAdjust="spacing" textLength="81" x="7.8" y="574.8457">-taxpayerNumber : int</text><text fill="#000000" font-family="sans-serif" font-size="8.4" lengthAdjust="spacing" textLength="88.8" x="7.8" y="586.0184">-documentType : String</text><text fill="#000000" font-family="sans-serif" font-size="8.4" lengthAdjust="spacing" textLength="109.2" x="7.8" y="597.191">-identificationNumber : String</text><line style="stroke:#181818;stroke-width:0.3;" x1="4.8" x2="272.4" y1="601.6992" y2="601.6992"/><text fill="#000000" font-family="sans-serif" font-size="8.4" lengthAdjust="spacing" textLength="261.6" x="7.8" y="613.1637">+Collaborator(name : String, birthdate : String, contactMobile : String,</text><text fill="#000000" font-family="sans-serif" font-size="8.4" lengthAdjust="spacing" textLength="228" x="7.8" y="624.3363">email : String, address : String, zipCode : String, city : String,</text><text fill="#000000" font-family="sans-serif" font-size="8.4" lengthAdjust="spacing" textLength="199.2" x="7.8" y="635.509">documentType : String, identificationNumber : String,</text><text fill="#000000" font-family="sans-serif" font-size="8.4" lengthAdjust="spacing" textLength="207.6" x="7.8" y="646.6816">admissionDate : String, taxpayerNumber : int, job : Job)</text><text fill="#000000" font-family="sans-serif" font-size="8.4" lengthAdjust="spacing" textLength="145.8" x="7.8" y="657.8543">+verifyCollaborator(collaborator) : void</text></g><!--class Job--><g id="elem_Job"><rect codeLine="57" fill="#F1F1F1" height="62.318" id="Job" rx="1.5" ry="1.5" style="stroke:#181818;stroke-width:0.3;" width="106.2" x="339.9" y="527.4"/><ellipse cx="383.85" cy="537" fill="#ADD1B2" rx="6.6" ry="6.6" style="stroke:#181818;stroke-width:0.6;"/><path d="M385.5094,534.525 Q385.6031,534.3938 385.7156,534.3281 Q385.8281,534.2625 385.9594,534.2625 Q386.1844,534.2625 386.325,534.4219 Q386.4656,534.5719 386.4656,534.9375 L386.4656,535.8094 Q386.4656,536.175 386.325,536.3344 Q386.1844,536.4938 385.9594,536.4938 Q385.7531,536.4938 385.6312,536.3719 Q385.5094,536.2594 385.4437,535.95 Q385.4156,535.7344 385.3031,535.6219 Q385.1063,535.3969 384.7406,535.2656 Q384.375,535.1344 384,535.1344 Q383.5406,535.1344 383.1563,535.3313 Q382.7813,535.5281 382.4813,535.9781 Q382.1906,536.4281 382.1906,537.0469 L382.1906,537.7031 Q382.1906,538.4438 382.725,538.9406 Q383.2594,539.4281 384.2156,539.4281 Q384.7781,539.4281 385.1719,539.2781 Q385.4063,539.1844 385.6594,538.9219 Q385.8187,538.7625 385.9031,538.7156 Q385.9969,538.6687 386.1188,538.6687 Q386.3156,538.6687 386.4656,538.8281 Q386.625,538.9781 386.625,539.1844 Q386.625,539.3906 386.4188,539.6344 Q386.1188,539.9812 385.6406,540.1781 Q384.9938,540.45 384.2156,540.45 Q383.3063,540.45 382.5844,540.075 Q381.9938,539.775 381.5813,539.1375 Q381.1688,538.4906 381.1688,537.7219 L381.1688,537.0281 Q381.1688,536.2312 381.5344,535.5469 Q381.9094,534.8531 382.5656,534.4875 Q383.2219,534.1125 383.9625,534.1125 Q384.4031,534.1125 384.7875,534.2156 Q385.1813,534.3094 385.5094,534.525 Z " fill="#000000"/><text fill="#000000" font-family="sans-serif" font-size="8.4" lengthAdjust="spacing" textLength="13.2" x="396.15" y="540.4781">Job</text><line style="stroke:#181818;stroke-width:0.3;" x1="340.5" x2="445.5" y1="546.6" y2="546.6"/><text fill="#000000" font-family="sans-serif" font-size="8.4" lengthAdjust="spacing" textLength="45.6" x="343.5" y="558.0645">-title : String</text><line style="stroke:#181818;stroke-width:0.3;" x1="340.5" x2="445.5" y1="562.5727" y2="562.5727"/><text fill="#000000" font-family="sans-serif" font-size="8.4" lengthAdjust="spacing" textLength="66.6" x="343.5" y="574.0371">+Job(title : String)</text><text fill="#000000" font-family="sans-serif" font-size="8.4" lengthAdjust="spacing" textLength="99" x="343.5" y="585.2098">+verifyJob(job : Job) : void</text></g><!--link RegisterCollaboratorUI to CollaboratorController--><g id="link_RegisterCollaboratorUI_CollaboratorController"><path codeLine="65" d="M243,33.006 C243,42.642 243,52.518 243,65.862 " fill="none" id="RegisterCollaboratorUI-to-CollaboratorController" style="stroke:#181818;stroke-width:0.6;stroke-dasharray:7.0,7.0;"/><polygon fill="#181818" points="243,69.462,245.4,64.062,243,66.462,240.6,64.062,243,69.462" style="stroke:#181818;stroke-width:0.6;"/></g><!--link CollaboratorController to Repositories--><g id="link_CollaboratorController_Repositories"><path codeLine="67" d="M243,165.678 C243,181.8 243,195.576 243,209.244 " fill="none" id="CollaboratorController-to-Repositories" style="stroke:#181818;stroke-width:0.6;stroke-dasharray:7.0,7.0;"/><polygon fill="#181818" points="243,212.844,245.4,207.444,243,209.844,240.6,207.444,243,212.844" style="stroke:#181818;stroke-width:0.6;"/><text fill="#000000" font-family="sans-serif" font-size="7.8" lengthAdjust="spacing" textLength="40.2" x="243.6" y="192.617">repositories</text></g><!--link Repositories to Repositories--><g id="link_Repositories_Repositories"><path codeLine="68" d="M349.236,230.574 C361.92,232.014 370.2,234.654 370.2,238.5 C370.2,242.346 365.497,244.5799 352.813,246.0199 " fill="none" id="Repositories-to-Repositories" style="stroke:#181818;stroke-width:0.6;"/><polygon fill="#181818" points="349.236,246.426,354.8723,248.2015,352.2169,246.0876,354.3308,243.4322,349.236,246.426" style="stroke:#181818;stroke-width:0.6;"/><text fill="#000000" font-family="sans-serif" font-size="7.8" lengthAdjust="spacing" textLength="29.4" x="373.8" y="241.817">instance</text></g><!--link Repositories to JobRepository--><g id="link_Repositories_JobRepository"><path codeLine="69" d="M274.26,264.048 C297.618,282.684 326.8564,306.0162 351.7684,325.9002 " fill="none" id="Repositories-to-JobRepository" style="stroke:#181818;stroke-width:0.6;"/><polygon fill="#181818" points="354.582,328.146,351.8587,322.9016,352.2373,326.2745,348.8644,326.6531,354.582,328.146" style="stroke:#181818;stroke-width:0.6;"/><text fill="#000000" font-family="sans-serif" font-size="7.8" lengthAdjust="spacing" textLength="47.4" x="310.2" y="291.017">jobRepository</text></g><!--link Repositories to CollaboratorRepository--><g id="link_Repositories_CollaboratorRepository"><path codeLine="70" d="M221.01,264.054 C212.694,273.492 205.2,282 205.2,282 C205.2,282 195.8165,292.8221 182.1905,308.5361 " fill="none" id="Repositories-to-CollaboratorRepository" style="stroke:#181818;stroke-width:0.6;"/><polygon fill="#181818" points="179.832,311.256,185.1829,308.7485,181.7974,308.9894,181.5564,305.6039,179.832,311.256" style="stroke:#181818;stroke-width:0.6;"/><text fill="#000000" font-family="sans-serif" font-size="7.8" lengthAdjust="spacing" textLength="77.4" x="205.8" y="291.017">collaboratorRepository</text><text fill="#000000" font-family="sans-serif" font-size="7.8" lengthAdjust="spacing" textLength="4.2" x="179.2395" y="304.5802">1</text></g><!--link CollaboratorRepository to Collaborator--><g id="link_CollaboratorRepository_Collaborator"><path codeLine="71" d="M138.6,407.424 C138.6,421.782 138.6,434.55 138.6,451.08 " fill="none" id="CollaboratorRepository-to-Collaborator" style="stroke:#181818;stroke-width:0.6;"/><polygon fill="#181818" points="138.6,454.68,141,449.28,138.6,451.68,136.2,449.28,138.6,454.68" style="stroke:#181818;stroke-width:0.6;"/><text fill="#000000" font-family="sans-serif" font-size="7.8" lengthAdjust="spacing" textLength="44.4" x="139.2" y="434.417">collaborators</text><text fill="#000000" font-family="sans-serif" font-size="7.8" lengthAdjust="spacing" textLength="3" x="135.532" y="447.9618">*</text></g><!--link CollaboratorController to CollaboratorRepository--><g id="link_CollaboratorController_CollaboratorRepository"><path codeLine="72" d="M144.912,165.738 C96.108,189.39 47.4,213 47.4,213 C47.4,213 47.4,264 47.4,264 C47.4,264 67.5243,284.9194 90.2343,308.5294 " fill="none" id="CollaboratorController-to-CollaboratorRepository" style="stroke:#181818;stroke-width:0.6;stroke-dasharray:7.0,7.0;"/><polygon fill="#181818" points="92.73,311.124,90.7162,305.5684,90.6503,308.9619,87.2568,308.8959,92.73,311.124" style="stroke:#181818;stroke-width:0.6;"/><text fill="#000000" font-family="sans-serif" font-size="7.8" lengthAdjust="spacing" textLength="77.4" x="48" y="241.817">collaboratorRepository</text></g><!--link CollaboratorController to JobRepository--><g id="link_CollaboratorController_JobRepository"><path codeLine="73" d="M325.14,165.738 C366.012,189.39 406.8,213 406.8,213 C406.8,213 406.8,264 406.8,264 C406.8,264 402.0262,296.7795 398.0002,324.4575 " fill="none" id="CollaboratorController-to-JobRepository" style="stroke:#181818;stroke-width:0.6;stroke-dasharray:7.0,7.0;"/><polygon fill="#181818" points="397.482,328.02,400.6343,323.0217,397.9138,325.0512,395.8843,322.3308,397.482,328.02" style="stroke:#181818;stroke-width:0.6;"/><text fill="#000000" font-family="sans-serif" font-size="7.8" lengthAdjust="spacing" textLength="47.4" x="407.4" y="241.817">jobRepository</text></g><!--link JobRepository to Job--><g id="link_JobRepository_Job"><path codeLine="74" d="M393,390.72 C393,427.926 393,486.606 393,523.77 " fill="none" id="JobRepository-to-Job" style="stroke:#181818;stroke-width:0.6;"/><polygon fill="#181818" points="393,527.37,395.4,521.97,393,524.37,390.6,521.97,393,527.37" style="stroke:#181818;stroke-width:0.6;"/><text fill="#000000" font-family="sans-serif" font-size="7.8" lengthAdjust="spacing" textLength="14.4" x="393.6" y="434.417">jobs</text><text fill="#000000" font-family="sans-serif" font-size="7.8" lengthAdjust="spacing" textLength="3" x="389.7984" y="520.7224">*</text></g><!--SRC=[pLN1ZjCm4BtxAwnUwC9s1TSUa9QkaBe23bkuxSLnfkbGnuxiQI6B-7USratjrkaY8GIzf3FlUMOoRp9sQzIDiABcZP1hKS62MWNSWYIXAmNCzGIt4gNvXhhYIw5SZ2ZKG6q3l36gxGp68bGguTmjaSLYGp2NHY_m2VXhnbueM18dmorMA-8bTcdHQCPsP_W3LEW8xCme9GfZ1HdxPSv_i9y7HepCZ2RhRR2UmVtl5PSM1C7imxkn5ZNmAL_uAdHrpGkqj2ez5lbyOIGaVJG5giZ_gA4Mg2AYA4iBFdbq5AcDJvH6RchGzDatvPfZwV_Y4gNeNkxJfYx0Tb5gTCuxxj8oSkm8_ceARzsRuYgyesy3LjexnaV8FxO6oy2eWERQUJqbZA_sZ0TeZ4FVj7Q04pSs8XyxtpiHtA7VFaWIUoYRv-NZNqhjC-TKFp9ELF-7al- -cezwQ0n8V6z42xO_WfeowiiLoFLxO-ysZUgIW1kVgEzBZ_irbf7HKu-w9d8TMhhlQ3TZX1HrAkWRIC-LiXKAon2dHxAVSiWxuOc6mNSkP03oQWOmLJGuJsKz18grxQcfJjqZGBqemSv95yH8bFYx0_g4pSoKyF-Dx1OiBjldPtBVp6oH0RjOQJBI_K2bynigoWnscDXTgVdTkjj70pVKpStRWQk9iO4hgpkIxDIfluIF9akmoUICZ65xdnFJBthQ2HAjrJFwwCreOBzEkSolvW7-BjhBKVfbfq7SfNRyIHadeIxt84KFPT_l9FTCnzWl]--></g></svg>