<?xml version="1.0" encoding="us-ascii" standalone="no"?><svg xmlns="http://www.w3.org/2000/svg" xmlns:xlink="http://www.w3.org/1999/xlink" contentStyleType="text/css" height="676.2px" preserveAspectRatio="none" style="width:1237px;height:676px;background:#FFFFFF;" version="1.1" viewBox="0 0 1237 676" width="1237.2px" zoomAndPan="magnify"><defs/><g><rect fill="#FFFFFF" height="559.8129" style="stroke:#181818;stroke-width:0.6;" width="6" x="10.8" y="56.1727"/><rect fill="#FFFFFF" height="29.1492" style="stroke:#181818;stroke-width:0.6;" width="6" x="293.4" y="70.1473"/><rect fill="#FFFFFF" height="168.9715" style="stroke:#181818;stroke-width:0.6;" width="6" x="293.4" y="118.0711"/><rect fill="#FFFFFF" height="18.7746" style="stroke:#181818;stroke-width:0.6;" width="6" x="293.4" y="305.8172"/><rect fill="#FFFFFF" height="18.7746" style="stroke:#181818;stroke-width:0.6;" width="6" x="293.4" y="343.3664"/><rect fill="#FFFFFF" height="18.7746" style="stroke:#181818;stroke-width:0.6;" width="6" x="293.4" y="597.2109"/><rect fill="#FFFFFF" height="131.4223" style="stroke:#181818;stroke-width:0.6;" width="6" x="378.3" y="136.8457"/><rect fill="#FFFFFF" height="235.0699" style="stroke:#181818;stroke-width:0.6;" width="6" x="462.3" y="362.141"/><rect fill="#FFFFFF" height="18.7746" style="stroke:#181818;stroke-width:0.6;" width="6" x="544.8" y="155.6203"/><rect fill="#FFFFFF" height="18.7746" style="stroke:#181818;stroke-width:0.6;" width="6" x="544.8" y="380.9156"/><rect fill="#FFFFFF" height="18.7746" style="stroke:#181818;stroke-width:0.6;" width="6" x="609" y="193.1695"/><rect fill="#FFFFFF" height="18.7746" style="stroke:#181818;stroke-width:0.6;" width="6" x="609" y="418.4648"/><rect fill="#FFFFFF" height="29.1492" style="stroke:#181818;stroke-width:0.6;" width="6" x="771.9" y="466.3887"/><rect fill="#FFFFFF" height="18.7746" style="stroke:#181818;stroke-width:0.6;" width="6" x="771.9" y="559.6617"/><rect fill="#FFFFFF" height="39.3492" style="stroke:#181818;stroke-width:0.6;" width="6" x="1110.3" y="501.5379"/><rect fill="#FFFFFF" height="18.7746" style="stroke:#181818;stroke-width:0.6;" width="6" x="1199.1" y="230.7188"/><line style="stroke:#181818;stroke-width:0.3;stroke-dasharray:5.0,5.0;" x1="13.8" x2="13.8" y1="50.1727" y2="626.7855"/><line style="stroke:#181818;stroke-width:0.3;stroke-dasharray:5.0,5.0;" x1="296.1" x2="296.1" y1="50.1727" y2="626.7855"/><line style="stroke:#181818;stroke-width:0.3;stroke-dasharray:5.0,5.0;" x1="381.3" x2="381.3" y1="50.1727" y2="626.7855"/><line style="stroke:#181818;stroke-width:0.3;stroke-dasharray:5.0,5.0;" x1="465.3" x2="465.3" y1="50.1727" y2="626.7855"/><line style="stroke:#181818;stroke-width:0.3;stroke-dasharray:5.0,5.0;" x1="547.5" x2="547.5" y1="50.1727" y2="626.7855"/><line style="stroke:#181818;stroke-width:0.3;stroke-dasharray:5.0,5.0;" x1="611.7" x2="611.7" y1="50.1727" y2="626.7855"/><line style="stroke:#181818;stroke-width:0.3;stroke-dasharray:5.0,5.0;" x1="774.6" x2="774.6" y1="50.1727" y2="626.7855"/><line style="stroke:#181818;stroke-width:0.3;stroke-dasharray:5.0,5.0;" x1="1113.3" x2="1113.3" y1="491.7633" y2="626.7855"/><line style="stroke:#181818;stroke-width:0.3;stroke-dasharray:5.0,5.0;" x1="1201.8" x2="1201.8" y1="50.1727" y2="626.7855"/><text fill="#000000" font-family="sans-serif" font-size="8.4" lengthAdjust="spacing" textLength="18" x="3" y="48.0645">HRM</text><ellipse cx="13.8" cy="8.1" fill="#E3E3E3" rx="4.8" ry="4.8" style="stroke:#181818;stroke-width:0.3;"/><path d="M13.8,12.9 L13.8,29.1 M6,17.7 L21.6,17.7 M13.8,29.1 L6,38.1 M13.8,29.1 L21.6,38.1 " fill="none" style="stroke:#181818;stroke-width:0.3;"/><text fill="#000000" font-family="sans-serif" font-size="8.4" lengthAdjust="spacing" textLength="18" x="3" y="635.25">HRM</text><ellipse cx="13.8" cy="642.4582" fill="#E3E3E3" rx="4.8" ry="4.8" style="stroke:#181818;stroke-width:0.3;"/><path d="M13.8,647.2582 L13.8,663.4582 M6,652.0582 L21.6,652.0582 M13.8,663.4582 L6,672.4582 M13.8,663.4582 L21.6,672.4582 " fill="none" style="stroke:#181818;stroke-width:0.3;"/><rect fill="#E3E3E3" height="19.5727" rx="1.5" ry="1.5" style="stroke:#181818;stroke-width:0.3;" width="96.6" x="248.1" y="30"/><text fill="#000000" font-family="sans-serif" font-size="8.4" lengthAdjust="spacing" textLength="88.2" x="252.3" y="43.2645">:RegisterCollaboratorUI</text><rect fill="#E3E3E3" height="19.5727" rx="1.5" ry="1.5" style="stroke:#181818;stroke-width:0.3;" width="96.6" x="248.1" y="626.1855"/><text fill="#000000" font-family="sans-serif" font-size="8.4" lengthAdjust="spacing" textLength="88.2" x="252.3" y="639.45">:RegisterCollaboratorUI</text><rect fill="#E3E3E3" height="19.5727" rx="1.5" ry="1.5" style="stroke:#181818;stroke-width:0.3;" width="61.2" x="350.7" y="30"/><text fill="#000000" font-family="sans-serif" font-size="8.4" lengthAdjust="spacing" textLength="52.8" x="354.9" y="43.2645">:JobController</text><rect fill="#E3E3E3" height="19.5727" rx="1.5" ry="1.5" style="stroke:#181818;stroke-width:0.3;" width="61.2" x="350.7" y="626.1855"/><text fill="#000000" font-family="sans-serif" font-size="8.4" lengthAdjust="spacing" textLength="52.8" x="354.9" y="639.45">:JobController</text><rect fill="#E3E3E3" height="19.5727" rx="1.5" ry="1.5" style="stroke:#181818;stroke-width:0.3;" width="94.8" x="417.9" y="30"/><text fill="#000000" font-family="sans-serif" font-size="8.4" lengthAdjust="spacing" textLength="86.4" x="422.1" y="43.2645">:CollaboratorController</text><rect fill="#E3E3E3" height="19.5727" rx="1.5" ry="1.5" style="stroke:#181818;stroke-width:0.3;" width="94.8" x="417.9" y="626.1855"/><text fill="#000000" font-family="sans-serif" font-size="8.4" lengthAdjust="spacing" textLength="86.4" x="422.1" y="639.45">:CollaboratorController</text><rect fill="#E3E3E3" height="19.5727" rx="1.5" ry="1.5" style="stroke:#181818;stroke-width:0.3;" width="58.2" x="518.7" y="30"/><text fill="#000000" font-family="sans-serif" font-size="8.4" lengthAdjust="spacing" textLength="49.8" x="522.9" y="43.2645">:Repositories</text><rect fill="#E3E3E3" height="19.5727" rx="1.5" ry="1.5" style="stroke:#181818;stroke-width:0.3;" width="58.2" x="518.7" y="626.1855"/><text fill="#000000" font-family="sans-serif" font-size="8.4" lengthAdjust="spacing" textLength="49.8" x="522.9" y="639.45">:Repositories</text><rect fill="#E3E3E3" height="30.7453" rx="1.5" ry="1.5" style="stroke:#181818;stroke-width:0.3;" width="58.2" x="582.9" y="18.8273"/><text fill="#000000" font-family="sans-serif" font-size="8.4" lengthAdjust="spacing" textLength="44.4" x="589.8" y="32.0918">repositories</text><text fill="#000000" font-family="sans-serif" font-size="8.4" lengthAdjust="spacing" textLength="49.8" x="587.1" y="43.2645">:Repositories</text><rect fill="#E3E3E3" height="30.7453" rx="1.5" ry="1.5" style="stroke:#181818;stroke-width:0.3;" width="58.2" x="582.9" y="626.1855"/><text fill="#000000" font-family="sans-serif" font-size="8.4" lengthAdjust="spacing" textLength="44.4" x="589.8" y="639.45">repositories</text><text fill="#000000" font-family="sans-serif" font-size="8.4" lengthAdjust="spacing" textLength="49.8" x="587.1" y="650.6227">:Repositories</text><rect fill="#E3E3E3" height="30.7453" rx="1.5" ry="1.5" style="stroke:#181818;stroke-width:0.3;" width="96.6" x="726.6" y="18.8273"/><text fill="#000000" font-family="sans-serif" font-size="8.4" lengthAdjust="spacing" textLength="88.2" x="730.8" y="32.0918">collaboratorRepository:</text><text fill="#000000" font-family="sans-serif" font-size="8.4" lengthAdjust="spacing" textLength="87.6" x="731.1" y="43.2645">CollaboratorRepository</text><rect fill="#E3E3E3" height="30.7453" rx="1.5" ry="1.5" style="stroke:#181818;stroke-width:0.3;" width="96.6" x="726.6" y="626.1855"/><text fill="#000000" font-family="sans-serif" font-size="8.4" lengthAdjust="spacing" textLength="88.2" x="730.8" y="639.45">collaboratorRepository:</text><text fill="#000000" font-family="sans-serif" font-size="8.4" lengthAdjust="spacing" textLength="87.6" x="731.1" y="650.6227">CollaboratorRepository</text><rect fill="#E3E3E3" height="19.5727" rx="1.5" ry="1.5" style="stroke:#181818;stroke-width:0.3;" width="57.6" x="1084.5" y="626.1855"/><text fill="#000000" font-family="sans-serif" font-size="8.4" lengthAdjust="spacing" textLength="49.2" x="1088.7" y="639.45">:Collaborator</text><rect fill="#E3E3E3" height="30.7453" rx="1.5" ry="1.5" style="stroke:#181818;stroke-width:0.3;" width="63" x="1170.6" y="18.8273"/><text fill="#000000" font-family="sans-serif" font-size="8.4" lengthAdjust="spacing" textLength="54.6" x="1174.8" y="32.0918">jobRepository:</text><text fill="#000000" font-family="sans-serif" font-size="8.4" lengthAdjust="spacing" textLength="54" x="1175.1" y="43.2645">JobRepository</text><rect fill="#E3E3E3" height="30.7453" rx="1.5" ry="1.5" style="stroke:#181818;stroke-width:0.3;" width="63" x="1170.6" y="626.1855"/><text fill="#000000" font-family="sans-serif" font-size="8.4" lengthAdjust="spacing" textLength="54.6" x="1174.8" y="639.45">jobRepository:</text><text fill="#000000" font-family="sans-serif" font-size="8.4" lengthAdjust="spacing" textLength="54" x="1175.1" y="650.6227">JobRepository</text><rect fill="#FFFFFF" height="559.8129" style="stroke:#181818;stroke-width:0.6;" width="6" x="10.8" y="56.1727"/><rect fill="#FFFFFF" height="29.1492" style="stroke:#181818;stroke-width:0.6;" width="6" x="293.4" y="70.1473"/><rect fill="#FFFFFF" height="168.9715" style="stroke:#181818;stroke-width:0.6;" width="6" x="293.4" y="118.0711"/><rect fill="#FFFFFF" height="18.7746" style="stroke:#181818;stroke-width:0.6;" width="6" x="293.4" y="305.8172"/><rect fill="#FFFFFF" height="18.7746" style="stroke:#181818;stroke-width:0.6;" width="6" x="293.4" y="343.3664"/><rect fill="#FFFFFF" height="18.7746" style="stroke:#181818;stroke-width:0.6;" width="6" x="293.4" y="597.2109"/><rect fill="#FFFFFF" height="131.4223" style="stroke:#181818;stroke-width:0.6;" width="6" x="378.3" y="136.8457"/><rect fill="#FFFFFF" height="235.0699" style="stroke:#181818;stroke-width:0.6;" width="6" x="462.3" y="362.141"/><rect fill="#FFFFFF" height="18.7746" style="stroke:#181818;stroke-width:0.6;" width="6" x="544.8" y="155.6203"/><rect fill="#FFFFFF" height="18.7746" style="stroke:#181818;stroke-width:0.6;" width="6" x="544.8" y="380.9156"/><rect fill="#FFFFFF" height="18.7746" style="stroke:#181818;stroke-width:0.6;" width="6" x="609" y="193.1695"/><rect fill="#FFFFFF" height="18.7746" style="stroke:#181818;stroke-width:0.6;" width="6" x="609" y="418.4648"/><rect fill="#FFFFFF" height="29.1492" style="stroke:#181818;stroke-width:0.6;" width="6" x="771.9" y="466.3887"/><rect fill="#FFFFFF" height="18.7746" style="stroke:#181818;stroke-width:0.6;" width="6" x="771.9" y="559.6617"/><rect fill="#FFFFFF" height="39.3492" style="stroke:#181818;stroke-width:0.6;" width="6" x="1110.3" y="501.5379"/><rect fill="#FFFFFF" height="18.7746" style="stroke:#181818;stroke-width:0.6;" width="6" x="1199.1" y="230.7188"/><polygon fill="#181818" points="286.2,67.7473,292.2,70.1473,286.2,72.5473,288.6,70.1473" style="stroke:#181818;stroke-width:0.6;"/><line style="stroke:#181818;stroke-width:0.6;" x1="16.8" x2="289.8" y1="70.1473" y2="70.1473"/><text fill="#000000" font-family="sans-serif" font-size="7.8" font-weight="bold" lengthAdjust="spacing" textLength="4.2" x="21" y="66.9896">1</text><text fill="#000000" font-family="sans-serif" font-size="7.8" lengthAdjust="spacing" textLength="123" x="27.6" y="66.9896">wants to register a new collaborator</text><polygon fill="#181818" points="23.4,96.8965,17.4,99.2965,23.4,101.6965,21,99.2965" style="stroke:#181818;stroke-width:0.6;"/><line style="stroke:#181818;stroke-width:0.6;stroke-dasharray:2.0,2.0;" x1="19.8" x2="295.8" y1="99.2965" y2="99.2965"/><text fill="#000000" font-family="sans-serif" font-size="7.8" font-weight="bold" lengthAdjust="spacing" textLength="4.2" x="27" y="90.9516">2</text><text fill="#000000" font-family="sans-serif" font-size="7.8" lengthAdjust="spacing" textLength="253.2" x="33.6" y="85.7643">asks for the info needed (name, birthdate, contactMobile, email, address,</text><text fill="#000000" font-family="sans-serif" font-size="7.8" lengthAdjust="spacing" textLength="189" x="36" y="96.1389">city, documentType[], documentCode, admissionDate)</text><polygon fill="#181818" points="286.2,115.6711,292.2,118.0711,286.2,120.4711,288.6,118.0711" style="stroke:#181818;stroke-width:0.6;"/><line style="stroke:#181818;stroke-width:0.6;" x1="16.8" x2="289.8" y1="118.0711" y2="118.0711"/><text fill="#000000" font-family="sans-serif" font-size="7.8" font-weight="bold" lengthAdjust="spacing" textLength="4.2" x="21" y="114.9135">3</text><text fill="#000000" font-family="sans-serif" font-size="7.8" lengthAdjust="spacing" textLength="73.2" x="27.6" y="114.9135">types requested data</text><polygon fill="#181818" points="371.1,134.4457,377.1,136.8457,371.1,139.2457,373.5,136.8457" style="stroke:#181818;stroke-width:0.6;"/><line style="stroke:#181818;stroke-width:0.6;" x1="299.4" x2="374.7" y1="136.8457" y2="136.8457"/><text fill="#000000" font-family="sans-serif" font-size="7.8" font-weight="bold" lengthAdjust="spacing" textLength="4.2" x="303.6" y="133.6881">4</text><text fill="#000000" font-family="sans-serif" font-size="7.8" lengthAdjust="spacing" textLength="36" x="310.2" y="133.6881">get job list</text><polygon fill="#181818" points="537.6,153.2203,543.6,155.6203,537.6,158.0203,540,155.6203" style="stroke:#181818;stroke-width:0.6;"/><line style="stroke:#181818;stroke-width:0.6;" x1="384.3" x2="541.2" y1="155.6203" y2="155.6203"/><text fill="#000000" font-family="sans-serif" font-size="7.8" font-weight="bold" lengthAdjust="spacing" textLength="4.2" x="388.5" y="152.4627">5</text><text fill="#000000" font-family="sans-serif" font-size="7.8" lengthAdjust="spacing" textLength="45" x="395.1" y="152.4627">getInstance()</text><polygon fill="#181818" points="390.9,171.9949,384.9,174.3949,390.9,176.7949,388.5,174.3949" style="stroke:#181818;stroke-width:0.6;"/><line style="stroke:#181818;stroke-width:0.6;stroke-dasharray:2.0,2.0;" x1="387.3" x2="547.2" y1="174.3949" y2="174.3949"/><text fill="#000000" font-family="sans-serif" font-size="7.8" font-weight="bold" lengthAdjust="spacing" textLength="4.2" x="394.5" y="171.2373">6</text><text fill="#000000" font-family="sans-serif" font-size="7.8" lengthAdjust="spacing" textLength="40.2" x="401.1" y="171.2373">repositories</text><polygon fill="#181818" points="601.8,190.7695,607.8,193.1695,601.8,195.5695,604.2,193.1695" style="stroke:#181818;stroke-width:0.6;"/><line style="stroke:#181818;stroke-width:0.6;" x1="384.3" x2="605.4" y1="193.1695" y2="193.1695"/><text fill="#000000" font-family="sans-serif" font-size="7.8" font-weight="bold" lengthAdjust="spacing" textLength="4.2" x="388.5" y="190.0119">7</text><text fill="#000000" font-family="sans-serif" font-size="7.8" lengthAdjust="spacing" textLength="64.8" x="395.1" y="190.0119">getJobRepository()</text><polygon fill="#181818" points="390.9,209.5441,384.9,211.9441,390.9,214.3441,388.5,211.9441" style="stroke:#181818;stroke-width:0.6;"/><line style="stroke:#181818;stroke-width:0.6;stroke-dasharray:2.0,2.0;" x1="387.3" x2="611.4" y1="211.9441" y2="211.9441"/><text fill="#000000" font-family="sans-serif" font-size="7.8" font-weight="bold" lengthAdjust="spacing" textLength="4.2" x="394.5" y="208.7865">8</text><text fill="#000000" font-family="sans-serif" font-size="7.8" lengthAdjust="spacing" textLength="47.4" x="401.1" y="208.7865">jobRepository</text><polygon fill="#181818" points="1191.9,228.3188,1197.9,230.7188,1191.9,233.1187,1194.3,230.7188" style="stroke:#181818;stroke-width:0.6;"/><line style="stroke:#181818;stroke-width:0.6;" x1="384.3" x2="1195.5" y1="230.7188" y2="230.7188"/><text fill="#000000" font-family="sans-serif" font-size="7.8" font-weight="bold" lengthAdjust="spacing" textLength="4.2" x="388.5" y="227.5611">9</text><text fill="#000000" font-family="sans-serif" font-size="7.8" lengthAdjust="spacing" textLength="31.8" x="395.1" y="227.5611">getJobs()</text><polygon fill="#181818" points="390.9,247.0934,384.9,249.4934,390.9,251.8934,388.5,249.4934" style="stroke:#181818;stroke-width:0.6;"/><line style="stroke:#181818;stroke-width:0.6;" x1="387.3" x2="1201.5" y1="249.4934" y2="249.4934"/><text fill="#000000" font-family="sans-serif" font-size="7.8" font-weight="bold" lengthAdjust="spacing" textLength="8.4" x="394.5" y="246.3357">10</text><text fill="#000000" font-family="sans-serif" font-size="7.8" lengthAdjust="spacing" textLength="27" x="405.3" y="246.3357">jobsList</text><polygon fill="#181818" points="306,265.868,300,268.268,306,270.668,303.6,268.268" style="stroke:#181818;stroke-width:0.6;"/><line style="stroke:#181818;stroke-width:0.6;stroke-dasharray:2.0,2.0;" x1="302.4" x2="380.7" y1="268.268" y2="268.268"/><text fill="#000000" font-family="sans-serif" font-size="7.8" font-weight="bold" lengthAdjust="spacing" textLength="8.4" x="309.6" y="265.1104">11</text><text fill="#000000" font-family="sans-serif" font-size="7.8" lengthAdjust="spacing" textLength="22.8" x="320.4" y="265.1104">job list</text><polygon fill="#181818" points="23.4,284.6426,17.4,287.0426,23.4,289.4426,21,287.0426" style="stroke:#181818;stroke-width:0.6;"/><line style="stroke:#181818;stroke-width:0.6;stroke-dasharray:2.0,2.0;" x1="19.8" x2="295.8" y1="287.0426" y2="287.0426"/><text fill="#000000" font-family="sans-serif" font-size="7.8" font-weight="bold" lengthAdjust="spacing" textLength="8.4" x="27" y="283.885">12</text><text fill="#000000" font-family="sans-serif" font-size="7.8" lengthAdjust="spacing" textLength="168" x="37.8" y="283.885">shows the list of jobs and requests to select one</text><polygon fill="#181818" points="286.2,303.4172,292.2,305.8172,286.2,308.2172,288.6,305.8172" style="stroke:#181818;stroke-width:0.6;"/><line style="stroke:#181818;stroke-width:0.6;" x1="16.8" x2="289.8" y1="305.8172" y2="305.8172"/><text fill="#000000" font-family="sans-serif" font-size="7.8" font-weight="bold" lengthAdjust="spacing" textLength="8.4" x="21" y="302.6596">13</text><text fill="#000000" font-family="sans-serif" font-size="7.8" lengthAdjust="spacing" textLength="46.8" x="31.8" y="302.6596">select the job</text><polygon fill="#181818" points="23.4,322.1918,17.4,324.5918,23.4,326.9918,21,324.5918" style="stroke:#181818;stroke-width:0.6;"/><line style="stroke:#181818;stroke-width:0.6;stroke-dasharray:2.0,2.0;" x1="19.8" x2="295.8" y1="324.5918" y2="324.5918"/><text fill="#000000" font-family="sans-serif" font-size="7.8" font-weight="bold" lengthAdjust="spacing" textLength="8.4" x="27" y="321.4342">14</text><text fill="#000000" font-family="sans-serif" font-size="7.8" lengthAdjust="spacing" textLength="152.4" x="37.8" y="321.4342">shows all data and requests for confirmation</text><polygon fill="#181818" points="286.2,340.9664,292.2,343.3664,286.2,345.7664,288.6,343.3664" style="stroke:#181818;stroke-width:0.6;"/><line style="stroke:#181818;stroke-width:0.6;" x1="16.8" x2="289.8" y1="343.3664" y2="343.3664"/><text fill="#000000" font-family="sans-serif" font-size="7.8" font-weight="bold" lengthAdjust="spacing" textLength="8.4" x="21" y="340.2088">15</text><text fill="#000000" font-family="sans-serif" font-size="7.8" lengthAdjust="spacing" textLength="60" x="31.8" y="340.2088">confirms the data</text><polygon fill="#181818" points="455.1,359.741,461.1,362.141,455.1,364.541,457.5,362.141" style="stroke:#181818;stroke-width:0.6;"/><line style="stroke:#181818;stroke-width:0.6;" x1="296.4" x2="458.7" y1="362.141" y2="362.141"/><text fill="#000000" font-family="sans-serif" font-size="7.8" font-weight="bold" lengthAdjust="spacing" textLength="8.4" x="300.6" y="358.9834">16</text><text fill="#000000" font-family="sans-serif" font-size="7.8" lengthAdjust="spacing" textLength="64.2" x="311.4" y="358.9834">create collaborator</text><polygon fill="#181818" points="537.6,378.5156,543.6,380.9156,537.6,383.3156,540,380.9156" style="stroke:#181818;stroke-width:0.6;"/><line style="stroke:#181818;stroke-width:0.6;" x1="468.3" x2="541.2" y1="380.9156" y2="380.9156"/><text fill="#000000" font-family="sans-serif" font-size="7.8" font-weight="bold" lengthAdjust="spacing" textLength="8.4" x="472.5" y="377.758">17</text><text fill="#000000" font-family="sans-serif" font-size="7.8" lengthAdjust="spacing" textLength="45" x="483.3" y="377.758">getInstance()</text><polygon fill="#181818" points="474.9,397.2902,468.9,399.6902,474.9,402.0902,472.5,399.6902" style="stroke:#181818;stroke-width:0.6;"/><line style="stroke:#181818;stroke-width:0.6;stroke-dasharray:2.0,2.0;" x1="471.3" x2="547.2" y1="399.6902" y2="399.6902"/><text fill="#000000" font-family="sans-serif" font-size="7.8" font-weight="bold" lengthAdjust="spacing" textLength="8.4" x="478.5" y="396.5326">18</text><text fill="#000000" font-family="sans-serif" font-size="7.8" lengthAdjust="spacing" textLength="40.2" x="489.3" y="396.5326">repositories</text><polygon fill="#181818" points="601.8,416.0648,607.8,418.4648,601.8,420.8648,604.2,418.4648" style="stroke:#181818;stroke-width:0.6;"/><line style="stroke:#181818;stroke-width:0.6;" x1="468.3" x2="605.4" y1="418.4648" y2="418.4648"/><text fill="#000000" font-family="sans-serif" font-size="7.8" font-weight="bold" lengthAdjust="spacing" textLength="8.4" x="472.5" y="415.3072">19</text><text fill="#000000" font-family="sans-serif" font-size="7.8" lengthAdjust="spacing" textLength="94.2" x="483.3" y="415.3072">getCollaboratorRepository()</text><polygon fill="#181818" points="474.9,434.8395,468.9,437.2395,474.9,439.6395,472.5,437.2395" style="stroke:#181818;stroke-width:0.6;"/><line style="stroke:#181818;stroke-width:0.6;stroke-dasharray:2.0,2.0;" x1="471.3" x2="611.4" y1="437.2395" y2="437.2395"/><text fill="#000000" font-family="sans-serif" font-size="7.8" font-weight="bold" lengthAdjust="spacing" textLength="8.4" x="478.5" y="434.0818">20</text><text fill="#000000" font-family="sans-serif" font-size="7.8" lengthAdjust="spacing" textLength="77.4" x="489.3" y="434.0818">collaboratorRepository</text><polygon fill="#181818" points="764.7,463.9887,770.7,466.3887,764.7,468.7887,767.1,466.3887" style="stroke:#181818;stroke-width:0.6;"/><line style="stroke:#181818;stroke-width:0.6;" x1="468.3" x2="768.3" y1="466.3887" y2="466.3887"/><text fill="#000000" font-family="sans-serif" font-size="7.8" font-weight="bold" lengthAdjust="spacing" textLength="8.4" x="472.5" y="458.0438">21</text><text fill="#000000" font-family="sans-serif" font-size="7.8" lengthAdjust="spacing" textLength="237.6" x="483.3" y="452.8564">createCLB(name, birthdate, contactMobile, email, address, zipCode,</text><text fill="#000000" font-family="sans-serif" font-size="7.8" lengthAdjust="spacing" textLength="279" x="485.7" y="463.2311">city, documentType, identificationNumber, admissionDate, job, taxpayerNumber)</text><polygon fill="#181818" points="1077.3,493.1379,1083.3,495.5379,1077.3,497.9379,1079.7,495.5379" style="stroke:#181818;stroke-width:0.6;"/><line style="stroke:#181818;stroke-width:0.6;" x1="774.9" x2="1080.9" y1="495.5379" y2="495.5379"/><text fill="#000000" font-family="sans-serif" font-size="7.8" font-weight="bold" lengthAdjust="spacing" textLength="8.4" x="779.1" y="487.193">22</text><text fill="#000000" font-family="sans-serif" font-size="7.8" lengthAdjust="spacing" textLength="222.6" x="789.9" y="482.0057">create(name, birthdate, contactMobile, email, address, zipCode,</text><text fill="#000000" font-family="sans-serif" font-size="7.8" lengthAdjust="spacing" textLength="279" x="792.3" y="492.3803">city, documentType, identificationNumber, admissionDate, job, taxpayerNumber)</text><rect fill="#E3E3E3" height="19.5727" rx="1.5" ry="1.5" style="stroke:#181818;stroke-width:0.3;" width="57.6" x="1084.5" y="474.1652"/><text fill="#000000" font-family="sans-serif" font-size="8.4" lengthAdjust="spacing" textLength="49.2" x="1088.7" y="487.4297">:Collaborator</text><line style="stroke:#181818;stroke-width:0.6;" x1="1116.3" x2="1141.5" y1="514.3125" y2="514.3125"/><line style="stroke:#181818;stroke-width:0.6;" x1="1141.5" x2="1141.5" y1="514.3125" y2="522.1125"/><line style="stroke:#181818;stroke-width:0.6;" x1="1116.9" x2="1141.5" y1="522.1125" y2="522.1125"/><polygon fill="#181818" points="1122.9,519.7125,1116.9,522.1125,1122.9,524.5125,1120.5,522.1125" style="stroke:#181818;stroke-width:0.6;"/><text fill="#000000" font-family="sans-serif" font-size="7.8" font-weight="bold" lengthAdjust="spacing" textLength="8.4" x="1120.5" y="511.1549">23</text><text fill="#000000" font-family="sans-serif" font-size="7.8" lengthAdjust="spacing" textLength="63.6" x="1131.3" y="511.1549">verifyCollaborator()</text><polygon fill="#181818" points="474.9,538.4871,468.9,540.8871,474.9,543.2871,472.5,540.8871" style="stroke:#181818;stroke-width:0.6;"/><line style="stroke:#181818;stroke-width:0.6;" x1="471.3" x2="1112.7" y1="540.8871" y2="540.8871"/><text fill="#000000" font-family="sans-serif" font-size="7.8" font-weight="bold" lengthAdjust="spacing" textLength="8.4" x="478.5" y="537.7295">24</text><text fill="#000000" font-family="sans-serif" font-size="7.8" lengthAdjust="spacing" textLength="66" x="489.3" y="537.7295">returnCollaborator()</text><polygon fill="#181818" points="764.7,557.2617,770.7,559.6617,764.7,562.0617,767.1,559.6617" style="stroke:#181818;stroke-width:0.6;"/><line style="stroke:#181818;stroke-width:0.6;" x1="468.3" x2="768.3" y1="559.6617" y2="559.6617"/><text fill="#000000" font-family="sans-serif" font-size="7.8" font-weight="bold" lengthAdjust="spacing" textLength="8.4" x="472.5" y="556.5041">25</text><text fill="#000000" font-family="sans-serif" font-size="7.8" lengthAdjust="spacing" textLength="99" x="483.3" y="556.5041">addCollaborator(collaborator)</text><polygon fill="#181818" points="474.9,576.0363,468.9,578.4363,474.9,580.8363,472.5,578.4363" style="stroke:#181818;stroke-width:0.6;"/><line style="stroke:#181818;stroke-width:0.6;stroke-dasharray:2.0,2.0;" x1="471.3" x2="774.3" y1="578.4363" y2="578.4363"/><text fill="#000000" font-family="sans-serif" font-size="7.8" font-weight="bold" lengthAdjust="spacing" textLength="8.4" x="478.5" y="575.2787">26</text><text fill="#000000" font-family="sans-serif" font-size="7.8" lengthAdjust="spacing" textLength="29.4" x="489.3" y="575.2787">success</text><polygon fill="#181818" points="306,594.8109,300,597.2109,306,599.6109,303.6,597.2109" style="stroke:#181818;stroke-width:0.6;"/><line style="stroke:#181818;stroke-width:0.6;stroke-dasharray:2.0,2.0;" x1="302.4" x2="464.7" y1="597.2109" y2="597.2109"/><text fill="#000000" font-family="sans-serif" font-size="7.8" font-weight="bold" lengthAdjust="spacing" textLength="8.4" x="309.6" y="594.0533">27</text><text fill="#000000" font-family="sans-serif" font-size="7.8" lengthAdjust="spacing" textLength="29.4" x="320.4" y="594.0533">success</text><polygon fill="#181818" points="20.4,613.5855,14.4,615.9855,20.4,618.3855,18,615.9855" style="stroke:#181818;stroke-width:0.6;"/><line style="stroke:#181818;stroke-width:0.6;stroke-dasharray:2.0,2.0;" x1="16.8" x2="295.8" y1="615.9855" y2="615.9855"/><text fill="#000000" font-family="sans-serif" font-size="7.8" font-weight="bold" lengthAdjust="spacing" textLength="8.4" x="24" y="612.8279">28</text><text fill="#000000" font-family="sans-serif" font-size="7.8" lengthAdjust="spacing" textLength="209.4" x="34.8" y="612.8279">shows success message (collaborator created successfully)</text><!--SRC=[pLR1Sjem4BtxAtPoIZBc1tp8J4ixBGpfP6XoQdeGzXhKs1ALv53wzLt9M4Z6JcXcEbCEWAItps-rRoNh9owsJB4QQYbalb6oHZ2gmKJxbItBdzWQlvfzXQ0mDqoign2WDwoGEoxMKB9AOvAmnaZHr2jKz3ytKi75v-Nj1J0Dz9jGbE4vtp9Xu29RuffhWseggugjf6A4VvWvyCEiXvtBrLGAemYAoa7cqnuafEbXf_VBnSd3jr9pWdBK3lEfaYix6UDK07iKfr5tYtVtSKGUoF3mVVOefeCBhRx5- -N7knVowL0nv4Uhs3zX7evTI8H8N4tuCpFegf70uKC3cDpGfaC6EsBMO2JLkwqEC12uWp0j7-Zfg5v-acWcn6P9CzBmfA4a7vWD0XUb938ii81BmMfCOSMLsHH4aT8JX272MxdY5GsnPhnAWHM5GgrJU1IGSxDFeP1vKwCmz_ijVlj-74zbWHPVSwsv51-8zCgBAd1GQvYv8JvDQVziaF8kW5InrpEz8IDci4PZznegshB4VKu2oQz-qdxcKnlSkGuSnqnewh4SBwyYgEVm7esMFSV4gI6gqBKHDDY6OQvMbNLrgoYor9WirmJHaYEmSjpkn2uSqNDAqcg9WhqeFQQbv_WG4pDrUqMpUc7BDgAhtq9zXPrzZkKV8B757-aGlP4xxTh3HeCidI9WekYywDfHOqK7C4Y1OvuUDFKXpD8JxRcDswbYLUNQ85PZsvcQjUIgPeOwxUmcoxgmDjzp6yoUtfHAhj2kHmVHQu_sa-u6Y6hdMFz51nxalhq7EsN7BXo-EjxIZfOxW-4xwlpEx1IszvQl3Gt_-bZ_pRVku1uytbFW1Vtb9S-TqxwuLulU8PzQPwTWsAyjswDgCLUzJZqQeRrgespSrEI6Vg-lVJB_KIOZTJcaCfvej11aUoWTfVgCYfVxq5wNlUVrmpfpcqQ9Nbm_99PwIXkxABCx6J66BXrGTR8FmwgjGOEsr4sUKxbU4Jl8r-hr9skFA2I83flmO7hX1ZZmGKrVzD8DKVe7JnOTgcogQZ_wTfC4O_UYzmS0]--></g></svg>