<?xml version="1.0" encoding="us-ascii" standalone="no"?><svg xmlns="http://www.w3.org/2000/svg" xmlns:xlink="http://www.w3.org/1999/xlink" contentStyleType="text/css" height="405.6px" preserveAspectRatio="none" style="width:751px;height:405px;background:#FFFFFF;" version="1.1" viewBox="0 0 751 405" width="751.2px" zoomAndPan="magnify"><defs/><g><rect fill="#FFFFFF" height="288.7723" style="stroke:#181818;stroke-width:0.6;" width="6" x="10.8" y="56.1727"/><rect fill="#FFFFFF" height="29.1492" style="stroke:#181818;stroke-width:0.6;" width="6" x="293.4" y="70.1473"/><rect fill="#FFFFFF" height="18.7746" style="stroke:#181818;stroke-width:0.6;" width="6" x="293.4" y="118.0711"/><rect fill="#FFFFFF" height="18.7746" style="stroke:#181818;stroke-width:0.6;" width="6" x="293.4" y="222.1207"/><rect fill="#FFFFFF" height="18.7746" style="stroke:#181818;stroke-width:0.6;" width="6" x="293.4" y="259.6699"/><rect fill="#FFFFFF" height="18.7746" style="stroke:#181818;stroke-width:0.6;" width="6" x="293.4" y="326.1703"/><rect fill="#FFFFFF" height="47.7258" style="stroke:#181818;stroke-width:0.6;" width="6" x="378.3" y="136.8457"/><rect fill="#FFFFFF" height="47.7258" style="stroke:#181818;stroke-width:0.6;" width="6" x="462.3" y="278.4445"/><line style="stroke:#181818;stroke-width:0.3;stroke-dasharray:5.0,5.0;" x1="13.8" x2="13.8" y1="50.1727" y2="355.7449"/><line style="stroke:#181818;stroke-width:0.3;stroke-dasharray:5.0,5.0;" x1="296.1" x2="296.1" y1="50.1727" y2="355.7449"/><line style="stroke:#181818;stroke-width:0.3;stroke-dasharray:5.0,5.0;" x1="381.3" x2="381.3" y1="50.1727" y2="355.7449"/><line style="stroke:#181818;stroke-width:0.3;stroke-dasharray:5.0,5.0;" x1="465.3" x2="465.3" y1="50.1727" y2="355.7449"/><line style="stroke:#181818;stroke-width:0.3;stroke-dasharray:5.0,5.0;" x1="566.7" x2="566.7" y1="50.1727" y2="355.7449"/><line style="stroke:#181818;stroke-width:0.3;stroke-dasharray:5.0,5.0;" x1="650.1" x2="650.1" y1="50.1727" y2="355.7449"/><line style="stroke:#181818;stroke-width:0.3;stroke-dasharray:5.0,5.0;" x1="716.1" x2="716.1" y1="50.1727" y2="355.7449"/><text fill="#000000" font-family="sans-serif" font-size="8.4" lengthAdjust="spacing" textLength="18" x="3" y="48.0645">HRM</text><ellipse cx="13.8" cy="8.1" fill="#E3E3E3" rx="4.8" ry="4.8" style="stroke:#181818;stroke-width:0.3;"/><path d="M13.8,12.9 L13.8,29.1 M6,17.7 L21.6,17.7 M13.8,29.1 L6,38.1 M13.8,29.1 L21.6,38.1 " fill="none" style="stroke:#181818;stroke-width:0.3;"/><text fill="#000000" font-family="sans-serif" font-size="8.4" lengthAdjust="spacing" textLength="18" x="3" y="364.2094">HRM</text><ellipse cx="13.8" cy="371.4176" fill="#E3E3E3" rx="4.8" ry="4.8" style="stroke:#181818;stroke-width:0.3;"/><path d="M13.8,376.2176 L13.8,392.4176 M6,381.0176 L21.6,381.0176 M13.8,392.4176 L6,401.4176 M13.8,392.4176 L21.6,401.4176 " fill="none" style="stroke:#181818;stroke-width:0.3;"/><rect fill="#E3E3E3" height="19.5727" rx="1.5" ry="1.5" style="stroke:#181818;stroke-width:0.3;" width="96.6" x="248.1" y="30"/><text fill="#000000" font-family="sans-serif" font-size="8.4" lengthAdjust="spacing" textLength="88.2" x="252.3" y="43.2645">:RegisterCollaboratorUI</text><rect fill="#E3E3E3" height="19.5727" rx="1.5" ry="1.5" style="stroke:#181818;stroke-width:0.3;" width="96.6" x="248.1" y="355.1449"/><text fill="#000000" font-family="sans-serif" font-size="8.4" lengthAdjust="spacing" textLength="88.2" x="252.3" y="368.4094">:RegisterCollaboratorUI</text><rect fill="#E3E3E3" height="19.5727" rx="1.5" ry="1.5" style="stroke:#181818;stroke-width:0.3;" width="61.2" x="350.7" y="30"/><text fill="#000000" font-family="sans-serif" font-size="8.4" lengthAdjust="spacing" textLength="52.8" x="354.9" y="43.2645">:JobController</text><rect fill="#E3E3E3" height="19.5727" rx="1.5" ry="1.5" style="stroke:#181818;stroke-width:0.3;" width="61.2" x="350.7" y="355.1449"/><text fill="#000000" font-family="sans-serif" font-size="8.4" lengthAdjust="spacing" textLength="52.8" x="354.9" y="368.4094">:JobController</text><rect fill="#E3E3E3" height="19.5727" rx="1.5" ry="1.5" style="stroke:#181818;stroke-width:0.3;" width="94.8" x="417.9" y="30"/><text fill="#000000" font-family="sans-serif" font-size="8.4" lengthAdjust="spacing" textLength="86.4" x="422.1" y="43.2645">:CollaboratorController</text><rect fill="#E3E3E3" height="19.5727" rx="1.5" ry="1.5" style="stroke:#181818;stroke-width:0.3;" width="94.8" x="417.9" y="355.1449"/><text fill="#000000" font-family="sans-serif" font-size="8.4" lengthAdjust="spacing" textLength="86.4" x="422.1" y="368.4094">:CollaboratorController</text><rect fill="#E3E3E3" height="30.7453" rx="1.5" ry="1.5" style="stroke:#181818;stroke-width:0.3;" width="96.6" x="518.7" y="18.8273"/><text fill="#000000" font-family="sans-serif" font-size="8.4" lengthAdjust="spacing" textLength="88.2" x="522.9" y="32.0918">collaboratorRepository:</text><text fill="#000000" font-family="sans-serif" font-size="8.4" lengthAdjust="spacing" textLength="87.6" x="523.2" y="43.2645">CollaboratorRepository</text><rect fill="#E3E3E3" height="30.7453" rx="1.5" ry="1.5" style="stroke:#181818;stroke-width:0.3;" width="96.6" x="518.7" y="355.1449"/><text fill="#000000" font-family="sans-serif" font-size="8.4" lengthAdjust="spacing" textLength="88.2" x="522.9" y="368.4094">collaboratorRepository:</text><text fill="#000000" font-family="sans-serif" font-size="8.4" lengthAdjust="spacing" textLength="87.6" x="523.2" y="379.582">CollaboratorRepository</text><rect fill="#E3E3E3" height="19.5727" rx="1.5" ry="1.5" style="stroke:#181818;stroke-width:0.3;" width="57.6" x="621.3" y="30"/><text fill="#000000" font-family="sans-serif" font-size="8.4" lengthAdjust="spacing" textLength="49.2" x="625.5" y="43.2645">:Collaborator</text><rect fill="#E3E3E3" height="19.5727" rx="1.5" ry="1.5" style="stroke:#181818;stroke-width:0.3;" width="57.6" x="621.3" y="355.1449"/><text fill="#000000" font-family="sans-serif" font-size="8.4" lengthAdjust="spacing" textLength="49.2" x="625.5" y="368.4094">:Collaborator</text><rect fill="#E3E3E3" height="30.7453" rx="1.5" ry="1.5" style="stroke:#181818;stroke-width:0.3;" width="63" x="684.9" y="18.8273"/><text fill="#000000" font-family="sans-serif" font-size="8.4" lengthAdjust="spacing" textLength="54.6" x="689.1" y="32.0918">jobRepository:</text><text fill="#000000" font-family="sans-serif" font-size="8.4" lengthAdjust="spacing" textLength="54" x="689.4" y="43.2645">JobRepository</text><rect fill="#E3E3E3" height="30.7453" rx="1.5" ry="1.5" style="stroke:#181818;stroke-width:0.3;" width="63" x="684.9" y="355.1449"/><text fill="#000000" font-family="sans-serif" font-size="8.4" lengthAdjust="spacing" textLength="54.6" x="689.1" y="368.4094">jobRepository:</text><text fill="#000000" font-family="sans-serif" font-size="8.4" lengthAdjust="spacing" textLength="54" x="689.4" y="379.582">JobRepository</text><rect fill="#FFFFFF" height="288.7723" style="stroke:#181818;stroke-width:0.6;" width="6" x="10.8" y="56.1727"/><rect fill="#FFFFFF" height="29.1492" style="stroke:#181818;stroke-width:0.6;" width="6" x="293.4" y="70.1473"/><rect fill="#FFFFFF" height="18.7746" style="stroke:#181818;stroke-width:0.6;" width="6" x="293.4" y="118.0711"/><rect fill="#FFFFFF" height="18.7746" style="stroke:#181818;stroke-width:0.6;" width="6" x="293.4" y="222.1207"/><rect fill="#FFFFFF" height="18.7746" style="stroke:#181818;stroke-width:0.6;" width="6" x="293.4" y="259.6699"/><rect fill="#FFFFFF" height="18.7746" style="stroke:#181818;stroke-width:0.6;" width="6" x="293.4" y="326.1703"/><rect fill="#FFFFFF" height="47.7258" style="stroke:#181818;stroke-width:0.6;" width="6" x="378.3" y="136.8457"/><rect fill="#FFFFFF" height="47.7258" style="stroke:#181818;stroke-width:0.6;" width="6" x="462.3" y="278.4445"/><polygon fill="#181818" points="286.2,67.7473,292.2,70.1473,286.2,72.5473,288.6,70.1473" style="stroke:#181818;stroke-width:0.6;"/><line style="stroke:#181818;stroke-width:0.6;" x1="16.8" x2="289.8" y1="70.1473" y2="70.1473"/><text fill="#000000" font-family="sans-serif" font-size="7.8" font-weight="bold" lengthAdjust="spacing" textLength="4.2" x="21" y="66.9896">1</text><text fill="#000000" font-family="sans-serif" font-size="7.8" lengthAdjust="spacing" textLength="123" x="27.6" y="66.9896">wants to register a new collaborator</text><polygon fill="#181818" points="23.4,96.8965,17.4,99.2965,23.4,101.6965,21,99.2965" style="stroke:#181818;stroke-width:0.6;"/><line style="stroke:#181818;stroke-width:0.6;stroke-dasharray:2.0,2.0;" x1="19.8" x2="295.8" y1="99.2965" y2="99.2965"/><text fill="#000000" font-family="sans-serif" font-size="7.8" font-weight="bold" lengthAdjust="spacing" textLength="4.2" x="27" y="90.9516">2</text><text fill="#000000" font-family="sans-serif" font-size="7.8" lengthAdjust="spacing" textLength="253.2" x="33.6" y="85.7643">asks for the info needed (name, birthdate, contactMobile, email, address,</text><text fill="#000000" font-family="sans-serif" font-size="7.8" lengthAdjust="spacing" textLength="189" x="36" y="96.1389">city, documentType[], documentCode, admissionDate)</text><polygon fill="#181818" points="286.2,115.6711,292.2,118.0711,286.2,120.4711,288.6,118.0711" style="stroke:#181818;stroke-width:0.6;"/><line style="stroke:#181818;stroke-width:0.6;" x1="16.8" x2="289.8" y1="118.0711" y2="118.0711"/><text fill="#000000" font-family="sans-serif" font-size="7.8" font-weight="bold" lengthAdjust="spacing" textLength="4.2" x="21" y="114.9135">3</text><text fill="#000000" font-family="sans-serif" font-size="7.8" lengthAdjust="spacing" textLength="73.2" x="27.6" y="114.9135">types requested data</text><polygon fill="#181818" points="371.1,134.4457,377.1,136.8457,371.1,139.2457,373.5,136.8457" style="stroke:#181818;stroke-width:0.6;"/><line style="stroke:#181818;stroke-width:0.6;" x1="296.4" x2="374.7" y1="136.8457" y2="136.8457"/><text fill="#000000" font-family="sans-serif" font-size="7.8" font-weight="bold" lengthAdjust="spacing" textLength="4.2" x="300.6" y="133.6881">4</text><text fill="#000000" font-family="sans-serif" font-size="7.8" lengthAdjust="spacing" textLength="36" x="307.2" y="133.6881">get job list</text><rect fill="none" height="25.9512" style="stroke:#000000;stroke-width:0.8999999999999999;" width="64.8" x="348.9" y="141.6457"/><path d="M348.9,141.6457 L386.1,141.6457 L386.1,147.0457 L380.1,153.0457 L348.9,153.0457 L348.9,141.6457 " fill="#EEEEEE" style="stroke:#000000;stroke-width:1.2;"/><text fill="#000000" font-family="sans-serif" font-size="7.8" font-weight="bold" lengthAdjust="spacing" textLength="10.2" x="356.7" y="151.2627">ref</text><text fill="#000000" font-family="sans-serif" font-size="7.2" lengthAdjust="spacing" textLength="39" x="361.8" y="163.2152">Get Job List</text><polygon fill="#181818" points="303,182.1715,297,184.5715,303,186.9715,300.6,184.5715" style="stroke:#181818;stroke-width:0.6;"/><line style="stroke:#181818;stroke-width:0.6;stroke-dasharray:2.0,2.0;" x1="299.4" x2="380.7" y1="184.5715" y2="184.5715"/><text fill="#000000" font-family="sans-serif" font-size="7.8" font-weight="bold" lengthAdjust="spacing" textLength="4.2" x="306.6" y="181.4139">5</text><text fill="#000000" font-family="sans-serif" font-size="7.8" lengthAdjust="spacing" textLength="22.8" x="313.2" y="181.4139">job list</text><polygon fill="#181818" points="23.4,200.9461,17.4,203.3461,23.4,205.7461,21,203.3461" style="stroke:#181818;stroke-width:0.6;"/><line style="stroke:#181818;stroke-width:0.6;stroke-dasharray:2.0,2.0;" x1="19.8" x2="295.8" y1="203.3461" y2="203.3461"/><text fill="#000000" font-family="sans-serif" font-size="7.8" font-weight="bold" lengthAdjust="spacing" textLength="4.2" x="27" y="200.1885">6</text><text fill="#000000" font-family="sans-serif" font-size="7.8" lengthAdjust="spacing" textLength="168" x="33.6" y="200.1885">shows the list of jobs and requests to select one</text><polygon fill="#181818" points="286.2,219.7207,292.2,222.1207,286.2,224.5207,288.6,222.1207" style="stroke:#181818;stroke-width:0.6;"/><line style="stroke:#181818;stroke-width:0.6;" x1="16.8" x2="289.8" y1="222.1207" y2="222.1207"/><text fill="#000000" font-family="sans-serif" font-size="7.8" font-weight="bold" lengthAdjust="spacing" textLength="4.2" x="21" y="218.9631">7</text><text fill="#000000" font-family="sans-serif" font-size="7.8" lengthAdjust="spacing" textLength="46.8" x="27.6" y="218.9631">select the job</text><polygon fill="#181818" points="23.4,238.4953,17.4,240.8953,23.4,243.2953,21,240.8953" style="stroke:#181818;stroke-width:0.6;"/><line style="stroke:#181818;stroke-width:0.6;stroke-dasharray:2.0,2.0;" x1="19.8" x2="295.8" y1="240.8953" y2="240.8953"/><text fill="#000000" font-family="sans-serif" font-size="7.8" font-weight="bold" lengthAdjust="spacing" textLength="4.2" x="27" y="237.7377">8</text><text fill="#000000" font-family="sans-serif" font-size="7.8" lengthAdjust="spacing" textLength="152.4" x="33.6" y="237.7377">shows all data and requests for confirmation</text><polygon fill="#181818" points="286.2,257.2699,292.2,259.6699,286.2,262.0699,288.6,259.6699" style="stroke:#181818;stroke-width:0.6;"/><line style="stroke:#181818;stroke-width:0.6;" x1="16.8" x2="289.8" y1="259.6699" y2="259.6699"/><text fill="#000000" font-family="sans-serif" font-size="7.8" font-weight="bold" lengthAdjust="spacing" textLength="4.2" x="21" y="256.5123">9</text><text fill="#000000" font-family="sans-serif" font-size="7.8" lengthAdjust="spacing" textLength="60" x="27.6" y="256.5123">confirms the data</text><polygon fill="#181818" points="455.1,276.0445,461.1,278.4445,455.1,280.8445,457.5,278.4445" style="stroke:#181818;stroke-width:0.6;"/><line style="stroke:#181818;stroke-width:0.6;" x1="296.4" x2="458.7" y1="278.4445" y2="278.4445"/><text fill="#000000" font-family="sans-serif" font-size="7.8" font-weight="bold" lengthAdjust="spacing" textLength="8.4" x="300.6" y="275.2869">10</text><text fill="#000000" font-family="sans-serif" font-size="7.8" lengthAdjust="spacing" textLength="64.2" x="311.4" y="275.2869">create collaborator</text><rect fill="none" height="25.9512" style="stroke:#000000;stroke-width:0.8999999999999999;" width="98.4" x="416.1" y="283.2445"/><path d="M416.1,283.2445 L453.3,283.2445 L453.3,288.6445 L447.3,294.6445 L416.1,294.6445 L416.1,283.2445 " fill="#EEEEEE" style="stroke:#000000;stroke-width:1.2;"/><text fill="#000000" font-family="sans-serif" font-size="7.8" font-weight="bold" lengthAdjust="spacing" textLength="10.2" x="423.9" y="292.8615">ref</text><text fill="#000000" font-family="sans-serif" font-size="7.2" lengthAdjust="spacing" textLength="70.8" x="429.9" y="304.8141">Register Collaborator</text><polygon fill="#181818" points="306,323.7703,300,326.1703,306,328.5703,303.6,326.1703" style="stroke:#181818;stroke-width:0.6;"/><line style="stroke:#181818;stroke-width:0.6;stroke-dasharray:2.0,2.0;" x1="302.4" x2="464.7" y1="326.1703" y2="326.1703"/><text fill="#000000" font-family="sans-serif" font-size="7.8" font-weight="bold" lengthAdjust="spacing" textLength="8.4" x="309.6" y="323.0127">11</text><text fill="#000000" font-family="sans-serif" font-size="7.8" lengthAdjust="spacing" textLength="29.4" x="320.4" y="323.0127">success</text><polygon fill="#181818" points="20.4,342.5449,14.4,344.9449,20.4,347.3449,18,344.9449" style="stroke:#181818;stroke-width:0.6;"/><line style="stroke:#181818;stroke-width:0.6;stroke-dasharray:2.0,2.0;" x1="16.8" x2="295.8" y1="344.9449" y2="344.9449"/><text fill="#000000" font-family="sans-serif" font-size="7.8" font-weight="bold" lengthAdjust="spacing" textLength="8.4" x="24" y="341.7873">12</text><text fill="#000000" font-family="sans-serif" font-size="7.8" lengthAdjust="spacing" textLength="209.4" x="34.8" y="341.7873">shows success message (collaborator created successfully)</text><!--SRC=[ZLHDRzim3BtxLn0vTK3w1tpeeTwmDKY18MjFwmwoH2TQP36Lv0RvzwEKn9DJvqE7n98U7yb7KdwjxKOuqK9BbkJAKOiGN8U5xsysGgx54d-5dK5mA8EmIvC3_4eescgxX4OOZqKXka2sQsjq_2q3EPZyM3nFG7ZW_uAjWfPw8so0IRd0fVO1NKN6Y9gSOFphKmA_FfrWPrHNP8DZABe4cLKda9pc15kzBEP3jCp02zoGr_onAzziDNgnPva_BhxzlE3rY1f2_b8zy33BzybaW2YISlf314oQ5N1Ol87x1vO6IjWoiuT0N9MzXY30uXRoj7h3devLxG-PvfxP8cd9CQmzD5oji4BGjY4cGuKAxgneSGgrTc6bc6BA7cnWmcUgjU4jjaARAGYb77e_XJSBKeVT51J9haKRNdOR_Ftd_xuYXH7VQkyrsQzC-gKFIk5eh7dcWVayf_tU8UUjWACIrpDzu7OfOOaXQWs69JldypCNDrf_69V31kY39UUB_FmxitDjOPwpnuLMHQDYI3EhKW5IKfU2YkxFbCslQEjJpQ8nK1E9F8ZaBmcKUiIZuTa5idWrwLpfWrcaPzfRk-aObJ0crMOOJUmnxg16krO4Bl_DbI-FPljyRwrw77nEHJgCzuFfkEQwFqoFntW7fAlyvlYaGJKsYEUR8QuKQzyIlfEI9seioc50UV0NkkJ01ot_y9iETxaO1u7K4TLqnkpEZcMHxTCBzGy0]--></g></svg>