<?xml version="1.0" encoding="us-ascii" standalone="no"?><svg xmlns="http://www.w3.org/2000/svg" xmlns:xlink="http://www.w3.org/1999/xlink" contentStyleType="text/css" height="416px" preserveAspectRatio="none" style="width:919px;height:416px;background:#FFFFFF;" version="1.1" viewBox="0 0 919 416" width="919px" zoomAndPan="magnify"><defs/><g><rect fill="#FFFFFF" height="251.3281" style="stroke:#181818;stroke-width:1.0;" width="10" x="144" y="90.5332"/><rect fill="#FFFFFF" height="31.291" style="stroke:#181818;stroke-width:1.0;" width="10" x="356" y="272.2793"/><rect fill="#FFFFFF" height="65.582" style="stroke:#181818;stroke-width:1.0;" width="10" x="708" y="175.4063"/><rect fill="none" height="206.0371" style="stroke:#000000;stroke-width:1.5;" width="801" x="60" y="105.5332"/><line style="stroke:#181818;stroke-width:0.5;stroke-dasharray:5.0,5.0;" x1="149" x2="149" y1="57.2422" y2="359.8613"/><line style="stroke:#181818;stroke-width:0.5;stroke-dasharray:5.0,5.0;" x1="360.5" x2="360.5" y1="57.2422" y2="359.8613"/><line style="stroke:#181818;stroke-width:0.5;stroke-dasharray:5.0,5.0;" x1="713" x2="713" y1="159.1152" y2="359.8613"/><line style="stroke:#181818;stroke-width:0.5;stroke-dasharray:5.0,5.0;" x1="860.5" x2="860.5" y1="57.2422" y2="359.8613"/><rect fill="#E3E3E3" height="32.6211" rx="2.5" ry="2.5" style="stroke:#181818;stroke-width:0.5;" width="158" x="70" y="23.6211"/><text fill="#000000" font-family="sans-serif" font-size="14" lengthAdjust="spacing" textLength="144" x="77" y="45.7285">:CollaboratorController</text><rect fill="#E3E3E3" height="32.6211" rx="2.5" ry="2.5" style="stroke:#181818;stroke-width:0.5;" width="158" x="70" y="358.8613"/><text fill="#000000" font-family="sans-serif" font-size="14" lengthAdjust="spacing" textLength="144" x="77" y="380.9688">:CollaboratorController</text><rect fill="#E3E3E3" height="51.2422" rx="2.5" ry="2.5" style="stroke:#181818;stroke-width:0.5;" width="161" x="280.5" y="5"/><text fill="#000000" font-family="sans-serif" font-size="14" lengthAdjust="spacing" textLength="147" x="287.5" y="27.1074">collaboratorRepository:</text><text fill="#000000" font-family="sans-serif" font-size="14" lengthAdjust="spacing" textLength="146" x="288" y="45.7285">CollaboratorRepository</text><rect fill="#E3E3E3" height="51.2422" rx="2.5" ry="2.5" style="stroke:#181818;stroke-width:0.5;" width="161" x="280.5" y="358.8613"/><text fill="#000000" font-family="sans-serif" font-size="14" lengthAdjust="spacing" textLength="147" x="287.5" y="380.9688">collaboratorRepository:</text><text fill="#000000" font-family="sans-serif" font-size="14" lengthAdjust="spacing" textLength="146" x="288" y="399.5898">CollaboratorRepository</text><rect fill="#E3E3E3" height="32.6211" rx="2.5" ry="2.5" style="stroke:#181818;stroke-width:0.5;" width="96" x="665" y="358.8613"/><text fill="#000000" font-family="sans-serif" font-size="14" lengthAdjust="spacing" textLength="82" x="672" y="380.9688">:Collaborator</text><rect fill="#E3E3E3" height="51.2422" rx="2.5" ry="2.5" style="stroke:#181818;stroke-width:0.5;" width="105" x="808.5" y="5"/><text fill="#000000" font-family="sans-serif" font-size="14" lengthAdjust="spacing" textLength="91" x="815.5" y="27.1074">jobRepository:</text><text fill="#000000" font-family="sans-serif" font-size="14" lengthAdjust="spacing" textLength="90" x="816" y="45.7285">JobRepository</text><rect fill="#E3E3E3" height="51.2422" rx="2.5" ry="2.5" style="stroke:#181818;stroke-width:0.5;" width="105" x="808.5" y="358.8613"/><text fill="#000000" font-family="sans-serif" font-size="14" lengthAdjust="spacing" textLength="91" x="815.5" y="380.9688">jobRepository:</text><text fill="#000000" font-family="sans-serif" font-size="14" lengthAdjust="spacing" textLength="90" x="816" y="399.5898">JobRepository</text><rect fill="#FFFFFF" height="251.3281" style="stroke:#181818;stroke-width:1.0;" width="10" x="144" y="90.5332"/><rect fill="#FFFFFF" height="31.291" style="stroke:#181818;stroke-width:1.0;" width="10" x="356" y="272.2793"/><rect fill="#FFFFFF" height="65.582" style="stroke:#181818;stroke-width:1.0;" width="10" x="708" y="175.4063"/><polygon fill="#181818" points="132,86.5332,142,90.5332,132,94.5332,136,90.5332" style="stroke:#181818;stroke-width:1.0;"/><line style="stroke:#181818;stroke-width:1.0;" x1="0" x2="138" y1="90.5332" y2="90.5332"/><text fill="#000000" font-family="sans-serif" font-size="13" font-weight="bold" lengthAdjust="spacing" textLength="14" x="7" y="85.2705">12</text><text fill="#000000" font-family="sans-serif" font-size="13" lengthAdjust="spacing" textLength="107" x="25" y="85.2705">create collaborator</text><path d="M60,105.5332 L240,105.5332 L240,114.8242 L230,124.8242 L60,124.8242 L60,105.5332 " fill="#EEEEEE" style="stroke:#000000;stroke-width:1.5;"/><rect fill="none" height="206.0371" style="stroke:#000000;stroke-width:1.5;" width="801" x="60" y="105.5332"/><text fill="#000000" font-family="sans-serif" font-size="13" font-weight="bold" lengthAdjust="spacing" textLength="135" x="75" y="120.5615">Register Collaborator</text><polygon fill="#181818" points="653,161.4063,663,165.4063,653,169.4063,657,165.4063" style="stroke:#181818;stroke-width:1.0;"/><line style="stroke:#181818;stroke-width:1.0;" x1="154" x2="659" y1="165.4063" y2="165.4063"/><text fill="#000000" font-family="sans-serif" font-size="13" font-weight="bold" lengthAdjust="spacing" textLength="14" x="161" y="151.498">13</text><text fill="#000000" font-family="sans-serif" font-size="13" lengthAdjust="spacing" textLength="341" x="179" y="142.8525">createCLB(name, birthdate, contactMobile, email, address,</text><text fill="#000000" font-family="sans-serif" font-size="13" lengthAdjust="spacing" textLength="465" x="183" y="160.1436">city, documentType, identificationNumber, admissionDate, job, taxpayerNumber)</text><rect fill="#E3E3E3" height="32.6211" rx="2.5" ry="2.5" style="stroke:#181818;stroke-width:0.5;" width="96" x="665" y="129.7852"/><text fill="#000000" font-family="sans-serif" font-size="14" lengthAdjust="spacing" textLength="82" x="672" y="151.8926">:Collaborator</text><line style="stroke:#181818;stroke-width:1.0;" x1="718" x2="760" y1="196.6973" y2="196.6973"/><line style="stroke:#181818;stroke-width:1.0;" x1="760" x2="760" y1="196.6973" y2="209.6973"/><line style="stroke:#181818;stroke-width:1.0;" x1="719" x2="760" y1="209.6973" y2="209.6973"/><polygon fill="#181818" points="729,205.6973,719,209.6973,729,213.6973,725,209.6973" style="stroke:#181818;stroke-width:1.0;"/><text fill="#000000" font-family="sans-serif" font-size="13" font-weight="bold" lengthAdjust="spacing" textLength="14" x="725" y="191.4346">14</text><text fill="#000000" font-family="sans-serif" font-size="13" lengthAdjust="spacing" textLength="106" x="743" y="191.4346">verifyCollaborator()</text><polygon fill="#181818" points="165,236.9883,155,240.9883,165,244.9883,161,240.9883" style="stroke:#181818;stroke-width:1.0;"/><line style="stroke:#181818;stroke-width:1.0;" x1="159" x2="712" y1="240.9883" y2="240.9883"/><text fill="#000000" font-family="sans-serif" font-size="13" font-weight="bold" lengthAdjust="spacing" textLength="14" x="171" y="235.7256">15</text><text fill="#000000" font-family="sans-serif" font-size="13" lengthAdjust="spacing" textLength="110" x="189" y="235.7256">returnCollaborator()</text><polygon fill="#181818" points="344,268.2793,354,272.2793,344,276.2793,348,272.2793" style="stroke:#181818;stroke-width:1.0;"/><line style="stroke:#181818;stroke-width:1.0;" x1="154" x2="350" y1="272.2793" y2="272.2793"/><text fill="#000000" font-family="sans-serif" font-size="13" font-weight="bold" lengthAdjust="spacing" textLength="14" x="161" y="267.0166">16</text><text fill="#000000" font-family="sans-serif" font-size="13" lengthAdjust="spacing" textLength="165" x="179" y="267.0166">addCollaborator(collaborator)</text><polygon fill="#181818" points="165,299.5703,155,303.5703,165,307.5703,161,303.5703" style="stroke:#181818;stroke-width:1.0;"/><line style="stroke:#181818;stroke-width:1.0;" x1="159" x2="360" y1="303.5703" y2="303.5703"/><text fill="#000000" font-family="sans-serif" font-size="13" font-weight="bold" lengthAdjust="spacing" textLength="14" x="171" y="298.3076">17</text><text fill="#000000" font-family="sans-serif" font-size="13" lengthAdjust="spacing" textLength="42" x="189" y="298.3076">sucess</text><polygon fill="#181818" points="11,337.8613,1,341.8613,11,345.8613,7,341.8613" style="stroke:#181818;stroke-width:1.0;"/><line style="stroke:#181818;stroke-width:1.0;stroke-dasharray:2.0,2.0;" x1="5" x2="148" y1="341.8613" y2="341.8613"/><text fill="#000000" font-family="sans-serif" font-size="13" font-weight="bold" lengthAdjust="spacing" textLength="14" x="17" y="336.5986">18</text><text fill="#000000" font-family="sans-serif" font-size="13" lengthAdjust="spacing" textLength="42" x="35" y="336.5986">sucess</text><!--SRC=[VLB1Kjmm3BtxApISA9CzjBqmEmm7jhrqjftEmf6BucYpAecTaHLA_XubWSNP0NoovAVtdcIb1muT2hRGnX3zGM9BeDAJIyUN3lq3rdIhGqCWv1L3tUI0TC0g_kTGmnwRHCvPMjbpXq7XRBs9JODb5DGecnXKB2Ov0qomkTjjbsYVWNVKnSHs6TRtOVFkmyoolTdz_Fk9wYjg2VaNouN2hpoUIXO8vx3N6Fgs986ltzpgUh8FQ_12g0IvzGNskvLwvSSHD7KCTcg9VGSxgZcfWNAxq_ju9lvHPtjpSN4KikWyO4i5b2nwg2nLc7XG4_aTIsuif1QvAG2hIYYbuZw0PnqAgABlMmfwDtI6uigkl6UFoZ7ycUoEHIsdP8aV4xCDeG35fmu7aXdpnHqjlZLcuuNiMFnYtOm_al1-o7iyppXo-3nH8UqbdE1VeHKjHD-Rbgt3Ucn-mP3_pmSTZ6jqQijocRFKUnle1rwEvHIg-OFdC5-6oobpjLgTCBgSQbmIzmm0]--></g></svg>