<?xml version="1.0" encoding="us-ascii" standalone="no"?><svg xmlns="http://www.w3.org/2000/svg" xmlns:xlink="http://www.w3.org/1999/xlink" contentStyleType="text/css" height="772px" preserveAspectRatio="none" style="width:1599px;height:772px;background:#FFFFFF;" version="1.1" viewBox="0 0 1599 772" width="1599px" zoomAndPan="magnify"><defs/><g><rect fill="#FFFFFF" height="578.1211" style="stroke:#181818;stroke-width:1.0;" width="10" x="18" y="93.6211"/><rect fill="#FFFFFF" height="48.582" style="stroke:#181818;stroke-width:1.0;" width="10" x="489" y="116.9121"/><rect fill="#FFFFFF" height="31.291" style="stroke:#181818;stroke-width:1.0;" width="10" x="489" y="196.7852"/><rect fill="#FFFFFF" height="31.291" style="stroke:#181818;stroke-width:1.0;" width="10" x="489" y="370.2012"/><rect fill="#FFFFFF" height="31.291" style="stroke:#181818;stroke-width:1.0;" width="10" x="489" y="432.7832"/><rect fill="#FFFFFF" height="31.291" style="stroke:#181818;stroke-width:1.0;" width="10" x="489" y="640.4512"/><rect fill="#FFFFFF" height="79.543" style="stroke:#181818;stroke-width:1.0;" width="10" x="630.5" y="228.0762"/><rect fill="#FFFFFF" height="96.834" style="stroke:#181818;stroke-width:1.0;" width="10" x="770.5" y="464.0742"/><rect fill="#FFFFFF" height="79.543" style="stroke:#181818;stroke-width:1.0;" width="10" x="1286.5" y="560.9082"/><line style="stroke:#181818;stroke-width:0.5;stroke-dasharray:5.0,5.0;" x1="23" x2="23" y1="83.6211" y2="689.7422"/><line style="stroke:#181818;stroke-width:0.5;stroke-dasharray:5.0,5.0;" x1="493.5" x2="493.5" y1="83.6211" y2="689.7422"/><line style="stroke:#181818;stroke-width:0.5;stroke-dasharray:5.0,5.0;" x1="635.5" x2="635.5" y1="83.6211" y2="689.7422"/><line style="stroke:#181818;stroke-width:0.5;stroke-dasharray:5.0,5.0;" x1="775.5" x2="775.5" y1="83.6211" y2="689.7422"/><line style="stroke:#181818;stroke-width:0.5;stroke-dasharray:5.0,5.0;" x1="1291" x2="1291" y1="83.6211" y2="689.7422"/><line style="stroke:#181818;stroke-width:0.5;stroke-dasharray:5.0,5.0;" x1="1430" x2="1430" y1="83.6211" y2="689.7422"/><line style="stroke:#181818;stroke-width:0.5;stroke-dasharray:5.0,5.0;" x1="1540" x2="1540" y1="83.6211" y2="689.7422"/><text fill="#000000" font-family="sans-serif" font-size="14" lengthAdjust="spacing" textLength="30" x="5" y="80.1074">HRM</text><ellipse cx="23" cy="13.5" fill="#E3E3E3" rx="8" ry="8" style="stroke:#181818;stroke-width:0.5;"/><path d="M23,21.5 L23,48.5 M10,29.5 L36,29.5 M23,48.5 L10,63.5 M23,48.5 L36,63.5 " fill="none" style="stroke:#181818;stroke-width:0.5;"/><text fill="#000000" font-family="sans-serif" font-size="14" lengthAdjust="spacing" textLength="30" x="5" y="703.8496">HRM</text><ellipse cx="23" cy="715.8633" fill="#E3E3E3" rx="8" ry="8" style="stroke:#181818;stroke-width:0.5;"/><path d="M23,723.8633 L23,750.8633 M10,731.8633 L36,731.8633 M23,750.8633 L10,765.8633 M23,750.8633 L36,765.8633 " fill="none" style="stroke:#181818;stroke-width:0.5;"/><rect fill="#E3E3E3" height="32.6211" rx="2.5" ry="2.5" style="stroke:#181818;stroke-width:0.5;" width="161" x="413.5" y="50"/><text fill="#000000" font-family="sans-serif" font-size="14" lengthAdjust="spacing" textLength="147" x="420.5" y="72.1074">:RegisterCollaboratorUI</text><rect fill="#E3E3E3" height="32.6211" rx="2.5" ry="2.5" style="stroke:#181818;stroke-width:0.5;" width="161" x="413.5" y="688.7422"/><text fill="#000000" font-family="sans-serif" font-size="14" lengthAdjust="spacing" textLength="147" x="420.5" y="710.8496">:RegisterCollaboratorUI</text><rect fill="#E3E3E3" height="32.6211" rx="2.5" ry="2.5" style="stroke:#181818;stroke-width:0.5;" width="102" x="584.5" y="50"/><text fill="#000000" font-family="sans-serif" font-size="14" lengthAdjust="spacing" textLength="88" x="591.5" y="72.1074">:JobController</text><rect fill="#E3E3E3" height="32.6211" rx="2.5" ry="2.5" style="stroke:#181818;stroke-width:0.5;" width="102" x="584.5" y="688.7422"/><text fill="#000000" font-family="sans-serif" font-size="14" lengthAdjust="spacing" textLength="88" x="591.5" y="710.8496">:JobController</text><rect fill="#E3E3E3" height="32.6211" rx="2.5" ry="2.5" style="stroke:#181818;stroke-width:0.5;" width="158" x="696.5" y="50"/><text fill="#000000" font-family="sans-serif" font-size="14" lengthAdjust="spacing" textLength="144" x="703.5" y="72.1074">:CollaboratorController</text><rect fill="#E3E3E3" height="32.6211" rx="2.5" ry="2.5" style="stroke:#181818;stroke-width:0.5;" width="158" x="696.5" y="688.7422"/><text fill="#000000" font-family="sans-serif" font-size="14" lengthAdjust="spacing" textLength="144" x="703.5" y="710.8496">:CollaboratorController</text><rect fill="#E3E3E3" height="51.2422" rx="2.5" ry="2.5" style="stroke:#181818;stroke-width:0.5;" width="161" x="1211" y="31.3789"/><text fill="#000000" font-family="sans-serif" font-size="14" lengthAdjust="spacing" textLength="147" x="1218" y="53.4863">collaboratorRepository:</text><text fill="#000000" font-family="sans-serif" font-size="14" lengthAdjust="spacing" textLength="146" x="1218.5" y="72.1074">CollaboratorRepository</text><rect fill="#E3E3E3" height="51.2422" rx="2.5" ry="2.5" style="stroke:#181818;stroke-width:0.5;" width="161" x="1211" y="688.7422"/><text fill="#000000" font-family="sans-serif" font-size="14" lengthAdjust="spacing" textLength="147" x="1218" y="710.8496">collaboratorRepository:</text><text fill="#000000" font-family="sans-serif" font-size="14" lengthAdjust="spacing" textLength="146" x="1218.5" y="729.4707">CollaboratorRepository</text><rect fill="#E3E3E3" height="32.6211" rx="2.5" ry="2.5" style="stroke:#181818;stroke-width:0.5;" width="96" x="1382" y="50"/><text fill="#000000" font-family="sans-serif" font-size="14" lengthAdjust="spacing" textLength="82" x="1389" y="72.1074">:Collaborator</text><rect fill="#E3E3E3" height="32.6211" rx="2.5" ry="2.5" style="stroke:#181818;stroke-width:0.5;" width="96" x="1382" y="688.7422"/><text fill="#000000" font-family="sans-serif" font-size="14" lengthAdjust="spacing" textLength="82" x="1389" y="710.8496">:Collaborator</text><rect fill="#E3E3E3" height="51.2422" rx="2.5" ry="2.5" style="stroke:#181818;stroke-width:0.5;" width="105" x="1488" y="31.3789"/><text fill="#000000" font-family="sans-serif" font-size="14" lengthAdjust="spacing" textLength="91" x="1495" y="53.4863">jobRepository:</text><text fill="#000000" font-family="sans-serif" font-size="14" lengthAdjust="spacing" textLength="90" x="1495.5" y="72.1074">JobRepository</text><rect fill="#E3E3E3" height="51.2422" rx="2.5" ry="2.5" style="stroke:#181818;stroke-width:0.5;" width="105" x="1488" y="688.7422"/><text fill="#000000" font-family="sans-serif" font-size="14" lengthAdjust="spacing" textLength="91" x="1495" y="710.8496">jobRepository:</text><text fill="#000000" font-family="sans-serif" font-size="14" lengthAdjust="spacing" textLength="90" x="1495.5" y="729.4707">JobRepository</text><rect fill="#FFFFFF" height="578.1211" style="stroke:#181818;stroke-width:1.0;" width="10" x="18" y="93.6211"/><rect fill="#FFFFFF" height="48.582" style="stroke:#181818;stroke-width:1.0;" width="10" x="489" y="116.9121"/><rect fill="#FFFFFF" height="31.291" style="stroke:#181818;stroke-width:1.0;" width="10" x="489" y="196.7852"/><rect fill="#FFFFFF" height="31.291" style="stroke:#181818;stroke-width:1.0;" width="10" x="489" y="370.2012"/><rect fill="#FFFFFF" height="31.291" style="stroke:#181818;stroke-width:1.0;" width="10" x="489" y="432.7832"/><rect fill="#FFFFFF" height="31.291" style="stroke:#181818;stroke-width:1.0;" width="10" x="489" y="640.4512"/><rect fill="#FFFFFF" height="79.543" style="stroke:#181818;stroke-width:1.0;" width="10" x="630.5" y="228.0762"/><rect fill="#FFFFFF" height="96.834" style="stroke:#181818;stroke-width:1.0;" width="10" x="770.5" y="464.0742"/><rect fill="#FFFFFF" height="79.543" style="stroke:#181818;stroke-width:1.0;" width="10" x="1286.5" y="560.9082"/><polygon fill="#181818" points="477,112.9121,487,116.9121,477,120.9121,481,116.9121" style="stroke:#181818;stroke-width:1.0;"/><line style="stroke:#181818;stroke-width:1.0;" x1="28" x2="483" y1="116.9121" y2="116.9121"/><text fill="#000000" font-family="sans-serif" font-size="13" font-weight="bold" lengthAdjust="spacing" textLength="7" x="35" y="111.6494">1</text><text fill="#000000" font-family="sans-serif" font-size="13" lengthAdjust="spacing" textLength="205" x="46" y="111.6494">wants to register a new collaborator</text><polygon fill="#181818" points="39,161.4941,29,165.4941,39,169.4941,35,165.4941" style="stroke:#181818;stroke-width:1.0;"/><line style="stroke:#181818;stroke-width:1.0;stroke-dasharray:2.0,2.0;" x1="33" x2="493" y1="165.4941" y2="165.4941"/><text fill="#000000" font-family="sans-serif" font-size="13" font-weight="bold" lengthAdjust="spacing" textLength="7" x="45" y="151.5859">2</text><text fill="#000000" font-family="sans-serif" font-size="13" lengthAdjust="spacing" textLength="422" x="56" y="142.9404">asks for the info needed (name, birthdate, contactMobile, email, address,</text><text fill="#000000" font-family="sans-serif" font-size="13" lengthAdjust="spacing" textLength="315" x="60" y="160.2314">city, documentType[], documentCode, admissionDate)</text><polygon fill="#181818" points="477,192.7852,487,196.7852,477,200.7852,481,196.7852" style="stroke:#181818;stroke-width:1.0;"/><line style="stroke:#181818;stroke-width:1.0;" x1="28" x2="483" y1="196.7852" y2="196.7852"/><text fill="#000000" font-family="sans-serif" font-size="13" font-weight="bold" lengthAdjust="spacing" textLength="7" x="35" y="191.5225">3</text><text fill="#000000" font-family="sans-serif" font-size="13" lengthAdjust="spacing" textLength="122" x="46" y="191.5225">types requested data</text><polygon fill="#181818" points="618.5,224.0762,628.5,228.0762,618.5,232.0762,622.5,228.0762" style="stroke:#181818;stroke-width:1.0;"/><line style="stroke:#181818;stroke-width:1.0;" x1="494" x2="624.5" y1="228.0762" y2="228.0762"/><text fill="#000000" font-family="sans-serif" font-size="13" font-weight="bold" lengthAdjust="spacing" textLength="7" x="501" y="222.8135">4</text><text fill="#000000" font-family="sans-serif" font-size="13" lengthAdjust="spacing" textLength="60" x="512" y="222.8135">get job list</text><rect fill="none" height="43.252" style="stroke:#000000;stroke-width:1.5;" width="108" x="581.5" y="236.0762"/><path d="M581.5,236.0762 L643.5,236.0762 L643.5,245.0762 L633.5,255.0762 L581.5,255.0762 L581.5,236.0762 " fill="#EEEEEE" style="stroke:#000000;stroke-width:2.0;"/><text fill="#000000" font-family="sans-serif" font-size="13" font-weight="bold" lengthAdjust="spacing" textLength="17" x="594.5" y="252.1045">ref</text><text fill="#000000" font-family="sans-serif" font-size="12" lengthAdjust="spacing" textLength="65" x="603" y="272.0254">Get Job List</text><polygon fill="#181818" points="505,303.6191,495,307.6191,505,311.6191,501,307.6191" style="stroke:#181818;stroke-width:1.0;"/><line style="stroke:#181818;stroke-width:1.0;stroke-dasharray:2.0,2.0;" x1="499" x2="634.5" y1="307.6191" y2="307.6191"/><text fill="#000000" font-family="sans-serif" font-size="13" font-weight="bold" lengthAdjust="spacing" textLength="7" x="511" y="302.3564">5</text><text fill="#000000" font-family="sans-serif" font-size="13" lengthAdjust="spacing" textLength="38" x="522" y="302.3564">job list</text><polygon fill="#181818" points="39,334.9102,29,338.9102,39,342.9102,35,338.9102" style="stroke:#181818;stroke-width:1.0;"/><line style="stroke:#181818;stroke-width:1.0;stroke-dasharray:2.0,2.0;" x1="33" x2="493" y1="338.9102" y2="338.9102"/><text fill="#000000" font-family="sans-serif" font-size="13" font-weight="bold" lengthAdjust="spacing" textLength="7" x="45" y="333.6475">6</text><text fill="#000000" font-family="sans-serif" font-size="13" lengthAdjust="spacing" textLength="280" x="56" y="333.6475">shows the list of jobs and requests to select one</text><polygon fill="#181818" points="477,366.2012,487,370.2012,477,374.2012,481,370.2012" style="stroke:#181818;stroke-width:1.0;"/><line style="stroke:#181818;stroke-width:1.0;" x1="28" x2="483" y1="370.2012" y2="370.2012"/><text fill="#000000" font-family="sans-serif" font-size="13" font-weight="bold" lengthAdjust="spacing" textLength="7" x="35" y="364.9385">7</text><text fill="#000000" font-family="sans-serif" font-size="13" lengthAdjust="spacing" textLength="78" x="46" y="364.9385">select the job</text><polygon fill="#181818" points="39,397.4922,29,401.4922,39,405.4922,35,401.4922" style="stroke:#181818;stroke-width:1.0;"/><line style="stroke:#181818;stroke-width:1.0;stroke-dasharray:2.0,2.0;" x1="33" x2="493" y1="401.4922" y2="401.4922"/><text fill="#000000" font-family="sans-serif" font-size="13" font-weight="bold" lengthAdjust="spacing" textLength="7" x="45" y="396.2295">8</text><text fill="#000000" font-family="sans-serif" font-size="13" lengthAdjust="spacing" textLength="254" x="56" y="396.2295">shows all data and requests for confirmation</text><polygon fill="#181818" points="477,428.7832,487,432.7832,477,436.7832,481,432.7832" style="stroke:#181818;stroke-width:1.0;"/><line style="stroke:#181818;stroke-width:1.0;" x1="28" x2="483" y1="432.7832" y2="432.7832"/><text fill="#000000" font-family="sans-serif" font-size="13" font-weight="bold" lengthAdjust="spacing" textLength="7" x="35" y="427.5205">9</text><text fill="#000000" font-family="sans-serif" font-size="13" lengthAdjust="spacing" textLength="100" x="46" y="427.5205">confirms the data</text><polygon fill="#181818" points="758.5,460.0742,768.5,464.0742,758.5,468.0742,762.5,464.0742" style="stroke:#181818;stroke-width:1.0;"/><line style="stroke:#181818;stroke-width:1.0;" x1="494" x2="764.5" y1="464.0742" y2="464.0742"/><text fill="#000000" font-family="sans-serif" font-size="13" font-weight="bold" lengthAdjust="spacing" textLength="14" x="501" y="458.8115">10</text><text fill="#000000" font-family="sans-serif" font-size="13" lengthAdjust="spacing" textLength="107" x="519" y="458.8115">create collaborator</text><rect fill="none" height="43.252" style="stroke:#000000;stroke-width:1.5;" width="164" x="693.5" y="472.0742"/><path d="M693.5,472.0742 L755.5,472.0742 L755.5,481.0742 L745.5,491.0742 L693.5,491.0742 L693.5,472.0742 " fill="#EEEEEE" style="stroke:#000000;stroke-width:2.0;"/><text fill="#000000" font-family="sans-serif" font-size="13" font-weight="bold" lengthAdjust="spacing" textLength="17" x="706.5" y="488.1025">ref</text><text fill="#000000" font-family="sans-serif" font-size="12" lengthAdjust="spacing" textLength="152" x="699.5" y="508.0234">Get Collaborator Repository</text><polygon fill="#181818" points="1274.5,556.9082,1284.5,560.9082,1274.5,564.9082,1278.5,560.9082" style="stroke:#181818;stroke-width:1.0;"/><line style="stroke:#181818;stroke-width:1.0;" x1="775.5" x2="1280.5" y1="560.9082" y2="560.9082"/><text fill="#000000" font-family="sans-serif" font-size="13" font-weight="bold" lengthAdjust="spacing" textLength="14" x="782.5" y="547">11</text><text fill="#000000" font-family="sans-serif" font-size="13" lengthAdjust="spacing" textLength="396" x="800.5" y="538.3545">createCLB(name, birthdate, contactMobile, email, address, zipCode,</text><text fill="#000000" font-family="sans-serif" font-size="13" lengthAdjust="spacing" textLength="465" x="804.5" y="555.6455">city, documentType, identificationNumber, admissionDate, job, taxpayerNumber)</text><rect fill="none" height="43.252" style="stroke:#000000;stroke-width:1.5;" width="167" x="1208" y="568.9082"/><path d="M1208,568.9082 L1270,568.9082 L1270,577.9082 L1260,587.9082 L1208,587.9082 L1208,568.9082 " fill="#EEEEEE" style="stroke:#000000;stroke-width:2.0;"/><text fill="#000000" font-family="sans-serif" font-size="13" font-weight="bold" lengthAdjust="spacing" textLength="17" x="1221" y="584.9365">ref</text><text fill="#000000" font-family="sans-serif" font-size="12" lengthAdjust="spacing" textLength="128" x="1227.5" y="604.8574">Register a Collaborator</text><polygon fill="#181818" points="510,636.4512,500,640.4512,510,644.4512,506,640.4512" style="stroke:#181818;stroke-width:1.0;"/><line style="stroke:#181818;stroke-width:1.0;stroke-dasharray:2.0,2.0;" x1="504" x2="1290.5" y1="640.4512" y2="640.4512"/><text fill="#000000" font-family="sans-serif" font-size="13" font-weight="bold" lengthAdjust="spacing" textLength="14" x="516" y="635.1885">12</text><text fill="#000000" font-family="sans-serif" font-size="13" lengthAdjust="spacing" textLength="49" x="534" y="635.1885">success</text><polygon fill="#181818" points="34,667.7422,24,671.7422,34,675.7422,30,671.7422" style="stroke:#181818;stroke-width:1.0;"/><line style="stroke:#181818;stroke-width:1.0;stroke-dasharray:2.0,2.0;" x1="28" x2="493" y1="671.7422" y2="671.7422"/><text fill="#000000" font-family="sans-serif" font-size="13" font-weight="bold" lengthAdjust="spacing" textLength="14" x="40" y="666.4795">13</text><text fill="#000000" font-family="sans-serif" font-size="13" lengthAdjust="spacing" textLength="349" x="58" y="666.4795">shows success message (collaborator created successfully)</text><!--SRC=[bLLDSzem4BtxL-nmIcQSF-133dKxRHZIwT3arFGWf3Meo98hoQ7qrtSbWoCJ6wWFO4bFRtVVVjXjfMwOPJNKHXk-iQP6yBR5pFKd3UDRjiRlVgyGB7BFz5gb0BTXmkoaNaF5bCCiOwqtkgrNQEcTUsDXzcNvE0FcWFupkkKbbmtJ7cR54jVIURIbKOgjZ6M4Vtw8uEU74-pSh4gZlIKesWYPboUGbEO4Mpuj5qCqJy1BR8oJzB8lNdGvUj2nB3uiFtqxO_M86a9-cTN0mZnTnoi3H1QLaw_COzGiWyD32xYx9scWW1qnE_26ij9f20mqxY0Dgx_Oqv6g_IRHt15R82t8Xws3YhBbDmXILuR8KA206yrgp64bhTy8eiZ9WlP4-6XMKj4IQoPL3am8YyxbyAA1Ix_FGHZUrgZzqxx17p_VrgKH6F2rT4uQ_P58Rtkd18xwcaRkYSzHsBzRfBW5a5ViSgJtL2u5hD47hK6HP5CsttDHeVMRuR5OWNaboUaWtVzCx9HRMAJiuK4jmgLiI3ClOm9YKEUS2kOdqkOsPkTYpi9bC5KWSi2YlIXGh167YdeNZCQBGQTA7wu5UgAzjfgENZ6bOcw6teGQemggfAsPf_HVdVdYUAsBzzgiXyQdKBZ5S3xeZakc-yquFCOh81wTra0w4I3fwz6II3UZiy7fE6TwjsdvtstuLpQnqKRRCGSfw5LMaiSaV8q3-wGfyv3q73pxqx0zsWvpE_0t4UwzHcz7tTIS4B0xJC-MRnEj79jcq_9rilLDvLhEIOn9bq_ycemchOupRNWm1pNzq4SJRj9gEwHI755LgzH-SkvboJf-0lu1]--></g></svg>