<?xml version="1.0" encoding="us-ascii" standalone="no"?><svg xmlns="http://www.w3.org/2000/svg" xmlns:xlink="http://www.w3.org/1999/xlink" contentStyleType="text/css" height="1176px" preserveAspectRatio="none" style="width:271px;height:1176px;background:#FFFFFF;" version="1.1" viewBox="0 0 271 1176" width="271px" zoomAndPan="magnify"><defs/><g><!--class Collaborator--><g id="elem_Collaborator"><rect codeLine="3" fill="#F1F1F1" height="271.4531" id="Collaborator" rx="2.5" ry="2.5" style="stroke:#181818;stroke-width:0.5;" width="157" x="107.5" y="898"/><ellipse cx="143.65" cy="914" fill="#ADD1B2" rx="11" ry="11" style="stroke:#181818;stroke-width:1.0;"/><path d="M146.4156,909.875 Q146.5719,909.6563 146.7594,909.5469 Q146.9469,909.4375 147.1656,909.4375 Q147.5406,909.4375 147.775,909.7031 Q148.0094,909.9531 148.0094,910.5625 L148.0094,912.0156 Q148.0094,912.625 147.775,912.8906 Q147.5406,913.1563 147.1656,913.1563 Q146.8219,913.1563 146.6188,912.9531 Q146.4156,912.7656 146.3063,912.25 Q146.2594,911.8906 146.0719,911.7031 Q145.7438,911.3281 145.1344,911.1094 Q144.525,910.8906 143.9,910.8906 Q143.1344,910.8906 142.4938,911.2188 Q141.8688,911.5469 141.3688,912.2969 Q140.8844,913.0469 140.8844,914.0781 L140.8844,915.1719 Q140.8844,916.4063 141.775,917.2344 Q142.6656,918.0469 144.2594,918.0469 Q145.1969,918.0469 145.8531,917.7969 Q146.2438,917.6406 146.6656,917.2031 Q146.9313,916.9375 147.0719,916.8594 Q147.2281,916.7813 147.4313,916.7813 Q147.7594,916.7813 148.0094,917.0469 Q148.275,917.2969 148.275,917.6406 Q148.275,917.9844 147.9313,918.3906 Q147.4313,918.9688 146.6344,919.2969 Q145.5563,919.75 144.2594,919.75 Q142.7438,919.75 141.5406,919.125 Q140.5563,918.625 139.8688,917.5625 Q139.1813,916.4844 139.1813,915.2031 L139.1813,914.0469 Q139.1813,912.7188 139.7906,911.5781 Q140.4156,910.4219 141.5094,909.8125 Q142.6031,909.1875 143.8375,909.1875 Q144.5719,909.1875 145.2125,909.3594 Q145.8688,909.5156 146.4156,909.875 Z " fill="#000000"/><text fill="#000000" font-family="sans-serif" font-size="14" lengthAdjust="spacing" textLength="78" x="162.35" y="919.7969">Collaborator</text><line style="stroke:#181818;stroke-width:0.5;" x1="108.5" x2="263.5" y1="930" y2="930"/><rect fill="none" height="6" style="stroke:#C82930;stroke-width:1.0;" width="6" x="115.5" y="941.8105"/><text fill="#000000" font-family="sans-serif" font-size="14" lengthAdjust="spacing" textLength="78" x="127.5" y="949.1074">email: String</text><rect fill="none" height="6" style="stroke:#C82930;stroke-width:1.0;" width="6" x="115.5" y="960.4316"/><text fill="#000000" font-family="sans-serif" font-size="14" lengthAdjust="spacing" textLength="80" x="127.5" y="967.7285">name: String</text><rect fill="none" height="6" style="stroke:#C82930;stroke-width:1.0;" width="6" x="115.5" y="979.0527"/><text fill="#000000" font-family="sans-serif" font-size="14" lengthAdjust="spacing" textLength="111" x="127.5" y="986.3496">address: Address</text><rect fill="none" height="6" style="stroke:#C82930;stroke-width:1.0;" width="6" x="115.5" y="997.6738"/><text fill="#000000" font-family="sans-serif" font-size="14" lengthAdjust="spacing" textLength="85" x="127.5" y="1004.9707">phone: String</text><rect fill="none" height="6" style="stroke:#C82930;stroke-width:1.0;" width="6" x="115.5" y="1016.2949"/><text fill="#000000" font-family="sans-serif" font-size="14" lengthAdjust="spacing" textLength="49" x="127.5" y="1023.5918">job: Job</text><rect fill="none" height="6" style="stroke:#C82930;stroke-width:1.0;" width="6" x="115.5" y="1034.916"/><text fill="#000000" font-family="sans-serif" font-size="14" lengthAdjust="spacing" textLength="101" x="127.5" y="1042.2129">skills: List&lt;Skill&gt;</text><rect fill="none" height="6" style="stroke:#C82930;stroke-width:1.0;" width="6" x="115.5" y="1053.5371"/><text fill="#000000" font-family="sans-serif" font-size="14" lengthAdjust="spacing" textLength="96" x="127.5" y="1060.834">birthDate: Date</text><rect fill="none" height="6" style="stroke:#C82930;stroke-width:1.0;" width="6" x="115.5" y="1072.1582"/><text fill="#000000" font-family="sans-serif" font-size="14" lengthAdjust="spacing" textLength="131" x="127.5" y="1079.4551">admissionDate: Date</text><rect fill="none" height="6" style="stroke:#C82930;stroke-width:1.0;" width="6" x="115.5" y="1090.7793"/><text fill="#000000" font-family="sans-serif" font-size="14" lengthAdjust="spacing" textLength="85" x="127.5" y="1098.0762">IDtype: String</text><rect fill="none" height="6" style="stroke:#C82930;stroke-width:1.0;" width="6" x="115.5" y="1109.4004"/><text fill="#000000" font-family="sans-serif" font-size="14" lengthAdjust="spacing" textLength="126" x="127.5" y="1116.6973">taxpayerNumber: int</text><rect fill="none" height="6" style="stroke:#C82930;stroke-width:1.0;" width="6" x="115.5" y="1128.0215"/><text fill="#000000" font-family="sans-serif" font-size="14" lengthAdjust="spacing" textLength="111" x="127.5" y="1135.3184">citizenNumber: int</text><rect fill="none" height="6" style="stroke:#C82930;stroke-width:1.0;" width="6" x="115.5" y="1146.6426"/><text fill="#000000" font-family="sans-serif" font-size="14" lengthAdjust="spacing" textLength="99" x="127.5" y="1153.9395">isFree: boolean</text><line style="stroke:#181818;stroke-width:0.5;" x1="108.5" x2="263.5" y1="1161.4531" y2="1161.4531"/></g><!--class Agenda--><g id="elem_Agenda"><rect codeLine="18" fill="#F1F1F1" height="66.6211" id="Agenda" rx="2.5" ry="2.5" style="stroke:#181818;stroke-width:0.5;" width="197" x="25.5" y="331"/><ellipse cx="95.25" cy="347" fill="#ADD1B2" rx="11" ry="11" style="stroke:#181818;stroke-width:1.0;"/><path d="M98.0156,342.875 Q98.1719,342.6563 98.3594,342.5469 Q98.5469,342.4375 98.7656,342.4375 Q99.1406,342.4375 99.375,342.7031 Q99.6094,342.9531 99.6094,343.5625 L99.6094,345.0156 Q99.6094,345.625 99.375,345.8906 Q99.1406,346.1563 98.7656,346.1563 Q98.4219,346.1563 98.2188,345.9531 Q98.0156,345.7656 97.9063,345.25 Q97.8594,344.8906 97.6719,344.7031 Q97.3438,344.3281 96.7344,344.1094 Q96.125,343.8906 95.5,343.8906 Q94.7344,343.8906 94.0938,344.2188 Q93.4688,344.5469 92.9688,345.2969 Q92.4844,346.0469 92.4844,347.0781 L92.4844,348.1719 Q92.4844,349.4063 93.375,350.2344 Q94.2656,351.0469 95.8594,351.0469 Q96.7969,351.0469 97.4531,350.7969 Q97.8438,350.6406 98.2656,350.2031 Q98.5313,349.9375 98.6719,349.8594 Q98.8281,349.7813 99.0313,349.7813 Q99.3594,349.7813 99.6094,350.0469 Q99.875,350.2969 99.875,350.6406 Q99.875,350.9844 99.5313,351.3906 Q99.0313,351.9688 98.2344,352.2969 Q97.1563,352.75 95.8594,352.75 Q94.3438,352.75 93.1406,352.125 Q92.1563,351.625 91.4688,350.5625 Q90.7813,349.4844 90.7813,348.2031 L90.7813,347.0469 Q90.7813,345.7188 91.3906,344.5781 Q92.0156,343.4219 93.1094,342.8125 Q94.2031,342.1875 95.4375,342.1875 Q96.1719,342.1875 96.8125,342.3594 Q97.4688,342.5156 98.0156,342.875 Z " fill="#000000"/><text fill="#000000" font-family="sans-serif" font-size="14" lengthAdjust="spacing" textLength="49" x="115.75" y="352.7969">Agenda</text><line style="stroke:#181818;stroke-width:0.5;" x1="26.5" x2="221.5" y1="363" y2="363"/><rect fill="none" height="6" style="stroke:#C82930;stroke-width:1.0;" width="6" x="33.5" y="374.8105"/><text fill="#000000" font-family="sans-serif" font-size="14" lengthAdjust="spacing" textLength="171" x="45.5" y="382.1074">entries: List&lt;AgendaEntry&gt;</text><line style="stroke:#181818;stroke-width:0.5;" x1="26.5" x2="221.5" y1="389.6211" y2="389.6211"/></g><!--class AgendaEntry--><g id="elem_AgendaEntry"><rect codeLine="22" fill="#F1F1F1" height="159.7266" id="AgendaEntry" rx="2.5" ry="2.5" style="stroke:#181818;stroke-width:0.5;" width="169" x="39.5" y="458"/><ellipse cx="79.25" cy="474" fill="#ADD1B2" rx="11" ry="11" style="stroke:#181818;stroke-width:1.0;"/><path d="M82.0156,469.875 Q82.1719,469.6563 82.3594,469.5469 Q82.5469,469.4375 82.7656,469.4375 Q83.1406,469.4375 83.375,469.7031 Q83.6094,469.9531 83.6094,470.5625 L83.6094,472.0156 Q83.6094,472.625 83.375,472.8906 Q83.1406,473.1563 82.7656,473.1563 Q82.4219,473.1563 82.2188,472.9531 Q82.0156,472.7656 81.9063,472.25 Q81.8594,471.8906 81.6719,471.7031 Q81.3438,471.3281 80.7344,471.1094 Q80.125,470.8906 79.5,470.8906 Q78.7344,470.8906 78.0938,471.2188 Q77.4688,471.5469 76.9688,472.2969 Q76.4844,473.0469 76.4844,474.0781 L76.4844,475.1719 Q76.4844,476.4063 77.375,477.2344 Q78.2656,478.0469 79.8594,478.0469 Q80.7969,478.0469 81.4531,477.7969 Q81.8438,477.6406 82.2656,477.2031 Q82.5313,476.9375 82.6719,476.8594 Q82.8281,476.7813 83.0313,476.7813 Q83.3594,476.7813 83.6094,477.0469 Q83.875,477.2969 83.875,477.6406 Q83.875,477.9844 83.5313,478.3906 Q83.0313,478.9688 82.2344,479.2969 Q81.1563,479.75 79.8594,479.75 Q78.3438,479.75 77.1406,479.125 Q76.1563,478.625 75.4688,477.5625 Q74.7813,476.4844 74.7813,475.2031 L74.7813,474.0469 Q74.7813,472.7188 75.3906,471.5781 Q76.0156,470.4219 77.1094,469.8125 Q78.2031,469.1875 79.4375,469.1875 Q80.1719,469.1875 80.8125,469.3594 Q81.4688,469.5156 82.0156,469.875 Z " fill="#000000"/><text fill="#000000" font-family="sans-serif" font-size="14" lengthAdjust="spacing" textLength="82" x="98.75" y="479.7969">AgendaEntry</text><line style="stroke:#181818;stroke-width:0.5;" x1="40.5" x2="207.5" y1="490" y2="490"/><rect fill="none" height="6" style="stroke:#C82930;stroke-width:1.0;" width="6" x="47.5" y="501.8105"/><text fill="#000000" font-family="sans-serif" font-size="14" lengthAdjust="spacing" textLength="75" x="59.5" y="509.1074">team: Team</text><rect fill="none" height="6" style="stroke:#C82930;stroke-width:1.0;" width="6" x="47.5" y="520.4316"/><text fill="#000000" font-family="sans-serif" font-size="14" lengthAdjust="spacing" textLength="143" x="59.5" y="527.7285">vehicles: List&lt;Vehicle&gt;</text><rect fill="none" height="6" style="stroke:#C82930;stroke-width:1.0;" width="6" x="47.5" y="539.0527"/><text fill="#000000" font-family="sans-serif" font-size="14" lengthAdjust="spacing" textLength="97" x="59.5" y="546.3496">duration: String</text><rect fill="none" height="6" style="stroke:#C82930;stroke-width:1.0;" width="6" x="47.5" y="557.6738"/><text fill="#000000" font-family="sans-serif" font-size="14" lengthAdjust="spacing" textLength="86" x="59.5" y="564.9707">status: Status</text><rect fill="none" height="6" style="stroke:#C82930;stroke-width:1.0;" width="6" x="47.5" y="576.2949"/><text fill="#000000" font-family="sans-serif" font-size="14" lengthAdjust="spacing" textLength="73" x="59.5" y="583.5918">entry: Entry</text><rect fill="none" height="6" style="stroke:#C82930;stroke-width:1.0;" width="6" x="47.5" y="594.916"/><text fill="#000000" font-family="sans-serif" font-size="14" lengthAdjust="spacing" textLength="66" x="59.5" y="602.2129">date: Date</text><line style="stroke:#181818;stroke-width:0.5;" x1="40.5" x2="207.5" y1="609.7266" y2="609.7266"/></g><!--class Status--><g id="elem_Status"><rect codeLine="31" fill="#F1F1F1" height="159.7266" id="Status" rx="2.5" ry="2.5" style="stroke:#181818;stroke-width:0.5;" width="110" x="7" y="678"/><ellipse cx="39.1" cy="694" fill="#ADD1B2" rx="11" ry="11" style="stroke:#181818;stroke-width:1.0;"/><path d="M41.8656,689.875 Q42.0219,689.6563 42.2094,689.5469 Q42.3969,689.4375 42.6156,689.4375 Q42.9906,689.4375 43.225,689.7031 Q43.4594,689.9531 43.4594,690.5625 L43.4594,692.0156 Q43.4594,692.625 43.225,692.8906 Q42.9906,693.1563 42.6156,693.1563 Q42.2719,693.1563 42.0688,692.9531 Q41.8656,692.7656 41.7563,692.25 Q41.7094,691.8906 41.5219,691.7031 Q41.1938,691.3281 40.5844,691.1094 Q39.975,690.8906 39.35,690.8906 Q38.5844,690.8906 37.9438,691.2188 Q37.3188,691.5469 36.8188,692.2969 Q36.3344,693.0469 36.3344,694.0781 L36.3344,695.1719 Q36.3344,696.4063 37.225,697.2344 Q38.1156,698.0469 39.7094,698.0469 Q40.6469,698.0469 41.3031,697.7969 Q41.6938,697.6406 42.1156,697.2031 Q42.3813,696.9375 42.5219,696.8594 Q42.6781,696.7813 42.8813,696.7813 Q43.2094,696.7813 43.4594,697.0469 Q43.725,697.2969 43.725,697.6406 Q43.725,697.9844 43.3813,698.3906 Q42.8813,698.9688 42.0844,699.2969 Q41.0063,699.75 39.7094,699.75 Q38.1938,699.75 36.9906,699.125 Q36.0063,698.625 35.3188,697.5625 Q34.6313,696.4844 34.6313,695.2031 L34.6313,694.0469 Q34.6313,692.7188 35.2406,691.5781 Q35.8656,690.4219 36.9594,689.8125 Q38.0531,689.1875 39.2875,689.1875 Q40.0219,689.1875 40.6625,689.3594 Q41.3188,689.5156 41.8656,689.875 Z " fill="#000000"/><text fill="#000000" font-family="sans-serif" font-size="14" lengthAdjust="spacing" textLength="40" x="56.9" y="699.7969">Status</text><line style="stroke:#181818;stroke-width:0.5;" x1="8" x2="116" y1="710" y2="710"/><text fill="#000000" font-family="sans-serif" font-size="14" lengthAdjust="spacing" textLength="63" x="13" y="729.1074">PLANNED</text><text fill="#000000" font-family="sans-serif" font-size="14" lengthAdjust="spacing" textLength="86" x="13" y="747.7285">POSTPONED</text><text fill="#000000" font-family="sans-serif" font-size="14" lengthAdjust="spacing" textLength="74" x="13" y="766.3496">CANCELED</text><text fill="#000000" font-family="sans-serif" font-size="14" lengthAdjust="spacing" textLength="39" x="13" y="784.9707">DONE</text><text fill="#000000" font-family="sans-serif" font-size="14" lengthAdjust="spacing" textLength="93" x="13" y="803.5918">TO_BE_DONE</text><text fill="#000000" font-family="sans-serif" font-size="14" lengthAdjust="spacing" textLength="98" x="13" y="822.2129">IN_PROGRESS</text><line style="stroke:#181818;stroke-width:0.5;" x1="8" x2="116" y1="829.7266" y2="829.7266"/></g><!--class AddEntryToAgendaUI--><g id="elem_AddEntryToAgendaUI"><rect codeLine="40" fill="#F1F1F1" height="48" id="AddEntryToAgendaUI" rx="2.5" ry="2.5" style="stroke:#181818;stroke-width:0.5;" width="168" x="40" y="7"/><ellipse cx="55" cy="23" fill="#ADD1B2" rx="11" ry="11" style="stroke:#181818;stroke-width:1.0;"/><path d="M57.7656,18.875 Q57.9219,18.6563 58.1094,18.5469 Q58.2969,18.4375 58.5156,18.4375 Q58.8906,18.4375 59.125,18.7031 Q59.3594,18.9531 59.3594,19.5625 L59.3594,21.0156 Q59.3594,21.625 59.125,21.8906 Q58.8906,22.1563 58.5156,22.1563 Q58.1719,22.1563 57.9688,21.9531 Q57.7656,21.7656 57.6563,21.25 Q57.6094,20.8906 57.4219,20.7031 Q57.0938,20.3281 56.4844,20.1094 Q55.875,19.8906 55.25,19.8906 Q54.4844,19.8906 53.8438,20.2188 Q53.2188,20.5469 52.7188,21.2969 Q52.2344,22.0469 52.2344,23.0781 L52.2344,24.1719 Q52.2344,25.4063 53.125,26.2344 Q54.0156,27.0469 55.6094,27.0469 Q56.5469,27.0469 57.2031,26.7969 Q57.5938,26.6406 58.0156,26.2031 Q58.2813,25.9375 58.4219,25.8594 Q58.5781,25.7813 58.7813,25.7813 Q59.1094,25.7813 59.3594,26.0469 Q59.625,26.2969 59.625,26.6406 Q59.625,26.9844 59.2813,27.3906 Q58.7813,27.9688 57.9844,28.2969 Q56.9063,28.75 55.6094,28.75 Q54.0938,28.75 52.8906,28.125 Q51.9063,27.625 51.2188,26.5625 Q50.5313,25.4844 50.5313,24.2031 L50.5313,23.0469 Q50.5313,21.7188 51.1406,20.5781 Q51.7656,19.4219 52.8594,18.8125 Q53.9531,18.1875 55.1875,18.1875 Q55.9219,18.1875 56.5625,18.3594 Q57.2188,18.5156 57.7656,18.875 Z " fill="#000000"/><text fill="#000000" font-family="sans-serif" font-size="14" lengthAdjust="spacing" textLength="136" x="69" y="28.7969">AddEntryToAgendaUI</text><line style="stroke:#181818;stroke-width:0.5;" x1="41" x2="207" y1="39" y2="39"/><line style="stroke:#181818;stroke-width:0.5;" x1="41" x2="207" y1="47" y2="47"/></g><!--class Repositories--><g id="elem_Repositories"><rect codeLine="43" fill="#F1F1F1" height="48" id="Repositories" rx="2.5" ry="2.5" style="stroke:#181818;stroke-width:0.5;" width="111" x="68.5" y="223"/><ellipse cx="83.5" cy="239" fill="#ADD1B2" rx="11" ry="11" style="stroke:#181818;stroke-width:1.0;"/><path d="M86.2656,234.875 Q86.4219,234.6563 86.6094,234.5469 Q86.7969,234.4375 87.0156,234.4375 Q87.3906,234.4375 87.625,234.7031 Q87.8594,234.9531 87.8594,235.5625 L87.8594,237.0156 Q87.8594,237.625 87.625,237.8906 Q87.3906,238.1563 87.0156,238.1563 Q86.6719,238.1563 86.4688,237.9531 Q86.2656,237.7656 86.1563,237.25 Q86.1094,236.8906 85.9219,236.7031 Q85.5938,236.3281 84.9844,236.1094 Q84.375,235.8906 83.75,235.8906 Q82.9844,235.8906 82.3438,236.2188 Q81.7188,236.5469 81.2188,237.2969 Q80.7344,238.0469 80.7344,239.0781 L80.7344,240.1719 Q80.7344,241.4063 81.625,242.2344 Q82.5156,243.0469 84.1094,243.0469 Q85.0469,243.0469 85.7031,242.7969 Q86.0938,242.6406 86.5156,242.2031 Q86.7813,241.9375 86.9219,241.8594 Q87.0781,241.7813 87.2813,241.7813 Q87.6094,241.7813 87.8594,242.0469 Q88.125,242.2969 88.125,242.6406 Q88.125,242.9844 87.7813,243.3906 Q87.2813,243.9688 86.4844,244.2969 Q85.4063,244.75 84.1094,244.75 Q82.5938,244.75 81.3906,244.125 Q80.4063,243.625 79.7188,242.5625 Q79.0313,241.4844 79.0313,240.2031 L79.0313,239.0469 Q79.0313,237.7188 79.6406,236.5781 Q80.2656,235.4219 81.3594,234.8125 Q82.4531,234.1875 83.6875,234.1875 Q84.4219,234.1875 85.0625,234.3594 Q85.7188,234.5156 86.2656,234.875 Z " fill="#000000"/><text fill="#000000" font-family="sans-serif" font-size="14" lengthAdjust="spacing" textLength="79" x="97.5" y="244.7969">Repositories</text><line style="stroke:#181818;stroke-width:0.5;" x1="69.5" x2="178.5" y1="255" y2="255"/><line style="stroke:#181818;stroke-width:0.5;" x1="69.5" x2="178.5" y1="263" y2="263"/></g><!--class AgendaController--><g id="elem_AgendaController"><rect fill="#F1F1F1" height="48" id="AgendaController" rx="2.5" ry="2.5" style="stroke:#181818;stroke-width:0.5;" width="143" x="52.5" y="115"/><ellipse cx="67.5" cy="131" fill="#ADD1B2" rx="11" ry="11" style="stroke:#181818;stroke-width:1.0;"/><path d="M70.2656,126.875 Q70.4219,126.6563 70.6094,126.5469 Q70.7969,126.4375 71.0156,126.4375 Q71.3906,126.4375 71.625,126.7031 Q71.8594,126.9531 71.8594,127.5625 L71.8594,129.0156 Q71.8594,129.625 71.625,129.8906 Q71.3906,130.1563 71.0156,130.1563 Q70.6719,130.1563 70.4688,129.9531 Q70.2656,129.7656 70.1563,129.25 Q70.1094,128.8906 69.9219,128.7031 Q69.5938,128.3281 68.9844,128.1094 Q68.375,127.8906 67.75,127.8906 Q66.9844,127.8906 66.3438,128.2188 Q65.7188,128.5469 65.2188,129.2969 Q64.7344,130.0469 64.7344,131.0781 L64.7344,132.1719 Q64.7344,133.4063 65.625,134.2344 Q66.5156,135.0469 68.1094,135.0469 Q69.0469,135.0469 69.7031,134.7969 Q70.0938,134.6406 70.5156,134.2031 Q70.7813,133.9375 70.9219,133.8594 Q71.0781,133.7813 71.2813,133.7813 Q71.6094,133.7813 71.8594,134.0469 Q72.125,134.2969 72.125,134.6406 Q72.125,134.9844 71.7813,135.3906 Q71.2813,135.9688 70.4844,136.2969 Q69.4063,136.75 68.1094,136.75 Q66.5938,136.75 65.3906,136.125 Q64.4063,135.625 63.7188,134.5625 Q63.0313,133.4844 63.0313,132.2031 L63.0313,131.0469 Q63.0313,129.7188 63.6406,128.5781 Q64.2656,127.4219 65.3594,126.8125 Q66.4531,126.1875 67.6875,126.1875 Q68.4219,126.1875 69.0625,126.3594 Q69.7188,126.5156 70.2656,126.875 Z " fill="#000000"/><text fill="#000000" font-family="sans-serif" font-size="14" lengthAdjust="spacing" textLength="111" x="81.5" y="136.7969">AgendaController</text><line style="stroke:#181818;stroke-width:0.5;" x1="53.5" x2="194.5" y1="147" y2="147"/><line style="stroke:#181818;stroke-width:0.5;" x1="53.5" x2="194.5" y1="155" y2="155"/></g><!--class Team--><g id="elem_Team"><rect fill="#F1F1F1" height="48" id="Team" rx="2.5" ry="2.5" style="stroke:#181818;stroke-width:0.5;" width="68" x="152" y="734"/><ellipse cx="167" cy="750" fill="#ADD1B2" rx="11" ry="11" style="stroke:#181818;stroke-width:1.0;"/><path d="M169.7656,745.875 Q169.9219,745.6563 170.1094,745.5469 Q170.2969,745.4375 170.5156,745.4375 Q170.8906,745.4375 171.125,745.7031 Q171.3594,745.9531 171.3594,746.5625 L171.3594,748.0156 Q171.3594,748.625 171.125,748.8906 Q170.8906,749.1563 170.5156,749.1563 Q170.1719,749.1563 169.9688,748.9531 Q169.7656,748.7656 169.6563,748.25 Q169.6094,747.8906 169.4219,747.7031 Q169.0938,747.3281 168.4844,747.1094 Q167.875,746.8906 167.25,746.8906 Q166.4844,746.8906 165.8438,747.2188 Q165.2188,747.5469 164.7188,748.2969 Q164.2344,749.0469 164.2344,750.0781 L164.2344,751.1719 Q164.2344,752.4063 165.125,753.2344 Q166.0156,754.0469 167.6094,754.0469 Q168.5469,754.0469 169.2031,753.7969 Q169.5938,753.6406 170.0156,753.2031 Q170.2813,752.9375 170.4219,752.8594 Q170.5781,752.7813 170.7813,752.7813 Q171.1094,752.7813 171.3594,753.0469 Q171.625,753.2969 171.625,753.6406 Q171.625,753.9844 171.2813,754.3906 Q170.7813,754.9688 169.9844,755.2969 Q168.9063,755.75 167.6094,755.75 Q166.0938,755.75 164.8906,755.125 Q163.9063,754.625 163.2188,753.5625 Q162.5313,752.4844 162.5313,751.2031 L162.5313,750.0469 Q162.5313,748.7188 163.1406,747.5781 Q163.7656,746.4219 164.8594,745.8125 Q165.9531,745.1875 167.1875,745.1875 Q167.9219,745.1875 168.5625,745.3594 Q169.2188,745.5156 169.7656,745.875 Z " fill="#000000"/><text fill="#000000" font-family="sans-serif" font-size="14" lengthAdjust="spacing" textLength="36" x="181" y="755.7969">Team</text><line style="stroke:#181818;stroke-width:0.5;" x1="153" x2="219" y1="766" y2="766"/><line style="stroke:#181818;stroke-width:0.5;" x1="153" x2="219" y1="774" y2="774"/></g><!--link AddEntryToAgendaUI to AgendaController--><g id="link_AddEntryToAgendaUI_AgendaController"><path codeLine="46" d="M124,55 C124,72.66 124,90.94 124,108.68 " fill="none" id="AddEntryToAgendaUI-to-AgendaController" style="stroke:#181818;stroke-width:1.0;"/><polygon fill="#181818" points="124,114.68,128,105.68,124,109.68,120,105.68,124,114.68" style="stroke:#181818;stroke-width:1.0;"/></g><!--link AgendaController to Repositories--><g id="link_AgendaController_Repositories"><path codeLine="47" d="M124,163 C124,180.66 124,198.94 124,216.68 " fill="none" id="AgendaController-to-Repositories" style="stroke:#181818;stroke-width:1.0;"/><polygon fill="#181818" points="124,222.68,128,213.68,124,217.68,120,213.68,124,222.68" style="stroke:#181818;stroke-width:1.0;"/></g><!--link Repositories to Agenda--><g id="link_Repositories_Agenda"><path codeLine="48" d="M124,271.1 C124,288.21 124,305.77 124,324.82 " fill="none" id="Repositories-to-Agenda" style="stroke:#181818;stroke-width:1.0;"/><polygon fill="#181818" points="124,330.82,128,321.82,124,325.82,120,321.82,124,330.82" style="stroke:#181818;stroke-width:1.0;"/></g><!--link Agenda to AgendaEntry--><g id="link_Agenda_AgendaEntry"><path codeLine="49" d="M124,398.16 C124,415.17 124,430.77 124,451.84 " fill="none" id="Agenda-to-AgendaEntry" style="stroke:#181818;stroke-width:1.0;"/><polygon fill="#181818" points="124,457.84,128,448.84,124,452.84,120,448.84,124,457.84" style="stroke:#181818;stroke-width:1.0;"/></g><!--link AgendaEntry to Status--><g id="link_AgendaEntry_Status"><path codeLine="50" d="M101.53,618.01 C95.98,637.51 91.6797,652.6184 86.1397,672.1184 " fill="none" id="AgendaEntry-to-Status" style="stroke:#181818;stroke-width:1.0;"/><polygon fill="#181818" points="84.5,677.89,90.8073,670.3258,85.8664,673.0803,83.1119,668.1395,84.5,677.89" style="stroke:#181818;stroke-width:1.0;"/></g><!--link AgendaEntry to Team--><g id="link_AgendaEntry_Team"><path codeLine="51" d="M146.47,618.01 C158.12,658.95 169.8575,700.2492 177.6875,727.7592 " fill="none" id="AgendaEntry-to-Team" style="stroke:#181818;stroke-width:1.0;"/><polygon fill="#181818" points="179.33,733.53,180.7134,723.7788,177.9612,728.721,173.019,725.9688,179.33,733.53" style="stroke:#181818;stroke-width:1.0;"/></g><!--link Team to Collaborator--><g id="link_Team_Collaborator"><path codeLine="52" d="M186,782.32 C186,808.54 186,847.3 186,891.77 " fill="none" id="Team-to-Collaborator" style="stroke:#181818;stroke-width:1.0;"/><polygon fill="#181818" points="186,897.77,190,888.77,186,892.77,182,888.77,186,897.77" style="stroke:#181818;stroke-width:1.0;"/></g><!--SRC=[RLFBRgim5DpxAxphYcQFgaWKQ9KgWYZGRgD3i89RFv1jgikj-kyrDX12oy9uvdZEOmntZJ6j3ZURbe4m7MVtPyatPmPQ1pM5YmAEa8Cuben19HKOgV0NmlO920VAGbmOHSN5Km8ukMMWhXNHEiIHttYsRQHO7NoNLOXVPEMH_g2CMTMUQlDG363h0nLLfad0MFMmJaKurPfAiGxi4jEtgq86_hNG4vLrl28gn5GO7pXJG_yJyOkd-aaHcwIIaX4Gw7io9ReGKSDiXx15oDIpZwMMwxThXMCdcI70GrpQrUDFqj0pc_EyUJXENtVs1koSjnDf0wRJ0pUyhztq8NQbHktLcxaVhnXREUoZB4iJly-Byf1FA8woEDsF8B6qsvJvwJ4zpN2NdGx7_FcO5iLYuBfsBPJIZ_wwiyNcw96qKbFxILdVFF_7-I3OZhx5qeRiXqWKMXFkr38TkibzpJ4g5uotQ7apGspqSasxUneMXvP_1K8_]--></g></svg>