<?xml version="1.0" encoding="us-ascii" standalone="no"?><svg xmlns="http://www.w3.org/2000/svg" xmlns:xlink="http://www.w3.org/1999/xlink" contentStyleType="text/css" height="562px" preserveAspectRatio="none" style="width:695px;height:562px;background:#FFFFFF;" version="1.1" viewBox="0 0 695 562" width="695px" zoomAndPan="magnify"><defs/><g><rect fill="#FFFFFF" height="376.4922" style="stroke:#181818;stroke-width:1.0;" width="10" x="42" y="93.6211"/><rect fill="#FFFFFF" height="31.291" style="stroke:#181818;stroke-width:1.0;" width="10" x="285" y="116.9121"/><rect fill="#FFFFFF" height="93.873" style="stroke:#181818;stroke-width:1.0;" width="10" x="285" y="179.4941"/><rect fill="#FFFFFF" height="31.291" style="stroke:#181818;stroke-width:1.0;" width="10" x="285" y="304.6582"/><rect fill="#FFFFFF" height="93.873" style="stroke:#181818;stroke-width:1.0;" width="10" x="285" y="367.2402"/><rect fill="#FFFFFF" height="31.291" style="stroke:#181818;stroke-width:1.0;" width="10" x="626" y="210.7852"/><rect fill="#FFFFFF" height="31.291" style="stroke:#181818;stroke-width:1.0;" width="10" x="626" y="398.5313"/><line style="stroke:#181818;stroke-width:0.5;stroke-dasharray:5.0,5.0;" x1="47" x2="47" y1="83.6211" y2="479.1133"/><line style="stroke:#181818;stroke-width:0.5;stroke-dasharray:5.0,5.0;" x1="290" x2="290" y1="83.6211" y2="479.1133"/><line style="stroke:#181818;stroke-width:0.5;stroke-dasharray:5.0,5.0;" x1="630.5" x2="630.5" y1="83.6211" y2="479.1133"/><text fill="#000000" font-family="sans-serif" font-size="14" lengthAdjust="spacing" textLength="78" x="5" y="80.1074">Collaborator</text><ellipse cx="47" cy="13.5" fill="#E3E3E3" rx="8" ry="8" style="stroke:#181818;stroke-width:0.5;"/><path d="M47,21.5 L47,48.5 M34,29.5 L60,29.5 M47,48.5 L34,63.5 M47,48.5 L60,63.5 " fill="none" style="stroke:#181818;stroke-width:0.5;"/><text fill="#000000" font-family="sans-serif" font-size="14" lengthAdjust="spacing" textLength="78" x="5" y="493.2207">Collaborator</text><ellipse cx="47" cy="505.2344" fill="#E3E3E3" rx="8" ry="8" style="stroke:#181818;stroke-width:0.5;"/><path d="M47,513.2344 L47,540.2344 M34,521.2344 L60,521.2344 M47,540.2344 L34,555.2344 M47,540.2344 L60,555.2344 " fill="none" style="stroke:#181818;stroke-width:0.5;"/><rect fill="#E3E3E3" height="32.6211" rx="2.5" ry="2.5" style="stroke:#181818;stroke-width:0.5;" width="64" x="258" y="50"/><text fill="#000000" font-family="sans-serif" font-size="14" lengthAdjust="spacing" textLength="50" x="265" y="72.1074">:System</text><rect fill="#E3E3E3" height="32.6211" rx="2.5" ry="2.5" style="stroke:#181818;stroke-width:0.5;" width="64" x="258" y="478.1133"/><text fill="#000000" font-family="sans-serif" font-size="14" lengthAdjust="spacing" textLength="50" x="265" y="500.2207">:System</text><rect fill="#E3E3E3" height="32.6211" rx="2.5" ry="2.5" style="stroke:#181818;stroke-width:0.5;" width="117" x="572.5" y="50"/><text fill="#000000" font-family="sans-serif" font-size="14" lengthAdjust="spacing" textLength="103" x="579.5" y="72.1074">:TaskRepository</text><rect fill="#E3E3E3" height="32.6211" rx="2.5" ry="2.5" style="stroke:#181818;stroke-width:0.5;" width="117" x="572.5" y="478.1133"/><text fill="#000000" font-family="sans-serif" font-size="14" lengthAdjust="spacing" textLength="103" x="579.5" y="500.2207">:TaskRepository</text><rect fill="#FFFFFF" height="376.4922" style="stroke:#181818;stroke-width:1.0;" width="10" x="42" y="93.6211"/><rect fill="#FFFFFF" height="31.291" style="stroke:#181818;stroke-width:1.0;" width="10" x="285" y="116.9121"/><rect fill="#FFFFFF" height="93.873" style="stroke:#181818;stroke-width:1.0;" width="10" x="285" y="179.4941"/><rect fill="#FFFFFF" height="31.291" style="stroke:#181818;stroke-width:1.0;" width="10" x="285" y="304.6582"/><rect fill="#FFFFFF" height="93.873" style="stroke:#181818;stroke-width:1.0;" width="10" x="285" y="367.2402"/><rect fill="#FFFFFF" height="31.291" style="stroke:#181818;stroke-width:1.0;" width="10" x="626" y="210.7852"/><rect fill="#FFFFFF" height="31.291" style="stroke:#181818;stroke-width:1.0;" width="10" x="626" y="398.5313"/><polygon fill="#181818" points="273,112.9121,283,116.9121,273,120.9121,277,116.9121" style="stroke:#181818;stroke-width:1.0;"/><line style="stroke:#181818;stroke-width:1.0;" x1="52" x2="279" y1="116.9121" y2="116.9121"/><text fill="#000000" font-family="sans-serif" font-size="13" font-weight="bold" lengthAdjust="spacing" textLength="7" x="59" y="111.6494">1</text><text fill="#000000" font-family="sans-serif" font-size="13" lengthAdjust="spacing" textLength="203" x="70" y="111.6494">requests to consult assigned tasks</text><polygon fill="#181818" points="63,144.2031,53,148.2031,63,152.2031,59,148.2031" style="stroke:#181818;stroke-width:1.0;"/><line style="stroke:#181818;stroke-width:1.0;stroke-dasharray:2.0,2.0;" x1="57" x2="289" y1="148.2031" y2="148.2031"/><text fill="#000000" font-family="sans-serif" font-size="13" font-weight="bold" lengthAdjust="spacing" textLength="7" x="69" y="142.9404">2</text><text fill="#000000" font-family="sans-serif" font-size="13" lengthAdjust="spacing" textLength="184" x="80" y="142.9404">asks for the start and end dates</text><polygon fill="#181818" points="273,175.4941,283,179.4941,273,183.4941,277,179.4941" style="stroke:#181818;stroke-width:1.0;"/><line style="stroke:#181818;stroke-width:1.0;" x1="52" x2="279" y1="179.4941" y2="179.4941"/><text fill="#000000" font-family="sans-serif" font-size="13" font-weight="bold" lengthAdjust="spacing" textLength="7" x="59" y="174.2314">3</text><text fill="#000000" font-family="sans-serif" font-size="13" lengthAdjust="spacing" textLength="105" x="70" y="174.2314">provides the dates</text><polygon fill="#181818" points="614,206.7852,624,210.7852,614,214.7852,618,210.7852" style="stroke:#181818;stroke-width:1.0;"/><line style="stroke:#181818;stroke-width:1.0;" x1="295" x2="620" y1="210.7852" y2="210.7852"/><text fill="#000000" font-family="sans-serif" font-size="13" font-weight="bold" lengthAdjust="spacing" textLength="7" x="302" y="205.5225">4</text><text fill="#000000" font-family="sans-serif" font-size="13" lengthAdjust="spacing" textLength="301" x="313" y="205.5225">retrieves tasks assigned between the provided dates</text><polygon fill="#181818" points="306,238.0762,296,242.0762,306,246.0762,302,242.0762" style="stroke:#181818;stroke-width:1.0;"/><line style="stroke:#181818;stroke-width:1.0;stroke-dasharray:2.0,2.0;" x1="300" x2="630" y1="242.0762" y2="242.0762"/><text fill="#000000" font-family="sans-serif" font-size="13" font-weight="bold" lengthAdjust="spacing" textLength="7" x="312" y="236.8135">5</text><text fill="#000000" font-family="sans-serif" font-size="13" lengthAdjust="spacing" textLength="76" x="323" y="236.8135">returns tasks</text><polygon fill="#181818" points="63,269.3672,53,273.3672,63,277.3672,59,273.3672" style="stroke:#181818;stroke-width:1.0;"/><line style="stroke:#181818;stroke-width:1.0;stroke-dasharray:2.0,2.0;" x1="57" x2="289" y1="273.3672" y2="273.3672"/><text fill="#000000" font-family="sans-serif" font-size="13" font-weight="bold" lengthAdjust="spacing" textLength="7" x="69" y="268.1045">6</text><text fill="#000000" font-family="sans-serif" font-size="13" lengthAdjust="spacing" textLength="171" x="80" y="268.1045">displays tasks sorted by date</text><polygon fill="#181818" points="273,300.6582,283,304.6582,273,308.6582,277,304.6582" style="stroke:#181818;stroke-width:1.0;"/><line style="stroke:#181818;stroke-width:1.0;" x1="52" x2="279" y1="304.6582" y2="304.6582"/><text fill="#000000" font-family="sans-serif" font-size="13" font-weight="bold" lengthAdjust="spacing" textLength="7" x="59" y="299.3955">7</text><text fill="#000000" font-family="sans-serif" font-size="13" lengthAdjust="spacing" textLength="187" x="70" y="299.3955">requests to filter tasks by status</text><polygon fill="#181818" points="63,331.9492,53,335.9492,63,339.9492,59,335.9492" style="stroke:#181818;stroke-width:1.0;"/><line style="stroke:#181818;stroke-width:1.0;stroke-dasharray:2.0,2.0;" x1="57" x2="289" y1="335.9492" y2="335.9492"/><text fill="#000000" font-family="sans-serif" font-size="13" font-weight="bold" lengthAdjust="spacing" textLength="7" x="69" y="330.6865">8</text><text fill="#000000" font-family="sans-serif" font-size="13" lengthAdjust="spacing" textLength="169" x="80" y="330.6865">asks for the status to filter by</text><polygon fill="#181818" points="273,363.2402,283,367.2402,273,371.2402,277,367.2402" style="stroke:#181818;stroke-width:1.0;"/><line style="stroke:#181818;stroke-width:1.0;" x1="52" x2="279" y1="367.2402" y2="367.2402"/><text fill="#000000" font-family="sans-serif" font-size="13" font-weight="bold" lengthAdjust="spacing" textLength="7" x="59" y="361.9775">9</text><text fill="#000000" font-family="sans-serif" font-size="13" lengthAdjust="spacing" textLength="109" x="70" y="361.9775">provides the status</text><polygon fill="#181818" points="614,394.5313,624,398.5313,614,402.5313,618,398.5313" style="stroke:#181818;stroke-width:1.0;"/><line style="stroke:#181818;stroke-width:1.0;" x1="295" x2="620" y1="398.5313" y2="398.5313"/><text fill="#000000" font-family="sans-serif" font-size="13" font-weight="bold" lengthAdjust="spacing" textLength="14" x="302" y="393.2686">10</text><text fill="#000000" font-family="sans-serif" font-size="13" lengthAdjust="spacing" textLength="224" x="320" y="393.2686">retrieves tasks with the provided status</text><polygon fill="#181818" points="306,425.8223,296,429.8223,306,433.8223,302,429.8223" style="stroke:#181818;stroke-width:1.0;"/><line style="stroke:#181818;stroke-width:1.0;stroke-dasharray:2.0,2.0;" x1="300" x2="630" y1="429.8223" y2="429.8223"/><text fill="#000000" font-family="sans-serif" font-size="13" font-weight="bold" lengthAdjust="spacing" textLength="14" x="312" y="424.5596">11</text><text fill="#000000" font-family="sans-serif" font-size="13" lengthAdjust="spacing" textLength="118" x="330" y="424.5596">returns filtered tasks</text><polygon fill="#181818" points="63,457.1133,53,461.1133,63,465.1133,59,461.1133" style="stroke:#181818;stroke-width:1.0;"/><line style="stroke:#181818;stroke-width:1.0;stroke-dasharray:2.0,2.0;" x1="57" x2="289" y1="461.1133" y2="461.1133"/><text fill="#000000" font-family="sans-serif" font-size="13" font-weight="bold" lengthAdjust="spacing" textLength="14" x="69" y="455.8506">12</text><text fill="#000000" font-family="sans-serif" font-size="13" lengthAdjust="spacing" textLength="126" x="87" y="455.8506">displays filtered tasks</text><!--SRC=[hPD1ae8m44NtEKKNUo_0mitSO9mBDAI5525XqXqjRcz0HH3BiKONL16Wt__zk-76k0u3jj1wvyiw-9P0GYJ5qviEomOhsabl2GALWgwoym-uHksFnbMmHyka54RnBhO5XNHVYW-GVNbhiV01qobJgKvCQJfq0bc-wrcelN_wWznyK-VPf98-6qdcW4BtCBKymsPxOqAU7Fz6Oc4G3wLt7Aq0CflAaGP98ZmZJrxK3R4PW4k978OwsAVEf2PWISu1dGPAbquaLfeUKfzQxO8_64qyGi-OFwnjrq6DBKimT1X0ey-ftOBaIEH6_aLChuLMoQyrDgkG9GPtqLls_e3sD5bjkBFONxsp3p8uxqUV_ufrlW5xOuN2XPsWQNGIFx812JCJAFhtD-0rRw-jmD58lHpxclx6tCzTJp_KPnRW6VIQn0a0]--></g></svg>