<?xml version="1.0" encoding="us-ascii" standalone="no"?><svg xmlns="http://www.w3.org/2000/svg" xmlns:xlink="http://www.w3.org/1999/xlink" contentStyleType="text/css" height="646px" preserveAspectRatio="none" style="width:351px;height:646px;background:#FFFFFF;" version="1.1" viewBox="0 0 351 646" width="351px" zoomAndPan="magnify"><defs/><g><!--class addEntryTodoListUI--><g id="elem_addEntryTodoListUI"><rect codeLine="11" fill="#F1F1F1" height="48" id="addEntryTodoListUI" rx="2.5" ry="2.5" style="stroke:#181818;stroke-width:0.5;" width="156" x="108.5" y="7"/><ellipse cx="123.5" cy="23" fill="#ADD1B2" rx="11" ry="11" style="stroke:#181818;stroke-width:1.0;"/><path d="M126.2656,18.875 Q126.4219,18.6563 126.6094,18.5469 Q126.7969,18.4375 127.0156,18.4375 Q127.3906,18.4375 127.625,18.7031 Q127.8594,18.9531 127.8594,19.5625 L127.8594,21.0156 Q127.8594,21.625 127.625,21.8906 Q127.3906,22.1563 127.0156,22.1563 Q126.6719,22.1563 126.4688,21.9531 Q126.2656,21.7656 126.1563,21.25 Q126.1094,20.8906 125.9219,20.7031 Q125.5938,20.3281 124.9844,20.1094 Q124.375,19.8906 123.75,19.8906 Q122.9844,19.8906 122.3438,20.2188 Q121.7188,20.5469 121.2188,21.2969 Q120.7344,22.0469 120.7344,23.0781 L120.7344,24.1719 Q120.7344,25.4063 121.625,26.2344 Q122.5156,27.0469 124.1094,27.0469 Q125.0469,27.0469 125.7031,26.7969 Q126.0938,26.6406 126.5156,26.2031 Q126.7813,25.9375 126.9219,25.8594 Q127.0781,25.7813 127.2813,25.7813 Q127.6094,25.7813 127.8594,26.0469 Q128.125,26.2969 128.125,26.6406 Q128.125,26.9844 127.7813,27.3906 Q127.2813,27.9688 126.4844,28.2969 Q125.4063,28.75 124.1094,28.75 Q122.5938,28.75 121.3906,28.125 Q120.4063,27.625 119.7188,26.5625 Q119.0313,25.4844 119.0313,24.2031 L119.0313,23.0469 Q119.0313,21.7188 119.6406,20.5781 Q120.2656,19.4219 121.3594,18.8125 Q122.4531,18.1875 123.6875,18.1875 Q124.4219,18.1875 125.0625,18.3594 Q125.7188,18.5156 126.2656,18.875 Z " fill="#000000"/><text fill="#000000" font-family="sans-serif" font-size="14" lengthAdjust="spacing" textLength="124" x="137.5" y="28.7969">addEntryTodoListUI</text><line style="stroke:#181818;stroke-width:0.5;" x1="109.5" x2="263.5" y1="39" y2="39"/><line style="stroke:#181818;stroke-width:0.5;" x1="109.5" x2="263.5" y1="47" y2="47"/></g><!--class Repositories--><g id="elem_Repositories"><rect codeLine="16" fill="#F1F1F1" height="103.8633" id="Repositories" rx="2.5" ry="2.5" style="stroke:#181818;stroke-width:0.5;" width="196" x="88.5" y="262"/><ellipse cx="142.75" cy="278" fill="#ADD1B2" rx="11" ry="11" style="stroke:#181818;stroke-width:1.0;"/><path d="M145.5156,273.875 Q145.6719,273.6563 145.8594,273.5469 Q146.0469,273.4375 146.2656,273.4375 Q146.6406,273.4375 146.875,273.7031 Q147.1094,273.9531 147.1094,274.5625 L147.1094,276.0156 Q147.1094,276.625 146.875,276.8906 Q146.6406,277.1563 146.2656,277.1563 Q145.9219,277.1563 145.7188,276.9531 Q145.5156,276.7656 145.4063,276.25 Q145.3594,275.8906 145.1719,275.7031 Q144.8438,275.3281 144.2344,275.1094 Q143.625,274.8906 143,274.8906 Q142.2344,274.8906 141.5938,275.2188 Q140.9688,275.5469 140.4688,276.2969 Q139.9844,277.0469 139.9844,278.0781 L139.9844,279.1719 Q139.9844,280.4063 140.875,281.2344 Q141.7656,282.0469 143.3594,282.0469 Q144.2969,282.0469 144.9531,281.7969 Q145.3438,281.6406 145.7656,281.2031 Q146.0313,280.9375 146.1719,280.8594 Q146.3281,280.7813 146.5313,280.7813 Q146.8594,280.7813 147.1094,281.0469 Q147.375,281.2969 147.375,281.6406 Q147.375,281.9844 147.0313,282.3906 Q146.5313,282.9688 145.7344,283.2969 Q144.6563,283.75 143.3594,283.75 Q141.8438,283.75 140.6406,283.125 Q139.6563,282.625 138.9688,281.5625 Q138.2813,280.4844 138.2813,279.2031 L138.2813,278.0469 Q138.2813,276.7188 138.8906,275.5781 Q139.5156,274.4219 140.6094,273.8125 Q141.7031,273.1875 142.9375,273.1875 Q143.6719,273.1875 144.3125,273.3594 Q144.9688,273.5156 145.5156,273.875 Z " fill="#000000"/><text fill="#000000" font-family="sans-serif" font-size="14" lengthAdjust="spacing" textLength="79" x="163.25" y="283.7969">Repositories</text><line style="stroke:#181818;stroke-width:0.5;" x1="89.5" x2="283.5" y1="294" y2="294"/><line style="stroke:#181818;stroke-width:0.5;" x1="89.5" x2="283.5" y1="302" y2="302"/><text fill="#000000" font-family="sans-serif" font-size="14" lengthAdjust="spacing" textLength="91" x="94.5" y="321.1074">+getInstance()</text><text fill="#000000" font-family="sans-serif" font-size="14" lengthAdjust="spacing" textLength="131" x="94.5" y="339.7285">+getSkillRepository()</text><text fill="#000000" font-family="sans-serif" font-size="14" lengthAdjust="spacing" textLength="184" x="94.5" y="358.3496">+getCollaboratorRepository()</text></g><!--class ToDoController--><g id="elem_ToDoController"><rect codeLine="22" fill="#F1F1F1" height="85.2422" id="ToDoController" rx="2.5" ry="2.5" style="stroke:#181818;stroke-width:0.5;" width="175" x="7" y="116"/><ellipse cx="42.7" cy="132" fill="#ADD1B2" rx="11" ry="11" style="stroke:#181818;stroke-width:1.0;"/><path d="M45.4656,127.875 Q45.6219,127.6563 45.8094,127.5469 Q45.9969,127.4375 46.2156,127.4375 Q46.5906,127.4375 46.825,127.7031 Q47.0594,127.9531 47.0594,128.5625 L47.0594,130.0156 Q47.0594,130.625 46.825,130.8906 Q46.5906,131.1563 46.2156,131.1563 Q45.8719,131.1563 45.6688,130.9531 Q45.4656,130.7656 45.3563,130.25 Q45.3094,129.8906 45.1219,129.7031 Q44.7938,129.3281 44.1844,129.1094 Q43.575,128.8906 42.95,128.8906 Q42.1844,128.8906 41.5438,129.2188 Q40.9188,129.5469 40.4188,130.2969 Q39.9344,131.0469 39.9344,132.0781 L39.9344,133.1719 Q39.9344,134.4063 40.825,135.2344 Q41.7156,136.0469 43.3094,136.0469 Q44.2469,136.0469 44.9031,135.7969 Q45.2938,135.6406 45.7156,135.2031 Q45.9813,134.9375 46.1219,134.8594 Q46.2781,134.7813 46.4813,134.7813 Q46.8094,134.7813 47.0594,135.0469 Q47.325,135.2969 47.325,135.6406 Q47.325,135.9844 46.9813,136.3906 Q46.4813,136.9688 45.6844,137.2969 Q44.6063,137.75 43.3094,137.75 Q41.7938,137.75 40.5906,137.125 Q39.6063,136.625 38.9188,135.5625 Q38.2313,134.4844 38.2313,133.2031 L38.2313,132.0469 Q38.2313,130.7188 38.8406,129.5781 Q39.4656,128.4219 40.5594,127.8125 Q41.6531,127.1875 42.8875,127.1875 Q43.6219,127.1875 44.2625,127.3594 Q44.9188,127.5156 45.4656,127.875 Z " fill="#000000"/><text fill="#000000" font-family="sans-serif" font-size="14" lengthAdjust="spacing" textLength="97" x="61.3" y="137.7969">ToDoController</text><line style="stroke:#181818;stroke-width:0.5;" x1="8" x2="181" y1="148" y2="148"/><line style="stroke:#181818;stroke-width:0.5;" x1="8" x2="181" y1="156" y2="156"/><text fill="#000000" font-family="sans-serif" font-size="14" lengthAdjust="spacing" textLength="163" x="13" y="175.1074">+getToDoListRepository()</text><text fill="#000000" font-family="sans-serif" font-size="14" lengthAdjust="spacing" textLength="108" x="13" y="193.7285">+AddEntry(entry)</text></g><!--class EntryController--><g id="elem_EntryController"><rect codeLine="27" fill="#F1F1F1" height="85.2422" id="EntryController" rx="2.5" ry="2.5" style="stroke:#181818;stroke-width:0.5;" width="127" x="217" y="116"/><ellipse cx="232" cy="132" fill="#ADD1B2" rx="11" ry="11" style="stroke:#181818;stroke-width:1.0;"/><path d="M234.7656,127.875 Q234.9219,127.6563 235.1094,127.5469 Q235.2969,127.4375 235.5156,127.4375 Q235.8906,127.4375 236.125,127.7031 Q236.3594,127.9531 236.3594,128.5625 L236.3594,130.0156 Q236.3594,130.625 236.125,130.8906 Q235.8906,131.1563 235.5156,131.1563 Q235.1719,131.1563 234.9688,130.9531 Q234.7656,130.7656 234.6563,130.25 Q234.6094,129.8906 234.4219,129.7031 Q234.0938,129.3281 233.4844,129.1094 Q232.875,128.8906 232.25,128.8906 Q231.4844,128.8906 230.8438,129.2188 Q230.2188,129.5469 229.7188,130.2969 Q229.2344,131.0469 229.2344,132.0781 L229.2344,133.1719 Q229.2344,134.4063 230.125,135.2344 Q231.0156,136.0469 232.6094,136.0469 Q233.5469,136.0469 234.2031,135.7969 Q234.5938,135.6406 235.0156,135.2031 Q235.2813,134.9375 235.4219,134.8594 Q235.5781,134.7813 235.7813,134.7813 Q236.1094,134.7813 236.3594,135.0469 Q236.625,135.2969 236.625,135.6406 Q236.625,135.9844 236.2813,136.3906 Q235.7813,136.9688 234.9844,137.2969 Q233.9063,137.75 232.6094,137.75 Q231.0938,137.75 229.8906,137.125 Q228.9063,136.625 228.2188,135.5625 Q227.5313,134.4844 227.5313,133.2031 L227.5313,132.0469 Q227.5313,130.7188 228.1406,129.5781 Q228.7656,128.4219 229.8594,127.8125 Q230.9531,127.1875 232.1875,127.1875 Q232.9219,127.1875 233.5625,127.3594 Q234.2188,127.5156 234.7656,127.875 Z " fill="#000000"/><text fill="#000000" font-family="sans-serif" font-size="14" lengthAdjust="spacing" textLength="95" x="246" y="137.7969">EntryController</text><line style="stroke:#181818;stroke-width:0.5;" x1="218" x2="343" y1="148" y2="148"/><line style="stroke:#181818;stroke-width:0.5;" x1="218" x2="343" y1="156" y2="156"/><text fill="#000000" font-family="sans-serif" font-size="14" lengthAdjust="spacing" textLength="87" x="223" y="175.1074">+getAgenda()</text><text fill="#000000" font-family="sans-serif" font-size="14" lengthAdjust="spacing" textLength="82" x="223" y="193.7285">+getEntries()</text></g><!--class Agenda--><g id="elem_Agenda"><rect codeLine="32" fill="#F1F1F1" height="66.6211" id="Agenda" rx="2.5" ry="2.5" style="stroke:#181818;stroke-width:0.5;" width="86" x="75.5" y="436"/><ellipse cx="92.75" cy="452" fill="#ADD1B2" rx="11" ry="11" style="stroke:#181818;stroke-width:1.0;"/><path d="M95.5156,447.875 Q95.6719,447.6563 95.8594,447.5469 Q96.0469,447.4375 96.2656,447.4375 Q96.6406,447.4375 96.875,447.7031 Q97.1094,447.9531 97.1094,448.5625 L97.1094,450.0156 Q97.1094,450.625 96.875,450.8906 Q96.6406,451.1563 96.2656,451.1563 Q95.9219,451.1563 95.7188,450.9531 Q95.5156,450.7656 95.4063,450.25 Q95.3594,449.8906 95.1719,449.7031 Q94.8438,449.3281 94.2344,449.1094 Q93.625,448.8906 93,448.8906 Q92.2344,448.8906 91.5938,449.2188 Q90.9688,449.5469 90.4688,450.2969 Q89.9844,451.0469 89.9844,452.0781 L89.9844,453.1719 Q89.9844,454.4063 90.875,455.2344 Q91.7656,456.0469 93.3594,456.0469 Q94.2969,456.0469 94.9531,455.7969 Q95.3438,455.6406 95.7656,455.2031 Q96.0313,454.9375 96.1719,454.8594 Q96.3281,454.7813 96.5313,454.7813 Q96.8594,454.7813 97.1094,455.0469 Q97.375,455.2969 97.375,455.6406 Q97.375,455.9844 97.0313,456.3906 Q96.5313,456.9688 95.7344,457.2969 Q94.6563,457.75 93.3594,457.75 Q91.8438,457.75 90.6406,457.125 Q89.6563,456.625 88.9688,455.5625 Q88.2813,454.4844 88.2813,453.2031 L88.2813,452.0469 Q88.2813,450.7188 88.8906,449.5781 Q89.5156,448.4219 90.6094,447.8125 Q91.7031,447.1875 92.9375,447.1875 Q93.6719,447.1875 94.3125,447.3594 Q94.9688,447.5156 95.5156,447.875 Z " fill="#000000"/><text fill="#000000" font-family="sans-serif" font-size="14" lengthAdjust="spacing" textLength="49" x="107.25" y="457.7969">Agenda</text><line style="stroke:#181818;stroke-width:0.5;" x1="76.5" x2="160.5" y1="468" y2="468"/><line style="stroke:#181818;stroke-width:0.5;" x1="76.5" x2="160.5" y1="476" y2="476"/><text fill="#000000" font-family="sans-serif" font-size="14" lengthAdjust="spacing" textLength="74" x="81.5" y="495.1074">getEntries()</text></g><!--class ToDoList--><g id="elem_ToDoList"><rect codeLine="36" fill="#F1F1F1" height="85.2422" id="ToDoList" rx="2.5" ry="2.5" style="stroke:#181818;stroke-width:0.5;" width="120" x="196.5" y="427"/><ellipse cx="225.45" cy="443" fill="#ADD1B2" rx="11" ry="11" style="stroke:#181818;stroke-width:1.0;"/><path d="M228.2156,438.875 Q228.3719,438.6563 228.5594,438.5469 Q228.7469,438.4375 228.9656,438.4375 Q229.3406,438.4375 229.575,438.7031 Q229.8094,438.9531 229.8094,439.5625 L229.8094,441.0156 Q229.8094,441.625 229.575,441.8906 Q229.3406,442.1563 228.9656,442.1563 Q228.6219,442.1563 228.4188,441.9531 Q228.2156,441.7656 228.1063,441.25 Q228.0594,440.8906 227.8719,440.7031 Q227.5438,440.3281 226.9344,440.1094 Q226.325,439.8906 225.7,439.8906 Q224.9344,439.8906 224.2938,440.2188 Q223.6688,440.5469 223.1688,441.2969 Q222.6844,442.0469 222.6844,443.0781 L222.6844,444.1719 Q222.6844,445.4063 223.575,446.2344 Q224.4656,447.0469 226.0594,447.0469 Q226.9969,447.0469 227.6531,446.7969 Q228.0438,446.6406 228.4656,446.2031 Q228.7313,445.9375 228.8719,445.8594 Q229.0281,445.7813 229.2313,445.7813 Q229.5594,445.7813 229.8094,446.0469 Q230.075,446.2969 230.075,446.6406 Q230.075,446.9844 229.7313,447.3906 Q229.2313,447.9688 228.4344,448.2969 Q227.3563,448.75 226.0594,448.75 Q224.5438,448.75 223.3406,448.125 Q222.3563,447.625 221.6688,446.5625 Q220.9813,445.4844 220.9813,444.2031 L220.9813,443.0469 Q220.9813,441.7188 221.5906,440.5781 Q222.2156,439.4219 223.3094,438.8125 Q224.4031,438.1875 225.6375,438.1875 Q226.3719,438.1875 227.0125,438.3594 Q227.6688,438.5156 228.2156,438.875 Z " fill="#000000"/><text fill="#000000" font-family="sans-serif" font-size="14" lengthAdjust="spacing" textLength="57" x="242.55" y="448.7969">ToDoList</text><line style="stroke:#181818;stroke-width:0.5;" x1="197.5" x2="315.5" y1="459" y2="459"/><line style="stroke:#181818;stroke-width:0.5;" x1="197.5" x2="315.5" y1="467" y2="467"/><text fill="#000000" font-family="sans-serif" font-size="14" lengthAdjust="spacing" textLength="95" x="202.5" y="486.1074">+getToDoList()</text><text fill="#000000" font-family="sans-serif" font-size="14" lengthAdjust="spacing" textLength="108" x="202.5" y="504.7285">+AddEntry(entry)</text></g><!--class Entry--><g id="elem_Entry"><rect codeLine="41" fill="#F1F1F1" height="48" id="Entry" rx="2.5" ry="2.5" style="stroke:#181818;stroke-width:0.5;" width="65" x="154" y="591"/><ellipse cx="169" cy="607" fill="#ADD1B2" rx="11" ry="11" style="stroke:#181818;stroke-width:1.0;"/><path d="M171.7656,602.875 Q171.9219,602.6563 172.1094,602.5469 Q172.2969,602.4375 172.5156,602.4375 Q172.8906,602.4375 173.125,602.7031 Q173.3594,602.9531 173.3594,603.5625 L173.3594,605.0156 Q173.3594,605.625 173.125,605.8906 Q172.8906,606.1563 172.5156,606.1563 Q172.1719,606.1563 171.9688,605.9531 Q171.7656,605.7656 171.6563,605.25 Q171.6094,604.8906 171.4219,604.7031 Q171.0938,604.3281 170.4844,604.1094 Q169.875,603.8906 169.25,603.8906 Q168.4844,603.8906 167.8438,604.2188 Q167.2188,604.5469 166.7188,605.2969 Q166.2344,606.0469 166.2344,607.0781 L166.2344,608.1719 Q166.2344,609.4063 167.125,610.2344 Q168.0156,611.0469 169.6094,611.0469 Q170.5469,611.0469 171.2031,610.7969 Q171.5938,610.6406 172.0156,610.2031 Q172.2813,609.9375 172.4219,609.8594 Q172.5781,609.7813 172.7813,609.7813 Q173.1094,609.7813 173.3594,610.0469 Q173.625,610.2969 173.625,610.6406 Q173.625,610.9844 173.2813,611.3906 Q172.7813,611.9688 171.9844,612.2969 Q170.9063,612.75 169.6094,612.75 Q168.0938,612.75 166.8906,612.125 Q165.9063,611.625 165.2188,610.5625 Q164.5313,609.4844 164.5313,608.2031 L164.5313,607.0469 Q164.5313,605.7188 165.1406,604.5781 Q165.7656,603.4219 166.8594,602.8125 Q167.9531,602.1875 169.1875,602.1875 Q169.9219,602.1875 170.5625,602.3594 Q171.2188,602.5156 171.7656,602.875 Z " fill="#000000"/><text fill="#000000" font-family="sans-serif" font-size="14" lengthAdjust="spacing" textLength="33" x="183" y="612.7969">Entry</text><line style="stroke:#181818;stroke-width:0.5;" x1="155" x2="218" y1="623" y2="623"/><line style="stroke:#181818;stroke-width:0.5;" x1="155" x2="218" y1="631" y2="631"/></g><!--link addEntryTodoListUI to ToDoController--><g id="link_addEntryTodoListUI_ToDoController"><path codeLine="46" d="M169.63,55.02 C157.18,72 143.437,90.7407 128.587,111.0007 " fill="none" id="addEntryTodoListUI-to-ToDoController" style="stroke:#181818;stroke-width:1.0;"/><polygon fill="#181818" points="125.04,115.84,133.5867,110.9458,127.9959,111.8073,127.1344,106.2164,125.04,115.84" style="stroke:#181818;stroke-width:1.0;"/></g><!--link ToDoController to Repositories--><g id="link_ToDoController_Repositories"><path codeLine="47" d="M119.4,201.04 C130.62,219.77 140.918,236.9321 152.748,256.6921 " fill="none" id="ToDoController-to-Repositories" style="stroke:#181818;stroke-width:1.0;"/><polygon fill="#181818" points="155.83,261.84,154.639,252.0634,153.2617,257.55,147.775,256.1727,155.83,261.84" style="stroke:#181818;stroke-width:1.0;"/></g><!--link Repositories to ToDoList--><g id="link_Repositories_ToDoList"><path codeLine="48" d="M209.81,366.11 C218.8,385.82 226.4621,402.6201 234.9921,421.3401 " fill="none" id="Repositories-to-ToDoList" style="stroke:#181818;stroke-width:1.0;"/><polygon fill="#181818" points="237.48,426.8,237.3881,416.9516,235.4068,422.2501,230.1083,420.2687,237.48,426.8" style="stroke:#181818;stroke-width:1.0;"/></g><!--link addEntryTodoListUI to EntryController--><g id="link_addEntryTodoListUI_EntryController"><path codeLine="49" d="M203.74,55.02 C216.46,72 230.5223,90.7783 245.7023,111.0383 " fill="none" id="addEntryTodoListUI-to-EntryController" style="stroke:#181818;stroke-width:1.0;"/><polygon fill="#181818" points="249.3,115.84,247.1046,106.239,246.3019,111.8386,240.7023,111.0359,249.3,115.84" style="stroke:#181818;stroke-width:1.0;"/></g><!--link EntryController to Repositories--><g id="link_EntryController_Repositories"><path codeLine="50" d="M255.06,201.04 C243.59,219.77 233.0633,236.9631 220.9633,256.7231 " fill="none" id="EntryController-to-Repositories" style="stroke:#181818;stroke-width:1.0;"/><polygon fill="#181818" points="217.83,261.84,225.9412,256.2536,220.4411,257.5759,219.1187,252.0758,217.83,261.84" style="stroke:#181818;stroke-width:1.0;"/></g><!--link Repositories to Agenda--><g id="link_Repositories_Agenda"><path codeLine="51" d="M163.86,366.11 C153.66,389.14 144.3503,410.1542 135.3703,430.4242 " fill="none" id="Repositories-to-Agenda" style="stroke:#181818;stroke-width:1.0;"/><polygon fill="#181818" points="132.94,435.91,140.2426,429.3015,134.9653,431.3385,132.9283,426.0611,132.94,435.91" style="stroke:#181818;stroke-width:1.0;"/></g><!--link Agenda to Entry--><g id="link_Agenda_Entry"><path codeLine="52" d="M130.05,503.17 C139.22,529.1 150.5,561 150.5,561 C150.5,561 157.7386,571.6668 167.4386,585.9468 " fill="none" id="Agenda-to-Entry" style="stroke:#181818;stroke-width:1.0;"/><polygon fill="#181818" points="170.81,590.91,169.0617,581.2175,168.0005,586.774,162.4441,585.7127,170.81,590.91" style="stroke:#181818;stroke-width:1.0;"/><text fill="#000000" font-family="sans-serif" font-size="13" lengthAdjust="spacing" textLength="49" x="151.5" y="557.0283">contains</text></g><!--link ToDoList to Entry--><g id="link_ToDoList_Entry"><path codeLine="53" d="M236.25,512.01 C223.74,537.67 210.7703,564.2473 200.4103,585.4873 " fill="none" id="ToDoList-to-Entry" style="stroke:#181818;stroke-width:1.0;"/><polygon fill="#181818" points="197.78,590.88,205.3207,584.5445,199.972,586.3861,198.1304,581.0374,197.78,590.88" style="stroke:#181818;stroke-width:1.0;"/><text fill="#000000" font-family="sans-serif" font-size="13" lengthAdjust="spacing" textLength="49" x="222.5" y="557.0283">contains</text></g><!--SRC=[ZLBDRi8m3BxxANo3QKBQUOT9YEs0jDDW3n1QKon2N2L6KuTuzoNjEWBA97f8vNm__k9a4lRiMkFD0G_YfDfvEH2gFn9SaDPKUzFGIZjBwAbIungR4yBErFB5hi6jiI57B3lIhYLinNQfW4a15Ay2cQgo9eIvgkVDKMbPYLlnD-4JmCJILb45FJSxnPfJ71O7q6lGrFMRKz-jfPPt3lgvn1ES0KRyWre9hEAPGaGmVe_Oa2vTYAUgQFfmsLljsTe_GPT32x7MRCIR25mnpcEZjRpAGcAKo2IVTKf0IbOmdl-6dr9QCxD-j-WsRyZL9e-MkF5mUPQ1DAZAZ35K8UUTwKxGZxam_zdivMOQS5tsZFnYuEgMHdso-y__Pa1mKz_HOPWH3B-BvpF6nwU6NO0nGmdy0G00]--></g></svg>