<?xml version="1.0" encoding="us-ascii" standalone="no"?><svg xmlns="http://www.w3.org/2000/svg" xmlns:xlink="http://www.w3.org/1999/xlink" contentStyleType="text/css" height="984px" preserveAspectRatio="none" style="width:1200px;height:984px;background:#FFFFFF;" version="1.1" viewBox="0 0 1200 984" width="1200px" zoomAndPan="magnify"><defs/><g><rect fill="#FFFFFF" height="789.8965" style="stroke:#181818;stroke-width:1.0;" width="10" x="76" y="93.6211"/><rect fill="#FFFFFF" height="325.2402" style="stroke:#181818;stroke-width:1.0;" width="10" x="327" y="116.9121"/><rect fill="#FFFFFF" height="48.582" style="stroke:#181818;stroke-width:1.0;" width="10" x="327" y="473.4434"/><rect fill="#FFFFFF" height="312.9102" style="stroke:#181818;stroke-width:1.0;" width="10" x="327" y="570.6074"/><rect fill="#FFFFFF" height="219.0371" style="stroke:#181818;stroke-width:1.0;" width="10" x="483.5" y="191.8242"/><rect fill="#FFFFFF" height="31.291" style="stroke:#181818;stroke-width:1.0;" width="10" x="629" y="348.2793"/><rect fill="#FFFFFF" height="219.0371" style="stroke:#181818;stroke-width:1.0;" width="10" x="770.5" y="633.1895"/><rect fill="#FFFFFF" height="31.291" style="stroke:#181818;stroke-width:1.0;" width="10" x="915.5" y="789.6445"/><rect fill="#FFFFFF" height="31.291" style="stroke:#181818;stroke-width:1.0;" width="10" x="1034" y="223.1152"/><rect fill="#FFFFFF" height="31.291" style="stroke:#181818;stroke-width:1.0;" width="10" x="1034" y="664.4805"/><rect fill="#FFFFFF" height="31.291" style="stroke:#181818;stroke-width:1.0;" width="10" x="1141" y="285.6973"/><rect fill="#FFFFFF" height="31.291" style="stroke:#181818;stroke-width:1.0;" width="10" x="1141" y="727.0625"/><line style="stroke:#181818;stroke-width:0.5;stroke-dasharray:5.0,5.0;" x1="81" x2="81" y1="83.6211" y2="901.5176"/><line style="stroke:#181818;stroke-width:0.5;stroke-dasharray:5.0,5.0;" x1="332" x2="332" y1="83.6211" y2="901.5176"/><line style="stroke:#181818;stroke-width:0.5;stroke-dasharray:5.0,5.0;" x1="488" x2="488" y1="156.7227" y2="901.5176"/><line style="stroke:#181818;stroke-width:0.5;stroke-dasharray:5.0,5.0;" x1="634" x2="634" y1="83.6211" y2="901.5176"/><line style="stroke:#181818;stroke-width:0.5;stroke-dasharray:5.0,5.0;" x1="775" x2="775" y1="83.6211" y2="901.5176"/><line style="stroke:#181818;stroke-width:0.5;stroke-dasharray:5.0,5.0;" x1="920.5" x2="920.5" y1="83.6211" y2="901.5176"/><line style="stroke:#181818;stroke-width:0.5;stroke-dasharray:5.0,5.0;" x1="1038.5" x2="1038.5" y1="83.6211" y2="901.5176"/><line style="stroke:#181818;stroke-width:0.5;stroke-dasharray:5.0,5.0;" x1="1145.5" x2="1145.5" y1="83.6211" y2="901.5176"/><text fill="#000000" font-family="sans-serif" font-size="14" lengthAdjust="spacing" textLength="146" x="5" y="80.1074">Organization Employee</text><ellipse cx="81" cy="13.5" fill="#E3E3E3" rx="8" ry="8" style="stroke:#181818;stroke-width:0.5;"/><path d="M81,21.5 L81,48.5 M68,29.5 L94,29.5 M81,48.5 L68,63.5 M81,48.5 L94,63.5 " fill="none" style="stroke:#181818;stroke-width:0.5;"/><text fill="#000000" font-family="sans-serif" font-size="14" lengthAdjust="spacing" textLength="146" x="5" y="915.625">Organization Employee</text><ellipse cx="81" cy="927.6387" fill="#E3E3E3" rx="8" ry="8" style="stroke:#181818;stroke-width:0.5;"/><path d="M81,935.6387 L81,962.6387 M68,943.6387 L94,943.6387 M81,962.6387 L68,977.6387 M81,962.6387 L94,977.6387 " fill="none" style="stroke:#181818;stroke-width:0.5;"/><rect fill="#E3E3E3" height="32.6211" rx="2.5" ry="2.5" style="stroke:#181818;stroke-width:0.5;" width="156" x="254" y="50"/><text fill="#000000" font-family="sans-serif" font-size="14" lengthAdjust="spacing" textLength="142" x="261" y="72.1074">:AddEntryToDoListGUI</text><rect fill="#E3E3E3" height="32.6211" rx="2.5" ry="2.5" style="stroke:#181818;stroke-width:0.5;" width="156" x="254" y="900.5176"/><text fill="#000000" font-family="sans-serif" font-size="14" lengthAdjust="spacing" textLength="142" x="261" y="922.625">:AddEntryToDoListGUI</text><rect fill="#E3E3E3" height="32.6211" rx="2.5" ry="2.5" style="stroke:#181818;stroke-width:0.5;" width="137" x="420" y="900.5176"/><text fill="#000000" font-family="sans-serif" font-size="14" lengthAdjust="spacing" textLength="123" x="427" y="922.625">:ToDoListController</text><rect fill="#E3E3E3" height="32.6211" rx="2.5" ry="2.5" style="stroke:#181818;stroke-width:0.5;" width="134" x="567" y="50"/><text fill="#000000" font-family="sans-serif" font-size="14" lengthAdjust="spacing" textLength="120" x="574" y="72.1074">ToDoList:\TodoList</text><rect fill="#E3E3E3" height="32.6211" rx="2.5" ry="2.5" style="stroke:#181818;stroke-width:0.5;" width="134" x="567" y="900.5176"/><text fill="#000000" font-family="sans-serif" font-size="14" lengthAdjust="spacing" textLength="120" x="574" y="922.625">ToDoList:\TodoList</text><rect fill="#E3E3E3" height="32.6211" rx="2.5" ry="2.5" style="stroke:#181818;stroke-width:0.5;" width="129" x="711" y="50"/><text fill="#000000" font-family="sans-serif" font-size="14" lengthAdjust="spacing" textLength="115" x="718" y="72.1074">:AgendaController</text><rect fill="#E3E3E3" height="32.6211" rx="2.5" ry="2.5" style="stroke:#181818;stroke-width:0.5;" width="129" x="711" y="900.5176"/><text fill="#000000" font-family="sans-serif" font-size="14" lengthAdjust="spacing" textLength="115" x="718" y="922.625">:AgendaController</text><rect fill="#E3E3E3" height="32.6211" rx="2.5" ry="2.5" style="stroke:#181818;stroke-width:0.5;" width="120" x="860.5" y="50"/><text fill="#000000" font-family="sans-serif" font-size="14" lengthAdjust="spacing" textLength="106" x="867.5" y="72.1074">Agenda:\Agenda</text><rect fill="#E3E3E3" height="32.6211" rx="2.5" ry="2.5" style="stroke:#181818;stroke-width:0.5;" width="120" x="860.5" y="900.5176"/><text fill="#000000" font-family="sans-serif" font-size="14" lengthAdjust="spacing" textLength="106" x="867.5" y="922.625">Agenda:\Agenda</text><rect fill="#E3E3E3" height="32.6211" rx="2.5" ry="2.5" style="stroke:#181818;stroke-width:0.5;" width="97" x="990.5" y="50"/><text fill="#000000" font-family="sans-serif" font-size="14" lengthAdjust="spacing" textLength="83" x="997.5" y="72.1074">:Repositories</text><rect fill="#E3E3E3" height="32.6211" rx="2.5" ry="2.5" style="stroke:#181818;stroke-width:0.5;" width="97" x="990.5" y="900.5176"/><text fill="#000000" font-family="sans-serif" font-size="14" lengthAdjust="spacing" textLength="83" x="997.5" y="922.625">:Repositories</text><rect fill="#E3E3E3" height="51.2422" rx="2.5" ry="2.5" style="stroke:#181818;stroke-width:0.5;" width="97" x="1097.5" y="31.3789"/><text fill="#000000" font-family="sans-serif" font-size="14" lengthAdjust="spacing" textLength="74" x="1109" y="53.4863">repositories</text><text fill="#000000" font-family="sans-serif" font-size="14" lengthAdjust="spacing" textLength="83" x="1104.5" y="72.1074">:Repositories</text><rect fill="#E3E3E3" height="51.2422" rx="2.5" ry="2.5" style="stroke:#181818;stroke-width:0.5;" width="97" x="1097.5" y="900.5176"/><text fill="#000000" font-family="sans-serif" font-size="14" lengthAdjust="spacing" textLength="74" x="1109" y="922.625">repositories</text><text fill="#000000" font-family="sans-serif" font-size="14" lengthAdjust="spacing" textLength="83" x="1104.5" y="941.2461">:Repositories</text><rect fill="#FFFFFF" height="789.8965" style="stroke:#181818;stroke-width:1.0;" width="10" x="76" y="93.6211"/><rect fill="#FFFFFF" height="325.2402" style="stroke:#181818;stroke-width:1.0;" width="10" x="327" y="116.9121"/><rect fill="#FFFFFF" height="48.582" style="stroke:#181818;stroke-width:1.0;" width="10" x="327" y="473.4434"/><rect fill="#FFFFFF" height="312.9102" style="stroke:#181818;stroke-width:1.0;" width="10" x="327" y="570.6074"/><rect fill="#FFFFFF" height="219.0371" style="stroke:#181818;stroke-width:1.0;" width="10" x="483.5" y="191.8242"/><rect fill="#FFFFFF" height="31.291" style="stroke:#181818;stroke-width:1.0;" width="10" x="629" y="348.2793"/><rect fill="#FFFFFF" height="219.0371" style="stroke:#181818;stroke-width:1.0;" width="10" x="770.5" y="633.1895"/><rect fill="#FFFFFF" height="31.291" style="stroke:#181818;stroke-width:1.0;" width="10" x="915.5" y="789.6445"/><rect fill="#FFFFFF" height="31.291" style="stroke:#181818;stroke-width:1.0;" width="10" x="1034" y="223.1152"/><rect fill="#FFFFFF" height="31.291" style="stroke:#181818;stroke-width:1.0;" width="10" x="1034" y="664.4805"/><rect fill="#FFFFFF" height="31.291" style="stroke:#181818;stroke-width:1.0;" width="10" x="1141" y="285.6973"/><rect fill="#FFFFFF" height="31.291" style="stroke:#181818;stroke-width:1.0;" width="10" x="1141" y="727.0625"/><polygon fill="#181818" points="315,112.9121,325,116.9121,315,120.9121,319,116.9121" style="stroke:#181818;stroke-width:1.0;"/><line style="stroke:#181818;stroke-width:1.0;" x1="86" x2="321" y1="116.9121" y2="116.9121"/><text fill="#000000" font-family="sans-serif" font-size="13" font-weight="bold" lengthAdjust="spacing" textLength="7" x="93" y="111.6494">1</text><text fill="#000000" font-family="sans-serif" font-size="13" lengthAdjust="spacing" textLength="211" x="104" y="111.6494">asks to add an entry to the ToDoList</text><polygon fill="#181818" points="408,144.2031,418,148.2031,408,152.2031,412,148.2031" style="stroke:#181818;stroke-width:1.0;"/><line style="stroke:#181818;stroke-width:1.0;" x1="337" x2="414" y1="148.2031" y2="148.2031"/><text fill="#000000" font-family="sans-serif" font-size="13" font-weight="bold" lengthAdjust="spacing" textLength="7" x="344" y="142.9404">2</text><text fill="#000000" font-family="sans-serif" font-size="13" lengthAdjust="spacing" textLength="36" x="355" y="142.9404">create</text><rect fill="#E3E3E3" height="32.6211" rx="2.5" ry="2.5" style="stroke:#181818;stroke-width:0.5;" width="137" x="420" y="124.9121"/><text fill="#000000" font-family="sans-serif" font-size="14" lengthAdjust="spacing" textLength="123" x="427" y="147.0195">:ToDoListController</text><polygon fill="#181818" points="471.5,187.8242,481.5,191.8242,471.5,195.8242,475.5,191.8242" style="stroke:#181818;stroke-width:1.0;"/><line style="stroke:#181818;stroke-width:1.0;" x1="337" x2="477.5" y1="191.8242" y2="191.8242"/><text fill="#000000" font-family="sans-serif" font-size="13" font-weight="bold" lengthAdjust="spacing" textLength="7" x="344" y="186.5615">3</text><text fill="#000000" font-family="sans-serif" font-size="13" lengthAdjust="spacing" textLength="60" x="355" y="186.5615">addEntry()</text><polygon fill="#181818" points="1022,219.1152,1032,223.1152,1022,227.1152,1026,223.1152" style="stroke:#181818;stroke-width:1.0;"/><line style="stroke:#181818;stroke-width:1.0;" x1="493.5" x2="1028" y1="223.1152" y2="223.1152"/><text fill="#000000" font-family="sans-serif" font-size="13" font-weight="bold" lengthAdjust="spacing" textLength="7" x="500.5" y="217.8525">4</text><text fill="#000000" font-family="sans-serif" font-size="13" lengthAdjust="spacing" textLength="75" x="511.5" y="217.8525">getInstance()</text><polygon fill="#181818" points="504.5,250.4063,494.5,254.4063,504.5,258.4063,500.5,254.4063" style="stroke:#181818;stroke-width:1.0;"/><line style="stroke:#181818;stroke-width:1.0;stroke-dasharray:2.0,2.0;" x1="498.5" x2="1038" y1="254.4063" y2="254.4063"/><text fill="#000000" font-family="sans-serif" font-size="13" font-weight="bold" lengthAdjust="spacing" textLength="7" x="510.5" y="249.1436">5</text><text fill="#000000" font-family="sans-serif" font-size="13" lengthAdjust="spacing" textLength="67" x="521.5" y="249.1436">repositories</text><polygon fill="#181818" points="1129,281.6973,1139,285.6973,1129,289.6973,1133,285.6973" style="stroke:#181818;stroke-width:1.0;"/><line style="stroke:#181818;stroke-width:1.0;" x1="493.5" x2="1135" y1="285.6973" y2="285.6973"/><text fill="#000000" font-family="sans-serif" font-size="13" font-weight="bold" lengthAdjust="spacing" textLength="7" x="500.5" y="280.4346">6</text><text fill="#000000" font-family="sans-serif" font-size="13" lengthAdjust="spacing" textLength="113" x="511.5" y="280.4346">getSkillRepository()</text><polygon fill="#181818" points="504.5,312.9883,494.5,316.9883,504.5,320.9883,500.5,316.9883" style="stroke:#181818;stroke-width:1.0;"/><line style="stroke:#181818;stroke-width:1.0;stroke-dasharray:2.0,2.0;" x1="498.5" x2="1145" y1="316.9883" y2="316.9883"/><text fill="#000000" font-family="sans-serif" font-size="13" font-weight="bold" lengthAdjust="spacing" textLength="7" x="510.5" y="311.7256">7</text><text fill="#000000" font-family="sans-serif" font-size="13" lengthAdjust="spacing" textLength="51" x="521.5" y="311.7256">ToDoList</text><polygon fill="#181818" points="617,344.2793,627,348.2793,617,352.2793,621,348.2793" style="stroke:#181818;stroke-width:1.0;"/><line style="stroke:#181818;stroke-width:1.0;" x1="493.5" x2="623" y1="348.2793" y2="348.2793"/><text fill="#000000" font-family="sans-serif" font-size="13" font-weight="bold" lengthAdjust="spacing" textLength="7" x="500.5" y="343.0166">8</text><text fill="#000000" font-family="sans-serif" font-size="13" lengthAdjust="spacing" textLength="67" x="511.5" y="343.0166">getEntries()</text><polygon fill="#181818" points="504.5,375.5703,494.5,379.5703,504.5,383.5703,500.5,379.5703" style="stroke:#181818;stroke-width:1.0;"/><line style="stroke:#181818;stroke-width:1.0;" x1="498.5" x2="633" y1="379.5703" y2="379.5703"/><text fill="#000000" font-family="sans-serif" font-size="13" font-weight="bold" lengthAdjust="spacing" textLength="7" x="510.5" y="374.3076">9</text><text fill="#000000" font-family="sans-serif" font-size="13" lengthAdjust="spacing" textLength="76" x="521.5" y="374.3076">return entries</text><polygon fill="#181818" points="348,406.8613,338,410.8613,348,414.8613,344,410.8613" style="stroke:#181818;stroke-width:1.0;"/><line style="stroke:#181818;stroke-width:1.0;" x1="342" x2="487.5" y1="410.8613" y2="410.8613"/><text fill="#000000" font-family="sans-serif" font-size="13" font-weight="bold" lengthAdjust="spacing" textLength="14" x="354" y="405.5986">10</text><text fill="#000000" font-family="sans-serif" font-size="13" lengthAdjust="spacing" textLength="76" x="372" y="405.5986">return entries</text><polygon fill="#181818" points="97,438.1523,87,442.1523,97,446.1523,93,442.1523" style="stroke:#181818;stroke-width:1.0;"/><line style="stroke:#181818;stroke-width:1.0;" x1="91" x2="331" y1="442.1523" y2="442.1523"/><text fill="#000000" font-family="sans-serif" font-size="13" font-weight="bold" lengthAdjust="spacing" textLength="14" x="103" y="436.8896">11</text><text fill="#000000" font-family="sans-serif" font-size="13" lengthAdjust="spacing" textLength="184" x="121" y="436.8896">asks to choose the entry to add</text><polygon fill="#181818" points="315,469.4434,325,473.4434,315,477.4434,319,473.4434" style="stroke:#181818;stroke-width:1.0;"/><line style="stroke:#181818;stroke-width:1.0;" x1="86" x2="321" y1="473.4434" y2="473.4434"/><text fill="#000000" font-family="sans-serif" font-size="13" font-weight="bold" lengthAdjust="spacing" textLength="14" x="93" y="468.1807">12</text><text fill="#000000" font-family="sans-serif" font-size="13" lengthAdjust="spacing" textLength="104" x="111" y="468.1807">chooses the entry</text><polygon fill="#181818" points="97,518.0254,87,522.0254,97,526.0254,93,522.0254" style="stroke:#181818;stroke-width:1.0;"/><line style="stroke:#181818;stroke-width:1.0;" x1="91" x2="331" y1="522.0254" y2="522.0254"/><text fill="#000000" font-family="sans-serif" font-size="13" font-weight="bold" lengthAdjust="spacing" textLength="14" x="103" y="508.1172">13</text><text fill="#000000" font-family="sans-serif" font-size="13" lengthAdjust="spacing" textLength="133" x="121" y="499.4717">Asks for the start date,</text><text fill="#000000" font-family="sans-serif" font-size="13" lengthAdjust="spacing" textLength="140" x="125" y="516.7627">and end date or duration</text><polygon fill="#181818" points="315,566.6074,325,570.6074,315,574.6074,319,570.6074" style="stroke:#181818;stroke-width:1.0;"/><line style="stroke:#181818;stroke-width:1.0;" x1="86" x2="321" y1="570.6074" y2="570.6074"/><text fill="#000000" font-family="sans-serif" font-size="13" font-weight="bold" lengthAdjust="spacing" textLength="14" x="93" y="556.6992">14</text><text fill="#000000" font-family="sans-serif" font-size="13" lengthAdjust="spacing" textLength="121" x="111" y="548.0537">enters the start date,</text><text fill="#000000" font-family="sans-serif" font-size="13" lengthAdjust="spacing" textLength="140" x="115" y="565.3447">and end date or duration</text><polygon fill="#181818" points="763.5,597.8984,773.5,601.8984,763.5,605.8984,767.5,601.8984" style="stroke:#181818;stroke-width:1.0;"/><line style="stroke:#181818;stroke-width:1.0;" x1="337" x2="769.5" y1="601.8984" y2="601.8984"/><text fill="#000000" font-family="sans-serif" font-size="13" font-weight="bold" lengthAdjust="spacing" textLength="14" x="344" y="596.6357">15</text><text fill="#000000" font-family="sans-serif" font-size="13" lengthAdjust="spacing" textLength="36" x="362" y="596.6357">create</text><polygon fill="#181818" points="758.5,629.1895,768.5,633.1895,758.5,637.1895,762.5,633.1895" style="stroke:#181818;stroke-width:1.0;"/><line style="stroke:#181818;stroke-width:1.0;" x1="337" x2="764.5" y1="633.1895" y2="633.1895"/><text fill="#000000" font-family="sans-serif" font-size="13" font-weight="bold" lengthAdjust="spacing" textLength="14" x="344" y="627.9268">16</text><text fill="#000000" font-family="sans-serif" font-size="13" lengthAdjust="spacing" textLength="60" x="362" y="627.9268">addEntry()</text><polygon fill="#181818" points="1022,660.4805,1032,664.4805,1022,668.4805,1026,664.4805" style="stroke:#181818;stroke-width:1.0;"/><line style="stroke:#181818;stroke-width:1.0;" x1="780.5" x2="1028" y1="664.4805" y2="664.4805"/><text fill="#000000" font-family="sans-serif" font-size="13" font-weight="bold" lengthAdjust="spacing" textLength="14" x="787.5" y="659.2178">17</text><text fill="#000000" font-family="sans-serif" font-size="13" lengthAdjust="spacing" textLength="75" x="805.5" y="659.2178">getInstance()</text><polygon fill="#181818" points="791.5,691.7715,781.5,695.7715,791.5,699.7715,787.5,695.7715" style="stroke:#181818;stroke-width:1.0;"/><line style="stroke:#181818;stroke-width:1.0;stroke-dasharray:2.0,2.0;" x1="785.5" x2="1038" y1="695.7715" y2="695.7715"/><text fill="#000000" font-family="sans-serif" font-size="13" font-weight="bold" lengthAdjust="spacing" textLength="14" x="797.5" y="690.5088">18</text><text fill="#000000" font-family="sans-serif" font-size="13" lengthAdjust="spacing" textLength="67" x="815.5" y="690.5088">repositories</text><polygon fill="#181818" points="1129,723.0625,1139,727.0625,1129,731.0625,1133,727.0625" style="stroke:#181818;stroke-width:1.0;"/><line style="stroke:#181818;stroke-width:1.0;" x1="780.5" x2="1135" y1="727.0625" y2="727.0625"/><text fill="#000000" font-family="sans-serif" font-size="13" font-weight="bold" lengthAdjust="spacing" textLength="14" x="787.5" y="721.7998">19</text><text fill="#000000" font-family="sans-serif" font-size="13" lengthAdjust="spacing" textLength="70" x="805.5" y="721.7998">getAgenda()</text><polygon fill="#181818" points="791.5,754.3535,781.5,758.3535,791.5,762.3535,787.5,758.3535" style="stroke:#181818;stroke-width:1.0;"/><line style="stroke:#181818;stroke-width:1.0;stroke-dasharray:2.0,2.0;" x1="785.5" x2="1145" y1="758.3535" y2="758.3535"/><text fill="#000000" font-family="sans-serif" font-size="13" font-weight="bold" lengthAdjust="spacing" textLength="14" x="797.5" y="753.0908">20</text><text fill="#000000" font-family="sans-serif" font-size="13" lengthAdjust="spacing" textLength="44" x="815.5" y="753.0908">Agenda</text><polygon fill="#181818" points="903.5,785.6445,913.5,789.6445,903.5,793.6445,907.5,789.6445" style="stroke:#181818;stroke-width:1.0;"/><line style="stroke:#181818;stroke-width:1.0;" x1="780.5" x2="909.5" y1="789.6445" y2="789.6445"/><text fill="#000000" font-family="sans-serif" font-size="13" font-weight="bold" lengthAdjust="spacing" textLength="14" x="787.5" y="784.3818">21</text><text fill="#000000" font-family="sans-serif" font-size="13" lengthAdjust="spacing" textLength="89" x="805.5" y="784.3818">addEntry(entry)</text><polygon fill="#181818" points="791.5,816.9355,781.5,820.9355,791.5,824.9355,787.5,820.9355" style="stroke:#181818;stroke-width:1.0;"/><line style="stroke:#181818;stroke-width:1.0;" x1="785.5" x2="919.5" y1="820.9355" y2="820.9355"/><text fill="#000000" font-family="sans-serif" font-size="13" font-weight="bold" lengthAdjust="spacing" textLength="14" x="797.5" y="815.6729">22</text><text fill="#000000" font-family="sans-serif" font-size="13" lengthAdjust="spacing" textLength="93" x="815.5" y="815.6729">returns success</text><polygon fill="#181818" points="348,848.2266,338,852.2266,348,856.2266,344,852.2266" style="stroke:#181818;stroke-width:1.0;"/><line style="stroke:#181818;stroke-width:1.0;" x1="342" x2="774.5" y1="852.2266" y2="852.2266"/><text fill="#000000" font-family="sans-serif" font-size="13" font-weight="bold" lengthAdjust="spacing" textLength="14" x="354" y="846.9639">23</text><text fill="#000000" font-family="sans-serif" font-size="13" lengthAdjust="spacing" textLength="93" x="372" y="846.9639">returns success</text><polygon fill="#181818" points="92,879.5176,82,883.5176,92,887.5176,88,883.5176" style="stroke:#181818;stroke-width:1.0;"/><line style="stroke:#181818;stroke-width:1.0;" x1="86" x2="331" y1="883.5176" y2="883.5176"/><text fill="#000000" font-family="sans-serif" font-size="13" font-weight="bold" lengthAdjust="spacing" textLength="14" x="98" y="878.2549">24</text><text fill="#000000" font-family="sans-serif" font-size="13" lengthAdjust="spacing" textLength="101" x="116" y="878.2549">displays success</text><!--SRC=[fLRBZjem5DtxAwvcqtRK-G4MbT3Cg4AYQZN0ZeqdlWIBO4UsqvP-VQ-TuZXE0eXc4nmVd_i-nXwaghdXHpXgfOkzqKS4PnfaDkxKl3Zm4bVkL24OB1nNPPK2x9uB_Kkg4dQyiiWORvnMpV4T3MCVzb8WxBHsx_etuuNJ1Xw-cv8h-OSxgHMy7kjAdn0VW5kOltnZnEfa8Mkk73pCvaAyAcTEQ_sYbzAwhvj5G6uM6V0CUDO4rrM59k3yv-VrsxAFFeDdsxKMuLS4-qNkGubAy8muU3LaRh6pRVlka6zOQoif_1FBsEEEH1lm7NGbVQufc_qZ9ZcnLKE27ylvclbaov_SOKWgq4DlUFf2cOCPeGuMd0Ok1705w5tqQxV7BWl-K6IXX8SFoKDCn7VEyECZyHO62NmPwCt_g-h7Jpaqsek5om2HXHX7CaNa9Rg5ijId1Gxv-qR6KZrw8ZnZvfwIm6QGLcQKH-15soCdqdXzOTi0LmTPLHt3U9pHL6Y84K3WwqVGA_wqyrECgRTnoBp3ljoKb2kENh9-flVxa6NTDQPjuecy9vv74zVStopkO0uTEy2r_K_prmrUiTVQOfYtE7mq5MoSUZXywJ2tNBOZOvC99g8BpiszSpkIQCz44sGS23hrUQj890HnYx06GeZ61FrcS9l7gR_a8nfxhv4n4sqCKP9p7SgsHmKeqdR2Fj647Sz_ID3zAZIjGqdyLuNekXRT57wdIEs5TqEqxUrq8RoeIaayBViDaRJijpcVNSnfMuGnkXxBu6gVj9cOoIlb9SQ2ROe2xR1OIMovjQcuEkKQqEPiQPydGY2ahIj-wX_FffibQ_yNuoy0]--></g></svg>