<?xml version="1.0" encoding="us-ascii" standalone="no"?><svg xmlns="http://www.w3.org/2000/svg" xmlns:xlink="http://www.w3.org/1999/xlink" contentStyleType="text/css" height="795px" preserveAspectRatio="none" style="width:455px;height:795px;background:#FFFFFF;" version="1.1" viewBox="0 0 455 795" width="455px" zoomAndPan="magnify"><defs/><g><!--class addEntryTodoListUI--><g id="elem_addEntryTodoListUI"><rect codeLine="11" fill="#F1F1F1" height="48" id="addEntryTodoListUI" rx="2.5" ry="2.5" style="stroke:#181818;stroke-width:0.5;" width="156" x="140" y="7"/><ellipse cx="155" cy="23" fill="#ADD1B2" rx="11" ry="11" style="stroke:#181818;stroke-width:1.0;"/><path d="M157.7656,18.875 Q157.9219,18.6563 158.1094,18.5469 Q158.2969,18.4375 158.5156,18.4375 Q158.8906,18.4375 159.125,18.7031 Q159.3594,18.9531 159.3594,19.5625 L159.3594,21.0156 Q159.3594,21.625 159.125,21.8906 Q158.8906,22.1563 158.5156,22.1563 Q158.1719,22.1563 157.9688,21.9531 Q157.7656,21.7656 157.6563,21.25 Q157.6094,20.8906 157.4219,20.7031 Q157.0938,20.3281 156.4844,20.1094 Q155.875,19.8906 155.25,19.8906 Q154.4844,19.8906 153.8438,20.2188 Q153.2188,20.5469 152.7188,21.2969 Q152.2344,22.0469 152.2344,23.0781 L152.2344,24.1719 Q152.2344,25.4063 153.125,26.2344 Q154.0156,27.0469 155.6094,27.0469 Q156.5469,27.0469 157.2031,26.7969 Q157.5938,26.6406 158.0156,26.2031 Q158.2813,25.9375 158.4219,25.8594 Q158.5781,25.7813 158.7813,25.7813 Q159.1094,25.7813 159.3594,26.0469 Q159.625,26.2969 159.625,26.6406 Q159.625,26.9844 159.2813,27.3906 Q158.7813,27.9688 157.9844,28.2969 Q156.9063,28.75 155.6094,28.75 Q154.0938,28.75 152.8906,28.125 Q151.9063,27.625 151.2188,26.5625 Q150.5313,25.4844 150.5313,24.2031 L150.5313,23.0469 Q150.5313,21.7188 151.1406,20.5781 Q151.7656,19.4219 152.8594,18.8125 Q153.9531,18.1875 155.1875,18.1875 Q155.9219,18.1875 156.5625,18.3594 Q157.2188,18.5156 157.7656,18.875 Z " fill="#000000"/><text fill="#000000" font-family="sans-serif" font-size="14" lengthAdjust="spacing" textLength="124" x="169" y="28.7969">addEntryTodoListUI</text><line style="stroke:#181818;stroke-width:0.5;" x1="141" x2="295" y1="39" y2="39"/><line style="stroke:#181818;stroke-width:0.5;" x1="141" x2="295" y1="47" y2="47"/></g><!--class Repositories--><g id="elem_Repositories"><rect codeLine="16" fill="#F1F1F1" height="103.8633" id="Repositories" rx="2.5" ry="2.5" style="stroke:#181818;stroke-width:0.5;" width="111" x="162.5" y="262"/><ellipse cx="177.5" cy="278" fill="#ADD1B2" rx="11" ry="11" style="stroke:#181818;stroke-width:1.0;"/><path d="M180.2656,273.875 Q180.4219,273.6563 180.6094,273.5469 Q180.7969,273.4375 181.0156,273.4375 Q181.3906,273.4375 181.625,273.7031 Q181.8594,273.9531 181.8594,274.5625 L181.8594,276.0156 Q181.8594,276.625 181.625,276.8906 Q181.3906,277.1563 181.0156,277.1563 Q180.6719,277.1563 180.4688,276.9531 Q180.2656,276.7656 180.1563,276.25 Q180.1094,275.8906 179.9219,275.7031 Q179.5938,275.3281 178.9844,275.1094 Q178.375,274.8906 177.75,274.8906 Q176.9844,274.8906 176.3438,275.2188 Q175.7188,275.5469 175.2188,276.2969 Q174.7344,277.0469 174.7344,278.0781 L174.7344,279.1719 Q174.7344,280.4063 175.625,281.2344 Q176.5156,282.0469 178.1094,282.0469 Q179.0469,282.0469 179.7031,281.7969 Q180.0938,281.6406 180.5156,281.2031 Q180.7813,280.9375 180.9219,280.8594 Q181.0781,280.7813 181.2813,280.7813 Q181.6094,280.7813 181.8594,281.0469 Q182.125,281.2969 182.125,281.6406 Q182.125,281.9844 181.7813,282.3906 Q181.2813,282.9688 180.4844,283.2969 Q179.4063,283.75 178.1094,283.75 Q176.5938,283.75 175.3906,283.125 Q174.4063,282.625 173.7188,281.5625 Q173.0313,280.4844 173.0313,279.2031 L173.0313,278.0469 Q173.0313,276.7188 173.6406,275.5781 Q174.2656,274.4219 175.3594,273.8125 Q176.4531,273.1875 177.6875,273.1875 Q178.4219,273.1875 179.0625,273.3594 Q179.7188,273.5156 180.2656,273.875 Z " fill="#000000"/><text fill="#000000" font-family="sans-serif" font-size="14" lengthAdjust="spacing" textLength="79" x="191.5" y="283.7969">Repositories</text><line style="stroke:#181818;stroke-width:0.5;" x1="163.5" x2="272.5" y1="294" y2="294"/><line style="stroke:#181818;stroke-width:0.5;" x1="163.5" x2="272.5" y1="302" y2="302"/><text fill="#000000" font-family="sans-serif" font-size="14" lengthAdjust="spacing" textLength="91" x="168.5" y="321.1074">+getInstance()</text><text fill="#000000" font-family="sans-serif" font-size="14" lengthAdjust="spacing" textLength="87" x="168.5" y="339.7285">+getAgenda()</text><text fill="#000000" font-family="sans-serif" font-size="14" lengthAdjust="spacing" textLength="95" x="168.5" y="358.3496">+getToDoList()</text></g><!--class ToDoController--><g id="elem_ToDoController"><rect codeLine="22" fill="#F1F1F1" height="85.2422" id="ToDoController" rx="2.5" ry="2.5" style="stroke:#181818;stroke-width:0.5;" width="175" x="34.5" y="116"/><ellipse cx="70.2" cy="132" fill="#ADD1B2" rx="11" ry="11" style="stroke:#181818;stroke-width:1.0;"/><path d="M72.9656,127.875 Q73.1219,127.6563 73.3094,127.5469 Q73.4969,127.4375 73.7156,127.4375 Q74.0906,127.4375 74.325,127.7031 Q74.5594,127.9531 74.5594,128.5625 L74.5594,130.0156 Q74.5594,130.625 74.325,130.8906 Q74.0906,131.1563 73.7156,131.1563 Q73.3719,131.1563 73.1688,130.9531 Q72.9656,130.7656 72.8563,130.25 Q72.8094,129.8906 72.6219,129.7031 Q72.2938,129.3281 71.6844,129.1094 Q71.075,128.8906 70.45,128.8906 Q69.6844,128.8906 69.0438,129.2188 Q68.4188,129.5469 67.9188,130.2969 Q67.4344,131.0469 67.4344,132.0781 L67.4344,133.1719 Q67.4344,134.4063 68.325,135.2344 Q69.2156,136.0469 70.8094,136.0469 Q71.7469,136.0469 72.4031,135.7969 Q72.7938,135.6406 73.2156,135.2031 Q73.4813,134.9375 73.6219,134.8594 Q73.7781,134.7813 73.9813,134.7813 Q74.3094,134.7813 74.5594,135.0469 Q74.825,135.2969 74.825,135.6406 Q74.825,135.9844 74.4813,136.3906 Q73.9813,136.9688 73.1844,137.2969 Q72.1063,137.75 70.8094,137.75 Q69.2938,137.75 68.0906,137.125 Q67.1063,136.625 66.4188,135.5625 Q65.7313,134.4844 65.7313,133.2031 L65.7313,132.0469 Q65.7313,130.7188 66.3406,129.5781 Q66.9656,128.4219 68.0594,127.8125 Q69.1531,127.1875 70.3875,127.1875 Q71.1219,127.1875 71.7625,127.3594 Q72.4188,127.5156 72.9656,127.875 Z " fill="#000000"/><text fill="#000000" font-family="sans-serif" font-size="14" lengthAdjust="spacing" textLength="97" x="88.8" y="137.7969">ToDoController</text><line style="stroke:#181818;stroke-width:0.5;" x1="35.5" x2="208.5" y1="148" y2="148"/><line style="stroke:#181818;stroke-width:0.5;" x1="35.5" x2="208.5" y1="156" y2="156"/><text fill="#000000" font-family="sans-serif" font-size="14" lengthAdjust="spacing" textLength="163" x="40.5" y="175.1074">+getToDoListRepository()</text><text fill="#000000" font-family="sans-serif" font-size="14" lengthAdjust="spacing" textLength="108" x="40.5" y="193.7285">+AddEntry(entry)</text></g><!--class AgendaController--><g id="elem_AgendaController"><rect codeLine="27" fill="#F1F1F1" height="85.2422" id="AgendaController" rx="2.5" ry="2.5" style="stroke:#181818;stroke-width:0.5;" width="143" x="244.5" y="116"/><ellipse cx="259.5" cy="132" fill="#ADD1B2" rx="11" ry="11" style="stroke:#181818;stroke-width:1.0;"/><path d="M262.2656,127.875 Q262.4219,127.6563 262.6094,127.5469 Q262.7969,127.4375 263.0156,127.4375 Q263.3906,127.4375 263.625,127.7031 Q263.8594,127.9531 263.8594,128.5625 L263.8594,130.0156 Q263.8594,130.625 263.625,130.8906 Q263.3906,131.1563 263.0156,131.1563 Q262.6719,131.1563 262.4688,130.9531 Q262.2656,130.7656 262.1563,130.25 Q262.1094,129.8906 261.9219,129.7031 Q261.5938,129.3281 260.9844,129.1094 Q260.375,128.8906 259.75,128.8906 Q258.9844,128.8906 258.3438,129.2188 Q257.7188,129.5469 257.2188,130.2969 Q256.7344,131.0469 256.7344,132.0781 L256.7344,133.1719 Q256.7344,134.4063 257.625,135.2344 Q258.5156,136.0469 260.1094,136.0469 Q261.0469,136.0469 261.7031,135.7969 Q262.0938,135.6406 262.5156,135.2031 Q262.7813,134.9375 262.9219,134.8594 Q263.0781,134.7813 263.2813,134.7813 Q263.6094,134.7813 263.8594,135.0469 Q264.125,135.2969 264.125,135.6406 Q264.125,135.9844 263.7813,136.3906 Q263.2813,136.9688 262.4844,137.2969 Q261.4063,137.75 260.1094,137.75 Q258.5938,137.75 257.3906,137.125 Q256.4063,136.625 255.7188,135.5625 Q255.0313,134.4844 255.0313,133.2031 L255.0313,132.0469 Q255.0313,130.7188 255.6406,129.5781 Q256.2656,128.4219 257.3594,127.8125 Q258.4531,127.1875 259.6875,127.1875 Q260.4219,127.1875 261.0625,127.3594 Q261.7188,127.5156 262.2656,127.875 Z " fill="#000000"/><text fill="#000000" font-family="sans-serif" font-size="14" lengthAdjust="spacing" textLength="111" x="273.5" y="137.7969">AgendaController</text><line style="stroke:#181818;stroke-width:0.5;" x1="245.5" x2="386.5" y1="148" y2="148"/><line style="stroke:#181818;stroke-width:0.5;" x1="245.5" x2="386.5" y1="156" y2="156"/><text fill="#000000" font-family="sans-serif" font-size="14" lengthAdjust="spacing" textLength="87" x="250.5" y="175.1074">+getAgenda()</text><text fill="#000000" font-family="sans-serif" font-size="14" lengthAdjust="spacing" textLength="82" x="250.5" y="193.7285">+getEntries()</text></g><!--class Agenda--><g id="elem_Agenda"><rect codeLine="32" fill="#F1F1F1" height="66.6211" id="Agenda" rx="2.5" ry="2.5" style="stroke:#181818;stroke-width:0.5;" width="86" x="7" y="473.5"/><ellipse cx="24.25" cy="489.5" fill="#ADD1B2" rx="11" ry="11" style="stroke:#181818;stroke-width:1.0;"/><path d="M27.0156,485.375 Q27.1719,485.1563 27.3594,485.0469 Q27.5469,484.9375 27.7656,484.9375 Q28.1406,484.9375 28.375,485.2031 Q28.6094,485.4531 28.6094,486.0625 L28.6094,487.5156 Q28.6094,488.125 28.375,488.3906 Q28.1406,488.6563 27.7656,488.6563 Q27.4219,488.6563 27.2188,488.4531 Q27.0156,488.2656 26.9063,487.75 Q26.8594,487.3906 26.6719,487.2031 Q26.3438,486.8281 25.7344,486.6094 Q25.125,486.3906 24.5,486.3906 Q23.7344,486.3906 23.0938,486.7188 Q22.4688,487.0469 21.9688,487.7969 Q21.4844,488.5469 21.4844,489.5781 L21.4844,490.6719 Q21.4844,491.9063 22.375,492.7344 Q23.2656,493.5469 24.8594,493.5469 Q25.7969,493.5469 26.4531,493.2969 Q26.8438,493.1406 27.2656,492.7031 Q27.5313,492.4375 27.6719,492.3594 Q27.8281,492.2813 28.0313,492.2813 Q28.3594,492.2813 28.6094,492.5469 Q28.875,492.7969 28.875,493.1406 Q28.875,493.4844 28.5313,493.8906 Q28.0313,494.4688 27.2344,494.7969 Q26.1563,495.25 24.8594,495.25 Q23.3438,495.25 22.1406,494.625 Q21.1563,494.125 20.4688,493.0625 Q19.7813,491.9844 19.7813,490.7031 L19.7813,489.5469 Q19.7813,488.2188 20.3906,487.0781 Q21.0156,485.9219 22.1094,485.3125 Q23.2031,484.6875 24.4375,484.6875 Q25.1719,484.6875 25.8125,484.8594 Q26.4688,485.0156 27.0156,485.375 Z " fill="#000000"/><text fill="#000000" font-family="sans-serif" font-size="14" lengthAdjust="spacing" textLength="49" x="38.75" y="495.2969">Agenda</text><line style="stroke:#181818;stroke-width:0.5;" x1="8" x2="92" y1="505.5" y2="505.5"/><line style="stroke:#181818;stroke-width:0.5;" x1="8" x2="92" y1="513.5" y2="513.5"/><text fill="#000000" font-family="sans-serif" font-size="14" lengthAdjust="spacing" textLength="74" x="13" y="532.6074">getEntries()</text></g><!--class ToDoList--><g id="elem_ToDoList"><rect codeLine="36" fill="#F1F1F1" height="85.2422" id="ToDoList" rx="2.5" ry="2.5" style="stroke:#181818;stroke-width:0.5;" width="120" x="328" y="464.5"/><ellipse cx="356.95" cy="480.5" fill="#ADD1B2" rx="11" ry="11" style="stroke:#181818;stroke-width:1.0;"/><path d="M359.7156,476.375 Q359.8719,476.1563 360.0594,476.0469 Q360.2469,475.9375 360.4656,475.9375 Q360.8406,475.9375 361.075,476.2031 Q361.3094,476.4531 361.3094,477.0625 L361.3094,478.5156 Q361.3094,479.125 361.075,479.3906 Q360.8406,479.6563 360.4656,479.6563 Q360.1219,479.6563 359.9188,479.4531 Q359.7156,479.2656 359.6063,478.75 Q359.5594,478.3906 359.3719,478.2031 Q359.0438,477.8281 358.4344,477.6094 Q357.825,477.3906 357.2,477.3906 Q356.4344,477.3906 355.7938,477.7188 Q355.1688,478.0469 354.6688,478.7969 Q354.1844,479.5469 354.1844,480.5781 L354.1844,481.6719 Q354.1844,482.9063 355.075,483.7344 Q355.9656,484.5469 357.5594,484.5469 Q358.4969,484.5469 359.1531,484.2969 Q359.5438,484.1406 359.9656,483.7031 Q360.2313,483.4375 360.3719,483.3594 Q360.5281,483.2813 360.7313,483.2813 Q361.0594,483.2813 361.3094,483.5469 Q361.575,483.7969 361.575,484.1406 Q361.575,484.4844 361.2313,484.8906 Q360.7313,485.4688 359.9344,485.7969 Q358.8563,486.25 357.5594,486.25 Q356.0438,486.25 354.8406,485.625 Q353.8563,485.125 353.1688,484.0625 Q352.4813,482.9844 352.4813,481.7031 L352.4813,480.5469 Q352.4813,479.2188 353.0906,478.0781 Q353.7156,476.9219 354.8094,476.3125 Q355.9031,475.6875 357.1375,475.6875 Q357.8719,475.6875 358.5125,475.8594 Q359.1688,476.0156 359.7156,476.375 Z " fill="#000000"/><text fill="#000000" font-family="sans-serif" font-size="14" lengthAdjust="spacing" textLength="57" x="374.05" y="486.2969">ToDoList</text><line style="stroke:#181818;stroke-width:0.5;" x1="329" x2="447" y1="496.5" y2="496.5"/><line style="stroke:#181818;stroke-width:0.5;" x1="329" x2="447" y1="504.5" y2="504.5"/><text fill="#000000" font-family="sans-serif" font-size="14" lengthAdjust="spacing" textLength="95" x="334" y="523.6074">+getToDoList()</text><text fill="#000000" font-family="sans-serif" font-size="14" lengthAdjust="spacing" textLength="108" x="334" y="542.2285">+AddEntry(entry)</text></g><!--class Entry--><g id="elem_Entry"><rect codeLine="41" fill="#F1F1F1" height="122.4844" id="Entry" rx="2.5" ry="2.5" style="stroke:#181818;stroke-width:0.5;" width="83" x="269.5" y="666"/><ellipse cx="292.6" cy="682" fill="#ADD1B2" rx="11" ry="11" style="stroke:#181818;stroke-width:1.0;"/><path d="M295.3656,677.875 Q295.5219,677.6563 295.7094,677.5469 Q295.8969,677.4375 296.1156,677.4375 Q296.4906,677.4375 296.725,677.7031 Q296.9594,677.9531 296.9594,678.5625 L296.9594,680.0156 Q296.9594,680.625 296.725,680.8906 Q296.4906,681.1563 296.1156,681.1563 Q295.7719,681.1563 295.5688,680.9531 Q295.3656,680.7656 295.2563,680.25 Q295.2094,679.8906 295.0219,679.7031 Q294.6938,679.3281 294.0844,679.1094 Q293.475,678.8906 292.85,678.8906 Q292.0844,678.8906 291.4438,679.2188 Q290.8188,679.5469 290.3188,680.2969 Q289.8344,681.0469 289.8344,682.0781 L289.8344,683.1719 Q289.8344,684.4063 290.725,685.2344 Q291.6156,686.0469 293.2094,686.0469 Q294.1469,686.0469 294.8031,685.7969 Q295.1938,685.6406 295.6156,685.2031 Q295.8813,684.9375 296.0219,684.8594 Q296.1781,684.7813 296.3813,684.7813 Q296.7094,684.7813 296.9594,685.0469 Q297.225,685.2969 297.225,685.6406 Q297.225,685.9844 296.8813,686.3906 Q296.3813,686.9688 295.5844,687.2969 Q294.5063,687.75 293.2094,687.75 Q291.6938,687.75 290.4906,687.125 Q289.5063,686.625 288.8188,685.5625 Q288.1313,684.4844 288.1313,683.2031 L288.1313,682.0469 Q288.1313,680.7188 288.7406,679.5781 Q289.3656,678.4219 290.4594,677.8125 Q291.5531,677.1875 292.7875,677.1875 Q293.5219,677.1875 294.1625,677.3594 Q294.8188,677.5156 295.3656,677.875 Z " fill="#000000"/><text fill="#000000" font-family="sans-serif" font-size="14" lengthAdjust="spacing" textLength="33" x="308.4" y="687.7969">Entry</text><line style="stroke:#181818;stroke-width:0.5;" x1="270.5" x2="351.5" y1="698" y2="698"/><text fill="#000000" font-family="sans-serif" font-size="14" lengthAdjust="spacing" textLength="27" x="275.5" y="717.1074">Title</text><text fill="#000000" font-family="sans-serif" font-size="14" lengthAdjust="spacing" textLength="71" x="275.5" y="735.7285">Description</text><text fill="#000000" font-family="sans-serif" font-size="14" lengthAdjust="spacing" textLength="52" x="275.5" y="754.3496">Urgency</text><text fill="#000000" font-family="sans-serif" font-size="14" lengthAdjust="spacing" textLength="40" x="275.5" y="772.9707">Status</text><line style="stroke:#181818;stroke-width:0.5;" x1="270.5" x2="351.5" y1="780.4844" y2="780.4844"/></g><!--class AgendaEntry--><g id="elem_AgendaEntry"><rect codeLine="48" fill="#F1F1F1" height="159.7266" id="AgendaEntry" rx="2.5" ry="2.5" style="stroke:#181818;stroke-width:0.5;" width="114" x="179" y="427"/><ellipse cx="194" cy="443" fill="#ADD1B2" rx="11" ry="11" style="stroke:#181818;stroke-width:1.0;"/><path d="M196.7656,438.875 Q196.9219,438.6563 197.1094,438.5469 Q197.2969,438.4375 197.5156,438.4375 Q197.8906,438.4375 198.125,438.7031 Q198.3594,438.9531 198.3594,439.5625 L198.3594,441.0156 Q198.3594,441.625 198.125,441.8906 Q197.8906,442.1563 197.5156,442.1563 Q197.1719,442.1563 196.9688,441.9531 Q196.7656,441.7656 196.6563,441.25 Q196.6094,440.8906 196.4219,440.7031 Q196.0938,440.3281 195.4844,440.1094 Q194.875,439.8906 194.25,439.8906 Q193.4844,439.8906 192.8438,440.2188 Q192.2188,440.5469 191.7188,441.2969 Q191.2344,442.0469 191.2344,443.0781 L191.2344,444.1719 Q191.2344,445.4063 192.125,446.2344 Q193.0156,447.0469 194.6094,447.0469 Q195.5469,447.0469 196.2031,446.7969 Q196.5938,446.6406 197.0156,446.2031 Q197.2813,445.9375 197.4219,445.8594 Q197.5781,445.7813 197.7813,445.7813 Q198.1094,445.7813 198.3594,446.0469 Q198.625,446.2969 198.625,446.6406 Q198.625,446.9844 198.2813,447.3906 Q197.7813,447.9688 196.9844,448.2969 Q195.9063,448.75 194.6094,448.75 Q193.0938,448.75 191.8906,448.125 Q190.9063,447.625 190.2188,446.5625 Q189.5313,445.4844 189.5313,444.2031 L189.5313,443.0469 Q189.5313,441.7188 190.1406,440.5781 Q190.7656,439.4219 191.8594,438.8125 Q192.9531,438.1875 194.1875,438.1875 Q194.9219,438.1875 195.5625,438.3594 Q196.2188,438.5156 196.7656,438.875 Z " fill="#000000"/><text fill="#000000" font-family="sans-serif" font-size="14" lengthAdjust="spacing" textLength="82" x="208" y="448.7969">AgendaEntry</text><line style="stroke:#181818;stroke-width:0.5;" x1="180" x2="292" y1="459" y2="459"/><text fill="#000000" font-family="sans-serif" font-size="14" lengthAdjust="spacing" textLength="33" x="185" y="478.1074">Entry</text><text fill="#000000" font-family="sans-serif" font-size="14" lengthAdjust="spacing" textLength="36" x="185" y="496.7285">Team</text><text fill="#000000" font-family="sans-serif" font-size="14" lengthAdjust="spacing" textLength="46" x="185" y="515.3496">Vehicle</text><text fill="#000000" font-family="sans-serif" font-size="14" lengthAdjust="spacing" textLength="58" x="185" y="533.9707">startDate</text><text fill="#000000" font-family="sans-serif" font-size="14" lengthAdjust="spacing" textLength="54" x="185" y="552.5918">endDate</text><text fill="#000000" font-family="sans-serif" font-size="14" lengthAdjust="spacing" textLength="52" x="185" y="571.2129">duration</text><line style="stroke:#181818;stroke-width:0.5;" x1="180" x2="292" y1="578.7266" y2="578.7266"/></g><!--link addEntryTodoListUI to ToDoController--><g id="link_addEntryTodoListUI_ToDoController"><path codeLine="57" d="M200.39,55.02 C187.4,72 173.0043,90.8135 157.5143,111.0735 " fill="none" id="addEntryTodoListUI-to-ToDoController" style="stroke:#181818;stroke-width:1.0;"/><polygon fill="#181818" points="153.87,115.84,162.514,111.1198,156.9069,111.8679,156.1587,106.2608,153.87,115.84" style="stroke:#181818;stroke-width:1.0;"/></g><!--link ToDoController to Repositories--><g id="link_ToDoController_Repositories"><path codeLine="58" d="M147.98,201.04 C159.7,219.77 170.47,236.992 182.82,256.752 " fill="none" id="ToDoController-to-Repositories" style="stroke:#181818;stroke-width:1.0;"/><polygon fill="#181818" points="186,261.84,184.622,252.088,183.35,257.6,177.838,256.328,186,261.84" style="stroke:#181818;stroke-width:1.0;"/></g><!--link addEntryTodoListUI to AgendaController--><g id="link_addEntryTodoListUI_AgendaController"><path codeLine="59" d="M235.97,55.02 C249.24,72 263.9573,90.8509 279.7773,111.1109 " fill="none" id="addEntryTodoListUI-to-AgendaController" style="stroke:#181818;stroke-width:1.0;"/><polygon fill="#181818" points="283.47,115.84,281.0837,106.2846,280.3928,111.8991,274.7783,111.2082,283.47,115.84" style="stroke:#181818;stroke-width:1.0;"/></g><!--link Repositories to ToDoList--><g id="link_Repositories_ToDoList"><path codeLine="60" d="M263.56,366.18 C290.9,396.9 321.2516,430.9975 346.9216,459.8475 " fill="none" id="Repositories-to-ToDoList" style="stroke:#181818;stroke-width:1.0;"/><polygon fill="#181818" points="350.91,464.33,347.9157,454.9473,347.5863,460.5946,341.9391,460.2652,350.91,464.33" style="stroke:#181818;stroke-width:1.0;"/></g><!--link AgendaController to Repositories--><g id="link_AgendaController_Repositories"><path codeLine="61" d="M289.48,201.04 C277.52,219.77 266.5077,237.0221 253.8977,256.7821 " fill="none" id="AgendaController-to-Repositories" style="stroke:#181818;stroke-width:1.0;"/><polygon fill="#181818" points="250.67,261.84,258.8835,256.405,253.3598,257.6251,252.1397,252.1014,250.67,261.84" style="stroke:#181818;stroke-width:1.0;"/></g><!--link Repositories to Agenda--><g id="link_Repositories_Agenda"><path codeLine="62" d="M172.98,366.18 C143.04,400.22 108.5828,439.3949 82.7128,468.8049 " fill="none" id="Repositories-to-Agenda" style="stroke:#181818;stroke-width:1.0;"/><polygon fill="#181818" points="78.75,473.31,87.6977,469.1942,82.0524,469.5557,81.6909,463.9105,78.75,473.31" style="stroke:#181818;stroke-width:1.0;"/></g><!--link AgendaEntry to Entry--><g id="link_AgendaEntry_Entry"><path codeLine="63" d="M262,587.24 C270.59,613.43 278,636 278,636 C278,636 280.8756,643.8263 286.9256,660.3363 " fill="none" id="AgendaEntry-to-Entry" style="stroke:#181818;stroke-width:1.0;"/><polygon fill="#181818" points="288.99,665.97,289.6491,656.1432,287.2696,661.2753,282.1376,658.8958,288.99,665.97" style="stroke:#181818;stroke-width:1.0;"/><text fill="#000000" font-family="sans-serif" font-size="13" lengthAdjust="spacing" textLength="49" x="279" y="632.0283">contains</text></g><!--link ToDoList to Entry--><g id="link_ToDoList_Entry"><path codeLine="64" d="M373.34,549.52 C361.73,582.38 347.3595,623.073 334.2995,660.023 " fill="none" id="ToDoList-to-Entry" style="stroke:#181818;stroke-width:1.0;"/><polygon fill="#181818" points="332.3,665.68,339.0706,658.5274,333.9662,660.9658,331.5279,655.8615,332.3,665.68" style="stroke:#181818;stroke-width:1.0;"/><text fill="#000000" font-family="sans-serif" font-size="13" lengthAdjust="spacing" textLength="49" x="350" y="632.0283">contains</text></g><!--link Agenda to AgendaEntry--><g id="link_Agenda_AgendaEntry"><path codeLine="65" d="M93.14,507 C118.68,507 145.35,507 172.99,507 " fill="none" id="Agenda-to-AgendaEntry" style="stroke:#181818;stroke-width:1.0;"/><polygon fill="#181818" points="178.99,507,169.99,503,173.99,507,169.99,511,178.99,507" style="stroke:#181818;stroke-width:1.0;"/><text fill="#000000" font-family="sans-serif" font-size="13" lengthAdjust="spacing" textLength="49" x="111.5" y="500.0283">contains</text></g><!--SRC=[XL8xRy8m4DxzAxn1LI5rxb09bGv8dGfqTvqZiN1yaNrHbIB-U_qWmIIfoX3TwtkOkuKxATC8AsfUeq5PMQo1ass1tJgDa2THmeuw3To2965AdG-uIXJuhKp9ZqAxlAEL0UeQu0tgBYHiCTD4IyWobDJ2kJMHLLyjmLQYsQaVu4-CBJGSYHDogygAUA627OM6iOZXeYZU3DbkZmM-AqU7BJ-p2sDz_mCQT8hGAd2-m_tlaPT0M-FygoGi7swrTGcc47bbZvl8wckNdZ7KNj5hejPWpzFXGR8RgDPNbqi8tumiISxIJTq42l-CvGIVKFCJlQlpxAl-iHUh2RbNv4yWH1jmqgecRY7a1-jDo2x6EnBKkh6_Z2Q6YH147ODFg9IySlkbMDe8Ifd73d7HMX4bFVVCqbUhbz5cs7qQ9_9h-8jbl19sTqAzJW2myUXKOu9D49RzBx4SesVk3v-4Cexr4hFD1EO3swZ_2m00]--></g></svg>