<?xml version="1.0" encoding="us-ascii" standalone="no"?><svg xmlns="http://www.w3.org/2000/svg" xmlns:xlink="http://www.w3.org/1999/xlink" contentStyleType="text/css" height="513px" preserveAspectRatio="none" style="width:470px;height:513px;background:#FFFFFF;" version="1.1" viewBox="0 0 470 513" width="470px" zoomAndPan="magnify"><defs/><g><text fill="#000000" font-family="sans-serif" font-size="14" font-weight="bold" lengthAdjust="spacing" textLength="242" x="113" y="30.1074">System Sequence Diagram - US026</text><rect fill="#FFFFFF" height="251.3281" style="stroke:#181818;stroke-width:1.0;" width="10" x="77" y="151.8633"/><rect fill="#FFFFFF" height="31.291" style="stroke:#181818;stroke-width:1.0;" width="10" x="427" y="175.1543"/><rect fill="#FFFFFF" height="31.291" style="stroke:#181818;stroke-width:1.0;" width="10" x="427" y="237.7363"/><rect fill="#FFFFFF" height="31.291" style="stroke:#181818;stroke-width:1.0;" width="10" x="427" y="300.3184"/><rect fill="#FFFFFF" height="31.291" style="stroke:#181818;stroke-width:1.0;" width="10" x="427" y="362.9004"/><line style="stroke:#181818;stroke-width:0.5;stroke-dasharray:5.0,5.0;" x1="82" x2="82" y1="141.8633" y2="412.1914"/><line style="stroke:#181818;stroke-width:0.5;stroke-dasharray:5.0,5.0;" x1="432" x2="432" y1="141.8633" y2="412.1914"/><text fill="#000000" font-family="sans-serif" font-size="14" lengthAdjust="spacing" textLength="144" x="5" y="119.7285">Green Space Manager</text><text fill="#000000" font-family="sans-serif" font-size="14" lengthAdjust="spacing" textLength="41" x="58.5" y="138.3496">(GSM)</text><ellipse cx="82" cy="53.1211" fill="#E3E3E3" rx="8" ry="8" style="stroke:#181818;stroke-width:0.5;"/><path d="M82,61.1211 L82,88.1211 M69,69.1211 L95,69.1211 M82,88.1211 L69,103.1211 M82,88.1211 L95,103.1211 " fill="none" style="stroke:#181818;stroke-width:0.5;"/><text fill="#000000" font-family="sans-serif" font-size="14" lengthAdjust="spacing" textLength="144" x="5" y="426.2988">Green Space Manager</text><text fill="#000000" font-family="sans-serif" font-size="14" lengthAdjust="spacing" textLength="41" x="58.5" y="444.9199">(GSM)</text><ellipse cx="82" cy="456.9336" fill="#E3E3E3" rx="8" ry="8" style="stroke:#181818;stroke-width:0.5;"/><path d="M82,464.9336 L82,491.9336 M69,472.9336 L95,472.9336 M82,491.9336 L69,506.9336 M82,491.9336 L95,506.9336 " fill="none" style="stroke:#181818;stroke-width:0.5;"/><rect fill="#E3E3E3" height="32.6211" rx="2.5" ry="2.5" style="stroke:#181818;stroke-width:0.5;" width="64" x="400" y="108.2422"/><text fill="#000000" font-family="sans-serif" font-size="14" lengthAdjust="spacing" textLength="50" x="407" y="130.3496">:System</text><rect fill="#E3E3E3" height="32.6211" rx="2.5" ry="2.5" style="stroke:#181818;stroke-width:0.5;" width="64" x="400" y="411.1914"/><text fill="#000000" font-family="sans-serif" font-size="14" lengthAdjust="spacing" textLength="50" x="407" y="433.2988">:System</text><rect fill="#FFFFFF" height="251.3281" style="stroke:#181818;stroke-width:1.0;" width="10" x="77" y="151.8633"/><rect fill="#FFFFFF" height="31.291" style="stroke:#181818;stroke-width:1.0;" width="10" x="427" y="175.1543"/><rect fill="#FFFFFF" height="31.291" style="stroke:#181818;stroke-width:1.0;" width="10" x="427" y="237.7363"/><rect fill="#FFFFFF" height="31.291" style="stroke:#181818;stroke-width:1.0;" width="10" x="427" y="300.3184"/><rect fill="#FFFFFF" height="31.291" style="stroke:#181818;stroke-width:1.0;" width="10" x="427" y="362.9004"/><polygon fill="#181818" points="415,171.1543,425,175.1543,415,179.1543,419,175.1543" style="stroke:#181818;stroke-width:1.0;"/><line style="stroke:#181818;stroke-width:1.0;" x1="87" x2="421" y1="175.1543" y2="175.1543"/><text fill="#000000" font-family="sans-serif" font-size="13" font-weight="bold" lengthAdjust="spacing" textLength="7" x="94" y="169.8916">1</text><text fill="#000000" font-family="sans-serif" font-size="13" lengthAdjust="spacing" textLength="296" x="105" y="169.8916">requests to assign one or more vehicles to an entry</text><polygon fill="#181818" points="98,202.4453,88,206.4453,98,210.4453,94,206.4453" style="stroke:#181818;stroke-width:1.0;"/><line style="stroke:#181818;stroke-width:1.0;stroke-dasharray:2.0,2.0;" x1="92" x2="431" y1="206.4453" y2="206.4453"/><text fill="#000000" font-family="sans-serif" font-size="13" font-weight="bold" lengthAdjust="spacing" textLength="7" x="104" y="201.1826">2</text><text fill="#000000" font-family="sans-serif" font-size="13" lengthAdjust="spacing" textLength="159" x="115" y="201.1826">requests to select the entry</text><polygon fill="#181818" points="415,233.7363,425,237.7363,415,241.7363,419,237.7363" style="stroke:#181818;stroke-width:1.0;"/><line style="stroke:#181818;stroke-width:1.0;" x1="87" x2="421" y1="237.7363" y2="237.7363"/><text fill="#000000" font-family="sans-serif" font-size="13" font-weight="bold" lengthAdjust="spacing" textLength="7" x="94" y="232.4736">3</text><text fill="#000000" font-family="sans-serif" font-size="13" lengthAdjust="spacing" textLength="97" x="105" y="232.4736">selects the entry</text><polygon fill="#181818" points="98,265.0273,88,269.0273,98,273.0273,94,269.0273" style="stroke:#181818;stroke-width:1.0;"/><line style="stroke:#181818;stroke-width:1.0;stroke-dasharray:2.0,2.0;" x1="92" x2="431" y1="269.0273" y2="269.0273"/><text fill="#000000" font-family="sans-serif" font-size="13" font-weight="bold" lengthAdjust="spacing" textLength="7" x="104" y="263.7646">4</text><text fill="#000000" font-family="sans-serif" font-size="13" lengthAdjust="spacing" textLength="305" x="115" y="263.7646">requests to select the vehicles the user wants to add</text><polygon fill="#181818" points="415,296.3184,425,300.3184,415,304.3184,419,300.3184" style="stroke:#181818;stroke-width:1.0;"/><line style="stroke:#181818;stroke-width:1.0;" x1="87" x2="421" y1="300.3184" y2="300.3184"/><text fill="#000000" font-family="sans-serif" font-size="13" font-weight="bold" lengthAdjust="spacing" textLength="7" x="94" y="295.0557">5</text><text fill="#000000" font-family="sans-serif" font-size="13" lengthAdjust="spacing" textLength="122" x="105" y="295.0557">selects the vehicle(s)</text><polygon fill="#181818" points="98,327.6094,88,331.6094,98,335.6094,94,331.6094" style="stroke:#181818;stroke-width:1.0;"/><line style="stroke:#181818;stroke-width:1.0;stroke-dasharray:2.0,2.0;" x1="92" x2="431" y1="331.6094" y2="331.6094"/><text fill="#000000" font-family="sans-serif" font-size="13" font-weight="bold" lengthAdjust="spacing" textLength="7" x="104" y="326.3467">6</text><text fill="#000000" font-family="sans-serif" font-size="13" lengthAdjust="spacing" textLength="236" x="115" y="326.3467">shows all data and requests confirmation</text><polygon fill="#181818" points="415,358.9004,425,362.9004,415,366.9004,419,362.9004" style="stroke:#181818;stroke-width:1.0;"/><line style="stroke:#181818;stroke-width:1.0;" x1="87" x2="421" y1="362.9004" y2="362.9004"/><text fill="#000000" font-family="sans-serif" font-size="13" font-weight="bold" lengthAdjust="spacing" textLength="7" x="94" y="357.6377">7</text><text fill="#000000" font-family="sans-serif" font-size="13" lengthAdjust="spacing" textLength="78" x="105" y="357.6377">confirms data</text><polygon fill="#181818" points="98,390.1914,88,394.1914,98,398.1914,94,394.1914" style="stroke:#181818;stroke-width:1.0;"/><line style="stroke:#181818;stroke-width:1.0;stroke-dasharray:2.0,2.0;" x1="92" x2="431" y1="394.1914" y2="394.1914"/><text fill="#000000" font-family="sans-serif" font-size="13" font-weight="bold" lengthAdjust="spacing" textLength="7" x="104" y="388.9287">8</text><text fill="#000000" font-family="sans-serif" font-size="13" lengthAdjust="spacing" textLength="218" x="115" y="388.9287">notifies successful vehicle registration</text><!--SRC=[ZLDBRzf04BxlhnXnWWCHE8I33r7R4A7IM8rYabvwsTY3MMMzw-xCWlZt7VC8ARAg-62jFTzhHZlqPboZWwwXziuNw-1h10uH5RrN6bsywGfptbc4W0LhLzcF05hhqc-Dgs2bBQ5IR5YW-OuOQyZnJqHN8CoChbhu49xpKJ9LIaVsBjQl6EHSi0_GcmT41xbO8cJQYMs0twu_pxD13pJ1_2bJOigcC8rs3BtquB8l7evxBRFHZ7kqaXSCRqzfKkb0yX0Ji1SIcSg1TmZYNlk0iC6rAImUoWxGSTYT5OyMHx6XwBRo_ueIMXaIy1gFx18l-PUP3XJwmBbaW3oVTJst81-HP8HRcTMXexBiYDEA_o_IKR1FWnRQnUvAHsk_9T3MGgbPop3BS-32kvK9jMRZtKcWCrTts8wyHqNQcvr0dugQWlDiLaO6Hh4ea6WLxQbdYLmPul2Uj3FG5tHbhArIZrOc_Pmz23sGC61ybOoIoTMadsk6hqs0qHJ6D-drTPgCuDTzleIsFb3zxFiIoCSW5xzi3SrhR2q7Qg4t6fwYOrDZ2ZyRT8lPZzCFk7SR4xohvTQenKjs1amdms-6PVk2H86NJCrmfQDbOHI-b6LDuQuP9pU9Uf1zZh9fAJIixdnixryAZyk_]--></g></svg>