<?xml version="1.0" encoding="us-ascii" standalone="no"?><svg xmlns="http://www.w3.org/2000/svg" xmlns:xlink="http://www.w3.org/1999/xlink" contentStyleType="text/css" height="518.7px" preserveAspectRatio="none" style="width:379px;height:518px;background:#FFFFFF;" version="1.1" viewBox="0 0 379 518" width="379.4px" zoomAndPan="magnify"><defs/><g><!--class AgendaController--><g id="elem_AgendaController"><rect codeLine="20" fill="#F1F1F1" height="85.7391" id="AgendaController" rx="1.75" ry="1.75" style="stroke:#181818;stroke-width:0.3499999999999999;" width="228.2" x="89.95" y="81.2"/><ellipse cx="162.225" cy="92.4" fill="#ADD1B2" rx="7.7" ry="7.7" style="stroke:#181818;stroke-width:0.6999999999999998;"/><path d="M164.1609,89.5125 Q164.2703,89.3594 164.4016,89.2828 Q164.5328,89.2062 164.6859,89.2062 Q164.9484,89.2062 165.1125,89.3922 Q165.2766,89.5672 165.2766,89.9937 L165.2766,91.0109 Q165.2766,91.4375 165.1125,91.6234 Q164.9484,91.8094 164.6859,91.8094 Q164.4453,91.8094 164.3031,91.6672 Q164.1609,91.5359 164.0844,91.175 Q164.0516,90.9234 163.9203,90.7922 Q163.6906,90.5297 163.2641,90.3766 Q162.8375,90.2234 162.4,90.2234 Q161.8641,90.2234 161.4156,90.4531 Q160.9781,90.6828 160.6281,91.2078 Q160.2891,91.7328 160.2891,92.4547 L160.2891,93.2203 Q160.2891,94.0844 160.9125,94.6641 Q161.5359,95.2328 162.6516,95.2328 Q163.3078,95.2328 163.7672,95.0578 Q164.0406,94.9484 164.3359,94.6422 Q164.5219,94.4562 164.6203,94.4016 Q164.7297,94.3469 164.8719,94.3469 Q165.1016,94.3469 165.2766,94.5328 Q165.4625,94.7078 165.4625,94.9484 Q165.4625,95.1891 165.2219,95.4734 Q164.8719,95.8781 164.3141,96.1078 Q163.5594,96.425 162.6516,96.425 Q161.5906,96.425 160.7484,95.9875 Q160.0594,95.6375 159.5781,94.8937 Q159.0969,94.1391 159.0969,93.2422 L159.0969,92.4328 Q159.0969,91.5031 159.5234,90.7047 Q159.9609,89.8953 160.7266,89.4687 Q161.4922,89.0312 162.3562,89.0312 Q162.8703,89.0312 163.3187,89.1516 Q163.7781,89.2609 164.1609,89.5125 Z " fill="#000000"/><text fill="#000000" font-family="sans-serif" font-size="9.8" lengthAdjust="spacing" textLength="77.7" x="176.575" y="96.4578">AgendaController</text><line style="stroke:#181818;stroke-width:0.3499999999999999;" x1="90.65" x2="317.45" y1="103.6" y2="103.6"/><text fill="#000000" font-family="sans-serif" font-size="9.8" lengthAdjust="spacing" textLength="74.2" x="94.15" y="116.9752">-Agenda agenda</text><line style="stroke:#181818;stroke-width:0.3499999999999999;" x1="90.65" x2="317.45" y1="122.2348" y2="122.2348"/><text fill="#000000" font-family="sans-serif" font-size="9.8" lengthAdjust="spacing" textLength="109.9" x="94.15" y="135.61">+CancelEntryController()</text><text fill="#000000" font-family="sans-serif" font-size="9.8" lengthAdjust="spacing" textLength="178.5" x="94.15" y="148.6447">+List&lt;AgendaEntry&gt; getAgendaEntries()</text><text fill="#000000" font-family="sans-serif" font-size="9.8" lengthAdjust="spacing" textLength="219.8" x="94.15" y="161.6795">+boolean cancelAgendaEntry(AgendaEntry entry)</text></g><!--class AgendaEntry--><g id="elem_AgendaEntry"><rect codeLine="27" fill="#F1F1F1" height="190.0172" id="AgendaEntry" rx="1.75" ry="1.75" style="stroke:#181818;stroke-width:0.3499999999999999;" width="119.7" x="4.9" y="221.9"/><ellipse cx="33.355" cy="233.1" fill="#ADD1B2" rx="7.7" ry="7.7" style="stroke:#181818;stroke-width:0.6999999999999998;"/><path d="M35.2909,230.2125 Q35.4003,230.0594 35.5316,229.9828 Q35.6628,229.9062 35.8159,229.9062 Q36.0784,229.9062 36.2425,230.0922 Q36.4066,230.2672 36.4066,230.6937 L36.4066,231.7109 Q36.4066,232.1375 36.2425,232.3234 Q36.0784,232.5094 35.8159,232.5094 Q35.5753,232.5094 35.4331,232.3672 Q35.2909,232.2359 35.2144,231.875 Q35.1816,231.6234 35.0503,231.4922 Q34.8206,231.2297 34.3941,231.0766 Q33.9675,230.9234 33.53,230.9234 Q32.9941,230.9234 32.5456,231.1531 Q32.1081,231.3828 31.7581,231.9078 Q31.4191,232.4328 31.4191,233.1547 L31.4191,233.9203 Q31.4191,234.7844 32.0425,235.3641 Q32.6659,235.9328 33.7816,235.9328 Q34.4378,235.9328 34.8972,235.7578 Q35.1706,235.6484 35.4659,235.3422 Q35.6519,235.1562 35.7503,235.1016 Q35.8597,235.0469 36.0019,235.0469 Q36.2316,235.0469 36.4066,235.2328 Q36.5925,235.4078 36.5925,235.6484 Q36.5925,235.8891 36.3519,236.1734 Q36.0019,236.5781 35.4441,236.8078 Q34.6894,237.125 33.7816,237.125 Q32.7206,237.125 31.8784,236.6875 Q31.1894,236.3375 30.7081,235.5937 Q30.2269,234.8391 30.2269,233.9422 L30.2269,233.1328 Q30.2269,232.2031 30.6534,231.4047 Q31.0909,230.5953 31.8566,230.1687 Q32.6222,229.7312 33.4862,229.7312 Q34.0003,229.7312 34.4487,229.8516 Q34.9081,229.9609 35.2909,230.2125 Z " fill="#000000"/><text fill="#000000" font-family="sans-serif" font-size="9.8" lengthAdjust="spacing" textLength="57.4" x="47.145" y="237.1578">AgendaEntry</text><line style="stroke:#181818;stroke-width:0.3499999999999999;" x1="5.6" x2="123.9" y1="244.3" y2="244.3"/><text fill="#000000" font-family="sans-serif" font-size="9.8" lengthAdjust="spacing" textLength="51.8" x="9.1" y="257.6752">-Entry entry</text><text fill="#000000" font-family="sans-serif" font-size="9.8" lengthAdjust="spacing" textLength="67.9" x="9.1" y="270.71">-Date startDate</text><text fill="#000000" font-family="sans-serif" font-size="9.8" lengthAdjust="spacing" textLength="65.1" x="9.1" y="283.7447">-Date endDate</text><text fill="#000000" font-family="sans-serif" font-size="9.8" lengthAdjust="spacing" textLength="68.6" x="9.1" y="296.7795">-String duration</text><text fill="#000000" font-family="sans-serif" font-size="9.8" lengthAdjust="spacing" textLength="60.9" x="9.1" y="309.8143">-Status status</text><text fill="#000000" font-family="sans-serif" font-size="9.8" lengthAdjust="spacing" textLength="53.2" x="9.1" y="322.849">-Team team</text><text fill="#000000" font-family="sans-serif" font-size="9.8" lengthAdjust="spacing" textLength="95.9" x="9.1" y="335.8838">-List&lt;Vehicle&gt; vehicle</text><line style="stroke:#181818;stroke-width:0.3499999999999999;" x1="5.6" x2="123.9" y1="341.1434" y2="341.1434"/><text fill="#000000" font-family="sans-serif" font-size="9.8" lengthAdjust="spacing" textLength="111.3" x="9.1" y="354.5186">+void setNewEntryState()</text><text fill="#000000" font-family="sans-serif" font-size="9.8" lengthAdjust="spacing" textLength="78.4" x="9.1" y="367.5533">+String getEntry()</text><text fill="#000000" font-family="sans-serif" font-size="9.8" lengthAdjust="spacing" textLength="92.4" x="9.1" y="380.5881">+Date getStartDate()</text><text fill="#000000" font-family="sans-serif" font-size="9.8" lengthAdjust="spacing" textLength="88.9" x="9.1" y="393.6229">+Date getEndDate()</text><text fill="#000000" font-family="sans-serif" font-size="9.8" lengthAdjust="spacing" textLength="93.1" x="9.1" y="406.6576">+String getDuration()</text></g><!--class Repositories--><g id="elem_Repositories"><rect codeLine="50" fill="#F1F1F1" height="59.6695" id="Repositories" rx="1.75" ry="1.75" style="stroke:#181818;stroke-width:0.3499999999999999;" width="109.2" x="149.45" y="287"/><ellipse cx="174.125" cy="298.2" fill="#ADD1B2" rx="7.7" ry="7.7" style="stroke:#181818;stroke-width:0.6999999999999998;"/><path d="M176.0609,295.3125 Q176.1703,295.1594 176.3016,295.0828 Q176.4328,295.0062 176.5859,295.0062 Q176.8484,295.0062 177.0125,295.1922 Q177.1766,295.3672 177.1766,295.7937 L177.1766,296.8109 Q177.1766,297.2375 177.0125,297.4234 Q176.8484,297.6094 176.5859,297.6094 Q176.3453,297.6094 176.2031,297.4672 Q176.0609,297.3359 175.9844,296.975 Q175.9516,296.7234 175.8203,296.5922 Q175.5906,296.3297 175.1641,296.1766 Q174.7375,296.0234 174.3,296.0234 Q173.7641,296.0234 173.3156,296.2531 Q172.8781,296.4828 172.5281,297.0078 Q172.1891,297.5328 172.1891,298.2547 L172.1891,299.0203 Q172.1891,299.8844 172.8125,300.4641 Q173.4359,301.0328 174.5516,301.0328 Q175.2078,301.0328 175.6672,300.8578 Q175.9406,300.7484 176.2359,300.4422 Q176.4219,300.2562 176.5203,300.2016 Q176.6297,300.1469 176.7719,300.1469 Q177.0016,300.1469 177.1766,300.3328 Q177.3625,300.5078 177.3625,300.7484 Q177.3625,300.9891 177.1219,301.2734 Q176.7719,301.6781 176.2141,301.9078 Q175.4594,302.225 174.5516,302.225 Q173.4906,302.225 172.6484,301.7875 Q171.9594,301.4375 171.4781,300.6937 Q170.9969,299.9391 170.9969,299.0422 L170.9969,298.2328 Q170.9969,297.3031 171.4234,296.5047 Q171.8609,295.6953 172.6266,295.2687 Q173.3922,294.8312 174.2562,294.8312 Q174.7703,294.8312 175.2187,294.9516 Q175.6781,295.0609 176.0609,295.3125 Z " fill="#000000"/><text fill="#000000" font-family="sans-serif" font-size="9.8" lengthAdjust="spacing" textLength="55.3" x="187.075" y="302.2578">Repositories</text><line style="stroke:#181818;stroke-width:0.3499999999999999;" x1="150.15" x2="257.95" y1="309.4" y2="309.4"/><line style="stroke:#181818;stroke-width:0.3499999999999999;" x1="150.15" x2="257.95" y1="315" y2="315"/><text fill="#000000" font-family="sans-serif" font-size="9.8" lengthAdjust="spacing" textLength="63.7" x="153.65" y="328.3752">+getInstance()</text><text fill="#000000" font-family="sans-serif" font-size="9.8" lengthAdjust="spacing" textLength="100.8" x="153.65" y="341.41">+getAgenda(): Agenda</text></g><!--class Agenda--><g id="elem_Agenda"><rect codeLine="42" fill="#F1F1F1" height="59.6695" id="Agenda" rx="1.75" ry="1.75" style="stroke:#181818;stroke-width:0.3499999999999999;" width="193.9" x="180.6" y="454.3"/><ellipse cx="257.425" cy="465.5" fill="#ADD1B2" rx="7.7" ry="7.7" style="stroke:#181818;stroke-width:0.6999999999999998;"/><path d="M259.3609,462.6125 Q259.4703,462.4594 259.6016,462.3828 Q259.7328,462.3062 259.8859,462.3062 Q260.1484,462.3062 260.3125,462.4922 Q260.4766,462.6672 260.4766,463.0937 L260.4766,464.1109 Q260.4766,464.5375 260.3125,464.7234 Q260.1484,464.9094 259.8859,464.9094 Q259.6453,464.9094 259.5031,464.7672 Q259.3609,464.6359 259.2844,464.275 Q259.2516,464.0234 259.1203,463.8922 Q258.8906,463.6297 258.4641,463.4766 Q258.0375,463.3234 257.6,463.3234 Q257.0641,463.3234 256.6156,463.5531 Q256.1781,463.7828 255.8281,464.3078 Q255.4891,464.8328 255.4891,465.5547 L255.4891,466.3203 Q255.4891,467.1844 256.1125,467.7641 Q256.7359,468.3328 257.8516,468.3328 Q258.5078,468.3328 258.9672,468.1578 Q259.2406,468.0484 259.5359,467.7422 Q259.7219,467.5562 259.8203,467.5016 Q259.9297,467.4469 260.0719,467.4469 Q260.3016,467.4469 260.4766,467.6328 Q260.6625,467.8078 260.6625,468.0484 Q260.6625,468.2891 260.4219,468.5734 Q260.0719,468.9781 259.5141,469.2078 Q258.7594,469.525 257.8516,469.525 Q256.7906,469.525 255.9484,469.0875 Q255.2594,468.7375 254.7781,467.9937 Q254.2969,467.2391 254.2969,466.3422 L254.2969,465.5328 Q254.2969,464.6031 254.7234,463.8047 Q255.1609,462.9953 255.9266,462.5687 Q256.6922,462.1312 257.5562,462.1312 Q258.0703,462.1312 258.5187,462.2516 Q258.9781,462.3609 259.3609,462.6125 Z " fill="#000000"/><text fill="#000000" font-family="sans-serif" font-size="9.8" lengthAdjust="spacing" textLength="34.3" x="271.775" y="469.5578">Agenda</text><line style="stroke:#181818;stroke-width:0.3499999999999999;" x1="181.3" x2="373.8" y1="476.7" y2="476.7"/><line style="stroke:#181818;stroke-width:0.3499999999999999;" x1="181.3" x2="373.8" y1="482.3" y2="482.3"/><text fill="#000000" font-family="sans-serif" font-size="9.8" lengthAdjust="spacing" textLength="151.9" x="184.8" y="495.6752">+List&lt;AgendaEntry&gt; getEntryList()</text><text fill="#000000" font-family="sans-serif" font-size="9.8" lengthAdjust="spacing" textLength="185.5" x="184.8" y="508.71">+boolean cancelEntry(AgendaEntry entry)</text></g><!--class CancelEntryGUI--><g id="elem_CancelEntryGUI"><rect codeLine="47" fill="#F1F1F1" height="33.6" id="CancelEntryGUI" rx="1.75" ry="1.75" style="stroke:#181818;stroke-width:0.3499999999999999;" width="92.4" x="157.85" y="4.9"/><ellipse cx="168.35" cy="16.1" fill="#ADD1B2" rx="7.7" ry="7.7" style="stroke:#181818;stroke-width:0.6999999999999998;"/><path d="M170.2859,13.2125 Q170.3953,13.0594 170.5266,12.9828 Q170.6578,12.9062 170.8109,12.9062 Q171.0734,12.9062 171.2375,13.0922 Q171.4016,13.2672 171.4016,13.6937 L171.4016,14.7109 Q171.4016,15.1375 171.2375,15.3234 Q171.0734,15.5094 170.8109,15.5094 Q170.5703,15.5094 170.4281,15.3672 Q170.2859,15.2359 170.2094,14.875 Q170.1766,14.6234 170.0453,14.4922 Q169.8156,14.2297 169.3891,14.0766 Q168.9625,13.9234 168.525,13.9234 Q167.9891,13.9234 167.5406,14.1531 Q167.1031,14.3828 166.7531,14.9078 Q166.4141,15.4328 166.4141,16.1547 L166.4141,16.9203 Q166.4141,17.7844 167.0375,18.3641 Q167.6609,18.9328 168.7766,18.9328 Q169.4328,18.9328 169.8922,18.7578 Q170.1656,18.6484 170.4609,18.3422 Q170.6469,18.1562 170.7453,18.1016 Q170.8547,18.0469 170.9969,18.0469 Q171.2266,18.0469 171.4016,18.2328 Q171.5875,18.4078 171.5875,18.6484 Q171.5875,18.8891 171.3469,19.1734 Q170.9969,19.5781 170.4391,19.8078 Q169.6844,20.125 168.7766,20.125 Q167.7156,20.125 166.8734,19.6875 Q166.1844,19.3375 165.7031,18.5937 Q165.2219,17.8391 165.2219,16.9422 L165.2219,16.1328 Q165.2219,15.2031 165.6484,14.4047 Q166.0859,13.5953 166.8516,13.1687 Q167.6172,12.7312 168.4812,12.7312 Q168.9953,12.7312 169.4437,12.8516 Q169.9031,12.9609 170.2859,13.2125 Z " fill="#000000"/><text fill="#000000" font-family="sans-serif" font-size="9.8" lengthAdjust="spacing" textLength="70" x="178.15" y="20.1578">CancelEntryGUI</text><line style="stroke:#181818;stroke-width:0.3499999999999999;" x1="158.55" x2="249.55" y1="27.3" y2="27.3"/><line style="stroke:#181818;stroke-width:0.3499999999999999;" x1="158.55" x2="249.55" y1="32.9" y2="32.9"/></g><!--link AgendaController to AgendaEntry--><g id="link_AgendaController_AgendaEntry"><path codeLine="13" d="M173.481,166.614 C159.145,186.319 144.0111,207.1148 127.1831,230.2428 " fill="none" id="AgendaController-to-AgendaEntry" style="stroke:#181818;stroke-width:0.6999999999999998;"/><polygon fill="#181818" points="124.712,233.639,130.6827,230.1921,126.7712,230.8089,126.1545,226.8974,124.712,233.639" style="stroke:#181818;stroke-width:0.6999999999999998;"/></g><!--link AgendaController to Repositories--><g id="link_AgendaController_Repositories"><path codeLine="14" d="M204.05,166.614 C204.05,203.049 204.05,250.628 204.05,282.688 " fill="none" id="AgendaController-to-Repositories" style="stroke:#181818;stroke-width:0.6999999999999998;stroke-dasharray:7.0,7.0;"/><polygon fill="#181818" points="204.05,286.888,206.85,280.588,204.05,283.388,201.25,280.588,204.05,286.888" style="stroke:#181818;stroke-width:0.6999999999999998;"/><text fill="#000000" font-family="sans-serif" font-size="9.1" lengthAdjust="spacing" textLength="46.9" x="204.75" y="198.1198">repositories</text></g><!--link AgendaController to Agenda--><g id="link_AgendaController_Agenda"><path codeLine="15" d="M257.068,166.712 C290.178,193.011 326.55,221.9 326.55,221.9 C326.55,221.9 326.55,411.6 326.55,411.6 C326.55,411.6 313.4135,430.8326 299.8475,450.6986 " fill="none" id="AgendaController-to-Agenda" style="stroke:#181818;stroke-width:0.6999999999999998;"/><polygon fill="#181818" points="297.479,454.167,303.3441,450.5433,299.4528,451.2766,298.7195,447.3853,297.479,454.167" style="stroke:#181818;stroke-width:0.6999999999999998;"/></g><!--link CancelEntryGUI to AgendaController--><g id="link_CancelEntryGUI_AgendaController"><path codeLine="16" d="M204.05,38.598 C204.05,50.113 204.05,61.95 204.05,76.965 " fill="none" id="CancelEntryGUI-to-AgendaController" style="stroke:#181818;stroke-width:0.6999999999999998;stroke-dasharray:7.0,7.0;"/><polygon fill="#181818" points="204.05,81.165,206.85,74.865,204.05,77.665,201.25,74.865,204.05,81.165" style="stroke:#181818;stroke-width:0.6999999999999998;"/></g><!--link Repositories to Agenda--><g id="link_Repositories_Agenda"><path codeLine="17" d="M216.937,346.535 C230.356,376.831 249.5642,420.1708 262.9762,450.4528 " fill="none" id="Repositories-to-Agenda" style="stroke:#181818;stroke-width:0.6999999999999998;"/><polygon fill="#181818" points="264.677,454.293,264.6859,447.3988,263.2596,451.0928,259.5656,449.6666,264.677,454.293" style="stroke:#181818;stroke-width:0.6999999999999998;"/><text fill="#000000" font-family="sans-serif" font-size="9.1" lengthAdjust="spacing" textLength="4.9" x="257.3349" y="446.5247">1</text></g><!--reverse link Repositories to Repositories--><g id="link_Repositories_Repositories"><path codeLine="18" d="M262.9405,295.6492 C276.8705,297.0632 283.15,303.814 283.15,316.75 C283.15,329.686 272.692,336.861 258.762,338.275 " fill="none" id="Repositories-backto-Repositories" style="stroke:#181818;stroke-width:0.6999999999999998;"/><polygon fill="#181818" points="258.762,295.225,264.747,298.6469,262.2441,295.5785,265.3126,293.0755,258.762,295.225" style="stroke:#181818;stroke-width:0.6999999999999998;"/><text fill="#000000" font-family="sans-serif" font-size="9.1" lengthAdjust="spacing" textLength="34.3" x="287.35" y="320.6198">instance</text></g><!--SRC=[XLB1Ri8m3BtdAomkWAQYxOeG4W8q8KqxZ6ttKBmI4P8gSK4CyUzBcdODBTfwI9FtxEVdn7sx5ohdXX_We9LETqOV4CWKo1ecv-cUPxYciqGmc19NcOm3x8vlzKce3Bwuj34ZXK8wvmYvbcT_OFqxf3Qqqr5MAhcrCo8ZDWNXAjLgBRuH7XcRPQYsVAuL6Iqb6aYIAGHmwR1pDs0qci8RvjeAqaQWXR5heJd-fSZcNAKeI-7dZrKfrGvdDze-j_VKg_Dlk4cIj8q8PScNOApik2CE5mRkIm8EFAXww26oriGFXe5y4POcqQrC8KDgpgvu7RdHMY9Na9PoKSeWsWFwTSYkjpu3LrcC0WEmu8JWsZFaTn7cKXjaxTouiTaMXfFGgWOv5TOdkr-0tj6D1Rab7Ci6Ft4dKebJE8PDwEYenHOiqYkUIazU3EjsgtBkDaAJ5LpwSk2wjjicbi5pLsPH6HzqRgUwcFjlKUuyS_yT_d-1rcHU6kPcn2eFhkAg6hMwuEz038RZUbolx0S0]--></g></svg>