<?xml version="1.0" encoding="us-ascii" standalone="no"?><svg xmlns="http://www.w3.org/2000/svg" xmlns:xlink="http://www.w3.org/1999/xlink" contentStyleType="text/css" height="594.3px" preserveAspectRatio="none" style="width:834px;height:594px;background:#FFFFFF;" version="1.1" viewBox="0 0 834 594" width="834.4px" zoomAndPan="magnify"><defs/><g><rect fill="#FFFFFF" height="438.7742" style="stroke:#181818;stroke-width:0.6999999999999998;" width="7" x="33.95" y="78.5695"/><rect fill="#FFFFFF" height="197.1334" style="stroke:#181818;stroke-width:0.6999999999999998;" width="7" x="288.75" y="94.8732"/><rect fill="#FFFFFF" height="21.9037" style="stroke:#181818;stroke-width:0.6999999999999998;" width="7" x="288.75" y="313.9104"/><rect fill="#FFFFFF" height="153.326" style="stroke:#181818;stroke-width:0.6999999999999998;" width="7" x="288.75" y="357.7178"/><rect fill="#FFFFFF" height="153.326" style="stroke:#181818;stroke-width:0.6999999999999998;" width="7" x="457.45" y="116.777"/><rect fill="#FFFFFF" height="109.5186" style="stroke:#181818;stroke-width:0.6999999999999998;" width="7" x="457.45" y="379.6215"/><rect fill="#FFFFFF" height="21.9037" style="stroke:#181818;stroke-width:0.6999999999999998;" width="7" x="542.15" y="138.6807"/><rect fill="#FFFFFF" height="21.9037" style="stroke:#181818;stroke-width:0.6999999999999998;" width="7" x="617.05" y="182.4881"/><rect fill="#FFFFFF" height="21.9037" style="stroke:#181818;stroke-width:0.6999999999999998;" width="7" x="681.45" y="226.2955"/><rect fill="#FFFFFF" height="65.7111" style="stroke:#181818;stroke-width:0.6999999999999998;" width="7" x="681.45" y="401.5252"/><rect fill="#FFFFFF" height="21.9037" style="stroke:#181818;stroke-width:0.6999999999999998;" width="7" x="793.45" y="423.4289"/><line style="stroke:#181818;stroke-width:0.3499999999999999;stroke-dasharray:5.0,5.0;" x1="37.1" x2="37.1" y1="71.5695" y2="523.6437"/><line style="stroke:#181818;stroke-width:0.3499999999999999;stroke-dasharray:5.0,5.0;" x1="291.9" x2="291.9" y1="71.5695" y2="523.6437"/><line style="stroke:#181818;stroke-width:0.3499999999999999;stroke-dasharray:5.0,5.0;" x1="460.6" x2="460.6" y1="71.5695" y2="523.6437"/><line style="stroke:#181818;stroke-width:0.3499999999999999;stroke-dasharray:5.0,5.0;" x1="545.3" x2="545.3" y1="71.5695" y2="523.6437"/><line style="stroke:#181818;stroke-width:0.3499999999999999;stroke-dasharray:5.0,5.0;" x1="620.2" x2="620.2" y1="71.5695" y2="523.6437"/><line style="stroke:#181818;stroke-width:0.3499999999999999;stroke-dasharray:5.0,5.0;" x1="684.6" x2="684.6" y1="71.5695" y2="523.6437"/><line style="stroke:#181818;stroke-width:0.3499999999999999;stroke-dasharray:5.0,5.0;" x1="796.95" x2="796.95" y1="71.5695" y2="523.6437"/><text fill="#000000" font-family="sans-serif" font-size="9.8" lengthAdjust="spacing" textLength="63.7" x="3.5" y="56.0752">Green Spaces</text><text fill="#000000" font-family="sans-serif" font-size="9.8" lengthAdjust="spacing" textLength="39.2" x="15.75" y="69.11">Manager</text><ellipse cx="37.45" cy="9.45" fill="#E3E3E3" rx="5.6" ry="5.6" style="stroke:#181818;stroke-width:0.3499999999999999;"/><path d="M37.45,15.05 L37.45,33.95 M28.35,20.65 L46.55,20.65 M37.45,33.95 L28.35,44.45 M37.45,33.95 L46.55,44.45 " fill="none" style="stroke:#181818;stroke-width:0.3499999999999999;"/><text fill="#000000" font-family="sans-serif" font-size="9.8" lengthAdjust="spacing" textLength="63.7" x="3.5" y="533.5189">Green Spaces</text><text fill="#000000" font-family="sans-serif" font-size="9.8" lengthAdjust="spacing" textLength="39.2" x="15.75" y="546.5537">Manager</text><ellipse cx="37.45" cy="554.9633" fill="#E3E3E3" rx="5.6" ry="5.6" style="stroke:#181818;stroke-width:0.3499999999999999;"/><path d="M37.45,560.5633 L37.45,579.4633 M28.35,566.1633 L46.55,566.1633 M37.45,579.4633 L28.35,589.9633 M37.45,579.4633 L46.55,589.9633 " fill="none" style="stroke:#181818;stroke-width:0.3499999999999999;"/><rect fill="#E3E3E3" height="22.8348" rx="1.75" ry="1.75" style="stroke:#181818;stroke-width:0.3499999999999999;" width="56.7" x="263.9" y="48.0348"/><text fill="#000000" font-family="sans-serif" font-size="9.8" lengthAdjust="spacing" textLength="46.9" x="268.8" y="63.51">CancelGUI</text><rect fill="#E3E3E3" height="22.8348" rx="1.75" ry="1.75" style="stroke:#181818;stroke-width:0.3499999999999999;" width="56.7" x="263.9" y="522.9437"/><text fill="#000000" font-family="sans-serif" font-size="9.8" lengthAdjust="spacing" textLength="46.9" x="268.8" y="538.4189">CancelGUI</text><rect fill="#E3E3E3" height="22.8348" rx="1.75" ry="1.75" style="stroke:#181818;stroke-width:0.3499999999999999;" width="87.5" x="417.2" y="48.0348"/><text fill="#000000" font-family="sans-serif" font-size="9.8" lengthAdjust="spacing" textLength="77.7" x="422.1" y="63.51">AgendaController</text><rect fill="#E3E3E3" height="22.8348" rx="1.75" ry="1.75" style="stroke:#181818;stroke-width:0.3499999999999999;" width="87.5" x="417.2" y="522.9437"/><text fill="#000000" font-family="sans-serif" font-size="9.8" lengthAdjust="spacing" textLength="77.7" x="422.1" y="538.4189">AgendaController</text><rect fill="#E3E3E3" height="22.8348" rx="1.75" ry="1.75" style="stroke:#181818;stroke-width:0.3499999999999999;" width="67.9" x="511.7" y="48.0348"/><text fill="#000000" font-family="sans-serif" font-size="9.8" lengthAdjust="spacing" textLength="58.1" x="516.6" y="63.51">:Repositories</text><rect fill="#E3E3E3" height="22.8348" rx="1.75" ry="1.75" style="stroke:#181818;stroke-width:0.3499999999999999;" width="67.9" x="511.7" y="522.9437"/><text fill="#000000" font-family="sans-serif" font-size="9.8" lengthAdjust="spacing" textLength="58.1" x="516.6" y="538.4189">:Repositories</text><rect fill="#E3E3E3" height="35.8695" rx="1.75" ry="1.75" style="stroke:#181818;stroke-width:0.3499999999999999;" width="67.9" x="586.6" y="35"/><text fill="#000000" font-family="sans-serif" font-size="9.8" lengthAdjust="spacing" textLength="51.8" x="594.65" y="50.4752">repositories</text><text fill="#000000" font-family="sans-serif" font-size="9.8" lengthAdjust="spacing" textLength="58.1" x="591.5" y="63.51">:Repositories</text><rect fill="#E3E3E3" height="35.8695" rx="1.75" ry="1.75" style="stroke:#181818;stroke-width:0.3499999999999999;" width="67.9" x="586.6" y="522.9437"/><text fill="#000000" font-family="sans-serif" font-size="9.8" lengthAdjust="spacing" textLength="51.8" x="594.65" y="538.4189">repositories</text><text fill="#000000" font-family="sans-serif" font-size="9.8" lengthAdjust="spacing" textLength="58.1" x="591.5" y="551.4537">:Repositories</text><rect fill="#E3E3E3" height="35.8695" rx="1.75" ry="1.75" style="stroke:#181818;stroke-width:0.3499999999999999;" width="46.9" x="661.5" y="35"/><text fill="#000000" font-family="sans-serif" font-size="9.8" lengthAdjust="spacing" textLength="33.6" x="668.15" y="50.4752">agenda</text><text fill="#000000" font-family="sans-serif" font-size="9.8" lengthAdjust="spacing" textLength="37.1" x="666.4" y="63.51">:Agenda</text><rect fill="#E3E3E3" height="35.8695" rx="1.75" ry="1.75" style="stroke:#181818;stroke-width:0.3499999999999999;" width="46.9" x="661.5" y="522.9437"/><text fill="#000000" font-family="sans-serif" font-size="9.8" lengthAdjust="spacing" textLength="33.6" x="668.15" y="538.4189">agenda</text><text fill="#000000" font-family="sans-serif" font-size="9.8" lengthAdjust="spacing" textLength="37.1" x="666.4" y="551.4537">:Agenda</text><rect fill="#E3E3E3" height="22.8348" rx="1.75" ry="1.75" style="stroke:#181818;stroke-width:0.3499999999999999;" width="67.2" x="763.35" y="48.0348"/><text fill="#000000" font-family="sans-serif" font-size="9.8" lengthAdjust="spacing" textLength="57.4" x="768.25" y="63.51">AgendaEntry</text><rect fill="#E3E3E3" height="22.8348" rx="1.75" ry="1.75" style="stroke:#181818;stroke-width:0.3499999999999999;" width="67.2" x="763.35" y="522.9437"/><text fill="#000000" font-family="sans-serif" font-size="9.8" lengthAdjust="spacing" textLength="57.4" x="768.25" y="538.4189">AgendaEntry</text><rect fill="#FFFFFF" height="438.7742" style="stroke:#181818;stroke-width:0.6999999999999998;" width="7" x="33.95" y="78.5695"/><rect fill="#FFFFFF" height="197.1334" style="stroke:#181818;stroke-width:0.6999999999999998;" width="7" x="288.75" y="94.8732"/><rect fill="#FFFFFF" height="21.9037" style="stroke:#181818;stroke-width:0.6999999999999998;" width="7" x="288.75" y="313.9104"/><rect fill="#FFFFFF" height="153.326" style="stroke:#181818;stroke-width:0.6999999999999998;" width="7" x="288.75" y="357.7178"/><rect fill="#FFFFFF" height="153.326" style="stroke:#181818;stroke-width:0.6999999999999998;" width="7" x="457.45" y="116.777"/><rect fill="#FFFFFF" height="109.5186" style="stroke:#181818;stroke-width:0.6999999999999998;" width="7" x="457.45" y="379.6215"/><rect fill="#FFFFFF" height="21.9037" style="stroke:#181818;stroke-width:0.6999999999999998;" width="7" x="542.15" y="138.6807"/><rect fill="#FFFFFF" height="21.9037" style="stroke:#181818;stroke-width:0.6999999999999998;" width="7" x="617.05" y="182.4881"/><rect fill="#FFFFFF" height="21.9037" style="stroke:#181818;stroke-width:0.6999999999999998;" width="7" x="681.45" y="226.2955"/><rect fill="#FFFFFF" height="65.7111" style="stroke:#181818;stroke-width:0.6999999999999998;" width="7" x="681.45" y="401.5252"/><rect fill="#FFFFFF" height="21.9037" style="stroke:#181818;stroke-width:0.6999999999999998;" width="7" x="793.45" y="423.4289"/><polygon fill="#181818" points="280.35,92.0732,287.35,94.8732,280.35,97.6732,283.15,94.8732" style="stroke:#181818;stroke-width:0.6999999999999998;"/><line style="stroke:#181818;stroke-width:0.6999999999999998;" x1="40.95" x2="284.55" y1="94.8732" y2="94.8732"/><text fill="#000000" font-family="sans-serif" font-size="9.1" font-weight="bold" lengthAdjust="spacing" textLength="4.9" x="45.85" y="91.1894">1</text><text fill="#000000" font-family="sans-serif" font-size="9.1" lengthAdjust="spacing" textLength="152.6" x="53.55" y="91.1894">asks to cancel an entry in the agenda</text><polygon fill="#181818" points="449.05,113.977,456.05,116.777,449.05,119.577,451.85,116.777" style="stroke:#181818;stroke-width:0.6999999999999998;"/><line style="stroke:#181818;stroke-width:0.6999999999999998;" x1="295.75" x2="453.25" y1="116.777" y2="116.777"/><text fill="#000000" font-family="sans-serif" font-size="9.1" font-weight="bold" lengthAdjust="spacing" textLength="4.9" x="300.65" y="113.0931">2</text><text fill="#000000" font-family="sans-serif" font-size="9.1" lengthAdjust="spacing" textLength="77.7" x="308.35" y="113.0931">getAgendaEntries()</text><polygon fill="#181818" points="533.75,135.8807,540.75,138.6807,533.75,141.4807,536.55,138.6807" style="stroke:#181818;stroke-width:0.6999999999999998;"/><line style="stroke:#181818;stroke-width:0.6999999999999998;" x1="464.45" x2="537.95" y1="138.6807" y2="138.6807"/><text fill="#000000" font-family="sans-serif" font-size="9.1" font-weight="bold" lengthAdjust="spacing" textLength="4.9" x="469.35" y="134.9968">3</text><text fill="#000000" font-family="sans-serif" font-size="9.1" lengthAdjust="spacing" textLength="52.5" x="477.05" y="134.9968">getInstance()</text><polygon fill="#181818" points="472.15,157.7844,465.15,160.5844,472.15,163.3844,469.35,160.5844" style="stroke:#181818;stroke-width:0.6999999999999998;"/><line style="stroke:#181818;stroke-width:0.6999999999999998;stroke-dasharray:2.0,2.0;" x1="467.95" x2="544.95" y1="160.5844" y2="160.5844"/><text fill="#000000" font-family="sans-serif" font-size="9.1" font-weight="bold" lengthAdjust="spacing" textLength="4.9" x="476.35" y="156.9005">4</text><text fill="#000000" font-family="sans-serif" font-size="9.1" lengthAdjust="spacing" textLength="46.9" x="484.05" y="156.9005">repositories</text><polygon fill="#181818" points="608.65,179.6881,615.65,182.4881,608.65,185.2881,611.45,182.4881" style="stroke:#181818;stroke-width:0.6999999999999998;"/><line style="stroke:#181818;stroke-width:0.6999999999999998;" x1="464.45" x2="612.85" y1="182.4881" y2="182.4881"/><text fill="#000000" font-family="sans-serif" font-size="9.1" font-weight="bold" lengthAdjust="spacing" textLength="4.9" x="469.35" y="178.8042">5</text><text fill="#000000" font-family="sans-serif" font-size="9.1" lengthAdjust="spacing" textLength="49" x="477.05" y="178.8042">getAgenda()</text><polygon fill="#181818" points="472.15,201.5918,465.15,204.3918,472.15,207.1918,469.35,204.3918" style="stroke:#181818;stroke-width:0.6999999999999998;"/><line style="stroke:#181818;stroke-width:0.6999999999999998;stroke-dasharray:2.0,2.0;" x1="467.95" x2="619.85" y1="204.3918" y2="204.3918"/><text fill="#000000" font-family="sans-serif" font-size="9.1" font-weight="bold" lengthAdjust="spacing" textLength="4.9" x="476.35" y="200.7079">6</text><text fill="#000000" font-family="sans-serif" font-size="9.1" lengthAdjust="spacing" textLength="29.4" x="484.05" y="200.7079">agenda</text><polygon fill="#181818" points="673.05,223.4955,680.05,226.2955,673.05,229.0955,675.85,226.2955" style="stroke:#181818;stroke-width:0.6999999999999998;"/><line style="stroke:#181818;stroke-width:0.6999999999999998;" x1="464.45" x2="677.25" y1="226.2955" y2="226.2955"/><text fill="#000000" font-family="sans-serif" font-size="9.1" font-weight="bold" lengthAdjust="spacing" textLength="4.9" x="469.35" y="222.6116">7</text><text fill="#000000" font-family="sans-serif" font-size="9.1" lengthAdjust="spacing" textLength="46.9" x="477.05" y="222.6116">getEntries()</text><polygon fill="#181818" points="472.15,245.3992,465.15,248.1992,472.15,250.9992,469.35,248.1992" style="stroke:#181818;stroke-width:0.6999999999999998;"/><line style="stroke:#181818;stroke-width:0.6999999999999998;stroke-dasharray:2.0,2.0;" x1="467.95" x2="684.25" y1="248.1992" y2="248.1992"/><text fill="#000000" font-family="sans-serif" font-size="9.1" font-weight="bold" lengthAdjust="spacing" textLength="4.9" x="476.35" y="244.5153">8</text><text fill="#000000" font-family="sans-serif" font-size="9.1" lengthAdjust="spacing" textLength="27.3" x="484.05" y="244.5153">entries</text><polygon fill="#181818" points="303.45,267.3029,296.45,270.1029,303.45,272.9029,300.65,270.1029" style="stroke:#181818;stroke-width:0.6999999999999998;"/><line style="stroke:#181818;stroke-width:0.6999999999999998;stroke-dasharray:2.0,2.0;" x1="299.25" x2="460.25" y1="270.1029" y2="270.1029"/><text fill="#000000" font-family="sans-serif" font-size="9.1" font-weight="bold" lengthAdjust="spacing" textLength="4.9" x="307.65" y="266.419">9</text><text fill="#000000" font-family="sans-serif" font-size="9.1" lengthAdjust="spacing" textLength="32.2" x="315.35" y="266.419">entrylist</text><polygon fill="#181818" points="48.65,289.2066,41.65,292.0066,48.65,294.8066,45.85,292.0066" style="stroke:#181818;stroke-width:0.6999999999999998;"/><line style="stroke:#181818;stroke-width:0.6999999999999998;stroke-dasharray:2.0,2.0;" x1="44.45" x2="291.55" y1="292.0066" y2="292.0066"/><text fill="#000000" font-family="sans-serif" font-size="9.1" font-weight="bold" lengthAdjust="spacing" textLength="9.8" x="52.85" y="288.3228">10</text><text fill="#000000" font-family="sans-serif" font-size="9.1" lengthAdjust="spacing" textLength="218.4" x="65.45" y="288.3228">shows data and requests selected data (agendaEntry)</text><polygon fill="#181818" points="280.35,311.1104,287.35,313.9104,280.35,316.7104,283.15,313.9104" style="stroke:#181818;stroke-width:0.6999999999999998;"/><line style="stroke:#181818;stroke-width:0.6999999999999998;" x1="40.95" x2="284.55" y1="313.9104" y2="313.9104"/><text fill="#000000" font-family="sans-serif" font-size="9.1" font-weight="bold" lengthAdjust="spacing" textLength="9.8" x="45.85" y="310.2265">11</text><text fill="#000000" font-family="sans-serif" font-size="9.1" lengthAdjust="spacing" textLength="151.9" x="58.45" y="310.2265">selects requested data (agendaEntry)</text><polygon fill="#181818" points="48.65,333.0141,41.65,335.8141,48.65,338.6141,45.85,335.8141" style="stroke:#181818;stroke-width:0.6999999999999998;"/><line style="stroke:#181818;stroke-width:0.6999999999999998;stroke-dasharray:2.0,2.0;" x1="44.45" x2="291.55" y1="335.8141" y2="335.8141"/><text fill="#000000" font-family="sans-serif" font-size="9.1" font-weight="bold" lengthAdjust="spacing" textLength="9.8" x="52.85" y="332.1302">12</text><text fill="#000000" font-family="sans-serif" font-size="9.1" lengthAdjust="spacing" textLength="86.8" x="65.45" y="332.1302">requests confirmation</text><polygon fill="#181818" points="280.35,354.9178,287.35,357.7178,280.35,360.5178,283.15,357.7178" style="stroke:#181818;stroke-width:0.6999999999999998;"/><line style="stroke:#181818;stroke-width:0.6999999999999998;" x1="40.95" x2="284.55" y1="357.7178" y2="357.7178"/><text fill="#000000" font-family="sans-serif" font-size="9.1" font-weight="bold" lengthAdjust="spacing" textLength="9.8" x="45.85" y="354.0339">13</text><text fill="#000000" font-family="sans-serif" font-size="9.1" lengthAdjust="spacing" textLength="54.6" x="58.45" y="354.0339">confirms data</text><polygon fill="#181818" points="449.05,376.8215,456.05,379.6215,449.05,382.4215,451.85,379.6215" style="stroke:#181818;stroke-width:0.6999999999999998;"/><line style="stroke:#181818;stroke-width:0.6999999999999998;" x1="295.75" x2="453.25" y1="379.6215" y2="379.6215"/><text fill="#000000" font-family="sans-serif" font-size="9.1" font-weight="bold" lengthAdjust="spacing" textLength="9.8" x="300.65" y="375.9376">14</text><text fill="#000000" font-family="sans-serif" font-size="9.1" lengthAdjust="spacing" textLength="135.8" x="313.25" y="375.9376">cancelAgendaEntry(agendaEntry)</text><polygon fill="#181818" points="673.05,398.7252,680.05,401.5252,673.05,404.3252,675.85,401.5252" style="stroke:#181818;stroke-width:0.6999999999999998;"/><line style="stroke:#181818;stroke-width:0.6999999999999998;" x1="464.45" x2="677.25" y1="401.5252" y2="401.5252"/><text fill="#000000" font-family="sans-serif" font-size="9.1" font-weight="bold" lengthAdjust="spacing" textLength="9.8" x="469.35" y="397.8413">15</text><text fill="#000000" font-family="sans-serif" font-size="9.1" lengthAdjust="spacing" textLength="105" x="481.95" y="397.8413">cancelEntry(agendaEntry)</text><polygon fill="#181818" points="785.05,420.6289,792.05,423.4289,785.05,426.2289,787.85,423.4289" style="stroke:#181818;stroke-width:0.6999999999999998;"/><line style="stroke:#181818;stroke-width:0.6999999999999998;" x1="688.45" x2="789.25" y1="423.4289" y2="423.4289"/><text fill="#000000" font-family="sans-serif" font-size="9.1" font-weight="bold" lengthAdjust="spacing" textLength="9.8" x="693.35" y="419.745">16</text><text fill="#000000" font-family="sans-serif" font-size="9.1" lengthAdjust="spacing" textLength="79.1" x="705.95" y="419.745">setNewEntryState()</text><polygon fill="#181818" points="696.15,442.5326,689.15,445.3326,696.15,448.1326,693.35,445.3326" style="stroke:#181818;stroke-width:0.6999999999999998;"/><line style="stroke:#181818;stroke-width:0.6999999999999998;stroke-dasharray:2.0,2.0;" x1="691.95" x2="796.25" y1="445.3326" y2="445.3326"/><text fill="#000000" font-family="sans-serif" font-size="9.1" font-weight="bold" lengthAdjust="spacing" textLength="9.8" x="700.35" y="441.6487">17</text><text fill="#000000" font-family="sans-serif" font-size="9.1" lengthAdjust="spacing" textLength="37.1" x="712.95" y="441.6487">true/false</text><polygon fill="#181818" points="472.15,464.4363,465.15,467.2363,472.15,470.0363,469.35,467.2363" style="stroke:#181818;stroke-width:0.6999999999999998;"/><line style="stroke:#181818;stroke-width:0.6999999999999998;stroke-dasharray:2.0,2.0;" x1="467.95" x2="684.25" y1="467.2363" y2="467.2363"/><text fill="#000000" font-family="sans-serif" font-size="9.1" font-weight="bold" lengthAdjust="spacing" textLength="9.8" x="476.35" y="463.5524">18</text><text fill="#000000" font-family="sans-serif" font-size="9.1" lengthAdjust="spacing" textLength="37.1" x="488.95" y="463.5524">true/false</text><polygon fill="#181818" points="303.45,486.34,296.45,489.14,303.45,491.94,300.65,489.14" style="stroke:#181818;stroke-width:0.6999999999999998;"/><line style="stroke:#181818;stroke-width:0.6999999999999998;stroke-dasharray:2.0,2.0;" x1="299.25" x2="460.25" y1="489.14" y2="489.14"/><text fill="#000000" font-family="sans-serif" font-size="9.1" font-weight="bold" lengthAdjust="spacing" textLength="9.8" x="307.65" y="485.4562">19</text><text fill="#000000" font-family="sans-serif" font-size="9.1" lengthAdjust="spacing" textLength="37.1" x="320.25" y="485.4562">true/false</text><polygon fill="#181818" points="48.65,508.2437,41.65,511.0437,48.65,513.8437,45.85,511.0437" style="stroke:#181818;stroke-width:0.6999999999999998;"/><line style="stroke:#181818;stroke-width:0.6999999999999998;stroke-dasharray:2.0,2.0;" x1="44.45" x2="291.55" y1="511.0437" y2="511.0437"/><text fill="#000000" font-family="sans-serif" font-size="9.1" font-weight="bold" lengthAdjust="spacing" textLength="9.8" x="52.85" y="507.3599">20</text><text fill="#000000" font-family="sans-serif" font-size="9.1" lengthAdjust="spacing" textLength="110.6" x="65.45" y="507.3599">displays operation success</text><!--SRC=[ZLJ1Rk8m4BtdAqPSIW_LtZciX112IDrL5TfRBzDa00l7JcrdMVv-npP9d13QpItsUszctfl4deIgqM05bLQwE1fT4JZJK6QxcngB4nvevowIm53XK1ra2h17BFLPg0FiKLhACcoSLatrGIRB7ewY9DXhxJxqtmmBfmtCDeP8mOwLoRwhNwXOtym0BQohMkeBKSRIJXIYHkLWja9LaDoyRGFcRJkyNHv8bRZIoXajvLLezPe_3s6Bd6fj1JSWo0PClduPGao2U5UtX9VdvUkGWQ4sOsCJ0RNSv5CDhhc_onMGUIV47tJKJvm1F-qRFFtaEM71y9C5fw485W0g8Ay3Ge4x4iJwWTefiZ_-dUaiudrWcGEvlWiUP_uuv0Ixmb4WC97DYRojiiuN7rEyU_x00v_wIgc7uRwa6qfRm_kPDZSk4Vps9m6O54d6JkGxUAlFIKJvErFxfCA91oRo5E5Z_GuUzTk8GY1IM3V6zwRwB1ZUfRlWZqQVBPJea3CjsRNFXgopO4do9qPbl9fZlpgFOtdEUNfdeePjHU-BtKZTzjarLcYr5wP29xJwxqwkf3ZezriQbppvNBveEPWBrsSOU9Iv8p2z0DqIU8rWeVjDvq3REKRE9yafDnWNw_iVw8_uBspl1riqAjdF_nqn7mtSslmrhr_3wOXBOMk95mkw9XFo1TiK_6ksKse-wty0]--></g></svg>