<?xml version="1.0" encoding="us-ascii" standalone="no"?><svg xmlns="http://www.w3.org/2000/svg" xmlns:xlink="http://www.w3.org/1999/xlink" contentStyleType="text/css" height="618.1px" preserveAspectRatio="none" style="width:885px;height:618px;background:#FFFFFF;" version="1.1" viewBox="0 0 885 618" width="885.5px" zoomAndPan="magnify"><defs/><g><rect fill="#FFFFFF" height="462.0779" style="stroke:#181818;stroke-width:0.6999999999999998;" width="7" x="44.45" y="78.5695"/><rect fill="#FFFFFF" height="197.1334" style="stroke:#181818;stroke-width:0.6999999999999998;" width="7" x="299.25" y="113.277"/><rect fill="#FFFFFF" height="21.9037" style="stroke:#181818;stroke-width:0.6999999999999998;" width="7" x="299.25" y="332.3141"/><rect fill="#FFFFFF" height="153.326" style="stroke:#181818;stroke-width:0.6999999999999998;" width="7" x="299.25" y="376.1215"/><rect fill="#FFFFFF" height="153.326" style="stroke:#181818;stroke-width:0.6999999999999998;" width="7" x="467.95" y="135.1807"/><rect fill="#FFFFFF" height="109.5186" style="stroke:#181818;stroke-width:0.6999999999999998;" width="7" x="467.95" y="398.0252"/><rect fill="#FFFFFF" height="21.9037" style="stroke:#181818;stroke-width:0.6999999999999998;" width="7" x="562.45" y="157.0844"/><rect fill="#FFFFFF" height="21.9037" style="stroke:#181818;stroke-width:0.6999999999999998;" width="7" x="637.35" y="200.8918"/><rect fill="#FFFFFF" height="21.9037" style="stroke:#181818;stroke-width:0.6999999999999998;" width="7" x="725.55" y="244.6992"/><rect fill="#FFFFFF" height="65.7111" style="stroke:#181818;stroke-width:0.6999999999999998;" width="7" x="725.55" y="419.9289"/><rect fill="#FFFFFF" height="21.9037" style="stroke:#181818;stroke-width:0.6999999999999998;" width="7" x="837.55" y="441.8326"/><rect fill="none" height="451.5779" style="stroke:#000000;stroke-width:1.0499999999999998;" width="874.65" x="7" y="83.4695"/><line style="stroke:#181818;stroke-width:0.3499999999999999;stroke-dasharray:5.0,5.0;" x1="47.6" x2="47.6" y1="71.5695" y2="546.9475"/><line style="stroke:#181818;stroke-width:0.3499999999999999;stroke-dasharray:5.0,5.0;" x1="302.75" x2="302.75" y1="71.5695" y2="546.9475"/><line style="stroke:#181818;stroke-width:0.3499999999999999;stroke-dasharray:5.0,5.0;" x1="471.1" x2="471.1" y1="71.5695" y2="546.9475"/><line style="stroke:#181818;stroke-width:0.3499999999999999;stroke-dasharray:5.0,5.0;" x1="565.6" x2="565.6" y1="71.5695" y2="546.9475"/><line style="stroke:#181818;stroke-width:0.3499999999999999;stroke-dasharray:5.0,5.0;" x1="640.5" x2="640.5" y1="71.5695" y2="546.9475"/><line style="stroke:#181818;stroke-width:0.3499999999999999;stroke-dasharray:5.0,5.0;" x1="728.7" x2="728.7" y1="71.5695" y2="546.9475"/><line style="stroke:#181818;stroke-width:0.3499999999999999;stroke-dasharray:5.0,5.0;" x1="841.05" x2="841.05" y1="71.5695" y2="546.9475"/><text fill="#000000" font-family="sans-serif" font-size="9.8" lengthAdjust="spacing" textLength="63.7" x="14" y="56.0752">Green Spaces</text><text fill="#000000" font-family="sans-serif" font-size="9.8" lengthAdjust="spacing" textLength="39.2" x="26.25" y="69.11">Manager</text><ellipse cx="47.95" cy="9.45" fill="#E3E3E3" rx="5.6" ry="5.6" style="stroke:#181818;stroke-width:0.3499999999999999;"/><path d="M47.95,15.05 L47.95,33.95 M38.85,20.65 L57.05,20.65 M47.95,33.95 L38.85,44.45 M47.95,33.95 L57.05,44.45 " fill="none" style="stroke:#181818;stroke-width:0.3499999999999999;"/><text fill="#000000" font-family="sans-serif" font-size="9.8" lengthAdjust="spacing" textLength="63.7" x="14" y="556.8227">Green Spaces</text><text fill="#000000" font-family="sans-serif" font-size="9.8" lengthAdjust="spacing" textLength="39.2" x="26.25" y="569.8574">Manager</text><ellipse cx="47.95" cy="578.267" fill="#E3E3E3" rx="5.6" ry="5.6" style="stroke:#181818;stroke-width:0.3499999999999999;"/><path d="M47.95,583.867 L47.95,602.767 M38.85,589.467 L57.05,589.467 M47.95,602.767 L38.85,613.267 M47.95,602.767 L57.05,613.267 " fill="none" style="stroke:#181818;stroke-width:0.3499999999999999;"/><rect fill="#E3E3E3" height="22.8348" rx="1.75" ry="1.75" style="stroke:#181818;stroke-width:0.3499999999999999;" width="49" x="278.25" y="48.0348"/><text fill="#000000" font-family="sans-serif" font-size="9.8" lengthAdjust="spacing" textLength="39.2" x="283.15" y="63.51">CancelUI</text><rect fill="#E3E3E3" height="22.8348" rx="1.75" ry="1.75" style="stroke:#181818;stroke-width:0.3499999999999999;" width="49" x="278.25" y="546.2475"/><text fill="#000000" font-family="sans-serif" font-size="9.8" lengthAdjust="spacing" textLength="39.2" x="283.15" y="561.7227">CancelUI</text><rect fill="#E3E3E3" height="22.8348" rx="1.75" ry="1.75" style="stroke:#181818;stroke-width:0.3499999999999999;" width="107.1" x="417.9" y="48.0348"/><text fill="#000000" font-family="sans-serif" font-size="9.8" lengthAdjust="spacing" textLength="97.3" x="422.8" y="63.51">CancelEntryController</text><rect fill="#E3E3E3" height="22.8348" rx="1.75" ry="1.75" style="stroke:#181818;stroke-width:0.3499999999999999;" width="107.1" x="417.9" y="546.2475"/><text fill="#000000" font-family="sans-serif" font-size="9.8" lengthAdjust="spacing" textLength="97.3" x="422.8" y="561.7227">CancelEntryController</text><rect fill="#E3E3E3" height="22.8348" rx="1.75" ry="1.75" style="stroke:#181818;stroke-width:0.3499999999999999;" width="67.9" x="532" y="48.0348"/><text fill="#000000" font-family="sans-serif" font-size="9.8" lengthAdjust="spacing" textLength="58.1" x="536.9" y="63.51">:Repositories</text><rect fill="#E3E3E3" height="22.8348" rx="1.75" ry="1.75" style="stroke:#181818;stroke-width:0.3499999999999999;" width="67.9" x="532" y="546.2475"/><text fill="#000000" font-family="sans-serif" font-size="9.8" lengthAdjust="spacing" textLength="58.1" x="536.9" y="561.7227">:Repositories</text><rect fill="#E3E3E3" height="35.8695" rx="1.75" ry="1.75" style="stroke:#181818;stroke-width:0.3499999999999999;" width="67.9" x="606.9" y="35"/><text fill="#000000" font-family="sans-serif" font-size="9.8" lengthAdjust="spacing" textLength="51.8" x="614.95" y="50.4752">repositories</text><text fill="#000000" font-family="sans-serif" font-size="9.8" lengthAdjust="spacing" textLength="58.1" x="611.8" y="63.51">:Repositories</text><rect fill="#E3E3E3" height="35.8695" rx="1.75" ry="1.75" style="stroke:#181818;stroke-width:0.3499999999999999;" width="67.9" x="606.9" y="546.2475"/><text fill="#000000" font-family="sans-serif" font-size="9.8" lengthAdjust="spacing" textLength="51.8" x="614.95" y="561.7227">repositories</text><text fill="#000000" font-family="sans-serif" font-size="9.8" lengthAdjust="spacing" textLength="58.1" x="611.8" y="574.7574">:Repositories</text><rect fill="#E3E3E3" height="35.8695" rx="1.75" ry="1.75" style="stroke:#181818;stroke-width:0.3499999999999999;" width="94.5" x="681.8" y="35"/><text fill="#000000" font-family="sans-serif" font-size="9.8" lengthAdjust="spacing" textLength="81.2" x="688.45" y="50.4752">agendaRepository</text><text fill="#000000" font-family="sans-serif" font-size="9.8" lengthAdjust="spacing" textLength="84.7" x="686.7" y="63.51">:AgendaRepository</text><rect fill="#E3E3E3" height="35.8695" rx="1.75" ry="1.75" style="stroke:#181818;stroke-width:0.3499999999999999;" width="94.5" x="681.8" y="546.2475"/><text fill="#000000" font-family="sans-serif" font-size="9.8" lengthAdjust="spacing" textLength="81.2" x="688.45" y="561.7227">agendaRepository</text><text fill="#000000" font-family="sans-serif" font-size="9.8" lengthAdjust="spacing" textLength="84.7" x="686.7" y="574.7574">:AgendaRepository</text><rect fill="#E3E3E3" height="22.8348" rx="1.75" ry="1.75" style="stroke:#181818;stroke-width:0.3499999999999999;" width="67.2" x="807.45" y="48.0348"/><text fill="#000000" font-family="sans-serif" font-size="9.8" lengthAdjust="spacing" textLength="57.4" x="812.35" y="63.51">AgendaEntry</text><rect fill="#E3E3E3" height="22.8348" rx="1.75" ry="1.75" style="stroke:#181818;stroke-width:0.3499999999999999;" width="67.2" x="807.45" y="546.2475"/><text fill="#000000" font-family="sans-serif" font-size="9.8" lengthAdjust="spacing" textLength="57.4" x="812.35" y="561.7227">AgendaEntry</text><rect fill="#FFFFFF" height="462.0779" style="stroke:#181818;stroke-width:0.6999999999999998;" width="7" x="44.45" y="78.5695"/><rect fill="#FFFFFF" height="197.1334" style="stroke:#181818;stroke-width:0.6999999999999998;" width="7" x="299.25" y="113.277"/><rect fill="#FFFFFF" height="21.9037" style="stroke:#181818;stroke-width:0.6999999999999998;" width="7" x="299.25" y="332.3141"/><rect fill="#FFFFFF" height="153.326" style="stroke:#181818;stroke-width:0.6999999999999998;" width="7" x="299.25" y="376.1215"/><rect fill="#FFFFFF" height="153.326" style="stroke:#181818;stroke-width:0.6999999999999998;" width="7" x="467.95" y="135.1807"/><rect fill="#FFFFFF" height="109.5186" style="stroke:#181818;stroke-width:0.6999999999999998;" width="7" x="467.95" y="398.0252"/><rect fill="#FFFFFF" height="21.9037" style="stroke:#181818;stroke-width:0.6999999999999998;" width="7" x="562.45" y="157.0844"/><rect fill="#FFFFFF" height="21.9037" style="stroke:#181818;stroke-width:0.6999999999999998;" width="7" x="637.35" y="200.8918"/><rect fill="#FFFFFF" height="21.9037" style="stroke:#181818;stroke-width:0.6999999999999998;" width="7" x="725.55" y="244.6992"/><rect fill="#FFFFFF" height="65.7111" style="stroke:#181818;stroke-width:0.6999999999999998;" width="7" x="725.55" y="419.9289"/><rect fill="#FFFFFF" height="21.9037" style="stroke:#181818;stroke-width:0.6999999999999998;" width="7" x="837.55" y="441.8326"/><path d="M7,83.4695 L203.7,83.4695 L203.7,89.9732 L196.7,96.9732 L7,96.9732 L7,83.4695 " fill="#EEEEEE" style="stroke:#000000;stroke-width:1.0499999999999998;"/><rect fill="none" height="451.5779" style="stroke:#000000;stroke-width:1.0499999999999998;" width="874.65" x="7" y="83.4695"/><text fill="#000000" font-family="sans-serif" font-size="9.1" font-weight="bold" lengthAdjust="spacing" textLength="165.2" x="17.5" y="93.9894">Repeat Register (while user wants to)</text><polygon fill="#181818" points="290.85,110.477,297.85,113.277,290.85,116.077,293.65,113.277" style="stroke:#181818;stroke-width:0.6999999999999998;"/><line style="stroke:#181818;stroke-width:0.6999999999999998;" x1="51.45" x2="295.05" y1="113.277" y2="113.277"/><text fill="#000000" font-family="sans-serif" font-size="9.1" font-weight="bold" lengthAdjust="spacing" textLength="4.9" x="56.35" y="109.5931">1</text><text fill="#000000" font-family="sans-serif" font-size="9.1" lengthAdjust="spacing" textLength="152.6" x="64.05" y="109.5931">asks to cancel an entry in the agenda</text><polygon fill="#181818" points="459.55,132.3807,466.55,135.1807,459.55,137.9807,462.35,135.1807" style="stroke:#181818;stroke-width:0.6999999999999998;"/><line style="stroke:#181818;stroke-width:0.6999999999999998;" x1="306.25" x2="463.75" y1="135.1807" y2="135.1807"/><text fill="#000000" font-family="sans-serif" font-size="9.1" font-weight="bold" lengthAdjust="spacing" textLength="4.9" x="311.15" y="131.4968">2</text><text fill="#000000" font-family="sans-serif" font-size="9.1" lengthAdjust="spacing" textLength="77.7" x="318.85" y="131.4968">getAgendaEntries()</text><polygon fill="#181818" points="554.05,154.2844,561.05,157.0844,554.05,159.8844,556.85,157.0844" style="stroke:#181818;stroke-width:0.6999999999999998;"/><line style="stroke:#181818;stroke-width:0.6999999999999998;" x1="474.95" x2="558.25" y1="157.0844" y2="157.0844"/><text fill="#000000" font-family="sans-serif" font-size="9.1" font-weight="bold" lengthAdjust="spacing" textLength="4.9" x="479.85" y="153.4005">3</text><text fill="#000000" font-family="sans-serif" font-size="9.1" lengthAdjust="spacing" textLength="52.5" x="487.55" y="153.4005">getInstance()</text><polygon fill="#181818" points="482.65,176.1881,475.65,178.9881,482.65,181.7881,479.85,178.9881" style="stroke:#181818;stroke-width:0.6999999999999998;"/><line style="stroke:#181818;stroke-width:0.6999999999999998;stroke-dasharray:2.0,2.0;" x1="478.45" x2="565.25" y1="178.9881" y2="178.9881"/><text fill="#000000" font-family="sans-serif" font-size="9.1" font-weight="bold" lengthAdjust="spacing" textLength="4.9" x="486.85" y="175.3042">4</text><text fill="#000000" font-family="sans-serif" font-size="9.1" lengthAdjust="spacing" textLength="46.9" x="494.55" y="175.3042">repositories</text><polygon fill="#181818" points="628.95,198.0918,635.95,200.8918,628.95,203.6918,631.75,200.8918" style="stroke:#181818;stroke-width:0.6999999999999998;"/><line style="stroke:#181818;stroke-width:0.6999999999999998;" x1="474.95" x2="633.15" y1="200.8918" y2="200.8918"/><text fill="#000000" font-family="sans-serif" font-size="9.1" font-weight="bold" lengthAdjust="spacing" textLength="4.9" x="479.85" y="197.2079">5</text><text fill="#000000" font-family="sans-serif" font-size="9.1" lengthAdjust="spacing" textLength="92.4" x="487.55" y="197.2079">getAgendaRepository()</text><polygon fill="#181818" points="482.65,219.9955,475.65,222.7955,482.65,225.5955,479.85,222.7955" style="stroke:#181818;stroke-width:0.6999999999999998;"/><line style="stroke:#181818;stroke-width:0.6999999999999998;stroke-dasharray:2.0,2.0;" x1="478.45" x2="640.15" y1="222.7955" y2="222.7955"/><text fill="#000000" font-family="sans-serif" font-size="9.1" font-weight="bold" lengthAdjust="spacing" textLength="4.9" x="486.85" y="219.1116">6</text><text fill="#000000" font-family="sans-serif" font-size="9.1" lengthAdjust="spacing" textLength="72.8" x="494.55" y="219.1116">agendaRepository</text><polygon fill="#181818" points="717.15,241.8992,724.15,244.6992,717.15,247.4992,719.95,244.6992" style="stroke:#181818;stroke-width:0.6999999999999998;"/><line style="stroke:#181818;stroke-width:0.6999999999999998;" x1="474.95" x2="721.35" y1="244.6992" y2="244.6992"/><text fill="#000000" font-family="sans-serif" font-size="9.1" font-weight="bold" lengthAdjust="spacing" textLength="4.9" x="479.85" y="241.0153">7</text><text fill="#000000" font-family="sans-serif" font-size="9.1" lengthAdjust="spacing" textLength="105.7" x="487.55" y="241.0153">getEntryList(agendaEntry)</text><polygon fill="#181818" points="482.65,263.8029,475.65,266.6029,482.65,269.4029,479.85,266.6029" style="stroke:#181818;stroke-width:0.6999999999999998;"/><line style="stroke:#181818;stroke-width:0.6999999999999998;stroke-dasharray:2.0,2.0;" x1="478.45" x2="728.35" y1="266.6029" y2="266.6029"/><text fill="#000000" font-family="sans-serif" font-size="9.1" font-weight="bold" lengthAdjust="spacing" textLength="4.9" x="486.85" y="262.919">8</text><text fill="#000000" font-family="sans-serif" font-size="9.1" lengthAdjust="spacing" textLength="35" x="494.55" y="262.919">entryList</text><polygon fill="#181818" points="313.95,285.7066,306.95,288.5066,313.95,291.3066,311.15,288.5066" style="stroke:#181818;stroke-width:0.6999999999999998;"/><line style="stroke:#181818;stroke-width:0.6999999999999998;stroke-dasharray:2.0,2.0;" x1="309.75" x2="470.75" y1="288.5066" y2="288.5066"/><text fill="#000000" font-family="sans-serif" font-size="9.1" font-weight="bold" lengthAdjust="spacing" textLength="4.9" x="318.15" y="284.8228">9</text><text fill="#000000" font-family="sans-serif" font-size="9.1" lengthAdjust="spacing" textLength="32.2" x="325.85" y="284.8228">entrylist</text><polygon fill="#181818" points="59.15,307.6104,52.15,310.4104,59.15,313.2104,56.35,310.4104" style="stroke:#181818;stroke-width:0.6999999999999998;"/><line style="stroke:#181818;stroke-width:0.6999999999999998;stroke-dasharray:2.0,2.0;" x1="54.95" x2="302.05" y1="310.4104" y2="310.4104"/><text fill="#000000" font-family="sans-serif" font-size="9.1" font-weight="bold" lengthAdjust="spacing" textLength="9.8" x="63.35" y="306.7265">10</text><text fill="#000000" font-family="sans-serif" font-size="9.1" lengthAdjust="spacing" textLength="218.4" x="75.95" y="306.7265">shows data and requests selected data (agendaEntry)</text><polygon fill="#181818" points="290.85,329.5141,297.85,332.3141,290.85,335.1141,293.65,332.3141" style="stroke:#181818;stroke-width:0.6999999999999998;"/><line style="stroke:#181818;stroke-width:0.6999999999999998;" x1="51.45" x2="295.05" y1="332.3141" y2="332.3141"/><text fill="#000000" font-family="sans-serif" font-size="9.1" font-weight="bold" lengthAdjust="spacing" textLength="9.8" x="56.35" y="328.6302">11</text><text fill="#000000" font-family="sans-serif" font-size="9.1" lengthAdjust="spacing" textLength="151.9" x="68.95" y="328.6302">selects requested data (agendaEntry)</text><polygon fill="#181818" points="59.15,351.4178,52.15,354.2178,59.15,357.0178,56.35,354.2178" style="stroke:#181818;stroke-width:0.6999999999999998;"/><line style="stroke:#181818;stroke-width:0.6999999999999998;stroke-dasharray:2.0,2.0;" x1="54.95" x2="302.05" y1="354.2178" y2="354.2178"/><text fill="#000000" font-family="sans-serif" font-size="9.1" font-weight="bold" lengthAdjust="spacing" textLength="9.8" x="63.35" y="350.5339">12</text><text fill="#000000" font-family="sans-serif" font-size="9.1" lengthAdjust="spacing" textLength="86.8" x="75.95" y="350.5339">requests confirmation</text><polygon fill="#181818" points="290.85,373.3215,297.85,376.1215,290.85,378.9215,293.65,376.1215" style="stroke:#181818;stroke-width:0.6999999999999998;"/><line style="stroke:#181818;stroke-width:0.6999999999999998;" x1="51.45" x2="295.05" y1="376.1215" y2="376.1215"/><text fill="#000000" font-family="sans-serif" font-size="9.1" font-weight="bold" lengthAdjust="spacing" textLength="9.8" x="56.35" y="372.4376">13</text><text fill="#000000" font-family="sans-serif" font-size="9.1" lengthAdjust="spacing" textLength="54.6" x="68.95" y="372.4376">confirms data</text><polygon fill="#181818" points="459.55,395.2252,466.55,398.0252,459.55,400.8252,462.35,398.0252" style="stroke:#181818;stroke-width:0.6999999999999998;"/><line style="stroke:#181818;stroke-width:0.6999999999999998;" x1="306.25" x2="463.75" y1="398.0252" y2="398.0252"/><text fill="#000000" font-family="sans-serif" font-size="9.1" font-weight="bold" lengthAdjust="spacing" textLength="9.8" x="311.15" y="394.3413">14</text><text fill="#000000" font-family="sans-serif" font-size="9.1" lengthAdjust="spacing" textLength="135.8" x="323.75" y="394.3413">cancelAgendaEntry(agendaEntry)</text><polygon fill="#181818" points="717.15,417.1289,724.15,419.9289,717.15,422.7289,719.95,419.9289" style="stroke:#181818;stroke-width:0.6999999999999998;"/><line style="stroke:#181818;stroke-width:0.6999999999999998;" x1="474.95" x2="721.35" y1="419.9289" y2="419.9289"/><text fill="#000000" font-family="sans-serif" font-size="9.1" font-weight="bold" lengthAdjust="spacing" textLength="9.8" x="479.85" y="416.245">15</text><text fill="#000000" font-family="sans-serif" font-size="9.1" lengthAdjust="spacing" textLength="105" x="492.45" y="416.245">cancelEntry(agendaEntry)</text><polygon fill="#181818" points="829.15,439.0326,836.15,441.8326,829.15,444.6326,831.95,441.8326" style="stroke:#181818;stroke-width:0.6999999999999998;"/><line style="stroke:#181818;stroke-width:0.6999999999999998;" x1="732.55" x2="833.35" y1="441.8326" y2="441.8326"/><text fill="#000000" font-family="sans-serif" font-size="9.1" font-weight="bold" lengthAdjust="spacing" textLength="9.8" x="737.45" y="438.1487">16</text><text fill="#000000" font-family="sans-serif" font-size="9.1" lengthAdjust="spacing" textLength="79.1" x="750.05" y="438.1487">setNewEntryState()</text><polygon fill="#181818" points="740.25,460.9363,733.25,463.7363,740.25,466.5363,737.45,463.7363" style="stroke:#181818;stroke-width:0.6999999999999998;"/><line style="stroke:#181818;stroke-width:0.6999999999999998;stroke-dasharray:2.0,2.0;" x1="736.05" x2="840.35" y1="463.7363" y2="463.7363"/><text fill="#000000" font-family="sans-serif" font-size="9.1" font-weight="bold" lengthAdjust="spacing" textLength="9.8" x="744.45" y="460.0524">17</text><text fill="#000000" font-family="sans-serif" font-size="9.1" lengthAdjust="spacing" textLength="37.1" x="757.05" y="460.0524">true/false</text><polygon fill="#181818" points="482.65,482.84,475.65,485.64,482.65,488.44,479.85,485.64" style="stroke:#181818;stroke-width:0.6999999999999998;"/><line style="stroke:#181818;stroke-width:0.6999999999999998;stroke-dasharray:2.0,2.0;" x1="478.45" x2="728.35" y1="485.64" y2="485.64"/><text fill="#000000" font-family="sans-serif" font-size="9.1" font-weight="bold" lengthAdjust="spacing" textLength="9.8" x="486.85" y="481.9562">18</text><text fill="#000000" font-family="sans-serif" font-size="9.1" lengthAdjust="spacing" textLength="37.1" x="499.45" y="481.9562">true/false</text><polygon fill="#181818" points="313.95,504.7437,306.95,507.5437,313.95,510.3437,311.15,507.5437" style="stroke:#181818;stroke-width:0.6999999999999998;"/><line style="stroke:#181818;stroke-width:0.6999999999999998;stroke-dasharray:2.0,2.0;" x1="309.75" x2="470.75" y1="507.5437" y2="507.5437"/><text fill="#000000" font-family="sans-serif" font-size="9.1" font-weight="bold" lengthAdjust="spacing" textLength="9.8" x="318.15" y="503.8599">19</text><text fill="#000000" font-family="sans-serif" font-size="9.1" lengthAdjust="spacing" textLength="37.1" x="330.75" y="503.8599">true/false</text><polygon fill="#181818" points="59.15,526.6475,52.15,529.4475,59.15,532.2475,56.35,529.4475" style="stroke:#181818;stroke-width:0.6999999999999998;"/><line style="stroke:#181818;stroke-width:0.6999999999999998;stroke-dasharray:2.0,2.0;" x1="54.95" x2="302.05" y1="529.4475" y2="529.4475"/><text fill="#000000" font-family="sans-serif" font-size="9.1" font-weight="bold" lengthAdjust="spacing" textLength="9.8" x="63.35" y="525.7636">20</text><text fill="#000000" font-family="sans-serif" font-size="9.1" lengthAdjust="spacing" textLength="110.6" x="75.95" y="525.7636">displays operation success</text><!--SRC=[ZLNBRjim4BphAnQ-r3a4lVjGm32Cm81R179oosKZhIN24gcIL5NzVPUazLQJwE07kJEpcbbAvYPaXHfBA9LKIQvLIM1rJP7fTofCRfZHnRO5WQR4eioASO79CLMDa1bSiJ0KHLXR9UlodNGKVSj5Id1Lohwhln4cLcdOF6aY2HTc9lCcVw9aVhq1D70igqArH15JMv682gM5pG5bGiNhoPUydjOsZzBgzg3uKnN5dUpm4f-djRkOAcK4Do78-9hu-3mjqQEADxa4F9_tBrC4DozJx0jRHkrdInwvVugdm53bExyNHCuXyGSj3KvaMjKLC1UXvQzC64iQjaqkE8_QyE-6sGnOzH01NnqG7d-mLx1ZvflRXSGR1IY1d2G82JOd2ErxQ2_E7hl_36SIPoFJP6I7XjcDxSCKuztsInx0GFOsu4xIM2S-XpZptO8hV1oKnX7u_PGMa4x3nJ5kRl1yBkQ3SoiUCfARvpUNx86T9WSP97rqPmvaYqEKCrcNkbzng94gTTYvN0y8SbsAlhvOgHzyTt5nUJy0EpwQgZ6GeaMEFMLZVzTaU5OC5NoGAGrRo-v7z3mAwsCLE4n7-d-o1TMopxwnHCchq2LQeUINExc3mer-FiZX78mEtmSjUtFXVatpJuRdpf9WVGJwCN0StaBxYneFkrYktAw2nrXlND1tZ-dluOdRxK-cQ2OvtFzdm7XsmvtD7-E6CLoFE1McAh0re2hIFbymTS8l0BF6vh9cI_y1]--></g></svg>