<?xml version="1.0" encoding="us-ascii" standalone="no"?><svg xmlns="http://www.w3.org/2000/svg" xmlns:xlink="http://www.w3.org/1999/xlink" contentStyleType="text/css" height="532px" preserveAspectRatio="none" style="width:450px;height:531px;background:#FFFFFF;" version="1.1" viewBox="0 0 450 531" width="450.8px" zoomAndPan="magnify"><defs/><g><!--class CancelEntryController--><g id="elem_CancelEntryController"><rect codeLine="20" fill="#F1F1F1" height="85.7391" id="CancelEntryController" rx="1.75" ry="1.75" style="stroke:#181818;stroke-width:0.3499999999999999;" width="228.2" x="137.55" y="185.5"/><ellipse cx="200.025" cy="196.7" fill="#ADD1B2" rx="7.7" ry="7.7" style="stroke:#181818;stroke-width:0.6999999999999998;"/><path d="M201.9609,193.8125 Q202.0703,193.6594 202.2016,193.5828 Q202.3328,193.5062 202.4859,193.5062 Q202.7484,193.5062 202.9125,193.6922 Q203.0766,193.8672 203.0766,194.2937 L203.0766,195.3109 Q203.0766,195.7375 202.9125,195.9234 Q202.7484,196.1094 202.4859,196.1094 Q202.2453,196.1094 202.1031,195.9672 Q201.9609,195.8359 201.8844,195.475 Q201.8516,195.2234 201.7203,195.0922 Q201.4906,194.8297 201.0641,194.6766 Q200.6375,194.5234 200.2,194.5234 Q199.6641,194.5234 199.2156,194.7531 Q198.7781,194.9828 198.4281,195.5078 Q198.0891,196.0328 198.0891,196.7547 L198.0891,197.5203 Q198.0891,198.3844 198.7125,198.9641 Q199.3359,199.5328 200.4516,199.5328 Q201.1078,199.5328 201.5672,199.3578 Q201.8406,199.2484 202.1359,198.9422 Q202.3219,198.7562 202.4203,198.7016 Q202.5297,198.6469 202.6719,198.6469 Q202.9016,198.6469 203.0766,198.8328 Q203.2625,199.0078 203.2625,199.2484 Q203.2625,199.4891 203.0219,199.7734 Q202.6719,200.1781 202.1141,200.4078 Q201.3594,200.725 200.4516,200.725 Q199.3906,200.725 198.5484,200.2875 Q197.8594,199.9375 197.3781,199.1937 Q196.8969,198.4391 196.8969,197.5422 L196.8969,196.7328 Q196.8969,195.8031 197.3234,195.0047 Q197.7609,194.1953 198.5266,193.7687 Q199.2922,193.3312 200.1562,193.3312 Q200.6703,193.3312 201.1187,193.4516 Q201.5781,193.5609 201.9609,193.8125 Z " fill="#000000"/><text fill="#000000" font-family="sans-serif" font-size="9.8" lengthAdjust="spacing" textLength="97.3" x="214.375" y="200.7578">CancelEntryController</text><line style="stroke:#181818;stroke-width:0.3499999999999999;" x1="138.25" x2="365.05" y1="207.9" y2="207.9"/><text fill="#000000" font-family="sans-serif" font-size="9.8" lengthAdjust="spacing" textLength="169.4" x="141.75" y="221.2752">-AgendaRepository agendaRepository</text><line style="stroke:#181818;stroke-width:0.3499999999999999;" x1="138.25" x2="365.05" y1="226.5348" y2="226.5348"/><text fill="#000000" font-family="sans-serif" font-size="9.8" lengthAdjust="spacing" textLength="109.9" x="141.75" y="239.91">+CancelEntryController()</text><text fill="#000000" font-family="sans-serif" font-size="9.8" lengthAdjust="spacing" textLength="178.5" x="141.75" y="252.9447">+List&lt;AgendaEntry&gt; getAgendaEntries()</text><text fill="#000000" font-family="sans-serif" font-size="9.8" lengthAdjust="spacing" textLength="219.8" x="141.75" y="265.9795">+boolean cancelAgendaEntry(AgendaEntry entry)</text></g><!--class AgendaEntry--><g id="elem_AgendaEntry"><rect codeLine="27" fill="#F1F1F1" height="98.7738" id="AgendaEntry" rx="1.75" ry="1.75" style="stroke:#181818;stroke-width:0.3499999999999999;" width="119.7" x="4.9" y="326.2"/><ellipse cx="33.355" cy="337.4" fill="#ADD1B2" rx="7.7" ry="7.7" style="stroke:#181818;stroke-width:0.6999999999999998;"/><path d="M35.2909,334.5125 Q35.4003,334.3594 35.5316,334.2828 Q35.6628,334.2062 35.8159,334.2062 Q36.0784,334.2062 36.2425,334.3922 Q36.4066,334.5672 36.4066,334.9937 L36.4066,336.0109 Q36.4066,336.4375 36.2425,336.6234 Q36.0784,336.8094 35.8159,336.8094 Q35.5753,336.8094 35.4331,336.6672 Q35.2909,336.5359 35.2144,336.175 Q35.1816,335.9234 35.0503,335.7922 Q34.8206,335.5297 34.3941,335.3766 Q33.9675,335.2234 33.53,335.2234 Q32.9941,335.2234 32.5456,335.4531 Q32.1081,335.6828 31.7581,336.2078 Q31.4191,336.7328 31.4191,337.4547 L31.4191,338.2203 Q31.4191,339.0844 32.0425,339.6641 Q32.6659,340.2328 33.7816,340.2328 Q34.4378,340.2328 34.8972,340.0578 Q35.1706,339.9484 35.4659,339.6422 Q35.6519,339.4562 35.7503,339.4016 Q35.8597,339.3469 36.0019,339.3469 Q36.2316,339.3469 36.4066,339.5328 Q36.5925,339.7078 36.5925,339.9484 Q36.5925,340.1891 36.3519,340.4734 Q36.0019,340.8781 35.4441,341.1078 Q34.6894,341.425 33.7816,341.425 Q32.7206,341.425 31.8784,340.9875 Q31.1894,340.6375 30.7081,339.8937 Q30.2269,339.1391 30.2269,338.2422 L30.2269,337.4328 Q30.2269,336.5031 30.6534,335.7047 Q31.0909,334.8953 31.8566,334.4687 Q32.6222,334.0312 33.4862,334.0312 Q34.0003,334.0312 34.4487,334.1516 Q34.9081,334.2609 35.2909,334.5125 Z " fill="#000000"/><text fill="#000000" font-family="sans-serif" font-size="9.8" lengthAdjust="spacing" textLength="57.4" x="47.145" y="341.4578">AgendaEntry</text><line style="stroke:#181818;stroke-width:0.3499999999999999;" x1="5.6" x2="123.9" y1="348.6" y2="348.6"/><text fill="#000000" font-family="sans-serif" font-size="9.8" lengthAdjust="spacing" textLength="73.5" x="9.1" y="361.9752">-String entryTitle</text><text fill="#000000" font-family="sans-serif" font-size="9.8" lengthAdjust="spacing" textLength="66.5" x="9.1" y="375.01">-Calendar date</text><line style="stroke:#181818;stroke-width:0.3499999999999999;" x1="5.6" x2="123.9" y1="380.2695" y2="380.2695"/><text fill="#000000" font-family="sans-serif" font-size="9.8" lengthAdjust="spacing" textLength="111.3" x="9.1" y="393.6447">+void setNewEntryState()</text><text fill="#000000" font-family="sans-serif" font-size="9.8" lengthAdjust="spacing" textLength="97.3" x="9.1" y="406.6795">+String getEntryTitle()</text><text fill="#000000" font-family="sans-serif" font-size="9.8" lengthAdjust="spacing" textLength="91" x="9.1" y="419.7143">+Calendar getDate()</text></g><!--class Repositories--><g id="elem_Repositories"><rect codeLine="51" fill="#F1F1F1" height="59.6695" id="Repositories" rx="1.75" ry="1.75" style="stroke:#181818;stroke-width:0.3499999999999999;" width="204.4" x="149.45" y="345.8"/><ellipse cx="221.025" cy="357" fill="#ADD1B2" rx="7.7" ry="7.7" style="stroke:#181818;stroke-width:0.6999999999999998;"/><path d="M222.9609,354.1125 Q223.0703,353.9594 223.2016,353.8828 Q223.3328,353.8062 223.4859,353.8062 Q223.7484,353.8062 223.9125,353.9922 Q224.0766,354.1672 224.0766,354.5937 L224.0766,355.6109 Q224.0766,356.0375 223.9125,356.2234 Q223.7484,356.4094 223.4859,356.4094 Q223.2453,356.4094 223.1031,356.2672 Q222.9609,356.1359 222.8844,355.775 Q222.8516,355.5234 222.7203,355.3922 Q222.4906,355.1297 222.0641,354.9766 Q221.6375,354.8234 221.2,354.8234 Q220.6641,354.8234 220.2156,355.0531 Q219.7781,355.2828 219.4281,355.8078 Q219.0891,356.3328 219.0891,357.0547 L219.0891,357.8203 Q219.0891,358.6844 219.7125,359.2641 Q220.3359,359.8328 221.4516,359.8328 Q222.1078,359.8328 222.5672,359.6578 Q222.8406,359.5484 223.1359,359.2422 Q223.3219,359.0562 223.4203,359.0016 Q223.5297,358.9469 223.6719,358.9469 Q223.9016,358.9469 224.0766,359.1328 Q224.2625,359.3078 224.2625,359.5484 Q224.2625,359.7891 224.0219,360.0734 Q223.6719,360.4781 223.1141,360.7078 Q222.3594,361.025 221.4516,361.025 Q220.3906,361.025 219.5484,360.5875 Q218.8594,360.2375 218.3781,359.4937 Q217.8969,358.7391 217.8969,357.8422 L217.8969,357.0328 Q217.8969,356.1031 218.3234,355.3047 Q218.7609,354.4953 219.5266,354.0687 Q220.2922,353.6312 221.1562,353.6312 Q221.6703,353.6312 222.1187,353.7516 Q222.5781,353.8609 222.9609,354.1125 Z " fill="#000000"/><text fill="#000000" font-family="sans-serif" font-size="9.8" lengthAdjust="spacing" textLength="55.3" x="235.375" y="361.0578">Repositories</text><line style="stroke:#181818;stroke-width:0.3499999999999999;" x1="150.15" x2="353.15" y1="368.2" y2="368.2"/><line style="stroke:#181818;stroke-width:0.3499999999999999;" x1="150.15" x2="353.15" y1="373.8" y2="373.8"/><text fill="#000000" font-family="sans-serif" font-size="9.8" lengthAdjust="spacing" textLength="63.7" x="153.65" y="387.1752">+getInstance()</text><text fill="#000000" font-family="sans-serif" font-size="9.8" lengthAdjust="spacing" textLength="196" x="153.65" y="400.21">+getAgendaRepository(): AgendaRepository</text></g><!--class AgendaRepository--><g id="elem_AgendaRepository"><rect codeLine="35" fill="#F1F1F1" height="59.6695" id="AgendaRepository" rx="1.75" ry="1.75" style="stroke:#181818;stroke-width:0.3499999999999999;" width="193.9" x="252" y="467.6"/><ellipse cx="305.025" cy="478.8" fill="#ADD1B2" rx="7.7" ry="7.7" style="stroke:#181818;stroke-width:0.6999999999999998;"/><path d="M306.9609,475.9125 Q307.0703,475.7594 307.2016,475.6828 Q307.3328,475.6062 307.4859,475.6062 Q307.7484,475.6062 307.9125,475.7922 Q308.0766,475.9672 308.0766,476.3937 L308.0766,477.4109 Q308.0766,477.8375 307.9125,478.0234 Q307.7484,478.2094 307.4859,478.2094 Q307.2453,478.2094 307.1031,478.0672 Q306.9609,477.9359 306.8844,477.575 Q306.8516,477.3234 306.7203,477.1922 Q306.4906,476.9297 306.0641,476.7766 Q305.6375,476.6234 305.2,476.6234 Q304.6641,476.6234 304.2156,476.8531 Q303.7781,477.0828 303.4281,477.6078 Q303.0891,478.1328 303.0891,478.8547 L303.0891,479.6203 Q303.0891,480.4844 303.7125,481.0641 Q304.3359,481.6328 305.4516,481.6328 Q306.1078,481.6328 306.5672,481.4578 Q306.8406,481.3484 307.1359,481.0422 Q307.3219,480.8562 307.4203,480.8016 Q307.5297,480.7469 307.6719,480.7469 Q307.9016,480.7469 308.0766,480.9328 Q308.2625,481.1078 308.2625,481.3484 Q308.2625,481.5891 308.0219,481.8734 Q307.6719,482.2781 307.1141,482.5078 Q306.3594,482.825 305.4516,482.825 Q304.3906,482.825 303.5484,482.3875 Q302.8594,482.0375 302.3781,481.2937 Q301.8969,480.5391 301.8969,479.6422 L301.8969,478.8328 Q301.8969,477.9031 302.3234,477.1047 Q302.7609,476.2953 303.5266,475.8687 Q304.2922,475.4312 305.1562,475.4312 Q305.6703,475.4312 306.1187,475.5516 Q306.5781,475.6609 306.9609,475.9125 Z " fill="#000000"/><text fill="#000000" font-family="sans-serif" font-size="9.8" lengthAdjust="spacing" textLength="81.9" x="319.375" y="482.8578">AgendaRepository</text><line style="stroke:#181818;stroke-width:0.3499999999999999;" x1="252.7" x2="445.2" y1="490" y2="490"/><line style="stroke:#181818;stroke-width:0.3499999999999999;" x1="252.7" x2="445.2" y1="495.6" y2="495.6"/><text fill="#000000" font-family="sans-serif" font-size="9.8" lengthAdjust="spacing" textLength="151.9" x="256.2" y="508.9752">+List&lt;AgendaEntry&gt; getEntryList()</text><text fill="#000000" font-family="sans-serif" font-size="9.8" lengthAdjust="spacing" textLength="185.5" x="256.2" y="522.01">+boolean cancelEntry(AgendaEntry entry)</text></g><!--class CancelEntryUI--><g id="elem_CancelEntryUI"><rect codeLine="40" fill="#F1F1F1" height="137.8781" id="CancelEntryUI" rx="1.75" ry="1.75" style="stroke:#181818;stroke-width:0.3499999999999999;" width="228.9" x="137.2" y="4.9"/><ellipse cx="217.525" cy="16.1" fill="#ADD1B2" rx="7.7" ry="7.7" style="stroke:#181818;stroke-width:0.6999999999999998;"/><path d="M219.4609,13.2125 Q219.5703,13.0594 219.7016,12.9828 Q219.8328,12.9062 219.9859,12.9062 Q220.2484,12.9062 220.4125,13.0922 Q220.5766,13.2672 220.5766,13.6937 L220.5766,14.7109 Q220.5766,15.1375 220.4125,15.3234 Q220.2484,15.5094 219.9859,15.5094 Q219.7453,15.5094 219.6031,15.3672 Q219.4609,15.2359 219.3844,14.875 Q219.3516,14.6234 219.2203,14.4922 Q218.9906,14.2297 218.5641,14.0766 Q218.1375,13.9234 217.7,13.9234 Q217.1641,13.9234 216.7156,14.1531 Q216.2781,14.3828 215.9281,14.9078 Q215.5891,15.4328 215.5891,16.1547 L215.5891,16.9203 Q215.5891,17.7844 216.2125,18.3641 Q216.8359,18.9328 217.9516,18.9328 Q218.6078,18.9328 219.0672,18.7578 Q219.3406,18.6484 219.6359,18.3422 Q219.8219,18.1562 219.9203,18.1016 Q220.0297,18.0469 220.1719,18.0469 Q220.4016,18.0469 220.5766,18.2328 Q220.7625,18.4078 220.7625,18.6484 Q220.7625,18.8891 220.5219,19.1734 Q220.1719,19.5781 219.6141,19.8078 Q218.8594,20.125 217.9516,20.125 Q216.8906,20.125 216.0484,19.6875 Q215.3594,19.3375 214.8781,18.5937 Q214.3969,17.8391 214.3969,16.9422 L214.3969,16.1328 Q214.3969,15.2031 214.8234,14.4047 Q215.2609,13.5953 216.0266,13.1687 Q216.7922,12.7312 217.6562,12.7312 Q218.1703,12.7312 218.6187,12.8516 Q219.0781,12.9609 219.4609,13.2125 Z " fill="#000000"/><text fill="#000000" font-family="sans-serif" font-size="9.8" lengthAdjust="spacing" textLength="62.3" x="231.875" y="20.1578">CancelEntryUI</text><line style="stroke:#181818;stroke-width:0.3499999999999999;" x1="137.9" x2="365.4" y1="27.3" y2="27.3"/><text fill="#000000" font-family="sans-serif" font-size="9.8" lengthAdjust="spacing" textLength="144.9" x="141.4" y="40.6752">-CancelEntryController controller</text><line style="stroke:#181818;stroke-width:0.3499999999999999;" x1="137.9" x2="365.4" y1="45.9348" y2="45.9348"/><text fill="#000000" font-family="sans-serif" font-size="9.8" lengthAdjust="spacing" textLength="74.9" x="141.4" y="59.31">+CancelEntryUI()</text><text fill="#000000" font-family="sans-serif" font-size="9.8" lengthAdjust="spacing" textLength="48.3" x="141.4" y="72.3447">+void run()</text><text fill="#000000" font-family="sans-serif" font-size="9.8" lengthAdjust="spacing" textLength="178.5" x="141.4" y="85.3795">+List&lt;AgendaEntry&gt; getAgendaEntries()</text><text fill="#000000" font-family="sans-serif" font-size="9.8" lengthAdjust="spacing" textLength="212.1" x="141.4" y="98.4143">+void displayEntries(List&lt;AgendaEntry&gt; entries)</text><text fill="#000000" font-family="sans-serif" font-size="9.8" lengthAdjust="spacing" textLength="121.8" x="141.4" y="111.449">+AgendaEntry selectEntry()</text><text fill="#000000" font-family="sans-serif" font-size="9.8" lengthAdjust="spacing" textLength="220.5" x="141.4" y="124.4838">+boolean confirmCancellation(AgendaEntry entry)</text><text fill="#000000" font-family="sans-serif" font-size="9.8" lengthAdjust="spacing" textLength="158.2" x="141.4" y="137.5186">+void showResult(boolean success)</text></g><!--link CancelEntryController to AgendaEntry--><g id="link_CancelEntryController_AgendaEntry"><path codeLine="13" d="M197.841,270.921 C174.979,288.771 151.5425,307.0743 128.0435,325.4213 " fill="none" id="CancelEntryController-to-AgendaEntry" style="stroke:#181818;stroke-width:0.6999999999999998;"/><polygon fill="#181818" points="124.733,328.006,131.4219,326.336,127.4917,325.8521,127.9756,321.922,124.733,328.006" style="stroke:#181818;stroke-width:0.6999999999999998;"/></g><!--link CancelEntryController to Repositories--><g id="link_CancelEntryController_Repositories"><path codeLine="14" d="M251.65,270.921 C251.65,294.833 251.65,319.998 251.65,341.404 " fill="none" id="CancelEntryController-to-Repositories" style="stroke:#181818;stroke-width:0.6999999999999998;stroke-dasharray:7.0,7.0;"/><polygon fill="#181818" points="251.65,345.604,254.45,339.304,251.65,342.104,248.85,339.304,251.65,345.604" style="stroke:#181818;stroke-width:0.6999999999999998;"/><text fill="#000000" font-family="sans-serif" font-size="9.1" lengthAdjust="spacing" textLength="46.9" x="252.35" y="302.4198">repositories</text></g><!--link CancelEntryController to AgendaRepository--><g id="link_CancelEntryController_AgendaRepository"><path codeLine="15" d="M325.269,271.012 C371.238,297.311 421.75,326.2 421.75,326.2 C421.75,326.2 421.75,424.9 421.75,424.9 C421.75,424.9 401.7041,444.6525 381.5511,464.5185 " fill="none" id="CancelEntryController-to-AgendaRepository" style="stroke:#181818;stroke-width:0.6999999999999998;"/><polygon fill="#181818" points="378.56,467.467,385.0123,465.0383,381.0526,465.0099,381.081,461.0502,378.56,467.467" style="stroke:#181818;stroke-width:0.6999999999999998;"/></g><!--link CancelEntryUI to CancelEntryController--><g id="link_CancelEntryUI_CancelEntryController"><path codeLine="16" d="M251.65,142.975 C251.65,157.451 251.65,168.112 251.65,181.265 " fill="none" id="CancelEntryUI-to-CancelEntryController" style="stroke:#181818;stroke-width:0.6999999999999998;stroke-dasharray:7.0,7.0;"/><polygon fill="#181818" points="251.65,185.465,254.45,179.165,251.65,181.965,248.85,179.165,251.65,185.465" style="stroke:#181818;stroke-width:0.6999999999999998;"/></g><!--link Repositories to AgendaRepository--><g id="link_Repositories_AgendaRepository"><path codeLine="17" d="M275.205,405.398 C290.444,424.256 307.5723,445.4472 322.8043,464.2982 " fill="none" id="Repositories-to-AgendaRepository" style="stroke:#181818;stroke-width:0.6999999999999998;"/><polygon fill="#181818" points="325.444,467.565,323.6624,460.905,323.2443,464.8426,319.3066,464.4245,325.444,467.565" style="stroke:#181818;stroke-width:0.6999999999999998;"/><text fill="#000000" font-family="sans-serif" font-size="9.1" lengthAdjust="spacing" textLength="4.9" x="316.4073" y="459.7923">1</text></g><!--reverse link Repositories to Repositories--><g id="link_Repositories_Repositories"><path codeLine="18" d="M358.2241,364.3166 C372.7561,366.2276 378.35,369.6 378.35,375.55 C378.35,381.5 368.592,385.42 354.06,387.331 " fill="none" id="Repositories-backto-Repositories" style="stroke:#181818;stroke-width:0.6999999999999998;"/><polygon fill="#181818" points="354.06,363.769,359.9412,367.3665,357.5301,364.2253,360.6713,361.8143,354.06,363.769" style="stroke:#181818;stroke-width:0.6999999999999998;"/><text fill="#000000" font-family="sans-serif" font-size="9.1" lengthAdjust="spacing" textLength="34.3" x="382.55" y="379.4198">instance</text></g><!--SRC=[bLJ1JkCm4BtxAqPSQ8M2s2j2bL2NGoN4WS8766T8BLnFP4-eiXN_ZkCaZPDc5sqEbkqtysRcpJYN_aFRKZgvXprPKZj7UmHs5Oe1AQNwa0LkkJO83XLBMvZKmEzaJWTj2tYNngU8qHQvBX5ACdLp49Sp83dUKUAbZFJ-djdfjufneyXkzH-46o7MqYeq3vPTlQQmaZ7e8CjMS5-WpML4_c9rVRs2Pop9QoQdqSDjA6Ou_iXzyXq5UDr4ubbdCGhNC5tykZXd6rdTPTaqIsqzD_H2H67cOy5HGFYoAJl8QRZ6x6gMOx5imKVj-IuHT0K5yd0EMVMMRqG6fGKLwHANHR87RDQb-EeBIB4kxMsW3VCJBLyqX_6Arsjf6bC7kUJswkgJT0uU-GaFaM7B0UhpwMX2kWydfXuxSGNqT-ipoIXHxVWF9UAkGUPL-Bd-yVWS-rBdkgg6OPhsxNNJnu-IkCh-V_-YPwvzQMJTG-VUs2ATJrgPHnF-1st5Kp78lcktRnCsaZNPEL6Idkxey8o-ChpeENob57gVI3Tw6bsJGd6RxedqIPpg7LgwMDwUFxqlyGq0]--></g></svg>