<?xml version="1.0" encoding="us-ascii" standalone="no"?><svg xmlns="http://www.w3.org/2000/svg" xmlns:xlink="http://www.w3.org/1999/xlink" contentStyleType="text/css" height="851px" preserveAspectRatio="none" style="width:658px;height:851px;background:#FFFFFF;" version="1.1" viewBox="0 0 658 851" width="658px" zoomAndPan="magnify"><defs/><g><text fill="#000000" font-family="sans-serif" font-size="14" font-weight="bold" lengthAdjust="spacing" textLength="242" x="209" y="30.1074">System Sequence Diagram - US006</text><rect fill="#FFFFFF" height="626.1602" style="stroke:#181818;stroke-width:1.0;" width="10" x="81" y="133.2422"/><rect fill="#FFFFFF" height="31.291" style="stroke:#181818;stroke-width:1.0;" width="10" x="485" y="156.5332"/><rect fill="#FFFFFF" height="167.0859" style="stroke:#181818;stroke-width:1.0;" width="10" x="485" y="219.1152"/><rect fill="#FFFFFF" height="75.582" style="stroke:#181818;stroke-width:1.0;" width="10" x="485" y="417.4922"/><rect fill="#FFFFFF" height="31.291" style="stroke:#181818;stroke-width:1.0;" width="10" x="485" y="524.3652"/><rect fill="#FFFFFF" height="31.291" style="stroke:#181818;stroke-width:1.0;" width="10" x="485" y="586.9473"/><rect fill="#FFFFFF" height="31.291" style="stroke:#181818;stroke-width:1.0;" width="10" x="485" y="649.5293"/><rect fill="#FFFFFF" height="31.291" style="stroke:#181818;stroke-width:1.0;" width="10" x="485" y="712.1113"/><rect fill="none" height="472.9961" style="stroke:#000000;stroke-width:1.5;" width="641" x="10" y="278.4063"/><line style="stroke:#181818;stroke-width:0.5;stroke-dasharray:5.0,5.0;" x1="86" x2="86" y1="123.2422" y2="768.4023"/><line style="stroke:#181818;stroke-width:0.5;stroke-dasharray:5.0,5.0;" x1="490" x2="490" y1="123.2422" y2="768.4023"/><text fill="#000000" font-family="sans-serif" font-size="14" lengthAdjust="spacing" textLength="126" x="20" y="119.7285">Fleet Manager (FM)</text><ellipse cx="86" cy="53.1211" fill="#E3E3E3" rx="8" ry="8" style="stroke:#181818;stroke-width:0.5;"/><path d="M86,61.1211 L86,88.1211 M73,69.1211 L99,69.1211 M86,88.1211 L73,103.1211 M86,88.1211 L99,103.1211 " fill="none" style="stroke:#181818;stroke-width:0.5;"/><text fill="#000000" font-family="sans-serif" font-size="14" lengthAdjust="spacing" textLength="126" x="20" y="782.5098">Fleet Manager (FM)</text><ellipse cx="86" cy="794.5234" fill="#E3E3E3" rx="8" ry="8" style="stroke:#181818;stroke-width:0.5;"/><path d="M86,802.5234 L86,829.5234 M73,810.5234 L99,810.5234 M86,829.5234 L73,844.5234 M86,829.5234 L99,844.5234 " fill="none" style="stroke:#181818;stroke-width:0.5;"/><rect fill="#E3E3E3" height="32.6211" rx="2.5" ry="2.5" style="stroke:#181818;stroke-width:0.5;" width="64" x="458" y="89.6211"/><text fill="#000000" font-family="sans-serif" font-size="14" lengthAdjust="spacing" textLength="50" x="465" y="111.7285">:System</text><rect fill="#E3E3E3" height="32.6211" rx="2.5" ry="2.5" style="stroke:#181818;stroke-width:0.5;" width="64" x="458" y="767.4023"/><text fill="#000000" font-family="sans-serif" font-size="14" lengthAdjust="spacing" textLength="50" x="465" y="789.5098">:System</text><rect fill="#FFFFFF" height="626.1602" style="stroke:#181818;stroke-width:1.0;" width="10" x="81" y="133.2422"/><rect fill="#FFFFFF" height="31.291" style="stroke:#181818;stroke-width:1.0;" width="10" x="485" y="156.5332"/><rect fill="#FFFFFF" height="167.0859" style="stroke:#181818;stroke-width:1.0;" width="10" x="485" y="219.1152"/><rect fill="#FFFFFF" height="75.582" style="stroke:#181818;stroke-width:1.0;" width="10" x="485" y="417.4922"/><rect fill="#FFFFFF" height="31.291" style="stroke:#181818;stroke-width:1.0;" width="10" x="485" y="524.3652"/><rect fill="#FFFFFF" height="31.291" style="stroke:#181818;stroke-width:1.0;" width="10" x="485" y="586.9473"/><rect fill="#FFFFFF" height="31.291" style="stroke:#181818;stroke-width:1.0;" width="10" x="485" y="649.5293"/><rect fill="#FFFFFF" height="31.291" style="stroke:#181818;stroke-width:1.0;" width="10" x="485" y="712.1113"/><polygon fill="#181818" points="473,152.5332,483,156.5332,473,160.5332,477,156.5332" style="stroke:#181818;stroke-width:1.0;"/><line style="stroke:#181818;stroke-width:1.0;" x1="91" x2="479" y1="156.5332" y2="156.5332"/><text fill="#000000" font-family="sans-serif" font-size="13" font-weight="bold" lengthAdjust="spacing" textLength="7" x="98" y="151.2705">1</text><text fill="#000000" font-family="sans-serif" font-size="13" lengthAdjust="spacing" textLength="198" x="109" y="151.2705">Requests to register a new vehicle</text><polygon fill="#181818" points="102,183.8242,92,187.8242,102,191.8242,98,187.8242" style="stroke:#181818;stroke-width:1.0;"/><line style="stroke:#181818;stroke-width:1.0;stroke-dasharray:2.0,2.0;" x1="96" x2="489" y1="187.8242" y2="187.8242"/><text fill="#000000" font-family="sans-serif" font-size="13" font-weight="bold" lengthAdjust="spacing" textLength="7" x="108" y="182.5615">2</text><text fill="#000000" font-family="sans-serif" font-size="13" lengthAdjust="spacing" textLength="130" x="119" y="182.5615">Requests vehicle plate</text><polygon fill="#181818" points="473,215.1152,483,219.1152,473,223.1152,477,219.1152" style="stroke:#181818;stroke-width:1.0;"/><line style="stroke:#181818;stroke-width:1.0;" x1="91" x2="479" y1="219.1152" y2="219.1152"/><text fill="#000000" font-family="sans-serif" font-size="13" font-weight="bold" lengthAdjust="spacing" textLength="7" x="98" y="213.8525">3</text><text fill="#000000" font-family="sans-serif" font-size="13" lengthAdjust="spacing" textLength="110" x="109" y="213.8525">Types vehicle plate</text><line style="stroke:#181818;stroke-width:1.0;" x1="495" x2="537" y1="250.4063" y2="250.4063"/><line style="stroke:#181818;stroke-width:1.0;" x1="537" x2="537" y1="250.4063" y2="263.4063"/><line style="stroke:#181818;stroke-width:1.0;" x1="496" x2="537" y1="263.4063" y2="263.4063"/><polygon fill="#181818" points="506,259.4063,496,263.4063,506,267.4063,502,263.4063" style="stroke:#181818;stroke-width:1.0;"/><text fill="#000000" font-family="sans-serif" font-size="13" font-weight="bold" lengthAdjust="spacing" textLength="7" x="502" y="245.1436">4</text><text fill="#000000" font-family="sans-serif" font-size="13" lengthAdjust="spacing" textLength="129" x="513" y="245.1436">Validates vehicle plate</text><path d="M10,278.4063 L71,278.4063 L71,287.6973 L61,297.6973 L10,297.6973 L10,278.4063 " fill="#EEEEEE" style="stroke:#000000;stroke-width:1.5;"/><rect fill="none" height="472.9961" style="stroke:#000000;stroke-width:1.5;" width="641" x="10" y="278.4063"/><text fill="#000000" font-family="sans-serif" font-size="13" font-weight="bold" lengthAdjust="spacing" textLength="16" x="25" y="293.4346">alt</text><text fill="#000000" font-family="sans-serif" font-size="11" font-weight="bold" lengthAdjust="spacing" textLength="82" x="86" y="292.2764">[vehicle != null]</text><polygon fill="#181818" points="102,316.9883,92,320.9883,102,324.9883,98,320.9883" style="stroke:#181818;stroke-width:1.0;"/><line style="stroke:#181818;stroke-width:1.0;stroke-dasharray:2.0,2.0;" x1="96" x2="484" y1="320.9883" y2="320.9883"/><text fill="#000000" font-family="sans-serif" font-size="13" font-weight="bold" lengthAdjust="spacing" textLength="7" x="108" y="315.7256">5</text><text fill="#000000" font-family="sans-serif" font-size="13" lengthAdjust="spacing" textLength="197" x="119" y="315.7256">Notifies that vehicle already exists</text><line style="stroke:#000000;stroke-width:1.0;stroke-dasharray:2.0,2.0;" x1="10" x2="651" y1="329.9883" y2="329.9883"/><text fill="#000000" font-family="sans-serif" font-size="11" font-weight="bold" lengthAdjust="spacing" textLength="85" x="15" y="341.8584">[vehicle == null]</text><polygon fill="#181818" points="102,382.2012,92,386.2012,102,390.2012,98,386.2012" style="stroke:#181818;stroke-width:1.0;"/><line style="stroke:#181818;stroke-width:1.0;stroke-dasharray:2.0,2.0;" x1="96" x2="489" y1="386.2012" y2="386.2012"/><text fill="#000000" font-family="sans-serif" font-size="13" font-weight="bold" lengthAdjust="spacing" textLength="7" x="108" y="372.293">6</text><text fill="#000000" font-family="sans-serif" font-size="13" lengthAdjust="spacing" textLength="355" x="119" y="363.6475">Requests vehicle data (tare weight, gross weight, current Km,</text><text fill="#000000" font-family="sans-serif" font-size="13" lengthAdjust="spacing" textLength="317" x="119" y="380.9385">register date, acquisition date, maintenance frequency)</text><polygon fill="#181818" points="473,413.4922,483,417.4922,473,421.4922,477,417.4922" style="stroke:#181818;stroke-width:1.0;"/><line style="stroke:#181818;stroke-width:1.0;" x1="91" x2="479" y1="417.4922" y2="417.4922"/><text fill="#000000" font-family="sans-serif" font-size="13" font-weight="bold" lengthAdjust="spacing" textLength="7" x="98" y="412.2295">7</text><text fill="#000000" font-family="sans-serif" font-size="13" lengthAdjust="spacing" textLength="125" x="109" y="412.2295">Types requested data</text><line style="stroke:#181818;stroke-width:1.0;" x1="495" x2="537" y1="448.7832" y2="448.7832"/><line style="stroke:#181818;stroke-width:1.0;" x1="537" x2="537" y1="448.7832" y2="461.7832"/><line style="stroke:#181818;stroke-width:1.0;" x1="496" x2="537" y1="461.7832" y2="461.7832"/><polygon fill="#181818" points="506,457.7832,496,461.7832,506,465.7832,502,461.7832" style="stroke:#181818;stroke-width:1.0;"/><text fill="#000000" font-family="sans-serif" font-size="13" font-weight="bold" lengthAdjust="spacing" textLength="7" x="502" y="443.5205">8</text><text fill="#000000" font-family="sans-serif" font-size="13" lengthAdjust="spacing" textLength="126" x="513" y="443.5205">Validates vehicle data</text><polygon fill="#181818" points="102,489.0742,92,493.0742,102,497.0742,98,493.0742" style="stroke:#181818;stroke-width:1.0;"/><line style="stroke:#181818;stroke-width:1.0;stroke-dasharray:2.0,2.0;" x1="96" x2="489" y1="493.0742" y2="493.0742"/><text fill="#000000" font-family="sans-serif" font-size="13" font-weight="bold" lengthAdjust="spacing" textLength="7" x="108" y="487.8115">9</text><text fill="#000000" font-family="sans-serif" font-size="13" lengthAdjust="spacing" textLength="120" x="119" y="487.8115">Asks to select brand</text><polygon fill="#181818" points="473,520.3652,483,524.3652,473,528.3652,477,524.3652" style="stroke:#181818;stroke-width:1.0;"/><line style="stroke:#181818;stroke-width:1.0;" x1="91" x2="479" y1="524.3652" y2="524.3652"/><text fill="#000000" font-family="sans-serif" font-size="13" font-weight="bold" lengthAdjust="spacing" textLength="14" x="98" y="519.1025">10</text><text fill="#000000" font-family="sans-serif" font-size="13" lengthAdjust="spacing" textLength="80" x="116" y="519.1025">Selects brand</text><polygon fill="#181818" points="102,551.6563,92,555.6563,102,559.6563,98,555.6563" style="stroke:#181818;stroke-width:1.0;"/><line style="stroke:#181818;stroke-width:1.0;stroke-dasharray:2.0,2.0;" x1="96" x2="489" y1="555.6563" y2="555.6563"/><text fill="#000000" font-family="sans-serif" font-size="13" font-weight="bold" lengthAdjust="spacing" textLength="14" x="108" y="550.3936">11</text><text fill="#000000" font-family="sans-serif" font-size="13" lengthAdjust="spacing" textLength="123" x="126" y="550.3936">Asks to select model</text><polygon fill="#181818" points="473,582.9473,483,586.9473,473,590.9473,477,586.9473" style="stroke:#181818;stroke-width:1.0;"/><line style="stroke:#181818;stroke-width:1.0;" x1="91" x2="479" y1="586.9473" y2="586.9473"/><text fill="#000000" font-family="sans-serif" font-size="13" font-weight="bold" lengthAdjust="spacing" textLength="14" x="98" y="581.6846">12</text><text fill="#000000" font-family="sans-serif" font-size="13" lengthAdjust="spacing" textLength="83" x="116" y="581.6846">Selects model</text><polygon fill="#181818" points="102,614.2383,92,618.2383,102,622.2383,98,618.2383" style="stroke:#181818;stroke-width:1.0;"/><line style="stroke:#181818;stroke-width:1.0;stroke-dasharray:2.0,2.0;" x1="96" x2="489" y1="618.2383" y2="618.2383"/><text fill="#000000" font-family="sans-serif" font-size="13" font-weight="bold" lengthAdjust="spacing" textLength="14" x="108" y="612.9756">13</text><text fill="#000000" font-family="sans-serif" font-size="13" lengthAdjust="spacing" textLength="113" x="126" y="612.9756">Asks to select type</text><polygon fill="#181818" points="473,645.5293,483,649.5293,473,653.5293,477,649.5293" style="stroke:#181818;stroke-width:1.0;"/><line style="stroke:#181818;stroke-width:1.0;" x1="91" x2="479" y1="649.5293" y2="649.5293"/><text fill="#000000" font-family="sans-serif" font-size="13" font-weight="bold" lengthAdjust="spacing" textLength="14" x="98" y="644.2666">14</text><text fill="#000000" font-family="sans-serif" font-size="13" lengthAdjust="spacing" textLength="73" x="116" y="644.2666">Selects type</text><polygon fill="#181818" points="102,676.8203,92,680.8203,102,684.8203,98,680.8203" style="stroke:#181818;stroke-width:1.0;"/><line style="stroke:#181818;stroke-width:1.0;stroke-dasharray:2.0,2.0;" x1="96" x2="489" y1="680.8203" y2="680.8203"/><text fill="#000000" font-family="sans-serif" font-size="13" font-weight="bold" lengthAdjust="spacing" textLength="14" x="108" y="675.5576">15</text><text fill="#000000" font-family="sans-serif" font-size="13" lengthAdjust="spacing" textLength="238" x="126" y="675.5576">Shows all data and requests confirmation</text><polygon fill="#181818" points="473,708.1113,483,712.1113,473,716.1113,477,712.1113" style="stroke:#181818;stroke-width:1.0;"/><line style="stroke:#181818;stroke-width:1.0;" x1="91" x2="479" y1="712.1113" y2="712.1113"/><text fill="#000000" font-family="sans-serif" font-size="13" font-weight="bold" lengthAdjust="spacing" textLength="14" x="98" y="706.8486">16</text><text fill="#000000" font-family="sans-serif" font-size="13" lengthAdjust="spacing" textLength="80" x="116" y="706.8486">Confirms data</text><polygon fill="#181818" points="102,739.4023,92,743.4023,102,747.4023,98,743.4023" style="stroke:#181818;stroke-width:1.0;"/><line style="stroke:#181818;stroke-width:1.0;stroke-dasharray:2.0,2.0;" x1="96" x2="489" y1="743.4023" y2="743.4023"/><text fill="#000000" font-family="sans-serif" font-size="13" font-weight="bold" lengthAdjust="spacing" textLength="14" x="108" y="738.1396">17</text><text fill="#000000" font-family="sans-serif" font-size="13" lengthAdjust="spacing" textLength="220" x="126" y="738.1396">Notifies successful vehicle registration</text><!--SRC=[dPCnRzj038Nt-nMifmImWKmT0gH0qS9BuGvLswaBSwAaWqztof6AgtzVId8KGRPRfvxaEtvyJuyKxrreC64DTGpHLYdM199QCZpTD6ZtM58cdIT8P0L3wUS5N64U3owKKA1dCWQjn0IhhISIs65GEi7DTdUx0cJOxenougnhC0YixhEEXUhXRdmqs4eCRVr8oHXnehhZ1MJqr5Am19yTbhts1dvaTtVlUqdtZ49zTxFTmUR32t8Fttg8XK6Y-Y-T7YT027I0PwgSrPUPyAE18xlHDjfirk88GEErskIq11VItxk6bj0bhHds4xtBjMI96lGo7RrxWD1wRq1_IxzVexZ2AIyLlXBe4s7U0VtM37W0IGSstJ_yfUD90keFuKOm4Hp8bPMieKoHUVfdsvH81_obNiElC0NVlzSQq3wrZfsu68udDReW5B2VRf76ENUtvap6lRspEQVH8-M3kQ5koPwaVIxiYLw6y97tmnOnUVqEu35Xo8V2gqnc0yKpx1pq3yqwvkJVhlcA_OUcQBflbvoeQnIpAXvO5zIFUwK1lKoJmSPGk5HZlomNR5nbxDFOXozlnucpsPV4hRN4NBH-sfDnfzDexDG2XVmF]--></g></svg>