<?xml version="1.0" encoding="us-ascii" standalone="no"?><svg xmlns="http://www.w3.org/2000/svg" xmlns:xlink="http://www.w3.org/1999/xlink" contentStyleType="text/css" height="684px" preserveAspectRatio="none" style="width:583px;height:684px;background:#FFFFFF;" version="1.1" viewBox="0 0 583 684" width="583px" zoomAndPan="magnify"><defs/><g><rect fill="#FFFFFF" height="474.7539" style="stroke:#181818;stroke-width:1.0;" width="10" x="366" y="116.9121"/><rect fill="none" height="452.7539" style="stroke:#000000;stroke-width:1.5;" width="567" x="10" y="131.9121"/><rect fill="none" height="187.0859" style="stroke:#000000;stroke-width:1.5;" width="547" x="20" y="158.2031"/><rect fill="none" height="187.0859" style="stroke:#000000;stroke-width:1.5;" width="502" x="20" y="390.5801"/><line style="stroke:#181818;stroke-width:0.5;stroke-dasharray:5.0,5.0;" x1="143" x2="143" y1="83.6211" y2="601.666"/><line style="stroke:#181818;stroke-width:0.5;stroke-dasharray:5.0,5.0;" x1="371" x2="371" y1="83.6211" y2="601.666"/><text fill="#000000" font-family="sans-serif" font-size="14" lengthAdjust="spacing" textLength="220" x="30" y="80.1074">Human Resources Manager (HRM)</text><ellipse cx="143" cy="13.5" fill="#E2E2F0" rx="8" ry="8" style="stroke:#181818;stroke-width:0.5;"/><path d="M143,21.5 L143,48.5 M130,29.5 L156,29.5 M143,48.5 L130,63.5 M143,48.5 L156,63.5 " fill="none" style="stroke:#181818;stroke-width:0.5;"/><text fill="#000000" font-family="sans-serif" font-size="14" lengthAdjust="spacing" textLength="220" x="30" y="615.7734">Human Resources Manager (HRM)</text><ellipse cx="143" cy="627.7871" fill="#E2E2F0" rx="8" ry="8" style="stroke:#181818;stroke-width:0.5;"/><path d="M143,635.7871 L143,662.7871 M130,643.7871 L156,643.7871 M143,662.7871 L130,677.7871 M143,662.7871 L156,677.7871 " fill="none" style="stroke:#181818;stroke-width:0.5;"/><rect fill="#E2E2F0" height="32.6211" rx="2.5" ry="2.5" style="stroke:#181818;stroke-width:0.5;" width="60" x="341" y="50"/><text fill="#000000" font-family="sans-serif" font-size="14" lengthAdjust="spacing" textLength="46" x="348" y="72.1074">System</text><rect fill="#E2E2F0" height="32.6211" rx="2.5" ry="2.5" style="stroke:#181818;stroke-width:0.5;" width="60" x="341" y="600.666"/><text fill="#000000" font-family="sans-serif" font-size="14" lengthAdjust="spacing" textLength="46" x="348" y="622.7734">System</text><rect fill="#FFFFFF" height="474.7539" style="stroke:#181818;stroke-width:1.0;" width="10" x="366" y="116.9121"/><polygon fill="#181818" points="354,112.9121,364,116.9121,354,120.9121,358,116.9121" style="stroke:#181818;stroke-width:1.0;"/><line style="stroke:#181818;stroke-width:1.0;" x1="143" x2="360" y1="116.9121" y2="116.9121"/><text fill="#000000" font-family="sans-serif" font-size="13" font-weight="bold" lengthAdjust="spacing" textLength="7" x="150" y="111.6494">1</text><text fill="#000000" font-family="sans-serif" font-size="13" lengthAdjust="spacing" textLength="131" x="161" y="111.6494">Request to register job</text><path d="M10,131.9121 L83,131.9121 L83,141.2031 L73,151.2031 L10,151.2031 L10,131.9121 " fill="#EEEEEE" style="stroke:#000000;stroke-width:1.5;"/><rect fill="none" height="452.7539" style="stroke:#000000;stroke-width:1.5;" width="567" x="10" y="131.9121"/><text fill="#000000" font-family="sans-serif" font-size="13" font-weight="bold" lengthAdjust="spacing" textLength="28" x="25" y="146.9404">loop</text><text fill="#000000" font-family="sans-serif" font-size="11" font-weight="bold" lengthAdjust="spacing" textLength="177" x="98" y="145.7822">[while HRM provides job details]</text><path d="M20,158.2031 L81,158.2031 L81,167.4941 L71,177.4941 L20,177.4941 L20,158.2031 " fill="#EEEEEE" style="stroke:#000000;stroke-width:1.5;"/><rect fill="none" height="187.0859" style="stroke:#000000;stroke-width:1.5;" width="547" x="20" y="158.2031"/><text fill="#000000" font-family="sans-serif" font-size="13" font-weight="bold" lengthAdjust="spacing" textLength="16" x="35" y="173.2314">alt</text><text fill="#000000" font-family="sans-serif" font-size="11" font-weight="bold" lengthAdjust="spacing" textLength="82" x="96" y="172.0732">[Valid request]</text><line style="stroke:#181818;stroke-width:1.0;" x1="376" x2="418" y1="200.7852" y2="200.7852"/><line style="stroke:#181818;stroke-width:1.0;" x1="418" x2="418" y1="200.7852" y2="213.7852"/><line style="stroke:#181818;stroke-width:1.0;" x1="377" x2="418" y1="213.7852" y2="213.7852"/><polygon fill="#181818" points="387,209.7852,377,213.7852,387,217.7852,383,213.7852" style="stroke:#181818;stroke-width:1.0;"/><text fill="#000000" font-family="sans-serif" font-size="13" font-weight="bold" lengthAdjust="spacing" textLength="7" x="383" y="195.5225">2</text><text fill="#000000" font-family="sans-serif" font-size="13" lengthAdjust="spacing" textLength="94" x="394" y="195.5225">Validate request</text><line style="stroke:#181818;stroke-width:1.0;" x1="376" x2="418" y1="245.0762" y2="245.0762"/><line style="stroke:#181818;stroke-width:1.0;" x1="418" x2="418" y1="245.0762" y2="258.0762"/><line style="stroke:#181818;stroke-width:1.0;" x1="377" x2="418" y1="258.0762" y2="258.0762"/><polygon fill="#181818" points="387,254.0762,377,258.0762,387,262.0762,383,258.0762" style="stroke:#181818;stroke-width:1.0;"/><text fill="#000000" font-family="sans-serif" font-size="13" font-weight="bold" lengthAdjust="spacing" textLength="7" x="383" y="239.8135">3</text><text fill="#000000" font-family="sans-serif" font-size="13" lengthAdjust="spacing" textLength="161" x="394" y="239.8135">Display job registration form</text><polygon fill="#181818" points="154,285.3672,144,289.3672,154,293.3672,150,289.3672" style="stroke:#181818;stroke-width:1.0;"/><line style="stroke:#181818;stroke-width:1.0;" x1="148" x2="365" y1="289.3672" y2="289.3672"/><text fill="#000000" font-family="sans-serif" font-size="13" font-weight="bold" lengthAdjust="spacing" textLength="7" x="160" y="284.1045">4</text><text fill="#000000" font-family="sans-serif" font-size="13" lengthAdjust="spacing" textLength="105" x="171" y="284.1045">Provide job details</text><line style="stroke:#000000;stroke-width:1.0;stroke-dasharray:2.0,2.0;" x1="20" x2="567" y1="298.3672" y2="298.3672"/><text fill="#000000" font-family="sans-serif" font-size="11" font-weight="bold" lengthAdjust="spacing" textLength="90" x="25" y="310.2373">[Invalid request]</text><polygon fill="#181818" points="154,333.2891,144,337.2891,154,341.2891,150,337.2891" style="stroke:#181818;stroke-width:1.0;"/><line style="stroke:#181818;stroke-width:1.0;stroke-dasharray:2.0,2.0;" x1="148" x2="365" y1="337.2891" y2="337.2891"/><text fill="#000000" font-family="sans-serif" font-size="13" font-weight="bold" lengthAdjust="spacing" textLength="7" x="160" y="332.0264">5</text><text fill="#000000" font-family="sans-serif" font-size="13" lengthAdjust="spacing" textLength="119" x="171" y="332.0264">Notify invalid request</text><polygon fill="#181818" points="354,371.5801,364,375.5801,354,379.5801,358,375.5801" style="stroke:#181818;stroke-width:1.0;"/><line style="stroke:#181818;stroke-width:1.0;" x1="143" x2="360" y1="375.5801" y2="375.5801"/><text fill="#000000" font-family="sans-serif" font-size="13" font-weight="bold" lengthAdjust="spacing" textLength="7" x="150" y="370.3174">6</text><text fill="#000000" font-family="sans-serif" font-size="13" lengthAdjust="spacing" textLength="105" x="161" y="370.3174">Provide job details</text><path d="M20,390.5801 L81,390.5801 L81,399.8711 L71,409.8711 L20,409.8711 L20,390.5801 " fill="#EEEEEE" style="stroke:#000000;stroke-width:1.5;"/><rect fill="none" height="187.0859" style="stroke:#000000;stroke-width:1.5;" width="502" x="20" y="390.5801"/><text fill="#000000" font-family="sans-serif" font-size="13" font-weight="bold" lengthAdjust="spacing" textLength="16" x="35" y="405.6084">alt</text><text fill="#000000" font-family="sans-serif" font-size="11" font-weight="bold" lengthAdjust="spacing" textLength="95" x="96" y="404.4502">[Valid job details]</text><line style="stroke:#181818;stroke-width:1.0;" x1="376" x2="418" y1="433.1621" y2="433.1621"/><line style="stroke:#181818;stroke-width:1.0;" x1="418" x2="418" y1="433.1621" y2="446.1621"/><line style="stroke:#181818;stroke-width:1.0;" x1="377" x2="418" y1="446.1621" y2="446.1621"/><polygon fill="#181818" points="387,442.1621,377,446.1621,387,450.1621,383,446.1621" style="stroke:#181818;stroke-width:1.0;"/><text fill="#000000" font-family="sans-serif" font-size="13" font-weight="bold" lengthAdjust="spacing" textLength="7" x="383" y="427.8994">7</text><text fill="#000000" font-family="sans-serif" font-size="13" lengthAdjust="spacing" textLength="110" x="394" y="427.8994">Validate job details</text><line style="stroke:#181818;stroke-width:1.0;" x1="376" x2="418" y1="477.4531" y2="477.4531"/><line style="stroke:#181818;stroke-width:1.0;" x1="418" x2="418" y1="477.4531" y2="490.4531"/><line style="stroke:#181818;stroke-width:1.0;" x1="377" x2="418" y1="490.4531" y2="490.4531"/><polygon fill="#181818" points="387,486.4531,377,490.4531,387,494.4531,383,490.4531" style="stroke:#181818;stroke-width:1.0;"/><text fill="#000000" font-family="sans-serif" font-size="13" font-weight="bold" lengthAdjust="spacing" textLength="7" x="383" y="472.1904">8</text><text fill="#000000" font-family="sans-serif" font-size="13" lengthAdjust="spacing" textLength="116" x="394" y="472.1904">Save job information</text><polygon fill="#181818" points="154,517.7441,144,521.7441,154,525.7441,150,521.7441" style="stroke:#181818;stroke-width:1.0;"/><line style="stroke:#181818;stroke-width:1.0;stroke-dasharray:2.0,2.0;" x1="148" x2="365" y1="521.7441" y2="521.7441"/><text fill="#000000" font-family="sans-serif" font-size="13" font-weight="bold" lengthAdjust="spacing" textLength="7" x="160" y="516.4814">9</text><text fill="#000000" font-family="sans-serif" font-size="13" lengthAdjust="spacing" textLength="188" x="171" y="516.4814">Notify successful job registration</text><line style="stroke:#000000;stroke-width:1.0;stroke-dasharray:2.0,2.0;" x1="20" x2="522" y1="530.7441" y2="530.7441"/><text fill="#000000" font-family="sans-serif" font-size="11" font-weight="bold" lengthAdjust="spacing" textLength="103" x="25" y="542.6143">[Invalid job details]</text><polygon fill="#181818" points="154,565.666,144,569.666,154,573.666,150,569.666" style="stroke:#181818;stroke-width:1.0;"/><line style="stroke:#181818;stroke-width:1.0;stroke-dasharray:2.0,2.0;" x1="148" x2="365" y1="569.666" y2="569.666"/><text fill="#000000" font-family="sans-serif" font-size="13" font-weight="bold" lengthAdjust="spacing" textLength="14" x="160" y="564.4033">10</text><text fill="#000000" font-family="sans-serif" font-size="13" lengthAdjust="spacing" textLength="135" x="178" y="564.4033">Notify invalid job details</text><!--SRC=[XLB1JiCm3BtdAwoUuC0FxC29mpWCeKtYxZNkC4hZaZX5_NlIb8crq2qdotv-x_afMAi4gBQfHGzxYf92JH5swF540Uws-zrz1HWX5yPq69Hhxj0hL8SXAhLbE9K6aufFxP62oN1uUFmPR3BpPwAee0A1JfoR0JxaQB1Mxb7fpE14ElXwPqUZ87H1UhRPJyQ29KLsqQ1JU4F7DbCLLWFvJGINcWKpSb-7FN7i70v5Ol8MK5ayD1BQnKxsj87NoTJC4xb8yEpxLLldvHTHRWRW1PIyDSlC_jFvlVsoU-F-sz03zXEC_NXrkV-Q_PZg_4jYazoVsEPHh4cln36BD4TIOh6q-2NV]--></g></svg>