<?xml version="1.0" encoding="us-ascii" standalone="no"?><svg xmlns="http://www.w3.org/2000/svg" xmlns:xlink="http://www.w3.org/1999/xlink" contentStyleType="text/css" height="684px" preserveAspectRatio="none" style="width:561px;height:684px;background:#FFFFFF;" version="1.1" viewBox="0 0 561 684" width="561px" zoomAndPan="magnify"><defs/><g><rect fill="#FFFFFF" height="474.7539" style="stroke:#181818;stroke-width:1.0;" width="10" x="355" y="116.9121"/><rect fill="none" height="452.7539" style="stroke:#000000;stroke-width:1.5;" width="545" x="10" y="131.9121"/><rect fill="none" height="187.0859" style="stroke:#000000;stroke-width:1.5;" width="525" x="20" y="158.2031"/><rect fill="none" height="187.0859" style="stroke:#000000;stroke-width:1.5;" width="480" x="20" y="390.5801"/><line style="stroke:#181818;stroke-width:0.5;stroke-dasharray:5.0,5.0;" x1="143" x2="143" y1="83.6211" y2="601.666"/><line style="stroke:#181818;stroke-width:0.5;stroke-dasharray:5.0,5.0;" x1="360" x2="360" y1="83.6211" y2="601.666"/><text fill="#000000" font-family="sans-serif" font-size="14" lengthAdjust="spacing" textLength="220" x="30" y="80.1074">Human Resources Manager (HRM)</text><ellipse cx="143" cy="13.5" fill="#E2E2F0" rx="8" ry="8" style="stroke:#181818;stroke-width:0.5;"/><path d="M143,21.5 L143,48.5 M130,29.5 L156,29.5 M143,48.5 L130,63.5 M143,48.5 L156,63.5 " fill="none" style="stroke:#181818;stroke-width:0.5;"/><text fill="#000000" font-family="sans-serif" font-size="14" lengthAdjust="spacing" textLength="220" x="30" y="615.7734">Human Resources Manager (HRM)</text><ellipse cx="143" cy="627.7871" fill="#E2E2F0" rx="8" ry="8" style="stroke:#181818;stroke-width:0.5;"/><path d="M143,635.7871 L143,662.7871 M130,643.7871 L156,643.7871 M143,662.7871 L130,677.7871 M143,662.7871 L156,677.7871 " fill="none" style="stroke:#181818;stroke-width:0.5;"/><rect fill="#E2E2F0" height="32.6211" rx="2.5" ry="2.5" style="stroke:#181818;stroke-width:0.5;" width="60" x="330" y="50"/><text fill="#000000" font-family="sans-serif" font-size="14" lengthAdjust="spacing" textLength="46" x="337" y="72.1074">System</text><rect fill="#E2E2F0" height="32.6211" rx="2.5" ry="2.5" style="stroke:#181818;stroke-width:0.5;" width="60" x="330" y="600.666"/><text fill="#000000" font-family="sans-serif" font-size="14" lengthAdjust="spacing" textLength="46" x="337" y="622.7734">System</text><rect fill="#FFFFFF" height="474.7539" style="stroke:#181818;stroke-width:1.0;" width="10" x="355" y="116.9121"/><polygon fill="#181818" points="343,112.9121,353,116.9121,343,120.9121,347,116.9121" style="stroke:#181818;stroke-width:1.0;"/><line style="stroke:#181818;stroke-width:1.0;" x1="143" x2="349" y1="116.9121" y2="116.9121"/><text fill="#000000" font-family="sans-serif" font-size="13" lengthAdjust="spacing" textLength="131" x="150" y="111.6494">Request to register job</text><path d="M10,131.9121 L83,131.9121 L83,141.2031 L73,151.2031 L10,151.2031 L10,131.9121 " fill="#EEEEEE" style="stroke:#000000;stroke-width:1.5;"/><rect fill="none" height="452.7539" style="stroke:#000000;stroke-width:1.5;" width="545" x="10" y="131.9121"/><text fill="#000000" font-family="sans-serif" font-size="13" font-weight="bold" lengthAdjust="spacing" textLength="28" x="25" y="146.9404">loop</text><text fill="#000000" font-family="sans-serif" font-size="11" font-weight="bold" lengthAdjust="spacing" textLength="177" x="98" y="145.7822">[while HRM provides job details]</text><path d="M20,158.2031 L81,158.2031 L81,167.4941 L71,177.4941 L20,177.4941 L20,158.2031 " fill="#EEEEEE" style="stroke:#000000;stroke-width:1.5;"/><rect fill="none" height="187.0859" style="stroke:#000000;stroke-width:1.5;" width="525" x="20" y="158.2031"/><text fill="#000000" font-family="sans-serif" font-size="13" font-weight="bold" lengthAdjust="spacing" textLength="16" x="35" y="173.2314">alt</text><text fill="#000000" font-family="sans-serif" font-size="11" font-weight="bold" lengthAdjust="spacing" textLength="82" x="96" y="172.0732">[Valid request]</text><line style="stroke:#181818;stroke-width:1.0;" x1="365" x2="407" y1="200.7852" y2="200.7852"/><line style="stroke:#181818;stroke-width:1.0;" x1="407" x2="407" y1="200.7852" y2="213.7852"/><line style="stroke:#181818;stroke-width:1.0;" x1="366" x2="407" y1="213.7852" y2="213.7852"/><polygon fill="#181818" points="376,209.7852,366,213.7852,376,217.7852,372,213.7852" style="stroke:#181818;stroke-width:1.0;"/><text fill="#000000" font-family="sans-serif" font-size="13" lengthAdjust="spacing" textLength="94" x="372" y="195.5225">Validate request</text><line style="stroke:#181818;stroke-width:1.0;" x1="365" x2="407" y1="245.0762" y2="245.0762"/><line style="stroke:#181818;stroke-width:1.0;" x1="407" x2="407" y1="245.0762" y2="258.0762"/><line style="stroke:#181818;stroke-width:1.0;" x1="366" x2="407" y1="258.0762" y2="258.0762"/><polygon fill="#181818" points="376,254.0762,366,258.0762,376,262.0762,372,258.0762" style="stroke:#181818;stroke-width:1.0;"/><text fill="#000000" font-family="sans-serif" font-size="13" lengthAdjust="spacing" textLength="161" x="372" y="239.8135">Display job registration form</text><polygon fill="#181818" points="154,285.3672,144,289.3672,154,293.3672,150,289.3672" style="stroke:#181818;stroke-width:1.0;"/><line style="stroke:#181818;stroke-width:1.0;" x1="148" x2="354" y1="289.3672" y2="289.3672"/><text fill="#000000" font-family="sans-serif" font-size="13" lengthAdjust="spacing" textLength="105" x="160" y="284.1045">Provide job details</text><line style="stroke:#000000;stroke-width:1.0;stroke-dasharray:2.0,2.0;" x1="20" x2="545" y1="298.3672" y2="298.3672"/><text fill="#000000" font-family="sans-serif" font-size="11" font-weight="bold" lengthAdjust="spacing" textLength="90" x="25" y="310.2373">[Invalid request]</text><polygon fill="#181818" points="154,333.2891,144,337.2891,154,341.2891,150,337.2891" style="stroke:#181818;stroke-width:1.0;"/><line style="stroke:#181818;stroke-width:1.0;stroke-dasharray:2.0,2.0;" x1="148" x2="354" y1="337.2891" y2="337.2891"/><text fill="#000000" font-family="sans-serif" font-size="13" lengthAdjust="spacing" textLength="119" x="160" y="332.0264">Notify invalid request</text><polygon fill="#181818" points="343,371.5801,353,375.5801,343,379.5801,347,375.5801" style="stroke:#181818;stroke-width:1.0;"/><line style="stroke:#181818;stroke-width:1.0;" x1="143" x2="349" y1="375.5801" y2="375.5801"/><text fill="#000000" font-family="sans-serif" font-size="13" lengthAdjust="spacing" textLength="105" x="150" y="370.3174">Provide job details</text><path d="M20,390.5801 L81,390.5801 L81,399.8711 L71,409.8711 L20,409.8711 L20,390.5801 " fill="#EEEEEE" style="stroke:#000000;stroke-width:1.5;"/><rect fill="none" height="187.0859" style="stroke:#000000;stroke-width:1.5;" width="480" x="20" y="390.5801"/><text fill="#000000" font-family="sans-serif" font-size="13" font-weight="bold" lengthAdjust="spacing" textLength="16" x="35" y="405.6084">alt</text><text fill="#000000" font-family="sans-serif" font-size="11" font-weight="bold" lengthAdjust="spacing" textLength="95" x="96" y="404.4502">[Valid job details]</text><line style="stroke:#181818;stroke-width:1.0;" x1="365" x2="407" y1="433.1621" y2="433.1621"/><line style="stroke:#181818;stroke-width:1.0;" x1="407" x2="407" y1="433.1621" y2="446.1621"/><line style="stroke:#181818;stroke-width:1.0;" x1="366" x2="407" y1="446.1621" y2="446.1621"/><polygon fill="#181818" points="376,442.1621,366,446.1621,376,450.1621,372,446.1621" style="stroke:#181818;stroke-width:1.0;"/><text fill="#000000" font-family="sans-serif" font-size="13" lengthAdjust="spacing" textLength="110" x="372" y="427.8994">Validate job details</text><line style="stroke:#181818;stroke-width:1.0;" x1="365" x2="407" y1="477.4531" y2="477.4531"/><line style="stroke:#181818;stroke-width:1.0;" x1="407" x2="407" y1="477.4531" y2="490.4531"/><line style="stroke:#181818;stroke-width:1.0;" x1="366" x2="407" y1="490.4531" y2="490.4531"/><polygon fill="#181818" points="376,486.4531,366,490.4531,376,494.4531,372,490.4531" style="stroke:#181818;stroke-width:1.0;"/><text fill="#000000" font-family="sans-serif" font-size="13" lengthAdjust="spacing" textLength="116" x="372" y="472.1904">Save job information</text><polygon fill="#181818" points="154,517.7441,144,521.7441,154,525.7441,150,521.7441" style="stroke:#181818;stroke-width:1.0;"/><line style="stroke:#181818;stroke-width:1.0;stroke-dasharray:2.0,2.0;" x1="148" x2="354" y1="521.7441" y2="521.7441"/><text fill="#000000" font-family="sans-serif" font-size="13" lengthAdjust="spacing" textLength="188" x="160" y="516.4814">Notify successful job registration</text><line style="stroke:#000000;stroke-width:1.0;stroke-dasharray:2.0,2.0;" x1="20" x2="500" y1="530.7441" y2="530.7441"/><text fill="#000000" font-family="sans-serif" font-size="11" font-weight="bold" lengthAdjust="spacing" textLength="103" x="25" y="542.6143">[Invalid job details]</text><polygon fill="#181818" points="154,565.666,144,569.666,154,573.666,150,569.666" style="stroke:#181818;stroke-width:1.0;"/><line style="stroke:#181818;stroke-width:1.0;stroke-dasharray:2.0,2.0;" x1="148" x2="354" y1="569.666" y2="569.666"/><text fill="#000000" font-family="sans-serif" font-size="13" lengthAdjust="spacing" textLength="135" x="160" y="564.4033">Notify invalid job details</text><!--SRC=[XLAnKiCm3Dtz5RfCCF037PWOob2EQ-_OHQ8KSOuTR3bS_Xx5faUJajQJB3-zz_JEM8iFK6rJXmxs57qADKNOeSCZ1RZRxdVt5M04BOpfCGZNtACJg0vZ5EhoOocDKH0yFFvUDyhtbIWAY8T0HzPcW4__Rh0M7b3eD6Uzx-7xWorDCj07Ft2ZBXGB3GcoZGQjm1jQRfGginhGKmZEDJDcuhuEU-BOMnopHF4MKDWxQ7te5ZFgQGElnTJC4zb8yEo6LLkduHSlt8x02oYvvYAp_tJ-TZ_ltjZ_DlI0Gu6ncxRE-r-p7rEjVoEsoLx4DezYJNebZbca6acEfQ75B_a1]--></g></svg>