<?xml version="1.0" encoding="us-ascii" standalone="no"?><svg xmlns="http://www.w3.org/2000/svg" xmlns:xlink="http://www.w3.org/1999/xlink" contentStyleType="text/css" height="408px" preserveAspectRatio="none" style="width:1080px;height:408px;background:#FFFFFF;" version="1.1" viewBox="0 0 1080 408" width="1080px" zoomAndPan="magnify"><defs/><g><rect fill="#FFFFFF" height="213.668" style="stroke:#181818;stroke-width:1.0;" width="10" x="145" y="93.6211"/><rect fill="#FFFFFF" height="190.377" style="stroke:#181818;stroke-width:1.0;" width="10" x="448" y="116.9121"/><rect fill="#FFFFFF" height="127.7949" style="stroke:#181818;stroke-width:1.0;" width="10" x="652" y="148.2031"/><line style="stroke:#181818;stroke-width:0.5;stroke-dasharray:5.0,5.0;" x1="150" x2="150" y1="83.6211" y2="325.2891"/><line style="stroke:#181818;stroke-width:0.5;stroke-dasharray:5.0,5.0;" x1="452.5" x2="452.5" y1="83.6211" y2="325.2891"/><line style="stroke:#181818;stroke-width:0.5;stroke-dasharray:5.0,5.0;" x1="657" x2="657" y1="83.6211" y2="325.2891"/><line style="stroke:#181818;stroke-width:0.5;stroke-dasharray:5.0,5.0;" x1="778" x2="778" y1="83.6211" y2="325.2891"/><line style="stroke:#181818;stroke-width:0.5;stroke-dasharray:5.0,5.0;" x1="885" x2="885" y1="83.6211" y2="325.2891"/><line style="stroke:#181818;stroke-width:0.5;stroke-dasharray:5.0,5.0;" x1="1009" x2="1009" y1="83.6211" y2="325.2891"/><text fill="#000000" font-family="sans-serif" font-size="14" lengthAdjust="spacing" textLength="284" x="5" y="80.1074">Vehicle and Equipment Fleet Manager (VFM)</text><ellipse cx="150" cy="13.5" fill="#E3E3E3" rx="8" ry="8" style="stroke:#181818;stroke-width:0.5;"/><path d="M150,21.5 L150,48.5 M137,29.5 L163,29.5 M150,48.5 L137,63.5 M150,48.5 L163,63.5 " fill="none" style="stroke:#181818;stroke-width:0.5;"/><text fill="#000000" font-family="sans-serif" font-size="14" lengthAdjust="spacing" textLength="284" x="5" y="339.3965">Vehicle and Equipment Fleet Manager (VFM)</text><ellipse cx="150" cy="351.4102" fill="#E3E3E3" rx="8" ry="8" style="stroke:#181818;stroke-width:0.5;"/><path d="M150,359.4102 L150,386.4102 M137,367.4102 L163,367.4102 M150,386.4102 L137,401.4102 M150,386.4102 L163,401.4102 " fill="none" style="stroke:#181818;stroke-width:0.5;"/><rect fill="#E3E3E3" height="32.6211" rx="2.5" ry="2.5" style="stroke:#181818;stroke-width:0.5;" width="133" x="386.5" y="50"/><text fill="#000000" font-family="sans-serif" font-size="14" lengthAdjust="spacing" textLength="119" x="393.5" y="72.1074">:ListMaintenanceUI</text><rect fill="#E3E3E3" height="32.6211" rx="2.5" ry="2.5" style="stroke:#181818;stroke-width:0.5;" width="133" x="386.5" y="324.2891"/><text fill="#000000" font-family="sans-serif" font-size="14" lengthAdjust="spacing" textLength="119" x="393.5" y="346.3965">:ListMaintenanceUI</text><rect fill="#E3E3E3" height="32.6211" rx="2.5" ry="2.5" style="stroke:#181818;stroke-width:0.5;" width="126" x="594" y="50"/><text fill="#000000" font-family="sans-serif" font-size="14" lengthAdjust="spacing" textLength="112" x="601" y="72.1074">:VehicleController</text><rect fill="#E3E3E3" height="32.6211" rx="2.5" ry="2.5" style="stroke:#181818;stroke-width:0.5;" width="126" x="594" y="324.2891"/><text fill="#000000" font-family="sans-serif" font-size="14" lengthAdjust="spacing" textLength="112" x="601" y="346.3965">:VehicleController</text><rect fill="#E3E3E3" height="32.6211" rx="2.5" ry="2.5" style="stroke:#181818;stroke-width:0.5;" width="97" x="730" y="50"/><text fill="#000000" font-family="sans-serif" font-size="14" lengthAdjust="spacing" textLength="83" x="737" y="72.1074">:Repositories</text><rect fill="#E3E3E3" height="32.6211" rx="2.5" ry="2.5" style="stroke:#181818;stroke-width:0.5;" width="97" x="730" y="324.2891"/><text fill="#000000" font-family="sans-serif" font-size="14" lengthAdjust="spacing" textLength="83" x="737" y="346.3965">:Repositories</text><rect fill="#E3E3E3" height="51.2422" rx="2.5" ry="2.5" style="stroke:#181818;stroke-width:0.5;" width="97" x="837" y="31.3789"/><text fill="#000000" font-family="sans-serif" font-size="14" lengthAdjust="spacing" textLength="74" x="848.5" y="53.4863">repositories</text><text fill="#000000" font-family="sans-serif" font-size="14" lengthAdjust="spacing" textLength="83" x="844" y="72.1074">:Repositories</text><rect fill="#E3E3E3" height="51.2422" rx="2.5" ry="2.5" style="stroke:#181818;stroke-width:0.5;" width="97" x="837" y="324.2891"/><text fill="#000000" font-family="sans-serif" font-size="14" lengthAdjust="spacing" textLength="74" x="848.5" y="346.3965">repositories</text><text fill="#000000" font-family="sans-serif" font-size="14" lengthAdjust="spacing" textLength="83" x="844" y="365.0176">:Repositories</text><rect fill="#E3E3E3" height="51.2422" rx="2.5" ry="2.5" style="stroke:#181818;stroke-width:0.5;" width="130" x="944" y="31.3789"/><text fill="#000000" font-family="sans-serif" font-size="14" lengthAdjust="spacing" textLength="116" x="951" y="53.4863">vehicleRepository:</text><text fill="#000000" font-family="sans-serif" font-size="14" lengthAdjust="spacing" textLength="114" x="952" y="72.1074">VehicleRepository</text><rect fill="#E3E3E3" height="51.2422" rx="2.5" ry="2.5" style="stroke:#181818;stroke-width:0.5;" width="130" x="944" y="324.2891"/><text fill="#000000" font-family="sans-serif" font-size="14" lengthAdjust="spacing" textLength="116" x="951" y="346.3965">vehicleRepository:</text><text fill="#000000" font-family="sans-serif" font-size="14" lengthAdjust="spacing" textLength="114" x="952" y="365.0176">VehicleRepository</text><rect fill="#FFFFFF" height="213.668" style="stroke:#181818;stroke-width:1.0;" width="10" x="145" y="93.6211"/><rect fill="#FFFFFF" height="190.377" style="stroke:#181818;stroke-width:1.0;" width="10" x="448" y="116.9121"/><rect fill="#FFFFFF" height="127.7949" style="stroke:#181818;stroke-width:1.0;" width="10" x="652" y="148.2031"/><polygon fill="#181818" points="436,112.9121,446,116.9121,436,120.9121,440,116.9121" style="stroke:#181818;stroke-width:1.0;"/><line style="stroke:#181818;stroke-width:1.0;" x1="155" x2="442" y1="116.9121" y2="116.9121"/><text fill="#000000" font-family="sans-serif" font-size="13" font-weight="bold" lengthAdjust="spacing" textLength="7" x="162" y="111.6494">1</text><text fill="#000000" font-family="sans-serif" font-size="13" lengthAdjust="spacing" textLength="263" x="173" y="111.6494">requests to list vehicles needing maintenance</text><polygon fill="#181818" points="640,144.2031,650,148.2031,640,152.2031,644,148.2031" style="stroke:#181818;stroke-width:1.0;"/><line style="stroke:#181818;stroke-width:1.0;" x1="458" x2="646" y1="148.2031" y2="148.2031"/><text fill="#000000" font-family="sans-serif" font-size="13" font-weight="bold" lengthAdjust="spacing" textLength="7" x="465" y="142.9404">2</text><text fill="#000000" font-family="sans-serif" font-size="13" lengthAdjust="spacing" textLength="164" x="476" y="142.9404">getVehicleMaintenanceList()</text><rect fill="none" height="43.252" style="stroke:#000000;stroke-width:1.5;" width="132" x="591" y="156.2031"/><path d="M591,156.2031 L653,156.2031 L653,165.2031 L643,175.2031 L591,175.2031 L591,156.2031 " fill="#EEEEEE" style="stroke:#000000;stroke-width:2.0;"/><text fill="#000000" font-family="sans-serif" font-size="13" font-weight="bold" lengthAdjust="spacing" textLength="17" x="604" y="172.2314">ref</text><text fill="#000000" font-family="sans-serif" font-size="12" lengthAdjust="spacing" textLength="85" x="614.5" y="192.1523">Get Vehicle List</text><rect fill="none" height="43.252" style="stroke:#000000;stroke-width:1.5;" width="141" x="591" y="204.4551"/><path d="M591,204.4551 L653,204.4551 L653,213.4551 L643,223.4551 L591,223.4551 L591,204.4551 " fill="#EEEEEE" style="stroke:#000000;stroke-width:2.0;"/><text fill="#000000" font-family="sans-serif" font-size="13" font-weight="bold" lengthAdjust="spacing" textLength="17" x="604" y="220.4834">ref</text><text fill="#000000" font-family="sans-serif" font-size="12" lengthAdjust="spacing" textLength="133" x="595" y="240.4043">Create Maintenance List</text><polygon fill="#181818" points="469,271.998,459,275.998,469,279.998,465,275.998" style="stroke:#181818;stroke-width:1.0;"/><line style="stroke:#181818;stroke-width:1.0;" x1="463" x2="656" y1="275.998" y2="275.998"/><text fill="#000000" font-family="sans-serif" font-size="13" font-weight="bold" lengthAdjust="spacing" textLength="7" x="475" y="270.7354">3</text><text fill="#000000" font-family="sans-serif" font-size="13" lengthAdjust="spacing" textLength="95" x="486" y="270.7354">maintenanceList</text><polygon fill="#181818" points="161,303.2891,151,307.2891,161,311.2891,157,307.2891" style="stroke:#181818;stroke-width:1.0;"/><line style="stroke:#181818;stroke-width:1.0;stroke-dasharray:2.0,2.0;" x1="155" x2="452" y1="307.2891" y2="307.2891"/><text fill="#000000" font-family="sans-serif" font-size="13" font-weight="bold" lengthAdjust="spacing" textLength="7" x="167" y="302.0264">4</text><text fill="#000000" font-family="sans-serif" font-size="13" lengthAdjust="spacing" textLength="140" x="178" y="302.0264">shows maintenance List</text><!--SRC=[bLDDRy8m3BtdLrXS1eVzWHucJMXCaq2Q-3fnCQsX4MrI4XV6lvyJeBITDca-fSvxp_PpwW_QLEYmXD8Qc-REbWJiQbA-kQamFU2U5dmf21obZ6PVj04-nyoUjTd33WjFIYcisPgwt99JwYdN6S7EMjxQBuKfMmU3DUKw5Jaq6RmTQrsLP1Wc1H7338sKSp1SJsQZ0Q07EIWfnJhL5Gfka4orvnbgmsJGfBJwYBZLHmzsApEsXfqj2d8HDbxEfptWd2hhjRIcoKTCaxWiT1XNvkbIN8knCJy5FgUlooxZT6tcePnipBgVkyxRpmRRz0cPeXKA9EG0poyoCYIob6DDdZsmXKASWLif3uOe2uif7rv5TgCdbiL42D4InU2EQEw9RssqV0ws3qSDeL69ZZRf48vsO4-onNW5lNYNDT-VGD3i04ZUXD3_epTs5DfeTVg7R5SuZditikoEsW0p-cNKO9cGmp8I-G_isRSr7asq18BZhS-mq6y0]--></g></svg>