<?xml version="1.0" encoding="us-ascii" standalone="no"?><svg xmlns="http://www.w3.org/2000/svg" xmlns:xlink="http://www.w3.org/1999/xlink" contentStyleType="text/css" height="919px" preserveAspectRatio="none" style="width:1186px;height:919px;background:#FFFFFF;" version="1.1" viewBox="0 0 1186 919" width="1186px" zoomAndPan="magnify"><defs/><g><!--class Vehicle--><g id="elem_Vehicle"><rect codeLine="6" fill="#F1F1F1" height="308.6953" id="Vehicle" rx="2.5" ry="2.5" style="stroke:#181818;stroke-width:0.5;" width="1042" x="7" y="439"/><ellipse cx="500.75" cy="455" fill="#ADD1B2" rx="11" ry="11" style="stroke:#181818;stroke-width:1.0;"/><path d="M503.5156,450.875 Q503.6719,450.6563 503.8594,450.5469 Q504.0469,450.4375 504.2656,450.4375 Q504.6406,450.4375 504.875,450.7031 Q505.1094,450.9531 505.1094,451.5625 L505.1094,453.0156 Q505.1094,453.625 504.875,453.8906 Q504.6406,454.1563 504.2656,454.1563 Q503.9219,454.1563 503.7188,453.9531 Q503.5156,453.7656 503.4063,453.25 Q503.3594,452.8906 503.1719,452.7031 Q502.8438,452.3281 502.2344,452.1094 Q501.625,451.8906 501,451.8906 Q500.2344,451.8906 499.5938,452.2188 Q498.9688,452.5469 498.4688,453.2969 Q497.9844,454.0469 497.9844,455.0781 L497.9844,456.1719 Q497.9844,457.4063 498.875,458.2344 Q499.7656,459.0469 501.3594,459.0469 Q502.2969,459.0469 502.9531,458.7969 Q503.3438,458.6406 503.7656,458.2031 Q504.0313,457.9375 504.1719,457.8594 Q504.3281,457.7813 504.5313,457.7813 Q504.8594,457.7813 505.1094,458.0469 Q505.375,458.2969 505.375,458.6406 Q505.375,458.9844 505.0313,459.3906 Q504.5313,459.9688 503.7344,460.2969 Q502.6563,460.75 501.3594,460.75 Q499.8438,460.75 498.6406,460.125 Q497.6563,459.625 496.9688,458.5625 Q496.2813,457.4844 496.2813,456.2031 L496.2813,455.0469 Q496.2813,453.7188 496.8906,452.5781 Q497.5156,451.4219 498.6094,450.8125 Q499.7031,450.1875 500.9375,450.1875 Q501.6719,450.1875 502.3125,450.3594 Q502.9688,450.5156 503.5156,450.875 Z " fill="#000000"/><text fill="#000000" font-family="sans-serif" font-size="14" lengthAdjust="spacing" textLength="46" x="521.25" y="460.7969">Vehicle</text><line style="stroke:#181818;stroke-width:0.5;" x1="8" x2="1048" y1="471" y2="471"/><text fill="#000000" font-family="sans-serif" font-size="14" lengthAdjust="spacing" textLength="35" x="13" y="490.1074">plate;</text><text fill="#000000" font-family="sans-serif" font-size="14" lengthAdjust="spacing" textLength="41" x="13" y="508.7285">brand;</text><text fill="#000000" font-family="sans-serif" font-size="14" lengthAdjust="spacing" textLength="42" x="13" y="527.3496">model;</text><text fill="#000000" font-family="sans-serif" font-size="14" lengthAdjust="spacing" textLength="31" x="13" y="545.9707">type;</text><text fill="#000000" font-family="sans-serif" font-size="14" lengthAdjust="spacing" textLength="73" x="13" y="564.5918">tareWeight;</text><text fill="#000000" font-family="sans-serif" font-size="14" lengthAdjust="spacing" textLength="83" x="13" y="583.2129">grossWeight;</text><text fill="#000000" font-family="sans-serif" font-size="14" lengthAdjust="spacing" textLength="69" x="13" y="601.834">currentKM;</text><text fill="#000000" font-family="sans-serif" font-size="14" lengthAdjust="spacing" textLength="82" x="13" y="620.4551">registerDate;</text><text fill="#000000" font-family="sans-serif" font-size="14" lengthAdjust="spacing" textLength="101" x="13" y="639.0762">acquisitionDate;</text><text fill="#000000" font-family="sans-serif" font-size="14" lengthAdjust="spacing" textLength="123" x="13" y="657.6973">checkupIntervalKM;</text><text fill="#000000" font-family="sans-serif" font-size="14" lengthAdjust="spacing" textLength="130" x="13" y="676.3184">kmLastMaintenance;</text><text fill="#000000" font-family="sans-serif" font-size="14" lengthAdjust="spacing" textLength="130" x="13" y="694.9395">kmNextMaintenance;</text><text fill="#000000" font-family="sans-serif" font-size="14" lengthAdjust="spacing" textLength="107" x="13" y="713.5605">maintenanceList;</text><line style="stroke:#181818;stroke-width:0.5;" x1="8" x2="1048" y1="721.0742" y2="721.0742"/><text fill="#000000" font-family="sans-serif" font-size="14" lengthAdjust="spacing" textLength="1030" x="13" y="740.1816">public Vehicle( plate,  brand,  model,  type, tareWeight, grossWeight, CurrentKM, Date registerDate, Date acquisitionDate, checkupIntervalKM, kmLastMaintenance)</text></g><!--class Brand--><g id="elem_Brand"><rect codeLine="25" fill="#F1F1F1" height="85.2422" id="Brand" rx="2.5" ry="2.5" style="stroke:#181818;stroke-width:0.5;" width="98" x="766" y="827"/><ellipse cx="793.6" cy="843" fill="#ADD1B2" rx="11" ry="11" style="stroke:#181818;stroke-width:1.0;"/><path d="M796.3656,838.875 Q796.5219,838.6563 796.7094,838.5469 Q796.8969,838.4375 797.1156,838.4375 Q797.4906,838.4375 797.725,838.7031 Q797.9594,838.9531 797.9594,839.5625 L797.9594,841.0156 Q797.9594,841.625 797.725,841.8906 Q797.4906,842.1563 797.1156,842.1563 Q796.7719,842.1563 796.5688,841.9531 Q796.3656,841.7656 796.2563,841.25 Q796.2094,840.8906 796.0219,840.7031 Q795.6938,840.3281 795.0844,840.1094 Q794.475,839.8906 793.85,839.8906 Q793.0844,839.8906 792.4438,840.2188 Q791.8188,840.5469 791.3188,841.2969 Q790.8344,842.0469 790.8344,843.0781 L790.8344,844.1719 Q790.8344,845.4063 791.725,846.2344 Q792.6156,847.0469 794.2094,847.0469 Q795.1469,847.0469 795.8031,846.7969 Q796.1938,846.6406 796.6156,846.2031 Q796.8813,845.9375 797.0219,845.8594 Q797.1781,845.7813 797.3813,845.7813 Q797.7094,845.7813 797.9594,846.0469 Q798.225,846.2969 798.225,846.6406 Q798.225,846.9844 797.8813,847.3906 Q797.3813,847.9688 796.5844,848.2969 Q795.5063,848.75 794.2094,848.75 Q792.6938,848.75 791.4906,848.125 Q790.5063,847.625 789.8188,846.5625 Q789.1313,845.4844 789.1313,844.2031 L789.1313,843.0469 Q789.1313,841.7188 789.7406,840.5781 Q790.3656,839.4219 791.4594,838.8125 Q792.5531,838.1875 793.7875,838.1875 Q794.5219,838.1875 795.1625,838.3594 Q795.8188,838.5156 796.3656,838.875 Z " fill="#000000"/><text fill="#000000" font-family="sans-serif" font-size="14" lengthAdjust="spacing" textLength="38" x="810.4" y="848.7969">Brand</text><line style="stroke:#181818;stroke-width:0.5;" x1="767" x2="863" y1="859" y2="859"/><text fill="#000000" font-family="sans-serif" font-size="14" lengthAdjust="spacing" textLength="38" x="772" y="878.1074">model</text><line style="stroke:#181818;stroke-width:0.5;" x1="767" x2="863" y1="885.6211" y2="885.6211"/><text fill="#000000" font-family="sans-serif" font-size="14" lengthAdjust="spacing" textLength="86" x="772" y="904.7285">Brand(model)</text></g><!--class VehicleRepository--><g id="elem_VehicleRepository"><rect codeLine="31" fill="#F1F1F1" height="103.8633" id="VehicleRepository" rx="2.5" ry="2.5" style="stroke:#181818;stroke-width:0.5;" width="804" x="215" y="274"/><ellipse cx="555.75" cy="290" fill="#ADD1B2" rx="11" ry="11" style="stroke:#181818;stroke-width:1.0;"/><path d="M558.5156,285.875 Q558.6719,285.6563 558.8594,285.5469 Q559.0469,285.4375 559.2656,285.4375 Q559.6406,285.4375 559.875,285.7031 Q560.1094,285.9531 560.1094,286.5625 L560.1094,288.0156 Q560.1094,288.625 559.875,288.8906 Q559.6406,289.1563 559.2656,289.1563 Q558.9219,289.1563 558.7188,288.9531 Q558.5156,288.7656 558.4063,288.25 Q558.3594,287.8906 558.1719,287.7031 Q557.8438,287.3281 557.2344,287.1094 Q556.625,286.8906 556,286.8906 Q555.2344,286.8906 554.5938,287.2188 Q553.9688,287.5469 553.4688,288.2969 Q552.9844,289.0469 552.9844,290.0781 L552.9844,291.1719 Q552.9844,292.4063 553.875,293.2344 Q554.7656,294.0469 556.3594,294.0469 Q557.2969,294.0469 557.9531,293.7969 Q558.3438,293.6406 558.7656,293.2031 Q559.0313,292.9375 559.1719,292.8594 Q559.3281,292.7813 559.5313,292.7813 Q559.8594,292.7813 560.1094,293.0469 Q560.375,293.2969 560.375,293.6406 Q560.375,293.9844 560.0313,294.3906 Q559.5313,294.9688 558.7344,295.2969 Q557.6563,295.75 556.3594,295.75 Q554.8438,295.75 553.6406,295.125 Q552.6563,294.625 551.9688,293.5625 Q551.2813,292.4844 551.2813,291.2031 L551.2813,290.0469 Q551.2813,288.7188 551.8906,287.5781 Q552.5156,286.4219 553.6094,285.8125 Q554.7031,285.1875 555.9375,285.1875 Q556.6719,285.1875 557.3125,285.3594 Q557.9688,285.5156 558.5156,285.875 Z " fill="#000000"/><text fill="#000000" font-family="sans-serif" font-size="14" lengthAdjust="spacing" textLength="114" x="576.25" y="295.7969">VehicleRepository</text><line style="stroke:#181818;stroke-width:0.5;" x1="216" x2="1018" y1="306" y2="306"/><line style="stroke:#181818;stroke-width:0.5;" x1="216" x2="1018" y1="314" y2="314"/><text fill="#000000" font-family="sans-serif" font-size="14" lengthAdjust="spacing" textLength="792" x="221" y="333.1074">registerVehicle(vin, brand, model, vehiclePlate, tareWeight,grossWeight, currentKm, acquisitionDate, maintenanceFrequency)</text><text fill="#000000" font-family="sans-serif" font-size="14" lengthAdjust="spacing" textLength="216" x="221" y="351.7285">getVehiclesNeedingMaintenance()</text><text fill="#000000" font-family="sans-serif" font-size="14" lengthAdjust="spacing" textLength="177" x="221" y="370.3496">getMaintenanceList(vehicle)</text></g><!--class Repositories--><g id="elem_Repositories"><rect codeLine="39" fill="#F1F1F1" height="122.4844" id="Repositories" rx="2.5" ry="2.5" style="stroke:#181818;stroke-width:0.5;" width="186" x="524" y="122"/><ellipse cx="573.25" cy="138" fill="#ADD1B2" rx="11" ry="11" style="stroke:#181818;stroke-width:1.0;"/><path d="M576.0156,133.875 Q576.1719,133.6563 576.3594,133.5469 Q576.5469,133.4375 576.7656,133.4375 Q577.1406,133.4375 577.375,133.7031 Q577.6094,133.9531 577.6094,134.5625 L577.6094,136.0156 Q577.6094,136.625 577.375,136.8906 Q577.1406,137.1563 576.7656,137.1563 Q576.4219,137.1563 576.2188,136.9531 Q576.0156,136.7656 575.9063,136.25 Q575.8594,135.8906 575.6719,135.7031 Q575.3438,135.3281 574.7344,135.1094 Q574.125,134.8906 573.5,134.8906 Q572.7344,134.8906 572.0938,135.2188 Q571.4688,135.5469 570.9688,136.2969 Q570.4844,137.0469 570.4844,138.0781 L570.4844,139.1719 Q570.4844,140.4063 571.375,141.2344 Q572.2656,142.0469 573.8594,142.0469 Q574.7969,142.0469 575.4531,141.7969 Q575.8438,141.6406 576.2656,141.2031 Q576.5313,140.9375 576.6719,140.8594 Q576.8281,140.7813 577.0313,140.7813 Q577.3594,140.7813 577.6094,141.0469 Q577.875,141.2969 577.875,141.6406 Q577.875,141.9844 577.5313,142.3906 Q577.0313,142.9688 576.2344,143.2969 Q575.1563,143.75 573.8594,143.75 Q572.3438,143.75 571.1406,143.125 Q570.1563,142.625 569.4688,141.5625 Q568.7813,140.4844 568.7813,139.2031 L568.7813,138.0469 Q568.7813,136.7188 569.3906,135.5781 Q570.0156,134.4219 571.1094,133.8125 Q572.2031,133.1875 573.4375,133.1875 Q574.1719,133.1875 574.8125,133.3594 Q575.4688,133.5156 576.0156,133.875 Z " fill="#000000"/><text fill="#000000" font-family="sans-serif" font-size="14" lengthAdjust="spacing" textLength="79" x="593.75" y="143.7969">Repositories</text><line style="stroke:#181818;stroke-width:0.5;" x1="525" x2="709" y1="154" y2="154"/><line style="stroke:#181818;stroke-width:0.5;" x1="525" x2="709" y1="162" y2="162"/><text fill="#000000" font-family="sans-serif" font-size="14" lengthAdjust="spacing" textLength="89" x="530" y="181.1074">Repositories()</text><text fill="#000000" font-family="sans-serif" font-size="14" lengthAdjust="spacing" textLength="174" x="530" y="199.7285">getInstance() : Repositories</text><text fill="#000000" font-family="sans-serif" font-size="14" lengthAdjust="spacing" textLength="136" x="530" y="218.3496">getBrandRepository()</text><text fill="#000000" font-family="sans-serif" font-size="14" lengthAdjust="spacing" textLength="144" x="530" y="236.9707">getVehicleRepository()</text></g><!--class VehicleController--><g id="elem_VehicleController"><rect codeLine="46" fill="#F1F1F1" height="85.2422" id="VehicleController" rx="2.5" ry="2.5" style="stroke:#181818;stroke-width:0.5;" width="255" x="701.5" y="7"/><ellipse cx="770.75" cy="23" fill="#ADD1B2" rx="11" ry="11" style="stroke:#181818;stroke-width:1.0;"/><path d="M773.5156,18.875 Q773.6719,18.6563 773.8594,18.5469 Q774.0469,18.4375 774.2656,18.4375 Q774.6406,18.4375 774.875,18.7031 Q775.1094,18.9531 775.1094,19.5625 L775.1094,21.0156 Q775.1094,21.625 774.875,21.8906 Q774.6406,22.1563 774.2656,22.1563 Q773.9219,22.1563 773.7188,21.9531 Q773.5156,21.7656 773.4063,21.25 Q773.3594,20.8906 773.1719,20.7031 Q772.8438,20.3281 772.2344,20.1094 Q771.625,19.8906 771,19.8906 Q770.2344,19.8906 769.5938,20.2188 Q768.9688,20.5469 768.4688,21.2969 Q767.9844,22.0469 767.9844,23.0781 L767.9844,24.1719 Q767.9844,25.4063 768.875,26.2344 Q769.7656,27.0469 771.3594,27.0469 Q772.2969,27.0469 772.9531,26.7969 Q773.3438,26.6406 773.7656,26.2031 Q774.0313,25.9375 774.1719,25.8594 Q774.3281,25.7813 774.5313,25.7813 Q774.8594,25.7813 775.1094,26.0469 Q775.375,26.2969 775.375,26.6406 Q775.375,26.9844 775.0313,27.3906 Q774.5313,27.9688 773.7344,28.2969 Q772.6563,28.75 771.3594,28.75 Q769.8438,28.75 768.6406,28.125 Q767.6563,27.625 766.9688,26.5625 Q766.2813,25.4844 766.2813,24.2031 L766.2813,23.0469 Q766.2813,21.7188 766.8906,20.5781 Q767.5156,19.4219 768.6094,18.8125 Q769.7031,18.1875 770.9375,18.1875 Q771.6719,18.1875 772.3125,18.3594 Q772.9688,18.5156 773.5156,18.875 Z " fill="#000000"/><text fill="#000000" font-family="sans-serif" font-size="14" lengthAdjust="spacing" textLength="108" x="791.25" y="28.7969">VehicleController</text><line style="stroke:#181818;stroke-width:0.5;" x1="702.5" x2="955.5" y1="39" y2="39"/><line style="stroke:#181818;stroke-width:0.5;" x1="702.5" x2="955.5" y1="47" y2="47"/><text fill="#000000" font-family="sans-serif" font-size="14" lengthAdjust="spacing" textLength="105" x="707.5" y="66.1074">getVehiclesList()</text><text fill="#000000" font-family="sans-serif" font-size="14" lengthAdjust="spacing" textLength="243" x="707.5" y="84.7285">generateMaintenanceList(vehiclesList)</text></g><!--class ListMaintenanceUI--><g id="elem_ListMaintenanceUI"><rect codeLine="51" fill="#F1F1F1" height="48" id="ListMaintenanceUI" rx="2.5" ry="2.5" style="stroke:#181818;stroke-width:0.5;" width="147" x="519.5" y="25.5"/><ellipse cx="534.5" cy="41.5" fill="#ADD1B2" rx="11" ry="11" style="stroke:#181818;stroke-width:1.0;"/><path d="M537.2656,37.375 Q537.4219,37.1563 537.6094,37.0469 Q537.7969,36.9375 538.0156,36.9375 Q538.3906,36.9375 538.625,37.2031 Q538.8594,37.4531 538.8594,38.0625 L538.8594,39.5156 Q538.8594,40.125 538.625,40.3906 Q538.3906,40.6563 538.0156,40.6563 Q537.6719,40.6563 537.4688,40.4531 Q537.2656,40.2656 537.1563,39.75 Q537.1094,39.3906 536.9219,39.2031 Q536.5938,38.8281 535.9844,38.6094 Q535.375,38.3906 534.75,38.3906 Q533.9844,38.3906 533.3438,38.7188 Q532.7188,39.0469 532.2188,39.7969 Q531.7344,40.5469 531.7344,41.5781 L531.7344,42.6719 Q531.7344,43.9063 532.625,44.7344 Q533.5156,45.5469 535.1094,45.5469 Q536.0469,45.5469 536.7031,45.2969 Q537.0938,45.1406 537.5156,44.7031 Q537.7813,44.4375 537.9219,44.3594 Q538.0781,44.2813 538.2813,44.2813 Q538.6094,44.2813 538.8594,44.5469 Q539.125,44.7969 539.125,45.1406 Q539.125,45.4844 538.7813,45.8906 Q538.2813,46.4688 537.4844,46.7969 Q536.4063,47.25 535.1094,47.25 Q533.5938,47.25 532.3906,46.625 Q531.4063,46.125 530.7188,45.0625 Q530.0313,43.9844 530.0313,42.7031 L530.0313,41.5469 Q530.0313,40.2188 530.6406,39.0781 Q531.2656,37.9219 532.3594,37.3125 Q533.4531,36.6875 534.6875,36.6875 Q535.4219,36.6875 536.0625,36.8594 Q536.7188,37.0156 537.2656,37.375 Z " fill="#000000"/><text fill="#000000" font-family="sans-serif" font-size="14" lengthAdjust="spacing" textLength="115" x="548.5" y="47.2969">ListMaintenanceUI</text><line style="stroke:#181818;stroke-width:0.5;" x1="520.5" x2="665.5" y1="57.5" y2="57.5"/><line style="stroke:#181818;stroke-width:0.5;" x1="520.5" x2="665.5" y1="65.5" y2="65.5"/></g><!--link Repositories to Repositories--><g id="link_Repositories_Repositories"><path codeLine="54" d="M710.2,158.98 C730.37,161.33 745,169.34 745,183 C745,196.66 736.3297,203.9756 716.1597,206.3256 " fill="none" id="Repositories-to-Repositories" style="stroke:#181818;stroke-width:1.0;"/><polygon fill="#181818" points="710.2,207.02,719.6024,209.9516,715.1664,206.4414,718.6766,202.0053,710.2,207.02" style="stroke:#181818;stroke-width:1.0;"/><text fill="#000000" font-family="sans-serif" font-size="13" lengthAdjust="spacing" textLength="49" x="751" y="188.5283">instance</text></g><!--link ListMaintenanceUI to VehicleController--><g id="link_ListMaintenanceUI_VehicleController"><path codeLine="56" d="M666.75,49.5 C678.26,49.5 683.78,49.5 695.29,49.5 " fill="none" id="ListMaintenanceUI-to-VehicleController" style="stroke:#181818;stroke-width:1.0;stroke-dasharray:7.0,7.0;"/><polygon fill="#181818" points="701.29,49.5,692.29,45.5,696.29,49.5,692.29,53.5,701.29,49.5" style="stroke:#181818;stroke-width:1.0;"/></g><!--link VehicleController to Repositories--><g id="link_VehicleController_Repositories"><path codeLine="58" d="M761.92,92.11 C745.55,102.27 732.8298,110.159 715.4698,120.919 " fill="none" id="VehicleController-to-Repositories" style="stroke:#181818;stroke-width:1.0;stroke-dasharray:7.0,7.0;"/><polygon fill="#181818" points="710.37,124.08,720.1271,122.7385,714.6199,121.4459,715.9124,115.9387,710.37,124.08" style="stroke:#181818;stroke-width:1.0;"/><text fill="#000000" font-family="sans-serif" font-size="13" lengthAdjust="spacing" textLength="67" x="737.51" y="122.8983">repositories</text></g><!--link Repositories to VehicleRepository--><g id="link_Repositories_VehicleRepository"><path codeLine="60" d="M617,244.21 C617,254.09 617,258.24 617,267.87 " fill="none" id="Repositories-to-VehicleRepository" style="stroke:#181818;stroke-width:1.0;"/><polygon fill="#181818" points="617,273.87,621,264.87,617,268.87,613,264.87,617,273.87" style="stroke:#181818;stroke-width:1.0;"/><text fill="#000000" font-family="sans-serif" font-size="13" lengthAdjust="spacing" textLength="7" x="609.325" y="266.6035">1</text></g><!--link VehicleController to VehicleRepository--><g id="link_VehicleController_VehicleRepository"><path codeLine="62" d="M830.96,92.34 C830.76,134.86 824.19,200.48 790,244 C780.99,255.47 774.8555,261.931 762.7755,270.491 " fill="none" id="VehicleController-to-VehicleRepository" style="stroke:#181818;stroke-width:1.0;stroke-dasharray:7.0,7.0;"/><polygon fill="#181818" points="757.88,273.96,767.5359,272.0202,761.9596,271.0692,762.9106,265.4928,757.88,273.96" style="stroke:#181818;stroke-width:1.0;"/><text fill="#000000" font-family="sans-serif" font-size="13" lengthAdjust="spacing" textLength="101" x="830" y="188.5283">vehicleRepository</text></g><!--link VehicleRepository to Vehicle--><g id="link_VehicleRepository_Vehicle"><path codeLine="64" d="M599.84,378.19 C593.85,396.05 588.6967,411.431 581.3767,433.271 " fill="none" id="VehicleRepository-to-Vehicle" style="stroke:#181818;stroke-width:1.0;"/><polygon fill="#181818" points="579.47,438.96,586.1228,431.6977,581.059,434.2192,578.5375,429.1554,579.47,438.96" style="stroke:#181818;stroke-width:1.0;"/><text fill="#000000" font-family="sans-serif" font-size="13" lengthAdjust="spacing" textLength="5" x="576.995" y="427.5969">*</text></g><!--link Vehicle to Brand--><g id="link_Vehicle_Brand"><path codeLine="66" d="M689.12,748.32 C719.4,777.23 744.2798,800.9872 766.9298,822.6072 " fill="none" id="Vehicle-to-Brand" style="stroke:#181818;stroke-width:1.0;"/><polygon fill="#181818" points="771.27,826.75,767.5216,817.6423,767.6532,823.2977,761.9979,823.4292,771.27,826.75" style="stroke:#181818;stroke-width:1.0;"/><text fill="#000000" font-family="sans-serif" font-size="13" lengthAdjust="spacing" textLength="32" x="739" y="793.0283">brand</text><text fill="#000000" font-family="sans-serif" font-size="13" lengthAdjust="spacing" textLength="7" x="756.7427" y="815.6142">1</text></g><!--link VehicleController to Brand--><g id="link_VehicleController_Brand"><path codeLine="68" d="M903.45,92.08 C916.4,101.03 929.16,111.12 940,122 C996.55,178.79 1007.73,199.4 1037,274 C1114.11,470.5 1179.55,569.42 1067,748 C1022.53,818.56 929.9394,847.5031 870.1094,859.6831 " fill="none" id="VehicleController-to-Brand" style="stroke:#181818;stroke-width:1.0;stroke-dasharray:7.0,7.0;"/><polygon fill="#181818" points="864.23,860.88,873.847,863.0042,869.1295,859.8826,872.2512,855.165,864.23,860.88" style="stroke:#181818;stroke-width:1.0;"/></g><!--SRC=[TPDHJyCW4CVV-HJ4fshGnDUP-B0PaqMt68twpDZPaL7eW4uRutUN5cYfk3x1tP-x_- -WPizbJJMjS4tPdfRmObi1M0EpL9O2a1a4PaUtwfFB4dzGOTACu1AmRMl0jH9jjqC8CK6DmM-muymL_4ROVRMW5cxwvKPJkVNBIcr1-6LN9AoeXdVWvSxwVQcLCMc0DLg3j0yhlzLGScD1tmqTA3iqt73BbHo3R0TitzHBwQH7AkBfVVL8ZLrHxkAIIWOnl8QlF5oDWKVNzCRHuXwlsGZE8dFXSKbW9G6KU4gI49AKZk1592EuCpv12w4_R2Jd8ZdJEVg9rpBl78LByRO2Gfye-aWY3qJFK2lNLEas7etM8lAHIn9n0-tHfvxyB1Be2NEypOhaRCcuxpKS6f2iFVVzIx2XjLa3RDtZJ7YBKRIQtbWHJFM84NAWus0YNnfBoYsbiRu3daqqWwAVupYl8lCxoVqTz499gvKGeAEH1BG76Ef9q6v89_XwRLA-soRIrwKhxv8JyilRwIHcc0TQXFBpLxUvPuHoZAkigax7bbaukpxBNzs_XKS7oVESnMVtp-54TjbrkXWw3HAVS1RyVpBpJ_fK-xbF_W80]--></g></svg>