<?xml version="1.0" encoding="us-ascii" standalone="no"?><svg xmlns="http://www.w3.org/2000/svg" xmlns:xlink="http://www.w3.org/1999/xlink" contentStyleType="text/css" height="724px" preserveAspectRatio="none" style="width:447px;height:724px;background:#FFFFFF;" version="1.1" viewBox="0 0 447 724" width="447px" zoomAndPan="magnify"><defs/><g><text fill="#000000" font-family="sans-serif" font-size="14" font-weight="bold" lengthAdjust="spacing" textLength="242" x="103.5" y="30.1074">System Sequence Diagram - US020</text><rect fill="#FFFFFF" height="461.7051" style="stroke:#181818;stroke-width:1.0;" width="10" x="102" y="151.8633"/><rect fill="#FFFFFF" height="57.582" style="stroke:#181818;stroke-width:1.0;" width="10" x="383" y="175.1543"/><rect fill="#FFFFFF" height="138.7949" style="stroke:#181818;stroke-width:1.0;" width="10" x="383" y="264.0273"/><rect fill="#FFFFFF" height="38.291" style="stroke:#181818;stroke-width:1.0;" width="10" x="383" y="434.1133"/><rect fill="#FFFFFF" height="31.291" style="stroke:#181818;stroke-width:1.0;" width="10" x="383" y="503.6953"/><rect fill="#FFFFFF" height="31.291" style="stroke:#181818;stroke-width:1.0;" width="10" x="383" y="566.2773"/><rect fill="none" height="81.873" style="stroke:#000000;stroke-width:1.5;" width="410" x="20" y="190.1543"/><rect fill="none" height="319.541" style="stroke:#000000;stroke-width:1.5;" width="430" x="10" y="286.0273"/><rect fill="none" height="81.873" style="stroke:#000000;stroke-width:1.5;" width="410" x="20" y="360.2402"/><line style="stroke:#181818;stroke-width:0.5;stroke-dasharray:5.0,5.0;" x1="107" x2="107" y1="141.8633" y2="622.5684"/><line style="stroke:#181818;stroke-width:0.5;stroke-dasharray:5.0,5.0;" x1="388" x2="388" y1="141.8633" y2="622.5684"/><text fill="#000000" font-family="sans-serif" font-size="14" lengthAdjust="spacing" textLength="144" x="30" y="119.7285">Green Space Manager</text><text fill="#000000" font-family="sans-serif" font-size="14" lengthAdjust="spacing" textLength="41" x="83.5" y="138.3496">(GSM)</text><ellipse cx="107" cy="53.1211" fill="#E3E3E3" rx="8" ry="8" style="stroke:#181818;stroke-width:0.5;"/><path d="M107,61.1211 L107,88.1211 M94,69.1211 L120,69.1211 M107,88.1211 L94,103.1211 M107,88.1211 L120,103.1211 " fill="none" style="stroke:#181818;stroke-width:0.5;"/><text fill="#000000" font-family="sans-serif" font-size="14" lengthAdjust="spacing" textLength="144" x="30" y="636.6758">Green Space Manager</text><text fill="#000000" font-family="sans-serif" font-size="14" lengthAdjust="spacing" textLength="41" x="83.5" y="655.2969">(GSM)</text><ellipse cx="107" cy="667.3105" fill="#E3E3E3" rx="8" ry="8" style="stroke:#181818;stroke-width:0.5;"/><path d="M107,675.3105 L107,702.3105 M94,683.3105 L120,683.3105 M107,702.3105 L94,717.3105 M107,702.3105 L120,717.3105 " fill="none" style="stroke:#181818;stroke-width:0.5;"/><rect fill="#E3E3E3" height="32.6211" rx="2.5" ry="2.5" style="stroke:#181818;stroke-width:0.5;" width="64" x="356" y="108.2422"/><text fill="#000000" font-family="sans-serif" font-size="14" lengthAdjust="spacing" textLength="50" x="363" y="130.3496">:System</text><rect fill="#E3E3E3" height="32.6211" rx="2.5" ry="2.5" style="stroke:#181818;stroke-width:0.5;" width="64" x="356" y="621.5684"/><text fill="#000000" font-family="sans-serif" font-size="14" lengthAdjust="spacing" textLength="50" x="363" y="643.6758">:System</text><rect fill="#FFFFFF" height="461.7051" style="stroke:#181818;stroke-width:1.0;" width="10" x="102" y="151.8633"/><rect fill="#FFFFFF" height="57.582" style="stroke:#181818;stroke-width:1.0;" width="10" x="383" y="175.1543"/><rect fill="#FFFFFF" height="138.7949" style="stroke:#181818;stroke-width:1.0;" width="10" x="383" y="264.0273"/><rect fill="#FFFFFF" height="38.291" style="stroke:#181818;stroke-width:1.0;" width="10" x="383" y="434.1133"/><rect fill="#FFFFFF" height="31.291" style="stroke:#181818;stroke-width:1.0;" width="10" x="383" y="503.6953"/><rect fill="#FFFFFF" height="31.291" style="stroke:#181818;stroke-width:1.0;" width="10" x="383" y="566.2773"/><polygon fill="#181818" points="371,171.1543,381,175.1543,371,179.1543,375,175.1543" style="stroke:#181818;stroke-width:1.0;"/><line style="stroke:#181818;stroke-width:1.0;" x1="112" x2="377" y1="175.1543" y2="175.1543"/><text fill="#000000" font-family="sans-serif" font-size="13" font-weight="bold" lengthAdjust="spacing" textLength="7" x="119" y="169.8916">1</text><text fill="#000000" font-family="sans-serif" font-size="13" lengthAdjust="spacing" textLength="225" x="130" y="169.8916">requests to register a new green space</text><path d="M20,190.1543 L93,190.1543 L93,199.4453 L83,209.4453 L20,209.4453 L20,190.1543 " fill="#EEEEEE" style="stroke:#000000;stroke-width:1.5;"/><rect fill="none" height="81.873" style="stroke:#000000;stroke-width:1.5;" width="410" x="20" y="190.1543"/><text fill="#000000" font-family="sans-serif" font-size="13" font-weight="bold" lengthAdjust="spacing" textLength="28" x="35" y="205.1826">loop</text><text fill="#000000" font-family="sans-serif" font-size="11" font-weight="bold" lengthAdjust="spacing" textLength="126" x="108" y="204.0244">[while data is not valid]</text><polygon fill="#181818" points="123,228.7363,113,232.7363,123,236.7363,119,232.7363" style="stroke:#181818;stroke-width:1.0;"/><line style="stroke:#181818;stroke-width:1.0;stroke-dasharray:2.0,2.0;" x1="117" x2="387" y1="232.7363" y2="232.7363"/><text fill="#000000" font-family="sans-serif" font-size="13" font-weight="bold" lengthAdjust="spacing" textLength="7" x="129" y="227.4736">2</text><text fill="#000000" font-family="sans-serif" font-size="13" lengthAdjust="spacing" textLength="236" x="140" y="227.4736">requests green space name and address</text><polygon fill="#181818" points="371,260.0273,381,264.0273,371,268.0273,375,264.0273" style="stroke:#181818;stroke-width:1.0;"/><line style="stroke:#181818;stroke-width:1.0;" x1="112" x2="377" y1="264.0273" y2="264.0273"/><text fill="#000000" font-family="sans-serif" font-size="13" font-weight="bold" lengthAdjust="spacing" textLength="7" x="119" y="258.7646">3</text><text fill="#000000" font-family="sans-serif" font-size="13" lengthAdjust="spacing" textLength="218" x="130" y="258.7646">types green space name and address</text><path d="M10,286.0273 L71,286.0273 L71,295.3184 L61,305.3184 L10,305.3184 L10,286.0273 " fill="#EEEEEE" style="stroke:#000000;stroke-width:1.5;"/><rect fill="none" height="319.541" style="stroke:#000000;stroke-width:1.5;" width="430" x="10" y="286.0273"/><text fill="#000000" font-family="sans-serif" font-size="13" font-weight="bold" lengthAdjust="spacing" textLength="16" x="25" y="301.0557">alt</text><text fill="#000000" font-family="sans-serif" font-size="11" font-weight="bold" lengthAdjust="spacing" textLength="112" x="86" y="299.8975">[green space != null]</text><polygon fill="#181818" points="123,324.6094,113,328.6094,123,332.6094,119,328.6094" style="stroke:#181818;stroke-width:1.0;"/><line style="stroke:#181818;stroke-width:1.0;stroke-dasharray:2.0,2.0;" x1="117" x2="382" y1="328.6094" y2="328.6094"/><text fill="#000000" font-family="sans-serif" font-size="13" font-weight="bold" lengthAdjust="spacing" textLength="7" x="129" y="323.3467">4</text><text fill="#000000" font-family="sans-serif" font-size="13" lengthAdjust="spacing" textLength="227" x="140" y="323.3467">notifies that green space already exists</text><line style="stroke:#000000;stroke-width:1.0;stroke-dasharray:2.0,2.0;" x1="10" x2="440" y1="337.6094" y2="337.6094"/><text fill="#000000" font-family="sans-serif" font-size="11" font-weight="bold" lengthAdjust="spacing" textLength="115" x="15" y="349.4795">[green space == null]</text><path d="M20,360.2402 L93,360.2402 L93,369.5313 L83,379.5313 L20,379.5313 L20,360.2402 " fill="#EEEEEE" style="stroke:#000000;stroke-width:1.5;"/><rect fill="none" height="81.873" style="stroke:#000000;stroke-width:1.5;" width="410" x="20" y="360.2402"/><text fill="#000000" font-family="sans-serif" font-size="13" font-weight="bold" lengthAdjust="spacing" textLength="28" x="35" y="375.2686">loop</text><text fill="#000000" font-family="sans-serif" font-size="11" font-weight="bold" lengthAdjust="spacing" textLength="126" x="108" y="374.1104">[while data is not valid]</text><polygon fill="#181818" points="123,398.8223,113,402.8223,123,406.8223,119,402.8223" style="stroke:#181818;stroke-width:1.0;"/><line style="stroke:#181818;stroke-width:1.0;stroke-dasharray:2.0,2.0;" x1="117" x2="387" y1="402.8223" y2="402.8223"/><text fill="#000000" font-family="sans-serif" font-size="13" font-weight="bold" lengthAdjust="spacing" textLength="7" x="129" y="397.5596">5</text><text fill="#000000" font-family="sans-serif" font-size="13" lengthAdjust="spacing" textLength="154" x="140" y="397.5596">requests green space area</text><polygon fill="#181818" points="371,430.1133,381,434.1133,371,438.1133,375,434.1133" style="stroke:#181818;stroke-width:1.0;"/><line style="stroke:#181818;stroke-width:1.0;" x1="112" x2="377" y1="434.1133" y2="434.1133"/><text fill="#000000" font-family="sans-serif" font-size="13" font-weight="bold" lengthAdjust="spacing" textLength="7" x="119" y="428.8506">6</text><text fill="#000000" font-family="sans-serif" font-size="13" lengthAdjust="spacing" textLength="122" x="130" y="428.8506">types requested data</text><polygon fill="#181818" points="123,468.4043,113,472.4043,123,476.4043,119,472.4043" style="stroke:#181818;stroke-width:1.0;"/><line style="stroke:#181818;stroke-width:1.0;stroke-dasharray:2.0,2.0;" x1="117" x2="387" y1="472.4043" y2="472.4043"/><text fill="#000000" font-family="sans-serif" font-size="13" font-weight="bold" lengthAdjust="spacing" textLength="7" x="129" y="467.1416">7</text><text fill="#000000" font-family="sans-serif" font-size="13" lengthAdjust="spacing" textLength="111" x="140" y="467.1416">asks to select type</text><polygon fill="#181818" points="371,499.6953,381,503.6953,371,507.6953,375,503.6953" style="stroke:#181818;stroke-width:1.0;"/><line style="stroke:#181818;stroke-width:1.0;" x1="112" x2="377" y1="503.6953" y2="503.6953"/><text fill="#000000" font-family="sans-serif" font-size="13" font-weight="bold" lengthAdjust="spacing" textLength="7" x="119" y="498.4326">8</text><text fill="#000000" font-family="sans-serif" font-size="13" lengthAdjust="spacing" textLength="71" x="130" y="498.4326">selects type</text><polygon fill="#181818" points="123,530.9863,113,534.9863,123,538.9863,119,534.9863" style="stroke:#181818;stroke-width:1.0;"/><line style="stroke:#181818;stroke-width:1.0;stroke-dasharray:2.0,2.0;" x1="117" x2="387" y1="534.9863" y2="534.9863"/><text fill="#000000" font-family="sans-serif" font-size="13" font-weight="bold" lengthAdjust="spacing" textLength="7" x="129" y="529.7236">9</text><text fill="#000000" font-family="sans-serif" font-size="13" lengthAdjust="spacing" textLength="236" x="140" y="529.7236">shows all data and requests confirmation</text><polygon fill="#181818" points="371,562.2773,381,566.2773,371,570.2773,375,566.2773" style="stroke:#181818;stroke-width:1.0;"/><line style="stroke:#181818;stroke-width:1.0;" x1="112" x2="377" y1="566.2773" y2="566.2773"/><text fill="#000000" font-family="sans-serif" font-size="13" font-weight="bold" lengthAdjust="spacing" textLength="14" x="119" y="561.0146">10</text><text fill="#000000" font-family="sans-serif" font-size="13" lengthAdjust="spacing" textLength="78" x="137" y="561.0146">confirms data</text><polygon fill="#181818" points="123,593.5684,113,597.5684,123,601.5684,119,597.5684" style="stroke:#181818;stroke-width:1.0;"/><line style="stroke:#181818;stroke-width:1.0;stroke-dasharray:2.0,2.0;" x1="117" x2="387" y1="597.5684" y2="597.5684"/><text fill="#000000" font-family="sans-serif" font-size="13" font-weight="bold" lengthAdjust="spacing" textLength="14" x="129" y="592.3057">11</text><text fill="#000000" font-family="sans-serif" font-size="13" lengthAdjust="spacing" textLength="218" x="147" y="592.3057">notifies successful vehicle registration</text><!--SRC=[ZPG_Zzim3CLtVGesKpi4EDnum7Kga2bBZMvTM8cnXSYKAzB9vTkNbjEx_76lvy4GBFBzdfvfopxoW0Lxw3DdtvNS4sWPoSdhpe1-ZoqrUae4XRmYj-coG3eC-HYvXHqc8USqgfKs9r7geQ7V8x4d-1QndShNyADvU7nm3aVDFFQ_gDZQQowmsXGYXiQG15jamnRuoPytpVRB2b1Wytth3AhHnm5POVKqK-hclAnQyO1AjThP3TPV_xfviXEO7r41pRPkepqkWC1qXBRIPQA_YPnLKyu37Bje1mke2560iy81KmpkBBuspeIxW5n80gE5Ynm0GoWauWBTKcxDwccW_uZSIX07XqclcZuz0uyfER3hpgiT8-wYORJ3wpPCXJ2SW5ui9QdTP2_ugkRvGlhTZ1RPYpcXKTr2E9F2Sa1d6GgLMmkNcgTebdsWxEj022KRyAfQ2pzcOkwIjxQbfZkcTFaebd6QmvhUwMiSFlCkbXurPlw7aOzPEml9-y5SUxiO2Hczjo7RZGaEr4LV_m3JDrDcQ_ScBEC_]--></g></svg>